<svg width="150" height="150" viewBox="0 0 150 150" fill="none" xmlns="http://www.w3.org/2000/svg">
<g clip-path="url(#clip0_214_419)">
<path fill-rule="evenodd" clip-rule="evenodd" d="M107.09 101.743C107.248 104.77 108.578 107.618 110.801 109.681L110.527 112.081L104.735 115.408C104.272 115.668 103.887 116.045 103.617 116.502C103.348 116.958 103.204 117.477 103.2 118.006V128.44H100.2V117.99C100.207 116.93 100.495 115.891 101.033 114.978C101.57 114.068 102.338 113.315 103.258 112.796L107.391 110.423C105.413 108.007 104.246 105.007 104.092 101.853L104.09 101.78C104.09 95.5255 108.215 90.79 114.14 90.79C120.07 90.79 124.17 95.5304 124.17 101.78L124.168 101.854C124.013 105.005 122.849 108.004 120.875 110.422L125.002 112.796C125.003 112.797 125.004 112.797 125.005 112.798C125.921 113.32 126.682 114.075 127.212 114.986C127.742 115.899 128.021 116.936 128.02 117.992L126.52 117.99H128.02V117.992V128.74H125.02V117.988C125.02 117.463 124.882 116.948 124.618 116.493C124.354 116.039 123.975 115.663 123.518 115.404L123.512 115.4L117.742 112.08L117.467 109.683C119.684 107.616 121.012 104.769 121.17 101.743C121.17 101.755 121.17 101.768 121.17 101.78H122.67L121.172 101.706C121.171 101.719 121.171 101.731 121.17 101.743C121.155 96.8741 118.12 93.79 114.14 93.79C110.155 93.79 107.105 96.879 107.09 101.743Z" fill="#FF5F46"/>
<path fill-rule="evenodd" clip-rule="evenodd" d="M89.2274 23.5999C79.0595 19.3909 67.8717 18.2921 57.0792 20.4425C46.2867 22.5929 36.3745 27.896 28.5964 35.6809C20.8184 43.4658 15.524 53.3826 13.383 64.177C11.242 74.9714 12.3506 86.1582 16.5685 96.3224C20.7865 106.487 27.9243 115.171 37.079 121.278C46.2337 127.385 56.994 130.64 67.9987 130.63H68.0009C74.4345 130.634 80.8197 129.517 86.8699 127.329L87.89 130.151C81.5124 132.457 74.7819 133.634 68.0002 133.63C67.9998 133.63 67.9994 133.63 67.999 133.63L68 132.13L68.0013 133.63C68.0009 133.63 68.0005 133.63 68.0002 133.63C56.4025 133.64 45.0623 130.21 35.4142 123.774C25.7658 117.338 18.2431 108.185 13.7977 97.4723C9.35222 86.76 8.18383 74.9698 10.4403 63.5933C12.6967 52.2169 18.2767 41.7652 26.4742 33.5605C34.6717 25.3558 45.1184 19.7668 56.4929 17.5003C67.8674 15.2339 79.6586 16.392 90.3748 20.828C101.091 25.2641 110.251 32.7788 116.695 42.4216C123.14 52.0644 126.58 63.4019 126.58 75H123.58C123.58 63.9953 120.316 53.2379 114.201 44.0886C108.086 34.9392 99.3953 27.809 89.2274 23.5999Z" fill="#FF5F46"/>
<path fill-rule="evenodd" clip-rule="evenodd" d="M111.18 80.9164V75H114.18V83.6811L112.782 83.7765C107.126 84.1628 101.804 86.5957 97.8103 90.6204C93.8171 94.6452 91.4261 99.9863 91.0842 105.646C90.7424 111.305 92.4731 116.895 95.9528 121.371C99.4325 125.847 104.423 128.903 109.992 129.968C115.561 131.032 121.327 130.032 126.212 127.155C131.097 124.277 134.767 119.719 136.537 114.333C138.306 108.946 138.053 103.1 135.826 97.8863C133.598 92.6726 129.548 88.4484 124.433 86.0033L123.58 85.5956V75H126.58V83.7236C131.95 86.5336 136.196 91.1164 138.585 96.7076C141.098 102.592 141.384 109.19 139.387 115.269C137.39 121.348 133.248 126.492 127.734 129.74C122.221 132.987 115.714 134.115 109.429 132.914C103.144 131.713 97.5115 128.264 93.5843 123.212C89.6571 118.161 87.7039 111.852 88.0897 105.465C88.4755 99.0777 91.1739 93.0497 95.6807 88.5075C99.8569 84.2982 105.321 81.6318 111.18 80.9164Z" fill="#FF5F46"/>
<path fill-rule="evenodd" clip-rule="evenodd" d="M67.945 32.4289C56.589 32.4289 45.6888 36.8962 37.5991 44.8659C29.5121 52.8329 24.8827 63.6606 24.71 75.0112C24.7131 87.2954 29.7079 96.4718 34.7304 102.603C37.2437 105.671 39.7571 107.968 41.6376 109.493C41.9166 109.72 42.1814 109.929 42.43 110.121V52.57C42.43 50.8569 43.571 49.5192 44.9224 48.5509C46.3106 47.5561 48.2227 46.7216 50.4509 46.0458C54.9262 44.6885 61.0198 43.87 67.69 43.87C75.7281 43.87 82.9681 45.0709 87.5308 46.987L87.5397 46.9908C89.0459 47.6348 90.3372 48.3946 91.2769 49.267C92.2053 50.129 92.94 51.2484 92.94 52.58C92.94 53.846 92.3281 54.919 91.4844 55.7707C90.649 56.6139 89.5056 57.3291 88.1928 57.94L88.1707 57.9503L87.5409 58.2187C87.5406 58.2188 87.5412 58.2186 87.5409 58.2187C86.9277 58.4815 86.2743 58.7163 85.6109 58.9408L85.5786 58.9518L85.5458 58.9612C79.7411 60.6359 73.7189 61.4343 67.6784 61.33C64.9159 61.3348 62.1552 61.1883 59.4087 60.8913L59.7313 57.9087C62.3736 58.1945 65.0295 58.3351 67.6871 58.33L67.7017 58.33L67.7163 58.3302C73.4514 58.4306 79.1694 57.6749 84.6814 56.0882C85.3047 55.8768 85.8611 55.6747 86.3591 55.4613L86.3619 55.4601L86.9488 55.2099C88.0745 54.6841 88.8641 54.1529 89.3532 53.6593C89.837 53.171 89.94 52.814 89.94 52.58C89.94 52.4116 89.8448 52.031 89.2357 51.4655C88.6385 50.9111 87.6863 50.3166 86.3648 49.7511C82.3069 48.0482 75.5091 46.87 67.69 46.87C61.2303 46.87 55.4438 47.6665 51.3216 48.9167C49.2511 49.5446 47.685 50.262 46.6698 50.9895C45.6178 51.7433 45.43 52.2981 45.43 52.57V115.684L43.152 114.302L43.93 113.02C43.152 114.302 43.1514 114.302 43.1506 114.302L43.1437 114.297L43.1279 114.288L43.0742 114.254C43.0288 114.226 42.9643 114.185 42.882 114.132C42.7173 114.025 42.4813 113.869 42.1842 113.662C41.59 113.25 40.7504 112.637 39.7474 111.823C37.7429 110.197 35.0764 107.76 32.4096 104.504C27.0736 97.9901 21.71 88.1602 21.71 75V74.9888L21.7102 74.9776C21.8917 62.8351 26.8428 51.2513 35.4937 42.7287C44.1447 34.2062 55.8011 29.4289 67.945 29.4289C80.0889 29.4289 91.7453 34.2062 100.396 42.7287C109.047 51.2513 113.998 62.8351 114.18 74.9776L111.18 75.0224C111.01 63.6677 106.381 52.8355 98.2909 44.8659C90.2012 36.8962 79.301 32.4289 67.945 32.4289Z" fill="#FF5F46"/>
<path fill-rule="evenodd" clip-rule="evenodd" d="M59.4214 60.8926C56.1544 60.5674 52.9279 59.9179 49.7895 58.9539L50.6704 56.0861C53.6186 56.9918 56.6496 57.6019 59.7185 57.9074L59.4214 60.8926Z" fill="#FF5F46"/>
<path fill-rule="evenodd" clip-rule="evenodd" d="M59.0046 117.535C61.9175 117.987 65.0906 118.23 67.72 118.23C73.8917 118.23 78.4174 117.651 83.2714 115.744L84.3685 118.536C79.0425 120.629 74.1082 121.23 67.72 121.23C64.9293 121.23 61.6025 120.973 58.5453 120.5C55.5332 120.033 52.6103 119.331 50.733 118.363L52.1069 115.697C53.5296 116.429 56.0467 117.077 59.0046 117.535Z" fill="#FF5F46"/>
<path fill-rule="evenodd" clip-rule="evenodd" d="M90.0176 82.1758L89.94 52.6239L92.94 52.6161L93.0222 83.9215L92.2871 84.359C89.7669 85.8589 85.6869 86.9243 81.328 87.6247C76.9172 88.3336 72.0154 88.6992 67.7033 88.7C61.6575 88.806 55.6301 88.0039 49.8224 86.3207L49.8005 86.3144L49.7788 86.3074C49.1238 86.0957 48.4845 85.867 47.8901 85.6109L47.2513 85.3945L47.1772 85.36C45.8644 84.7491 44.721 84.0339 43.8856 83.1907C43.0419 82.339 42.43 81.266 42.43 80H45.43C45.43 80.234 45.5331 80.591 46.0169 81.0793C46.4985 81.5655 47.2717 82.0881 48.3704 82.6061L48.9715 82.8097L49.0299 82.8352C49.5131 83.046 50.0654 83.2467 50.6796 83.4457C56.1963 85.0422 61.9212 85.8021 67.6634 85.7002L67.6767 85.7H67.69C71.8546 85.7 76.6024 85.3457 80.852 84.6628C84.6731 84.0487 87.9342 83.1924 90.0176 82.1758Z" fill="#FF5F46"/>
</g>
<defs>
<clipPath id="clip0_214_419">
<rect width="150" height="150" fill="white"/>
</clipPath>
</defs>
</svg>
