<svg width="150" height="150" viewBox="0 0 150 150" fill="none" xmlns="http://www.w3.org/2000/svg">
<path d="M46.8 18L46.61 19.28C45.7934 23.0161 43.8615 26.4161 41.07 29.03C36.22 33.69 28.82 35.4 28.75 35.42L26.75 35.88L27.83 37.66C29.2017 40.0673 30.3595 42.5903 31.29 45.2L34.11 44.2C33.3261 42.022 32.4008 39.8974 31.34 37.84C35.7283 36.5256 39.7739 34.2621 43.19 31.21C46.111 28.4207 48.2224 24.8925 49.3 21H100.89C101.981 24.8954 104.11 28.421 107.05 31.2C110.463 34.2559 114.51 36.5198 118.9 37.83C117.839 39.8874 116.914 42.012 116.13 44.19L118.95 45.19C119.881 42.5803 121.038 40.0573 122.41 37.65L123.49 35.87L121.49 35.41C121.42 35.41 114.01 33.68 109.17 29.02C106.377 26.4097 104.442 23.0135 103.62 19.28L103.4 18H46.8Z" fill="#FF5F46"/>
<path d="M75.1 55.8601C69.1289 55.8581 63.2913 57.6275 58.326 60.9443C53.3608 64.2611 49.491 68.9762 47.2064 74.4931C44.9218 80.0099 44.325 86.0804 45.4917 91.9365C46.6583 97.7926 49.5358 103.171 53.7602 107.391C57.9845 111.611 63.3658 114.484 69.2231 115.644C75.0803 116.805 81.1503 116.202 86.6648 113.912C92.1794 111.622 96.8907 107.748 100.203 102.779C103.514 97.8106 105.278 91.9713 105.27 86.0001C105.249 78.0078 102.063 70.3493 96.4083 64.7007C90.754 59.052 83.0924 55.8733 75.1 55.8601ZM75.1 113.22C69.7256 113.222 64.4712 111.631 60.0011 108.647C55.5309 105.663 52.0456 101.422 49.9857 96.4576C47.9258 91.4936 47.3838 86.0303 48.4282 80.7584C49.4725 75.4864 52.0564 70.6424 55.8532 66.8386C59.65 63.0348 64.4893 60.4421 69.7593 59.388C75.0294 58.3339 80.4936 58.8659 85.4614 60.9166C90.4291 62.9674 94.6774 66.4449 97.6692 70.9096C100.661 75.3743 102.262 80.6257 102.27 86.0001C102.273 93.2115 99.4126 100.129 94.3181 105.233C89.2236 110.337 82.3114 113.21 75.1 113.22Z" fill="#FF5F46"/>
<path d="M80.63 78.7901L75.09 67.6101L69.58 78.7901L57.22 80.5801L66.16 89.3001L64.49 98.8101L67.44 99.3401L69.39 88.2601L63.67 82.6801L71.57 81.5301L75.1 74.3801L78.64 81.5301L86.53 82.6801L80.81 88.2601L82.16 96.1101L75.79 92.7701L74.4 95.4201L86.15 101.59L84.04 89.3001L92.97 80.5801L80.63 78.7901Z" fill="#FF5F46"/>
<path d="M125.11 49.0001C117.97 50.1501 110.35 47.2801 107.86 46.2101V38.8901L107.17 38.4501C104.319 36.7129 101.305 35.2592 98.17 34.1101C90.7653 31.305 82.9181 29.8487 75 29.8101C67.1019 29.8537 59.2753 31.31 51.89 34.1101C48.7345 35.255 45.6998 36.7088 42.83 38.4501L42.15 38.8901V46.1801C39.66 47.2501 32 50.1201 24.89 49.0001L21.89 48.5201L26.49 57.0001L22.87 64.2001L24.96 64.4801C27.9367 64.7928 30.9394 64.766 33.91 64.4001C33.242 72.0338 31.7294 79.5698 29.4 86.8701L29 88.2701C27.38 94.4501 24.93 103.79 29.59 111.09C32.48 115.62 37.75 118.61 45.24 119.96C66.43 123.78 74 130.88 74 131L75 132L76 131C76.08 130.93 83.62 123.83 104.78 120C112.27 118.65 117.53 115.66 120.42 111.13C125.08 103.84 122.63 94.4901 121.01 88.3101L120.82 87.0001V86.8901C118.493 79.5996 116.98 72.0737 116.31 64.4501C117.934 64.631 119.566 64.7211 121.2 64.7201C122.496 64.7303 123.792 64.6601 125.08 64.5101L127.16 64.2301L123.51 57.0001L128.11 48.4801L125.11 49.0001ZM53 36.9201C60.0309 34.2536 67.4807 32.8619 75 32.8101C82.5394 32.8562 90.0099 34.2481 97.06 36.9201C99.7509 37.9243 102.359 39.138 104.86 40.5501V50.8801C95.7908 45.5986 85.4948 42.7885 75 42.7301C64.508 42.786 54.2147 45.5964 45.15 50.8801V40.5501C47.6662 39.1336 50.2911 37.9197 53 36.9201ZM27.51 61.6601L29.88 57.0001L27.32 52.2601C32.3998 52.3267 37.4418 51.3782 42.15 49.4701V54.4101L46.62 57.8301C40.628 60.5553 34.0894 61.8657 27.51 61.6601ZM118.25 89.0001C119.74 94.6801 121.99 103.26 118.03 109.45C115.61 113.25 111.03 115.78 104.39 116.97C86.39 120.22 77.87 125.74 75.1 127.89C72.32 125.74 63.77 120.22 45.81 116.97C39.18 115.78 34.58 113.24 32.16 109.44C28.21 103.25 30.45 94.6801 31.94 89.0001L32.26 87.7501C34.766 80.0467 36.3569 72.0752 37 64.0001C41.6198 63.1904 46.0776 61.6369 50.2 59.4001L52.2 58.2901L46.29 53.7701C55.0042 48.6327 64.9148 45.874 75.03 45.7701C85.1453 45.874 95.0558 48.6327 103.77 53.7701L97.87 58.2901L99.87 59.4001C104.046 61.6533 108.562 63.2072 113.24 64.0001C113.861 72.0871 115.435 80.0724 117.93 87.7901L118.25 89.0001ZM122.49 61.6401C115.907 61.8272 109.369 60.4997 103.38 57.7601L107.86 54.3401V49.4301C112.569 51.3364 117.61 52.2849 122.69 52.2201L120.12 57.0001L122.49 61.6401Z" fill="#FF5F46"/>
</svg>
