<svg width="150" height="150" viewBox="0 0 150 150" fill="none" xmlns="http://www.w3.org/2000/svg">
<path d="M46.8 18L46.61 19.28C45.7934 23.0161 43.8615 26.4161 41.07 29.03C36.22 33.69 28.82 35.4 28.75 35.42L26.75 35.88L27.83 37.66C29.2017 40.0673 30.3595 42.5903 31.29 45.2L34.11 44.2C33.3261 42.022 32.4008 39.8974 31.34 37.84C35.7283 36.5256 39.7739 34.2621 43.19 31.21C46.111 28.4207 48.2224 24.8925 49.3 21H100.89C101.981 24.8954 104.11 28.421 107.05 31.2C110.463 34.2559 114.51 36.5198 118.9 37.83C117.839 39.8874 116.914 42.012 116.13 44.19L118.95 45.19C119.881 42.5803 121.038 40.0573 122.41 37.65L123.49 35.87L121.49 35.41C121.42 35.41 114.01 33.68 109.17 29.02C106.377 26.4097 104.442 23.0135 103.62 19.28L103.4 18H46.8Z" fill="#1B3139"/>
<path d="M75.1 55.86C69.1288 55.858 63.2913 57.6274 58.326 60.9442C53.3608 64.261 49.491 68.9761 47.2064 74.4929C44.9218 80.0098 44.325 86.0803 45.4916 91.9364C46.6582 97.7925 49.5358 103.171 53.7602 107.391C57.9845 111.611 63.3658 114.483 69.223 115.644C75.0803 116.805 81.1503 116.202 86.6648 113.912C92.1794 111.622 96.8907 107.748 100.203 102.779C103.514 97.8105 105.278 91.9711 105.27 86C105.249 78.0077 102.062 70.3492 96.4082 64.7005C90.754 59.0519 83.0923 55.8732 75.1 55.86V55.86ZM75.1 113.22C69.7256 113.222 64.4712 111.631 60.001 108.647C55.5309 105.663 52.0456 101.421 49.9857 96.4575C47.9258 91.4935 47.3838 86.0302 48.4281 80.7583C49.4725 75.4863 52.0564 70.6423 55.8532 66.8385C59.65 63.0347 64.4892 60.4419 69.7593 59.3879C75.0293 58.3338 80.4936 58.8658 85.4613 60.9165C90.4291 62.9673 94.6774 66.4448 97.6692 70.9095C100.661 75.3741 102.262 80.6256 102.27 86C102.273 93.2113 99.4125 100.129 94.318 105.233C89.2235 110.337 82.3113 113.209 75.1 113.22V113.22Z" fill="#1B3139"/>
<path d="M80.63 78.79L75.09 67.61L69.58 78.79L57.22 80.58L66.16 89.3L64.49 98.81L67.44 99.34L69.39 88.26L63.67 82.68L71.57 81.53L75.1 74.38L78.64 81.53L86.53 82.68L80.81 88.26L82.16 96.11L75.79 92.77L74.4 95.42L86.15 101.59L84.04 89.3L92.97 80.58L80.63 78.79Z" fill="#1B3139"/>
<path d="M125.11 49C117.97 50.15 110.35 47.28 107.86 46.21V38.89L107.17 38.45C104.319 36.7128 101.305 35.2592 98.17 34.11C90.7653 31.305 82.9181 29.8487 75 29.81V29.81C67.1019 29.8537 59.2753 31.3099 51.89 34.11C48.7345 35.255 45.6998 36.7087 42.83 38.45L42.15 38.89V46.18C39.66 47.25 32 50.12 24.89 49L21.89 48.52L26.49 57L22.87 64.2L24.96 64.48C27.9367 64.7928 30.9394 64.7659 33.91 64.4C33.242 72.0337 31.7294 79.5698 29.4 86.87L29 88.27C27.38 94.45 24.93 103.79 29.59 111.09C32.48 115.62 37.75 118.61 45.24 119.96C66.43 123.78 74 130.88 74 131L75 132L76 131C76.08 130.93 83.62 123.83 104.78 120C112.27 118.65 117.53 115.66 120.42 111.13C125.08 103.84 122.63 94.49 121.01 88.31L120.82 87V86.89C118.493 79.5995 116.98 72.0736 116.31 64.45C117.934 64.6309 119.566 64.721 121.2 64.72C122.496 64.7302 123.792 64.6601 125.08 64.51L127.16 64.23L123.51 57L128.11 48.48L125.11 49ZM53 36.92C60.0309 34.2536 67.4807 32.8618 75 32.81C82.5394 32.8562 90.0099 34.248 97.06 36.92C99.7509 37.9243 102.359 39.138 104.86 40.55V50.88C95.7908 45.5986 85.4948 42.7884 75 42.73V42.73C64.508 42.786 54.2147 45.5964 45.15 50.88V40.55C47.6662 39.1335 50.2911 37.9197 53 36.92V36.92ZM27.51 61.66L29.88 57L27.32 52.26C32.3998 52.3267 37.4418 51.3781 42.15 49.47V54.41L46.62 57.83C40.628 60.5552 34.0894 61.8657 27.51 61.66V61.66ZM118.25 89C119.74 94.68 121.99 103.26 118.03 109.45C115.61 113.25 111.03 115.78 104.39 116.97C86.39 120.22 77.87 125.74 75.1 127.89C72.32 125.74 63.77 120.22 45.81 116.97C39.18 115.78 34.58 113.24 32.16 109.44C28.21 103.25 30.45 94.68 31.94 89L32.26 87.75C34.766 80.0466 36.3569 72.0752 37 64C41.6198 63.1903 46.0776 61.6368 50.2 59.4L52.2 58.29L46.29 53.77C55.0042 48.6327 64.9148 45.874 75.03 45.77C85.1453 45.874 95.0558 48.6327 103.77 53.77V53.77L97.87 58.29L99.87 59.4C104.046 61.6532 108.562 63.2071 113.24 64C113.861 72.087 115.435 80.0723 117.93 87.79L118.25 89ZM122.49 61.64C115.907 61.8271 109.369 60.4997 103.38 57.76L107.86 54.34V49.43C112.569 51.3363 117.61 52.2848 122.69 52.22L120.12 57L122.49 61.64Z" fill="#1B3139"/>
</svg>
