<svg width="136" height="136" viewBox="0 0 136 136" fill="none" xmlns="http://www.w3.org/2000/svg">
<rect width="136" height="136" fill="#FF5F46"/>
<path d="M114.592 95.7037V40.2963L67.9998 13.8518L21.4072 40.2963V95.7037L67.9998 122.148L114.592 95.7037Z" fill="#FABFBA"/>
<path d="M21.4074 43.4445C23.1461 43.4445 24.5556 42.035 24.5556 40.2963C24.5556 38.5577 23.1461 37.1482 21.4074 37.1482C19.6688 37.1482 18.2593 38.5577 18.2593 40.2963C18.2593 42.035 19.6688 43.4445 21.4074 43.4445Z" fill="#801C17"/>
<path d="M114.592 43.5702C116.331 43.5702 117.741 42.1608 117.741 40.4221C117.741 38.6834 116.331 37.2739 114.592 37.2739C112.854 37.2739 111.444 38.6834 111.444 40.4221C111.444 42.1608 112.854 43.5702 114.592 43.5702Z" fill="#801C17"/>
<path d="M68.0002 125.296C69.7389 125.296 71.1483 123.887 71.1483 122.148C71.1483 120.409 69.7389 119 68.0002 119C66.2615 119 64.8521 120.409 64.8521 122.148C64.8521 123.887 66.2615 125.296 68.0002 125.296Z" fill="#801C17"/>
<path d="M68 103.259V66.741" stroke="#FF5F46" stroke-width="2"/>
<path d="M36.5186 49.1111L68 66.7407" stroke="#FF5F46" stroke-width="2"/>
<path d="M99.4814 49.1111L68 66.7407" stroke="#FF5F46" stroke-width="2"/>
</svg>
