<svg width="150" height="150" viewBox="0 0 150 150" fill="none" xmlns="http://www.w3.org/2000/svg">
<path d="M74.8 15C42.6 15 16.3 41.2 16.3 73.5C16.3 95.8 29.2 116.4 49.3 126.1L50.6 123.4C31.6 114.2 19.3 94.6 19.3 73.5C19.4 42.9 44.3 18 74.8 18C105.3 18 130.3 42.9 130.3 73.5C130.3 103.6 106.2 128.1 76.3 128.9V110.2C88.7 109.4 98.5 99.1 98.5 86.6V57.4H92.1V42.1C92.1 38.8 89.4 36.2 86.2 36.2C82.9 36.2 80.3 38.9 80.3 42.1V57.4H69.4V42.1C69.4 38.8 66.7 36.2 63.5 36.2C60.3 36.2 57.6 38.9 57.6 42.1V57.4H51.2V86.6C51.2 99.2 61 109.5 73.4 110.2V131.9H74.9C107.1 131.9 133.4 105.7 133.4 73.4C133.3 41.2 107.1 15 74.8 15ZM83.2 42.1C83.2 40.5 84.5 39.2 86.1 39.2C87.7 39.2 89 40.5 89 42.1V57.4H83.1V42.1H83.2ZM60.6 42.1C60.6 40.5 61.9 39.2 63.5 39.2C65.1 39.2 66.4 40.5 66.4 42.1V57.4H60.5V42.1H60.6ZM95.5 60.4V66H54.2V60.4H95.5ZM54.2 86.6V69H95.6V86.5C95.6 97.9 86.3 107.2 74.9 107.2C63.5 107.2 54.2 98 54.2 86.6Z" fill="white"/>
<path d="M73.2 84.5L81 76.7L78.9 74.5L66 87.5H76.4L68.2 95.6L70.3 97.8L83.6 84.5H73.2Z" fill="white"/>
</svg>
