<svg width="150" height="150" viewBox="0 0 150 150" fill="none" xmlns="http://www.w3.org/2000/svg">
<path d="M118.592 66.9658C114.888 66.9658 111.889 69.6116 111.272 73.1392H89.0477V75.785H111.184C111.801 79.3126 114.888 81.9584 118.504 81.9584C122.649 81.9584 126 78.6071 126 74.4621C126 70.3171 122.737 66.9658 118.592 66.9658ZM118.592 79.2245C115.946 79.2245 113.741 77.0197 113.741 74.3739C113.741 71.7282 115.946 69.5234 118.592 69.5234C121.238 69.5234 123.442 71.7282 123.442 74.3739C123.442 77.0197 121.238 79.2245 118.592 79.2245Z" fill="white"/>
<path d="M34.8982 74.4621C34.8982 78.6071 38.2495 81.9584 42.3945 81.9584C46.0985 81.9584 49.097 79.3126 49.7144 75.785H54.6531V73.1392H49.7144C49.097 69.6116 46.0103 66.9658 42.3945 66.9658C38.2495 66.9658 34.8982 70.3171 34.8982 74.4621ZM47.245 74.4621C47.245 77.1079 45.0402 79.3126 42.3945 79.3126C39.7487 79.3126 37.5439 77.1079 37.5439 74.4621C37.5439 71.8164 39.7487 69.6116 42.3945 69.6116C45.0402 69.6116 47.245 71.7282 47.245 74.4621Z" fill="white"/>
<path d="M70.0861 51.1808L68.8514 48.7996C67.1758 49.6815 65.3238 50.1225 63.3835 50.1225C57.7393 50.1225 52.8887 46.1539 51.7423 40.5978L49.1847 41.1269C50.5958 47.8295 56.5928 52.7682 63.4717 52.7682C65.6765 52.7682 67.9695 52.2391 70.0861 51.1808Z" fill="white"/>
<path d="M58.974 56.8238C57.6512 58.2349 56.0637 59.205 54.2999 59.9105C52.3597 58.3231 49.9785 57.0002 47.5091 56.2947L46.8036 58.8522C51.7423 60.2633 55.7991 63.9673 57.563 68.7297L60.0323 67.7596C59.2386 65.5548 58.0039 63.6146 56.4165 61.8508C58.0921 61.057 59.5914 59.9987 60.9143 58.5877L58.974 56.8238Z" fill="white"/>
<path d="M91.693 114.325C90.7229 114.325 89.841 114.502 89.0472 114.854L83.5794 105.947L81.2864 107.358L86.7543 116.265C85.1668 117.677 84.1967 119.617 84.1967 121.91C84.1967 126.055 87.548 129.406 91.693 129.406C95.838 129.406 99.1893 126.055 99.1893 121.91C99.1893 117.765 95.838 114.325 91.693 114.325ZM91.693 126.584C89.0472 126.584 86.8424 124.379 86.8424 121.733C86.8424 119.088 89.0472 116.883 91.693 116.883C94.3387 116.883 96.5435 119.088 96.5435 121.733C96.5435 124.379 94.3387 126.584 91.693 126.584Z" fill="white"/>
<path d="M74.4077 96.599C74.4077 103.302 68.9398 108.681 62.3254 108.681C61.3553 108.681 60.4734 108.593 59.5915 108.328L58.9741 110.886C60.0324 111.151 61.1789 111.239 62.3254 111.239C67.3523 111.239 71.7619 108.769 74.4077 104.889V114.414C74.4077 121.116 68.9398 126.496 62.3254 126.496C55.6229 126.496 50.2432 121.028 50.2432 114.414C50.2432 111.062 51.566 107.976 54.0354 105.683L52.1834 103.742C49.9786 105.859 48.4793 108.505 47.9502 111.415C39.3074 111.415 31.1938 102.861 31.1938 93.7768C31.1938 91.5721 31.6347 89.3673 32.5166 87.3389L32.7812 86.9861C28.7244 84.0758 26.4314 79.4016 26.4314 74.4629C26.4314 66.3492 32.5166 59.4703 40.6303 58.5884L40.2775 55.3253C36.838 51.6212 35.6915 45.8888 37.1026 40.5091C38.1609 36.5405 40.7185 33.2774 44.4225 31.249C47.862 29.3088 51.8306 28.6914 55.3583 29.6615C60.5616 31.0726 64.1774 35.9231 64.7066 41.9202L67.6169 41.6556C67.176 36.2759 64.5302 31.6899 60.5616 28.956C60.8262 25.3401 63.8247 22.4298 67.5287 22.4298C71.4092 22.4298 74.4959 25.6047 74.4959 29.3969V70.4061H77.1416V29.3969C77.1416 24.1054 72.8202 19.7841 67.5287 19.7841C62.8546 19.7841 58.9741 23.1353 58.0922 27.5449C57.4749 27.2803 56.7693 27.0158 56.0638 26.8394C51.8306 25.6929 47.0683 26.3984 42.9233 28.6914C38.6019 31.1608 35.5152 35.0412 34.2805 39.6272C32.693 45.4478 33.7513 51.533 37.0144 55.9426C28.9008 58.3238 23.1683 65.7319 23.1683 74.4629C23.1683 79.578 25.1967 84.4285 28.7244 87.9562C28.1071 89.8964 27.7543 91.8366 27.7543 93.865C27.7543 104.713 37.1908 114.59 47.5092 114.766C47.6856 122.792 54.2118 129.23 62.2372 129.23C70.3509 129.23 76.9652 122.616 76.9652 114.502V78.4315H74.3195V96.599H74.4077Z" fill="white"/>
<path d="M105.275 50.5614C106.509 51.4433 107.92 51.8843 109.508 51.8843C113.653 51.8843 117.004 48.533 117.004 44.388C117.004 40.243 113.653 36.8917 109.508 36.8917C105.363 36.8917 102.012 40.243 102.012 44.388C102.012 45.9755 102.541 47.4747 103.334 48.6212L92.2223 59.9097H80.8456V62.5555H93.3688L105.275 50.5614ZM109.596 39.5375C112.242 39.5375 114.447 41.7423 114.447 44.388C114.447 47.0338 112.242 49.2386 109.596 49.2386C106.95 49.2386 104.746 47.0338 104.746 44.388C104.746 41.7423 106.862 39.5375 109.596 39.5375Z" fill="white"/>
<path d="M86.4014 73.1387H81.1099V75.7844H86.4014V73.1387Z" fill="white"/>
<path d="M78.4645 73.1387H73.173V75.7844H78.4645V73.1387Z" fill="white"/>
<path d="M70.5274 73.1387H65.2359V75.7844H70.5274V73.1387Z" fill="white"/>
<path d="M62.5897 73.1387H57.2982V75.7844H62.5897V73.1387Z" fill="white"/>
<path d="M83.5794 42.9776L88.959 34.2466C89.841 34.5994 90.7229 34.7758 91.693 34.7758C95.838 34.7758 99.1893 31.4245 99.1893 27.2795C99.1893 23.1345 95.838 19.7832 91.693 19.7832C87.548 19.7832 84.1967 23.1345 84.1967 27.2795C84.1967 29.4843 85.1668 31.5127 86.6661 32.8356L81.2864 41.5665L83.5794 42.9776ZM91.693 22.429C94.3387 22.429 96.5435 24.6337 96.5435 27.2795C96.5435 29.9252 94.3387 32.13 91.693 32.13C89.0472 32.13 86.8424 29.9252 86.8424 27.2795C86.8424 24.6337 89.0472 22.429 91.693 22.429Z" fill="white"/>
<path d="M109.596 97.0383C108.009 97.0383 106.509 97.5674 105.363 98.3611L93.2806 86.3671H80.8456V89.0128H92.2223L103.423 100.213C102.541 101.448 102.1 102.859 102.1 104.446C102.1 108.591 105.451 111.943 109.596 111.943C113.741 111.943 117.092 108.591 117.092 104.446C117.092 100.301 113.653 97.0383 109.596 97.0383ZM109.596 109.297C106.95 109.297 104.746 107.092 104.746 104.446C104.746 101.801 106.95 99.5958 109.596 99.5958C112.242 99.5958 114.447 101.801 114.447 104.446C114.447 107.092 112.242 109.297 109.596 109.297Z" fill="white"/>
<path d="M62.3251 96.1573C62.4133 95.6281 62.5015 95.1872 62.5015 94.658C62.5015 90.954 59.8557 87.9554 56.328 87.3381C57.9155 85.5743 59.2384 83.4577 60.1203 81.0765L57.6509 80.1946C56.4162 83.6341 54.0351 86.4562 51.0365 88.3964C50.9484 88.4846 50.8602 88.4846 50.8602 88.4846C48.3026 90.072 45.3923 90.954 42.3056 90.954C41.7764 90.954 41.1591 90.954 40.6299 90.8658L40.3654 93.5115C40.9827 93.5997 41.6882 93.5997 42.3056 93.5997C46.0096 93.5997 49.5373 92.5414 52.4476 90.6012C53.2413 90.1602 54.0351 89.8957 55.0052 89.8957C57.6509 89.8957 59.8557 92.1005 59.8557 94.7462C59.8557 95.099 59.8557 95.3635 59.7675 95.7163L62.3251 96.1573Z" fill="white"/>
</svg>
