<svg width="150" height="150" viewBox="0 0 150 150" fill="none" xmlns="http://www.w3.org/2000/svg">
<path d="M97.2234 37.1562C97.2234 35.7601 96.0912 34.628 94.6951 34.6279H90.2107V61.0547H90.4607L97.2234 57.1504V37.1562ZM100.223 58.0166C100.223 58.5523 99.9373 59.0475 99.4734 59.3154L91.6121 63.8535C91.3841 63.9851 91.1253 64.0547 90.8621 64.0547H88.7107C87.8823 64.0547 87.2107 63.3831 87.2107 62.5547V33.1279C87.2107 32.2995 87.8823 31.6279 88.7107 31.6279H94.6951C97.748 31.628 100.223 34.1033 100.223 37.1562V58.0166Z" fill="white"/>
<path d="M16.7815 122.856V116.872C16.7815 116.044 17.4531 115.372 18.2815 115.372H84.6829C86.0789 115.372 87.2112 114.24 87.2112 112.844V89.6943C87.2112 88.8659 87.8828 88.1943 88.7112 88.1943H90.8625L91.0588 88.207C91.2533 88.2327 91.4416 88.2968 91.6125 88.3955L99.4729 92.9336C99.937 93.2015 100.223 93.6966 100.223 94.2324V122.856C100.223 125.909 97.7476 128.385 94.6946 128.385H22.3098C19.2568 128.385 16.7815 125.909 16.7815 122.856ZM90.2112 112.844C90.2112 115.897 87.7358 118.372 84.6829 118.372H19.7815V122.856C19.7815 124.253 20.9137 125.385 22.3098 125.385H94.6946C96.0907 125.385 97.2229 124.253 97.2229 122.856V95.0977L90.4612 91.1943H90.2112V112.844Z" fill="white"/>
<path d="M6.7688 112.844V38.1533L6.77661 38.0049C6.81074 37.6616 6.96217 37.3389 7.20825 37.0928L22.2463 22.0547L22.3557 21.9551C22.6227 21.7362 22.9586 21.6152 23.3069 21.6152H33.9143C34.7426 21.6154 35.4143 22.2869 35.4143 23.1152C35.4143 23.9436 34.7426 24.6151 33.9143 24.6152H23.928L9.7688 38.7744V112.844L9.78149 113.102C9.91083 114.376 10.9882 115.371 12.2971 115.371H84.6829C86.0787 115.371 87.21 114.24 87.2102 112.844V91.1943H75.7561C72.7032 91.1943 70.2279 88.7189 70.2278 85.666V66.583C70.2278 63.5301 72.7032 61.0547 75.7561 61.0547H87.2102V27.1436C87.2102 25.7475 86.0789 24.6154 84.6829 24.6152H43.3127C42.4843 24.6152 41.8127 23.9437 41.8127 23.1152C41.8127 22.2868 42.4843 21.6152 43.3127 21.6152H84.6829C87.7357 21.6154 90.2102 24.0907 90.2102 27.1436V62.5547C90.2102 63.3831 89.5386 64.0547 88.7102 64.0547H75.7561C74.36 64.0547 73.2278 65.1869 73.2278 66.583V85.666C73.2279 87.062 74.3601 88.1943 75.7561 88.1943H88.7102C89.5386 88.1943 90.2102 88.8659 90.2102 89.6943V112.844C90.21 115.896 87.7356 118.371 84.6829 118.371H12.2971C9.33958 118.371 6.92375 116.049 6.77563 113.128L6.7688 112.844Z" fill="white"/>
<path d="M72.0332 51.8301C72.8616 51.8301 73.5332 52.5017 73.5332 53.3301C73.5332 54.1585 72.8616 54.8301 72.0332 54.8301H57.0244C56.196 54.8301 55.5244 54.1585 55.5244 53.3301C55.5244 52.5017 56.196 51.8301 57.0244 51.8301H72.0332Z" fill="white"/>
<path d="M72.0332 63.3408C72.8616 63.3408 73.5332 64.0124 73.5332 64.8408C73.5332 65.6692 72.8616 66.3408 72.0332 66.3408H57.0244C56.196 66.3408 55.5244 65.6692 55.5244 64.8408C55.5244 64.0124 56.196 63.3408 57.0244 63.3408H72.0332Z" fill="white"/>
<path d="M71.7285 74.8506C72.5568 74.8508 73.2285 75.5223 73.2285 76.3506C73.2285 77.1789 72.5568 77.8504 71.7285 77.8506H57.0244C56.196 77.8506 55.5244 77.179 55.5244 76.3506C55.5244 75.5222 56.196 74.8506 57.0244 74.8506H71.7285Z" fill="white"/>
<path d="M72.0334 86.3613L72.1868 86.3691C72.9431 86.446 73.5334 87.0847 73.5334 87.8613C73.5334 88.638 72.9431 89.2767 72.1868 89.3535L72.0334 89.3613H24.9456C24.1171 89.3613 23.4456 88.6898 23.4456 87.8613C23.4456 87.0329 24.1171 86.3613 24.9456 86.3613H72.0334Z" fill="white"/>
<path d="M72.0334 97.8711L72.1868 97.8789C72.9431 97.9557 73.5334 98.5945 73.5334 99.3711C73.5334 100.148 72.9431 100.786 72.1868 100.863L72.0334 100.871H24.9456C24.1171 100.871 23.4456 100.2 23.4456 99.3711C23.4456 98.5427 24.1171 97.8711 24.9456 97.8711H72.0334Z" fill="white"/>
<path d="M45.551 57.2988V54.8301H26.4456V57.2988C26.4456 58.1273 25.774 58.7988 24.9456 58.7988C24.1171 58.7988 23.4456 58.1273 23.4456 57.2988V53.3301C23.4456 52.5017 24.1171 51.8301 24.9456 51.8301H47.051C47.8793 51.8303 48.551 52.5018 48.551 53.3301V57.2988C48.551 58.1271 47.8793 58.7986 47.051 58.7988C46.2226 58.7988 45.551 58.1273 45.551 57.2988Z" fill="white"/>
<path d="M34.4983 76.3506V53.3301C34.4983 52.5017 35.1699 51.8301 35.9983 51.8301C36.8267 51.8301 37.4983 52.5017 37.4983 53.3301V76.3506C37.4983 77.179 36.8267 77.8506 35.9983 77.8506C35.1699 77.8506 34.4983 77.179 34.4983 76.3506Z" fill="white"/>
<path d="M40.7075 74.8506C41.5358 74.8508 42.2075 75.5223 42.2075 76.3506C42.2075 77.1789 41.5358 77.8504 40.7075 77.8506H31.2896C30.4611 77.8506 29.7896 77.179 29.7896 76.3506C29.7896 75.5222 30.4611 74.8506 31.2896 74.8506H40.7075Z" fill="white"/>
<path d="M47.0503 36.6533C47.8787 36.6533 48.5503 37.3249 48.5503 38.1533C48.5503 38.9817 47.8787 39.6533 47.0503 39.6533H44.9419C44.1135 39.6533 43.4419 38.9817 43.4419 38.1533C43.4419 37.3249 44.1135 36.6533 44.9419 36.6533H47.0503Z" fill="white"/>
<path d="M38.2107 36.6533C39.039 36.6535 39.7107 37.325 39.7107 38.1533C39.7107 38.9816 39.039 39.6532 38.2107 39.6533H36.1013C35.2729 39.6533 34.6013 38.9817 34.6013 38.1533C34.6013 37.3249 35.2729 36.6533 36.1013 36.6533H38.2107Z" fill="white"/>
<path d="M140.231 76.124C140.231 66.5572 132.445 58.7715 122.878 58.7715C122.05 58.7715 121.378 58.0999 121.378 57.2715C121.378 56.4431 122.05 55.7715 122.878 55.7715C134.102 55.7715 143.231 64.9003 143.231 76.124C143.231 87.3478 134.102 96.4766 122.878 96.4766C122.05 96.4766 121.378 95.805 121.378 94.9766C121.378 94.1482 122.05 93.4766 122.878 93.4766C132.445 93.4766 140.231 85.6909 140.231 76.124Z" fill="white"/>
<path d="M130.769 76.124C130.769 71.7744 127.228 68.2334 122.878 68.2334C122.05 68.2334 121.378 67.5618 121.378 66.7334C121.378 65.905 122.05 65.2334 122.878 65.2334C128.885 65.2334 133.769 70.1176 133.769 76.124C133.769 82.1306 128.885 87.0156 122.878 87.0156C122.05 87.0156 121.379 86.3439 121.378 85.5156C121.378 84.6872 122.05 84.0156 122.878 84.0156C127.228 84.0156 130.769 80.4738 130.769 76.124Z" fill="white"/>
<path d="M89.3623 76.0742C89.3623 75.2458 90.0339 74.5742 90.8623 74.5742C91.6907 74.5742 92.3623 75.2458 92.3623 76.0742V88.8281L111.894 100.104C112.326 100.354 112.865 100.042 112.865 99.543V52.7061C112.865 52.2073 112.326 51.8954 111.894 52.1445L92.3623 63.4199V66.6758C92.3621 67.504 91.6906 68.1758 90.8623 68.1758C90.034 68.1758 89.3625 67.504 89.3623 66.6758V62.5547C89.3624 62.0189 89.6483 61.5238 90.1123 61.2559L110.394 49.5469C112.826 48.1429 115.865 49.8977 115.865 52.7061V99.543C115.865 102.351 112.826 104.106 110.394 102.702L90.1123 90.9932C89.6483 90.7252 89.3623 90.2302 89.3623 89.6943V76.0742Z" fill="white"/>
<path d="M70.228 85.666V66.583C70.228 63.53 72.7034 61.0547 75.7563 61.0547H90.8618C91.6902 61.0547 92.3618 61.7263 92.3618 62.5547C92.3618 63.3831 91.6902 64.0547 90.8618 64.0547H75.7563C74.3602 64.0547 73.228 65.1869 73.228 66.583V85.666C73.228 87.0621 74.3602 88.1943 75.7563 88.1943H90.8618C91.6902 88.1943 92.3618 88.8659 92.3618 89.6943C92.3616 90.5226 91.6901 91.1943 90.8618 91.1943H75.7563C72.7034 91.1943 70.228 88.719 70.228 85.666Z" fill="white"/>
<path d="M21.8068 26.7363L11.8898 36.6533H19.2785C20.6746 36.6533 21.8068 35.5211 21.8068 34.1249V26.7363ZM24.8068 34.1249C24.8068 37.1779 22.3315 39.6533 19.2785 39.6533H8.26875C7.66214 39.6533 7.11524 39.2879 6.88301 38.7275C6.65084 38.167 6.77923 37.5217 7.2082 37.0927L22.2463 22.0546C22.6753 21.6257 23.3206 21.4973 23.8811 21.7294C24.4414 21.9617 24.8068 22.5086 24.8068 23.1152V34.1249Z" fill="white"/>
<path d="M72.0332 36.6533C72.8616 36.6533 73.5332 37.3249 73.5332 38.1533C73.5332 38.9817 72.8616 39.6533 72.0332 39.6533H57.0244C56.196 39.6533 55.5244 38.9817 55.5244 38.1533C55.5244 37.3249 56.196 36.6533 57.0244 36.6533H72.0332Z" fill="white"/>
</svg>
