<svg width="512" height="512" viewBox="0 0 512 512" fill="none" xmlns="http://www.w3.org/2000/svg">
<path d="M256 64L456 208H56L256 64Z" fill="#618794"/>
<path d="M63.6797 360.002H247.68V360.002C247.68 408.603 208.281 448.002 159.68 448.002H151.68C103.079 448.002 63.6797 408.603 63.6797 360.002V360.002Z" fill="#C4CCD6"/>
<path d="M63.6799 249.812H247.68V249.812C247.68 298.414 208.281 337.812 159.68 337.812H151.68C103.079 337.812 63.6799 298.414 63.6799 249.812V249.812Z" fill="#618794"/>
<path d="M447.68 337.812L263.68 337.812V337.812C263.68 289.211 303.079 249.813 351.68 249.813L359.68 249.813C408.281 249.813 447.68 289.211 447.68 337.812V337.812Z" fill="#C4CCD6"/>
<path d="M447.68 448L263.68 448V448C263.68 399.399 303.079 360 351.68 360L359.68 360C408.281 360 447.68 399.399 447.68 448V448Z" fill="#618794"/>
</svg>
