<svg width="150" height="150" viewBox="0 0 150 150" fill="none" xmlns="http://www.w3.org/2000/svg">
<path d="M76.2 73.2702L100.62 59.1602" stroke="#1B3139" stroke-width="3" stroke-miterlimit="3" stroke-linecap="square"/>
<path d="M51.53 59.02L76.2 73.27V101.74" stroke="#1B3139" stroke-width="3" stroke-miterlimit="3" stroke-linecap="square"/>
<path d="M21.01 87.3701H31.0601C31.9101 90.1001 33.0099 92.7201 34.3199 95.2101L27.21 102.32L47.15 122.26L54.26 115.15C56.75 116.46 59.37 117.56 62.1 118.41V128.46H76.2V111.42" stroke="#1B3139" stroke-width="3" stroke-miterlimit="3" stroke-linecap="square"/>
<path d="M62.1 18.0801V28.1301C59.37 28.9801 56.75 30.0801 54.26 31.3901L47.15 24.2801L27.21 44.2201L34.3199 51.3301C33.0099 53.8201 31.9101 56.4401 31.0601 59.1701H21.01V78.9101" stroke="#1B3139" stroke-width="3" stroke-miterlimit="3" stroke-linecap="square"/>
<path d="M131.39 59.1598H121.34C120.49 56.4298 119.39 53.8098 118.08 51.3198L125.19 44.2098L105.25 24.2698L98.14 31.3798C95.65 30.0698 93.03 28.9698 90.3 28.1198V18.0698H76.2V35.1098" stroke="#1B3139" stroke-width="3" stroke-miterlimit="3" stroke-linecap="square"/>
<path d="M90.3 128.45V118.4C93.03 117.55 95.65 116.45 98.14 115.14L105.25 122.25L125.19 102.31L118.08 95.2001C119.39 92.7101 120.49 90.0901 121.34 87.3601H131.39V67.6201" stroke="#1B3139" stroke-width="3" stroke-miterlimit="3" stroke-linecap="square"/>
<path d="M90.22 65.1699C91.6 67.5499 92.39 70.3199 92.39 73.2699C92.39 79.3299 89.06 84.6099 84.14 87.3799" stroke="#1B3139" stroke-width="3" stroke-miterlimit="3" stroke-linecap="square"/>
<path d="M62.1801 65.1701C64.9801 60.3301 70.21 57.0801 76.2 57.0801C79.39 57.0801 82.37 58.0101 84.88 59.6001" stroke="#1B3139" stroke-width="3" stroke-miterlimit="3" stroke-linecap="square"/>
<path d="M76.2 89.45C67.26 89.45 60.01 82.2 60.01 73.26C60.01 72.75 60.03 72.24 60.08 71.75" stroke="#1B3139" stroke-width="3" stroke-miterlimit="3" stroke-linecap="square"/>
<path d="M105.05 85.0896V68.1396" stroke="#1B3139" stroke-width="3" stroke-miterlimit="3" stroke-linecap="square"/>
<path d="M47.35 78.3899V61.4399" stroke="#1B3139" stroke-width="3" stroke-miterlimit="3" stroke-linecap="square"/>
<path d="M51.53 92.3398L66.21 100.82" stroke="#1B3139" stroke-width="3" stroke-miterlimit="3" stroke-linecap="square"/>
<path d="M86.1801 45.71L100.87 54.19" stroke="#1B3139" stroke-width="3" stroke-miterlimit="3" stroke-linecap="square"/>
<path d="M72.01 42.3701L57.33 50.8401" stroke="#1B3139" stroke-width="3" stroke-miterlimit="3" stroke-linecap="square"/>
<path d="M95.0699 95.6899L80.38 104.16" stroke="#1B3139" stroke-width="3" stroke-miterlimit="3" stroke-linecap="square"/>
<path d="M76.2 44.7899C78.873 44.7899 81.04 42.6229 81.04 39.9499C81.04 37.2768 78.873 35.1099 76.2 35.1099C73.5269 35.1099 71.36 37.2768 71.36 39.9499C71.36 42.6229 73.5269 44.7899 76.2 44.7899Z" stroke="#1B3139" stroke-width="3" stroke-miterlimit="3" stroke-linecap="square"/>
<path d="M76.2 111.42C78.873 111.42 81.04 109.253 81.04 106.58C81.04 103.907 78.873 101.74 76.2 101.74C73.5269 101.74 71.36 103.907 71.36 106.58C71.36 109.253 73.5269 111.42 76.2 111.42Z" stroke="#1B3139" stroke-width="3" stroke-miterlimit="3" stroke-linecap="square"/>
<path d="M105.05 94.7601C107.723 94.7601 109.89 92.5931 109.89 89.9201C109.89 87.247 107.723 85.0801 105.05 85.0801C102.377 85.0801 100.21 87.247 100.21 89.9201C100.21 92.5931 102.377 94.7601 105.05 94.7601Z" stroke="#1B3139" stroke-width="3" stroke-miterlimit="3" stroke-linecap="square"/>
<path d="M105.05 61.45C107.723 61.45 109.89 59.2831 109.89 56.61C109.89 53.937 107.723 51.77 105.05 51.77C102.377 51.77 100.21 53.937 100.21 56.61C100.21 59.2831 102.377 61.45 105.05 61.45Z" stroke="#1B3139" stroke-width="3" stroke-miterlimit="3" stroke-linecap="square"/>
<path d="M47.35 61.45C50.023 61.45 52.1899 59.2831 52.1899 56.61C52.1899 53.937 50.023 51.77 47.35 51.77C44.6769 51.77 42.51 53.937 42.51 56.61C42.51 59.2831 44.6769 61.45 47.35 61.45Z" stroke="#1B3139" stroke-width="3" stroke-miterlimit="3" stroke-linecap="square"/>
<path d="M47.35 94.7601C50.023 94.7601 52.1899 92.5931 52.1899 89.9201C52.1899 87.247 50.023 85.0801 47.35 85.0801C44.6769 85.0801 42.51 87.247 42.51 89.9201C42.51 92.5931 44.6769 94.7601 47.35 94.7601Z" stroke="#1B3139" stroke-width="3" stroke-miterlimit="3" stroke-linecap="square"/>
</svg>
