<svg width="150" height="150" viewBox="0 0 150 150" fill="none" xmlns="http://www.w3.org/2000/svg">
<path d="M32.83 83.8299H45.83C46.4824 83.8299 47.1082 84.0891 47.5695 84.5504C48.0308 85.0118 48.29 85.6375 48.29 86.2899V95.5299C43.6073 95.8936 39.1927 97.859 35.7888 101.095C32.3849 104.332 30.1994 108.641 29.6 113.3C27.9955 112.949 26.335 112.94 24.7268 113.273C23.1185 113.607 21.5984 114.275 20.2654 115.234C18.9324 116.194 17.8164 117.423 16.99 118.843C16.1636 120.262 15.6452 121.84 15.4687 123.473C15.2922 125.106 15.4615 126.757 15.9656 128.321C16.4697 129.884 17.2972 131.323 18.3943 132.546C19.4915 133.768 20.8337 134.745 22.3336 135.415C23.8335 136.084 25.4576 136.43 27.1 136.43H62.22V133.43H27.1C25.8361 133.431 24.587 133.158 23.4396 132.627C22.2923 132.097 21.2742 131.323 20.4563 130.36C19.6384 129.396 19.0403 128.266 18.7036 127.048C18.3669 125.829 18.2997 124.552 18.5066 123.305C18.7136 122.059 19.1897 120.872 19.9019 119.828C20.6142 118.783 21.5454 117.907 22.6307 117.259C23.7161 116.611 24.9295 116.208 26.1866 116.077C27.4438 115.946 28.7144 116.09 29.91 116.5L30.45 116.7L32.45 117.4V115.16C32.6014 111.193 34.0981 107.395 36.694 104.391C39.2899 101.387 42.8306 99.3557 46.7341 98.6308C50.6376 97.906 54.6715 98.5308 58.1728 100.402C61.6741 102.274 64.4344 105.281 66 108.93L68.74 107.72C67.2307 104.275 64.8021 101.313 61.7205 99.1574C58.6389 97.0019 55.0232 95.7365 51.27 95.4999V86.2899C51.2674 84.8426 50.6913 83.4554 49.6679 82.432C48.6445 81.4086 47.2573 80.8326 45.81 80.8299H32.81C28.4872 80.7237 24.3771 78.9318 21.3573 75.8369C18.3374 72.7419 16.647 68.5891 16.647 64.2649C16.647 59.9408 18.3374 55.7879 21.3573 52.693C24.3771 49.598 28.4872 47.8061 32.81 47.6999C34.6551 47.6954 36.4876 48.0031 38.23 48.6099C38.52 48.7099 38.8 48.8099 39.08 48.9299L41.08 49.7299V47.5299C41.0749 47.4433 41.0749 47.3565 41.08 47.2699C41.412 39.7132 44.3994 32.5158 49.5163 26.9451C54.6331 21.3744 61.5513 17.7876 69.0527 16.8162C76.5541 15.8448 84.1577 17.551 90.5248 21.6345C96.8918 25.7181 101.614 31.917 103.86 39.1399C101.258 40.3232 98.8927 41.9701 96.88 43.9999L99 46.0999C100.88 44.195 103.121 42.6834 105.592 41.6533C108.062 40.6232 110.713 40.0951 113.39 40.0999C118.708 40.2178 123.768 42.4131 127.487 46.2157C131.206 50.0182 133.289 55.1259 133.289 60.4449C133.289 65.764 131.206 70.8716 127.487 74.6742C123.768 78.4767 118.708 80.672 113.39 80.7899H104.19C102.743 80.7925 101.356 81.3687 100.332 82.392C99.3088 83.4154 98.7327 84.8026 98.73 86.2499V98.4499H100.23C103.862 98.4531 107.404 99.5858 110.363 101.691C113.323 103.796 115.555 106.77 116.75 110.2C115.408 110.874 114.179 111.755 113.11 112.81L115.23 114.94C116.232 113.926 117.427 113.122 118.744 112.576C120.061 112.03 121.474 111.753 122.9 111.76C125.717 111.845 128.389 113.025 130.351 115.047C132.313 117.07 133.411 119.777 133.411 122.595C133.411 125.413 132.313 128.12 130.351 130.143C128.389 132.165 125.717 133.344 122.9 133.43H77.41C76.1461 133.431 74.897 133.158 73.7496 132.627C72.6023 132.097 71.5842 131.323 70.7663 130.36C69.9484 129.396 69.3503 128.266 69.0136 127.048C68.6769 125.829 68.6097 124.552 68.8166 123.305C69.0236 122.059 69.4997 120.872 70.2119 119.828C70.9242 118.783 71.8554 117.907 72.9407 117.259C74.0261 116.611 75.2395 116.208 76.4966 116.077C77.7538 115.946 79.0244 116.09 80.22 116.5L80.76 116.7L82.76 117.4V115.16C82.8902 111.998 83.8785 108.932 85.6191 106.289C87.3597 103.647 89.7867 101.528 92.64 100.16L91.34 97.4499C88.2651 98.9303 85.6088 101.156 83.6127 103.924C81.6165 106.692 80.3437 109.915 79.91 113.3C78.3055 112.949 76.645 112.94 75.0368 113.273C73.4285 113.607 71.9084 114.275 70.5754 115.234C69.2424 116.194 68.1264 117.423 67.3 118.843C66.4736 120.262 65.9552 121.84 65.7787 123.473C65.6023 125.106 65.7715 126.757 66.2756 128.321C66.7797 129.884 67.6072 131.323 68.7043 132.546C69.8015 133.768 71.1437 134.745 72.6436 135.415C74.1435 136.084 75.7676 136.43 77.41 136.43H122.9C124.867 136.443 126.814 136.037 128.612 135.238C130.409 134.439 132.016 133.267 133.324 131.798C134.633 130.33 135.614 128.599 136.201 126.722C136.788 124.845 136.968 122.864 136.73 120.911C136.491 118.959 135.839 117.08 134.817 115.399C133.795 113.719 132.427 112.275 130.803 111.165C129.179 110.055 127.337 109.304 125.4 108.961C123.464 108.619 121.476 108.694 119.57 109.18C118.252 105.411 115.861 102.109 112.692 99.6806C109.522 97.2521 105.712 95.8024 101.73 95.5099V86.2899C101.73 85.6375 101.989 85.0118 102.451 84.5504C102.912 84.0891 103.538 83.8299 104.19 83.8299H113.39C116.744 83.8376 120.061 83.1224 123.115 81.7331C126.168 80.3437 128.886 78.3128 131.084 75.7786C133.281 73.2444 134.907 70.2664 135.851 67.0473C136.794 63.8283 137.033 60.4437 136.551 57.124C136.069 53.8044 134.877 50.6275 133.057 47.8098C131.237 44.9921 128.831 42.5997 126.003 40.7954C123.175 38.9911 119.992 37.8173 116.669 37.3539C113.347 36.8904 109.964 37.1483 106.75 38.1099C104.306 30.3748 99.2611 23.7237 92.4707 19.2858C85.6803 14.848 77.5634 12.8969 69.4979 13.7637C61.4324 14.6306 53.9154 18.262 48.2231 24.0414C42.5309 29.8209 39.0142 37.3922 38.27 45.4699C35.5771 44.686 32.7472 44.4901 29.972 44.8954C27.1967 45.3007 24.5411 46.2978 22.1848 47.8191C19.8286 49.3404 17.8269 51.3504 16.3154 53.7129C14.8039 56.0754 13.8178 58.7352 13.424 61.5121C13.0302 64.289 13.2378 67.1181 14.0329 69.8077C14.828 72.4973 16.1919 74.9846 18.0322 77.1011C19.8726 79.2175 22.1463 80.9137 24.6994 82.0746C27.2525 83.2356 30.0254 83.8342 32.83 83.8299Z" fill="#FF5F46"/>
<path d="M92.66 80.8301H57.16V83.8301H92.66V80.8301Z" fill="#FF5F46"/>
</svg>
