<svg width="150" height="150" viewBox="0 0 150 150" fill="none" xmlns="http://www.w3.org/2000/svg">
<path d="M32.83 83.83H45.83C46.4824 83.83 47.1081 84.0892 47.5695 84.5505C48.0308 85.0119 48.29 85.6376 48.29 86.29V95.53C43.6073 95.8937 39.1927 97.859 35.7888 101.095C32.3849 104.332 30.1994 108.642 29.6 113.3C27.9955 112.949 26.335 112.94 24.7267 113.273C23.1185 113.607 21.5984 114.275 20.2654 115.234C18.9324 116.194 17.8164 117.424 16.99 118.843C16.1636 120.262 15.6452 121.84 15.4687 123.473C15.2922 125.106 15.4615 126.757 15.9656 128.321C16.4696 129.884 17.2972 131.323 18.3943 132.546C19.4915 133.768 20.8337 134.745 22.3336 135.415C23.8335 136.084 25.4576 136.43 27.1 136.43H62.22V133.43H27.1C25.8361 133.432 24.587 133.158 23.4396 132.628C22.2922 132.097 21.2742 131.323 20.4563 130.36C19.6384 129.396 19.0403 128.266 18.7036 127.048C18.3669 125.829 18.2996 124.552 18.5066 123.305C18.7136 122.059 19.1897 120.872 19.9019 119.828C20.6142 118.783 21.5453 117.907 22.6307 117.259C23.716 116.612 24.9295 116.208 26.1866 116.077C27.4437 115.946 28.7143 116.09 29.91 116.5L30.45 116.7L32.45 117.4V115.16C32.6014 111.193 34.0981 107.395 36.694 104.391C39.2899 101.387 42.8306 99.3557 46.7341 98.6309C50.6376 97.9061 54.6715 98.5308 58.1728 100.403C61.6741 102.274 64.4344 105.282 66 108.93L68.74 107.72C67.2307 104.275 64.8021 101.313 61.7205 99.1575C58.6389 97.002 55.0232 95.7366 51.27 95.5V86.29C51.2674 84.8427 50.6913 83.4555 49.6679 82.4321C48.6445 81.4087 47.2573 80.8326 45.81 80.83H32.81C28.4872 80.7238 24.3771 78.9319 21.3572 75.837C18.3374 72.742 16.647 68.5892 16.647 64.265C16.647 59.9409 18.3374 55.788 21.3572 52.693C24.3771 49.5981 28.4872 47.8062 32.81 47.7C34.6551 47.6955 36.4876 48.0032 38.23 48.61C38.52 48.71 38.8 48.81 39.08 48.93L41.08 49.73V47.53C41.0749 47.4434 41.0749 47.3566 41.08 47.27C41.412 39.7133 44.3994 32.5159 49.5163 26.9452C54.6331 21.3745 61.5513 17.7877 69.0527 16.8163C76.5541 15.8448 84.1577 17.5511 90.5247 21.6346C96.8918 25.7182 101.614 31.9171 103.86 39.14C101.258 40.3233 98.8927 41.9701 96.88 44L99 46.1C100.88 44.1951 103.121 42.6835 105.592 41.6534C108.062 40.6233 110.713 40.0952 113.39 40.1C118.708 40.2179 123.768 42.4132 127.487 46.2158C131.206 50.0183 133.289 55.126 133.289 60.445C133.289 65.764 131.206 70.8717 127.487 74.6743C123.768 78.4768 118.708 80.6721 113.39 80.79H104.19C102.743 80.7926 101.355 81.3687 100.332 82.3921C99.3087 83.4155 98.7326 84.8027 98.73 86.25V98.45H100.23C103.862 98.4532 107.404 99.5859 110.363 101.691C113.323 103.796 115.555 106.77 116.75 110.2C115.408 110.874 114.179 111.755 113.11 112.81L115.23 114.94C116.232 113.926 117.427 113.123 118.744 112.576C120.061 112.03 121.474 111.753 122.9 111.76C125.717 111.846 128.389 113.025 130.351 115.047C132.313 117.07 133.411 119.777 133.411 122.595C133.411 125.413 132.313 128.12 130.351 130.143C128.389 132.165 125.717 133.344 122.9 133.43H77.41C76.1461 133.432 74.897 133.158 73.7496 132.628C72.6022 132.097 71.5842 131.323 70.7663 130.36C69.9484 129.396 69.3503 128.266 69.0136 127.048C68.6769 125.829 68.6096 124.552 68.8166 123.305C69.0236 122.059 69.4997 120.872 70.2119 119.828C70.9242 118.783 71.8553 117.907 72.9407 117.259C74.026 116.612 75.2395 116.208 76.4966 116.077C77.7537 115.946 79.0243 116.09 80.22 116.5L80.76 116.7L82.76 117.4V115.16C82.8902 111.998 83.8785 108.932 85.6191 106.289C87.3596 103.647 89.7867 101.528 92.64 100.16L91.34 97.45C88.2651 98.9304 85.6088 101.156 83.6127 103.924C81.6165 106.692 80.3437 109.915 79.91 113.3C78.3055 112.949 76.645 112.94 75.0368 113.273C73.4285 113.607 71.9084 114.275 70.5754 115.234C69.2424 116.194 68.1264 117.424 67.3 118.843C66.4736 120.262 65.9552 121.84 65.7787 123.473C65.6022 125.106 65.7715 126.757 66.2756 128.321C66.7796 129.884 67.6072 131.323 68.7043 132.546C69.8015 133.768 71.1437 134.745 72.6436 135.415C74.1435 136.084 75.7676 136.43 77.41 136.43H122.9C124.867 136.443 126.814 136.037 128.612 135.238C130.409 134.439 132.016 133.267 133.324 131.798C134.633 130.33 135.614 128.599 136.201 126.722C136.788 124.845 136.968 122.864 136.73 120.912C136.491 118.959 135.839 117.08 134.817 115.399C133.795 113.719 132.427 112.275 130.803 111.165C129.179 110.055 127.337 109.304 125.4 108.962C123.464 108.619 121.476 108.694 119.57 109.18C118.252 105.411 115.861 102.109 112.692 99.6807C109.522 97.2521 105.712 95.8025 101.73 95.51V86.29C101.73 85.6376 101.989 85.0119 102.451 84.5505C102.912 84.0892 103.538 83.83 104.19 83.83H113.39C116.744 83.8377 120.061 83.1225 123.114 81.7332C126.168 80.3438 128.886 78.3129 131.084 75.7787C133.281 73.2445 134.907 70.2665 135.851 67.0474C136.794 63.8283 137.033 60.4438 136.551 57.1241C136.069 53.8044 134.877 50.6276 133.057 47.8099C131.237 44.9922 128.831 42.5998 126.003 40.7955C123.175 38.9912 119.992 37.8174 116.669 37.354C113.347 36.8905 109.964 37.1484 106.75 38.11C104.306 30.3749 99.261 23.7238 92.4707 19.2859C85.6803 14.8481 77.5633 12.897 69.4978 13.7638C61.4323 14.6307 53.9154 18.2621 48.2231 24.0415C42.5309 29.821 39.0141 37.3923 38.27 45.47C35.5771 44.6861 32.7472 44.4901 29.972 44.8955C27.1967 45.3008 24.541 46.2979 22.1848 47.8192C19.8286 49.3405 17.8269 51.3505 16.3154 53.713C14.8038 56.0755 13.8178 58.7353 13.424 61.5122C13.0302 64.2891 13.2378 67.1182 14.0329 69.8078C14.828 72.4974 16.1919 74.9847 18.0322 77.1012C19.8725 79.2176 22.1463 80.9138 24.6994 82.0747C27.2525 83.2357 30.0253 83.8343 32.83 83.83V83.83Z" fill="white"/>
<path d="M92.66 80.83H57.16V83.83H92.66V80.83Z" fill="white"/>
</svg>
