<svg width="150" height="150" viewBox="0 0 150 150" fill="none" xmlns="http://www.w3.org/2000/svg">
<path d="M83.73 66.8599L65.6399 84.9599" stroke="white" stroke-width="3" stroke-miterlimit="3" stroke-linecap="square"/>
<path d="M58.8601 59.9299L89.23 90.2999" stroke="white" stroke-width="3" stroke-miterlimit="3" stroke-linecap="square"/>
<path d="M131.25 66.8598V19.3398H83.73V66.8598H118.88" stroke="white" stroke-width="3" stroke-miterlimit="3" stroke-linecap="square"/>
<path d="M52.77 53.9598C51.51 53.0898 50.1299 52.3598 48.6699 51.8198C50.9299 49.5698 52.3701 46.1598 52.3701 42.3398C52.3701 35.5498 47.8099 30.0498 42.1799 30.0498C36.5499 30.0498 31.99 35.5498 31.99 42.3398C31.99 46.1498 33.4299 49.5598 35.6899 51.8198C30.6599 53.5898 27.9999 56.3698 25.8799 60.3798C21.2899 56.0498 18.4199 49.9098 18.4199 43.0998C18.4199 29.9798 29.0599 19.3398 42.1799 19.3398C55.2999 19.3398 65.9399 29.9798 65.9399 43.0998C65.9399 56.2198 55.2999 66.8598 42.1799 66.8598" stroke="white" stroke-width="3" stroke-miterlimit="3" stroke-linecap="square"/>
<path d="M118.23 119.42C116.97 118.55 115.59 117.82 114.13 117.28C116.39 115.03 117.83 111.62 117.83 107.8C117.83 101.01 113.27 95.5098 107.64 95.5098C102.01 95.5098 97.45 101.01 97.45 107.8C97.45 111.61 98.8899 115.02 101.15 117.28C96.1199 119.05 93.4601 121.83 91.3401 125.84C86.7501 121.51 83.8799 115.37 83.8799 108.56C83.8799 95.4398 94.5199 84.7998 107.64 84.7998C120.76 84.7998 131.4 95.4398 131.4 108.56C131.4 121.68 120.76 132.32 107.64 132.32" stroke="white" stroke-width="3" stroke-miterlimit="3" stroke-linecap="square"/>
<path d="M118.57 53.4998C117.31 52.6298 115.93 51.8998 114.47 51.3598C116.73 49.1098 118.17 45.6998 118.17 41.8798C118.17 35.0898 113.61 29.5898 107.98 29.5898C102.35 29.5898 97.79 35.0898 97.79 41.8798C97.79 45.6898 99.23 49.0998 101.49 51.3598C96.46 53.1298 93.7999 55.9098 91.6799 59.9198C91.6799 59.9198 90.0899 62.7998 89.6599 66.5198" stroke="white" stroke-width="3" stroke-miterlimit="3" stroke-linecap="square"/>
<path d="M65.9399 132.47V84.95H18.4199V132.47H53.5801" stroke="white" stroke-width="3" stroke-miterlimit="3" stroke-linecap="square"/>
<path d="M53.27 119.12C52.01 118.25 50.6299 117.52 49.1699 116.98C51.4299 114.73 52.8701 111.32 52.8701 107.5C52.8701 100.71 48.3099 95.21 42.6799 95.21C37.0499 95.21 32.49 100.71 32.49 107.5C32.49 111.31 33.9299 114.72 36.1899 116.98C31.1599 118.75 28.4999 121.53 26.3799 125.54C26.3799 125.54 24.7901 128.42 24.3601 132.14" stroke="white" stroke-width="3" stroke-miterlimit="3" stroke-linecap="square"/>
</svg>
