<svg width="150" height="150" viewBox="0 0 150 150" fill="none" xmlns="http://www.w3.org/2000/svg">
<path d="M100.7 112.8H39.7C29.7 112.8 21.6 104.7 21.6 94.6999C21.6 84.6999 29.7 76.5999 39.7 76.5999H57.1C57.9 85.8999 65.6 93.1999 75.1 93.1999C84.6 93.1999 92.4 85.8999 93.1 76.5999H110.3C122 76.5999 131.4 67.0999 131.4 55.4999C131.4 49.7999 129.2 44.4999 125.2 40.4999C121.2 36.4999 115.9 34.2999 110.2 34.2999H49.2C48.5 30.6999 45.3 27.8999 41.4 27.8999H20.2V30.8999H27.7V40.6999H20.2V43.6999H41.5C45.3 43.6999 48.6 40.8999 49.3 37.2999H110.3C115.1 37.2999 119.7 39.1999 123.1 42.5999C126.5 45.9999 128.4 50.5999 128.4 55.3999C128.4 65.3999 120.3 73.4999 110.3 73.4999H90.2V74.9999C90.2 83.2999 83.4 90.0999 75.1 90.0999C66.8 90.0999 60 83.2999 60 74.9999C60 66.6999 66.8 59.8999 75.1 59.8999C79.7 59.8999 84.1 61.9999 86.9 65.5999L73.1 79.4999L68.2 74.5999L66.1 76.6999L73.1 83.6999L90.8 65.9999L90.1 64.9999C86.7 59.9999 81.1 56.9999 75 56.9999C65.5 56.9999 57.8 64.2999 57 73.5999H39.7C28 73.4999 18.6 82.9999 18.6 94.5999C18.6 106.2 28.1 115.7 39.7 115.7H100.7C101.4 119.3 104.6 122.1 108.5 122.1H129.8V119.1H122.3V109.3H129.8V106.3H108.5C104.7 106.4 101.4 109.1 100.7 112.8ZM41.5 40.5999H30.7V30.7999H41.5C44.2 30.7999 46.4 32.9999 46.4 35.6999C46.4 38.3999 44.2 40.5999 41.5 40.5999ZM119.3 119.2H108.5C105.8 119.2 103.6 117 103.6 114.3C103.6 111.6 105.8 109.4 108.5 109.4H119.3V119.2Z" fill="#FF5F46"/>
</svg>
