<svg width="150" height="150" viewBox="0 0 150 150" fill="none" xmlns="http://www.w3.org/2000/svg">
<path d="M100.7 112.8H39.7C29.7 112.8 21.6 104.7 21.6 94.7C21.6 84.7 29.7 76.6 39.7 76.6H57.1C57.9 85.9 65.6 93.2 75.1 93.2C84.6 93.2 92.4 85.9 93.1 76.6H110.3C122 76.6 131.4 67.1 131.4 55.5C131.4 49.8 129.2 44.5 125.2 40.5C121.2 36.5 115.9 34.3 110.2 34.3H49.2C48.5 30.7 45.3 27.9 41.4 27.9H20.2V30.9H27.7V40.7H20.2V43.7H41.5C45.3 43.7 48.6 40.9 49.3 37.3H110.3C115.1 37.3 119.7 39.2 123.1 42.6C126.5 46 128.4 50.6 128.4 55.4C128.4 65.4 120.3 73.5 110.3 73.5H90.2V75C90.2 83.3 83.4 90.1 75.1 90.1C66.8 90.1 60 83.3 60 75C60 66.7 66.8 59.9 75.1 59.9C79.7 59.9 84.1 62 86.9 65.6L73.1 79.5L68.2 74.6L66.1 76.7L73.1 83.7L90.8 66L90.1 65C86.7 60 81.1 57 75 57C65.5 57 57.8 64.3 57 73.6H39.7C28 73.5 18.6 83 18.6 94.6C18.6 106.2 28.1 115.7 39.7 115.7H100.7C101.4 119.3 104.6 122.1 108.5 122.1H129.8V119.1H122.3V109.3H129.8V106.3H108.5C104.7 106.4 101.4 109.1 100.7 112.8ZM41.5 40.6H30.7V30.8H41.5C44.2 30.8 46.4 33 46.4 35.7C46.4 38.4 44.2 40.6 41.5 40.6ZM119.3 119.2H108.5C105.8 119.2 103.6 117 103.6 114.3C103.6 111.6 105.8 109.4 108.5 109.4H119.3V119.2Z" fill="#1B3139"/>
</svg>
