<svg width="150" height="150" viewBox="0 0 150 150" fill="none" xmlns="http://www.w3.org/2000/svg">
<path d="M32.61 104.41L34.61 101.99C29.5252 94.4384 26.6854 85.6 26.42 76.5H48.35V73.5H26.42C26.8104 61.1365 31.8956 49.3859 40.6414 40.6383C49.3871 31.8907 61.1366 26.803 73.5 26.41V48.34H76.5V26.41C88.1309 26.754 99.2476 31.2809 107.81 39.16L109.72 36.84C100.618 28.5197 88.8267 23.7526 76.5 23.41V15.23H73.5V23.41C60.3411 23.8043 47.8294 29.2085 38.5214 38.5184C29.2134 47.8282 23.8117 60.341 23.42 73.5H15.23V76.5H23.42C23.6952 86.5006 26.8897 96.2023 32.61 104.41V104.41Z" fill="#1B3139"/>
<path d="M35.31 112.86C35.857 113.235 36.53 113.377 37.182 113.258C37.834 113.138 38.412 112.765 38.79 112.22C38.8573 112.125 38.9175 112.024 38.97 111.92C39.1612 111.539 39.2515 111.114 39.2324 110.688C39.2133 110.262 39.0854 109.847 38.8608 109.485C38.6363 109.122 38.3226 108.822 37.9496 108.615C37.5766 108.408 37.1568 108.299 36.73 108.3C36.3259 108.305 35.9288 108.406 35.5708 108.594C35.2129 108.781 34.9043 109.051 34.67 109.38C34.2955 109.927 34.1526 110.6 34.2725 111.252C34.3924 111.904 34.7654 112.482 35.31 112.86Z" fill="#1B3139"/>
<path d="M117.08 50.68C121.114 57.6265 123.348 65.4706 123.58 73.5H101.65V76.5H123.58C123.189 88.8625 118.104 100.612 109.358 109.358C100.612 118.104 88.8625 123.189 76.5 123.58V101.65H73.5V123.58C62.9106 123.257 52.721 119.462 44.5 112.78L42.6 115.1C51.3843 122.241 62.2833 126.277 73.6 126.58V134.77H76.6V126.58C89.7405 126.163 102.227 120.75 111.514 111.444C120.801 102.139 126.189 89.6412 126.58 76.5H134.77V73.5H126.58C126.335 64.5633 123.76 55.8456 119.11 48.21L117.08 50.68Z" fill="#1B3139"/>
<path d="M27.94 125.81C27.7792 125.841 27.6218 125.888 27.47 125.95C27.3187 126.011 27.1745 126.088 27.04 126.18C26.9028 126.27 26.7754 126.374 26.66 126.49C26.5431 126.605 26.4391 126.732 26.35 126.87C26.2598 127.006 26.1828 127.15 26.12 127.3C26.0542 127.45 26.0072 127.608 25.98 127.77C25.9432 127.931 25.9264 128.095 25.93 128.26C25.9264 128.425 25.9432 128.589 25.98 128.75C26.0068 128.909 26.0538 129.063 26.12 129.21C26.1806 129.365 26.2577 129.512 26.35 129.65C26.4417 129.786 26.5454 129.913 26.66 130.03C26.7754 130.146 26.9028 130.25 27.04 130.34C27.1767 130.428 27.3205 130.505 27.47 130.57C27.6218 130.632 27.7792 130.679 27.94 130.71C28.0997 130.725 28.2603 130.725 28.42 130.71C29.0829 130.708 29.7184 130.446 30.19 129.98C30.3046 129.863 30.4083 129.736 30.5 129.6C30.5923 129.462 30.6694 129.315 30.73 129.16C30.7949 129.012 30.8452 128.858 30.88 128.7C30.8949 128.537 30.8949 128.373 30.88 128.21C30.8953 128.047 30.8953 127.883 30.88 127.72C30.8091 127.399 30.6803 127.094 30.5 126.82C30.4109 126.682 30.3069 126.555 30.19 126.44C29.8937 126.161 29.5343 125.958 29.1424 125.848C28.7506 125.739 28.338 125.726 27.94 125.81V125.81Z" fill="#1B3139"/>
<path d="M54.86 87.5399C54.4191 87.9193 54.1255 88.4415 54.0306 89.0153C53.9357 89.5892 54.0456 90.1781 54.3409 90.6792C54.6362 91.1803 55.0983 91.5616 55.6463 91.7565C56.1943 91.9514 56.7933 91.9476 57.3387 91.7456C57.8842 91.5435 58.3412 91.1563 58.6301 90.6514C58.9189 90.1466 59.0211 89.5562 58.9187 88.9837C58.8164 88.4111 58.5161 87.8927 58.0703 87.5192C57.6245 87.1456 57.0616 86.9406 56.48 86.9399C55.8855 86.9393 55.3106 87.1522 54.86 87.5399V87.5399Z" fill="#1B3139"/>
<path d="M118.88 33.56C119.153 33.6581 119.44 33.7088 119.73 33.71C120.245 33.7118 120.749 33.5543 121.171 33.2589C121.594 32.9635 121.915 32.5448 122.09 32.06C122.226 31.6825 122.27 31.2778 122.217 30.8799C122.164 30.4821 122.016 30.1028 121.786 29.7743C121.555 29.4457 121.249 29.1774 120.893 28.9922C120.537 28.8069 120.141 28.7101 119.74 28.71C119.151 28.7083 118.581 28.9143 118.13 29.2918C117.678 29.6693 117.374 30.194 117.271 30.7735C117.169 31.353 117.274 31.9502 117.568 32.4599C117.862 32.9696 118.327 33.3592 118.88 33.56V33.56Z" fill="#1B3139"/>
<path d="M32.89 116.92C32.5472 116.753 32.1714 116.664 31.79 116.66C31.3219 116.661 30.8635 116.793 30.4661 117.04C30.0687 117.288 29.748 117.641 29.54 118.06C29.3948 118.354 29.3091 118.674 29.2878 119.001C29.2666 119.328 29.3102 119.657 29.4161 119.967C29.522 120.277 29.6882 120.564 29.9051 120.81C30.122 121.055 30.3853 121.256 30.68 121.4C31.0211 121.572 31.398 121.661 31.78 121.66C32.2485 121.661 32.7079 121.53 33.1057 121.283C33.5036 121.035 33.8238 120.681 34.03 120.26C34.1765 119.966 34.2633 119.646 34.2853 119.319C34.3072 118.991 34.2639 118.663 34.1579 118.352C34.0518 118.041 33.8851 117.755 33.6675 117.509C33.4498 117.263 33.1856 117.063 32.89 116.92V116.92Z" fill="#1B3139"/>
<path d="M51.05 97.78C51.4625 97.3732 51.7209 96.8357 51.7811 96.2595C51.8412 95.6832 51.6993 95.104 51.3797 94.6208C51.0601 94.1376 50.5825 93.7804 50.0287 93.6102C49.4749 93.4401 48.8791 93.4676 48.3433 93.688C47.8076 93.9085 47.365 94.3082 47.0912 94.8188C46.8175 95.3294 46.7296 95.9192 46.8425 96.4875C46.9555 97.0557 47.2624 97.5671 47.7106 97.9342C48.1588 98.3013 48.7206 98.5013 49.3 98.5C49.9556 98.5007 50.5848 98.2419 51.05 97.78V97.78Z" fill="#1B3139"/>
<path d="M103.46 57.67C103.794 57.6711 104.125 57.6042 104.433 57.4736C104.741 57.343 105.019 57.1512 105.25 56.91C105.479 56.6743 105.66 56.3958 105.781 56.0903C105.903 55.7848 105.963 55.4584 105.958 55.1297C105.953 54.801 105.884 54.4764 105.754 54.1744C105.624 53.8725 105.436 53.5992 105.2 53.37C104.964 53.1409 104.686 52.9604 104.38 52.8389C104.075 52.7174 103.748 52.6572 103.42 52.6619C103.091 52.6665 102.766 52.7359 102.464 52.8659C102.162 52.996 101.889 53.1843 101.66 53.42V53.42C101.318 53.773 101.087 54.219 100.997 54.7022C100.907 55.1854 100.962 55.6845 101.154 56.137C101.346 56.5894 101.667 56.9752 102.077 57.2461C102.487 57.517 102.968 57.661 103.46 57.66V57.67Z" fill="#1B3139"/>
<path d="M98 63.73C98.272 63.4935 98.4903 63.2017 98.6403 62.874C98.7904 62.5463 98.8687 62.1904 98.87 61.83C98.8712 61.2306 98.6544 60.6513 98.26 60.2C97.9371 59.8296 97.5118 59.563 97.0377 59.4339C96.5636 59.3047 96.0619 59.3187 95.5957 59.4741C95.1296 59.6295 94.7198 59.9193 94.418 60.3071C94.1163 60.6949 93.936 61.1634 93.8999 61.6534C93.8638 62.1435 93.9735 62.6332 94.2152 63.0611C94.4569 63.4889 94.8198 63.8356 95.2581 64.0577C95.6965 64.2797 96.1907 64.367 96.6786 64.3087C97.1665 64.2504 97.6263 64.049 98 63.73V63.73Z" fill="#1B3139"/>
<path d="M107.71 49.08C107.926 49.4707 108.242 49.7975 108.624 50.0275C109.007 50.2575 109.444 50.3825 109.89 50.39C110.273 50.3956 110.652 50.3138 110.999 50.1509C111.345 49.9881 111.65 49.7483 111.89 49.45C112.244 49.0073 112.434 48.4565 112.43 47.89C112.437 47.5069 112.356 47.1273 112.193 46.7805C112.03 46.4337 111.789 46.129 111.49 45.89C111.05 45.5379 110.503 45.3472 109.94 45.35C109.557 45.3422 109.177 45.4229 108.83 45.586C108.483 45.749 108.179 45.99 107.94 46.29C107.623 46.6765 107.431 47.1506 107.389 47.6491C107.348 48.1476 107.46 48.6467 107.71 49.08V49.08Z" fill="#1B3139"/>
<path d="M114.18 42.07C114.42 42.2162 114.684 42.3179 114.96 42.37C115.127 42.4097 115.298 42.4298 115.47 42.43C115.907 42.432 116.338 42.3193 116.718 42.103C117.098 41.8867 117.415 41.5745 117.636 41.1975C117.858 40.8205 117.977 40.392 117.981 39.9546C117.986 39.5173 117.875 39.0865 117.661 38.7052C117.447 38.324 117.136 38.0056 116.76 37.7819C116.384 37.5581 115.956 37.4369 115.519 37.4303C115.082 37.4237 114.65 37.532 114.268 37.7443C113.886 37.9565 113.566 38.2654 113.34 38.64C113.075 39.0784 112.956 39.5896 113 40.1C113.023 40.4992 113.143 40.8868 113.348 41.2298C113.554 41.5729 113.839 41.8611 114.18 42.07V42.07Z" fill="#1B3139"/>
<path d="M44.57 104.73C44.9539 104.277 45.1663 103.704 45.17 103.11C45.1674 102.446 44.9017 101.81 44.4313 101.342C43.9609 100.873 43.324 100.61 42.66 100.61C42.2003 100.607 41.7494 100.736 41.36 100.98C41.137 101.113 40.9376 101.282 40.77 101.48C40.5534 101.726 40.3876 102.012 40.2819 102.323C40.1762 102.633 40.1328 102.961 40.1542 103.288C40.1756 103.615 40.2613 103.934 40.4064 104.228C40.5516 104.522 40.7533 104.784 41 105C41.4492 105.39 42.0251 105.603 42.62 105.6C42.9891 105.608 43.3554 105.534 43.6926 105.384C44.0297 105.233 44.3294 105.01 44.57 104.73Z" fill="#1B3139"/>
<path d="M119.27 22.69C119.331 22.8413 119.408 22.9855 119.5 23.12C119.589 23.2608 119.693 23.3915 119.81 23.51C120.282 23.9758 120.917 24.2379 121.58 24.24C121.743 24.2547 121.907 24.2547 122.07 24.24C122.228 24.2085 122.382 24.1617 122.53 24.1C122.683 24.0356 122.83 23.9586 122.97 23.87C123.1 23.77 123.23 23.67 123.35 23.56C123.461 23.4364 123.565 23.3061 123.66 23.17C123.748 23.0333 123.825 22.8894 123.89 22.74C123.952 22.5882 123.999 22.4308 124.03 22.27C124.045 22.1103 124.045 21.9496 124.03 21.79C124.028 21.3793 123.925 20.9754 123.73 20.6137C123.536 20.2521 123.255 19.9437 122.914 19.7157C122.572 19.4877 122.18 19.3469 121.771 19.3058C121.363 19.2647 120.95 19.3245 120.57 19.48C120.419 19.5406 120.274 19.6177 120.14 19.71C120.001 19.7965 119.873 19.9007 119.76 20.02C119.528 20.2522 119.343 20.5282 119.218 20.832C119.093 21.1358 119.029 21.4614 119.03 21.79C119.011 21.9494 119.011 22.1105 119.03 22.27C119.096 22.4173 119.177 22.5579 119.27 22.69V22.69Z" fill="#1B3139"/>
<path d="M75 93.33C78.6281 93.332 82.1754 92.2578 85.1929 90.2433C88.2104 88.2289 90.5627 85.3647 91.952 82.0131C93.3414 78.6615 93.7054 74.9731 92.9981 71.4145C92.2907 67.856 90.5438 64.5872 87.9783 62.0217C85.4128 59.4562 82.144 57.7093 78.5855 57.0019C75.0269 56.2946 71.3386 56.6586 67.987 58.048C64.6354 59.4373 61.7711 61.7896 59.7567 64.8071C57.7422 67.8246 56.668 71.3719 56.67 75C56.6779 79.859 58.6117 84.5167 62.0475 87.9525C65.4833 91.3884 70.141 93.3221 75 93.33V93.33ZM59.67 75C59.6627 71.4512 60.8846 68.0093 63.1278 65.2594C65.3711 62.5095 68.4974 60.6212 71.9754 59.9154C75.4533 59.2097 79.0684 59.73 82.2061 61.388C85.3438 63.046 87.8106 65.7394 89.1873 69.0104C90.5639 72.2813 90.7654 75.9281 89.7575 79.3308C88.7496 82.7335 86.5946 85.6823 83.6586 87.6759C80.7227 89.6695 77.187 90.585 73.6524 90.2667C70.1179 89.9484 66.8026 88.4161 64.27 85.93C63.279 84.9664 62.4275 83.8691 61.74 82.67C60.3805 80.3428 59.6659 77.6952 59.67 75Z" fill="#1B3139"/>
<path d="M75 77.74C76.5133 77.74 77.74 76.5133 77.74 75C77.74 73.4867 76.5133 72.26 75 72.26C73.4867 72.26 72.26 73.4867 72.26 75C72.26 76.5133 73.4867 77.74 75 77.74Z" fill="#1B3139"/>
</svg>
