<svg width="150" height="150" viewBox="0 0 150 150" fill="none" xmlns="http://www.w3.org/2000/svg">
<path d="M32.61 104.41L34.61 101.99C29.5251 94.4384 26.6853 85.6001 26.42 76.5H48.35V73.5H26.42C26.8104 61.1365 31.8956 49.3859 40.6413 40.6383C49.3871 31.8907 61.1366 26.803 73.5 26.41V48.34H76.5V26.41C88.1308 26.754 99.2475 31.2809 107.81 39.16L109.72 36.84C100.618 28.5197 88.8267 23.7526 76.5 23.41V15.23H73.5V23.41C60.3411 23.8043 47.8294 29.2085 38.5214 38.5184C29.2134 47.8282 23.8117 60.341 23.42 73.5H15.23V76.5H23.42C23.6952 86.5006 26.8897 96.2023 32.61 104.41Z" fill="#FF5F46"/>
<path d="M35.31 112.86C35.857 113.234 36.5299 113.377 37.1819 113.257C37.8339 113.137 38.412 112.764 38.79 112.22C38.8573 112.124 38.9174 112.024 38.97 111.92C39.1612 111.538 39.2515 111.114 39.2324 110.688C39.2133 110.262 39.0854 109.847 38.8608 109.484C38.6363 109.121 38.3226 108.822 37.9496 108.615C37.5766 108.407 37.1567 108.299 36.73 108.3C36.3259 108.305 35.9287 108.406 35.5708 108.593C35.2129 108.781 34.9042 109.05 34.67 109.38C34.2955 109.927 34.1526 110.6 34.2725 111.252C34.3924 111.904 34.7654 112.482 35.31 112.86Z" fill="#FF5F46"/>
<path d="M117.08 50.68C121.114 57.6265 123.348 65.4706 123.58 73.5H101.65V76.5H123.58C123.189 88.8625 118.104 100.612 109.358 109.358C100.612 118.104 88.8625 123.189 76.5 123.58V101.65H73.5V123.58C62.9106 123.257 52.7209 119.462 44.5 112.78L42.6 115.1C51.3843 122.241 62.2833 126.277 73.6 126.58V134.77H76.6V126.58C89.7404 126.163 102.227 120.75 111.514 111.444C120.801 102.139 126.189 89.6412 126.58 76.5H134.77V73.5H126.58C126.335 64.5633 123.76 55.8456 119.11 48.21L117.08 50.68Z" fill="#FF5F46"/>
<path d="M27.94 125.81C27.7792 125.842 27.6218 125.889 27.47 125.95C27.3187 126.011 27.1745 126.088 27.04 126.18C26.9028 126.27 26.7754 126.374 26.66 126.49C26.5431 126.605 26.4392 126.733 26.35 126.87C26.2598 127.006 26.1828 127.15 26.12 127.3C26.0543 127.451 26.0072 127.608 25.98 127.77C25.9432 127.931 25.9265 128.095 25.93 128.26C25.9265 128.425 25.9432 128.59 25.98 128.75C26.0068 128.909 26.0539 129.064 26.12 129.21C26.1806 129.365 26.2577 129.512 26.35 129.65C26.4417 129.786 26.5455 129.913 26.66 130.03C26.7754 130.147 26.9028 130.251 27.04 130.34C27.1767 130.429 27.3206 130.506 27.47 130.57C27.6218 130.632 27.7792 130.679 27.94 130.71C28.0997 130.725 28.2604 130.725 28.42 130.71C29.0829 130.708 29.7184 130.446 30.19 129.98C30.3046 129.863 30.4084 129.736 30.5 129.6C30.5924 129.462 30.6695 129.315 30.73 129.16C30.795 129.012 30.8452 128.858 30.88 128.7C30.8949 128.537 30.8949 128.373 30.88 128.21C30.8953 128.047 30.8953 127.883 30.88 127.72C30.8092 127.4 30.6804 127.095 30.5 126.82C30.4109 126.683 30.307 126.555 30.19 126.44C29.8937 126.161 29.5343 125.958 29.1425 125.849C28.7506 125.739 28.3381 125.726 27.94 125.81Z" fill="#FF5F46"/>
<path d="M54.86 87.5399C54.4191 87.9193 54.1256 88.4415 54.0307 89.0153C53.9358 89.5892 54.0456 90.1781 54.3409 90.6792C54.6363 91.1803 55.0983 91.5616 55.6463 91.7565C56.1943 91.9514 56.7934 91.9476 57.3388 91.7456C57.8842 91.5435 58.3413 91.1563 58.6301 90.6514C58.9189 90.1466 59.0211 89.5562 58.9188 88.9837C58.8165 88.4111 58.5162 87.8927 58.0704 87.5192C57.6246 87.1456 57.0617 86.9406 56.48 86.9399C55.8856 86.9393 55.3107 87.1522 54.86 87.5399Z" fill="#FF5F46"/>
<path d="M118.88 33.56C119.153 33.6581 119.44 33.7088 119.73 33.71C120.245 33.7118 120.749 33.5543 121.171 33.2589C121.594 32.9635 121.915 32.5448 122.09 32.06C122.226 31.6825 122.27 31.2778 122.217 30.8799C122.164 30.4821 122.016 30.1028 121.786 29.7743C121.555 29.4457 121.249 29.1774 120.893 28.9922C120.537 28.8069 120.141 28.7101 119.74 28.71C119.151 28.7083 118.581 28.9143 118.13 29.2918C117.678 29.6693 117.374 30.194 117.271 30.7735C117.169 31.353 117.274 31.9502 117.568 32.4599C117.862 32.9696 118.327 33.3592 118.88 33.56Z" fill="#FF5F46"/>
<path d="M32.89 116.92C32.5472 116.753 32.1714 116.664 31.79 116.66C31.3219 116.662 30.8635 116.793 30.4661 117.041C30.0687 117.288 29.748 117.641 29.54 118.06C29.3948 118.354 29.3091 118.674 29.2878 119.001C29.2666 119.328 29.3102 119.657 29.4161 119.967C29.522 120.277 29.6882 120.564 29.9051 120.81C30.122 121.056 30.3853 121.256 30.68 121.4C31.0211 121.572 31.398 121.661 31.78 121.66C32.2485 121.661 32.7079 121.53 33.1057 121.283C33.5036 121.035 33.8238 120.681 34.03 120.26C34.1765 119.966 34.2633 119.646 34.2853 119.319C34.3072 118.991 34.2639 118.663 34.1579 118.352C34.0518 118.041 33.8851 117.755 33.6675 117.509C33.4498 117.263 33.1856 117.063 32.89 116.92Z" fill="#FF5F46"/>
<path d="M51.05 97.78C51.4625 97.3732 51.7209 96.8357 51.7811 96.2595C51.8412 95.6832 51.6993 95.104 51.3797 94.6208C51.0601 94.1376 50.5825 93.7804 50.0287 93.6102C49.4749 93.4401 48.8791 93.4676 48.3433 93.688C47.8076 93.9085 47.365 94.3082 47.0912 94.8188C46.8175 95.3294 46.7296 95.9192 46.8425 96.4875C46.9555 97.0557 47.2624 97.5671 47.7106 97.9342C48.1588 98.3013 48.7206 98.5013 49.3 98.5C49.9556 98.5007 50.5848 98.2419 51.05 97.78Z" fill="#FF5F46"/>
<path d="M103.46 57.67C103.794 57.6711 104.125 57.6042 104.433 57.4736C104.741 57.343 105.019 57.1512 105.25 56.91C105.479 56.6743 105.66 56.3958 105.781 56.0903C105.903 55.7848 105.963 55.4584 105.958 55.1297C105.953 54.801 105.884 54.4764 105.754 54.1744C105.624 53.8725 105.436 53.5992 105.2 53.37C104.964 53.1409 104.686 52.9604 104.38 52.8389C104.075 52.7174 103.748 52.6572 103.42 52.6619C103.091 52.6665 102.766 52.7359 102.464 52.8659C102.162 52.996 101.889 53.1843 101.66 53.42C101.318 53.773 101.087 54.219 100.997 54.7022C100.907 55.1854 100.962 55.6845 101.154 56.137C101.346 56.5894 101.667 56.9752 102.077 57.2461C102.487 57.517 102.968 57.661 103.46 57.66V57.67Z" fill="#FF5F46"/>
<path d="M98 63.7299C98.272 63.4934 98.4903 63.2015 98.6404 62.8739C98.7904 62.5462 98.8687 62.1902 98.87 61.8299C98.8712 61.2305 98.6544 60.6512 98.26 60.1999C97.9371 59.8295 97.5118 59.5629 97.0377 59.4338C96.5636 59.3046 96.0619 59.3186 95.5957 59.474C95.1296 59.6294 94.7198 59.9192 94.4181 60.307C94.1163 60.6948 93.936 61.1632 93.8999 61.6533C93.8638 62.1433 93.9735 62.6331 94.2152 63.0609C94.4569 63.4888 94.8198 63.8355 95.2582 64.0575C95.6965 64.2796 96.1908 64.3669 96.6787 64.3086C97.1666 64.2503 97.6263 64.0489 98 63.7299Z" fill="#FF5F46"/>
<path d="M107.71 49.0801C107.926 49.4708 108.241 49.7977 108.624 50.0276C109.007 50.2576 109.444 50.3827 109.89 50.3901C110.273 50.3957 110.652 50.3139 110.999 50.1511C111.345 49.9882 111.65 49.7485 111.89 49.4501C112.244 49.0075 112.434 48.4567 112.43 47.8901C112.437 47.507 112.356 47.1274 112.193 46.7806C112.03 46.4338 111.789 46.1292 111.49 45.8901C111.05 45.538 110.503 45.3474 109.94 45.3501C109.557 45.3423 109.177 45.4231 108.83 45.5861C108.483 45.7491 108.179 45.9901 107.94 46.2901C107.623 46.6767 107.431 47.1508 107.389 47.6492C107.348 48.1477 107.46 48.6468 107.71 49.0801Z" fill="#FF5F46"/>
<path d="M114.18 42.0702C114.42 42.2163 114.684 42.318 114.96 42.3702C115.127 42.4098 115.298 42.4299 115.47 42.4302C115.907 42.4322 116.338 42.3194 116.718 42.1031C117.098 41.8868 117.415 41.5746 117.636 41.1976C117.858 40.8207 117.977 40.3921 117.981 39.9548C117.986 39.5174 117.875 39.0866 117.661 38.7053C117.447 38.3241 117.136 38.0057 116.76 37.782C116.384 37.5583 115.957 37.4371 115.519 37.4305C115.082 37.4239 114.651 37.5321 114.268 37.7444C113.886 37.9566 113.566 38.2655 113.34 38.6402C113.075 39.0786 112.956 39.5898 113 40.1001C113.023 40.4993 113.143 40.8869 113.348 41.23C113.554 41.573 113.839 41.8612 114.18 42.0702Z" fill="#FF5F46"/>
<path d="M44.57 104.73C44.9539 104.277 45.1663 103.704 45.17 103.11C45.1674 102.446 44.9018 101.81 44.4313 101.342C43.9609 100.873 43.324 100.61 42.66 100.61C42.2004 100.607 41.7494 100.736 41.36 100.98C41.137 101.113 40.9376 101.282 40.77 101.48C40.5535 101.726 40.3876 102.012 40.2819 102.322C40.1763 102.633 40.1329 102.961 40.1542 103.288C40.1756 103.615 40.2613 103.934 40.4064 104.228C40.5516 104.522 40.7533 104.784 41 105C41.4493 105.39 42.0251 105.603 42.62 105.6C42.9891 105.608 43.3554 105.534 43.6926 105.384C44.0297 105.233 44.3294 105.01 44.57 104.73Z" fill="#FF5F46"/>
<path d="M119.27 22.6902C119.331 22.8415 119.408 22.9857 119.5 23.1202C119.589 23.261 119.693 23.3918 119.81 23.5102C120.282 23.976 120.917 24.2381 121.58 24.2402C121.743 24.2549 121.907 24.2549 122.07 24.2402C122.228 24.2088 122.382 24.1619 122.53 24.1002C122.683 24.0358 122.83 23.9589 122.97 23.8702C123.1 23.7702 123.23 23.6702 123.35 23.5602C123.461 23.4366 123.565 23.3064 123.66 23.1702C123.748 23.0335 123.825 22.8897 123.89 22.7402C123.952 22.5884 123.999 22.431 124.03 22.2702C124.045 22.1105 124.045 21.9499 124.03 21.7902C124.028 21.3795 123.925 20.9756 123.73 20.614C123.536 20.2523 123.255 19.944 122.914 19.7159C122.572 19.4879 122.18 19.3472 121.771 19.3061C121.363 19.265 120.95 19.3248 120.57 19.4802C120.419 19.5408 120.274 19.618 120.14 19.7102C120 19.7968 119.873 19.901 119.76 20.0202C119.528 20.2525 119.343 20.5284 119.218 20.8322C119.093 21.136 119.029 21.4616 119.03 21.7902C119.011 21.9496 119.011 22.1108 119.03 22.2702C119.096 22.4175 119.177 22.5582 119.27 22.6902Z" fill="#FF5F46"/>
<path d="M75 93.3299C78.6282 93.3319 82.1754 92.2577 85.193 90.2432C88.2105 88.2288 90.5627 85.3645 91.9521 82.0129C93.3414 78.6613 93.7055 74.9729 92.9981 71.4144C92.2908 67.8559 90.5439 64.5871 87.9784 62.0216C85.4129 59.4561 82.1441 57.7092 78.5856 57.0018C75.027 56.2945 71.3386 56.6585 67.987 58.0479C64.6354 59.4372 61.7712 61.7895 59.7567 64.807C57.7423 67.8245 56.6681 71.3717 56.67 74.9999C56.678 79.8589 58.6117 84.5166 62.0475 87.9524C65.4834 91.3882 70.1411 93.322 75 93.3299ZM59.67 74.9999C59.6628 71.4511 60.8846 68.0092 63.1279 65.2593C65.3712 62.5093 68.4974 60.621 71.9754 59.9153C75.4534 59.2095 79.0684 59.7299 82.2062 61.3879C85.3439 63.0459 87.8107 65.7393 89.1873 69.0103C90.5639 72.2812 90.7654 75.928 89.7576 79.3307C88.7497 82.7334 86.5947 85.6822 83.6587 87.6758C80.7227 89.6694 77.187 90.5849 73.6525 90.2666C70.1179 89.9483 66.8026 88.4159 64.27 85.9299C63.2791 84.9663 62.4276 83.869 61.7401 82.6699C60.3805 80.3427 59.666 77.6951 59.67 74.9999Z" fill="#FF5F46"/>
<path d="M75 77.7398C76.5133 77.7398 77.74 76.513 77.74 74.9998C77.74 73.4865 76.5133 72.2598 75 72.2598C73.4867 72.2598 72.26 73.4865 72.26 74.9998C72.26 76.513 73.4867 77.7398 75 77.7398Z" fill="#FF5F46"/>
</svg>
