<svg width="1011" height="300" viewBox="0 0 1011 300" fill="none" xmlns="http://www.w3.org/2000/svg">
<path d="M149.638 108.553L113.773 129.276V170.724L149.638 191.447L185.502 170.724V129.276L149.638 108.553Z" fill="#FF5F46"/>
<path d="M225.254 106.394H266.519L245.779 70.5591L225.254 106.394Z" fill="#FF5F46"/>
<path d="M225.254 193.822L245.995 229.656L266.735 193.822H225.254Z" fill="#FF5F46"/>
<path d="M128.895 273.047H170.16L149.419 237.212L128.895 273.047Z" fill="#FF5F46"/>
<path d="M32.5391 193.822L53.2798 229.656L74.0205 193.822H32.5391Z" fill="#FF5F46"/>
<path d="M32.5391 106.394H73.8045L53.0638 70.5591L32.5391 106.394Z" fill="#FF5F46"/>
<path d="M128.895 26.9531L149.635 62.7878L170.376 26.9531H128.895Z" fill="#FF5F46"/>
<path d="M188.958 34.0771L164.977 75.5245L206.458 99.4862L230.44 58.0389L188.958 34.0771Z" fill="#FABFBA"/>
<path d="M269.76 126.039H221.797V173.962H269.76V126.039Z" fill="#FABFBA"/>
<path d="M206.458 200.73L164.977 224.692L188.958 266.139L230.44 242.177L206.458 200.73Z" fill="#FABFBA"/>
<path d="M92.5988 200.73L68.6172 242.177L110.099 266.139L134.08 224.692L92.5988 200.73Z" fill="#FABFBA"/>
<path d="M77.2598 126.039H29.2969V173.962H77.2598V126.039Z" fill="#FABFBA"/>
<path d="M110.099 34.0771L68.6172 58.0389L92.5988 99.4862L134.08 75.5245L110.099 34.0771Z" fill="#FABFBA"/>
<path d="M340.501 138V60.72H360.373C369.352 60.72 376.749 62.3024 382.563 65.4672C388.451 68.5584 392.794 73.0112 395.59 78.8256C398.461 84.5664 399.896 91.4848 399.896 99.5808C399.896 107.53 398.461 114.374 395.59 120.115C392.794 125.856 388.451 130.272 382.563 133.363C376.749 136.454 369.352 138 360.373 138H340.501ZM349.774 130.272H360.152C367.586 130.272 373.51 129.058 377.926 126.629C382.342 124.126 385.507 120.594 387.421 116.03C389.334 111.394 390.291 105.91 390.291 99.5808C390.291 93.104 389.334 87.5472 387.421 82.9104C385.507 78.2736 382.342 74.704 377.926 72.2016C373.51 69.6992 367.586 68.448 360.152 68.448H349.774V130.272ZM427.945 139.325C423.529 139.325 419.849 138.515 416.905 136.896C413.961 135.203 411.753 132.995 410.281 130.272C408.809 127.475 408.073 124.494 408.073 121.33C408.073 117.502 409.029 114.264 410.943 111.614C412.93 108.891 415.69 106.83 419.223 105.432C422.756 104.034 426.877 103.334 431.588 103.334H446.05C446.05 99.5808 445.609 96.4528 444.725 93.9504C443.842 91.448 442.407 89.5712 440.42 88.32C438.433 87.0688 435.783 86.4432 432.471 86.4432C429.159 86.4432 426.325 87.2896 423.97 88.9824C421.615 90.6016 420.143 93.0304 419.554 96.2688H410.06C410.501 92.4416 411.789 89.24 413.924 86.664C416.058 84.0144 418.745 82.0272 421.983 80.7024C425.295 79.304 428.791 78.6048 432.471 78.6048C437.697 78.6048 442.002 79.5616 445.388 81.4752C448.773 83.3152 451.276 85.928 452.895 89.3136C454.514 92.6256 455.324 96.5632 455.324 101.126V138H447.044L446.492 128.064C445.756 129.61 444.799 131.082 443.621 132.48C442.517 133.805 441.193 134.982 439.647 136.013C438.101 137.043 436.335 137.853 434.348 138.442C432.434 139.03 430.3 139.325 427.945 139.325ZM429.269 131.486C431.698 131.486 433.943 130.934 436.004 129.83C438.065 128.726 439.831 127.254 441.303 125.414C442.849 123.501 444.026 121.366 444.836 119.011C445.645 116.656 446.05 114.19 446.05 111.614V110.51H432.361C428.901 110.51 426.068 110.952 423.86 111.835C421.725 112.718 420.18 113.97 419.223 115.589C418.266 117.134 417.788 118.901 417.788 120.888C417.788 123.022 418.229 124.899 419.113 126.518C419.996 128.064 421.284 129.278 422.977 130.162C424.743 131.045 426.841 131.486 429.269 131.486ZM488.345 138C485.033 138 482.163 137.485 479.734 136.454C477.305 135.424 475.429 133.694 474.104 131.266C472.853 128.763 472.227 125.414 472.227 121.219V87.768H462.07V79.9296H472.227L473.441 65.4672H481.501V79.9296H497.95V87.768H481.501V121.219C481.501 124.678 482.2 127.034 483.598 128.285C484.997 129.462 487.462 130.051 490.995 130.051H497.729V138H488.345ZM525.467 139.325C521.051 139.325 517.371 138.515 514.427 136.896C511.483 135.203 509.275 132.995 507.803 130.272C506.331 127.475 505.595 124.494 505.595 121.33C505.595 117.502 506.552 114.264 508.466 111.614C510.453 108.891 513.213 106.83 516.746 105.432C520.279 104.034 524.4 103.334 529.111 103.334H543.573C543.573 99.5808 543.131 96.4528 542.248 93.9504C541.365 91.448 539.93 89.5712 537.943 88.32C535.955 87.0688 533.306 86.4432 529.994 86.4432C526.682 86.4432 523.848 87.2896 521.493 88.9824C519.138 90.6016 517.666 93.0304 517.077 96.2688H507.583C508.024 92.4416 509.312 89.24 511.447 86.664C513.581 84.0144 516.267 82.0272 519.506 80.7024C522.818 79.304 526.314 78.6048 529.994 78.6048C535.219 78.6048 539.525 79.5616 542.911 81.4752C546.296 83.3152 548.799 85.928 550.418 89.3136C552.037 92.6256 552.847 96.5632 552.847 101.126V138H544.567L544.015 128.064C543.279 129.61 542.322 131.082 541.144 132.48C540.04 133.805 538.715 134.982 537.17 136.013C535.624 137.043 533.858 137.853 531.871 138.442C529.957 139.03 527.823 139.325 525.467 139.325ZM526.792 131.486C529.221 131.486 531.466 130.934 533.527 129.83C535.587 128.726 537.354 127.254 538.826 125.414C540.371 123.501 541.549 121.366 542.359 119.011C543.168 116.656 543.573 114.19 543.573 111.614V110.51H529.883C526.424 110.51 523.591 110.952 521.383 111.835C519.248 112.718 517.703 113.97 516.746 115.589C515.789 117.134 515.311 118.901 515.311 120.888C515.311 123.022 515.752 124.899 516.635 126.518C517.519 128.064 518.807 129.278 520.499 130.162C522.266 131.045 524.363 131.486 526.792 131.486ZM593.781 139.325C590.248 139.325 587.194 138.81 584.618 137.779C582.115 136.675 579.981 135.314 578.214 133.694C576.522 132.075 575.123 130.493 574.019 128.947L573.246 138H564.856V58.512H574.13V89.0928C575.896 85.6336 578.509 83.0208 581.968 81.2544C585.427 79.488 589.291 78.6048 593.56 78.6048C598.859 78.6048 603.496 79.8928 607.47 82.4688C611.445 85.0448 614.536 88.6144 616.744 93.1776C618.952 97.6672 620.056 102.856 620.056 108.744C620.056 114.558 618.952 119.784 616.744 124.421C614.536 129.058 611.445 132.701 607.47 135.35C603.57 138 599.006 139.325 593.781 139.325ZM592.566 131.266C596.026 131.266 599.08 130.382 601.73 128.616C604.453 126.776 606.587 124.2 608.133 120.888C609.752 117.502 610.562 113.528 610.562 108.965C610.562 104.402 609.752 100.464 608.133 97.152C606.587 93.7664 604.453 91.1904 601.73 89.424C599.08 87.584 596.026 86.664 592.566 86.664C588.886 86.664 585.685 87.584 582.962 89.424C580.238 91.1904 578.141 93.7664 576.669 97.152C575.197 100.464 574.461 104.402 574.461 108.965C574.461 113.528 575.197 117.502 576.669 120.888C578.141 124.2 580.238 126.776 582.962 128.616C585.685 130.382 588.886 131.266 592.566 131.266ZM630.221 138V79.9296H638.611L639.273 90.528C640.598 87.8784 642.328 85.6704 644.462 83.904C646.597 82.1376 649.173 80.8128 652.19 79.9296C655.281 79.0464 658.741 78.6048 662.568 78.6048V88.32H656.827C654.619 88.32 652.485 88.6144 650.424 89.2032C648.363 89.792 646.486 90.7488 644.793 92.0736C643.174 93.3984 641.886 95.2016 640.929 97.4832C639.973 99.7648 639.494 102.635 639.494 106.094V138H630.221ZM670.809 138V79.9296H680.083V138H670.809ZM675.446 68.8896C673.606 68.8896 672.06 68.3008 670.809 67.1232C669.631 65.872 669.043 64.3264 669.043 62.4864C669.043 60.6464 669.631 59.1744 670.809 58.0704C672.06 56.8928 673.606 56.304 675.446 56.304C677.212 56.304 678.721 56.8928 679.972 58.0704C681.223 59.1744 681.849 60.6464 681.849 62.4864C681.849 64.3264 681.223 65.872 679.972 67.1232C678.721 68.3008 677.212 68.8896 675.446 68.8896ZM718.304 139.325C713.005 139.325 708.295 138.074 704.173 135.571C700.051 132.995 696.813 129.426 694.458 124.862C692.103 120.299 690.925 115 690.925 108.965C690.925 102.856 692.103 97.5568 694.458 93.0672C696.813 88.504 700.051 84.9712 704.173 82.4688C708.295 79.8928 713.005 78.6048 718.304 78.6048C724.928 78.6048 730.448 80.3712 734.864 83.904C739.354 87.4368 742.224 92.184 743.475 98.1456H733.981C733.171 94.4656 731.295 91.632 728.351 89.6448C725.48 87.584 722.095 86.5536 718.194 86.5536C714.808 86.5536 711.754 87.4 709.031 89.0928C706.381 90.7856 704.283 93.288 702.738 96.6C701.192 99.912 700.419 104.034 700.419 108.965C700.419 112.645 700.861 115.92 701.744 118.79C702.627 121.587 703.842 123.942 705.387 125.856C707.007 127.696 708.883 129.094 711.018 130.051C713.226 131.008 715.618 131.486 718.194 131.486C720.843 131.486 723.235 131.045 725.37 130.162C727.578 129.205 729.418 127.843 730.89 126.077C732.435 124.31 733.466 122.213 733.981 119.784H743.475C742.298 125.598 739.427 130.309 734.864 133.915C730.375 137.522 724.855 139.325 718.304 139.325ZM787.762 138L761.377 106.646L786.217 79.9296H797.588L769.215 109.958L769.325 103.334L799.575 138H787.762ZM753.649 138V58.512H762.922V138H753.649ZM823.817 139.325C818.592 139.325 814.249 138.552 810.79 137.006C807.405 135.387 804.829 133.179 803.062 130.382C801.296 127.512 800.229 124.2 799.861 120.446H809.355C809.649 122.434 810.312 124.274 811.342 125.966C812.446 127.586 814.029 128.91 816.089 129.941C818.15 130.971 820.763 131.486 823.928 131.486C826.43 131.486 828.565 131.118 830.331 130.382C832.097 129.573 833.422 128.469 834.305 127.07C835.262 125.672 835.741 124.053 835.741 122.213C835.741 119.784 835.189 117.907 834.085 116.582C833.054 115.184 831.509 114.154 829.448 113.491C827.461 112.755 824.958 112.203 821.941 111.835C818.702 111.394 815.832 110.768 813.329 109.958C810.827 109.149 808.693 108.082 806.926 106.757C805.233 105.432 803.945 103.776 803.062 101.789C802.179 99.8016 801.737 97.4464 801.737 94.7232C801.737 91.5584 802.584 88.7616 804.277 86.3328C805.969 83.904 808.361 82.0272 811.453 80.7024C814.617 79.304 818.334 78.6048 822.603 78.6048C828.859 78.6048 833.79 80.04 837.397 82.9104C841.077 85.7808 843.248 89.8656 843.91 95.1648H834.747C834.379 92.4416 833.128 90.3072 830.993 88.7616C828.859 87.216 826.025 86.4432 822.493 86.4432C818.739 86.4432 815.905 87.1424 813.992 88.5408C812.078 89.9392 811.121 91.7792 811.121 94.0608C811.121 95.7536 811.526 97.2992 812.336 98.6976C813.219 100.022 814.691 101.163 816.752 102.12C818.813 103.003 821.573 103.666 825.032 104.107C829.374 104.622 833.054 105.469 836.072 106.646C839.089 107.75 841.371 109.48 842.917 111.835C844.536 114.19 845.309 117.392 845.235 121.44C845.235 125.267 844.315 128.506 842.475 131.155C840.709 133.805 838.206 135.829 834.968 137.227C831.803 138.626 828.086 139.325 823.817 139.325ZM369.094 238.325C363.501 238.325 358.422 237.221 353.859 235.013C349.37 232.805 345.763 229.419 343.04 224.856C340.39 220.293 339.066 214.552 339.066 207.634V159.72H352.314V207.744C352.314 211.939 353.013 215.398 354.411 218.122C355.81 220.845 357.76 222.906 360.262 224.304C362.838 225.629 365.856 226.291 369.315 226.291C372.848 226.291 375.866 225.629 378.368 224.304C380.944 222.906 382.894 220.845 384.219 218.122C385.618 215.398 386.317 211.939 386.317 207.744V159.72H399.565V207.634C399.565 214.552 398.203 220.293 395.48 224.856C392.757 229.419 389.077 232.805 384.44 235.013C379.803 237.221 374.688 238.325 369.094 238.325ZM410.691 237V181.358H422.393L423.387 190.632C425.08 187.394 427.509 184.818 430.673 182.904C433.838 180.99 437.592 180.034 441.934 180.034C446.424 180.034 450.251 180.99 453.416 182.904C456.581 184.744 459.009 187.467 460.702 191.074C462.469 194.68 463.352 199.17 463.352 204.542V237H450.104V205.757C450.104 201.12 449.073 197.55 447.013 195.048C444.952 192.546 441.897 191.294 437.849 191.294C435.2 191.294 432.808 191.92 430.673 193.171C428.613 194.422 426.957 196.262 425.705 198.691C424.528 201.046 423.939 203.917 423.939 207.302V237H410.691ZM474.559 237V181.358H487.807V237H474.559ZM481.183 172.526C478.754 172.526 476.73 171.79 475.111 170.318C473.566 168.773 472.793 166.896 472.793 164.688C472.793 162.406 473.566 160.566 475.111 159.168C476.73 157.696 478.754 156.96 481.183 156.96C483.612 156.96 485.599 157.696 487.145 159.168C488.764 160.566 489.574 162.406 489.574 164.688C489.574 166.896 488.764 168.773 487.145 170.318C485.599 171.79 483.612 172.526 481.183 172.526ZM523.982 237C520.229 237 516.953 236.411 514.157 235.234C511.433 234.056 509.299 232.106 507.753 229.382C506.208 226.659 505.435 222.979 505.435 218.342V192.509H495.941V181.358H505.435L506.981 166.675H518.683V181.358H533.808V192.509H518.683V218.342C518.683 221.139 519.272 223.09 520.449 224.194C521.701 225.224 523.761 225.739 526.632 225.739H533.477V237H523.982ZM549.694 261.288L563.273 230.818H559.961L537.771 181.358H552.233L568.793 219.115L584.47 181.358H598.491L563.715 261.288H549.694ZM663.184 238.325C655.529 238.325 648.905 236.669 643.312 233.357C637.792 229.971 633.523 225.298 630.505 219.336C627.561 213.301 626.089 206.346 626.089 198.47C626.089 190.522 627.561 183.566 630.505 177.605C633.523 171.57 637.792 166.859 643.312 163.474C648.905 160.088 655.529 158.395 663.184 158.395C672.384 158.395 679.891 160.677 685.705 165.24C691.52 169.73 695.2 176.096 696.745 184.339H682.172C681.142 179.997 679.044 176.574 675.88 174.072C672.715 171.57 668.446 170.318 663.073 170.318C658.216 170.318 654.02 171.459 650.488 173.741C647.028 175.949 644.342 179.187 642.428 183.456C640.588 187.651 639.668 192.656 639.668 198.47C639.668 204.285 640.588 209.29 642.428 213.485C644.342 217.606 647.028 220.808 650.488 223.09C654.02 225.298 658.216 226.402 663.073 226.402C668.446 226.402 672.715 225.261 675.88 222.979C679.044 220.624 681.142 217.386 682.172 213.264H696.745C695.273 221.066 691.593 227.211 685.705 231.701C679.891 236.117 672.384 238.325 663.184 238.325ZM724.502 238.325C719.939 238.325 716.149 237.552 713.131 236.006C710.113 234.461 707.869 232.4 706.397 229.824C704.925 227.248 704.189 224.451 704.189 221.434C704.189 217.901 705.072 214.846 706.838 212.27C708.678 209.694 711.365 207.707 714.897 206.309C718.43 204.837 722.773 204.101 727.925 204.101H741.945C741.945 201.157 741.541 198.728 740.731 196.814C739.921 194.827 738.67 193.355 736.977 192.398C735.285 191.442 733.113 190.963 730.464 190.963C727.446 190.963 724.87 191.662 722.736 193.061C720.601 194.386 719.277 196.446 718.761 199.243H705.734C706.176 195.269 707.501 191.883 709.709 189.086C711.917 186.216 714.824 184.008 718.43 182.462C722.11 180.843 726.121 180.034 730.464 180.034C735.689 180.034 740.142 180.954 743.822 182.794C747.502 184.56 750.299 187.136 752.213 190.522C754.2 193.834 755.193 197.845 755.193 202.555V237H743.933L742.608 228.058C741.872 229.53 740.915 230.891 739.737 232.142C738.633 233.394 737.345 234.498 735.873 235.454C734.401 236.338 732.709 237.037 730.795 237.552C728.955 238.067 726.857 238.325 724.502 238.325ZM727.483 227.837C729.617 227.837 731.494 227.469 733.113 226.733C734.806 225.923 736.241 224.819 737.419 223.421C738.67 221.949 739.627 220.33 740.289 218.563C740.952 216.797 741.393 214.92 741.614 212.933V212.712H729.36C726.784 212.712 724.649 213.043 722.957 213.706C721.264 214.294 720.049 215.178 719.313 216.355C718.577 217.533 718.209 218.894 718.209 220.44C718.209 221.986 718.577 223.31 719.313 224.414C720.049 225.518 721.117 226.365 722.515 226.954C723.913 227.542 725.569 227.837 727.483 227.837ZM789.352 237C785.598 237 782.323 236.411 779.526 235.234C776.803 234.056 774.669 232.106 773.123 229.382C771.577 226.659 770.805 222.979 770.805 218.342V192.509H761.31V181.358H770.805L772.35 166.675H784.053V181.358H799.177V192.509H784.053V218.342C784.053 221.139 784.641 223.09 785.819 224.194C787.07 225.224 789.131 225.739 792.001 225.739H798.846V237H789.352ZM826.877 238.325C822.313 238.325 818.523 237.552 815.505 236.006C812.488 234.461 810.243 232.4 808.771 229.824C807.299 227.248 806.563 224.451 806.563 221.434C806.563 217.901 807.446 214.846 809.213 212.27C811.053 209.694 813.739 207.707 817.272 206.309C820.805 204.837 825.147 204.101 830.299 204.101H844.32C844.32 201.157 843.915 198.728 843.105 196.814C842.296 194.827 841.045 193.355 839.352 192.398C837.659 191.442 835.488 190.963 832.838 190.963C829.821 190.963 827.245 191.662 825.11 193.061C822.976 194.386 821.651 196.446 821.136 199.243H808.109C808.55 195.269 809.875 191.883 812.083 189.086C814.291 186.216 817.198 184.008 820.805 182.462C824.485 180.843 828.496 180.034 832.838 180.034C838.064 180.034 842.517 180.954 846.197 182.794C849.877 184.56 852.673 187.136 854.587 190.522C856.574 193.834 857.568 197.845 857.568 202.555V237H846.307L844.982 228.058C844.246 229.53 843.289 230.891 842.112 232.142C841.008 233.394 839.72 234.498 838.248 235.454C836.776 236.338 835.083 237.037 833.169 237.552C831.329 238.067 829.232 238.325 826.877 238.325ZM829.857 227.837C831.992 227.837 833.869 227.469 835.488 226.733C837.181 225.923 838.616 224.819 839.793 223.421C841.045 221.949 842.001 220.33 842.664 218.563C843.326 216.797 843.768 214.92 843.989 212.933V212.712H831.734C829.158 212.712 827.024 213.043 825.331 213.706C823.638 214.294 822.424 215.178 821.688 216.355C820.952 217.533 820.584 218.894 820.584 220.44C820.584 221.986 820.952 223.31 821.688 224.414C822.424 225.518 823.491 226.365 824.889 226.954C826.288 227.542 827.944 227.837 829.857 227.837ZM868.411 237V157.512H881.659V237H868.411ZM919.074 238.325C913.775 238.325 908.991 237.11 904.722 234.682C900.527 232.179 897.215 228.757 894.786 224.414C892.431 219.998 891.254 214.957 891.254 209.29C891.254 203.475 892.468 198.397 894.897 194.054C897.326 189.638 900.638 186.216 904.833 183.787C909.102 181.285 913.886 180.034 919.185 180.034C924.484 180.034 929.231 181.285 933.426 183.787C937.695 186.216 941.007 189.602 943.362 193.944C945.791 198.286 947.006 203.365 947.006 209.179C947.006 214.994 945.791 220.072 943.362 224.414C940.934 228.757 937.585 232.179 933.316 234.682C929.121 237.11 924.374 238.325 919.074 238.325ZM919.074 226.954C921.724 226.954 924.116 226.291 926.25 224.966C928.458 223.642 930.225 221.654 931.55 219.005C932.874 216.355 933.537 213.08 933.537 209.179C933.537 205.278 932.874 202.04 931.55 199.464C930.298 196.814 928.569 194.827 926.361 193.502C924.226 192.178 921.834 191.515 919.185 191.515C916.609 191.515 914.217 192.178 912.009 193.502C909.801 194.827 908.034 196.814 906.71 199.464C905.385 202.04 904.722 205.278 904.722 209.179C904.722 213.08 905.385 216.355 906.71 219.005C908.034 221.654 909.764 223.642 911.898 224.966C914.106 226.291 916.498 226.954 919.074 226.954ZM976.833 262.613C971.607 262.613 967.007 261.95 963.033 260.626C959.132 259.374 956.077 257.424 953.869 254.774C951.735 252.198 950.668 248.96 950.668 245.059C950.668 242.778 951.22 240.533 952.324 238.325C953.501 236.19 955.231 234.203 957.513 232.363C959.868 230.45 962.849 228.794 966.455 227.395L972.306 233.798C968.773 235.05 966.308 236.558 964.909 238.325C963.511 240.091 962.812 241.894 962.812 243.734C962.812 245.648 963.401 247.23 964.578 248.482C965.829 249.806 967.485 250.8 969.546 251.462C971.681 252.125 974.073 252.456 976.722 252.456C979.298 252.456 981.543 252.088 983.457 251.352C985.37 250.69 986.842 249.733 987.873 248.482C988.977 247.23 989.529 245.722 989.529 243.955C989.529 241.747 988.756 239.944 987.21 238.546C985.665 237.221 982.61 236.411 978.047 236.117C974.146 235.822 970.724 235.418 967.78 234.902C964.836 234.314 962.297 233.651 960.162 232.915C958.101 232.179 956.335 231.37 954.863 230.486C953.391 229.53 952.177 228.573 951.22 227.616V225.077L962.812 212.933L972.637 216.134L959.61 228.83L963.033 222.427C963.769 222.942 964.505 223.421 965.241 223.862C966.05 224.304 967.044 224.709 968.221 225.077C969.473 225.371 971.092 225.666 973.079 225.96C975.066 226.254 977.642 226.549 980.807 226.843C985.738 227.211 989.749 228.094 992.841 229.493C995.932 230.891 998.213 232.768 999.685 235.123C1001.16 237.478 1001.89 240.312 1001.89 243.624C1001.89 246.862 1000.97 249.917 999.133 252.787C997.367 255.658 994.644 258.013 990.964 259.853C987.284 261.693 982.573 262.613 976.833 262.613ZM976.833 220.33C972.196 220.33 968.185 219.446 964.799 217.68C961.487 215.84 958.948 213.411 957.181 210.394C955.415 207.302 954.532 203.917 954.532 200.237C954.532 196.483 955.415 193.098 957.181 190.08C958.948 187.062 961.487 184.634 964.799 182.794C968.185 180.954 972.196 180.034 976.833 180.034C981.469 180.034 985.444 180.954 988.756 182.794C992.068 184.634 994.607 187.062 996.373 190.08C998.14 193.098 999.023 196.483 999.023 200.237C999.023 203.917 998.14 207.302 996.373 210.394C994.607 213.411 992.068 215.84 988.756 217.68C985.444 219.446 981.469 220.33 976.833 220.33ZM976.833 210.062C979.997 210.062 982.537 209.216 984.45 207.523C986.364 205.83 987.321 203.402 987.321 200.237C987.321 197.072 986.364 194.68 984.45 193.061C982.537 191.368 979.997 190.522 976.833 190.522C973.668 190.522 971.092 191.368 969.105 193.061C967.117 194.68 966.124 197.072 966.124 200.237C966.124 203.402 967.117 205.83 969.105 207.523C971.092 209.216 973.668 210.062 976.833 210.062ZM985.996 191.074L983.457 181.358H1006.31V189.638L985.996 191.074Z" fill="white"/>
</svg>
