<svg width="1012" height="200" viewBox="0 0 1012 200" fill="none" xmlns="http://www.w3.org/2000/svg">
<path d="M70.7754 17.9688C79.782 17.9688 87.2581 24.9285 87.9014 33.9121L92.9688 104.688H49.2188L53.6396 34.0654C54.2061 25.0173 61.7095 17.9688 70.7754 17.9688ZM158.307 44.5312C167.37 44.5312 174.967 51.3838 175.897 60.3994L180.469 104.688H136.719L140.694 60.626C141.517 51.5124 149.156 44.5314 158.307 44.5312Z" fill="#FF5F46"/>
<path d="M132.42 165.934C131.784 175.001 124.243 182.031 115.153 182.031V182.03C106.131 182.03 98.6216 175.101 97.8994 166.107L92.9688 104.688H136.719L132.42 165.934ZM50 104.688L46.9268 148.658C46.474 155.134 41.0884 160.156 34.5967 160.156C28.1524 160.156 22.789 155.205 22.2754 148.781L18.75 104.688H50Z" fill="#FABFBA"/>
<path d="M239.838 137.5V60.22H264.789C273.768 60.22 281.165 61.8024 286.979 64.9672C292.867 68.132 297.21 72.6216 300.006 78.436C302.877 84.1768 304.312 91.0216 304.312 98.9704C304.312 106.772 302.877 113.58 300.006 119.394C297.21 125.135 292.867 129.588 286.979 132.753C281.165 135.918 273.768 137.5 264.789 137.5H239.838ZM253.086 126.239H264.126C270.824 126.239 276.086 125.172 279.914 123.038C283.814 120.83 286.574 117.702 288.194 113.654C289.886 109.532 290.733 104.638 290.733 98.9704C290.733 93.2296 289.886 88.3352 288.194 84.2872C286.574 80.1656 283.814 77.0008 279.914 74.7928C276.086 72.5112 270.824 71.3704 264.126 71.3704H253.086V126.239ZM332.041 138.825C327.478 138.825 323.688 138.052 320.67 136.506C317.653 134.961 315.408 132.9 313.936 130.324C312.464 127.748 311.728 124.951 311.728 121.934C311.728 118.401 312.611 115.346 314.377 112.77C316.217 110.194 318.904 108.207 322.437 106.809C325.969 105.337 330.312 104.601 335.464 104.601H349.485C349.485 101.657 349.08 99.228 348.27 97.3144C347.461 95.3272 346.209 93.8552 344.517 92.8984C342.824 91.9416 340.653 91.4632 338.003 91.4632C334.985 91.4632 332.409 92.1624 330.275 93.5608C328.141 94.8856 326.816 96.9464 326.301 99.7432H313.273C313.715 95.7688 315.04 92.3832 317.248 89.5864C319.456 86.716 322.363 84.508 325.969 82.9624C329.649 81.3432 333.661 80.5336 338.003 80.5336C343.229 80.5336 347.681 81.4536 351.361 83.2936C355.041 85.06 357.838 87.636 359.752 91.0216C361.739 94.3336 362.733 98.3448 362.733 103.055V137.5H351.472L350.147 128.558C349.411 130.03 348.454 131.391 347.277 132.642C346.173 133.894 344.885 134.998 343.413 135.954C341.941 136.838 340.248 137.537 338.334 138.052C336.494 138.567 334.397 138.825 332.041 138.825ZM335.022 128.337C337.157 128.337 339.033 127.969 340.653 127.233C342.345 126.423 343.781 125.319 344.958 123.921C346.209 122.449 347.166 120.83 347.829 119.063C348.491 117.297 348.933 115.42 349.153 113.433V113.212H336.899C334.323 113.212 332.189 113.543 330.496 114.206C328.803 114.794 327.589 115.678 326.853 116.855C326.117 118.033 325.749 119.394 325.749 120.94C325.749 122.486 326.117 123.81 326.853 124.914C327.589 126.018 328.656 126.865 330.054 127.454C331.453 128.042 333.109 128.337 335.022 128.337ZM396.891 137.5C393.137 137.5 389.862 136.911 387.065 135.734C384.342 134.556 382.208 132.606 380.662 129.882C379.117 127.159 378.344 123.479 378.344 118.842V93.0088H368.849V81.8584H378.344L379.889 67.1752H391.592V81.8584H406.717V93.0088H391.592V118.842C391.592 121.639 392.181 123.59 393.358 124.694C394.609 125.724 396.67 126.239 399.541 126.239H406.385V137.5H396.891ZM434.416 138.825C429.853 138.825 426.062 138.052 423.045 136.506C420.027 134.961 417.782 132.9 416.31 130.324C414.838 127.748 414.102 124.951 414.102 121.934C414.102 118.401 414.985 115.346 416.752 112.77C418.592 110.194 421.278 108.207 424.811 106.809C428.344 105.337 432.686 104.601 437.838 104.601H451.859C451.859 101.657 451.454 99.228 450.645 97.3144C449.835 95.3272 448.584 93.8552 446.891 92.8984C445.198 91.9416 443.027 91.4632 440.377 91.4632C437.36 91.4632 434.784 92.1624 432.649 93.5608C430.515 94.8856 429.19 96.9464 428.675 99.7432H415.648C416.089 95.7688 417.414 92.3832 419.622 89.5864C421.83 86.716 424.737 84.508 428.344 82.9624C432.024 81.3432 436.035 80.5336 440.377 80.5336C445.603 80.5336 450.056 81.4536 453.736 83.2936C457.416 85.06 460.213 87.636 462.126 91.0216C464.113 94.3336 465.107 98.3448 465.107 103.055V137.5H453.846L452.521 128.558C451.785 130.03 450.829 131.391 449.651 132.642C448.547 133.894 447.259 134.998 445.787 135.954C444.315 136.838 442.622 137.537 440.709 138.052C438.869 138.567 436.771 138.825 434.416 138.825ZM437.397 128.337C439.531 128.337 441.408 127.969 443.027 127.233C444.72 126.423 446.155 125.319 447.333 123.921C448.584 122.449 449.541 120.83 450.203 119.063C450.865 117.297 451.307 115.42 451.528 113.433V113.212H439.273C436.697 113.212 434.563 113.543 432.87 114.206C431.177 114.794 429.963 115.678 429.227 116.855C428.491 118.033 428.123 119.394 428.123 120.94C428.123 122.486 428.491 123.81 429.227 124.914C429.963 126.018 431.03 126.865 432.429 127.454C433.827 128.042 435.483 128.337 437.397 128.337ZM525.977 138.825C520.384 138.825 515.416 137.831 511.073 135.844C506.731 133.857 503.345 131.023 500.916 127.343C498.488 123.663 497.236 119.284 497.163 114.206H511.184C511.184 116.782 511.772 119.1 512.95 121.161C514.201 123.148 515.894 124.73 518.028 125.908C520.236 127.086 522.886 127.674 525.977 127.674C528.627 127.674 530.908 127.27 532.822 126.46C534.809 125.577 536.318 124.362 537.348 122.817C538.452 121.198 539.004 119.321 539.004 117.186C539.004 114.758 538.416 112.77 537.238 111.225C536.134 109.606 534.588 108.244 532.601 107.14C530.614 106.036 528.332 105.079 525.756 104.27C523.18 103.386 520.457 102.466 517.587 101.51C511.478 99.4488 506.878 96.836 503.787 93.6712C500.696 90.4328 499.15 86.1272 499.15 80.7544C499.15 76.2648 500.217 72.4008 502.352 69.1624C504.486 65.924 507.467 63.4216 511.294 61.6552C515.195 59.8152 519.684 58.8952 524.763 58.8952C529.915 58.8952 534.404 59.8152 538.232 61.6552C542.132 63.4952 545.187 66.0712 547.395 69.3832C549.676 72.6216 550.854 76.5224 550.928 81.0856H536.796C536.723 79.172 536.208 77.4056 535.251 75.7864C534.294 74.0936 532.896 72.732 531.056 71.7016C529.289 70.5976 527.118 70.0456 524.542 70.0456C522.334 69.972 520.347 70.34 518.58 71.1496C516.888 71.8856 515.526 72.9896 514.496 74.4616C513.539 75.86 513.06 77.6264 513.06 79.7608C513.06 81.8216 513.502 83.5512 514.385 84.9496C515.342 86.2744 516.704 87.4152 518.47 88.372C520.236 89.2552 522.297 90.1016 524.652 90.9112C527.008 91.7208 529.584 92.604 532.38 93.5608C536.208 94.812 539.667 96.3576 542.758 98.1976C545.923 99.964 548.425 102.282 550.265 105.153C552.105 108.023 553.025 111.74 553.025 116.303C553.025 120.278 551.995 123.994 549.934 127.454C547.873 130.839 544.856 133.599 540.881 135.734C536.907 137.794 531.939 138.825 525.977 138.825ZM586.331 137.5C582.577 137.5 579.302 136.911 576.505 135.734C573.782 134.556 571.647 132.606 570.102 129.882C568.556 127.159 567.783 123.479 567.783 118.842V93.0088H558.289V81.8584H567.783L569.329 67.1752H581.031V81.8584H596.156V93.0088H581.031V118.842C581.031 121.639 581.62 123.59 582.798 124.694C584.049 125.724 586.11 126.239 588.98 126.239H595.825V137.5H586.331ZM605.308 137.5V81.8584H617.121L618.335 92.236C619.66 89.8072 621.316 87.7464 623.303 86.0536C625.291 84.2872 627.609 82.9256 630.259 81.9688C632.982 81.012 635.963 80.5336 639.201 80.5336V94.5544H634.564C632.356 94.5544 630.259 94.8488 628.271 95.4376C626.284 95.9528 624.555 96.836 623.083 98.0872C621.684 99.2648 620.58 100.921 619.771 103.055C618.961 105.116 618.556 107.729 618.556 110.894V137.5H605.308ZM670.744 138.825C665.224 138.825 660.367 137.647 656.171 135.292C651.976 132.863 648.701 129.478 646.346 125.135C643.991 120.793 642.813 115.788 642.813 110.121C642.813 104.233 643.954 99.0808 646.235 94.6648C648.591 90.2488 651.866 86.7896 656.061 84.2872C660.33 81.7848 665.261 80.5336 670.855 80.5336C676.301 80.5336 681.048 81.748 685.096 84.1768C689.144 86.6056 692.272 89.8808 694.48 94.0024C696.688 98.0504 697.792 102.614 697.792 107.692C697.792 108.428 697.792 109.238 697.792 110.121C697.792 111.004 697.719 111.924 697.571 112.881H652.307V104.38H684.434C684.287 100.332 682.925 97.1672 680.349 94.8856C677.773 92.5304 674.571 91.3528 670.744 91.3528C668.021 91.3528 665.519 91.9784 663.237 93.2296C660.955 94.4808 659.152 96.3576 657.827 98.86C656.503 101.289 655.84 104.38 655.84 108.134V111.335C655.84 114.794 656.466 117.775 657.717 120.278C659.042 122.78 660.808 124.694 663.016 126.018C665.298 127.27 667.837 127.895 670.634 127.895C673.725 127.895 676.264 127.233 678.251 125.908C680.312 124.583 681.821 122.817 682.778 120.609H696.247C695.216 124.068 693.523 127.196 691.168 129.993C688.813 132.716 685.906 134.887 682.447 136.506C678.987 138.052 675.087 138.825 670.744 138.825ZM725.259 138.825C720.696 138.825 716.906 138.052 713.888 136.506C710.871 134.961 708.626 132.9 707.154 130.324C705.682 127.748 704.946 124.951 704.946 121.934C704.946 118.401 705.829 115.346 707.595 112.77C709.435 110.194 712.122 108.207 715.655 106.809C719.187 105.337 723.53 104.601 728.682 104.601H742.703C742.703 101.657 742.298 99.228 741.488 97.3144C740.679 95.3272 739.427 93.8552 737.735 92.8984C736.042 91.9416 733.871 91.4632 731.221 91.4632C728.203 91.4632 725.627 92.1624 723.493 93.5608C721.359 94.8856 720.034 96.9464 719.519 99.7432H706.491C706.933 95.7688 708.258 92.3832 710.466 89.5864C712.674 86.716 715.581 84.508 719.187 82.9624C722.867 81.3432 726.879 80.5336 731.221 80.5336C736.447 80.5336 740.899 81.4536 744.579 83.2936C748.259 85.06 751.056 87.636 752.97 91.0216C754.957 94.3336 755.951 98.3448 755.951 103.055V137.5H744.69L743.365 128.558C742.629 130.03 741.672 131.391 740.495 132.642C739.391 133.894 738.103 134.998 736.631 135.954C735.159 136.838 733.466 137.537 731.552 138.052C729.712 138.567 727.615 138.825 725.259 138.825ZM728.24 128.337C730.375 128.337 732.251 127.969 733.871 127.233C735.563 126.423 736.999 125.319 738.176 123.921C739.427 122.449 740.384 120.83 741.047 119.063C741.709 117.297 742.151 115.42 742.371 113.433V113.212H730.117C727.541 113.212 725.407 113.543 723.714 114.206C722.021 114.794 720.807 115.678 720.071 116.855C719.335 118.033 718.967 119.394 718.967 120.94C718.967 122.486 719.335 123.81 720.071 124.914C720.807 126.018 721.874 126.865 723.272 127.454C724.671 128.042 726.327 128.337 728.24 128.337ZM766.794 137.5V81.8584H778.496L779.6 89.476C781.367 86.6792 783.685 84.508 786.556 82.9624C789.5 81.3432 792.848 80.5336 796.602 80.5336C799.399 80.5336 801.901 80.9016 804.109 81.6376C806.391 82.3736 808.378 83.4776 810.071 84.9496C811.837 86.4216 813.272 88.2616 814.376 90.4696C816.437 87.3784 819.124 84.9496 822.436 83.1832C825.748 81.4168 829.354 80.5336 833.255 80.5336C837.892 80.5336 841.829 81.4904 845.068 83.404C848.306 85.244 850.772 88.004 852.464 91.684C854.157 95.2904 855.004 99.7432 855.004 105.042V137.5H841.866V106.367C841.866 101.657 840.909 98.0504 838.996 95.548C837.082 93.0456 834.248 91.7944 830.495 91.7944C827.919 91.7944 825.637 92.42 823.65 93.6712C821.736 94.9224 820.228 96.7624 819.124 99.1912C818.02 101.546 817.468 104.454 817.468 107.913V137.5H804.33V106.367C804.33 101.657 803.373 98.0504 801.46 95.548C799.546 93.0456 796.676 91.7944 792.848 91.7944C790.42 91.7944 788.212 92.42 786.224 93.6712C784.311 94.9224 782.802 96.7624 781.698 99.1912C780.594 101.546 780.042 104.454 780.042 107.913V137.5H766.794ZM866.24 137.5V81.8584H879.488V137.5H866.24ZM872.864 73.0264C870.435 73.0264 868.411 72.2904 866.792 70.8184C865.247 69.2728 864.474 67.396 864.474 65.188C864.474 62.9064 865.247 61.0664 866.792 59.668C868.411 58.196 870.435 57.46 872.864 57.46C875.293 57.46 877.28 58.196 878.826 59.668C880.445 61.0664 881.255 62.9064 881.255 65.188C881.255 67.396 880.445 69.2728 878.826 70.8184C877.28 72.2904 875.293 73.0264 872.864 73.0264ZM891.486 137.5V81.8584H903.188L904.182 91.132C905.874 87.8936 908.303 85.3176 911.468 83.404C914.633 81.4904 918.386 80.5336 922.729 80.5336C927.218 80.5336 931.046 81.4904 934.21 83.404C937.375 85.244 939.804 87.9672 941.497 91.5736C943.263 95.18 944.146 99.6696 944.146 105.042V137.5H930.898V106.257C930.898 101.62 929.868 98.0504 927.807 95.548C925.746 93.0456 922.692 91.7944 918.644 91.7944C915.994 91.7944 913.602 92.42 911.468 93.6712C909.407 94.9224 907.751 96.7624 906.5 99.1912C905.322 101.546 904.734 104.417 904.734 107.802V137.5H891.486ZM978.207 163.113C972.981 163.113 968.381 162.45 964.407 161.126C960.506 159.874 957.451 157.924 955.243 155.274C953.109 152.698 952.042 149.46 952.042 145.559C952.042 143.278 952.594 141.033 953.698 138.825C954.875 136.69 956.605 134.703 958.887 132.863C961.242 130.95 964.223 129.294 967.829 127.895L973.68 134.298C970.147 135.55 967.682 137.058 966.283 138.825C964.885 140.591 964.186 142.394 964.186 144.234C964.186 146.148 964.775 147.73 965.952 148.982C967.203 150.306 968.859 151.3 970.92 151.962C973.055 152.625 975.447 152.956 978.096 152.956C980.672 152.956 982.917 152.588 984.831 151.852C986.744 151.19 988.216 150.233 989.247 148.982C990.351 147.73 990.903 146.222 990.903 144.455C990.903 142.247 990.13 140.444 988.584 139.046C987.039 137.721 983.984 136.911 979.421 136.617C975.52 136.322 972.098 135.918 969.154 135.402C966.21 134.814 963.671 134.151 961.536 133.415C959.475 132.679 957.709 131.87 956.237 130.986C954.765 130.03 953.551 129.073 952.594 128.116V125.577L964.186 113.433L974.011 116.634L960.984 129.33L964.407 122.927C965.143 123.442 965.879 123.921 966.615 124.362C967.424 124.804 968.418 125.209 969.595 125.577C970.847 125.871 972.466 126.166 974.453 126.46C976.44 126.754 979.016 127.049 982.181 127.343C987.112 127.711 991.123 128.594 994.215 129.993C997.306 131.391 999.587 133.268 1001.06 135.623C1002.53 137.978 1003.27 140.812 1003.27 144.124C1003.27 147.362 1002.35 150.417 1000.51 153.287C998.741 156.158 996.018 158.513 992.338 160.353C988.658 162.193 983.947 163.113 978.207 163.113ZM978.207 120.83C973.57 120.83 969.559 119.946 966.173 118.18C962.861 116.34 960.322 113.911 958.555 110.894C956.789 107.802 955.906 104.417 955.906 100.737C955.906 96.9832 956.789 93.5976 958.555 90.58C960.322 87.5624 962.861 85.1336 966.173 83.2936C969.559 81.4536 973.57 80.5336 978.207 80.5336C982.843 80.5336 986.818 81.4536 990.13 83.2936C993.442 85.1336 995.981 87.5624 997.747 90.58C999.514 93.5976 1000.4 96.9832 1000.4 100.737C1000.4 104.417 999.514 107.802 997.747 110.894C995.981 113.911 993.442 116.34 990.13 118.18C986.818 119.946 982.843 120.83 978.207 120.83ZM978.207 110.562C981.371 110.562 983.911 109.716 985.824 108.023C987.738 106.33 988.695 103.902 988.695 100.737C988.695 97.572 987.738 95.18 985.824 93.5608C983.911 91.868 981.371 91.0216 978.207 91.0216C975.042 91.0216 972.466 91.868 970.479 93.5608C968.491 95.18 967.498 97.572 967.498 100.737C967.498 103.902 968.491 106.33 970.479 108.023C972.466 109.716 975.042 110.562 978.207 110.562ZM987.37 91.5736L984.831 81.8584H1007.68V90.1384L987.37 91.5736Z" fill="white"/>
</svg>
