<svg width="150" height="150" viewBox="0 0 150 150" fill="none" xmlns="http://www.w3.org/2000/svg">
<g clip-path="url(#clip0_6320_1475)">
<path d="M114.372 96.9673L112.43 98.9094L127.689 114.169C129.261 115.741 130.093 117.775 130.093 119.995C130.093 122.215 129.261 124.249 127.689 125.821C124.452 129.058 119.273 129.058 116.036 125.821L106.788 116.573L87.8299 97.5222L99.4824 85.8697L106.973 93.3606L98.6501 101.684L100.592 103.626L110.858 93.3606L99.3899 81.9855L92.4539 88.9215L83.4833 79.9509C83.8532 79.4885 84.3156 79.0261 84.6855 78.5637L84.778 78.4712C85.0555 78.1013 85.4254 77.7314 85.7028 77.3615C86.6276 76.0667 87.5524 74.772 88.2923 73.3848L88.3848 73.1998V73.1073C88.5697 72.7374 88.7547 72.3675 88.9396 71.9976L89.1246 71.7201C89.3096 71.2577 89.4945 70.8878 89.772 70.4254C90.4193 68.9457 90.9742 67.3735 91.3441 65.7089C91.4366 65.2465 91.5291 64.7841 91.7141 64.3217C92.1765 62.0097 92.4539 59.6977 92.4539 57.3856C92.4539 56.0909 92.3614 54.7962 92.2689 53.5015L89.6795 56.2759C89.6795 56.6458 89.6795 57.0157 89.6795 57.3856C89.6795 59.5127 89.4945 61.6398 89.0321 63.7668C88.9396 64.2292 88.8471 64.5991 88.7547 65.0615C88.3847 66.5412 87.9223 68.0209 87.275 69.3156C87.09 69.6856 86.9051 70.148 86.7201 70.5179L86.6276 70.7953C86.4427 71.1653 86.2577 71.5352 86.0727 71.9051V71.9976C85.3329 73.2923 84.593 74.587 83.6682 75.6968C83.3908 76.0667 83.1134 76.3442 82.8359 76.7141C82.8359 76.8066 82.7434 76.8066 82.7434 76.899C82.0961 77.6389 81.4487 78.3787 80.8013 79.0261L79.7841 80.0434L90.6968 90.9561L84.8705 96.5049L83.8532 97.5222L104.846 118.515L114.094 127.763C116.221 129.89 119.088 131 121.863 131C124.637 131 127.504 129.89 129.631 127.763C131.666 125.729 132.868 122.954 132.868 119.995C132.868 117.036 131.758 114.261 129.631 112.227L114.372 96.9673Z" fill="#FF3621"/>
<path d="M25.9603 79.3959C25.9603 77.2688 25.313 75.3267 24.1107 73.847L25.313 72.6448L28.3648 69.5929L30.4919 67.4659L36.5031 61.4546L44.0865 53.8712C45.6587 54.981 47.6008 55.7208 49.6353 55.7208C51.7624 55.7208 53.612 55.0735 55.1842 53.8712L62.3977 61.0847C61.2879 62.6569 60.6405 64.5065 60.6405 66.5411C60.6405 71.72 64.8022 75.8816 69.9811 75.8816C75.16 75.8816 79.3216 71.72 79.3216 66.5411C79.3216 64.5065 78.6742 62.5644 77.472 60.9922L84.2231 54.2411L88.6621 49.8021L90.8817 47.5825L95.3207 43.1435L97.1704 41.2939C98.7425 42.4961 100.685 43.1435 102.719 43.1435C107.898 43.1435 112.06 38.9819 112.06 33.8029C112.06 28.624 107.806 24.4624 102.719 24.4624C97.6328 24.4624 93.3786 28.624 93.3786 33.8029C93.3786 35.93 94.026 37.7796 95.2283 39.3518L93.2862 41.2939L89.8644 44.7156L87.7373 46.8427L82.1885 52.3915L75.5299 59.0501C73.9577 57.9404 72.0156 57.2005 69.9811 57.2005C67.854 57.2005 65.9119 57.9404 64.3398 59.1426L57.1263 51.9291C58.236 50.357 58.9759 48.4149 58.9759 46.3803C58.9759 41.2014 54.7218 36.9473 49.6353 36.9473C44.4564 36.9473 40.2948 41.2014 40.2948 46.2878C40.2948 48.3224 40.9422 50.2645 42.1444 51.8366L25.8678 68.1132L23.4633 70.5177L22.0761 71.9049C20.504 70.7952 18.5619 70.0553 16.5273 70.0553C11.4409 70.0553 7.18677 74.2169 7.18677 79.3959C7.18677 84.5748 11.4409 88.7364 16.5273 88.7364C21.7062 88.7364 25.9603 84.5748 25.9603 79.3959ZM102.812 27.1443C106.418 27.1443 109.378 30.1037 109.378 33.7105C109.378 37.3172 106.418 40.2766 102.812 40.2766C99.2049 40.2766 96.2455 37.3172 96.2455 33.7105C96.1531 30.1037 99.1124 27.1443 102.812 27.1443ZM69.9811 59.9749C73.5878 59.9749 76.5472 62.9343 76.5472 66.5411C76.5472 70.1478 73.5878 73.1072 69.9811 73.1072C66.3743 73.1072 63.4149 70.1478 63.4149 66.5411C63.4149 62.9343 66.3743 59.9749 69.9811 59.9749ZM49.6353 39.7217C53.2421 39.7217 56.2015 42.6811 56.2015 46.2878C56.2015 49.8946 53.2421 52.8539 49.6353 52.8539C46.0286 52.8539 43.0692 49.8946 43.0692 46.2878C42.9767 42.6811 45.9361 39.7217 49.6353 39.7217ZM16.5273 85.962C12.9206 85.962 9.96118 83.0026 9.96118 79.3959C9.96118 75.7891 12.9206 72.8297 16.5273 72.8297C20.134 72.8297 23.0934 75.7891 23.0934 79.3959C23.1859 83.0026 20.2265 85.962 16.5273 85.962Z" fill="#FF3621"/>
<path d="M32.5263 72.0898L30.3993 73.847C36.1331 83.7424 46.8608 90.4935 59.1607 90.4935C64.4321 90.4935 69.5186 89.2912 74.2351 86.8867L73.0328 84.3898C68.6862 86.6093 64.0622 87.7191 59.2532 87.7191C47.6932 87.7191 37.7977 81.4304 32.5263 72.0898Z" fill="#FF3621"/>
<path d="M59.1609 26.7744C70.4435 26.7744 80.2465 32.8781 85.5179 41.9412L87.46 39.8142C81.6337 30.3812 71.0909 24 59.1609 24C40.8498 24 25.8679 38.8894 25.8679 57.293C25.8679 58.5877 25.9604 59.79 26.0529 60.9922L28.6423 58.8652C28.6423 58.3103 28.6423 57.8479 28.6423 57.293C28.6423 40.4615 42.3295 26.7744 59.1609 26.7744Z" fill="#FF3621"/>
</g>
<defs>
<clipPath id="clip0_6320_1475">
<rect width="125.813" height="107" fill="white" transform="translate(7.18677 24)"/>
</clipPath>
</defs>
</svg>
