<svg width="150" height="150" viewBox="0 0 150 150" fill="none" xmlns="http://www.w3.org/2000/svg">
<g clip-path="url(#clip0_1_2209)">
<path d="M114.372 96.9673L112.43 98.9094L127.689 114.169C129.261 115.741 130.094 117.775 130.094 119.995C130.094 122.215 129.261 124.249 127.689 125.821C124.452 129.058 119.273 129.058 116.036 125.821L106.788 116.573L87.8299 97.5222L99.4825 85.8697L106.973 93.3606L98.6502 101.684L100.592 103.626L110.858 93.3606L99.39 81.9855L92.454 88.9215L83.4833 79.9509C83.8533 79.4885 84.3157 79.0261 84.6856 78.5637L84.7781 78.4712C85.0555 78.1013 85.4254 77.7314 85.7029 77.3615C86.6277 76.0667 87.5525 74.772 88.2923 73.3848L88.3848 73.1998V73.1073C88.5698 72.7374 88.7547 72.3675 88.9397 71.9976L89.1247 71.7201C89.3096 71.2577 89.4946 70.8878 89.772 70.4254C90.4194 68.9457 90.9743 67.3735 91.3442 65.7089C91.4367 65.2465 91.5292 64.7841 91.7141 64.3217C92.1765 62.0097 92.454 59.6977 92.454 57.3856C92.454 56.0909 92.3615 54.7962 92.269 53.5015L89.6795 56.2759C89.6795 56.6458 89.6795 57.0157 89.6795 57.3856C89.6795 59.5127 89.4946 61.6398 89.0322 63.7668C88.9397 64.2292 88.8472 64.5991 88.7547 65.0615C88.3848 66.5412 87.9224 68.0209 87.275 69.3156C87.0901 69.6856 86.9051 70.148 86.7202 70.5179L86.6277 70.7953C86.4427 71.1653 86.2578 71.5352 86.0728 71.9051V71.9976C85.333 73.2923 84.5931 74.587 83.6683 75.6968C83.3909 76.0667 83.1134 76.3442 82.836 76.7141C82.836 76.8066 82.7435 76.8066 82.7435 76.899C82.0961 77.6389 81.4488 78.3787 80.8014 79.0261L79.7841 80.0434L90.6968 90.9561L84.8705 96.5049L83.8533 97.5222L104.846 118.515L114.094 127.763C116.221 129.89 119.088 131 121.863 131C124.637 131 127.504 129.89 129.631 127.763C131.666 125.729 132.868 122.954 132.868 119.995C132.868 117.036 131.758 114.261 129.631 112.227L114.372 96.9673Z" fill="white"/>
<path d="M25.9604 79.3959C25.9604 77.2688 25.313 75.3267 24.1108 73.847L25.313 72.6448L28.3649 69.5929L30.492 67.4659L36.5032 61.4546L44.0866 53.8712C45.6588 54.981 47.6009 55.7208 49.6354 55.7208C51.7625 55.7208 53.6121 55.0735 55.1843 53.8712L62.3978 61.0847C61.288 62.6569 60.6406 64.5065 60.6406 66.5411C60.6406 71.72 64.8022 75.8816 69.9812 75.8816C75.1601 75.8816 79.3217 71.72 79.3217 66.5411C79.3217 64.5065 78.6743 62.5644 77.4721 60.9922L84.2232 54.2411L88.6622 49.8021L90.8818 47.5825L95.3208 43.1435L97.1704 41.2939C98.7426 42.4961 100.685 43.1435 102.719 43.1435C107.898 43.1435 112.06 38.9819 112.06 33.8029C112.06 28.624 107.806 24.4624 102.719 24.4624C97.6328 24.4624 93.3787 28.624 93.3787 33.8029C93.3787 35.93 94.0261 37.7796 95.2283 39.3518L93.2863 41.2939L89.8645 44.7156L87.7374 46.8427L82.1886 52.3915L75.53 59.0501C73.9578 57.9404 72.0157 57.2005 69.9812 57.2005C67.8541 57.2005 65.912 57.9404 64.3398 59.1426L57.1264 51.9291C58.2361 50.357 58.976 48.4149 58.976 46.3803C58.976 41.2014 54.7219 36.9473 49.6354 36.9473C44.4565 36.9473 40.2949 41.2014 40.2949 46.2878C40.2949 48.3224 40.9423 50.2645 42.1445 51.8366L25.8679 68.1132L23.4634 70.5177L22.0762 71.9049C20.5041 70.7952 18.562 70.0553 16.5274 70.0553C11.441 70.0553 7.18686 74.2169 7.18686 79.3959C7.18686 84.5748 11.441 88.7364 16.5274 88.7364C21.7063 88.7364 25.9604 84.5748 25.9604 79.3959ZM102.812 27.1443C106.418 27.1443 109.378 30.1037 109.378 33.7105C109.378 37.3172 106.418 40.2766 102.812 40.2766C99.205 40.2766 96.2456 37.3172 96.2456 33.7105C96.1532 30.1037 99.1125 27.1443 102.812 27.1443ZM69.9812 59.9749C73.5879 59.9749 76.5473 62.9343 76.5473 66.5411C76.5473 70.1478 73.5879 73.1072 69.9812 73.1072C66.3744 73.1072 63.415 70.1478 63.415 66.5411C63.415 62.9343 66.3744 59.9749 69.9812 59.9749ZM49.6354 39.7217C53.2422 39.7217 56.2016 42.6811 56.2016 46.2878C56.2016 49.8946 53.2422 52.8539 49.6354 52.8539C46.0287 52.8539 43.0693 49.8946 43.0693 46.2878C42.9768 42.6811 45.9362 39.7217 49.6354 39.7217ZM16.5274 85.962C12.9207 85.962 9.96128 83.0026 9.96128 79.3959C9.96128 75.7891 12.9207 72.8297 16.5274 72.8297C20.1341 72.8297 23.0935 75.7891 23.0935 79.3959C23.186 83.0026 20.2266 85.962 16.5274 85.962Z" fill="white"/>
<path d="M32.5264 72.0898L30.3994 73.847C36.1331 83.7424 46.8609 90.4935 59.1608 90.4935C64.4322 90.4935 69.5186 89.2912 74.2351 86.8867L73.0329 84.3898C68.6863 86.6093 64.0623 87.7191 59.2533 87.7191C47.6932 87.7191 37.7978 81.4304 32.5264 72.0898Z" fill="white"/>
<path d="M59.161 26.7744C70.4436 26.7744 80.2466 32.8781 85.518 41.9412L87.4601 39.8142C81.6338 30.3812 71.091 24 59.161 24C40.8499 24 25.868 38.8894 25.868 57.293C25.868 58.5877 25.9605 59.79 26.053 60.9922L28.6424 58.8652C28.6424 58.3103 28.6424 57.8479 28.6424 57.293C28.6424 40.4615 42.3295 26.7744 59.161 26.7744Z" fill="white"/>
</g>
<defs>
<clipPath id="clip0_1_2209">
<rect width="125.813" height="107" fill="white" transform="translate(7.18683 24)"/>
</clipPath>
</defs>
</svg>
