<svg width="150" height="150" viewBox="0 0 150 150" fill="none" xmlns="http://www.w3.org/2000/svg">
<g clip-path="url(#clip0_1_2249)">
<path d="M114.372 96.9671L112.43 98.9092L127.689 114.168C129.261 115.741 130.094 117.775 130.094 119.995C130.094 122.214 129.261 124.249 127.689 125.821C124.452 129.058 119.273 129.058 116.036 125.821L106.788 116.573L87.8299 97.522L99.4825 85.8694L106.973 93.3603L98.6502 101.684L100.592 103.626L110.858 93.3603L99.39 81.9852L92.454 88.9213L83.4833 79.9507C83.8533 79.4883 84.3157 79.0259 84.6856 78.5635L84.7781 78.471C85.0555 78.1011 85.4254 77.7311 85.7029 77.3612C86.6277 76.0665 87.5525 74.7718 88.2923 73.3845L88.3848 73.1996V73.1071C88.5698 72.7372 88.7547 72.3673 88.9397 71.9973L89.1247 71.7199C89.3096 71.2575 89.4946 70.8876 89.772 70.4252C90.4194 68.9455 90.9743 67.3733 91.3442 65.7087C91.4367 65.2463 91.5292 64.7838 91.7141 64.3214C92.1765 62.0094 92.454 59.6974 92.454 57.3854C92.454 56.0907 92.3615 54.7959 92.269 53.5012L89.6795 56.2756C89.6795 56.6456 89.6795 57.0155 89.6795 57.3854C89.6795 59.5125 89.4946 61.6395 89.0322 63.7666C88.9397 64.229 88.8472 64.5989 88.7547 65.0613C88.3848 66.541 87.9224 68.0207 87.275 69.3154C87.0901 69.6853 86.9051 70.1477 86.7202 70.5176L86.6277 70.7951C86.4427 71.165 86.2578 71.5349 86.0728 71.9049V71.9973C85.333 73.2921 84.5931 74.5868 83.6683 75.6966C83.3909 76.0665 83.1134 76.3439 82.836 76.7138C82.836 76.8063 82.7435 76.8063 82.7435 76.8988C82.0961 77.6386 81.4488 78.3785 80.8014 79.0259L79.7841 80.0431L90.6968 90.9558L84.8705 96.5047L83.8533 97.522L104.846 118.515L114.094 127.763C116.221 129.89 119.088 131 121.863 131C124.637 131 127.504 129.89 129.631 127.763C131.666 125.729 132.868 122.954 132.868 119.995C132.868 117.035 131.758 114.261 129.631 112.226L114.372 96.9671Z" fill="#1B3139"/>
<path d="M25.9604 79.3956C25.9604 77.2686 25.313 75.3265 24.1108 73.8468L25.313 72.6445L28.3649 69.5927L30.492 67.4656L36.5032 61.4544L44.0866 53.871C45.6588 54.9807 47.6009 55.7206 49.6354 55.7206C51.7625 55.7206 53.6121 55.0732 55.1843 53.871L62.3978 61.0845C61.288 62.6566 60.6406 64.5062 60.6406 66.5408C60.6406 71.7197 64.8022 75.8813 69.9812 75.8813C75.1601 75.8813 79.3217 71.7197 79.3217 66.5408C79.3217 64.5062 78.6743 62.5641 77.4721 60.992L84.2232 54.2409L88.6622 49.8018L90.8818 47.5823L95.3208 43.1432L97.1704 41.2936C98.7426 42.4959 100.685 43.1432 102.719 43.1432C107.898 43.1432 112.06 38.9816 112.06 33.8027C112.06 28.6238 107.806 24.4622 102.719 24.4622C97.6328 24.4622 93.3787 28.6238 93.3787 33.8027C93.3787 35.9297 94.0261 37.7794 95.2283 39.3515L93.2863 41.2936L89.8645 44.7154L87.7374 46.8425L82.1886 52.3913L75.53 59.0499C73.9578 57.9401 72.0157 57.2003 69.9812 57.2003C67.8541 57.2003 65.912 57.9401 64.3398 59.1424L57.1264 51.9289C58.2361 50.3567 58.976 48.4146 58.976 46.3801C58.976 41.2011 54.7219 36.947 49.6354 36.947C44.4565 36.947 40.2949 41.2011 40.2949 46.2876C40.2949 48.3221 40.9423 50.2642 42.1445 51.8364L25.8679 68.113L23.4634 70.5175L22.0762 71.9047C20.5041 70.7949 18.562 70.0551 16.5274 70.0551C11.441 70.0551 7.18686 74.2167 7.18686 79.3956C7.18686 84.5745 11.441 88.7361 16.5274 88.7361C21.7063 88.7361 25.9604 84.5745 25.9604 79.3956ZM102.812 27.1441C106.418 27.1441 109.378 30.1035 109.378 33.7102C109.378 37.317 106.418 40.2763 102.812 40.2763C99.205 40.2763 96.2456 37.317 96.2456 33.7102C96.1532 30.1035 99.1125 27.1441 102.812 27.1441ZM69.9812 59.9747C73.5879 59.9747 76.5473 62.9341 76.5473 66.5408C76.5473 70.1476 73.5879 73.1069 69.9812 73.1069C66.3744 73.1069 63.415 70.1476 63.415 66.5408C63.415 62.9341 66.3744 59.9747 69.9812 59.9747ZM49.6354 39.7215C53.2422 39.7215 56.2016 42.6808 56.2016 46.2876C56.2016 49.8943 53.2422 52.8537 49.6354 52.8537C46.0287 52.8537 43.0693 49.8943 43.0693 46.2876C42.9768 42.6808 45.9362 39.7215 49.6354 39.7215ZM16.5274 85.9617C12.9207 85.9617 9.96128 83.0024 9.96128 79.3956C9.96128 75.7889 12.9207 72.8295 16.5274 72.8295C20.1341 72.8295 23.0935 75.7889 23.0935 79.3956C23.186 83.0024 20.2266 85.9617 16.5274 85.9617Z" fill="#1B3139"/>
<path d="M32.5264 72.0898L30.3994 73.847C36.1331 83.7424 46.8609 90.4935 59.1608 90.4935C64.4322 90.4935 69.5186 89.2912 74.2351 86.8867L73.0329 84.3898C68.6863 86.6093 64.0623 87.7191 59.2533 87.7191C47.6932 87.7191 37.7978 81.4304 32.5264 72.0898Z" fill="#1B3139"/>
<path d="M59.161 26.7744C70.4436 26.7744 80.2466 32.8781 85.518 41.9412L87.4601 39.8142C81.6338 30.3812 71.091 24 59.161 24C40.8499 24 25.868 38.8894 25.868 57.293C25.868 58.5877 25.9605 59.79 26.053 60.9922L28.6424 58.8652C28.6424 58.3103 28.6424 57.8479 28.6424 57.293C28.6424 40.4615 42.3295 26.7744 59.161 26.7744Z" fill="#1B3139"/>
</g>
<defs>
<clipPath id="clip0_1_2249">
<rect width="125.813" height="107" fill="white" transform="translate(7.18683 24)"/>
</clipPath>
</defs>
</svg>
