<svg width="150" height="150" viewBox="0 0 150 150" fill="none" xmlns="http://www.w3.org/2000/svg">
<path d="M37.8999 38.4997H41.5999V47.6997H31.7999V50.6997H41.5999V55.2997H44.5999V50.6997H48.2999C52.4999 50.6997 55.8999 47.2997 55.8999 43.0997C55.8999 38.8997 52.4999 35.4997 48.2999 35.4997H44.5999V26.2997H54.3999V23.2997H44.5999V18.6997H41.5999V23.2997H37.8999C33.6999 23.2997 30.2999 26.6997 30.2999 30.8997C30.2999 35.0997 33.6999 38.4997 37.8999 38.4997ZM48.2999 38.4997C50.7999 38.4997 52.8999 40.5997 52.8999 43.0997C52.8999 45.5997 50.7999 47.6997 48.2999 47.6997H44.5999V38.4997H48.2999ZM37.8999 26.2997H41.5999V35.4997H37.8999C35.3999 35.4997 33.2999 33.3997 33.2999 30.8997C33.2999 28.3997 35.2999 26.2997 37.8999 26.2997Z" fill="#FF5F46"/>
<path d="M113.6 88.6L122.3 79.9V36H113.4V39H119.3V78.6L108.6 89.3L110.4 90.2C112.1 91.1 113.6 92.1 115 93.3L110.2 98.1L112.3 100.2L117.1 95.4C120.3 99.1 122.3 103.8 122.7 108.8H116V111.8H122.7C122.4 116.9 120.3 121.6 117.1 125.2L112.4 120.5L110.3 122.6L115 127.3C111.4 130.5 106.7 132.5 101.6 132.9V126.2H98.5999V132.9C93.4999 132.6 88.7999 130.5 85.1999 127.3L89.8999 122.6L87.7999 120.5L83.0999 125.2C79.8999 121.6 77.8999 116.9 77.4999 111.8H84.1999V108.8H77.4999C77.7999 103.7 79.8999 99 83.0999 95.4L87.7999 100.1L89.8999 98L85.1999 93.3C88.7999 90.1 93.4999 88.1 98.5999 87.7V111L106.1 118.5L108.2 116.4L101.5 109.7V86.3V84.8H99.9999C85.8999 84.8 74.3999 96.3 74.3999 110.4C74.3999 124.5 85.8999 136.1 99.9999 136.1C114.1 136.1 125.7 124.6 125.7 110.4C125.8 101.4 121.2 93.2 113.6 88.6Z" fill="#FF5F46"/>
<path d="M79.7 38.9999H96.1V37.4999C96.1 28.9999 97.3 23.9999 98.3 21.2999C99.5 17.9999 100.9 16.8999 101.7 16.8999C103.4 16.8999 105.8 21.1999 105.8 30.2999C105.8 39.3999 104.4 45.6999 102.9 49.9999C102 49.6999 101 49.4999 100 49.4999C97.6 49.4999 95.4 50.3999 93.8 52.0999C92.2 53.7999 91.2 55.9999 91.2 58.2999C91.2 60.6999 92.1 62.8999 93.8 64.4999C95.5 66.1999 97.8 67.0999 100 67.0999C102.2 67.0999 104.5 66.1999 106.2 64.4999C109.6 61.0999 109.6 55.4999 106.2 52.0999C106 51.8999 105.7 51.6999 105.5 51.4999C107.2 46.8999 108.8 40.0999 108.8 30.2999C108.8 20.2999 106 13.8999 101.7 13.8999C100.3 13.8999 97.5 14.6999 95.5 20.2999C94.1 24.1999 93.3 29.5999 93.2 35.9999H78.5L72.2 42.2999L74.3 44.3999L79.7 38.9999ZM105.8 58.3999C105.8 59.8999 105.2 61.3999 104.1 62.4999C103 63.5999 101.5 64.1999 100 64.1999C98.5 64.1999 97 63.5999 95.9 62.4999C94.8 61.3999 94.2 59.8999 94.2 58.3999C94.2 56.8999 94.8 55.3999 95.9 54.2999C97 53.1999 98.5 52.5999 100 52.5999C100.6 52.5999 101.2 52.6999 101.7 52.8999C100.3 55.9999 99 57.2999 98.9 57.2999L101 59.4999C101.1 59.3999 102.6 57.8999 104.2 54.4999C105.2 55.5999 105.8 56.8999 105.8 58.3999Z" fill="#FF5F46"/>
<path d="M68 129.9L28.4 90.2999L67.0999 51.6999L96.3 80.8999L98.3999 78.6999L67.0999 47.3999L24.2 90.2999L68 134.2L74.8 127.3L72.6999 125.2L68 129.9Z" fill="#FF5F46"/>
</svg>
