<svg width="150" height="150" viewBox="0 0 150 150" fill="none" xmlns="http://www.w3.org/2000/svg">
<path d="M37.9 38.5H41.6V47.7H31.8V50.7H41.6V55.3H44.6V50.7H48.3C52.5 50.7 55.9 47.3 55.9 43.1C55.9 38.9 52.5 35.5 48.3 35.5H44.6V26.3H54.4V23.3H44.6V18.7H41.6V23.3H37.9C33.7 23.3 30.3 26.7 30.3 30.9C30.3 35.1 33.7 38.5 37.9 38.5ZM48.3 38.5C50.8 38.5 52.9 40.6 52.9 43.1C52.9 45.6 50.8 47.7 48.3 47.7H44.6V38.5H48.3ZM37.9 26.3H41.6V35.5H37.9C35.4 35.5 33.3 33.4 33.3 30.9C33.3 28.4 35.3 26.3 37.9 26.3Z" fill="white"/>
<path d="M113.6 88.6L122.3 79.9V36H113.4V39H119.3V78.6L108.6 89.3L110.4 90.2C112.1 91.1 113.6 92.1 115 93.3L110.2 98.1L112.3 100.2L117.1 95.4C120.3 99.1 122.3 103.8 122.7 108.8H116V111.8H122.7C122.4 116.9 120.3 121.6 117.1 125.2L112.4 120.5L110.3 122.6L115 127.3C111.4 130.5 106.7 132.5 101.6 132.9V126.2H98.6V132.9C93.5 132.6 88.8 130.5 85.2 127.3L89.9 122.6L87.8 120.5L83.1 125.2C79.9 121.6 77.9 116.9 77.5 111.8H84.2V108.8H77.5C77.8 103.7 79.9 99 83.1 95.4L87.8 100.1L89.9 98L85.2 93.3C88.8 90.1 93.5 88.1 98.6 87.7V111L106.1 118.5L108.2 116.4L101.5 109.7V86.3V84.8H100C85.9 84.8 74.4 96.3 74.4 110.4C74.4 124.5 85.9 136.1 100 136.1C114.1 136.1 125.7 124.6 125.7 110.4C125.8 101.4 121.2 93.2 113.6 88.6Z" fill="white"/>
<path d="M79.7 39H96.1V37.5C96.1 29 97.3 24 98.3 21.3C99.5 18 100.9 16.9 101.7 16.9C103.4 16.9 105.8 21.2 105.8 30.3C105.8 39.4 104.4 45.7 102.9 50C102 49.7 101 49.5 100 49.5C97.6 49.5 95.4 50.4 93.8 52.1C92.2 53.8 91.2 56 91.2 58.3C91.2 60.7 92.1 62.9 93.8 64.5C95.5 66.2 97.8 67.1 100 67.1C102.2 67.1 104.5 66.2 106.2 64.5C109.6 61.1 109.6 55.5 106.2 52.1C106 51.9 105.7 51.7 105.5 51.5C107.2 46.9 108.8 40.1 108.8 30.3C108.8 20.3 106 13.9 101.7 13.9C100.3 13.9 97.5 14.7 95.5 20.3C94.1 24.2 93.3 29.6 93.2 36H78.5L72.2 42.3L74.3 44.4L79.7 39ZM105.8 58.4C105.8 59.9 105.2 61.4 104.1 62.5C103 63.6 101.5 64.2 100 64.2C98.5 64.2 97 63.6 95.9 62.5C94.8 61.4 94.2 59.9 94.2 58.4C94.2 56.9 94.8 55.4 95.9 54.3C97 53.2 98.5 52.6 100 52.6C100.6 52.6 101.2 52.7 101.7 52.9C100.3 56 99 57.3 98.9 57.3L101 59.5C101.1 59.4 102.6 57.9 104.2 54.5C105.2 55.6 105.8 56.9 105.8 58.4Z" fill="white"/>
<path d="M68 129.9L28.4 90.3L67.1 51.7L96.3 80.9L98.4 78.7L67.1 47.4L24.2 90.3L68 134.2L74.8 127.3L72.7 125.2L68 129.9Z" fill="white"/>
</svg>
