<svg width="150" height="150" viewBox="0 0 150 150" fill="none" xmlns="http://www.w3.org/2000/svg">
<path d="M123.84 91.47L121.72 93.59L138.65 110.52C140.017 111.887 140.785 113.742 140.785 115.675C140.785 117.609 140.017 119.463 138.65 120.83C137.283 122.197 135.428 122.965 133.495 122.965C131.561 122.965 129.707 122.197 128.34 120.83L116.34 108.83L99 91.52L109.32 81.21L115.83 87.73L110.15 93.41L112.28 95.53L120.08 87.73L109.34 77L103 83.27L95.1 75.38C98.1465 72.0476 100.419 68.0835 101.756 63.7709C103.093 59.4582 103.461 54.9035 102.834 50.4322C102.207 45.9609 100.599 41.6834 98.1272 37.9052C95.6551 34.127 92.379 30.9414 88.533 28.5761C84.6871 26.2108 80.3662 24.7241 75.879 24.2223C71.3919 23.7205 66.8493 24.2159 62.5758 25.6731C58.3024 27.1304 54.4035 29.5135 51.1578 32.6522C47.9121 35.7909 45.3996 39.6078 43.8 43.83H26.46V46.83H46L46.35 45.83C48.4575 39.7103 52.6443 34.5234 58.1817 31.1723C63.7191 27.8212 70.2564 26.5181 76.6554 27.4899C83.0545 28.4616 88.9102 31.6467 93.2031 36.4906C97.496 41.3345 99.9543 47.5305 100.15 54H85.15V57H100.05C99.5155 63.5537 96.6612 69.702 92 74.34L90.91 75.4L100.91 85.4L95.84 90.47L94.84 91.53L114.23 110.92L126.23 122.92C128.171 124.794 130.77 125.83 133.467 125.806C136.165 125.783 138.745 124.701 140.653 122.793C142.561 120.885 143.643 118.305 143.666 115.607C143.69 112.91 142.654 110.311 140.78 108.37L123.84 91.47Z" fill="#1B3139"/>
<path d="M17.85 78.91H40.6V75.91H14.85V83.85H7V27.09H14.85V33.53L14.97 35.03H37.98V32.03H17.85V24.09H4V86.85H17.85V78.91Z" fill="#1B3139"/>
<path d="M132.15 32.03H108.74L108.75 35.03H135.15V27.09H143V83.85H135.15V75.91H124.61V78.91H132.15V86.85H146V24.09H132.15V32.03Z" fill="#1B3139"/>
<path d="M31.87 53.97H15.07V56.97H31.87V53.97Z" fill="#1B3139"/>
<path d="M15.19 67.1001H44.48C46.8628 72.5375 50.7822 77.1605 55.7565 80.4009C60.7308 83.6413 66.5434 85.358 72.48 85.3401C77.3078 85.3575 82.0687 84.2118 86.36 82.0001L85 79.3601C81.1374 81.3469 76.8536 82.3759 72.51 82.3601C66.9869 82.377 61.5868 80.7299 57.0133 77.6334C52.4399 74.5369 48.9052 70.1345 46.87 65.0001L46.49 64.0601H15.19V67.1001Z" fill="#1B3139"/>
<path d="M88.63 43.84H56.03V46.84H88.63V43.84Z" fill="#1B3139"/>
<path d="M65.65 53.97H36.5V56.97H65.65V53.97Z" fill="#1B3139"/>
<path d="M79.02 53.97H71.98V56.97H79.02V53.97Z" fill="#1B3139"/>
<path d="M88.63 64.1H73.49V67.1H88.63V64.1Z" fill="#1B3139"/>
<path d="M68.82 64.1H55.76V67.1H68.82V64.1Z" fill="#1B3139"/>
<path d="M135.97 43.84H108.74V46.84H135.97V43.84Z" fill="#1B3139"/>
<path d="M21.32 43.84H15.07V46.84H21.32V43.84Z" fill="#1B3139"/>
<path d="M135.97 53.97H108.74V56.97H135.97V53.97Z" fill="#1B3139"/>
<path d="M121.62 64.1H108.74V67.1H121.62V64.1Z" fill="#1B3139"/>
<path d="M135.97 64.1H127.62V67.1H135.97V64.1Z" fill="#1B3139"/>
</svg>
