<svg width="150" height="150" viewBox="0 0 150 150" fill="none" xmlns="http://www.w3.org/2000/svg">
<path d="M123.84 91.4699L121.72 93.5899L138.65 110.52C140.017 111.887 140.785 113.741 140.785 115.675C140.785 117.608 140.017 119.463 138.65 120.83C137.283 122.197 135.428 122.965 133.495 122.965C131.561 122.965 129.707 122.197 128.34 120.83L116.34 108.83L99 91.5199L109.32 81.2099L115.83 87.7299L110.15 93.4099L112.28 95.5299L120.08 87.7299L109.34 76.9999L103 83.2699L95.1 75.3799C98.1465 72.0475 100.419 68.0834 101.756 63.7707C103.093 59.4581 103.461 54.9034 102.834 50.4321C102.207 45.9608 100.599 41.6833 98.1272 37.9051C95.6551 34.1269 92.379 30.9413 88.533 28.576C84.687 26.2107 80.3661 24.724 75.879 24.2222C71.3919 23.7204 66.8493 24.2158 62.5758 25.673C58.3023 27.1303 54.4034 29.5134 51.1577 32.6521C47.912 35.7908 45.3996 39.6076 43.8 43.8299H26.46V46.8299H46L46.35 45.8299C48.4575 39.7102 52.6443 34.5233 58.1817 31.1722C63.7191 27.8211 70.2563 26.518 76.6554 27.4898C83.0545 28.4615 88.9102 31.6466 93.2031 36.4905C97.496 41.3344 99.9543 47.5304 100.15 53.9999H85.15V56.9999H100.05C99.5154 63.5536 96.6611 69.7019 92 74.3399L90.91 75.3999L100.91 85.3999L95.84 90.4699L94.84 91.5299L114.23 110.92L126.23 122.92C128.171 124.794 130.77 125.83 133.467 125.806C136.165 125.783 138.745 124.7 140.653 122.793C142.56 120.885 143.643 118.305 143.666 115.607C143.69 112.91 142.654 110.311 140.78 108.37L123.84 91.4699Z" fill="#FF5F46"/>
<path d="M17.85 78.9098H40.6V75.9098H14.85V83.8498H7V27.0898H14.85V33.5298L14.97 35.0298H37.98V32.0298H17.85V24.0898H4V86.8498H17.85V78.9098Z" fill="#FF5F46"/>
<path d="M132.15 32.0298H108.74L108.75 35.0298H135.15V27.0898H143V83.8498H135.15V75.9098H124.61V78.9098H132.15V86.8498H146V24.0898H132.15V32.0298Z" fill="#FF5F46"/>
<path d="M31.8699 53.9702H15.0699V56.9702H31.8699V53.9702Z" fill="#FF5F46"/>
<path d="M15.1899 67.1001H44.4799C46.8628 72.5375 50.7821 77.1605 55.7564 80.4009C60.7307 83.6413 66.5433 85.358 72.4799 85.3401C77.3077 85.3575 82.0686 84.2118 86.3599 82.0001L84.9999 79.3601C81.1373 81.3469 76.8536 82.3759 72.5099 82.3601C66.9869 82.377 61.5867 80.7299 57.0133 77.6334C52.4398 74.5369 48.9052 70.1345 46.8699 65.0001L46.4899 64.0601H15.1899V67.1001Z" fill="#FF5F46"/>
<path d="M88.63 43.8398H56.03V46.8398H88.63V43.8398Z" fill="#FF5F46"/>
<path d="M65.65 53.9702H36.5V56.9702H65.65V53.9702Z" fill="#FF5F46"/>
<path d="M79.02 53.9702H71.98V56.9702H79.02V53.9702Z" fill="#FF5F46"/>
<path d="M88.63 64.1001H73.49V67.1001H88.63V64.1001Z" fill="#FF5F46"/>
<path d="M68.82 64.1001H55.76V67.1001H68.82V64.1001Z" fill="#FF5F46"/>
<path d="M135.97 43.8398H108.74V46.8398H135.97V43.8398Z" fill="#FF5F46"/>
<path d="M21.3199 43.8398H15.0699V46.8398H21.3199V43.8398Z" fill="#FF5F46"/>
<path d="M135.97 53.9702H108.74V56.9702H135.97V53.9702Z" fill="#FF5F46"/>
<path d="M121.62 64.1001H108.74V67.1001H121.62V64.1001Z" fill="#FF5F46"/>
<path d="M135.97 64.1001H127.62V67.1001H135.97V64.1001Z" fill="#FF5F46"/>
</svg>
