<svg width="512" height="512" viewBox="0 0 512 512" fill="none" xmlns="http://www.w3.org/2000/svg">
<path d="M381.398 416.565C382.417 416.032 383.096 415.013 383.29 413.849C383.484 412.685 383.096 411.521 382.271 410.697C373.736 400.949 346.724 377.428 346.724 377.428C344.202 375.682 340.613 377.428 337.8 378.107C328.44 381.211 318.596 382.86 308.751 382.86C301.525 382.86 294.347 382.035 287.315 380.338C270.148 376.749 253.756 370.154 238.868 360.891C196.724 333.345 142.699 331.987 99.2465 357.399C78.6355 371.269 61.1768 389.407 48.0828 410.6C47.4523 411.521 47.5008 412.782 48.2768 413.655C49.0527 414.48 50.3136 414.674 51.2835 414.092C71.749 402.986 126.744 377.04 176.259 386.4C196.094 391.492 215.201 399.058 233.145 408.951C246.627 415.45 260.351 422.191 274.318 427.428C319.469 443.772 363.94 425.585 381.398 416.516V416.565Z" fill="#C4CCD6"/>
<path d="M239.741 84.7527L325.677 233.249C326.162 234.17 326.065 235.334 325.386 236.159C324.755 236.983 323.688 237.371 322.67 237.129C318.257 236.11 313.747 235.577 309.188 235.577C297.791 235.577 286.637 238.972 277.132 245.325C275.92 246.149 274.465 246.392 273.058 246.101C271.652 245.81 270.439 244.937 269.664 243.724L235.474 184.607C234.698 183.055 233.146 182.085 231.4 182.085C229.654 182.085 228.102 183.055 227.326 184.607L171.992 280.485C171.507 281.164 171.41 282.037 171.701 282.764C172.04 283.54 172.719 284.073 173.544 284.17C202.69 290.378 229.46 304.975 250.459 326.168C252.156 327.914 252.35 330.678 250.944 332.667C249.489 334.655 246.87 335.334 244.688 334.267C229.702 326.556 213.553 321.367 196.919 318.894C173.689 315.984 150.168 317.439 127.472 323.065C120.295 324.81 112.535 326.847 105.358 329.078C98.1803 331.309 94.8825 332.764 94.8825 332.764C92.8457 333.443 90.9058 334.316 89.2569 334.995H88.578C86.6381 335.965 84.2618 335.48 82.8069 333.879C81.352 332.279 81.1095 329.854 82.2249 328.011L223.058 84.7527C224.804 81.7944 227.957 80 231.4 80C234.843 80 237.995 81.7944 239.741 84.7527Z" fill="#C4CCD6"/>
<path fill-rule="evenodd" clip-rule="evenodd" d="M425.484 255.025C446.871 255.025 464.232 237.615 464.232 216.131C464.232 194.647 446.871 177.236 425.484 177.236C404.097 177.236 386.735 194.647 386.735 216.131C386.735 220.495 387.463 224.811 388.869 228.982L335.086 264.773C319.519 251 295.853 251.969 281.498 267.003C267.094 282.037 267.094 305.801 281.498 320.835C295.901 335.868 319.519 336.887 335.086 323.065L388.869 359.05C387.511 363.124 386.784 367.391 386.735 371.707C386.832 390.039 399.684 405.8 417.579 409.583C435.474 413.317 453.515 404.055 460.935 387.275C468.354 370.495 463.068 350.854 448.277 340.039C433.486 329.273 413.214 330.291 399.635 342.561L345.853 306.577C348.714 298.235 348.714 289.215 345.853 280.922L399.635 245.325C406.764 251.63 415.978 255.122 425.484 255.073V255.025Z" fill="#618794"/>
</svg>
