<svg width="1239" height="300" viewBox="0 0 1239 300" fill="none" xmlns="http://www.w3.org/2000/svg">
<path d="M37.498 263.106L37.4989 156.294L85.7419 156.294L85.7417 214.308L143.275 214.308L143.275 263.106L37.498 263.106Z" fill="#FABFBA"/>
<path d="M262.495 37.5005L262.494 144.312L214.251 144.312L214.251 86.2988L156.718 86.2988L156.718 37.5005L262.495 37.5005Z" fill="#FABFBA"/>
<rect width="80.5102" height="80.5128" transform="matrix(1 0 5.39465e-06 1 37.5 37.5005)" fill="#FF5F46"/>
<rect width="80.5106" height="80.5128" transform="matrix(1 0 5.39465e-06 1 182.662 182.616)" fill="#FF5F46"/>
<path d="M340.501 138V60.72H360.373C369.352 60.72 376.749 62.3024 382.563 65.4672C388.451 68.5584 392.794 73.0112 395.59 78.8256C398.461 84.5664 399.896 91.4848 399.896 99.5808C399.896 107.53 398.461 114.374 395.59 120.115C392.794 125.856 388.451 130.272 382.563 133.363C376.749 136.454 369.352 138 360.373 138H340.501ZM349.774 130.272H360.152C367.586 130.272 373.51 129.058 377.926 126.629C382.342 124.126 385.507 120.594 387.421 116.03C389.334 111.394 390.291 105.91 390.291 99.5808C390.291 93.104 389.334 87.5472 387.421 82.9104C385.507 78.2736 382.342 74.704 377.926 72.2016C373.51 69.6992 367.586 68.448 360.152 68.448H349.774V130.272ZM427.945 139.325C423.529 139.325 419.849 138.515 416.905 136.896C413.961 135.203 411.753 132.995 410.281 130.272C408.809 127.475 408.073 124.494 408.073 121.33C408.073 117.502 409.029 114.264 410.943 111.614C412.93 108.891 415.69 106.83 419.223 105.432C422.756 104.034 426.877 103.334 431.588 103.334H446.05C446.05 99.5808 445.609 96.4528 444.725 93.9504C443.842 91.448 442.407 89.5712 440.42 88.32C438.433 87.0688 435.783 86.4432 432.471 86.4432C429.159 86.4432 426.325 87.2896 423.97 88.9824C421.615 90.6016 420.143 93.0304 419.554 96.2688H410.06C410.501 92.4416 411.789 89.24 413.924 86.664C416.058 84.0144 418.745 82.0272 421.983 80.7024C425.295 79.304 428.791 78.6048 432.471 78.6048C437.697 78.6048 442.002 79.5616 445.388 81.4752C448.773 83.3152 451.276 85.928 452.895 89.3136C454.514 92.6256 455.324 96.5632 455.324 101.126V138H447.044L446.492 128.064C445.756 129.61 444.799 131.082 443.621 132.48C442.517 133.805 441.193 134.982 439.647 136.013C438.101 137.043 436.335 137.853 434.348 138.442C432.434 139.03 430.3 139.325 427.945 139.325ZM429.269 131.486C431.698 131.486 433.943 130.934 436.004 129.83C438.065 128.726 439.831 127.254 441.303 125.414C442.849 123.501 444.026 121.366 444.836 119.011C445.645 116.656 446.05 114.19 446.05 111.614V110.51H432.361C428.901 110.51 426.068 110.952 423.86 111.835C421.725 112.718 420.18 113.97 419.223 115.589C418.266 117.134 417.788 118.901 417.788 120.888C417.788 123.022 418.229 124.899 419.113 126.518C419.996 128.064 421.284 129.278 422.977 130.162C424.743 131.045 426.841 131.486 429.269 131.486ZM488.345 138C485.033 138 482.163 137.485 479.734 136.454C477.305 135.424 475.429 133.694 474.104 131.266C472.853 128.763 472.227 125.414 472.227 121.219V87.768H462.07V79.9296H472.227L473.441 65.4672H481.501V79.9296H497.95V87.768H481.501V121.219C481.501 124.678 482.2 127.034 483.598 128.285C484.997 129.462 487.462 130.051 490.995 130.051H497.729V138H488.345ZM525.467 139.325C521.051 139.325 517.371 138.515 514.427 136.896C511.483 135.203 509.275 132.995 507.803 130.272C506.331 127.475 505.595 124.494 505.595 121.33C505.595 117.502 506.552 114.264 508.466 111.614C510.453 108.891 513.213 106.83 516.746 105.432C520.279 104.034 524.4 103.334 529.111 103.334H543.573C543.573 99.5808 543.131 96.4528 542.248 93.9504C541.365 91.448 539.93 89.5712 537.943 88.32C535.955 87.0688 533.306 86.4432 529.994 86.4432C526.682 86.4432 523.848 87.2896 521.493 88.9824C519.138 90.6016 517.666 93.0304 517.077 96.2688H507.583C508.024 92.4416 509.312 89.24 511.447 86.664C513.581 84.0144 516.267 82.0272 519.506 80.7024C522.818 79.304 526.314 78.6048 529.994 78.6048C535.219 78.6048 539.525 79.5616 542.911 81.4752C546.296 83.3152 548.799 85.928 550.418 89.3136C552.037 92.6256 552.847 96.5632 552.847 101.126V138H544.567L544.015 128.064C543.279 129.61 542.322 131.082 541.144 132.48C540.04 133.805 538.715 134.982 537.17 136.013C535.624 137.043 533.858 137.853 531.871 138.442C529.957 139.03 527.823 139.325 525.467 139.325ZM526.792 131.486C529.221 131.486 531.466 130.934 533.527 129.83C535.587 128.726 537.354 127.254 538.826 125.414C540.371 123.501 541.549 121.366 542.359 119.011C543.168 116.656 543.573 114.19 543.573 111.614V110.51H529.883C526.424 110.51 523.591 110.952 521.383 111.835C519.248 112.718 517.703 113.97 516.746 115.589C515.789 117.134 515.311 118.901 515.311 120.888C515.311 123.022 515.752 124.899 516.635 126.518C517.519 128.064 518.807 129.278 520.499 130.162C522.266 131.045 524.363 131.486 526.792 131.486ZM593.781 139.325C590.248 139.325 587.194 138.81 584.618 137.779C582.115 136.675 579.981 135.314 578.214 133.694C576.522 132.075 575.123 130.493 574.019 128.947L573.246 138H564.856V58.512H574.13V89.0928C575.896 85.6336 578.509 83.0208 581.968 81.2544C585.427 79.488 589.291 78.6048 593.56 78.6048C598.859 78.6048 603.496 79.8928 607.47 82.4688C611.445 85.0448 614.536 88.6144 616.744 93.1776C618.952 97.6672 620.056 102.856 620.056 108.744C620.056 114.558 618.952 119.784 616.744 124.421C614.536 129.058 611.445 132.701 607.47 135.35C603.57 138 599.006 139.325 593.781 139.325ZM592.566 131.266C596.026 131.266 599.08 130.382 601.73 128.616C604.453 126.776 606.587 124.2 608.133 120.888C609.752 117.502 610.562 113.528 610.562 108.965C610.562 104.402 609.752 100.464 608.133 97.152C606.587 93.7664 604.453 91.1904 601.73 89.424C599.08 87.584 596.026 86.664 592.566 86.664C588.886 86.664 585.685 87.584 582.962 89.424C580.238 91.1904 578.141 93.7664 576.669 97.152C575.197 100.464 574.461 104.402 574.461 108.965C574.461 113.528 575.197 117.502 576.669 120.888C578.141 124.2 580.238 126.776 582.962 128.616C585.685 130.382 588.886 131.266 592.566 131.266ZM630.221 138V79.9296H638.611L639.273 90.528C640.598 87.8784 642.328 85.6704 644.462 83.904C646.597 82.1376 649.173 80.8128 652.19 79.9296C655.281 79.0464 658.741 78.6048 662.568 78.6048V88.32H656.827C654.619 88.32 652.485 88.6144 650.424 89.2032C648.363 89.792 646.486 90.7488 644.793 92.0736C643.174 93.3984 641.886 95.2016 640.929 97.4832C639.973 99.7648 639.494 102.635 639.494 106.094V138H630.221ZM670.809 138V79.9296H680.083V138H670.809ZM675.446 68.8896C673.606 68.8896 672.06 68.3008 670.809 67.1232C669.631 65.872 669.043 64.3264 669.043 62.4864C669.043 60.6464 669.631 59.1744 670.809 58.0704C672.06 56.8928 673.606 56.304 675.446 56.304C677.212 56.304 678.721 56.8928 679.972 58.0704C681.223 59.1744 681.849 60.6464 681.849 62.4864C681.849 64.3264 681.223 65.872 679.972 67.1232C678.721 68.3008 677.212 68.8896 675.446 68.8896ZM718.304 139.325C713.005 139.325 708.295 138.074 704.173 135.571C700.051 132.995 696.813 129.426 694.458 124.862C692.103 120.299 690.925 115 690.925 108.965C690.925 102.856 692.103 97.5568 694.458 93.0672C696.813 88.504 700.051 84.9712 704.173 82.4688C708.295 79.8928 713.005 78.6048 718.304 78.6048C724.928 78.6048 730.448 80.3712 734.864 83.904C739.354 87.4368 742.224 92.184 743.475 98.1456H733.981C733.171 94.4656 731.295 91.632 728.351 89.6448C725.48 87.584 722.095 86.5536 718.194 86.5536C714.808 86.5536 711.754 87.4 709.031 89.0928C706.381 90.7856 704.283 93.288 702.738 96.6C701.192 99.912 700.419 104.034 700.419 108.965C700.419 112.645 700.861 115.92 701.744 118.79C702.627 121.587 703.842 123.942 705.387 125.856C707.007 127.696 708.883 129.094 711.018 130.051C713.226 131.008 715.618 131.486 718.194 131.486C720.843 131.486 723.235 131.045 725.37 130.162C727.578 129.205 729.418 127.843 730.89 126.077C732.435 124.31 733.466 122.213 733.981 119.784H743.475C742.298 125.598 739.427 130.309 734.864 133.915C730.375 137.522 724.855 139.325 718.304 139.325ZM787.762 138L761.377 106.646L786.217 79.9296H797.588L769.215 109.958L769.325 103.334L799.575 138H787.762ZM753.649 138V58.512H762.922V138H753.649ZM823.817 139.325C818.592 139.325 814.249 138.552 810.79 137.006C807.405 135.387 804.829 133.179 803.062 130.382C801.296 127.512 800.229 124.2 799.861 120.446H809.355C809.649 122.434 810.312 124.274 811.342 125.966C812.446 127.586 814.029 128.91 816.089 129.941C818.15 130.971 820.763 131.486 823.928 131.486C826.43 131.486 828.565 131.118 830.331 130.382C832.097 129.573 833.422 128.469 834.305 127.07C835.262 125.672 835.741 124.053 835.741 122.213C835.741 119.784 835.189 117.907 834.085 116.582C833.054 115.184 831.509 114.154 829.448 113.491C827.461 112.755 824.958 112.203 821.941 111.835C818.702 111.394 815.832 110.768 813.329 109.958C810.827 109.149 808.693 108.082 806.926 106.757C805.233 105.432 803.945 103.776 803.062 101.789C802.179 99.8016 801.737 97.4464 801.737 94.7232C801.737 91.5584 802.584 88.7616 804.277 86.3328C805.969 83.904 808.361 82.0272 811.453 80.7024C814.617 79.304 818.334 78.6048 822.603 78.6048C828.859 78.6048 833.79 80.04 837.397 82.9104C841.077 85.7808 843.248 89.8656 843.91 95.1648H834.747C834.379 92.4416 833.128 90.3072 830.993 88.7616C828.859 87.216 826.025 86.4432 822.493 86.4432C818.739 86.4432 815.905 87.1424 813.992 88.5408C812.078 89.9392 811.121 91.7792 811.121 94.0608C811.121 95.7536 811.526 97.2992 812.336 98.6976C813.219 100.022 814.691 101.163 816.752 102.12C818.813 103.003 821.573 103.666 825.032 104.107C829.374 104.622 833.054 105.469 836.072 106.646C839.089 107.75 841.371 109.48 842.917 111.835C844.536 114.19 845.309 117.392 845.235 121.44C845.235 125.267 844.315 128.506 842.475 131.155C840.709 133.805 838.206 135.829 834.968 137.227C831.803 138.626 828.086 139.325 823.817 139.325ZM339.838 237V159.72H353.086V226.622H387.531V237H339.838ZM415.223 238.325C410.659 238.325 406.869 237.552 403.851 236.006C400.834 234.461 398.589 232.4 397.117 229.824C395.645 227.248 394.909 224.451 394.909 221.434C394.909 217.901 395.792 214.846 397.559 212.27C399.399 209.694 402.085 207.707 405.618 206.309C409.151 204.837 413.493 204.101 418.645 204.101H432.666C432.666 201.157 432.261 198.728 431.451 196.814C430.642 194.827 429.391 193.355 427.698 192.398C426.005 191.442 423.834 190.963 421.184 190.963C418.167 190.963 415.591 191.662 413.456 193.061C411.322 194.386 409.997 196.446 409.482 199.243H396.455C396.896 195.269 398.221 191.883 400.429 189.086C402.637 186.216 405.544 184.008 409.151 182.462C412.831 180.843 416.842 180.034 421.184 180.034C426.41 180.034 430.863 180.954 434.543 182.794C438.223 184.56 441.019 187.136 442.933 190.522C444.92 193.834 445.914 197.845 445.914 202.555V237H434.653L433.328 228.058C432.592 229.53 431.635 230.891 430.458 232.142C429.354 233.394 428.066 234.498 426.594 235.454C425.122 236.338 423.429 237.037 421.515 237.552C419.675 238.067 417.578 238.325 415.223 238.325ZM418.203 227.837C420.338 227.837 422.215 227.469 423.834 226.733C425.527 225.923 426.962 224.819 428.139 223.421C429.391 221.949 430.347 220.33 431.01 218.563C431.672 216.797 432.114 214.92 432.335 212.933V212.712H420.08C417.504 212.712 415.37 213.043 413.677 213.706C411.984 214.294 410.77 215.178 410.034 216.355C409.298 217.533 408.93 218.894 408.93 220.44C408.93 221.986 409.298 223.31 410.034 224.414C410.77 225.518 411.837 226.365 413.235 226.954C414.634 227.542 416.29 227.837 418.203 227.837ZM492.637 237L468.018 206.53L490.098 181.358H505.885L478.396 211.939V201.672L509.197 237H492.637ZM456.757 237V157.512H470.005V237H456.757ZM536.425 238.325C530.905 238.325 526.047 237.147 521.852 234.792C517.657 232.363 514.381 228.978 512.026 224.635C509.671 220.293 508.493 215.288 508.493 209.621C508.493 203.733 509.634 198.581 511.916 194.165C514.271 189.749 517.546 186.29 521.741 183.787C526.01 181.285 530.941 180.034 536.535 180.034C541.981 180.034 546.729 181.248 550.777 183.677C554.825 186.106 557.953 189.381 560.161 193.502C562.369 197.55 563.473 202.114 563.473 207.192C563.473 207.928 563.473 208.738 563.473 209.621C563.473 210.504 563.399 211.424 563.252 212.381H517.988V203.88H550.114C549.967 199.832 548.605 196.667 546.029 194.386C543.453 192.03 540.252 190.853 536.425 190.853C533.701 190.853 531.199 191.478 528.917 192.73C526.636 193.981 524.833 195.858 523.508 198.36C522.183 200.789 521.521 203.88 521.521 207.634V210.835C521.521 214.294 522.146 217.275 523.397 219.778C524.722 222.28 526.489 224.194 528.697 225.518C530.978 226.77 533.517 227.395 536.314 227.395C539.405 227.395 541.945 226.733 543.932 225.408C545.993 224.083 547.501 222.317 548.458 220.109H561.927C560.897 223.568 559.204 226.696 556.849 229.493C554.493 232.216 551.586 234.387 548.127 236.006C544.668 237.552 540.767 238.325 536.425 238.325ZM575.153 237V175.286C575.153 171.018 575.852 167.595 577.25 165.019C578.722 162.37 580.82 160.456 583.543 159.278C586.266 158.101 589.505 157.512 593.258 157.512H599.882V168.773H595.245C592.817 168.773 591.05 169.288 589.946 170.318C588.916 171.275 588.401 172.968 588.401 175.397V237H575.153ZM567.204 192.509V181.358H600.986V192.509H567.204ZM612.357 237V157.512H625.605V237H612.357ZM663.054 238.325C657.755 238.325 652.971 237.11 648.702 234.682C644.507 232.179 641.195 228.757 638.766 224.414C636.411 219.998 635.233 214.957 635.233 209.29C635.233 203.475 636.448 198.397 638.877 194.054C641.305 189.638 644.617 186.216 648.813 183.787C653.081 181.285 657.865 180.034 663.165 180.034C668.464 180.034 673.211 181.285 677.406 183.787C681.675 186.216 684.987 189.602 687.342 193.944C689.771 198.286 690.985 203.365 690.985 209.179C690.985 214.994 689.771 220.072 687.342 224.414C684.913 228.757 681.565 232.179 677.296 234.682C673.101 237.11 668.353 238.325 663.054 238.325ZM663.054 226.954C665.704 226.954 668.096 226.291 670.23 224.966C672.438 223.642 674.205 221.654 675.529 219.005C676.854 216.355 677.517 213.08 677.517 209.179C677.517 205.278 676.854 202.04 675.529 199.464C674.278 196.814 672.549 194.827 670.341 193.502C668.206 192.178 665.814 191.515 663.165 191.515C660.589 191.515 658.197 192.178 655.989 193.502C653.781 194.827 652.014 196.814 650.689 199.464C649.365 202.04 648.702 205.278 648.702 209.179C648.702 213.08 649.365 216.355 650.689 219.005C652.014 221.654 653.744 223.642 655.878 224.966C658.086 226.291 660.478 226.954 663.054 226.954ZM709.741 237L693.402 181.358H706.54L717.911 227.064L715.482 226.954L728.178 181.358H742.972L755.778 226.954H753.349L764.721 181.358H777.858L761.519 237H747.829L734.25 189.859H737.01L723.431 237H709.741ZM842.428 238.325C834.774 238.325 828.15 236.669 822.556 233.357C817.036 229.971 812.768 225.298 809.75 219.336C806.806 213.301 805.334 206.346 805.334 198.47C805.334 190.522 806.806 183.566 809.75 177.605C812.768 171.57 817.036 166.859 822.556 163.474C828.15 160.088 834.774 158.395 842.428 158.395C851.628 158.395 859.136 160.677 864.95 165.24C870.764 169.73 874.444 176.096 875.99 184.339H861.417C860.387 179.997 858.289 176.574 855.124 174.072C851.96 171.57 847.691 170.318 842.318 170.318C837.46 170.318 833.265 171.459 829.732 173.741C826.273 175.949 823.587 179.187 821.673 183.456C819.833 187.651 818.913 192.656 818.913 198.47C818.913 204.285 819.833 209.29 821.673 213.485C823.587 217.606 826.273 220.808 829.732 223.09C833.265 225.298 837.46 226.402 842.318 226.402C847.691 226.402 851.96 225.261 855.124 222.979C858.289 220.624 860.387 217.386 861.417 213.264H875.99C874.518 221.066 870.838 227.211 864.95 231.701C859.136 236.117 851.628 238.325 842.428 238.325ZM911.144 238.325C905.845 238.325 901.061 237.11 896.792 234.682C892.597 232.179 889.285 228.757 886.856 224.414C884.501 219.998 883.323 214.957 883.323 209.29C883.323 203.475 884.537 198.397 886.966 194.054C889.395 189.638 892.707 186.216 896.902 183.787C901.171 181.285 905.955 180.034 911.254 180.034C916.553 180.034 921.301 181.285 925.496 183.787C929.765 186.216 933.077 189.602 935.432 193.944C937.861 198.286 939.075 203.365 939.075 209.179C939.075 214.994 937.861 220.072 935.432 224.414C933.003 228.757 929.654 232.179 925.385 234.682C921.19 237.11 916.443 238.325 911.144 238.325ZM911.144 226.954C913.793 226.954 916.185 226.291 918.32 224.966C920.528 223.642 922.294 221.654 923.619 219.005C924.944 216.355 925.606 213.08 925.606 209.179C925.606 205.278 924.944 202.04 923.619 199.464C922.368 196.814 920.638 194.827 918.43 193.502C916.296 192.178 913.904 191.515 911.254 191.515C908.678 191.515 906.286 192.178 904.078 193.502C901.87 194.827 900.104 196.814 898.779 199.464C897.454 202.04 896.792 205.278 896.792 209.179C896.792 213.08 897.454 216.355 898.779 219.005C900.104 221.654 901.833 223.642 903.968 224.966C906.176 226.291 908.568 226.954 911.144 226.954ZM948.732 237V181.358H960.434L961.428 190.632C963.12 187.394 965.549 184.818 968.714 182.904C971.879 180.99 975.632 180.034 979.975 180.034C984.464 180.034 988.292 180.99 991.456 182.904C994.621 184.744 997.05 187.467 998.743 191.074C1000.51 194.68 1001.39 199.17 1001.39 204.542V237H988.144V205.757C988.144 201.12 987.114 197.55 985.053 195.048C982.992 192.546 979.938 191.294 975.89 191.294C973.24 191.294 970.848 191.92 968.714 193.171C966.653 194.422 964.997 196.262 963.746 198.691C962.568 201.046 961.98 203.917 961.98 207.302V237H948.732ZM1012.05 237V181.358H1023.75L1024.74 190.632C1026.44 187.394 1028.87 184.818 1032.03 182.904C1035.19 180.99 1038.95 180.034 1043.29 180.034C1047.78 180.034 1051.61 180.99 1054.77 182.904C1057.94 184.744 1060.37 187.467 1062.06 191.074C1063.83 194.68 1064.71 199.17 1064.71 204.542V237H1051.46V205.757C1051.46 201.12 1050.43 197.55 1048.37 195.048C1046.31 192.546 1043.25 191.294 1039.21 191.294C1036.56 191.294 1034.16 191.92 1032.03 193.171C1029.97 194.422 1028.31 196.262 1027.06 198.691C1025.88 201.046 1025.3 203.917 1025.3 207.302V237H1012.05ZM1101.42 238.325C1095.9 238.325 1091.04 237.147 1086.85 234.792C1082.65 232.363 1079.37 228.978 1077.02 224.635C1074.66 220.293 1073.49 215.288 1073.49 209.621C1073.49 203.733 1074.63 198.581 1076.91 194.165C1079.26 189.749 1082.54 186.29 1086.73 183.787C1091 181.285 1095.93 180.034 1101.53 180.034C1106.97 180.034 1111.72 181.248 1115.77 183.677C1119.82 186.106 1122.95 189.381 1125.15 193.502C1127.36 197.55 1128.47 202.114 1128.47 207.192C1128.47 207.928 1128.47 208.738 1128.47 209.621C1128.47 210.504 1128.39 211.424 1128.25 212.381H1082.98V203.88H1115.11C1114.96 199.832 1113.6 196.667 1111.02 194.386C1108.45 192.03 1105.25 190.853 1101.42 190.853C1098.69 190.853 1096.19 191.478 1093.91 192.73C1091.63 193.981 1089.83 195.858 1088.5 198.36C1087.18 200.789 1086.51 203.88 1086.51 207.634V210.835C1086.51 214.294 1087.14 217.275 1088.39 219.778C1089.72 222.28 1091.48 224.194 1093.69 225.518C1095.97 226.77 1098.51 227.395 1101.31 227.395C1104.4 227.395 1106.94 226.733 1108.93 225.408C1110.99 224.083 1112.49 222.317 1113.45 220.109H1126.92C1125.89 223.568 1124.2 226.696 1121.84 229.493C1119.49 232.216 1116.58 234.387 1113.12 236.006C1109.66 237.552 1105.76 238.325 1101.42 238.325ZM1163.77 238.325C1158.33 238.325 1153.43 237.11 1149.09 234.682C1144.82 232.179 1141.47 228.757 1139.04 224.414C1136.69 219.998 1135.51 214.994 1135.51 209.4C1135.51 203.586 1136.69 198.507 1139.04 194.165C1141.47 189.749 1144.82 186.29 1149.09 183.787C1153.43 181.285 1158.36 180.034 1163.88 180.034C1170.8 180.034 1176.61 181.874 1181.33 185.554C1186.04 189.16 1189.05 194.128 1190.38 200.458H1176.47C1175.73 197.661 1174.19 195.453 1171.83 193.834C1169.55 192.214 1166.83 191.405 1163.66 191.405C1160.94 191.405 1158.44 192.104 1156.15 193.502C1153.95 194.901 1152.18 196.925 1150.85 199.574C1149.6 202.224 1148.98 205.426 1148.98 209.179C1148.98 212.05 1149.35 214.589 1150.08 216.797C1150.82 219.005 1151.85 220.882 1153.17 222.427C1154.57 223.899 1156.15 225.04 1157.92 225.85C1159.69 226.659 1161.6 227.064 1163.66 227.064C1165.8 227.064 1167.71 226.733 1169.4 226.07C1171.17 225.334 1172.64 224.267 1173.82 222.869C1175.07 221.47 1175.95 219.814 1176.47 217.901H1190.38C1189.05 224.083 1186.04 229.051 1181.33 232.805C1176.61 236.485 1170.76 238.325 1163.77 238.325ZM1223.15 237C1219.4 237 1216.13 236.411 1213.33 235.234C1210.61 234.056 1208.47 232.106 1206.93 229.382C1205.38 226.659 1204.61 222.979 1204.61 218.342V192.509H1195.11V181.358H1204.61L1206.15 166.675H1217.86V181.358H1232.98V192.509H1217.86V218.342C1217.86 221.139 1218.44 223.09 1219.62 224.194C1220.87 225.224 1222.93 225.739 1225.8 225.739H1232.65V237H1223.15Z" fill="#1B3139"/>
</svg>
