<svg width="680" height="200" viewBox="0 0 680 200" fill="none" xmlns="http://www.w3.org/2000/svg">
<path d="M108.92 130.297H174.999V175H98.7504L71.9156 130.297H25V85.5945L82.0839 85.5957L108.92 130.297Z" fill="#C4CCD6"/>
<path d="M128.084 69.7024L174.999 69.7028V114.406L117.915 114.405L91.0796 69.7041L25 69.7028V25L101.249 25.0012L128.084 69.7024Z" fill="#618794"/>
<path d="M239.838 137.5V60.22H253.086V127.122H287.531V137.5H239.838ZM315.223 138.825C310.659 138.825 306.869 138.052 303.851 136.506C300.834 134.961 298.589 132.9 297.117 130.324C295.645 127.748 294.909 124.951 294.909 121.934C294.909 118.401 295.792 115.346 297.559 112.77C299.399 110.194 302.085 108.207 305.618 106.809C309.151 105.337 313.493 104.601 318.645 104.601H332.666C332.666 101.657 332.261 99.228 331.451 97.3144C330.642 95.3272 329.391 93.8552 327.698 92.8984C326.005 91.9416 323.834 91.4632 321.184 91.4632C318.167 91.4632 315.591 92.1624 313.456 93.5608C311.322 94.8856 309.997 96.9464 309.482 99.7432H296.455C296.896 95.7688 298.221 92.3832 300.429 89.5864C302.637 86.716 305.544 84.508 309.151 82.9624C312.831 81.3432 316.842 80.5336 321.184 80.5336C326.41 80.5336 330.863 81.4536 334.543 83.2936C338.223 85.06 341.019 87.636 342.933 91.0216C344.92 94.3336 345.914 98.3448 345.914 103.055V137.5H334.653L333.328 128.558C332.592 130.03 331.635 131.391 330.458 132.642C329.354 133.894 328.066 134.998 326.594 135.954C325.122 136.838 323.429 137.537 321.515 138.052C319.675 138.567 317.578 138.825 315.223 138.825ZM318.203 128.337C320.338 128.337 322.215 127.969 323.834 127.233C325.527 126.423 326.962 125.319 328.139 123.921C329.391 122.449 330.347 120.83 331.01 119.063C331.672 117.297 332.114 115.42 332.335 113.433V113.212H320.08C317.504 113.212 315.37 113.543 313.677 114.206C311.984 114.794 310.77 115.678 310.034 116.855C309.298 118.033 308.93 119.394 308.93 120.94C308.93 122.486 309.298 123.81 310.034 124.914C310.77 126.018 311.837 126.865 313.235 127.454C314.634 128.042 316.29 128.337 318.203 128.337ZM392.637 137.5L368.018 107.03L390.098 81.8584H405.885L378.396 112.439V102.172L409.197 137.5H392.637ZM356.757 137.5V58.012H370.005V137.5H356.757ZM436.425 138.825C430.905 138.825 426.047 137.647 421.852 135.292C417.657 132.863 414.381 129.478 412.026 125.135C409.671 120.793 408.493 115.788 408.493 110.121C408.493 104.233 409.634 99.0808 411.916 94.6648C414.271 90.2488 417.546 86.7896 421.741 84.2872C426.01 81.7848 430.941 80.5336 436.535 80.5336C441.981 80.5336 446.729 81.748 450.777 84.1768C454.825 86.6056 457.953 89.8808 460.161 94.0024C462.369 98.0504 463.473 102.614 463.473 107.692C463.473 108.428 463.473 109.238 463.473 110.121C463.473 111.004 463.399 111.924 463.252 112.881H417.988V104.38H450.114C449.967 100.332 448.605 97.1672 446.029 94.8856C443.453 92.5304 440.252 91.3528 436.425 91.3528C433.701 91.3528 431.199 91.9784 428.917 93.2296C426.636 94.4808 424.833 96.3576 423.508 98.86C422.183 101.289 421.521 104.38 421.521 108.134V111.335C421.521 114.794 422.146 117.775 423.397 120.278C424.722 122.78 426.489 124.694 428.697 126.018C430.978 127.27 433.517 127.895 436.314 127.895C439.405 127.895 441.945 127.233 443.932 125.908C445.993 124.583 447.501 122.817 448.458 120.609H461.927C460.897 124.068 459.204 127.196 456.849 129.993C454.493 132.716 451.586 134.887 448.127 136.506C444.668 138.052 440.767 138.825 436.425 138.825ZM475.153 137.5V75.7864C475.153 71.5176 475.852 68.0952 477.25 65.5192C478.722 62.8696 480.82 60.956 483.543 59.7784C486.266 58.6008 489.505 58.012 493.258 58.012H499.882V69.2728H495.245C492.817 69.2728 491.05 69.788 489.946 70.8184C488.916 71.7752 488.401 73.468 488.401 75.8968V137.5H475.153ZM467.204 93.0088V81.8584H500.986V93.0088H467.204ZM512.357 137.5V58.012H525.605V137.5H512.357ZM563.054 138.825C557.755 138.825 552.971 137.61 548.702 135.182C544.507 132.679 541.195 129.257 538.766 124.914C536.411 120.498 535.233 115.457 535.233 109.79C535.233 103.975 536.448 98.8968 538.877 94.5544C541.305 90.1384 544.617 86.716 548.813 84.2872C553.081 81.7848 557.865 80.5336 563.165 80.5336C568.464 80.5336 573.211 81.7848 577.406 84.2872C581.675 86.716 584.987 90.1016 587.342 94.444C589.771 98.7864 590.985 103.865 590.985 109.679C590.985 115.494 589.771 120.572 587.342 124.914C584.913 129.257 581.565 132.679 577.296 135.182C573.101 137.61 568.353 138.825 563.054 138.825ZM563.054 127.454C565.704 127.454 568.096 126.791 570.23 125.466C572.438 124.142 574.205 122.154 575.529 119.505C576.854 116.855 577.517 113.58 577.517 109.679C577.517 105.778 576.854 102.54 575.529 99.964C574.278 97.3144 572.549 95.3272 570.341 94.0024C568.206 92.6776 565.814 92.0152 563.165 92.0152C560.589 92.0152 558.197 92.6776 555.989 94.0024C553.781 95.3272 552.014 97.3144 550.689 99.964C549.365 102.54 548.702 105.778 548.702 109.679C548.702 113.58 549.365 116.855 550.689 119.505C552.014 122.154 553.744 124.142 555.878 125.466C558.086 126.791 560.478 127.454 563.054 127.454ZM609.741 137.5L593.402 81.8584H606.54L617.911 127.564L615.482 127.454L628.178 81.8584H642.972L655.778 127.454H653.349L664.721 81.8584H677.858L661.519 137.5H647.829L634.25 90.3592H637.01L623.431 137.5H609.741Z" fill="#1B3139"/>
</svg>
