<svg width="150" height="150" viewBox="0 0 150 150" fill="none" xmlns="http://www.w3.org/2000/svg">
<g clip-path="url(#clip0_214_409)">
<path fill-rule="evenodd" clip-rule="evenodd" d="M65.2456 28.6017H84.6548L87.4454 39.1438C88.7756 39.6159 90.0669 40.1523 91.3545 40.7924L100.744 35.324L114.478 49.0581L109.009 58.4474C109.65 59.7357 110.187 61.0278 110.659 62.3588L121.1 65.15V84.5534L110.661 87.3441C110.197 88.6676 109.663 90.0064 109.018 91.2706L114.478 100.645L100.744 114.379L90.6453 108.498L92.1551 105.905L100.257 110.624L110.722 100.158L105.572 91.3147L105.993 90.5663C106.825 89.0866 107.49 87.3891 108.077 85.6273L108.333 84.8611L118.1 82.25V67.4534L108.333 64.8422L108.077 64.076C107.499 62.3416 106.83 60.7195 105.975 59.1035L105.585 58.3669L110.722 49.5453L100.257 39.0794L91.4349 44.2173L90.6984 43.8274C89.0824 42.9718 87.4602 42.3028 85.7259 41.7247L84.9574 41.4686L82.3456 31.6017H67.5548L64.943 41.4686L64.1745 41.7247C62.4402 42.3028 60.818 42.9718 59.202 43.8274L58.4655 44.2173L49.6438 39.0794L39.1779 49.5453L44.3158 58.3669L43.9259 59.1035C43.0704 60.7195 42.4013 62.3416 41.8232 64.076L41.5671 64.8445L31.7002 67.4563V82.2471L41.5671 84.8589L41.8232 85.6273C42.4013 87.3617 43.0704 88.9839 43.9259 90.5999L44.3158 91.3364L39.1779 100.158L49.6438 110.624L57.7453 105.906L59.2551 108.498L49.1566 114.379L35.4225 100.645L40.8909 91.256C40.2508 89.9684 39.7144 88.6771 39.2423 87.3468L28.7002 84.5563V65.1471L39.2423 62.3565C39.7144 61.0263 40.2508 59.735 40.8909 58.4474L35.4225 49.0581L49.1566 35.324L58.5459 40.7924C59.8335 40.1523 61.1248 39.6159 62.455 39.1438L65.2456 28.6017Z" fill="#FF5F46"/>
<path fill-rule="evenodd" clip-rule="evenodd" d="M70.3003 54.0031V70.4016C70.3003 73.0653 72.5111 75.2775 75.2568 75.2023C77.7667 75.1281 79.9003 72.8715 79.9003 70.1016V54.0031L81.8859 54.6824C90.0789 57.4852 96.0003 65.3459 96.0003 74.5016C96.0003 80.7517 93.3009 86.2491 89.0038 90.1166L88.9969 90.1228C86.5843 92.2673 85.1003 95.2722 85.1003 98.5016V132.102H82.1003V98.5016C82.1003 94.3327 84.0149 90.5389 87.0003 87.8836C90.7012 84.5512 93.0003 79.8499 93.0003 74.5016C93.0003 67.4198 88.861 61.2385 82.9003 58.3399V70.1016C82.9003 74.3316 79.6342 78.0748 75.3444 78.201L75.342 78.201C70.8886 78.3247 67.3003 74.7374 67.3003 70.4016V58.3399C61.3396 61.2385 57.2003 67.4198 57.2003 74.5016C57.2003 79.7557 59.5041 84.557 63.2038 87.8867L63.2116 87.8938L63.2194 87.901C66.1767 90.6392 68.1003 94.421 68.1003 98.5016V132.202H65.1003V98.5016C65.1003 95.3854 63.6269 92.3702 61.1887 90.1092C56.8931 86.2391 54.2003 80.6436 54.2003 74.5016C54.2003 65.3459 60.1218 57.4852 68.3148 54.6824L70.3003 54.0031Z" fill="#FF5F46"/>
<path fill-rule="evenodd" clip-rule="evenodd" d="M75.0001 19.4011C44.3286 19.4011 19.4001 44.3296 19.4001 75.0011C19.4001 100.121 36.049 121.351 58.934 128.265L58.0663 131.137C33.9513 123.851 16.4001 101.481 16.4001 75.0011C16.4001 42.6727 42.6717 16.4011 75.0001 16.4011C107.43 16.4011 133.6 42.6744 133.6 75.0011C133.6 101.478 116.051 123.954 91.8267 131.139L90.9736 128.263C113.949 121.448 130.6 100.124 130.6 75.0011C130.6 44.3278 105.77 19.4011 75.0001 19.4011Z" fill="#FF5F46"/>
</g>
<defs>
<clipPath id="clip0_214_409">
<rect width="150" height="150" fill="white"/>
</clipPath>
</defs>
</svg>
