<svg width="150" height="150" viewBox="0 0 150 150" fill="none" xmlns="http://www.w3.org/2000/svg">
<g clip-path="url(#clip0_1_2008)">
<path fill-rule="evenodd" clip-rule="evenodd" d="M65.2455 28.6016H84.6547L87.4453 39.1436C88.7755 39.6157 90.0668 40.1522 91.3545 40.7923L100.744 35.3238L114.478 49.058L109.009 58.4472C109.65 59.7356 110.187 61.0276 110.659 62.3586L121.1 65.1499V84.5532L110.661 87.344C110.197 88.6675 109.663 90.0063 109.018 91.2705L114.478 100.645L100.744 114.379L90.6452 108.498L92.1551 105.905L100.257 110.624L110.722 100.158L105.572 91.3145L105.993 90.5662C106.825 89.0865 107.49 87.3889 108.077 85.6272L108.333 84.861L118.1 82.2499V67.4532L108.333 64.8421L108.077 64.0759C107.499 62.3415 106.83 60.7194 105.974 59.1034L105.585 58.3668L110.722 49.5452L100.257 39.0793L91.4349 44.2172L90.6983 43.8272C89.0823 42.9717 87.4602 42.3027 85.7258 41.7246L84.9574 41.4684L82.3455 31.6016H67.5547L64.9429 41.4684L64.1745 41.7246C62.4401 42.3027 60.818 42.9717 59.202 43.8272L58.4654 44.2172L49.6437 39.0793L39.1779 49.5451L44.3158 58.3668L43.9258 59.1034C43.0703 60.7194 42.4013 62.3415 41.8232 64.0759L41.567 64.8443L31.7001 67.4562V82.247L41.567 84.8588L41.8232 85.6272C42.4013 87.3616 43.0703 88.9838 43.9258 90.5997L44.3158 91.3363L39.1779 100.158L49.6437 110.624L57.7452 105.905L59.2551 108.498L49.1566 114.379L35.4224 100.645L40.8909 91.2559C40.2508 89.9682 39.7143 88.6769 39.2422 87.3467L28.7001 84.5562V65.147L39.2422 62.3564C39.7143 61.0262 40.2508 59.7349 40.8909 58.4472L35.4224 49.058L49.1565 35.3238L58.5458 40.7923C59.8335 40.1522 61.1248 39.6157 62.455 39.1436L65.2455 28.6016Z" fill="#1B3139"/>
<path fill-rule="evenodd" clip-rule="evenodd" d="M70.3002 54.0029V70.4014C70.3002 73.0651 72.511 75.2773 75.2567 75.2021C77.7667 75.1279 79.9003 72.8713 79.9003 70.1014V54.0029L81.8858 54.6822C90.0788 57.4851 96.0003 65.3457 96.0003 74.5014C96.0003 80.7515 93.3009 86.2489 89.0037 90.1164L88.9968 90.1226C86.5842 92.2671 85.1002 95.272 85.1002 98.5014V132.101H82.1002V98.5014C82.1002 94.3325 84.0149 90.5387 87.0003 87.8834C90.7011 84.551 93.0003 79.8498 93.0003 74.5014C93.0003 67.4196 88.8609 61.2383 82.9003 58.3397V70.1014C82.9003 74.3314 79.6342 78.0746 75.3443 78.2008L75.3419 78.2009C70.8885 78.3246 67.3002 74.7372 67.3002 70.4014V58.3397C61.3396 61.2383 57.2002 67.4196 57.2002 74.5014C57.2002 79.7555 59.5041 84.5568 63.2037 87.8865L63.2116 87.8936L63.2194 87.9008C66.1766 90.639 68.1002 94.4208 68.1002 98.5014V132.201H65.1002V98.5014C65.1002 95.3853 63.6269 92.37 61.1886 90.109C56.893 86.2389 54.2002 80.6434 54.2002 74.5014C54.2002 65.3457 60.1217 57.4851 68.3147 54.6822L70.3002 54.0029Z" fill="#1B3139"/>
<path fill-rule="evenodd" clip-rule="evenodd" d="M75.0001 19.4009C44.3285 19.4009 19.4001 44.3293 19.4001 75.0009C19.4001 100.121 36.049 121.351 58.9339 128.265L58.0663 131.137C33.9512 123.851 16.4001 101.481 16.4001 75.0009C16.4001 42.6725 42.6717 16.4009 75.0001 16.4009C107.43 16.4009 133.6 42.6742 133.6 75.0009C133.6 101.478 116.051 123.954 91.8266 131.139L90.9735 128.263C113.949 121.448 130.6 100.124 130.6 75.0009C130.6 44.3276 105.77 19.4009 75.0001 19.4009Z" fill="#1B3139"/>
</g>
<defs>
<clipPath id="clip0_1_2008">
<rect width="150" height="150" fill="white"/>
</clipPath>
</defs>
</svg>
