<svg width="922" height="558" viewBox="0 0 922 558" fill="none" xmlns="http://www.w3.org/2000/svg">
<g filter="url(#filter0_dddddd_1101_10118)">
<path d="M148 116.336C148 77.4903 179.49 46 218.336 46H339.664C378.51 46 410 77.4903 410 116.336V237.664C410 276.51 378.51 308 339.664 308H218.336C179.49 308 148 276.51 148 237.664V116.336Z" fill="white"/>
</g>
<path d="M287.029 204.267H346.501V244.5H277.877L253.725 204.267H211.501V164.035L262.877 164.036L287.029 204.267Z" fill="#FF5F46"/>
<path d="M304.277 149.732L346.501 149.733V189.965L295.125 189.965L270.973 149.734L211.501 149.733V109.5L280.125 109.501L304.277 149.732Z" fill="#FABFBA"/>
<path d="M481.838 214.5V137.22H495.086V204.122H529.531V214.5H481.838ZM557.223 215.825C552.659 215.825 548.869 215.052 545.851 213.506C542.834 211.961 540.589 209.9 539.117 207.324C537.645 204.748 536.909 201.951 536.909 198.934C536.909 195.401 537.792 192.346 539.559 189.77C541.399 187.194 544.085 185.207 547.618 183.809C551.151 182.337 555.493 181.601 560.645 181.601H574.666C574.666 178.657 574.261 176.228 573.451 174.314C572.642 172.327 571.391 170.855 569.698 169.898C568.005 168.942 565.834 168.463 563.184 168.463C560.167 168.463 557.591 169.162 555.456 170.561C553.322 171.886 551.997 173.946 551.482 176.743H538.455C538.896 172.769 540.221 169.383 542.429 166.586C544.637 163.716 547.544 161.508 551.151 159.962C554.831 158.343 558.842 157.534 563.184 157.534C568.41 157.534 572.863 158.454 576.543 160.294C580.223 162.06 583.019 164.636 584.933 168.022C586.92 171.334 587.914 175.345 587.914 180.055V214.5H576.653L575.328 205.558C574.592 207.03 573.635 208.391 572.458 209.642C571.354 210.894 570.066 211.998 568.594 212.954C567.122 213.838 565.429 214.537 563.515 215.052C561.675 215.567 559.578 215.825 557.223 215.825ZM560.203 205.337C562.338 205.337 564.215 204.969 565.834 204.233C567.527 203.423 568.962 202.319 570.139 200.921C571.391 199.449 572.347 197.83 573.01 196.063C573.672 194.297 574.114 192.42 574.335 190.433V190.212H562.08C559.504 190.212 557.37 190.543 555.677 191.206C553.984 191.794 552.77 192.678 552.034 193.855C551.298 195.033 550.93 196.394 550.93 197.94C550.93 199.486 551.298 200.81 552.034 201.914C552.77 203.018 553.837 203.865 555.235 204.454C556.634 205.042 558.29 205.337 560.203 205.337ZM634.637 214.5L610.018 184.03L632.098 158.858H647.885L620.396 189.439V179.172L651.197 214.5H634.637ZM598.757 214.5V135.012H612.005V214.5H598.757ZM678.425 215.825C672.905 215.825 668.047 214.647 663.852 212.292C659.657 209.863 656.381 206.478 654.026 202.135C651.671 197.793 650.493 192.788 650.493 187.121C650.493 181.233 651.634 176.081 653.916 171.665C656.271 167.249 659.546 163.79 663.741 161.287C668.01 158.785 672.941 157.534 678.535 157.534C683.981 157.534 688.729 158.748 692.777 161.177C696.825 163.606 699.953 166.881 702.161 171.002C704.369 175.05 705.473 179.614 705.473 184.692C705.473 185.428 705.473 186.238 705.473 187.121C705.473 188.004 705.399 188.924 705.252 189.881H659.988V181.38H692.114C691.967 177.332 690.605 174.167 688.029 171.886C685.453 169.53 682.252 168.353 678.425 168.353C675.701 168.353 673.199 168.978 670.917 170.23C668.636 171.481 666.833 173.358 665.508 175.86C664.183 178.289 663.521 181.38 663.521 185.134V188.335C663.521 191.794 664.146 194.775 665.397 197.278C666.722 199.78 668.489 201.694 670.697 203.018C672.978 204.27 675.517 204.895 678.314 204.895C681.405 204.895 683.945 204.233 685.932 202.908C687.993 201.583 689.501 199.817 690.458 197.609H703.927C702.897 201.068 701.204 204.196 698.849 206.993C696.493 209.716 693.586 211.887 690.127 213.506C686.668 215.052 682.767 215.825 678.425 215.825ZM717.153 214.5V152.786C717.153 148.518 717.852 145.095 719.25 142.519C720.722 139.87 722.82 137.956 725.543 136.778C728.266 135.601 731.505 135.012 735.258 135.012H741.882V146.273H737.245C734.817 146.273 733.05 146.788 731.946 147.818C730.916 148.775 730.401 150.468 730.401 152.897V214.5H717.153ZM709.204 170.009V158.858H742.986V170.009H709.204ZM754.357 214.5V135.012H767.605V214.5H754.357ZM805.054 215.825C799.755 215.825 794.971 214.61 790.702 212.182C786.507 209.679 783.195 206.257 780.766 201.914C778.411 197.498 777.233 192.457 777.233 186.79C777.233 180.975 778.448 175.897 780.877 171.554C783.305 167.138 786.617 163.716 790.813 161.287C795.081 158.785 799.865 157.534 805.165 157.534C810.464 157.534 815.211 158.785 819.406 161.287C823.675 163.716 826.987 167.102 829.342 171.444C831.771 175.786 832.985 180.865 832.985 186.679C832.985 192.494 831.771 197.572 829.342 201.914C826.913 206.257 823.565 209.679 819.296 212.182C815.101 214.61 810.353 215.825 805.054 215.825ZM805.054 204.454C807.704 204.454 810.096 203.791 812.23 202.466C814.438 201.142 816.205 199.154 817.529 196.505C818.854 193.855 819.517 190.58 819.517 186.679C819.517 182.778 818.854 179.54 817.529 176.964C816.278 174.314 814.549 172.327 812.341 171.002C810.206 169.678 807.814 169.015 805.165 169.015C802.589 169.015 800.197 169.678 797.989 171.002C795.781 172.327 794.014 174.314 792.689 176.964C791.365 179.54 790.702 182.778 790.702 186.679C790.702 190.58 791.365 193.855 792.689 196.505C794.014 199.154 795.744 201.142 797.878 202.466C800.086 203.791 802.478 204.454 805.054 204.454ZM851.741 214.5L835.402 158.858H848.54L859.911 204.564L857.482 204.454L870.178 158.858H884.972L897.778 204.454H895.349L906.721 158.858H919.858L903.519 214.5H889.829L876.25 167.359H879.01L865.431 214.5H851.741Z" fill="white"/>
<defs>
<filter id="filter0_dddddd_1101_10118" x="0.713516" y="0.681084" width="556.573" height="556.573" filterUnits="userSpaceOnUse" color-interpolation-filters="sRGB">
<feFlood flood-opacity="0" result="BackgroundImageFix"/>
<feColorMatrix in="SourceAlpha" type="matrix" values="0 0 0 0 0 0 0 0 0 0 0 0 0 0 0 0 0 0 127 0" result="hardAlpha"/>
<feOffset dy="2.83243"/>
<feGaussianBlur stdDeviation="2.12432"/>
<feColorMatrix type="matrix" values="0 0 0 0 0.105882 0 0 0 0 0.192157 0 0 0 0 0.223529 0 0 0 0.0196802 0"/>
<feBlend mode="normal" in2="BackgroundImageFix" result="effect1_dropShadow_1101_10118"/>
<feColorMatrix in="SourceAlpha" type="matrix" values="0 0 0 0 0 0 0 0 0 0 0 0 0 0 0 0 0 0 127 0" result="hardAlpha"/>
<feOffset dy="5.66487"/>
<feGaussianBlur stdDeviation="5.66487"/>
<feColorMatrix type="matrix" values="0 0 0 0 0.105882 0 0 0 0 0.192157 0 0 0 0 0.223529 0 0 0 0.04 0"/>
<feBlend mode="normal" in2="effect1_dropShadow_1101_10118" result="effect2_dropShadow_1101_10118"/>
<feColorMatrix in="SourceAlpha" type="matrix" values="0 0 0 0 0 0 0 0 0 0 0 0 0 0 0 0 0 0 127 0" result="hardAlpha"/>
<feOffset dy="12.7459"/>
<feGaussianBlur stdDeviation="9.20541"/>
<feColorMatrix type="matrix" values="0 0 0 0 0.105882 0 0 0 0 0.192157 0 0 0 0 0.223529 0 0 0 0.035 0"/>
<feBlend mode="normal" in2="effect2_dropShadow_1101_10118" result="effect3_dropShadow_1101_10118"/>
<feColorMatrix in="SourceAlpha" type="matrix" values="0 0 0 0 0 0 0 0 0 0 0 0 0 0 0 0 0 0 127 0" result="hardAlpha"/>
<feOffset dy="22.6595"/>
<feGaussianBlur stdDeviation="16.9946"/>
<feColorMatrix type="matrix" values="0 0 0 0 0.105882 0 0 0 0 0.192157 0 0 0 0 0.223529 0 0 0 0.04 0"/>
<feBlend mode="normal" in2="effect3_dropShadow_1101_10118" result="effect4_dropShadow_1101_10118"/>
<feColorMatrix in="SourceAlpha" type="matrix" values="0 0 0 0 0 0 0 0 0 0 0 0 0 0 0 0 0 0 127 0" result="hardAlpha"/>
<feOffset dy="45.3189"/>
<feGaussianBlur stdDeviation="28.3243"/>
<feColorMatrix type="matrix" values="0 0 0 0 0.105882 0 0 0 0 0.192157 0 0 0 0 0.223529 0 0 0 0.0503198 0"/>
<feBlend mode="normal" in2="effect4_dropShadow_1101_10118" result="effect5_dropShadow_1101_10118"/>
<feColorMatrix in="SourceAlpha" type="matrix" values="0 0 0 0 0 0 0 0 0 0 0 0 0 0 0 0 0 0 127 0" result="hardAlpha"/>
<feOffset dy="101.968"/>
<feGaussianBlur stdDeviation="73.6432"/>
<feColorMatrix type="matrix" values="0 0 0 0 0.105882 0 0 0 0 0.192157 0 0 0 0 0.223529 0 0 0 0.07 0"/>
<feBlend mode="normal" in2="effect5_dropShadow_1101_10118" result="effect6_dropShadow_1101_10118"/>
<feBlend mode="normal" in="SourceGraphic" in2="effect6_dropShadow_1101_10118" result="shape"/>
</filter>
</defs>
</svg>
