<svg width="150" height="150" viewBox="0 0 150 150" fill="none" xmlns="http://www.w3.org/2000/svg">
<g clip-path="url(#clip0_1_2000)">
<path d="M102 65.6699C101.762 65.1794 101.665 64.6323 101.72 64.0899L103.3 44.9099C103.391 43.8476 103.24 42.7786 102.859 41.7829C102.478 40.7871 101.877 39.8904 101.1 39.1599C100.33 38.4226 99.402 37.8708 98.3864 37.5467C97.3709 37.2227 96.2947 37.1348 95.24 37.2899C93.5904 37.5136 91.9987 38.0498 90.55 38.8699C90.44 38.7199 90.31 38.5699 90.2 38.4099C88.7595 36.6994 86.7009 35.6279 84.4735 35.4294C82.246 35.2308 80.0304 35.9212 78.31 37.3499L65.45 48.1699V45.7399C65.4456 45.5615 65.4982 45.3864 65.6 45.2399L68.29 41.3199C68.4211 41.141 68.5147 40.9375 68.5653 40.7216C68.616 40.5057 68.6225 40.2818 68.5847 40.0633C68.5468 39.8448 68.4653 39.6361 68.345 39.4498C68.2247 39.2635 68.0681 39.1034 67.8845 38.979C67.7009 38.8546 67.4942 38.7684 67.2765 38.7258C67.0589 38.6831 66.8349 38.6847 66.6179 38.7305C66.401 38.7763 66.1955 38.8654 66.0137 38.9925C65.8319 39.1195 65.6776 39.2819 65.56 39.4699L62.87 43.3899C62.3906 44.0794 62.1357 44.9001 62.14 45.7399V50.9199L51.86 59.5299V43.9999C51.8436 42.214 52.3817 40.4671 53.4 38.9999L62.8 25.1999C63.5685 24.0572 64.7589 23.266 66.11 22.9999C66.7738 22.869 67.4573 22.8741 68.1191 23.0151C68.7809 23.156 69.4071 23.4298 69.96 23.8199C71.087 24.592 71.8633 25.7781 72.12 27.1199C72.2552 27.7884 72.2521 28.4774 72.1111 29.1447C71.9701 29.8119 71.6941 30.4433 71.3 30.9999L69.56 33.5299C69.4358 33.7091 69.3486 33.9113 69.3034 34.1246C69.2583 34.3379 69.2561 34.5581 69.2971 34.7723C69.3381 34.9864 69.4213 35.1903 69.542 35.3719C69.6627 35.5535 69.8184 35.7092 70 35.8299C70.1784 35.9539 70.3798 36.0409 70.5924 36.0859C70.8049 36.1309 71.0243 36.133 71.2376 36.092C71.451 36.051 71.654 35.9678 71.8347 35.8472C72.0154 35.7266 72.1702 35.5712 72.29 35.3899L74 32.8599C74.9388 31.4844 75.4496 29.862 75.4683 28.1969C75.487 26.5317 75.0127 24.8982 74.1051 23.502C73.1974 22.1058 71.8971 21.0094 70.3676 20.3506C68.8382 19.6918 67.1481 19.5002 65.51 19.7999C63.3075 20.2132 61.3586 21.4826 60.09 23.3299L50.67 37.1299C49.2814 39.1506 48.545 41.5481 48.56 43.9999V62.2999L43.56 66.4399C41.8077 67.9105 40.4324 69.7787 39.5487 71.8887C38.665 73.9988 38.2986 76.2895 38.48 78.5699L39.48 91.9099C39.515 92.3237 39.7039 92.7094 40.0094 92.9908C40.3148 93.2722 40.7147 93.4289 41.13 93.4299H41.27C41.4869 93.4135 41.6985 93.3543 41.8924 93.2559C42.0864 93.1574 42.259 93.0215 42.4003 92.8561C42.5415 92.6907 42.6487 92.4989 42.7156 92.2919C42.7825 92.0849 42.8078 91.8667 42.79 91.6499L41.8 78.2699C41.6572 76.5129 41.9388 74.7473 42.621 73.1218C43.3032 71.4964 44.366 70.0587 45.72 68.9299L80.44 39.8599C81.4927 39.0425 82.8213 38.6649 84.1465 38.8067C85.4718 38.9485 86.6905 39.5986 87.5464 40.6202C88.4023 41.6419 88.8288 42.9556 88.7362 44.2852C88.6437 45.6148 88.0392 46.8567 87.05 47.7499L69 62.8999C67.8378 63.1756 66.7622 63.7357 65.87 64.5299L57 72.2099C56.6698 72.499 56.468 72.9074 56.4389 73.3453C56.4098 73.7832 56.5559 74.2147 56.845 74.5449C57.1341 74.8751 57.5425 75.0769 57.9804 75.106C58.4183 75.1351 58.8498 74.989 59.18 74.6999L68 66.9999C68.739 66.3569 69.6855 66.0028 70.665 66.0028C71.6445 66.0028 72.591 66.3569 73.33 66.9999L86.72 78.3499C87.7529 79.2395 88.3926 80.501 88.5 81.8599C88.558 82.5325 88.4808 83.2099 88.273 83.8522C88.0652 84.4945 87.731 85.0887 87.29 85.5999C86.6431 86.3616 85.7827 86.9119 84.82 87.1799L75.46 79.2399C74.1201 78.0842 72.4095 77.4485 70.64 77.4485C68.8705 77.4485 67.16 78.0842 65.82 79.2399L57 86.9999C56.6698 87.289 56.468 87.6974 56.4389 88.1353C56.4098 88.5732 56.5559 89.0047 56.845 89.3349C57.1341 89.6651 57.5425 89.8669 57.9804 89.896C58.4183 89.9251 58.8498 89.779 59.18 89.4899L68 81.7699C68.7332 81.1149 69.6819 80.7528 70.665 80.7528C71.6481 80.7528 72.5969 81.1149 73.33 81.7699L86.72 93.1099C87.232 93.5478 87.6527 94.0823 87.9581 94.6829C88.2635 95.2834 88.4477 95.9382 88.5 96.6099C88.5615 97.2827 88.4859 97.961 88.278 98.6038C88.07 99.2466 87.7339 99.8406 87.29 100.35C86.8533 100.864 86.3193 101.287 85.7187 101.594C85.118 101.901 84.4626 102.087 83.79 102.14C83.1084 102.207 82.4203 102.133 81.7683 101.923C81.1164 101.714 80.5145 101.372 80 100.92L71.73 93.9199C71.4156 93.6507 71.0109 93.5104 70.5973 93.5271C70.1837 93.5438 69.7917 93.7162 69.5 94.0099L67.03 96.4699C66.7258 96.7834 66.5556 97.2031 66.5556 97.6399C66.5556 98.0767 66.7258 98.4964 67.03 98.8099C67.3423 99.1165 67.7624 99.2883 68.2 99.2883C68.6376 99.2883 69.0577 99.1165 69.37 98.8099L70.76 97.4199L77.87 103.48C79.3979 104.768 81.3313 105.477 83.33 105.48C83.55 105.48 83.79 105.48 84.01 105.48C85.6753 105.348 87.2639 104.725 88.5743 103.689C89.8846 102.653 90.8576 101.251 91.3698 99.6607C91.8819 98.0706 91.9101 96.3643 91.4508 94.7582C90.9915 93.1521 90.0654 91.7187 88.79 90.6399L87.56 89.6399C88.3825 89.1542 89.1191 88.5358 89.74 87.8099C91.1808 86.0992 91.8847 83.887 91.6972 81.6582C91.5098 79.4295 90.4463 77.3659 88.74 75.9199L82.86 70.9199L86.52 52.4999L89.18 50.2599C90.8995 48.8226 91.9784 46.7619 92.18 44.5299C92.2705 43.6317 92.2029 42.7247 91.98 41.8499C93.1288 41.1533 94.4087 40.7005 95.74 40.5199C96.3032 40.4446 96.8761 40.4953 97.4174 40.6682C97.9586 40.8411 98.4548 41.132 98.87 41.5199C99.2835 41.9153 99.6005 42.4006 99.7964 42.9382C99.9924 43.4757 100.062 44.0511 100 44.6199L98.45 63.7999C98.3548 64.9357 98.5691 66.0761 99.07 67.0999L102 73.1799C103.828 76.9487 104.807 81.0727 104.867 85.261C104.928 89.4493 104.068 93.5999 102.35 97.4199L100.46 101.63C100.37 101.827 100.32 102.041 100.313 102.258C100.306 102.474 100.343 102.69 100.42 102.893C100.497 103.096 100.614 103.281 100.763 103.439C100.912 103.596 101.092 103.722 101.29 103.81C101.508 103.905 101.742 103.956 101.98 103.96C102.3 103.961 102.613 103.867 102.878 103.688C103.144 103.51 103.35 103.256 103.47 102.96L105.37 98.7599C107.278 94.5037 108.233 89.8818 108.167 85.2179C108.102 80.5539 107.017 75.9607 104.99 71.7599L102 65.6699ZM80 68.3399L75.45 64.4599C74.8907 63.9858 74.268 63.5921 73.6 63.2899L82.45 55.8699L80 68.3399Z" fill="#1B3139"/>
<path d="M99.73 107.24C99.5319 107.15 99.318 107.101 99.1007 107.095C98.8834 107.089 98.6671 107.126 98.4642 107.204C98.2614 107.282 98.0761 107.4 97.9191 107.55C97.7622 107.701 97.6367 107.881 97.55 108.08L93.34 117.48C93.2495 117.699 93.1987 117.933 93.19 118.17V130.67C93.19 131.108 93.3638 131.527 93.6733 131.837C93.9827 132.146 94.4024 132.32 94.84 132.32C95.2776 132.32 95.6973 132.146 96.0067 131.837C96.3162 131.527 96.49 131.108 96.49 130.67V118.52L100.57 109.42C100.658 109.222 100.707 109.008 100.712 108.791C100.718 108.574 100.68 108.358 100.602 108.156C100.524 107.953 100.407 107.768 100.257 107.611C100.108 107.454 99.9285 107.328 99.73 107.24V107.24Z" fill="#1B3139"/>
<path d="M90.17 29.8199C90.6078 29.8173 91.027 29.643 91.3374 29.3344C91.6479 29.0258 91.8248 28.6076 91.83 28.1699V21.1699C91.7976 20.7532 91.6092 20.3641 91.3024 20.0802C90.9956 19.7963 90.593 19.6387 90.175 19.6387C89.7571 19.6387 89.3545 19.7963 89.0477 20.0802C88.7409 20.3641 88.5524 20.7532 88.52 21.1699V28.1699C88.5173 28.3874 88.5582 28.6031 88.6402 28.8045C88.7221 29.0059 88.8436 29.1889 88.9973 29.3426C89.1511 29.4964 89.334 29.6178 89.5354 29.6998C89.7368 29.7818 89.9526 29.8226 90.17 29.8199V29.8199Z" fill="#1B3139"/>
<path d="M97.2 31.4699C97.4425 31.6016 97.7141 31.6704 97.99 31.6699C98.2827 31.6681 98.57 31.5908 98.824 31.4453C99.078 31.2999 99.2902 31.0914 99.44 30.8399L102.83 24.7599C102.981 24.5739 103.089 24.3573 103.148 24.1251C103.206 23.893 103.214 23.6509 103.169 23.4156C103.125 23.1803 103.03 22.9575 102.891 22.7627C102.752 22.5678 102.572 22.4055 102.364 22.2871C102.156 22.1687 101.924 22.0971 101.686 22.0771C101.447 22.0571 101.207 22.0892 100.982 22.1713C100.757 22.2534 100.553 22.3835 100.383 22.5524C100.214 22.7214 100.083 22.9253 100 23.1499L96.61 29.2299C96.3944 29.6059 96.3354 30.0517 96.4458 30.4709C96.5562 30.89 96.8271 31.2489 97.2 31.4699V31.4699Z" fill="#1B3139"/>
<path d="M111.29 30.9202C111.176 30.7335 111.025 30.5717 110.847 30.4441C110.67 30.3166 110.468 30.2259 110.255 30.1774C110.041 30.129 109.82 30.1237 109.605 30.162C109.389 30.2002 109.184 30.2812 109 30.4002L103.08 34.0702C102.709 34.3012 102.445 34.67 102.346 35.0956C102.246 35.5211 102.32 35.9687 102.55 36.3402C102.699 36.5794 102.906 36.776 103.154 36.9109C103.401 37.0459 103.679 37.1145 103.96 37.1102C104.262 37.1037 104.558 37.0211 104.82 36.8702L110.74 33.1902C111.107 32.9556 111.368 32.587 111.467 32.1629C111.566 31.7389 111.495 31.293 111.27 30.9202H111.29Z" fill="#1B3139"/>
<path d="M48.2 109.84C45.6279 106.579 43.9803 102.686 43.43 98.57C43.357 98.1488 43.1244 97.772 42.7806 97.5181C42.4367 97.2641 42.0082 97.1526 41.5842 97.2067C41.1602 97.2609 40.7734 97.4765 40.5044 97.8086C40.2353 98.1408 40.1048 98.564 40.14 98.99C40.7647 103.705 42.655 108.163 45.61 111.89L52.41 120.43V130.54C52.41 130.978 52.5838 131.397 52.8933 131.707C53.2027 132.016 53.6224 132.19 54.06 132.19C54.4976 132.19 54.9173 132.016 55.2267 131.707C55.5362 131.397 55.71 130.978 55.71 130.54V119.88C55.6975 119.519 55.5755 119.17 55.36 118.88L48.2 109.84Z" fill="#1B3139"/>
</g>
<defs>
<clipPath id="clip0_1_2000">
<rect width="150" height="150" fill="white"/>
</clipPath>
</defs>
</svg>
