<svg width="150" height="150" viewBox="0 0 150 150" fill="none" xmlns="http://www.w3.org/2000/svg">
<g clip-path="url(#clip0_2919_1957)">
<path d="M45.9301 79.16V109.52H104.06V79.16H45.9301ZM101.06 106.52H48.9301V82.16H101.06V106.52Z" fill="#FF5F46"/>
<path d="M130.53 49.6L92.39 11.47L89.83 12.53V42.67C89.83 47.91 94.09 52.17 99.33 52.17H119.46V49.17H99.33C95.75 49.17 92.83 46.25 92.83 42.67V16.15L127.97 51.29V129.48C127.97 133.06 125.05 135.98 121.47 135.98H31.53C26.5 135.98 22.03 128.99 22.03 123.48V72.34H19.03V123.48C19.03 130.5 24.61 138.98 31.53 138.98H121.46C126.7 138.98 130.96 134.72 130.96 129.48V50.66L130.52 49.6H130.53Z" fill="#FF5F46"/>
<path d="M109.17 70.33V118.35C109.17 120.28 107.6 121.85 105.67 121.85H44.34C42.41 121.85 40.84 120.28 40.84 118.35V72.33H37.84V118.35C37.84 121.93 40.76 124.85 44.34 124.85H105.67C109.25 124.85 112.17 121.93 112.17 118.35V70.33C112.17 66.75 109.25 63.83 105.67 63.83H22.03V20.53C22.03 16.95 24.95 14.03 28.53 14.03H83.32V11.03H28.53C23.29 11.03 19.03 15.29 19.03 20.53V66.83H105.66C107.59 66.83 109.16 68.4 109.16 70.33H109.17Z" fill="#FF5F46"/>
<path d="M45.88 24.5C49.02 24.5 52.05 25.65 54.4 27.73L56.39 25.48C53.49 22.91 49.76 21.5 45.88 21.5C37.14 21.5 30.03 28.61 30.03 37.35C30.03 46.09 37.14 53.2 45.88 53.2C54.62 53.2 61.73 46.09 61.73 37.35V35.85H45.88V38.85H58.64C57.89 45.23 52.46 50.2 45.88 50.2C38.8 50.2 33.03 44.44 33.03 37.35C33.03 30.26 38.79 24.5 45.88 24.5Z" fill="#FF5F46"/>
</g>
<defs>
<clipPath id="clip0_2919_1957">
<rect width="150" height="150" fill="white"/>
</clipPath>
</defs>
</svg>
