<svg width="150" height="150" viewBox="0 0 150 150" fill="none" xmlns="http://www.w3.org/2000/svg">
<g clip-path="url(#clip0_8407_586)">
<mask id="mask0_8407_586" style="mask-type:luminance" maskUnits="userSpaceOnUse" x="0" y="0" width="150" height="150">
<path d="M150 0H0V150H150V0Z" fill="white"/>
</mask>
<g mask="url(#mask0_8407_586)">
<path d="M45.9301 79.1602V109.52H104.06V79.1602H45.9301ZM101.06 106.52H48.9301V82.1602H101.06V106.52Z" fill="white"/>
<path d="M130.53 49.6007L92.39 11.4707L89.83 12.5307V42.6707C89.83 47.9107 94.09 52.1707 99.33 52.1707H119.46V49.1707H99.33C95.75 49.1707 92.83 46.2507 92.83 42.6707V16.1507L127.97 51.2907V129.481C127.97 133.061 125.05 135.981 121.47 135.981H31.53C26.5 135.981 22.03 128.991 22.03 123.481V72.3407H19.03V123.481C19.03 130.501 24.61 138.981 31.53 138.981H121.46C126.7 138.981 130.96 134.721 130.96 129.481V50.6607L130.52 49.6007H130.53Z" fill="white"/>
<path d="M109.17 70.3303V118.35C109.17 120.28 107.6 121.85 105.67 121.85H44.34C42.41 121.85 40.84 120.28 40.84 118.35V72.3303H37.84V118.35C37.84 121.93 40.76 124.85 44.34 124.85H105.67C109.25 124.85 112.17 121.93 112.17 118.35V70.3303C112.17 66.7503 109.25 63.8303 105.67 63.8303H22.03V20.5303C22.03 16.9503 24.95 14.0303 28.53 14.0303H83.32V11.0303H28.53C23.29 11.0303 19.03 15.2903 19.03 20.5303V66.8303H105.66C107.59 66.8303 109.16 68.4003 109.16 70.3303H109.17Z" fill="white"/>
<path d="M45.88 24.5C49.02 24.5 52.05 25.65 54.4 27.73L56.39 25.48C53.49 22.91 49.76 21.5 45.88 21.5C37.14 21.5 30.03 28.61 30.03 37.35C30.03 46.09 37.14 53.2 45.88 53.2C54.62 53.2 61.73 46.09 61.73 37.35V35.85H45.88V38.85H58.64C57.89 45.23 52.46 50.2 45.88 50.2C38.8 50.2 33.03 44.44 33.03 37.35C33.03 30.26 38.79 24.5 45.88 24.5Z" fill="white"/>
</g>
</g>
<defs>
<clipPath id="clip0_8407_586">
<rect width="150" height="150" fill="white"/>
</clipPath>
</defs>
</svg>
