<svg width="150" height="150" viewBox="0 0 150 150" fill="none" xmlns="http://www.w3.org/2000/svg">
<path d="M123.6 32.2L117.7 26.3C116.5 25.1 115 24.5 113.3 24.5C111.6 24.5 110.1 25.1 108.9 26.3L43.9 91.4L43.5 106.5L58.6 106.1L111 53.6L108.9 51.5L62 98.4L51.6 88L102.3 37.3L106.5 41.5L59.5 88.3L61.6 90.4L108.5 43.5L113.3 48.3V119.9C113.3 121.3 112.2 122.4 110.8 122.4H30C28.6 122.4 27.5 121.3 27.5 119.9V39.1C27.5 37.7 28.6 36.6 30 36.6H85.1V33.6H30C27 33.6 24.5 36.1 24.5 39.1V120C24.5 123 27 125.5 30 125.5H110.8C113.8 125.5 116.3 123 116.3 120V47.1L104.4 35.2L111.1 28.5C111.7 27.9 112.5 27.6 113.4 27.6C114.3 27.6 115.1 27.9 115.7 28.5L121.6 34.4C122.2 35 122.5 35.8 122.5 36.7C122.5 37.6 122.2 38.4 121.6 39L117.4 43.2L119.5 45.3L123.7 41.1C124.9 39.9 125.5 38.4 125.5 36.7C125.5 35 124.8 33.4 123.6 32.2ZM59.9 100.6L57.3 103.2L46.6 103.5L46.9 92.8L49.5 90.2L59.9 100.6Z" fill="white"/>
<path d="M72.2 107.1V110.1H104.4V94.4H83.4V97.4H101.4V107.1H72.2Z" fill="white"/>
<path d="M68.7 52V49H36.5V64.7H57.5V61.7H39.5V52H68.7Z" fill="white"/>
</svg>
