<svg width="150" height="150" viewBox="0 0 150 150" fill="none" xmlns="http://www.w3.org/2000/svg">
<path fill-rule="evenodd" clip-rule="evenodd" d="M81.0056 54.2951H22.4691V115.369L51.7374 137.325L81.0056 115.369V54.2951ZM84.0341 116.883L51.7374 141.111L19.4407 116.883V51.2666H84.0341V116.883Z" fill="white"/>
<path fill-rule="evenodd" clip-rule="evenodd" d="M124.361 54.799H94.892V84.6697L109.626 95.3687L124.361 84.6697V54.799ZM127.389 86.2133L109.626 99.1114L91.8635 86.2133V51.7705H127.389V86.2133Z" fill="white"/>
<path d="M44.3489 81.4884L51.7376 77.6062L59.1263 81.4884L57.7487 73.2857L63.6972 67.4624L55.4319 66.2727L51.7376 58.7588L48.0432 66.2727L39.778 67.4624L45.7265 73.2857L44.3489 81.4884ZM43.848 68.7773L49.2956 67.9633L51.7376 63.0167L54.1796 67.9633L59.6272 68.7773L55.6824 72.6595L56.6216 78.1071L51.7376 75.5398L46.8535 78.1071L47.7928 72.6595L43.848 68.7773Z" fill="white"/>
<path fill-rule="evenodd" clip-rule="evenodd" d="M51.7373 116.075L19.4406 94.1524L19.4406 108.245L51.7373 130.56L84.0341 108.245L84.0341 94.1524L51.7373 116.075ZM81.0056 99.8683L51.7373 119.735L22.4691 99.8683L22.4691 106.657L51.7373 126.879L81.0056 106.657L81.0056 99.8683Z" fill="white"/>
<path fill-rule="evenodd" clip-rule="evenodd" d="M51.7372 96.2586L19.4405 74.336L19.4405 88.4291L51.7372 110.743L84.0339 88.4291L84.0339 74.336L51.7372 96.2586ZM81.0055 80.0519L51.7372 99.9188L22.469 80.0519L22.469 86.8405L51.7372 107.062L81.0055 86.8405L81.0055 80.0519Z" fill="white"/>
<path fill-rule="evenodd" clip-rule="evenodd" d="M124.36 28.4269H22.2028V43.0645H124.36V28.4269ZM19.1743 25.3984V46.0929H127.389V25.3984H19.1743Z" fill="white"/>
<path fill-rule="evenodd" clip-rule="evenodd" d="M85.5416 11.7341H22.0597V25.4868H85.5416V11.7341ZM19.1744 8.88867V28.3322H88.4269V8.88867H19.1744Z" fill="white"/>
<path fill-rule="evenodd" clip-rule="evenodd" d="M124.21 11.6941H88.6206V25.2538H124.21V11.6941ZM85.4423 8.88867V28.0593H127.389V8.88867H85.4423Z" fill="white"/>
<path fill-rule="evenodd" clip-rule="evenodd" d="M109.626 138.083C119.662 138.083 127.797 129.948 127.797 119.912C127.797 109.877 119.662 101.741 109.626 101.741C99.5907 101.741 91.4553 109.877 91.4553 119.912C91.4553 129.948 99.5907 138.083 109.626 138.083ZM109.626 141.111C121.334 141.111 130.825 131.62 130.825 119.912C130.825 108.204 121.334 98.7129 109.626 98.7129C97.9181 98.7129 88.4269 108.204 88.4269 119.912C88.4269 131.62 97.9181 141.111 109.626 141.111Z" fill="white"/>
<path fill-rule="evenodd" clip-rule="evenodd" d="M109.626 127.736C113.947 127.736 117.45 124.233 117.45 119.913C117.45 115.592 113.947 112.089 109.626 112.089C105.305 112.089 101.803 115.592 101.803 119.913C101.803 124.233 105.305 127.736 109.626 127.736ZM109.626 130.765C115.619 130.765 120.478 125.906 120.478 119.913C120.478 113.919 115.619 109.061 109.626 109.061C103.633 109.061 98.774 113.919 98.774 119.913C98.774 125.906 103.633 130.765 109.626 130.765Z" fill="white"/>
</svg>
