<svg width="150" height="150" viewBox="0 0 150 150" fill="none" xmlns="http://www.w3.org/2000/svg">
<path d="M127.26 77.33C127.26 77.7562 127.175 78.1782 127.011 78.5715C126.847 78.9648 126.606 79.3216 126.303 79.6211C126 79.9207 125.64 80.157 125.245 80.3165C124.849 80.4759 124.426 80.5553 124 80.55H119.65V61H124C125.649 60.9973 127.229 60.3412 128.395 59.1753C129.561 58.0094 130.217 56.4288 130.22 54.78V39.54C130.217 37.8912 129.561 36.3106 128.395 35.1447C127.229 33.9788 125.649 33.3226 124 33.32H119.65V26.32C119.647 24.3184 118.851 22.3996 117.436 20.9843C116.02 19.5689 114.102 18.7726 112.1 18.77H31.24V29.37H34.24V21.77H50.87V128.24H34.24V116.09H36.76C37.8404 116.087 38.9092 115.868 39.9036 115.445C40.8979 115.023 41.7977 114.405 42.55 113.63C43.2628 112.912 43.8225 112.058 44.1955 111.117C44.5685 110.177 44.7469 109.171 44.72 108.16C44.6628 106.154 43.827 104.25 42.3897 102.85C40.9524 101.45 39.0265 100.664 37.02 100.66H34.26V82.66H37C38.5333 82.6509 40.0299 82.1894 41.3021 81.3334C42.5743 80.4775 43.5657 79.2651 44.1519 77.8482C44.738 76.4313 44.893 74.8729 44.5974 73.3683C44.3018 71.8637 43.5687 70.4798 42.49 69.39C41.7783 68.6646 40.9284 68.0892 39.9907 67.6976C39.0529 67.306 38.0462 67.1062 37.03 67.11H34.26V49.45H37C38.7748 49.4475 40.4945 48.8336 41.8697 47.7116C43.2448 46.5897 44.1914 45.0282 44.55 43.29C44.6835 42.7264 44.7506 42.1492 44.75 41.57C44.7447 39.5232 43.93 37.5616 42.4837 36.1134C41.0373 34.6652 39.0768 33.8479 37.03 33.84H27.46C25.4116 33.8426 23.448 34.6582 22.0005 36.1076C20.553 37.557 19.74 39.5216 19.74 41.57V41.75C19.74 42.762 19.9395 43.7641 20.3271 44.699C20.7147 45.6338 21.2827 46.4831 21.9988 47.1982C22.7149 47.9134 23.5649 48.4804 24.5003 48.8667C25.4356 49.2531 26.438 49.4513 27.45 49.45V49.29V46.29C26.8292 46.2893 26.2147 46.1662 25.6415 45.9277C25.0684 45.6892 24.548 45.3399 24.11 44.9C23.4442 44.2543 22.9892 43.4223 22.8046 42.5134C22.62 41.6044 22.7145 40.6609 23.0757 39.8066C23.4369 38.9524 24.0478 38.2272 24.8285 37.7263C25.6091 37.2255 26.5229 36.9723 27.45 37H37C38.2477 37.0105 39.4411 37.5114 40.3224 38.3946C41.2037 39.2778 41.7022 40.4723 41.71 41.72C41.7058 42.022 41.6757 42.3231 41.62 42.62C41.3754 43.6552 40.7898 44.578 39.9572 45.24C39.1247 45.9021 38.0937 46.2648 37.03 46.27H31.26V46.42V67.12H27.46C25.4107 67.1253 23.4471 67.9431 21.9999 69.394C20.5527 70.845 19.74 72.8107 19.74 74.86C19.74 74.86 19.74 74.86 19.74 74.86C19.7427 76.904 20.5558 78.8635 22.0011 80.3089C23.4465 81.7542 25.406 82.5673 27.45 82.57V82.48V79.48C26.2114 79.48 25.0236 78.988 24.1478 78.1122C23.272 77.2364 22.78 76.0485 22.78 74.81C22.78 73.5714 23.272 72.3836 24.1478 71.5078C25.0236 70.632 26.2114 70.14 27.45 70.14H37C37.7738 70.1386 38.5359 70.3283 39.2187 70.6922C39.9016 71.0561 40.484 71.5829 40.9144 72.226C41.3447 72.869 41.6096 73.6083 41.6856 74.3784C41.7616 75.1484 41.6463 75.9252 41.35 76.64C40.9842 77.4823 40.3807 78.1996 39.6134 78.7041C38.8461 79.2085 37.9483 79.4782 37.03 79.48H31.26V79.57V100.57H27.73C26.6503 100.578 25.5828 100.799 24.5891 101.221C23.5953 101.643 22.695 102.258 21.94 103.03C21.2269 103.742 20.6652 104.591 20.2889 105.526C19.9125 106.461 19.7292 107.462 19.75 108.47C19.7944 110.483 20.6253 112.398 22.0645 113.805C23.5038 115.213 25.437 116 27.45 116V113C26.2214 113 25.0412 112.521 24.1613 111.663C23.2813 110.806 22.7713 109.638 22.74 108.41C22.7332 107.799 22.8492 107.193 23.0811 106.628C23.313 106.063 23.6561 105.55 24.09 105.12C24.5646 104.634 25.1305 104.248 25.7552 103.982C26.3799 103.715 27.0511 103.576 27.73 103.57H37C38.2269 103.572 39.4046 104.053 40.2823 104.91C41.1601 105.768 41.6687 106.933 41.7 108.16C41.7154 108.769 41.6062 109.375 41.3793 109.941C41.1523 110.507 40.8123 111.02 40.38 111.45C39.9071 111.938 39.3415 112.326 38.7164 112.592C38.0914 112.859 37.4194 112.997 36.74 113H31.24V131.14H112.14C114.142 131.137 116.06 130.341 117.476 128.926C118.891 127.51 119.687 125.592 119.69 123.59V83.55H124C125.649 83.5473 127.229 82.8912 128.395 81.7253C129.561 80.5594 130.217 78.9788 130.22 77.33V66.19H127.22L127.26 77.33ZM119.92 36.33H124C124.854 36.33 125.673 36.6692 126.277 37.2731C126.881 37.877 127.22 38.696 127.22 39.55V54.75C127.224 55.1754 127.144 55.5973 126.984 55.9914C126.824 56.3856 126.587 56.7441 126.288 57.0463C125.988 57.3485 125.632 57.5883 125.239 57.752C124.847 57.9157 124.425 58 124 58H119.88L119.92 36.33ZM116.69 123.73C116.69 124.937 116.211 126.094 115.357 126.947C114.504 127.801 113.347 128.28 112.14 128.28H53.87V21.73H112.14C113.347 21.73 114.504 22.2094 115.357 23.0627C116.211 23.9159 116.69 25.0733 116.69 26.28V123.73Z" fill="#1B3139"/>
<path d="M104.65 57.97H65.9V60.97H104.65V57.97Z" fill="#1B3139"/>
<path d="M104.65 45.64H65.9V48.64H104.65V45.64Z" fill="#1B3139"/>
</svg>
