<svg width="150" height="150" viewBox="0 0 150 150" fill="none" xmlns="http://www.w3.org/2000/svg">
<path d="M129.2 84.5C127.7 83 125.8 82.2 123.7 82.2C123.3 82.2 122.9 82.2 122.5 82.3C122.9 79.9 122.2 77.4 120.3 75.6C118.8 74.1 116.9 73.3 114.8 73.3C112.7 73.3 110.8 74.1 109.3 75.6L107.1 77.8C106.9 76.1 106.2 74.5 104.9 73.2C103.4 71.7 101.5 70.9 99.4 70.9C97.3 70.9 95.3 71.7 93.9 73.2L87.7 79.4L53.2 44.9C50.8 42.5 49.4 39.2 49.4 35.8C49.4 32.4 50.7 29.1 53.2 26.7C55.6 24.3 58.9 22.9 62.3 22.9C65.7 22.9 69 24.2 71.4 26.7L76.1 31.4L80.8 26.7C83.2 24.3 86.5 22.9 89.9 22.9C93.3 22.9 96.6 24.2 99 26.7C101.4 29.1 102.8 32.4 102.8 35.8C102.8 39.2 101.5 42.5 99 44.9L80.8 63.2L82.9 65.3L101.3 47C104.3 44 106 40 106 35.8C106 31.6 104.4 27.6 101.3 24.6C98.3 21.6 94.3 19.9 90.1 19.9C85.9 19.9 81.9 21.6 78.9 24.6L76.3 27.2L73.7 24.6C70.7 21.6 66.7 19.9 62.5 19.9C62.5 19.9 62.5 19.9 62.4 19.9C58.2 19.9 54.2 21.6 51.2 24.6C45 30.8 45 40.9 51.2 47.1L87.8 83.7L96.1 75.4C97 74.5 98.2 74 99.5 74C100.8 74 102 74.5 102.9 75.4C104.7 77.2 104.8 80.3 102.9 82.1L102.8 82.3L99.3 85.8L101.4 87.9L105 84.3L105.1 84.2L111.5 77.8C112.4 76.9 113.6 76.4 114.9 76.4C116.2 76.4 117.4 76.9 118.3 77.8C120.2 79.7 120.2 82.7 118.3 84.6L103.8 99.1H100.1V95.1C100.1 90.7 96.5 87.1 92.1 87.1H75.4L71.6 83.3C69 80.7 65.5 79.2 61.7 79.2C55.9 79.2 50.5 81.4 46.4 85.5L40.3 91.6H18.6V94.6H39.6V127H18.6V130H42.6V93.7L48.6 87.7C52.1 84.2 56.8 82.2 61.8 82.2C64.7 82.2 67.5 83.3 69.5 85.4L74.2 90.1H91.9C94.7 90.1 96.9 92.3 96.9 95.1V99.1H67.3V102.1H96.9H98.4H104.8L120.2 86.7C121.1 85.8 122.3 85.3 123.6 85.3C124.9 85.3 126.1 85.8 127 86.7C128.9 88.6 128.9 91.6 127 93.5L106 114.5C104.2 116.3 101.8 117.3 99.3 117.3H48.8V120.3H99.4C102.7 120.3 105.9 119 108.2 116.6L129.2 95.6C132.2 92.5 132.2 87.6 129.2 84.5Z" fill="#1B3139"/>
</svg>
