<svg width="150" height="150" viewBox="0 0 150 150" fill="none" xmlns="http://www.w3.org/2000/svg">
<path d="M129.2 84.4999C127.7 82.9999 125.8 82.1999 123.7 82.1999C123.3 82.1999 122.9 82.1999 122.5 82.2999C122.9 79.8999 122.2 77.3999 120.3 75.5999C118.8 74.0999 116.9 73.2999 114.8 73.2999C112.7 73.2999 110.8 74.0999 109.3 75.5999L107.1 77.7999C106.9 76.0999 106.2 74.4999 104.9 73.1999C103.4 71.6999 101.5 70.8999 99.4 70.8999C97.3 70.8999 95.3 71.6999 93.9 73.1999L87.7 79.3999L53.2 44.8999C50.8 42.4999 49.4 39.1999 49.4 35.7999C49.4 32.3999 50.7 29.0999 53.2 26.6999C55.6 24.2999 58.9 22.8999 62.3 22.8999C65.7 22.8999 69 24.1999 71.4 26.6999L76.1 31.3999L80.8 26.6999C83.2 24.2999 86.5 22.8999 89.9 22.8999C93.3 22.8999 96.6 24.1999 99 26.6999C101.4 29.0999 102.8 32.3999 102.8 35.7999C102.8 39.1999 101.5 42.4999 99 44.8999L80.8 63.1999L82.9 65.2999L101.3 46.9999C104.3 43.9999 106 39.9999 106 35.7999C106 31.5999 104.4 27.5999 101.3 24.5999C98.3 21.5999 94.3 19.8999 90.1 19.8999C85.9 19.8999 81.9 21.5999 78.9 24.5999L76.3 27.1999L73.7 24.5999C70.7 21.5999 66.7 19.8999 62.5 19.8999C62.5 19.8999 62.5 19.8999 62.4 19.8999C58.2 19.8999 54.2 21.5999 51.2 24.5999C45 30.7999 45 40.8999 51.2 47.0999L87.8 83.6999L96.1 75.3999C97 74.4999 98.2 73.9999 99.5 73.9999C100.8 73.9999 102 74.4999 102.9 75.3999C104.7 77.1999 104.8 80.2999 102.9 82.0999L102.8 82.2999L99.3 85.7999L101.4 87.8999L105 84.2999L105.1 84.1999L111.5 77.7999C112.4 76.8999 113.6 76.3999 114.9 76.3999C116.2 76.3999 117.4 76.8999 118.3 77.7999C120.2 79.6999 120.2 82.6999 118.3 84.5999L103.8 99.0999H100.1V95.0999C100.1 90.6999 96.5 87.0999 92.1 87.0999H75.4L71.6 83.2999C69 80.6999 65.5 79.1999 61.7 79.1999C55.9 79.1999 50.5 81.3999 46.4 85.4999L40.3 91.5999H18.6V94.5999H39.6V127H18.6V130H42.6V93.6999L48.6 87.6999C52.1 84.1999 56.8 82.1999 61.8 82.1999C64.7 82.1999 67.5 83.2999 69.5 85.3999L74.2 90.0999H91.9C94.7 90.0999 96.9 92.2999 96.9 95.0999V99.0999H67.3V102.1H96.9H98.4H104.8L120.2 86.6999C121.1 85.7999 122.3 85.2999 123.6 85.2999C124.9 85.2999 126.1 85.7999 127 86.6999C128.9 88.5999 128.9 91.5999 127 93.4999L106 114.5C104.2 116.3 101.8 117.3 99.3 117.3H48.8V120.3H99.4C102.7 120.3 105.9 119 108.2 116.6L129.2 95.5999C132.2 92.4999 132.2 87.5999 129.2 84.4999Z" fill="#FF5F46"/>
</svg>
