<svg width="150" height="150" viewBox="0 0 150 150" fill="none" xmlns="http://www.w3.org/2000/svg">
<path d="M86.02 86.3502C82.55 87.5002 78.85 88.1202 75 88.1202C58.08 88.1202 43.9699 76.1302 40.6899 60.1802" stroke="#FF5F46" stroke-width="3" stroke-miterlimit="3" stroke-linecap="square"/>
<path d="M40.1599 49.5201C41.9499 31.8601 56.87 18.0801 75 18.0801C94.34 18.0801 110.02 33.7601 110.02 53.1001C110.02 64.9801 104.11 75.4701 95.0701 81.8101" stroke="#FF5F46" stroke-width="3" stroke-miterlimit="3" stroke-linecap="square"/>
<path d="M63.97 86.3702C67.24 70.4102 81.36 58.4102 98.28 58.4102C102.13 58.4102 105.84 59.0302 109.3 60.1802" stroke="#FF5F46" stroke-width="3" stroke-miterlimit="3" stroke-linecap="square"/>
<path d="M119.66 65.6802C127.96 72.0802 133.31 82.1302 133.31 93.4302C133.31 112.77 117.63 128.45 98.29 128.45C80.78 128.45 66.2699 115.6 63.6799 98.8102" stroke="#FF5F46" stroke-width="3" stroke-miterlimit="3" stroke-linecap="square"/>
<path d="M75 67.27C82.2 73.68 86.74 83.03 86.74 93.43C86.74 103.83 82.2 113.18 75 119.59" stroke="#FF5F46" stroke-width="3" stroke-miterlimit="3" stroke-linecap="square"/>
<path d="M64.8501 125.9C60.7901 127.54 56.36 128.45 51.71 128.45C32.37 128.45 16.6899 112.77 16.6899 93.4302C16.6899 74.0902 32.37 58.4102 51.71 58.4102C56.44 58.4102 60.9501 59.3502 65.0701 61.0502" stroke="#FF5F46" stroke-width="3" stroke-miterlimit="3" stroke-linecap="square"/>
</svg>
