<svg width="150" height="150" viewBox="0 0 150 150" fill="none" xmlns="http://www.w3.org/2000/svg">
<path d="M26.8 136.5H14.5V133.5H25.6L50 109.1L62.7001 121.8L74.3001 110.2H92L96.3 113.3C97.3 114 98.4 114.4 99.6 114.4H123.5C125.1 114.4 126.4 113.1 126.4 111.5C126.4 110.2 125.7 109.1 124.5 108.7C123.8 108.4 123.3 107.6 123.5 106.9C123.6 106.1 124.3 105.5 125.1 105.5H125.7C127.3 105.5 128.6 104.2 128.6 102.6C128.6 101.3 127.9 100.2 126.7 99.8001C126 99.5001 125.5 98.7001 125.7 98.0001C125.8 97.2001 126.5 96.7001 127.3 96.7001H127.9C129.5 96.7001 130.8 95.4001 130.8 93.8001C130.8 92.5001 130.1 91.4001 128.9 91.0001C128.2 90.7001 127.7 89.9001 127.9 89.2001C128 88.4001 128.7 87.8001 129.5 87.8001H130.1C131.7 87.8001 133 86.5001 133 84.9001C133 83.2001 131.7 81.9001 130.1 81.9001H106.1V67.9001C106.1 64.0001 102.9 60.8001 99 60.8001H98.9C98.7001 60.8001 98.6 61.0001 98.6 61.1001V74.4001C98.6 78.6001 97 82.5001 94 85.5001L89.2 90.3001C87.9 91.6001 86.1 92.4001 84.2 92.4001H73.7V60.5001H65.6C64.5 60.5001 63.5 60.9001 62.8 61.7001L58 66.5001C55.6 68.9001 54.3 72.1001 54.3 75.5001V88.8001C54.3 90.6001 52.8001 92.2001 50.9001 92.2001H50.8C45.3 92.2001 40.7001 87.7001 40.7001 82.1001V71.1001H19.7C16.5 71.1001 13.8 68.5001 13.8 65.2001C13.8 62.8001 15.2 60.7001 17.2 59.8001C16.5 58.8001 16.1 57.6001 16.1 56.4001C16.1 54.0001 17.5 51.9001 19.5 51.0001C18.8 50.0001 18.4 48.8001 18.4 47.6001C18.4 45.2001 19.8 43.1001 21.8 42.2001C21.1 41.2001 20.7 40.0001 20.7 38.8001C20.7 35.5001 23.3 32.8001 26.6 32.8001H50.5C52.3 32.8001 54.1 33.4001 55.6 34.4001L59.1 36.9001H74.7L87.4 24.0001L100.1 36.7001L123.2 13.6001H135.5V16.6001H124.4L100 41.0001L87.4 28.2001L75.8001 39.8001H58L53.7001 36.7001C52.7001 36.0001 51.6001 35.6001 50.4001 35.6001H26.5C24.9 35.6001 23.6 36.9001 23.6 38.5001C23.6 39.8001 24.3 40.9001 25.5 41.3001C26.2 41.6001 26.7 42.3001 26.5 43.1001C26.4 43.9001 25.7 44.5001 24.9 44.5001H24.3C22.7 44.5001 21.4 45.8001 21.4 47.4001C21.4 48.7001 22.1 49.8001 23.3 50.2001C24 50.5001 24.5 51.3001 24.3 52.0001C24.2 52.8001 23.5 53.4001 22.7 53.4001H22C20.4 53.4001 19.1 54.7001 19.1 56.3001C19.1 57.6001 19.8 58.7001 21 59.1001C21.7 59.4001 22.2 60.2001 22 60.9001C21.9 61.7001 21.2 62.2001 20.4 62.2001H19.8C18.2 62.2001 16.9 63.5001 16.9 65.1001C16.9 66.8001 18.2 68.1001 19.8 68.1001H43.8V82.1001C43.8 86.0001 47 89.2001 50.9001 89.2001H51C51.2001 89.2001 51.4001 89.0001 51.4001 88.8001V75.5001C51.4001 71.3001 53 67.4001 56 64.4001L60.8 59.6001C62.1 58.3001 63.9001 57.5001 65.8001 57.5001H76.9001V89.4001H84.6C85.7 89.4001 86.7001 89.0001 87.4 88.2001L92.2 83.4001C94.6 81.0001 95.9 77.8001 95.9 74.4001V61.2001C95.9 59.4001 97.4 57.9001 99.2 57.9001H99.3C104.8 57.9001 109.4 62.4001 109.4 68.0001V79.0001H130.4C133.6 79.0001 136.3 81.6001 136.3 84.9001C136.3 87.3001 134.9 89.4001 132.9 90.3001C133.6 91.3001 134 92.5001 134 93.7001C134 96.1001 132.6 98.2001 130.6 99.1001C131.3 100.1 131.7 101.3 131.7 102.5C131.7 104.9 130.3 107 128.3 107.9C129 108.9 129.4 110.1 129.4 111.3C129.4 114.6 126.8 117.3 123.5 117.3H99.6C97.8 117.3 96 116.7 94.5 115.7L91 113.2H75.5L62.6 126L49.9001 113.3L26.8 136.5Z" fill="#FF5F46"/>
</svg>
