<svg width="150" height="150" viewBox="0 0 150 150" fill="none" xmlns="http://www.w3.org/2000/svg">
<path d="M26.8 136.5H14.5V133.5H25.6L50 109.1L62.7 121.8L74.3 110.2H92L96.3 113.3C97.3 114 98.4 114.4 99.6 114.4H123.5C125.1 114.4 126.4 113.1 126.4 111.5C126.4 110.2 125.7 109.1 124.5 108.7C123.8 108.4 123.3 107.6 123.5 106.9C123.6 106.1 124.3 105.5 125.1 105.5H125.7C127.3 105.5 128.6 104.2 128.6 102.6C128.6 101.3 127.9 100.2 126.7 99.8C126 99.5 125.5 98.7 125.7 98C125.8 97.2 126.5 96.7 127.3 96.7H127.9C129.5 96.7 130.8 95.4 130.8 93.8C130.8 92.5 130.1 91.4 128.9 91C128.2 90.7 127.7 89.9 127.9 89.2C128 88.4 128.7 87.8 129.5 87.8H130.1C131.7 87.8 133 86.5 133 84.9C133 83.2 131.7 81.9 130.1 81.9H106.1V67.9C106.1 64 102.9 60.8 99 60.8H98.9C98.7 60.8 98.6 61 98.6 61.1V74.4C98.6 78.6 97 82.5 94 85.5L89.2 90.3C87.9 91.6 86.1 92.4 84.2 92.4H73.7V60.5H65.6C64.5 60.5 63.5 60.9 62.8 61.7L58 66.5C55.6 68.9 54.3 72.1 54.3 75.5V88.8C54.3 90.6 52.8 92.2 50.9 92.2H50.8C45.3 92.2 40.7 87.7 40.7 82.1V71.1H19.7C16.5 71.1 13.8 68.5 13.8 65.2C13.8 62.8 15.2 60.7 17.2 59.8C16.5 58.8 16.1 57.6 16.1 56.4C16.1 54 17.5 51.9 19.5 51C18.8 50 18.4 48.8 18.4 47.6C18.4 45.2 19.8 43.1 21.8 42.2C21.1 41.2 20.7 40 20.7 38.8C20.7 35.5 23.3 32.8 26.6 32.8H50.5C52.3 32.8 54.1 33.4 55.6 34.4L59.1 36.9H74.7L87.4 24L100.1 36.7L123.2 13.6H135.5V16.6H124.4L100 41L87.4 28.2L75.8 39.8H58L53.7 36.7C52.7 36 51.6 35.6 50.4 35.6H26.5C24.9 35.6 23.6 36.9 23.6 38.5C23.6 39.8 24.3 40.9 25.5 41.3C26.2 41.6 26.7 42.3 26.5 43.1C26.4 43.9 25.7 44.5 24.9 44.5H24.3C22.7 44.5 21.4 45.8 21.4 47.4C21.4 48.7 22.1 49.8 23.3 50.2C24 50.5 24.5 51.3 24.3 52C24.2 52.8 23.5 53.4 22.7 53.4H22C20.4 53.4 19.1 54.7 19.1 56.3C19.1 57.6 19.8 58.7 21 59.1C21.7 59.4 22.2 60.2 22 60.9C21.9 61.7 21.2 62.2 20.4 62.2H19.8C18.2 62.2 16.9 63.5 16.9 65.1C16.9 66.8 18.2 68.1 19.8 68.1H43.8V82.1C43.8 86 47 89.2 50.9 89.2H51C51.2 89.2 51.4 89 51.4 88.8V75.5C51.4 71.3 53 67.4 56 64.4L60.8 59.6C62.1 58.3 63.9 57.5 65.8 57.5H76.9V89.4H84.6C85.7 89.4 86.7 89 87.4 88.2L92.2 83.4C94.6 81 95.9 77.8 95.9 74.4V61.2C95.9 59.4 97.4 57.9 99.2 57.9H99.3C104.8 57.9 109.4 62.4 109.4 68V79H130.4C133.6 79 136.3 81.6 136.3 84.9C136.3 87.3 134.9 89.4 132.9 90.3C133.6 91.3 134 92.5 134 93.7C134 96.1 132.6 98.2 130.6 99.1C131.3 100.1 131.7 101.3 131.7 102.5C131.7 104.9 130.3 107 128.3 107.9C129 108.9 129.4 110.1 129.4 111.3C129.4 114.6 126.8 117.3 123.5 117.3H99.6C97.8 117.3 96 116.7 94.5 115.7L91 113.2H75.5L62.6 126L49.9 113.3L26.8 136.5Z" fill="#1B3139"/>
</svg>
