<svg width="150" height="150" viewBox="0 0 150 150" fill="none" xmlns="http://www.w3.org/2000/svg">
<path d="M111.7 41.4002V59.3002C111.7 61.8002 109.7 63.8002 107.2 63.8002H81V66.8002H107.2C111.3 66.8002 114.7 63.4002 114.7 59.3002V41.5002C119.2 40.9002 122.7 37.1002 122.7 32.4002C122.7 27.3002 118.6 23.2002 113.5 23.2002C108.4 23.2002 104.3 27.3002 104.3 32.4002C104.4 36.8002 107.5 40.5002 111.7 41.4002ZM113.6 26.2002C117 26.2002 119.8 29.0002 119.8 32.4002C119.8 35.8002 117 38.6002 113.6 38.6002C110.2 38.6002 107.4 35.8002 107.4 32.4002C107.4 29.0002 110.1 26.2002 113.6 26.2002Z" fill="#FF5F46"/>
<path d="M73.5 41.4001V57.7001H76.5V41.4001C80.9 40.7001 84.2 36.9001 84.2 32.3001C84.2 27.2001 80.1 23.1001 75 23.1001C69.9 23.1001 65.8 27.2001 65.8 32.3001C65.8 36.9001 69.2 40.7001 73.5 41.4001ZM75 26.2001C78.4 26.2001 81.2 29.0001 81.2 32.4001C81.2 35.8001 78.4 38.6001 75 38.6001C71.6 38.6001 68.8 35.8001 68.8 32.4001C68.8 29.0001 71.6 26.2001 75 26.2001Z" fill="#FF5F46"/>
<path d="M35.3001 41.5002V59.3002C35.3001 63.4002 38.7001 66.8002 42.8001 66.8002H69.0001C71.5001 66.8002 73.5001 68.8002 73.5001 71.3002V93.7002L67.3001 87.5002L65.2001 89.6002L75.0001 99.4002L84.8001 89.6002L82.7001 87.5002L76.6001 93.6002V71.2002C76.6001 67.1002 73.2001 63.7002 69.1001 63.7002H42.8001C40.3001 63.7002 38.3001 61.7002 38.3001 59.2002V41.4002C42.5001 40.5002 45.6001 36.8002 45.6001 32.4002C45.6001 27.3002 41.5001 23.2002 36.4001 23.2002C31.3001 23.2002 27.2001 27.3002 27.2001 32.4002C27.3001 37.0002 30.8001 40.9002 35.3001 41.5002ZM36.4001 26.2002C39.8001 26.2002 42.6001 29.0002 42.6001 32.4002C42.6001 35.8002 39.8001 38.6002 36.4001 38.6002C33.0001 38.6002 30.2001 35.8002 30.2001 32.4002C30.2001 29.0002 33.0001 26.2002 36.4001 26.2002Z" fill="#FF5F46"/>
<path d="M91.8 98.7002V101.7H121.5V118.1C121.5 121.3 118.9 123.9 115.7 123.9H34.2C31 123.9 28.4 121.3 28.4 118.1V101.7H58.1V98.7002H25.4V118.1C25.4 122.9 29.3 126.9 34.2 126.9H115.8C120.6 126.9 124.6 123 124.6 118.1V98.7002H91.8Z" fill="#FF5F46"/>
<path d="M72.9 112.8C72.9 114 73.8 114.9 75 114.9C76.2 114.9 77.1 114 77.1 112.8C77.1 111.6 76.2 110.7 75 110.7C73.8 110.6 72.9 111.6 72.9 112.8Z" fill="#FF5F46"/>
<path d="M64.2001 112.8C64.2001 114 65.1001 114.9 66.3001 114.9C67.5001 114.9 68.4001 114 68.4001 112.8C68.4001 111.6 67.5001 110.7 66.3001 110.7C65.1001 110.6 64.2001 111.6 64.2001 112.8Z" fill="#FF5F46"/>
<path d="M114.2 111.3H83.7001V114.3H114.2V111.3Z" fill="#FF5F46"/>
</svg>
