<svg width="150" height="150" viewBox="0 0 150 150" fill="none" xmlns="http://www.w3.org/2000/svg">
<path d="M111.7 41.4V59.2999C111.7 61.7999 109.7 63.7999 107.2 63.7999H81V66.8H107.2C111.3 66.8 114.7 63.3999 114.7 59.2999V41.5C119.2 40.9 122.7 37.1 122.7 32.4C122.7 27.3 118.6 23.2 113.5 23.2C108.4 23.2 104.3 27.3 104.3 32.4C104.4 36.8 107.5 40.5 111.7 41.4ZM113.6 26.2C117 26.2 119.8 29 119.8 32.4C119.8 35.8 117 38.5999 113.6 38.5999C110.2 38.5999 107.4 35.8 107.4 32.4C107.4 29 110.1 26.2 113.6 26.2Z" fill="white"/>
<path d="M73.5 41.4V57.7H76.5V41.4C80.9 40.7 84.2 36.9 84.2 32.3C84.2 27.2 80.1 23.1 75 23.1C69.9 23.1 65.8 27.2 65.8 32.3C65.8 36.9 69.2 40.7 73.5 41.4ZM75 26.2C78.4 26.2 81.2 29 81.2 32.4C81.2 35.8 78.4 38.6 75 38.6C71.6 38.6 68.8 35.8 68.8 32.4C68.8 29 71.6 26.2 75 26.2Z" fill="white"/>
<path d="M35.3 41.5V59.2999C35.3 63.3999 38.7 66.8 42.8 66.8H69C71.5 66.8 73.5 68.8 73.5 71.3V93.7L67.3 87.5L65.2 89.5999L75 99.3999L84.8 89.5999L82.7 87.5L76.6 93.5999V71.1999C76.6 67.0999 73.2 63.7 69.1 63.7H42.8C40.3 63.7 38.3 61.7 38.3 59.2V41.4C42.5 40.5 45.6 36.8 45.6 32.4C45.6 27.3 41.5 23.2 36.4 23.2C31.3 23.2 27.2 27.3 27.2 32.4C27.3 37 30.8 40.9 35.3 41.5ZM36.4 26.2C39.8 26.2 42.6 29 42.6 32.4C42.6 35.8 39.8 38.5999 36.4 38.5999C33 38.5999 30.2 35.8 30.2 32.4C30.2 29 33 26.2 36.4 26.2Z" fill="white"/>
<path d="M91.8 98.7V101.7H121.5V118.1C121.5 121.3 118.9 123.9 115.7 123.9H34.2C31 123.9 28.4 121.3 28.4 118.1V101.7H58.1V98.7H25.4V118.1C25.4 122.9 29.3 126.9 34.2 126.9H115.8C120.6 126.9 124.6 123 124.6 118.1V98.7H91.8Z" fill="white"/>
<path d="M72.9 112.8C72.9 114 73.8 114.9 75 114.9C76.2 114.9 77.1 114 77.1 112.8C77.1 111.6 76.2 110.7 75 110.7C73.8 110.6 72.9 111.6 72.9 112.8Z" fill="white"/>
<path d="M64.2 112.8C64.2 114 65.1 114.9 66.3 114.9C67.5 114.9 68.4 114 68.4 112.8C68.4 111.6 67.5 110.7 66.3 110.7C65.1 110.6 64.2 111.6 64.2 112.8Z" fill="white"/>
<path d="M114.2 111.3H83.7V114.3H114.2V111.3Z" fill="white"/>
</svg>
