<svg width="1024" height="558" viewBox="0 0 1024 558" fill="none" xmlns="http://www.w3.org/2000/svg">
<g filter="url(#filter0_dddddd_1117_12737)">
<path d="M148 116.336C148 77.4903 179.49 46 218.336 46H339.664C378.51 46 410 77.4903 410 116.336V237.664C410 276.51 378.51 308 339.664 308H218.336C179.49 308 148 276.51 148 237.664V116.336Z" fill="white"/>
</g>
<path d="M211.502 126.375C211.502 135.695 219.057 143.25 228.377 143.25V143.25C237.697 143.25 245.252 135.695 245.252 126.375V126.375C245.252 117.055 237.697 109.5 228.377 109.5V109.5C219.057 109.5 211.502 117.055 211.502 126.375V126.375Z" fill="#FF5F46"/>
<path d="M312.752 177C312.752 186.32 320.307 193.875 329.627 193.875V193.875C338.947 193.875 346.502 186.32 346.502 177V177C346.502 167.68 338.947 160.125 329.627 160.125V160.125C320.307 160.125 312.752 167.68 312.752 177V177Z" fill="#FF5F46"/>
<path d="M211.502 227.625C211.502 236.945 219.057 244.5 228.377 244.5V244.5C237.697 244.5 245.252 236.945 245.252 227.625V227.625C245.252 218.305 237.697 210.75 228.377 210.75V210.75C219.057 210.75 211.502 218.305 211.502 227.625V227.625Z" fill="#FF5F46"/>
<path d="M259.059 143.25L346.502 143.25L346.502 109.5L259.059 109.5L259.059 143.25Z" fill="#FABFBA"/>
<rect width="87.4432" height="33.75" transform="matrix(1 8.20662e-08 9.31289e-08 -1 211.502 193.875)" fill="#FABFBA"/>
<rect width="87.4432" height="33.75" transform="matrix(1 8.36077e-08 9.515e-08 -1 259.059 244.5)" fill="#FABFBA"/>
<path d="M481.838 214.5V137.22H495.086L532.291 193.082V137.22H545.539V214.5H532.291L495.086 158.748V214.5H481.838ZM583.271 215.825C577.972 215.825 573.188 214.61 568.919 212.182C564.724 209.679 561.412 206.257 558.983 201.914C556.628 197.498 555.45 192.457 555.45 186.79C555.45 180.975 556.665 175.897 559.093 171.554C561.522 167.138 564.834 163.716 569.029 161.287C573.298 158.785 578.082 157.534 583.381 157.534C588.681 157.534 593.428 158.785 597.623 161.287C601.892 163.716 605.204 167.102 607.559 171.444C609.988 175.786 611.202 180.865 611.202 186.679C611.202 192.494 609.988 197.572 607.559 201.914C605.13 206.257 601.781 209.679 597.513 212.182C593.317 214.61 588.57 215.825 583.271 215.825ZM583.271 204.454C585.921 204.454 588.313 203.791 590.447 202.466C592.655 201.142 594.421 199.154 595.746 196.505C597.071 193.855 597.733 190.58 597.733 186.679C597.733 182.778 597.071 179.54 595.746 176.964C594.495 174.314 592.765 172.327 590.557 171.002C588.423 169.678 586.031 169.015 583.381 169.015C580.805 169.015 578.413 169.678 576.205 171.002C573.997 172.327 572.231 174.314 570.906 176.964C569.581 179.54 568.919 182.778 568.919 186.679C568.919 190.58 569.581 193.855 570.906 196.505C572.231 199.154 573.961 201.142 576.095 202.466C578.303 203.791 580.695 204.454 583.271 204.454ZM642.88 214.5C639.126 214.5 635.851 213.911 633.054 212.734C630.331 211.556 628.197 209.606 626.651 206.882C625.106 204.159 624.333 200.479 624.333 195.842V170.009H614.838V158.858H624.333L625.878 144.175H637.581V158.858H652.706V170.009H637.581V195.842C637.581 198.639 638.17 200.59 639.347 201.694C640.598 202.724 642.659 203.239 645.53 203.239H652.374V214.5H642.88ZM686.511 215.825C680.991 215.825 676.133 214.647 671.938 212.292C667.743 209.863 664.467 206.478 662.112 202.135C659.757 197.793 658.579 192.788 658.579 187.121C658.579 181.233 659.72 176.081 662.002 171.665C664.357 167.249 667.632 163.79 671.827 161.287C676.096 158.785 681.027 157.534 686.621 157.534C692.067 157.534 696.815 158.748 700.863 161.177C704.911 163.606 708.039 166.881 710.247 171.002C712.455 175.05 713.559 179.614 713.559 184.692C713.559 185.428 713.559 186.238 713.559 187.121C713.559 188.004 713.485 188.924 713.338 189.881H668.074V181.38H700.2C700.053 177.332 698.691 174.167 696.115 171.886C693.539 169.53 690.338 168.353 686.511 168.353C683.787 168.353 681.285 168.978 679.003 170.23C676.722 171.481 674.919 173.358 673.594 175.86C672.269 178.289 671.607 181.38 671.607 185.134V188.335C671.607 191.794 672.232 194.775 673.483 197.278C674.808 199.78 676.575 201.694 678.783 203.018C681.064 204.27 683.603 204.895 686.4 204.895C689.491 204.895 692.031 204.233 694.018 202.908C696.079 201.583 697.587 199.817 698.544 197.609H712.013C710.983 201.068 709.29 204.196 706.935 206.993C704.579 209.716 701.672 211.887 698.213 213.506C694.754 215.052 690.853 215.825 686.511 215.825ZM754.274 215.825C751.33 215.825 748.68 215.42 746.325 214.61C743.97 213.874 741.909 212.844 740.142 211.519C738.376 210.121 736.904 208.538 735.726 206.772L734.291 214.5H722.478V135.012H735.726V167.028C737.493 164.305 739.885 162.06 742.902 160.294C745.92 158.454 749.674 157.534 754.163 157.534C759.389 157.534 763.989 158.822 767.963 161.398C772.011 163.9 775.176 167.359 777.458 171.775C779.813 176.118 780.99 181.122 780.99 186.79C780.99 192.31 779.85 197.278 777.568 201.694C775.286 206.11 772.122 209.569 768.074 212.071C764.099 214.574 759.499 215.825 754.274 215.825ZM751.514 204.343C754.605 204.343 757.365 203.607 759.794 202.135C762.222 200.59 764.099 198.529 765.424 195.953C766.822 193.303 767.522 190.212 767.522 186.679C767.522 183.22 766.822 180.166 765.424 177.516C764.099 174.866 762.222 172.806 759.794 171.334C757.365 169.862 754.605 169.126 751.514 169.126C748.349 169.126 745.552 169.862 743.123 171.334C740.768 172.806 738.891 174.866 737.493 177.516C736.168 180.166 735.506 183.22 735.506 186.679C735.506 190.212 736.168 193.303 737.493 195.953C738.891 198.529 740.768 200.59 743.123 202.135C745.552 203.607 748.349 204.343 751.514 204.343ZM816.482 215.825C811.183 215.825 806.399 214.61 802.13 212.182C797.935 209.679 794.623 206.257 792.194 201.914C789.839 197.498 788.662 192.457 788.662 186.79C788.662 180.975 789.876 175.897 792.305 171.554C794.734 167.138 798.046 163.716 802.241 161.287C806.51 158.785 811.294 157.534 816.593 157.534C821.892 157.534 826.639 158.785 830.834 161.287C835.103 163.716 838.415 167.102 840.77 171.444C843.199 175.786 844.414 180.865 844.414 186.679C844.414 192.494 843.199 197.572 840.77 201.914C838.342 206.257 834.993 209.679 830.724 212.182C826.529 214.61 821.782 215.825 816.482 215.825ZM816.482 204.454C819.132 204.454 821.524 203.791 823.658 202.466C825.866 201.142 827.633 199.154 828.958 196.505C830.282 193.855 830.945 190.58 830.945 186.679C830.945 182.778 830.282 179.54 828.958 176.964C827.706 174.314 825.977 172.327 823.769 171.002C821.634 169.678 819.242 169.015 816.593 169.015C814.017 169.015 811.625 169.678 809.417 171.002C807.209 172.327 805.442 174.314 804.118 176.964C802.793 179.54 802.13 182.778 802.13 186.679C802.13 190.58 802.793 193.855 804.118 196.505C805.442 199.154 807.172 201.142 809.306 202.466C811.514 203.791 813.906 204.454 816.482 204.454ZM880.014 215.825C874.715 215.825 869.931 214.61 865.662 212.182C861.467 209.679 858.155 206.257 855.726 201.914C853.371 197.498 852.193 192.457 852.193 186.79C852.193 180.975 853.408 175.897 855.837 171.554C858.265 167.138 861.577 163.716 865.773 161.287C870.041 158.785 874.825 157.534 880.125 157.534C885.424 157.534 890.171 158.785 894.366 161.287C898.635 163.716 901.947 167.102 904.302 171.444C906.731 175.786 907.945 180.865 907.945 186.679C907.945 192.494 906.731 197.572 904.302 201.914C901.873 206.257 898.525 209.679 894.256 212.182C890.061 214.61 885.313 215.825 880.014 215.825ZM880.014 204.454C882.664 204.454 885.056 203.791 887.19 202.466C889.398 201.142 891.165 199.154 892.489 196.505C893.814 193.855 894.477 190.58 894.477 186.679C894.477 182.778 893.814 179.54 892.489 176.964C891.238 174.314 889.509 172.327 887.301 171.002C885.166 169.678 882.774 169.015 880.125 169.015C877.549 169.015 875.157 169.678 872.949 171.002C870.741 172.327 868.974 174.314 867.649 176.964C866.325 179.54 865.662 182.778 865.662 186.679C865.662 190.58 866.325 193.855 867.649 196.505C868.974 199.154 870.704 201.142 872.838 202.466C875.046 203.791 877.438 204.454 880.014 204.454ZM953.482 214.5L928.863 184.03L950.943 158.858H966.73L939.24 189.439V179.172L970.042 214.5H953.482ZM917.602 214.5V135.012H930.85V214.5H917.602ZM995.022 215.825C990.091 215.825 985.786 215.052 982.106 213.506C978.499 211.887 975.629 209.679 973.494 206.882C971.434 204.012 970.219 200.737 969.851 197.057H983.099C983.467 198.602 984.13 200.038 985.086 201.362C986.043 202.614 987.331 203.607 988.95 204.343C990.643 205.079 992.63 205.447 994.912 205.447C997.12 205.447 998.923 205.153 1000.32 204.564C1001.72 203.902 1002.75 203.055 1003.41 202.025C1004.08 200.994 1004.41 199.89 1004.41 198.713C1004.41 196.946 1003.93 195.585 1002.97 194.628C1002.01 193.671 1000.62 192.935 998.776 192.42C997.01 191.831 994.875 191.279 992.373 190.764C989.723 190.249 987.147 189.623 984.645 188.887C982.216 188.078 980.008 187.084 978.021 185.906C976.107 184.729 974.562 183.22 973.384 181.38C972.28 179.54 971.728 177.295 971.728 174.646C971.728 171.407 972.574 168.5 974.267 165.924C976.034 163.348 978.536 161.324 981.774 159.852C985.086 158.306 989.024 157.534 993.587 157.534C1000.06 157.534 1005.22 159.042 1009.04 162.06C1012.94 165.004 1015.23 169.162 1015.89 174.535H1003.3C1002.93 172.474 1001.9 170.892 1000.21 169.788C998.518 168.61 996.274 168.022 993.477 168.022C990.606 168.022 988.398 168.574 986.853 169.678C985.381 170.708 984.645 172.106 984.645 173.873C984.645 174.977 985.086 176.007 985.97 176.964C986.926 177.847 988.288 178.62 990.054 179.282C991.821 179.871 993.992 180.46 996.568 181.049C1000.69 181.858 1004.33 182.815 1007.5 183.919C1010.66 185.023 1013.16 186.642 1015 188.777C1016.84 190.911 1017.76 193.929 1017.76 197.83C1017.84 201.362 1016.92 204.49 1015 207.214C1013.16 209.937 1010.55 212.071 1007.17 213.617C1003.78 215.089 999.733 215.825 995.022 215.825Z" fill="white"/>
<defs>
<filter id="filter0_dddddd_1117_12737" x="0.713516" y="0.681084" width="556.573" height="556.573" filterUnits="userSpaceOnUse" color-interpolation-filters="sRGB">
<feFlood flood-opacity="0" result="BackgroundImageFix"/>
<feColorMatrix in="SourceAlpha" type="matrix" values="0 0 0 0 0 0 0 0 0 0 0 0 0 0 0 0 0 0 127 0" result="hardAlpha"/>
<feOffset dy="2.83243"/>
<feGaussianBlur stdDeviation="2.12432"/>
<feColorMatrix type="matrix" values="0 0 0 0 0.105882 0 0 0 0 0.192157 0 0 0 0 0.223529 0 0 0 0.0196802 0"/>
<feBlend mode="normal" in2="BackgroundImageFix" result="effect1_dropShadow_1117_12737"/>
<feColorMatrix in="SourceAlpha" type="matrix" values="0 0 0 0 0 0 0 0 0 0 0 0 0 0 0 0 0 0 127 0" result="hardAlpha"/>
<feOffset dy="5.66487"/>
<feGaussianBlur stdDeviation="5.66487"/>
<feColorMatrix type="matrix" values="0 0 0 0 0.105882 0 0 0 0 0.192157 0 0 0 0 0.223529 0 0 0 0.04 0"/>
<feBlend mode="normal" in2="effect1_dropShadow_1117_12737" result="effect2_dropShadow_1117_12737"/>
<feColorMatrix in="SourceAlpha" type="matrix" values="0 0 0 0 0 0 0 0 0 0 0 0 0 0 0 0 0 0 127 0" result="hardAlpha"/>
<feOffset dy="12.7459"/>
<feGaussianBlur stdDeviation="9.20541"/>
<feColorMatrix type="matrix" values="0 0 0 0 0.105882 0 0 0 0 0.192157 0 0 0 0 0.223529 0 0 0 0.035 0"/>
<feBlend mode="normal" in2="effect2_dropShadow_1117_12737" result="effect3_dropShadow_1117_12737"/>
<feColorMatrix in="SourceAlpha" type="matrix" values="0 0 0 0 0 0 0 0 0 0 0 0 0 0 0 0 0 0 127 0" result="hardAlpha"/>
<feOffset dy="22.6595"/>
<feGaussianBlur stdDeviation="16.9946"/>
<feColorMatrix type="matrix" values="0 0 0 0 0.105882 0 0 0 0 0.192157 0 0 0 0 0.223529 0 0 0 0.04 0"/>
<feBlend mode="normal" in2="effect3_dropShadow_1117_12737" result="effect4_dropShadow_1117_12737"/>
<feColorMatrix in="SourceAlpha" type="matrix" values="0 0 0 0 0 0 0 0 0 0 0 0 0 0 0 0 0 0 127 0" result="hardAlpha"/>
<feOffset dy="45.3189"/>
<feGaussianBlur stdDeviation="28.3243"/>
<feColorMatrix type="matrix" values="0 0 0 0 0.105882 0 0 0 0 0.192157 0 0 0 0 0.223529 0 0 0 0.0503198 0"/>
<feBlend mode="normal" in2="effect4_dropShadow_1117_12737" result="effect5_dropShadow_1117_12737"/>
<feColorMatrix in="SourceAlpha" type="matrix" values="0 0 0 0 0 0 0 0 0 0 0 0 0 0 0 0 0 0 127 0" result="hardAlpha"/>
<feOffset dy="101.968"/>
<feGaussianBlur stdDeviation="73.6432"/>
<feColorMatrix type="matrix" values="0 0 0 0 0.105882 0 0 0 0 0.192157 0 0 0 0 0.223529 0 0 0 0.07 0"/>
<feBlend mode="normal" in2="effect5_dropShadow_1117_12737" result="effect6_dropShadow_1117_12737"/>
<feBlend mode="normal" in="SourceGraphic" in2="effect6_dropShadow_1117_12737" result="shape"/>
</filter>
</defs>
</svg>
