<svg width="150" height="150" viewBox="0 0 150 150" fill="none" xmlns="http://www.w3.org/2000/svg">
<g clip-path="url(#clip0_3305_2138)">
<path d="M90.99 75C90.99 75.66 90.95 76.31 90.88 76.95C89.92 85.07 83.01 91.36 74.64 91.36C65.61 91.36 58.28 84.04 58.28 75C58.28 65.96 65.6 58.64 74.64 58.64C80.71 58.64 86 61.94 88.83 66.85L73.15 82.53L66.83 76.21" stroke="#1B3139" stroke-width="3" stroke-miterlimit="3"/>
<path d="M48.92 42.18L52.8 38.3L64.11 49.61V33.61H85.14V49.61L96.45 38.3L103.65 45.5L120.32 28.83C116.6 25.11 116.6 19.07 120.32 15.35C124.04 11.63 130.08 11.63 133.8 15.35C137.52 19.07 137.52 25.11 133.8 28.83C131.71 30.92 128.9 31.83 126.18 31.58" stroke="#1B3139" stroke-width="3" stroke-miterlimit="3"/>
<path d="M107.18 49.03L111.32 53.17L100.01 64.49H116.01V85.51H100.01L111.32 96.83L103.78 104.03L125.01 125.25L127.07 121.69L135.82 136.86H118.31L122.53 129.54" stroke="#1B3139" stroke-width="3" stroke-miterlimit="3"/>
<path d="M100.69 107.45L96.45 111.69L85.14 100.38V116.38H64.11V100.38L52.8 111.69L45.14 104.03L28.86 120.3H12.18V136.99H28.86V125.69" stroke="#1B3139" stroke-width="3" stroke-miterlimit="3"/>
<path d="M28.86 24.76V12.42H12.18V29.11H28.86L45.26 45.51L37.93 53.17L49.24 64.49H33.25V85.51H49.24L37.93 96.83L41.95 100.84" stroke="#1B3139" stroke-width="3" stroke-miterlimit="3"/>
<path d="M135.37 70.04L130.41 75L125.45 70.04" stroke="#1B3139" stroke-width="3" stroke-miterlimit="3"/>
<path d="M13.89 79.96L18.85 75L23.81 79.96" stroke="#1B3139" stroke-width="3" stroke-miterlimit="3"/>
<path d="M34.98 114.23C25.01 104.15 18.85 90.3 18.85 75" stroke="#1B3139" stroke-width="3" stroke-miterlimit="3"/>
<path d="M128.96 87.6899C123.22 112.38 101.07 130.78 74.63 130.78C61.79 130.78 49.95 126.44 40.53 119.14" stroke="#1B3139" stroke-width="3" stroke-miterlimit="3"/>
<path d="M113.45 34.95C123.91 45.09 130.41 59.29 130.41 75" stroke="#1B3139" stroke-width="3" stroke-miterlimit="3"/>
<path d="M20.3 62.31C26.04 37.62 48.19 19.22 74.63 19.22C87.47 19.22 99.31 23.56 108.73 30.86" stroke="#1B3139" stroke-width="3" stroke-miterlimit="3"/>
</g>
<defs>
<clipPath id="clip0_3305_2138">
<rect width="150" height="150" fill="white"/>
</clipPath>
</defs>
</svg>
