<svg width="150" height="150" viewBox="0 0 150 150" fill="none" xmlns="http://www.w3.org/2000/svg">
<path d="M58.84 53.13C58.8387 54.1263 59.0337 55.113 59.4141 56.0338C59.7944 56.9546 60.3526 57.7914 61.0566 58.4963C61.7606 59.2013 62.5966 59.7605 63.5169 60.142C64.4372 60.5236 65.4237 60.72 66.42 60.72H83.58C85.4211 60.7278 87.2022 60.0651 88.5905 58.8559C89.9789 57.6466 90.8797 55.9733 91.1246 54.1485C91.3695 52.3237 90.9419 50.4721 89.9216 48.9395C88.9013 47.4069 87.358 46.298 85.58 45.82L87.58 43.89L85.52 41.72L75 51.7L64.49 41.7L62.43 43.87L64.43 45.8C62.8229 46.239 61.4049 47.1945 60.3947 48.5192C59.3845 49.8438 58.8382 51.4641 58.84 53.13ZM66.42 48.55H67.33L75 55.85L82.67 48.55H83.58C84.759 48.6051 85.8714 49.1122 86.6863 49.966C87.5011 50.8198 87.9558 51.9547 87.9558 53.135C87.9558 54.3153 87.5011 55.4502 86.6863 56.304C85.8714 57.1578 84.759 57.6649 83.58 57.72H66.42C65.241 57.6649 64.1285 57.1578 63.3137 56.304C62.4988 55.4502 62.0442 54.3153 62.0442 53.135C62.0442 51.9547 62.4988 50.8198 63.3137 49.966C64.1285 49.1122 65.241 48.6051 66.42 48.55Z" fill="#FF5F46"/>
<path d="M81.99 66.21H68.01V69.21H81.99V66.21Z" fill="#FF5F46"/>
<path d="M58.84 112.78C58.84 115.976 59.7877 119.101 61.5634 121.758C63.3391 124.416 65.8629 126.487 68.8158 127.71C71.7687 128.933 75.0179 129.253 78.1526 128.629C81.2874 128.006 84.1668 126.467 86.4268 124.207C88.6868 121.947 90.2259 119.067 90.8495 115.933C91.473 112.798 91.153 109.549 89.9299 106.596C88.7067 103.643 86.6355 101.119 83.978 99.3434C81.3205 97.5678 78.1961 96.62 75 96.62C70.7157 96.6253 66.6084 98.3296 63.579 101.359C60.5495 104.388 58.8453 108.496 58.84 112.78ZM88.16 112.78C88.16 115.383 87.3881 117.927 85.9421 120.091C84.4961 122.255 82.4408 123.942 80.0361 124.938C77.6314 125.934 74.9854 126.195 72.4326 125.687C69.8798 125.179 67.5349 123.926 65.6944 122.086C63.854 120.245 62.6006 117.9 62.0928 115.347C61.585 112.795 61.8457 110.149 62.8417 107.744C63.8378 105.339 65.5245 103.284 67.6887 101.838C69.8528 100.392 72.3972 99.62 75 99.62C78.4894 99.6226 81.8352 101.01 84.3026 103.477C86.77 105.945 88.1573 109.291 88.16 112.78Z" fill="#FF5F46"/>
<path d="M28.9 84.16C27.1592 84.1627 25.4907 84.856 24.2607 86.0878C23.0308 87.3197 22.34 88.9893 22.34 90.73V94.32C22.3532 106.798 27.3152 118.761 36.1375 127.585C44.9598 136.41 56.922 141.374 69.4 141.39V138.39C57.7169 138.377 46.5162 133.729 38.2559 125.467C29.9957 117.205 25.3506 106.003 25.34 94.32V90.73C25.34 89.7849 25.7147 88.8784 26.3821 88.2092C27.0494 87.5399 27.9549 87.1627 28.9 87.16H41.55V98.16H44.55V87.16H50.11V98.16H53.11V87.16H67.79V78.3H75V75.3H53.11V53.41C53.11 47.6044 55.4162 42.0366 59.5214 37.9314C63.6266 33.8263 69.1944 31.52 75 31.52C80.8056 31.52 86.3734 33.8263 90.4785 37.9314C94.5837 42.0366 96.89 47.6044 96.89 53.41V75.3H82.52V87.16H97.21V98.16H100.21V87.16H105.45V98.16H108.45V87.16H121.1C122.045 87.1627 122.951 87.5399 123.618 88.2092C124.285 88.8784 124.66 89.7849 124.66 90.73V94.32C124.649 106.003 120.004 117.205 111.744 125.467C103.484 133.729 92.2831 138.377 80.6 138.39V141.39C93.0779 141.374 105.04 136.41 113.862 127.585C122.685 118.761 127.647 106.798 127.66 94.32V90.73C127.66 88.9893 126.969 87.3197 125.739 86.0878C124.509 84.856 122.841 84.1627 121.1 84.16H85.52V78.3H99.89V67.94H108.45V52.77H99.88C99.7078 46.4256 97.1215 40.3859 92.6485 35.8832C88.1756 31.3805 82.1531 28.7542 75.81 28.54L73.52 23L79 19.74L75.22 8.61L72.38 9.61L75.38 18.43L69.75 21.72L72.59 28.66C66.553 29.2584 60.9411 32.0366 56.8051 36.4746C52.669 40.9126 50.2923 46.7059 50.12 52.77H41.55V67.94H50.11V78.3H64.79V84.16H28.9ZM105.45 64.94H99.89V55.77H105.45V64.94ZM44.55 64.94V55.77H50.11V64.94H44.55Z" fill="#FF5F46"/>
<path d="M98.71 108.35C100.074 108.35 101.18 107.244 101.18 105.88C101.18 104.516 100.074 103.41 98.71 103.41C97.3458 103.41 96.24 104.516 96.24 105.88C96.24 107.244 97.3458 108.35 98.71 108.35Z" fill="#FF5F46"/>
<path d="M106.95 108.35C108.314 108.35 109.42 107.244 109.42 105.88C109.42 104.516 108.314 103.41 106.95 103.41C105.586 103.41 104.48 104.516 104.48 105.88C104.48 107.244 105.586 108.35 106.95 108.35Z" fill="#FF5F46"/>
</svg>
