<svg width="150" height="150" viewBox="0 0 150 150" fill="none" xmlns="http://www.w3.org/2000/svg">
<path d="M58.84 53.13C58.8387 54.1262 59.0338 55.113 59.4141 56.0338C59.7945 56.9546 60.3526 57.7914 61.0566 58.4963C61.7606 59.2012 62.5967 59.7604 63.517 60.142C64.4373 60.5236 65.4237 60.72 66.42 60.72H83.58C85.4212 60.7277 87.2022 60.0651 88.5906 58.8558C89.9789 57.6465 90.8797 55.9732 91.1246 54.1484C91.3696 52.3236 90.942 50.472 89.9216 48.9394C88.9013 47.4068 87.358 46.298 85.58 45.82L87.58 43.8899L85.52 41.72L75 51.7L64.49 41.7L62.43 43.8699L64.43 45.7999C62.823 46.2389 61.405 47.1944 60.3948 48.5191C59.3845 49.8438 58.8382 51.464 58.84 53.13V53.13ZM66.42 48.5499H67.33L75 55.8499L82.67 48.5499H83.58C84.759 48.605 85.8714 49.1121 86.6863 49.966C87.5012 50.8198 87.9558 51.9547 87.9558 53.1349C87.9558 54.3152 87.5012 55.4501 86.6863 56.3039C85.8714 57.1578 84.759 57.6649 83.58 57.72H66.42C65.241 57.6649 64.1286 57.1578 63.3137 56.3039C62.4988 55.4501 62.0442 54.3152 62.0442 53.1349C62.0442 51.9547 62.4988 50.8198 63.3137 49.966C64.1286 49.1121 65.241 48.605 66.42 48.5499Z" fill="white"/>
<path d="M81.99 66.21H68.01V69.21H81.99V66.21Z" fill="white"/>
<path d="M58.84 112.78C58.84 115.976 59.7878 119.101 61.5634 121.758C63.3391 124.416 65.863 126.487 68.8158 127.71C71.7687 128.933 75.0179 129.253 78.1527 128.63C81.2874 128.006 84.1668 126.467 86.4268 124.207C88.6869 121.947 90.2259 119.068 90.8495 115.933C91.473 112.798 91.153 109.549 89.9299 106.596C88.7068 103.643 86.6355 101.119 83.978 99.3436C81.3205 97.5679 78.1961 96.6201 75 96.6201C70.7157 96.6254 66.6084 98.3297 63.579 101.359C60.5496 104.389 58.8453 108.496 58.84 112.78V112.78ZM88.16 112.78C88.16 115.383 87.3882 117.927 85.9421 120.091C84.4961 122.256 82.4408 123.942 80.0361 124.938C77.6314 125.934 74.9854 126.195 72.4326 125.687C69.8798 125.179 67.5349 123.926 65.6945 122.086C63.854 120.245 62.6006 117.9 62.0929 115.348C61.5851 112.795 61.8457 110.149 62.8417 107.744C63.8378 105.339 65.5245 103.284 67.6887 101.838C69.8528 100.392 72.3972 99.6201 75 99.6201C78.4894 99.6228 81.8352 101.01 84.3026 103.478C86.77 105.945 88.1574 109.291 88.16 112.78V112.78Z" fill="white"/>
<path d="M28.9 84.1601C27.1593 84.1628 25.4907 84.8561 24.2608 86.0879C23.0308 87.3198 22.34 88.9894 22.34 90.7301V94.3201C22.3532 106.798 27.3152 118.761 36.1376 127.585C44.9599 136.41 56.9221 141.374 69.4 141.39V138.39C57.7169 138.377 46.5162 133.729 38.256 125.467C29.9957 117.205 25.3506 106.003 25.34 94.3201V90.7301C25.34 89.785 25.7147 88.8785 26.3821 88.2093C27.0494 87.54 27.9549 87.1628 28.9 87.1601H41.55V98.1601H44.55V87.1601H50.11V98.1601H53.11V87.1601H67.79V78.3001H75V75.3001H53.11V53.4101C53.11 47.6045 55.4163 42.0367 59.5214 37.9315C63.6266 33.8264 69.1944 31.5201 75 31.5201C80.8056 31.5201 86.3734 33.8264 90.4786 37.9315C94.5837 42.0367 96.89 47.6045 96.89 53.4101V75.3001H82.52V87.1601H97.21V98.1601H100.21V87.1601H105.45V98.1601H108.45V87.1601H121.1C122.045 87.1628 122.951 87.54 123.618 88.2093C124.285 88.8785 124.66 89.785 124.66 90.7301V94.3201C124.649 106.003 120.004 117.205 111.744 125.467C103.484 133.729 92.2831 138.377 80.6 138.39V141.39C93.0779 141.374 105.04 136.41 113.862 127.585C122.685 118.761 127.647 106.798 127.66 94.3201V90.7301C127.66 88.9894 126.969 87.3198 125.739 86.0879C124.509 84.8561 122.841 84.1628 121.1 84.1601H85.52V78.3001H99.89V67.9401H108.45V52.7701H99.88C99.7079 46.4257 97.1215 40.386 92.6485 35.8833C88.1756 31.3806 82.1531 28.7543 75.81 28.5401L73.52 23.0001L79 19.7401L75.22 8.61011L72.38 9.61011L75.38 18.4301L69.75 21.7201L72.59 28.6601C66.553 29.2585 60.9412 32.0367 56.8051 36.4747C52.669 40.9127 50.2923 46.706 50.12 52.7701H41.55V67.9401H50.11V78.3001H64.79V84.1601H28.9ZM105.45 64.9401H99.89V55.7701H105.45V64.9401ZM44.55 64.9401V55.7701H50.11V64.9401H44.55Z" fill="white"/>
<path d="M98.71 108.35C100.074 108.35 101.18 107.244 101.18 105.88C101.18 104.516 100.074 103.41 98.71 103.41C97.3458 103.41 96.24 104.516 96.24 105.88C96.24 107.244 97.3458 108.35 98.71 108.35Z" fill="white"/>
<path d="M106.95 108.35C108.314 108.35 109.42 107.244 109.42 105.88C109.42 104.516 108.314 103.41 106.95 103.41C105.586 103.41 104.48 104.516 104.48 105.88C104.48 107.244 105.586 108.35 106.95 108.35Z" fill="white"/>
</svg>
