<svg width="150" height="150" viewBox="0 0 150 150" fill="none" xmlns="http://www.w3.org/2000/svg">
<path d="M127.11 120.78L118.32 111.99V41.24L92.15 15.16H88.96V39.11C88.96 43.47 92.51 47.02 96.87 47.02H109.21V44.02H96.88C94.17 44.02 91.97 41.82 91.97 39.11V19.21L115.33 42.49V113.24L125 122.91C125.98 123.89 126.53 125.21 126.53 126.61C126.53 128.01 125.99 129.33 125.01 130.31C122.96 132.35 119.64 132.35 117.6 130.31L108.37 121.08L102 114.71L111.53 105.18L102.78 96.43L97.95 101.26L92.38 95.69C96.27 91.31 98.4 85.74 98.4 79.84C98.4 66.69 87.7 56 74.55 56C61.4 56 50.68 66.71 50.68 79.86C50.68 93.01 61.38 103.71 74.53 103.71C78.33 103.71 81.96 102.84 85.31 101.13L83.95 98.46C81.02 99.95 77.86 100.71 74.53 100.71C63.03 100.71 53.68 91.36 53.68 79.86C53.68 68.37 63.03 59.02 74.53 59.02C86.03 59.02 95.38 68.37 95.38 79.86C95.38 85.45 93.19 90.71 89.21 94.67L88.14 95.73L95.81 103.39L92.17 107.03L91.11 108.1L97.73 114.72L91.8 120.65H38.39C35.68 120.65 33.48 118.45 33.48 115.74V23.07C33.48 20.36 35.68 18.16 38.39 18.16H83.19V15.16H38.39C34.03 15.16 30.48 18.71 30.48 23.07V115.73C30.48 120.09 34.03 123.64 38.39 123.64H93.05L99.86 116.83L106.23 123.2L115.46 132.43C117.06 134.03 119.17 134.83 121.28 134.83C123.39 134.83 125.5 134.03 127.11 132.43C128.66 130.88 129.52 128.81 129.52 126.6C129.52 124.4 128.67 122.33 127.11 120.78ZM95.36 108.09L102.77 100.68L107.27 105.18L99.86 112.59L95.36 108.09Z" fill="#FF5F46"/>
<path d="M61.4399 79.86C61.4399 87.08 67.3099 92.96 74.5299 92.96C81.7499 92.96 87.6299 87.09 87.6299 79.86C87.6299 72.63 81.7499 66.76 74.5299 66.76C67.3099 66.76 61.4399 72.64 61.4399 79.86ZM84.6299 79.86C84.6299 85.43 80.0999 89.96 74.5299 89.96C68.9599 89.96 64.4399 85.43 64.4399 79.86C64.4399 74.29 68.9699 69.76 74.5299 69.76C80.0899 69.76 84.6299 74.29 84.6299 79.86Z" fill="#FF5F46"/>
</svg>
