<svg width="150" height="150" viewBox="0 0 150 150" fill="none" xmlns="http://www.w3.org/2000/svg">
<path d="M127.11 120.78L118.32 111.99V41.2399L92.15 15.1599H88.96V39.1099C88.96 43.4699 92.51 47.0199 96.87 47.0199H109.21V44.0199H96.88C94.17 44.0199 91.97 41.8199 91.97 39.1099V19.2099L115.33 42.4899V113.24L125 122.91C125.98 123.89 126.53 125.21 126.53 126.61C126.53 128.01 125.99 129.33 125.01 130.31C122.96 132.35 119.64 132.35 117.6 130.31L108.37 121.08L102 114.71L111.53 105.18L102.78 96.4299L97.95 101.26L92.38 95.6899C96.27 91.3099 98.4 85.7399 98.4 79.8399C98.4 66.6899 87.7 55.9999 74.55 55.9999C61.4 55.9999 50.68 66.7099 50.68 79.8599C50.68 93.0099 61.38 103.71 74.53 103.71C78.33 103.71 81.96 102.84 85.31 101.13L83.95 98.4599C81.02 99.9499 77.86 100.71 74.53 100.71C63.03 100.71 53.68 91.3599 53.68 79.8599C53.68 68.3699 63.03 59.0199 74.53 59.0199C86.03 59.0199 95.38 68.3699 95.38 79.8599C95.38 85.4499 93.19 90.7099 89.21 94.6699L88.14 95.7299L95.81 103.39L92.17 107.03L91.11 108.1L97.73 114.72L91.8 120.65H38.39C35.68 120.65 33.48 118.45 33.48 115.74V23.0699C33.48 20.3599 35.68 18.1599 38.39 18.1599H83.19V15.1599H38.39C34.03 15.1599 30.48 18.7099 30.48 23.0699V115.73C30.48 120.09 34.03 123.64 38.39 123.64H93.05L99.86 116.83L106.23 123.2L115.46 132.43C117.06 134.03 119.17 134.83 121.28 134.83C123.39 134.83 125.5 134.03 127.11 132.43C128.66 130.88 129.52 128.81 129.52 126.6C129.52 124.4 128.67 122.33 127.11 120.78ZM95.36 108.09L102.77 100.68L107.27 105.18L99.86 112.59L95.36 108.09Z" fill="#1B3139"/>
<path d="M61.44 79.86C61.44 87.08 67.31 92.96 74.53 92.96C81.75 92.96 87.63 87.09 87.63 79.86C87.63 72.63 81.75 66.76 74.53 66.76C67.31 66.76 61.44 72.64 61.44 79.86ZM84.63 79.86C84.63 85.43 80.1 89.96 74.53 89.96C68.96 89.96 64.44 85.43 64.44 79.86C64.44 74.29 68.97 69.76 74.53 69.76C80.09 69.76 84.63 74.29 84.63 79.86Z" fill="#1B3139"/>
</svg>
