<svg width="150" height="150" viewBox="0 0 150 150" fill="none" xmlns="http://www.w3.org/2000/svg">
<path d="M80.53 13.0101L75 1.83008L69.48 13.0101L57.13 14.8001L66.07 23.5201L64.39 33.0301L67.35 33.5501L69.3 22.4801L63.58 16.8901L71.47 15.7501L75 8.60008L78.54 15.7501L86.43 16.8901L80.72 22.4701L82.07 30.3301L75.7 26.9801L74.31 29.6401L86.05 35.8101L83.94 23.5201L92.87 14.8001L80.53 13.0101Z" fill="#FF5F46"/>
<path d="M80.53 125.37L75 114.19L69.48 125.37L57.13 127.16L66.07 135.88L64.39 145.39L67.35 145.91L69.3 134.84L63.58 129.26L71.47 128.11L75 120.96L78.54 128.11L86.43 129.26L80.72 134.83L82.07 142.69L75.7 139.34L74.31 142L86.05 148.17L83.94 135.88L92.87 127.16L80.53 125.37Z" fill="#FF5F46"/>
<path d="M120.69 31.7999L115.15 20.6299L109.64 31.7999L97.28 33.5899L106.22 42.3099L104.55 51.8299L107.5 52.3399L109.45 41.2699L103.73 35.6899L111.63 34.5399L115.16 27.3899L118.69 34.5399L126.58 35.6899L120.87 41.2699L122.22 49.1199L115.85 45.7799L114.46 48.4399L126.21 54.5999L124.1 42.3099L133.02 33.5899L120.69 31.7999Z" fill="#FF5F46"/>
<path d="M40.38 31.7999L34.85 20.6299L29.33 31.7999L16.98 33.5899L25.92 42.3099L24.24 51.8299L27.2 52.3399L29.15 41.2699L23.43 35.6899L31.32 34.5399L34.85 27.3899L38.39 34.5399L46.28 35.6899L40.57 41.2699L41.92 49.1199L35.55 45.7799L34.15 48.4399L45.9 54.5999L43.79 42.3099L52.72 33.5899L40.38 31.7999Z" fill="#FF5F46"/>
<path d="M120.69 107.58L115.15 96.3999L109.64 107.58L97.28 109.37L106.22 118.09L104.55 127.6L107.5 128.12L109.45 117.05L103.73 111.47L111.63 110.32L115.16 103.17L118.69 110.32L126.58 111.47L120.87 117.05L122.22 124.9L115.85 121.56L114.46 124.21L126.21 130.38L124.1 118.09L133.02 109.37L120.69 107.58Z" fill="#FF5F46"/>
<path d="M23.43 111.47L31.32 110.32L34.85 103.17L38.39 110.32L46.28 111.47L40.57 117.05L41.92 124.9L35.55 121.56L34.15 124.21L45.9 130.38L43.79 118.09L52.72 109.37L40.38 107.58L34.85 96.3999L29.33 107.58L16.98 109.37L25.92 118.09L24.24 127.6L27.2 128.12L29.15 117.05L23.43 111.47Z" fill="#FF5F46"/>
<path d="M135.54 68.63L130.01 57.46L124.49 68.63L112.14 70.43L121.08 79.14L119.4 88.66L122.35 89.18L124.3 78.1L118.58 72.52L126.48 71.38L130.01 64.23L133.55 71.38L141.44 72.52L135.73 78.1L137.07 85.96L130.71 82.61L129.31 85.27L141.06 91.44L138.95 79.15L147.88 70.43L135.54 68.63Z" fill="#FF5F46"/>
<path d="M20 64.23L23.54 71.38L31.43 72.52L25.72 78.1L27.06 85.96L20.69 82.61L19.3 85.27L31.05 91.44L28.94 79.15L37.87 70.43L25.53 68.63L19.99 57.46L14.48 68.63L2.12 70.43L11.06 79.14L9.39 88.66L12.34 89.18L14.29 78.1L8.56999 72.52L16.47 71.38L20 64.23Z" fill="#FF5F46"/>
<path d="M75 50.3999C72.2691 50.4025 69.6508 51.4886 67.7197 53.4196C65.7887 55.3507 64.7026 57.969 64.7 60.6999V67.7899H61.42C60.3821 67.7899 59.3865 68.2015 58.6517 68.9345C57.9168 69.6675 57.5026 70.662 57.5 71.6999V94.1299C57.5026 95.1687 57.9165 96.1643 58.6511 96.8988C59.3856 97.6334 60.3812 98.0473 61.42 98.0499H88.59C89.6279 98.0473 90.6224 97.6331 91.3554 96.8982C92.0884 96.1634 92.5 95.1678 92.5 94.1299V71.6999C92.4974 70.6611 92.0835 69.6655 91.3489 68.931C90.6144 68.1964 89.6188 67.7825 88.58 67.7799H85.3V60.6999C85.2974 57.969 84.2113 55.3507 82.2803 53.4196C80.3492 51.4886 77.7309 50.4025 75 50.3999ZM88.58 70.7799C88.824 70.7799 89.058 70.8768 89.2305 71.0494C89.4031 71.2219 89.5 71.4559 89.5 71.6999V77.4399H81.84V80.4399H89.5V85.5799H81.84V88.5799H89.5V94.1299C89.5 94.3739 89.4031 94.6079 89.2305 94.7804C89.058 94.953 88.824 95.0499 88.58 95.0499H61.42C61.176 95.0499 60.942 94.953 60.7695 94.7804C60.5969 94.6079 60.5 94.3739 60.5 94.1299V88.5799H68.16V85.5799H60.5V80.4399H68.16V77.4399H60.5V71.6999C60.5026 71.4576 60.6007 71.2262 60.773 71.0558C60.9452 70.8854 61.1777 70.7899 61.42 70.7899H77.33V67.7899H67.7V60.6999C67.7 58.7638 68.4691 56.907 69.8381 55.538C71.2071 54.169 73.0639 53.3999 75 53.3999C76.9361 53.3999 78.7929 54.169 80.1619 55.538C81.5309 56.907 82.3 58.7638 82.3 60.6999V70.7799H88.58Z" fill="#FF5F46"/>
</svg>
