<svg width="150" height="150" viewBox="0 0 150 150" fill="none" xmlns="http://www.w3.org/2000/svg">
<path d="M80.53 13.01L75 1.82996L69.48 13.01L57.13 14.8L66.07 23.52L64.39 33.03L67.35 33.55L69.3 22.48L63.58 16.89L71.47 15.75L75 8.59996L78.54 15.75L86.43 16.89L80.72 22.47L82.07 30.33L75.7 26.98L74.31 29.64L86.05 35.81L83.94 23.52L92.87 14.8L80.53 13.01Z" fill="#1B3139"/>
<path d="M80.53 125.37L75 114.19L69.48 125.37L57.13 127.16L66.07 135.88L64.39 145.39L67.35 145.91L69.3 134.84L63.58 129.26L71.47 128.11L75 120.96L78.54 128.11L86.43 129.26L80.72 134.83L82.07 142.69L75.7 139.34L74.31 142L86.05 148.17L83.94 135.88L92.87 127.16L80.53 125.37Z" fill="#1B3139"/>
<path d="M120.69 31.8L115.15 20.63L109.64 31.8L97.28 33.59L106.22 42.31L104.55 51.83L107.5 52.34L109.45 41.27L103.73 35.69L111.63 34.54L115.16 27.39L118.69 34.54L126.58 35.69L120.87 41.27L122.22 49.12L115.85 45.78L114.46 48.44L126.21 54.6L124.1 42.31L133.02 33.59L120.69 31.8Z" fill="#1B3139"/>
<path d="M40.38 31.8L34.85 20.63L29.33 31.8L16.98 33.59L25.92 42.31L24.24 51.83L27.2 52.34L29.15 41.27L23.43 35.69L31.32 34.54L34.85 27.39L38.39 34.54L46.28 35.69L40.57 41.27L41.92 49.12L35.55 45.78L34.15 48.44L45.9 54.6L43.79 42.31L52.72 33.59L40.38 31.8Z" fill="#1B3139"/>
<path d="M120.69 107.58L115.15 96.4L109.64 107.58L97.28 109.37L106.22 118.09L104.55 127.6L107.5 128.12L109.45 117.05L103.73 111.47L111.63 110.32L115.16 103.17L118.69 110.32L126.58 111.47L120.87 117.05L122.22 124.9L115.85 121.56L114.46 124.21L126.21 130.38L124.1 118.09L133.02 109.37L120.69 107.58Z" fill="#1B3139"/>
<path d="M23.43 111.47L31.32 110.32L34.85 103.17L38.39 110.32L46.28 111.47L40.57 117.05L41.92 124.9L35.55 121.56L34.15 124.21L45.9 130.38L43.79 118.09L52.72 109.37L40.38 107.58L34.85 96.4L29.33 107.58L16.98 109.37L25.92 118.09L24.24 127.6L27.2 128.12L29.15 117.05L23.43 111.47Z" fill="#1B3139"/>
<path d="M135.54 68.63L130.01 57.46L124.49 68.63L112.14 70.43L121.08 79.14L119.4 88.66L122.35 89.18L124.3 78.1L118.58 72.52L126.48 71.38L130.01 64.23L133.55 71.38L141.44 72.52L135.73 78.1L137.07 85.96L130.71 82.61L129.31 85.27L141.06 91.44L138.95 79.15L147.88 70.43L135.54 68.63Z" fill="#1B3139"/>
<path d="M20 64.23L23.54 71.38L31.43 72.52L25.72 78.1L27.06 85.96L20.69 82.61L19.3 85.27L31.05 91.44L28.94 79.15L37.87 70.43L25.53 68.63L19.99 57.46L14.48 68.63L2.12 70.43L11.06 79.14L9.39 88.66L12.34 89.18L14.29 78.1L8.56999 72.52L16.47 71.38L20 64.23Z" fill="#1B3139"/>
<path d="M75 50.4C72.2691 50.4027 69.6508 51.4887 67.7197 53.4197C65.7887 55.3508 64.7026 57.9691 64.7 60.7V67.79H61.42C60.3821 67.79 59.3865 68.2016 58.6517 68.9346C57.9168 69.6676 57.5026 70.6621 57.5 71.7V94.13C57.5026 95.1689 57.9165 96.1644 58.6511 96.899C59.3856 97.6335 60.3812 98.0474 61.42 98.05H88.59C89.6279 98.0474 90.6224 97.6332 91.3554 96.8984C92.0884 96.1635 92.5 95.1679 92.5 94.13V71.7C92.4974 70.6612 92.0835 69.6657 91.3489 68.9311C90.6144 68.1965 89.6188 67.7827 88.58 67.78H85.3V60.7C85.2974 57.9691 84.2113 55.3508 82.2803 53.4197C80.3492 51.4887 77.7309 50.4027 75 50.4V50.4ZM88.58 70.78C88.824 70.78 89.058 70.877 89.2305 71.0495C89.4031 71.222 89.5 71.456 89.5 71.7V77.44H81.84V80.44H89.5V85.58H81.84V88.58H89.5V94.13C89.5 94.374 89.4031 94.608 89.2305 94.7806C89.058 94.9531 88.824 95.05 88.58 95.05H61.42C61.176 95.05 60.942 94.9531 60.7695 94.7806C60.5969 94.608 60.5 94.374 60.5 94.13V88.58H68.16V85.58H60.5V80.44H68.16V77.44H60.5V71.7C60.5026 71.4578 60.6007 71.2263 60.773 71.0559C60.9452 70.8856 61.1777 70.79 61.42 70.79H77.33V67.79H67.7V60.7C67.7 58.7639 68.4691 56.9072 69.8381 55.5381C71.2071 54.1691 73.0639 53.4 75 53.4C76.9361 53.4 78.7929 54.1691 80.1619 55.5381C81.5309 56.9072 82.3 58.7639 82.3 60.7V70.78H88.58Z" fill="#1B3139"/>
</svg>
