<svg width="150" height="150" viewBox="0 0 150 150" fill="none" xmlns="http://www.w3.org/2000/svg">
<g clip-path="url(#clip0_214_410)">
<path fill-rule="evenodd" clip-rule="evenodd" d="M34.8 52.9001C34.8 42.8716 42.8716 34.8 52.9001 34.8C59.2385 34.8 64.6848 38.0816 67.9394 42.855L68.6395 43.8819L50.9001 61.6214L43.8394 54.5607L45.9607 52.4394L50.9001 57.3787L64.7262 43.5526C61.9402 40.0782 57.7167 37.8 52.9001 37.8C44.5285 37.8 37.8 44.5285 37.8 52.9001C37.8 61.2716 44.5285 68 52.9001 68C61.2716 68 68 61.2716 68 52.9001H71C71 62.9285 62.9285 71 52.9001 71C42.8716 71 34.8 62.9285 34.8 52.9001Z" fill="#FF5F46"/>
<path fill-rule="evenodd" clip-rule="evenodd" d="M61.1607 90.9607L46.6607 105.461L44.5394 103.339L59.0394 88.8394L61.1607 90.9607Z" fill="#FF5F46"/>
<path fill-rule="evenodd" clip-rule="evenodd" d="M59.0394 105.461L44.5394 90.9607L46.6607 88.8394L61.1607 103.339L59.0394 105.461Z" fill="#FF5F46"/>
<path fill-rule="evenodd" clip-rule="evenodd" d="M24.2001 51.6001C24.2001 36.3716 36.5716 24.0001 51.8001 24.0001H139.8V27.0001H51.8001C38.2285 27.0001 27.2001 38.0285 27.2001 51.6001V109.4C27.2001 110.472 28.0285 111.3 29.1001 111.3H65.1001C66.1716 111.3 67.0001 110.472 67.0001 109.4V84.9001C67.0001 83.8285 66.1716 83.0001 65.1001 83.0001H40.6001C39.5285 83.0001 38.7001 83.8285 38.7001 84.9001V106.6H35.7001V84.9001C35.7001 82.1716 37.8716 80.0001 40.6001 80.0001H65.1001C67.8285 80.0001 70.0001 82.1716 70.0001 84.9001V109.4C70.0001 112.128 67.8285 114.3 65.1001 114.3H29.1001C26.3716 114.3 24.2001 112.128 24.2001 109.4V51.6001Z" fill="#FF5F46"/>
<path fill-rule="evenodd" clip-rule="evenodd" d="M132.161 15.7394L141.921 25.5L132.161 35.2607L130.039 33.1394L137.679 25.5L130.039 17.8607L132.161 15.7394Z" fill="#FF5F46"/>
<path fill-rule="evenodd" clip-rule="evenodd" d="M79.1001 97.1001C79.1001 87.0716 87.1717 79.0001 97.2001 79.0001C103.539 79.0001 108.985 82.2816 112.239 87.0551L112.94 88.0819L95.2001 105.821L88.1394 98.7607L90.2608 96.6394L95.2001 101.579L109.026 87.7526C106.24 84.2783 102.017 82.0001 97.2001 82.0001C88.8285 82.0001 82.1001 88.7285 82.1001 97.1001C82.1001 105.472 88.8285 112.2 97.2001 112.2C105.572 112.2 112.3 105.472 112.3 97.1001H115.3C115.3 107.128 107.229 115.2 97.2001 115.2C87.1717 115.2 79.1001 107.128 79.1001 97.1001Z" fill="#FF5F46"/>
<path fill-rule="evenodd" clip-rule="evenodd" d="M88.8394 59.0394L103.339 44.5394L105.461 46.6607L90.9607 61.1607L88.8394 59.0394Z" fill="#FF5F46"/>
<path fill-rule="evenodd" clip-rule="evenodd" d="M90.9607 44.5394L105.461 59.0394L103.339 61.1607L88.8394 46.6607L90.9607 44.5394Z" fill="#FF5F46"/>
<path fill-rule="evenodd" clip-rule="evenodd" d="M80.0001 40.6C80.0001 37.8716 82.1717 35.7 84.9001 35.7H120.9C123.629 35.7 125.8 37.8716 125.8 40.6V98.4C125.8 113.628 113.428 126 98.2001 126H10.2001V123H98.2001C111.772 123 122.8 111.972 122.8 98.4V40.6C122.8 39.5284 121.972 38.7 120.9 38.7H84.9001C83.8285 38.7 83.0001 39.5284 83.0001 40.6V65.1C83.0001 66.1716 83.8285 67 84.9001 67H109.4C110.472 67 111.3 66.1716 111.3 65.1V43.4H114.3V65.1C114.3 67.8284 112.129 70 109.4 70H84.9001C82.1717 70 80.0001 67.8284 80.0001 65.1V40.6Z" fill="#FF5F46"/>
<path fill-rule="evenodd" clip-rule="evenodd" d="M17.8394 114.739L19.9607 116.861L12.3214 124.5L19.9607 132.139L17.8394 134.261L8.07874 124.5L17.8394 114.739Z" fill="#FF5F46"/>
</g>
<defs>
<clipPath id="clip0_214_410">
<rect width="150" height="150" fill="white"/>
</clipPath>
</defs>
</svg>
