<svg width="150" height="150" viewBox="0 0 150 150" fill="none" xmlns="http://www.w3.org/2000/svg">
<g clip-path="url(#clip0_1_2003)">
<path fill-rule="evenodd" clip-rule="evenodd" d="M34.8 52.8998C34.8 42.8714 42.8716 34.7998 52.9 34.7998C59.2384 34.7998 64.6847 38.0813 67.9393 42.8548L68.6395 43.8817L50.9 61.6211L43.8393 54.5605L45.9607 52.4391L50.9 57.3785L64.7261 43.5523C61.9401 40.078 57.7167 37.7998 52.9 37.7998C44.5284 37.7998 37.8 44.5282 37.8 52.8998C37.8 61.2714 44.5284 67.9998 52.9 67.9998C61.2716 67.9998 68 61.2714 68 52.8998H71C71 62.9282 62.9284 70.9998 52.9 70.9998C42.8716 70.9998 34.8 62.9282 34.8 52.8998Z" fill="white"/>
<path fill-rule="evenodd" clip-rule="evenodd" d="M61.1607 90.9607L46.6607 105.461L44.5393 103.339L59.0393 88.8394L61.1607 90.9607Z" fill="white"/>
<path fill-rule="evenodd" clip-rule="evenodd" d="M59.0393 105.461L44.5393 90.9607L46.6607 88.8394L61.1607 103.339L59.0393 105.461Z" fill="white"/>
<path fill-rule="evenodd" clip-rule="evenodd" d="M24.2 51.6C24.2 36.3716 36.5716 24 51.8 24H139.8V27H51.8C38.2284 27 27.2 38.0284 27.2 51.6V109.4C27.2 110.472 28.0284 111.3 29.1 111.3H65.1C66.1716 111.3 67 110.472 67 109.4V84.9C67 83.8284 66.1716 83 65.1 83H40.6C39.5284 83 38.7 83.8284 38.7 84.9V106.6H35.7V84.9C35.7 82.1716 37.8716 80 40.6 80H65.1C67.8284 80 70 82.1716 70 84.9V109.4C70 112.128 67.8284 114.3 65.1 114.3H29.1C26.3716 114.3 24.2 112.128 24.2 109.4V51.6Z" fill="white"/>
<path fill-rule="evenodd" clip-rule="evenodd" d="M132.161 15.7393L141.921 25.4999L132.161 35.2606L130.039 33.1393L137.679 25.4999L130.039 17.8606L132.161 15.7393Z" fill="white"/>
<path fill-rule="evenodd" clip-rule="evenodd" d="M79.1 97.1C79.1 87.0716 87.1716 79 97.2 79C103.538 79 108.985 82.2815 112.239 87.055L112.939 88.0819L95.2 105.821L88.1393 98.7607L90.2607 96.6393L95.2 101.579L109.026 87.7525C106.24 84.2782 102.017 82 97.2 82C88.8284 82 82.1 88.7284 82.1 97.1C82.1 105.472 88.8284 112.2 97.2 112.2C105.572 112.2 112.3 105.472 112.3 97.1H115.3C115.3 107.128 107.228 115.2 97.2 115.2C87.1716 115.2 79.1 107.128 79.1 97.1Z" fill="white"/>
<path fill-rule="evenodd" clip-rule="evenodd" d="M88.8394 59.0391L103.339 44.5391L105.461 46.6604L90.9607 61.1604L88.8394 59.0391Z" fill="white"/>
<path fill-rule="evenodd" clip-rule="evenodd" d="M90.9607 44.5391L105.461 59.0391L103.339 61.1604L88.8394 46.6604L90.9607 44.5391Z" fill="white"/>
<path fill-rule="evenodd" clip-rule="evenodd" d="M80 40.5997C80 37.8713 82.1716 35.6997 84.9 35.6997H120.9C123.628 35.6997 125.8 37.8713 125.8 40.5997V98.3997C125.8 113.628 113.428 126 98.2 126H10.2V123H98.2C111.772 123 122.8 111.971 122.8 98.3997V40.5997C122.8 39.5281 121.972 38.6997 120.9 38.6997H84.9C83.8284 38.6997 83 39.5281 83 40.5997V65.0997C83 66.1713 83.8284 66.9997 84.9 66.9997H109.4C110.472 66.9997 111.3 66.1713 111.3 65.0997V43.3997H114.3V65.0997C114.3 67.8281 112.128 69.9997 109.4 69.9997H84.9C82.1716 69.9997 80 67.8281 80 65.0997V40.5997Z" fill="white"/>
<path fill-rule="evenodd" clip-rule="evenodd" d="M17.8393 114.739L19.9607 116.861L12.3213 124.5L19.9607 132.139L17.8393 134.261L8.07867 124.5L17.8393 114.739Z" fill="white"/>
</g>
<defs>
<clipPath id="clip0_1_2003">
<rect width="150" height="150" fill="white"/>
</clipPath>
</defs>
</svg>
