<svg width="150" height="150" viewBox="0 0 150 150" fill="none" xmlns="http://www.w3.org/2000/svg">
<path d="M57.1702 71.3198C63.2398 71.3198 68.1602 66.3995 68.1602 60.3298C68.1602 54.2602 63.2398 49.3398 57.1702 49.3398C51.1006 49.3398 46.1802 54.2602 46.1802 60.3298C46.1802 66.3995 51.1006 71.3198 57.1702 71.3198Z" stroke="#1B3139" stroke-width="3" stroke-miterlimit="3" stroke-linecap="square"/>
<path d="M95.3298 95.3501C101.399 95.3501 106.32 90.4297 106.32 84.3601C106.32 78.2905 101.399 73.3701 95.3298 73.3701C89.2602 73.3701 84.3398 78.2905 84.3398 84.3601C84.3398 90.4297 89.2602 95.3501 95.3298 95.3501Z" stroke="#1B3139" stroke-width="3" stroke-miterlimit="3" stroke-linecap="square"/>
<path d="M57.1702 119.39C63.2398 119.39 68.1602 114.47 68.1602 108.4C68.1602 102.331 63.2398 97.4102 57.1702 97.4102C51.1006 97.4102 46.1802 102.331 46.1802 108.4C46.1802 114.47 51.1006 119.39 57.1702 119.39Z" stroke="#1B3139" stroke-width="3" stroke-miterlimit="3" stroke-linecap="square"/>
<path d="M57.1699 71.3198V97.4098" stroke="#1B3139" stroke-width="3" stroke-miterlimit="3" stroke-linecap="square"/>
<path d="M84.3299 84.3599H57.1699" stroke="#1B3139" stroke-width="3" stroke-miterlimit="3" stroke-linecap="square"/>
<path d="M135.73 67.2398V46.2598C135.73 43.1098 133.18 40.5598 130.03 40.5598H77.0903L60.8702 24.3398H19.9802C16.8302 24.3398 14.2803 26.8898 14.2803 30.0398" stroke="#1B3139" stroke-width="3" stroke-miterlimit="3" stroke-linecap="square"/>
<path d="M135.73 84.3601V122.76C135.73 125.91 133.18 128.46 130.03 128.46H19.9802C16.8302 128.46 14.2803 125.91 14.2803 122.76V46.2601C14.2803 43.1101 16.8302 40.5601 19.9802 40.5601H62.2502" stroke="#1B3139" stroke-width="3" stroke-miterlimit="3" stroke-linecap="square"/>
<path d="M106.32 84.3599H135.73" stroke="#1B3139" stroke-width="3" stroke-miterlimit="3" stroke-linecap="square"/>
</svg>
