<svg width="150" height="150" viewBox="0 0 150 150" fill="none" xmlns="http://www.w3.org/2000/svg">
<path d="M124.8 78.1999C119.5 77.2999 114.1 80.4999 112.3 85.6999V85.8999C107.6 106.6 88.9 121.1 66.7 121.1C44.7 121.1 26 106.2 21.1 84.7999C20.3 81.3999 19.9 77.8999 19.9 74.3999V71.4999C19.9 68.1999 28.8 63.7999 45.8 61.5999L45.4 58.5999C19.8 61.8999 17 68.6999 17 71.4999V74.3999C17 78.0999 17.4 81.7999 18.2 85.3999C23.4 108.2 43.3 124.1 66.7 124.1C90.2 124.1 110.1 108.7 115.2 86.5999C116.8 82.2999 121.1 80.5999 124.3 81.1999C127.8 81.7999 130 84.7999 130 89.0999C130 101.1 122.7 107.7 109.5 107.7V110.7C124.4 110.7 133 102.8 133 89.0999C133 82.0999 128.8 78.8999 124.8 78.1999Z" fill="#FF5F46"/>
<path d="M58.5 69.0999H59.3H59.5C61 69.0999 64.7001 69 66.8001 69C83.9001 69.0999 93.4 71 95.7 72.3C93.2 73.8 82.3 75.5999 66.2 75.5999C50.1 75.5999 39.2001 73.8 36.7001 72.3C37.7001 71.8 40.4 70.7 48 69.8L47.7001 66.8C33.3001 68.4 33.3 71.0999 33.3 72.1999C33.3 73.7999 34.5 75.7 43.8 77.1C49.8 78 57.8 78.5 66.2 78.5C74.7 78.5 82.6 78 88.6 77.1C97.8 75.7 99.1001 73.7999 99.1001 72.1999C99.1001 66.3999 74.5 65.9 66.9001 65.9H66C63.9 65.9 61.9 65.9 60.1 66C58.5 63.0999 53.3 52.6 57.8 43.2C59.5 39.7 61.2 36.9 62.8 34.5C67.1 27.8 70.2001 22.9 64.8001 12.7L62.1 14.1C66.7 22.7 64.4001 26.2999 60.2001 32.7999C58.6 35.2999 56.8 38.1999 55 41.7999C49 54.2 57.5001 67.6999 57.9001 68.1999L58.5 69.0999Z" fill="#FF5F46"/>
<path d="M75.3 60.6H75.9C99.1 61.8 113.4 67.2 113.4 71.5C113.4 73.4 110 76.7 100.4 79.6C91.2 82.3 79.2 83.8 66.7 83.8C53 83.8 40 82.3 31 79.6L30.1 82.5C39.4 85.2 52.7 86.8 66.6 86.8C79.4 86.8 91.6 85.3 101.1 82.5C108 80.5 116.3 76.9 116.3 71.6C116.3 63.5 96.5 58.8 76.6 57.7C74.5 55.2 71.1 50.5 75.9 43C76.6 41.9 77.3 40.9 77.9 40C82.6 33 85.7 28.4 81 19.5L78.3 20.9C82.2 28.2 79.9 31.6 75.4 38.4C74.8 39.4 74.1 40.4 73.4 41.4C67 51.3 72.6 57.8 74.7 60.2L75.3 60.6Z" fill="#FF5F46"/>
<path d="M44.4 47C42.9 45.3 39.8999 41.8 43.5999 36C44.0999 35.2 44.5999 34.5 45.0999 33.8C48.5999 28.6 51.1 24.9 47.5 18L44.8 19.4C47.5999 24.7 45.9999 27 42.5999 32.2C42.0999 32.9 41.5999 33.7 41.0999 34.5C36.0999 42.2 40.6999 47.4 42.0999 49.1L44.4 47Z" fill="#FF5F46"/>
<path d="M104.6 113.9L103.7 116.8C110.9 119.1 113.5 121.6 113.5 123.3C113.5 125.2 110.1 128.2 100.5 130.7C91.5 133 79.5 134.3 66.8 134.3C54.1 134.3 42 132.9 33 130.5C23.4 128 20 125.1 20 123.1C20 121.5 22.6 118.9 29.8 116.6L28.9 113.7C21 116.2 17 119.3 17 123C17 132.1 42.6 137 66.7 137C90.8 137 116.4 132.1 116.4 123C116.4 119.5 112.4 116.4 104.6 113.9Z" fill="#FF5F46"/>
</svg>
