<svg width="150" height="150" viewBox="0 0 150 150" fill="none" xmlns="http://www.w3.org/2000/svg">
<path d="M21.1899 29.78C21.1899 30.2369 21.3254 30.6835 21.5792 31.0634C21.8331 31.4432 22.1938 31.7393 22.6159 31.9142C23.038 32.089 23.5025 32.1347 23.9506 32.0456C24.3987 31.9565 24.8103 31.7365 25.1334 31.4134C25.4564 31.0904 25.6764 30.6788 25.7656 30.2307C25.8547 29.7826 25.8089 29.3181 25.6341 28.896C25.4593 28.4739 25.1632 28.1131 24.7833 27.8593C24.4034 27.6055 23.9568 27.47 23.4999 27.47C22.8873 27.47 22.2997 27.7134 21.8665 28.1466C21.4333 28.5798 21.1899 29.1674 21.1899 29.78Z" fill="#FF5F46"/>
<path d="M30.11 29.78C30.11 30.2369 30.2455 30.6835 30.4993 31.0634C30.7531 31.4432 31.1139 31.7393 31.536 31.9142C31.9581 32.089 32.4225 32.1347 32.8706 32.0456C33.3187 31.9565 33.7303 31.7365 34.0534 31.4134C34.3765 31.0904 34.5965 30.6788 34.6856 30.2307C34.7747 29.7826 34.729 29.3181 34.5541 28.896C34.3793 28.4739 34.0832 28.1131 33.7034 27.8593C33.3235 27.6055 32.8769 27.47 32.42 27.47C31.8073 27.47 31.2198 27.7134 30.7866 28.1466C30.3534 28.5798 30.11 29.1674 30.11 29.78Z" fill="#FF5F46"/>
<path d="M39 29.78C38.998 30.2393 39.1324 30.6888 39.3861 31.0716C39.6399 31.4545 40.0015 31.7534 40.4252 31.9305C40.849 32.1076 41.3158 32.155 41.7665 32.0666C42.2172 31.9783 42.6315 31.7581 42.9569 31.434C43.2824 31.11 43.5044 30.6966 43.5947 30.2463C43.685 29.796 43.6397 29.329 43.4644 28.9045C43.2891 28.48 42.9917 28.1171 42.61 27.8617C42.2282 27.6063 41.7793 27.47 41.32 27.47C40.7064 27.47 40.1179 27.7131 39.6831 28.146C39.2483 28.5789 39.0027 29.1664 39 29.78Z" fill="#FF5F46"/>
<path d="M129.69 86V26.05C129.69 24.106 128.918 22.2416 127.543 20.8669C126.168 19.4923 124.304 18.72 122.36 18.72H18.82C16.8759 18.72 15.0115 19.4923 13.6369 20.8669C12.2622 22.2416 11.49 24.106 11.49 26.05V40.63H114V37.63H14.49V26.05C14.49 24.9016 14.9462 23.8003 15.7582 22.9882C16.5702 22.1762 17.6716 21.72 18.82 21.72H122.36C123.508 21.72 124.61 22.1762 125.422 22.9882C126.234 23.8003 126.69 24.9016 126.69 26.05V87.34L127.23 87.79C130.759 90.7109 133.329 94.6241 134.608 99.0228C135.887 103.421 135.815 108.103 134.402 112.46C132.99 116.818 130.301 120.651 126.685 123.462C123.069 126.274 118.691 127.935 114.12 128.23V118.5H123.81V115.5H114.12V106.9H131V103.9H114.12V94.4H123.81V91.4H114.12V79.51H112.62C105.759 79.5179 99.1805 82.2471 94.3288 87.0988C89.4771 91.9506 86.7479 98.5286 86.74 105.39C86.7339 108.865 87.4348 112.305 88.8 115.5H18.8C17.6524 115.497 16.5526 115.04 15.7411 114.229C14.9297 113.417 14.4726 112.318 14.47 111.17V48.56H11.47V111.17C11.4726 113.113 12.2457 114.976 13.6198 116.35C14.9939 117.724 16.8567 118.497 18.8 118.5H90.31C92.5488 122.302 95.7183 125.471 99.52 127.71C103.437 130.016 107.895 131.244 112.44 131.27H112.62C117.871 131.261 122.994 129.655 127.31 126.664C131.626 123.674 134.93 119.441 136.782 114.528C138.635 109.615 138.948 104.254 137.682 99.1586C136.415 94.063 133.627 89.4736 129.69 86ZM104.52 84C102.802 86.2295 101.476 88.7353 100.6 91.41H94.53C97.1162 88.0694 100.573 85.5056 104.52 84ZM92.52 94.41H99.7C98.9363 97.5221 98.5072 100.707 98.42 103.91H89.8C90.0037 100.575 90.9464 97.3262 92.56 94.4L92.52 94.41ZM89.8 106.9H98.42C98.5006 109.794 98.8589 112.674 99.49 115.5H92.1C90.7667 112.816 89.9846 109.892 89.8 106.9ZM93.88 118.5H100.3C101.189 121.496 102.616 124.305 104.51 126.79C100.213 125.16 96.5076 122.271 93.88 118.5ZM111.12 128.06C108.01 127.17 105.26 123.57 103.49 118.5H111.12V128.06ZM111.12 115.5H102.6C101.908 112.682 101.516 109.8 101.43 106.9H111.12V115.5ZM111.12 103.9H101.43C101.522 100.689 101.992 97.5007 102.83 94.4H111.12V103.9ZM111.12 91.4H103.82C105.6 86.8 108.2 83.57 111.12 82.73V91.4Z" fill="#FF5F46"/>
<path d="M25.3101 63.22H114.42V48.33H25.3101V63.22ZM28.3101 51.33H111.42V60.22H28.3101V51.33Z" fill="#FF5F46"/>
<path d="M25.3101 106.9H62.5701V69.64H25.3101V106.9ZM28.3101 72.64H59.5701V103.9H28.3101V72.64Z" fill="#FF5F46"/>
<path d="M114.68 69.64H69.59V72.64H114.68V69.64Z" fill="#FF5F46"/>
<path d="M81.74 92.48H69.59V95.48H81.74V92.48Z" fill="#FF5F46"/>
<path d="M81.74 103.9H69.59V106.9H81.74V103.9Z" fill="#FF5F46"/>
<path d="M84.22 81.06H69.59V84.06H84.22V81.06Z" fill="#FF5F46"/>
</svg>
