<svg width="150" height="150" viewBox="0 0 150 150" fill="none" xmlns="http://www.w3.org/2000/svg">
<path d="M30.9141 26.2804V104.49H33.9141V26.2804C33.9167 23.9941 34.8254 21.8021 36.4411 20.1845C38.0568 18.5669 40.2478 17.6557 42.5341 17.6504H86.6241C88.9121 17.653 91.1056 18.5631 92.7235 20.181C94.3413 21.7988 95.2514 23.9924 95.2541 26.2804V34.6104H40.1041V37.6104H98.2541V26.2804C98.2514 23.1967 97.0253 20.2401 94.8448 18.0597C92.6643 15.8792 89.7077 14.653 86.6241 14.6504H42.5341C39.4521 14.6557 36.4981 15.883 34.3198 18.0632C32.1415 20.2434 30.9167 23.1985 30.9141 26.2804V26.2804Z" fill="white"/>
<path d="M72.1639 25.3896H57.0039V28.3896H72.1639V25.3896Z" fill="white"/>
<path d="M34.3198 131.937C32.1415 129.757 30.9167 126.802 30.9141 123.72V112.39H89.0641V115.39H33.9141V123.72C33.9167 126.006 34.8254 128.198 36.4411 129.816C38.0568 131.433 40.2478 132.345 42.5341 132.35H86.6241C88.9121 132.347 91.1056 131.437 92.7235 129.819C94.3413 128.201 95.2514 126.008 95.2541 123.72V99.7616L98.2541 99.7616V123.72C98.2514 126.804 97.0253 129.76 94.8448 131.941C92.6643 134.121 89.7077 135.347 86.6241 135.35H42.5341C39.4521 135.345 36.4981 134.117 34.3198 131.937Z" fill="white"/>
<path d="M64.4045 126.95C66.3431 126.95 67.9145 125.378 67.9145 123.44C67.9145 121.501 66.3431 119.93 64.4045 119.93C62.466 119.93 60.8945 121.501 60.8945 123.44C60.8945 125.378 62.466 126.95 64.4045 126.95Z" fill="white"/>
<g clip-path="url(#clip0_14057_489)">
<path d="M96.3239 48.2695C96.2072 48.2695 96.0905 48.2695 95.9913 48.2754C89.2475 48.6546 83.8396 60.3979 83.8396 74.8248C83.8396 79.661 84.4463 84.1939 85.5081 88.0966C86.8557 93.032 88.9208 96.9581 91.4002 99.2275V100.919C83.6763 99.4667 77.1308 94.683 73.333 88.1025" stroke="white" stroke-width="3" stroke-miterlimit="10"/>
<path d="M95.9915 101.369C96.0965 101.369 96.2131 101.369 96.324 101.369C96.4348 101.369 96.5515 101.369 96.6565 101.369C103.4 100.989 108.808 89.246 108.808 74.8249C108.808 63.8866 105.699 54.4884 101.248 50.4223V48.7363C101.563 48.7947 101.878 48.8588 102.193 48.9288" stroke="white" stroke-width="3" stroke-miterlimit="10"/>
<path d="M69.7759 74.8252H122.875" stroke="white" stroke-width="3" stroke-miterlimit="10"/>
<path d="M91.4016 100.913C79.0924 98.6033 69.7759 87.805 69.7759 74.819C69.7759 60.2638 81.4842 48.4504 95.9928 48.2754C96.1037 48.2754 96.3253 48.2695 96.3253 48.2695M96.3253 101.368C96.4362 101.368 96.547 101.368 96.6579 101.363C111.166 101.188 122.875 89.3742 122.875 74.819C122.875 72.223 122.507 69.7203 121.807 67.3518C121.79 67.2759 121.766 67.2059 121.743 67.1418C121.58 66.5701 121.387 66.01 121.177 65.4558C120.845 64.5749 120.471 63.7115 120.04 62.8773C119.923 62.6323 119.8 62.3989 119.672 62.1656C119.637 62.0956 119.596 62.0314 119.567 61.9672C119.427 61.7164 119.287 61.4772 119.141 61.238C118.838 60.7188 118.511 60.2112 118.167 59.7212C118.144 59.6862 118.126 59.657 118.097 59.622C117.753 59.132 117.397 58.642 117.012 58.1753C116.819 57.9361 116.621 57.6969 116.417 57.4635C116.417 57.4635 116.411 57.446 116.405 57.4402C116.207 57.2185 116.008 56.991 115.798 56.7752C115.594 56.5476 115.378 56.3201 115.157 56.1043C114.941 55.8826 114.713 55.6667 114.492 55.4567C114.264 55.2409 114.037 55.0367 113.803 54.8325C113.57 54.6283 113.331 54.4242 113.092 54.2316C112.858 54.0333 112.607 53.8466 112.362 53.6599C112.147 53.4908 111.925 53.3274 111.697 53.1641C111.668 53.1466 111.639 53.1291 111.616 53.1057C111.359 52.9307 111.096 52.7557 110.84 52.5865C110.361 52.2657 109.866 51.9681 109.364 51.6881C109.294 51.6473 109.218 51.6006 109.148 51.5656C108.909 51.4314 108.664 51.3031 108.419 51.1806H108.413C108.145 51.0347 107.87 50.9006 107.596 50.778C107.579 50.7664 107.567 50.7547 107.55 50.7547C107.281 50.6205 107.001 50.498 106.715 50.3814C106.499 50.288 106.284 50.2005 106.062 50.113C105.957 50.0722 105.846 50.0255 105.741 49.9905C105.193 49.7805 104.638 49.588 104.073 49.4188C104.055 49.4188 104.032 49.4071 104.014 49.4013C103.413 49.2204 102.812 49.0571 102.194 48.9229" stroke="white" stroke-width="3" stroke-miterlimit="10"/>
</g>
<defs>
<clipPath id="clip0_14057_489">
<rect width="57.1709" height="58.3377" fill="white" transform="translate(67.9141 45.4521)"/>
</clipPath>
</defs>
</svg>
