<svg width="150" height="150" viewBox="0 0 150 150" fill="none" xmlns="http://www.w3.org/2000/svg">
<path d="M81.6926 100.328V89.3352L81.7063 89.1351C81.7684 88.6739 82.0428 88.2635 82.4543 88.0306L101.984 76.9788C102.705 76.5708 103.621 76.8252 104.029 77.5462C104.436 78.2671 104.182 79.1822 103.461 79.5901L84.6926 90.2093V100.328C84.6926 101.157 84.021 101.828 83.1926 101.828C82.3642 101.828 81.6926 101.157 81.6926 100.328Z" fill="#1B3139"/>
<path d="M65.3075 100.328V90.2101L46.5389 79.59C45.8181 79.1821 45.5639 78.267 45.9716 77.546C46.3795 76.8251 47.2946 76.571 48.0155 76.9786L67.5458 88.0304C68.0161 88.2965 68.3074 88.7947 68.3075 89.3351V100.328C68.3075 101.157 67.6358 101.828 66.8075 101.828C65.9791 101.828 65.3075 101.157 65.3075 100.328Z" fill="#1B3139"/>
<path d="M26.3989 64.335V55.5449C26.3989 54.7165 27.0705 54.0449 27.8989 54.0449C28.7274 54.0449 29.3989 54.7165 29.3989 55.5449V64.335C29.3989 65.6369 30.1006 66.8416 31.2358 67.4844L39.8237 72.3428C40.5447 72.7507 40.799 73.6657 40.3911 74.3867C39.9833 75.1076 39.0681 75.3616 38.3472 74.9541L29.7583 70.0947C27.6834 68.92 26.3989 66.719 26.3989 64.335Z" fill="#1B3139"/>
<path d="M120.601 64.335V55.5449C120.601 54.7165 121.272 54.0449 122.101 54.0449C122.929 54.045 123.601 54.7165 123.601 55.5449V64.335C123.601 66.5699 122.472 68.6439 120.621 69.8623L120.241 70.0947L111.653 74.9541C110.932 75.3617 110.016 75.1076 109.609 74.3867C109.201 73.6657 109.455 72.7507 110.176 72.3428L118.764 67.4844L118.971 67.3574C119.984 66.6908 120.601 65.5557 120.601 64.335Z" fill="#1B3139"/>
<path d="M72.6828 108.561C74.5511 107.889 76.2253 108.266 77.3683 108.763C77.9399 109.012 78.3989 109.299 78.7179 109.525C78.8784 109.638 79.0065 109.739 79.0988 109.815C79.1449 109.853 79.1828 109.885 79.2111 109.91C79.2253 109.922 79.2376 109.933 79.2472 109.942C79.2519 109.946 79.2564 109.949 79.2599 109.952L79.2677 109.96C79.2682 109.961 79.2688 109.961 78.4513 110.842L79.2687 109.961C79.8758 110.525 79.9113 111.474 79.3478 112.081C78.7843 112.688 77.8358 112.723 77.2287 112.16V112.16L77.2296 112.161L77.2306 112.163C77.2315 112.164 77.2329 112.165 77.2336 112.165H77.2326C77.2265 112.16 77.2134 112.147 77.1925 112.13C77.1505 112.096 77.0802 112.04 76.9855 111.973C76.7939 111.837 76.5137 111.663 76.1711 111.514C75.4855 111.216 74.6306 111.049 73.6984 111.384C72.6698 111.754 72.3261 112.41 72.2697 113.016C72.2041 113.723 72.523 114.432 72.9875 114.796C73.7929 115.428 75.1117 116.019 77.1886 116.753C78.6909 117.284 79.7695 118.255 80.3712 119.471C80.9624 120.666 81.0467 122.001 80.757 123.219C80.1984 125.567 78.1751 127.713 75.1974 127.864L74.9064 127.871C73.9754 127.878 73.1379 127.856 72.2951 127.648C71.4279 127.434 70.6507 127.048 69.7599 126.465C69.0667 126.012 68.8729 125.082 69.3263 124.389C69.7799 123.696 70.7093 123.501 71.4025 123.954C72.1276 124.429 72.5884 124.63 73.0148 124.736C73.4658 124.847 73.9785 124.877 74.8869 124.871C76.4634 124.861 77.5392 123.785 77.839 122.525C77.9874 121.901 77.9261 121.293 77.6828 120.801C77.4498 120.33 77.004 119.869 76.1896 119.581C74.1262 118.852 72.3724 118.126 71.1359 117.157C69.8224 116.126 69.1278 114.4 69.2824 112.738C69.4464 110.974 70.5572 109.325 72.6828 108.561Z" fill="#1B3139"/>
<path d="M73.3965 128.757V126.371C73.3965 125.543 74.0681 124.871 74.8965 124.871C75.7249 124.871 76.3965 125.543 76.3965 126.371V128.757C76.3963 129.585 75.7248 130.257 74.8965 130.257C74.0682 130.257 73.3967 129.585 73.3965 128.757Z" fill="#1B3139"/>
<path d="M73.3965 109.698V107.766C73.3965 106.937 74.0681 106.266 74.8965 106.266C75.7249 106.266 76.3965 106.937 76.3965 107.766V109.698C76.3963 110.526 75.7248 111.198 74.8965 111.198C74.0682 111.198 73.3967 110.526 73.3965 109.698Z" fill="#1B3139"/>
<path d="M93.2097 118.262C93.2097 108.204 85.0575 100.049 74.9998 100.049C64.9421 100.049 56.7898 108.204 56.7898 118.262C56.79 128.32 64.9419 136.472 74.9998 136.472C79.4657 136.472 83.5512 134.866 86.7195 132.199C87.3532 131.666 88.2993 131.747 88.8328 132.381C89.3663 133.015 89.2849 133.961 88.6511 134.494C84.9623 137.6 80.1987 139.472 74.9998 139.472C63.2851 139.472 53.79 129.976 53.7898 118.262C53.7898 106.547 63.2847 97.0489 74.9998 97.0488C86.7148 97.0488 96.2097 106.547 96.2097 118.262C96.2097 121.335 95.5555 124.259 94.3767 126.9C94.0391 127.657 93.1518 127.997 92.3953 127.659C91.639 127.321 91.2999 126.434 91.6375 125.678C92.6478 123.414 93.2097 120.905 93.2097 118.262Z" fill="#1B3139"/>
<path d="M81.6914 20.2197C81.6914 16.5242 78.6956 13.5283 75 13.5283C71.3044 13.5283 68.3086 16.5242 68.3086 20.2197C68.3086 23.9153 71.3044 26.9111 75 26.9111C78.6955 26.9111 81.6914 23.9153 81.6914 20.2197ZM84.6914 20.2197C84.6914 25.5721 80.3524 29.9111 75 29.9111C69.6476 29.9111 65.3086 25.5721 65.3086 20.2197C65.3086 14.8673 69.6476 10.5283 75 10.5283C80.3524 10.5283 84.6914 14.8673 84.6914 20.2197Z" fill="#1B3139"/>
<path d="M87.5789 47.3535V36.6025C87.5789 32.907 84.583 29.9113 80.8875 29.9111H69.1121C65.4164 29.9111 62.4207 32.9069 62.4207 36.6025V47.3535C62.4207 48.1819 61.7491 48.8535 60.9207 48.8535C60.0922 48.8535 59.4207 48.1819 59.4207 47.3535V36.6025C59.4207 31.25 63.7596 26.9111 69.1121 26.9111H80.8875C86.2398 26.9113 90.5789 31.2501 90.5789 36.6025V47.3535C90.5789 48.1818 89.9071 48.8533 89.0789 48.8535C88.2504 48.8535 87.5789 48.1819 87.5789 47.3535Z" fill="#1B3139"/>
<path d="M109.849 20.2197C109.849 16.5242 106.854 13.5283 103.158 13.5283C99.4624 13.5283 96.4666 16.5242 96.4666 20.2197C96.4666 23.9153 99.4624 26.9111 103.158 26.9111C106.854 26.9111 109.849 23.9153 109.849 20.2197ZM112.849 20.2197C112.849 25.5721 108.51 29.9111 103.158 29.9111C97.8056 29.9111 93.4666 25.5721 93.4666 20.2197C93.4666 14.8673 97.8055 10.5283 103.158 10.5283C108.51 10.5283 112.849 14.8673 112.849 20.2197Z" fill="#1B3139"/>
<path d="M115.737 47.3535V36.6025C115.737 32.907 112.741 29.9113 109.046 29.9111H97.2705C93.5751 29.9111 90.5791 32.9069 90.5791 36.6025V47.3535C90.5791 48.1819 89.9075 48.8535 89.0791 48.8535C88.2507 48.8535 87.5791 48.1819 87.5791 47.3535V36.6025C87.5791 31.25 91.9183 26.9111 97.2705 26.9111H109.046C114.398 26.9113 118.737 31.2501 118.737 36.6025V47.3535C118.737 48.1818 118.066 48.8533 117.237 48.8535C116.409 48.8535 115.737 48.1819 115.737 47.3535Z" fill="#1B3139"/>
<path d="M53.5332 20.2197C53.5332 16.5242 50.5373 13.5283 46.8418 13.5283C43.1462 13.5283 40.1504 16.5242 40.1504 20.2197C40.1504 23.9153 43.1462 26.9111 46.8418 26.9111C50.5373 26.9111 53.5332 23.9153 53.5332 20.2197ZM56.5332 20.2197C56.5332 25.5721 52.1942 29.9111 46.8418 29.9111C41.4894 29.9111 37.1504 25.5721 37.1504 20.2197C37.1504 14.8673 41.4894 10.5283 46.8418 10.5283C52.1942 10.5283 56.5332 14.8673 56.5332 20.2197Z" fill="#1B3139"/>
<path d="M59.4209 47.3535V36.6025C59.4209 32.907 56.425 29.9113 52.7295 29.9111H40.9541C37.2584 29.9111 34.2627 32.9069 34.2627 36.6025V47.3535C34.2627 48.1819 33.5911 48.8535 32.7627 48.8535C31.9343 48.8535 31.2627 48.1819 31.2627 47.3535V36.6025C31.2627 31.25 35.6016 26.9111 40.9541 26.9111H52.7295C58.0819 26.9113 62.4209 31.2501 62.4209 36.6025V47.3535C62.4209 48.1818 61.7492 48.8533 60.9209 48.8535C60.0925 48.8535 59.4209 48.1819 59.4209 47.3535Z" fill="#1B3139"/>
<path d="M109.415 67.251C109.415 65.8176 108.252 64.6555 106.819 64.6553C105.385 64.6553 104.222 65.8174 104.222 67.251V93.7549C104.222 94.3616 103.857 94.9085 103.296 95.1406C102.736 95.3728 102.091 95.2444 101.662 94.8154L99.9391 93.0928C98.9061 92.0602 97.2767 92.0158 96.2789 92.9238C95.1739 93.9296 95.1434 95.6385 96.1861 96.6816L104.983 105.479L105.173 105.651C105.635 106.03 106.216 106.238 106.818 106.238C107.506 106.238 108.167 105.965 108.653 105.479H108.654L117.45 96.6826V96.6816C118.493 95.6386 118.463 93.9297 117.358 92.9238C116.36 92.0159 114.731 92.0601 113.698 93.0928L111.975 94.8154C111.546 95.2444 110.901 95.3728 110.34 95.1406C109.78 94.9084 109.415 94.3616 109.415 93.7549V67.251ZM112.415 90.2793C114.504 88.8616 117.395 88.9009 119.378 90.7051C121.681 92.8012 121.814 96.3267 119.775 98.5889L119.571 98.8037L110.775 107.6C109.726 108.649 108.302 109.238 106.818 109.238C105.334 109.238 103.911 108.649 102.862 107.6L94.065 98.8037C91.8168 96.5556 91.8821 92.8688 94.2594 90.7051C96.2417 88.9011 99.1332 88.8617 101.222 90.2793V67.251C101.222 64.1604 103.729 61.6553 106.819 61.6553C109.909 61.6555 112.415 64.1609 112.415 67.251V90.2793Z" fill="#1B3139"/>
<path d="M45.7775 67.25C45.7774 66.5345 45.488 65.8882 45.0148 65.415C44.5446 64.9448 43.8981 64.6553 43.1818 64.6553C41.7463 64.6554 40.5843 65.8169 40.5842 67.25V79.125C40.5842 79.9534 39.9126 80.625 39.0842 80.625C38.2559 80.6249 37.5842 79.9533 37.5842 79.125V67.25C37.5843 64.1577 40.0919 61.6554 43.1818 61.6553C44.7259 61.6553 46.1272 62.2833 47.1369 63.293C48.1485 64.3046 48.7774 65.7054 48.7775 67.25V90.2773C50.8657 88.8604 53.7565 88.8997 55.7394 90.7041C58.1152 92.869 58.182 96.553 55.9357 98.8027L47.1369 107.6C46.0875 108.649 44.6639 109.237 43.1818 109.237C41.6978 109.237 40.2744 108.649 39.2248 107.6L30.4289 98.8037C28.1791 96.5539 28.2453 92.8691 30.6213 90.7041C32.6043 88.8996 35.495 88.8609 37.5842 90.2764V88.0195C37.5842 87.1912 38.2559 86.5197 39.0842 86.5195C39.9126 86.5195 40.5841 87.1911 40.5842 88.0195V93.7539C40.5842 94.3607 40.219 94.9085 39.6584 95.1406C39.0976 95.3727 38.4515 95.2439 38.0226 94.8145L36.3039 93.0928L36.1037 92.9102C35.068 92.0568 33.5767 92.0713 32.6408 92.9229C31.5361 93.9306 31.5059 95.6385 32.55 96.6826L41.3459 105.478C41.8318 105.963 42.4918 106.237 43.1818 106.237C43.8689 106.237 44.5285 105.964 45.0148 105.478L53.8137 96.6816C54.8553 95.6371 54.8253 93.9293 53.7199 92.9219C52.7213 92.0137 51.0926 92.0599 50.0607 93.0918L48.3381 94.8145C47.9091 95.2434 47.2638 95.3718 46.7033 95.1396C46.1428 94.9075 45.7775 94.3606 45.7775 93.7539V67.25Z" fill="#1B3139"/>
<path d="M20.0005 51.4512C20.0005 48.3611 22.5028 45.8537 25.5952 45.8535H98.2749C99.1033 45.8535 99.7749 46.5251 99.7749 47.3535C99.7749 48.1819 99.1033 48.8535 98.2749 48.8535H25.5952C24.1621 48.8537 23.0005 50.0156 23.0005 51.4512C23.0005 52.165 23.2874 52.8116 23.7573 53.2852H23.7583C24.2321 53.7572 24.8796 54.0458 25.5952 54.0459H124.404C125.838 54.0459 126.999 52.8837 127 51.4512C127 50.7319 126.71 50.0851 126.24 49.6152C125.767 49.1421 125.119 48.8535 124.404 48.8535H107.17C106.342 48.8535 105.67 48.1819 105.67 47.3535C105.67 46.5251 106.342 45.8535 107.17 45.8535H124.404C125.949 45.8535 127.349 46.4825 128.361 47.4941C129.371 48.5042 130 49.905 130 51.4512C129.999 54.5394 127.496 57.0459 124.404 57.0459H25.5952C24.0508 57.0458 22.6511 56.4177 21.6401 55.4102L21.6362 55.4062C20.6288 54.3952 20.0005 52.9955 20.0005 51.4512Z" fill="#1B3139"/>
</svg>
