<svg width="150" height="150" viewBox="0 0 150 150" fill="none" xmlns="http://www.w3.org/2000/svg">
<path d="M126.77 25.1101H23.23C21.2868 25.1128 19.4239 25.8859 18.0498 27.2599C16.6758 28.634 15.9026 30.4969 15.9 32.4401V47.0001H122.45V44.0001H18.9V32.4401C18.9 31.2917 19.3562 30.1904 20.1682 29.3783C20.9803 28.5663 22.0816 28.1101 23.23 28.1101H126.77C127.918 28.1101 129.02 28.5663 129.832 29.3783C130.644 30.1904 131.1 31.2917 131.1 32.4401V117.56C131.1 118.708 130.644 119.81 129.832 120.622C129.02 121.434 127.918 121.89 126.77 121.89H23.23C22.0816 121.89 20.9803 121.434 20.1682 120.622C19.3562 119.81 18.9 118.708 18.9 117.56V58.2601H15.9V117.56C15.9026 119.503 16.6758 121.366 18.0498 122.74C19.4239 124.114 21.2868 124.887 23.23 124.89H126.77C128.713 124.887 130.576 124.114 131.95 122.74C133.324 121.366 134.097 119.503 134.1 117.56V32.4401C134.097 30.4969 133.324 28.634 131.95 27.2599C130.576 25.8859 128.713 25.1128 126.77 25.1101V25.1101Z" fill="#1B3139"/>
<path d="M25.6 36.1801C25.602 36.6366 25.7391 37.0822 25.9942 37.4607C26.2492 37.8393 26.6106 38.1338 27.0329 38.3071C27.4552 38.4804 27.9193 38.5248 28.3668 38.4345C28.8142 38.3442 29.2249 38.1234 29.5469 37.8C29.869 37.4765 30.088 37.0649 30.1763 36.6171C30.2646 36.1693 30.2183 35.7053 30.0432 35.2838C29.8681 34.8623 29.572 34.5021 29.1923 34.2487C28.8127 33.9953 28.3664 33.8601 27.91 33.8601C27.6058 33.8601 27.3046 33.9202 27.0237 34.0369C26.7428 34.1536 26.4877 34.3247 26.273 34.5402C26.0584 34.7558 25.8885 35.0116 25.773 35.293C25.6575 35.5745 25.5987 35.8759 25.6 36.1801V36.1801Z" fill="#1B3139"/>
<path d="M34.51 36.1801C34.51 36.639 34.6461 37.0875 34.901 37.469C35.1559 37.8506 35.5183 38.1479 35.9422 38.3235C36.3661 38.4991 36.8326 38.545 37.2826 38.4555C37.7327 38.366 38.146 38.1451 38.4705 37.8206C38.795 37.4961 39.0159 37.0828 39.1054 36.6327C39.195 36.1827 39.149 35.7162 38.9734 35.2923C38.7978 34.8684 38.5005 34.506 38.1189 34.2511C37.7374 33.9962 37.2889 33.8601 36.83 33.8601C36.2147 33.8601 35.6246 34.1045 35.1895 34.5396C34.7544 34.9747 34.51 35.5648 34.51 36.1801Z" fill="#1B3139"/>
<path d="M43.43 36.1799C43.43 36.6392 43.5663 37.0881 43.8217 37.4698C44.0771 37.8516 44.44 38.1489 44.8645 38.3242C45.289 38.4995 45.756 38.5449 46.2063 38.4545C46.6566 38.3642 47.07 38.1423 47.394 37.8168C47.7181 37.4913 47.9382 37.077 48.0266 36.6263C48.115 36.1756 48.0676 35.7089 47.8905 35.2851C47.7134 34.8614 47.4145 34.4997 47.0316 34.246C46.6488 33.9923 46.1993 33.8579 45.74 33.8599C45.1264 33.8625 44.5389 34.1081 44.106 34.5429C43.673 34.9777 43.43 35.5663 43.43 36.1799V36.1799Z" fill="#1B3139"/>
<path d="M122.93 112.58V58.24H27.07V112.58H30.07V96.47H45.64V112.58H48.64V96.47H64.22V112.58H67.22V96.47H82.79V112.58H85.79V96.47H101.36V112.58H104.36V96.47H119.93V112.58H122.93ZM119.93 75.85H104.36V61.24H119.93V75.85ZM67.22 61.24H82.79V75.85H67.22V61.24ZM64.22 75.85H48.64V61.24H64.22V75.85ZM85.79 61.24H101.36V75.85H85.79V61.24ZM45.64 61.24V75.85H30.07V61.24H45.64ZM30.07 93.47V78.85H45.64V93.47H30.07ZM48.64 93.47V78.85H64.22V93.47H48.64ZM67.22 93.47V78.85H82.79V93.47H67.22ZM85.79 93.47V78.85H101.36V93.47H85.79ZM104.36 93.47V78.85H119.93V93.47H104.36Z" fill="#1B3139"/>
</svg>
