<svg width="150" height="150" viewBox="0 0 150 150" fill="none" xmlns="http://www.w3.org/2000/svg">
<path d="M126.77 25.11H23.23C21.2868 25.1126 19.4239 25.8857 18.0499 27.2598C16.6758 28.6339 15.9027 30.4968 15.9 32.44V47H122.45V44H18.9V32.44C18.9 31.2916 19.3562 30.1902 20.1683 29.3782C20.9803 28.5662 22.0816 28.11 23.23 28.11H126.77C127.918 28.11 129.02 28.5662 129.832 29.3782C130.644 30.1902 131.1 31.2916 131.1 32.44V117.56C131.1 118.708 130.644 119.81 129.832 120.622C129.02 121.434 127.918 121.89 126.77 121.89H23.23C22.0816 121.89 20.9803 121.434 20.1683 120.622C19.3562 119.81 18.9 118.708 18.9 117.56V58.26H15.9V117.56C15.9027 119.503 16.6758 121.366 18.0499 122.74C19.4239 124.114 21.2868 124.887 23.23 124.89H126.77C128.713 124.887 130.576 124.114 131.95 122.74C133.324 121.366 134.097 119.503 134.1 117.56V32.44C134.097 30.4968 133.324 28.6339 131.95 27.2598C130.576 25.8857 128.713 25.1126 126.77 25.11Z" fill="#FF5F46"/>
<path d="M25.6 36.18C25.602 36.6364 25.7391 37.0821 25.9942 37.4606C26.2492 37.8392 26.6106 38.1337 27.0329 38.307C27.4552 38.4803 27.9193 38.5246 28.3668 38.4344C28.8142 38.3441 29.2249 38.1233 29.5469 37.7999C29.869 37.4764 30.088 37.0648 30.1763 36.617C30.2646 36.1692 30.2183 35.7052 30.0432 35.2837C29.8681 34.8622 29.572 34.502 29.1923 34.2486C28.8127 33.9952 28.3664 33.86 27.91 33.86C27.6058 33.86 27.3046 33.9201 27.0237 34.0368C26.7428 34.1535 26.4877 34.3245 26.273 34.5401C26.0584 34.7557 25.8885 35.0115 25.773 35.2929C25.6575 35.5743 25.5987 35.8758 25.6 36.18Z" fill="#FF5F46"/>
<path d="M34.51 36.18C34.51 36.6388 34.6461 37.0874 34.901 37.4689C35.1559 37.8504 35.5183 38.1478 35.9422 38.3234C36.3661 38.499 36.8326 38.5449 37.2826 38.4554C37.7327 38.3659 38.146 38.1449 38.4705 37.8205C38.795 37.496 39.0159 37.0826 39.1054 36.6326C39.195 36.1826 39.149 35.7161 38.9734 35.2922C38.7978 34.8682 38.5005 34.5059 38.1189 34.251C37.7374 33.9961 37.2889 33.86 36.83 33.86C36.2147 33.86 35.6246 34.1044 35.1895 34.5395C34.7544 34.9746 34.51 35.5647 34.51 36.18Z" fill="#FF5F46"/>
<path d="M43.4301 36.18C43.4301 36.6393 43.5664 37.0882 43.8218 37.47C44.0771 37.8517 44.44 38.149 44.8646 38.3243C45.2891 38.4996 45.756 38.545 46.2064 38.4547C46.6567 38.3643 47.07 38.1424 47.3941 37.8169C47.7181 37.4915 47.9383 37.0771 48.0267 36.6265C48.1151 36.1758 48.0677 35.709 47.8906 35.2852C47.7134 34.8615 47.4145 34.4998 47.0317 34.2461C46.6489 33.9924 46.1993 33.858 45.7401 33.86C45.1265 33.8627 44.5389 34.1082 44.106 34.543C43.6731 34.9778 43.43 35.5664 43.4301 36.18Z" fill="#FF5F46"/>
<path d="M122.93 112.58V58.24H27.0699V112.58H30.0699V96.47H45.6399V112.58H48.6399V96.47H64.2199V112.58H67.2199V96.47H82.7899V112.58H85.7899V96.47H101.36V112.58H104.36V96.47H119.93V112.58H122.93ZM119.93 75.85H104.36V61.24H119.93V75.85ZM67.2199 61.24H82.7899V75.85H67.2199V61.24ZM64.2199 75.85H48.6399V61.24H64.2199V75.85ZM85.7899 61.24H101.36V75.85H85.7899V61.24ZM45.6399 61.24V75.85H30.0699V61.24H45.6399ZM30.0699 93.47V78.85H45.6399V93.47H30.0699ZM48.6399 93.47V78.85H64.2199V93.47H48.6399ZM67.2199 93.47V78.85H82.7899V93.47H67.2199ZM85.7899 93.47V78.85H101.36V93.47H85.7899ZM104.36 93.47V78.85H119.93V93.47H104.36Z" fill="#FF5F46"/>
</svg>
