<?xml version="1.0" encoding="UTF-8"?>
<svg xmlns="http://www.w3.org/2000/svg" version="1.1" viewBox="0 0 6005.9995117 630.9404297">
  <!-- Generator: Adobe Illustrator 28.6.0, SVG Export Plug-In . SVG Version: 1.2.0 Build 709)  -->
  <g>
    <g id="logo">
      <g>
        <g>
          <g>
            <path d="M1903.1236976,232.4888007c0,3.414968-2.0516188,6.1488609-5.4665868,7.5122101-3.414968,1.3663469-6.8263388,0-8.8791566-2.7302957-31.4181852-37.5664465-80.5922854-58.7391282-136.5987197-58.7391282-117.4710619,0-208.3094504,98.3505986-208.3094504,224.7044143,0,126.3532162,91.5194635,224.0221402,208.3094504,224.0221402,53.9584128,0,103.8183844-22.5390286,136.5987197-62.1510985,2.0528178-2.7332934,6.1488609-3.414968,8.8791566-2.7332934,3.414968,1.3663469,5.4665868,4.0966426,5.4665868,7.5122101v46.4450036h93.5686841V189.4623623h-93.5686841v43.0264384ZM1773.3549138,541.8827426c-75.1292959,0-133.868424-60.784152-133.868424-138.6467413,0-77.8601911,58.7391282-138.6473408,133.868424-138.6473408,75.1268977,0,133.8648268,60.7871497,133.8648268,138.6473408,0,77.8625892-58.7379291,138.6467413-133.8648268,138.6467413Z"/>
            <rect x="2068.4069741" y="189.4527697" width="95.6370899" height="427.5532733"/>
            <path d="M2116.2417066,3.6847461c-32.1256399,0-58.0772383,25.9545961-58.0772383,58.0538563,0,32.0998598,25.9515984,58.0544559,58.0772383,58.0544559,32.0920658,0,58.0436642-25.9545961,58.0436642-58.0544559,0-32.0992602-25.9515984-58.0538563-58.0436642-58.0538563Z"/>
          </g>
          <g>
            <path d="M1379.2864774,367.0294758l-51.225719-17.0724418c-34.8583338-11.6118504-51.2269181-28.0026176-51.2269181-50.5416462,0-25.9545961,23.2177055-43.7117102,55.9860501-43.7117102,31.4181852,0,59.4261986,20.4874098,77.1773174,56.0052353l75.827158-40.9814145c-28.0080135-57.369184-86.0528768-92.8870095-153.0044754-92.8870095-84.6715414,0-146.1553542,54.641886-146.1553542,129.0871091,0,59.4202033,35.5334135,99.0322732,108.5955026,122.2559741l52.6094525,17.0730414c36.8523969,11.6118504,52.5782765,26.6392684,52.5782765,50.5416462,0,36.1995001-33.4769984,49.1752993-62.1612906,49.1752993-38.2349313,0-72.3870094-24.5876496-88.7867697-64.8843919l-77.1785165,40.9814145c25.2765187,64.8843919,87.4366103,105.1811341,163.2325923,105.1811341,77.1773174,0,155.7383683-47.1266782,155.7383683-136.5987197,0-58.7391282-36.8847719-99.0352709-112.0056742-123.6235201Z"/>
            <path d="M905.6647334,179.2136932c-131.1049198,0-228.4245516,93.0107455-228.4245516,224.0233915s97.3196318,224.0144618,228.4245516,224.0144618c131.1001573,0,228.4221703-93.0018158,228.4221703-224.0144618s-97.322013-224.0233915-228.4221703-224.0233915ZM905.6671147,541.8102248c-74.142848,0-129.9642972-53.5068665-129.9642972-138.5731401,0-85.0757986,54.9499088-138.5731401,129.9642972-138.5731401,74.1380855,0,129.9595347,53.4973414,129.9595347,138.5731401,0,85.0662736-55.8214492,138.5731401-129.9595347,138.5731401Z"/>
            <path d="M472.4140412,178.531587c-67.8676926,0-109.4732261,38.5772675-126.0060838,66.7153807-2.8741848,4.8934285-10.0962186,4.7075717-12.7341854-.3183546-14.9236979-28.4402803-51.8252569-66.397026-115.718013-66.397026-56.8433893,0-89.8923176,31.8924197-107.9575942,58.0916272-4.0852514,5.9240342-13.422455,2.8717866-13.422455-4.3238675l.0011991-44.3604103H2.9998313v429.0671066h93.5686841v-237.9464084c0-24.5576727,3.8969965-45.3370575,11.6981839-62.3285617,7.7963911-16.9831107,18.5808792-29.921139,32.3606588-38.815284,13.7653906-8.8761589,29.2382653-13.327728,46.3946424-13.327728,27.0223731,0,47.2963474,8.894145,60.8195248,26.6554559,13.5135847,17.779297,20.2751734,43.399351,20.2751734,76.8427752v248.9197509h92.7904839v-237.9464084c0-24.5576727,3.8969965-45.3370575,11.6933876-62.3285617,7.8011874-16.9831107,18.5808792-29.921139,32.364256-38.815284,13.7665897-8.8761589,29.7478725-13.327728,47.9522419-13.327728,26.513965,0,46.5193463,8.894145,60.0425236,26.6554559,13.5135847,17.779297,20.2739743,43.399351,20.2739743,76.8427752v248.9197509h92.7892848v-264.4082135c0-129.9810202-73.0956632-174.0662425-153.6088096-174.0662425Z"/>
            <path d="M2452.9465706,541.2010679c-79.2361306,0-138.6635283-59.4208028-138.6635283-137.9650666,0-78.5418657,59.4273977-137.9626685,138.6635283-137.9626685,37.5598516,0,72.3858103,12.2941246,107.2129681,37.5634488l60.1024774-56.6875094c-70.3281962-60.1024774-133.8708222-67.6176852-176.1910049-67.6176852-131.1381284,0-226.0665645,94.253956-226.0665645,224.7044143,0,63.5204431,22.5090517,120.2079525,62.8351713,161.1863694,40.9688242,40.9814145,98.3374087,63.5174454,162.5239385,63.5174454,53.2845322,0,94.2545555-10.2425058,172.1393276-67.6146876l-53.960811-56.6869099c-38.2673064,25.2693243-73.7695438,37.5628493-108.5955026,37.5628493Z"/>
          </g>
        </g>
        <g>
          <path d="M4834.1495516,616.3310305V189.4622625h-93.5687204v43.0268172c0,3.4151062-2.0517993,6.1485282-5.4667215,7.5119578-3.4151675,1.3667417-6.8271456,0-8.8786995-2.7301713-31.4180691-37.5664133-80.5932919-58.7389186-136.5988497-58.7389186-117.4714582,0-208.3100073,98.3505683-208.3100073,224.7039154,0,126.3534698,91.5203559,224.0222313,208.3100073,224.0222313,53.9571933,0,103.8174124-22.5391242,136.5988497-62.1507739,2.0515539-2.7334834,6.1482829-3.4151675,8.8786995-2.7334834,3.4149222,1.3666804,5.4667215,4.0969743,5.4667215,7.5120192v46.4451742h93.5687204ZM4610.8123166,541.8830774c-75.1297599,0-133.8686784-60.7840936-133.8686784-138.6472142,0-77.8597472,58.7389186-138.6471529,133.8686784-138.6471529,75.1263251,0,133.8652436,60.7874057,133.8652436,138.6471529,0,77.8631206-58.7389186,138.6472142-133.8652436,138.6472142Z"/>
          <path d="M3064.8848097,276.8761371c8.9076499,0,17.0758376.6849962,22.542559,2.0516766v-96.9871387c-3.4087886-.6817455-9.550938-1.3666804-15.6928419-1.3666804-49.1688439,0-94.2537166,25.2726076-118.179026,65.5691922-2.025793,3.4151675-5.4345816,4.7818479-8.8755101,3.4151675-3.4085433-.6849962-6.141904-4.1001024-6.141904-7.5120192v-52.5904516h-93.5785341v427.5504521h94.2537166v-188.5042438c0-93.5719712,47.8182335-151.6259548,125.6715404-151.6259548Z"/>
          <path d="M5125.789401,276.8761371c8.9076499,0,17.0758376.6849962,22.542559,2.0516766v-96.9871387c-3.4087886-.6817455-9.550938-1.3666804-15.6928419-1.3666804-49.1688439,0-94.2537166,25.2726076-118.179026,65.5691922-2.025793,3.4151675-5.4345816,4.7818479-8.8755101,3.4151675-3.4085433-.6849962-6.141904-4.1001024-6.141904-7.5120192v-52.5904516h-93.5785341v427.5504521h94.2537166v-188.5042438c0-93.5719712,47.8182335-151.6259548,125.6715404-151.6259548Z"/>
          <path d="M3715.8254839,627.2517156c77.1783697,0,155.738999-47.1268583,155.738999-136.598727,0-58.7390412-36.8842999-99.0355645-112.0047367-123.6232986l-51.2265314-17.0724028c-34.8587522-11.6120602-51.2270221-28.0027789-51.2270221-50.5419645,0-25.9543531,23.2177416-43.7117521,55.9861758-43.7117521,31.4180691,0,59.4268589,20.4875703,77.177879,56.0055578l75.8275139-40.9815195c-28.0092805-57.3690487-86.0533891-92.8870363-153.005393-92.8870363-84.6706388,0-146.1559212,54.6420669-146.1559212,129.0867692,0,59.420664,35.5339348,99.0323137,108.5959481,122.2564342l52.6097724,17.0725255c36.8524053,11.6120602,52.5773872,26.639288,52.5773872,50.5419032,0,36.1997943-33.4760019,49.1753455-62.160465,49.1753455-38.2351556,0-72.3868308-24.5876114-88.7869952-64.8842573l-77.177879,40.9815195c25.2756744,64.8842573,87.4361394,105.1809033,163.2312681,105.1809033Z"/>
          <path d="M5388.7386538,178.5319478c-131.1385072,0-226.0676517,94.2537166-226.0676517,224.7039154,0,63.5207664,22.5104192,120.208131,62.8358929,161.1864611,40.9687617,40.9815195,98.3376878,63.517577,162.5241911,63.517577,53.2849549,0,94.2537166-10.2421904,172.1391634-67.6144286l-53.9601375-56.6873646c-38.2675408,25.2694182-73.7695811,37.5632852-108.5964388,37.5632852-79.2358119,0-138.6631615-59.4207253-138.6631615-137.9655301,0-78.5414926,59.4273496-137.962218,138.6631615-137.962218,37.5604638,0,72.3868308,12.293867,107.2131978,37.5632239l60.1025321-56.6873033c-70.3284073-60.1024095-133.8716226-67.6176181-176.1907493-67.6176181Z"/>
          <path d="M5845.4412658,180.5739947c-61.8081774,0-101.8966165,31.8007536-118.790486,54.995269-4.2241661,5.7995882-13.3284864,2.879112-13.3284864-4.295761V3.0000657h-106.6841757v613.3314972h106.6841757v-217.9286548c0-75.0813328,36.1065717-118.8140269,97.6527364-118.8140269,59.905829,0,85.345422,33.0033634,85.345422,109.7394209v227.0032607h106.6793794v-242.6823764c0-125.4137403-55.4636308-193.0751918-157.5585654-193.0751918Z"/>
          <path d="M4133.6974056,177.8400167c-121.0910719,0-208.9449606,96.3943063-209.5277114,225.3956815h-.0275787c0,.1402919.0179861.2745884.0179861.4148802,0,.2913754-.0179861.5767555-.0179861.8687304l.0587547.0221829c.3093616,62.9850557,22.7320798,119.187539,62.7776156,159.8805758,40.9688242,40.9820141,98.3374087,63.518045,162.5239385,63.518045,53.2845322,0,94.2545555-10.2425058,172.1393276-67.6146876l-53.960811-56.6875094c-38.2673064,25.2693243-73.7695438,37.5634488-108.5955026,37.5634488-60.6331386,0-109.5627705-34.8457141-129.2284987-86.3869743-2.4485252-6.4172591,2.3843734-13.3305707,9.2528877-13.3305707h294.1593629l.0047963.0005995c2.2470681-14.0831457,3.4605329-29.2466588,3.4605329-45.1200248,0-129.6452789-76.6509231-218.5243774-203.0371139-218.5243774ZM4036.5641302,364.2951395c-6.0552644-.0000158-10.6656235-5.45372-9.7469873-11.4388961,9.5911922-62.4893446,58.566484-97.1524384,113.3552723-97.1524384,64.4740216,0,108.2122756,36.9224488,114.8309636,97.4307252.6467205,5.9123413-3.8228537,11.1611681-9.7704606,11.1611526l-208.668788-.0005433Z"/>
          <path d="M3311.3217009,177.8400167c-121.0910719,0-208.9449606,96.3943063-209.5277114,225.3956815h-.0275787c0,.1402919.0179861.2745884.0179861.4148802,0,.2913754-.0179861.5767555-.0179861.8687304l.0587547.0221829c.3093616,62.9850557,22.7320798,119.187539,62.7776156,159.8805758,40.9688242,40.9820141,98.3374087,63.518045,162.5239385,63.518045,53.2845322,0,94.2545555-10.2425058,172.1393276-67.6146876l-53.960811-56.6875094c-38.2673064,25.2693243-73.7695438,37.5634488-108.5955026,37.5634488-60.6331386,0-109.5627705-34.8457141-129.2284987-86.3869743-2.4485252-6.4172591,2.3843734-13.3305707,9.2528877-13.3305707h294.1593629l.0047963.0005995c2.2470681-14.0831457,3.4605329-29.2466588,3.4605329-45.1200248,0-129.6452789-76.6509231-218.5243774-203.0371139-218.5243774ZM3214.1884255,364.2951395c-6.0552644-.0000158-10.6656235-5.45372-9.7469873-11.4388961,9.5911922-62.4893446,58.566484-97.1524384,113.3552723-97.1524384,64.4740216,0,108.2122756,36.9224488,114.8309636,97.4307252.6467205,5.9123413-3.8228537,11.1611681-9.7704606,11.1611526l-208.668788-.0005433Z"/>
        </g>
      </g>
    </g>
  </g>
</svg>