<?xml version="1.0" encoding="UTF-8"?>
<svg xmlns="http://www.w3.org/2000/svg" version="1.1" viewBox="0 0 6005.9995117 630.9404297">
  <!-- Generator: Adobe Illustrator 28.7.1, SVG Export Plug-In . SVG Version: 1.2.0 Build 142)  -->
  <g>
    <g id="Layer_1">
      <g id="logo">
        <g>
          <g>
            <g>
              <path d="M1903.1236572,232.4888c0,3.4149628-2.0516357,6.1488647-5.4665527,7.512207-3.414917,1.3663483-6.8262939,0-8.8791504-2.7303009-31.4182129-37.566452-80.5922852-58.7391205-136.5987549-58.7391205-117.4710693,0-208.3094482,98.3506165-208.3094482,224.7044067,0,126.353241,91.5194092,224.0221252,208.3094482,224.0221252,53.958374,0,103.8183594-22.5390015,136.5987549-62.151123,2.0528564-2.7332764,6.1488037-3.414978,8.8791504-2.7332764,3.414917,1.366333,5.4665527,4.0966187,5.4665527,7.512207v46.4450073h93.5687256V189.4623566h-93.5687256v43.0264435ZM1773.3548584,541.8827515c-75.1292725,0-133.8684082-60.7841492-133.8684082-138.6467285,0-77.860199,58.7391357-138.6473389,133.8684082-138.6473389,75.1269531,0,133.8648682,60.7871399,133.8648682,138.6473389,0,77.8625793-58.737915,138.6467285-133.8648682,138.6467285Z" fill="#ff3621"/>
              <rect x="2068.4069824" y="189.452774" width="95.637207" height="427.5532684" fill="#ff3621"/>
              <path d="M2116.2416992,3.684746c-32.1257324,0-58.0771484,25.9545953-58.0771484,58.0538557,0,32.0998611,25.9516602,58.0544586,58.0771484,58.0544586,32.092041,0,58.0437012-25.9545975,58.0437012-58.0544548,0-32.0992584-25.9516602-58.0538559-58.0437012-58.0538595Z" fill="#ff3621"/>
            </g>
            <g>
              <path d="M1379.286499,367.02948l-51.225708-17.0724487c-34.8582764-11.6118469-51.2269287-28.0026245-51.2269287-50.5416565,0-25.9545898,23.2176514-43.7117157,55.986084-43.7117157,31.4182129,0,59.4261475,20.4874115,77.1773682,56.0052338l75.8271484-40.9814148c-28.0080566-57.3691864-86.0528564-92.8870087-153.0045166-92.8870087-84.6715088,0-146.1553955,54.6418915-146.1553955,129.0871124,0,59.4201965,35.5334473,99.0322571,108.595459,122.2559814l52.6094971,17.0730286c36.852417,11.6118469,52.5782471,26.6392822,52.5782471,50.5416565,0,36.1994934-33.4770508,49.1753235-62.1612549,49.1753235-38.2349854,0-72.3869629-24.5876465-88.7867432-64.8843994l-77.1784668,40.9813843c25.2764893,64.8843994,87.4366455,105.1811523,163.2325439,105.1811523,77.1773682,0,155.7384033-47.126709,155.7384033-136.5987244,0-58.7391357-36.8847656-99.0352783-112.0056152-123.6235046h-.0001221Z" fill="#f2f2f2"/>
              <path d="M905.6647339,179.2136993c-131.1049194,0-228.4245605,93.0107269-228.4245605,224.0233917s97.3196411,224.0144958,228.4245605,224.0144958c131.1001587,0,228.4221802-93.0018311,228.4221802-224.0144653s-97.3220215-224.0233917-228.4221802-224.0233917v-.0000305ZM905.6671143,541.8102417c-74.1428223,0-129.9642944-53.5068665-129.9642944-138.5731201,0-85.0758057,54.9498901-138.5731201,129.9642944-138.5731201,74.1380615,0,129.9595947,53.497345,129.9595947,138.5731201,0,85.0662842-55.8214722,138.5731201-129.9595337,138.5731201h-.000061Z" fill="#f2f2f2"/>
              <path d="M472.414032,178.5315857c-67.8677063,0-109.4732361,38.5772705-126.006073,66.7153778-2.874176,4.8934326-10.0962219,4.7075653-12.7341919-.3183594-14.9237061-28.4402771-51.8252563-66.3970184-115.7180176-66.3970184-56.8433838,0-89.8923187,31.8924255-107.9575958,58.091629-4.0852509,5.9240265-13.4224548,2.8717804-13.4224548-4.3238678l.0011978-44.3604126H2.9998312v429.0671082h93.5686884v-237.9464111c0-24.5576782,3.8969955-45.3370667,11.6981812-62.3285522,7.7963943-16.9831238,18.5808792-29.9211426,32.3606644-38.8152771,13.7653961-8.8761597,29.238266-13.3277283,46.3946381-13.3277283,27.0223694,0,47.2963562,8.8941345,60.819519,26.6554565,13.5135803,17.7792969,20.275177,43.399353,20.275177,76.8427734v248.9197388h92.7904663v-237.9464111c0-24.5576782,3.8970032-45.3370667,11.6933899-62.3285522,7.801178-16.9831238,18.5808716-29.9211426,32.3642578-38.8152771,13.7666016-8.8761597,29.7478638-13.3277283,47.95224-13.3277283,26.5139771,0,46.5193481,8.8941345,60.0425415,26.6554565,13.5136108,17.7792969,20.2739868,43.399353,20.2739868,76.8427734v248.9197388h92.7893066v-264.4082031c0-129.9810181-73.0956421-174.0662384-153.6088257-174.0662384l-.0000305-.0000153Z" fill="#f2f2f2"/>
              <path d="M2452.9465332,541.2010498c-79.236084,0-138.6635742-59.4208069-138.6635742-137.9650879,0-78.5418701,59.4274902-137.9626465,138.6635742-137.9626465,37.5598145,0,72.3857422,12.2941284,107.2128906,37.563446l60.1025391-56.6875c-70.328125-60.102478-133.8708496-67.6176758-176.190918-67.6176758-131.1381836,0-226.0666504,94.2539673-226.0666504,224.7044067,0,63.5204468,22.5090332,120.2079773,62.8352051,161.1863708,40.96875,40.9814453,98.3374023,63.5174561,162.5239258,63.5174561,53.2844238,0,94.2546387-10.2424927,172.1394043-67.6146851l-53.9606934-56.6869202c-38.267334,25.2693176-73.7695312,37.5628357-108.595459,37.5628357h-.0002441Z" fill="#f2f2f2"/>
            </g>
          </g>
          <g>
            <path d="M4834.1494141,616.3310547V189.462265h-93.5688477v43.0268097c0,3.4151001-2.0517578,6.1485291-5.4667969,7.5119629-3.4150391,1.366745-6.8271484,0-8.8789062-2.7301636-31.4179688-37.5664062-80.5932617-58.7389221-136.5986328-58.7389221-117.4716797,0-208.3100586,98.3505554-208.3100586,224.7039185,0,126.3534851,91.5205078,224.0222473,208.3100586,224.0222473,53.9570312,0,103.8173828-22.5391235,136.5986328-62.1507568,2.0517578-2.7334595,6.1484375-3.4151611,8.8789062-2.7334595,3.4150391,1.3666992,5.4667969,4.0969849,5.4667969,7.5120239v46.4451904h93.5688477v-.000061ZM4610.8125,541.8830566c-75.1298828,0-133.8686523-60.7840881-133.8686523-138.6472168,0-77.8597412,58.7387695-138.6471558,133.8686523-138.6471558,75.1264648,0,133.8652344,60.7874146,133.8652344,138.6471558,0,77.8631287-58.7387695,138.6472168-133.8652344,138.6472168Z" fill="#f2f2f2"/>
            <path d="M3064.8847656,276.8761292c8.9077148,0,17.0759277.6849976,22.5424805,2.0516663v-96.9871368c-3.4086914-.6817474-9.5510254-1.366684-15.6928711-1.366684-49.1689453,0-94.2536621,25.2726135-118.1789551,65.5691833-2.0258789,3.4151611-5.4345703,4.7818451-8.8754883,3.4151611-3.4084473-.6849976-6.1418457-4.1000977-6.1418457-7.5120239v-52.5904541h-93.5786133v427.5504456h94.2536621v-188.5042419c0-93.5719604,47.8181152-151.625946,125.6716309-151.625946v.0000305Z" fill="#f2f2f2"/>
            <path d="M5125.7895508,276.8761292c8.9077148,0,17.0756836.6849976,22.5424805,2.0516663v-96.9871368c-3.4086914-.6817474-9.5507812-1.366684-15.6928711-1.366684-49.1689453,0-94.2539062,25.2726135-118.1791992,65.5691833-2.0258789,3.4151611-5.4345703,4.7818451-8.8754883,3.4151611-3.4086914-.6849976-6.1420898-4.1000977-6.1420898-7.5120239v-52.5904541h-93.5786133v427.5504456h94.2539062v-188.5042419c0-93.5719604,47.8183594-151.625946,125.6713867-151.625946l.0004883.0000305Z" fill="#f2f2f2"/>
            <path d="M3715.8254395,627.251709c77.1784668,0,155.7390137-47.1268311,155.7390137-136.5987244,0-58.7390442-36.8842773-99.035553-112.0046387-123.623291l-51.2265625-17.0724182c-34.8586426-11.6120605-51.2270508-28.0027771-51.2270508-50.5419617,0-25.9543457,23.2177734-43.7117615,55.986084-43.7117615,31.4179688,0,59.4267578,20.4875793,77.1779785,56.0055542l75.8273926-40.9815063c-28.0092773-57.3690491-86.0534668-92.8870392-153.0053711-92.8870392-84.6706543,0-146.1560059,54.6420746-146.1560059,129.0867767,0,59.4206543,35.5339355,99.0323181,108.5959473,122.2564392l52.6098633,17.0725098c36.8522949,11.6120605,52.5773926,26.6392822,52.5773926,50.5419006,0,36.1997986-33.4760742,49.1753235-62.1604004,49.1753235-38.2351074,0-72.3867188-24.5875854-88.7871094-64.8842468l-77.1779785,40.9815369c25.2756348,64.8842773,87.4360352,105.1809082,163.2312012,105.1809082h.0002441Z" fill="#f2f2f2"/>
            <path d="M5388.7387695,178.5319519c-131.1386719,0-226.0678711,94.2537231-226.0678711,224.7039185,0,63.5207825,22.5102539,120.2080994,62.8359375,161.1864929,40.96875,40.9815063,98.3378906,63.5175781,162.5244141,63.5175781,53.2851562,0,94.2539062-10.2421875,172.1391602-67.6144409l-53.9599609-56.6873779c-38.2675781,25.2694092-73.7695312,37.5632935-108.5961914,37.5632935-79.2358398,0-138.6630859-59.4207153-138.6630859-137.9655151,0-78.5415039,59.4272461-137.9622192,138.6630859-137.9622192,37.5605469,0,72.3867188,12.2938538,107.2133789,37.5632324l60.1025391-56.6873016c-70.3286133-60.1024017-133.871582-67.6176147-176.190918-67.6176147l-.0004883-.0000458Z" fill="#f2f2f2"/>
            <path d="M5845.4414062,180.5739899c-61.8081055,0-101.8964844,31.8007507-118.7905273,54.9952698-4.2241211,5.7995911-13.3286133,2.8791046-13.3286133-4.2957611V3.0000658h-106.684082v613.3314772h106.684082v-217.9286499c0-75.0813293,36.1064453-118.8140259,97.652832-118.8140259,59.9057617,0,85.3452148,33.0033569,85.3452148,109.7394104v227.0032654h106.6791992v-242.682373c0-125.4137421-55.4638672-193.0751953-157.5585938-193.0751953l.0004883.0000153Z" fill="#f2f2f2"/>
            <path d="M4133.6972656,177.8400116c-121.0910645,0-208.9450684,96.3943024-209.527832,225.3956757h-.0275879c0,.1402893.0180664.2745972.0180664.4148865,0,.2913818-.0180664.5767517-.0180664.8687439l.0588379.0221863c.3093262,62.9850464,22.7321777,119.187561,62.7775879,159.8805542,40.96875,40.9819946,98.3374023,63.5180664,162.5241699,63.5180664,53.284668,0,94.2543945-10.2424927,172.1391602-67.6146851l-53.9609375-56.6875c-38.2670898,25.2693481-73.7695312,37.5634766-108.5957031,37.5634766-60.6333008,0-109.5627441-34.8457031-129.2285156-86.3869629-2.4484863-6.4172668,2.3842773-13.3305664,9.2529297-13.3305664h294.1591797l.0048828.0006104c2.2470703-14.0831604,3.4604492-29.2466431,3.4604492-45.1200256,0-129.6452942-76.6508789-218.5243835-203.0371094-218.5243835l.0004883-.0000763ZM4036.564209,364.2951355c-6.0551758-.0000305-10.6655273-5.4537048-9.7470703-11.4389038,9.5913086-62.4893494,58.5664062-97.1524353,113.3552246-97.1524353,64.4741211,0,108.2124023,36.9224548,114.8310547,97.4307251.6464844,5.9123535-3.8227539,11.1611633-9.7705078,11.1611633l-208.6687012-.0005493Z" fill="#f2f2f2"/>
            <path d="M3311.3217773,177.8400116c-121.0910645,0-208.9450684,96.3943024-209.527832,225.3956757h-.0275879c0,.1402893.0180664.2745972.0180664.4148865,0,.2913818-.0180664.5767517-.0180664.8687439l.0588379.0221863c.3093262,62.9850464,22.7321777,119.187561,62.7775879,159.8805542,40.96875,40.9819946,98.3374023,63.5180664,162.5239258,63.5180664,53.2844238,0,94.2546387-10.2424927,172.1394043-67.6146851l-53.9606934-56.6875c-38.267334,25.2693481-73.7695312,37.5634766-108.595459,37.5634766-60.6330566,0-109.5627441-34.8457031-129.2285156-86.3869629-2.4484863-6.4172668,2.3842773-13.3305664,9.2529297-13.3305664h294.1594238l.0048828.0006104c2.2470703-14.0831604,3.4604492-29.2466431,3.4604492-45.1200256,0-129.6452942-76.6508789-218.5243835-203.0371094-218.5243835l-.0002441-.0000763ZM3214.1884766,364.2951355c-6.0551758-.0000305-10.6655273-5.4537048-9.7470703-11.4389038,9.5913086-62.4893494,58.5664062-97.1524353,113.3552246-97.1524353,64.4741211,0,108.2121582,36.9224548,114.8310547,97.4307251.6467285,5.9123535-3.8227539,11.1611633-9.7705078,11.1611633l-208.6687012-.0005493Z" fill="#f2f2f2"/>
          </g>
        </g>
      </g>
    </g>
  </g>
</svg>