<svg width="136" height="136" viewBox="0 0 136 136" fill="none" xmlns="http://www.w3.org/2000/svg">
<rect width="136" height="136" fill="#1B3139"/>
<rect x="21" y="56" width="94" height="24" fill="#618794"/>
<rect x="21" y="29" width="94" height="24" fill="#618794"/>
<rect x="21" y="83" width="94" height="24" fill="#618794"/>
<path d="M21.1481 32.2963C22.8868 32.2963 24.2963 30.8868 24.2963 29.1481C24.2963 27.4095 22.8868 26 21.1481 26C19.4095 26 18 27.4095 18 29.1481C18 30.8868 19.4095 32.2963 21.1481 32.2963Z" fill="#C4CCD6"/>
<path d="M21.1481 110.296C22.8868 110.296 24.2963 108.887 24.2963 107.148C24.2963 105.409 22.8868 104 21.1481 104C19.4095 104 18 105.409 18 107.148C18 108.887 19.4095 110.296 21.1481 110.296Z" fill="#C4CCD6"/>
<path d="M115.148 32.2963C116.887 32.2963 118.296 30.8868 118.296 29.1481C118.296 27.4095 116.887 26 115.148 26C113.409 26 112 27.4095 112 29.1481C112 30.8868 113.409 32.2963 115.148 32.2963Z" fill="#C4CCD6"/>
<path d="M115.148 110.296C116.887 110.296 118.296 108.887 118.296 107.148C118.296 105.409 116.887 104 115.148 104C113.409 104 112 105.409 112 107.148C112 108.887 113.409 110.296 115.148 110.296Z" fill="#C4CCD6"/>
<path d="M83 68L53 68" stroke="white" stroke-width="2"/>
<path d="M83 41L53 41" stroke="white" stroke-width="2"/>
<path d="M83 95L53 95" stroke="white" stroke-width="2"/>
</svg>
