<svg width="150" height="150" viewBox="0 0 150 150" fill="none" xmlns="http://www.w3.org/2000/svg">
<path d="M118.92 121.33V46.84L92.75 20.76H89.57V44.76C89.5726 46.8571 90.4069 48.8675 91.8897 50.3503C93.3725 51.8331 95.3829 52.6674 97.48 52.67H109.82V49.67H97.48C96.1778 49.67 94.9289 49.1527 94.0081 48.2319C93.0873 47.3111 92.57 46.0622 92.57 44.76V24.82L115.92 48.08V121.33C115.92 122.632 115.403 123.881 114.482 124.802C113.561 125.723 112.312 126.24 111.01 126.24H39C37.6978 126.24 36.4489 125.723 35.5281 124.802C34.6073 123.881 34.09 122.632 34.09 121.33V28.67C34.09 27.3678 34.6073 26.1189 35.5281 25.1981C36.4489 24.2773 37.6978 23.76 39 23.76H83.8V20.76H39C36.9029 20.7627 34.8925 21.5969 33.4097 23.0797C31.9269 24.5626 31.0926 26.573 31.09 28.67V121.33C31.0926 123.427 31.9269 125.437 33.4097 126.92C34.8925 128.403 36.9029 129.237 39 129.24H111C113.099 129.24 115.112 128.407 116.597 126.924C118.082 125.441 118.917 123.429 118.92 121.33Z" fill="#1B3139"/>
<path d="M98.63 101.71H77.8V104.71H98.63C99.9257 104.703 101.197 104.356 102.316 103.704C103.436 103.052 104.365 102.117 105.01 100.993C105.655 99.8695 105.993 98.5961 105.991 97.3004C105.99 96.0047 105.648 94.7321 105 93.61L81.41 52.67C80.7629 51.5449 79.8282 50.6121 78.7018 49.9672C77.5755 49.3223 76.2979 48.9885 75 49V49C73.6996 48.9936 72.4208 49.3328 71.2945 49.9829C70.1682 50.633 69.2349 51.5707 68.59 52.7L45 93.61C44.3504 94.735 44.0085 96.0112 44.0086 97.3103C44.0086 98.6094 44.3507 99.8856 45.0003 101.011C45.65 102.136 46.5844 103.07 47.7095 103.719C48.8346 104.368 50.1109 104.71 51.41 104.71H72.2V101.71H51.37C50.598 101.709 49.8399 101.505 49.1715 101.118C48.503 100.732 47.9477 100.177 47.561 99.5091C47.1743 98.841 46.9697 98.083 46.9678 97.311C46.9659 96.539 47.1666 95.7801 47.55 95.11L71.19 54.17C71.5768 53.504 72.1331 52.9524 72.8024 52.5712C73.4716 52.19 74.2299 51.9929 75 52C75.7746 51.9952 76.5365 52.1964 77.2077 52.583C77.8789 52.9696 78.4354 53.5276 78.82 54.2L102.45 95.1C102.836 95.7703 103.039 96.5303 103.038 97.3038C103.037 98.0773 102.833 98.8369 102.446 99.5066C102.059 100.176 101.503 100.732 100.833 101.119C100.163 101.506 99.4034 101.71 98.63 101.71V101.71Z" fill="#1B3139"/>
<path d="M75 94.59C76.3641 94.59 77.47 93.4842 77.47 92.12C77.47 90.7559 76.3641 89.65 75 89.65C73.6359 89.65 72.53 90.7559 72.53 92.12C72.53 93.4842 73.6359 94.59 75 94.59Z" fill="#1B3139"/>
<path d="M76.5 65.6H73.5V85.65H76.5V65.6Z" fill="#1B3139"/>
</svg>
