<svg width="150" height="150" viewBox="0 0 150 150" fill="none" xmlns="http://www.w3.org/2000/svg">
<path d="M118.92 121.33V46.84L92.75 20.76H89.57V44.76C89.5726 46.8571 90.4068 48.8675 91.8897 50.3503C93.3725 51.8331 95.3829 52.6674 97.48 52.67H109.82V49.67H97.48C96.1777 49.67 94.9289 49.1527 94.0081 48.2319C93.0873 47.3111 92.57 46.0622 92.57 44.76V24.82L115.92 48.08V121.33C115.92 122.632 115.403 123.881 114.482 124.802C113.561 125.723 112.312 126.24 111.01 126.24H39C37.6978 126.24 36.4489 125.723 35.5281 124.802C34.6073 123.881 34.09 122.632 34.09 121.33V28.67C34.09 27.3678 34.6073 26.1189 35.5281 25.1981C36.4489 24.2773 37.6978 23.76 39 23.76H83.8V20.76H39C36.9029 20.7627 34.8925 21.5969 33.4097 23.0797C31.9268 24.5626 31.0926 26.573 31.09 28.67V121.33C31.0926 123.427 31.9268 125.437 33.4097 126.92C34.8925 128.403 36.9029 129.237 39 129.24H111C113.099 129.24 115.112 128.407 116.597 126.924C118.082 125.441 118.917 123.429 118.92 121.33Z" fill="#FF5F46"/>
<path d="M98.63 101.71H77.8V104.71H98.63C99.9257 104.703 101.197 104.356 102.316 103.704C103.436 103.052 104.365 102.117 105.01 100.993C105.655 99.8696 105.993 98.5961 105.991 97.3004C105.99 96.0047 105.648 94.7322 105 93.61L81.41 52.67C80.7628 51.545 79.8282 50.6122 78.7018 49.9673C77.5754 49.3224 76.2978 48.9886 75 49C73.6995 48.9936 72.4207 49.3329 71.2945 49.983C70.1682 50.6331 69.2348 51.5708 68.59 52.7L45 93.61C44.3504 94.7351 44.0085 96.0113 44.0085 97.3104C44.0086 98.6095 44.3507 99.8857 45.0003 101.011C45.65 102.136 46.5843 103.07 47.7095 103.719C48.8346 104.369 50.1109 104.71 51.41 104.71H72.2V101.71H51.37C50.598 101.709 49.8399 101.505 49.1714 101.118C48.503 100.732 47.9477 100.177 47.561 99.5092C47.1742 98.841 46.9697 98.0831 46.9678 97.3111C46.9658 96.5391 47.1666 95.7801 47.55 95.11L71.19 54.17C71.5768 53.5041 72.1331 52.9524 72.8023 52.5713C73.4716 52.1901 74.2298 51.993 75 52C75.7745 51.9953 76.5365 52.1965 77.2077 52.5831C77.8789 52.9697 78.4353 53.5277 78.82 54.2L102.45 95.1C102.836 95.7704 103.039 96.5304 103.038 97.3039C103.037 98.0773 102.833 98.837 102.446 99.5066C102.059 100.176 101.503 100.732 100.833 101.119C100.163 101.506 99.4034 101.71 98.63 101.71Z" fill="#FF5F46"/>
<path d="M75 94.5899C76.3642 94.5899 77.47 93.484 77.47 92.1199C77.47 90.7558 76.3642 89.6499 75 89.6499C73.6359 89.6499 72.53 90.7558 72.53 92.1199C72.53 93.484 73.6359 94.5899 75 94.5899Z" fill="#FF5F46"/>
<path d="M76.5 65.6001H73.5V85.6501H76.5V65.6001Z" fill="#FF5F46"/>
</svg>
