<svg width="150" height="150" viewBox="0 0 150 150" fill="none" xmlns="http://www.w3.org/2000/svg">
<path d="M106.3 131H43.7001V122.4C43.7001 118.1 47.2001 114.6 51.5 114.6H73.5V99.4H128.7V22H21.3V99.3H67.8001V102.3H18.3V19H131.8V102.3H76.6V117.5H51.6C48.9 117.5 46.8 119.7 46.8 122.3V127.9H103.4V122.3C103.4 119.6 101.2 117.5 98.6001 117.5H82.3V114.5H98.5C102.8 114.5 106.3 118 106.3 122.3V131Z" fill="#FF5F46"/>
<path d="M120.3 89.9999H108.8V34.7999H96.9V89.9999H82.4V60.2999H70.5V89.9999H56.1V74.6999H44.6V89.9999H30.4V31.3999H33.4V86.9999H41.6V71.6999H59.1V86.9999H67.5V57.2999H85.4V86.9999H93.9V31.7999H111.8V86.9999H120.3V89.9999Z" fill="#FF5F46"/>
</svg>
