<svg width="150" height="150" viewBox="0 0 150 150" fill="none" xmlns="http://www.w3.org/2000/svg">
<path d="M106.3 131H43.7V122.4C43.7 118.1 47.2 114.6 51.5 114.6H73.5V99.4H128.7V22H21.3V99.3H67.8V102.3H18.3V19H131.8V102.3H76.6V117.5H51.6C48.9 117.5 46.8 119.7 46.8 122.3V127.9H103.4V122.3C103.4 119.6 101.2 117.5 98.6 117.5H82.3V114.5H98.5C102.8 114.5 106.3 118 106.3 122.3V131Z" fill="#1B3139"/>
<path d="M120.3 90H108.8V34.8H96.9V90H82.4V60.3H70.5V90H56.1V74.7H44.6V90H30.4V31.4H33.4V87H41.6V71.7H59.1V87H67.5V57.3H85.4V87H93.9V31.8H111.8V87H120.3V90Z" fill="#1B3139"/>
</svg>
