<svg width="150" height="150" viewBox="0 0 150 150" fill="none" xmlns="http://www.w3.org/2000/svg">
<g clip-path="url(#clip0_1_1987)">
<path fill-rule="evenodd" clip-rule="evenodd" d="M52.5 48.3999C49.4624 48.3999 47 50.8623 47 53.8999C47 56.9375 49.4624 59.3999 52.5 59.3999C55.5376 59.3999 58 56.9375 58 53.8999C58 50.8623 55.5376 48.3999 52.5 48.3999ZM44 53.8999C44 49.2055 47.8056 45.3999 52.5 45.3999C57.1944 45.3999 61 49.2055 61 53.8999C61 58.5943 57.1944 62.3999 52.5 62.3999C47.8056 62.3999 44 58.5943 44 53.8999Z" fill="#1B3139"/>
<path fill-rule="evenodd" clip-rule="evenodd" d="M89.5 46.3999H104.3V61.1999H89.5V46.3999ZM92.5 49.3999V58.1999H101.3V49.3999H92.5Z" fill="#1B3139"/>
<path fill-rule="evenodd" clip-rule="evenodd" d="M52.5 70.2998C49.4624 70.2998 47 72.7622 47 75.7998C47 78.8374 49.4624 81.2998 52.5 81.2998C55.5376 81.2998 58 78.8374 58 75.7998C58 72.7622 55.5376 70.2998 52.5 70.2998ZM44 75.7998C44 71.1054 47.8056 67.2998 52.5 67.2998C57.1944 67.2998 61 71.1054 61 75.7998C61 80.4942 57.1944 84.2998 52.5 84.2998C47.8056 84.2998 44 80.4942 44 75.7998Z" fill="#1B3139"/>
<path fill-rule="evenodd" clip-rule="evenodd" d="M104.347 83.2378H89.5474V68.4378H104.347V83.2378ZM101.347 80.2378V71.4378H92.5474V80.2378H101.347Z" fill="#1B3139"/>
<path fill-rule="evenodd" clip-rule="evenodd" d="M74.5827 43.9329L79.6968 52.546L84.6798 61.3H64.6201L69.6014 52.5492L74.5827 43.9329ZM74.6172 49.8671L72.2011 54.0465L69.7798 58.3H79.5202L77.1032 54.054L74.6172 49.8671Z" fill="#1B3139"/>
<path fill-rule="evenodd" clip-rule="evenodd" d="M74.5827 65.7981L79.6986 74.549L84.6998 83.1998H64.6002L69.5989 74.5534L74.5827 65.7981ZM74.6173 71.8015L72.1986 76.0506L69.7998 80.1998H79.5002L77.1032 76.0537L74.6173 71.8015Z" fill="#1B3139"/>
<path fill-rule="evenodd" clip-rule="evenodd" d="M52.5 92.5999C49.4624 92.5999 47 95.0623 47 98.0999C47 101.137 49.4624 103.6 52.5 103.6C55.5376 103.6 58 101.137 58 98.0999C58 95.0623 55.5376 92.5999 52.5 92.5999ZM44 98.0999C44 93.4054 47.8056 89.5999 52.5 89.5999C57.1944 89.5999 61 93.4054 61 98.0999C61 102.794 57.1944 106.6 52.5 106.6C47.8056 106.6 44 102.794 44 98.0999Z" fill="#1B3139"/>
<path fill-rule="evenodd" clip-rule="evenodd" d="M104.347 105.575H89.5474V90.7749H104.347V105.575ZM101.347 102.575V93.7749H92.5474V102.575H101.347Z" fill="#1B3139"/>
<path fill-rule="evenodd" clip-rule="evenodd" d="M74.5827 88.2327L79.6968 96.8458L84.6798 105.6H64.6201L69.6014 96.849L74.5827 88.2327ZM74.6172 94.1669L72.2011 98.3462L69.7798 102.6H79.5202L77.1032 98.3538L74.6172 94.1669Z" fill="#1B3139"/>
<path fill-rule="evenodd" clip-rule="evenodd" d="M75 19.3999C44.293 19.3999 19.4 44.2929 19.4 74.9999C19.4 105.707 44.293 130.6 75 130.6C105.707 130.6 130.6 105.707 130.6 74.9999C130.6 44.2929 105.707 19.3999 75 19.3999ZM16.4 74.9999C16.4 42.636 42.6361 16.3999 75 16.3999C107.364 16.3999 133.6 42.636 133.6 74.9999C133.6 107.364 107.364 133.6 75 133.6C42.6361 133.6 16.4 107.364 16.4 74.9999Z" fill="#1B3139"/>
</g>
<defs>
<clipPath id="clip0_1_1987">
<rect width="150" height="150" fill="white"/>
</clipPath>
</defs>
</svg>
