<svg width="150" height="150" viewBox="0 0 150 150" fill="none" xmlns="http://www.w3.org/2000/svg">
<g clip-path="url(#clip0_214_438)">
<path fill-rule="evenodd" clip-rule="evenodd" d="M52.5 48.4C49.4624 48.4 47 50.8624 47 53.9C47 56.9376 49.4624 59.4 52.5 59.4C55.5376 59.4 58 56.9376 58 53.9C58 50.8624 55.5376 48.4 52.5 48.4ZM44 53.9C44 49.2056 47.8056 45.4 52.5 45.4C57.1944 45.4 61 49.2056 61 53.9C61 58.5944 57.1944 62.4 52.5 62.4C47.8056 62.4 44 58.5944 44 53.9Z" fill="#FF5F46"/>
<path fill-rule="evenodd" clip-rule="evenodd" d="M89.5 46.4H104.3V61.2H89.5V46.4ZM92.5 49.4V58.2H101.3V49.4H92.5Z" fill="#FF5F46"/>
<path fill-rule="evenodd" clip-rule="evenodd" d="M52.5 70.3C49.4624 70.3 47 72.7624 47 75.8C47 78.8376 49.4624 81.3 52.5 81.3C55.5376 81.3 58 78.8376 58 75.8C58 72.7624 55.5376 70.3 52.5 70.3ZM44 75.8C44 71.1056 47.8056 67.3 52.5 67.3C57.1944 67.3 61 71.1056 61 75.8C61 80.4944 57.1944 84.3 52.5 84.3C47.8056 84.3 44 80.4944 44 75.8Z" fill="#FF5F46"/>
<path fill-rule="evenodd" clip-rule="evenodd" d="M104.347 83.2378H89.5474V68.4378H104.347V83.2378ZM101.347 80.2378V71.4378H92.5474V80.2378H101.347Z" fill="#FF5F46"/>
<path fill-rule="evenodd" clip-rule="evenodd" d="M74.5827 43.9329L79.6968 52.546L84.6798 61.3H64.6201L69.6013 52.5492L74.5827 43.9329ZM74.6172 49.8671L72.201 54.0465L69.7798 58.3H79.5201L77.1032 54.054L74.6172 49.8671Z" fill="#FF5F46"/>
<path fill-rule="evenodd" clip-rule="evenodd" d="M74.5827 65.7983L79.6987 74.5492L84.6999 83.2H64.6002L69.5989 74.5536L74.5827 65.7983ZM74.6174 71.8017L72.1987 76.0508L69.7999 80.2H79.5002L77.1033 76.0539L74.6174 71.8017Z" fill="#FF5F46"/>
<path fill-rule="evenodd" clip-rule="evenodd" d="M52.5 92.6C49.4624 92.6 47 95.0624 47 98.1C47 101.138 49.4624 103.6 52.5 103.6C55.5376 103.6 58 101.138 58 98.1C58 95.0624 55.5376 92.6 52.5 92.6ZM44 98.1C44 93.4056 47.8056 89.6 52.5 89.6C57.1944 89.6 61 93.4056 61 98.1C61 102.794 57.1944 106.6 52.5 106.6C47.8056 106.6 44 102.794 44 98.1Z" fill="#FF5F46"/>
<path fill-rule="evenodd" clip-rule="evenodd" d="M104.347 105.575H89.5474V90.775H104.347V105.575ZM101.347 102.575V93.775H92.5474V102.575H101.347Z" fill="#FF5F46"/>
<path fill-rule="evenodd" clip-rule="evenodd" d="M74.5827 88.2329L79.6968 96.846L84.6798 105.6H64.6201L69.6013 96.8492L74.5827 88.2329ZM74.6172 94.1671L72.2011 98.3464L69.7798 102.6H79.5201L77.1032 98.354L74.6172 94.1671Z" fill="#FF5F46"/>
<path fill-rule="evenodd" clip-rule="evenodd" d="M75 19.4C44.293 19.4 19.4 44.293 19.4 75C19.4 105.707 44.293 130.6 75 130.6C105.707 130.6 130.6 105.707 130.6 75C130.6 44.293 105.707 19.4 75 19.4ZM16.4 75C16.4 42.6361 42.6361 16.4 75 16.4C107.364 16.4 133.6 42.6361 133.6 75C133.6 107.364 107.364 133.6 75 133.6C42.6361 133.6 16.4 107.364 16.4 75Z" fill="#FF5F46"/>
</g>
<defs>
<clipPath id="clip0_214_438">
<rect width="150" height="150" fill="white"/>
</clipPath>
</defs>
</svg>
