<svg width="150" height="150" viewBox="0 0 150 150" fill="none" xmlns="http://www.w3.org/2000/svg">
<g clip-path="url(#clip0_5482_2128)">
<path d="M58.73 92.6602L33.78 117.61C52.86 136.69 81.88 139.78 104.18 126.88" stroke="#FF5F46" stroke-width="3" stroke-miterlimit="3" stroke-linecap="square"/>
<path d="M24.5 105.56C11.6 83.2602 14.6901 54.2402 33.7701 35.1602L58.7201 60.1102" stroke="#FF5F46" stroke-width="3" stroke-miterlimit="3" stroke-linecap="square"/>
<path d="M45.83 25.8898C68.13 12.9898 97.15 16.0798 116.23 35.1598L91.28 60.1098" stroke="#FF5F46" stroke-width="3" stroke-miterlimit="3" stroke-linecap="square"/>
<path d="M91.27 92.6502L116.22 117.6C135.3 98.5202 138.39 69.5002 125.49 47.2002" stroke="#FF5F46" stroke-width="3" stroke-miterlimit="3" stroke-linecap="square"/>
<path d="M75 87.3599C81.0641 87.3599 85.98 82.444 85.98 76.3799C85.98 70.3158 81.0641 65.3999 75 65.3999C68.9359 65.3999 64.02 70.3158 64.02 76.3799C64.02 82.444 68.9359 87.3599 75 87.3599Z" stroke="#FF5F46" stroke-width="3" stroke-miterlimit="3" stroke-linecap="square"/>
<path d="M89.9399 45.4302L90.0699 61.4402L106.07 61.3102" stroke="#FF5F46" stroke-width="3" stroke-miterlimit="3" stroke-linecap="square"/>
<path d="M60.0601 107.33L59.9301 91.3301L43.9301 91.4601" stroke="#FF5F46" stroke-width="3" stroke-miterlimit="3" stroke-linecap="square"/>
<path d="M44.05 61.4401L60.0601 61.3101L59.93 45.3101" stroke="#FF5F46" stroke-width="3" stroke-miterlimit="3" stroke-linecap="square"/>
<path d="M105.95 91.3198L89.9399 91.4498L90.0699 107.45" stroke="#FF5F46" stroke-width="3" stroke-miterlimit="3" stroke-linecap="square"/>
</g>
<defs>
<clipPath id="clip0_5482_2128">
<rect width="150" height="150" fill="white"/>
</clipPath>
</defs>
</svg>
