<svg width="150" height="150" viewBox="0 0 150 150" fill="none" xmlns="http://www.w3.org/2000/svg">
<g clip-path="url(#clip0_1_2235)">
<path d="M58.73 92.6599L33.78 117.61C52.86 136.69 81.88 139.78 104.18 126.88" stroke="#1B3139" stroke-width="3" stroke-miterlimit="3" stroke-linecap="square"/>
<path d="M24.5 105.56C11.6 83.2599 14.69 54.2399 33.77 35.1599L58.72 60.1099" stroke="#1B3139" stroke-width="3" stroke-miterlimit="3" stroke-linecap="square"/>
<path d="M45.83 25.8901C68.13 12.9901 97.15 16.0801 116.23 35.1601L91.28 60.1101" stroke="#1B3139" stroke-width="3" stroke-miterlimit="3" stroke-linecap="square"/>
<path d="M91.27 92.65L116.22 117.6C135.3 98.5199 138.39 69.5 125.49 47.2" stroke="#1B3139" stroke-width="3" stroke-miterlimit="3" stroke-linecap="square"/>
<path d="M75 87.3599C81.0641 87.3599 85.98 82.444 85.98 76.3799C85.98 70.3158 81.0641 65.3999 75 65.3999C68.9359 65.3999 64.02 70.3158 64.02 76.3799C64.02 82.444 68.9359 87.3599 75 87.3599Z" stroke="#1B3139" stroke-width="3" stroke-miterlimit="3" stroke-linecap="square"/>
<path d="M89.94 45.4299L90.07 61.4399L106.07 61.3099" stroke="#1B3139" stroke-width="3" stroke-miterlimit="3" stroke-linecap="square"/>
<path d="M60.06 107.33L59.93 91.3301L43.93 91.4601" stroke="#1B3139" stroke-width="3" stroke-miterlimit="3" stroke-linecap="square"/>
<path d="M44.05 61.4401L60.06 61.3101L59.93 45.3101" stroke="#1B3139" stroke-width="3" stroke-miterlimit="3" stroke-linecap="square"/>
<path d="M105.95 91.3201L89.94 91.4501L90.07 107.45" stroke="#1B3139" stroke-width="3" stroke-miterlimit="3" stroke-linecap="square"/>
</g>
<defs>
<clipPath id="clip0_1_2235">
<rect width="150" height="150" fill="white"/>
</clipPath>
</defs>
</svg>
