<svg width="150" height="150" viewBox="0 0 150 150" fill="none" xmlns="http://www.w3.org/2000/svg">
<g clip-path="url(#clip0_1_2230)">
<path d="M64.31 90.6001H79.8C83.77 90.6001 86.99 87.3801 86.99 83.4101C86.99 79.4401 83.77 76.2201 79.8 76.2201H70C66.03 76.2201 62.81 73.0001 62.81 69.0301C62.81 65.0601 66.03 61.8401 70 61.8401H85.49" stroke="#1B3139" stroke-width="3" stroke-miterlimit="3" stroke-linecap="square"/>
<path d="M45.12 76.38C45.12 59.88 58.5 46.5 75 46.5V106.25C91.5 106.25 104.88 92.87 104.88 76.37" stroke="#1B3139" stroke-width="3" stroke-miterlimit="3" stroke-linecap="square"/>
<path d="M98.77 32.4201C95.78 30.8001 92.6 29.5001 89.28 28.5101V18.0801H60.72V28.5101C57.4 29.5001 54.22 30.8001 51.23 32.4201L43.87 25.0601L23.48 45.0501L31.04 52.6101C29.42 55.6001 28.12 58.7801 27.13 62.1001H16.7V90.6601H27.13C28.12 93.9801 29.42 97.1601 31.04 100.15L23.93 107.27L33.9 117.48L53.88 97.5001C48.47 92.0901 45.13 84.6201 45.13 76.3701M51.23 120.34C54.22 121.96 57.41 123.26 60.72 124.25V134.68H89.28V124.25C92.6 123.26 95.78 121.96 98.77 120.34L106.13 127.7L126.32 107.51L118.96 100.15C120.58 97.1601 121.88 93.9701 122.87 90.6601H133.3V62.1001H122.87C121.88 58.7801 120.58 55.6001 118.96 52.6101L126.32 45.2501L116.24 35.1701L96.14 55.2701C101.54 60.6801 104.88 68.1401 104.88 76.3801" stroke="#1B3139" stroke-width="3" stroke-miterlimit="3" stroke-linecap="square"/>
</g>
<defs>
<clipPath id="clip0_1_2230">
<rect width="150" height="150" fill="white"/>
</clipPath>
</defs>
</svg>
