<svg width="150" height="150" viewBox="0 0 150 150" fill="none" xmlns="http://www.w3.org/2000/svg">
<g clip-path="url(#clip0_5482_2080)">
<path d="M64.3101 90.5998H79.8001C83.7701 90.5998 86.9901 87.3798 86.9901 83.4098C86.9901 79.4398 83.7701 76.2198 79.8001 76.2198H70.0001C66.0301 76.2198 62.8101 72.9998 62.8101 69.0298C62.8101 65.0598 66.0301 61.8398 70.0001 61.8398H85.4901" stroke="#FF5F46" stroke-width="3" stroke-miterlimit="3" stroke-linecap="square"/>
<path d="M45.12 76.38C45.12 59.88 58.5 46.5 75 46.5V106.25C91.5 106.25 104.88 92.87 104.88 76.37" stroke="#FF5F46" stroke-width="3" stroke-miterlimit="3" stroke-linecap="square"/>
<path d="M98.7699 32.4201C95.7799 30.8001 92.6 29.5001 89.28 28.5101V18.0801H60.72V28.5101C57.4 29.5001 54.2199 30.8001 51.2299 32.4201L43.8699 25.0601L23.4799 45.0501L31.04 52.6101C29.42 55.6001 28.1199 58.7801 27.1299 62.1001H16.7V90.6601H27.1299C28.1199 93.9801 29.42 97.1601 31.04 100.15L23.93 107.27L33.9 117.48L53.88 97.5001C48.47 92.0901 45.13 84.6201 45.13 76.3701M51.2299 120.34C54.2199 121.96 57.41 123.26 60.72 124.25V134.68H89.28V124.25C92.6 123.26 95.7799 121.96 98.7699 120.34L106.13 127.7L126.32 107.51L118.96 100.15C120.58 97.1601 121.88 93.9701 122.87 90.6601H133.3V62.1001H122.87C121.88 58.7801 120.58 55.6001 118.96 52.6101L126.32 45.2501L116.24 35.1701L96.14 55.2701C101.54 60.6801 104.88 68.1401 104.88 76.3801" stroke="#FF5F46" stroke-width="3" stroke-miterlimit="3" stroke-linecap="square"/>
</g>
<defs>
<clipPath id="clip0_5482_2080">
<rect width="150" height="150" fill="white"/>
</clipPath>
</defs>
</svg>
