<svg width="150" height="150" viewBox="0 0 150 150" fill="none" xmlns="http://www.w3.org/2000/svg">
<g clip-path="url(#clip0_5467_2615)">
<path d="M81.73 21.85C82.39 20.72 82.76 19.4 82.76 18C82.76 13.74 79.31 10.29 75.05 10.29C70.79 10.29 67.34 13.74 67.34 18C67.34 22.26 70.79 25.71 75.05 25.71V36.06" stroke="#FF5F46" stroke-width="3" stroke-miterlimit="3" stroke-linecap="square"/>
<path d="M75.05 124.57C79.31 124.57 82.76 128.02 82.76 132.28C82.76 136.54 79.31 139.99 75.05 139.99C70.79 139.99 67.34 136.54 67.34 132.28C67.34 130.88 67.72 129.56 68.37 128.43" stroke="#FF5F46" stroke-width="3" stroke-miterlimit="3" stroke-linecap="square"/>
<path d="M32.24 50.4202C30.11 54.1102 25.4 55.3702 21.71 53.2402C18.02 51.1102 16.76 46.4002 18.89 42.7102C21.02 39.0202 25.73 37.7602 29.42 39.8902C30.64 40.5902 31.59 41.5802 32.24 42.7102" stroke="#FF5F46" stroke-width="3" stroke-miterlimit="3" stroke-linecap="square"/>
<path d="M117.86 99.8498C119.99 96.1598 124.7 94.8998 128.39 97.0298C132.08 99.1598 133.34 103.87 131.21 107.56C129.08 111.25 124.37 112.51 120.68 110.38C119.46 109.68 118.51 108.69 117.86 107.56" stroke="#FF5F46" stroke-width="3" stroke-miterlimit="3" stroke-linecap="square"/>
<path d="M32.24 99.8502C34.37 103.54 33.11 108.25 29.42 110.38C25.73 112.51 21.02 111.25 18.89 107.56C16.76 103.87 18.02 99.1602 21.71 97.0302C22.93 96.3302 24.25 95.9902 25.56 96.0002" stroke="#FF5F46" stroke-width="3" stroke-miterlimit="3" stroke-linecap="square"/>
<path d="M117.86 50.4202C115.73 46.7302 116.99 42.0202 120.68 39.8902C124.37 37.7602 129.08 39.0202 131.21 42.7102C133.34 46.4002 132.08 51.1102 128.39 53.2402C127.17 53.9402 125.85 54.2802 124.54 54.2702" stroke="#FF5F46" stroke-width="3" stroke-miterlimit="3" stroke-linecap="square"/>
<path d="M99.55 69.96L75.05 83.74L48.87 69.01L47.63 69.7V80.41L75.05 95.84L99.55 82.06V87.74L75.05 101.53L48.88 86.8L47.63 87.5V89.31L75.05 104.74L102.47 89.31V78.6L101.23 77.91L75.05 92.63L50.56 78.86V73.19L75.05 86.96L102.47 71.53V60.97L101.09 60.2L75.05 74.85L51.85 61.8L75.05 48.75L94.17 59.5L95.87 58.54V57.25L75.05 45.54L47.63 60.97V62.63L75.05 78.06L99.55 64.28V69.96Z" fill="#FF5F46"/>
<path d="M63.02 24.9502L32.24 42.7102" stroke="#FF5F46" stroke-width="3" stroke-miterlimit="3" stroke-linecap="square"/>
<path d="M117.86 42.7101L81.73 21.8501" stroke="#FF5F46" stroke-width="3" stroke-miterlimit="3" stroke-linecap="square"/>
<path d="M124.54 95.9803V54.2803" stroke="#FF5F46" stroke-width="3" stroke-miterlimit="3" stroke-linecap="square"/>
<path d="M87.09 125.33L117.86 107.56" stroke="#FF5F46" stroke-width="3" stroke-miterlimit="3" stroke-linecap="square"/>
<path d="M32.24 107.56L68.38 128.42" stroke="#FF5F46" stroke-width="3" stroke-miterlimit="3" stroke-linecap="square"/>
<path d="M25.57 54.2998V95.9998" stroke="#FF5F46" stroke-width="3" stroke-miterlimit="3" stroke-linecap="square"/>
<path d="M75.05 114.22V124.57" stroke="#FF5F46" stroke-width="3" stroke-miterlimit="3" stroke-linecap="square"/>
<path d="M108.9 55.5999L117.86 50.4199" stroke="#FF5F46" stroke-width="3" stroke-miterlimit="3" stroke-linecap="square"/>
<path d="M32.24 99.8502L41.21 94.6802" stroke="#FF5F46" stroke-width="3" stroke-miterlimit="3" stroke-linecap="square"/>
<path d="M41.21 55.5999L32.24 50.4199" stroke="#FF5F46" stroke-width="3" stroke-miterlimit="3" stroke-linecap="square"/>
<path d="M117.86 99.8502L108.9 94.6802" stroke="#FF5F46" stroke-width="3" stroke-miterlimit="3" stroke-linecap="square"/>
</g>
<defs>
<clipPath id="clip0_5467_2615">
<rect width="150" height="150" fill="white"/>
</clipPath>
</defs>
</svg>
