<svg width="150" height="150" viewBox="0 0 150 150" fill="none" xmlns="http://www.w3.org/2000/svg">
<path d="M88.7 53.1C88.7 44.4 85 36.6 79.3 32.4C91.1 34.2 100.1 44.4 100.1 56.7V66.5H103.1V56.7C103.1 41.7 91 29.4 76 29.2V13.4H89.7V20H79.8V23H92.7V10.4H73V29.3C59 30.6 48 42.4 48 56.7V66.6H88.7V53.1ZM85.7 63.5H51V56.6C51 44.8 59.3 35 70.4 32.6C64.8 36.9 61.3 44.6 61.3 53.1V58.5H64.3V53.1C64.3 45.1 67.7 38.1 73 34.5V58.5H76V33.9C81.9 37.2 85.7 44.7 85.7 53.2V63.5Z" fill="#FF5F46"/>
<path d="M126.6 115.6C129.6 112.9 131.4 108.9 131.4 104.5C131.4 99.1 129.5 95 126.2 92.5V79.2H111.8V71H39.4V79.3H25V113.6H37.2V97.6C37.2 95.6 38.8 94 40.8 94C42.8 94 44.4 95.6 44.4 97.6V113.5H54.4V97.6C54.4 95.6 56 94 58 94C60 94 61.6 95.6 61.6 97.6V113.5H71.6V97.6C71.6 95.6 73.2 94 75.2 94C77.2 94 78.8 95.6 78.8 97.6V113.5H85.4V110.5H81.8V97.6C81.8 94 78.8 91 75.2 91C71.6 91 68.6 94 68.6 97.6V110.5H64.6V97.6C64.6 94 61.6 91 58 91C54.4 91 51.4 94 51.4 97.6V110.5H47.4V97.6C47.4 94 44.4 91 40.8 91C37.2 91 34.2 94 34.2 97.6V110.5H28V82.2H123.1V90.8C121.6 90.2 119.9 89.9 118.1 89.9C116.6 89.9 115.1 90.1 113.8 90.5C111.3 86.3 106.9 83.8 101.2 83.8C91.8 83.8 86.2 90 86.2 100.3C86.2 105.4 88.3 110.1 91.8 113.2C88 114.6 84.9 116.9 82.5 120.1H24.4V123.1H80.8C79.8 125 79 127.2 78.4 129.6H21.1V132.6H137L138.5 130.8C136.9 123.3 132.8 118 126.6 115.6ZM42.4 74H108.6V79.3H42.4V74ZM81.4 129.5C82.9 123.7 86.6 117.2 95.6 115.2L96 112.4C91.8 110.1 89.2 105.5 89.2 100.3C89.2 96.2 90.4 86.8 101.2 86.8C108.7 86.8 113.2 91.8 113.2 100.3C113.2 105.5 110.6 110.2 106.4 112.4L106.8 115.2C113.9 116.8 118.9 121.9 121 129.5H81.4ZM124.1 129.5C122.2 121.5 117.4 115.8 110.6 113.2C114.2 110.1 116.3 105.4 116.3 100.3C116.3 97.7 115.9 95.3 115.1 93.3C116 93.1 117 93 118.1 93C124.5 93 128.3 97.3 128.3 104.5C128.3 108.9 126.1 112.9 122.5 114.8L122.9 117.6C128.9 119 133.2 123.2 135 129.6H124.1V129.5Z" fill="#FF5F46"/>
</svg>
