<svg width="150" height="150" viewBox="0 0 150 150" fill="none" xmlns="http://www.w3.org/2000/svg">
<path d="M28.2 32.3999C25.2 32.3999 22.7 34.8999 22.7 37.8999V49.8999C22.7 52.8999 25.2 55.3999 28.2 55.3999H118.7V52.3999H28.2C26.8 52.3999 25.7 51.2999 25.7 49.8999V37.8999C25.7 36.4999 26.8 35.3999 28.2 35.3999H124.2V113.3V114.7H121.7V117.7H127.2V116.2V113.3V32.3999H28.2Z" fill="white"/>
<path d="M22.7 69V81C22.7 84 25.2 86.5 28.2 86.5H118.8V83.5H28.2C26.8 83.5 25.7 82.4 25.7 81V69C25.7 67.6 26.8 66.5 28.2 66.5H118.8V63.5H28.2C25.2 63.5 22.7 66 22.7 69Z" fill="white"/>
<path d="M118.9 94.5999H114.9V97.5999H118.9V94.5999Z" fill="white"/>
<path d="M44.7 114.6H36.6V117.6H44.7V114.6Z" fill="white"/>
<path d="M58.9 114.6H50.8V117.6H58.9V114.6Z" fill="white"/>
<path d="M66.2 94.5999H58.1V97.5999H66.2V94.5999Z" fill="white"/>
<path d="M25.7 112.4L22.7 112.7C23 115.5 25.4 117.6 28.2 117.6H30.5V114.6H28.2C27 114.6 25.9 113.7 25.7 112.4Z" fill="white"/>
<path d="M25.7 100.1C25.7 99.6999 25.8 99.3999 25.9 99.0999L23.2 97.8999C22.9 98.5999 22.7 99.3999 22.7 100.2V106.6H25.7V100.1Z" fill="white"/>
<path d="M73.1 114.6H65V117.6H73.1V114.6Z" fill="white"/>
<path d="M37.8 94.5999H29.7V97.5999H37.8V94.5999Z" fill="white"/>
<path d="M52 94.5999H43.9V97.5999H52V94.5999Z" fill="white"/>
<path d="M101.5 114.6H93.4V117.6H101.5V114.6Z" fill="white"/>
<path d="M108.8 94.5999H100.7V97.5999H108.8V94.5999Z" fill="white"/>
<path d="M80.4 94.5999H72.3V97.5999H80.4V94.5999Z" fill="white"/>
<path d="M115.7 114.6H107.6V117.6H115.7V114.6Z" fill="white"/>
<path d="M87.3 114.6H79.2V117.6H87.3V114.6Z" fill="white"/>
<path d="M94.6 94.5999H86.5V97.5999H94.6V94.5999Z" fill="white"/>
<path d="M31.2 43.8998C31.2 45.0998 32.1 45.9998 33.3 45.9998C34.5 45.9998 35.4 45.0998 35.4 43.8998C35.4 42.6998 34.5 41.7998 33.3 41.7998C32.1 41.7998 31.2 42.6998 31.2 43.8998Z" fill="white"/>
<path d="M31.2 74.9999C31.2 76.1999 32.1 77.0999 33.3 77.0999C34.5 77.0999 35.4 76.1999 35.4 74.9999C35.4 73.7999 34.5 72.8999 33.3 72.8999C32.1 72.8999 31.2 73.7999 31.2 74.9999Z" fill="white"/>
<path d="M33.3 104C32.1 104 31.2 104.9 31.2 106.1C31.2 107.3 32.1 108.2 33.3 108.2C34.5 108.2 35.4 107.3 35.4 106.1C35.4 104.9 34.5 104 33.3 104Z" fill="white"/>
</svg>
