<svg width="150" height="150" viewBox="0 0 150 150" fill="none" xmlns="http://www.w3.org/2000/svg">
<path d="M28.2 32.4C25.2 32.4 22.7 34.9 22.7 37.9V49.9C22.7 52.9 25.2 55.4 28.2 55.4H118.7V52.4H28.2C26.8 52.4 25.7 51.3 25.7 49.9V37.9C25.7 36.5 26.8 35.4 28.2 35.4H124.2V113.3V114.7H121.7V117.7H127.2V116.2V113.3V32.4H28.2Z" fill="#FF5F46"/>
<path d="M22.7 69V81C22.7 84 25.2 86.5 28.2 86.5H118.8V83.5H28.2C26.8 83.5 25.7 82.4 25.7 81V69C25.7 67.6 26.8 66.5 28.2 66.5H118.8V63.5H28.2C25.2 63.5 22.7 66 22.7 69Z" fill="#FF5F46"/>
<path d="M118.9 94.6H114.9V97.6H118.9V94.6Z" fill="#FF5F46"/>
<path d="M44.7 114.6H36.6V117.6H44.7V114.6Z" fill="#FF5F46"/>
<path d="M58.8999 114.6H50.7999V117.6H58.8999V114.6Z" fill="#FF5F46"/>
<path d="M66.2 94.6H58.1V97.6H66.2V94.6Z" fill="#FF5F46"/>
<path d="M25.7 112.4L22.7 112.7C23 115.5 25.4 117.6 28.2 117.6H30.5V114.6H28.2C27 114.6 25.9 113.7 25.7 112.4Z" fill="#FF5F46"/>
<path d="M25.7 100.1C25.7 99.7 25.8 99.4 25.9 99.1L23.2 97.9C22.9 98.6 22.7 99.4 22.7 100.2V106.6H25.7V100.1Z" fill="#FF5F46"/>
<path d="M73.1 114.6H65V117.6H73.1V114.6Z" fill="#FF5F46"/>
<path d="M37.7999 94.6H29.7V97.6H37.7999V94.6Z" fill="#FF5F46"/>
<path d="M51.9999 94.6H43.8999V97.6H51.9999V94.6Z" fill="#FF5F46"/>
<path d="M101.5 114.6H93.3999V117.6H101.5V114.6Z" fill="#FF5F46"/>
<path d="M108.8 94.6H100.7V97.6H108.8V94.6Z" fill="#FF5F46"/>
<path d="M80.3999 94.6H72.2999V97.6H80.3999V94.6Z" fill="#FF5F46"/>
<path d="M115.7 114.6H107.6V117.6H115.7V114.6Z" fill="#FF5F46"/>
<path d="M87.3 114.6H79.2V117.6H87.3V114.6Z" fill="#FF5F46"/>
<path d="M94.6 94.6H86.5V97.6H94.6V94.6Z" fill="#FF5F46"/>
<path d="M31.2 43.9C31.2 45.1 32.0999 46 33.2999 46C34.4999 46 35.4 45.1 35.4 43.9C35.4 42.7 34.4999 41.8 33.2999 41.8C32.0999 41.8 31.2 42.7 31.2 43.9Z" fill="#FF5F46"/>
<path d="M31.2 75C31.2 76.2 32.0999 77.1 33.2999 77.1C34.4999 77.1 35.4 76.2 35.4 75C35.4 73.8 34.4999 72.9 33.2999 72.9C32.0999 72.9 31.2 73.8 31.2 75Z" fill="#FF5F46"/>
<path d="M33.2999 104C32.0999 104 31.2 104.9 31.2 106.1C31.2 107.3 32.0999 108.2 33.2999 108.2C34.4999 108.2 35.4 107.3 35.4 106.1C35.4 104.9 34.4999 104 33.2999 104Z" fill="#FF5F46"/>
</svg>
