<svg width="150" height="150" viewBox="0 0 150 150" fill="none" xmlns="http://www.w3.org/2000/svg">
<g clip-path="url(#clip0_2919_1890)">
<path d="M41.87 126.3H66.61V101.56H41.87V126.3ZM44.71 104.4H63.77V123.46H44.71V104.4Z" fill="#FF5F46"/>
<path d="M106.14 87.6401L103 77.2601L111.64 70.7101L110.81 68.1601L99.94 67.9401L95.07 55.1801L90.2 67.9401L79.33 68.1601L78.5 70.7101L87.14 77.2601L84 87.6401L86.17 89.2201L95.07 83.0301L103.97 89.2201L106.14 87.6401ZM95.07 79.5601L87.9 84.5501L90.43 76.1901L83.47 70.9101L92.17 70.7301L95.07 63.1401L97.97 70.7301L106.67 70.9101L99.71 76.1901L102.24 84.5501L95.07 79.5601Z" fill="#FF5F46"/>
<path d="M18.03 123.59H17.95V63.58H63.76V82.64H44.7V70.08H41.86V85.49H66.6V60.75H15.11V123.61H15.03C15.03 132.93 22.61 140.52 31.93 140.52H94.16V137.52H31.94C24.27 137.52 18.04 131.28 18.04 123.61L18.03 123.59Z" fill="#FF5F46"/>
<path d="M17.9501 37.46C17.9501 29.75 24.2201 23.48 31.9301 23.48H44.8601V29.59C44.8601 33.74 48.2401 37.12 52.3901 37.12C56.5401 37.12 59.9201 33.74 59.9201 29.59H60.0001V23.55H89.9701V29.59C89.9701 33.79 93.3801 37.2 97.5801 37.2C101.78 37.2 105.19 33.79 105.19 29.59V23.48H118.05C125.76 23.48 132.03 29.75 132.03 37.46H134.87C134.87 28.18 127.32 20.63 118.04 20.63H105.18V16.52C105.18 12.32 101.77 8.91002 97.5701 8.91002C93.3701 8.91002 89.9601 12.32 89.9601 16.52H92.9601C92.9601 13.98 95.0301 11.91 97.5701 11.91C100.11 11.91 102.18 13.98 102.18 16.52V29.59C102.18 32.13 100.11 34.2 97.5701 34.2C95.0301 34.2 92.9601 32.13 92.9601 29.59V20.55H59.9901V16.51C59.9901 12.31 56.5801 8.90002 52.3801 8.90002C48.1801 8.90002 44.7701 12.31 44.7701 16.51H47.7701C47.7701 13.97 49.8401 11.9 52.3801 11.9C54.9201 11.9 56.9901 13.97 56.9901 16.51V29.58H57.0701C57.0701 32.17 54.9701 34.27 52.3801 34.27C49.7901 34.27 47.6901 32.17 47.6901 29.58V20.62H31.9101C22.6301 20.62 15.0801 28.17 15.0801 37.45V49.16H132.02V107.64L103.51 136.15V114.8C103.51 111.96 105.82 109.64 108.67 109.64H125.22V106.8H108.67C104.26 106.8 100.67 110.39 100.67 114.8V139.58L103.1 140.58L134.87 108.81V46.31H17.9501V37.45V37.46Z" fill="#FF5F46"/>
</g>
<defs>
<clipPath id="clip0_2919_1890">
<rect width="150" height="150" fill="white"/>
</clipPath>
</defs>
</svg>
