<svg width="151" height="150" viewBox="0 0 151 150" fill="none" xmlns="http://www.w3.org/2000/svg">
<g clip-path="url(#clip0_8407_584)">
<mask id="mask0_8407_584" style="mask-type:luminance" maskUnits="userSpaceOnUse" x="0" y="0" width="151" height="150">
<path d="M150.284 0H0.284058V150H150.284V0Z" fill="white"/>
</mask>
<g mask="url(#mask0_8407_584)">
<path d="M42.1541 126.301H66.8941V101.561H42.1541V126.301ZM44.9941 104.401H64.0541V123.461H44.9941V104.401Z" fill="white"/>
<path d="M106.424 87.6407L103.284 77.2607L111.924 70.7107L111.094 68.1607L100.224 67.9407L95.3541 55.1807L90.4841 67.9407L79.6141 68.1607L78.7841 70.7107L87.4241 77.2607L84.2841 87.6407L86.4541 89.2207L95.3541 83.0307L104.254 89.2207L106.424 87.6407ZM95.3541 79.5607L88.1841 84.5507L90.7141 76.1907L83.7541 70.9107L92.4541 70.7307L95.3541 63.1407L98.2541 70.7307L106.954 70.9107L99.9941 76.1907L102.524 84.5507L95.3541 79.5607Z" fill="white"/>
<path d="M18.3141 123.59H18.2341V63.58H64.0441V82.64H44.9841V70.08H42.1441V85.49H66.8841V60.75H15.3941V123.61H15.3141C15.3141 132.93 22.8941 140.52 32.2141 140.52H94.4441V137.52H32.2241C24.5541 137.52 18.3241 131.28 18.3241 123.61L18.3141 123.59Z" fill="white"/>
<path d="M18.2342 37.4604C18.2342 29.7504 24.5041 23.4804 32.2141 23.4804H45.1441V29.5904C45.1441 33.7404 48.5241 37.1204 52.6741 37.1204C56.8241 37.1204 60.2042 33.7404 60.2042 29.5904H60.2841V23.5504H90.2542V29.5904C90.2542 33.7904 93.6642 37.2004 97.8642 37.2004C102.064 37.2004 105.474 33.7904 105.474 29.5904V23.4804H118.334C126.044 23.4804 132.314 29.7504 132.314 37.4604H135.154C135.154 28.1804 127.604 20.6304 118.324 20.6304H105.464V16.5204C105.464 12.3204 102.054 8.91039 97.8541 8.91039C93.6541 8.91039 90.2441 12.3204 90.2441 16.5204H93.2441C93.2441 13.9804 95.3141 11.9104 97.8541 11.9104C100.394 11.9104 102.464 13.9804 102.464 16.5204V29.5904C102.464 32.1304 100.394 34.2004 97.8541 34.2004C95.3141 34.2004 93.2441 32.1304 93.2441 29.5904V20.5504H60.2742V16.5104C60.2742 12.3104 56.8642 8.90039 52.6642 8.90039C48.4642 8.90039 45.0541 12.3104 45.0541 16.5104H48.0541C48.0541 13.9704 50.1242 11.9004 52.6642 11.9004C55.2042 11.9004 57.2742 13.9704 57.2742 16.5104V29.5804H57.3541C57.3541 32.1704 55.2542 34.2704 52.6642 34.2704C50.0742 34.2704 47.9742 32.1704 47.9742 29.5804V20.6204H32.1942C22.9142 20.6204 15.3642 28.1704 15.3642 37.4504V49.1604H132.304V107.64L103.794 136.15V114.8C103.794 111.96 106.104 109.64 108.954 109.64H125.504V106.8H108.954C104.544 106.8 100.954 110.39 100.954 114.8V139.58L103.384 140.58L135.154 108.81V46.3104H18.2342V37.4504V37.4604Z" fill="white"/>
</g>
</g>
<defs>
<clipPath id="clip0_8407_584">
<rect width="150" height="150" fill="white" transform="translate(0.284058)"/>
</clipPath>
</defs>
</svg>
