<svg width="150" height="150" viewBox="0 0 150 150" fill="none" xmlns="http://www.w3.org/2000/svg">
<path d="M40.7405 81.6534L40.7406 138.475H80.164V59.2249H98.9592V96.936H123.475V135.453H86.0161V138.475H126.497V93.9143H101.981V56.2031H77.1423V135.453H68.0066V119.337H52.6462V135.453H43.7623L43.7622 81.6534H40.7405ZM55.6679 122.359H64.9849V135.453H55.6679V122.359Z" fill="#FF5F46"/>
<path d="M20.7378 81.3644C23.9362 83.2715 27.6005 84.2547 31.3239 84.2049H43.7633V59.2253H70.6567V56.2035H40.7416V81.1831H31.3239C26.7826 81.1831 22.4273 79.3791 19.216 76.1679C16.0048 72.9567 14.2008 68.6014 14.2008 64.06C14.2008 59.5187 16.0048 55.1634 19.216 51.9522C22.4273 48.741 26.7826 46.9369 31.3239 46.9369C33.2506 46.9318 35.1644 47.2519 36.9846 47.8837C37.2666 47.9844 37.5487 48.0852 37.8307 48.206L39.9056 49.032V46.816C39.9056 46.7556 39.9056 46.6851 39.9056 46.5441C40.2529 38.6974 43.3578 31.2248 48.6734 25.4425C53.989 19.6601 61.1744 15.9387 68.9642 14.9337C76.754 13.9286 84.6487 15.7044 91.2578 19.9483C97.867 24.1922 102.767 30.632 105.094 38.1336C102.359 39.3495 99.8707 41.0564 97.7515 43.1698L99.8969 45.3052C102.852 42.3538 106.615 40.3432 110.711 39.527C114.807 38.7107 119.053 39.1253 122.913 40.7185C126.774 42.3117 130.077 45.0122 132.405 48.4795C134.733 51.9468 135.983 56.0258 135.996 60.2023C135.996 60.6052 135.996 61.0182 135.996 61.421C135.382 72.1683 126.186 80.5586 115.066 80.5586H109.657V83.5804H115.066C127.787 83.5804 138.303 73.9008 139.008 61.552C139.008 61.0887 139.008 60.6253 139.008 60.162C139.008 53.7507 136.461 47.602 131.928 43.0685C127.394 38.5351 121.246 35.9882 114.834 35.9882C112.494 35.984 110.166 36.3234 107.925 36.9954C105.402 28.9723 100.178 22.071 93.1402 17.4657C86.1028 12.8603 77.6872 10.8354 69.3252 11.7353C60.9631 12.6353 53.1711 16.4046 47.2749 22.4019C41.3786 28.3993 37.7423 36.2542 36.9846 44.6303C35.1398 44.0889 33.2264 43.8175 31.3038 43.8245C26.8797 43.8078 22.572 45.2414 19.0402 47.9058C15.5084 50.5703 12.9472 54.3188 11.7485 58.5774C10.5499 62.8361 10.78 67.3702 12.4035 71.4857C14.027 75.6011 16.9545 79.0711 20.7378 81.3644V81.3644Z" fill="#FF5F46"/>
<path d="M71.3717 68.4619H41.9496V71.4836H71.3717V68.4619Z" fill="#FF5F46"/>
<path d="M71.3717 81.1826H41.9496V84.2043H71.3717V81.1826Z" fill="#FF5F46"/>
<path fill-rule="evenodd" clip-rule="evenodd" d="M40.5999 99.9313H24.7807V135.469H40.5999V99.9313ZM21.7761 96.9268V138.474H43.6044V96.9268H21.7761Z" fill="#FF5F46"/>
<path fill-rule="evenodd" clip-rule="evenodd" d="M89.1639 109.65L89.1639 114.858L114.488 114.858L114.488 109.65L89.1639 109.65ZM86.1593 117.862L117.493 117.862L117.493 106.646L86.1593 106.646L86.1593 117.862Z" fill="#FF5F46"/>
<path fill-rule="evenodd" clip-rule="evenodd" d="M89.1639 71.4675L89.1639 76.6751L98.3921 76.6751L98.3921 71.4675L89.1639 71.4675ZM86.1593 79.6797L101.397 79.6797L101.397 68.4629L86.1593 68.4629L86.1593 79.6797Z" fill="#FF5F46"/>
<path fill-rule="evenodd" clip-rule="evenodd" d="M89.1639 88.7145L89.1639 93.9222L98.3921 93.9222L98.3921 88.7145L89.1639 88.7145ZM86.1593 96.9268L101.397 96.9268L101.397 85.71L86.1593 85.71L86.1593 96.9268Z" fill="#FF5F46"/>
</svg>
