<svg width="150" height="150" viewBox="0 0 150 150" fill="none" xmlns="http://www.w3.org/2000/svg">
<path d="M42.7 99.0998C42.7 116.9 57.2 131.4 75 131.4C92.8 131.4 107.3 116.9 107.3 99.0998C107.3 81.2998 92.8 66.7998 75 66.7998C57.2 66.7998 42.7 81.2998 42.7 99.0998ZM75 69.7998C91.1 69.7998 104.3 82.8998 104.3 99.0998C104.3 115.3 91.1 128.4 75 128.4C58.9 128.4 45.7 115.3 45.7 99.0998C45.7 82.8998 58.9 69.7998 75 69.7998Z" fill="#FF5F46"/>
<path d="M103.2 69.2998C96.9 63.3998 88.9 59.5998 80.4 58.3998L99.8 15.4998L104.4 21.0998L88.9 55.1998L90.4 55.7998C95.6 57.5998 100.4 60.3998 104.6 63.9998L106.1 65.2998L119.7 35.2998L99.1 9.7998L88.2 33.8998H65.6L67 36.8998H87L76 60.9998L78.1 61.1998C86.7 61.8998 94.9 65.4998 101.2 71.4998C108.9 78.7998 113.1 88.5998 113.1 99.1998C113.1 120.2 96 137.3 75 137.3C54 137.3 36.9 120.2 36.9 99.1998C36.9 79.4998 52.3 62.7998 71.9 61.2998L74 60.9998L52.8 14.0998H93.3L94.7 11.0998H48.2L69.6 58.2998C61.6 59.3998 54.3 62.7998 48.4 67.7998L33.7 35.5998L38 30.2998L50.1 56.8998C51 56.3998 51.8 55.8998 52.7 55.3998L40.2 27.6998L43.5 23.6998L57.1 53.4998C58 53.0998 59 52.7998 59.9 52.4998L44.2 17.9998L30.2 35.1998L46 70.0998C38.5 77.5998 33.9 87.8998 33.9 99.0998C33.9 121.8 52.3 140.2 75 140.2C97.7 140.2 116.1 121.8 116.1 99.0998C116.1 87.6998 111.5 77.0998 103.2 69.2998ZM105 60.3998C103.3 59.0998 101.6 57.8998 99.8 56.8998L112 30.2998L116.3 35.5998L105 60.3998ZM109.8 27.6998L97.2 55.3998C95.8 54.6998 94.4 54.0998 92.9 53.4998L106.5 23.6998L109.8 27.6998Z" fill="#FF5F46"/>
<path d="M63.2 115.3L75 109.1L86.8 115.3L84.6 102.2L94.1 92.9L80.9 91L75 79L69.1 91L55.9 92.9L65.4 102.2L63.2 115.3ZM62.4 95L71.1 93.7L75 85.8L78.9 93.7L87.6 95L81.3 101.2L82.8 109.9L75 105.8L67.2 109.9L68.7 101.2L62.4 95Z" fill="#FF5F46"/>
</svg>
