<svg width="150" height="150" viewBox="0 0 150 150" fill="none" xmlns="http://www.w3.org/2000/svg">
<path d="M42.7 99.1C42.7 116.9 57.2 131.4 75 131.4C92.8 131.4 107.3 116.9 107.3 99.1C107.3 81.3 92.8 66.8 75 66.8C57.2 66.8 42.7 81.3 42.7 99.1ZM75 69.8C91.1 69.8 104.3 82.9 104.3 99.1C104.3 115.3 91.1 128.4 75 128.4C58.9 128.4 45.7 115.3 45.7 99.1C45.7 82.9 58.9 69.8 75 69.8Z" fill="white"/>
<path d="M103.2 69.3C96.9 63.4 88.9 59.6 80.4 58.4L99.8 15.5L104.4 21.1L88.9 55.2L90.4 55.8C95.6 57.6 100.4 60.4 104.6 64L106.1 65.3L119.7 35.3L99.1 9.79999L88.2 33.9H65.6L67 36.9H87L76 61L78.1 61.2C86.7 61.9 94.9 65.5 101.2 71.5C108.9 78.8 113.1 88.6 113.1 99.2C113.1 120.2 96 137.3 75 137.3C54 137.3 36.9 120.2 36.9 99.2C36.9 79.5 52.3 62.8 71.9 61.3L74 61L52.8 14.1H93.3L94.7 11.1H48.2L69.6 58.3C61.6 59.4 54.3 62.8 48.4 67.8L33.7 35.6L38 30.3L50.1 56.9C51 56.4 51.8 55.9 52.7 55.4L40.2 27.7L43.5 23.7L57.1 53.5C58 53.1 59 52.8 59.9 52.5L44.2 18L30.2 35.2L46 70.1C38.5 77.6 33.9 87.9 33.9 99.1C33.9 121.8 52.3 140.2 75 140.2C97.7 140.2 116.1 121.8 116.1 99.1C116.1 87.7 111.5 77.1 103.2 69.3ZM105 60.4C103.3 59.1 101.6 57.9 99.8 56.9L112 30.3L116.3 35.6L105 60.4ZM109.8 27.7L97.2 55.4C95.8 54.7 94.4 54.1 92.9 53.5L106.5 23.7L109.8 27.7Z" fill="white"/>
<path d="M63.2 115.3L75 109.1L86.8 115.3L84.6 102.2L94.1 92.9L80.9 91L75 79L69.1 91L55.9 92.9L65.4 102.2L63.2 115.3ZM62.4 95L71.1 93.7L75 85.8L78.9 93.7L87.6 95L81.3 101.2L82.8 109.9L75 105.8L67.2 109.9L68.7 101.2L62.4 95Z" fill="white"/>
</svg>
