<svg width="150" height="150" viewBox="0 0 150 150" fill="none" xmlns="http://www.w3.org/2000/svg">
<path d="M19.78 68.1899L21.1 70.8799L75 44.4999L119.61 66.3399V128.11H83.3V131.11H122.61V67.8099L128.9 70.8799L130.22 68.1899L75 41.1599L19.78 68.1899Z" fill="#FF5F46"/>
<path d="M111.86 18.8899H96.06V34.6499H99.06V21.8899H108.86V46.5599L75 29.9899L19.78 57.0099L21.1 59.7099L75 33.3299L128.9 59.7099L130.22 57.0099L111.86 48.0199V18.8899Z" fill="#FF5F46"/>
<path d="M104.11 80.4499C100.289 76.6238 95.7514 73.5885 90.7564 71.5175C85.7615 69.4466 80.4073 68.3806 75 68.3806C69.5928 68.3806 64.2385 69.4466 59.2436 71.5175C54.2486 73.5885 49.7109 76.6238 45.89 80.4499L48 82.5699C51.5428 79.019 55.7512 76.2018 60.3842 74.2796C65.0173 72.3574 69.984 71.368 75 71.368C80.016 71.368 84.9827 72.3574 89.6158 74.2796C94.2489 76.2018 98.4573 79.019 102 82.5699L104.11 80.4499Z" fill="#FF5F46"/>
<path d="M95.5701 89C92.8688 86.2987 89.6619 84.1559 86.1325 82.6939C82.6031 81.232 78.8203 80.4795 75.0001 80.4795C71.1798 80.4795 67.397 81.232 63.8676 82.6939C60.3382 84.1559 57.1313 86.2987 54.4301 89L56.5501 91.12C61.4443 86.2287 68.0806 83.481 75.0001 83.481C81.9195 83.481 88.5558 86.2287 93.4501 91.12L95.5701 89Z" fill="#FF5F46"/>
<path d="M62.71 97.2699L64.83 99.3899C66.164 98.0517 67.749 96.9899 69.4942 96.2654C71.2394 95.5409 73.1104 95.168 75 95.168C76.8895 95.168 78.7605 95.5409 80.5057 96.2654C82.2509 96.9899 83.8359 98.0517 85.17 99.3899L87.29 97.2699C85.6774 95.6535 83.7618 94.3711 81.6529 93.4961C79.544 92.6211 77.2832 92.1707 75 92.1707C72.7167 92.1707 70.4559 92.6211 68.347 93.4961C66.2381 94.3711 64.3225 95.6535 62.71 97.2699Z" fill="#FF5F46"/>
<path d="M75 102.79C73.334 102.792 71.7272 103.408 70.486 104.519C69.2449 105.63 68.4563 107.16 68.2709 108.815C68.0854 110.471 68.516 112.137 69.4805 113.495C70.445 114.853 71.8758 115.809 73.5 116.18V128.11H31.76V72.6899H28.76V131.11H76.5V116.18C78.1242 115.809 79.5551 114.853 80.5195 113.495C81.484 112.137 81.9146 110.471 81.7291 108.815C81.5437 107.16 80.7551 105.63 79.514 104.519C78.2728 103.408 76.666 102.792 75 102.79ZM75 113.35C74.2524 113.35 73.5216 113.128 72.9 112.713C72.2783 112.298 71.7938 111.707 71.5077 111.016C71.2216 110.326 71.1468 109.566 71.2926 108.832C71.4385 108.099 71.7985 107.426 72.3271 106.897C72.8558 106.368 73.5293 106.008 74.2626 105.863C74.9958 105.717 75.7558 105.792 76.4465 106.078C77.1373 106.364 77.7276 106.848 78.143 107.47C78.5583 108.092 78.78 108.822 78.78 109.57C78.7774 110.572 78.3783 111.532 77.67 112.24C76.9616 112.948 76.0017 113.347 75 113.35Z" fill="#FF5F46"/>
</svg>
