<svg width="150" height="150" viewBox="0 0 150 150" fill="none" xmlns="http://www.w3.org/2000/svg">
<path d="M19.78 68.19L21.1 70.88L75 44.5L119.61 66.34V128.11H83.3V131.11H122.61V67.81L128.9 70.88L130.22 68.19L75 41.16L19.78 68.19Z" fill="#1B3139"/>
<path d="M111.86 18.89H96.06V34.65H99.06V21.89H108.86V46.56L75 29.99L19.78 57.01L21.1 59.71L75 33.33L128.9 59.71L130.22 57.01L111.86 48.02V18.89Z" fill="#1B3139"/>
<path d="M104.11 80.45C100.289 76.6239 95.7514 73.5886 90.7564 71.5177C85.7615 69.4467 80.4073 68.3807 75 68.3807C69.5928 68.3807 64.2385 69.4467 59.2436 71.5177C54.2486 73.5886 49.7109 76.6239 45.89 80.45L48 82.57C51.5428 79.0191 55.7512 76.2019 60.3842 74.2797C65.0173 72.3575 69.984 71.3681 75 71.3681C80.016 71.3681 84.9827 72.3575 89.6158 74.2797C94.2489 76.2019 98.4573 79.0191 102 82.57L104.11 80.45Z" fill="#1B3139"/>
<path d="M95.57 89C92.8687 86.2987 89.6618 84.1559 86.1324 82.6939C82.603 81.232 78.8202 80.4795 75 80.4795C71.1798 80.4795 67.397 81.232 63.8676 82.6939C60.3381 84.1559 57.1313 86.2987 54.43 89L56.55 91.12C61.4442 86.2287 68.0805 83.481 75 83.481C81.9195 83.481 88.5557 86.2287 93.45 91.12L95.57 89Z" fill="#1B3139"/>
<path d="M62.71 97.27L64.83 99.39C66.164 98.0518 67.7491 96.99 69.4942 96.2655C71.2394 95.5411 73.1104 95.1681 75 95.1681C76.8896 95.1681 78.7606 95.5411 80.5058 96.2655C82.2509 96.99 83.836 98.0518 85.17 99.39L87.29 97.27C85.6774 95.6536 83.7618 94.3712 81.6529 93.4962C79.544 92.6212 77.2832 92.1708 75 92.1708C72.7168 92.1708 70.456 92.6212 68.347 93.4962C66.2381 94.3712 64.3226 95.6536 62.71 97.27V97.27Z" fill="#1B3139"/>
<path d="M75 102.79C73.334 102.792 71.7272 103.408 70.486 104.519C69.2449 105.63 68.4563 107.16 68.2709 108.815C68.0854 110.471 68.516 112.137 69.4805 113.495C70.445 114.853 71.8758 115.809 73.5 116.18V116.18V128.11H31.76V72.6899H28.76V131.11H76.5V116.18C78.1242 115.809 79.5551 114.853 80.5195 113.495C81.484 112.137 81.9146 110.471 81.7291 108.815C81.5437 107.16 80.7551 105.63 79.514 104.519C78.2728 103.408 76.666 102.792 75 102.79ZM75 113.35C74.2524 113.35 73.5216 113.128 72.9 112.713C72.2783 112.298 71.7938 111.707 71.5077 111.016C71.2216 110.326 71.1468 109.566 71.2926 108.832C71.4385 108.099 71.7985 107.426 72.3271 106.897C72.8558 106.368 73.5293 106.008 74.2626 105.863C74.9958 105.717 75.7558 105.792 76.4465 106.078C77.1373 106.364 77.7276 106.848 78.143 107.47C78.5583 108.092 78.78 108.822 78.78 109.57C78.7774 110.572 78.3783 111.532 77.67 112.24C76.9616 112.948 76.0017 113.347 75 113.35V113.35Z" fill="#1B3139"/>
</svg>
