<svg width="150" height="150" viewBox="0 0 150 150" fill="none" xmlns="http://www.w3.org/2000/svg">
<path d="M75.0512 49.3355C66.5334 49.3355 24.1116 48.7541 24.1116 37.1539C24.1116 25.5537 66.5334 25 75.0512 25C83.569 25 125.991 25.5814 125.991 37.1539C125.991 48.7265 83.569 49.3355 75.0512 49.3355ZM30.9314 37.1539C34.4944 39.4518 49.4144 43.0786 75.0512 43.0786C100.688 43.0786 115.608 39.4518 119.171 37.1539C115.608 34.8837 100.688 31.2569 75.0512 31.2569C49.4144 31.2569 34.4944 34.8837 30.9314 37.1539Z" fill="#FF5F46"/>
<path d="M24 52.2704V67.4144C24 78.9869 66.422 79.596 74.9398 79.596C81.3977 79.596 107.452 79.2361 119.477 74.0589V82.1708C117.25 84.4133 102.08 88.483 74.9398 88.483C46.9647 88.483 31.7384 84.1918 30.1518 82.0047L24 82.586V97.7023C24 109.275 66.422 109.856 74.9398 109.856C81.3977 109.856 107.452 109.524 119.477 104.319V112.431C117.25 114.673 102.08 118.743 74.9398 118.743C47.7998 118.743 32.5179 114.673 30.4024 112.431V109.303H24.1115V112.846C24.1115 124.419 66.5333 125 75.0511 125C83.5689 125 125.991 124.419 125.991 112.846V97.73L119.867 97.1209C118.252 99.3357 103.165 103.627 75.0511 103.627C47.7998 103.627 32.6292 99.5572 30.5137 97.3147V89.2029C42.6501 94.4354 68.7045 94.7399 75.0511 94.7399C83.5689 94.7399 125.991 94.1309 125.991 82.5584V67.4144L119.867 66.833C118.252 69.0201 103.165 73.3114 75.0511 73.3114C47.7998 73.3114 32.6292 69.2416 30.5137 66.9991V58.8873C42.6501 64.1475 68.7045 64.4244 75.0511 64.4244C83.5689 64.4244 125.991 63.843 125.991 52.2427V37.1265H119.589V51.8275C117.362 54.07 102.191 58.1674 75.0511 58.1674C47.076 58.1674 31.8497 53.8485 30.2631 51.6613L24 52.2704Z" fill="#FF5F46"/>
</svg>
