<svg width="150" height="150" viewBox="0 0 150 150" fill="none" xmlns="http://www.w3.org/2000/svg">
<path d="M28.5019 46.6826L18.5225 53.3304L8.54309 59.9782H18.6298V56.9565L30.2188 49.7044L75.2872 19.3474L130.933 56.9565L131.027 56.8622V59.9782V131.492H59.2106V131.499H120.894V134.514H134.049V59.9782H141.457L125.935 49.7044L75.2872 15.4844L28.5019 46.6826Z" fill="white"/>
<path d="M31.7747 96.9297L31.7747 93.7105L122.18 93.7105L122.18 96.9297L31.7747 96.9297Z" fill="white"/>
<path fill-rule="evenodd" clip-rule="evenodd" d="M57.1978 116.728H42.4164V131.51H57.1978V116.728ZM39.4119 113.724V134.514H60.2023V113.724H39.4119Z" fill="white"/>
<path fill-rule="evenodd" clip-rule="evenodd" d="M111.59 115.977H95.9501V131.616H111.59V115.977ZM93.3748 113.401V134.192H114.165V113.401H93.3748Z" fill="white"/>
<path fill-rule="evenodd" clip-rule="evenodd" d="M84.6084 106.319H68.9686V131.617H84.6084V106.319ZM66.3933 103.744V134.192H87.1838V103.744H66.3933Z" fill="white"/>
<path d="M18.8201 65.9199H21.7936V134.513H18.8201V65.9199Z" fill="white"/>
<path d="M30.2877 80.6172H33.2613V134.512H30.2877V80.6172Z" fill="white"/>
<path d="M120.693 80.6172H123.666V134.512H120.693V80.6172Z" fill="white"/>
<path d="M33.2614 131.479L33.2614 134.512L18.82 134.512L18.82 131.479L33.2614 131.479Z" fill="white"/>
<path d="M123.573 65.9199L123.573 68.9524L18.8202 68.9524L18.8202 65.9199L123.573 65.9199Z" fill="white"/>
<path d="M123.573 80.6172L123.573 83.6497L30.288 83.6497L30.288 80.6172L123.573 80.6172Z" fill="white"/>
</svg>
