<svg width="1080" height="1080" viewBox="0 0 1080 1080" fill="none" xmlns="http://www.w3.org/2000/svg">
<mask id="mask0_4257_206" style="mask-type:luminance" maskUnits="userSpaceOnUse" x="164" y="105" width="753" height="870">
<path d="M916.163 757.053L540.194 974.106L164.26 757.053V322.948L540.194 105.895L916.163 322.948V757.053Z" fill="white"/>
</mask>
<g mask="url(#mask0_4257_206)">
<path d="M74.1162 908.885L373.112 -174.396L324.708 -187.755L25.7124 895.526L74.1162 908.885Z" fill="#E3F4FC"/>
<path d="M122.564 922.252L421.56 -161.029L373.156 -174.389L74.1601 908.892L122.564 922.252Z" fill="#DAD3E8"/>
<path d="M170.941 935.61L469.937 -147.671L421.533 -161.031L122.537 922.25L170.941 935.61Z" fill="#E3F4FC"/>
<path d="M219.389 948.978L518.384 -134.303L469.98 -147.663L170.985 935.618L219.389 948.978Z" fill="#DAD3E8"/>
<path d="M267.801 962.335L566.796 -120.946L518.393 -134.306L219.397 948.975L267.801 962.335Z" fill="#E3F4FC"/>
<path d="M316.248 975.702L615.244 -107.579L566.84 -120.939L267.844 962.342L316.248 975.702Z" fill="#DAD3E8"/>
<path d="M364.626 989.095L663.622 -94.186L615.218 -107.546L316.223 975.735L364.626 989.095Z" fill="#E3F4FC"/>
<path d="M413.039 1002.45L712.035 -80.8281L663.631 -94.188L364.635 989.093L413.039 1002.45Z" fill="#DAD3E8"/>
<path d="M461.485 1015.82L760.481 -67.4624L712.077 -80.8223L413.082 1002.46L461.485 1015.82Z" fill="#E3F4FC"/>
<path d="M509.898 1029.18L808.894 -54.1045L760.49 -67.4644L461.495 1015.82L509.898 1029.18Z" fill="#DAD3E8"/>
<path d="M558.31 1042.54L857.306 -40.7378L808.902 -54.0977L509.906 1029.18L558.31 1042.54Z" fill="#E3F4FC"/>
<path d="M606.724 1055.94L905.72 -27.3452L857.316 -40.7051L558.32 1042.58L606.724 1055.94Z" fill="#DAD3E8"/>
<path d="M655.17 1069.3L954.166 -13.9771L905.762 -27.337L606.767 1055.94L655.17 1069.3Z" fill="#E3F4FC"/>
<path d="M703.583 1082.66L1002.58 -0.620605L954.175 -13.9805L655.18 1069.3L703.583 1082.66Z" fill="#DAD3E8"/>
<path d="M751.961 1096.02L1050.96 12.7373L1002.55 -0.622602L703.557 1082.66L751.961 1096.02Z" fill="#E3F4FC"/>
<path d="M800.408 1109.38L1099.4 26.1035L1051 12.7436L752.004 1096.02L800.408 1109.38Z" fill="#DAD3E8"/>
<path d="M644.424 541.972L696.434 730.467L748.549 541.655L696.399 353.054L644.424 541.972Z" fill="#7E2265"/>
<path d="M540.194 541.655L488.044 353.054L436.069 541.584L488.008 730.467L540.194 541.655Z" fill="#7E2265"/>
<path d="M540.229 541.972L592.274 730.467H696.469L592.203 353.054H488.043L540.229 541.972Z" fill="#F17998"/>
<path d="M487.973 730.467L383.849 353.054H279.618L383.813 730.467H487.973Z" fill="#F17998"/>
<path d="M748.549 541.584L696.54 353.054H800.7L748.549 541.584Z" fill="#F17998"/>
<path d="M670.482 447.707L722.527 636.202L748.549 541.655L696.399 353.054L670.482 447.707Z" fill="#332059"/>
<path d="M540.194 541.655L488.044 353.054L462.162 447.319L514.101 636.202L540.194 541.655Z" fill="#332059"/>
</g>
<path d="M540.194 101L160 320.518V759.518L540.194 979L920.389 759.518V320.518L540.194 101ZM892.324 743.32L540.194 946.639L188.065 743.32V336.68L540.194 133.361L892.324 336.68V743.32Z" fill="#1B3139"/>
<path d="M861.614 834.379L852.254 818.167L854.146 817.075L859.775 826.825L861.629 819.48L863.948 818.141L861.906 826.044L871.026 828.945L868.617 830.336L860.165 827.5L863.506 833.287L861.614 834.379Z" fill="#1B3139"/>
<path d="M853.435 839.103L846.987 827.934L848.698 826.946L850.09 828.994C850.011 828.059 850.198 827.171 850.653 826.328C851.107 825.485 851.852 824.765 852.888 824.167L854.032 826.149L853.514 826.448C852.853 826.829 852.315 827.3 851.898 827.861C851.472 828.407 851.255 829.053 851.245 829.799C851.236 830.545 851.513 831.406 852.076 832.381L855.326 838.011L853.435 839.103Z" fill="#1B3139"/>
<path d="M845.354 844.128C844.304 844.734 843.219 845.04 842.101 845.045C840.983 845.05 839.925 844.76 838.927 844.176C837.936 843.567 837.097 842.67 836.413 841.484C835.728 840.298 835.382 839.127 835.375 837.97C835.359 836.799 835.632 835.73 836.196 834.764C836.774 833.79 837.589 833 838.639 832.393C839.69 831.786 840.775 831.48 841.892 831.475C843.01 831.47 844.065 831.772 845.057 832.38C846.055 832.965 846.896 833.85 847.581 835.036C848.266 836.222 848.616 837.401 848.632 838.573C848.639 839.729 848.354 840.795 847.775 841.769C847.212 842.735 846.405 843.521 845.354 844.128ZM844.418 842.506C845.064 842.134 845.573 841.629 845.947 840.993C846.32 840.358 846.497 839.625 846.479 838.795C846.46 837.965 846.182 837.085 845.645 836.154C845.107 835.224 844.484 834.543 843.775 834.111C843.08 833.672 842.365 833.454 841.627 833.46C840.89 833.465 840.206 833.65 839.575 834.014C838.93 834.387 838.42 834.891 838.047 835.527C837.674 836.163 837.496 836.896 837.515 837.725C837.534 838.555 837.812 839.436 838.349 840.366C838.887 841.297 839.51 841.978 840.219 842.409C840.928 842.84 841.644 843.057 842.367 843.06C843.104 843.055 843.788 842.87 844.418 842.506Z" fill="#1B3139"/>
<path d="M825.803 855.055L816.09 845.771L817.982 844.679L825.403 852.073L822.958 841.806L825.097 840.571L832.788 847.809L830.073 837.698L831.987 836.593L835.17 849.647L833.234 850.765L825.17 843.141L827.74 853.937L825.803 855.055Z" fill="#1B3139"/>
<path d="M819.257 858.835C818.237 859.424 817.291 859.64 816.419 859.483C815.548 859.325 814.739 858.601 813.994 857.31L810.445 851.163L808.509 852.281L807.586 850.682L809.522 849.564L808.223 846.742L809.866 845.793L811.413 848.472L814.701 846.574L815.624 848.173L812.336 850.071L815.885 856.218C816.293 856.924 816.713 857.322 817.145 857.412C817.569 857.488 818.141 857.317 818.862 856.901L820.033 856.225L820.969 857.847L819.257 858.835Z" fill="#1B3139"/>
<path d="M807.575 865.939C806.51 866.554 805.425 866.86 804.322 866.856C803.211 866.838 802.163 866.532 801.18 865.938C800.212 865.336 799.386 864.443 798.701 863.257C798.025 862.086 797.669 860.931 797.631 859.791C797.585 858.637 797.836 857.581 798.385 856.624C798.939 855.644 799.765 854.837 800.86 854.204C801.941 853.58 803.015 853.291 804.081 853.335C805.154 853.356 806.131 853.643 807.01 854.196C807.89 854.749 808.594 855.484 809.123 856.399C809.218 856.564 809.306 856.734 809.386 856.908C809.482 857.073 809.59 857.26 809.711 857.47L800.817 862.605C801.356 863.435 801.963 864.035 802.638 864.407C803.319 864.754 804.004 864.919 804.694 864.901C805.399 864.874 806.052 864.687 806.652 864.34C807.433 863.89 807.982 863.333 808.299 862.669C808.617 862.005 808.718 861.296 808.603 860.542L810.472 859.463C810.769 860.672 810.69 861.869 810.233 863.054C809.782 864.215 808.896 865.176 807.575 865.939ZM801.738 855.829C800.838 856.349 800.195 857.09 799.81 858.053C799.432 858.992 799.493 860.017 799.995 861.129L807.02 857.073C806.394 856.093 805.594 855.504 804.619 855.307C803.644 855.109 802.684 855.283 801.738 855.829Z" fill="#1B3139"/>
<path d="M786.987 877.466L777.887 861.704L779.778 860.612L795.47 868.395L788.177 855.763L790.068 854.671L799.168 870.433L797.277 871.525L781.585 863.742L788.878 876.374L786.987 877.466Z" fill="#1B3139"/>
<path d="M774.091 885.271C772.755 886.043 771.449 886.346 770.173 886.182C768.898 886.018 767.851 885.401 767.034 884.332L768.97 883.214C769.428 883.73 770.031 884.063 770.777 884.212C771.53 884.338 772.335 884.154 773.19 883.66C773.986 883.2 774.476 882.697 774.661 882.15C774.837 881.588 774.79 881.075 774.522 880.609C774.132 879.934 773.624 879.627 772.999 879.688C772.388 879.74 771.588 879.931 770.599 880.263C769.929 880.489 769.229 880.663 768.498 880.785C767.768 880.906 767.083 880.881 766.444 880.71C765.796 880.524 765.277 880.093 764.887 879.417C764.323 878.442 764.224 877.438 764.59 876.406C764.961 875.351 765.77 874.464 767.016 873.745C768.202 873.06 769.343 872.801 770.44 872.968C771.544 873.112 772.472 873.697 773.225 874.723L771.356 875.802C770.952 875.275 770.448 874.975 769.846 874.903C769.25 874.807 768.607 874.958 767.916 875.356C767.241 875.746 766.798 876.192 766.587 876.694C766.391 877.187 766.428 877.667 766.697 878.132C766.957 878.582 767.393 878.801 768.006 878.787C768.633 878.765 769.404 878.61 770.319 878.322C771.096 878.074 771.858 877.884 772.603 877.754C773.355 877.6 774.052 877.629 774.693 877.839C775.341 878.025 775.899 878.523 776.367 879.334C776.963 880.331 777.061 881.385 776.662 882.496C776.269 883.584 775.412 884.509 774.091 885.271Z" fill="#1B3139"/>
<path d="M758.819 879.408L757.226 873.633L759.342 872.411L760.17 878.628L758.819 879.408Z" fill="#1B3139"/>
<path d="M752.945 897.12L746.497 885.952L748.209 884.964L749.478 886.903C749.431 885.989 749.628 885.135 750.07 884.34C750.511 883.544 751.16 882.9 752.015 882.406C753.336 881.643 754.621 881.442 755.87 881.802C757.125 882.138 758.233 883.139 759.195 884.805L762.965 891.335L761.074 892.427L757.421 886.1C756.077 883.773 754.445 883.165 752.524 884.274C751.563 884.829 750.964 885.645 750.725 886.723C750.494 887.778 750.75 888.95 751.496 890.241L754.837 896.028L752.945 897.12Z" fill="#1B3139"/>
<path d="M745.303 901.892C744.237 902.507 743.153 902.813 742.05 902.81C740.938 902.791 739.891 902.485 738.908 901.892C737.94 901.29 737.113 900.396 736.429 899.21C735.753 898.039 735.396 896.884 735.359 895.745C735.313 894.59 735.564 893.535 736.112 892.578C736.667 891.597 737.492 890.79 738.588 890.157C739.669 889.533 740.742 889.244 741.809 889.289C742.882 889.31 743.858 889.597 744.738 890.149C745.617 890.702 746.322 891.437 746.85 892.352C746.946 892.517 747.033 892.687 747.114 892.861C747.209 893.026 747.317 893.213 747.439 893.424L738.545 898.559C739.084 899.388 739.691 899.989 740.365 900.36C741.046 900.707 741.732 900.872 742.422 900.854C743.127 900.827 743.779 900.64 744.38 900.293C745.16 899.843 745.709 899.286 746.027 898.622C746.344 897.958 746.445 897.25 746.33 896.495L748.199 895.416C748.497 896.626 748.417 897.822 747.96 899.007C747.51 900.168 746.624 901.129 745.303 901.892ZM739.466 891.782C738.565 892.302 737.922 893.044 737.538 894.006C737.159 894.945 737.221 895.971 737.722 897.082L744.747 893.026C744.122 892.046 743.321 891.458 742.347 891.26C741.372 891.062 740.412 891.236 739.466 891.782Z" fill="#1B3139"/>
<path d="M719.984 916.15L713.536 904.982L715.247 903.994L716.318 905.537C716.332 904.729 716.544 903.986 716.953 903.309C717.363 902.632 717.943 902.077 718.694 901.644C719.579 901.133 720.442 900.875 721.28 900.871C722.133 900.859 722.945 901.121 723.715 901.657C723.715 900.756 723.941 899.916 724.391 899.135C724.856 898.346 725.486 897.722 726.282 897.263C727.618 896.492 728.918 896.282 730.181 896.633C731.436 896.969 732.545 897.97 733.507 899.637L737.277 906.166L735.408 907.245L731.755 900.918C731.087 899.762 730.352 899.026 729.549 898.709C728.745 898.392 727.908 898.485 727.038 898.988C726.137 899.508 725.59 900.294 725.397 901.346C725.21 902.375 725.49 903.535 726.235 904.826L729.576 910.612L727.685 911.704L724.032 905.377C723.364 904.221 722.629 903.485 721.826 903.168C721.022 902.851 720.185 902.944 719.315 903.447C718.429 903.958 717.89 904.74 717.696 905.792C717.51 906.821 717.789 907.981 718.534 909.272L721.875 915.058L719.984 916.15Z" fill="#1B3139"/>
<path d="M711.903 921.175C710.852 921.782 709.768 922.088 708.65 922.093C707.532 922.098 706.474 921.808 705.476 921.223C704.484 920.615 703.646 919.718 702.962 918.532C702.277 917.346 701.931 916.175 701.924 915.018C701.908 913.847 702.181 912.778 702.745 911.812C703.323 910.838 704.137 910.047 705.188 909.441C706.239 908.834 707.323 908.528 708.441 908.523C709.559 908.518 710.614 908.82 711.606 909.428C712.604 910.013 713.445 910.898 714.13 912.084C714.814 913.27 715.165 914.449 715.181 915.62C715.188 916.777 714.903 917.843 714.324 918.817C713.761 919.783 712.954 920.569 711.903 921.175ZM710.967 919.554C711.613 919.182 712.122 918.677 712.495 918.041C712.869 917.405 713.046 916.673 713.027 915.843C713.009 915.013 712.731 914.133 712.193 913.202C711.656 912.271 711.033 911.59 710.323 911.159C709.629 910.72 708.913 910.502 708.176 910.508C707.439 910.513 706.755 910.698 706.124 911.062C705.479 911.435 704.969 911.939 704.596 912.575C704.222 913.211 704.045 913.944 704.064 914.773C704.083 915.603 704.361 916.483 704.898 917.414C705.435 918.345 706.059 919.026 706.768 919.457C707.477 919.888 708.193 920.105 708.915 920.108C709.653 920.103 710.337 919.918 710.967 919.554Z" fill="#1B3139"/>
<path d="M689.401 933.837L675.965 920.549L677.991 919.379L689.204 930.948L685.264 915.18L687.358 913.971L698.932 925.332L694.564 909.811L696.59 908.641L701.277 926.95L699.115 928.198L687.841 917.355L691.505 932.592L689.401 933.837Z" fill="#1B3139"/>
<path d="M672.926 943.679C671.935 944.251 670.973 944.596 670.041 944.714C669.1 944.817 668.239 944.714 667.459 944.403C666.68 944.093 666.028 943.588 665.505 942.89L668.41 941.213C668.751 941.596 669.208 941.833 669.78 941.923C670.359 941.989 670.963 941.84 671.594 941.476C672.224 941.112 672.608 940.72 672.746 940.3C672.899 939.872 672.88 939.492 672.69 939.162C672.412 938.682 672.016 938.48 671.5 938.558C670.976 938.62 670.291 938.786 669.445 939.054C668.904 939.226 668.342 939.38 667.76 939.516C667.178 939.652 666.612 939.729 666.062 939.746C665.518 939.74 665.014 939.63 664.551 939.417C664.079 939.189 663.687 938.805 663.375 938.265C662.803 937.274 662.712 936.216 663.103 935.09C663.509 933.955 664.424 932.976 665.851 932.152C667.172 931.39 668.4 931.091 669.536 931.256C670.687 931.412 671.649 931.987 672.423 932.981L669.699 934.554C669.057 933.824 668.196 933.77 667.115 934.394C666.575 934.706 666.215 935.054 666.036 935.438C665.872 935.813 665.881 936.158 666.063 936.473C666.254 936.803 666.623 936.94 667.171 936.884C667.719 936.828 668.401 936.674 669.217 936.423C670.102 936.153 670.932 935.944 671.707 935.796C672.489 935.625 673.201 935.644 673.842 935.854C674.475 936.049 675.021 936.545 675.481 937.34C675.894 938.022 676.074 938.749 676.019 939.521C675.965 940.293 675.676 941.041 675.152 941.763C674.629 942.486 673.886 943.124 672.926 943.679Z" fill="#1B3139"/>
<path d="M655.906 953.146L646.546 936.934L649.428 935.27L654.953 944.839L656.303 938.025L659.725 936.049L658.093 943.777L666.917 946.789L663.314 948.869L655.551 945.875L658.788 951.482L655.906 953.146Z" fill="#1B3139"/>
<path d="M648.032 958.052C646.891 958.71 645.743 959.043 644.586 959.051C643.429 959.058 642.34 958.766 641.318 958.175C640.312 957.575 639.479 956.705 638.82 955.564C638.162 954.423 637.824 953.267 637.808 952.096C637.808 950.915 638.099 949.826 638.684 948.828C639.269 947.83 640.131 947.002 641.272 946.343C642.698 945.52 644.116 945.202 645.525 945.389C646.925 945.561 648.138 946.222 649.162 947.372L646.122 949.127C645.66 948.673 645.117 948.426 644.493 948.386C643.876 948.322 643.267 948.464 642.667 948.81C641.871 949.27 641.369 949.96 641.16 950.881C640.951 951.802 641.155 952.796 641.77 953.861C642.385 954.927 643.144 955.6 644.046 955.88C644.948 956.159 645.797 956.07 646.593 955.61C647.193 955.264 647.624 954.815 647.886 954.263C648.163 953.703 648.217 953.102 648.046 952.46L651.086 950.705C651.544 952.121 651.506 953.494 650.972 954.823C650.438 956.152 649.458 957.228 648.032 958.052Z" fill="#1B3139"/>
<path d="M630.506 950.607C629.981 950.91 629.455 951.004 628.927 950.888C628.415 950.763 628.02 950.461 627.743 949.981C627.466 949.5 627.405 949.015 627.562 948.524C627.726 948.009 628.07 947.6 628.595 947.297C629.121 946.994 629.639 946.904 630.152 947.029C630.67 947.13 631.068 947.42 631.346 947.901C631.623 948.381 631.68 948.878 631.517 949.393C631.368 949.899 631.032 950.304 630.506 950.607ZM636.514 964.341L630.066 953.173L632.948 951.509L639.396 962.677L636.514 964.341Z" fill="#1B3139"/>
<path d="M627.474 969.561L621.026 958.392L623.593 956.91L625.072 958.848C625.062 957.894 625.28 957.007 625.728 956.188C626.182 955.345 626.882 954.651 627.828 954.105L629.583 957.145L628.772 957.613C628.142 957.977 627.635 958.399 627.252 958.881C626.87 959.362 626.674 959.925 626.667 960.57C626.674 961.206 626.924 961.952 627.418 962.808L630.356 967.897L627.474 969.561Z" fill="#1B3139"/>
<path d="M619.562 974.489C618.721 974.975 617.895 975.242 617.082 975.29C616.27 975.339 615.504 975.191 614.784 974.846L615.353 976.559L612.786 978.041L603.426 961.829L606.308 960.165L610.143 966.808C610.217 966.104 610.439 965.396 610.807 964.683C611.191 963.961 611.856 963.327 612.802 962.781C613.852 962.174 614.938 961.887 616.058 961.921C617.179 961.955 618.235 962.276 619.226 962.884C620.218 963.493 621.039 964.36 621.689 965.485C622.339 966.611 622.679 967.756 622.71 968.919C622.733 970.067 622.478 971.134 621.947 972.121C621.408 973.093 620.612 973.883 619.562 974.489ZM617.498 972.318C618.413 971.79 618.994 971.044 619.239 970.082C619.484 969.12 619.325 968.151 618.762 967.175C618.198 966.2 617.434 965.57 616.47 965.286C615.505 965.002 614.565 965.125 613.65 965.653C612.719 966.191 612.135 966.948 611.899 967.925C611.669 968.879 611.836 969.843 612.399 970.819C612.962 971.795 613.719 972.429 614.668 972.721C615.624 972.99 616.567 972.856 617.498 972.318Z" fill="#1B3139"/>
<path d="M603.797 983.59C602.836 984.145 601.961 984.45 601.172 984.505C600.375 984.545 599.679 984.397 599.084 984.06C598.489 983.723 598.014 983.246 597.659 982.631C597.061 981.595 596.981 980.521 597.419 979.407C597.856 978.294 598.886 977.269 600.507 976.333L603.344 974.695L603.188 974.425C602.746 973.659 602.204 973.222 601.56 973.113C600.917 973.004 600.273 973.136 599.627 973.509C599.042 973.847 598.614 974.284 598.343 974.82C598.064 975.342 598.027 975.903 598.234 976.504L595.42 978.129C595.027 977.275 594.89 976.414 595.008 975.545C595.142 974.667 595.493 973.854 596.062 973.105C596.622 972.342 597.367 971.691 598.298 971.154C599.889 970.235 601.372 969.909 602.747 970.176C604.122 970.443 605.23 971.305 606.07 972.761L610.035 979.628L607.581 981.045L606.271 979.4C606.287 980.191 606.108 980.955 605.733 981.692C605.373 982.42 604.727 983.053 603.797 983.59ZM603.15 980.962C603.975 980.485 604.457 979.847 604.596 979.046C604.749 978.237 604.656 977.4 604.317 976.535L601.862 977.952C601.097 978.394 600.631 978.853 600.466 979.329C600.292 979.79 600.321 980.223 600.555 980.628C600.807 981.064 601.167 981.306 601.636 981.356C602.105 981.405 602.609 981.274 603.15 980.962Z" fill="#1B3139"/>
<path d="M595.289 988.142C594.118 988.818 593.015 989.075 591.98 988.912C590.946 988.749 590.008 987.939 589.167 986.483L586.359 981.619L584.445 982.724L583.054 980.315L584.968 979.21L583.577 976.02L586.121 974.551L587.85 977.546L590.867 975.804L592.258 978.213L589.241 979.955L592.062 984.841C592.374 985.382 592.703 985.692 593.05 985.772C593.403 985.829 593.864 985.692 594.435 985.363L595.831 984.557L597.248 987.011L595.289 988.142Z" fill="#1B3139"/>
<path d="M581.478 996.476C580.517 997.031 579.642 997.336 578.854 997.391C578.056 997.431 577.36 997.283 576.765 996.945C576.17 996.608 575.695 996.132 575.34 995.517C574.742 994.481 574.662 993.406 575.1 992.293C575.538 991.179 576.567 990.155 578.188 989.219L581.025 987.581L580.869 987.31C580.427 986.545 579.885 986.108 579.242 985.999C578.598 985.89 577.954 986.022 577.308 986.394C576.723 986.732 576.295 987.17 576.024 987.706C575.745 988.228 575.709 988.789 575.916 989.39L573.101 991.015C572.708 990.161 572.571 989.3 572.69 988.43C572.823 987.553 573.174 986.739 573.743 985.991C574.303 985.227 575.048 984.577 575.979 984.04C577.57 983.121 579.053 982.795 580.428 983.062C581.803 983.329 582.911 984.19 583.752 985.646L587.717 992.514L585.262 993.931L583.952 992.286C583.969 993.077 583.789 993.841 583.414 994.578C583.054 995.306 582.409 995.939 581.478 996.476ZM580.831 993.848C581.656 993.371 582.138 992.732 582.277 991.932C582.43 991.123 582.337 990.286 581.998 989.421L579.544 990.838C578.778 991.28 578.312 991.739 578.147 992.215C577.973 992.676 578.003 993.109 578.237 993.514C578.488 993.949 578.848 994.192 579.317 994.241C579.786 994.291 580.29 994.16 580.831 993.848Z" fill="#1B3139"/>
<path d="M561.531 1007.63L552.431 991.871L557.813 988.764C559.659 987.698 561.366 987.153 562.933 987.129C564.507 987.081 565.921 987.485 567.176 988.342C568.437 989.175 569.527 990.387 570.446 991.978C571.365 993.569 571.874 995.127 571.973 996.651C572.079 998.151 571.722 999.578 570.902 1000.93C570.089 1002.26 568.759 1003.46 566.913 1004.53L561.531 1007.63ZM562.983 1003.49L565.348 1002.13C566.669 1001.36 567.59 1000.55 568.113 999.689C568.628 998.812 568.82 997.88 568.691 996.894C568.553 995.893 568.155 994.822 567.496 993.681C566.846 992.555 566.122 991.682 565.324 991.062C564.526 990.442 563.618 990.136 562.601 990.142C561.584 990.149 560.416 990.534 559.095 991.296L556.73 992.661L562.983 1003.49Z" fill="#1B3139"/>
</svg>
