<svg width="1080" height="1080" viewBox="0 0 1080 1080" fill="none" xmlns="http://www.w3.org/2000/svg">
<mask id="mask0_4201_1850" style="mask-type:luminance" maskUnits="userSpaceOnUse" x="164" y="105" width="753" height="870">
<path d="M916.163 757.053L540.194 974.106L164.26 757.053V322.948L540.194 105.895L916.163 322.948V757.053Z" fill="white"/>
</mask>
<g mask="url(#mask0_4201_1850)">
<path d="M74.1162 908.885L373.112 -174.396L324.708 -187.756L25.7124 895.525L74.1162 908.885Z" fill="#E3F4FC"/>
<path d="M122.564 922.252L421.56 -161.029L373.156 -174.389L74.1601 908.892L122.564 922.252Z" fill="#DAD3E8"/>
<path d="M170.941 935.61L469.937 -147.671L421.533 -161.031L122.537 922.25L170.941 935.61Z" fill="#E3F4FC"/>
<path d="M219.389 948.978L518.384 -134.303L469.98 -147.663L170.985 935.618L219.389 948.978Z" fill="#DAD3E8"/>
<path d="M267.801 962.334L566.796 -120.947L518.393 -134.307L219.397 948.974L267.801 962.334Z" fill="#E3F4FC"/>
<path d="M316.248 975.702L615.244 -107.579L566.84 -120.939L267.844 962.342L316.248 975.702Z" fill="#DAD3E8"/>
<path d="M364.626 989.095L663.622 -94.1864L615.218 -107.546L316.223 975.735L364.626 989.095Z" fill="#E3F4FC"/>
<path d="M413.039 1002.45L712.035 -80.8286L663.631 -94.1885L364.635 989.092L413.039 1002.45Z" fill="#DAD3E8"/>
<path d="M461.485 1015.82L760.481 -67.4629L712.077 -80.8228L413.082 1002.46L461.485 1015.82Z" fill="#E3F4FC"/>
<path d="M509.898 1029.18L808.894 -54.105L760.49 -67.4649L461.495 1015.82L509.898 1029.18Z" fill="#DAD3E8"/>
<path d="M558.31 1042.54L857.306 -40.738L808.902 -54.0979L509.906 1029.18L558.31 1042.54Z" fill="#E3F4FC"/>
<path d="M606.724 1055.94L905.72 -27.3453L857.316 -40.7052L558.32 1042.58L606.724 1055.94Z" fill="#DAD3E8"/>
<path d="M655.17 1069.3L954.166 -13.9772L905.762 -27.3371L606.767 1055.94L655.17 1069.3Z" fill="#E3F4FC"/>
<path d="M703.583 1082.66L1002.58 -0.620728L954.175 -13.9806L655.18 1069.3L703.583 1082.66Z" fill="#DAD3E8"/>
<path d="M751.961 1096.02L1050.96 12.7368L1002.55 -0.62309L703.557 1082.66L751.961 1096.02Z" fill="#E3F4FC"/>
<path d="M800.408 1109.38L1099.4 26.1035L1051 12.7436L752.004 1096.02L800.408 1109.38Z" fill="#DAD3E8"/>
<path d="M644.424 541.972L696.434 730.467L748.549 541.655L696.399 353.054L644.424 541.972Z" fill="#7E2265"/>
<path d="M540.194 541.655L488.044 353.054L436.069 541.584L488.008 730.467L540.194 541.655Z" fill="#7E2265"/>
<path d="M540.229 541.972L592.274 730.467H696.469L592.203 353.054H488.043L540.229 541.972Z" fill="#F17998"/>
<path d="M487.973 730.467L383.849 353.054H279.618L383.813 730.467H487.973Z" fill="#F17998"/>
<path d="M748.549 541.584L696.54 353.054H800.7L748.549 541.584Z" fill="#F17998"/>
<path d="M670.482 447.706L722.527 636.201L748.549 541.655L696.399 353.054L670.482 447.706Z" fill="#332059"/>
<path d="M540.194 541.655L488.044 353.054L462.162 447.319L514.101 636.201L540.194 541.655Z" fill="#332059"/>
</g>
<path d="M540.194 101L160 320.518V759.518L540.194 979L920.389 759.518V320.518L540.194 101ZM892.324 743.32L540.194 946.639L188.065 743.32V336.68L540.194 133.361L892.324 336.68V743.32Z" fill="#1B3139"/>
</svg>
