<svg width="1034" height="558" viewBox="0 0 1034 558" fill="none" xmlns="http://www.w3.org/2000/svg">
<g filter="url(#filter0_dddddd_1117_13984)">
<path d="M148 116.336C148 77.4903 179.49 46 218.336 46H339.664C378.51 46 410 77.4903 410 116.336V237.664C410 276.51 378.51 308 339.664 308H218.336C179.49 308 148 276.51 148 237.664V116.336Z" fill="white"/>
</g>
<path d="M346.5 132.701C338.429 136.916 332.339 144.431 332.339 153.231V200.896H308.039V158.06C308.039 142.049 295.058 129.069 279.047 129.068C264.066 129.069 250.212 140.625 250.212 155.009V168.503H225.914V155.347H225.783C225.783 145.935 219.796 137.574 211.5 132.931V112.5H346.5V132.701Z" fill="#FF5F46"/>
<path d="M211.5 182.812H245.953C263.816 182.812 278.297 197.293 278.297 215.156H211.5V182.812Z" fill="#FABFBA"/>
<path d="M345.797 247.5L310.641 247.5C292.778 247.5 278.297 233.019 278.297 215.156L345.797 215.156V247.5Z" fill="#FABFBA"/>
<path d="M481.838 214.5V137.22H495.086V204.122H529.531V214.5H481.838ZM557.223 215.825C552.659 215.825 548.869 215.052 545.851 213.506C542.834 211.961 540.589 209.9 539.117 207.324C537.645 204.748 536.909 201.951 536.909 198.934C536.909 195.401 537.792 192.346 539.559 189.77C541.399 187.194 544.085 185.207 547.618 183.809C551.151 182.337 555.493 181.601 560.645 181.601H574.666C574.666 178.657 574.261 176.228 573.451 174.314C572.642 172.327 571.391 170.855 569.698 169.898C568.005 168.942 565.834 168.463 563.184 168.463C560.167 168.463 557.591 169.162 555.456 170.561C553.322 171.886 551.997 173.946 551.482 176.743H538.455C538.896 172.769 540.221 169.383 542.429 166.586C544.637 163.716 547.544 161.508 551.151 159.962C554.831 158.343 558.842 157.534 563.184 157.534C568.41 157.534 572.863 158.454 576.543 160.294C580.223 162.06 583.019 164.636 584.933 168.022C586.92 171.334 587.914 175.345 587.914 180.055V214.5H576.653L575.328 205.558C574.592 207.03 573.635 208.391 572.458 209.642C571.354 210.894 570.066 211.998 568.594 212.954C567.122 213.838 565.429 214.537 563.515 215.052C561.675 215.567 559.578 215.825 557.223 215.825ZM560.203 205.337C562.338 205.337 564.215 204.969 565.834 204.233C567.527 203.423 568.962 202.319 570.139 200.921C571.391 199.449 572.347 197.83 573.01 196.063C573.672 194.297 574.114 192.42 574.335 190.433V190.212H562.08C559.504 190.212 557.37 190.543 555.677 191.206C553.984 191.794 552.77 192.678 552.034 193.855C551.298 195.033 550.93 196.394 550.93 197.94C550.93 199.486 551.298 200.81 552.034 201.914C552.77 203.018 553.837 203.865 555.235 204.454C556.634 205.042 558.29 205.337 560.203 205.337ZM634.637 214.5L610.018 184.03L632.098 158.858H647.885L620.396 189.439V179.172L651.197 214.5H634.637ZM598.757 214.5V135.012H612.005V214.5H598.757ZM678.425 215.825C672.905 215.825 668.047 214.647 663.852 212.292C659.657 209.863 656.381 206.478 654.026 202.135C651.671 197.793 650.493 192.788 650.493 187.121C650.493 181.233 651.634 176.081 653.916 171.665C656.271 167.249 659.546 163.79 663.741 161.287C668.01 158.785 672.941 157.534 678.535 157.534C683.981 157.534 688.729 158.748 692.777 161.177C696.825 163.606 699.953 166.881 702.161 171.002C704.369 175.05 705.473 179.614 705.473 184.692C705.473 185.428 705.473 186.238 705.473 187.121C705.473 188.004 705.399 188.924 705.252 189.881H659.988V181.38H692.114C691.967 177.332 690.605 174.167 688.029 171.886C685.453 169.53 682.252 168.353 678.425 168.353C675.701 168.353 673.199 168.978 670.917 170.23C668.636 171.481 666.833 173.358 665.508 175.86C664.183 178.289 663.521 181.38 663.521 185.134V188.335C663.521 191.794 664.146 194.775 665.397 197.278C666.722 199.78 668.489 201.694 670.697 203.018C672.978 204.27 675.517 204.895 678.314 204.895C681.405 204.895 683.945 204.233 685.932 202.908C687.993 201.583 689.501 199.817 690.458 197.609H703.927C702.897 201.068 701.204 204.196 698.849 206.993C696.493 209.716 693.586 211.887 690.127 213.506C686.668 215.052 682.767 215.825 678.425 215.825ZM746.188 215.825C743.244 215.825 740.594 215.42 738.239 214.61C735.884 213.874 733.823 212.844 732.057 211.519C730.29 210.121 728.818 208.538 727.641 206.772L726.205 214.5H714.393V135.012H727.641V167.028C729.407 164.305 731.799 162.06 734.817 160.294C737.834 158.454 741.588 157.534 746.077 157.534C751.303 157.534 755.903 158.822 759.877 161.398C763.925 163.9 767.09 167.359 769.372 171.775C771.727 176.118 772.905 181.122 772.905 186.79C772.905 192.31 771.764 197.278 769.482 201.694C767.201 206.11 764.036 209.569 759.988 212.071C756.013 214.574 751.413 215.825 746.188 215.825ZM743.428 204.343C746.519 204.343 749.279 203.607 751.708 202.135C754.137 200.59 756.013 198.529 757.338 195.953C758.737 193.303 759.436 190.212 759.436 186.679C759.436 183.22 758.737 180.166 757.338 177.516C756.013 174.866 754.137 172.806 751.708 171.334C749.279 169.862 746.519 169.126 743.428 169.126C740.263 169.126 737.466 169.862 735.037 171.334C732.682 172.806 730.805 174.866 729.407 177.516C728.082 180.166 727.42 183.22 727.42 186.679C727.42 190.212 728.082 193.303 729.407 195.953C730.805 198.529 732.682 200.59 735.037 202.135C737.466 203.607 740.263 204.343 743.428 204.343ZM782.452 214.5V158.858H794.265L795.48 169.236C796.804 166.807 798.46 164.746 800.448 163.054C802.435 161.287 804.753 159.926 807.403 158.969C810.126 158.012 813.107 157.534 816.345 157.534V171.554H811.708C809.5 171.554 807.403 171.849 805.416 172.438C803.428 172.953 801.699 173.836 800.227 175.087C798.828 176.265 797.724 177.921 796.915 180.055C796.105 182.116 795.7 184.729 795.7 187.894V214.5H782.452ZM823.572 214.5V158.858H836.82V214.5H823.572ZM830.196 150.026C827.767 150.026 825.743 149.29 824.124 147.818C822.579 146.273 821.806 144.396 821.806 142.188C821.806 139.906 822.579 138.066 824.124 136.668C825.743 135.196 827.767 134.46 830.196 134.46C832.625 134.46 834.612 135.196 836.158 136.668C837.777 138.066 838.587 139.906 838.587 142.188C838.587 144.396 837.777 146.273 836.158 147.818C834.612 149.29 832.625 150.026 830.196 150.026ZM873.547 215.825C868.395 215.825 863.795 214.574 859.747 212.071C855.699 209.569 852.534 206.11 850.253 201.694C848.045 197.278 846.941 192.273 846.941 186.679C846.941 181.086 848.081 176.118 850.363 171.775C852.645 167.359 855.809 163.9 859.857 161.398C863.979 158.822 868.616 157.534 873.768 157.534C877.963 157.534 881.606 158.343 884.697 159.962C887.862 161.508 890.365 163.716 892.205 166.586V135.012H905.453V214.5H893.529L892.205 206.441C891.027 208.06 889.592 209.606 887.899 211.078C886.206 212.476 884.182 213.617 881.827 214.5C879.472 215.383 876.712 215.825 873.547 215.825ZM876.307 204.343C879.472 204.343 882.269 203.607 884.697 202.135C887.126 200.59 889.003 198.492 890.328 195.842C891.653 193.193 892.315 190.138 892.315 186.679C892.315 183.22 891.653 180.166 890.328 177.516C889.003 174.866 887.126 172.806 884.697 171.334C882.269 169.862 879.472 169.126 876.307 169.126C873.289 169.126 870.566 169.862 868.137 171.334C865.709 172.806 863.795 174.866 862.397 177.516C861.072 180.166 860.409 183.22 860.409 186.679C860.409 190.138 861.072 193.193 862.397 195.842C863.795 198.492 865.709 200.59 868.137 202.135C870.566 203.607 873.289 204.343 876.307 204.343ZM940.282 240.113C935.057 240.113 930.457 239.45 926.482 238.126C922.581 236.874 919.527 234.924 917.319 232.274C915.185 229.698 914.117 226.46 914.117 222.559C914.117 220.278 914.669 218.033 915.773 215.825C916.951 213.69 918.681 211.703 920.962 209.863C923.317 207.95 926.298 206.294 929.905 204.895L935.756 211.298C932.223 212.55 929.757 214.058 928.359 215.825C926.961 217.591 926.261 219.394 926.261 221.234C926.261 223.148 926.85 224.73 928.028 225.982C929.279 227.306 930.935 228.3 932.996 228.962C935.13 229.625 937.522 229.956 940.172 229.956C942.748 229.956 944.993 229.588 946.906 228.852C948.82 228.19 950.292 227.233 951.322 225.982C952.426 224.73 952.978 223.222 952.978 221.455C952.978 219.247 952.205 217.444 950.66 216.046C949.114 214.721 946.06 213.911 941.497 213.617C937.596 213.322 934.173 212.918 931.229 212.402C928.285 211.814 925.746 211.151 923.612 210.415C921.551 209.679 919.785 208.87 918.313 207.986C916.841 207.03 915.626 206.073 914.669 205.116V202.577L926.261 190.433L936.087 193.634L923.06 206.33L926.482 199.927C927.218 200.442 927.954 200.921 928.69 201.362C929.5 201.804 930.493 202.209 931.671 202.577C932.922 202.871 934.541 203.166 936.529 203.46C938.516 203.754 941.092 204.049 944.257 204.343C949.188 204.711 953.199 205.594 956.29 206.993C959.381 208.391 961.663 210.268 963.135 212.623C964.607 214.978 965.343 217.812 965.343 221.124C965.343 224.362 964.423 227.417 962.583 230.287C960.817 233.158 958.093 235.513 954.413 237.353C950.733 239.193 946.023 240.113 940.282 240.113ZM940.282 197.83C935.645 197.83 931.634 196.946 928.249 195.18C924.937 193.34 922.397 190.911 920.631 187.894C918.865 184.802 917.981 181.417 917.981 177.737C917.981 173.983 918.865 170.598 920.631 167.58C922.397 164.562 924.937 162.134 928.249 160.294C931.634 158.454 935.645 157.534 940.282 157.534C944.919 157.534 948.893 158.454 952.205 160.294C955.517 162.134 958.057 164.562 959.823 167.58C961.589 170.598 962.473 173.983 962.473 177.737C962.473 181.417 961.589 184.802 959.823 187.894C958.057 190.911 955.517 193.34 952.205 195.18C948.893 196.946 944.919 197.83 940.282 197.83ZM940.282 187.562C943.447 187.562 945.986 186.716 947.9 185.023C949.813 183.33 950.77 180.902 950.77 177.737C950.77 174.572 949.813 172.18 947.9 170.561C945.986 168.868 943.447 168.022 940.282 168.022C937.117 168.022 934.541 168.868 932.554 170.561C930.567 172.18 929.573 174.572 929.573 177.737C929.573 180.902 930.567 183.33 932.554 185.023C934.541 186.716 937.117 187.562 940.282 187.562ZM949.445 168.574L946.906 158.858H969.759V167.138L949.445 168.574ZM1002.04 215.825C996.523 215.825 991.666 214.647 987.47 212.292C983.275 209.863 980 206.478 977.645 202.135C975.29 197.793 974.112 192.788 974.112 187.121C974.112 181.233 975.253 176.081 977.534 171.665C979.89 167.249 983.165 163.79 987.36 161.287C991.629 158.785 996.56 157.534 1002.15 157.534C1007.6 157.534 1012.35 158.748 1016.4 161.177C1020.44 163.606 1023.57 166.881 1025.78 171.002C1027.99 175.05 1029.09 179.614 1029.09 184.692C1029.09 185.428 1029.09 186.238 1029.09 187.121C1029.09 188.004 1029.02 188.924 1028.87 189.881H983.606V181.38H1015.73C1015.59 177.332 1014.22 174.167 1011.65 171.886C1009.07 169.53 1005.87 168.353 1002.04 168.353C999.32 168.353 996.818 168.978 994.536 170.23C992.254 171.481 990.451 173.358 989.126 175.86C987.802 178.289 987.139 181.38 987.139 185.134V188.335C987.139 191.794 987.765 194.775 989.016 197.278C990.341 199.78 992.107 201.694 994.315 203.018C996.597 204.27 999.136 204.895 1001.93 204.895C1005.02 204.895 1007.56 204.233 1009.55 202.908C1011.61 201.583 1013.12 199.817 1014.08 197.609H1027.55C1026.52 201.068 1024.82 204.196 1022.47 206.993C1020.11 209.716 1017.2 211.887 1013.75 213.506C1010.29 215.052 1006.39 215.825 1002.04 215.825Z" fill="#1B3139"/>
<defs>
<filter id="filter0_dddddd_1117_13984" x="0.713516" y="0.681084" width="556.573" height="556.573" filterUnits="userSpaceOnUse" color-interpolation-filters="sRGB">
<feFlood flood-opacity="0" result="BackgroundImageFix"/>
<feColorMatrix in="SourceAlpha" type="matrix" values="0 0 0 0 0 0 0 0 0 0 0 0 0 0 0 0 0 0 127 0" result="hardAlpha"/>
<feOffset dy="2.83243"/>
<feGaussianBlur stdDeviation="2.12432"/>
<feColorMatrix type="matrix" values="0 0 0 0 0.105882 0 0 0 0 0.192157 0 0 0 0 0.223529 0 0 0 0.0196802 0"/>
<feBlend mode="normal" in2="BackgroundImageFix" result="effect1_dropShadow_1117_13984"/>
<feColorMatrix in="SourceAlpha" type="matrix" values="0 0 0 0 0 0 0 0 0 0 0 0 0 0 0 0 0 0 127 0" result="hardAlpha"/>
<feOffset dy="5.66487"/>
<feGaussianBlur stdDeviation="5.66487"/>
<feColorMatrix type="matrix" values="0 0 0 0 0.105882 0 0 0 0 0.192157 0 0 0 0 0.223529 0 0 0 0.04 0"/>
<feBlend mode="normal" in2="effect1_dropShadow_1117_13984" result="effect2_dropShadow_1117_13984"/>
<feColorMatrix in="SourceAlpha" type="matrix" values="0 0 0 0 0 0 0 0 0 0 0 0 0 0 0 0 0 0 127 0" result="hardAlpha"/>
<feOffset dy="12.7459"/>
<feGaussianBlur stdDeviation="9.20541"/>
<feColorMatrix type="matrix" values="0 0 0 0 0.105882 0 0 0 0 0.192157 0 0 0 0 0.223529 0 0 0 0.035 0"/>
<feBlend mode="normal" in2="effect2_dropShadow_1117_13984" result="effect3_dropShadow_1117_13984"/>
<feColorMatrix in="SourceAlpha" type="matrix" values="0 0 0 0 0 0 0 0 0 0 0 0 0 0 0 0 0 0 127 0" result="hardAlpha"/>
<feOffset dy="22.6595"/>
<feGaussianBlur stdDeviation="16.9946"/>
<feColorMatrix type="matrix" values="0 0 0 0 0.105882 0 0 0 0 0.192157 0 0 0 0 0.223529 0 0 0 0.04 0"/>
<feBlend mode="normal" in2="effect3_dropShadow_1117_13984" result="effect4_dropShadow_1117_13984"/>
<feColorMatrix in="SourceAlpha" type="matrix" values="0 0 0 0 0 0 0 0 0 0 0 0 0 0 0 0 0 0 127 0" result="hardAlpha"/>
<feOffset dy="45.3189"/>
<feGaussianBlur stdDeviation="28.3243"/>
<feColorMatrix type="matrix" values="0 0 0 0 0.105882 0 0 0 0 0.192157 0 0 0 0 0.223529 0 0 0 0.0503198 0"/>
<feBlend mode="normal" in2="effect4_dropShadow_1117_13984" result="effect5_dropShadow_1117_13984"/>
<feColorMatrix in="SourceAlpha" type="matrix" values="0 0 0 0 0 0 0 0 0 0 0 0 0 0 0 0 0 0 127 0" result="hardAlpha"/>
<feOffset dy="101.968"/>
<feGaussianBlur stdDeviation="73.6432"/>
<feColorMatrix type="matrix" values="0 0 0 0 0.105882 0 0 0 0 0.192157 0 0 0 0 0.223529 0 0 0 0.07 0"/>
<feBlend mode="normal" in2="effect5_dropShadow_1117_13984" result="effect6_dropShadow_1117_13984"/>
<feBlend mode="normal" in="SourceGraphic" in2="effect6_dropShadow_1117_13984" result="shape"/>
</filter>
</defs>
</svg>
