<svg width="150" height="150" viewBox="0 0 150 150" fill="none" xmlns="http://www.w3.org/2000/svg">
<path d="M39.9677 73.902C42.1438 73.9004 44.2488 73.1266 45.9079 71.7184C47.567 70.3102 48.6725 68.3589 49.0277 66.212H75.1281V63.212H49.0377C48.7498 61.4854 47.9742 59.8771 46.8024 58.5767C45.6306 57.2763 44.1115 56.3381 42.4241 55.8726C40.7367 55.4071 38.9513 55.4337 37.2785 55.9493C35.6058 56.465 34.1153 57.4481 32.9828 58.7829C31.8503 60.1176 31.1231 61.7483 30.8868 63.4827C30.6505 65.2172 30.915 66.983 31.6491 68.5721C32.3832 70.1611 33.5564 71.5072 35.0303 72.4515C36.5041 73.3958 38.2173 73.8991 39.9677 73.902ZM39.9677 58.522C41.1928 58.518 42.3915 58.8777 43.4121 59.5554C44.4327 60.2332 45.2292 61.1986 45.7008 62.3293C46.1723 63.46 46.2978 64.7052 46.0612 65.9073C45.8246 67.1093 45.2367 68.2142 44.3718 69.0819C43.5069 69.9495 42.404 70.5411 41.2027 70.7815C40.0014 71.022 38.7558 70.9006 37.6235 70.4327C36.4913 69.9648 35.5234 69.1714 34.8423 68.153C34.1613 67.1347 33.7977 65.9371 33.7977 64.712C33.8003 63.0746 34.4506 61.5047 35.6065 60.3449C36.7625 59.1852 38.3303 58.5299 39.9677 58.522Z" fill="white"/>
<path d="M38.4728 41.855C38.8097 44.6571 40.16 47.2391 42.2691 49.1143C44.3783 50.9895 47.1005 52.0283 49.9228 52.035H76.9948V49.035H49.9228C47.8965 49.0284 45.9384 48.3032 44.3966 46.9885C42.8548 45.6738 41.8294 43.8547 41.5028 41.855C43.7816 41.4784 45.8354 40.2585 47.2562 38.4374C48.677 36.6164 49.3609 34.3276 49.1719 32.0256C48.983 29.7236 47.9351 27.5769 46.2364 26.0119C44.5377 24.4469 42.3125 23.5781 40.0028 23.5781C37.693 23.5781 35.4678 24.4469 33.7691 26.0119C32.0704 27.5769 31.0225 29.7236 30.8336 32.0256C30.6447 34.3276 31.3285 36.6164 32.7493 38.4374C34.1701 40.2585 36.2239 41.4784 38.5028 41.855H38.4728ZM39.9028 26.605C41.1253 26.6011 42.3216 26.9593 43.3408 27.6345C44.3601 28.3096 45.1565 29.2715 45.6298 30.3987C46.1031 31.5259 46.232 32.768 46.0002 33.9684C45.7685 35.1688 45.1864 36.2737 44.3276 37.1437C43.4687 38.0137 42.3714 38.6099 41.1741 38.8571C39.9768 39.1043 38.7331 38.9914 37.5999 38.5327C36.4667 38.074 35.4946 37.29 34.8064 36.2796C34.1182 35.2691 33.7446 34.0775 33.7328 32.855C33.7275 32.0405 33.883 31.2329 34.1905 30.4785C34.498 29.7242 34.9513 29.038 35.5245 28.4592C36.0977 27.8805 36.7795 27.4205 37.5308 27.1058C38.2821 26.791 39.0882 26.6276 39.9028 26.625V26.605Z" fill="white"/>
<g clip-path="url(#clip0_14057_487)">
<path d="M104.855 42.2217C104.755 42.2217 104.655 42.2217 104.57 42.2267C98.7899 42.5517 94.1549 52.6167 94.1549 64.9817C94.1549 69.1267 94.6749 73.0117 95.5849 76.3567C96.7399 80.5867 98.5099 83.9517 100.635 85.8967V87.3467C94.0149 86.1017 88.4049 82.0017 85.1499 76.3617" stroke="white" stroke-width="3" stroke-miterlimit="10"/>
<path d="M104.57 87.7321C104.66 87.7321 104.76 87.7321 104.855 87.7321C104.95 87.7321 105.05 87.7321 105.14 87.7321C110.92 87.4071 115.555 77.3421 115.555 64.9821C115.555 55.6071 112.89 47.5521 109.075 44.0671V42.6221C109.345 42.6721 109.615 42.7271 109.885 42.7871" stroke="white" stroke-width="3" stroke-miterlimit="10"/>
<path d="M82.1001 64.9814H127.61" stroke="white" stroke-width="3" stroke-miterlimit="10"/>
<path d="M100.635 87.3417C90.0851 85.3617 82.1001 76.1067 82.1001 64.9767C82.1001 52.5017 92.1351 42.3767 104.57 42.2267C104.665 42.2267 104.855 42.2217 104.855 42.2217M104.855 87.7317C104.95 87.7317 105.045 87.7317 105.14 87.7267C117.575 87.5767 127.61 77.4517 127.61 64.9767C127.61 62.7517 127.295 60.6067 126.695 58.5767C126.68 58.5117 126.66 58.4517 126.64 58.3967C126.5 57.9067 126.335 57.4267 126.155 56.9517C125.87 56.1967 125.55 55.4567 125.18 54.7417C125.08 54.5317 124.975 54.3317 124.865 54.1317C124.835 54.0717 124.8 54.0167 124.775 53.9617C124.655 53.7467 124.535 53.5417 124.41 53.3367C124.15 52.8917 123.87 52.4567 123.575 52.0367C123.555 52.0067 123.54 51.9817 123.515 51.9517C123.22 51.5317 122.915 51.1117 122.585 50.7117C122.42 50.5067 122.25 50.3017 122.075 50.1017C122.075 50.1017 122.07 50.0867 122.065 50.0817C121.895 49.8917 121.725 49.6967 121.545 49.5117C121.37 49.3167 121.185 49.1217 120.995 48.9367C120.81 48.7467 120.615 48.5617 120.425 48.3817C120.23 48.1967 120.035 48.0217 119.835 47.8467C119.635 47.6717 119.43 47.4967 119.225 47.3317C119.025 47.1617 118.81 47.0017 118.6 46.8417C118.415 46.6967 118.225 46.5567 118.03 46.4167C118.005 46.4017 117.98 46.3867 117.96 46.3667C117.74 46.2167 117.515 46.0667 117.295 45.9217C116.885 45.6467 116.46 45.3917 116.03 45.1517C115.97 45.1167 115.905 45.0767 115.845 45.0467C115.64 44.9317 115.43 44.8217 115.22 44.7167H115.215C114.985 44.5917 114.75 44.4767 114.515 44.3717C114.5 44.3617 114.49 44.3517 114.475 44.3517C114.245 44.2367 114.005 44.1317 113.76 44.0317C113.575 43.9517 113.39 43.8767 113.2 43.8017C113.11 43.7667 113.015 43.7267 112.925 43.6967C112.455 43.5167 111.98 43.3517 111.495 43.2067C111.48 43.2067 111.46 43.1967 111.445 43.1917C110.93 43.0367 110.415 42.8967 109.885 42.7817" stroke="white" stroke-width="3" stroke-miterlimit="10"/>
</g>
<path d="M42.125 128.421C42.125 125.271 43.835 122.321 46.555 120.761L57.935 114.231C53.465 109.981 49.685 103.251 49.685 96.5814C49.685 85.6214 56.755 77.9014 66.515 77.9014C76.275 77.9014 83.305 85.6214 83.305 96.5814C83.305 103.251 79.525 109.981 75.075 114.231L86.435 120.761C89.195 122.311 90.885 125.271 90.885 128.421" stroke="white" stroke-width="3" stroke-miterlimit="10"/>
<defs>
<clipPath id="clip0_14057_487">
<rect width="49" height="50" fill="white" transform="translate(80.5049 39.8066)"/>
</clipPath>
</defs>
</svg>
