<svg width="1107" height="558" viewBox="0 0 1107 558" fill="none" xmlns="http://www.w3.org/2000/svg">
<g filter="url(#filter0_dddddd_1117_13647)">
<path d="M148 116.336C148 77.4903 179.49 46 218.336 46H339.664C378.51 46 410 77.4903 410 116.336V237.664C410 276.51 378.51 308 339.664 308H218.336C179.49 308 148 276.51 148 237.664V116.336Z" fill="white"/>
</g>
<path d="M247.988 131.392L247.988 222.608L211.502 244.5L211.502 109.5L247.988 131.392Z" fill="#FABFBA"/>
<path d="M297.529 131.392L297.529 222.608L261.043 244.5L261.043 109.5L297.529 131.392Z" fill="#FF5F46"/>
<path d="M346.369 131.392L346.369 222.608L309.883 244.5L309.883 109.5L346.369 131.392Z" fill="#FABFBA"/>
<path d="M481.838 214.5V137.22H497.515L522.245 187.121L546.754 137.22H562.541V214.5H549.293V159.962L527.434 203.681H517.056L495.086 160.073V214.5H481.838ZM593.016 215.825C588.453 215.825 584.663 215.052 581.645 213.506C578.628 211.961 576.383 209.9 574.911 207.324C573.439 204.748 572.703 201.951 572.703 198.934C572.703 195.401 573.586 192.346 575.352 189.77C577.192 187.194 579.879 185.207 583.412 183.809C586.944 182.337 591.287 181.601 596.439 181.601H610.46C610.46 178.657 610.055 176.228 609.245 174.314C608.436 172.327 607.184 170.855 605.492 169.898C603.799 168.942 601.628 168.463 598.978 168.463C595.96 168.463 593.384 169.162 591.25 170.561C589.116 171.886 587.791 173.946 587.276 176.743H574.248C574.69 172.769 576.015 169.383 578.223 166.586C580.431 163.716 583.338 161.508 586.944 159.962C590.624 158.343 594.636 157.534 598.978 157.534C604.204 157.534 608.656 158.454 612.336 160.294C616.016 162.06 618.813 164.636 620.727 168.022C622.714 171.334 623.708 175.345 623.708 180.055V214.5H612.447L611.122 205.558C610.386 207.03 609.429 208.391 608.252 209.642C607.148 210.894 605.86 211.998 604.388 212.954C602.916 213.838 601.223 214.537 599.309 215.052C597.469 215.567 595.372 215.825 593.016 215.825ZM595.997 205.337C598.132 205.337 600.008 204.969 601.628 204.233C603.32 203.423 604.756 202.319 605.933 200.921C607.184 199.449 608.141 197.83 608.804 196.063C609.466 194.297 609.908 192.42 610.128 190.433V190.212H597.874C595.298 190.212 593.164 190.543 591.471 191.206C589.778 191.794 588.564 192.678 587.828 193.855C587.092 195.033 586.724 196.394 586.724 197.94C586.724 199.486 587.092 200.81 587.828 201.914C588.564 203.018 589.631 203.865 591.029 204.454C592.428 205.042 594.084 205.337 595.997 205.337ZM634.551 214.5V158.858H646.364L647.578 169.236C648.903 166.807 650.559 164.746 652.546 163.054C654.533 161.287 656.852 159.926 659.501 158.969C662.225 158.012 665.205 157.534 668.444 157.534V171.554H663.807C661.599 171.554 659.501 171.849 657.514 172.438C655.527 172.953 653.797 173.836 652.325 175.087C650.927 176.265 649.823 177.921 649.013 180.055C648.204 182.116 647.799 184.729 647.799 187.894V214.5H634.551ZM710.999 214.5L686.379 184.03L708.459 158.858H724.247L696.757 189.439V179.172L727.559 214.5H710.999ZM675.119 214.5V135.012H688.367V214.5H675.119ZM754.786 215.825C749.266 215.825 744.408 214.647 740.213 212.292C736.018 209.863 732.743 206.478 730.388 202.135C728.032 197.793 726.855 192.788 726.855 187.121C726.855 181.233 727.996 176.081 730.277 171.665C732.632 167.249 735.908 163.79 740.103 161.287C744.372 158.785 749.303 157.534 754.896 157.534C760.343 157.534 765.09 158.748 769.138 161.177C773.186 163.606 776.314 166.881 778.522 171.002C780.73 175.05 781.834 179.614 781.834 184.692C781.834 185.428 781.834 186.238 781.834 187.121C781.834 188.004 781.76 188.924 781.613 189.881H736.349V181.38H768.476C768.328 177.332 766.967 174.167 764.391 171.886C761.815 169.53 758.613 168.353 754.786 168.353C752.063 168.353 749.56 168.978 747.279 170.23C744.997 171.481 743.194 173.358 741.869 175.86C740.544 178.289 739.882 181.38 739.882 185.134V188.335C739.882 191.794 740.508 194.775 741.759 197.278C743.084 199.78 744.85 201.694 747.058 203.018C749.34 204.27 751.879 204.895 754.676 204.895C757.767 204.895 760.306 204.233 762.293 202.908C764.354 201.583 765.863 199.817 766.82 197.609H780.288C779.258 201.068 777.565 204.196 775.21 206.993C772.855 209.716 769.948 211.887 766.488 213.506C763.029 215.052 759.128 215.825 754.786 215.825ZM813.853 214.5C810.1 214.5 806.825 213.911 804.028 212.734C801.305 211.556 799.17 209.606 797.625 206.882C796.079 204.159 795.306 200.479 795.306 195.842V170.009H785.812V158.858H795.306L796.852 144.175H808.554V158.858H823.679V170.009H808.554V195.842C808.554 198.639 809.143 200.59 810.321 201.694C811.572 202.724 813.633 203.239 816.503 203.239H823.348V214.5H813.853ZM832.831 238.788V158.858H844.644L846.079 166.918C847.257 165.298 848.655 163.79 850.274 162.391C851.967 160.919 853.991 159.742 856.346 158.858C858.775 157.975 861.535 157.534 864.626 157.534C869.852 157.534 874.452 158.822 878.426 161.398C882.474 163.974 885.639 167.47 887.921 171.886C890.202 176.228 891.343 181.196 891.343 186.79C891.343 192.383 890.165 197.388 887.81 201.804C885.529 206.146 882.364 209.569 878.316 212.071C874.341 214.574 869.778 215.825 864.626 215.825C860.431 215.825 856.751 215.052 853.586 213.506C850.495 211.887 847.993 209.606 846.079 206.662V238.788H832.831ZM861.866 204.343C864.957 204.343 867.717 203.607 870.146 202.135C872.575 200.663 874.452 198.602 875.777 195.953C877.175 193.303 877.874 190.249 877.874 186.79C877.874 183.257 877.175 180.166 875.777 177.516C874.452 174.866 872.575 172.806 870.146 171.334C867.717 169.862 864.957 169.126 861.866 169.126C858.701 169.126 855.905 169.862 853.476 171.334C851.121 172.806 849.244 174.866 847.845 177.516C846.521 180.166 845.858 183.22 845.858 186.679C845.858 190.212 846.521 193.303 847.845 195.953C849.244 198.529 851.121 200.59 853.476 202.135C855.905 203.607 858.701 204.343 861.866 204.343ZM900.891 214.5V135.012H914.139V214.5H900.891ZM944.157 215.825C939.594 215.825 935.804 215.052 932.786 213.506C929.769 211.961 927.524 209.9 926.052 207.324C924.58 204.748 923.844 201.951 923.844 198.934C923.844 195.401 924.727 192.346 926.493 189.77C928.333 187.194 931.02 185.207 934.553 183.809C938.085 182.337 942.428 181.601 947.58 181.601H961.601C961.601 178.657 961.196 176.228 960.386 174.314C959.577 172.327 958.325 170.855 956.633 169.898C954.94 168.942 952.769 168.463 950.119 168.463C947.101 168.463 944.525 169.162 942.391 170.561C940.257 171.886 938.932 173.946 938.417 176.743H925.389C925.831 172.769 927.156 169.383 929.364 166.586C931.572 163.716 934.479 161.508 938.085 159.962C941.765 158.343 945.777 157.534 950.119 157.534C955.345 157.534 959.797 158.454 963.477 160.294C967.157 162.06 969.954 164.636 971.868 168.022C973.855 171.334 974.849 175.345 974.849 180.055V214.5H963.588L962.263 205.558C961.527 207.03 960.57 208.391 959.393 209.642C958.289 210.894 957.001 211.998 955.529 212.954C954.057 213.838 952.364 214.537 950.45 215.052C948.61 215.567 946.513 215.825 944.157 215.825ZM947.138 205.337C949.273 205.337 951.149 204.969 952.769 204.233C954.461 203.423 955.897 202.319 957.074 200.921C958.325 199.449 959.282 197.83 959.945 196.063C960.607 194.297 961.049 192.42 961.269 190.433V190.212H949.015C946.439 190.212 944.305 190.543 942.612 191.206C940.919 191.794 939.705 192.678 938.969 193.855C938.233 195.033 937.865 196.394 937.865 197.94C937.865 199.486 938.233 200.81 938.969 201.914C939.705 203.018 940.772 203.865 942.17 204.454C943.569 205.042 945.225 205.337 947.138 205.337ZM1012.08 215.825C1006.63 215.825 1001.74 214.61 997.394 212.182C993.126 209.679 989.777 206.257 987.348 201.914C984.993 197.498 983.815 192.494 983.815 186.9C983.815 181.086 984.993 176.007 987.348 171.665C989.777 167.249 993.126 163.79 997.394 161.287C1001.74 158.785 1006.67 157.534 1012.19 157.534C1019.11 157.534 1024.92 159.374 1029.63 163.054C1034.34 166.66 1037.36 171.628 1038.68 177.958H1024.77C1024.04 175.161 1022.49 172.953 1020.14 171.334C1017.86 169.714 1015.13 168.905 1011.97 168.905C1009.24 168.905 1006.74 169.604 1004.46 171.002C1002.25 172.401 1000.49 174.425 999.161 177.074C997.91 179.724 997.284 182.926 997.284 186.679C997.284 189.55 997.652 192.089 998.388 194.297C999.124 196.505 1000.15 198.382 1001.48 199.927C1002.88 201.399 1004.46 202.54 1006.23 203.35C1007.99 204.159 1009.91 204.564 1011.97 204.564C1014.1 204.564 1016.02 204.233 1017.71 203.57C1019.47 202.834 1020.95 201.767 1022.12 200.369C1023.38 198.97 1024.26 197.314 1024.77 195.401H1038.68C1037.36 201.583 1034.34 206.551 1029.63 210.305C1024.92 213.985 1019.07 215.825 1012.08 215.825ZM1074.2 215.825C1068.68 215.825 1063.82 214.647 1059.63 212.292C1055.43 209.863 1052.16 206.478 1049.8 202.135C1047.45 197.793 1046.27 192.788 1046.27 187.121C1046.27 181.233 1047.41 176.081 1049.69 171.665C1052.05 167.249 1055.32 163.79 1059.52 161.287C1063.79 158.785 1068.72 157.534 1074.31 157.534C1079.76 157.534 1084.5 158.748 1088.55 161.177C1092.6 163.606 1095.73 166.881 1097.94 171.002C1100.14 175.05 1101.25 179.614 1101.25 184.692C1101.25 185.428 1101.25 186.238 1101.25 187.121C1101.25 188.004 1101.17 188.924 1101.03 189.881H1055.76V181.38H1087.89C1087.74 177.332 1086.38 174.167 1083.8 171.886C1081.23 169.53 1078.03 168.353 1074.2 168.353C1071.48 168.353 1068.97 168.978 1066.69 170.23C1064.41 171.481 1062.61 173.358 1061.28 175.86C1059.96 178.289 1059.3 181.38 1059.3 185.134V188.335C1059.3 191.794 1059.92 194.775 1061.17 197.278C1062.5 199.78 1064.26 201.694 1066.47 203.018C1068.75 204.27 1071.29 204.895 1074.09 204.895C1077.18 204.895 1079.72 204.233 1081.71 202.908C1083.77 201.583 1085.28 199.817 1086.23 197.609H1099.7C1098.67 201.068 1096.98 204.196 1094.62 206.993C1092.27 209.716 1089.36 211.887 1085.9 213.506C1082.44 215.052 1078.54 215.825 1074.2 215.825Z" fill="white"/>
<defs>
<filter id="filter0_dddddd_1117_13647" x="0.713516" y="0.681084" width="556.573" height="556.573" filterUnits="userSpaceOnUse" color-interpolation-filters="sRGB">
<feFlood flood-opacity="0" result="BackgroundImageFix"/>
<feColorMatrix in="SourceAlpha" type="matrix" values="0 0 0 0 0 0 0 0 0 0 0 0 0 0 0 0 0 0 127 0" result="hardAlpha"/>
<feOffset dy="2.83243"/>
<feGaussianBlur stdDeviation="2.12432"/>
<feColorMatrix type="matrix" values="0 0 0 0 0.105882 0 0 0 0 0.192157 0 0 0 0 0.223529 0 0 0 0.0196802 0"/>
<feBlend mode="normal" in2="BackgroundImageFix" result="effect1_dropShadow_1117_13647"/>
<feColorMatrix in="SourceAlpha" type="matrix" values="0 0 0 0 0 0 0 0 0 0 0 0 0 0 0 0 0 0 127 0" result="hardAlpha"/>
<feOffset dy="5.66487"/>
<feGaussianBlur stdDeviation="5.66487"/>
<feColorMatrix type="matrix" values="0 0 0 0 0.105882 0 0 0 0 0.192157 0 0 0 0 0.223529 0 0 0 0.04 0"/>
<feBlend mode="normal" in2="effect1_dropShadow_1117_13647" result="effect2_dropShadow_1117_13647"/>
<feColorMatrix in="SourceAlpha" type="matrix" values="0 0 0 0 0 0 0 0 0 0 0 0 0 0 0 0 0 0 127 0" result="hardAlpha"/>
<feOffset dy="12.7459"/>
<feGaussianBlur stdDeviation="9.20541"/>
<feColorMatrix type="matrix" values="0 0 0 0 0.105882 0 0 0 0 0.192157 0 0 0 0 0.223529 0 0 0 0.035 0"/>
<feBlend mode="normal" in2="effect2_dropShadow_1117_13647" result="effect3_dropShadow_1117_13647"/>
<feColorMatrix in="SourceAlpha" type="matrix" values="0 0 0 0 0 0 0 0 0 0 0 0 0 0 0 0 0 0 127 0" result="hardAlpha"/>
<feOffset dy="22.6595"/>
<feGaussianBlur stdDeviation="16.9946"/>
<feColorMatrix type="matrix" values="0 0 0 0 0.105882 0 0 0 0 0.192157 0 0 0 0 0.223529 0 0 0 0.04 0"/>
<feBlend mode="normal" in2="effect3_dropShadow_1117_13647" result="effect4_dropShadow_1117_13647"/>
<feColorMatrix in="SourceAlpha" type="matrix" values="0 0 0 0 0 0 0 0 0 0 0 0 0 0 0 0 0 0 127 0" result="hardAlpha"/>
<feOffset dy="45.3189"/>
<feGaussianBlur stdDeviation="28.3243"/>
<feColorMatrix type="matrix" values="0 0 0 0 0.105882 0 0 0 0 0.192157 0 0 0 0 0.223529 0 0 0 0.0503198 0"/>
<feBlend mode="normal" in2="effect4_dropShadow_1117_13647" result="effect5_dropShadow_1117_13647"/>
<feColorMatrix in="SourceAlpha" type="matrix" values="0 0 0 0 0 0 0 0 0 0 0 0 0 0 0 0 0 0 127 0" result="hardAlpha"/>
<feOffset dy="101.968"/>
<feGaussianBlur stdDeviation="73.6432"/>
<feColorMatrix type="matrix" values="0 0 0 0 0.105882 0 0 0 0 0.192157 0 0 0 0 0.223529 0 0 0 0.07 0"/>
<feBlend mode="normal" in2="effect5_dropShadow_1117_13647" result="effect6_dropShadow_1117_13647"/>
<feBlend mode="normal" in="SourceGraphic" in2="effect6_dropShadow_1117_13647" result="shape"/>
</filter>
</defs>
</svg>
