<svg width="150" height="150" viewBox="0 0 150 150" fill="none" xmlns="http://www.w3.org/2000/svg">
<path d="M88.7165 113.241L75.343 131.774L61.9695 113.241H58.5267L75.343 136.545L92.1593 113.241H88.7165Z" fill="white"/>
<path d="M53.2589 105.93H32.051V108.723H55.2649H58.7076L56.7016 105.93L43.1655 87.1714L41.1504 84.3793L34.3823 74.9998L58.7076 41.2769H55.2649H32.051V44.069H53.2589L39.7227 62.8281H17.9004V65.6202H37.7077L30.9396 74.9998L37.7077 84.3793H17.9004V87.1714H39.7227L53.2589 105.93Z" fill="white"/>
<path d="M61.9695 36.7588L75.343 18.2166L80.8189 25.807L91.9785 41.2769H69.3611L67.2918 44.069H93.9846H97.4273H114.506V41.2769H95.4213L75.343 13.4546L58.5267 36.7588H61.9695Z" fill="white"/>
<path d="M107.702 91.6895H104.259L93.9854 105.93H67.3197L69.3709 108.723H91.9794H95.4221H114.506V105.93H97.4282L107.702 91.6895Z" fill="white"/>
<path d="M110.964 62.8281L100.69 48.5872H97.2469L107.521 62.8281H53.4035L51.3343 65.6203H83.4578H109.536H112.979H132.099V62.8281H110.964Z" fill="white"/>
<path d="M119.738 74.9996L116.232 70.1382H112.798L116.304 74.9996L109.536 84.3791H51.4335L53.4847 87.1713H83.4576H107.521H110.964H132.099V84.3791H112.979L119.738 74.9996Z" fill="white"/>
</svg>
