<svg width="150" height="150" viewBox="0 0 150 150" fill="none" xmlns="http://www.w3.org/2000/svg">
<path d="M15.24 91C19.1259 105.496 28.1485 118.085 40.6271 126.423C53.1057 134.761 68.1896 138.279 83.0692 136.322C97.9489 134.364 111.61 127.065 121.508 115.784C131.405 104.502 136.865 90.0078 136.87 75V73.5H114.36V75C114.356 84.4261 110.971 93.5382 104.819 100.68C98.667 107.822 90.1568 112.519 80.8351 113.919C71.5134 115.318 61.999 113.327 54.0211 108.306C46.0432 103.286 40.1313 95.5695 37.36 86.56L34.5 87.44C37.4389 97.0171 43.677 105.243 52.1065 110.656C60.5359 116.069 70.6111 118.32 80.5427 117.008C90.4744 115.696 99.6198 110.907 106.355 103.491C113.09 96.0749 116.978 86.5117 117.33 76.5H133.85C133.485 90.6624 128.025 104.218 118.473 114.68C108.92 125.142 95.9146 131.808 81.8436 133.455C67.7727 135.102 53.5796 131.619 41.869 123.647C30.1583 115.674 21.7156 103.745 18.09 90.05L25.72 94.49L27.23 91.9L15.29 85L8.33997 96.89L10.93 98.4L15.24 91Z" fill="#FF5F46"/>
<path d="M35.64 75.0001C35.6436 65.574 39.029 56.4619 45.181 49.3201C51.333 42.1784 59.8432 37.4808 69.1649 36.0814C78.4866 34.6819 88.001 36.6734 95.9789 41.6939C103.957 46.7143 109.869 54.4305 112.64 63.4401L115.5 62.5601C112.561 52.983 106.323 44.7574 97.8935 39.3441C89.4641 33.9308 79.3889 31.6802 69.4572 32.992C59.5256 34.3037 50.3802 39.0929 43.6453 46.5091C36.9103 53.9252 33.0217 63.4883 32.67 73.5001H16.15C16.5257 59.3415 21.9933 45.793 31.55 35.3396C41.1067 24.8861 54.1119 18.2285 68.18 16.5879C82.2482 14.9472 96.4364 18.4335 108.142 26.4074C119.848 34.3812 128.286 46.3079 131.91 60.0001L124.28 55.5601L122.77 58.1501L134.71 65.1001L141.66 53.1601L139.07 51.6501L134.76 59.0001C130.874 44.5041 121.851 31.9147 109.373 23.5769C96.8943 15.239 81.8104 11.7212 66.9307 13.6785C52.0511 15.6359 38.3901 22.935 28.4924 34.2164C18.5946 45.4978 13.1348 59.9923 13.13 75.0001V76.5001H35.64V75.0001Z" fill="#FF5F46"/>
<path d="M76.49 46.79H75C68.0869 46.7846 61.4121 49.316 56.2411 53.9044C51.0702 58.4927 47.7626 64.819 46.9456 71.6837C46.1286 78.5483 47.8588 85.4742 51.8084 91.1481C55.7579 96.8219 61.6521 100.849 68.3734 102.467C75.0947 104.084 82.1758 103.179 88.2741 99.9226C94.3724 96.6665 99.0639 91.2859 101.459 84.801C103.854 78.316 103.787 71.1776 101.269 64.7392C98.7515 58.3008 93.9589 53.01 87.8 49.87L86.44 52.54C88.3489 53.5148 90.1265 54.7278 91.73 56.15L86.35 61.53L88.47 63.65L93.85 58.26C97.6133 62.4813 99.8342 67.8537 100.15 73.5H92.55V76.5H100.16C99.8195 82.1385 97.5936 87.4988 93.84 91.72L88.47 86.35L86.35 88.47L91.72 93.84C87.4996 97.595 82.1388 99.821 76.5 100.16V92.55H73.5V100.16C67.8602 99.8256 62.4979 97.599 58.28 93.84L63.65 88.47L61.53 86.35L56.16 91.72C52.4024 87.5013 50.176 82.1396 49.84 76.5H57.45V73.5H49.84C50.1744 67.8602 52.4011 62.4979 56.16 58.28L61.53 63.65L63.65 61.53L58.28 56.16C62.4953 52.3971 67.8591 50.1698 73.5 49.84V75.6201L81.79 83.91L83.91 81.78L76.5 74.38V46.79H76.49Z" fill="#FF5F46"/>
</svg>
