<svg width="150" height="150" viewBox="0 0 150 150" fill="none" xmlns="http://www.w3.org/2000/svg">
<path d="M15.24 91C19.126 105.496 28.1485 118.085 40.6271 126.423C53.1057 134.761 68.1896 138.279 83.0693 136.322C97.9489 134.364 111.61 127.065 121.508 115.784C131.405 104.502 136.865 90.0078 136.87 75V73.5H114.36V75C114.356 84.4261 110.971 93.5382 104.819 100.68C98.667 107.822 90.1568 112.519 80.8351 113.919C71.5134 115.318 61.999 113.327 54.0211 108.306C46.0432 103.286 40.1313 95.5695 37.36 86.56L34.5 87.44C37.439 97.0171 43.6771 105.243 52.1065 110.656C60.5359 116.069 70.6111 118.32 80.5428 117.008C90.4744 115.696 99.6198 110.907 106.355 103.491C113.09 96.0748 116.978 86.5117 117.33 76.5H133.85C133.485 90.6624 128.025 104.218 118.473 114.68C108.92 125.142 95.9147 131.808 81.8437 133.455C67.7727 135.102 53.5797 131.619 41.869 123.647C30.1584 115.674 21.7156 103.745 18.09 90.05L25.72 94.49L27.23 91.9L15.29 85L8.34 96.89L10.93 98.4L15.24 91Z" fill="#1B3139"/>
<path d="M35.64 75C35.6436 65.5738 39.029 56.4618 45.181 49.32C51.333 42.1782 59.8432 37.4807 69.1649 36.0813C78.4866 34.6818 88.001 36.6733 95.9789 41.6937C103.957 46.7142 109.869 54.4304 112.64 63.44L115.5 62.56C112.561 52.9829 106.323 44.7573 97.8935 39.344C89.4641 33.9307 79.3889 31.6801 69.4572 32.9919C59.5256 34.3036 50.3802 39.0928 43.6453 46.509C36.9103 53.9251 33.0217 63.4882 32.67 73.5H16.15C16.5257 59.3414 21.9933 45.7929 31.55 35.3394C41.1067 24.886 54.1119 18.2284 68.18 16.5877C82.2482 14.9471 96.4364 18.4334 108.142 26.4072C119.848 34.3811 128.286 46.3078 131.91 60L124.28 55.56L122.77 58.15L134.71 65.1L141.66 53.16L139.07 51.65L134.76 59C130.874 44.504 121.851 31.9146 109.373 23.5767C96.8943 15.2389 81.8104 11.721 66.9307 13.6784C52.0511 15.6358 38.3901 22.9349 28.4924 34.2163C18.5946 45.4977 13.1348 59.9921 13.13 75V76.5H35.64V75Z" fill="#1B3139"/>
<path d="M76.49 46.79H75C68.0869 46.7845 61.412 49.316 56.2411 53.9043C51.0701 58.4926 47.7626 64.8189 46.9456 71.6836C46.1285 78.5483 47.8588 85.4742 51.8084 91.148C55.7579 96.8219 61.6521 100.849 68.3734 102.467C75.0947 104.084 82.1758 103.179 88.2741 99.9226C94.3724 96.6665 99.0639 91.2859 101.459 84.8009C103.854 78.316 103.787 71.1776 101.269 64.7392C98.7515 58.3008 93.9589 53.01 87.8 49.87L86.44 52.54C88.3489 53.5147 90.1264 54.7278 91.73 56.15L86.35 61.53L88.47 63.65L93.85 58.26C97.6132 62.4812 99.8341 67.8537 100.15 73.5H92.55V76.5H100.16C99.8194 82.1384 97.5936 87.4988 93.84 91.72L88.47 86.35L86.35 88.47L91.72 93.84C87.4996 97.5949 82.1388 99.8209 76.5 100.16V92.55H73.5V100.16C67.8601 99.8256 62.4979 97.5989 58.28 93.84L63.65 88.47L61.53 86.35L56.16 91.72C52.4024 87.5013 50.176 82.1395 49.84 76.5H57.45V73.5H49.84C50.1744 67.8601 52.4011 62.4978 56.16 58.28L61.53 63.65L63.65 61.53L58.28 56.16C62.4953 52.397 67.8591 50.1698 73.5 49.84V75.62L81.79 83.91L83.91 81.78L76.5 74.38V46.79H76.49Z" fill="#1B3139"/>
</svg>
