<svg width="150" height="150" viewBox="0 0 150 150" fill="none" xmlns="http://www.w3.org/2000/svg">
<path d="M49.3 44L43.6 36.9001L38.8 40.7001L37 38.4001L44.1 32.7001L50 40.1C55.2 37.1 60.9 35.1001 66.8 34.2001V27.7H58.5V15.3H91.3V27.7H74.3V24.7H88.3V18.3H61.6V24.7H69.9V36.8L68.6 37C62.2 37.9 56.1 40.0001 50.5 43.4001L49.3 44Z" fill="white"/>
<path d="M75 134.7C47.1 134.7 24.4 112 24.4 84.1C24.4 71.5 29 59.6 37.4 50.3L31.5 42.9L33.8 41L41.4 50.5L40.5 51.4C32.1 60.3 27.5 71.9 27.5 84.1C27.5 110.3 48.8 131.7 75.1 131.7C101.3 131.7 122.7 110.4 122.7 84.1C122.7 71.9 118.1 60.2 109.7 51.4L108.8 50.4L114.5 43.3L106.5 36.9L100.8 44L99.7 43.3C93.9 40 87.8 37.8 81.4 37L80.1 36.8V30.5H83.1V34.2C89 35.1 94.7 37.1 99.9 40.1L105.8 32.7L118.5 42.9L112.5 50.3C120.9 59.6 125.5 71.6 125.5 84.1C125.6 112 102.9 134.7 75 134.7Z" fill="white"/>
<path d="M75 119.4C55.5 119.4 39.7 103.6 39.7 84.1C39.7 64.6 55.5 48.8 75 48.8C94.5 48.8 110.3 64.6 110.3 84.1C110.3 87.6 109.8 91.0001 108.8 94.3001L105.9 93.4001C106.8 90.4001 107.3 87.2 107.3 84C107.3 66.2001 92.8 51.7001 75 51.7001C57.2 51.7001 42.7 66.3 42.7 84.1C42.7 101.9 57.2 116.4 75 116.4C86 116.4 96.3 110.7 102.2 101.5L80.4 89L81.9 86.4001L106.4 100.5L105.6 101.8C99.3 112.7 87.6 119.4 75 119.4Z" fill="white"/>
<path d="M75 92.2001C72.1 92.2001 69.4 90.6001 68 88.1001L70.6 86.6001C71.5 88.2001 73.2 89.2001 75 89.2001C77.8 89.2001 80.1 86.9001 80.1 84.1001C80.1 81.3001 77.8 79.0001 75 79.0001C73.2 79.0001 71.5 80.0001 70.6 81.6001L69.9 82.9001L63.4 79.2001L64.9 76.6001L68.9 78.9001C70.4 77.1001 72.7 76.1001 75.1 76.1001C79.6 76.1001 83.2 79.7001 83.2 84.2001C83.2 88.7001 79.5 92.2001 75 92.2001Z" fill="white"/>
</svg>
