<svg width="989" height="300" viewBox="0 0 989 300" fill="none" xmlns="http://www.w3.org/2000/svg">
<path d="M262.5 37.5H103.125L103.199 103.125L196.875 103.219L196.949 196.969L262.649 196.875L262.5 37.5Z" fill="#FF5F46"/>
<path d="M103.125 103.125H37.5L37.5 262.54H196.801L196.875 196.875H103.199L103.125 103.125Z" fill="#FABFBA"/>
<path d="M340.501 138V60.72H360.373C369.352 60.72 376.749 62.3024 382.563 65.4672C388.451 68.5584 392.794 73.0112 395.59 78.8256C398.461 84.5664 399.896 91.4848 399.896 99.5808C399.896 107.53 398.461 114.374 395.59 120.115C392.794 125.856 388.451 130.272 382.563 133.363C376.749 136.454 369.352 138 360.373 138H340.501ZM349.774 130.272H360.152C367.586 130.272 373.51 129.058 377.926 126.629C382.342 124.126 385.507 120.594 387.421 116.03C389.334 111.394 390.291 105.91 390.291 99.5808C390.291 93.104 389.334 87.5472 387.421 82.9104C385.507 78.2736 382.342 74.704 377.926 72.2016C373.51 69.6992 367.586 68.448 360.152 68.448H349.774V130.272ZM427.945 139.325C423.529 139.325 419.849 138.515 416.905 136.896C413.961 135.203 411.753 132.995 410.281 130.272C408.809 127.475 408.073 124.494 408.073 121.33C408.073 117.502 409.029 114.264 410.943 111.614C412.93 108.891 415.69 106.83 419.223 105.432C422.756 104.034 426.877 103.334 431.588 103.334H446.05C446.05 99.5808 445.609 96.4528 444.725 93.9504C443.842 91.448 442.407 89.5712 440.42 88.32C438.433 87.0688 435.783 86.4432 432.471 86.4432C429.159 86.4432 426.325 87.2896 423.97 88.9824C421.615 90.6016 420.143 93.0304 419.554 96.2688H410.06C410.501 92.4416 411.789 89.24 413.924 86.664C416.058 84.0144 418.745 82.0272 421.983 80.7024C425.295 79.304 428.791 78.6048 432.471 78.6048C437.697 78.6048 442.002 79.5616 445.388 81.4752C448.773 83.3152 451.276 85.928 452.895 89.3136C454.514 92.6256 455.324 96.5632 455.324 101.126V138H447.044L446.492 128.064C445.756 129.61 444.799 131.082 443.621 132.48C442.517 133.805 441.193 134.982 439.647 136.013C438.101 137.043 436.335 137.853 434.348 138.442C432.434 139.03 430.3 139.325 427.945 139.325ZM429.269 131.486C431.698 131.486 433.943 130.934 436.004 129.83C438.065 128.726 439.831 127.254 441.303 125.414C442.849 123.501 444.026 121.366 444.836 119.011C445.645 116.656 446.05 114.19 446.05 111.614V110.51H432.361C428.901 110.51 426.068 110.952 423.86 111.835C421.725 112.718 420.18 113.97 419.223 115.589C418.266 117.134 417.788 118.901 417.788 120.888C417.788 123.022 418.229 124.899 419.113 126.518C419.996 128.064 421.284 129.278 422.977 130.162C424.743 131.045 426.841 131.486 429.269 131.486ZM488.345 138C485.033 138 482.163 137.485 479.734 136.454C477.305 135.424 475.429 133.694 474.104 131.266C472.853 128.763 472.227 125.414 472.227 121.219V87.768H462.07V79.9296H472.227L473.441 65.4672H481.501V79.9296H497.95V87.768H481.501V121.219C481.501 124.678 482.2 127.034 483.598 128.285C484.997 129.462 487.462 130.051 490.995 130.051H497.729V138H488.345ZM525.467 139.325C521.051 139.325 517.371 138.515 514.427 136.896C511.483 135.203 509.275 132.995 507.803 130.272C506.331 127.475 505.595 124.494 505.595 121.33C505.595 117.502 506.552 114.264 508.466 111.614C510.453 108.891 513.213 106.83 516.746 105.432C520.279 104.034 524.4 103.334 529.111 103.334H543.573C543.573 99.5808 543.131 96.4528 542.248 93.9504C541.365 91.448 539.93 89.5712 537.943 88.32C535.955 87.0688 533.306 86.4432 529.994 86.4432C526.682 86.4432 523.848 87.2896 521.493 88.9824C519.138 90.6016 517.666 93.0304 517.077 96.2688H507.583C508.024 92.4416 509.312 89.24 511.447 86.664C513.581 84.0144 516.267 82.0272 519.506 80.7024C522.818 79.304 526.314 78.6048 529.994 78.6048C535.219 78.6048 539.525 79.5616 542.911 81.4752C546.296 83.3152 548.799 85.928 550.418 89.3136C552.037 92.6256 552.847 96.5632 552.847 101.126V138H544.567L544.015 128.064C543.279 129.61 542.322 131.082 541.144 132.48C540.04 133.805 538.715 134.982 537.17 136.013C535.624 137.043 533.858 137.853 531.871 138.442C529.957 139.03 527.823 139.325 525.467 139.325ZM526.792 131.486C529.221 131.486 531.466 130.934 533.527 129.83C535.587 128.726 537.354 127.254 538.826 125.414C540.371 123.501 541.549 121.366 542.359 119.011C543.168 116.656 543.573 114.19 543.573 111.614V110.51H529.883C526.424 110.51 523.591 110.952 521.383 111.835C519.248 112.718 517.703 113.97 516.746 115.589C515.789 117.134 515.311 118.901 515.311 120.888C515.311 123.022 515.752 124.899 516.635 126.518C517.519 128.064 518.807 129.278 520.499 130.162C522.266 131.045 524.363 131.486 526.792 131.486ZM593.781 139.325C590.248 139.325 587.194 138.81 584.618 137.779C582.115 136.675 579.981 135.314 578.214 133.694C576.522 132.075 575.123 130.493 574.019 128.947L573.246 138H564.856V58.512H574.13V89.0928C575.896 85.6336 578.509 83.0208 581.968 81.2544C585.427 79.488 589.291 78.6048 593.56 78.6048C598.859 78.6048 603.496 79.8928 607.47 82.4688C611.445 85.0448 614.536 88.6144 616.744 93.1776C618.952 97.6672 620.056 102.856 620.056 108.744C620.056 114.558 618.952 119.784 616.744 124.421C614.536 129.058 611.445 132.701 607.47 135.35C603.57 138 599.006 139.325 593.781 139.325ZM592.566 131.266C596.026 131.266 599.08 130.382 601.73 128.616C604.453 126.776 606.587 124.2 608.133 120.888C609.752 117.502 610.562 113.528 610.562 108.965C610.562 104.402 609.752 100.464 608.133 97.152C606.587 93.7664 604.453 91.1904 601.73 89.424C599.08 87.584 596.026 86.664 592.566 86.664C588.886 86.664 585.685 87.584 582.962 89.424C580.238 91.1904 578.141 93.7664 576.669 97.152C575.197 100.464 574.461 104.402 574.461 108.965C574.461 113.528 575.197 117.502 576.669 120.888C578.141 124.2 580.238 126.776 582.962 128.616C585.685 130.382 588.886 131.266 592.566 131.266ZM630.221 138V79.9296H638.611L639.273 90.528C640.598 87.8784 642.328 85.6704 644.462 83.904C646.597 82.1376 649.173 80.8128 652.19 79.9296C655.281 79.0464 658.741 78.6048 662.568 78.6048V88.32H656.827C654.619 88.32 652.485 88.6144 650.424 89.2032C648.363 89.792 646.486 90.7488 644.793 92.0736C643.174 93.3984 641.886 95.2016 640.929 97.4832C639.973 99.7648 639.494 102.635 639.494 106.094V138H630.221ZM670.809 138V79.9296H680.083V138H670.809ZM675.446 68.8896C673.606 68.8896 672.06 68.3008 670.809 67.1232C669.631 65.872 669.043 64.3264 669.043 62.4864C669.043 60.6464 669.631 59.1744 670.809 58.0704C672.06 56.8928 673.606 56.304 675.446 56.304C677.212 56.304 678.721 56.8928 679.972 58.0704C681.223 59.1744 681.849 60.6464 681.849 62.4864C681.849 64.3264 681.223 65.872 679.972 67.1232C678.721 68.3008 677.212 68.8896 675.446 68.8896ZM718.304 139.325C713.005 139.325 708.295 138.074 704.173 135.571C700.051 132.995 696.813 129.426 694.458 124.862C692.103 120.299 690.925 115 690.925 108.965C690.925 102.856 692.103 97.5568 694.458 93.0672C696.813 88.504 700.051 84.9712 704.173 82.4688C708.295 79.8928 713.005 78.6048 718.304 78.6048C724.928 78.6048 730.448 80.3712 734.864 83.904C739.354 87.4368 742.224 92.184 743.475 98.1456H733.981C733.171 94.4656 731.295 91.632 728.351 89.6448C725.48 87.584 722.095 86.5536 718.194 86.5536C714.808 86.5536 711.754 87.4 709.031 89.0928C706.381 90.7856 704.283 93.288 702.738 96.6C701.192 99.912 700.419 104.034 700.419 108.965C700.419 112.645 700.861 115.92 701.744 118.79C702.627 121.587 703.842 123.942 705.387 125.856C707.007 127.696 708.883 129.094 711.018 130.051C713.226 131.008 715.618 131.486 718.194 131.486C720.843 131.486 723.235 131.045 725.37 130.162C727.578 129.205 729.418 127.843 730.89 126.077C732.435 124.31 733.466 122.213 733.981 119.784H743.475C742.298 125.598 739.427 130.309 734.864 133.915C730.375 137.522 724.855 139.325 718.304 139.325ZM787.762 138L761.377 106.646L786.217 79.9296H797.588L769.215 109.958L769.325 103.334L799.575 138H787.762ZM753.649 138V58.512H762.922V138H753.649ZM823.817 139.325C818.592 139.325 814.249 138.552 810.79 137.006C807.405 135.387 804.829 133.179 803.062 130.382C801.296 127.512 800.229 124.2 799.861 120.446H809.355C809.649 122.434 810.312 124.274 811.342 125.966C812.446 127.586 814.029 128.91 816.089 129.941C818.15 130.971 820.763 131.486 823.928 131.486C826.43 131.486 828.565 131.118 830.331 130.382C832.097 129.573 833.422 128.469 834.305 127.07C835.262 125.672 835.741 124.053 835.741 122.213C835.741 119.784 835.189 117.907 834.085 116.582C833.054 115.184 831.509 114.154 829.448 113.491C827.461 112.755 824.958 112.203 821.941 111.835C818.702 111.394 815.832 110.768 813.329 109.958C810.827 109.149 808.693 108.082 806.926 106.757C805.233 105.432 803.945 103.776 803.062 101.789C802.179 99.8016 801.737 97.4464 801.737 94.7232C801.737 91.5584 802.584 88.7616 804.277 86.3328C805.969 83.904 808.361 82.0272 811.453 80.7024C814.617 79.304 818.334 78.6048 822.603 78.6048C828.859 78.6048 833.79 80.04 837.397 82.9104C841.077 85.7808 843.248 89.8656 843.91 95.1648H834.747C834.379 92.4416 833.128 90.3072 830.993 88.7616C828.859 87.216 826.025 86.4432 822.493 86.4432C818.739 86.4432 815.905 87.1424 813.992 88.5408C812.078 89.9392 811.121 91.7792 811.121 94.0608C811.121 95.7536 811.526 97.2992 812.336 98.6976C813.219 100.022 814.691 101.163 816.752 102.12C818.813 103.003 821.573 103.666 825.032 104.107C829.374 104.622 833.054 105.469 836.072 106.646C839.089 107.75 841.371 109.48 842.917 111.835C844.536 114.19 845.309 117.392 845.235 121.44C845.235 125.267 844.315 128.506 842.475 131.155C840.709 133.805 838.206 135.829 834.968 137.227C831.803 138.626 828.086 139.325 823.817 139.325ZM374.173 238.325C366.518 238.325 359.894 236.669 354.301 233.357C348.781 229.971 344.512 225.298 341.494 219.336C338.55 213.301 337.078 206.346 337.078 198.47C337.078 190.522 338.55 183.566 341.494 177.605C344.512 171.57 348.781 166.859 354.301 163.474C359.894 160.088 366.518 158.395 374.173 158.395C383.373 158.395 390.88 160.677 396.694 165.24C402.509 169.73 406.189 176.096 407.734 184.339H393.162C392.131 179.997 390.034 176.574 386.869 174.072C383.704 171.57 379.435 170.318 374.062 170.318C369.205 170.318 365.01 171.459 361.477 173.741C358.018 175.949 355.331 179.187 353.418 183.456C351.578 187.651 350.658 192.656 350.658 198.47C350.658 204.285 351.578 209.29 353.418 213.485C355.331 217.606 358.018 220.808 361.477 223.09C365.01 225.298 369.205 226.402 374.062 226.402C379.435 226.402 383.704 225.261 386.869 222.979C390.034 220.624 392.131 217.386 393.162 213.264H407.734C406.262 221.066 402.582 227.211 396.694 231.701C390.88 236.117 383.373 238.325 374.173 238.325ZM416.944 237V157.512H430.192V237H416.944ZM467.718 238.325C462.198 238.325 457.34 237.147 453.145 234.792C448.95 232.363 445.675 228.978 443.319 224.635C440.964 220.293 439.787 215.288 439.787 209.621C439.787 203.733 440.927 198.581 443.209 194.165C445.564 189.749 448.839 186.29 453.035 183.787C457.303 181.285 462.235 180.034 467.828 180.034C473.275 180.034 478.022 181.248 482.07 183.677C486.118 186.106 489.246 189.381 491.454 193.502C493.662 197.55 494.766 202.114 494.766 207.192C494.766 207.928 494.766 208.738 494.766 209.621C494.766 210.504 494.692 211.424 494.545 212.381H449.281V203.88H481.407C481.26 199.832 479.899 196.667 477.323 194.386C474.747 192.03 471.545 190.853 467.718 190.853C464.995 190.853 462.492 191.478 460.211 192.73C457.929 193.981 456.126 195.858 454.801 198.36C453.476 200.789 452.814 203.88 452.814 207.634V210.835C452.814 214.294 453.439 217.275 454.691 219.778C456.015 222.28 457.782 224.194 459.99 225.518C462.271 226.77 464.811 227.395 467.607 227.395C470.699 227.395 473.238 226.733 475.225 225.408C477.286 224.083 478.795 222.317 479.751 220.109H493.22C492.19 223.568 490.497 226.696 488.142 229.493C485.787 232.216 482.879 234.387 479.42 236.006C475.961 237.552 472.06 238.325 467.718 238.325ZM522.233 238.325C517.67 238.325 513.879 237.552 510.862 236.006C507.844 234.461 505.599 232.4 504.127 229.824C502.655 227.248 501.919 224.451 501.919 221.434C501.919 217.901 502.803 214.846 504.569 212.27C506.409 209.694 509.095 207.707 512.628 206.309C516.161 204.837 520.503 204.101 525.655 204.101H539.676C539.676 201.157 539.271 198.728 538.462 196.814C537.652 194.827 536.401 193.355 534.708 192.398C533.015 191.442 530.844 190.963 528.195 190.963C525.177 190.963 522.601 191.662 520.467 193.061C518.332 194.386 517.007 196.446 516.492 199.243H503.465C503.907 195.269 505.231 191.883 507.439 189.086C509.647 186.216 512.555 184.008 516.161 182.462C519.841 180.843 523.852 180.034 528.195 180.034C533.42 180.034 537.873 180.954 541.553 182.794C545.233 184.56 548.03 187.136 549.943 190.522C551.931 193.834 552.924 197.845 552.924 202.555V237H541.663L540.339 228.058C539.603 229.53 538.646 230.891 537.468 232.142C536.364 233.394 535.076 234.498 533.604 235.454C532.132 236.338 530.439 237.037 528.526 237.552C526.686 238.067 524.588 238.325 522.233 238.325ZM525.214 227.837C527.348 227.837 529.225 227.469 530.844 226.733C532.537 225.923 533.972 224.819 535.15 223.421C536.401 221.949 537.358 220.33 538.02 218.563C538.683 216.797 539.124 214.92 539.345 212.933V212.712H527.091C524.515 212.712 522.38 213.043 520.687 213.706C518.995 214.294 517.78 215.178 517.044 216.355C516.308 217.533 515.94 218.894 515.94 220.44C515.94 221.986 516.308 223.31 517.044 224.414C517.78 225.518 518.847 226.365 520.246 226.954C521.644 227.542 523.3 227.837 525.214 227.837ZM563.768 237V181.358H575.47L576.464 190.632C578.156 187.394 580.585 184.818 583.75 182.904C586.915 180.99 590.668 180.034 595.011 180.034C599.5 180.034 603.328 180.99 606.492 182.904C609.657 184.744 612.086 187.467 613.779 191.074C615.545 194.68 616.428 199.17 616.428 204.542V237H603.18V205.757C603.18 201.12 602.15 197.55 600.089 195.048C598.028 192.546 594.974 191.294 590.926 191.294C588.276 191.294 585.884 191.92 583.75 193.171C581.689 194.422 580.033 196.262 578.782 198.691C577.604 201.046 577.016 203.917 577.016 207.302V237H563.768ZM651.166 237V159.72H678.877C684.986 159.72 690.027 160.787 694.002 162.922C698.05 164.982 701.03 167.779 702.944 171.312C704.931 174.771 705.925 178.709 705.925 183.125C705.925 187.246 704.968 191.074 703.054 194.606C701.141 198.139 698.16 200.973 694.112 203.107C690.064 205.242 684.875 206.309 678.546 206.309H664.414V237H651.166ZM691.462 237L675.234 202.886H689.586L706.587 237H691.462ZM664.414 196.483H677.994C682.925 196.483 686.531 195.306 688.813 192.95C691.168 190.522 692.346 187.357 692.346 183.456C692.346 179.629 691.205 176.574 688.923 174.293C686.642 171.938 682.998 170.76 677.994 170.76H664.414V196.483ZM738.476 238.325C733.176 238.325 728.392 237.11 724.124 234.682C719.928 232.179 716.616 228.757 714.188 224.414C711.832 219.998 710.655 214.957 710.655 209.29C710.655 203.475 711.869 198.397 714.298 194.054C716.727 189.638 720.039 186.216 724.234 183.787C728.503 181.285 733.287 180.034 738.586 180.034C743.885 180.034 748.632 181.285 752.828 183.787C757.096 186.216 760.408 189.602 762.764 193.944C765.192 198.286 766.407 203.365 766.407 209.179C766.407 214.994 765.192 220.072 762.764 224.414C760.335 228.757 756.986 232.179 752.717 234.682C748.522 237.11 743.775 238.325 738.476 238.325ZM738.476 226.954C741.125 226.954 743.517 226.291 745.652 224.966C747.86 223.642 749.626 221.654 750.951 219.005C752.276 216.355 752.938 213.08 752.938 209.179C752.938 205.278 752.276 202.04 750.951 199.464C749.7 196.814 747.97 194.827 745.762 193.502C743.628 192.178 741.236 191.515 738.586 191.515C736.01 191.515 733.618 192.178 731.41 193.502C729.202 194.827 727.436 196.814 726.111 199.464C724.786 202.04 724.124 205.278 724.124 209.179C724.124 213.08 724.786 216.355 726.111 219.005C727.436 221.654 729.165 223.642 731.3 224.966C733.508 226.291 735.9 226.954 738.476 226.954ZM802.007 238.325C796.708 238.325 791.924 237.11 787.655 234.682C783.46 232.179 780.148 228.757 777.719 224.414C775.364 219.998 774.187 214.957 774.187 209.29C774.187 203.475 775.401 198.397 777.83 194.054C780.259 189.638 783.571 186.216 787.766 183.787C792.035 181.285 796.819 180.034 802.118 180.034C807.417 180.034 812.164 181.285 816.359 183.787C820.628 186.216 823.94 189.602 826.295 193.944C828.724 198.286 829.939 203.365 829.939 209.179C829.939 214.994 828.724 220.072 826.295 224.414C823.867 228.757 820.518 232.179 816.249 234.682C812.054 237.11 807.307 238.325 802.007 238.325ZM802.007 226.954C804.657 226.954 807.049 226.291 809.183 224.966C811.391 223.642 813.158 221.654 814.483 219.005C815.807 216.355 816.47 213.08 816.47 209.179C816.47 205.278 815.807 202.04 814.483 199.464C813.231 196.814 811.502 194.827 809.294 193.502C807.159 192.178 804.767 191.515 802.118 191.515C799.542 191.515 797.15 192.178 794.942 193.502C792.734 194.827 790.967 196.814 789.643 199.464C788.318 202.04 787.655 205.278 787.655 209.179C787.655 213.08 788.318 216.355 789.643 219.005C790.967 221.654 792.697 223.642 794.831 224.966C797.039 226.291 799.431 226.954 802.007 226.954ZM839.595 237V181.358H851.297L852.401 188.976C854.168 186.179 856.486 184.008 859.357 182.462C862.301 180.843 865.649 180.034 869.403 180.034C872.2 180.034 874.702 180.402 876.91 181.138C879.192 181.874 881.179 182.978 882.872 184.45C884.638 185.922 886.073 187.762 887.177 189.97C889.238 186.878 891.925 184.45 895.237 182.683C898.549 180.917 902.155 180.034 906.056 180.034C910.693 180.034 914.63 180.99 917.869 182.904C921.107 184.744 923.573 187.504 925.265 191.184C926.958 194.79 927.805 199.243 927.805 204.542V237H914.667V205.867C914.667 201.157 913.71 197.55 911.797 195.048C909.883 192.546 907.049 191.294 903.296 191.294C900.72 191.294 898.438 191.92 896.451 193.171C894.537 194.422 893.029 196.262 891.925 198.691C890.821 201.046 890.269 203.954 890.269 207.413V237H877.131V205.867C877.131 201.157 876.174 197.55 874.261 195.048C872.347 192.546 869.477 191.294 865.649 191.294C863.221 191.294 861.013 191.92 859.025 193.171C857.112 194.422 855.603 196.262 854.499 198.691C853.395 201.046 852.843 203.954 852.843 207.413V237H839.595ZM960.68 238.325C955.749 238.325 951.443 237.552 947.763 236.006C944.157 234.387 941.286 232.179 939.152 229.382C937.091 226.512 935.877 223.237 935.509 219.557H948.757C949.125 221.102 949.787 222.538 950.744 223.862C951.701 225.114 952.989 226.107 954.608 226.843C956.301 227.579 958.288 227.947 960.569 227.947C962.777 227.947 964.581 227.653 965.979 227.064C967.377 226.402 968.408 225.555 969.07 224.525C969.733 223.494 970.064 222.39 970.064 221.213C970.064 219.446 969.585 218.085 968.629 217.128C967.672 216.171 966.273 215.435 964.433 214.92C962.667 214.331 960.533 213.779 958.03 213.264C955.381 212.749 952.805 212.123 950.302 211.387C947.873 210.578 945.665 209.584 943.678 208.406C941.765 207.229 940.219 205.72 939.041 203.88C937.937 202.04 937.385 199.795 937.385 197.146C937.385 193.907 938.232 191 939.925 188.424C941.691 185.848 944.193 183.824 947.432 182.352C950.744 180.806 954.681 180.034 959.245 180.034C965.721 180.034 970.873 181.542 974.701 184.56C978.601 187.504 980.883 191.662 981.545 197.035H968.96C968.592 194.974 967.561 193.392 965.869 192.288C964.176 191.11 961.931 190.522 959.134 190.522C956.264 190.522 954.056 191.074 952.51 192.178C951.038 193.208 950.302 194.606 950.302 196.373C950.302 197.477 950.744 198.507 951.627 199.464C952.584 200.347 953.945 201.12 955.712 201.782C957.478 202.371 959.649 202.96 962.225 203.549C966.347 204.358 969.99 205.315 973.155 206.419C976.32 207.523 978.822 209.142 980.662 211.277C982.502 213.411 983.422 216.429 983.422 220.33C983.496 223.862 982.576 226.99 980.662 229.714C978.822 232.437 976.209 234.571 972.824 236.117C969.438 237.589 965.39 238.325 960.68 238.325Z" fill="#1B3139"/>
</svg>
