<svg width="150" height="150" viewBox="0 0 150 150" fill="none" xmlns="http://www.w3.org/2000/svg">
<path d="M77.5 87.0999H74.5V135.6H113.9V132.6H77.5V87.0999Z" fill="white"/>
<path d="M114.4 55.8999V48.5999C114.4 39.4999 107 32.0999 97.9 32.0999H68.7V14.3999H48.3V26.6999H61.2V23.6999H51.3V17.3999H65.7V54.1999H68.7V35.0999H88.4C84.2 38.0999 81.4 42.9999 81.4 48.5999V75.0999H92.9V58.8999H123.8V79.6999H68.2V82.6999H126.8V55.8999H114.4ZM111.4 55.8999H89.9V72.0999H84.4V48.5999C84.4 41.1999 90.4 35.0999 97.9 35.0999C105.3 35.0999 111.4 41.0999 111.4 48.5999V55.8999Z" fill="white"/>
<path d="M26.3 48.5999C26.3 41.1999 32.3 35.0999 39.8 35.0999H61.4V32.0999H39.7C30.6 32.0999 23.2 39.4999 23.2 48.5999V82.5999H60.1V132.6H23.8V135.6H63.2V79.5999H26.3V48.5999Z" fill="white"/>
<path d="M115.9 64.2999H100.8V67.2999H115.9V64.2999Z" fill="white"/>
<path d="M115.9 71.2H100.8V74.2H115.9V71.2Z" fill="white"/>
</svg>
