<svg width="150" height="150" viewBox="0 0 150 150" fill="none" xmlns="http://www.w3.org/2000/svg">
<path d="M77.5 87.1H74.5V135.6H113.9V132.6H77.5V87.1Z" fill="#FF5F46"/>
<path d="M114.4 55.9V48.6C114.4 39.5 107 32.1 97.8999 32.1H68.6999V14.4H48.2999V26.7H61.1999V23.7H51.2999V17.4H65.6999V54.2H68.6999V35.1H88.3999C84.1999 38.1 81.3999 43 81.3999 48.6V75.1H92.8999V58.9H123.8V79.7H68.1999V82.7H126.8V55.9H114.4ZM111.4 55.9H89.8999V72.1H84.3999V48.6C84.3999 41.2 90.3999 35.1 97.8999 35.1C105.3 35.1 111.4 41.1 111.4 48.6V55.9Z" fill="#FF5F46"/>
<path d="M26.2999 48.6C26.2999 41.2 32.2999 35.1 39.7999 35.1H61.4V32.1H39.7C30.6 32.1 23.2 39.5 23.2 48.6V82.6H60.0999V132.6H23.7999V135.6H63.2V79.6H26.2999V48.6Z" fill="#FF5F46"/>
<path d="M115.9 64.3H100.8V67.3H115.9V64.3Z" fill="#FF5F46"/>
<path d="M115.9 71.2001H100.8V74.2001H115.9V71.2001Z" fill="#FF5F46"/>
</svg>
