<svg width="150" height="150" viewBox="0 0 150 150" fill="none" xmlns="http://www.w3.org/2000/svg">
<path d="M73.65 79.0799L76.36 80.3599C76.79 79.4599 77.21 78.5399 77.63 77.6199L74.9 76.3799C74.49 77.2899 74.07 78.1899 73.65 79.0799Z" fill="#FF5F46"/>
<path d="M108.88 55.5601L107 57.9101C108.457 59.1053 109.757 60.4795 110.87 62.0001L113.27 60.1901C112.007 58.4681 110.532 56.9125 108.88 55.5601Z" fill="#FF5F46"/>
<path d="M76.55 72.6999L79.29 73.9399C80.02 72.3199 80.9 70.4099 81.86 68.5599L79.2 67.1799C78.21 69.0899 77.31 70.9999 76.55 72.6999Z" fill="#FF5F46"/>
<path d="M87.25 60.58L85.06 58.52C83.6267 60.0557 82.3503 61.7306 81.25 63.52L83.79 65.11C84.7857 63.4859 85.9451 61.968 87.25 60.58Z" fill="#FF5F46"/>
<path d="M116.64 70.3101L119 68.5001C118 67.1601 117 65.7301 116.1 64.3401L115.6 63.5901L113.11 65.2701L113.61 66.0101C114.59 67.4401 115.58 68.9101 116.64 70.3101Z" fill="#FF5F46"/>
<path d="M121.52 71.4199L119.37 73.5199C120.875 75.0993 122.632 76.4173 124.57 77.4199L125.93 74.7399C124.284 73.8889 122.793 72.7665 121.52 71.4199Z" fill="#FF5F46"/>
<path d="M105.06 53.3101C102.983 52.4977 100.757 52.1397 98.53 52.2601L98.65 55.2601C100.453 55.1485 102.258 55.4318 103.94 56.0901L105.06 53.3101Z" fill="#FF5F46"/>
<path d="M94.2401 52.8999C92.1135 53.4608 90.105 54.399 88.3101 55.6699L90.0001 58.1199C91.5103 57.0463 93.2052 56.2599 95.0001 55.7999L94.2401 52.8999Z" fill="#FF5F46"/>
<path d="M130.57 119.35H106.16V62.53H103.16V119.35H76.5101V91.69H73.5101V119.35H46.8401V97.14H43.8401V119.35H19.4301V84.6C21.0601 83.04 27.7201 77.49 35.9401 81.47C37.9401 82.47 39.8301 84.53 41.8401 86.75C46.6101 92.03 52.5601 98.6 63.8401 94.65C69.8401 92.54 73.4201 86.54 76.3501 80.36L73.6401 79.08C70.9901 84.66 67.84 90.08 62.8501 91.82C53.4401 95.1 48.6701 89.82 44.0501 84.74C41.8401 82.3 39.7501 79.99 37.2401 78.74C25.8001 73.22 16.9001 82.88 16.8101 83L16.4301 83.43V122.37H133.57V85.37H130.57V119.35Z" fill="#FF5F46"/>
<path d="M16.4301 74.9999H19.4301V30.6499H43.8401V78.1799H46.8401V30.6499H73.5101V63.6499H76.5101V30.6499H103.16V46.9999H106.16V30.6499H130.57V76.1699C130.18 76.1699 129.79 76.0499 129.41 75.9699L128.79 78.9099C129.805 79.1219 130.835 79.2556 131.87 79.3099H133.57V27.6499H16.4301V74.9999Z" fill="#FF5F46"/>
</svg>
