<svg width="150" height="150" viewBox="0 0 150 150" fill="none" xmlns="http://www.w3.org/2000/svg">
<path d="M73.65 79.08L76.36 80.36C76.79 79.46 77.21 78.54 77.63 77.62L74.9 76.38C74.49 77.29 74.07 78.19 73.65 79.08Z" fill="#1B3139"/>
<path d="M108.88 55.56L107 57.91C108.457 59.1053 109.757 60.4795 110.87 62L113.27 60.19C112.007 58.4681 110.532 56.9124 108.88 55.56V55.56Z" fill="#1B3139"/>
<path d="M76.55 72.7L79.29 73.94C80.02 72.32 80.9 70.41 81.86 68.56L79.2 67.18C78.21 69.09 77.31 71 76.55 72.7Z" fill="#1B3139"/>
<path d="M87.25 60.58L85.06 58.52C83.6267 60.0556 82.3503 61.7306 81.25 63.52L83.79 65.11C84.7857 63.4859 85.9451 61.968 87.25 60.58V60.58Z" fill="#1B3139"/>
<path d="M116.64 70.31L119 68.5C118 67.16 117 65.73 116.1 64.34L115.6 63.59L113.11 65.27L113.61 66.01C114.59 67.44 115.58 68.91 116.64 70.31Z" fill="#1B3139"/>
<path d="M121.52 71.42L119.37 73.52C120.875 75.0994 122.632 76.4174 124.57 77.42L125.93 74.74C124.284 73.889 122.793 72.7666 121.52 71.42Z" fill="#1B3139"/>
<path d="M105.06 53.31C102.983 52.4976 100.757 52.1396 98.53 52.26L98.65 55.26C100.453 55.1484 102.258 55.4317 103.94 56.09L105.06 53.31Z" fill="#1B3139"/>
<path d="M94.24 52.9C92.1135 53.4609 90.1049 54.3991 88.31 55.67L90 58.12C91.5102 57.0464 93.2051 56.26 95 55.8L94.24 52.9Z" fill="#1B3139"/>
<path d="M130.57 119.35H106.16V62.53H103.16V119.35H76.51V91.69H73.51V119.35H46.84V97.14H43.84V119.35H19.43V84.6C21.06 83.04 27.72 77.49 35.94 81.47C37.94 82.47 39.83 84.53 41.84 86.75C46.61 92.03 52.56 98.6 63.84 94.65C69.84 92.54 73.42 86.54 76.35 80.36L73.64 79.08C70.99 84.66 67.84 90.08 62.85 91.82C53.44 95.1 48.67 89.82 44.05 84.74C41.84 82.3 39.75 79.99 37.24 78.74C25.8 73.22 16.9 82.88 16.81 83L16.43 83.43V122.37H133.57V85.37H130.57V119.35Z" fill="#1B3139"/>
<path d="M16.43 75H19.43V30.65H43.84V78.18H46.84V30.65H73.51V63.65H76.51V30.65H103.16V47H106.16V30.65H130.57V76.17C130.18 76.17 129.79 76.05 129.41 75.97L128.79 78.91C129.805 79.122 130.835 79.2557 131.87 79.31H133.57V27.65H16.43V75Z" fill="#1B3139"/>
</svg>
