<svg width="150" height="150" viewBox="0 0 150 150" fill="none" xmlns="http://www.w3.org/2000/svg">
<path d="M126.458 125V103.741L125.692 102.866C124.187 101.17 122.337 99.8122 120.265 98.8823C118.194 97.9524 115.947 97.4715 113.675 97.4715C111.403 97.4715 109.156 97.9524 107.085 98.8823C105.013 99.8122 103.163 101.17 101.658 102.866C100.747 103.87 99.6335 104.674 98.3911 105.223C97.1486 105.773 95.8042 106.057 94.4447 106.057C93.0852 106.057 91.7408 105.773 90.4983 105.223C89.2559 104.674 88.1431 103.87 87.2316 102.866C85.7289 101.171 83.8816 99.8132 81.8122 98.8835C79.7429 97.9538 77.4988 97.4731 75.2287 97.4731C72.9585 97.4731 70.7143 97.9538 68.6449 98.8835C66.5755 99.8132 64.7282 101.171 63.2255 102.866C62.3228 103.885 61.2097 104.698 59.9623 105.248C58.7148 105.799 57.3626 106.074 55.9982 106.056C54.6378 106.076 53.2894 105.801 52.0463 105.25C50.8032 104.699 49.6953 103.886 48.7993 102.866C47.3022 101.16 45.4539 99.796 43.3803 98.8655C41.3067 97.935 39.0564 97.4602 36.7822 97.4732C34.5592 97.4655 32.3587 97.9174 30.32 98.8001V87.5071C32.0989 85.9302 34.401 85.0653 36.7822 85.0791C38.1412 85.0684 39.4867 85.3475 40.7284 85.8978C41.9701 86.4481 43.0792 87.2567 43.9811 88.2693C45.4864 89.965 47.3362 91.3227 49.4079 92.2526C51.4796 93.1826 53.7259 93.6635 55.9982 93.6635C58.2706 93.6635 60.517 93.1826 62.5887 92.2526C64.6605 91.3227 66.5101 89.965 68.0154 88.2693C68.9268 87.2645 70.0398 86.4613 71.2823 85.9116C72.5247 85.3618 73.8691 85.0777 75.2287 85.0777C76.5882 85.0777 77.9326 85.3618 79.175 85.9116C80.4175 86.4613 81.5303 87.2645 82.4417 88.2693C83.9444 89.9643 85.7917 91.3217 87.8611 92.2514C89.9305 93.1811 92.1746 93.6619 94.4447 93.6619C96.7148 93.6619 98.9591 93.1811 101.028 92.2514C103.098 91.3217 104.945 89.9643 106.448 88.2693C107.359 87.2645 108.472 86.4613 109.715 85.9116C110.957 85.3618 112.301 85.0777 113.661 85.0777C115.02 85.0777 116.365 85.3618 117.607 85.9116C118.85 86.4613 119.963 87.2645 120.874 88.2693L126.543 86.2084V66.4456L125.777 65.5421C124.267 63.8545 122.416 62.504 120.345 61.5793C118.274 60.6546 116.03 60.1765 113.76 60.1765C111.49 60.1765 109.247 60.6546 107.176 61.5793C105.105 62.504 103.253 63.8545 101.743 65.5421C100.831 66.5469 99.7187 67.3502 98.4762 67.8999C97.2338 68.4497 95.8893 68.7337 94.5298 68.7337C93.1703 68.7337 91.8259 68.4497 90.5834 67.8999C89.341 67.3502 88.228 66.5469 87.3166 65.5421C85.8089 63.8551 83.9602 62.5051 81.8915 61.5806C79.8228 60.6561 77.5809 60.1782 75.3136 60.1782C73.0462 60.1782 70.8046 60.6561 68.7359 61.5806C66.6672 62.5051 64.8182 63.8551 63.3106 65.5421C62.4079 66.5613 61.2947 67.3741 60.0472 67.9247C58.7998 68.4754 57.4477 68.7509 56.0834 68.7324C54.7229 68.7524 53.3744 68.4774 52.1313 67.9266C50.8882 67.3757 49.7802 66.5621 48.8843 65.5421C47.3857 63.8405 45.5366 62.4805 43.4628 61.5548C41.3891 60.6292 39.1395 60.1595 36.8671 60.1779C34.6475 60.1748 32.45 60.6165 30.4051 61.4766V51.8493L75.2994 31.8041L122.064 52.668L124.672 47.0215L75.2994 25L24.0847 47.8403V67.6031L29.7532 69.664C30.6558 68.6448 31.7691 67.8321 33.0166 67.2815C34.264 66.7308 35.6163 66.4552 36.9806 66.4737C38.341 66.4537 39.6894 66.7287 40.9325 67.2796C42.1756 67.8305 43.2836 68.6441 44.1795 69.664C45.6848 71.3597 47.5346 72.7174 49.6063 73.6473C51.678 74.5773 53.9243 75.0582 56.1967 75.0582C58.469 75.0582 60.7155 74.5773 62.7872 73.6473C64.8589 72.7174 66.7085 71.3597 68.2138 69.664C69.1252 68.6592 70.2382 67.856 71.4807 67.3063C72.7231 66.7565 74.0676 66.4724 75.4271 66.4724C76.7866 66.4724 78.1308 66.7565 79.3733 67.3063C80.6157 67.856 81.7287 68.6592 82.6402 69.664C84.1428 71.359 85.9902 72.7164 88.0595 73.6461C90.1289 74.5758 92.373 75.0567 94.6431 75.0567C96.9132 75.0567 99.1575 74.5758 101.227 73.6461C103.296 72.7164 105.143 71.359 106.646 69.664C107.549 68.6448 108.662 67.8321 109.91 67.2815C111.157 66.7308 112.509 66.4552 113.874 66.4737C116.242 66.4565 118.533 67.3111 120.307 68.8735V80.1666C117.194 78.8204 113.733 78.4888 110.42 79.2189C107.106 79.949 104.109 81.7036 101.856 84.2321C100.945 85.2369 99.832 86.0402 98.5895 86.5899C97.3471 87.1397 96.0026 87.4237 94.6431 87.4237C93.2836 87.4237 91.9392 87.1397 90.6967 86.5899C89.4543 86.0402 88.3415 85.2369 87.43 84.2321C85.9274 82.5371 84.08 81.1798 82.0107 80.2501C79.9413 79.3204 77.6972 78.8396 75.4271 78.8396C73.157 78.8396 70.9127 79.3204 68.8433 80.2501C66.7739 81.1798 64.9266 82.5371 63.4239 84.2321C62.5165 85.2455 61.4024 86.0543 60.156 86.6045C58.9097 87.1546 57.5599 87.4335 56.1967 87.4224C54.8371 87.4368 53.4905 87.1593 52.2482 86.6088C51.006 86.0583 49.8973 85.2476 48.9978 84.2321C47.4925 82.5364 45.6426 81.1787 43.5709 80.2488C41.4992 79.3188 39.2529 78.838 36.9806 78.838C34.7083 78.838 32.4618 79.3188 30.3901 80.2488C28.3184 81.1787 26.4686 82.5364 24.9633 84.2321L24.1982 85.1073V104.87L29.8666 106.931C30.7781 105.926 31.8909 105.123 33.1333 104.573C34.3758 104.024 35.7202 103.74 37.0797 103.74C38.4392 103.74 39.7837 104.024 41.0261 104.573C42.2686 105.123 43.3814 105.926 44.2928 106.931C45.803 108.619 47.6545 109.969 49.7255 110.894C51.7966 111.819 54.0406 112.297 56.3101 112.297C58.5797 112.297 60.8235 111.819 62.8946 110.894C64.9656 109.969 66.8171 108.619 68.3273 106.931C69.2387 105.926 70.3515 105.123 71.594 104.573C72.8365 104.024 74.1809 103.74 75.5404 103.74C76.8999 103.74 78.2443 104.024 79.4868 104.573C80.7292 105.123 81.842 105.926 82.7535 106.931C84.2611 108.618 86.11 109.968 88.1787 110.893C90.2474 111.817 92.4891 112.295 94.7564 112.295C97.0238 112.295 99.2656 111.817 101.334 110.893C103.403 109.968 105.252 108.618 106.76 106.931C108.48 105.045 110.874 103.907 113.428 103.759C115.982 103.611 118.492 104.466 120.421 106.141V124.548" fill="#1B3139"/>
<path d="M126.458 118.704H24V125H126.458V118.704Z" fill="#1B3139"/>
</svg>
