<svg width="150" height="150" viewBox="0 0 150 150" fill="none" xmlns="http://www.w3.org/2000/svg">
<path d="M46.16 130.92H37.74V133.92H112.26V130.92H103.84V94.56H46.16V130.92ZM49.16 97.56H100.84V130.92H49.16V97.56Z" fill="#FF5F46"/>
<path d="M75 108.28C73.8133 108.28 72.6533 108.632 71.6666 109.291C70.6799 109.95 69.9109 110.888 69.4567 111.984C69.0026 113.08 68.8838 114.287 69.1153 115.451C69.3468 116.614 69.9182 117.684 70.7574 118.523C71.5965 119.362 72.6656 119.933 73.8295 120.165C74.9933 120.396 76.1997 120.277 77.2961 119.823C78.3925 119.369 79.3295 118.6 79.9888 117.613C80.6481 116.627 81 115.467 81 114.28C81 112.689 80.3679 111.163 79.2426 110.037C78.1174 108.912 76.5913 108.28 75 108.28ZM75 117.19C74.4067 117.19 73.8266 117.014 73.3333 116.684C72.8399 116.355 72.4554 115.886 72.2284 115.338C72.0013 114.79 71.9419 114.187 72.0576 113.605C72.1734 113.023 72.4591 112.488 72.8787 112.069C73.2982 111.649 73.8328 111.363 74.4147 111.248C74.9967 111.132 75.5999 111.191 76.1481 111.418C76.6962 111.645 77.1648 112.03 77.4944 112.523C77.8241 113.017 78 113.597 78 114.19C78 114.986 77.6839 115.749 77.1213 116.311C76.5587 116.874 75.7957 117.19 75 117.19Z" fill="#FF5F46"/>
<path d="M70.02 89.7V80.96L58.55 76.05L57.37 78.81L67.02 82.94V89.7H70.02Z" fill="#FF5F46"/>
<path d="M93.7 78.81L92.52 76.05L81.05 80.96V89.7H84.05V82.94L93.7 78.81Z" fill="#FF5F46"/>
<path d="M40.74 122.49H31.15L35.31 90.91C35.6389 88.3504 36.5534 85.9012 37.9825 83.7524C39.4116 81.6036 41.3167 79.8131 43.55 78.52L54.55 71.41L48.64 55.08C49.81 54.69 51.64 54.08 54.01 53.51C55.32 66 64.71 76.51 75.01 76.51C85.31 76.51 94.68 66 96 53.51C98.36 54.12 100.2 54.69 101.37 55.08L95.47 71.41L106.47 78.55C108.692 79.844 110.586 81.6318 112.006 83.7751C113.426 85.9183 114.334 88.3596 114.66 90.91L118.82 122.49H109.23V125.49H122.23L117.62 90.49C117.241 87.5057 116.183 84.648 114.527 82.1361C112.872 79.6243 110.663 77.5252 108.07 76L99.07 70.18L104.76 54.43V46.14C104.764 44.505 104.415 42.8885 103.736 41.4008C103.058 39.9131 102.067 38.5894 100.83 37.52L78.45 17.41C77.5037 16.5562 76.2745 16.0836 75 16.0836C73.7255 16.0836 72.4963 16.5562 71.55 17.41L49.17 37.5C47.9189 38.5659 46.9135 39.8901 46.223 41.3816C45.5325 42.8731 45.1733 44.4964 45.17 46.14V54.43L50.87 70.18L42 76C39.3856 77.5268 37.1567 79.6336 35.4854 82.158C33.814 84.6824 32.7447 87.557 32.36 90.56L27.75 125.56H40.75L40.74 122.49ZM75 73.54C66.08 73.54 57.94 64.01 57 52.8C62.9049 51.4386 68.9405 50.7244 75 50.67C81.0595 50.7251 87.095 51.4393 93 52.8C92.06 64 83.92 73.54 75 73.54ZM51.16 39.75L73.55 19.64C73.9483 19.2823 74.4647 19.0844 75 19.0844C75.5353 19.0844 76.0517 19.2823 76.45 19.64L98.87 39.77C99.7843 40.5604 100.517 41.5385 101.02 42.6377C101.522 43.7369 101.781 44.9315 101.78 46.14V52.06C93.1265 49.2515 84.0972 47.7714 75 47.67C65.9028 47.7714 56.8735 49.2515 48.22 52.06V46.14C48.2197 44.9258 48.4824 43.7259 48.9899 42.6229C49.4974 41.5198 50.2377 40.5397 51.16 39.75Z" fill="#FF5F46"/>
<path d="M65 53.82C64.5723 53.7329 64.1298 53.7511 63.7107 53.8732C63.2917 53.9953 62.9086 54.2175 62.5946 54.5207C62.2806 54.8238 62.0451 55.1989 61.9084 55.6134C61.7717 56.0279 61.7379 56.4695 61.81 56.9L62.31 59.9C62.5288 61.2367 63.2157 62.4521 64.2479 63.3291C65.2801 64.2061 66.5905 64.6876 67.945 64.6876C69.2995 64.6876 70.6099 64.2061 71.6421 63.3291C72.6743 62.4521 73.3612 61.2367 73.58 59.9L73.92 57.9C74.63 57.9 75.42 57.9 76.13 57.9L76.47 59.95C76.6951 61.2803 77.3839 62.488 78.4145 63.3589C79.4451 64.2297 80.7507 64.7075 82.1 64.7075C83.4492 64.7075 84.7549 64.2297 85.7855 63.3589C86.816 62.488 87.5049 61.2803 87.73 59.95L88.23 56.95C88.3137 56.5118 88.2872 56.0597 88.1528 55.6343C88.0183 55.2089 87.7802 54.8236 87.4598 54.5132C87.1394 54.2027 86.7469 53.9768 86.3175 53.8558C85.8881 53.7348 85.4353 53.7225 85 53.82C82.4493 54.3505 79.8617 54.6848 77.26 54.82C75.738 54.91 74.212 54.91 72.69 54.82C70.105 54.6823 67.5342 54.348 65 53.82ZM70.62 59.42C70.5169 60.0552 70.1912 60.6329 69.7011 61.0499C69.211 61.4669 68.5885 61.6958 67.945 61.6958C67.3015 61.6958 66.679 61.4669 66.1889 61.0499C65.6988 60.6329 65.3731 60.0552 65.27 59.42L64.85 56.85C66.8335 57.2419 68.8363 57.5289 70.85 57.71L70.62 59.42ZM85.19 56.85L84.77 59.42C84.6607 60.0489 84.333 60.619 83.8445 61.0299C83.3561 61.4408 82.7383 61.6661 82.1 61.6661C81.4617 61.6661 80.8439 61.4408 80.3554 61.0299C79.867 60.619 79.5393 60.0489 79.43 59.42L79.14 57.71C81.1638 57.5307 83.1767 57.2436 85.17 56.85H85.19Z" fill="#FF5F46"/>
</svg>
