<svg width="150" height="150" viewBox="0 0 150 150" fill="none" xmlns="http://www.w3.org/2000/svg">
<path d="M46.16 130.92H37.74V133.92H112.26V130.92H103.84V94.5601H46.16V130.92ZM49.16 97.5601H100.84V130.92H49.16V97.5601Z" fill="white"/>
<path d="M75 108.28C73.8133 108.28 72.6533 108.632 71.6666 109.291C70.6799 109.951 69.9109 110.888 69.4567 111.984C69.0026 113.08 68.8838 114.287 69.1153 115.451C69.3468 116.614 69.9182 117.684 70.7574 118.523C71.5965 119.362 72.6656 119.933 73.8295 120.165C74.9933 120.396 76.1997 120.277 77.2961 119.823C78.3925 119.369 79.3295 118.6 79.9888 117.613C80.6481 116.627 81 115.467 81 114.28C81 112.689 80.3679 111.163 79.2426 110.037C78.1174 108.912 76.5913 108.28 75 108.28ZM75 117.19C74.4067 117.19 73.8266 117.014 73.3333 116.684C72.8399 116.355 72.4554 115.886 72.2284 115.338C72.0013 114.79 71.9419 114.187 72.0576 113.605C72.1734 113.023 72.4591 112.488 72.8787 112.069C73.2982 111.649 73.8328 111.363 74.4147 111.248C74.9967 111.132 75.5999 111.191 76.1481 111.418C76.6962 111.645 77.1648 112.03 77.4944 112.523C77.8241 113.017 78 113.597 78 114.19C78 114.986 77.6839 115.749 77.1213 116.311C76.5587 116.874 75.7957 117.19 75 117.19Z" fill="white"/>
<path d="M70.02 89.7V80.96L58.55 76.05L57.37 78.81L67.02 82.94V89.7H70.02Z" fill="white"/>
<path d="M93.7 78.81L92.52 76.05L81.05 80.96V89.7H84.05V82.94L93.7 78.81Z" fill="white"/>
<path d="M40.74 122.49H31.15L35.31 90.9099C35.6389 88.3503 36.5534 85.901 37.9825 83.7522C39.4116 81.6034 41.3167 79.813 43.55 78.5199L54.55 71.4099L48.64 55.0799C49.81 54.6899 51.64 54.0799 54.01 53.5099C55.32 65.9999 64.71 76.5099 75.01 76.5099C85.31 76.5099 94.68 65.9999 96 53.5099C98.36 54.1199 100.2 54.6899 101.37 55.0799L95.47 71.4099L106.47 78.5499C108.692 79.8439 110.586 81.6317 112.006 83.7749C113.426 85.9182 114.334 88.3595 114.66 90.9099L118.82 122.49H109.23V125.49H122.23L117.62 90.4899C117.241 87.5056 116.183 84.6478 114.527 82.136C112.872 79.6242 110.663 77.5251 108.07 75.9999L99.07 70.1799L104.76 54.4299V46.1399C104.764 44.5049 104.415 42.8883 103.736 41.4007C103.058 39.913 102.067 38.5892 100.83 37.5199L78.45 17.4099C77.5037 16.5561 76.2745 16.0835 75 16.0835C73.7255 16.0835 72.4963 16.5561 71.55 17.4099L49.17 37.4999C47.9189 38.5658 46.9135 39.89 46.223 41.3815C45.5325 42.873 45.1733 44.4963 45.17 46.1399V54.4299L50.87 70.1799L42 75.9999C39.3856 77.5266 37.1567 79.6335 35.4854 82.1579C33.814 84.6823 32.7447 87.5569 32.36 90.5599L27.75 125.56H40.75L40.74 122.49ZM75 73.5399C66.08 73.5399 57.94 64.0099 57 52.7999C62.9049 51.4385 68.9405 50.7243 75 50.6699C81.0595 50.7249 87.095 51.4392 93 52.7999C92.06 63.9999 83.92 73.5399 75 73.5399ZM51.16 39.7499L73.55 19.6399C73.9483 19.2822 74.4647 19.0843 75 19.0843C75.5353 19.0843 76.0517 19.2822 76.45 19.6399L98.87 39.7699C99.7843 40.5602 100.517 41.5383 101.02 42.6376C101.522 43.7368 101.781 44.9314 101.78 46.1399V52.0599C93.1265 49.2514 84.0972 47.7713 75 47.6699C65.9028 47.7713 56.8735 49.2514 48.22 52.0599V46.1399C48.2197 44.9257 48.4824 43.7258 48.9899 42.6228C49.4974 41.5197 50.2377 40.5396 51.16 39.7499Z" fill="white"/>
<path d="M65 53.8199C64.5723 53.7328 64.1298 53.751 63.7107 53.8731C63.2917 53.9952 62.9086 54.2174 62.5946 54.5206C62.2806 54.8238 62.0451 55.1988 61.9084 55.6133C61.7717 56.0278 61.7379 56.4694 61.81 56.8999L62.31 59.8999C62.5288 61.2366 63.2157 62.452 64.2479 63.329C65.2801 64.206 66.5905 64.6875 67.945 64.6875C69.2995 64.6875 70.6099 64.206 71.6421 63.329C72.6743 62.452 73.3612 61.2366 73.58 59.8999L73.92 57.8999C74.63 57.8999 75.42 57.8999 76.13 57.8999L76.47 59.9499C76.6951 61.2802 77.3839 62.4879 78.4145 63.3588C79.4451 64.2296 80.7507 64.7074 82.1 64.7074C83.4492 64.7074 84.7549 64.2296 85.7855 63.3588C86.816 62.4879 87.5049 61.2802 87.73 59.9499L88.23 56.9499C88.3137 56.5117 88.2872 56.0596 88.1528 55.6342C88.0183 55.2088 87.7802 54.8236 87.4598 54.5131C87.1394 54.2026 86.7469 53.9767 86.3175 53.8557C85.8881 53.7347 85.4353 53.7224 85 53.8199C82.4493 54.3504 79.8617 54.6847 77.26 54.8199C75.738 54.9099 74.212 54.9099 72.69 54.8199C70.105 54.6822 67.5342 54.3479 65 53.8199V53.8199ZM70.62 59.4199C70.5169 60.0551 70.1912 60.6328 69.7011 61.0498C69.211 61.4668 68.5885 61.6958 67.945 61.6958C67.3015 61.6958 66.679 61.4668 66.1889 61.0498C65.6988 60.6328 65.3731 60.0551 65.27 59.4199L64.85 56.8499C66.8335 57.2418 68.8363 57.5288 70.85 57.7099L70.62 59.4199ZM85.19 56.8499L84.77 59.4199C84.6607 60.0488 84.333 60.6189 83.8445 61.0298C83.3561 61.4407 82.7383 61.666 82.1 61.666C81.4617 61.666 80.8439 61.4407 80.3554 61.0298C79.867 60.6189 79.5393 60.0488 79.43 59.4199L79.14 57.7099C81.1638 57.5306 83.1767 57.2435 85.17 56.8499H85.19Z" fill="white"/>
</svg>
