<svg width="150" height="150" viewBox="0 0 150 150" fill="none" xmlns="http://www.w3.org/2000/svg">
<path d="M61.7501 27.24H24.4301V45.76H27.4301V30.24H61.7501C69.3063 30.2479 76.5508 33.2532 81.8938 38.5962C87.2369 43.9393 90.2421 51.1838 90.2501 58.74V94.51L112.46 72.3L121.33 81.17L84.0001 118.52L46.6301 81.17L55.5001 72.3L77.7101 94.51V60.28C77.7048 55.6403 75.8593 51.1922 72.5786 47.9115C69.2978 44.6307 64.8497 42.7853 60.2101 42.78H35.8501V45.78H60.2101C64.0541 45.7853 67.7391 47.3147 70.4573 50.0328C73.1754 52.7509 74.7048 56.436 74.7101 60.28V87.28L55.5001 68.06L42.3901 81.17L84.0001 122.76L125.59 81.17L112.46 68.06L93.2501 87.27V58.74C93.2421 50.3881 89.9208 42.3806 84.0151 36.4749C78.1095 30.5692 70.1019 27.2479 61.7501 27.24Z" fill="#FF5F46"/>
</svg>
