<svg width="150" height="150" viewBox="0 0 150 150" fill="none" xmlns="http://www.w3.org/2000/svg">
<path d="M61.75 27.24H24.43V45.76H27.43V30.24H61.75C69.3062 30.2479 76.5507 33.2532 81.8938 38.5962C87.2368 43.9393 90.2421 51.1838 90.25 58.74V94.51L112.46 72.3L121.33 81.17L84 118.52L46.63 81.17L55.5 72.3L77.71 94.51V60.28C77.7047 55.6403 75.8593 51.1922 72.5785 47.9115C69.2978 44.6307 64.8497 42.7853 60.21 42.78H35.85V45.78H60.21C64.054 45.7853 67.7391 47.3147 70.4572 50.0328C73.1753 52.7509 74.7047 56.436 74.71 60.28V87.28L55.5 68.06L42.39 81.17L84 122.76L125.59 81.17L112.46 68.06L93.25 87.27V58.74C93.2421 50.3881 89.9208 42.3806 84.0151 36.4749C78.1094 30.5692 70.1019 27.2479 61.75 27.24V27.24Z" fill="#1B3139"/>
</svg>
