<svg width="512" height="512" viewBox="0 0 512 512" fill="none" xmlns="http://www.w3.org/2000/svg">
<path d="M64 112C64 138.51 85.4903 160 112 160V160C138.51 160 160 138.51 160 112V112C160 85.4903 138.51 64 112 64V64C85.4903 64 64 85.4903 64 112V112Z" fill="#FF5F46"/>
<path d="M352 256C352 282.51 373.49 304 400 304V304C426.51 304 448 282.51 448 256V256C448 229.49 426.51 208 400 208V208C373.49 208 352 229.49 352 256V256Z" fill="#FF5F46"/>
<path d="M64 400C64 426.51 85.4903 448 112 448V448C138.51 448 160 426.51 160 400V400C160 373.49 138.51 352 112 352V352C85.4903 352 64 373.49 64 400V400Z" fill="#FF5F46"/>
<path d="M199.272 160L448 160L448 64L199.272 64L199.272 160Z" fill="#FABFBA"/>
<rect width="248.727" height="96" transform="matrix(1 8.20663e-08 9.31289e-08 -1 64 304)" fill="#FABFBA"/>
<rect width="248.727" height="96" transform="matrix(1 8.36077e-08 9.515e-08 -1 199.272 448)" fill="#FABFBA"/>
</svg>
