<svg width="1080" height="1080" viewBox="0 0 1080 1080" fill="none" xmlns="http://www.w3.org/2000/svg">
<path d="M540.193 133.598L187.916 337.002V438.703L540.193 235.3L892.47 438.703V337.002L540.193 133.598Z" fill="#759259"/>
<path d="M187.881 438.703V540.405L540.158 337.002L892.435 540.405V438.703L540.158 235.3L187.881 438.703Z" fill="#095A35"/>
<path d="M187.881 540.405V642.107L540.158 438.879L892.435 642.107V540.405L540.158 337.001L187.881 540.405Z" fill="#759259"/>
<path d="M187.881 642.071V743.773L540.158 540.369L892.435 743.773V642.071L540.158 438.844L187.881 642.071Z" fill="#095A35"/>
<path d="M187.881 743.773C187.881 743.773 242.938 775.561 275.959 794.606L540.193 642.071L804.428 794.606L892.506 743.773L540.228 540.369L187.951 743.773H187.881Z" fill="#759259"/>
<path d="M540.193 743.773L716.35 845.475L804.428 794.641L540.193 642.106L275.959 794.641C308.979 813.721 319.998 820.058 364.037 845.475L540.193 743.773Z" fill="#095A35"/>
<path d="M364.037 845.474C408.076 870.891 419.095 877.263 452.115 896.307L540.193 845.474L628.271 896.307L716.35 845.474L540.193 743.772L364.037 845.474Z" fill="#759259"/>
<path d="M628.271 896.343L540.193 845.51L452.115 896.343C485.136 915.423 540.193 947.176 540.193 947.176L628.271 896.343Z" fill="#095A35"/>
<path d="M540.193 133.598V235.3L892.471 438.703V337.002L540.193 133.598Z" fill="#20366A"/>
<path d="M540.193 337.002L892.471 540.405V438.703L540.193 235.3V337.002Z" fill="#4972A3"/>
<path d="M540.193 438.879L892.471 642.107V540.405L540.193 337.001V438.879Z" fill="#20366A"/>
<path d="M540.193 540.405L892.471 743.808V642.106L540.193 438.879V540.405Z" fill="#4972A3"/>
<path d="M540.193 642.072L804.392 794.642L892.471 743.773L540.193 540.405V642.072Z" fill="#20366A"/>
<path d="M540.193 743.773L716.314 845.475L804.392 794.641L540.193 642.071V743.773Z" fill="#4972A3"/>
<path d="M540.193 845.474L628.271 896.343L716.314 845.474L540.193 743.772V845.474Z" fill="#20366A"/>
<path d="M628.271 896.343L540.193 845.475V947.176L628.271 896.343Z" fill="#4972A3"/>
<path d="M285.957 537.166L540.193 390.404L794.43 537.166V435.499L540.193 288.703L285.957 435.499V537.166Z" fill="#F6A71B"/>
<path d="M285.957 638.868L540.193 492.106L794.43 638.868V537.166L540.193 390.404L285.957 537.166V638.868Z" fill="#F1DB0B"/>
<path d="M285.957 638.868L540.193 492.106L794.43 638.868V585.535L540.193 438.879L285.957 585.535V638.868Z" fill="#EE3F2B"/>
<path d="M285.957 740.57L540.193 593.773L794.43 740.57V638.868L540.193 492.106L285.957 638.868V740.57Z" fill="#F6A71B"/>
<path d="M540.193 133.668L892.118 336.861V743.21L540.193 946.402L188.268 743.21V336.861L540.193 133.668ZM540.193 101L160 320.491V759.509L540.193 979L920.386 759.509V320.491L540.193 101.035V101Z" fill="#1B3139"/>
<path d="M858.47 836.194L849.11 819.982L851.001 818.89L856.63 828.64L858.484 821.295L860.804 819.956L858.762 827.86L867.882 830.76L865.473 832.151L857.02 829.316L860.361 835.102L858.47 836.194Z" fill="#1B3139"/>
<path d="M850.29 840.918L843.842 829.75L845.554 828.762L846.946 830.81C846.867 829.875 847.054 828.986 847.508 828.143C847.963 827.301 848.707 826.58 849.743 825.982L850.887 827.964L850.369 828.263C849.709 828.644 849.17 829.115 848.754 829.676C848.328 830.222 848.111 830.868 848.101 831.614C848.091 832.36 848.368 833.221 848.932 834.197L852.182 839.826L850.29 840.918Z" fill="#1B3139"/>
<path d="M842.21 845.943C841.159 846.55 840.075 846.855 838.957 846.86C837.839 846.865 836.781 846.576 835.783 845.991C834.791 845.383 833.953 844.486 833.268 843.3C832.584 842.114 832.238 840.943 832.23 839.786C832.214 838.614 832.488 837.546 833.051 836.58C833.63 835.605 834.444 834.815 835.495 834.208C836.546 833.602 837.63 833.296 838.748 833.291C839.866 833.286 840.921 833.588 841.912 834.196C842.91 834.78 843.752 835.666 844.436 836.852C845.121 838.038 845.471 839.216 845.487 840.388C845.495 841.545 845.209 842.61 844.631 843.584C844.068 844.55 843.261 845.336 842.21 845.943ZM841.274 844.322C841.919 843.949 842.429 843.445 842.802 842.809C843.176 842.173 843.353 841.44 843.334 840.61C843.315 839.781 843.037 838.9 842.5 837.97C841.963 837.039 841.339 836.358 840.63 835.927C839.936 835.487 839.22 835.27 838.483 835.275C837.745 835.281 837.061 835.465 836.431 835.829C835.785 836.202 835.276 836.706 834.903 837.342C834.529 837.978 834.352 838.711 834.371 839.541C834.389 840.371 834.667 841.251 835.205 842.182C835.742 843.112 836.365 843.793 837.075 844.224C837.784 844.656 838.5 844.873 839.222 844.876C839.959 844.87 840.643 844.686 841.274 844.322Z" fill="#1B3139"/>
<path d="M822.659 856.87L812.946 847.587L814.837 846.495L822.259 853.889L819.814 843.622L821.953 842.387L829.644 849.625L826.929 839.514L828.843 838.409L832.026 851.462L830.089 852.58L822.025 844.957L824.595 855.752L822.659 856.87Z" fill="#1B3139"/>
<path d="M816.113 860.65C815.092 861.239 814.146 861.455 813.275 861.298C812.403 861.141 811.595 860.417 810.849 859.126L807.3 852.979L805.364 854.097L804.441 852.498L806.377 851.38L805.078 848.557L806.722 847.608L808.269 850.288L811.556 848.39L812.479 849.989L809.192 851.887L812.741 858.034C813.148 858.739 813.568 859.137 814.001 859.228C814.425 859.303 814.997 859.133 815.717 858.717L816.888 858.041L817.824 859.662L816.113 860.65Z" fill="#1B3139"/>
<path d="M804.431 867.754C803.365 868.37 802.281 868.676 801.178 868.672C800.066 868.653 799.019 868.347 798.036 867.754C797.068 867.152 796.242 866.258 795.557 865.072C794.881 863.901 794.524 862.746 794.487 861.607C794.441 860.453 794.692 859.397 795.24 858.44C795.795 857.459 796.62 856.652 797.716 856.02C798.797 855.396 799.871 855.106 800.937 855.151C802.01 855.172 802.986 855.459 803.866 856.012C804.746 856.565 805.45 857.299 805.978 858.215C806.074 858.38 806.162 858.549 806.242 858.723C806.337 858.888 806.446 859.076 806.567 859.286L797.673 864.421C798.212 865.251 798.819 865.851 799.493 866.222C800.174 866.569 800.86 866.734 801.55 866.716C802.255 866.689 802.908 866.502 803.508 866.156C804.289 865.705 804.838 865.148 805.155 864.484C805.472 863.821 805.574 863.112 805.458 862.358L807.327 861.279C807.625 862.488 807.545 863.685 807.088 864.869C806.638 866.03 805.752 866.992 804.431 867.754ZM798.594 857.644C797.693 858.164 797.051 858.906 796.666 859.869C796.287 860.808 796.349 861.833 796.85 862.944L803.876 858.888C803.25 857.909 802.45 857.32 801.475 857.122C800.5 856.924 799.54 857.098 798.594 857.644Z" fill="#1B3139"/>
<path d="M783.842 879.281L774.742 863.52L776.634 862.428L792.326 870.21L785.033 857.579L786.924 856.487L796.024 872.248L794.133 873.34L778.441 865.557L785.734 878.189L783.842 879.281Z" fill="#1B3139"/>
<path d="M770.947 887.087C769.611 887.858 768.305 888.162 767.029 887.998C765.754 887.833 764.707 887.217 763.89 886.148L765.826 885.03C766.284 885.546 766.886 885.878 767.633 886.028C768.386 886.153 769.191 885.969 770.046 885.475C770.842 885.016 771.332 884.513 771.516 883.966C771.692 883.404 771.646 882.89 771.377 882.425C770.987 881.749 770.48 881.442 769.854 881.503C769.244 881.555 768.444 881.747 767.454 882.078C766.785 882.305 766.084 882.479 765.354 882.6C764.624 882.722 763.939 882.697 763.299 882.525C762.651 882.339 762.132 881.908 761.742 881.233C761.179 880.257 761.08 879.253 761.445 878.222C761.817 877.167 762.625 876.28 763.871 875.56C765.057 874.876 766.199 874.617 767.296 874.784C768.4 874.927 769.328 875.512 770.081 876.539L768.212 877.618C767.807 877.091 767.304 876.791 766.702 876.718C766.106 876.622 765.462 876.773 764.772 877.172C764.096 877.562 763.653 878.008 763.443 878.51C763.247 879.003 763.284 879.482 763.552 879.948C763.812 880.398 764.249 880.616 764.861 880.603C765.489 880.581 766.26 880.426 767.175 880.138C767.952 879.889 768.713 879.7 769.459 879.57C770.211 879.416 770.907 879.444 771.549 879.654C772.197 879.84 772.755 880.339 773.223 881.149C773.818 882.146 773.917 883.201 773.517 884.312C773.125 885.399 772.268 886.324 770.947 887.087Z" fill="#1B3139"/>
<path d="M753.627 896.727L747.179 885.558L748.89 884.57L750.16 886.509C750.113 885.596 750.31 884.741 750.751 883.946C751.193 883.151 751.842 882.506 752.697 882.012C754.018 881.249 755.303 881.048 756.551 881.408C757.806 881.744 758.915 882.745 759.877 884.412L763.647 890.942L761.755 892.034L758.102 885.706C756.759 883.38 755.127 882.771 753.205 883.88C752.245 884.435 751.645 885.251 751.407 886.33C751.175 887.384 751.432 888.557 752.177 889.848L755.518 895.635L753.627 896.727Z" fill="#1B3139"/>
<path d="M745.316 901.884C744.386 902.421 743.522 902.71 742.724 902.75C741.927 902.79 741.226 902.634 740.623 902.282C740.019 901.93 739.54 901.446 739.184 900.831C738.526 899.69 738.454 898.561 738.969 897.443C739.485 896.324 740.493 895.332 741.994 894.465L745.011 892.723L744.933 892.588C744.37 891.613 743.69 891.024 742.894 890.824C742.089 890.608 741.258 890.747 740.403 891.241C739.667 891.666 739.137 892.222 738.814 892.909C738.496 893.573 738.474 894.296 738.746 895.08L736.809 896.198C736.417 895.344 736.292 894.505 736.437 893.681C736.597 892.848 736.947 892.085 737.488 891.393C738.02 890.685 738.684 890.102 739.48 889.642C741.041 888.741 742.454 888.485 743.72 888.875C744.992 889.242 746.027 890.115 746.825 891.496L750.79 898.364L749.101 899.339L747.831 897.4C747.88 898.212 747.727 899.021 747.371 899.827C747.022 900.609 746.337 901.295 745.316 901.884ZM744.686 900.116C745.407 899.7 745.914 899.157 746.207 898.487C746.516 897.809 746.632 897.091 746.556 896.335C746.479 895.578 746.25 894.87 745.869 894.209L745.856 894.187L742.997 895.838C741.886 896.479 741.21 897.129 740.97 897.788C740.737 898.424 740.784 899.027 741.114 899.597C741.452 900.182 741.935 900.534 742.563 900.651C743.198 900.745 743.906 900.567 744.686 900.116Z" fill="#1B3139"/>
<path d="M733.265 908.482L726.817 897.314L728.528 896.326L729.921 898.374C729.842 897.439 730.029 896.551 730.483 895.708C730.937 894.865 731.682 894.145 732.718 893.547L733.862 895.528L733.344 895.827C732.684 896.209 732.145 896.68 731.728 897.241C731.303 897.787 731.085 898.432 731.076 899.179C731.066 899.925 731.343 900.786 731.907 901.761L735.157 907.39L733.265 908.482Z" fill="#1B3139"/>
<path d="M725.623 913.254C724.557 913.87 723.473 914.176 722.37 914.172C721.258 914.153 720.211 913.847 719.228 913.254C718.26 912.652 717.433 911.758 716.749 910.572C716.073 909.401 715.716 908.246 715.679 907.107C715.633 905.953 715.884 904.897 716.432 903.94C716.987 902.959 717.812 902.152 718.908 901.52C719.989 900.896 721.062 900.606 722.129 900.651C723.202 900.672 724.178 900.959 725.058 901.512C725.937 902.065 726.641 902.799 727.17 903.715C727.265 903.88 727.353 904.049 727.434 904.223C727.529 904.388 727.637 904.576 727.759 904.786L718.865 909.921C719.404 910.751 720.01 911.351 720.685 911.722C721.366 912.069 722.051 912.234 722.741 912.216C723.447 912.189 724.099 912.002 724.7 911.656C725.48 911.205 726.029 910.648 726.347 909.984C726.664 909.321 726.765 908.612 726.65 907.858L728.519 906.779C728.817 907.988 728.737 909.185 728.28 910.369C727.829 911.53 726.944 912.492 725.623 913.254ZM719.786 903.144C718.885 903.664 718.242 904.406 717.857 905.369C717.479 906.308 717.54 907.333 718.042 908.444L725.067 904.388C724.442 903.409 723.641 902.82 722.666 902.622C721.692 902.424 720.731 902.598 719.786 903.144Z" fill="#1B3139"/>
<path d="M716.459 918.185C715.438 918.775 714.492 918.991 713.621 918.833C712.749 918.676 711.941 917.952 711.196 916.661L707.647 910.514L705.71 911.632L704.787 910.033L706.724 908.915L705.424 906.093L707.068 905.144L708.615 907.823L711.903 905.925L712.826 907.524L709.538 909.422L713.087 915.569C713.494 916.274 713.914 916.672 714.347 916.763C714.771 916.838 715.343 916.668 716.064 916.252L717.234 915.576L718.17 917.197L716.459 918.185Z" fill="#1B3139"/>
<path d="M704.777 925.29C703.712 925.905 702.627 926.211 701.524 926.207C700.413 926.188 699.365 925.882 698.382 925.289C697.414 924.687 696.588 923.793 695.903 922.607C695.227 921.436 694.871 920.281 694.833 919.142C694.787 917.988 695.039 916.932 695.587 915.975C696.142 914.994 696.967 914.188 698.063 913.555C699.143 912.931 700.217 912.641 701.284 912.686C702.357 912.707 703.333 912.994 704.212 913.547C705.092 914.1 705.796 914.834 706.325 915.75C706.42 915.915 706.508 916.084 706.588 916.258C706.684 916.423 706.792 916.611 706.913 916.821L698.019 921.956C698.558 922.786 699.165 923.386 699.84 923.757C700.521 924.105 701.206 924.269 701.896 924.251C702.601 924.224 703.254 924.038 703.854 923.691C704.635 923.24 705.184 922.683 705.501 922.02C705.819 921.356 705.92 920.647 705.805 919.893L707.674 918.814C707.971 920.023 707.892 921.22 707.435 922.404C706.984 923.565 706.098 924.527 704.777 925.29ZM698.94 915.18C698.04 915.7 697.397 916.441 697.012 917.404C696.634 918.343 696.695 919.368 697.197 920.479L704.222 916.423C703.596 915.444 702.796 914.855 701.821 914.657C700.846 914.459 699.886 914.634 698.94 915.18Z" fill="#1B3139"/>
<path d="M690.897 932.943L675.875 920.601L677.924 919.418L690.843 930.302L687.921 913.646L689.925 912.489L693.103 931.669L690.897 932.943Z" fill="#1B3139"/>
<path d="M672.926 943.679C671.935 944.251 670.973 944.596 670.041 944.714C669.1 944.817 668.239 944.714 667.459 944.403C666.68 944.093 666.028 943.588 665.505 942.89L668.41 941.213C668.751 941.596 669.208 941.833 669.78 941.923C670.359 941.989 670.963 941.84 671.594 941.476C672.224 941.112 672.608 940.72 672.746 940.3C672.899 939.872 672.88 939.492 672.69 939.162C672.412 938.682 672.016 938.48 671.5 938.558C670.976 938.62 670.291 938.786 669.445 939.054C668.904 939.226 668.342 939.38 667.76 939.516C667.178 939.652 666.612 939.729 666.062 939.746C665.518 939.74 665.014 939.63 664.551 939.417C664.079 939.189 663.687 938.805 663.375 938.265C662.803 937.274 662.712 936.216 663.103 935.09C663.509 933.955 664.424 932.976 665.851 932.152C667.172 931.39 668.4 931.091 669.536 931.256C670.687 931.412 671.649 931.987 672.423 932.981L669.699 934.554C669.057 933.824 668.196 933.77 667.115 934.394C666.575 934.706 666.215 935.054 666.036 935.438C665.872 935.813 665.881 936.158 666.063 936.473C666.254 936.803 666.623 936.94 667.171 936.884C667.719 936.828 668.401 936.674 669.217 936.423C670.102 936.153 670.932 935.944 671.707 935.796C672.489 935.625 673.201 935.644 673.842 935.854C674.475 936.049 675.021 936.545 675.481 937.34C675.894 938.022 676.074 938.749 676.019 939.521C675.965 940.293 675.676 941.041 675.152 941.763C674.629 942.486 673.886 943.124 672.926 943.679Z" fill="#1B3139"/>
<path d="M655.906 953.146L646.546 936.934L649.428 935.27L654.953 944.839L656.303 938.025L659.725 936.049L658.093 943.777L666.917 946.789L663.314 948.869L655.551 945.875L658.788 951.482L655.906 953.146Z" fill="#1B3139"/>
<path d="M648.032 958.052C646.891 958.71 645.743 959.043 644.586 959.051C643.429 959.058 642.34 958.766 641.318 958.175C640.312 957.575 639.479 956.705 638.82 955.564C638.162 954.423 637.824 953.267 637.808 952.096C637.808 950.915 638.099 949.826 638.684 948.828C639.269 947.83 640.131 947.002 641.272 946.343C642.698 945.52 644.116 945.202 645.525 945.389C646.925 945.561 648.138 946.222 649.162 947.372L646.122 949.127C645.66 948.673 645.117 948.426 644.493 948.386C643.876 948.322 643.267 948.464 642.667 948.81C641.871 949.27 641.369 949.96 641.16 950.881C640.951 951.802 641.155 952.796 641.77 953.861C642.385 954.927 643.144 955.6 644.046 955.88C644.948 956.159 645.797 956.07 646.593 955.61C647.193 955.264 647.624 954.815 647.886 954.263C648.163 953.703 648.217 953.102 648.046 952.46L651.086 950.705C651.544 952.121 651.506 953.494 650.972 954.823C650.438 956.152 649.458 957.228 648.032 958.052Z" fill="#1B3139"/>
<path d="M630.507 950.607C629.981 950.91 629.455 951.004 628.928 950.888C628.415 950.763 628.021 950.461 627.743 949.981C627.466 949.5 627.406 949.015 627.563 948.524C627.726 948.009 628.07 947.6 628.596 947.297C629.121 946.994 629.64 946.904 630.152 947.029C630.671 947.13 631.069 947.42 631.346 947.901C631.623 948.381 631.68 948.878 631.517 949.393C631.369 949.899 631.032 950.304 630.507 950.607ZM636.514 964.341L630.066 953.173L632.949 951.509L639.397 962.677L636.514 964.341Z" fill="#1B3139"/>
<path d="M627.474 969.561L621.026 958.392L623.593 956.91L625.072 958.848C625.062 957.894 625.28 957.007 625.728 956.188C626.182 955.345 626.882 954.651 627.828 954.105L629.583 957.145L628.772 957.613C628.142 957.977 627.635 958.399 627.253 958.881C626.87 959.362 626.675 959.925 626.667 960.57C626.674 961.206 626.924 961.952 627.418 962.808L630.356 967.897L627.474 969.561Z" fill="#1B3139"/>
<path d="M619.562 974.489C618.721 974.975 617.895 975.242 617.082 975.29C616.27 975.339 615.504 975.191 614.784 974.846L615.353 976.559L612.786 978.041L603.426 961.829L606.308 960.165L610.143 966.808C610.217 966.104 610.439 965.396 610.807 964.683C611.191 963.961 611.856 963.327 612.802 962.781C613.852 962.174 614.938 961.887 616.058 961.921C617.179 961.955 618.235 962.276 619.226 962.884C620.218 963.493 621.039 964.36 621.689 965.485C622.339 966.611 622.679 967.756 622.71 968.919C622.733 970.067 622.478 971.134 621.947 972.121C621.408 973.093 620.612 973.883 619.562 974.489ZM617.498 972.318C618.413 971.79 618.994 971.044 619.239 970.082C619.484 969.12 619.325 968.151 618.762 967.175C618.198 966.2 617.434 965.57 616.47 965.286C615.505 965.002 614.565 965.125 613.65 965.653C612.719 966.191 612.135 966.948 611.899 967.925C611.669 968.879 611.836 969.843 612.399 970.819C612.962 971.795 613.719 972.429 614.668 972.721C615.624 972.99 616.567 972.856 617.498 972.318Z" fill="#1B3139"/>
<path d="M603.797 983.59C602.836 984.145 601.961 984.45 601.172 984.505C600.375 984.545 599.679 984.397 599.084 984.06C598.489 983.723 598.014 983.246 597.659 982.631C597.061 981.595 596.981 980.521 597.419 979.407C597.856 978.294 598.886 977.269 600.507 976.333L603.344 974.695L603.188 974.425C602.746 973.659 602.204 973.222 601.56 973.113C600.917 973.004 600.273 973.136 599.627 973.509C599.042 973.847 598.614 974.284 598.343 974.82C598.064 975.342 598.027 975.903 598.234 976.504L595.42 978.129C595.027 977.275 594.89 976.414 595.008 975.545C595.142 974.667 595.493 973.854 596.062 973.105C596.622 972.342 597.367 971.691 598.298 971.154C599.889 970.235 601.372 969.909 602.747 970.176C604.122 970.443 605.23 971.305 606.07 972.761L610.035 979.628L607.581 981.045L606.271 979.4C606.287 980.191 606.108 980.955 605.733 981.692C605.373 982.42 604.727 983.053 603.797 983.59ZM603.15 980.962C603.975 980.485 604.457 979.847 604.596 979.046C604.749 978.237 604.656 977.4 604.317 976.535L601.862 977.952C601.097 978.394 600.631 978.853 600.466 979.329C600.292 979.79 600.321 980.223 600.555 980.628C600.807 981.064 601.167 981.306 601.636 981.356C602.105 981.405 602.609 981.274 603.15 980.962Z" fill="#1B3139"/>
<path d="M595.289 988.142C594.118 988.818 593.015 989.075 591.981 988.912C590.946 988.749 590.008 987.939 589.167 986.483L586.359 981.619L584.445 982.724L583.054 980.315L584.968 979.21L583.577 976.02L586.121 974.551L587.85 977.546L590.868 975.804L592.259 978.213L589.241 979.955L592.062 984.841C592.374 985.382 592.704 985.692 593.05 985.772C593.403 985.829 593.865 985.692 594.435 985.363L595.831 984.557L597.248 987.011L595.289 988.142Z" fill="#1B3139"/>
<path d="M581.478 996.476C580.517 997.031 579.642 997.336 578.854 997.391C578.056 997.431 577.36 997.283 576.765 996.945C576.17 996.608 575.695 996.132 575.34 995.517C574.742 994.481 574.662 993.406 575.1 992.293C575.538 991.179 576.567 990.155 578.188 989.219L581.025 987.581L580.869 987.31C580.427 986.545 579.885 986.108 579.242 985.999C578.598 985.89 577.954 986.022 577.308 986.394C576.723 986.732 576.295 987.17 576.024 987.706C575.745 988.228 575.709 988.789 575.916 989.39L573.101 991.015C572.708 990.161 572.571 989.3 572.69 988.43C572.823 987.553 573.174 986.739 573.743 985.991C574.303 985.227 575.048 984.577 575.979 984.04C577.57 983.121 579.053 982.795 580.428 983.062C581.803 983.329 582.911 984.19 583.752 985.646L587.717 992.514L585.262 993.931L583.952 992.286C583.969 993.077 583.789 993.841 583.414 994.578C583.054 995.306 582.409 995.939 581.478 996.476ZM580.831 993.848C581.656 993.371 582.138 992.732 582.277 991.932C582.43 991.123 582.337 990.286 581.998 989.421L579.544 990.838C578.778 991.28 578.312 991.739 578.147 992.215C577.973 992.676 578.003 993.109 578.237 993.514C578.488 993.949 578.848 994.192 579.317 994.241C579.786 994.291 580.29 994.16 580.831 993.848Z" fill="#1B3139"/>
<path d="M561.531 1007.63L552.431 991.871L557.813 988.764C559.659 987.698 561.366 987.153 562.933 987.129C564.507 987.081 565.921 987.485 567.176 988.342C568.437 989.175 569.527 990.387 570.446 991.978C571.365 993.569 571.874 995.127 571.973 996.651C572.079 998.151 571.722 999.578 570.902 1000.93C570.089 1002.26 568.759 1003.46 566.913 1004.53L561.531 1007.63ZM562.983 1003.49L565.348 1002.13C566.669 1001.36 567.59 1000.55 568.113 999.689C568.628 998.812 568.82 997.88 568.691 996.894C568.553 995.893 568.155 994.822 567.496 993.681C566.846 992.555 566.122 991.682 565.324 991.062C564.526 990.442 563.618 990.136 562.601 990.142C561.584 990.149 560.416 990.534 559.095 991.296L556.73 992.661L562.983 1003.49Z" fill="#1B3139"/>
</svg>
