<svg width="1080" height="1080" viewBox="0 0 1080 1080" fill="none" xmlns="http://www.w3.org/2000/svg">
<path d="M540.193 133.598L187.916 337.001V438.703L540.193 235.3L892.47 438.703V337.001L540.193 133.598Z" fill="#759259"/>
<path d="M187.881 438.703V540.405L540.158 337.001L892.435 540.405V438.703L540.158 235.3L187.881 438.703Z" fill="#095A35"/>
<path d="M187.881 540.405V642.107L540.158 438.879L892.435 642.107V540.405L540.158 337.001L187.881 540.405Z" fill="#759259"/>
<path d="M187.881 642.071V743.773L540.158 540.37L892.435 743.773V642.071L540.158 438.844L187.881 642.071Z" fill="#095A35"/>
<path d="M187.881 743.773C187.881 743.773 242.938 775.561 275.959 794.606L540.193 642.071L804.428 794.606L892.506 743.773L540.228 540.369L187.951 743.773H187.881Z" fill="#759259"/>
<path d="M540.193 743.773L716.35 845.475L804.428 794.642L540.193 642.107L275.959 794.642C308.979 813.722 319.998 820.058 364.037 845.475L540.193 743.773Z" fill="#095A35"/>
<path d="M364.037 845.475C408.076 870.891 419.095 877.263 452.115 896.308L540.193 845.475L628.271 896.308L716.35 845.475L540.193 743.773L364.037 845.475Z" fill="#759259"/>
<path d="M628.271 896.343L540.193 845.51L452.115 896.343C485.136 915.423 540.193 947.176 540.193 947.176L628.271 896.343Z" fill="#095A35"/>
<path d="M540.193 133.598V235.3L892.471 438.703V337.001L540.193 133.598Z" fill="#20366A"/>
<path d="M540.193 337.001L892.471 540.405V438.703L540.193 235.3V337.001Z" fill="#4972A3"/>
<path d="M540.193 438.879L892.471 642.107V540.405L540.193 337.001V438.879Z" fill="#20366A"/>
<path d="M540.193 540.405L892.471 743.808V642.107L540.193 438.879V540.405Z" fill="#4972A3"/>
<path d="M540.193 642.071L804.392 794.642L892.471 743.773L540.193 540.405V642.071Z" fill="#20366A"/>
<path d="M540.193 743.773L716.314 845.475L804.392 794.641L540.193 642.071V743.773Z" fill="#4972A3"/>
<path d="M540.193 845.475L628.271 896.343L716.314 845.475L540.193 743.773V845.475Z" fill="#20366A"/>
<path d="M628.271 896.343L540.193 845.475V947.176L628.271 896.343Z" fill="#4972A3"/>
<path d="M285.957 537.166L540.193 390.405L794.43 537.166V435.5L540.193 288.703L285.957 435.5V537.166Z" fill="#F6A71B"/>
<path d="M285.957 638.868L540.193 492.106L794.43 638.868V537.166L540.193 390.405L285.957 537.166V638.868Z" fill="#F1DB0B"/>
<path d="M285.957 638.868L540.193 492.106L794.43 638.868V585.535L540.193 438.879L285.957 585.535V638.868Z" fill="#EE3F2B"/>
<path d="M285.957 740.57L540.193 593.773L794.43 740.57V638.868L540.193 492.106L285.957 638.868V740.57Z" fill="#F6A71B"/>
<path d="M540.193 133.668L892.118 336.861V743.21L540.193 946.402L188.268 743.21V336.861L540.193 133.668ZM540.193 101L160 320.491V759.509L540.193 979L920.386 759.509V320.491L540.193 101.035V101Z" fill="#1B3139"/>
</svg>
