<svg width="150" height="150" viewBox="0 0 150 150" fill="none" xmlns="http://www.w3.org/2000/svg">
<path d="M129.5 78.9001L133.6 37H46V40H130.3L126.5 78.6C125.9 84.6 120.9 89.2 114.8 89.2H43.8L37.1 34.9001C36.4 30.0001 32.2 26.3 27.3 26.3H18.1V29.3H27.3C30.8 29.3 33.7 31.9 34.2 35.3L41.8 96.7C42.6 102.8 47.9 107.5 54 107.5H60.1C58.4 109.2 57.3 111.6 57.3 114.3C57.3 119.6 61.6 123.9 66.9 123.9C72.2 123.9 76.5 119.6 76.5 114.3C76.5 111.7 75.4 109.3 73.7 107.5H96.6C94.9 109.2 93.8 111.6 93.8 114.3C93.8 119.6 98.1 123.9 103.4 123.9C108.7 123.9 113 119.6 113 114.3C113 111.7 111.9 109.3 110.2 107.5H126V104.5H54C49.3 104.5 45.3 101 44.7 96.4001L44.2 92.3H114.8C122.4 92.2001 128.7 86.5 129.5 78.9001ZM66.9 120.8C63.3 120.8 60.3 117.9 60.3 114.2C60.3 110.5 63.2 107.6 66.9 107.6C70.5 107.6 73.5 110.5 73.5 114.2C73.5 117.9 70.5 120.8 66.9 120.8ZM103.3 120.8C99.7 120.8 96.7 117.9 96.7 114.2C96.7 110.5 99.6 107.6 103.3 107.6C106.9 107.6 109.9 110.5 109.9 114.2C109.9 117.9 106.9 120.8 103.3 120.8Z" fill="#FF5F46"/>
<path d="M83.6 45.8V50.6H78.8C74.6 50.6 71.2 54.0001 71.2 58.2001C71.2 62.4001 74.6 65.8001 78.8 65.8001H83.6V75H72.7V78H83.6V83H86.6V78H91.4C95.6 78 99 74.6001 99 70.4001C99 66.2001 95.6 62.8 91.4 62.8H86.6V53.6H97.5V50.6H86.6V45.8H83.6ZM91.3 65.9001C93.8 65.9001 95.9 68 95.9 70.5C95.9 73 93.8 75.1 91.3 75.1H86.5V65.9001H91.3ZM83.6 62.9001H78.8C76.3 62.9001 74.2 60.8 74.2 58.3C74.2 55.7 76.3 53.7001 78.8 53.7001H83.6V62.9001Z" fill="#FF5F46"/>
</svg>
