<svg width="150" height="150" viewBox="0 0 150 150" fill="none" xmlns="http://www.w3.org/2000/svg">
<g clip-path="url(#clip0_5482_2087)">
<path d="M16.7 134.68V120.88H29.79V79.1499" stroke="#FF5F46" stroke-width="3" stroke-miterlimit="3" stroke-linecap="square"/>
<path d="M133.3 66.4502V79.0702L120.21 78.9902V113.14" stroke="#FF5F46" stroke-width="3" stroke-miterlimit="3" stroke-linecap="square"/>
<path d="M133.3 66.4502H16.7V79.1502" stroke="#FF5F46" stroke-width="3" stroke-miterlimit="3" stroke-linecap="square"/>
<path d="M29.79 120.88V78.9902H24.59" stroke="#FF5F46" stroke-width="3" stroke-miterlimit="3" stroke-linecap="square"/>
<path d="M82.71 120.88V78.9902H104.8V120.88" stroke="#FF5F46" stroke-width="3" stroke-miterlimit="3" stroke-linecap="square"/>
<path d="M67.29 120.88V78.9902H45.2V120.88" stroke="#FF5F46" stroke-width="3" stroke-miterlimit="3" stroke-linecap="square"/>
<path d="M29.79 120.88H133.3" stroke="#FF5F46" stroke-width="3" stroke-miterlimit="3" stroke-linecap="square"/>
<path d="M26.22 134.68H133.3V120.88" stroke="#FF5F46" stroke-width="3" stroke-miterlimit="3" stroke-linecap="square"/>
<path d="M120.21 65.2601L75 39.1001L29.79 65.2601" stroke="#FF5F46" stroke-width="3" stroke-miterlimit="3" stroke-linecap="square"/>
<path d="M75 39.1001V18.0801H93.75V29.1801H82.74" stroke="#FF5F46" stroke-width="3" stroke-miterlimit="3" stroke-linecap="square"/>
<path d="M24.4301 65.2602V52.1802H50.1901" stroke="#FF5F46" stroke-width="3" stroke-miterlimit="3" stroke-linecap="square"/>
<path d="M125.57 65.2602V52.1802H99.8101" stroke="#FF5F46" stroke-width="3" stroke-miterlimit="3" stroke-linecap="square"/>
</g>
<defs>
<clipPath id="clip0_5482_2087">
<rect width="150" height="150" fill="white"/>
</clipPath>
</defs>
</svg>
