<svg width="150" height="150" viewBox="0 0 150 150" fill="none" xmlns="http://www.w3.org/2000/svg">
<g clip-path="url(#clip0_1_2231)">
<path d="M16.7 134.68V120.88H29.79V79.1499" stroke="#1B3139" stroke-width="3" stroke-miterlimit="3" stroke-linecap="square"/>
<path d="M133.3 66.45V79.07L120.21 78.99V113.14" stroke="#1B3139" stroke-width="3" stroke-miterlimit="3" stroke-linecap="square"/>
<path d="M133.3 66.45H16.7V79.15" stroke="#1B3139" stroke-width="3" stroke-miterlimit="3" stroke-linecap="square"/>
<path d="M29.79 120.88V78.99H24.59" stroke="#1B3139" stroke-width="3" stroke-miterlimit="3" stroke-linecap="square"/>
<path d="M82.71 120.88V78.99H104.8V120.88" stroke="#1B3139" stroke-width="3" stroke-miterlimit="3" stroke-linecap="square"/>
<path d="M67.29 120.88V78.99H45.2V120.88" stroke="#1B3139" stroke-width="3" stroke-miterlimit="3" stroke-linecap="square"/>
<path d="M29.79 120.88H133.3" stroke="#1B3139" stroke-width="3" stroke-miterlimit="3" stroke-linecap="square"/>
<path d="M26.22 134.68H133.3V120.88" stroke="#1B3139" stroke-width="3" stroke-miterlimit="3" stroke-linecap="square"/>
<path d="M120.21 65.2601L75 39.1001L29.79 65.2601" stroke="#1B3139" stroke-width="3" stroke-miterlimit="3" stroke-linecap="square"/>
<path d="M75 39.1001V18.0801H93.75V29.1801H82.74" stroke="#1B3139" stroke-width="3" stroke-miterlimit="3" stroke-linecap="square"/>
<path d="M24.43 65.2599V52.1799H50.19" stroke="#1B3139" stroke-width="3" stroke-miterlimit="3" stroke-linecap="square"/>
<path d="M125.57 65.2599V52.1799H99.81" stroke="#1B3139" stroke-width="3" stroke-miterlimit="3" stroke-linecap="square"/>
</g>
<defs>
<clipPath id="clip0_1_2231">
<rect width="150" height="150" fill="white"/>
</clipPath>
</defs>
</svg>
