<svg width="876" height="300" viewBox="0 0 876 300" fill="none" xmlns="http://www.w3.org/2000/svg">
<path d="M150 37.5L267.188 121.875H32.8125L150 37.5Z" fill="#FABFBA"/>
<path d="M37.3123 210.939H145.125V210.939C145.125 239.416 122.039 262.501 93.5623 262.501H88.8748C60.3976 262.501 37.3123 239.416 37.3123 210.939V210.939Z" fill="#FF5F46"/>
<path d="M37.3125 146.375H145.125V146.375C145.125 174.852 122.04 197.937 93.5625 197.937H88.875C60.3978 197.937 37.3125 174.852 37.3125 146.375V146.375Z" fill="#FABFBA"/>
<path d="M262.312 197.937L154.5 197.937V197.937C154.5 169.46 177.585 146.375 206.062 146.375L210.75 146.375C239.227 146.375 262.313 169.46 262.312 197.937V197.937Z" fill="#FF5F46"/>
<path d="M262.312 262.5L154.5 262.5V262.5C154.5 234.023 177.585 210.938 206.062 210.938L210.75 210.938C239.227 210.938 262.312 234.023 262.312 262.5V262.5Z" fill="#FABFBA"/>
<path d="M340.501 138V60.72H360.373C369.352 60.72 376.749 62.3024 382.563 65.4672C388.451 68.5584 392.794 73.0112 395.59 78.8256C398.461 84.5664 399.896 91.4848 399.896 99.5808C399.896 107.53 398.461 114.374 395.59 120.115C392.794 125.856 388.451 130.272 382.563 133.363C376.749 136.454 369.352 138 360.373 138H340.501ZM349.774 130.272H360.152C367.586 130.272 373.51 129.058 377.926 126.629C382.342 124.126 385.507 120.594 387.421 116.03C389.334 111.394 390.291 105.91 390.291 99.5808C390.291 93.104 389.334 87.5472 387.421 82.9104C385.507 78.2736 382.342 74.704 377.926 72.2016C373.51 69.6992 367.586 68.448 360.152 68.448H349.774V130.272ZM427.945 139.325C423.529 139.325 419.849 138.515 416.905 136.896C413.961 135.203 411.753 132.995 410.281 130.272C408.809 127.475 408.073 124.494 408.073 121.33C408.073 117.502 409.029 114.264 410.943 111.614C412.93 108.891 415.69 106.83 419.223 105.432C422.756 104.034 426.877 103.334 431.588 103.334H446.05C446.05 99.5808 445.609 96.4528 444.725 93.9504C443.842 91.448 442.407 89.5712 440.42 88.32C438.433 87.0688 435.783 86.4432 432.471 86.4432C429.159 86.4432 426.325 87.2896 423.97 88.9824C421.615 90.6016 420.143 93.0304 419.554 96.2688H410.06C410.501 92.4416 411.789 89.24 413.924 86.664C416.058 84.0144 418.745 82.0272 421.983 80.7024C425.295 79.304 428.791 78.6048 432.471 78.6048C437.697 78.6048 442.002 79.5616 445.388 81.4752C448.773 83.3152 451.276 85.928 452.895 89.3136C454.514 92.6256 455.324 96.5632 455.324 101.126V138H447.044L446.492 128.064C445.756 129.61 444.799 131.082 443.621 132.48C442.517 133.805 441.193 134.982 439.647 136.013C438.101 137.043 436.335 137.853 434.348 138.442C432.434 139.03 430.3 139.325 427.945 139.325ZM429.269 131.486C431.698 131.486 433.943 130.934 436.004 129.83C438.065 128.726 439.831 127.254 441.303 125.414C442.849 123.501 444.026 121.366 444.836 119.011C445.645 116.656 446.05 114.19 446.05 111.614V110.51H432.361C428.901 110.51 426.068 110.952 423.86 111.835C421.725 112.718 420.18 113.97 419.223 115.589C418.266 117.134 417.788 118.901 417.788 120.888C417.788 123.022 418.229 124.899 419.113 126.518C419.996 128.064 421.284 129.278 422.977 130.162C424.743 131.045 426.841 131.486 429.269 131.486ZM488.345 138C485.033 138 482.163 137.485 479.734 136.454C477.305 135.424 475.429 133.694 474.104 131.266C472.853 128.763 472.227 125.414 472.227 121.219V87.768H462.07V79.9296H472.227L473.441 65.4672H481.501V79.9296H497.95V87.768H481.501V121.219C481.501 124.678 482.2 127.034 483.598 128.285C484.997 129.462 487.462 130.051 490.995 130.051H497.729V138H488.345ZM525.467 139.325C521.051 139.325 517.371 138.515 514.427 136.896C511.483 135.203 509.275 132.995 507.803 130.272C506.331 127.475 505.595 124.494 505.595 121.33C505.595 117.502 506.552 114.264 508.466 111.614C510.453 108.891 513.213 106.83 516.746 105.432C520.279 104.034 524.4 103.334 529.111 103.334H543.573C543.573 99.5808 543.131 96.4528 542.248 93.9504C541.365 91.448 539.93 89.5712 537.943 88.32C535.955 87.0688 533.306 86.4432 529.994 86.4432C526.682 86.4432 523.848 87.2896 521.493 88.9824C519.138 90.6016 517.666 93.0304 517.077 96.2688H507.583C508.024 92.4416 509.312 89.24 511.447 86.664C513.581 84.0144 516.267 82.0272 519.506 80.7024C522.818 79.304 526.314 78.6048 529.994 78.6048C535.219 78.6048 539.525 79.5616 542.911 81.4752C546.296 83.3152 548.799 85.928 550.418 89.3136C552.037 92.6256 552.847 96.5632 552.847 101.126V138H544.567L544.015 128.064C543.279 129.61 542.322 131.082 541.144 132.48C540.04 133.805 538.715 134.982 537.17 136.013C535.624 137.043 533.858 137.853 531.871 138.442C529.957 139.03 527.823 139.325 525.467 139.325ZM526.792 131.486C529.221 131.486 531.466 130.934 533.527 129.83C535.587 128.726 537.354 127.254 538.826 125.414C540.371 123.501 541.549 121.366 542.359 119.011C543.168 116.656 543.573 114.19 543.573 111.614V110.51H529.883C526.424 110.51 523.591 110.952 521.383 111.835C519.248 112.718 517.703 113.97 516.746 115.589C515.789 117.134 515.311 118.901 515.311 120.888C515.311 123.022 515.752 124.899 516.635 126.518C517.519 128.064 518.807 129.278 520.499 130.162C522.266 131.045 524.363 131.486 526.792 131.486ZM593.781 139.325C590.248 139.325 587.194 138.81 584.618 137.779C582.115 136.675 579.981 135.314 578.214 133.694C576.522 132.075 575.123 130.493 574.019 128.947L573.246 138H564.856V58.512H574.13V89.0928C575.896 85.6336 578.509 83.0208 581.968 81.2544C585.427 79.488 589.291 78.6048 593.56 78.6048C598.859 78.6048 603.496 79.8928 607.47 82.4688C611.445 85.0448 614.536 88.6144 616.744 93.1776C618.952 97.6672 620.056 102.856 620.056 108.744C620.056 114.558 618.952 119.784 616.744 124.421C614.536 129.058 611.445 132.701 607.47 135.35C603.57 138 599.006 139.325 593.781 139.325ZM592.566 131.266C596.026 131.266 599.08 130.382 601.73 128.616C604.453 126.776 606.587 124.2 608.133 120.888C609.752 117.502 610.562 113.528 610.562 108.965C610.562 104.402 609.752 100.464 608.133 97.152C606.587 93.7664 604.453 91.1904 601.73 89.424C599.08 87.584 596.026 86.664 592.566 86.664C588.886 86.664 585.685 87.584 582.962 89.424C580.238 91.1904 578.141 93.7664 576.669 97.152C575.197 100.464 574.461 104.402 574.461 108.965C574.461 113.528 575.197 117.502 576.669 120.888C578.141 124.2 580.238 126.776 582.962 128.616C585.685 130.382 588.886 131.266 592.566 131.266ZM630.221 138V79.9296H638.611L639.273 90.528C640.598 87.8784 642.328 85.6704 644.462 83.904C646.597 82.1376 649.173 80.8128 652.19 79.9296C655.281 79.0464 658.741 78.6048 662.568 78.6048V88.32H656.827C654.619 88.32 652.485 88.6144 650.424 89.2032C648.363 89.792 646.486 90.7488 644.793 92.0736C643.174 93.3984 641.886 95.2016 640.929 97.4832C639.973 99.7648 639.494 102.635 639.494 106.094V138H630.221ZM670.809 138V79.9296H680.083V138H670.809ZM675.446 68.8896C673.606 68.8896 672.06 68.3008 670.809 67.1232C669.631 65.872 669.043 64.3264 669.043 62.4864C669.043 60.6464 669.631 59.1744 670.809 58.0704C672.06 56.8928 673.606 56.304 675.446 56.304C677.212 56.304 678.721 56.8928 679.972 58.0704C681.223 59.1744 681.849 60.6464 681.849 62.4864C681.849 64.3264 681.223 65.872 679.972 67.1232C678.721 68.3008 677.212 68.8896 675.446 68.8896ZM718.304 139.325C713.005 139.325 708.295 138.074 704.173 135.571C700.051 132.995 696.813 129.426 694.458 124.862C692.103 120.299 690.925 115 690.925 108.965C690.925 102.856 692.103 97.5568 694.458 93.0672C696.813 88.504 700.051 84.9712 704.173 82.4688C708.295 79.8928 713.005 78.6048 718.304 78.6048C724.928 78.6048 730.448 80.3712 734.864 83.904C739.354 87.4368 742.224 92.184 743.475 98.1456H733.981C733.171 94.4656 731.295 91.632 728.351 89.6448C725.48 87.584 722.095 86.5536 718.194 86.5536C714.808 86.5536 711.754 87.4 709.031 89.0928C706.381 90.7856 704.283 93.288 702.738 96.6C701.192 99.912 700.419 104.034 700.419 108.965C700.419 112.645 700.861 115.92 701.744 118.79C702.627 121.587 703.842 123.942 705.387 125.856C707.007 127.696 708.883 129.094 711.018 130.051C713.226 131.008 715.618 131.486 718.194 131.486C720.843 131.486 723.235 131.045 725.37 130.162C727.578 129.205 729.418 127.843 730.89 126.077C732.435 124.31 733.466 122.213 733.981 119.784H743.475C742.298 125.598 739.427 130.309 734.864 133.915C730.375 137.522 724.855 139.325 718.304 139.325ZM787.762 138L761.377 106.646L786.217 79.9296H797.588L769.215 109.958L769.325 103.334L799.575 138H787.762ZM753.649 138V58.512H762.922V138H753.649ZM823.817 139.325C818.592 139.325 814.249 138.552 810.79 137.006C807.405 135.387 804.829 133.179 803.062 130.382C801.296 127.512 800.229 124.2 799.861 120.446H809.355C809.649 122.434 810.312 124.274 811.342 125.966C812.446 127.586 814.029 128.91 816.089 129.941C818.15 130.971 820.763 131.486 823.928 131.486C826.43 131.486 828.565 131.118 830.331 130.382C832.097 129.573 833.422 128.469 834.305 127.07C835.262 125.672 835.741 124.053 835.741 122.213C835.741 119.784 835.189 117.907 834.085 116.582C833.054 115.184 831.509 114.154 829.448 113.491C827.461 112.755 824.958 112.203 821.941 111.835C818.702 111.394 815.832 110.768 813.329 109.958C810.827 109.149 808.693 108.082 806.926 106.757C805.233 105.432 803.945 103.776 803.062 101.789C802.179 99.8016 801.737 97.4464 801.737 94.7232C801.737 91.5584 802.584 88.7616 804.277 86.3328C805.969 83.904 808.361 82.0272 811.453 80.7024C814.617 79.304 818.334 78.6048 822.603 78.6048C828.859 78.6048 833.79 80.04 837.397 82.9104C841.077 85.7808 843.248 89.8656 843.91 95.1648H834.747C834.379 92.4416 833.128 90.3072 830.993 88.7616C828.859 87.216 826.025 86.4432 822.493 86.4432C818.739 86.4432 815.905 87.1424 813.992 88.5408C812.078 89.9392 811.121 91.7792 811.121 94.0608C811.121 95.7536 811.526 97.2992 812.336 98.6976C813.219 100.022 814.691 101.163 816.752 102.12C818.813 103.003 821.573 103.666 825.032 104.107C829.374 104.622 833.054 105.469 836.072 106.646C839.089 107.75 841.371 109.48 842.917 111.835C844.536 114.19 845.309 117.392 845.235 121.44C845.235 125.267 844.315 128.506 842.475 131.155C840.709 133.805 838.206 135.829 834.968 137.227C831.803 138.626 828.086 139.325 823.817 139.325ZM339.838 237V159.72H353.086V226.622H387.531V237H339.838ZM415.223 238.325C410.659 238.325 406.869 237.552 403.851 236.006C400.834 234.461 398.589 232.4 397.117 229.824C395.645 227.248 394.909 224.451 394.909 221.434C394.909 217.901 395.792 214.846 397.559 212.27C399.399 209.694 402.085 207.707 405.618 206.309C409.151 204.837 413.493 204.101 418.645 204.101H432.666C432.666 201.157 432.261 198.728 431.451 196.814C430.642 194.827 429.391 193.355 427.698 192.398C426.005 191.442 423.834 190.963 421.184 190.963C418.167 190.963 415.591 191.662 413.456 193.061C411.322 194.386 409.997 196.446 409.482 199.243H396.455C396.896 195.269 398.221 191.883 400.429 189.086C402.637 186.216 405.544 184.008 409.151 182.462C412.831 180.843 416.842 180.034 421.184 180.034C426.41 180.034 430.863 180.954 434.543 182.794C438.223 184.56 441.019 187.136 442.933 190.522C444.92 193.834 445.914 197.845 445.914 202.555V237H434.653L433.328 228.058C432.592 229.53 431.635 230.891 430.458 232.142C429.354 233.394 428.066 234.498 426.594 235.454C425.122 236.338 423.429 237.037 421.515 237.552C419.675 238.067 417.578 238.325 415.223 238.325ZM418.203 227.837C420.338 227.837 422.215 227.469 423.834 226.733C425.527 225.923 426.962 224.819 428.139 223.421C429.391 221.949 430.347 220.33 431.01 218.563C431.672 216.797 432.114 214.92 432.335 212.933V212.712H420.08C417.504 212.712 415.37 213.043 413.677 213.706C411.984 214.294 410.77 215.178 410.034 216.355C409.298 217.533 408.93 218.894 408.93 220.44C408.93 221.986 409.298 223.31 410.034 224.414C410.77 225.518 411.837 226.365 413.235 226.954C414.634 227.542 416.29 227.837 418.203 227.837ZM492.637 237L468.018 206.53L490.098 181.358H505.885L478.396 211.939V201.672L509.197 237H492.637ZM456.757 237V157.512H470.005V237H456.757ZM536.425 238.325C530.905 238.325 526.047 237.147 521.852 234.792C517.657 232.363 514.381 228.978 512.026 224.635C509.671 220.293 508.493 215.288 508.493 209.621C508.493 203.733 509.634 198.581 511.916 194.165C514.271 189.749 517.546 186.29 521.741 183.787C526.01 181.285 530.941 180.034 536.535 180.034C541.981 180.034 546.729 181.248 550.777 183.677C554.825 186.106 557.953 189.381 560.161 193.502C562.369 197.55 563.473 202.114 563.473 207.192C563.473 207.928 563.473 208.738 563.473 209.621C563.473 210.504 563.399 211.424 563.252 212.381H517.988V203.88H550.114C549.967 199.832 548.605 196.667 546.029 194.386C543.453 192.03 540.252 190.853 536.425 190.853C533.701 190.853 531.199 191.478 528.917 192.73C526.636 193.981 524.833 195.858 523.508 198.36C522.183 200.789 521.521 203.88 521.521 207.634V210.835C521.521 214.294 522.146 217.275 523.397 219.778C524.722 222.28 526.489 224.194 528.697 225.518C530.978 226.77 533.517 227.395 536.314 227.395C539.405 227.395 541.945 226.733 543.932 225.408C545.993 224.083 547.501 222.317 548.458 220.109H561.927C560.897 223.568 559.204 226.696 556.849 229.493C554.493 232.216 551.586 234.387 548.127 236.006C544.668 237.552 540.767 238.325 536.425 238.325ZM572.393 237V157.512H585.641V189.97C587.481 186.952 589.983 184.56 593.148 182.794C596.313 180.954 599.882 180.034 603.857 180.034C608.42 180.034 612.284 180.99 615.449 182.904C618.613 184.744 621.005 187.504 622.625 191.184C624.317 194.79 625.164 199.317 625.164 204.763V237H612.026V205.978C612.026 201.194 610.996 197.55 608.935 195.048C606.948 192.546 603.893 191.294 599.772 191.294C597.122 191.294 594.73 191.957 592.596 193.282C590.461 194.533 588.769 196.373 587.517 198.802C586.266 201.157 585.641 204.064 585.641 207.523V237H572.393ZM661.868 238.325C656.569 238.325 651.785 237.11 647.516 234.682C643.321 232.179 640.009 228.757 637.58 224.414C635.225 219.998 634.047 214.957 634.047 209.29C634.047 203.475 635.262 198.397 637.691 194.054C640.119 189.638 643.431 186.216 647.627 183.787C651.895 181.285 656.679 180.034 661.979 180.034C667.278 180.034 672.025 181.285 676.22 183.787C680.489 186.216 683.801 189.602 686.156 193.944C688.585 198.286 689.799 203.365 689.799 209.179C689.799 214.994 688.585 220.072 686.156 224.414C683.727 228.757 680.379 232.179 676.11 234.682C671.915 237.11 667.167 238.325 661.868 238.325ZM661.868 226.954C664.518 226.954 666.91 226.291 669.044 224.966C671.252 223.642 673.019 221.654 674.343 219.005C675.668 216.355 676.331 213.08 676.331 209.179C676.331 205.278 675.668 202.04 674.343 199.464C673.092 196.814 671.363 194.827 669.155 193.502C667.02 192.178 664.628 191.515 661.979 191.515C659.403 191.515 657.011 192.178 654.803 193.502C652.595 194.827 650.828 196.814 649.503 199.464C648.179 202.04 647.516 205.278 647.516 209.179C647.516 213.08 648.179 216.355 649.503 219.005C650.828 221.654 652.558 223.642 654.692 224.966C656.9 226.291 659.292 226.954 661.868 226.954ZM720.101 238.325C715.611 238.325 711.747 237.442 708.509 235.675C705.344 233.835 702.915 231.112 701.222 227.506C699.53 223.826 698.683 219.299 698.683 213.926V181.358H711.931V212.602C711.931 217.386 712.925 221.029 714.912 223.531C716.973 225.96 720.064 227.174 724.186 227.174C726.835 227.174 729.19 226.549 731.251 225.298C733.386 224.046 735.042 222.243 736.219 219.888C737.47 217.459 738.096 214.515 738.096 211.056V181.358H751.344V237H739.642L738.648 227.726C736.955 230.965 734.49 233.541 731.251 235.454C728.086 237.368 724.37 238.325 720.101 238.325ZM784.963 238.325C780.031 238.325 775.726 237.552 772.046 236.006C768.439 234.387 765.569 232.179 763.435 229.382C761.374 226.512 760.159 223.237 759.791 219.557H773.039C773.407 221.102 774.07 222.538 775.027 223.862C775.983 225.114 777.271 226.107 778.891 226.843C780.583 227.579 782.571 227.947 784.852 227.947C787.06 227.947 788.863 227.653 790.262 227.064C791.66 226.402 792.691 225.555 793.353 224.525C794.015 223.494 794.347 222.39 794.347 221.213C794.347 219.446 793.868 218.085 792.911 217.128C791.955 216.171 790.556 215.435 788.716 214.92C786.95 214.331 784.815 213.779 782.313 213.264C779.663 212.749 777.087 212.123 774.585 211.387C772.156 210.578 769.948 209.584 767.961 208.406C766.047 207.229 764.502 205.72 763.324 203.88C762.22 202.04 761.668 199.795 761.668 197.146C761.668 193.907 762.515 191 764.207 188.424C765.974 185.848 768.476 183.824 771.715 182.352C775.027 180.806 778.964 180.034 783.527 180.034C790.004 180.034 795.156 181.542 798.983 184.56C802.884 187.504 805.166 191.662 805.828 197.035H793.243C792.875 194.974 791.844 193.392 790.151 192.288C788.459 191.11 786.214 190.522 783.417 190.522C780.547 190.522 778.339 191.074 776.793 192.178C775.321 193.208 774.585 194.606 774.585 196.373C774.585 197.477 775.027 198.507 775.91 199.464C776.867 200.347 778.228 201.12 779.995 201.782C781.761 202.371 783.932 202.96 786.508 203.549C790.63 204.358 794.273 205.315 797.438 206.419C800.603 207.523 803.105 209.142 804.945 211.277C806.785 213.411 807.705 216.429 807.705 220.33C807.779 223.862 806.859 226.99 804.945 229.714C803.105 232.437 800.492 234.571 797.107 236.117C793.721 237.589 789.673 238.325 784.963 238.325ZM843.302 238.325C837.782 238.325 832.924 237.147 828.729 234.792C824.534 232.363 821.259 228.978 818.904 224.635C816.548 220.293 815.371 215.288 815.371 209.621C815.371 203.733 816.512 198.581 818.793 194.165C821.148 189.749 824.424 186.29 828.619 183.787C832.888 181.285 837.819 180.034 843.412 180.034C848.859 180.034 853.606 181.248 857.654 183.677C861.702 186.106 864.83 189.381 867.038 193.502C869.246 197.55 870.35 202.114 870.35 207.192C870.35 207.928 870.35 208.738 870.35 209.621C870.35 210.504 870.276 211.424 870.129 212.381H824.865V203.88H856.992C856.844 199.832 855.483 196.667 852.907 194.386C850.331 192.03 847.129 190.853 843.302 190.853C840.579 190.853 838.076 191.478 835.795 192.73C833.513 193.981 831.71 195.858 830.385 198.36C829.06 200.789 828.398 203.88 828.398 207.634V210.835C828.398 214.294 829.024 217.275 830.275 219.778C831.6 222.28 833.366 224.194 835.574 225.518C837.856 226.77 840.395 227.395 843.192 227.395C846.283 227.395 848.822 226.733 850.809 225.408C852.87 224.083 854.379 222.317 855.336 220.109H868.804C867.774 223.568 866.081 226.696 863.726 229.493C861.371 232.216 858.464 234.387 855.004 236.006C851.545 237.552 847.644 238.325 843.302 238.325Z" fill="white"/>
</svg>
