<svg width="150" height="150" viewBox="0 0 150 150" fill="none" xmlns="http://www.w3.org/2000/svg">
<g clip-path="url(#clip0_1_2264)">
<path d="M90.4 128.29H87.87C83.94 128.29 80.76 125.11 80.76 121.18V105.78H96.35C101.85 105.78 106.31 101.32 106.31 95.82V80.23H121.71C125.64 80.23 128.82 83.41 128.82 87.34V89.87" stroke="#1B3139" stroke-width="3" stroke-miterlimit="3" stroke-linecap="square"/>
<path d="M59.6 128.29H62.13C66.06 128.29 69.24 125.11 69.24 121.18V105.78H53.65C48.15 105.78 43.69 101.32 43.69 95.82V80.23H28.29C24.36 80.23 21.18 83.41 21.18 87.34V89.87" stroke="#1B3139" stroke-width="3" stroke-miterlimit="3" stroke-linecap="square"/>
<path d="M59.6 20.6699H62.13C66.06 20.6699 69.24 23.8499 69.24 27.7799V43.1799H53.65C48.15 43.1799 43.69 47.6399 43.69 53.1399V68.7299H28.29C24.36 68.7299 21.18 65.5499 21.18 61.6199V59.0899" stroke="#1B3139" stroke-width="3" stroke-miterlimit="3" stroke-linecap="square"/>
<path d="M55.38 26.7499C53.98 27.9499 52.17 28.6699 50.18 28.6699C45.76 28.6699 42.18 25.0899 42.18 20.6699C42.18 16.2499 45.76 12.6699 50.18 12.6699C54.6 12.6699 58.18 16.2499 58.18 20.6699" stroke="#1B3139" stroke-width="3" stroke-miterlimit="3" stroke-linecap="square"/>
<path d="M93.2 14.5899C94.6 13.3899 96.41 12.6699 98.4 12.6699C102.82 12.6699 106.4 16.2499 106.4 20.6699C106.4 25.0899 102.82 28.6699 98.4 28.6699C93.98 28.6699 90.4 25.0899 90.4 20.6699" stroke="#1B3139" stroke-width="3" stroke-miterlimit="3" stroke-linecap="square"/>
<path d="M93.2 122.21C94.6 121.01 96.41 120.29 98.4 120.29C102.82 120.29 106.4 123.87 106.4 128.29C106.4 132.71 102.82 136.29 98.4 136.29C93.98 136.29 90.4 132.71 90.4 128.29" stroke="#1B3139" stroke-width="3" stroke-miterlimit="3" stroke-linecap="square"/>
<path d="M55.38 134.38C53.98 135.58 52.17 136.3 50.18 136.3C45.76 136.3 42.18 132.72 42.18 128.3C42.18 123.88 45.76 120.3 50.18 120.3C54.6 120.3 58.18 123.88 58.18 128.3" stroke="#1B3139" stroke-width="3" stroke-miterlimit="3" stroke-linecap="square"/>
<path d="M122.73 56.2801C121.53 54.8801 120.81 53.0701 120.81 51.0801C120.81 46.6601 124.39 43.0801 128.81 43.0801C133.23 43.0801 136.81 46.6601 136.81 51.0801C136.81 55.5001 133.23 59.0801 128.81 59.0801" stroke="#1B3139" stroke-width="3" stroke-miterlimit="3" stroke-linecap="square"/>
<path d="M134.9 94.1C136.1 95.5 136.82 97.31 136.82 99.3C136.82 103.72 133.24 107.3 128.82 107.3C124.4 107.3 120.82 103.72 120.82 99.3C120.82 94.88 124.4 91.3 128.82 91.3" stroke="#1B3139" stroke-width="3" stroke-miterlimit="3" stroke-linecap="square"/>
<path d="M27.27 94.1C28.47 95.5 29.19 97.31 29.19 99.3C29.19 103.72 25.61 107.3 21.19 107.3C16.77 107.3 13.19 103.72 13.19 99.3C13.19 94.88 16.77 91.3 21.19 91.3" stroke="#1B3139" stroke-width="3" stroke-miterlimit="3" stroke-linecap="square"/>
<path d="M15.1 56.2801C13.9 54.8801 13.18 53.0701 13.18 51.0801C13.18 46.6601 16.76 43.0801 21.18 43.0801C25.6 43.0801 29.18 46.6601 29.18 51.0801C29.18 55.5001 25.6 59.0801 21.18 59.0801" stroke="#1B3139" stroke-width="3" stroke-miterlimit="3" stroke-linecap="square"/>
<path d="M90.4 20.6699H87.87C83.94 20.6699 80.76 23.8499 80.76 27.7799V43.1799H96.35C101.85 43.1799 106.31 47.6399 106.31 53.1399V68.7299H121.71C125.64 68.7299 128.82 65.5499 128.82 61.6199V59.0899" stroke="#1B3139" stroke-width="3" stroke-miterlimit="3" stroke-linecap="square"/>
<path d="M106.29 68.7299H91.82V64.1799C91.82 60.8699 89.13 58.1799 85.82 58.1799H64.18C60.87 58.1799 58.18 60.8699 58.18 64.1799V68.5399" stroke="#1B3139" stroke-width="3" stroke-miterlimit="3" stroke-linecap="square"/>
<path d="M91.82 85.82C91.82 89.13 89.13 91.82 85.82 91.82H64.18C60.87 91.82 58.18 89.13 58.18 85.82V80.23H43.71" stroke="#1B3139" stroke-width="3" stroke-miterlimit="3" stroke-linecap="square"/>
<path d="M91.82 80.0801V84.4401" stroke="#1B3139" stroke-width="3" stroke-miterlimit="3" stroke-linecap="square"/>
</g>
<defs>
<clipPath id="clip0_1_2264">
<rect width="150" height="150" fill="white"/>
</clipPath>
</defs>
</svg>
