<svg width="150" height="150" viewBox="0 0 150 150" fill="none" xmlns="http://www.w3.org/2000/svg">
<g clip-path="url(#clip0_5483_2180)">
<path d="M90.4 128.29H87.87C83.94 128.29 80.76 125.11 80.76 121.18V105.78H96.35C101.85 105.78 106.31 101.32 106.31 95.82V80.23H121.71C125.64 80.23 128.82 83.41 128.82 87.34V89.87" stroke="#FF5F46" stroke-width="3" stroke-miterlimit="3" stroke-linecap="square"/>
<path d="M59.6001 128.29H62.1301C66.0601 128.29 69.2401 125.11 69.2401 121.18V105.78H53.6501C48.1501 105.78 43.6901 101.32 43.6901 95.82V80.23H28.2901C24.3601 80.23 21.1801 83.41 21.1801 87.34V89.87" stroke="#FF5F46" stroke-width="3" stroke-miterlimit="3" stroke-linecap="square"/>
<path d="M59.6001 20.6699H62.1301C66.0601 20.6699 69.2401 23.8499 69.2401 27.7799V43.1799H53.6501C48.1501 43.1799 43.6901 47.6399 43.6901 53.1399V68.7299H28.2901C24.3601 68.7299 21.1801 65.5499 21.1801 61.6199V59.0899" stroke="#FF5F46" stroke-width="3" stroke-miterlimit="3" stroke-linecap="square"/>
<path d="M55.3801 26.7499C53.9801 27.9499 52.1701 28.6699 50.1801 28.6699C45.7601 28.6699 42.1801 25.0899 42.1801 20.6699C42.1801 16.2499 45.7601 12.6699 50.1801 12.6699C54.6001 12.6699 58.1801 16.2499 58.1801 20.6699" stroke="#FF5F46" stroke-width="3" stroke-miterlimit="3" stroke-linecap="square"/>
<path d="M93.2 14.5899C94.6 13.3899 96.41 12.6699 98.4 12.6699C102.82 12.6699 106.4 16.2499 106.4 20.6699C106.4 25.0899 102.82 28.6699 98.4 28.6699C93.98 28.6699 90.4 25.0899 90.4 20.6699" stroke="#FF5F46" stroke-width="3" stroke-miterlimit="3" stroke-linecap="square"/>
<path d="M93.2 122.21C94.6 121.01 96.41 120.29 98.4 120.29C102.82 120.29 106.4 123.87 106.4 128.29C106.4 132.71 102.82 136.29 98.4 136.29C93.98 136.29 90.4 132.71 90.4 128.29" stroke="#FF5F46" stroke-width="3" stroke-miterlimit="3" stroke-linecap="square"/>
<path d="M55.3801 134.38C53.9801 135.58 52.1701 136.3 50.1801 136.3C45.7601 136.3 42.1801 132.72 42.1801 128.3C42.1801 123.88 45.7601 120.3 50.1801 120.3C54.6001 120.3 58.1801 123.88 58.1801 128.3" stroke="#FF5F46" stroke-width="3" stroke-miterlimit="3" stroke-linecap="square"/>
<path d="M122.73 56.2801C121.53 54.8801 120.81 53.0701 120.81 51.0801C120.81 46.6601 124.39 43.0801 128.81 43.0801C133.23 43.0801 136.81 46.6601 136.81 51.0801C136.81 55.5001 133.23 59.0801 128.81 59.0801" stroke="#FF5F46" stroke-width="3" stroke-miterlimit="3" stroke-linecap="square"/>
<path d="M134.9 94.0998C136.1 95.4998 136.82 97.3098 136.82 99.2998C136.82 103.72 133.24 107.3 128.82 107.3C124.4 107.3 120.82 103.72 120.82 99.2998C120.82 94.8798 124.4 91.2998 128.82 91.2998" stroke="#FF5F46" stroke-width="3" stroke-miterlimit="3" stroke-linecap="square"/>
<path d="M27.2699 94.0998C28.4699 95.4998 29.1899 97.3098 29.1899 99.2998C29.1899 103.72 25.6099 107.3 21.1899 107.3C16.7699 107.3 13.1899 103.72 13.1899 99.2998C13.1899 94.8798 16.7699 91.2998 21.1899 91.2998" stroke="#FF5F46" stroke-width="3" stroke-miterlimit="3" stroke-linecap="square"/>
<path d="M15.1001 56.2801C13.9001 54.8801 13.1801 53.0701 13.1801 51.0801C13.1801 46.6601 16.7601 43.0801 21.1801 43.0801C25.6001 43.0801 29.1801 46.6601 29.1801 51.0801C29.1801 55.5001 25.6001 59.0801 21.1801 59.0801" stroke="#FF5F46" stroke-width="3" stroke-miterlimit="3" stroke-linecap="square"/>
<path d="M90.4 20.6699H87.87C83.94 20.6699 80.76 23.8499 80.76 27.7799V43.1799H96.35C101.85 43.1799 106.31 47.6399 106.31 53.1399V68.7299H121.71C125.64 68.7299 128.82 65.5499 128.82 61.6199V59.0899" stroke="#FF5F46" stroke-width="3" stroke-miterlimit="3" stroke-linecap="square"/>
<path d="M106.29 68.7302H91.8201V64.1802C91.8201 60.8702 89.1301 58.1802 85.8201 58.1802H64.1801C60.8701 58.1802 58.1801 60.8702 58.1801 64.1802V68.5402" stroke="#FF5F46" stroke-width="3" stroke-miterlimit="3" stroke-linecap="square"/>
<path d="M91.82 85.82C91.82 89.13 89.13 91.82 85.82 91.82H64.18C60.87 91.82 58.18 89.13 58.18 85.82V80.23H43.71" stroke="#FF5F46" stroke-width="3" stroke-miterlimit="3" stroke-linecap="square"/>
<path d="M91.8199 80.0801V84.4401" stroke="#FF5F46" stroke-width="3" stroke-miterlimit="3" stroke-linecap="square"/>
</g>
<defs>
<clipPath id="clip0_5483_2180">
<rect width="150" height="150" fill="white"/>
</clipPath>
</defs>
</svg>
