<svg width="150" height="150" viewBox="0 0 150 150" fill="none" xmlns="http://www.w3.org/2000/svg">
<path d="M76.5 136.77V128.1C90.0458 127.69 102.923 122.118 112.496 112.526C122.07 102.934 127.616 90.0466 128 76.5H136.73V73.5H128C127.596 59.9693 122.04 47.1037 112.468 37.5318C102.896 27.9599 90.0306 22.4043 76.5 22V13.2H73.5V22C59.9694 22.4043 47.1037 27.9599 37.5319 37.5318C27.96 47.1037 22.4043 59.9693 22 73.5H13.23V76.5H22C22.3817 90.0473 27.927 102.937 37.501 112.529C47.075 122.122 59.9534 127.692 73.5 128.1V128.1V136.77H76.5ZM73.5 125.09C60.7482 124.691 48.6294 119.44 39.6165 110.411C30.6035 101.381 25.3758 89.2525 25 76.5H33.56V73.5H25C25.3983 60.7632 30.6359 48.6571 39.6465 39.6465C48.6572 30.6359 60.7633 25.3982 73.5 25V25V33.5H76.5V25C89.2359 25.4006 101.341 30.639 110.351 39.6491C119.361 48.6593 124.599 60.764 125 73.5H116.43V76.5H125C124.622 89.2517 119.393 101.379 110.381 110.408C101.368 119.437 89.251 124.688 76.5 125.09V116.46H73.5V125.09Z" fill="#1B3139"/>
<path d="M44.89 96.35C44.4486 95.5999 44.2158 94.7454 44.2158 93.875C44.2158 93.0047 44.4486 92.1501 44.89 91.4L70.72 46.67C71.1485 45.9135 71.771 45.2848 72.5233 44.8489C73.2756 44.413 74.1305 44.1856 75 44.19V44.19C75.8707 44.1859 76.7269 44.4133 77.4808 44.8491C78.2347 45.2849 78.8591 45.9134 79.29 46.67L105.11 91.4C105.53 92.1552 105.747 93.0064 105.74 93.8706C105.733 94.7348 105.503 95.5824 105.071 96.3308C104.638 97.0792 104.02 97.7028 103.275 98.1408C102.53 98.5788 101.684 98.8163 100.82 98.83H78.23V101.83H100.82C102.211 101.816 103.574 101.441 104.775 100.739C105.976 100.038 106.974 99.0358 107.67 97.8314C108.365 96.6269 108.735 95.2619 108.742 93.871C108.749 92.4802 108.393 91.1115 107.71 89.9L81.89 45.17C81.1997 43.9519 80.1978 42.9395 78.9869 42.2365C77.7761 41.5336 76.4001 41.1655 75 41.17V41.17C73.6008 41.1631 72.2252 41.5303 71.0155 42.2335C69.8059 42.9368 68.8062 43.9506 68.12 45.17L42.29 89.9C41.6067 91.1115 41.251 92.4802 41.258 93.871C41.2651 95.2619 41.6347 96.6269 42.3303 97.8314C43.0259 99.0358 44.0235 100.038 45.2247 100.739C46.4259 101.441 47.7892 101.816 49.18 101.83H71.77V98.83H49.18C48.309 98.8352 47.4524 98.6082 46.6984 98.1723C45.9444 97.7364 45.3201 97.1074 44.89 96.35V96.35Z" fill="#1B3139"/>
<path d="M76.5 56.5601H73.5V83.2601H76.5V56.5601Z" fill="#1B3139"/>
<path d="M77.47 89C77.4799 88.5095 77.3436 88.0271 77.0783 87.6144C76.813 87.2017 76.4308 86.8773 75.9804 86.6827C75.53 86.488 75.0319 86.4319 74.5495 86.5215C74.0671 86.6111 73.6224 86.8423 73.2719 87.1857C72.9214 87.529 72.6812 87.969 72.5818 88.4494C72.4823 88.9299 72.5282 89.429 72.7136 89.8833C72.899 90.3376 73.2155 90.7263 73.6227 91C74.0299 91.2737 74.5094 91.4199 75 91.42C75.6457 91.4176 76.2651 91.1634 76.7263 90.7115C77.1876 90.2595 77.4544 89.6455 77.47 89V89Z" fill="#1B3139"/>
</svg>
