<svg xmlns="http://www.w3.org/2000/svg" viewBox="0 0 220.75 36.39"><defs><style>.cls-1,.cls-2{fill:#fff;}.cls-2{fill-rule:evenodd;}</style></defs><g id="Layer_2" data-name="Layer 2"><g id="Layer_1-2" data-name="Layer 1"><path class="cls-1" d="M48.81,25.5V10.91a.51.51,0,0,1,.15-.36.5.5,0,0,1,.36-.16H55.1a7.67,7.67,0,0,1,5.45,2,7,7,0,0,1,1.75,2.53,9.61,9.61,0,0,1,0,6.63,6.7,6.7,0,0,1-1.75,2.53,7.06,7.06,0,0,1-2.41,1.45,8.57,8.57,0,0,1-3,.5H49.35a.52.52,0,0,1-.36-.16A.38.38,0,0,1,48.81,25.5Zm4.7-3.41H55.1a5.09,5.09,0,0,0,1.24-.16,2.69,2.69,0,0,0,1.13-.57,3.53,3.53,0,0,0,.85-1.16,5.46,5.46,0,0,0,.33-2,4.74,4.74,0,0,0-.33-2,3.11,3.11,0,0,0-.85-1.17,2.81,2.81,0,0,0-1.13-.57,5.2,5.2,0,0,0-1.21-.15H53.51a.51.51,0,0,0-.51.51V21.6a.48.48,0,0,0,.15.36A.51.51,0,0,0,53.51,22.09Z"/><path class="cls-1" d="M68.93,14.84v.91a.51.51,0,0,0,.15.36.52.52,0,0,0,.36.16h5.73a.51.51,0,0,1,.51.51v2.95a.55.55,0,0,1-.15.37.51.51,0,0,1-.36.15H69.44a.48.48,0,0,0-.36.16.51.51,0,0,0-.15.36v.8a.46.46,0,0,0,.15.36.48.48,0,0,0,.36.16H76a.53.53,0,0,1,.36.15.55.55,0,0,1,.15.37v2.95a.49.49,0,0,1-.15.36.53.53,0,0,1-.36.15H65.25a.51.51,0,0,1-.51-.51V10.91a.51.51,0,0,1,.15-.36.5.5,0,0,1,.36-.16H76a.5.5,0,0,1,.36.16.51.51,0,0,1,.15.36v2.9a.48.48,0,0,1-.15.36.53.53,0,0,1-.36.15H69.44a.52.52,0,0,0-.36.16A.39.39,0,0,0,68.93,14.84Z"/><path class="cls-1" d="M90.77,22.61V25.5a.53.53,0,0,1-.52.52H79.69a.45.45,0,0,1-.36-.15.53.53,0,0,1-.13-.37V10.91a.66.66,0,0,1,.13-.36.46.46,0,0,1,.36-.16h3.19a.5.5,0,0,1,.36.16.51.51,0,0,1,.15.36V21.57a.53.53,0,0,0,.13.36.45.45,0,0,0,.36.16h6.37a.53.53,0,0,1,.52.52Z"/><path class="cls-1" d="M100.61,14.32h-3a.52.52,0,0,0-.36.16.51.51,0,0,0-.15.36V25.5a.57.57,0,0,1-.13.37.48.48,0,0,1-.36.15H93.46a.53.53,0,0,1-.36-.15A.55.55,0,0,1,93,25.5V14.84a.59.59,0,0,0-.13-.36.47.47,0,0,0-.36-.16h-3a.46.46,0,0,1-.36-.15.48.48,0,0,1-.16-.36v-2.9a.48.48,0,0,1,.16-.36.44.44,0,0,1,.36-.16h11.17a.41.41,0,0,1,.36.16.49.49,0,0,1,.13.36v2.9a.55.55,0,0,1-.13.36A.52.52,0,0,1,100.61,14.32Z"/><path class="cls-1" d="M105.67,10.88a.79.79,0,0,1,.28-.33.64.64,0,0,1,.44-.13h3a.82.82,0,0,1,.41.13.9.9,0,0,1,.29.33l6.19,14.49a.49.49,0,0,1,0,.42.5.5,0,0,1-.46.21h-3.62a.94.94,0,0,1-.44-.13,1.41,1.41,0,0,1-.31-.34l-.56-1.27a1.21,1.21,0,0,0-.31-.33.61.61,0,0,0-.41-.13h-4.47a.84.84,0,0,0-.44.13.79.79,0,0,0-.28.33l-.59,1.27a1,1,0,0,1-.29.34.64.64,0,0,1-.41.13H100a.71.71,0,0,1-.23-.06.38.38,0,0,1-.18-.13.54.54,0,0,1-.1-.2.47.47,0,0,1,0-.31Zm1.26,9.29h1.87a.42.42,0,0,0,.31-.13.38.38,0,0,0,0-.33c-.13-.37-.31-.78-.51-1.25s-.39-.93-.54-1.34c0-.13-.13-.18-.18-.18s-.13,0-.18.18l-1.06,2.59a.38.38,0,0,0,0,.33C106.67,20.12,106.77,20.17,106.93,20.17Z"/><path class="cls-1" d="M156.88,10.88a.79.79,0,0,1,.28-.33.65.65,0,0,1,.44-.13h3a.86.86,0,0,1,.42.13.87.87,0,0,1,.28.33l6.19,14.49A.45.45,0,0,1,167,26h-3.62a1,1,0,0,1-.44-.13,1.41,1.41,0,0,1-.31-.34L162,24.26a1.21,1.21,0,0,0-.31-.33.61.61,0,0,0-.41-.13h-4.47a.84.84,0,0,0-.44.13.79.79,0,0,0-.28.33l-.59,1.27a1,1,0,0,1-.28.34.69.69,0,0,1-.42.13h-3.64a.6.6,0,0,1-.23-.06.34.34,0,0,1-.18-.13.43.43,0,0,1-.11-.2.54.54,0,0,1,.05-.31Zm1.23,9.29H160a.42.42,0,0,0,.31-.13.38.38,0,0,0,0-.33c-.13-.37-.31-.78-.52-1.25s-.38-.93-.54-1.34c-.05-.13-.12-.18-.18-.18s-.12,0-.18.18l-1,2.59a.38.38,0,0,0,0,.33C157.86,20.12,158,20.17,158.11,20.17Z"/><rect class="cls-1" x="183.96" y="10.39" width="4.19" height="15.6" rx="0.5"/><path class="cls-1" d="M149.24,10.39H146a.49.49,0,0,0-.49.5v4.89a.51.51,0,0,1-.5.5h-3.83a.5.5,0,0,1-.5-.5V10.89a.5.5,0,0,0-.5-.5H137a.49.49,0,0,0-.49.5V25.5a.5.5,0,0,0,.49.5h3.2a.51.51,0,0,0,.5-.5V20.69a.5.5,0,0,1,.5-.5h3.83a.5.5,0,0,1,.5.5V25.5a.5.5,0,0,0,.49.5h3.2a.5.5,0,0,0,.49-.5V10.89A.49.49,0,0,0,149.24,10.39Z"/><path class="cls-1" d="M203.23,10.39H200a.5.5,0,0,0-.5.5v6.76a.13.13,0,0,1-.23.08l-4.79-6.91a1,1,0,0,0-.82-.43h-3.16a.5.5,0,0,0-.5.5V25.5a.5.5,0,0,0,.5.5h3.19a.51.51,0,0,0,.5-.5V18.74a.12.12,0,0,1,.22-.07l4.79,6.9a1,1,0,0,0,.82.43h3.17a.51.51,0,0,0,.5-.5V10.89A.5.5,0,0,0,203.23,10.39Z"/><path class="cls-1" d="M205.61,18.21v0a8,8,0,0,1,8.33-8.05,9.08,9.08,0,0,1,5.89,1.93.51.51,0,0,1,.07.71L218,15a.5.5,0,0,1-.69.07A5.29,5.29,0,0,0,214,14a4.06,4.06,0,0,0-4,4.24v0a4.09,4.09,0,0,0,4.2,4.29,4.35,4.35,0,0,0,2.47-.64V20.5a.5.5,0,0,0-.5-.5h-2.05a.5.5,0,0,1-.5-.5V17.36a.51.51,0,0,1,.5-.5h6.12a.5.5,0,0,1,.5.5v6a1,1,0,0,1-.39.79A10.45,10.45,0,0,1,214,26.21C209.22,26.21,205.61,22.89,205.61,18.21Z"/><path class="cls-1" d="M168.4,10.88a.5.5,0,0,1,.5-.5h6.88c2.39,0,4,.62,5.09,1.69a4.88,4.88,0,0,1,1.38,3.64v0A4.93,4.93,0,0,1,179,20.55l3.19,4.66a.51.51,0,0,1-.42.79H178.3a1,1,0,0,1-.83-.45l-2.7-4.06a.5.5,0,0,0-.42-.22h-1.13a.5.5,0,0,0-.5.5V25.5a.5.5,0,0,1-.5.5H168.9a.5.5,0,0,1-.5-.5Zm7.18,7c1.47,0,2.32-.71,2.32-1.85v0c0-1.23-.89-1.85-2.34-1.85h-2.34a.5.5,0,0,0-.5.5v2.74a.5.5,0,0,0,.5.5Z"/><path class="cls-1" d="M122.16,23.17l1.76-2.1a.5.5,0,0,1,.68-.08,7.86,7.86,0,0,0,4.64,1.57c1.15,0,1.77-.4,1.77-1.06v0c0-.64-.51-1-2.61-1.48-3.29-.75-5.83-1.68-5.83-4.86v0c0-2.87,2.27-5,6-5a9.93,9.93,0,0,1,6,1.76.52.52,0,0,1,.11.7l-1.59,2.23a.5.5,0,0,1-.68.13,7.54,7.54,0,0,0-3.93-1.26c-1,0-1.54.44-1.54,1v0c0,.71.53,1,2.67,1.5,3.56.77,5.77,1.92,5.77,4.82v0c0,3.16-2.5,5-6.25,5a11,11,0,0,1-6.87-2.24A.51.51,0,0,1,122.16,23.17Z"/><path class="cls-1" d="M34.45,34.61a.38.38,0,0,0,.09-.6c-.88-1-3.67-3.42-3.67-3.42-.26-.18-.63,0-.92.07a9.61,9.61,0,0,1-3,.49,9.45,9.45,0,0,1-2.21-.26,15.44,15.44,0,0,1-5-2,13.74,13.74,0,0,0-14.41-.36A18,18,0,0,0,.05,34a.25.25,0,0,0,.33.36c2.11-1.14,7.79-3.81,12.9-2.85a25,25,0,0,1,5.87,2.32c1.39.67,2.81,1.36,4.25,1.9C28.06,37.41,32.65,35.54,34.45,34.61Z"/><path class="cls-1" d="M19.83.49,28.7,15.76a.28.28,0,0,1-.31.4A6.37,6.37,0,0,0,27,16a6,6,0,0,0-3.31,1,.55.55,0,0,1-.77-.16l-3.53-6.08a.47.47,0,0,0-.84,0l-5.71,9.86A.24.24,0,0,0,13,21a15.85,15.85,0,0,1,7.94,4.32.52.52,0,0,1-.6.83,15.8,15.8,0,0,0-4.93-1.58A19.68,19.68,0,0,0,8.24,25c-.74.18-1.54.39-2.28.62S4.88,26,4.88,26c-.21.07-.41.16-.58.23l-.07,0a.51.51,0,0,1-.66-.72L18.11.49A1,1,0,0,1,19.83.49Z"/><path class="cls-2" d="M39,18a4,4,0,1,0-4-4,4.15,4.15,0,0,0,.22,1.32L29.67,19a4,4,0,1,0,0,6l5.55,3.7A4.15,4.15,0,0,0,35,30a4,4,0,1,0,1.33-3l-5.55-3.7a4.07,4.07,0,0,0,0-2.64L36.33,17A4,4,0,0,0,39,18Z"/></g></g></svg>