<svg width="2110" height="724" viewBox="0 0 2110 724" fill="none" xmlns="http://www.w3.org/2000/svg">
<g filter="url(#filter0_dddddd_1117_13484)">
<path d="M192 150.383C192 99.9134 232.913 59 283.383 59H441.017C491.487 59 532.4 99.9134 532.4 150.383V308.017C532.4 358.487 491.487 399.4 441.017 399.4H283.383C232.913 399.4 192 358.487 192 308.017V150.383Z" fill="white"/>
</g>
<path d="M458.597 202.929L425.451 202.929L331.073 318L266 318L266 257.964L307.985 257.964L402.363 143L458.64 143L458.597 202.929Z" fill="#FF5F46"/>
<path d="M416.654 257.964L458.64 257.964L458.64 318L393.566 318L374.925 295.271L411.087 251.182L416.654 257.964ZM322.276 143L349.708 176.415L313.558 220.449L299.188 202.93L266.043 202.93L266 143L322.276 143Z" fill="#FABFBA"/>
<path d="M603.901 217.2V139.92H623.773C632.752 139.92 640.149 141.503 645.964 144.667C651.852 147.759 656.194 152.211 658.991 158.026C661.861 163.767 663.296 170.685 663.296 178.781C663.296 186.73 661.861 193.575 658.991 199.315C656.194 205.056 651.852 209.472 645.964 212.563C640.149 215.655 632.752 217.2 623.773 217.2H603.901ZM613.175 209.472H623.552C630.986 209.472 636.911 208.258 641.327 205.829C645.743 203.327 648.908 199.794 650.821 195.231C652.735 190.594 653.692 185.111 653.692 178.781C653.692 172.304 652.735 166.747 650.821 162.111C648.908 157.474 645.743 153.904 641.327 151.402C636.911 148.899 630.986 147.648 623.552 147.648H613.175V209.472ZM691.345 218.525C686.929 218.525 683.249 217.715 680.305 216.096C677.361 214.403 675.153 212.195 673.681 209.472C672.209 206.675 671.473 203.695 671.473 200.53C671.473 196.703 672.43 193.464 674.343 190.815C676.33 188.091 679.09 186.031 682.623 184.632C686.156 183.234 690.278 182.535 694.988 182.535H709.45C709.45 178.781 709.009 175.653 708.126 173.151C707.242 170.648 705.807 168.771 703.82 167.52C701.833 166.269 699.183 165.643 695.871 165.643C692.559 165.643 689.726 166.49 687.37 168.183C685.015 169.802 683.543 172.231 682.954 175.469H673.46C673.902 171.642 675.19 168.44 677.324 165.864C679.458 163.215 682.145 161.227 685.383 159.903C688.695 158.504 692.191 157.805 695.871 157.805C701.097 157.805 705.402 158.762 708.788 160.675C712.174 162.515 714.676 165.128 716.295 168.514C717.914 171.826 718.724 175.763 718.724 180.327V217.2H710.444L709.892 207.264C709.156 208.81 708.199 210.282 707.022 211.68C705.918 213.005 704.593 214.183 703.047 215.213C701.502 216.243 699.735 217.053 697.748 217.642C695.834 218.231 693.7 218.525 691.345 218.525ZM692.67 210.687C695.098 210.687 697.343 210.135 699.404 209.031C701.465 207.927 703.231 206.455 704.703 204.615C706.249 202.701 707.426 200.567 708.236 198.211C709.046 195.856 709.45 193.391 709.45 190.815V189.711H695.761C692.302 189.711 689.468 190.152 687.26 191.035C685.126 191.919 683.58 193.17 682.623 194.789C681.666 196.335 681.188 198.101 681.188 200.088C681.188 202.223 681.63 204.099 682.513 205.719C683.396 207.264 684.684 208.479 686.377 209.362C688.143 210.245 690.241 210.687 692.67 210.687ZM751.746 217.2C748.434 217.2 745.563 216.685 743.135 215.655C740.706 214.624 738.829 212.895 737.504 210.466C736.253 207.963 735.627 204.615 735.627 200.419V166.968H725.471V159.13H735.627L736.842 144.667H744.901V159.13H761.351V166.968H744.901V200.419C744.901 203.879 745.6 206.234 746.999 207.485C748.397 208.663 750.863 209.251 754.395 209.251H761.13V217.2H751.746ZM788.868 218.525C784.452 218.525 780.772 217.715 777.828 216.096C774.884 214.403 772.676 212.195 771.204 209.472C769.732 206.675 768.996 203.695 768.996 200.53C768.996 196.703 769.953 193.464 771.866 190.815C773.853 188.091 776.613 186.031 780.146 184.632C783.679 183.234 787.801 182.535 792.511 182.535H806.973C806.973 178.781 806.532 175.653 805.649 173.151C804.765 170.648 803.33 168.771 801.343 167.52C799.356 166.269 796.706 165.643 793.394 165.643C790.082 165.643 787.249 166.49 784.893 168.183C782.538 169.802 781.066 172.231 780.477 175.469H770.983C771.425 171.642 772.713 168.44 774.847 165.864C776.981 163.215 779.668 161.227 782.906 159.903C786.218 158.504 789.714 157.805 793.394 157.805C798.62 157.805 802.925 158.762 806.311 160.675C809.697 162.515 812.199 165.128 813.818 168.514C815.437 171.826 816.247 175.763 816.247 180.327V217.2H807.967L807.415 207.264C806.679 208.81 805.722 210.282 804.545 211.68C803.441 213.005 802.116 214.183 800.57 215.213C799.025 216.243 797.258 217.053 795.271 217.642C793.357 218.231 791.223 218.525 788.868 218.525ZM790.193 210.687C792.621 210.687 794.866 210.135 796.927 209.031C798.988 207.927 800.754 206.455 802.226 204.615C803.772 202.701 804.949 200.567 805.759 198.211C806.569 195.856 806.973 193.391 806.973 190.815V189.711H793.284C789.825 189.711 786.991 190.152 784.783 191.035C782.649 191.919 781.103 193.17 780.146 194.789C779.189 196.335 778.711 198.101 778.711 200.088C778.711 202.223 779.153 204.099 780.036 205.719C780.919 207.264 782.207 208.479 783.9 209.362C785.666 210.245 787.764 210.687 790.193 210.687ZM857.181 218.525C853.648 218.525 850.594 218.01 848.018 216.979C845.516 215.875 843.381 214.514 841.615 212.895C839.922 211.275 838.524 209.693 837.42 208.147L836.647 217.2H828.256V137.712H837.53V168.293C839.296 164.834 841.909 162.221 845.368 160.455C848.828 158.688 852.692 157.805 856.96 157.805C862.26 157.805 866.896 159.093 870.871 161.669C874.845 164.245 877.936 167.815 880.144 172.378C882.352 176.867 883.456 182.056 883.456 187.944C883.456 193.759 882.352 198.984 880.144 203.621C877.936 208.258 874.845 211.901 870.871 214.551C866.97 217.2 862.407 218.525 857.181 218.525ZM855.967 210.466C859.426 210.466 862.48 209.583 865.13 207.816C867.853 205.976 869.988 203.4 871.533 200.088C873.152 196.703 873.962 192.728 873.962 188.165C873.962 183.602 873.152 179.664 871.533 176.352C869.988 172.967 867.853 170.391 865.13 168.624C862.48 166.784 859.426 165.864 855.967 165.864C852.287 165.864 849.085 166.784 846.362 168.624C843.639 170.391 841.541 172.967 840.069 176.352C838.597 179.664 837.861 183.602 837.861 188.165C837.861 192.728 838.597 196.703 840.069 200.088C841.541 203.4 843.639 205.976 846.362 207.816C849.085 209.583 852.287 210.466 855.967 210.466ZM893.621 217.2V159.13H902.011L902.674 169.728C903.999 167.079 905.728 164.871 907.863 163.104C909.997 161.338 912.573 160.013 915.591 159.13C918.682 158.247 922.141 157.805 925.968 157.805V167.52H920.227C918.019 167.52 915.885 167.815 913.824 168.403C911.763 168.992 909.887 169.949 908.194 171.274C906.575 172.599 905.287 174.402 904.33 176.683C903.373 178.965 902.895 181.835 902.895 185.295V217.2H893.621ZM934.209 217.2V159.13H943.483V217.2H934.209ZM938.846 148.09C937.006 148.09 935.461 147.501 934.209 146.323C933.032 145.072 932.443 143.527 932.443 141.687C932.443 139.847 933.032 138.375 934.209 137.271C935.461 136.093 937.006 135.504 938.846 135.504C940.613 135.504 942.121 136.093 943.373 137.271C944.624 138.375 945.249 139.847 945.249 141.687C945.249 143.527 944.624 145.072 943.373 146.323C942.121 147.501 940.613 148.09 938.846 148.09ZM981.705 218.525C976.405 218.525 971.695 217.274 967.573 214.771C963.452 212.195 960.213 208.626 957.858 204.063C955.503 199.499 954.325 194.2 954.325 188.165C954.325 182.056 955.503 176.757 957.858 172.267C960.213 167.704 963.452 164.171 967.573 161.669C971.695 159.093 976.405 157.805 981.705 157.805C988.329 157.805 993.849 159.571 998.265 163.104C1002.75 166.637 1005.62 171.384 1006.88 177.346H997.381C996.572 173.666 994.695 170.832 991.751 168.845C988.881 166.784 985.495 165.754 981.594 165.754C978.209 165.754 975.154 166.6 972.431 168.293C969.781 169.986 967.684 172.488 966.138 175.8C964.593 179.112 963.82 183.234 963.82 188.165C963.82 191.845 964.261 195.12 965.145 197.991C966.028 200.787 967.242 203.143 968.788 205.056C970.407 206.896 972.284 208.295 974.418 209.251C976.626 210.208 979.018 210.687 981.594 210.687C984.244 210.687 986.636 210.245 988.77 209.362C990.978 208.405 992.818 207.043 994.29 205.277C995.836 203.511 996.866 201.413 997.381 198.984H1006.88C1005.7 204.799 1002.83 209.509 998.265 213.115C993.775 216.722 988.255 218.525 981.705 218.525ZM1051.16 217.2L1024.78 185.847L1049.62 159.13H1060.99L1032.62 189.159L1032.73 182.535L1062.98 217.2H1051.16ZM1017.05 217.2V137.712H1026.32V217.2H1017.05ZM1087.22 218.525C1081.99 218.525 1077.65 217.752 1074.19 216.207C1070.8 214.587 1068.23 212.379 1066.46 209.583C1064.7 206.712 1063.63 203.4 1063.26 199.647H1072.76C1073.05 201.634 1073.71 203.474 1074.74 205.167C1075.85 206.786 1077.43 208.111 1079.49 209.141C1081.55 210.171 1084.16 210.687 1087.33 210.687C1089.83 210.687 1091.96 210.319 1093.73 209.583C1095.5 208.773 1096.82 207.669 1097.71 206.271C1098.66 204.872 1099.14 203.253 1099.14 201.413C1099.14 198.984 1098.59 197.107 1097.48 195.783C1096.45 194.384 1094.91 193.354 1092.85 192.691C1090.86 191.955 1088.36 191.403 1085.34 191.035C1082.1 190.594 1079.23 189.968 1076.73 189.159C1074.23 188.349 1072.09 187.282 1070.33 185.957C1068.63 184.632 1067.35 182.976 1066.46 180.989C1065.58 179.002 1065.14 176.647 1065.14 173.923C1065.14 170.759 1065.98 167.962 1067.68 165.533C1069.37 163.104 1071.76 161.227 1074.85 159.903C1078.02 158.504 1081.73 157.805 1086 157.805C1092.26 157.805 1097.19 159.24 1100.8 162.111C1104.48 164.981 1106.65 169.066 1107.31 174.365H1098.15C1097.78 171.642 1096.53 169.507 1094.39 167.962C1092.26 166.416 1089.43 165.643 1085.89 165.643C1082.14 165.643 1079.31 166.343 1077.39 167.741C1075.48 169.139 1074.52 170.979 1074.52 173.261C1074.52 174.954 1074.93 176.499 1075.74 177.898C1076.62 179.223 1078.09 180.363 1080.15 181.32C1082.21 182.203 1084.97 182.866 1088.43 183.307C1092.77 183.823 1096.45 184.669 1099.47 185.847C1102.49 186.951 1104.77 188.68 1106.32 191.035C1107.94 193.391 1108.71 196.592 1108.64 200.64C1108.64 204.467 1107.72 207.706 1105.88 210.355C1104.11 213.005 1101.61 215.029 1098.37 216.427C1095.2 217.826 1091.49 218.525 1087.22 218.525ZM603.239 316.2V238.92H616.487V305.823H650.932V316.2H603.239ZM678.623 317.525C674.06 317.525 670.269 316.752 667.252 315.207C664.234 313.661 661.989 311.6 660.517 309.024C659.045 306.448 658.309 303.651 658.309 300.634C658.309 297.101 659.193 294.047 660.959 291.471C662.799 288.895 665.485 286.907 669.018 285.509C672.551 284.037 676.893 283.301 682.045 283.301H696.066C696.066 280.357 695.661 277.928 694.852 276.015C694.042 274.027 692.791 272.555 691.098 271.599C689.405 270.642 687.234 270.163 684.585 270.163C681.567 270.163 678.991 270.863 676.857 272.261C674.722 273.586 673.397 275.647 672.882 278.443H659.855C660.297 274.469 661.621 271.083 663.829 268.287C666.037 265.416 668.945 263.208 672.551 261.663C676.231 260.043 680.242 259.234 684.585 259.234C689.81 259.234 694.263 260.154 697.943 261.994C701.623 263.76 704.42 266.336 706.333 269.722C708.321 273.034 709.314 277.045 709.314 281.755V316.2H698.053L696.729 307.258C695.993 308.73 695.036 310.091 693.858 311.343C692.754 312.594 691.466 313.698 689.994 314.655C688.522 315.538 686.829 316.237 684.916 316.752C683.076 317.267 680.978 317.525 678.623 317.525ZM681.604 307.037C683.738 307.037 685.615 306.669 687.234 305.933C688.927 305.123 690.362 304.019 691.54 302.621C692.791 301.149 693.748 299.53 694.41 297.763C695.073 295.997 695.514 294.12 695.735 292.133V291.912H683.481C680.905 291.912 678.77 292.243 677.077 292.906C675.385 293.495 674.17 294.378 673.434 295.555C672.698 296.733 672.33 298.095 672.33 299.64C672.33 301.186 672.698 302.511 673.434 303.615C674.17 304.719 675.237 305.565 676.636 306.154C678.034 306.743 679.69 307.037 681.604 307.037ZM756.038 316.2L731.418 285.73L753.498 260.559H769.286L741.796 291.139V280.872L772.598 316.2H756.038ZM720.158 316.2V236.712H733.406V316.2H720.158ZM799.825 317.525C794.305 317.525 789.447 316.347 785.252 313.992C781.057 311.563 777.782 308.178 775.427 303.835C773.071 299.493 771.894 294.488 771.894 288.821C771.894 282.933 773.035 277.781 775.316 273.365C777.671 268.949 780.947 265.49 785.142 262.987C789.411 260.485 794.342 259.234 799.935 259.234C805.382 259.234 810.129 260.448 814.177 262.877C818.225 265.306 821.353 268.581 823.561 272.703C825.769 276.751 826.873 281.314 826.873 286.392C826.873 287.128 826.873 287.938 826.873 288.821C826.873 289.704 826.799 290.624 826.652 291.581H781.388V283.08H813.515C813.367 279.032 812.006 275.867 809.43 273.586C806.854 271.231 803.652 270.053 799.825 270.053C797.102 270.053 794.599 270.679 792.318 271.93C790.036 273.181 788.233 275.058 786.908 277.56C785.583 279.989 784.921 283.08 784.921 286.834V290.035C784.921 293.495 785.547 296.475 786.798 298.978C788.123 301.48 789.889 303.394 792.097 304.719C794.379 305.97 796.918 306.595 799.715 306.595C802.806 306.595 805.345 305.933 807.332 304.608C809.393 303.283 810.902 301.517 811.859 299.309H825.327C824.297 302.768 822.604 305.896 820.249 308.693C817.894 311.416 814.987 313.587 811.527 315.207C808.068 316.752 804.167 317.525 799.825 317.525ZM838.553 316.2V254.487C838.553 250.218 839.252 246.795 840.651 244.219C842.123 241.57 844.22 239.656 846.943 238.479C849.667 237.301 852.905 236.712 856.659 236.712H863.283V247.973H858.646C856.217 247.973 854.451 248.488 853.347 249.519C852.316 250.475 851.801 252.168 851.801 254.597V316.2H838.553ZM830.604 271.709V260.559H864.387V271.709H830.604ZM875.758 316.2V236.712H889.006V316.2H875.758ZM926.455 317.525C921.155 317.525 916.371 316.311 912.103 313.882C907.907 311.379 904.595 307.957 902.167 303.615C899.811 299.199 898.634 294.157 898.634 288.49C898.634 282.675 899.848 277.597 902.277 273.255C904.706 268.839 908.018 265.416 912.213 262.987C916.482 260.485 921.266 259.234 926.565 259.234C931.864 259.234 936.611 260.485 940.807 262.987C945.075 265.416 948.387 268.802 950.743 273.144C953.171 277.487 954.386 282.565 954.386 288.379C954.386 294.194 953.171 299.272 950.743 303.615C948.314 307.957 944.965 311.379 940.696 313.882C936.501 316.311 931.754 317.525 926.455 317.525ZM926.455 306.154C929.104 306.154 931.496 305.491 933.631 304.167C935.839 302.842 937.605 300.855 938.93 298.205C940.255 295.555 940.917 292.28 940.917 288.379C940.917 284.479 940.255 281.24 938.93 278.664C937.679 276.015 935.949 274.027 933.741 272.703C931.607 271.378 929.215 270.715 926.565 270.715C923.989 270.715 921.597 271.378 919.389 272.703C917.181 274.027 915.415 276.015 914.09 278.664C912.765 281.24 912.103 284.479 912.103 288.379C912.103 292.28 912.765 295.555 914.09 298.205C915.415 300.855 917.144 302.842 919.279 304.167C921.487 305.491 923.879 306.154 926.455 306.154ZM973.142 316.2L956.803 260.559H969.94L981.311 306.264L978.883 306.154L991.579 260.559H1006.37L1019.18 306.154H1016.75L1028.12 260.559H1041.26L1024.92 316.2H1011.23L997.651 269.059H1000.41L986.831 316.2H973.142ZM1071.49 316.2V238.92H1096.44C1105.42 238.92 1112.82 240.503 1118.64 243.667C1124.52 246.832 1128.87 251.322 1131.66 257.136C1134.53 262.877 1135.97 269.722 1135.97 277.671C1135.97 285.472 1134.53 292.28 1131.66 298.095C1128.87 303.835 1124.52 308.288 1118.64 311.453C1112.82 314.618 1105.42 316.2 1096.44 316.2H1071.49ZM1084.74 304.939H1095.78C1102.48 304.939 1107.74 303.872 1111.57 301.738C1115.47 299.53 1118.23 296.402 1119.85 292.354C1121.54 288.232 1122.39 283.338 1122.39 277.671C1122.39 271.93 1121.54 267.035 1119.85 262.987C1118.23 258.866 1115.47 255.701 1111.57 253.493C1107.74 251.211 1102.48 250.071 1095.78 250.071H1084.74V304.939ZM1171.2 317.525C1165.68 317.525 1160.83 316.347 1156.63 313.992C1152.44 311.563 1149.16 308.178 1146.81 303.835C1144.45 299.493 1143.27 294.488 1143.27 288.821C1143.27 282.933 1144.41 277.781 1146.7 273.365C1149.05 268.949 1152.33 265.49 1156.52 262.987C1160.79 260.485 1165.72 259.234 1171.31 259.234C1176.76 259.234 1181.51 260.448 1185.56 262.877C1189.6 265.306 1192.73 268.581 1194.94 272.703C1197.15 276.751 1198.25 281.314 1198.25 286.392C1198.25 287.128 1198.25 287.938 1198.25 288.821C1198.25 289.704 1198.18 290.624 1198.03 291.581H1152.77V283.08H1184.89C1184.75 279.032 1183.39 275.867 1180.81 273.586C1178.23 271.231 1175.03 270.053 1171.2 270.053C1168.48 270.053 1165.98 270.679 1163.7 271.93C1161.42 273.181 1159.61 275.058 1158.29 277.56C1156.96 279.989 1156.3 283.08 1156.3 286.834V290.035C1156.3 293.495 1156.93 296.475 1158.18 298.978C1159.5 301.48 1161.27 303.394 1163.48 304.719C1165.76 305.97 1168.3 306.595 1171.09 306.595C1174.19 306.595 1176.72 305.933 1178.71 304.608C1180.77 303.283 1182.28 301.517 1183.24 299.309H1196.71C1195.68 302.768 1193.98 305.896 1191.63 308.693C1189.27 311.416 1186.37 313.587 1182.91 315.207C1179.45 316.752 1175.55 317.525 1171.2 317.525ZM1233.56 317.525C1228.11 317.525 1223.22 316.311 1218.87 313.882C1214.61 311.379 1211.26 307.957 1208.83 303.615C1206.47 299.199 1205.3 294.194 1205.3 288.6C1205.3 282.786 1206.47 277.707 1208.83 273.365C1211.26 268.949 1214.61 265.49 1218.87 262.987C1223.22 260.485 1228.15 259.234 1233.67 259.234C1240.59 259.234 1246.4 261.074 1251.11 264.754C1255.82 268.36 1258.84 273.328 1260.16 279.658H1246.25C1245.52 276.861 1243.97 274.653 1241.62 273.034C1239.34 271.415 1236.61 270.605 1233.45 270.605C1230.72 270.605 1228.22 271.304 1225.94 272.703C1223.73 274.101 1221.97 276.125 1220.64 278.775C1219.39 281.424 1218.76 284.626 1218.76 288.379C1218.76 291.25 1219.13 293.789 1219.87 295.997C1220.6 298.205 1221.63 300.082 1222.96 301.627C1224.36 303.099 1225.94 304.24 1227.71 305.05C1229.47 305.859 1231.39 306.264 1233.45 306.264C1235.58 306.264 1237.5 305.933 1239.19 305.271C1240.95 304.535 1242.43 303.467 1243.6 302.069C1244.86 300.671 1245.74 299.015 1246.25 297.101H1260.16C1258.84 303.283 1255.82 308.251 1251.11 312.005C1246.4 315.685 1240.55 317.525 1233.56 317.525ZM1269.63 316.2V236.712H1282.87V316.2H1269.63ZM1312.89 317.525C1308.33 317.525 1304.54 316.752 1301.52 315.207C1298.5 313.661 1296.26 311.6 1294.79 309.024C1293.32 306.448 1292.58 303.651 1292.58 300.634C1292.58 297.101 1293.46 294.047 1295.23 291.471C1297.07 288.895 1299.76 286.907 1303.29 285.509C1306.82 284.037 1311.16 283.301 1316.32 283.301H1330.34C1330.34 280.357 1329.93 277.928 1329.12 276.015C1328.31 274.027 1327.06 272.555 1325.37 271.599C1323.68 270.642 1321.5 270.163 1318.85 270.163C1315.84 270.163 1313.26 270.863 1311.13 272.261C1308.99 273.586 1307.67 275.647 1307.15 278.443H1294.12C1294.57 274.469 1295.89 271.083 1298.1 268.287C1300.31 265.416 1303.21 263.208 1306.82 261.663C1310.5 260.043 1314.51 259.234 1318.85 259.234C1324.08 259.234 1328.53 260.154 1332.21 261.994C1335.89 263.76 1338.69 266.336 1340.6 269.722C1342.59 273.034 1343.58 277.045 1343.58 281.755V316.2H1332.32L1331 307.258C1330.26 308.73 1329.31 310.091 1328.13 311.343C1327.02 312.594 1325.74 313.698 1324.26 314.655C1322.79 315.538 1321.1 316.237 1319.19 316.752C1317.35 317.267 1315.25 317.525 1312.89 317.525ZM1315.87 307.037C1318.01 307.037 1319.88 306.669 1321.5 305.933C1323.2 305.123 1324.63 304.019 1325.81 302.621C1327.06 301.149 1328.02 299.53 1328.68 297.763C1329.34 295.997 1329.78 294.12 1330 292.133V291.912H1317.75C1315.17 291.912 1313.04 292.243 1311.35 292.906C1309.65 293.495 1308.44 294.378 1307.7 295.555C1306.97 296.733 1306.6 298.095 1306.6 299.64C1306.6 301.186 1306.97 302.511 1307.7 303.615C1308.44 304.719 1309.51 305.565 1310.91 306.154C1312.3 306.743 1313.96 307.037 1315.87 307.037ZM1354.43 316.2V260.559H1366.24L1367.45 270.936C1368.78 268.507 1370.44 266.447 1372.42 264.754C1374.41 262.987 1376.73 261.626 1379.38 260.669C1382.1 259.712 1385.08 259.234 1388.32 259.234V273.255H1383.68C1381.48 273.255 1379.38 273.549 1377.39 274.138C1375.4 274.653 1373.67 275.536 1372.2 276.787C1370.8 277.965 1369.7 279.621 1368.89 281.755C1368.08 283.816 1367.68 286.429 1367.68 289.594V316.2H1354.43ZM1413.54 317.525C1408.98 317.525 1405.19 316.752 1402.17 315.207C1399.15 313.661 1396.91 311.6 1395.44 309.024C1393.96 306.448 1393.23 303.651 1393.23 300.634C1393.23 297.101 1394.11 294.047 1395.88 291.471C1397.72 288.895 1400.4 286.907 1403.94 285.509C1407.47 284.037 1411.81 283.301 1416.96 283.301H1430.99C1430.99 280.357 1430.58 277.928 1429.77 276.015C1428.96 274.027 1427.71 272.555 1426.02 271.599C1424.32 270.642 1422.15 270.163 1419.5 270.163C1416.49 270.163 1413.91 270.863 1411.78 272.261C1409.64 273.586 1408.32 275.647 1407.8 278.443H1394.77C1395.22 274.469 1396.54 271.083 1398.75 268.287C1400.96 265.416 1403.86 263.208 1407.47 261.663C1411.15 260.043 1415.16 259.234 1419.5 259.234C1424.73 259.234 1429.18 260.154 1432.86 261.994C1436.54 263.76 1439.34 266.336 1441.25 269.722C1443.24 273.034 1444.23 277.045 1444.23 281.755V316.2H1432.97L1431.65 307.258C1430.91 308.73 1429.95 310.091 1428.78 311.343C1427.67 312.594 1426.39 313.698 1424.91 314.655C1423.44 315.538 1421.75 316.237 1419.83 316.752C1417.99 317.267 1415.9 317.525 1413.54 317.525ZM1416.52 307.037C1418.66 307.037 1420.53 306.669 1422.15 305.933C1423.85 305.123 1425.28 304.019 1426.46 302.621C1427.71 301.149 1428.67 299.53 1429.33 297.763C1429.99 295.997 1430.43 294.12 1430.65 292.133V291.912H1418.4C1415.82 291.912 1413.69 292.243 1412 292.906C1410.3 293.495 1409.09 294.378 1408.35 295.555C1407.62 296.733 1407.25 298.095 1407.25 299.64C1407.25 301.186 1407.62 302.511 1408.35 303.615C1409.09 304.719 1410.16 305.565 1411.55 306.154C1412.95 306.743 1414.61 307.037 1416.52 307.037ZM1478.39 316.2C1474.64 316.2 1471.36 315.611 1468.57 314.434C1465.84 313.256 1463.71 311.306 1462.16 308.583C1460.62 305.859 1459.84 302.179 1459.84 297.543V271.709H1450.35V260.559H1459.84L1461.39 245.875H1473.09V260.559H1488.22V271.709H1473.09V297.543C1473.09 300.339 1473.68 302.29 1474.86 303.394C1476.11 304.424 1478.17 304.939 1481.04 304.939H1487.89V316.2H1478.39ZM1497.92 316.2V260.559H1511.17V316.2H1497.92ZM1504.55 251.727C1502.12 251.727 1500.09 250.991 1498.47 249.519C1496.93 247.973 1496.15 246.096 1496.15 243.888C1496.15 241.607 1496.93 239.767 1498.47 238.368C1500.09 236.896 1502.12 236.16 1504.55 236.16C1506.97 236.16 1508.96 236.896 1510.51 238.368C1512.13 239.767 1512.94 241.607 1512.94 243.888C1512.94 246.096 1512.13 247.973 1510.51 249.519C1508.96 250.991 1506.97 251.727 1504.55 251.727ZM1538.4 316.2L1517.87 260.559H1531.78L1546.46 303.615L1561.14 260.559H1574.83L1554.3 316.2H1538.4ZM1604.34 317.525C1598.82 317.525 1593.97 316.347 1589.77 313.992C1585.58 311.563 1582.3 308.178 1579.95 303.835C1577.59 299.493 1576.41 294.488 1576.41 288.821C1576.41 282.933 1577.55 277.781 1579.83 273.365C1582.19 268.949 1585.47 265.49 1589.66 262.987C1593.93 260.485 1598.86 259.234 1604.45 259.234C1609.9 259.234 1614.65 260.448 1618.7 262.877C1622.74 265.306 1625.87 268.581 1628.08 272.703C1630.29 276.751 1631.39 281.314 1631.39 286.392C1631.39 287.128 1631.39 287.938 1631.39 288.821C1631.39 289.704 1631.32 290.624 1631.17 291.581H1585.91V283.08H1618.03C1617.89 279.032 1616.52 275.867 1613.95 273.586C1611.37 271.231 1608.17 270.053 1604.34 270.053C1601.62 270.053 1599.12 270.679 1596.84 271.93C1594.55 273.181 1592.75 275.058 1591.43 277.56C1590.1 279.989 1589.44 283.08 1589.44 286.834V290.035C1589.44 293.495 1590.07 296.475 1591.32 298.978C1592.64 301.48 1594.41 303.394 1596.62 304.719C1598.9 305.97 1601.44 306.595 1604.23 306.595C1607.32 306.595 1609.86 305.933 1611.85 304.608C1613.91 303.283 1615.42 301.517 1616.38 299.309H1629.85C1628.82 302.768 1627.12 305.896 1624.77 308.693C1622.41 311.416 1619.51 313.587 1616.05 315.207C1612.59 316.752 1608.69 317.525 1604.34 317.525ZM1664.39 316.2V238.92H1692.21C1698.4 238.92 1703.51 239.987 1707.56 242.122C1711.61 244.183 1714.63 246.979 1716.61 250.512C1718.6 254.045 1719.59 258.093 1719.59 262.656C1719.59 266.925 1718.64 270.863 1716.72 274.469C1714.81 278.002 1711.83 280.872 1707.78 283.08C1703.73 285.215 1698.54 286.282 1692.21 286.282H1677.64V316.2H1664.39ZM1677.64 275.463H1691.44C1696.67 275.463 1700.42 274.322 1702.7 272.04C1704.98 269.685 1706.13 266.557 1706.13 262.656C1706.13 258.608 1704.98 255.443 1702.7 253.162C1700.42 250.88 1696.67 249.739 1691.44 249.739H1677.64V275.463ZM1727.82 316.2V260.559H1741.07V316.2H1727.82ZM1734.44 251.727C1732.02 251.727 1729.99 250.991 1728.37 249.519C1726.83 247.973 1726.05 246.096 1726.05 243.888C1726.05 241.607 1726.83 239.767 1728.37 238.368C1729.99 236.896 1732.02 236.16 1734.44 236.16C1736.87 236.16 1738.86 236.896 1740.41 238.368C1742.03 239.767 1742.84 241.607 1742.84 243.888C1742.84 246.096 1742.03 247.973 1740.41 249.519C1738.86 250.991 1736.87 251.727 1734.44 251.727ZM1753.07 340.488V260.559H1764.88L1766.31 268.618C1767.49 266.999 1768.89 265.49 1770.51 264.091C1772.2 262.619 1774.23 261.442 1776.58 260.559C1779.01 259.675 1781.77 259.234 1784.86 259.234C1790.09 259.234 1794.69 260.522 1798.66 263.098C1802.71 265.674 1805.87 269.17 1808.16 273.586C1810.44 277.928 1811.58 282.896 1811.58 288.49C1811.58 294.083 1810.4 299.088 1808.05 303.504C1805.76 307.847 1802.6 311.269 1798.55 313.771C1794.58 316.274 1790.01 317.525 1784.86 317.525C1780.67 317.525 1776.99 316.752 1773.82 315.207C1770.73 313.587 1768.23 311.306 1766.31 308.362V340.488H1753.07ZM1782.1 306.043C1785.19 306.043 1787.95 305.307 1790.38 303.835C1792.81 302.363 1794.69 300.303 1796.01 297.653C1797.41 295.003 1798.11 291.949 1798.11 288.49C1798.11 284.957 1797.41 281.866 1796.01 279.216C1794.69 276.567 1792.81 274.506 1790.38 273.034C1787.95 271.562 1785.19 270.826 1782.1 270.826C1778.94 270.826 1776.14 271.562 1773.71 273.034C1771.36 274.506 1769.48 276.567 1768.08 279.216C1766.76 281.866 1766.09 284.92 1766.09 288.379C1766.09 291.912 1766.76 295.003 1768.08 297.653C1769.48 300.229 1771.36 302.29 1773.71 303.835C1776.14 305.307 1778.94 306.043 1782.1 306.043ZM1847.18 317.525C1841.66 317.525 1836.8 316.347 1832.61 313.992C1828.41 311.563 1825.14 308.178 1822.78 303.835C1820.43 299.493 1819.25 294.488 1819.25 288.821C1819.25 282.933 1820.39 277.781 1822.67 273.365C1825.03 268.949 1828.3 265.49 1832.5 262.987C1836.77 260.485 1841.7 259.234 1847.29 259.234C1852.74 259.234 1857.48 260.448 1861.53 262.877C1865.58 265.306 1868.71 268.581 1870.92 272.703C1873.12 276.751 1874.23 281.314 1874.23 286.392C1874.23 287.128 1874.23 287.938 1874.23 288.821C1874.23 289.704 1874.15 290.624 1874.01 291.581H1828.74V283.08H1860.87C1860.72 279.032 1859.36 275.867 1856.79 273.586C1854.21 271.231 1851.01 270.053 1847.18 270.053C1844.46 270.053 1841.95 270.679 1839.67 271.93C1837.39 273.181 1835.59 275.058 1834.26 277.56C1832.94 279.989 1832.28 283.08 1832.28 286.834V290.035C1832.28 293.495 1832.9 296.475 1834.15 298.978C1835.48 301.48 1837.24 303.394 1839.45 304.719C1841.73 305.97 1844.27 306.595 1847.07 306.595C1850.16 306.595 1852.7 305.933 1854.69 304.608C1856.75 303.283 1858.26 301.517 1859.21 299.309H1872.68C1871.65 302.768 1869.96 305.896 1867.6 308.693C1865.25 311.416 1862.34 313.587 1858.88 315.207C1855.42 316.752 1851.52 317.525 1847.18 317.525ZM1883.15 316.2V236.712H1896.4V316.2H1883.15ZM1908.42 316.2V260.559H1921.67V316.2H1908.42ZM1915.04 251.727C1912.61 251.727 1910.59 250.991 1908.97 249.519C1907.43 247.973 1906.65 246.096 1906.65 243.888C1906.65 241.607 1907.43 239.767 1908.97 238.368C1910.59 236.896 1912.61 236.16 1915.04 236.16C1917.47 236.16 1919.46 236.896 1921.01 238.368C1922.62 239.767 1923.43 241.607 1923.43 243.888C1923.43 246.096 1922.62 247.973 1921.01 249.519C1919.46 250.991 1917.47 251.727 1915.04 251.727ZM1933.66 316.2V260.559H1945.37L1946.36 269.832C1948.05 266.594 1950.48 264.018 1953.65 262.104C1956.81 260.191 1960.57 259.234 1964.91 259.234C1969.4 259.234 1973.22 260.191 1976.39 262.104C1979.55 263.944 1981.98 266.667 1983.68 270.274C1985.44 273.88 1986.33 278.37 1986.33 283.743V316.2H1973.08V284.957C1973.08 280.32 1972.05 276.751 1969.99 274.248C1967.93 271.746 1964.87 270.495 1960.82 270.495C1958.17 270.495 1955.78 271.12 1953.65 272.371C1951.59 273.623 1949.93 275.463 1948.68 277.891C1947.5 280.247 1946.91 283.117 1946.91 286.503V316.2H1933.66ZM2023.04 317.525C2017.52 317.525 2012.66 316.347 2008.46 313.992C2004.27 311.563 2000.99 308.178 1998.64 303.835C1996.28 299.493 1995.1 294.488 1995.1 288.821C1995.1 282.933 1996.25 277.781 1998.53 273.365C2000.88 268.949 2004.16 265.49 2008.35 262.987C2012.62 260.485 2017.55 259.234 2023.15 259.234C2028.59 259.234 2033.34 260.448 2037.39 262.877C2041.44 265.306 2044.56 268.581 2046.77 272.703C2048.98 276.751 2050.08 281.314 2050.08 286.392C2050.08 287.128 2050.08 287.938 2050.08 288.821C2050.08 289.704 2050.01 290.624 2049.86 291.581H2004.6V283.08H2036.73C2036.58 279.032 2035.22 275.867 2032.64 273.586C2030.06 271.231 2026.86 270.053 2023.04 270.053C2020.31 270.053 2017.81 270.679 2015.53 271.93C2013.25 273.181 2011.44 275.058 2010.12 277.56C2008.79 279.989 2008.13 283.08 2008.13 286.834V290.035C2008.13 293.495 2008.76 296.475 2010.01 298.978C2011.33 301.48 2013.1 303.394 2015.31 304.719C2017.59 305.97 2020.13 306.595 2022.93 306.595C2026.02 306.595 2028.56 305.933 2030.54 304.608C2032.6 303.283 2034.11 301.517 2035.07 299.309H2048.54C2047.51 302.768 2045.81 305.896 2043.46 308.693C2041.1 311.416 2038.2 313.587 2034.74 315.207C2031.28 316.752 2027.38 317.525 2023.04 317.525ZM2081.19 317.525C2076.26 317.525 2071.96 316.752 2068.28 315.207C2064.67 313.587 2061.8 311.379 2059.67 308.583C2057.6 305.712 2056.39 302.437 2056.02 298.757H2069.27C2069.64 300.303 2070.3 301.738 2071.26 303.063C2072.21 304.314 2073.5 305.307 2075.12 306.043C2076.81 306.779 2078.8 307.147 2081.08 307.147C2083.29 307.147 2085.09 306.853 2086.49 306.264C2087.89 305.602 2088.92 304.755 2089.58 303.725C2090.25 302.695 2090.58 301.591 2090.58 300.413C2090.58 298.647 2090.1 297.285 2089.14 296.328C2088.19 295.371 2086.79 294.635 2084.95 294.12C2083.18 293.531 2081.05 292.979 2078.54 292.464C2075.89 291.949 2073.32 291.323 2070.82 290.587C2068.39 289.778 2066.18 288.784 2064.19 287.607C2062.28 286.429 2060.73 284.92 2059.56 283.08C2058.45 281.24 2057.9 278.995 2057.9 276.346C2057.9 273.107 2058.75 270.2 2060.44 267.624C2062.2 265.048 2064.71 263.024 2067.95 261.552C2071.26 260.007 2075.2 259.234 2079.76 259.234C2086.24 259.234 2091.39 260.743 2095.21 263.76C2099.12 266.704 2101.4 270.863 2102.06 276.235H2089.47C2089.11 274.175 2088.08 272.592 2086.38 271.488C2084.69 270.311 2082.44 269.722 2079.65 269.722C2076.78 269.722 2074.57 270.274 2073.02 271.378C2071.55 272.408 2070.82 273.807 2070.82 275.573C2070.82 276.677 2071.26 277.707 2072.14 278.664C2073.1 279.547 2074.46 280.32 2076.23 280.983C2077.99 281.571 2080.16 282.16 2082.74 282.749C2086.86 283.559 2090.5 284.515 2093.67 285.619C2096.83 286.723 2099.34 288.343 2101.18 290.477C2103.02 292.611 2103.94 295.629 2103.94 299.53C2104.01 303.063 2103.09 306.191 2101.18 308.914C2099.34 311.637 2096.72 313.771 2093.34 315.317C2089.95 316.789 2085.9 317.525 2081.19 317.525Z" fill="#1B3139"/>
<defs>
<filter id="filter0_dddddd_1117_13484" x="0.639999" y="0.119995" width="723.12" height="723.12" filterUnits="userSpaceOnUse" color-interpolation-filters="sRGB">
<feFlood flood-opacity="0" result="BackgroundImageFix"/>
<feColorMatrix in="SourceAlpha" type="matrix" values="0 0 0 0 0 0 0 0 0 0 0 0 0 0 0 0 0 0 127 0" result="hardAlpha"/>
<feOffset dy="3.68"/>
<feGaussianBlur stdDeviation="2.76"/>
<feColorMatrix type="matrix" values="0 0 0 0 0.105882 0 0 0 0 0.192157 0 0 0 0 0.223529 0 0 0 0.0196802 0"/>
<feBlend mode="normal" in2="BackgroundImageFix" result="effect1_dropShadow_1117_13484"/>
<feColorMatrix in="SourceAlpha" type="matrix" values="0 0 0 0 0 0 0 0 0 0 0 0 0 0 0 0 0 0 127 0" result="hardAlpha"/>
<feOffset dy="7.36"/>
<feGaussianBlur stdDeviation="7.36"/>
<feColorMatrix type="matrix" values="0 0 0 0 0.105882 0 0 0 0 0.192157 0 0 0 0 0.223529 0 0 0 0.04 0"/>
<feBlend mode="normal" in2="effect1_dropShadow_1117_13484" result="effect2_dropShadow_1117_13484"/>
<feColorMatrix in="SourceAlpha" type="matrix" values="0 0 0 0 0 0 0 0 0 0 0 0 0 0 0 0 0 0 127 0" result="hardAlpha"/>
<feOffset dy="16.56"/>
<feGaussianBlur stdDeviation="11.96"/>
<feColorMatrix type="matrix" values="0 0 0 0 0.105882 0 0 0 0 0.192157 0 0 0 0 0.223529 0 0 0 0.035 0"/>
<feBlend mode="normal" in2="effect2_dropShadow_1117_13484" result="effect3_dropShadow_1117_13484"/>
<feColorMatrix in="SourceAlpha" type="matrix" values="0 0 0 0 0 0 0 0 0 0 0 0 0 0 0 0 0 0 127 0" result="hardAlpha"/>
<feOffset dy="29.44"/>
<feGaussianBlur stdDeviation="22.08"/>
<feColorMatrix type="matrix" values="0 0 0 0 0.105882 0 0 0 0 0.192157 0 0 0 0 0.223529 0 0 0 0.04 0"/>
<feBlend mode="normal" in2="effect3_dropShadow_1117_13484" result="effect4_dropShadow_1117_13484"/>
<feColorMatrix in="SourceAlpha" type="matrix" values="0 0 0 0 0 0 0 0 0 0 0 0 0 0 0 0 0 0 127 0" result="hardAlpha"/>
<feOffset dy="58.88"/>
<feGaussianBlur stdDeviation="36.8"/>
<feColorMatrix type="matrix" values="0 0 0 0 0.105882 0 0 0 0 0.192157 0 0 0 0 0.223529 0 0 0 0.0503198 0"/>
<feBlend mode="normal" in2="effect4_dropShadow_1117_13484" result="effect5_dropShadow_1117_13484"/>
<feColorMatrix in="SourceAlpha" type="matrix" values="0 0 0 0 0 0 0 0 0 0 0 0 0 0 0 0 0 0 127 0" result="hardAlpha"/>
<feOffset dy="132.48"/>
<feGaussianBlur stdDeviation="95.68"/>
<feColorMatrix type="matrix" values="0 0 0 0 0.105882 0 0 0 0 0.192157 0 0 0 0 0.223529 0 0 0 0.07 0"/>
<feBlend mode="normal" in2="effect5_dropShadow_1117_13484" result="effect6_dropShadow_1117_13484"/>
<feBlend mode="normal" in="SourceGraphic" in2="effect6_dropShadow_1117_13484" result="shape"/>
</filter>
</defs>
</svg>
