<svg width="150" height="150" viewBox="0 0 150 150" fill="none" xmlns="http://www.w3.org/2000/svg">
<path d="M131.65 85.61C131.8 83.97 131.88 82.28 131.88 80.61C131.883 74.9743 131.047 69.3697 129.4 63.98L126.53 64.86C128.095 69.9634 128.887 75.2721 128.88 80.61C128.88 82.5042 128.776 84.397 128.57 86.28L128.47 87.28L129.32 87.76C132.015 89.3057 134.331 91.4345 136.097 93.9906C137.863 96.5466 139.036 99.4653 139.529 102.533C140.021 105.601 139.822 108.74 138.945 111.72C138.068 114.701 136.536 117.448 134.46 119.76C132.777 116.399 129.982 113.724 126.55 112.19C128.65 109.68 129.89 105.31 129.71 101.54C129.4 95.12 125.14 91 118.84 91C112.54 91 108.28 95.1 107.97 101.43C107.79 105.2 109.03 109.57 111.13 112.08C109.253 112.894 107.554 114.07 106.13 115.54L108.28 117.63C110.02 115.812 112.274 114.57 114.74 114.07V111.13C113.09 110.8 110.74 106.39 110.97 101.58C111.2 96.77 114.14 94 118.84 94C123.54 94 126.48 96.83 126.71 101.58C126.94 106.33 124.59 110.8 122.93 111.13V114.07C124.984 114.519 126.899 115.459 128.51 116.811C130.122 118.163 131.381 119.885 132.18 121.83C130.617 123.133 128.872 124.201 127 125L126.72 125.11C121.812 127.116 116.323 127.166 111.38 125.25C110.91 125.08 110.38 124.86 109.94 124.64C105.805 122.66 102.436 119.375 100.354 115.29C98.2716 111.206 97.5914 106.55 98.4185 102.04C99.2455 97.5309 101.534 93.419 104.93 90.3394C108.326 87.2597 112.641 85.3833 117.21 85L117 82C112.114 82.3922 107.467 84.2792 103.691 87.4046C99.9145 90.5299 97.192 94.7421 95.8932 99.4687C94.5943 104.195 94.7822 109.207 96.4312 113.823C98.0802 118.44 101.11 122.436 105.11 125.27C96.2532 131.259 85.8017 134.451 75.11 134.43C74.48 134.43 73.86 134.43 73.25 134.43L79.35 128.33L77.23 126.21L67.45 135.98L77.23 145.75L79.35 143.63L73.15 137.43C73.8 137.43 74.45 137.43 75.15 137.43C86.8757 137.439 98.3127 133.793 107.87 127L108.68 127.4C109.227 127.666 109.788 127.903 110.36 128.11C115.902 130.264 122.053 130.242 127.58 128.05L127.87 127.94C131.936 126.291 135.468 123.553 138.078 120.027C140.689 116.501 142.277 112.324 142.668 107.954C143.058 103.584 142.237 99.1913 140.293 95.2581C138.349 91.325 135.359 88.0039 131.65 85.66V85.61Z" fill="#FF5F46"/>
<path d="M51.5 32.16C52.4574 37.7099 55.336 42.7465 59.6321 46.3881C63.9283 50.0298 69.3682 52.0446 75 52.08C79.8139 52.0799 84.5144 50.6188 88.4801 47.89C89.4192 47.2504 90.3145 46.5489 91.1601 45.79C91.2701 45.69 91.3601 45.58 91.46 45.48C91.7901 45.18 92.1 44.86 92.46 44.53C92.82 44.2 92.89 44.07 93.09 43.83C93.29 43.59 93.63 43.2 93.88 42.83C94.13 42.46 94.2801 42.32 94.4701 42.05C94.66 41.78 94.9501 41.36 95.1801 41.05C95.4101 40.74 95.59 40.38 95.78 40.05L95.9001 39.83C96.2401 39.21 96.5601 38.57 96.9001 37.92C96.9001 37.81 96.9901 37.7 97.0401 37.59C97.2901 37.01 97.51 36.42 97.72 35.81C97.78 35.61 97.8501 35.41 97.91 35.2C98.05 34.77 98.1701 34.33 98.2701 33.89C98.37 33.45 98.45 33.12 98.53 32.74C98.53 32.55 98.61 32.36 98.64 32.17C109.233 37.3066 117.844 45.7812 123.15 56.29L114.66 53.86L113.83 56.74L127.11 60.55L130.92 47.27L128 46.44L125.64 54.66C119.856 43.3501 110.439 34.3127 98.9001 29C98.9001 28.73 98.9001 28.47 98.9001 28.19C98.89 22.9406 97.1506 17.8408 93.9508 13.6794C90.751 9.51804 86.2692 6.52694 81.1985 5.16877C76.1279 3.81061 70.7511 4.16108 65.8996 6.16596C61.0482 8.17085 56.9926 11.7184 54.3601 16.26L57 17.76C59.2899 13.7607 62.8384 10.6313 67.0927 8.85955C71.3469 7.08781 76.0678 6.77326 80.5195 7.96494C84.9711 9.15662 88.9035 11.7876 91.7037 15.4477C94.5038 19.1079 96.0144 23.5916 96 28.2C96 28.56 96 28.92 96 29.28C96 29.51 96 29.73 96 29.95C96 30.48 95.89 31 95.8 31.52C95.8 31.72 95.73 31.91 95.7 32.1C95.63 32.45 95.55 32.8 95.47 33.1C95.39 33.4 95.2701 33.85 95.16 34.22L94.9801 34.78C94.8001 35.3 94.6101 35.78 94.39 36.32L94.27 36.61C94.01 37.19 93.7201 37.76 93.4101 38.31L93.3301 38.46C93.1601 38.76 92.98 39.06 92.7901 39.35C92.6001 39.64 92.56 39.69 92.45 39.86C92.19 40.23 91.93 40.6 91.6501 40.95C91.3701 41.3 91.24 41.47 91.02 41.72L90.82 41.96C89.1366 38.6073 86.3455 35.9399 82.92 34.41C85.02 31.9 86.2601 27.53 86.0801 23.76C85.6001 17.52 81.34 13.42 75 13.42C68.66 13.42 64.44 17.52 64.13 23.85C64 27.62 65.2301 32 67.3301 34.5C65.4508 35.311 63.7512 36.487 62.3301 37.96L64.4801 40.05C66.2345 38.2197 68.5117 36.9763 71 36.49V33.55C69.34 33.22 67 28.81 67.2201 24C67.4401 19.19 70.39 16.42 75.09 16.42C79.79 16.42 82.73 19.25 82.96 24C83.19 28.75 80.8401 33.22 79.1901 33.55V36.49C81.2407 36.9383 83.1522 37.8765 84.7613 39.2244C86.3704 40.5723 87.6292 42.2897 88.43 44.23C87.6606 44.8738 86.8488 45.4651 86 46C82.9519 47.8777 79.4721 48.9401 75.8949 49.0852C72.3177 49.2302 68.7633 48.4531 65.5731 46.8283C62.3828 45.2036 59.664 42.7859 57.6776 39.8074C55.6912 36.8288 54.504 33.3896 54.23 29.82L54.07 27.71L52.1301 28.56C43.9372 32.1748 36.7143 37.6741 31.05 44.61L33.3801 46.5C38.3114 40.4653 44.4937 35.5727 51.5 32.16Z" fill="#FF5F46"/>
<path d="M21.69 127.71L21.98 127.84C27.5635 130.162 33.8226 130.266 39.48 128.13C40.08 127.9 40.65 127.67 41.2 127.41C41.49 127.27 41.82 127.11 42.2 126.92C48.0848 131.123 54.7266 134.148 61.76 135.83L62.45 132.91C56.2167 131.416 50.3049 128.808 45 125.21C49.5207 121.957 52.7691 117.232 54.1885 111.846C55.6079 106.461 55.11 100.749 52.78 95.69C51.0068 91.891 48.2647 88.6259 44.8293 86.2227C41.394 83.8196 37.3866 82.3632 33.21 82L32.94 85C36.7959 85.3363 40.4821 86.7393 43.5859 89.052C46.6896 91.3646 49.0884 94.4955 50.5135 98.0942C51.9386 101.693 52.3339 105.617 51.6551 109.428C50.9763 113.238 49.2501 116.785 46.67 119.67C44.9773 116.326 42.1887 113.665 38.77 112.13C40.87 109.62 42.11 105.25 41.92 101.48C41.62 95.12 37.35 91 31.06 91C24.77 91 20.49 95.1 20.19 101.43C20.01 105.2 21.25 109.57 23.35 112.08C21.4726 112.894 19.7737 114.07 18.35 115.54L20.5 117.63C22.253 115.812 24.5219 114.577 27 114.09V111.15C25.34 110.82 23 106.41 23.22 101.6C23.44 96.79 26.36 94 31.06 94C35.76 94 38.7 96.83 38.93 101.58C39.16 106.33 36.81 110.8 35.15 111.13V114.07C37.2025 114.524 39.1152 115.466 40.7256 116.817C42.3359 118.168 43.5964 119.888 44.4 121.83C43.4969 122.575 42.5336 123.244 41.52 123.83C41.08 124.08 40.59 124.34 39.92 124.66C39.44 124.88 38.92 125.08 38.43 125.28C33.5869 127.103 28.2381 127.053 23.43 125.14L23.15 125.02C19.5442 123.526 16.4295 121.052 14.1596 117.877C11.8897 114.702 10.5555 110.954 10.3087 107.059C10.0619 103.164 10.9122 99.2773 12.7632 95.8412C14.6142 92.4051 17.3916 89.5569 20.78 87.62L21.63 87.13L21.53 86.13C21.3323 84.2599 21.2355 82.3805 21.24 80.5C21.2248 71.1372 23.666 61.9342 28.32 53.81L30.68 62.36L33.57 61.56L29.87 48.31L16.54 52L17.34 54.89L25.56 52.63C20.7195 61.1665 18.1863 70.8167 18.21 80.63C18.21 82.3 18.28 83.97 18.42 85.63C14.7295 87.944 11.7426 91.2237 9.78284 95.1139C7.82306 99.004 6.96511 103.356 7.30195 107.699C7.63879 112.042 9.15757 116.21 11.6938 119.751C14.2299 123.293 17.6868 126.073 21.69 127.79V127.71Z" fill="#FF5F46"/>
</svg>
