<svg width="965" height="300" viewBox="0 0 965 300" fill="none" xmlns="http://www.w3.org/2000/svg">
<path d="M98.3106 73.9865L98.3106 226.013L37.4998 262.5L37.4997 37.5L98.3106 73.9865Z" fill="#FABFBA"/>
<path d="M180.881 73.9865L180.881 226.013L120.07 262.5L120.07 37.5L180.881 73.9865Z" fill="#FF5F46"/>
<path d="M262.279 73.9865L262.279 226.013L201.469 262.5L201.468 37.5L262.279 73.9865Z" fill="#FABFBA"/>
<path d="M340.501 138V60.72H360.373C369.352 60.72 376.749 62.3024 382.563 65.4672C388.451 68.5584 392.794 73.0112 395.59 78.8256C398.461 84.5664 399.896 91.4848 399.896 99.5808C399.896 107.53 398.461 114.374 395.59 120.115C392.794 125.856 388.451 130.272 382.563 133.363C376.749 136.454 369.352 138 360.373 138H340.501ZM349.774 130.272H360.152C367.586 130.272 373.51 129.058 377.926 126.629C382.342 124.126 385.507 120.594 387.421 116.03C389.334 111.394 390.291 105.91 390.291 99.5808C390.291 93.104 389.334 87.5472 387.421 82.9104C385.507 78.2736 382.342 74.704 377.926 72.2016C373.51 69.6992 367.586 68.448 360.152 68.448H349.774V130.272ZM427.945 139.325C423.529 139.325 419.849 138.515 416.905 136.896C413.961 135.203 411.753 132.995 410.281 130.272C408.809 127.475 408.073 124.494 408.073 121.33C408.073 117.502 409.029 114.264 410.943 111.614C412.93 108.891 415.69 106.83 419.223 105.432C422.756 104.034 426.877 103.334 431.588 103.334H446.05C446.05 99.5808 445.609 96.4528 444.725 93.9504C443.842 91.448 442.407 89.5712 440.42 88.32C438.433 87.0688 435.783 86.4432 432.471 86.4432C429.159 86.4432 426.325 87.2896 423.97 88.9824C421.615 90.6016 420.143 93.0304 419.554 96.2688H410.06C410.501 92.4416 411.789 89.24 413.924 86.664C416.058 84.0144 418.745 82.0272 421.983 80.7024C425.295 79.304 428.791 78.6048 432.471 78.6048C437.697 78.6048 442.002 79.5616 445.388 81.4752C448.773 83.3152 451.276 85.928 452.895 89.3136C454.514 92.6256 455.324 96.5632 455.324 101.126V138H447.044L446.492 128.064C445.756 129.61 444.799 131.082 443.621 132.48C442.517 133.805 441.193 134.982 439.647 136.013C438.101 137.043 436.335 137.853 434.348 138.442C432.434 139.03 430.3 139.325 427.945 139.325ZM429.269 131.486C431.698 131.486 433.943 130.934 436.004 129.83C438.065 128.726 439.831 127.254 441.303 125.414C442.849 123.501 444.026 121.366 444.836 119.011C445.645 116.656 446.05 114.19 446.05 111.614V110.51H432.361C428.901 110.51 426.068 110.952 423.86 111.835C421.725 112.718 420.18 113.97 419.223 115.589C418.266 117.134 417.788 118.901 417.788 120.888C417.788 123.022 418.229 124.899 419.113 126.518C419.996 128.064 421.284 129.278 422.977 130.162C424.743 131.045 426.841 131.486 429.269 131.486ZM488.345 138C485.033 138 482.163 137.485 479.734 136.454C477.305 135.424 475.429 133.694 474.104 131.266C472.853 128.763 472.227 125.414 472.227 121.219V87.768H462.07V79.9296H472.227L473.441 65.4672H481.501V79.9296H497.95V87.768H481.501V121.219C481.501 124.678 482.2 127.034 483.598 128.285C484.997 129.462 487.462 130.051 490.995 130.051H497.729V138H488.345ZM525.467 139.325C521.051 139.325 517.371 138.515 514.427 136.896C511.483 135.203 509.275 132.995 507.803 130.272C506.331 127.475 505.595 124.494 505.595 121.33C505.595 117.502 506.552 114.264 508.466 111.614C510.453 108.891 513.213 106.83 516.746 105.432C520.279 104.034 524.4 103.334 529.111 103.334H543.573C543.573 99.5808 543.131 96.4528 542.248 93.9504C541.365 91.448 539.93 89.5712 537.943 88.32C535.955 87.0688 533.306 86.4432 529.994 86.4432C526.682 86.4432 523.848 87.2896 521.493 88.9824C519.138 90.6016 517.666 93.0304 517.077 96.2688H507.583C508.024 92.4416 509.312 89.24 511.447 86.664C513.581 84.0144 516.267 82.0272 519.506 80.7024C522.818 79.304 526.314 78.6048 529.994 78.6048C535.219 78.6048 539.525 79.5616 542.911 81.4752C546.296 83.3152 548.799 85.928 550.418 89.3136C552.037 92.6256 552.847 96.5632 552.847 101.126V138H544.567L544.015 128.064C543.279 129.61 542.322 131.082 541.144 132.48C540.04 133.805 538.715 134.982 537.17 136.013C535.624 137.043 533.858 137.853 531.871 138.442C529.957 139.03 527.823 139.325 525.467 139.325ZM526.792 131.486C529.221 131.486 531.466 130.934 533.527 129.83C535.587 128.726 537.354 127.254 538.826 125.414C540.371 123.501 541.549 121.366 542.359 119.011C543.168 116.656 543.573 114.19 543.573 111.614V110.51H529.883C526.424 110.51 523.591 110.952 521.383 111.835C519.248 112.718 517.703 113.97 516.746 115.589C515.789 117.134 515.311 118.901 515.311 120.888C515.311 123.022 515.752 124.899 516.635 126.518C517.519 128.064 518.807 129.278 520.499 130.162C522.266 131.045 524.363 131.486 526.792 131.486ZM593.781 139.325C590.248 139.325 587.194 138.81 584.618 137.779C582.115 136.675 579.981 135.314 578.214 133.694C576.522 132.075 575.123 130.493 574.019 128.947L573.246 138H564.856V58.512H574.13V89.0928C575.896 85.6336 578.509 83.0208 581.968 81.2544C585.427 79.488 589.291 78.6048 593.56 78.6048C598.859 78.6048 603.496 79.8928 607.47 82.4688C611.445 85.0448 614.536 88.6144 616.744 93.1776C618.952 97.6672 620.056 102.856 620.056 108.744C620.056 114.558 618.952 119.784 616.744 124.421C614.536 129.058 611.445 132.701 607.47 135.35C603.57 138 599.006 139.325 593.781 139.325ZM592.566 131.266C596.026 131.266 599.08 130.382 601.73 128.616C604.453 126.776 606.587 124.2 608.133 120.888C609.752 117.502 610.562 113.528 610.562 108.965C610.562 104.402 609.752 100.464 608.133 97.152C606.587 93.7664 604.453 91.1904 601.73 89.424C599.08 87.584 596.026 86.664 592.566 86.664C588.886 86.664 585.685 87.584 582.962 89.424C580.238 91.1904 578.141 93.7664 576.669 97.152C575.197 100.464 574.461 104.402 574.461 108.965C574.461 113.528 575.197 117.502 576.669 120.888C578.141 124.2 580.238 126.776 582.962 128.616C585.685 130.382 588.886 131.266 592.566 131.266ZM630.221 138V79.9296H638.611L639.273 90.528C640.598 87.8784 642.328 85.6704 644.462 83.904C646.597 82.1376 649.173 80.8128 652.19 79.9296C655.281 79.0464 658.741 78.6048 662.568 78.6048V88.32H656.827C654.619 88.32 652.485 88.6144 650.424 89.2032C648.363 89.792 646.486 90.7488 644.793 92.0736C643.174 93.3984 641.886 95.2016 640.929 97.4832C639.973 99.7648 639.494 102.635 639.494 106.094V138H630.221ZM670.809 138V79.9296H680.083V138H670.809ZM675.446 68.8896C673.606 68.8896 672.06 68.3008 670.809 67.1232C669.631 65.872 669.043 64.3264 669.043 62.4864C669.043 60.6464 669.631 59.1744 670.809 58.0704C672.06 56.8928 673.606 56.304 675.446 56.304C677.212 56.304 678.721 56.8928 679.972 58.0704C681.223 59.1744 681.849 60.6464 681.849 62.4864C681.849 64.3264 681.223 65.872 679.972 67.1232C678.721 68.3008 677.212 68.8896 675.446 68.8896ZM718.304 139.325C713.005 139.325 708.295 138.074 704.173 135.571C700.051 132.995 696.813 129.426 694.458 124.862C692.103 120.299 690.925 115 690.925 108.965C690.925 102.856 692.103 97.5568 694.458 93.0672C696.813 88.504 700.051 84.9712 704.173 82.4688C708.295 79.8928 713.005 78.6048 718.304 78.6048C724.928 78.6048 730.448 80.3712 734.864 83.904C739.354 87.4368 742.224 92.184 743.475 98.1456H733.981C733.171 94.4656 731.295 91.632 728.351 89.6448C725.48 87.584 722.095 86.5536 718.194 86.5536C714.808 86.5536 711.754 87.4 709.031 89.0928C706.381 90.7856 704.283 93.288 702.738 96.6C701.192 99.912 700.419 104.034 700.419 108.965C700.419 112.645 700.861 115.92 701.744 118.79C702.627 121.587 703.842 123.942 705.387 125.856C707.007 127.696 708.883 129.094 711.018 130.051C713.226 131.008 715.618 131.486 718.194 131.486C720.843 131.486 723.235 131.045 725.37 130.162C727.578 129.205 729.418 127.843 730.89 126.077C732.435 124.31 733.466 122.213 733.981 119.784H743.475C742.298 125.598 739.427 130.309 734.864 133.915C730.375 137.522 724.855 139.325 718.304 139.325ZM787.762 138L761.377 106.646L786.217 79.9296H797.588L769.215 109.958L769.325 103.334L799.575 138H787.762ZM753.649 138V58.512H762.922V138H753.649ZM823.817 139.325C818.592 139.325 814.249 138.552 810.79 137.006C807.405 135.387 804.829 133.179 803.062 130.382C801.296 127.512 800.229 124.2 799.861 120.446H809.355C809.649 122.434 810.312 124.274 811.342 125.966C812.446 127.586 814.029 128.91 816.089 129.941C818.15 130.971 820.763 131.486 823.928 131.486C826.43 131.486 828.565 131.118 830.331 130.382C832.097 129.573 833.422 128.469 834.305 127.07C835.262 125.672 835.741 124.053 835.741 122.213C835.741 119.784 835.189 117.907 834.085 116.582C833.054 115.184 831.509 114.154 829.448 113.491C827.461 112.755 824.958 112.203 821.941 111.835C818.702 111.394 815.832 110.768 813.329 109.958C810.827 109.149 808.693 108.082 806.926 106.757C805.233 105.432 803.945 103.776 803.062 101.789C802.179 99.8016 801.737 97.4464 801.737 94.7232C801.737 91.5584 802.584 88.7616 804.277 86.3328C805.969 83.904 808.361 82.0272 811.453 80.7024C814.617 79.304 818.334 78.6048 822.603 78.6048C828.859 78.6048 833.79 80.04 837.397 82.9104C841.077 85.7808 843.248 89.8656 843.91 95.1648H834.747C834.379 92.4416 833.128 90.3072 830.993 88.7616C828.859 87.216 826.025 86.4432 822.493 86.4432C818.739 86.4432 815.905 87.1424 813.992 88.5408C812.078 89.9392 811.121 91.7792 811.121 94.0608C811.121 95.7536 811.526 97.2992 812.336 98.6976C813.219 100.022 814.691 101.163 816.752 102.12C818.813 103.003 821.573 103.666 825.032 104.107C829.374 104.622 833.054 105.469 836.072 106.646C839.089 107.75 841.371 109.48 842.917 111.835C844.536 114.19 845.309 117.392 845.235 121.44C845.235 125.267 844.315 128.506 842.475 131.155C840.709 133.805 838.206 135.829 834.968 137.227C831.803 138.626 828.086 139.325 823.817 139.325ZM339.838 237V159.72H355.515L380.245 209.621L404.754 159.72H420.541V237H407.293V182.462L385.434 226.181H375.056L353.086 182.573V237H339.838ZM451.016 238.325C446.453 238.325 442.663 237.552 439.645 236.006C436.628 234.461 434.383 232.4 432.911 229.824C431.439 227.248 430.703 224.451 430.703 221.434C430.703 217.901 431.586 214.846 433.352 212.27C435.192 209.694 437.879 207.707 441.412 206.309C444.944 204.837 449.287 204.101 454.439 204.101H468.46C468.46 201.157 468.055 198.728 467.245 196.814C466.436 194.827 465.184 193.355 463.492 192.398C461.799 191.442 459.628 190.963 456.978 190.963C453.96 190.963 451.384 191.662 449.25 193.061C447.116 194.386 445.791 196.446 445.276 199.243H432.248C432.69 195.269 434.015 191.883 436.223 189.086C438.431 186.216 441.338 184.008 444.944 182.462C448.624 180.843 452.636 180.034 456.978 180.034C462.204 180.034 466.656 180.954 470.336 182.794C474.016 184.56 476.813 187.136 478.727 190.522C480.714 193.834 481.708 197.845 481.708 202.555V237H470.447L469.122 228.058C468.386 229.53 467.429 230.891 466.252 232.142C465.148 233.394 463.86 234.498 462.388 235.454C460.916 236.338 459.223 237.037 457.309 237.552C455.469 238.067 453.372 238.325 451.016 238.325ZM453.997 227.837C456.132 227.837 458.008 227.469 459.628 226.733C461.32 225.923 462.756 224.819 463.933 223.421C465.184 221.949 466.141 220.33 466.804 218.563C467.466 216.797 467.908 214.92 468.128 212.933V212.712H455.874C453.298 212.712 451.164 213.043 449.471 213.706C447.778 214.294 446.564 215.178 445.828 216.355C445.092 217.533 444.724 218.894 444.724 220.44C444.724 221.986 445.092 223.31 445.828 224.414C446.564 225.518 447.631 226.365 449.029 226.954C450.428 227.542 452.084 227.837 453.997 227.837ZM492.551 237V181.358H504.364L505.578 191.736C506.903 189.307 508.559 187.246 510.546 185.554C512.533 183.787 514.852 182.426 517.501 181.469C520.225 180.512 523.205 180.034 526.444 180.034V194.054H521.807C519.599 194.054 517.501 194.349 515.514 194.938C513.527 195.453 511.797 196.336 510.325 197.587C508.927 198.765 507.823 200.421 507.013 202.555C506.204 204.616 505.799 207.229 505.799 210.394V237H492.551ZM568.999 237L544.379 206.53L566.459 181.358H582.247L554.757 211.939V201.672L585.559 237H568.999ZM533.119 237V157.512H546.367V237H533.119ZM612.786 238.325C607.266 238.325 602.408 237.147 598.213 234.792C594.018 232.363 590.743 228.978 588.388 224.635C586.032 220.293 584.855 215.288 584.855 209.621C584.855 203.733 585.996 198.581 588.277 194.165C590.632 189.749 593.908 186.29 598.103 183.787C602.372 181.285 607.303 180.034 612.896 180.034C618.343 180.034 623.09 181.248 627.138 183.677C631.186 186.106 634.314 189.381 636.522 193.502C638.73 197.55 639.834 202.114 639.834 207.192C639.834 207.928 639.834 208.738 639.834 209.621C639.834 210.504 639.76 211.424 639.613 212.381H594.349V203.88H626.476C626.328 199.832 624.967 196.667 622.391 194.386C619.815 192.03 616.613 190.853 612.786 190.853C610.063 190.853 607.56 191.478 605.279 192.73C602.997 193.981 601.194 195.858 599.869 198.36C598.544 200.789 597.882 203.88 597.882 207.634V210.835C597.882 214.294 598.508 217.275 599.759 219.778C601.084 222.28 602.85 224.194 605.058 225.518C607.34 226.77 609.879 227.395 612.676 227.395C615.767 227.395 618.306 226.733 620.293 225.408C622.354 224.083 623.863 222.317 624.82 220.109H638.288C637.258 223.568 635.565 226.696 633.21 229.493C630.855 232.216 627.948 234.387 624.488 236.006C621.029 237.552 617.128 238.325 612.786 238.325ZM671.853 237C668.1 237 664.825 236.411 662.028 235.234C659.305 234.056 657.17 232.106 655.625 229.382C654.079 226.659 653.306 222.979 653.306 218.342V192.509H643.812V181.358H653.306L654.852 166.675H666.554V181.358H681.679V192.509H666.554V218.342C666.554 221.139 667.143 223.09 668.321 224.194C669.572 225.224 671.633 225.739 674.503 225.739H681.348V237H671.853ZM690.831 261.288V181.358H702.644L704.079 189.418C705.257 187.798 706.655 186.29 708.274 184.891C709.967 183.419 711.991 182.242 714.346 181.358C716.775 180.475 719.535 180.034 722.626 180.034C727.852 180.034 732.452 181.322 736.426 183.898C740.474 186.474 743.639 189.97 745.921 194.386C748.202 198.728 749.343 203.696 749.343 209.29C749.343 214.883 748.165 219.888 745.81 224.304C743.529 228.646 740.364 232.069 736.316 234.571C732.341 237.074 727.778 238.325 722.626 238.325C718.431 238.325 714.751 237.552 711.586 236.006C708.495 234.387 705.993 232.106 704.079 229.162V261.288H690.831ZM719.866 226.843C722.957 226.843 725.717 226.107 728.146 224.635C730.575 223.163 732.452 221.102 733.777 218.453C735.175 215.803 735.874 212.749 735.874 209.29C735.874 205.757 735.175 202.666 733.777 200.016C732.452 197.366 730.575 195.306 728.146 193.834C725.717 192.362 722.957 191.626 719.866 191.626C716.701 191.626 713.905 192.362 711.476 193.834C709.121 195.306 707.244 197.366 705.845 200.016C704.521 202.666 703.858 205.72 703.858 209.179C703.858 212.712 704.521 215.803 705.845 218.453C707.244 221.029 709.121 223.09 711.476 224.635C713.905 226.107 716.701 226.843 719.866 226.843ZM758.891 237V157.512H772.139V237H758.891ZM802.157 238.325C797.594 238.325 793.804 237.552 790.786 236.006C787.769 234.461 785.524 232.4 784.052 229.824C782.58 227.248 781.844 224.451 781.844 221.434C781.844 217.901 782.727 214.846 784.493 212.27C786.333 209.694 789.02 207.707 792.553 206.309C796.085 204.837 800.428 204.101 805.58 204.101H819.601C819.601 201.157 819.196 198.728 818.386 196.814C817.577 194.827 816.325 193.355 814.633 192.398C812.94 191.442 810.769 190.963 808.119 190.963C805.101 190.963 802.525 191.662 800.391 193.061C798.257 194.386 796.932 196.446 796.417 199.243H783.389C783.831 195.269 785.156 191.883 787.364 189.086C789.572 186.216 792.479 184.008 796.085 182.462C799.765 180.843 803.777 180.034 808.119 180.034C813.345 180.034 817.797 180.954 821.477 182.794C825.157 184.56 827.954 187.136 829.868 190.522C831.855 193.834 832.849 197.845 832.849 202.555V237H821.588L820.263 228.058C819.527 229.53 818.57 230.891 817.393 232.142C816.289 233.394 815.001 234.498 813.529 235.454C812.057 236.338 810.364 237.037 808.45 237.552C806.61 238.067 804.513 238.325 802.157 238.325ZM805.138 227.837C807.273 227.837 809.149 227.469 810.769 226.733C812.461 225.923 813.897 224.819 815.074 223.421C816.325 221.949 817.282 220.33 817.945 218.563C818.607 216.797 819.049 214.92 819.269 212.933V212.712H807.015C804.439 212.712 802.305 213.043 800.612 213.706C798.919 214.294 797.705 215.178 796.969 216.355C796.233 217.533 795.865 218.894 795.865 220.44C795.865 221.986 796.233 223.31 796.969 224.414C797.705 225.518 798.772 226.365 800.17 226.954C801.569 227.542 803.225 227.837 805.138 227.837ZM870.078 238.325C864.631 238.325 859.737 237.11 855.394 234.682C851.126 232.179 847.777 228.757 845.348 224.414C842.993 219.998 841.815 214.994 841.815 209.4C841.815 203.586 842.993 198.507 845.348 194.165C847.777 189.749 851.126 186.29 855.394 183.787C859.737 181.285 864.668 180.034 870.188 180.034C877.106 180.034 882.921 181.874 887.631 185.554C892.342 189.16 895.359 194.128 896.684 200.458H882.774C882.038 197.661 880.492 195.453 878.137 193.834C875.855 192.214 873.132 191.405 869.967 191.405C867.244 191.405 864.742 192.104 862.46 193.502C860.252 194.901 858.486 196.925 857.161 199.574C855.91 202.224 855.284 205.426 855.284 209.179C855.284 212.05 855.652 214.589 856.388 216.797C857.124 219.005 858.154 220.882 859.479 222.427C860.878 223.899 862.46 225.04 864.226 225.85C865.993 226.659 867.906 227.064 869.967 227.064C872.102 227.064 874.015 226.733 875.708 226.07C877.474 225.334 878.946 224.267 880.124 222.869C881.375 221.47 882.258 219.814 882.774 217.901H896.684C895.359 224.083 892.342 229.051 887.631 232.805C882.921 236.485 877.07 238.325 870.078 238.325ZM932.2 238.325C926.68 238.325 921.822 237.147 917.627 234.792C913.432 232.363 910.157 228.978 907.802 224.635C905.446 220.293 904.269 215.288 904.269 209.621C904.269 203.733 905.41 198.581 907.691 194.165C910.046 189.749 913.322 186.29 917.517 183.787C921.786 181.285 926.717 180.034 932.31 180.034C937.757 180.034 942.504 181.248 946.552 183.677C950.6 186.106 953.728 189.381 955.936 193.502C958.144 197.55 959.248 202.114 959.248 207.192C959.248 207.928 959.248 208.738 959.248 209.621C959.248 210.504 959.174 211.424 959.027 212.381H913.763V203.88H945.89C945.742 199.832 944.381 196.667 941.805 194.386C939.229 192.03 936.027 190.853 932.2 190.853C929.477 190.853 926.974 191.478 924.693 192.73C922.411 193.981 920.608 195.858 919.283 198.36C917.958 200.789 917.296 203.88 917.296 207.634V210.835C917.296 214.294 917.922 217.275 919.173 219.778C920.498 222.28 922.264 224.194 924.472 225.518C926.754 226.77 929.293 227.395 932.09 227.395C935.181 227.395 937.72 226.733 939.707 225.408C941.768 224.083 943.277 222.317 944.234 220.109H957.702C956.672 223.568 954.979 226.696 952.624 229.493C950.269 232.216 947.362 234.387 943.902 236.006C940.443 237.552 936.542 238.325 932.2 238.325Z" fill="white"/>
</svg>
