<svg width="150" height="150" viewBox="0 0 150 150" fill="none" xmlns="http://www.w3.org/2000/svg">
<path d="M26.4 25.6H47.2C45.5 27.3 44.5 29.7 44.5 32.2V37.7H80.4V32.2C80.4 29.6 79.4 27.3 77.7 25.6H98.5V44.2H101.5V22.6H70.8H66.6C67.8 21.5 68.5 19.9 68.5 18.1C68.5 14.7 65.8 12 62.4 12C59 12 56.3 14.7 56.3 18.1C56.3 19.9 57.1 21.4 58.2 22.6H54H23.4V124.4H49.9V121.4H26.4V25.6ZM62.5 15.1C64.2 15.1 65.6 16.5 65.6 18.2C65.6 19.9 64.2 21.3 62.5 21.3C60.8 21.3 59.4 19.9 59.4 18.2C59.4 16.5 60.7 15.1 62.5 15.1ZM70.8 25.6C74.5 25.6 77.4 28.6 77.4 32.2V34.7H47.5V32.2C47.5 28.5 50.5 25.6 54.1 25.6H70.8Z" fill="#1B3139"/>
<path d="M43.3 45.1001V42.1001H35.3V111.6H43.7001V108.6H38.3V98.8001H43.3V95.8001H38.3V85.1001H43.3V82.1001H38.3V71.4001H43.3V68.4001H38.3V57.8001H43.3V54.8001H38.3V45.1001H43.3Z" fill="#1B3139"/>
<path d="M129.7 77.5V60.1L106.6 46.8L85 59.2001L77.1 54.2001C77.6 53.2001 77.8001 52 77.8001 50.8C77.8001 46.1 74.0001 42.3 69.3001 42.3C64.6001 42.3 60.8 46.1 60.8 50.8C60.8 55.5 64.6001 59.3 69.3001 59.3C71.7001 59.3 73.8001 58.3001 75.4001 56.7001L83.5 61.8V85L63.5 96.6L51.9001 89L50.3 91.5L61.9001 99.1V115C57.9001 115.7 54.9001 119.2 54.9001 123.3C54.9001 128 58.7001 131.8 63.4001 131.8C66.0001 131.8 68.3001 130.6 69.9001 128.8L85 137.5L108.1 124.2V99.2L121.7 91.3001C123.3 93.1001 125.6 94.3001 128.2 94.3001C132.9 94.3001 136.7 90.5001 136.7 85.8001C136.6 81.7001 133.6 78.3 129.7 77.5ZM69.3001 56.2001C66.3001 56.2001 63.8 53.7001 63.8 50.7001C63.8 47.7001 66.3001 45.2001 69.3001 45.2001C72.3001 45.2001 74.8001 47.7001 74.8001 50.7001C74.8001 53.7001 72.3001 56.2001 69.3001 56.2001ZM63.4001 128.8C60.4001 128.8 57.9001 126.3 57.9001 123.3C57.9001 120.3 60.4001 117.8 63.4001 117.8C66.4001 117.8 68.9001 120.3 68.9001 123.3C68.9001 126.3 66.4001 128.8 63.4001 128.8ZM85 134L71.4001 126.1C71.7001 125.2 71.9001 124.2 71.9001 123.2C71.9001 119 68.9001 115.6 64.9001 114.9V99.2L85 87.6L95 93.4001L105 99.2V122.4L85 134ZM106.6 96.6L96.6 90.8001L86.6 85V61.8L106.7 50.2001L126.8 61.8V77.5C122.8 78.2 119.8 81.7001 119.8 85.8001C119.8 86.8001 120 87.8 120.3 88.7L106.6 96.6ZM128.2 91.4001C125.2 91.4001 122.7 88.9001 122.7 85.9001C122.7 82.9001 125.2 80.4001 128.2 80.4001C131.2 80.4001 133.7 82.9001 133.7 85.9001C133.7 88.9001 131.2 91.4001 128.2 91.4001Z" fill="#1B3139"/>
</svg>
