<svg width="150" height="150" viewBox="0 0 150 150" fill="none" xmlns="http://www.w3.org/2000/svg">
<path d="M80.83 15.7402C79.3536 15.7429 77.9383 16.3306 76.8943 17.3746C75.8503 18.4186 75.2627 19.8338 75.26 21.3102V31.4902C75.2627 32.9667 75.8503 34.3819 76.8943 35.4259C77.9383 36.4699 79.3536 37.0576 80.83 37.0602H91C92.4765 37.0576 93.8917 36.4699 94.9357 35.4259C95.9797 34.3819 96.5674 32.9667 96.57 31.4902V21.3102C96.5674 19.8338 95.9797 18.4186 94.9357 17.3746C93.8917 16.3306 92.4765 15.7429 91 15.7402H80.83ZM93.58 21.3102V31.4902C93.5813 31.8289 93.5154 32.1646 93.3861 32.4776C93.2568 32.7907 93.0667 33.075 92.8267 33.314C92.5867 33.5531 92.3017 33.7421 91.9881 33.8702C91.6746 33.9983 91.3387 34.0629 91 34.0602H80.83C80.4921 34.0616 80.1574 33.996 79.8449 33.8673C79.5325 33.7386 79.2487 33.5494 79.0098 33.3104C78.7709 33.0715 78.5816 32.7877 78.4529 32.4753C78.3243 32.1629 78.2587 31.8281 78.26 31.4902V21.3102C78.2626 20.6294 78.5343 19.9773 79.0157 19.4959C79.4971 19.0145 80.1492 18.7429 80.83 18.7402H91C91.6825 18.7402 92.3373 19.0107 92.8208 19.4924C93.3044 19.974 93.5774 20.6277 93.58 21.3102V21.3102Z" fill="#1B3139"/>
<path d="M68.85 21.3102C68.8474 19.8338 68.2597 18.4186 67.2157 17.3746C66.1717 16.3306 64.7564 15.7429 63.28 15.7402H53.1C51.6236 15.7429 50.2083 16.3306 49.1643 17.3746C48.1203 18.4186 47.5326 19.8338 47.53 21.3102V31.4902C47.5326 32.9667 48.1203 34.3819 49.1643 35.4259C50.2083 36.4699 51.6236 37.0576 53.1 37.0602H63.28C64.7564 37.0576 66.1717 36.4699 67.2157 35.4259C68.2597 34.3819 68.8474 32.9667 68.85 31.4902V21.3102ZM65.85 31.4902C65.8513 31.8281 65.7858 32.1629 65.6571 32.4753C65.5284 32.7877 65.3391 33.0715 65.1002 33.3104C64.8613 33.5494 64.5775 33.7386 64.2651 33.8673C63.9527 33.996 63.6179 34.0616 63.28 34.0602H53.1C52.7625 34.0602 52.4283 33.9938 52.1165 33.8646C51.8047 33.7355 51.5214 33.5461 51.2827 33.3075C51.0441 33.0689 50.8548 32.7855 50.7256 32.4737C50.5965 32.1619 50.53 31.8277 50.53 31.4902V21.3102C50.5326 20.6294 50.8042 19.9773 51.2856 19.4959C51.767 19.0145 52.4192 18.7429 53.1 18.7402H63.28C63.9608 18.7429 64.613 19.0145 65.0944 19.4959C65.5758 19.9773 65.8474 20.6294 65.85 21.3102V31.4902Z" fill="#1B3139"/>
<path d="M41.12 21.3102C41.12 19.8347 40.5345 18.4195 39.4921 17.3752C38.4497 16.3309 37.0355 15.7429 35.56 15.7402H25.37C23.8945 15.7429 22.4803 16.3309 21.4379 17.3752C20.3955 18.4195 19.81 19.8347 19.81 21.3102V31.4902C19.81 32.9658 20.3955 34.381 21.4379 35.4253C22.4803 36.4696 23.8945 37.0576 25.37 37.0602H35.56C37.0355 37.0576 38.4497 36.4696 39.4921 35.4253C40.5345 34.381 41.12 32.9658 41.12 31.4902V21.3102ZM38.12 31.4902C38.1213 31.8273 38.0561 32.1612 37.928 32.473C37.7999 32.7847 37.6116 33.0681 37.3737 33.3069C37.1359 33.5457 36.8532 33.7351 36.542 33.8644C36.2307 33.9937 35.897 34.0602 35.56 34.0602H25.37C25.033 34.0602 24.6993 33.9937 24.388 33.8644C24.0768 33.7351 23.7941 33.5457 23.5563 33.3069C23.3184 33.0681 23.1301 32.7847 23.002 32.473C22.8739 32.1612 22.8087 31.8273 22.81 31.4902V21.3102C22.81 20.6304 23.0794 19.9782 23.5592 19.4965C24.039 19.0148 24.6901 18.7429 25.37 18.7402H35.56C36.2399 18.7429 36.891 19.0148 37.3708 19.4965C37.8506 19.9782 38.12 20.6304 38.12 21.3102V31.4902Z" fill="#1B3139"/>
<path d="M63.28 45.2798H53.1C52.3698 45.2785 51.6466 45.421 50.9715 45.6992C50.2964 45.9774 49.6828 46.3858 49.1656 46.9012C48.6483 47.4166 48.2377 48.0288 47.9571 48.7028C47.6764 49.3769 47.5313 50.0996 47.53 50.8298V60.9998C47.5353 62.4736 48.1245 63.8852 49.1685 64.9255C50.2125 65.9657 51.6262 66.5498 53.1 66.5498H63.28C64.7538 66.5498 66.1675 65.9657 67.2115 64.9255C68.2555 63.8852 68.8447 62.4736 68.85 60.9998V50.8298C68.8487 50.0996 68.7036 49.3769 68.4229 48.7028C68.1423 48.0288 67.7317 47.4166 67.2144 46.9012C66.6972 46.3858 66.0836 45.9774 65.4085 45.6992C64.7334 45.421 64.0101 45.2785 63.28 45.2798V45.2798ZM65.85 60.9998C65.8487 61.336 65.7812 61.6686 65.6513 61.9787C65.5214 62.2888 65.3318 62.5703 65.0931 62.8071C64.8545 63.0439 64.5715 63.2313 64.2604 63.3588C63.9493 63.4862 63.6162 63.5511 63.28 63.5498H53.1C52.7638 63.5511 52.4307 63.4862 52.1196 63.3588C51.8085 63.2313 51.5255 63.0439 51.2869 62.8071C51.0482 62.5703 50.8586 62.2888 50.7287 61.9787C50.5988 61.6686 50.5313 61.336 50.53 60.9998V50.8298C50.5353 50.1517 50.8084 49.5031 51.2898 49.0254C51.7712 48.5478 52.4218 48.2798 53.1 48.2798H63.28C63.9582 48.2798 64.6088 48.5478 65.0902 49.0254C65.5716 49.5031 65.8447 50.1517 65.85 50.8298V60.9998Z" fill="#1B3139"/>
<path d="M53.1 125.64H66L64.47 122.64H53.1C52.4184 122.64 51.7647 122.369 51.2827 121.887C50.8008 121.405 50.53 120.752 50.53 120.07V109.89C50.53 109.208 50.8008 108.555 51.2827 108.073C51.7647 107.591 52.4184 107.32 53.1 107.32H56.67L55.14 104.32H53.14C51.6628 104.32 50.246 104.907 49.2014 105.951C48.1568 106.996 47.57 108.413 47.57 109.89V120.07C47.57 121.54 48.1513 122.951 49.1873 123.995C50.2232 125.038 51.6297 125.63 53.1 125.64V125.64Z" fill="#1B3139"/>
<path d="M124.31 21.3102C124.307 19.8338 123.72 18.4186 122.676 17.3746C121.632 16.3306 120.216 15.7429 118.74 15.7402H108.56C107.085 15.7455 105.673 16.3344 104.631 17.3781C103.589 18.4218 103.003 19.8355 103 21.3102V31.4902C103.003 32.9667 103.59 34.3819 104.634 35.4259C105.678 36.4699 107.094 37.0576 108.57 37.0602H118.75C120.226 37.0576 121.642 36.4699 122.686 35.4259C123.73 34.3819 124.317 32.9667 124.32 31.4902L124.31 21.3102ZM121.31 31.4902C121.311 31.8281 121.246 32.1629 121.117 32.4753C120.988 32.7877 120.799 33.0715 120.56 33.3104C120.321 33.5494 120.037 33.7386 119.725 33.8673C119.413 33.996 119.078 34.0616 118.74 34.0602H108.56C108.223 34.0602 107.889 33.9937 107.578 33.8644C107.267 33.7351 106.984 33.5457 106.746 33.3069C106.508 33.0681 106.32 32.7847 106.192 32.473C106.064 32.1612 105.999 31.8273 106 31.4902V21.3102C106.003 20.6294 106.274 19.9773 106.756 19.4959C107.237 19.0145 107.889 18.7429 108.57 18.7402H118.75C119.431 18.7429 120.083 19.0145 120.564 19.4959C121.046 19.9773 121.317 20.6294 121.32 21.3102L121.31 31.4902Z" fill="#1B3139"/>
<path d="M118.74 45.2798H108.56C107.087 45.2798 105.674 45.8642 104.632 46.9047C103.59 47.9453 103.003 49.3569 103 50.8298V60.9998C103.005 62.4736 103.594 63.8852 104.638 64.9255C105.682 65.9657 107.096 66.5498 108.57 66.5498H118.75C120.222 66.5472 121.633 65.9619 122.675 64.9219C123.717 63.882 124.305 62.4719 124.31 60.9998V50.8298C124.309 50.0996 124.164 49.3769 123.883 48.7028C123.602 48.0288 123.192 47.4166 122.674 46.9012C122.157 46.3858 121.544 45.9774 120.868 45.6992C120.193 45.421 119.47 45.2785 118.74 45.2798ZM121.31 60.9998C121.309 61.336 121.241 61.6686 121.111 61.9787C120.981 62.2888 120.792 62.5703 120.553 62.8071C120.314 63.0439 120.032 63.2313 119.72 63.3588C119.409 63.4862 119.076 63.5511 118.74 63.5498H108.56C107.883 63.5498 107.233 63.2815 106.753 62.8035C106.274 62.3256 106.003 61.677 106 60.9998V50.8298C106.005 50.1517 106.278 49.5031 106.76 49.0254C107.241 48.5478 107.892 48.2798 108.57 48.2798H118.75C119.428 48.2798 120.079 48.5478 120.56 49.0254C121.042 49.5031 121.315 50.1517 121.32 50.8298L121.31 60.9998Z" fill="#1B3139"/>
<path d="M41.12 50.8298C41.12 50.1001 40.9761 49.3776 40.6966 48.7036C40.417 48.0296 40.0073 47.4173 39.4909 46.9018C38.9745 46.3863 38.3615 45.9777 37.687 45.6994C37.0125 45.4211 36.2897 45.2785 35.56 45.2798H25.37C24.6403 45.2785 23.9175 45.4211 23.243 45.6994C22.5685 45.9777 21.9555 46.3863 21.4391 46.9018C20.9227 47.4173 20.513 48.0296 20.2334 48.7036C19.9539 49.3776 19.81 50.1001 19.81 50.8298V60.9998C19.8126 62.4727 20.3996 63.8843 21.442 64.9248C22.4844 65.9654 23.8971 66.5498 25.37 66.5498H35.56C37.0329 66.5498 38.4456 65.9654 39.488 64.9248C40.5304 63.8843 41.1173 62.4727 41.12 60.9998V50.8298ZM38.12 61.0298C38.1174 61.707 37.8465 62.3556 37.3667 62.8335C36.8869 63.3115 36.2372 63.5798 35.56 63.5798H25.37C25.0321 63.5798 24.6976 63.5129 24.3857 63.383C24.0738 63.2531 23.7907 63.0628 23.5527 62.8229C23.3147 62.5831 23.1266 62.2985 22.9991 61.9856C22.8716 61.6727 22.8074 61.3377 22.81 60.9998V50.8298C22.8126 50.1526 23.0835 49.504 23.5633 49.0261C24.0431 48.5481 24.6928 48.2798 25.37 48.2798H35.56C36.2372 48.2798 36.8869 48.5481 37.3667 49.0261C37.8465 49.504 38.1174 50.1526 38.12 50.8298V61.0298Z" fill="#1B3139"/>
<path d="M41.12 80.36C41.12 78.8845 40.5345 77.4693 39.4921 76.425C38.4497 75.3807 37.0355 74.7927 35.56 74.79H25.37C23.8945 74.7927 22.4803 75.3807 21.4379 76.425C20.3955 77.4693 19.81 78.8845 19.81 80.36V90.54C19.81 92.0156 20.3955 93.4308 21.4379 94.4751C22.4803 95.5194 23.8945 96.1074 25.37 96.11H35.56C37.0355 96.1074 38.4497 95.5194 39.4921 94.4751C40.5345 93.4308 41.12 92.0156 41.12 90.54V80.36ZM38.12 90.54C38.1213 90.8771 38.0561 91.211 37.928 91.5228C37.7999 91.8345 37.6116 92.1179 37.3737 92.3567C37.1359 92.5955 36.8532 92.7849 36.542 92.9142C36.2307 93.0435 35.897 93.11 35.56 93.11H25.37C25.033 93.11 24.6993 93.0435 24.388 92.9142C24.0768 92.7849 23.7941 92.5955 23.5563 92.3567C23.3184 92.1179 23.1301 91.8345 23.002 91.5228C22.8739 91.211 22.8087 90.8771 22.81 90.54V80.36C22.81 79.6802 23.0794 79.028 23.5592 78.5463C24.039 78.0646 24.6901 77.7927 25.37 77.79H35.56C36.2399 77.7927 36.891 78.0646 37.3708 78.5463C37.8506 79.028 38.12 79.6802 38.12 80.36V90.54Z" fill="#1B3139"/>
<path d="M35.56 104.32H25.37C24.639 104.32 23.9152 104.464 23.24 104.744C22.5648 105.024 21.9514 105.435 21.435 105.952C20.9185 106.469 20.5092 107.084 20.2304 107.759C19.9515 108.435 19.8087 109.159 19.81 109.89V120.07C19.8087 120.801 19.9515 121.525 20.2304 122.201C20.5092 122.877 20.9185 123.491 21.435 124.008C21.9514 124.525 22.5648 124.936 23.24 125.216C23.9152 125.496 24.639 125.64 25.37 125.64H35.56C36.291 125.64 37.0148 125.496 37.69 125.216C38.3653 124.936 38.9786 124.525 39.4951 124.008C40.0115 123.491 40.4208 122.877 40.6996 122.201C40.9785 121.525 41.1213 120.801 41.12 120.07V109.89C41.1213 109.159 40.9785 108.435 40.6996 107.759C40.4208 107.084 40.0115 106.469 39.4951 105.952C38.9786 105.435 38.3653 105.024 37.69 104.744C37.0148 104.464 36.291 104.32 35.56 104.32ZM38.12 120.07C38.12 120.75 37.8506 121.402 37.3708 121.884C36.891 122.365 36.2399 122.637 35.56 122.64H25.37C24.6901 122.637 24.039 122.365 23.5592 121.884C23.0794 121.402 22.81 120.75 22.81 120.07V109.89C22.81 109.21 23.0794 108.558 23.5592 108.076C24.039 107.595 24.6901 107.323 25.37 107.32H35.56C36.2399 107.323 36.891 107.595 37.3708 108.076C37.8506 108.558 38.12 109.21 38.12 109.89V120.07Z" fill="#1B3139"/>
<path d="M86.13 134.26H111.6C114.658 134.249 117.621 133.192 119.996 131.266C122.371 129.34 124.017 126.66 124.66 123.67L129.93 98.67C130.589 95.5624 130.046 92.3205 128.409 89.5979C126.772 86.8754 124.164 84.8749 121.11 84L94.79 76.56V54.08C94.7135 51.8223 93.7628 49.6827 92.1387 48.1127C90.5145 46.5427 88.3439 45.665 86.085 45.665C83.8261 45.665 81.6555 46.5427 80.0313 48.1127C78.4072 49.6827 77.4565 51.8223 77.38 54.08V93.22L67.49 81.3C66.3529 79.9361 64.7671 79.022 63.017 78.7215C61.2669 78.4209 59.467 78.7536 57.94 79.66L54.79 81.51C54.0205 81.9825 53.4567 82.7269 53.2104 83.5956C52.964 84.4643 53.0531 85.3939 53.46 86.2L74.24 127C75.3551 129.193 77.0572 131.032 79.1566 132.314C81.256 133.596 83.6702 134.27 86.13 134.26V134.26ZM56.34 84.08L59.48 82.22C60.1628 81.8114 60.9443 81.597 61.74 81.6C62.3975 81.5991 63.0469 81.7439 63.6417 82.024C64.2365 82.3042 64.7619 82.7126 65.18 83.22L80.38 101.53V54.08C80.4416 52.6082 81.0696 51.2172 82.1328 50.1977C83.1959 49.1781 84.612 48.6089 86.085 48.6089C87.558 48.6089 88.9741 49.1781 90.0372 50.1977C91.1004 51.2172 91.7284 52.6082 91.79 54.08V78.82L120.29 86.92C122.6 87.5794 124.575 89.0879 125.82 91.1428C127.064 93.1978 127.486 95.6472 127 98L121.73 123C121.236 125.32 119.963 127.401 118.122 128.897C116.28 130.393 113.982 131.212 111.61 131.22H86.13C84.221 131.223 82.3485 130.697 80.7208 129.699C79.093 128.702 77.7739 127.272 76.91 125.57L56.13 84.83C56.0633 84.7016 56.0479 84.5527 56.0869 84.4135C56.1259 84.2742 56.2164 84.155 56.34 84.08V84.08Z" fill="#1B3139"/>
</svg>
