<svg width="150" height="150" viewBox="0 0 150 150" fill="none" xmlns="http://www.w3.org/2000/svg">
<path d="M80.83 15.74C79.3536 15.7426 77.9383 16.3303 76.8943 17.3743C75.8503 18.4183 75.2627 19.8336 75.26 21.31V31.49C75.2627 32.9664 75.8503 34.3817 76.8943 35.4257C77.9383 36.4697 79.3536 37.0574 80.83 37.06H91C92.4765 37.0574 93.8917 36.4697 94.9357 35.4257C95.9797 34.3817 96.5674 32.9664 96.57 31.49V21.31C96.5674 19.8336 95.9797 18.4183 94.9357 17.3743C93.8917 16.3303 92.4765 15.7426 91 15.74H80.83ZM93.58 21.31V31.49C93.5813 31.8287 93.5154 32.1643 93.3861 32.4774C93.2568 32.7905 93.0667 33.0747 92.8267 33.3138C92.5867 33.5528 92.3017 33.7419 91.9881 33.87C91.6746 33.9981 91.3387 34.0627 91 34.06H80.83C80.4921 34.0613 80.1574 33.9958 79.8449 33.8671C79.5325 33.7384 79.2487 33.5491 79.0098 33.3102C78.7709 33.0713 78.5816 32.7875 78.4529 32.4751C78.3243 32.1627 78.2587 31.8279 78.26 31.49V21.31C78.2626 20.6292 78.5343 19.977 79.0157 19.4957C79.4971 19.0143 80.1492 18.7426 80.83 18.74H91C91.6825 18.74 92.3373 19.0104 92.8208 19.4921C93.3044 19.9738 93.5774 20.6275 93.58 21.31Z" fill="#FF5F46"/>
<path d="M68.85 21.31C68.8474 19.8336 68.2597 18.4183 67.2157 17.3743C66.1717 16.3303 64.7565 15.7426 63.28 15.74H53.1C51.6236 15.7426 50.2084 16.3303 49.1644 17.3743C48.1204 18.4183 47.5327 19.8336 47.53 21.31V31.49C47.5327 32.9664 48.1204 34.3817 49.1644 35.4257C50.2084 36.4697 51.6236 37.0574 53.1 37.06H63.28C64.7565 37.0574 66.1717 36.4697 67.2157 35.4257C68.2597 34.3817 68.8474 32.9664 68.85 31.49V21.31ZM65.85 31.49C65.8514 31.8279 65.7858 32.1627 65.6571 32.4751C65.5284 32.7875 65.3392 33.0713 65.1002 33.3102C64.8613 33.5491 64.5775 33.7384 64.2651 33.8671C63.9527 33.9958 63.6179 34.0613 63.28 34.06H53.1C52.7625 34.06 52.4283 33.9935 52.1165 33.8644C51.8047 33.7352 51.5214 33.5459 51.2828 33.3073C51.0441 33.0686 50.8548 32.7853 50.7257 32.4735C50.5965 32.1617 50.53 31.8275 50.53 31.49V21.31C50.5327 20.6292 50.8043 19.977 51.2857 19.4957C51.7671 19.0143 52.4192 18.7426 53.1 18.74H63.28C63.9608 18.7426 64.613 19.0143 65.0944 19.4957C65.5758 19.977 65.8474 20.6292 65.85 21.31V31.49Z" fill="#FF5F46"/>
<path d="M41.1201 21.31C41.1201 19.8345 40.5346 18.4192 39.4922 17.375C38.4498 16.3307 37.0356 15.7427 35.5601 15.74H25.3701C23.8945 15.7427 22.4804 16.3307 21.4379 17.375C20.3955 18.4192 19.8101 19.8345 19.8101 21.31V31.49C19.8101 32.9655 20.3955 34.3808 21.4379 35.4251C22.4804 36.4693 23.8945 37.0574 25.3701 37.06H35.5601C37.0356 37.0574 38.4498 36.4693 39.4922 35.4251C40.5346 34.3808 41.1201 32.9655 41.1201 31.49V21.31ZM38.1201 31.49C38.1214 31.827 38.0561 32.161 37.9281 32.4727C37.8 32.7845 37.6116 33.0679 37.3738 33.3067C37.1359 33.5454 36.8533 33.7349 36.542 33.8642C36.2308 33.9935 35.8971 34.06 35.5601 34.06H25.3701C25.033 34.06 24.6993 33.9935 24.3881 33.8642C24.0768 33.7349 23.7942 33.5454 23.5563 33.3067C23.3185 33.0679 23.1301 32.7845 23.0021 32.4727C22.874 32.161 22.8087 31.827 22.8101 31.49V21.31C22.8101 20.6301 23.0794 19.9779 23.5593 19.4963C24.0391 19.0146 24.6902 18.7427 25.3701 18.74H35.5601C36.2399 18.7427 36.8911 19.0146 37.3709 19.4963C37.8507 19.9779 38.1201 20.6301 38.1201 21.31V31.49Z" fill="#FF5F46"/>
<path d="M63.28 45.28H53.1C52.3699 45.2787 51.6466 45.4212 50.9715 45.6994C50.2965 45.9776 49.6828 46.3861 49.1656 46.9014C48.6484 47.4168 48.2377 48.029 47.9571 48.7031C47.6765 49.3771 47.5313 50.0999 47.53 50.83V61C47.5353 62.4738 48.1245 63.8854 49.1685 64.9257C50.2125 65.9659 51.6262 66.55 53.1 66.55H63.28C64.7538 66.55 66.1676 65.9659 67.2116 64.9257C68.2556 63.8854 68.8447 62.4738 68.85 61V50.83C68.8487 50.0999 68.7036 49.3771 68.423 48.7031C68.1423 48.029 67.7317 47.4168 67.2145 46.9014C66.6973 46.3861 66.0836 45.9776 65.4085 45.6994C64.7334 45.4212 64.0102 45.2787 63.28 45.28ZM65.85 61C65.8487 61.3362 65.7812 61.6688 65.6513 61.9789C65.5215 62.289 65.3318 62.5705 65.0932 62.8073C64.8545 63.0441 64.5716 63.2315 64.2605 63.359C63.9494 63.4864 63.6162 63.5513 63.28 63.55H53.1C52.7638 63.5513 52.4307 63.4864 52.1196 63.359C51.8085 63.2315 51.5256 63.0441 51.2869 62.8073C51.0483 62.5705 50.8586 62.289 50.7287 61.9789C50.5989 61.6688 50.5313 61.3362 50.53 61V50.83C50.5353 50.1519 50.8084 49.5033 51.2898 49.0257C51.7712 48.548 52.4219 48.28 53.1 48.28H63.28C63.9582 48.28 64.6089 48.548 65.0903 49.0257C65.5717 49.5033 65.8448 50.1519 65.85 50.83V61Z" fill="#FF5F46"/>
<path d="M53.0999 125.64H65.9999L64.4699 122.64H53.0999C52.4183 122.64 51.7646 122.369 51.2827 121.887C50.8007 121.405 50.5299 120.752 50.5299 120.07V109.89C50.5299 109.208 50.8007 108.555 51.2827 108.073C51.7646 107.591 52.4183 107.32 53.0999 107.32H56.6699L55.1399 104.32H53.1399C51.6627 104.32 50.2459 104.907 49.2014 105.951C48.1568 106.996 47.5699 108.413 47.5699 109.89V120.07C47.5699 121.54 48.1513 122.951 49.1872 123.995C50.2231 125.038 51.6296 125.629 53.0999 125.64Z" fill="#FF5F46"/>
<path d="M124.31 21.31C124.307 19.8336 123.72 18.4183 122.676 17.3743C121.632 16.3303 120.216 15.7426 118.74 15.74H108.56C107.085 15.7453 105.673 16.3341 104.631 17.3779C103.589 18.4216 103.003 19.8353 103 21.31V31.49C103.003 32.9664 103.59 34.3817 104.634 35.4257C105.678 36.4697 107.094 37.0574 108.57 37.06H118.75C120.226 37.0574 121.642 36.4697 122.686 35.4257C123.73 34.3817 124.317 32.9664 124.32 31.49L124.31 21.31ZM121.31 31.49C121.311 31.8279 121.246 32.1627 121.117 32.4751C120.988 32.7875 120.799 33.0713 120.56 33.3102C120.321 33.5491 120.037 33.7384 119.725 33.8671C119.413 33.9958 119.078 34.0613 118.74 34.06H108.56C108.223 34.06 107.889 33.9935 107.578 33.8642C107.267 33.7349 106.984 33.5454 106.746 33.3067C106.508 33.0679 106.32 32.7845 106.192 32.4727C106.064 32.161 105.999 31.827 106 31.49V21.31C106.003 20.6292 106.274 19.977 106.756 19.4957C107.237 19.0143 107.889 18.7426 108.57 18.74H118.75C119.431 18.7426 120.083 19.0143 120.564 19.4957C121.046 19.977 121.317 20.6292 121.32 21.31L121.31 31.49Z" fill="#FF5F46"/>
<path d="M118.74 45.28H108.56C107.087 45.28 105.674 45.8644 104.632 46.905C103.59 47.9455 103.003 49.3571 103 50.83V61C103.005 62.4738 103.594 63.8854 104.638 64.9257C105.682 65.9659 107.096 66.55 108.57 66.55H118.75C120.222 66.5474 121.633 65.9621 122.675 64.9221C123.717 63.8822 124.305 62.4721 124.31 61V50.83C124.309 50.0999 124.164 49.3771 123.883 48.7031C123.602 48.029 123.192 47.4168 122.674 46.9014C122.157 46.3861 121.544 45.9776 120.868 45.6994C120.193 45.4212 119.47 45.2787 118.74 45.28ZM121.31 61C121.309 61.3362 121.241 61.6688 121.111 61.9789C120.981 62.289 120.792 62.5705 120.553 62.8073C120.314 63.0441 120.032 63.2315 119.72 63.359C119.409 63.4864 119.076 63.5513 118.74 63.55H108.56C107.883 63.55 107.233 63.2817 106.753 62.8037C106.274 62.3258 106.003 61.6772 106 61V50.83C106.005 50.1519 106.278 49.5033 106.76 49.0257C107.241 48.548 107.892 48.28 108.57 48.28H118.75C119.428 48.28 120.079 48.548 120.56 49.0257C121.042 49.5033 121.315 50.1519 121.32 50.83L121.31 61Z" fill="#FF5F46"/>
<path d="M41.1201 50.83C41.1201 50.1003 40.9762 49.3778 40.6966 48.7038C40.4171 48.0298 40.0074 47.4175 39.491 46.902C38.9745 46.3865 38.3615 45.9779 37.687 45.6996C37.0125 45.4213 36.2897 45.2787 35.5601 45.28H25.3701C24.6404 45.2787 23.9176 45.4213 23.2431 45.6996C22.5686 45.9779 21.9556 46.3865 21.4391 46.902C20.9227 47.4175 20.513 48.0298 20.2335 48.7038C19.9539 49.3778 19.8101 50.1003 19.8101 50.83V61C19.8127 62.4729 20.3997 63.8845 21.4421 64.9251C22.4845 65.9656 23.8972 66.55 25.3701 66.55H35.5601C37.0329 66.55 38.4456 65.9656 39.488 64.9251C40.5305 63.8845 41.1174 62.4729 41.1201 61V50.83ZM38.1201 61.03C38.1174 61.7072 37.8465 62.3558 37.3667 62.8337C36.8869 63.3117 36.2373 63.58 35.5601 63.58H25.3701C25.0322 63.58 24.6977 63.5131 24.3857 63.3832C24.0738 63.2533 23.7907 63.063 23.5528 62.8231C23.3148 62.5833 23.1266 62.2987 22.9992 61.9858C22.8717 61.6729 22.8074 61.3379 22.8101 61V50.83C22.8127 50.1528 23.0836 49.5042 23.5634 49.0263C24.0432 48.5483 24.6928 48.28 25.3701 48.28H35.5601C36.2373 48.28 36.8869 48.5483 37.3667 49.0263C37.8465 49.5042 38.1174 50.1528 38.1201 50.83V61.03Z" fill="#FF5F46"/>
<path d="M41.1201 80.36C41.1201 78.8845 40.5346 77.4692 39.4922 76.425C38.4498 75.3807 37.0356 74.7927 35.5601 74.79H25.3701C23.8945 74.7927 22.4804 75.3807 21.4379 76.425C20.3955 77.4692 19.8101 78.8845 19.8101 80.36V90.54C19.8101 92.0155 20.3955 93.4308 21.4379 94.4751C22.4804 95.5194 23.8945 96.1074 25.3701 96.11H35.5601C37.0356 96.1074 38.4498 95.5194 39.4922 94.4751C40.5346 93.4308 41.1201 92.0155 41.1201 90.54V80.36ZM38.1201 90.54C38.1214 90.877 38.0561 91.211 37.9281 91.5228C37.8 91.8345 37.6116 92.1179 37.3738 92.3567C37.1359 92.5954 36.8533 92.7849 36.542 92.9142C36.2308 93.0435 35.8971 93.11 35.5601 93.11H25.3701C25.033 93.11 24.6993 93.0435 24.3881 92.9142C24.0768 92.7849 23.7942 92.5954 23.5563 92.3567C23.3185 92.1179 23.1301 91.8345 23.0021 91.5228C22.874 91.211 22.8087 90.877 22.8101 90.54V80.36C22.8101 79.6801 23.0794 79.028 23.5593 78.5463C24.0391 78.0646 24.6902 77.7927 25.3701 77.79H35.5601C36.2399 77.7927 36.8911 78.0646 37.3709 78.5463C37.8507 79.028 38.1201 79.6801 38.1201 80.36V90.54Z" fill="#FF5F46"/>
<path d="M35.5599 104.32H25.3699C24.639 104.32 23.9151 104.464 23.2399 104.744C22.5647 105.024 21.9513 105.435 21.4349 105.952C20.9185 106.469 20.5091 107.083 20.2303 107.759C19.9515 108.435 19.8086 109.159 19.8099 109.89V120.07C19.8086 120.801 19.9515 121.525 20.2303 122.201C20.5091 122.877 20.9185 123.491 21.4349 124.008C21.9513 124.525 22.5647 124.936 23.2399 125.216C23.9151 125.496 24.639 125.64 25.3699 125.64H35.5599C36.2909 125.64 37.0148 125.496 37.69 125.216C38.3652 124.936 38.9786 124.525 39.495 124.008C40.0114 123.491 40.4208 122.877 40.6996 122.201C40.9784 121.525 41.1213 120.801 41.1199 120.07V109.89C41.1213 109.159 40.9784 108.435 40.6996 107.759C40.4208 107.083 40.0114 106.469 39.495 105.952C38.9786 105.435 38.3652 105.024 37.69 104.744C37.0148 104.464 36.2909 104.32 35.5599 104.32ZM38.1199 120.07C38.12 120.75 37.8506 121.402 37.3708 121.884C36.8909 122.365 36.2398 122.637 35.5599 122.64H25.3699C24.6901 122.637 24.039 122.365 23.5591 121.884C23.0793 121.402 22.8099 120.75 22.8099 120.07V109.89C22.8099 109.21 23.0793 108.558 23.5591 108.076C24.039 107.595 24.6901 107.323 25.3699 107.32H35.5599C36.2398 107.323 36.8909 107.595 37.3708 108.076C37.8506 108.558 38.12 109.21 38.1199 109.89V120.07Z" fill="#FF5F46"/>
<path d="M86.1299 134.26H111.6C114.658 134.249 117.62 133.192 119.996 131.266C122.371 129.34 124.017 126.66 124.66 123.67L129.93 98.67C130.589 95.5625 130.046 92.3205 128.409 89.598C126.772 86.8754 124.164 84.8749 121.11 84L94.7899 76.56V54.08C94.7134 51.8224 93.7628 49.6827 92.1386 48.1127C90.5145 46.5427 88.3439 45.6651 86.0849 45.6651C83.826 45.6651 81.6554 46.5427 80.0313 48.1127C78.4071 49.6827 77.4565 51.8224 77.3799 54.08V93.22L67.4899 81.3C66.3528 79.9362 64.767 79.022 63.0169 78.7215C61.2668 78.421 59.4669 78.7537 57.9399 79.66L54.7899 81.51C54.0205 81.9825 53.4567 82.7269 53.2103 83.5956C52.964 84.4643 53.0531 85.3939 53.4599 86.2L74.2399 127C75.355 129.193 77.0571 131.032 79.1565 132.314C81.2559 133.596 83.6701 134.27 86.1299 134.26ZM56.3399 84.08L59.4799 82.22C60.1628 81.8114 60.9442 81.597 61.7399 81.6C62.3974 81.5991 63.0469 81.744 63.6417 82.0241C64.2365 82.3042 64.7618 82.7126 65.1799 83.22L80.3799 101.53V54.08C80.4416 52.6083 81.0696 51.2173 82.1327 50.1977C83.1959 49.1782 84.6119 48.6089 86.0849 48.6089C87.558 48.6089 88.974 49.1782 90.0372 50.1977C91.1003 51.2173 91.7283 52.6083 91.7899 54.08V78.82L120.29 86.92C122.6 87.5794 124.575 89.0879 125.82 91.1429C127.064 93.1978 127.486 95.6473 127 98L121.73 123C121.236 125.32 119.963 127.401 118.122 128.897C116.28 130.393 113.982 131.213 111.61 131.22H86.1299C84.2209 131.223 82.3484 130.697 80.7207 129.699C79.093 128.702 77.7738 127.272 76.91 125.57L56.1299 84.83C56.0633 84.7017 56.0479 84.5528 56.0869 84.4135C56.1259 84.2743 56.2163 84.1551 56.3399 84.08Z" fill="#FF5F46"/>
</svg>
