<svg width="150" height="150" viewBox="0 0 150 150" fill="none" xmlns="http://www.w3.org/2000/svg">
<path d="M80.83 15.74C79.3536 15.7426 77.9383 16.3303 76.8943 17.3743C75.8503 18.4183 75.2627 19.8335 75.26 21.31V31.49C75.2627 32.9664 75.8503 34.3816 76.8943 35.4257C77.9383 36.4697 79.3536 37.0573 80.83 37.06H91C92.4765 37.0573 93.8917 36.4697 94.9357 35.4257C95.9797 34.3816 96.5674 32.9664 96.57 31.49V21.31C96.5674 19.8335 95.9797 18.4183 94.9357 17.3743C93.8917 16.3303 92.4765 15.7426 91 15.74H80.83ZM93.58 21.31V31.49C93.5813 31.8287 93.5154 32.1643 93.3861 32.4774C93.2568 32.7904 93.0667 33.0747 92.8267 33.3138C92.5867 33.5528 92.3017 33.7419 91.9881 33.87C91.6746 33.998 91.3387 34.0626 91 34.06H80.83C80.4921 34.0613 80.1574 33.9957 79.8449 33.8671C79.5325 33.7384 79.2487 33.5491 79.0098 33.3102C78.7709 33.0713 78.5816 32.7875 78.4529 32.475C78.3243 32.1626 78.2587 31.8279 78.26 31.49V21.31C78.2626 20.6292 78.5343 19.977 79.0157 19.4956C79.4971 19.0142 80.1492 18.7426 80.83 18.74H91C91.6825 18.74 92.3373 19.0104 92.8208 19.4921C93.3044 19.9738 93.5774 20.6275 93.58 21.31V21.31Z" fill="white"/>
<path d="M68.85 21.31C68.8474 19.8335 68.2597 18.4183 67.2157 17.3743C66.1717 16.3303 64.7564 15.7426 63.28 15.74H53.1C51.6236 15.7426 50.2083 16.3303 49.1643 17.3743C48.1203 18.4183 47.5326 19.8335 47.53 21.31V31.49C47.5326 32.9664 48.1203 34.3816 49.1643 35.4257C50.2083 36.4697 51.6236 37.0573 53.1 37.06H63.28C64.7564 37.0573 66.1717 36.4697 67.2157 35.4257C68.2597 34.3816 68.8474 32.9664 68.85 31.49V21.31ZM65.85 31.49C65.8513 31.8279 65.7858 32.1626 65.6571 32.475C65.5284 32.7875 65.3391 33.0713 65.1002 33.3102C64.8613 33.5491 64.5775 33.7384 64.2651 33.8671C63.9527 33.9957 63.6179 34.0613 63.28 34.06H53.1C52.7625 34.06 52.4283 33.9935 52.1165 33.8644C51.8047 33.7352 51.5214 33.5459 51.2827 33.3073C51.0441 33.0686 50.8548 32.7853 50.7256 32.4735C50.5965 32.1617 50.53 31.8275 50.53 31.49V21.31C50.5326 20.6292 50.8042 19.977 51.2856 19.4956C51.767 19.0142 52.4192 18.7426 53.1 18.74H63.28C63.9608 18.7426 64.613 19.0142 65.0944 19.4956C65.5758 19.977 65.8474 20.6292 65.85 21.31V31.49Z" fill="white"/>
<path d="M41.12 21.31C41.12 19.8345 40.5345 18.4192 39.4921 17.3749C38.4497 16.3306 37.0355 15.7426 35.56 15.74H25.37C23.8945 15.7426 22.4803 16.3306 21.4379 17.3749C20.3955 18.4192 19.81 19.8345 19.81 21.31V31.49C19.81 32.9655 20.3955 34.3808 21.4379 35.425C22.4803 36.4693 23.8945 37.0573 25.37 37.06H35.56C37.0355 37.0573 38.4497 36.4693 39.4921 35.425C40.5345 34.3808 41.12 32.9655 41.12 31.49V21.31ZM38.12 31.49C38.1213 31.827 38.0561 32.161 37.928 32.4727C37.7999 32.7845 37.6116 33.0679 37.3737 33.3067C37.1359 33.5454 36.8532 33.7349 36.542 33.8642C36.2307 33.9934 35.897 34.06 35.56 34.06H25.37C25.033 34.06 24.6993 33.9934 24.388 33.8642C24.0768 33.7349 23.7941 33.5454 23.5563 33.3067C23.3184 33.0679 23.1301 32.7845 23.002 32.4727C22.8739 32.161 22.8087 31.827 22.81 31.49V21.31C22.81 20.6301 23.0794 19.9779 23.5592 19.4963C24.039 19.0146 24.6901 18.7426 25.37 18.74H35.56C36.2399 18.7426 36.891 19.0146 37.3708 19.4963C37.8506 19.9779 38.12 20.6301 38.12 21.31V31.49Z" fill="white"/>
<path d="M63.28 45.28H53.1C52.3698 45.2787 51.6466 45.4212 50.9715 45.6994C50.2964 45.9776 49.6828 46.3861 49.1656 46.9015C48.6483 47.4168 48.2377 48.029 47.9571 48.7031C47.6764 49.3771 47.5313 50.0999 47.53 50.83V61C47.5353 62.4738 48.1245 63.8854 49.1685 64.9257C50.2125 65.966 51.6262 66.5501 53.1 66.55H63.28C64.7538 66.5501 66.1675 65.966 67.2115 64.9257C68.2555 63.8854 68.8447 62.4738 68.85 61V50.83C68.8487 50.0999 68.7036 49.3771 68.4229 48.7031C68.1423 48.029 67.7317 47.4168 67.2144 46.9015C66.6972 46.3861 66.0836 45.9776 65.4085 45.6994C64.7334 45.4212 64.0101 45.2787 63.28 45.28V45.28ZM65.85 61C65.8487 61.3362 65.7812 61.6689 65.6513 61.979C65.5214 62.289 65.3318 62.5705 65.0931 62.8073C64.8545 63.0441 64.5715 63.2316 64.2604 63.359C63.9493 63.4864 63.6162 63.5514 63.28 63.55H53.1C52.7638 63.5514 52.4307 63.4864 52.1196 63.359C51.8085 63.2316 51.5255 63.0441 51.2869 62.8073C51.0482 62.5705 50.8586 62.289 50.7287 61.979C50.5988 61.6689 50.5313 61.3362 50.53 61V50.83C50.5353 50.1519 50.8084 49.5033 51.2898 49.0257C51.7712 48.548 52.4218 48.28 53.1 48.28H63.28C63.9582 48.28 64.6088 48.548 65.0902 49.0257C65.5716 49.5033 65.8447 50.1519 65.85 50.83V61Z" fill="white"/>
<path d="M53.1 125.64H66L64.47 122.64H53.1C52.4184 122.64 51.7647 122.369 51.2827 121.887C50.8008 121.405 50.53 120.752 50.53 120.07V109.89C50.53 109.208 50.8008 108.555 51.2827 108.073C51.7647 107.591 52.4184 107.32 53.1 107.32H56.67L55.14 104.32H53.14C51.6628 104.32 50.246 104.907 49.2014 105.951C48.1568 106.996 47.57 108.413 47.57 109.89V120.07C47.57 121.54 48.1513 122.951 49.1873 123.995C50.2232 125.038 51.6297 125.63 53.1 125.64V125.64Z" fill="white"/>
<path d="M124.31 21.31C124.307 19.8335 123.72 18.4183 122.676 17.3743C121.632 16.3303 120.216 15.7426 118.74 15.74H108.56C107.085 15.7453 105.673 16.3341 104.631 17.3778C103.589 18.4216 103.003 19.8353 103 21.31V31.49C103.003 32.9664 103.59 34.3816 104.634 35.4257C105.678 36.4697 107.094 37.0573 108.57 37.06H118.75C120.226 37.0573 121.642 36.4697 122.686 35.4257C123.73 34.3816 124.317 32.9664 124.32 31.49L124.31 21.31ZM121.31 31.49C121.311 31.8279 121.246 32.1626 121.117 32.475C120.988 32.7875 120.799 33.0713 120.56 33.3102C120.321 33.5491 120.037 33.7384 119.725 33.8671C119.413 33.9957 119.078 34.0613 118.74 34.06H108.56C108.223 34.06 107.889 33.9934 107.578 33.8642C107.267 33.7349 106.984 33.5454 106.746 33.3067C106.508 33.0679 106.32 32.7845 106.192 32.4727C106.064 32.161 105.999 31.827 106 31.49V21.31C106.003 20.6292 106.274 19.977 106.756 19.4956C107.237 19.0142 107.889 18.7426 108.57 18.74H118.75C119.431 18.7426 120.083 19.0142 120.564 19.4956C121.046 19.977 121.317 20.6292 121.32 21.31L121.31 31.49Z" fill="white"/>
<path d="M118.74 45.28H108.56C107.087 45.28 105.674 45.8644 104.632 46.905C103.59 47.9455 103.003 49.3572 103 50.83V61C103.005 62.4738 103.594 63.8854 104.638 64.9257C105.682 65.966 107.096 66.5501 108.57 66.55H118.75C120.222 66.5474 121.633 65.9621 122.675 64.9222C123.717 63.8822 124.305 62.4721 124.31 61V50.83C124.309 50.0999 124.164 49.3771 123.883 48.7031C123.602 48.029 123.192 47.4168 122.674 46.9015C122.157 46.3861 121.544 45.9776 120.868 45.6994C120.193 45.4212 119.47 45.2787 118.74 45.28ZM121.31 61C121.309 61.3362 121.241 61.6689 121.111 61.979C120.981 62.289 120.792 62.5705 120.553 62.8073C120.314 63.0441 120.032 63.2316 119.72 63.359C119.409 63.4864 119.076 63.5514 118.74 63.55H108.56C107.883 63.55 107.233 63.2817 106.753 62.8038C106.274 62.3258 106.003 61.6773 106 61V50.83C106.005 50.1519 106.278 49.5033 106.76 49.0257C107.241 48.548 107.892 48.28 108.57 48.28H118.75C119.428 48.28 120.079 48.548 120.56 49.0257C121.042 49.5033 121.315 50.1519 121.32 50.83L121.31 61Z" fill="white"/>
<path d="M41.12 50.83C41.12 50.1004 40.9761 49.3778 40.6966 48.7038C40.417 48.0298 40.0073 47.4176 39.4909 46.9021C38.9745 46.3866 38.3615 45.978 37.687 45.6996C37.0125 45.4213 36.2897 45.2787 35.56 45.28H25.37C24.6403 45.2787 23.9175 45.4213 23.243 45.6996C22.5685 45.978 21.9555 46.3866 21.4391 46.9021C20.9227 47.4176 20.513 48.0298 20.2334 48.7038C19.9539 49.3778 19.81 50.1004 19.81 50.83V61C19.8126 62.4729 20.3996 63.8845 21.442 64.9251C22.4844 65.9656 23.8971 66.55 25.37 66.55H35.56C37.0329 66.55 38.4456 65.9656 39.488 64.9251C40.5304 63.8845 41.1173 62.4729 41.12 61V50.83ZM38.12 61.03C38.1174 61.7073 37.8465 62.3558 37.3667 62.8338C36.8869 63.3117 36.2372 63.58 35.56 63.58H25.37C25.0321 63.5801 24.6976 63.5132 24.3857 63.3833C24.0738 63.2534 23.7907 63.063 23.5527 62.8232C23.3147 62.5833 23.1266 62.2988 22.9991 61.9859C22.8716 61.6729 22.8074 61.3379 22.81 61V50.83C22.8126 50.1528 23.0835 49.5042 23.5633 49.0263C24.0431 48.5484 24.6928 48.28 25.37 48.28H35.56C36.2372 48.28 36.8869 48.5484 37.3667 49.0263C37.8465 49.5042 38.1174 50.1528 38.12 50.83V61.03Z" fill="white"/>
<path d="M41.12 80.36C41.12 78.8845 40.5345 77.4693 39.4921 76.425C38.4497 75.3807 37.0355 74.7927 35.56 74.79H25.37C23.8945 74.7927 22.4803 75.3807 21.4379 76.425C20.3955 77.4693 19.81 78.8845 19.81 80.36V90.54C19.81 92.0156 20.3955 93.4308 21.4379 94.4751C22.4803 95.5194 23.8945 96.1074 25.37 96.11H35.56C37.0355 96.1074 38.4497 95.5194 39.4921 94.4751C40.5345 93.4308 41.12 92.0156 41.12 90.54V80.36ZM38.12 90.54C38.1213 90.8771 38.0561 91.211 37.928 91.5228C37.7999 91.8345 37.6116 92.1179 37.3737 92.3567C37.1359 92.5955 36.8532 92.7849 36.542 92.9142C36.2307 93.0435 35.897 93.11 35.56 93.11H25.37C25.033 93.11 24.6993 93.0435 24.388 92.9142C24.0768 92.7849 23.7941 92.5955 23.5563 92.3567C23.3184 92.1179 23.1301 91.8345 23.002 91.5228C22.8739 91.211 22.8087 90.8771 22.81 90.54V80.36C22.81 79.6802 23.0794 79.028 23.5592 78.5463C24.039 78.0646 24.6901 77.7927 25.37 77.79H35.56C36.2399 77.7927 36.891 78.0646 37.3708 78.5463C37.8506 79.028 38.12 79.6802 38.12 80.36V90.54Z" fill="white"/>
<path d="M35.56 104.32H25.37C24.639 104.32 23.9152 104.464 23.24 104.744C22.5648 105.024 21.9514 105.435 21.435 105.952C20.9185 106.469 20.5092 107.084 20.2304 107.759C19.9515 108.435 19.8087 109.159 19.81 109.89V120.07C19.8087 120.801 19.9515 121.525 20.2304 122.201C20.5092 122.877 20.9185 123.491 21.435 124.008C21.9514 124.525 22.5648 124.936 23.24 125.216C23.9152 125.496 24.639 125.64 25.37 125.64H35.56C36.291 125.64 37.0148 125.496 37.69 125.216C38.3653 124.936 38.9786 124.525 39.4951 124.008C40.0115 123.491 40.4208 122.877 40.6996 122.201C40.9785 121.525 41.1213 120.801 41.12 120.07V109.89C41.1213 109.159 40.9785 108.435 40.6996 107.759C40.4208 107.084 40.0115 106.469 39.4951 105.952C38.9786 105.435 38.3653 105.024 37.69 104.744C37.0148 104.464 36.291 104.32 35.56 104.32ZM38.12 120.07C38.12 120.75 37.8506 121.402 37.3708 121.884C36.891 122.365 36.2399 122.637 35.56 122.64H25.37C24.6901 122.637 24.039 122.365 23.5592 121.884C23.0794 121.402 22.81 120.75 22.81 120.07V109.89C22.81 109.21 23.0794 108.558 23.5592 108.076C24.039 107.595 24.6901 107.323 25.37 107.32H35.56C36.2399 107.323 36.891 107.595 37.3708 108.076C37.8506 108.558 38.12 109.21 38.12 109.89V120.07Z" fill="white"/>
<path d="M86.13 134.26H111.6C114.658 134.249 117.621 133.192 119.996 131.266C122.371 129.34 124.017 126.66 124.66 123.67L129.93 98.67C130.589 95.5624 130.046 92.3205 128.409 89.5979C126.772 86.8754 124.164 84.8749 121.11 84L94.79 76.56V54.08C94.7135 51.8223 93.7628 49.6827 92.1387 48.1127C90.5145 46.5427 88.3439 45.665 86.085 45.665C83.8261 45.665 81.6555 46.5427 80.0313 48.1127C78.4072 49.6827 77.4565 51.8223 77.38 54.08V93.22L67.49 81.3C66.3529 79.9361 64.7671 79.022 63.017 78.7215C61.2669 78.4209 59.467 78.7536 57.94 79.66L54.79 81.51C54.0205 81.9825 53.4567 82.7269 53.2104 83.5956C52.964 84.4643 53.0531 85.3939 53.46 86.2L74.24 127C75.3551 129.193 77.0572 131.032 79.1566 132.314C81.256 133.596 83.6702 134.27 86.13 134.26V134.26ZM56.34 84.08L59.48 82.22C60.1628 81.8114 60.9443 81.597 61.74 81.6C62.3975 81.5991 63.0469 81.7439 63.6417 82.024C64.2365 82.3042 64.7619 82.7126 65.18 83.22L80.38 101.53V54.08C80.4416 52.6082 81.0696 51.2172 82.1328 50.1977C83.1959 49.1781 84.612 48.6089 86.085 48.6089C87.558 48.6089 88.9741 49.1781 90.0372 50.1977C91.1004 51.2172 91.7284 52.6082 91.79 54.08V78.82L120.29 86.92C122.6 87.5794 124.575 89.0879 125.82 91.1428C127.064 93.1978 127.486 95.6472 127 98L121.73 123C121.236 125.32 119.963 127.401 118.122 128.897C116.28 130.393 113.982 131.212 111.61 131.22H86.13C84.221 131.223 82.3485 130.697 80.7208 129.699C79.093 128.702 77.7739 127.272 76.91 125.57L56.13 84.83C56.0633 84.7016 56.0479 84.5527 56.0869 84.4135C56.1259 84.2742 56.2164 84.155 56.34 84.08V84.08Z" fill="white"/>
</svg>
