<svg width="150" height="150" viewBox="0 0 150 150" fill="none" xmlns="http://www.w3.org/2000/svg">
<path d="M81.0899 66.6901L94.19 74.2301C95.3099 74.8696 96.241 75.7937 96.889 76.9088C97.5369 78.0239 97.8788 79.2904 97.8799 80.5801H100.88C100.89 78.7534 100.414 76.9569 99.4999 75.3752C98.586 73.7935 97.2675 72.4836 95.68 71.5801L86 66.0601C89.75 61.9201 93.3099 55.5901 93.3099 48.7401C93.3099 37.0501 85.6199 28.5601 75.0199 28.5601C64.4199 28.5601 56.68 37.0501 56.68 48.7401C56.68 55.6001 60.2499 61.9201 63.9999 66.0601L54.31 71.6301C52.727 72.5381 51.4128 73.8492 50.5012 75.4301C49.5895 77.011 49.113 78.8052 49.1199 80.6301H52.1199C52.1211 79.3416 52.4619 78.0761 53.108 76.9613C53.754 75.8465 54.6826 74.9217 55.7999 74.2801L68.9199 66.7401L67.4599 65.3601C62.74 60.8601 59.6799 54.3601 59.6799 48.7901C59.6799 38.6301 66 31.5601 75 31.5601C84 31.5601 90.3 38.6301 90.3 48.7401C90.3 54.3001 87.2999 60.8001 82.54 65.3101L81.0899 66.6901Z" fill="#FF5F46"/>
<path d="M100.88 86H49.13V118.42H41.78V121.42H108.22V118.42H100.88V86ZM52.13 89H97.88V118.41H52.13V89Z" fill="#FF5F46"/>
<path d="M75 98.2598C73.9182 98.2598 72.8606 98.5806 71.9611 99.1816C71.0615 99.7827 70.3604 100.637 69.9464 101.636C69.5324 102.636 69.4241 103.736 69.6351 104.797C69.8462 105.858 70.3672 106.833 71.1322 107.598C71.8972 108.363 72.8718 108.884 73.9329 109.095C74.994 109.306 76.0938 109.197 77.0933 108.783C78.0928 108.369 78.9471 107.668 79.5482 106.769C80.1492 105.869 80.47 104.812 80.47 103.73C80.4674 102.28 79.8902 100.89 78.865 99.8648C77.8397 98.8396 76.45 98.2624 75 98.2598ZM75 106.2C74.5115 106.2 74.034 106.055 73.6278 105.783C73.2216 105.512 72.905 105.126 72.7181 104.675C72.5311 104.224 72.4822 103.727 72.5775 103.248C72.6728 102.769 72.908 102.329 73.2535 101.983C73.5989 101.638 74.039 101.403 74.5182 101.307C74.9973 101.212 75.4939 101.261 75.9453 101.448C76.3966 101.635 76.7824 101.951 77.0538 102.358C77.3252 102.764 77.47 103.241 77.47 103.73C77.4674 104.384 77.2063 105.011 76.7437 105.473C76.281 105.936 75.6543 106.197 75 106.2Z" fill="#FF5F46"/>
<path d="M10.12 95.7C10.1221 94.7611 10.3707 93.8393 10.8411 93.0267C11.3114 92.2142 11.9869 91.5394 12.8 91.07L23.35 85L21.9 83.62C18.3 80.2 16 75.26 16 71C16 63.37 20.74 58 27.53 58C34.32 58 39 63.41 39 71C39 75.22 36.68 80.16 33.09 83.59L31.65 85L42.18 91.06L43.68 88.46L36.54 84.35C39.38 81.11 42 76.27 42 71C42 61.75 35.9 55 27.5 55C19.1 55 13 61.79 13 71C13 76.24 15.63 81.07 18.48 84.32L11.33 88.43C10.0491 89.1625 8.98491 90.2209 8.24549 91.4978C7.50606 92.7746 7.11775 94.2245 7.12 95.7V121.23H34.72V118.23H10.12V95.7Z" fill="#FF5F46"/>
<path d="M138.7 88.47L131.54 84.36C134.39 81.11 137 76.28 137 71C137 61.75 130.89 55 122.47 55C114.05 55 108 61.79 108 71C108 76.23 110.63 81.07 113.47 84.32L106.33 88.43L107.83 91.03L118.35 85L116.9 83.62C113.31 80.2 111 75.26 111 71C111 63.37 115.73 58 122.5 58C129.27 58 134 63.41 134 71C134 75.22 131.68 80.16 128.08 83.58L126.65 85L137.2 91.06C138.013 91.5294 138.689 92.2042 139.159 93.0167C139.629 93.8293 139.878 94.7511 139.88 95.69V118.22H115.28V121.22H142.88V95.7C142.877 94.2344 142.49 92.7952 141.756 91.5264C141.023 90.2576 139.969 89.2037 138.7 88.47Z" fill="#FF5F46"/>
</svg>
