<svg width="150" height="150" viewBox="0 0 150 150" fill="none" xmlns="http://www.w3.org/2000/svg">
<path d="M134.08 35.53C129.52 35.53 125.73 38.86 125.01 43.21H111.85V27.53H108.85V59.69H103.02L103.01 52.91H101.51C91.51 52.91 83.38 61.04 83.38 71.04V72.54L88 72.55V77.46L84.2 77.47V78.97C84.2 88.51 80.48 97.48 73.74 104.24C67.34 110.63 58.95 114.3 49.97 114.67V106.74C59.85 106.08 76.27 98.89 76.27 75.01C76.27 46.63 100.49 46.24 101.52 46.23H103.02V32.31H101.52C91.18 32.31 81.45 36.34 74.13 43.65C67.17 50.62 63.19 59.76 62.82 69.54L58.99 69.55V80.44L63.54 80.45C62.83 87.6 57.13 93.3 49.97 94.01V87.3H38.14V103.77H24.99C24.27 99.42 20.48 96.09 15.92 96.09C10.86 96.09 6.73999 100.21 6.73999 105.27C6.73999 110.34 10.86 114.46 15.92 114.46C17.38 114.46 18.82 114.11 20.09 113.45L18.71 110.79C17.86 111.23 16.9 111.46 15.92 111.46C12.51 111.46 9.73999 108.68 9.73999 105.27C9.73999 101.86 12.51 99.09 15.92 99.09C19.33 99.09 22.11 101.86 22.11 105.27V106.77H38.14V122.46H41.14V90.31H46.97L46.98 97.09H48.48C58.48 97.09 66.61 88.96 66.61 78.96V77.46L61.99 77.45V72.54L65.79 72.53V71.03C65.79 61.49 69.5 52.52 76.25 45.76C82.65 39.37 91.04 35.7 100.02 35.33V43.31C94.18 43.89 73.27 47.84 73.27 75C73.27 103.38 49.48 103.78 48.47 103.78H46.97V117.69H48.47C58.81 117.69 68.54 113.66 75.86 106.35C82.82 99.38 86.8 90.24 87.17 80.46L91 80.45V69.55L86.45 69.54C87.16 62.39 92.86 56.69 100.02 55.98V62.69H111.85V46.21H127.89V44.71C127.89 41.3 130.67 38.53 134.08 38.53C137.49 38.53 140.26 41.3 140.26 44.71C140.26 48.12 137.49 50.9 134.08 50.9C133.1 50.9 132.14 50.67 131.29 50.23L129.91 52.89C131.18 53.55 132.62 53.9 134.08 53.9C139.14 53.9 143.26 49.78 143.26 44.71C143.26 39.65 139.14 35.53 134.08 35.53Z" fill="#FF5F46"/>
</svg>
