<svg width="150" height="150" viewBox="0 0 150 150" fill="none" xmlns="http://www.w3.org/2000/svg">
<path d="M113.39 39C111.14 39.0108 108.903 39.3477 106.75 40C104.306 32.2649 99.2611 25.6138 92.4707 21.1759C85.6803 16.7381 77.5634 14.7869 69.4979 15.6538C61.4324 16.5206 53.9154 20.152 48.2231 25.9315C42.5309 31.7109 39.0142 39.2822 38.27 47.36C35.5771 46.5761 32.7472 46.3801 29.972 46.7854C27.1967 47.1908 24.5411 48.1879 22.1848 49.7092C19.8286 51.2305 17.8269 53.2405 16.3154 55.603C14.8039 57.9655 13.8178 60.6253 13.424 63.4022C13.0302 66.1791 13.2378 69.0082 14.0329 71.6978C14.828 74.3874 16.1919 76.8747 18.0322 78.9912C19.8726 81.1076 22.1463 82.8038 24.6994 83.9647C27.2525 85.1257 30.0254 85.7243 32.83 85.72H37.1V82.72H32.83C28.5072 82.6138 24.3971 80.8219 21.3773 77.7269C18.3574 74.632 16.667 70.4791 16.667 66.155C16.667 61.8308 18.3574 57.678 21.3773 54.583C24.3971 51.4881 28.5072 49.6962 32.83 49.59C34.6751 49.5855 36.5076 49.8932 38.25 50.5L39.09 50.81L41.15 51.63V49.42C41.1449 49.3301 41.1449 49.2399 41.15 49.15C41.491 41.5998 44.4819 34.4113 49.5971 28.8475C54.7123 23.2838 61.6247 19.7006 69.1196 18.7276C76.6146 17.7546 84.2127 19.4541 90.579 23.5273C96.9453 27.6006 101.672 33.7872 103.93 41C101.304 42.1735 98.9148 43.8172 96.88 45.85L99 48C100.88 46.0951 103.121 44.5835 105.592 43.5534C108.062 42.5233 110.713 41.9952 113.39 42C118.708 42.1179 123.768 44.3132 127.487 48.1157C131.206 51.9183 133.289 57.026 133.289 62.345C133.289 67.664 131.206 72.7717 127.487 76.5742C123.768 80.3768 118.708 82.5721 113.39 82.69V85.69C119.498 85.5636 125.313 83.0485 129.588 78.6842C133.863 74.3199 136.257 68.4541 136.257 62.345C136.257 56.2359 133.863 50.37 129.588 46.0058C125.313 41.6415 119.498 39.1264 113.39 39Z" fill="#FF5F46"/>
<path d="M46.09 71.58V124.72C46.09 131.16 60.63 134.54 75 134.54C84.09 134.54 92.4 133.23 97.81 130.96C101.81 129.27 103.91 127.17 103.91 124.72V62.23C103.91 55.79 89.37 52.42 75 52.42C65.91 52.42 57.6 53.72 52.19 55.99C48.19 57.68 46.09 59.78 46.09 62.23C46.09 63.81 47.02 66.11 51.43 68.15C51.68 68.27 51.94 68.38 52.19 68.48C52.84 68.76 53.59 69.04 54.4 69.3C59.74 71.05 67.25 72.05 75 72.05C81.5694 72.1481 88.121 71.3405 94.47 69.65V66.51C88.1382 68.2998 81.579 69.1555 75 69.05C67.55 69.05 60.38 68.05 55.34 66.45C54.6 66.21 53.94 65.96 53.34 65.71L52.71 65.43C50.45 64.43 49.1 63.19 49.1 62.23C49.1 61.27 50.22 60.07 53.36 58.75C58.36 56.66 66.43 55.42 75.01 55.42C90.83 55.42 100.92 59.42 100.92 62.23V124.72C100.92 125.54 99.8 126.88 96.66 128.2C91.66 130.29 83.59 131.54 75.01 131.54C59.19 131.54 49.1 127.54 49.1 124.72V71.58H46.09Z" fill="#FF5F46"/>
<path d="M74.5 111C66.88 111 59.5 110 54.4 108.37V111.51C60.9523 113.267 67.717 114.105 74.5 114C81.395 114.108 88.2704 113.236 94.92 111.41L95.98 111.09V85.57L94.04 86.17C87.6749 87.9047 81.0963 88.7295 74.5 88.62C66.88 88.62 59.5 87.62 54.4 85.99V89.13C60.9513 90.8922 67.7167 91.7304 74.5 91.62C80.7181 91.7004 86.9231 91.0288 92.98 89.62V108.91C86.936 110.401 80.7244 111.103 74.5 111Z" fill="#FF5F46"/>
</svg>
