<svg width="150" height="150" viewBox="0 0 150 150" fill="none" xmlns="http://www.w3.org/2000/svg">
<path d="M113.39 39C111.14 39.0109 108.903 39.3477 106.75 40C104.306 32.2649 99.261 25.6138 92.4707 21.176C85.6803 16.7381 77.5633 14.787 69.4978 15.6539C61.4323 16.5207 53.9154 20.1521 48.2231 25.9316C42.5309 31.711 39.0141 39.2823 38.27 47.36C35.5771 46.5761 32.7472 46.3802 29.972 46.7855C27.1967 47.1908 24.541 48.1879 22.1848 49.7092C19.8286 51.2306 17.8269 53.2406 16.3154 55.6031C14.8038 57.9656 13.8178 60.6254 13.424 63.4023C13.0302 66.1791 13.2378 69.0082 14.0329 71.6978C14.828 74.3875 16.1919 76.8748 18.0322 78.9912C19.8725 81.1077 22.1463 82.8038 24.6994 83.9648C27.2525 85.1257 30.0253 85.7243 32.83 85.72H37.1V82.72H32.83C28.5072 82.6138 24.3971 80.822 21.3772 77.727C18.3574 74.632 16.667 70.4792 16.667 66.155C16.667 61.8309 18.3574 57.6781 21.3772 54.5831C24.3971 51.4881 28.5072 49.6963 32.83 49.59C34.6751 49.5856 36.5076 49.8933 38.25 50.5L39.09 50.8101L41.15 51.6301V49.42C41.1448 49.3301 41.1448 49.24 41.15 49.1501C41.491 41.5999 44.4819 34.4114 49.5971 28.8476C54.7123 23.2838 61.6247 19.7006 69.1196 18.7277C76.6146 17.7547 84.2127 19.4541 90.579 23.5274C96.9453 27.6007 101.672 33.7872 103.93 41C101.304 42.1736 98.9148 43.8173 96.88 45.85L99 48C100.88 46.0951 103.121 44.5836 105.592 43.5535C108.062 42.5234 110.713 41.9953 113.39 42C118.708 42.118 123.768 44.3132 127.487 48.1158C131.206 51.9184 133.289 57.026 133.289 62.3451C133.289 67.6641 131.206 72.7717 127.487 76.5743C123.768 80.3769 118.708 82.5721 113.39 82.69V85.69C119.498 85.5636 125.313 83.0485 129.588 78.6843C133.863 74.32 136.257 68.4542 136.257 62.3451C136.257 56.2359 133.863 50.3701 129.588 46.0058C125.313 41.6416 119.498 39.1265 113.39 39V39Z" fill="#1B3139"/>
<path d="M46.09 71.5799V124.72C46.09 131.16 60.63 134.54 75 134.54C84.09 134.54 92.4 133.23 97.81 130.96C101.81 129.27 103.91 127.17 103.91 124.72V62.2299C103.91 55.7899 89.37 52.4199 75 52.4199C65.91 52.4199 57.6 53.7199 52.19 55.9899C48.19 57.6799 46.09 59.7799 46.09 62.2299C46.09 63.8099 47.02 66.1099 51.43 68.1499C51.68 68.2699 51.94 68.3799 52.19 68.4799C52.84 68.7599 53.59 69.0399 54.4 69.2999C59.74 71.0499 67.25 72.0499 75 72.0499C81.5694 72.148 88.121 71.3404 94.47 69.6499V66.5099C88.1382 68.2998 81.579 69.1555 75 69.0499C67.55 69.0499 60.38 68.0499 55.34 66.4499C54.6 66.2099 53.94 65.9599 53.34 65.7099L52.71 65.4299C50.45 64.4299 49.1 63.1899 49.1 62.2299C49.1 61.2699 50.22 60.0699 53.36 58.7499C58.36 56.6599 66.43 55.4199 75.01 55.4199C90.83 55.4199 100.92 59.4199 100.92 62.2299V124.72C100.92 125.54 99.8 126.88 96.66 128.2C91.66 130.29 83.59 131.54 75.01 131.54C59.19 131.54 49.1 127.54 49.1 124.72V71.5799H46.09Z" fill="#1B3139"/>
<path d="M74.5 111C66.88 111 59.5 110 54.4 108.37V111.51C60.9523 113.267 67.717 114.105 74.5 114C81.395 114.108 88.2704 113.236 94.92 111.41L95.98 111.09V85.5701L94.04 86.1701C87.6749 87.9047 81.0963 88.7296 74.5 88.6201C66.88 88.6201 59.5 87.6201 54.4 85.9901V89.1301C60.9513 90.8923 67.7167 91.7304 74.5 91.6201C80.7181 91.7004 86.9231 91.0289 92.98 89.6201V108.91C86.9359 110.401 80.7244 111.103 74.5 111V111Z" fill="#1B3139"/>
</svg>
