<svg width="150" height="150" viewBox="0 0 150 150" fill="none" xmlns="http://www.w3.org/2000/svg">
<path d="M130.43 88.8301C129.3 88.8301 128.21 89.0501 127.21 89.4201L103.18 47.7801H62.9399L67.3199 40.2001H114.29C115.01 44.5501 118.79 47.8801 123.34 47.8801C128.4 47.8801 132.52 43.7601 132.52 38.6901C132.52 33.6201 128.4 29.5001 123.34 29.5001C118.79 29.5001 115.01 32.8301 114.29 37.1901H65.5899L45.4599 72.0601L41.0799 64.4801L64.1999 24.4301C65.1399 24.7501 66.1399 24.9401 67.1899 24.9401C72.25 24.9401 76.3699 20.8201 76.3699 15.7501C76.3699 10.6801 72.25 6.56006 67.1899 6.56006C62.1299 6.56006 58.0099 10.6801 58.0099 15.7501C58.0099 18.7001 59.4099 21.3101 61.5699 23.0001L37.6199 64.4801L53.1799 91.4101H81.1999L76.6299 99.3201H48.9799L25.8299 59.2301C27.8799 57.5401 29.1899 54.9901 29.1899 52.1401C29.1899 47.0801 25.0699 42.9501 19.9999 42.9501C14.9299 42.9501 10.8199 47.0701 10.8199 52.1401C10.8199 57.2101 14.9399 61.3201 19.9999 61.3201C21.1399 61.3201 22.2199 61.1001 23.2299 60.7201L47.2499 102.31H78.3599L94.0999 75.0601L86.3899 61.7001H95.5299L103.24 75.0501L83.1099 109.9H37.3099C36.5899 105.55 32.8099 102.21 28.2599 102.21C23.1999 102.21 19.0699 106.33 19.0699 111.4C19.0699 116.47 23.1899 120.59 28.2599 120.59C32.8099 120.59 36.5899 117.26 37.3099 112.9H84.8499L104.97 78.0501L109.35 85.6401L86.1699 125.78C85.1399 125.38 84.03 125.15 82.8699 125.15C77.81 125.15 73.6899 129.27 73.6899 134.34C73.6899 139.41 77.81 143.53 82.8699 143.53C87.9299 143.53 92.0599 139.41 92.0599 134.34C92.0599 131.52 90.7799 128.99 88.7599 127.3L112.81 85.6401L97.2499 58.7001H65.7699L56.3199 75.0501L60.8699 82.9401L63.4699 81.4401L59.7799 75.0501L67.4999 61.7001H82.9199L90.6299 75.0601L82.9199 88.4101H54.8999L47.1899 75.0601L61.1999 50.7901H101.44L124.6 90.9201C122.55 92.6101 121.24 95.1601 121.24 98.0201C121.24 103.08 125.36 107.21 130.43 107.21C135.5 107.21 139.61 103.09 139.61 98.0201C139.61 92.9501 135.49 88.8301 130.43 88.8301ZM123.34 32.5301C126.75 32.5301 129.52 35.3001 129.52 38.7201C129.52 42.1401 126.75 44.9101 123.34 44.9101C119.93 44.9101 117.15 42.1401 117.15 38.7201C117.15 35.3001 119.93 32.5301 123.34 32.5301ZM67.1899 9.57006C70.5999 9.57006 73.3699 12.3401 73.3699 15.7601C73.3699 19.1801 70.5999 21.9501 67.1899 21.9501C63.7799 21.9501 61.0099 19.1801 61.0099 15.7601C61.0099 12.3401 63.7799 9.57006 67.1899 9.57006ZM13.8199 52.1401C13.8199 48.7301 16.5899 45.9501 19.9999 45.9501C23.4099 45.9501 26.1899 48.7201 26.1899 52.1401C26.1899 55.5501 23.4199 58.3201 19.9999 58.3201C16.5899 58.3301 13.8199 55.5501 13.8199 52.1401ZM28.2599 117.59C24.8499 117.59 22.0699 114.82 22.0699 111.4C22.0699 107.98 24.8399 105.21 28.2599 105.21C31.6699 105.21 34.4399 107.98 34.4399 111.4C34.4399 114.82 31.6699 117.59 28.2599 117.59ZM82.8699 140.53C79.4599 140.53 76.6899 137.76 76.6899 134.34C76.6899 130.92 79.4599 128.15 82.8699 128.15C86.28 128.15 89.0599 130.92 89.0599 134.34C89.0599 137.76 86.28 140.53 82.8699 140.53ZM130.43 104.2C127.02 104.2 124.24 101.43 124.24 98.0101C124.24 94.5901 127.01 91.8201 130.43 91.8201C133.84 91.8201 136.61 94.5901 136.61 98.0101C136.61 101.43 133.84 104.2 130.43 104.2Z" fill="#FF5F46"/>
</svg>
