<svg width="150" height="150" viewBox="0 0 150 150" fill="none" xmlns="http://www.w3.org/2000/svg">
<path d="M130.43 88.83C129.3 88.83 128.21 89.05 127.21 89.42L103.18 47.78H62.94L67.32 40.2H114.29C115.01 44.55 118.79 47.88 123.34 47.88C128.4 47.88 132.52 43.76 132.52 38.69C132.52 33.62 128.4 29.5 123.34 29.5C118.79 29.5 115.01 32.83 114.29 37.19H65.59L45.46 72.06L41.08 64.48L64.2 24.43C65.14 24.75 66.14 24.94 67.19 24.94C72.25 24.94 76.37 20.82 76.37 15.75C76.37 10.68 72.25 6.56 67.19 6.56C62.13 6.56 58.01 10.68 58.01 15.75C58.01 18.7 59.41 21.31 61.57 23L37.62 64.48L53.18 91.41H81.2L76.63 99.32H48.98L25.83 59.23C27.88 57.54 29.19 54.99 29.19 52.14C29.19 47.08 25.07 42.95 20 42.95C14.93 42.95 10.82 47.07 10.82 52.14C10.82 57.21 14.94 61.32 20 61.32C21.14 61.32 22.22 61.1 23.23 60.72L47.25 102.31H78.36L94.1 75.06L86.39 61.7H95.53L103.24 75.05L83.11 109.9H37.31C36.59 105.55 32.81 102.21 28.26 102.21C23.2 102.21 19.07 106.33 19.07 111.4C19.07 116.47 23.19 120.59 28.26 120.59C32.81 120.59 36.59 117.26 37.31 112.9H84.85L104.97 78.05L109.35 85.64L86.17 125.78C85.14 125.38 84.03 125.15 82.87 125.15C77.81 125.15 73.69 129.27 73.69 134.34C73.69 139.41 77.81 143.53 82.87 143.53C87.93 143.53 92.06 139.41 92.06 134.34C92.06 131.52 90.78 128.99 88.76 127.3L112.81 85.64L97.25 58.7H65.77L56.32 75.05L60.87 82.94L63.47 81.44L59.78 75.05L67.5 61.7H82.92L90.63 75.06L82.92 88.41H54.9L47.19 75.06L61.2 50.79H101.44L124.6 90.92C122.55 92.61 121.24 95.16 121.24 98.02C121.24 103.08 125.36 107.21 130.43 107.21C135.5 107.21 139.61 103.09 139.61 98.02C139.61 92.95 135.49 88.83 130.43 88.83ZM123.34 32.53C126.75 32.53 129.52 35.3 129.52 38.72C129.52 42.14 126.75 44.91 123.34 44.91C119.93 44.91 117.15 42.14 117.15 38.72C117.15 35.3 119.93 32.53 123.34 32.53ZM67.19 9.57C70.6 9.57 73.37 12.34 73.37 15.76C73.37 19.18 70.6 21.95 67.19 21.95C63.78 21.95 61.01 19.18 61.01 15.76C61.01 12.34 63.78 9.57 67.19 9.57ZM13.82 52.14C13.82 48.73 16.59 45.95 20 45.95C23.41 45.95 26.19 48.72 26.19 52.14C26.19 55.55 23.42 58.32 20 58.32C16.59 58.33 13.82 55.55 13.82 52.14ZM28.26 117.59C24.85 117.59 22.07 114.82 22.07 111.4C22.07 107.98 24.84 105.21 28.26 105.21C31.67 105.21 34.44 107.98 34.44 111.4C34.44 114.82 31.67 117.59 28.26 117.59ZM82.87 140.53C79.46 140.53 76.69 137.76 76.69 134.34C76.69 130.92 79.46 128.15 82.87 128.15C86.28 128.15 89.06 130.92 89.06 134.34C89.06 137.76 86.28 140.53 82.87 140.53ZM130.43 104.2C127.02 104.2 124.24 101.43 124.24 98.01C124.24 94.59 127.01 91.82 130.43 91.82C133.84 91.82 136.61 94.59 136.61 98.01C136.61 101.43 133.84 104.2 130.43 104.2Z" fill="white"/>
</svg>
