<svg width="500" height="200" viewBox="0 0 500 200" fill="none" xmlns="http://www.w3.org/2000/svg">
<path d="M25 25H87.5V87.5H25V25Z" fill="#FABFBA"/>
<path d="M171.875 175L109.375 175L109.375 137.5C109.375 123.693 120.568 112.5 134.375 112.5L146.875 112.5C160.682 112.5 171.875 123.693 171.875 137.5L171.875 175Z" fill="#FABFBA"/>
<path d="M59.375 112.5L93.75 175H25L59.375 112.5Z" fill="#FF5F46"/>
<path d="M109.375 57.8125C109.375 39.6907 124.066 25 142.188 25V25C160.309 25 175 39.6907 175 57.8125V57.8125C175 75.9343 160.309 90.625 142.188 90.625V90.625C124.066 90.625 109.375 75.9343 109.375 57.8125V57.8125Z" fill="#FF5F46"/>
<path d="M234.76 137.5L263.022 60.22H277.816L306.078 137.5H292.058L270.309 75.676L248.56 137.5H234.76ZM247.346 119.284L250.878 108.796H288.966L292.499 119.284H247.346ZM312.955 161.788V81.8584H324.768L326.203 89.9176C327.381 88.2984 328.779 86.7896 330.398 85.3912C332.091 83.9192 334.115 82.7416 336.47 81.8584C338.899 80.9752 341.659 80.5336 344.75 80.5336C349.976 80.5336 354.576 81.8216 358.55 84.3976C362.598 86.9736 365.763 90.4696 368.045 94.8856C370.326 99.228 371.467 104.196 371.467 109.79C371.467 115.383 370.29 120.388 367.934 124.804C365.653 129.146 362.488 132.569 358.44 135.071C354.466 137.574 349.902 138.825 344.75 138.825C340.555 138.825 336.875 138.052 333.71 136.506C330.619 134.887 328.117 132.606 326.203 129.662V161.788H312.955ZM341.99 127.343C345.082 127.343 347.842 126.607 350.27 125.135C352.699 123.663 354.576 121.602 355.901 118.953C357.299 116.303 357.998 113.249 357.998 109.79C357.998 106.257 357.299 103.166 355.901 100.516C354.576 97.8664 352.699 95.8056 350.27 94.3336C347.842 92.8616 345.082 92.1256 341.99 92.1256C338.826 92.1256 336.029 92.8616 333.6 94.3336C331.245 95.8056 329.368 97.8664 327.97 100.516C326.645 103.166 325.982 106.22 325.982 109.679C325.982 113.212 326.645 116.303 327.97 118.953C329.368 121.529 331.245 123.59 333.6 125.135C336.029 126.607 338.826 127.343 341.99 127.343ZM381.015 161.788V81.8584H392.828L394.263 89.9176C395.441 88.2984 396.839 86.7896 398.458 85.3912C400.151 83.9192 402.175 82.7416 404.53 81.8584C406.959 80.9752 409.719 80.5336 412.81 80.5336C418.036 80.5336 422.636 81.8216 426.61 84.3976C430.658 86.9736 433.823 90.4696 436.105 94.8856C438.386 99.228 439.527 104.196 439.527 109.79C439.527 115.383 438.349 120.388 435.994 124.804C433.713 129.146 430.548 132.569 426.5 135.071C422.525 137.574 417.962 138.825 412.81 138.825C408.615 138.825 404.935 138.052 401.77 136.506C398.679 134.887 396.177 132.606 394.263 129.662V161.788H381.015ZM410.05 127.343C413.141 127.343 415.901 126.607 418.33 125.135C420.759 123.663 422.636 121.602 423.961 118.953C425.359 116.303 426.058 113.249 426.058 109.79C426.058 106.257 425.359 103.166 423.961 100.516C422.636 97.8664 420.759 95.8056 418.33 94.3336C415.901 92.8616 413.141 92.1256 410.05 92.1256C406.885 92.1256 404.089 92.8616 401.66 94.3336C399.305 95.8056 397.428 97.8664 396.029 100.516C394.705 103.166 394.042 106.22 394.042 109.679C394.042 113.212 394.705 116.303 396.029 118.953C397.428 121.529 399.305 123.59 401.66 125.135C404.089 126.607 406.885 127.343 410.05 127.343ZM471.265 138.825C466.334 138.825 462.028 138.052 458.348 136.506C454.742 134.887 451.872 132.679 449.737 129.882C447.676 127.012 446.462 123.737 446.094 120.057H459.342C459.71 121.602 460.372 123.038 461.329 124.362C462.286 125.614 463.574 126.607 465.193 127.343C466.886 128.079 468.873 128.447 471.155 128.447C473.363 128.447 475.166 128.153 476.564 127.564C477.963 126.902 478.993 126.055 479.656 125.025C480.318 123.994 480.649 122.89 480.649 121.713C480.649 119.946 480.171 118.585 479.214 117.628C478.257 116.671 476.859 115.935 475.019 115.42C473.252 114.831 471.118 114.279 468.616 113.764C465.966 113.249 463.39 112.623 460.888 111.887C458.459 111.078 456.251 110.084 454.264 108.906C452.35 107.729 450.804 106.22 449.627 104.38C448.523 102.54 447.971 100.295 447.971 97.6456C447.971 94.4072 448.817 91.5 450.51 88.924C452.276 86.348 454.779 84.324 458.017 82.852C461.329 81.3064 465.267 80.5336 469.83 80.5336C476.307 80.5336 481.459 82.0424 485.286 85.06C489.187 88.004 491.468 92.1624 492.131 97.5352H479.545C479.177 95.4744 478.147 93.892 476.454 92.788C474.761 91.6104 472.516 91.0216 469.72 91.0216C466.849 91.0216 464.641 91.5736 463.096 92.6776C461.624 93.708 460.888 95.1064 460.888 96.8728C460.888 97.9768 461.329 99.0072 462.212 99.964C463.169 100.847 464.531 101.62 466.297 102.282C468.064 102.871 470.235 103.46 472.811 104.049C476.932 104.858 480.576 105.815 483.74 106.919C486.905 108.023 489.408 109.642 491.248 111.777C493.088 113.911 494.008 116.929 494.008 120.83C494.081 124.362 493.161 127.49 491.248 130.214C489.408 132.937 486.795 135.071 483.409 136.617C480.024 138.089 475.976 138.825 471.265 138.825Z" fill="#1B3139"/>
</svg>
