<svg width="1001" height="300" viewBox="0 0 1001 300" fill="none" xmlns="http://www.w3.org/2000/svg">
<path d="M223.475 244.081C224.071 243.768 224.469 243.172 224.583 242.49C224.696 241.808 224.469 241.126 223.986 240.643C218.985 234.931 203.157 221.149 203.157 221.149C201.68 220.126 199.577 221.149 197.929 221.547C192.445 223.366 186.676 224.332 180.908 224.332C176.674 224.332 172.468 223.849 168.348 222.854C158.289 220.752 148.684 216.887 139.96 211.46C115.267 195.319 83.6118 194.524 58.1512 209.414C46.0744 217.541 35.8447 228.168 28.1725 240.586C27.8031 241.126 27.8315 241.865 28.2861 242.376C28.7408 242.859 29.4796 242.973 30.0479 242.632C42.0394 236.125 74.263 220.922 103.276 226.406C114.898 229.39 126.093 233.823 136.607 239.62C144.507 243.427 152.549 247.377 160.732 250.446C187.188 260.022 213.245 249.366 223.475 244.053V244.081Z" fill="#FF5F46"/>
<path d="M140.473 49.6598L190.826 136.669C191.11 137.209 191.053 137.891 190.655 138.374C190.286 138.857 189.661 139.085 189.064 138.943C186.478 138.346 183.836 138.033 181.164 138.033C174.487 138.033 167.951 140.022 162.382 143.745C161.671 144.228 160.819 144.37 159.995 144.2C159.171 144.029 158.46 143.518 158.006 142.807L137.972 108.168C137.518 107.259 136.608 106.691 135.585 106.691C134.562 106.691 133.653 107.259 133.199 108.168L100.776 164.346C100.492 164.744 100.435 165.256 100.606 165.682C100.804 166.137 101.202 166.449 101.685 166.506C118.763 170.143 134.449 178.697 146.753 191.114C147.747 192.137 147.861 193.757 147.037 194.922C146.185 196.087 144.65 196.485 143.371 195.86C134.591 191.342 125.128 188.301 115.382 186.852C101.771 185.147 87.9889 185.999 74.6903 189.296C70.4847 190.319 65.9382 191.512 61.7326 192.819C57.5271 194.126 55.5948 194.979 55.5948 194.979C54.4014 195.377 53.2647 195.888 52.2986 196.286H51.9008C50.7641 196.854 49.3717 196.57 48.5193 195.632C47.6668 194.695 47.5247 193.274 48.1783 192.194L130.698 49.6598C131.721 47.9264 133.568 46.875 135.585 46.875C137.603 46.875 139.45 47.9264 140.473 49.6598Z" fill="#FF5F46"/>
<path fill-rule="evenodd" clip-rule="evenodd" d="M249.306 149.428C261.837 149.428 272.01 139.227 272.01 126.639C272.01 114.05 261.837 103.849 249.306 103.849C236.774 103.849 226.601 114.05 226.601 126.639C226.601 129.196 227.028 131.725 227.852 134.169L196.339 155.14C187.217 147.07 173.35 147.638 164.939 156.447C156.499 165.256 156.499 179.18 164.939 187.989C173.379 196.798 187.217 197.394 196.339 189.296L227.852 210.38C227.056 212.767 226.63 215.268 226.601 217.797C226.658 228.538 234.188 237.773 244.674 239.99C255.159 242.178 265.73 236.75 270.078 226.919C274.425 217.087 271.328 205.578 262.661 199.241C253.994 192.933 242.116 193.53 234.16 200.719L202.647 179.634C204.323 174.747 204.323 169.462 202.647 164.602L234.16 143.745C238.337 147.439 243.736 149.485 249.306 149.457V149.428Z" fill="#FABFBA"/>
<path d="M340.501 138V60.72H360.373C369.352 60.72 376.749 62.3024 382.563 65.4672C388.451 68.5584 392.794 73.0112 395.59 78.8256C398.461 84.5664 399.896 91.4848 399.896 99.5808C399.896 107.53 398.461 114.374 395.59 120.115C392.794 125.856 388.451 130.272 382.563 133.363C376.749 136.454 369.352 138 360.373 138H340.501ZM349.774 130.272H360.152C367.586 130.272 373.51 129.058 377.926 126.629C382.342 124.126 385.507 120.594 387.421 116.03C389.334 111.394 390.291 105.91 390.291 99.5808C390.291 93.104 389.334 87.5472 387.421 82.9104C385.507 78.2736 382.342 74.704 377.926 72.2016C373.51 69.6992 367.586 68.448 360.152 68.448H349.774V130.272ZM427.945 139.325C423.529 139.325 419.849 138.515 416.905 136.896C413.961 135.203 411.753 132.995 410.281 130.272C408.809 127.475 408.073 124.494 408.073 121.33C408.073 117.502 409.029 114.264 410.943 111.614C412.93 108.891 415.69 106.83 419.223 105.432C422.756 104.034 426.877 103.334 431.588 103.334H446.05C446.05 99.5808 445.609 96.4528 444.725 93.9504C443.842 91.448 442.407 89.5712 440.42 88.32C438.433 87.0688 435.783 86.4432 432.471 86.4432C429.159 86.4432 426.325 87.2896 423.97 88.9824C421.615 90.6016 420.143 93.0304 419.554 96.2688H410.06C410.501 92.4416 411.789 89.24 413.924 86.664C416.058 84.0144 418.745 82.0272 421.983 80.7024C425.295 79.304 428.791 78.6048 432.471 78.6048C437.697 78.6048 442.002 79.5616 445.388 81.4752C448.773 83.3152 451.276 85.928 452.895 89.3136C454.514 92.6256 455.324 96.5632 455.324 101.126V138H447.044L446.492 128.064C445.756 129.61 444.799 131.082 443.621 132.48C442.517 133.805 441.193 134.982 439.647 136.013C438.101 137.043 436.335 137.853 434.348 138.442C432.434 139.03 430.3 139.325 427.945 139.325ZM429.269 131.486C431.698 131.486 433.943 130.934 436.004 129.83C438.065 128.726 439.831 127.254 441.303 125.414C442.849 123.501 444.026 121.366 444.836 119.011C445.645 116.656 446.05 114.19 446.05 111.614V110.51H432.361C428.901 110.51 426.068 110.952 423.86 111.835C421.725 112.718 420.18 113.97 419.223 115.589C418.266 117.134 417.788 118.901 417.788 120.888C417.788 123.022 418.229 124.899 419.113 126.518C419.996 128.064 421.284 129.278 422.977 130.162C424.743 131.045 426.841 131.486 429.269 131.486ZM488.345 138C485.033 138 482.163 137.485 479.734 136.454C477.305 135.424 475.429 133.694 474.104 131.266C472.853 128.763 472.227 125.414 472.227 121.219V87.768H462.07V79.9296H472.227L473.441 65.4672H481.501V79.9296H497.95V87.768H481.501V121.219C481.501 124.678 482.2 127.034 483.598 128.285C484.997 129.462 487.462 130.051 490.995 130.051H497.729V138H488.345ZM525.467 139.325C521.051 139.325 517.371 138.515 514.427 136.896C511.483 135.203 509.275 132.995 507.803 130.272C506.331 127.475 505.595 124.494 505.595 121.33C505.595 117.502 506.552 114.264 508.466 111.614C510.453 108.891 513.213 106.83 516.746 105.432C520.279 104.034 524.4 103.334 529.111 103.334H543.573C543.573 99.5808 543.131 96.4528 542.248 93.9504C541.365 91.448 539.93 89.5712 537.943 88.32C535.955 87.0688 533.306 86.4432 529.994 86.4432C526.682 86.4432 523.848 87.2896 521.493 88.9824C519.138 90.6016 517.666 93.0304 517.077 96.2688H507.583C508.024 92.4416 509.312 89.24 511.447 86.664C513.581 84.0144 516.267 82.0272 519.506 80.7024C522.818 79.304 526.314 78.6048 529.994 78.6048C535.219 78.6048 539.525 79.5616 542.911 81.4752C546.296 83.3152 548.799 85.928 550.418 89.3136C552.037 92.6256 552.847 96.5632 552.847 101.126V138H544.567L544.015 128.064C543.279 129.61 542.322 131.082 541.144 132.48C540.04 133.805 538.715 134.982 537.17 136.013C535.624 137.043 533.858 137.853 531.871 138.442C529.957 139.03 527.823 139.325 525.467 139.325ZM526.792 131.486C529.221 131.486 531.466 130.934 533.527 129.83C535.587 128.726 537.354 127.254 538.826 125.414C540.371 123.501 541.549 121.366 542.359 119.011C543.168 116.656 543.573 114.19 543.573 111.614V110.51H529.883C526.424 110.51 523.591 110.952 521.383 111.835C519.248 112.718 517.703 113.97 516.746 115.589C515.789 117.134 515.311 118.901 515.311 120.888C515.311 123.022 515.752 124.899 516.635 126.518C517.519 128.064 518.807 129.278 520.499 130.162C522.266 131.045 524.363 131.486 526.792 131.486ZM593.781 139.325C590.248 139.325 587.194 138.81 584.618 137.779C582.115 136.675 579.981 135.314 578.214 133.694C576.522 132.075 575.123 130.493 574.019 128.947L573.246 138H564.856V58.512H574.13V89.0928C575.896 85.6336 578.509 83.0208 581.968 81.2544C585.427 79.488 589.291 78.6048 593.56 78.6048C598.859 78.6048 603.496 79.8928 607.47 82.4688C611.445 85.0448 614.536 88.6144 616.744 93.1776C618.952 97.6672 620.056 102.856 620.056 108.744C620.056 114.558 618.952 119.784 616.744 124.421C614.536 129.058 611.445 132.701 607.47 135.35C603.57 138 599.006 139.325 593.781 139.325ZM592.566 131.266C596.026 131.266 599.08 130.382 601.73 128.616C604.453 126.776 606.587 124.2 608.133 120.888C609.752 117.502 610.562 113.528 610.562 108.965C610.562 104.402 609.752 100.464 608.133 97.152C606.587 93.7664 604.453 91.1904 601.73 89.424C599.08 87.584 596.026 86.664 592.566 86.664C588.886 86.664 585.685 87.584 582.962 89.424C580.238 91.1904 578.141 93.7664 576.669 97.152C575.197 100.464 574.461 104.402 574.461 108.965C574.461 113.528 575.197 117.502 576.669 120.888C578.141 124.2 580.238 126.776 582.962 128.616C585.685 130.382 588.886 131.266 592.566 131.266ZM630.221 138V79.9296H638.611L639.273 90.528C640.598 87.8784 642.328 85.6704 644.462 83.904C646.597 82.1376 649.173 80.8128 652.19 79.9296C655.281 79.0464 658.741 78.6048 662.568 78.6048V88.32H656.827C654.619 88.32 652.485 88.6144 650.424 89.2032C648.363 89.792 646.486 90.7488 644.793 92.0736C643.174 93.3984 641.886 95.2016 640.929 97.4832C639.973 99.7648 639.494 102.635 639.494 106.094V138H630.221ZM670.809 138V79.9296H680.083V138H670.809ZM675.446 68.8896C673.606 68.8896 672.06 68.3008 670.809 67.1232C669.631 65.872 669.043 64.3264 669.043 62.4864C669.043 60.6464 669.631 59.1744 670.809 58.0704C672.06 56.8928 673.606 56.304 675.446 56.304C677.212 56.304 678.721 56.8928 679.972 58.0704C681.223 59.1744 681.849 60.6464 681.849 62.4864C681.849 64.3264 681.223 65.872 679.972 67.1232C678.721 68.3008 677.212 68.8896 675.446 68.8896ZM718.304 139.325C713.005 139.325 708.295 138.074 704.173 135.571C700.051 132.995 696.813 129.426 694.458 124.862C692.103 120.299 690.925 115 690.925 108.965C690.925 102.856 692.103 97.5568 694.458 93.0672C696.813 88.504 700.051 84.9712 704.173 82.4688C708.295 79.8928 713.005 78.6048 718.304 78.6048C724.928 78.6048 730.448 80.3712 734.864 83.904C739.354 87.4368 742.224 92.184 743.475 98.1456H733.981C733.171 94.4656 731.295 91.632 728.351 89.6448C725.48 87.584 722.095 86.5536 718.194 86.5536C714.808 86.5536 711.754 87.4 709.031 89.0928C706.381 90.7856 704.283 93.288 702.738 96.6C701.192 99.912 700.419 104.034 700.419 108.965C700.419 112.645 700.861 115.92 701.744 118.79C702.627 121.587 703.842 123.942 705.387 125.856C707.007 127.696 708.883 129.094 711.018 130.051C713.226 131.008 715.618 131.486 718.194 131.486C720.843 131.486 723.235 131.045 725.37 130.162C727.578 129.205 729.418 127.843 730.89 126.077C732.435 124.31 733.466 122.213 733.981 119.784H743.475C742.298 125.598 739.427 130.309 734.864 133.915C730.375 137.522 724.855 139.325 718.304 139.325ZM787.762 138L761.377 106.646L786.217 79.9296H797.588L769.215 109.958L769.325 103.334L799.575 138H787.762ZM753.649 138V58.512H762.922V138H753.649ZM823.817 139.325C818.592 139.325 814.249 138.552 810.79 137.006C807.405 135.387 804.829 133.179 803.062 130.382C801.296 127.512 800.229 124.2 799.861 120.446H809.355C809.649 122.434 810.312 124.274 811.342 125.966C812.446 127.586 814.029 128.91 816.089 129.941C818.15 130.971 820.763 131.486 823.928 131.486C826.43 131.486 828.565 131.118 830.331 130.382C832.097 129.573 833.422 128.469 834.305 127.07C835.262 125.672 835.741 124.053 835.741 122.213C835.741 119.784 835.189 117.907 834.085 116.582C833.054 115.184 831.509 114.154 829.448 113.491C827.461 112.755 824.958 112.203 821.941 111.835C818.702 111.394 815.832 110.768 813.329 109.958C810.827 109.149 808.693 108.082 806.926 106.757C805.233 105.432 803.945 103.776 803.062 101.789C802.179 99.8016 801.737 97.4464 801.737 94.7232C801.737 91.5584 802.584 88.7616 804.277 86.3328C805.969 83.904 808.361 82.0272 811.453 80.7024C814.617 79.304 818.334 78.6048 822.603 78.6048C828.859 78.6048 833.79 80.04 837.397 82.9104C841.077 85.7808 843.248 89.8656 843.91 95.1648H834.747C834.379 92.4416 833.128 90.3072 830.993 88.7616C828.859 87.216 826.025 86.4432 822.493 86.4432C818.739 86.4432 815.905 87.1424 813.992 88.5408C812.078 89.9392 811.121 91.7792 811.121 94.0608C811.121 95.7536 811.526 97.2992 812.336 98.6976C813.219 100.022 814.691 101.163 816.752 102.12C818.813 103.003 821.573 103.666 825.032 104.107C829.374 104.622 833.054 105.469 836.072 106.646C839.089 107.75 841.371 109.48 842.917 111.835C844.536 114.19 845.309 117.392 845.235 121.44C845.235 125.267 844.315 128.506 842.475 131.155C840.709 133.805 838.206 135.829 834.968 137.227C831.803 138.626 828.086 139.325 823.817 139.325ZM339.838 237V159.72H364.789C373.768 159.72 381.165 161.302 386.979 164.467C392.867 167.632 397.21 172.122 400.006 177.936C402.877 183.677 404.312 190.522 404.312 198.47C404.312 206.272 402.877 213.08 400.006 218.894C397.21 224.635 392.867 229.088 386.979 232.253C381.165 235.418 373.768 237 364.789 237H339.838ZM353.086 225.739H364.126C370.824 225.739 376.086 224.672 379.914 222.538C383.814 220.33 386.574 217.202 388.194 213.154C389.886 209.032 390.733 204.138 390.733 198.47C390.733 192.73 389.886 187.835 388.194 183.787C386.574 179.666 383.814 176.501 379.914 174.293C376.086 172.011 370.824 170.87 364.126 170.87H353.086V225.739ZM439.549 238.325C434.029 238.325 429.171 237.147 424.976 234.792C420.781 232.363 417.505 228.978 415.15 224.635C412.795 220.293 411.617 215.288 411.617 209.621C411.617 203.733 412.758 198.581 415.04 194.165C417.395 189.749 420.67 186.29 424.865 183.787C429.134 181.285 434.065 180.034 439.659 180.034C445.105 180.034 449.853 181.248 453.901 183.677C457.949 186.106 461.077 189.381 463.285 193.502C465.493 197.55 466.597 202.114 466.597 207.192C466.597 207.928 466.597 208.738 466.597 209.621C466.597 210.504 466.523 211.424 466.376 212.381H421.112V203.88H453.238C453.091 199.832 451.729 196.667 449.153 194.386C446.577 192.03 443.376 190.853 439.549 190.853C436.825 190.853 434.323 191.478 432.041 192.73C429.76 193.981 427.957 195.858 426.632 198.36C425.307 200.789 424.645 203.88 424.645 207.634V210.835C424.645 214.294 425.27 217.275 426.521 219.778C427.846 222.28 429.613 224.194 431.821 225.518C434.102 226.77 436.641 227.395 439.438 227.395C442.529 227.395 445.069 226.733 447.056 225.408C449.117 224.083 450.625 222.317 451.582 220.109H465.051C464.021 223.568 462.328 226.696 459.973 229.493C457.617 232.216 454.71 234.387 451.251 236.006C447.792 237.552 443.891 238.325 439.549 238.325ZM475.517 237V157.512H488.765V237H475.517ZM524.413 237C520.66 237 517.385 236.411 514.588 235.234C511.865 234.056 509.73 232.106 508.185 229.382C506.639 226.659 505.866 222.979 505.866 218.342V192.509H496.372V181.358H505.866L507.412 166.675H519.114V181.358H534.239V192.509H519.114V218.342C519.114 221.139 519.703 223.09 520.881 224.194C522.132 225.224 524.193 225.739 527.063 225.739H533.908V237H524.413ZM561.938 238.325C557.375 238.325 553.585 237.552 550.567 236.006C547.549 234.461 545.305 232.4 543.833 229.824C542.361 227.248 541.625 224.451 541.625 221.434C541.625 217.901 542.508 214.846 544.274 212.27C546.114 209.694 548.801 207.707 552.333 206.309C555.866 204.837 560.209 204.101 565.361 204.101H579.381C579.381 201.157 578.977 198.728 578.167 196.814C577.357 194.827 576.106 193.355 574.413 192.398C572.721 191.442 570.549 190.963 567.9 190.963C564.882 190.963 562.306 191.662 560.172 193.061C558.037 194.386 556.713 196.446 556.197 199.243H543.17C543.612 195.269 544.937 191.883 547.145 189.086C549.353 186.216 552.26 184.008 555.866 182.462C559.546 180.843 563.557 180.034 567.9 180.034C573.125 180.034 577.578 180.954 581.258 182.794C584.938 184.56 587.735 187.136 589.649 190.522C591.636 193.834 592.629 197.845 592.629 202.555V237H581.369L580.044 228.058C579.308 229.53 578.351 230.891 577.173 232.142C576.069 233.394 574.781 234.498 573.309 235.454C571.837 236.338 570.145 237.037 568.231 237.552C566.391 238.067 564.293 238.325 561.938 238.325ZM564.919 227.837C567.053 227.837 568.93 227.469 570.549 226.733C572.242 225.923 573.677 224.819 574.855 223.421C576.106 221.949 577.063 220.33 577.725 218.563C578.388 216.797 578.829 214.92 579.05 212.933V212.712H566.796C564.22 212.712 562.085 213.043 560.393 213.706C558.7 214.294 557.485 215.178 556.749 216.355C556.013 217.533 555.645 218.894 555.645 220.44C555.645 221.986 556.013 223.31 556.749 224.414C557.485 225.518 558.553 226.365 559.951 226.954C561.349 227.542 563.005 227.837 564.919 227.837ZM653.499 238.325C647.906 238.325 642.938 237.331 638.595 235.344C634.253 233.357 630.867 230.523 628.439 226.843C626.01 223.163 624.759 218.784 624.685 213.706H638.706C638.706 216.282 639.295 218.6 640.472 220.661C641.723 222.648 643.416 224.23 645.551 225.408C647.759 226.586 650.408 227.174 653.499 227.174C656.149 227.174 658.431 226.77 660.344 225.96C662.331 225.077 663.84 223.862 664.871 222.317C665.975 220.698 666.527 218.821 666.527 216.686C666.527 214.258 665.938 212.27 664.76 210.725C663.656 209.106 662.111 207.744 660.123 206.64C658.136 205.536 655.855 204.579 653.279 203.77C650.703 202.886 647.979 201.966 645.109 201.01C639 198.949 634.4 196.336 631.309 193.171C628.218 189.933 626.672 185.627 626.672 180.254C626.672 175.765 627.739 171.901 629.874 168.662C632.008 165.424 634.989 162.922 638.816 161.155C642.717 159.315 647.207 158.395 652.285 158.395C657.437 158.395 661.927 159.315 665.754 161.155C669.655 162.995 672.709 165.571 674.917 168.883C677.199 172.122 678.376 176.022 678.45 180.586H664.319C664.245 178.672 663.73 176.906 662.773 175.286C661.816 173.594 660.418 172.232 658.578 171.202C656.811 170.098 654.64 169.546 652.064 169.546C649.856 169.472 647.869 169.84 646.103 170.65C644.41 171.386 643.048 172.49 642.018 173.962C641.061 175.36 640.583 177.126 640.583 179.261C640.583 181.322 641.024 183.051 641.907 184.45C642.864 185.774 644.226 186.915 645.992 187.872C647.759 188.755 649.819 189.602 652.175 190.411C654.53 191.221 657.106 192.104 659.903 193.061C663.73 194.312 667.189 195.858 670.28 197.698C673.445 199.464 675.947 201.782 677.787 204.653C679.627 207.523 680.547 211.24 680.547 215.803C680.547 219.778 679.517 223.494 677.456 226.954C675.395 230.339 672.378 233.099 668.403 235.234C664.429 237.294 659.461 238.325 653.499 238.325ZM689.675 237V157.512H702.923V189.97C704.763 186.952 707.266 184.56 710.431 182.794C713.595 180.954 717.165 180.034 721.139 180.034C725.703 180.034 729.567 180.99 732.731 182.904C735.896 184.744 738.288 187.504 739.907 191.184C741.6 194.79 742.447 199.317 742.447 204.763V237H729.309V205.978C729.309 201.194 728.279 197.55 726.218 195.048C724.231 192.546 721.176 191.294 717.055 191.294C714.405 191.294 712.013 191.957 709.879 193.282C707.744 194.533 706.051 196.373 704.8 198.802C703.549 201.157 702.923 204.064 702.923 207.523V237H689.675ZM771.754 238.325C767.191 238.325 763.401 237.552 760.383 236.006C757.365 234.461 755.121 232.4 753.649 229.824C752.177 227.248 751.441 224.451 751.441 221.434C751.441 217.901 752.324 214.846 754.09 212.27C755.93 209.694 758.617 207.707 762.149 206.309C765.682 204.837 770.025 204.101 775.177 204.101H789.197C789.197 201.157 788.793 198.728 787.983 196.814C787.173 194.827 785.922 193.355 784.229 192.398C782.537 191.442 780.365 190.963 777.716 190.963C774.698 190.963 772.122 191.662 769.988 193.061C767.853 194.386 766.529 196.446 766.013 199.243H752.986C753.428 195.269 754.753 191.883 756.961 189.086C759.169 186.216 762.076 184.008 765.682 182.462C769.362 180.843 773.373 180.034 777.716 180.034C782.941 180.034 787.394 180.954 791.074 182.794C794.754 184.56 797.551 187.136 799.465 190.522C801.452 193.834 802.445 197.845 802.445 202.555V237H791.185L789.86 228.058C789.124 229.53 788.167 230.891 786.989 232.142C785.885 233.394 784.597 234.498 783.125 235.454C781.653 236.338 779.961 237.037 778.047 237.552C776.207 238.067 774.109 238.325 771.754 238.325ZM774.735 227.837C776.869 227.837 778.746 227.469 780.365 226.733C782.058 225.923 783.493 224.819 784.671 223.421C785.922 221.949 786.879 220.33 787.541 218.563C788.204 216.797 788.645 214.92 788.866 212.933V212.712H776.612C774.036 212.712 771.901 213.043 770.209 213.706C768.516 214.294 767.301 215.178 766.565 216.355C765.829 217.533 765.461 218.894 765.461 220.44C765.461 221.986 765.829 223.31 766.565 224.414C767.301 225.518 768.369 226.365 769.767 226.954C771.165 227.542 772.821 227.837 774.735 227.837ZM813.289 237V181.358H825.102L826.316 191.736C827.641 189.307 829.297 187.246 831.284 185.554C833.271 183.787 835.59 182.426 838.239 181.469C840.962 180.512 843.943 180.034 847.182 180.034V194.054H842.545C840.337 194.054 838.239 194.349 836.252 194.938C834.265 195.453 832.535 196.336 831.063 197.587C829.665 198.765 828.561 200.421 827.751 202.555C826.942 204.616 826.537 207.229 826.537 210.394V237H813.289ZM854.409 237V181.358H867.657V237H854.409ZM861.033 172.526C858.604 172.526 856.58 171.79 854.961 170.318C853.415 168.773 852.642 166.896 852.642 164.688C852.642 162.406 853.415 160.566 854.961 159.168C856.58 157.696 858.604 156.96 861.033 156.96C863.461 156.96 865.449 157.696 866.994 159.168C868.613 160.566 869.423 162.406 869.423 164.688C869.423 166.896 868.613 168.773 866.994 170.318C865.449 171.79 863.461 172.526 861.033 172.526ZM879.654 237V181.358H891.356L892.35 190.632C894.043 187.394 896.471 184.818 899.636 182.904C902.801 180.99 906.555 180.034 910.897 180.034C915.387 180.034 919.214 180.99 922.379 182.904C925.543 184.744 927.972 187.467 929.665 191.074C931.431 194.68 932.315 199.17 932.315 204.542V237H919.067V205.757C919.067 201.12 918.036 197.55 915.975 195.048C913.915 192.546 910.86 191.294 906.812 191.294C904.163 191.294 901.771 191.92 899.636 193.171C897.575 194.422 895.919 196.262 894.668 198.691C893.491 201.046 892.902 203.917 892.902 207.302V237H879.654ZM966.375 262.613C961.149 262.613 956.549 261.95 952.575 260.626C948.674 259.374 945.62 257.424 943.412 254.774C941.277 252.198 940.21 248.96 940.21 245.059C940.21 242.778 940.762 240.533 941.866 238.325C943.044 236.19 944.773 234.203 947.055 232.363C949.41 230.45 952.391 228.794 955.997 227.395L961.848 233.798C958.316 235.05 955.85 236.558 954.452 238.325C953.053 240.091 952.354 241.894 952.354 243.734C952.354 245.648 952.943 247.23 954.12 248.482C955.372 249.806 957.028 250.8 959.088 251.462C961.223 252.125 963.615 252.456 966.264 252.456C968.84 252.456 971.085 252.088 972.999 251.352C974.912 250.69 976.384 249.733 977.415 248.482C978.519 247.23 979.071 245.722 979.071 243.955C979.071 241.747 978.298 239.944 976.752 238.546C975.207 237.221 972.152 236.411 967.589 236.117C963.688 235.822 960.266 235.418 957.322 234.902C954.378 234.314 951.839 233.651 949.704 232.915C947.644 232.179 945.877 231.37 944.405 230.486C942.933 229.53 941.719 228.573 940.762 227.616V225.077L952.354 212.933L962.18 216.134L949.152 228.83L952.575 222.427C953.311 222.942 954.047 223.421 954.783 223.862C955.592 224.304 956.586 224.709 957.764 225.077C959.015 225.371 960.634 225.666 962.621 225.96C964.608 226.254 967.184 226.549 970.349 226.843C975.28 227.211 979.292 228.094 982.383 229.493C985.474 230.891 987.756 232.768 989.228 235.123C990.7 237.478 991.436 240.312 991.436 243.624C991.436 246.862 990.516 249.917 988.676 252.787C986.909 255.658 984.186 258.013 980.506 259.853C976.826 261.693 972.116 262.613 966.375 262.613ZM966.375 220.33C961.738 220.33 957.727 219.446 954.341 217.68C951.029 215.84 948.49 213.411 946.724 210.394C944.957 207.302 944.074 203.917 944.074 200.237C944.074 196.483 944.957 193.098 946.724 190.08C948.49 187.062 951.029 184.634 954.341 182.794C957.727 180.954 961.738 180.034 966.375 180.034C971.012 180.034 974.986 180.954 978.298 182.794C981.61 184.634 984.149 187.062 985.916 190.08C987.682 193.098 988.565 196.483 988.565 200.237C988.565 203.917 987.682 207.302 985.916 210.394C984.149 213.411 981.61 215.84 978.298 217.68C974.986 219.446 971.012 220.33 966.375 220.33ZM966.375 210.062C969.54 210.062 972.079 209.216 973.992 207.523C975.906 205.83 976.863 203.402 976.863 200.237C976.863 197.072 975.906 194.68 973.992 193.061C972.079 191.368 969.54 190.522 966.375 190.522C963.21 190.522 960.634 191.368 958.647 193.061C956.66 194.68 955.666 197.072 955.666 200.237C955.666 203.402 956.66 205.83 958.647 207.523C960.634 209.216 963.21 210.062 966.375 210.062ZM975.538 191.074L972.999 181.358H995.852V189.638L975.538 191.074Z" fill="white"/>
</svg>
