<svg width="150" height="150" viewBox="0 0 150 150" fill="none" xmlns="http://www.w3.org/2000/svg">
<path d="M98.73 125.33C94.85 122.37 89.08 116.34 87.66 111.67C86.23 107 86.31 102.01 87.87 97.38C89.43 92.76 92.41 88.74 96.37 85.89C100.34 83.04 105.09 81.51 109.97 81.51V78.51C103.24 78.51 96.77 81.08 91.88 85.7C86.99 90.32 84.04 96.63 83.65 103.35H28.24V47.15C28.24 45.96 28.71 44.81 29.56 43.97C30.4 43.13 31.55 42.65 32.74 42.65H112.87V39.65H32.74C30.75 39.65 28.84 40.44 27.44 41.85C26.04 43.26 25.24 45.16 25.24 47.15V106.36H83.65C83.91 110.99 85.4 115.47 87.95 119.35C90.5 123.23 94.03 126.36 98.19 128.43C102.34 130.5 106.97 131.44 111.6 131.15C116.23 130.86 120.7 129.35 124.56 126.78C128.42 124.2 131.53 120.66 133.58 116.49C135.63 112.33 136.54 107.69 136.22 103.07C135.9 98.45 134.37 93.98 131.77 90.13C129.17 86.28 125.61 83.19 121.43 81.17H121.45V37.87C121.45 35.88 120.66 33.98 119.25 32.57C117.84 31.16 115.94 30.37 113.95 30.37H60.88L55.24 21.7C54.58 20.58 53.63 19.65 52.5 19C51.37 18.35 50.09 18.01 48.78 18H20.5C18.51 18 16.6 18.79 15.2 20.2C13.79 21.6 13 23.51 13 25.5V98.86C13 100.85 13.79 102.76 15.2 104.16C16.61 105.57 18.51 106.36 20.5 106.36V103.36C19.31 103.36 18.16 102.89 17.32 102.04C16.48 101.2 16 100.05 16 98.86V25.5C16 24.31 16.47 23.16 17.32 22.32C18.16 21.48 19.31 21 20.5 21H48.78C49.57 21.01 50.34 21.23 51.02 21.63C51.7 22.03 52.26 22.6 52.65 23.28L59.25 33.37H113.99C115.18 33.37 116.33 33.85 117.17 34.69C118.01 35.53 118.49 36.68 118.49 37.87V83.1L119.39 83.49C123.16 85.15 126.42 87.77 128.85 91.09C131.28 94.41 132.78 98.32 133.21 102.42C133.64 106.51 132.98 110.65 131.29 114.4C129.6 118.15 123.85 123.2 120.5 125.6M120.5 125.6C117.12 127.33 113.38 128.21 109.58 128.17C105.79 128.12 102.06 127.15 98.73 125.33L98.81 125.36" fill="#FF5F46"/>
<path fill-rule="evenodd" clip-rule="evenodd" d="M119.683 115.383C119.593 115.193 119.553 115.093 119.503 115.003C118.193 112.523 116.893 110.033 115.573 107.553C115.443 107.303 115.453 107.153 115.643 106.943C117.723 104.513 119.793 102.073 121.863 99.6435C121.933 99.5535 122.003 99.4635 122.033 99.3135C121.423 99.4735 120.823 99.6235 120.213 99.7835C117.703 100.453 115.193 101.113 112.683 101.783C112.453 101.843 112.343 101.783 112.223 101.583C110.793 99.2035 109.363 96.8235 107.933 94.4435C107.863 94.3235 107.783 94.2035 107.623 94.0935C107.503 94.7235 107.393 95.3635 107.273 95.9935C106.873 98.2335 106.473 100.473 106.083 102.723C106.043 102.963 105.983 103.203 105.963 103.453C105.943 103.683 105.823 103.773 105.613 103.833C102.653 104.763 99.6926 105.703 96.7326 106.643C96.6026 106.683 96.4726 106.733 96.3326 106.863C98.7526 107.823 101.173 108.783 103.633 109.763C103.543 109.833 103.483 109.893 103.423 109.933C101.913 110.913 100.393 111.883 98.8826 112.873C98.7026 112.993 98.5626 113.003 98.3526 112.913C96.5426 112.103 94.7326 111.303 92.9226 110.493C92.1126 110.133 91.3826 109.653 90.8126 108.953C89.5226 107.383 89.7826 105.593 91.4926 104.493C92.0526 104.133 92.6926 103.863 93.3226 103.663C96.2226 102.723 99.1326 101.803 102.043 100.893C102.283 100.813 102.403 100.703 102.443 100.443C102.833 98.2035 103.233 95.9535 103.633 93.7135C103.853 92.5135 103.963 91.2835 104.543 90.1835C104.763 89.7635 105.033 89.3435 105.353 88.9935C106.503 87.7135 108.123 87.6635 109.343 88.8835C109.753 89.2935 110.113 89.7835 110.413 90.2835C111.763 92.4735 113.083 94.6835 114.393 96.8935C114.553 97.1535 114.693 97.2035 114.973 97.1335C118.213 96.2635 121.463 95.4035 124.713 94.5535C125.383 94.3735 126.063 94.3135 126.743 94.4435C128.243 94.7235 128.893 95.8635 128.383 97.3035C128.153 97.9635 127.753 98.5235 127.303 99.0435C125.033 101.703 122.773 104.373 120.503 107.033C120.313 107.253 120.313 107.403 120.443 107.653C121.803 110.213 123.143 112.773 124.493 115.333C124.813 115.943 125.063 116.583 125.073 117.283C125.093 118.883 123.923 120.193 122.333 120.423C121.443 120.553 120.613 120.363 119.783 120.103C117.753 119.473 115.713 118.853 113.673 118.243C113.483 118.183 113.413 118.113 113.383 117.913C113.153 116.483 112.893 115.043 112.643 113.613C112.643 113.573 112.643 113.533 112.653 113.443C114.973 114.083 117.273 114.713 119.673 115.383H119.683Z" fill="#FF5F46"/>
</svg>
