<svg width="150" height="150" viewBox="0 0 150 150" fill="none" xmlns="http://www.w3.org/2000/svg">
<path d="M27.2 82.8698C27.2 85.0398 28.96 86.8098 31.14 86.8098C33.32 86.8098 35.08 85.0498 35.08 82.8698C35.08 80.6898 33.32 78.9298 31.14 78.9298C28.97 78.9298 27.2 77.1698 27.2 74.9898C27.2 72.8198 28.96 71.0498 31.14 71.0498C33.32 71.0498 35.08 72.8098 35.08 74.9898" stroke="#FF5F46" stroke-width="3" stroke-miterlimit="3" stroke-linecap="square"/>
<path d="M31.14 71.0598V68.0298" stroke="#FF5F46" stroke-width="3" stroke-miterlimit="3" stroke-linecap="square"/>
<path d="M31.14 89.8401V86.8101" stroke="#FF5F46" stroke-width="3" stroke-miterlimit="3" stroke-linecap="square"/>
<path d="M110.8 86.2199V76.6699" stroke="#FF5F46" stroke-width="3" stroke-miterlimit="3" stroke-linecap="square"/>
<path d="M118.85 86.2199V69.1099" stroke="#FF5F46" stroke-width="3" stroke-miterlimit="3" stroke-linecap="square"/>
<path d="M126.91 86.2198V73.0698" stroke="#FF5F46" stroke-width="3" stroke-miterlimit="3" stroke-linecap="square"/>
<path d="M41.3 93.53C49.62 87.92 51.8199 76.63 46.2199 68.31C40.6099 59.99 29.32 57.79 21 63.39C12.68 69 10.4799 80.29 16.0799 88.61C19.4599 93.62 25.1 96.63 31.14 96.63" stroke="#FF5F46" stroke-width="3" stroke-miterlimit="3" stroke-linecap="square"/>
<path d="M108.7 93.53C100.38 87.92 98.18 76.63 103.78 68.31C109.39 59.99 120.68 57.79 129 63.39C137.32 69 139.52 80.29 133.92 88.61C130.54 93.62 124.89 96.63 118.85 96.63" stroke="#FF5F46" stroke-width="3" stroke-miterlimit="3" stroke-linecap="square"/>
<path d="M48.58 108.92V122.96C38.95 122.96 31.14 115.15 31.14 105.52V96.6299" stroke="#FF5F46" stroke-width="3" stroke-miterlimit="3" stroke-linecap="square"/>
<path d="M86.5 47.9698L96.6099 38.6298L99.78 43.6498L111.38 32.6498C105.77 24.3298 94.48 22.1298 86.16 27.7298C77.84 33.3398 75.6399 44.6298 81.2399 52.9498C86.8499 61.2698 98.1399 63.4698 106.46 57.8698C111.47 54.4898 114.48 48.8498 114.48 42.8098" stroke="#FF5F46" stroke-width="3" stroke-miterlimit="3" stroke-linecap="square"/>
<path d="M54.01 60.9597C43.99 60.9597 35.86 52.8197 35.87 42.7997C35.87 32.7797 44.01 24.6497 54.03 24.6597C64.05 24.6597 72.1801 32.7997 72.1701 42.8197C72.1701 48.8497 69.17 54.4897 64.16 57.8597L50.83 44.5297L47.57 35.2297L56.87 38.4897L69.4399 51.0597" stroke="#FF5F46" stroke-width="3" stroke-miterlimit="3" stroke-linecap="square"/>
<path d="M75 122.95V106.93L71.75 97.5598L64.74 92.7598" stroke="#FF5F46" stroke-width="3" stroke-miterlimit="3" stroke-linecap="square"/>
<path d="M51.6 43.7699L55.97 39.3999" stroke="#FF5F46" stroke-width="3" stroke-miterlimit="3" stroke-linecap="square"/>
<path d="M101.42 108.92V122.96C111.05 122.96 118.85 115.16 118.85 105.53V96.6299" stroke="#FF5F46" stroke-width="3" stroke-miterlimit="3" stroke-linecap="square"/>
<path d="M48.58 108.92C48.58 99.9998 55.81 92.7698 64.73 92.7698C58.15 87.0998 57.41 77.1698 63.08 70.5898C68.75 64.0098 78.68 63.2698 85.26 68.9398C91.84 74.6098 92.58 84.5398 86.91 91.1198C86.4 91.7098 85.85 92.2598 85.26 92.7698C94.18 92.7698 101.41 99.9998 101.41 108.92" stroke="#FF5F46" stroke-width="3" stroke-miterlimit="3" stroke-linecap="square"/>
<path d="M75.4 105.75L78.25 97.5598L85.26 92.7598" stroke="#FF5F46" stroke-width="3" stroke-miterlimit="3" stroke-linecap="square"/>
<path d="M85.26 92.7598V107.22L78.25 97.5598" stroke="#FF5F46" stroke-width="3" stroke-miterlimit="3" stroke-linecap="round"/>
<path d="M64.74 92.7598V107.22L71.75 97.5598" stroke="#FF5F46" stroke-width="3" stroke-miterlimit="3" stroke-linecap="round"/>
<path d="M80.89 113.01C81.3815 113.01 81.78 112.612 81.78 112.12C81.78 111.628 81.3815 111.23 80.89 111.23C80.3985 111.23 80 111.628 80 112.12C80 112.612 80.3985 113.01 80.89 113.01Z" stroke="#FF5F46" stroke-width="3" stroke-miterlimit="3" stroke-linecap="square"/>
<path d="M80.89 120.21C81.3815 120.21 81.78 119.812 81.78 119.32C81.78 118.829 81.3815 118.43 80.89 118.43C80.3985 118.43 80 118.829 80 119.32C80 119.812 80.3985 120.21 80.89 120.21Z" stroke="#FF5F46" stroke-width="3" stroke-miterlimit="3" stroke-linecap="square"/>
</svg>
