<svg width="150" height="150" viewBox="0 0 150 150" fill="none" xmlns="http://www.w3.org/2000/svg">
<path d="M27.2 82.8699C27.2 85.0399 28.96 86.8099 31.14 86.8099C33.32 86.8099 35.08 85.0499 35.08 82.8699C35.08 80.6899 33.32 78.9299 31.14 78.9299C28.97 78.9299 27.2 77.1699 27.2 74.9899C27.2 72.8199 28.96 71.0499 31.14 71.0499C33.32 71.0499 35.08 72.8099 35.08 74.9899" stroke="#1B3139" stroke-width="3" stroke-miterlimit="3" stroke-linecap="square"/>
<path d="M31.14 71.0599V68.0299" stroke="#1B3139" stroke-width="3" stroke-miterlimit="3" stroke-linecap="square"/>
<path d="M31.14 89.8399V86.8099" stroke="#1B3139" stroke-width="3" stroke-miterlimit="3" stroke-linecap="square"/>
<path d="M110.8 86.2199V76.6699" stroke="#1B3139" stroke-width="3" stroke-miterlimit="3" stroke-linecap="square"/>
<path d="M118.85 86.22V69.11" stroke="#1B3139" stroke-width="3" stroke-miterlimit="3" stroke-linecap="square"/>
<path d="M126.91 86.2199V73.0699" stroke="#1B3139" stroke-width="3" stroke-miterlimit="3" stroke-linecap="square"/>
<path d="M41.3 93.53C49.62 87.92 51.8199 76.63 46.2199 68.31C40.6099 59.99 29.32 57.79 21 63.39C12.68 69 10.4799 80.29 16.0799 88.61C19.4599 93.62 25.1 96.63 31.14 96.63" stroke="#1B3139" stroke-width="3" stroke-miterlimit="3" stroke-linecap="square"/>
<path d="M108.7 93.53C100.38 87.92 98.18 76.63 103.78 68.31C109.39 59.99 120.68 57.79 129 63.39C137.32 69 139.52 80.29 133.92 88.61C130.54 93.62 124.89 96.63 118.85 96.63" stroke="#1B3139" stroke-width="3" stroke-miterlimit="3" stroke-linecap="square"/>
<path d="M48.58 108.92V122.96C38.95 122.96 31.14 115.15 31.14 105.52V96.6299" stroke="#1B3139" stroke-width="3" stroke-miterlimit="3" stroke-linecap="square"/>
<path d="M86.5 47.9699L96.6099 38.6299L99.78 43.6499L111.38 32.6499C105.77 24.3299 94.48 22.1299 86.16 27.7299C77.84 33.3399 75.6399 44.6299 81.2399 52.9499C86.8499 61.2699 98.1399 63.4699 106.46 57.8699C111.47 54.4899 114.48 48.8499 114.48 42.8099" stroke="#1B3139" stroke-width="3" stroke-miterlimit="3" stroke-linecap="square"/>
<path d="M54.01 60.9599C43.99 60.9599 35.86 52.8199 35.87 42.7999C35.87 32.7799 44.01 24.6499 54.03 24.6599C64.05 24.6599 72.1801 32.7999 72.1701 42.8199C72.1701 48.8499 69.17 54.4899 64.16 57.8599L50.83 44.5299L47.57 35.2299L56.87 38.4899L69.4399 51.0599" stroke="#1B3139" stroke-width="3" stroke-miterlimit="3" stroke-linecap="square"/>
<path d="M75 122.95V106.93L71.75 97.56L64.74 92.76" stroke="#1B3139" stroke-width="3" stroke-miterlimit="3" stroke-linecap="square"/>
<path d="M51.6 43.7699L55.97 39.3999" stroke="#1B3139" stroke-width="3" stroke-miterlimit="3" stroke-linecap="square"/>
<path d="M101.42 108.92V122.96C111.05 122.96 118.85 115.16 118.85 105.53V96.6299" stroke="#1B3139" stroke-width="3" stroke-miterlimit="3" stroke-linecap="square"/>
<path d="M48.58 108.92C48.58 100 55.81 92.77 64.73 92.77C58.15 87.1 57.41 77.17 63.08 70.59C68.75 64.01 78.68 63.27 85.26 68.94C91.84 74.61 92.58 84.54 86.91 91.12C86.4 91.71 85.85 92.26 85.26 92.77C94.18 92.77 101.41 100 101.41 108.92" stroke="#1B3139" stroke-width="3" stroke-miterlimit="3" stroke-linecap="square"/>
<path d="M75.4 105.75L78.25 97.56L85.26 92.76" stroke="#1B3139" stroke-width="3" stroke-miterlimit="3" stroke-linecap="square"/>
<path d="M85.26 92.76V107.22L78.25 97.56" stroke="#1B3139" stroke-width="3" stroke-miterlimit="3" stroke-linecap="round"/>
<path d="M64.74 92.76V107.22L71.75 97.56" stroke="#1B3139" stroke-width="3" stroke-miterlimit="3" stroke-linecap="round"/>
<path d="M80.89 113.01C81.3815 113.01 81.78 112.612 81.78 112.12C81.78 111.628 81.3815 111.23 80.89 111.23C80.3985 111.23 80 111.628 80 112.12C80 112.612 80.3985 113.01 80.89 113.01Z" stroke="#1B3139" stroke-width="3" stroke-miterlimit="3" stroke-linecap="square"/>
<path d="M80.89 120.21C81.3815 120.21 81.78 119.812 81.78 119.32C81.78 118.829 81.3815 118.43 80.89 118.43C80.3985 118.43 80 118.829 80 119.32C80 119.812 80.3985 120.21 80.89 120.21Z" stroke="#1B3139" stroke-width="3" stroke-miterlimit="3" stroke-linecap="square"/>
</svg>
