<svg width="150" height="150" viewBox="0 0 150 150" fill="none" xmlns="http://www.w3.org/2000/svg">
<path d="M121.81 81.56V38.27C121.807 36.2817 121.016 34.3756 119.61 32.9696C118.204 31.5637 116.298 30.7726 114.31 30.77H61.23L55.59 22.1C54.9254 20.977 53.9808 20.0457 52.8485 19.3971C51.7161 18.7486 50.4349 18.405 49.13 18.4H20.85C18.8609 18.4 16.9532 19.1902 15.5467 20.5967C14.1402 22.0032 13.35 23.9109 13.35 25.9V99.26C13.35 101.249 14.1402 103.157 15.5467 104.563C16.9532 105.97 18.8609 106.76 20.85 106.76V103.76C19.6565 103.76 18.5119 103.286 17.668 102.442C16.8241 101.598 16.35 100.453 16.35 99.26V25.9C16.35 24.7065 16.8241 23.5619 17.668 22.718C18.5119 21.8741 19.6565 21.4 20.85 21.4H49.13C49.9172 21.4127 50.6876 21.6295 51.3659 22.0292C52.0443 22.4288 52.6073 22.9976 53 23.68L59.6 33.77H114.34C115.533 33.7726 116.676 34.2476 117.519 35.0909C118.362 35.9343 118.837 37.0773 118.84 38.27V83.5L119.74 83.89C123.508 85.546 126.771 88.1693 129.198 91.4939C131.624 94.8184 133.128 98.7258 133.557 102.819C133.985 106.913 133.323 111.047 131.638 114.802C129.952 118.557 127.303 121.8 123.96 124.2V116.2C123.959 115.148 123.681 114.114 123.155 113.203C122.628 112.293 121.871 111.536 120.96 111.01L116.81 108.62C118.842 106.203 120.007 103.176 120.12 100.02C120.12 93.65 115.91 89.02 110.12 89.02C104.33 89.02 100.12 93.64 100.12 100.02C100.233 103.178 101.402 106.206 103.44 108.62L99.17 111C98.2588 111.526 97.5019 112.283 96.9754 113.193C96.4488 114.104 96.1711 115.138 96.17 116.19V123.8C92.2894 120.84 89.4348 116.738 88.008 112.071C86.5811 107.403 86.654 102.406 88.2162 97.7822C89.7784 93.1585 92.7514 89.1411 96.7165 86.2956C100.682 83.4501 105.439 81.9197 110.32 81.92V78.92C103.592 78.9214 97.1191 81.4944 92.2261 86.1122C87.3332 90.73 84.3903 97.0434 84 103.76H28.59V47.55C28.59 46.3565 29.0641 45.2119 29.908 44.368C30.7519 43.5241 31.8965 43.05 33.09 43.05H113.22V40.05H33.09C31.1009 40.05 29.1932 40.8402 27.7867 42.2467C26.3802 43.6532 25.59 45.5609 25.59 47.55V106.76H84C84.2642 111.393 85.7476 115.874 88.3003 119.749C90.8529 123.625 94.384 126.757 98.5363 128.829C102.689 130.901 107.315 131.839 111.946 131.549C116.577 131.258 121.05 129.749 124.911 127.175C128.772 124.6 131.884 121.051 133.932 116.887C135.981 112.724 136.893 108.092 136.576 103.463C136.259 98.8329 134.725 94.369 132.128 90.5229C129.532 86.6767 125.965 83.5848 121.79 81.56H121.81ZM99.16 125.76V116.19C99.1614 115.665 99.3007 115.149 99.5639 114.695C99.8272 114.24 100.205 113.863 100.66 113.6L106.44 110.28L106.73 107.89C104.511 105.843 103.174 103.014 103 100C103 95.3 105.9 92 110 92C114.1 92 117 95.29 117 100C116.823 103.009 115.494 105.834 113.29 107.89L113.58 110.27L119.36 113.6C119.812 113.863 120.187 114.239 120.448 114.692C120.709 115.144 120.848 115.657 120.85 116.18V126C117.474 127.733 113.726 128.615 109.931 128.568C106.137 128.521 102.412 127.547 99.08 125.73L99.16 125.76Z" fill="#FF5F46"/>
</svg>
