<svg width="150" height="150" viewBox="0 0 150 150" fill="none" xmlns="http://www.w3.org/2000/svg">
<path d="M121.81 81.5599V38.2699C121.807 36.2816 121.016 34.3755 119.61 32.9695C118.204 31.5636 116.298 30.7725 114.31 30.7699H61.23L55.59 22.0999C54.9254 20.9769 53.9808 20.0456 52.8485 19.397C51.7162 18.7485 50.4349 18.4049 49.13 18.3999H20.85C18.8609 18.3999 16.9532 19.1901 15.5467 20.5966C14.1402 22.0031 13.35 23.9108 13.35 25.8999V99.2599C13.35 101.249 14.1402 103.157 15.5467 104.563C16.9532 105.97 18.8609 106.76 20.85 106.76V103.76C19.6565 103.76 18.5119 103.286 17.668 102.442C16.8241 101.598 16.35 100.453 16.35 99.2599V25.8999C16.35 24.7064 16.8241 23.5618 17.668 22.7179C18.5119 21.874 19.6565 21.3999 20.85 21.3999H49.13C49.9172 21.4126 50.6876 21.6294 51.366 22.0291C52.0443 22.4287 52.6073 22.9975 53 23.6799L59.6 33.7699H114.34C115.533 33.7725 116.676 34.2475 117.519 35.0908C118.362 35.9342 118.837 37.0772 118.84 38.2699V83.4999L119.74 83.8899C123.508 85.5459 126.771 88.1693 129.198 91.4938C131.624 94.8184 133.128 98.7257 133.557 102.819C133.985 106.913 133.323 111.047 131.638 114.802C129.952 118.557 127.304 121.799 123.96 124.2V116.2C123.959 115.148 123.681 114.114 123.155 113.203C122.628 112.292 121.871 111.536 120.96 111.01L116.81 108.62C118.842 106.203 120.007 103.176 120.12 100.02C120.12 93.6499 115.91 89.0199 110.12 89.0199C104.33 89.0199 100.12 93.6399 100.12 100.02C100.233 103.177 101.402 106.206 103.44 108.62L99.17 111C98.2588 111.526 97.502 112.282 96.9754 113.193C96.4488 114.104 96.1711 115.138 96.17 116.19V123.8C92.2894 120.84 89.4348 116.738 88.008 112.07C86.5812 107.403 86.654 102.406 88.2162 97.7821C89.7784 93.1584 92.7514 89.141 96.7166 86.2955C100.682 83.45 105.439 81.9196 110.32 81.9199V78.9199C103.592 78.9213 97.1191 81.4943 92.2262 86.1121C87.3332 90.7299 84.3904 97.0433 84 103.76H28.59V47.5499C28.59 46.3564 29.0641 45.2118 29.908 44.3679C30.7519 43.524 31.8965 43.0499 33.09 43.0499H113.22V40.0499H33.09C31.1009 40.0499 29.1932 40.8401 27.7867 42.2466C26.3802 43.6531 25.59 45.5608 25.59 47.5499V106.76H84C84.2642 111.393 85.7477 115.874 88.3003 119.749C90.8529 123.625 94.3841 126.757 98.5363 128.829C102.689 130.901 107.315 131.839 111.946 131.549C116.577 131.258 121.05 129.749 124.911 127.175C128.772 124.6 131.884 121.051 133.932 116.887C135.981 112.723 136.893 108.092 136.576 103.463C136.259 98.8328 134.725 94.369 132.128 90.5228C129.532 86.6766 125.966 83.5847 121.79 81.5599H121.81ZM99.16 125.76V116.19C99.1614 115.665 99.3007 115.149 99.5639 114.694C99.8272 114.24 100.205 113.863 100.66 113.6L106.44 110.28L106.73 107.89C104.511 105.843 103.174 103.014 103 99.9999C103 95.2999 105.9 91.9999 110 91.9999C114.1 91.9999 117 95.2899 117 99.9999C116.823 103.009 115.494 105.834 113.29 107.89L113.58 110.27L119.36 113.6C119.812 113.863 120.187 114.239 120.448 114.692C120.709 115.144 120.848 115.657 120.85 116.18V126C117.474 127.733 113.726 128.615 109.931 128.568C106.137 128.521 102.412 127.547 99.08 125.73L99.16 125.76Z" fill="white"/>
</svg>
