<svg width="150" height="150" viewBox="0 0 150 150" fill="none" xmlns="http://www.w3.org/2000/svg">
<g clip-path="url(#clip0_214_431)">
<path d="M84.3 84.7C84.8 83.5 85 82.3 85 81C85 76.1 81.4 71.9 76.5 71.2V67.1V42.5H91.1V24.1H58.8V42.5H73.5V56.2C72.2 55.2 70.6 54.7 69 54.7H42.8C40.3 54.7 38.3 52.7 38.3 50.2V42.5H52.3V24.1H19.9V42.5H35.3V50.2C35.3 54.3 38.7 57.7 42.8 57.7H69C71.5 57.7 73.5 59.7 73.5 62.2V71.2C68.6 71.9 65 76.1 65 81C65 82.2 65.2 83.5 65.7 84.6L50.3 93.5H19.9V125.8H52.2V95.9L67.2 87.2C70.7 91.5 77 92.2 81.3 88.7C81.9 88.3 82.4 87.8 82.8 87.2L97.8 95.9V125.8H130.1V93.5H99.7L84.3 84.7ZM61.8 27.1H88.1V39.5H61.8V27.1ZM22.8 27.1H49.2V39.5H22.9L22.8 27.1ZM49.2 122.9H22.9V96.5H49.2V122.9ZM75 88C71.1 88 68 84.9 68 81C68 77.1 71.1 74 75 74C78.9 74 82 77.1 82 81C82 84.9 78.9 88 75 88ZM100.8 96.6H127.1V122.9H100.8V96.6Z" fill="#FF5F46"/>
<path d="M97.8 42.5H111.7V50.2C111.7 52.7 109.7 54.7 107.2 54.7H81V57.7H107.2C111.3 57.7 114.7 54.3 114.7 50.2V42.5H130.1V24.1H97.8V42.5ZM100.8 27.1H127.1V39.5H100.8V27.1Z" fill="#FF5F46"/>
</g>
<defs>
<clipPath id="clip0_214_431">
<rect width="150" height="150" fill="white"/>
</clipPath>
</defs>
</svg>
