<svg width="150" height="150" viewBox="0 0 150 150" fill="none" xmlns="http://www.w3.org/2000/svg">
<g clip-path="url(#clip0_1_1989)">
<path d="M84.3 84.7001C84.8 83.5001 85 82.3001 85 81.0001C85 76.1001 81.4 71.9001 76.5 71.2001V67.1001V42.5001H91.1V24.1001H58.8V42.5001H73.5V56.2001C72.2 55.2001 70.6 54.7001 69 54.7001H42.8C40.3 54.7001 38.3 52.7001 38.3 50.2001V42.5001H52.3V24.1001H19.9V42.5001H35.3V50.2001C35.3 54.3001 38.7 57.7001 42.8 57.7001H69C71.5 57.7001 73.5 59.7001 73.5 62.2001V71.2001C68.6 71.9001 65 76.1001 65 81.0001C65 82.2001 65.2 83.5001 65.7 84.6001L50.3 93.5001H19.9V125.8H52.2V95.9001L67.2 87.2001C70.7 91.5001 77 92.2001 81.3 88.7001C81.9 88.3001 82.4 87.8001 82.8 87.2001L97.8 95.9001V125.8H130.1V93.5001H99.7L84.3 84.7001ZM61.8 27.1001H88.1V39.5001H61.8V27.1001ZM22.8 27.1001H49.2V39.5001H22.9L22.8 27.1001ZM49.2 122.9H22.9V96.5001H49.2V122.9ZM75 88.0001C71.1 88.0001 68 84.9001 68 81.0001C68 77.1001 71.1 74.0001 75 74.0001C78.9 74.0001 82 77.1001 82 81.0001C82 84.9001 78.9 88.0001 75 88.0001ZM100.8 96.6001H127.1V122.9H100.8V96.6001Z" fill="white"/>
<path d="M97.8 42.5001H111.7V50.2001C111.7 52.7001 109.7 54.7001 107.2 54.7001H81V57.7001H107.2C111.3 57.7001 114.7 54.3001 114.7 50.2001V42.5001H130.1V24.1001H97.8V42.5001ZM100.8 27.1001H127.1V39.5001H100.8V27.1001Z" fill="white"/>
</g>
<defs>
<clipPath id="clip0_1_1989">
<rect width="150" height="150" fill="white"/>
</clipPath>
</defs>
</svg>
