<svg width="893" height="300" viewBox="0 0 893 300" fill="none" xmlns="http://www.w3.org/2000/svg">
<path d="M150.431 37.5019C150.43 99.1479 100.844 149.213 39.3828 149.991L37.9287 150L37.5 150L37.5 37.5L150 37.5C150.144 37.5 150.287 37.5014 150.431 37.5019ZM262.354 150C200.487 149.689 150.433 99.4408 150.432 37.5019C212.365 37.7347 262.5 88.012 262.5 150L262.354 150Z" fill="#FABFBA"/>
<path d="M150 262.5C87.868 262.5 37.5 212.132 37.5 150L37.9287 150C100.06 150 150.43 200.368 150.431 262.5C150.431 200.512 200.566 150.234 262.5 150.002C262.436 150.002 262.371 150 262.307 150L262.5 150L262.5 262.5L150 262.5Z" fill="#FF5F46"/>
<path d="M340.501 138V60.72H360.373C369.352 60.72 376.749 62.3024 382.563 65.4672C388.451 68.5584 392.794 73.0112 395.59 78.8256C398.461 84.5664 399.896 91.4848 399.896 99.5808C399.896 107.53 398.461 114.374 395.59 120.115C392.794 125.856 388.451 130.272 382.563 133.363C376.749 136.454 369.352 138 360.373 138H340.501ZM349.774 130.272H360.152C367.586 130.272 373.51 129.058 377.926 126.629C382.342 124.126 385.507 120.594 387.421 116.03C389.334 111.394 390.291 105.91 390.291 99.5808C390.291 93.104 389.334 87.5472 387.421 82.9104C385.507 78.2736 382.342 74.704 377.926 72.2016C373.51 69.6992 367.586 68.448 360.152 68.448H349.774V130.272ZM427.945 139.325C423.529 139.325 419.849 138.515 416.905 136.896C413.961 135.203 411.753 132.995 410.281 130.272C408.809 127.475 408.073 124.494 408.073 121.33C408.073 117.502 409.029 114.264 410.943 111.614C412.93 108.891 415.69 106.83 419.223 105.432C422.756 104.034 426.877 103.334 431.588 103.334H446.05C446.05 99.5808 445.609 96.4528 444.725 93.9504C443.842 91.448 442.407 89.5712 440.42 88.32C438.433 87.0688 435.783 86.4432 432.471 86.4432C429.159 86.4432 426.325 87.2896 423.97 88.9824C421.615 90.6016 420.143 93.0304 419.554 96.2688H410.06C410.501 92.4416 411.789 89.24 413.924 86.664C416.058 84.0144 418.745 82.0272 421.983 80.7024C425.295 79.304 428.791 78.6048 432.471 78.6048C437.697 78.6048 442.002 79.5616 445.388 81.4752C448.773 83.3152 451.276 85.928 452.895 89.3136C454.514 92.6256 455.324 96.5632 455.324 101.126V138H447.044L446.492 128.064C445.756 129.61 444.799 131.082 443.621 132.48C442.517 133.805 441.193 134.982 439.647 136.013C438.101 137.043 436.335 137.853 434.348 138.442C432.434 139.03 430.3 139.325 427.945 139.325ZM429.269 131.486C431.698 131.486 433.943 130.934 436.004 129.83C438.065 128.726 439.831 127.254 441.303 125.414C442.849 123.501 444.026 121.366 444.836 119.011C445.645 116.656 446.05 114.19 446.05 111.614V110.51H432.361C428.901 110.51 426.068 110.952 423.86 111.835C421.725 112.718 420.18 113.97 419.223 115.589C418.266 117.134 417.788 118.901 417.788 120.888C417.788 123.022 418.229 124.899 419.113 126.518C419.996 128.064 421.284 129.278 422.977 130.162C424.743 131.045 426.841 131.486 429.269 131.486ZM488.345 138C485.033 138 482.163 137.485 479.734 136.454C477.305 135.424 475.429 133.694 474.104 131.266C472.853 128.763 472.227 125.414 472.227 121.219V87.768H462.07V79.9296H472.227L473.441 65.4672H481.501V79.9296H497.95V87.768H481.501V121.219C481.501 124.678 482.2 127.034 483.598 128.285C484.997 129.462 487.462 130.051 490.995 130.051H497.729V138H488.345ZM525.467 139.325C521.051 139.325 517.371 138.515 514.427 136.896C511.483 135.203 509.275 132.995 507.803 130.272C506.331 127.475 505.595 124.494 505.595 121.33C505.595 117.502 506.552 114.264 508.466 111.614C510.453 108.891 513.213 106.83 516.746 105.432C520.279 104.034 524.4 103.334 529.111 103.334H543.573C543.573 99.5808 543.131 96.4528 542.248 93.9504C541.365 91.448 539.93 89.5712 537.943 88.32C535.955 87.0688 533.306 86.4432 529.994 86.4432C526.682 86.4432 523.848 87.2896 521.493 88.9824C519.138 90.6016 517.666 93.0304 517.077 96.2688H507.583C508.024 92.4416 509.312 89.24 511.447 86.664C513.581 84.0144 516.267 82.0272 519.506 80.7024C522.818 79.304 526.314 78.6048 529.994 78.6048C535.219 78.6048 539.525 79.5616 542.911 81.4752C546.296 83.3152 548.799 85.928 550.418 89.3136C552.037 92.6256 552.847 96.5632 552.847 101.126V138H544.567L544.015 128.064C543.279 129.61 542.322 131.082 541.144 132.48C540.04 133.805 538.715 134.982 537.17 136.013C535.624 137.043 533.858 137.853 531.871 138.442C529.957 139.03 527.823 139.325 525.467 139.325ZM526.792 131.486C529.221 131.486 531.466 130.934 533.527 129.83C535.587 128.726 537.354 127.254 538.826 125.414C540.371 123.501 541.549 121.366 542.359 119.011C543.168 116.656 543.573 114.19 543.573 111.614V110.51H529.883C526.424 110.51 523.591 110.952 521.383 111.835C519.248 112.718 517.703 113.97 516.746 115.589C515.789 117.134 515.311 118.901 515.311 120.888C515.311 123.022 515.752 124.899 516.635 126.518C517.519 128.064 518.807 129.278 520.499 130.162C522.266 131.045 524.363 131.486 526.792 131.486ZM593.781 139.325C590.248 139.325 587.194 138.81 584.618 137.779C582.115 136.675 579.981 135.314 578.214 133.694C576.522 132.075 575.123 130.493 574.019 128.947L573.246 138H564.856V58.512H574.13V89.0928C575.896 85.6336 578.509 83.0208 581.968 81.2544C585.427 79.488 589.291 78.6048 593.56 78.6048C598.859 78.6048 603.496 79.8928 607.47 82.4688C611.445 85.0448 614.536 88.6144 616.744 93.1776C618.952 97.6672 620.056 102.856 620.056 108.744C620.056 114.558 618.952 119.784 616.744 124.421C614.536 129.058 611.445 132.701 607.47 135.35C603.57 138 599.006 139.325 593.781 139.325ZM592.566 131.266C596.026 131.266 599.08 130.382 601.73 128.616C604.453 126.776 606.587 124.2 608.133 120.888C609.752 117.502 610.562 113.528 610.562 108.965C610.562 104.402 609.752 100.464 608.133 97.152C606.587 93.7664 604.453 91.1904 601.73 89.424C599.08 87.584 596.026 86.664 592.566 86.664C588.886 86.664 585.685 87.584 582.962 89.424C580.238 91.1904 578.141 93.7664 576.669 97.152C575.197 100.464 574.461 104.402 574.461 108.965C574.461 113.528 575.197 117.502 576.669 120.888C578.141 124.2 580.238 126.776 582.962 128.616C585.685 130.382 588.886 131.266 592.566 131.266ZM630.221 138V79.9296H638.611L639.273 90.528C640.598 87.8784 642.328 85.6704 644.462 83.904C646.597 82.1376 649.173 80.8128 652.19 79.9296C655.281 79.0464 658.741 78.6048 662.568 78.6048V88.32H656.827C654.619 88.32 652.485 88.6144 650.424 89.2032C648.363 89.792 646.486 90.7488 644.793 92.0736C643.174 93.3984 641.886 95.2016 640.929 97.4832C639.973 99.7648 639.494 102.635 639.494 106.094V138H630.221ZM670.809 138V79.9296H680.083V138H670.809ZM675.446 68.8896C673.606 68.8896 672.06 68.3008 670.809 67.1232C669.631 65.872 669.043 64.3264 669.043 62.4864C669.043 60.6464 669.631 59.1744 670.809 58.0704C672.06 56.8928 673.606 56.304 675.446 56.304C677.212 56.304 678.721 56.8928 679.972 58.0704C681.223 59.1744 681.849 60.6464 681.849 62.4864C681.849 64.3264 681.223 65.872 679.972 67.1232C678.721 68.3008 677.212 68.8896 675.446 68.8896ZM718.304 139.325C713.005 139.325 708.295 138.074 704.173 135.571C700.051 132.995 696.813 129.426 694.458 124.862C692.103 120.299 690.925 115 690.925 108.965C690.925 102.856 692.103 97.5568 694.458 93.0672C696.813 88.504 700.051 84.9712 704.173 82.4688C708.295 79.8928 713.005 78.6048 718.304 78.6048C724.928 78.6048 730.448 80.3712 734.864 83.904C739.354 87.4368 742.224 92.184 743.475 98.1456H733.981C733.171 94.4656 731.295 91.632 728.351 89.6448C725.48 87.584 722.095 86.5536 718.194 86.5536C714.808 86.5536 711.754 87.4 709.031 89.0928C706.381 90.7856 704.283 93.288 702.738 96.6C701.192 99.912 700.419 104.034 700.419 108.965C700.419 112.645 700.861 115.92 701.744 118.79C702.627 121.587 703.842 123.942 705.387 125.856C707.007 127.696 708.883 129.094 711.018 130.051C713.226 131.008 715.618 131.486 718.194 131.486C720.843 131.486 723.235 131.045 725.37 130.162C727.578 129.205 729.418 127.843 730.89 126.077C732.435 124.31 733.466 122.213 733.981 119.784H743.475C742.298 125.598 739.427 130.309 734.864 133.915C730.375 137.522 724.855 139.325 718.304 139.325ZM787.762 138L761.377 106.646L786.217 79.9296H797.588L769.215 109.958L769.325 103.334L799.575 138H787.762ZM753.649 138V58.512H762.922V138H753.649ZM823.817 139.325C818.592 139.325 814.249 138.552 810.79 137.006C807.405 135.387 804.829 133.179 803.062 130.382C801.296 127.512 800.229 124.2 799.861 120.446H809.355C809.649 122.434 810.312 124.274 811.342 125.966C812.446 127.586 814.029 128.91 816.089 129.941C818.15 130.971 820.763 131.486 823.928 131.486C826.43 131.486 828.565 131.118 830.331 130.382C832.097 129.573 833.422 128.469 834.305 127.07C835.262 125.672 835.741 124.053 835.741 122.213C835.741 119.784 835.189 117.907 834.085 116.582C833.054 115.184 831.509 114.154 829.448 113.491C827.461 112.755 824.958 112.203 821.941 111.835C818.702 111.394 815.832 110.768 813.329 109.958C810.827 109.149 808.693 108.082 806.926 106.757C805.233 105.432 803.945 103.776 803.062 101.789C802.179 99.8016 801.737 97.4464 801.737 94.7232C801.737 91.5584 802.584 88.7616 804.277 86.3328C805.969 83.904 808.361 82.0272 811.453 80.7024C814.617 79.304 818.334 78.6048 822.603 78.6048C828.859 78.6048 833.79 80.04 837.397 82.9104C841.077 85.7808 843.248 89.8656 843.91 95.1648H834.747C834.379 92.4416 833.128 90.3072 830.993 88.7616C828.859 87.216 826.025 86.4432 822.493 86.4432C818.739 86.4432 815.905 87.1424 813.992 88.5408C812.078 89.9392 811.121 91.7792 811.121 94.0608C811.121 95.7536 811.526 97.2992 812.336 98.6976C813.219 100.022 814.691 101.163 816.752 102.12C818.813 103.003 821.573 103.666 825.032 104.107C829.374 104.622 833.054 105.469 836.072 106.646C839.089 107.75 841.371 109.48 842.917 111.835C844.536 114.19 845.309 117.392 845.235 121.44C845.235 125.267 844.315 128.506 842.475 131.155C840.709 133.805 838.206 135.829 834.968 137.227C831.803 138.626 828.086 139.325 823.817 139.325ZM334.76 237L363.022 159.72H377.816L406.078 237H392.058L370.309 175.176L348.56 237H334.76ZM347.346 218.784L350.878 208.296H388.966L392.499 218.784H347.346ZM413.397 237V159.72H426.645V237H413.397ZM433.682 248.923L461.392 151.44H474.309L446.599 248.923H433.682ZM487.093 237V159.72H517.343C522.789 159.72 527.315 160.566 530.922 162.259C534.602 163.952 537.362 166.307 539.202 169.325C541.042 172.269 541.962 175.691 541.962 179.592C541.962 183.493 541.115 186.768 539.423 189.418C537.73 192.067 535.485 194.091 532.688 195.49C529.965 196.888 526.984 197.734 523.746 198.029L525.402 196.814C528.861 196.888 531.952 197.808 534.675 199.574C537.472 201.341 539.68 203.659 541.299 206.53C542.919 209.326 543.728 212.454 543.728 215.914C543.728 219.962 542.735 223.605 540.747 226.843C538.834 230.008 536 232.51 532.247 234.35C528.493 236.117 523.893 237 518.447 237H487.093ZM500.341 226.181H516.459C520.802 226.181 524.187 225.15 526.616 223.09C529.045 221.029 530.259 218.158 530.259 214.478C530.259 210.798 529.008 207.891 526.506 205.757C524.003 203.549 520.581 202.445 516.239 202.445H500.341V226.181ZM500.341 192.398H515.466C519.735 192.398 522.973 191.442 525.181 189.528C527.389 187.541 528.493 184.818 528.493 181.358C528.493 177.973 527.389 175.323 525.181 173.41C522.973 171.422 519.698 170.429 515.355 170.429H500.341V192.398ZM553.104 237V159.72H566.352V237H553.104ZM635.892 238.325C628.605 238.325 622.202 236.669 616.682 233.357C611.236 230.045 607.004 225.445 603.986 219.557C600.968 213.595 599.46 206.64 599.46 198.691C599.46 190.816 601.005 183.861 604.096 177.826C607.188 171.717 611.604 166.97 617.344 163.584C623.159 160.125 630.04 158.395 637.989 158.395C646.968 158.395 654.402 160.566 660.29 164.909C666.252 169.178 670.116 175.139 671.882 182.794H656.978C655.874 178.966 653.703 175.986 650.464 173.851C647.226 171.717 643.031 170.65 637.879 170.65C632.653 170.65 628.164 171.79 624.41 174.072C620.73 176.28 617.896 179.518 615.909 183.787C613.996 187.982 613.039 192.987 613.039 198.802C613.039 204.616 613.996 209.621 615.909 213.816C617.896 218.011 620.693 221.213 624.3 223.421C627.906 225.555 632.138 226.622 636.996 226.622C644.208 226.622 649.655 224.598 653.335 220.55C657.015 216.502 659.186 211.24 659.848 204.763H639.866V194.717H673.207V237H661.063L659.959 226.402C658.266 228.904 656.316 231.075 654.108 232.915C651.9 234.682 649.287 236.043 646.269 237C643.325 237.883 639.866 238.325 635.892 238.325ZM709.8 238.325C704.28 238.325 699.422 237.147 695.227 234.792C691.032 232.363 687.757 228.978 685.402 224.635C683.046 220.293 681.869 215.288 681.869 209.621C681.869 203.733 683.01 198.581 685.291 194.165C687.646 189.749 690.922 186.29 695.117 183.787C699.386 181.285 704.317 180.034 709.91 180.034C715.357 180.034 720.104 181.248 724.152 183.677C728.2 186.106 731.328 189.381 733.536 193.502C735.744 197.55 736.848 202.114 736.848 207.192C736.848 207.928 736.848 208.738 736.848 209.621C736.848 210.504 736.774 211.424 736.627 212.381H691.363V203.88H723.49C723.342 199.832 721.981 196.667 719.405 194.386C716.829 192.03 713.627 190.853 709.8 190.853C707.077 190.853 704.574 191.478 702.293 192.73C700.011 193.981 698.208 195.858 696.883 198.36C695.558 200.789 694.896 203.88 694.896 207.634V210.835C694.896 214.294 695.522 217.275 696.773 219.778C698.098 222.28 699.864 224.194 702.072 225.518C704.354 226.77 706.893 227.395 709.69 227.395C712.781 227.395 715.32 226.733 717.307 225.408C719.368 224.083 720.877 222.317 721.834 220.109H735.302C734.272 223.568 732.579 226.696 730.224 229.493C727.869 232.216 724.962 234.387 721.502 236.006C718.043 237.552 714.142 238.325 709.8 238.325ZM745.768 237V181.358H757.47L758.464 190.632C760.157 187.394 762.586 184.818 765.75 182.904C768.915 180.99 772.669 180.034 777.011 180.034C781.501 180.034 785.328 180.99 788.493 182.904C791.658 184.744 794.086 187.467 795.779 191.074C797.546 194.68 798.429 199.17 798.429 204.542V237H785.181V205.757C785.181 201.12 784.15 197.55 782.09 195.048C780.029 192.546 776.974 191.294 772.926 191.294C770.277 191.294 767.885 191.92 765.75 193.171C763.69 194.422 762.034 196.262 760.782 198.691C759.605 201.046 759.016 203.917 759.016 207.302V237H745.768ZM809.636 237V181.358H822.884V237H809.636ZM816.26 172.526C813.831 172.526 811.807 171.79 810.188 170.318C808.643 168.773 807.87 166.896 807.87 164.688C807.87 162.406 808.643 160.566 810.188 159.168C811.807 157.696 813.831 156.96 816.26 156.96C818.689 156.96 820.676 157.696 822.222 159.168C823.841 160.566 824.651 162.406 824.651 164.688C824.651 166.896 823.841 168.773 822.222 170.318C820.676 171.79 818.689 172.526 816.26 172.526ZM860.936 238.325C855.416 238.325 850.558 237.147 846.363 234.792C842.168 232.363 838.893 228.978 836.537 224.635C834.182 220.293 833.005 215.288 833.005 209.621C833.005 203.733 834.145 198.581 836.427 194.165C838.782 189.749 842.057 186.29 846.253 183.787C850.521 181.285 855.453 180.034 861.046 180.034C866.493 180.034 871.24 181.248 875.288 183.677C879.336 186.106 882.464 189.381 884.672 193.502C886.88 197.55 887.984 202.114 887.984 207.192C887.984 207.928 887.984 208.738 887.984 209.621C887.984 210.504 887.91 211.424 887.763 212.381H842.499V203.88H874.625C874.478 199.832 873.117 196.667 870.541 194.386C867.965 192.03 864.763 190.853 860.936 190.853C858.213 190.853 855.71 191.478 853.429 192.73C851.147 193.981 849.344 195.858 848.019 198.36C846.694 200.789 846.032 203.88 846.032 207.634V210.835C846.032 214.294 846.657 217.275 847.909 219.778C849.233 222.28 851 224.194 853.208 225.518C855.489 226.77 858.029 227.395 860.825 227.395C863.917 227.395 866.456 226.733 868.443 225.408C870.504 224.083 872.013 222.317 872.969 220.109H886.438C885.408 223.568 883.715 226.696 881.36 229.493C879.005 232.216 876.097 234.387 872.638 236.006C869.179 237.552 865.278 238.325 860.936 238.325Z" fill="white"/>
</svg>
