<svg width="1468" height="724" viewBox="0 0 1468 724" fill="none" xmlns="http://www.w3.org/2000/svg">
<g filter="url(#filter0_dddddd_1112_12030)">
<path d="M192 150.383C192 99.9135 232.913 59.0001 283.383 59.0001H441.017C491.487 59.0001 532.4 99.9135 532.4 150.383V308.018C532.4 358.487 491.487 399.4 441.017 399.4H283.383C232.913 399.4 192 358.487 192 308.018V150.383Z" fill="white"/>
</g>
<path d="M457.967 135L371.967 135L371.967 207L457.967 207L457.967 135Z" fill="#FABFBA"/>
<path d="M371.998 327L457.998 327L457.998 223L371.998 223L371.998 327Z" fill="#FF5F46"/>
<path d="M351.998 135L265.998 135L265.998 255L351.998 255L351.998 135Z" fill="#FF5F46"/>
<path d="M266.033 327L352.033 327L352.033 272L266.033 272L266.033 327Z" fill="#FABFBA"/>
<path d="M603.901 217.2V139.92H623.773C632.752 139.92 640.149 141.503 645.964 144.667C651.852 147.759 656.194 152.211 658.991 158.026C661.861 163.767 663.296 170.685 663.296 178.781C663.296 186.73 661.861 193.575 658.991 199.315C656.194 205.056 651.852 209.472 645.964 212.563C640.149 215.655 632.752 217.2 623.773 217.2H603.901ZM613.175 209.472H623.552C630.986 209.472 636.911 208.258 641.327 205.829C645.743 203.327 648.908 199.794 650.821 195.231C652.735 190.594 653.692 185.111 653.692 178.781C653.692 172.304 652.735 166.747 650.821 162.111C648.908 157.474 645.743 153.904 641.327 151.402C636.911 148.899 630.986 147.648 623.552 147.648H613.175V209.472ZM691.345 218.525C686.929 218.525 683.249 217.715 680.305 216.096C677.361 214.403 675.153 212.195 673.681 209.472C672.209 206.675 671.473 203.695 671.473 200.53C671.473 196.703 672.43 193.464 674.343 190.815C676.33 188.091 679.09 186.031 682.623 184.632C686.156 183.234 690.278 182.535 694.988 182.535H709.45C709.45 178.781 709.009 175.653 708.126 173.151C707.242 170.648 705.807 168.771 703.82 167.52C701.833 166.269 699.183 165.643 695.871 165.643C692.559 165.643 689.726 166.49 687.37 168.183C685.015 169.802 683.543 172.231 682.954 175.469H673.46C673.902 171.642 675.19 168.44 677.324 165.864C679.458 163.215 682.145 161.227 685.383 159.903C688.695 158.504 692.191 157.805 695.871 157.805C701.097 157.805 705.402 158.762 708.788 160.675C712.174 162.515 714.676 165.128 716.295 168.514C717.914 171.826 718.724 175.763 718.724 180.327V217.2H710.444L709.892 207.264C709.156 208.81 708.199 210.282 707.022 211.68C705.918 213.005 704.593 214.183 703.047 215.213C701.502 216.243 699.735 217.053 697.748 217.642C695.834 218.231 693.7 218.525 691.345 218.525ZM692.67 210.687C695.098 210.687 697.343 210.135 699.404 209.031C701.465 207.927 703.231 206.455 704.703 204.615C706.249 202.701 707.426 200.567 708.236 198.211C709.046 195.856 709.45 193.391 709.45 190.815V189.711H695.761C692.302 189.711 689.468 190.152 687.26 191.035C685.126 191.919 683.58 193.17 682.623 194.789C681.666 196.335 681.188 198.101 681.188 200.088C681.188 202.223 681.63 204.099 682.513 205.719C683.396 207.264 684.684 208.479 686.377 209.362C688.143 210.245 690.241 210.687 692.67 210.687ZM751.746 217.2C748.434 217.2 745.563 216.685 743.135 215.655C740.706 214.624 738.829 212.895 737.504 210.466C736.253 207.963 735.627 204.615 735.627 200.419V166.968H725.471V159.13H735.627L736.842 144.667H744.901V159.13H761.351V166.968H744.901V200.419C744.901 203.879 745.6 206.234 746.999 207.485C748.397 208.663 750.863 209.251 754.395 209.251H761.13V217.2H751.746ZM788.868 218.525C784.452 218.525 780.772 217.715 777.828 216.096C774.884 214.403 772.676 212.195 771.204 209.472C769.732 206.675 768.996 203.695 768.996 200.53C768.996 196.703 769.953 193.464 771.866 190.815C773.853 188.091 776.613 186.031 780.146 184.632C783.679 183.234 787.801 182.535 792.511 182.535H806.973C806.973 178.781 806.532 175.653 805.649 173.151C804.765 170.648 803.33 168.771 801.343 167.52C799.356 166.269 796.706 165.643 793.394 165.643C790.082 165.643 787.249 166.49 784.893 168.183C782.538 169.802 781.066 172.231 780.477 175.469H770.983C771.425 171.642 772.713 168.44 774.847 165.864C776.981 163.215 779.668 161.227 782.906 159.903C786.218 158.504 789.714 157.805 793.394 157.805C798.62 157.805 802.925 158.762 806.311 160.675C809.697 162.515 812.199 165.128 813.818 168.514C815.437 171.826 816.247 175.763 816.247 180.327V217.2H807.967L807.415 207.264C806.679 208.81 805.722 210.282 804.545 211.68C803.441 213.005 802.116 214.183 800.57 215.213C799.025 216.243 797.258 217.053 795.271 217.642C793.357 218.231 791.223 218.525 788.868 218.525ZM790.193 210.687C792.621 210.687 794.866 210.135 796.927 209.031C798.988 207.927 800.754 206.455 802.226 204.615C803.772 202.701 804.949 200.567 805.759 198.211C806.569 195.856 806.973 193.391 806.973 190.815V189.711H793.284C789.825 189.711 786.991 190.152 784.783 191.035C782.649 191.919 781.103 193.17 780.146 194.789C779.189 196.335 778.711 198.101 778.711 200.088C778.711 202.223 779.153 204.099 780.036 205.719C780.919 207.264 782.207 208.479 783.9 209.362C785.666 210.245 787.764 210.687 790.193 210.687ZM857.181 218.525C853.648 218.525 850.594 218.01 848.018 216.979C845.516 215.875 843.381 214.514 841.615 212.895C839.922 211.275 838.524 209.693 837.42 208.147L836.647 217.2H828.256V137.712H837.53V168.293C839.296 164.834 841.909 162.221 845.368 160.455C848.828 158.688 852.692 157.805 856.96 157.805C862.26 157.805 866.896 159.093 870.871 161.669C874.845 164.245 877.936 167.815 880.144 172.378C882.352 176.867 883.456 182.056 883.456 187.944C883.456 193.759 882.352 198.984 880.144 203.621C877.936 208.258 874.845 211.901 870.871 214.551C866.97 217.2 862.407 218.525 857.181 218.525ZM855.967 210.466C859.426 210.466 862.48 209.583 865.13 207.816C867.853 205.976 869.988 203.4 871.533 200.088C873.152 196.703 873.962 192.728 873.962 188.165C873.962 183.602 873.152 179.664 871.533 176.352C869.988 172.967 867.853 170.391 865.13 168.624C862.48 166.784 859.426 165.864 855.967 165.864C852.287 165.864 849.085 166.784 846.362 168.624C843.639 170.391 841.541 172.967 840.069 176.352C838.597 179.664 837.861 183.602 837.861 188.165C837.861 192.728 838.597 196.703 840.069 200.088C841.541 203.4 843.639 205.976 846.362 207.816C849.085 209.583 852.287 210.466 855.967 210.466ZM893.621 217.2V159.13H902.011L902.674 169.728C903.999 167.079 905.728 164.871 907.863 163.104C909.997 161.338 912.573 160.013 915.591 159.13C918.682 158.247 922.141 157.805 925.968 157.805V167.52H920.227C918.019 167.52 915.885 167.815 913.824 168.403C911.763 168.992 909.887 169.949 908.194 171.274C906.575 172.599 905.287 174.402 904.33 176.683C903.373 178.965 902.895 181.835 902.895 185.295V217.2H893.621ZM934.209 217.2V159.13H943.483V217.2H934.209ZM938.846 148.09C937.006 148.09 935.461 147.501 934.209 146.323C933.032 145.072 932.443 143.527 932.443 141.687C932.443 139.847 933.032 138.375 934.209 137.271C935.461 136.093 937.006 135.504 938.846 135.504C940.613 135.504 942.121 136.093 943.373 137.271C944.624 138.375 945.249 139.847 945.249 141.687C945.249 143.527 944.624 145.072 943.373 146.323C942.121 147.501 940.613 148.09 938.846 148.09ZM981.705 218.525C976.405 218.525 971.695 217.274 967.573 214.771C963.452 212.195 960.213 208.626 957.858 204.063C955.503 199.499 954.325 194.2 954.325 188.165C954.325 182.056 955.503 176.757 957.858 172.267C960.213 167.704 963.452 164.171 967.573 161.669C971.695 159.093 976.405 157.805 981.705 157.805C988.329 157.805 993.849 159.571 998.265 163.104C1002.75 166.637 1005.62 171.384 1006.88 177.346H997.381C996.572 173.666 994.695 170.832 991.751 168.845C988.881 166.784 985.495 165.754 981.594 165.754C978.209 165.754 975.154 166.6 972.431 168.293C969.781 169.986 967.684 172.488 966.138 175.8C964.593 179.112 963.82 183.234 963.82 188.165C963.82 191.845 964.261 195.12 965.145 197.991C966.028 200.787 967.242 203.143 968.788 205.056C970.407 206.896 972.284 208.295 974.418 209.251C976.626 210.208 979.018 210.687 981.594 210.687C984.244 210.687 986.636 210.245 988.77 209.362C990.978 208.405 992.818 207.043 994.29 205.277C995.836 203.511 996.866 201.413 997.381 198.984H1006.88C1005.7 204.799 1002.83 209.509 998.265 213.115C993.775 216.722 988.255 218.525 981.705 218.525ZM1051.16 217.2L1024.78 185.847L1049.62 159.13H1060.99L1032.62 189.159L1032.73 182.535L1062.98 217.2H1051.16ZM1017.05 217.2V137.712H1026.32V217.2H1017.05ZM1087.22 218.525C1081.99 218.525 1077.65 217.752 1074.19 216.207C1070.8 214.587 1068.23 212.379 1066.46 209.583C1064.7 206.712 1063.63 203.4 1063.26 199.647H1072.76C1073.05 201.634 1073.71 203.474 1074.74 205.167C1075.85 206.786 1077.43 208.111 1079.49 209.141C1081.55 210.171 1084.16 210.687 1087.33 210.687C1089.83 210.687 1091.96 210.319 1093.73 209.583C1095.5 208.773 1096.82 207.669 1097.71 206.271C1098.66 204.872 1099.14 203.253 1099.14 201.413C1099.14 198.984 1098.59 197.107 1097.48 195.783C1096.45 194.384 1094.91 193.354 1092.85 192.691C1090.86 191.955 1088.36 191.403 1085.34 191.035C1082.1 190.594 1079.23 189.968 1076.73 189.159C1074.23 188.349 1072.09 187.282 1070.33 185.957C1068.63 184.632 1067.35 182.976 1066.46 180.989C1065.58 179.002 1065.14 176.647 1065.14 173.923C1065.14 170.759 1065.98 167.962 1067.68 165.533C1069.37 163.104 1071.76 161.227 1074.85 159.903C1078.02 158.504 1081.73 157.805 1086 157.805C1092.26 157.805 1097.19 159.24 1100.8 162.111C1104.48 164.981 1106.65 169.066 1107.31 174.365H1098.15C1097.78 171.642 1096.53 169.507 1094.39 167.962C1092.26 166.416 1089.43 165.643 1085.89 165.643C1082.14 165.643 1079.31 166.343 1077.39 167.741C1075.48 169.139 1074.52 170.979 1074.52 173.261C1074.52 174.954 1074.93 176.499 1075.74 177.898C1076.62 179.223 1078.09 180.363 1080.15 181.32C1082.21 182.203 1084.97 182.866 1088.43 183.307C1092.77 183.823 1096.45 184.669 1099.47 185.847C1102.49 186.951 1104.77 188.68 1106.32 191.035C1107.94 193.391 1108.71 196.592 1108.64 200.64C1108.64 204.467 1107.72 207.706 1105.88 210.355C1104.11 213.005 1101.61 215.029 1098.37 216.427C1095.2 217.826 1091.49 218.525 1087.22 218.525ZM598.16 316.2L626.423 238.92H641.216L669.479 316.2H655.458L633.709 254.376L611.96 316.2H598.16ZM610.746 297.984L614.279 287.496H652.367L655.9 297.984H610.746ZM676.797 316.2V238.92H690.045V316.2H676.797ZM697.082 328.123L724.793 230.64H737.709L709.999 328.123H697.082ZM750.493 316.2V238.92H780.743C786.189 238.92 790.716 239.767 794.322 241.459C798.002 243.152 800.762 245.507 802.602 248.525C804.442 251.469 805.362 254.891 805.362 258.792C805.362 262.693 804.516 265.968 802.823 268.618C801.13 271.267 798.885 273.291 796.089 274.69C793.365 276.088 790.385 276.935 787.146 277.229L788.802 276.015C792.261 276.088 795.353 277.008 798.076 278.775C800.873 280.541 803.081 282.859 804.7 285.73C806.319 288.527 807.129 291.655 807.129 295.114C807.129 299.162 806.135 302.805 804.148 306.043C802.234 309.208 799.401 311.711 795.647 313.551C791.893 315.317 787.293 316.2 781.847 316.2H750.493ZM763.741 305.381H779.86C784.202 305.381 787.588 304.351 790.017 302.29C792.445 300.229 793.66 297.359 793.66 293.679C793.66 289.999 792.409 287.091 789.906 284.957C787.404 282.749 783.981 281.645 779.639 281.645H763.741V305.381ZM763.741 271.599H778.866C783.135 271.599 786.373 270.642 788.581 268.728C790.789 266.741 791.893 264.018 791.893 260.559C791.893 257.173 790.789 254.523 788.581 252.61C786.373 250.623 783.098 249.629 778.756 249.629H763.741V271.599ZM816.505 316.2V238.92H829.753V316.2H816.505ZM865.62 316.2V238.92H890.57C899.55 238.92 906.946 240.503 912.761 243.667C918.649 246.832 922.991 251.322 925.788 257.136C928.658 262.877 930.094 269.722 930.094 277.671C930.094 285.472 928.658 292.28 925.788 298.095C922.991 303.835 918.649 308.288 912.761 311.453C906.946 314.618 899.55 316.2 890.57 316.2H865.62ZM878.868 304.939H889.908C896.606 304.939 901.868 303.872 905.695 301.738C909.596 299.53 912.356 296.402 913.975 292.354C915.668 288.232 916.514 283.338 916.514 277.671C916.514 271.93 915.668 267.035 913.975 262.987C912.356 258.866 909.596 255.701 905.695 253.493C901.868 251.211 896.606 250.071 889.908 250.071H878.868V304.939ZM957.823 317.525C953.26 317.525 949.469 316.752 946.452 315.207C943.434 313.661 941.189 311.6 939.717 309.024C938.245 306.448 937.509 303.651 937.509 300.634C937.509 297.101 938.393 294.047 940.159 291.471C941.999 288.895 944.685 286.907 948.218 285.509C951.751 284.037 956.093 283.301 961.245 283.301H975.266C975.266 280.357 974.861 277.928 974.052 276.015C973.242 274.027 971.991 272.555 970.298 271.599C968.605 270.642 966.434 270.163 963.785 270.163C960.767 270.163 958.191 270.863 956.057 272.261C953.922 273.586 952.597 275.647 952.082 278.443H939.055C939.497 274.469 940.821 271.083 943.029 268.287C945.237 265.416 948.145 263.208 951.751 261.663C955.431 260.043 959.442 259.234 963.785 259.234C969.01 259.234 973.463 260.154 977.143 261.994C980.823 263.76 983.62 266.336 985.533 269.722C987.521 273.034 988.514 277.045 988.514 281.755V316.2H977.253L975.929 307.258C975.193 308.73 974.236 310.091 973.058 311.343C971.954 312.594 970.666 313.698 969.194 314.655C967.722 315.538 966.029 316.237 964.116 316.752C962.276 317.267 960.178 317.525 957.823 317.525ZM960.804 307.037C962.938 307.037 964.815 306.669 966.434 305.933C968.127 305.123 969.562 304.019 970.74 302.621C971.991 301.149 972.948 299.53 973.61 297.763C974.273 295.997 974.714 294.12 974.935 292.133V291.912H962.681C960.105 291.912 957.97 292.243 956.277 292.906C954.585 293.495 953.37 294.378 952.634 295.555C951.898 296.733 951.53 298.095 951.53 299.64C951.53 301.186 951.898 302.511 952.634 303.615C953.37 304.719 954.437 305.565 955.836 306.154C957.234 306.743 958.89 307.037 960.804 307.037ZM1021.55 317.525C1016.62 317.525 1012.31 316.752 1008.63 315.207C1005.02 313.587 1002.15 311.379 1000.02 308.583C997.959 305.712 996.745 302.437 996.377 298.757H1009.62C1009.99 300.303 1010.66 301.738 1011.61 303.063C1012.57 304.314 1013.86 305.307 1015.48 306.043C1017.17 306.779 1019.16 307.147 1021.44 307.147C1023.65 307.147 1025.45 306.853 1026.85 306.264C1028.25 305.602 1029.28 304.755 1029.94 303.725C1030.6 302.695 1030.93 301.591 1030.93 300.413C1030.93 298.647 1030.45 297.285 1029.5 296.328C1028.54 295.371 1027.14 294.635 1025.3 294.12C1023.54 293.531 1021.4 292.979 1018.9 292.464C1016.25 291.949 1013.67 291.323 1011.17 290.587C1008.74 289.778 1006.53 288.784 1004.55 287.607C1002.63 286.429 1001.09 284.92 999.909 283.08C998.805 281.24 998.253 278.995 998.253 276.346C998.253 273.107 999.1 270.2 1000.79 267.624C1002.56 265.048 1005.06 263.024 1008.3 261.552C1011.61 260.007 1015.55 259.234 1020.11 259.234C1026.59 259.234 1031.74 260.743 1035.57 263.76C1039.47 266.704 1041.75 270.863 1042.41 276.235H1029.83C1029.46 274.175 1028.43 272.592 1026.74 271.488C1025.04 270.311 1022.8 269.722 1020 269.722C1017.13 269.722 1014.92 270.274 1013.38 271.378C1011.91 272.408 1011.17 273.807 1011.17 275.573C1011.17 276.677 1011.61 277.707 1012.5 278.664C1013.45 279.547 1014.81 280.32 1016.58 280.983C1018.35 281.571 1020.52 282.16 1023.09 282.749C1027.22 283.559 1030.86 284.515 1034.02 285.619C1037.19 286.723 1039.69 288.343 1041.53 290.477C1043.37 292.611 1044.29 295.629 1044.29 299.53C1044.36 303.063 1043.44 306.191 1041.53 308.914C1039.69 311.637 1037.08 313.771 1033.69 315.317C1030.31 316.789 1026.26 317.525 1021.55 317.525ZM1053.83 316.2V236.712H1067.08V269.17C1068.92 266.152 1071.42 263.76 1074.59 261.994C1077.75 260.154 1081.32 259.234 1085.3 259.234C1089.86 259.234 1093.72 260.191 1096.89 262.104C1100.05 263.944 1102.45 266.704 1104.06 270.384C1105.76 273.991 1106.6 278.517 1106.6 283.963V316.2H1093.47V285.178C1093.47 280.394 1092.44 276.751 1090.38 274.248C1088.39 271.746 1085.33 270.495 1081.21 270.495C1078.56 270.495 1076.17 271.157 1074.04 272.482C1071.9 273.733 1070.21 275.573 1068.96 278.002C1067.71 280.357 1067.08 283.264 1067.08 286.723V316.2H1053.83ZM1149.16 317.525C1146.22 317.525 1143.57 317.12 1141.21 316.311C1138.86 315.575 1136.8 314.544 1135.03 313.219C1133.26 311.821 1131.79 310.239 1130.61 308.472L1129.18 316.2H1117.36V236.712H1130.61V268.728C1132.38 266.005 1134.77 263.76 1137.79 261.994C1140.81 260.154 1144.56 259.234 1149.05 259.234C1154.28 259.234 1158.88 260.522 1162.85 263.098C1166.9 265.6 1170.06 269.059 1172.34 273.475C1174.7 277.818 1175.88 282.823 1175.88 288.49C1175.88 294.01 1174.74 298.978 1172.45 303.394C1170.17 307.81 1167.01 311.269 1162.96 313.771C1158.99 316.274 1154.39 317.525 1149.16 317.525ZM1146.4 306.043C1149.49 306.043 1152.25 305.307 1154.68 303.835C1157.11 302.29 1158.99 300.229 1160.31 297.653C1161.71 295.003 1162.41 291.912 1162.41 288.379C1162.41 284.92 1161.71 281.866 1160.31 279.216C1158.99 276.567 1157.11 274.506 1154.68 273.034C1152.25 271.562 1149.49 270.826 1146.4 270.826C1143.24 270.826 1140.44 271.562 1138.01 273.034C1135.65 274.506 1133.78 276.567 1132.38 279.216C1131.05 281.866 1130.39 284.92 1130.39 288.379C1130.39 291.912 1131.05 295.003 1132.38 297.653C1133.78 300.229 1135.65 302.29 1138.01 303.835C1140.44 305.307 1143.24 306.043 1146.4 306.043ZM1211.37 317.525C1206.07 317.525 1201.29 316.311 1197.02 313.882C1192.82 311.379 1189.51 307.957 1187.08 303.615C1184.73 299.199 1183.55 294.157 1183.55 288.49C1183.55 282.675 1184.76 277.597 1187.19 273.255C1189.62 268.839 1192.93 265.416 1197.13 262.987C1201.4 260.485 1206.18 259.234 1211.48 259.234C1216.78 259.234 1221.53 260.485 1225.72 262.987C1229.99 265.416 1233.3 268.802 1235.66 273.144C1238.09 277.487 1239.3 282.565 1239.3 288.379C1239.3 294.194 1238.09 299.272 1235.66 303.615C1233.23 307.957 1229.88 311.379 1225.61 313.882C1221.41 316.311 1216.67 317.525 1211.37 317.525ZM1211.37 306.154C1214.02 306.154 1216.41 305.491 1218.54 304.167C1220.75 302.842 1222.52 300.855 1223.84 298.205C1225.17 295.555 1225.83 292.28 1225.83 288.379C1225.83 284.479 1225.17 281.24 1223.84 278.664C1222.59 276.015 1220.86 274.027 1218.65 272.703C1216.52 271.378 1214.13 270.715 1211.48 270.715C1208.9 270.715 1206.51 271.378 1204.3 272.703C1202.09 274.027 1200.33 276.015 1199 278.664C1197.68 281.24 1197.02 284.479 1197.02 288.379C1197.02 292.28 1197.68 295.555 1199 298.205C1200.33 300.855 1202.06 302.842 1204.19 304.167C1206.4 305.491 1208.79 306.154 1211.37 306.154ZM1267.5 317.525C1262.94 317.525 1259.15 316.752 1256.13 315.207C1253.11 313.661 1250.87 311.6 1249.4 309.024C1247.93 306.448 1247.19 303.651 1247.19 300.634C1247.19 297.101 1248.07 294.047 1249.84 291.471C1251.68 288.895 1254.37 286.907 1257.9 285.509C1261.43 284.037 1265.77 283.301 1270.93 283.301H1284.95C1284.95 280.357 1284.54 277.928 1283.73 276.015C1282.92 274.027 1281.67 272.555 1279.98 271.599C1278.29 270.642 1276.11 270.163 1273.47 270.163C1270.45 270.163 1267.87 270.863 1265.74 272.261C1263.6 273.586 1262.28 275.647 1261.76 278.443H1248.74C1249.18 274.469 1250.5 271.083 1252.71 268.287C1254.92 265.416 1257.83 263.208 1261.43 261.663C1265.11 260.043 1269.12 259.234 1273.47 259.234C1278.69 259.234 1283.14 260.154 1286.82 261.994C1290.5 263.76 1293.3 266.336 1295.21 269.722C1297.2 273.034 1298.19 277.045 1298.19 281.755V316.2H1286.93L1285.61 307.258C1284.87 308.73 1283.92 310.091 1282.74 311.343C1281.63 312.594 1280.35 313.698 1278.87 314.655C1277.4 315.538 1275.71 316.237 1273.8 316.752C1271.96 317.267 1269.86 317.525 1267.5 317.525ZM1270.48 307.037C1272.62 307.037 1274.5 306.669 1276.11 305.933C1277.81 305.123 1279.24 304.019 1280.42 302.621C1281.67 301.149 1282.63 299.53 1283.29 297.763C1283.95 295.997 1284.39 294.12 1284.62 292.133V291.912H1272.36C1269.79 291.912 1267.65 292.243 1265.96 292.906C1264.27 293.495 1263.05 294.378 1262.31 295.555C1261.58 296.733 1261.21 298.095 1261.21 299.64C1261.21 301.186 1261.58 302.511 1262.31 303.615C1263.05 304.719 1264.12 305.565 1265.52 306.154C1266.91 306.743 1268.57 307.037 1270.48 307.037ZM1309.04 316.2V260.559H1320.85L1322.07 270.936C1323.39 268.507 1325.05 266.447 1327.03 264.754C1329.02 262.987 1331.34 261.626 1333.99 260.669C1336.71 259.712 1339.69 259.234 1342.93 259.234V273.255H1338.29C1336.09 273.255 1333.99 273.549 1332 274.138C1330.01 274.653 1328.28 275.536 1326.81 276.787C1325.41 277.965 1324.31 279.621 1323.5 281.755C1322.69 283.816 1322.29 286.429 1322.29 289.594V316.2H1309.04ZM1373.15 317.525C1368 317.525 1363.4 316.274 1359.35 313.771C1355.3 311.269 1352.14 307.81 1349.86 303.394C1347.65 298.978 1346.54 293.973 1346.54 288.379C1346.54 282.786 1347.68 277.818 1349.97 273.475C1352.25 269.059 1355.41 265.6 1359.46 263.098C1363.58 260.522 1368.22 259.234 1373.37 259.234C1377.57 259.234 1381.21 260.043 1384.3 261.663C1387.46 263.208 1389.97 265.416 1391.81 268.287V236.712H1405.06V316.2H1393.13L1391.81 308.141C1390.63 309.76 1389.19 311.306 1387.5 312.778C1385.81 314.176 1383.78 315.317 1381.43 316.2C1379.07 317.083 1376.31 317.525 1373.15 317.525ZM1375.91 306.043C1379.07 306.043 1381.87 305.307 1384.3 303.835C1386.73 302.29 1388.61 300.192 1389.93 297.543C1391.26 294.893 1391.92 291.839 1391.92 288.379C1391.92 284.92 1391.26 281.866 1389.93 279.216C1388.61 276.567 1386.73 274.506 1384.3 273.034C1381.87 271.562 1379.07 270.826 1375.91 270.826C1372.89 270.826 1370.17 271.562 1367.74 273.034C1365.31 274.506 1363.4 276.567 1362 279.216C1360.67 281.866 1360.01 284.92 1360.01 288.379C1360.01 291.839 1360.67 294.893 1362 297.543C1363.4 300.192 1365.31 302.29 1367.74 303.835C1370.17 305.307 1372.89 306.043 1375.91 306.043ZM1438.67 317.525C1433.74 317.525 1429.43 316.752 1425.75 315.207C1422.15 313.587 1419.28 311.379 1417.14 308.583C1415.08 305.712 1413.87 302.437 1413.5 298.757H1426.75C1427.11 300.303 1427.78 301.738 1428.73 303.063C1429.69 304.314 1430.98 305.307 1432.6 306.043C1434.29 306.779 1436.28 307.147 1438.56 307.147C1440.77 307.147 1442.57 306.853 1443.97 306.264C1445.37 305.602 1446.4 304.755 1447.06 303.725C1447.72 302.695 1448.05 301.591 1448.05 300.413C1448.05 298.647 1447.58 297.285 1446.62 296.328C1445.66 295.371 1444.26 294.635 1442.42 294.12C1440.66 293.531 1438.52 292.979 1436.02 292.464C1433.37 291.949 1430.79 291.323 1428.29 290.587C1425.86 289.778 1423.66 288.784 1421.67 287.607C1419.75 286.429 1418.21 284.92 1417.03 283.08C1415.93 281.24 1415.38 278.995 1415.38 276.346C1415.38 273.107 1416.22 270.2 1417.91 267.624C1419.68 265.048 1422.18 263.024 1425.42 261.552C1428.73 260.007 1432.67 259.234 1437.23 259.234C1443.71 259.234 1448.86 260.743 1452.69 263.76C1456.59 266.704 1458.87 270.863 1459.54 276.235H1446.95C1446.58 274.175 1445.55 272.592 1443.86 271.488C1442.17 270.311 1439.92 269.722 1437.12 269.722C1434.25 269.722 1432.05 270.274 1430.5 271.378C1429.03 272.408 1428.29 273.807 1428.29 275.573C1428.29 276.677 1428.73 277.707 1429.62 278.664C1430.57 279.547 1431.94 280.32 1433.7 280.983C1435.47 281.571 1437.64 282.16 1440.22 282.749C1444.34 283.559 1447.98 284.515 1451.15 285.619C1454.31 286.723 1456.81 288.343 1458.65 290.477C1460.49 292.611 1461.41 295.629 1461.41 299.53C1461.49 303.063 1460.57 306.191 1458.65 308.914C1456.81 311.637 1454.2 313.771 1450.81 315.317C1447.43 316.789 1443.38 317.525 1438.67 317.525Z" fill="white"/>
<defs>
<filter id="filter0_dddddd_1112_12030" x="0.639999" y="0.120117" width="723.12" height="723.12" filterUnits="userSpaceOnUse" color-interpolation-filters="sRGB">
<feFlood flood-opacity="0" result="BackgroundImageFix"/>
<feColorMatrix in="SourceAlpha" type="matrix" values="0 0 0 0 0 0 0 0 0 0 0 0 0 0 0 0 0 0 127 0" result="hardAlpha"/>
<feOffset dy="3.68"/>
<feGaussianBlur stdDeviation="2.76"/>
<feColorMatrix type="matrix" values="0 0 0 0 0.105882 0 0 0 0 0.192157 0 0 0 0 0.223529 0 0 0 0.0196802 0"/>
<feBlend mode="normal" in2="BackgroundImageFix" result="effect1_dropShadow_1112_12030"/>
<feColorMatrix in="SourceAlpha" type="matrix" values="0 0 0 0 0 0 0 0 0 0 0 0 0 0 0 0 0 0 127 0" result="hardAlpha"/>
<feOffset dy="7.36"/>
<feGaussianBlur stdDeviation="7.36"/>
<feColorMatrix type="matrix" values="0 0 0 0 0.105882 0 0 0 0 0.192157 0 0 0 0 0.223529 0 0 0 0.04 0"/>
<feBlend mode="normal" in2="effect1_dropShadow_1112_12030" result="effect2_dropShadow_1112_12030"/>
<feColorMatrix in="SourceAlpha" type="matrix" values="0 0 0 0 0 0 0 0 0 0 0 0 0 0 0 0 0 0 127 0" result="hardAlpha"/>
<feOffset dy="16.56"/>
<feGaussianBlur stdDeviation="11.96"/>
<feColorMatrix type="matrix" values="0 0 0 0 0.105882 0 0 0 0 0.192157 0 0 0 0 0.223529 0 0 0 0.035 0"/>
<feBlend mode="normal" in2="effect2_dropShadow_1112_12030" result="effect3_dropShadow_1112_12030"/>
<feColorMatrix in="SourceAlpha" type="matrix" values="0 0 0 0 0 0 0 0 0 0 0 0 0 0 0 0 0 0 127 0" result="hardAlpha"/>
<feOffset dy="29.44"/>
<feGaussianBlur stdDeviation="22.08"/>
<feColorMatrix type="matrix" values="0 0 0 0 0.105882 0 0 0 0 0.192157 0 0 0 0 0.223529 0 0 0 0.04 0"/>
<feBlend mode="normal" in2="effect3_dropShadow_1112_12030" result="effect4_dropShadow_1112_12030"/>
<feColorMatrix in="SourceAlpha" type="matrix" values="0 0 0 0 0 0 0 0 0 0 0 0 0 0 0 0 0 0 127 0" result="hardAlpha"/>
<feOffset dy="58.88"/>
<feGaussianBlur stdDeviation="36.8"/>
<feColorMatrix type="matrix" values="0 0 0 0 0.105882 0 0 0 0 0.192157 0 0 0 0 0.223529 0 0 0 0.0503198 0"/>
<feBlend mode="normal" in2="effect4_dropShadow_1112_12030" result="effect5_dropShadow_1112_12030"/>
<feColorMatrix in="SourceAlpha" type="matrix" values="0 0 0 0 0 0 0 0 0 0 0 0 0 0 0 0 0 0 127 0" result="hardAlpha"/>
<feOffset dy="132.48"/>
<feGaussianBlur stdDeviation="95.68"/>
<feColorMatrix type="matrix" values="0 0 0 0 0.105882 0 0 0 0 0.192157 0 0 0 0 0.223529 0 0 0 0.07 0"/>
<feBlend mode="normal" in2="effect5_dropShadow_1112_12030" result="effect6_dropShadow_1112_12030"/>
<feBlend mode="normal" in="SourceGraphic" in2="effect6_dropShadow_1112_12030" result="shape"/>
</filter>
</defs>
</svg>
