<svg width="150" height="150" viewBox="0 0 150 150" fill="none" xmlns="http://www.w3.org/2000/svg">
<path d="M32.83 83.72V80.72C30.4262 80.7134 28.0527 80.1836 25.8743 79.1674C23.6959 78.1512 21.7649 76.6729 20.2153 74.8353C18.6658 72.9977 17.5348 70.8447 16.9011 68.526C16.2674 66.2073 16.146 63.7784 16.5455 61.408C16.9449 59.0377 17.8557 56.7827 19.2143 54.7998C20.573 52.8168 22.3471 51.1535 24.4134 49.9252C26.4797 48.6969 28.7885 47.9332 31.1797 47.6871C33.5708 47.441 35.9869 47.7184 38.26 48.5L39.09 48.82L41.15 49.63V47.16C41.4759 39.601 44.4588 32.3996 49.5734 26.8242C54.6879 21.2487 61.606 17.6571 69.1088 16.6819C76.6117 15.7067 84.218 17.4105 90.5879 21.4932C96.9578 25.5759 101.683 31.7755 103.93 39C99.7948 40.8424 96.28 43.8405 93.8087 47.6335C91.3374 51.4266 90.0148 55.8529 90 60.38H93C92.998 56.3551 94.1896 52.4201 96.424 49.0725C98.6585 45.7248 101.835 43.1149 105.553 41.5729C109.271 40.0308 113.362 39.6258 117.31 40.4091C121.258 41.1923 124.885 43.1287 127.733 45.9733C130.58 48.8179 132.52 52.443 133.307 56.3901C134.094 60.3372 133.693 64.4291 132.155 68.1484C130.616 71.8676 128.01 75.0471 124.664 77.2848C121.319 79.5226 117.385 80.718 113.36 80.72V83.72C116.716 83.7319 120.035 83.0205 123.09 81.634C126.146 80.2475 128.868 78.2187 131.069 75.6857C133.27 73.1526 134.899 70.1749 135.845 66.9554C136.792 63.7359 137.033 60.3502 136.553 57.029C136.073 53.7078 134.882 50.5291 133.063 47.7095C131.243 44.8899 128.837 42.4956 126.009 40.6897C123.181 38.8838 119.996 37.7087 116.673 37.2446C113.349 36.7804 109.965 37.0381 106.75 38C104.306 30.2649 99.261 23.6138 92.4707 19.1759C85.6803 14.7381 77.5633 12.7869 69.4978 13.6538C61.4323 14.5206 53.9154 18.152 48.2231 23.9315C42.5309 29.7109 39.0141 37.2822 38.27 45.36C35.5771 44.5761 32.7472 44.3801 29.972 44.7854C27.1967 45.1908 24.541 46.1879 22.1848 47.7092C19.8286 49.2305 17.8269 51.2405 16.3154 53.603C14.8038 55.9655 13.8178 58.6253 13.424 61.4022C13.0302 64.1791 13.2378 67.0082 14.0329 69.6978C14.828 72.3874 16.1919 74.8747 18.0322 76.9912C19.8725 79.1076 22.1463 80.8038 24.6994 81.9647C27.2525 83.1257 30.0253 83.7243 32.83 83.72Z" fill="white"/>
<path d="M64 66.05L66.12 68.17L72.25 62V118.3C69.9739 118.677 67.9226 119.895 66.5037 121.715C65.0848 123.534 64.402 125.82 64.5909 128.119C64.7798 130.419 65.8266 132.563 67.5234 134.126C69.2203 135.689 71.4429 136.557 73.75 136.557C76.0571 136.557 78.2797 135.689 79.9766 134.126C81.6734 132.563 82.7202 130.419 82.9091 128.119C83.098 125.82 82.4152 123.534 80.9963 121.715C79.5774 119.895 77.5261 118.677 75.25 118.3V118.3V62L81.4 68.15L83.52 66.03L73.75 56.26L64 66.05ZM80 127.36C80 128.584 79.637 129.781 78.9568 130.799C78.2766 131.817 77.3099 132.61 76.1788 133.079C75.0477 133.547 73.8031 133.67 72.6024 133.431C71.4017 133.192 70.2987 132.603 69.433 131.737C68.5673 130.871 67.9778 129.768 67.7389 128.568C67.5001 127.367 67.6227 126.122 68.0912 124.991C68.5597 123.86 69.3531 122.893 70.371 122.213C71.389 121.533 72.5857 121.17 73.81 121.17C75.4413 121.186 77.0003 121.845 78.1483 123.004C79.2962 124.163 79.9401 125.729 79.94 127.36H80Z" fill="white"/>
<path d="M29 127.36C29 129.178 29.5392 130.955 30.5495 132.467C31.5597 133.978 32.9956 135.156 34.6755 135.851C36.3553 136.547 38.2036 136.728 39.9866 136.373C41.7695 136.017 43.407 135.141 44.6918 133.855C45.9767 132.569 46.8512 130.93 47.2046 129.147C47.5581 127.363 47.3747 125.515 46.6776 123.836C45.9805 122.157 44.801 120.723 43.2884 119.714C41.7758 118.705 39.998 118.168 38.18 118.17C35.7444 118.173 33.4094 119.142 31.6882 120.865C29.9669 122.588 29 124.924 29 127.36V127.36ZM44.37 127.36C44.37 128.584 44.007 129.781 43.3268 130.799C42.6466 131.817 41.6799 132.61 40.5488 133.079C39.4177 133.547 38.1731 133.67 36.9724 133.431C35.7716 133.192 34.6687 132.603 33.803 131.737C32.9373 130.871 32.3478 129.768 32.1089 128.568C31.8701 127.367 31.9927 126.122 32.4612 124.991C32.9297 123.86 33.7231 122.893 34.741 122.213C35.759 121.533 36.9557 121.17 38.18 121.17C38.9937 121.169 39.7997 121.328 40.5519 121.638C41.304 121.949 41.9876 122.405 42.5635 122.979C43.1393 123.554 43.5962 124.237 43.9079 124.989C44.2196 125.741 44.38 126.546 44.38 127.36H44.37Z" fill="white"/>
<path d="M100.12 127.36C100.12 129.178 100.659 130.954 101.669 132.466C102.679 133.977 104.114 135.155 105.793 135.85C107.472 136.546 109.32 136.728 111.103 136.373C112.886 136.019 114.523 135.144 115.808 133.858C117.094 132.573 117.969 130.936 118.323 129.153C118.678 127.37 118.496 125.522 117.8 123.843C117.105 122.164 115.927 120.729 114.416 119.719C112.904 118.709 111.128 118.17 109.31 118.17C106.873 118.17 104.535 119.138 102.812 120.862C101.088 122.585 100.12 124.923 100.12 127.36V127.36ZM115.49 127.36C115.49 128.585 115.127 129.782 114.446 130.8C113.765 131.818 112.798 132.612 111.666 133.08C110.535 133.548 109.29 133.67 108.089 133.43C106.888 133.191 105.785 132.6 104.919 131.733C104.054 130.867 103.465 129.763 103.228 128.561C102.99 127.36 103.114 126.115 103.584 124.984C104.054 123.853 104.849 122.887 105.868 122.208C106.888 121.529 108.085 121.168 109.31 121.17C110.122 121.17 110.927 121.33 111.677 121.641C112.428 121.953 113.109 122.409 113.683 122.984C114.257 123.559 114.712 124.241 115.022 124.992C115.332 125.743 115.491 126.548 115.49 127.36V127.36Z" fill="white"/>
<path d="M37.05 88.49V108.41L30.54 101.9L28.42 104L38.19 113.77L48 104L45.88 101.88L40.09 107.68V88.49C40.09 87.2965 40.5641 86.1519 41.408 85.308C42.2519 84.4641 43.3965 83.99 44.59 83.99H67.79V81H44.55C42.5634 81.0026 40.6588 81.7923 39.2532 83.1961C37.8475 84.5999 37.0553 86.5034 37.05 88.49V88.49Z" fill="white"/>
<path d="M103.31 81H80.1V84H103.31C104.503 84.0027 105.646 84.4776 106.489 85.321C107.332 86.1643 107.807 87.3074 107.81 88.5V108.06L101.66 101.91L99.54 104L109.31 113.77L119.08 104L117 101.9L110.85 108.05V88.49C110.842 86.4973 110.044 84.5893 108.63 83.1849C107.216 81.7805 105.303 80.9947 103.31 81V81Z" fill="white"/>
</svg>
