<svg width="150" height="150" viewBox="0 0 150 150" fill="none" xmlns="http://www.w3.org/2000/svg">
<path fill-rule="evenodd" clip-rule="evenodd" d="M134.326 90.5268H16.2508V113.793H134.326V90.5268ZM13.0443 87.3203V116.999H137.532V87.3203H13.0443Z" fill="#1B3139"/>
<path fill-rule="evenodd" clip-rule="evenodd" d="M101.861 90.5268H82.9943V113.793H101.861V90.5268ZM79.7878 87.3203V116.999H105.067V87.3203H79.7878Z" fill="#1B3139"/>
<path fill-rule="evenodd" clip-rule="evenodd" d="M125.846 75.5268H103.788C100.707 75.5268 98.209 78.0247 98.209 81.1061C98.209 84.1874 100.707 86.6853 103.788 86.6853H125.846C128.927 86.6853 131.425 84.1874 131.425 81.1061C131.425 78.0247 128.927 75.5268 125.846 75.5268ZM103.788 72.3203C98.9361 72.3203 95.0026 76.2538 95.0026 81.1061C95.0026 85.9583 98.9361 89.8918 103.788 89.8918H125.846C130.698 89.8918 134.631 85.9583 134.631 81.1061C134.631 76.2538 130.698 72.3203 125.846 72.3203H103.788Z" fill="#1B3139"/>
<path fill-rule="evenodd" clip-rule="evenodd" d="M117.934 73.1787V21.75H121.141V73.1787H117.934Z" fill="#1B3139"/>
<path fill-rule="evenodd" clip-rule="evenodd" d="M99.6154 34.526V30.5352H102.822V34.526C102.822 36.1703 104.155 37.5034 105.799 37.5034H117.937V30.5352H121.143V40.7098H105.799C102.384 40.7098 99.6154 37.9412 99.6154 34.526Z" fill="#1B3139"/>
<path fill-rule="evenodd" clip-rule="evenodd" d="M12.4005 128.251V76.8223H15.607V128.251H12.4005Z" fill="#1B3139"/>
<path fill-rule="evenodd" clip-rule="evenodd" d="M117.934 128.25L117.934 116.25L121.141 116.25L121.141 128.25L117.934 128.25Z" fill="#1B3139"/>
<path fill-rule="evenodd" clip-rule="evenodd" d="M28.855 128.251L28.855 115.18L32.0614 115.18L32.0614 128.251L28.855 128.251Z" fill="#1B3139"/>
<path fill-rule="evenodd" clip-rule="evenodd" d="M134.392 128.25L134.392 59.0352L137.599 59.0352L137.599 128.25L134.392 128.25Z" fill="#1B3139"/>
<path fill-rule="evenodd" clip-rule="evenodd" d="M105.186 75.1068L105.186 63.9639L108.392 63.9639L108.392 75.1068L105.186 75.1068Z" fill="#1B3139"/>
<path fill-rule="evenodd" clip-rule="evenodd" d="M105.186 47.4644L105.186 39.1074L108.392 39.1074L108.392 47.4644L105.186 47.4644Z" fill="#1B3139"/>
<path fill-rule="evenodd" clip-rule="evenodd" d="M99.6154 49.2968C99.6154 47.3995 101.153 45.8613 103.051 45.8613H110.958C112.855 45.8613 114.393 47.3995 114.393 49.2968V62.1323C114.393 64.0297 112.855 65.5678 110.958 65.5678H103.051C101.153 65.5678 99.6154 64.0297 99.6154 62.1323V49.2968ZM103.051 49.0678C102.924 49.0678 102.822 49.1703 102.822 49.2968V62.1323C102.822 62.2588 102.924 62.3614 103.051 62.3614H110.958C111.084 62.3614 111.187 62.2588 111.187 62.1323V49.2968C111.187 49.1703 111.084 49.0678 110.958 49.0678H103.051Z" fill="#1B3139"/>
<path fill-rule="evenodd" clip-rule="evenodd" d="M112.575 55.7104H101.646V52.5039H112.575V55.7104Z" fill="#1B3139"/>
<path fill-rule="evenodd" clip-rule="evenodd" d="M81.5109 24.9565H16.2509V62.9008H81.5109V24.9565ZM13.0444 21.75V66.1073H84.7173V21.75H13.0444Z" fill="#1B3139"/>
<path fill-rule="evenodd" clip-rule="evenodd" d="M18.0126 47.831L43.9412 21.9023L46.2085 24.1697L20.2799 50.0983L18.0126 47.831Z" fill="#1B3139"/>
<path fill-rule="evenodd" clip-rule="evenodd" d="M47.7474 63.9016L75.7682 35.8809L78.0355 38.1482L50.0147 66.1689L47.7474 63.9016Z" fill="#1B3139"/>
<path fill-rule="evenodd" clip-rule="evenodd" d="M40.8085 37.1167L56.0228 21.9023L58.2901 24.1697L43.0758 39.384L40.8085 37.1167Z" fill="#1B3139"/>
</svg>
