<svg width="1390" height="558" viewBox="0 0 1390 558" fill="none" xmlns="http://www.w3.org/2000/svg">
<g filter="url(#filter0_dddddd_1117_13257)">
<path d="M148 116.336C148 77.4903 179.49 46 218.336 46H339.664C378.51 46 410 77.4903 410 116.336V237.664C410 276.51 378.51 308 339.664 308H218.336C179.49 308 148 276.51 148 237.664V116.336Z" fill="white"/>
</g>
<path d="M301.349 199.66L256.343 199.66L256.343 155.13L301.349 110.129L323.848 132.629L346.348 155.13L301.349 199.66Z" fill="#FF5F46"/>
<path d="M346.502 244.501L301.502 244.501L301.502 199.502L346.502 199.502L346.502 244.501Z" fill="#FABFBA"/>
<path d="M256.502 244.501L211.502 244.501L211.502 199.502L256.502 199.502L256.502 244.501Z" fill="#FABFBA"/>
<path d="M256.502 154.499L211.502 154.499L211.502 109.5L256.502 109.5L256.502 154.499Z" fill="#FABFBA"/>
<path d="M481.838 214.5V137.22H495.086V204.122H529.531V214.5H481.838ZM557.223 215.825C552.659 215.825 548.869 215.052 545.851 213.506C542.834 211.961 540.589 209.9 539.117 207.324C537.645 204.748 536.909 201.951 536.909 198.934C536.909 195.401 537.792 192.346 539.559 189.77C541.399 187.194 544.085 185.207 547.618 183.809C551.151 182.337 555.493 181.601 560.645 181.601H574.666C574.666 178.657 574.261 176.228 573.451 174.314C572.642 172.327 571.391 170.855 569.698 169.898C568.005 168.942 565.834 168.463 563.184 168.463C560.167 168.463 557.591 169.162 555.456 170.561C553.322 171.886 551.997 173.946 551.482 176.743H538.455C538.896 172.769 540.221 169.383 542.429 166.586C544.637 163.716 547.544 161.508 551.151 159.962C554.831 158.343 558.842 157.534 563.184 157.534C568.41 157.534 572.863 158.454 576.543 160.294C580.223 162.06 583.019 164.636 584.933 168.022C586.92 171.334 587.914 175.345 587.914 180.055V214.5H576.653L575.328 205.558C574.592 207.03 573.635 208.391 572.458 209.642C571.354 210.894 570.066 211.998 568.594 212.954C567.122 213.838 565.429 214.537 563.515 215.052C561.675 215.567 559.578 215.825 557.223 215.825ZM560.203 205.337C562.338 205.337 564.215 204.969 565.834 204.233C567.527 203.423 568.962 202.319 570.139 200.921C571.391 199.449 572.347 197.83 573.01 196.063C573.672 194.297 574.114 192.42 574.335 190.433V190.212H562.08C559.504 190.212 557.37 190.543 555.677 191.206C553.984 191.794 552.77 192.678 552.034 193.855C551.298 195.033 550.93 196.394 550.93 197.94C550.93 199.486 551.298 200.81 552.034 201.914C552.77 203.018 553.837 203.865 555.235 204.454C556.634 205.042 558.29 205.337 560.203 205.337ZM634.637 214.5L610.018 184.03L632.098 158.858H647.885L620.396 189.439V179.172L651.197 214.5H634.637ZM598.757 214.5V135.012H612.005V214.5H598.757ZM678.425 215.825C672.905 215.825 668.047 214.647 663.852 212.292C659.657 209.863 656.381 206.478 654.026 202.135C651.671 197.793 650.493 192.788 650.493 187.121C650.493 181.233 651.634 176.081 653.916 171.665C656.271 167.249 659.546 163.79 663.741 161.287C668.01 158.785 672.941 157.534 678.535 157.534C683.981 157.534 688.729 158.748 692.777 161.177C696.825 163.606 699.953 166.881 702.161 171.002C704.369 175.05 705.473 179.614 705.473 184.692C705.473 185.428 705.473 186.238 705.473 187.121C705.473 188.004 705.399 188.924 705.252 189.881H659.988V181.38H692.114C691.967 177.332 690.605 174.167 688.029 171.886C685.453 169.53 682.252 168.353 678.425 168.353C675.701 168.353 673.199 168.978 670.917 170.23C668.636 171.481 666.833 173.358 665.508 175.86C664.183 178.289 663.521 181.38 663.521 185.134V188.335C663.521 191.794 664.146 194.775 665.397 197.278C666.722 199.78 668.489 201.694 670.697 203.018C672.978 204.27 675.517 204.895 678.314 204.895C681.405 204.895 683.945 204.233 685.932 202.908C687.993 201.583 689.501 199.817 690.458 197.609H703.927C702.897 201.068 701.204 204.196 698.849 206.993C696.493 209.716 693.586 211.887 690.127 213.506C686.668 215.052 682.767 215.825 678.425 215.825ZM717.153 214.5V152.786C717.153 148.518 717.852 145.095 719.25 142.519C720.722 139.87 722.82 137.956 725.543 136.778C728.266 135.601 731.505 135.012 735.258 135.012H741.882V146.273H737.245C734.817 146.273 733.05 146.788 731.946 147.818C730.916 148.775 730.401 150.468 730.401 152.897V214.5H717.153ZM709.204 170.009V158.858H742.986V170.009H709.204ZM754.357 214.5V135.012H767.605V214.5H754.357ZM805.054 215.825C799.755 215.825 794.971 214.61 790.702 212.182C786.507 209.679 783.195 206.257 780.766 201.914C778.411 197.498 777.233 192.457 777.233 186.79C777.233 180.975 778.448 175.897 780.877 171.554C783.305 167.138 786.617 163.716 790.813 161.287C795.081 158.785 799.865 157.534 805.165 157.534C810.464 157.534 815.211 158.785 819.406 161.287C823.675 163.716 826.987 167.102 829.342 171.444C831.771 175.786 832.985 180.865 832.985 186.679C832.985 192.494 831.771 197.572 829.342 201.914C826.913 206.257 823.565 209.679 819.296 212.182C815.101 214.61 810.353 215.825 805.054 215.825ZM805.054 204.454C807.704 204.454 810.096 203.791 812.23 202.466C814.438 201.142 816.205 199.154 817.529 196.505C818.854 193.855 819.517 190.58 819.517 186.679C819.517 182.778 818.854 179.54 817.529 176.964C816.278 174.314 814.549 172.327 812.341 171.002C810.206 169.678 807.814 169.015 805.165 169.015C802.589 169.015 800.197 169.678 797.989 171.002C795.781 172.327 794.014 174.314 792.689 176.964C791.365 179.54 790.702 182.778 790.702 186.679C790.702 190.58 791.365 193.855 792.689 196.505C794.014 199.154 795.744 201.142 797.878 202.466C800.086 203.791 802.478 204.454 805.054 204.454ZM851.741 214.5L835.402 158.858H848.54L859.911 204.564L857.482 204.454L870.178 158.858H884.972L897.778 204.454H895.349L906.721 158.858H919.858L903.519 214.5H889.829L876.25 167.359H879.01L865.431 214.5H851.741ZM950.094 214.5V137.22H975.044C984.024 137.22 991.42 138.802 997.235 141.967C1003.12 145.132 1007.47 149.622 1010.26 155.436C1013.13 161.177 1014.57 168.022 1014.57 175.97C1014.57 183.772 1013.13 190.58 1010.26 196.394C1007.47 202.135 1003.12 206.588 997.235 209.753C991.42 212.918 984.024 214.5 975.044 214.5H950.094ZM963.342 203.239H974.382C981.08 203.239 986.342 202.172 990.169 200.038C994.07 197.83 996.83 194.702 998.449 190.654C1000.14 186.532 1000.99 181.638 1000.99 175.97C1000.99 170.23 1000.14 165.335 998.449 161.287C996.83 157.166 994.07 154.001 990.169 151.793C986.342 149.511 981.08 148.37 974.382 148.37H963.342V203.239ZM1049.8 215.825C1044.28 215.825 1039.43 214.647 1035.23 212.292C1031.04 209.863 1027.76 206.478 1025.41 202.135C1023.05 197.793 1021.87 192.788 1021.87 187.121C1021.87 181.233 1023.01 176.081 1025.3 171.665C1027.65 167.249 1030.93 163.79 1035.12 161.287C1039.39 158.785 1044.32 157.534 1049.91 157.534C1055.36 157.534 1060.11 158.748 1064.16 161.177C1068.2 163.606 1071.33 166.881 1073.54 171.002C1075.75 175.05 1076.85 179.614 1076.85 184.692C1076.85 185.428 1076.85 186.238 1076.85 187.121C1076.85 188.004 1076.78 188.924 1076.63 189.881H1031.37V181.38H1063.49C1063.35 177.332 1061.98 174.167 1059.41 171.886C1056.83 169.53 1053.63 168.353 1049.8 168.353C1047.08 168.353 1044.58 168.978 1042.3 170.23C1040.02 171.481 1038.21 173.358 1036.89 175.86C1035.56 178.289 1034.9 181.38 1034.9 185.134V188.335C1034.9 191.794 1035.53 194.775 1036.78 197.278C1038.1 199.78 1039.87 201.694 1042.08 203.018C1044.36 204.27 1046.9 204.895 1049.69 204.895C1052.78 204.895 1055.32 204.233 1057.31 202.908C1059.37 201.583 1060.88 199.817 1061.84 197.609H1075.31C1074.28 201.068 1072.58 204.196 1070.23 206.993C1067.87 209.716 1064.97 211.887 1061.51 213.506C1058.05 215.052 1054.15 215.825 1049.8 215.825ZM1107.96 215.825C1103.03 215.825 1098.73 215.052 1095.05 213.506C1091.44 211.887 1088.57 209.679 1086.43 206.882C1084.37 204.012 1083.16 200.737 1082.79 197.057H1096.04C1096.41 198.602 1097.07 200.038 1098.03 201.362C1098.98 202.614 1100.27 203.607 1101.89 204.343C1103.58 205.079 1105.57 205.447 1107.85 205.447C1110.06 205.447 1111.86 205.153 1113.26 204.564C1114.66 203.902 1115.69 203.055 1116.35 202.025C1117.02 200.994 1117.35 199.89 1117.35 198.713C1117.35 196.946 1116.87 195.585 1115.91 194.628C1114.95 193.671 1113.56 192.935 1111.72 192.42C1109.95 191.831 1107.82 191.279 1105.31 190.764C1102.66 190.249 1100.09 189.623 1097.58 188.887C1095.16 188.078 1092.95 187.084 1090.96 185.906C1089.05 184.729 1087.5 183.22 1086.32 181.38C1085.22 179.54 1084.67 177.295 1084.67 174.646C1084.67 171.407 1085.51 168.5 1087.21 165.924C1088.97 163.348 1091.48 161.324 1094.71 159.852C1098.03 158.306 1101.96 157.534 1106.53 157.534C1113 157.534 1118.16 159.042 1121.98 162.06C1125.88 165.004 1128.17 169.162 1128.83 174.535H1116.24C1115.87 172.474 1114.84 170.892 1113.15 169.788C1111.46 168.61 1109.21 168.022 1106.42 168.022C1103.55 168.022 1101.34 168.574 1099.79 169.678C1098.32 170.708 1097.58 172.106 1097.58 173.873C1097.58 174.977 1098.03 176.007 1098.91 176.964C1099.87 177.847 1101.23 178.62 1102.99 179.282C1104.76 179.871 1106.93 180.46 1109.51 181.049C1113.63 181.858 1117.27 182.815 1120.44 183.919C1123.6 185.023 1126.1 186.642 1127.94 188.777C1129.78 190.911 1130.7 193.929 1130.7 197.83C1130.78 201.362 1129.86 204.49 1127.94 207.214C1126.1 209.937 1123.49 212.071 1120.11 213.617C1116.72 215.089 1112.67 215.825 1107.96 215.825ZM1140.8 214.5V158.858H1154.05V214.5H1140.8ZM1147.42 150.026C1144.99 150.026 1142.97 149.29 1141.35 147.818C1139.81 146.273 1139.03 144.396 1139.03 142.188C1139.03 139.906 1139.81 138.066 1141.35 136.668C1142.97 135.196 1144.99 134.46 1147.42 134.46C1149.85 134.46 1151.84 135.196 1153.39 136.668C1155 138.066 1155.81 139.906 1155.81 142.188C1155.81 144.396 1155 146.273 1153.39 147.818C1151.84 149.29 1149.85 150.026 1147.42 150.026ZM1189.45 240.113C1184.22 240.113 1179.62 239.45 1175.65 238.126C1171.75 236.874 1168.69 234.924 1166.49 232.274C1164.35 229.698 1163.28 226.46 1163.28 222.559C1163.28 220.278 1163.84 218.033 1164.94 215.825C1166.12 213.69 1167.85 211.703 1170.13 209.863C1172.48 207.95 1175.47 206.294 1179.07 204.895L1184.92 211.298C1181.39 212.55 1178.92 214.058 1177.53 215.825C1176.13 217.591 1175.43 219.394 1175.43 221.234C1175.43 223.148 1176.02 224.73 1177.2 225.982C1178.45 227.306 1180.1 228.3 1182.16 228.962C1184.3 229.625 1186.69 229.956 1189.34 229.956C1191.92 229.956 1194.16 229.588 1196.07 228.852C1197.99 228.19 1199.46 227.233 1200.49 225.982C1201.59 224.73 1202.15 223.222 1202.15 221.455C1202.15 219.247 1201.37 217.444 1199.83 216.046C1198.28 214.721 1195.23 213.911 1190.66 213.617C1186.76 213.322 1183.34 212.918 1180.4 212.402C1177.45 211.814 1174.91 211.151 1172.78 210.415C1170.72 209.679 1168.95 208.87 1167.48 207.986C1166.01 207.03 1164.79 206.073 1163.84 205.116V202.577L1175.43 190.433L1185.25 193.634L1172.23 206.33L1175.65 199.927C1176.39 200.442 1177.12 200.921 1177.86 201.362C1178.67 201.804 1179.66 202.209 1180.84 202.577C1182.09 202.871 1183.71 203.166 1185.7 203.46C1187.68 203.754 1190.26 204.049 1193.42 204.343C1198.36 204.711 1202.37 205.594 1205.46 206.993C1208.55 208.391 1210.83 210.268 1212.3 212.623C1213.77 214.978 1214.51 217.812 1214.51 221.124C1214.51 224.362 1213.59 227.417 1211.75 230.287C1209.98 233.158 1207.26 235.513 1203.58 237.353C1199.9 239.193 1195.19 240.113 1189.45 240.113ZM1189.45 197.83C1184.81 197.83 1180.8 196.946 1177.42 195.18C1174.1 193.34 1171.56 190.911 1169.8 187.894C1168.03 184.802 1167.15 181.417 1167.15 177.737C1167.15 173.983 1168.03 170.598 1169.8 167.58C1171.56 164.562 1174.1 162.134 1177.42 160.294C1180.8 158.454 1184.81 157.534 1189.45 157.534C1194.09 157.534 1198.06 158.454 1201.37 160.294C1204.68 162.134 1207.22 164.562 1208.99 167.58C1210.76 170.598 1211.64 173.983 1211.64 177.737C1211.64 181.417 1210.76 184.802 1208.99 187.894C1207.22 190.911 1204.68 193.34 1201.37 195.18C1198.06 196.946 1194.09 197.83 1189.45 197.83ZM1189.45 187.562C1192.61 187.562 1195.15 186.716 1197.07 185.023C1198.98 183.33 1199.94 180.902 1199.94 177.737C1199.94 174.572 1198.98 172.18 1197.07 170.561C1195.15 168.868 1192.61 168.022 1189.45 168.022C1186.28 168.022 1183.71 168.868 1181.72 170.561C1179.73 172.18 1178.74 174.572 1178.74 177.737C1178.74 180.902 1179.73 183.33 1181.72 185.023C1183.71 186.716 1186.28 187.562 1189.45 187.562ZM1198.61 168.574L1196.07 158.858H1218.93V167.138L1198.61 168.574ZM1227.31 214.5V158.858H1239.02L1240.01 168.132C1241.7 164.894 1244.13 162.318 1247.3 160.404C1250.46 158.49 1254.21 157.534 1258.56 157.534C1263.05 157.534 1266.87 158.49 1270.04 160.404C1273.2 162.244 1275.63 164.967 1277.32 168.574C1279.09 172.18 1279.97 176.67 1279.97 182.042V214.5H1266.73V183.257C1266.73 178.62 1265.7 175.05 1263.63 172.548C1261.57 170.046 1258.52 168.794 1254.47 168.794C1251.82 168.794 1249.43 169.42 1247.3 170.671C1245.23 171.922 1243.58 173.762 1242.33 176.191C1241.15 178.546 1240.56 181.417 1240.56 184.802V214.5H1227.31ZM1316.68 215.825C1311.16 215.825 1306.31 214.647 1302.11 212.292C1297.92 209.863 1294.64 206.478 1292.28 202.135C1289.93 197.793 1288.75 192.788 1288.75 187.121C1288.75 181.233 1289.89 176.081 1292.17 171.665C1294.53 167.249 1297.8 163.79 1302 161.287C1306.27 158.785 1311.2 157.534 1316.79 157.534C1322.24 157.534 1326.99 158.748 1331.04 161.177C1335.08 163.606 1338.21 166.881 1340.42 171.002C1342.63 175.05 1343.73 179.614 1343.73 184.692C1343.73 185.428 1343.73 186.238 1343.73 187.121C1343.73 188.004 1343.66 188.924 1343.51 189.881H1298.25V181.38H1330.37C1330.23 177.332 1328.86 174.167 1326.29 171.886C1323.71 169.53 1320.51 168.353 1316.68 168.353C1313.96 168.353 1311.46 168.978 1309.18 170.23C1306.89 171.481 1305.09 173.358 1303.77 175.86C1302.44 178.289 1301.78 181.38 1301.78 185.134V188.335C1301.78 191.794 1302.4 194.775 1303.66 197.278C1304.98 199.78 1306.75 201.694 1308.96 203.018C1311.24 204.27 1313.78 204.895 1316.57 204.895C1319.66 204.895 1322.2 204.233 1324.19 202.908C1326.25 201.583 1327.76 199.817 1328.72 197.609H1342.19C1341.16 201.068 1339.46 204.196 1337.11 206.993C1334.75 209.716 1331.84 211.887 1328.39 213.506C1324.93 215.052 1321.03 215.825 1316.68 215.825ZM1352.65 214.5V158.858H1364.46L1365.68 169.236C1367 166.807 1368.66 164.746 1370.65 163.054C1372.63 161.287 1374.95 159.926 1377.6 158.969C1380.32 158.012 1383.31 157.534 1386.54 157.534V171.554H1381.91C1379.7 171.554 1377.6 171.849 1375.61 172.438C1373.63 172.953 1371.9 173.836 1370.43 175.087C1369.03 176.265 1367.92 177.921 1367.11 180.055C1366.3 182.116 1365.9 184.729 1365.9 187.894V214.5H1352.65Z" fill="white"/>
<defs>
<filter id="filter0_dddddd_1117_13257" x="0.713516" y="0.681084" width="556.573" height="556.573" filterUnits="userSpaceOnUse" color-interpolation-filters="sRGB">
<feFlood flood-opacity="0" result="BackgroundImageFix"/>
<feColorMatrix in="SourceAlpha" type="matrix" values="0 0 0 0 0 0 0 0 0 0 0 0 0 0 0 0 0 0 127 0" result="hardAlpha"/>
<feOffset dy="2.83243"/>
<feGaussianBlur stdDeviation="2.12432"/>
<feColorMatrix type="matrix" values="0 0 0 0 0.105882 0 0 0 0 0.192157 0 0 0 0 0.223529 0 0 0 0.0196802 0"/>
<feBlend mode="normal" in2="BackgroundImageFix" result="effect1_dropShadow_1117_13257"/>
<feColorMatrix in="SourceAlpha" type="matrix" values="0 0 0 0 0 0 0 0 0 0 0 0 0 0 0 0 0 0 127 0" result="hardAlpha"/>
<feOffset dy="5.66487"/>
<feGaussianBlur stdDeviation="5.66487"/>
<feColorMatrix type="matrix" values="0 0 0 0 0.105882 0 0 0 0 0.192157 0 0 0 0 0.223529 0 0 0 0.04 0"/>
<feBlend mode="normal" in2="effect1_dropShadow_1117_13257" result="effect2_dropShadow_1117_13257"/>
<feColorMatrix in="SourceAlpha" type="matrix" values="0 0 0 0 0 0 0 0 0 0 0 0 0 0 0 0 0 0 127 0" result="hardAlpha"/>
<feOffset dy="12.7459"/>
<feGaussianBlur stdDeviation="9.20541"/>
<feColorMatrix type="matrix" values="0 0 0 0 0.105882 0 0 0 0 0.192157 0 0 0 0 0.223529 0 0 0 0.035 0"/>
<feBlend mode="normal" in2="effect2_dropShadow_1117_13257" result="effect3_dropShadow_1117_13257"/>
<feColorMatrix in="SourceAlpha" type="matrix" values="0 0 0 0 0 0 0 0 0 0 0 0 0 0 0 0 0 0 127 0" result="hardAlpha"/>
<feOffset dy="22.6595"/>
<feGaussianBlur stdDeviation="16.9946"/>
<feColorMatrix type="matrix" values="0 0 0 0 0.105882 0 0 0 0 0.192157 0 0 0 0 0.223529 0 0 0 0.04 0"/>
<feBlend mode="normal" in2="effect3_dropShadow_1117_13257" result="effect4_dropShadow_1117_13257"/>
<feColorMatrix in="SourceAlpha" type="matrix" values="0 0 0 0 0 0 0 0 0 0 0 0 0 0 0 0 0 0 127 0" result="hardAlpha"/>
<feOffset dy="45.3189"/>
<feGaussianBlur stdDeviation="28.3243"/>
<feColorMatrix type="matrix" values="0 0 0 0 0.105882 0 0 0 0 0.192157 0 0 0 0 0.223529 0 0 0 0.0503198 0"/>
<feBlend mode="normal" in2="effect4_dropShadow_1117_13257" result="effect5_dropShadow_1117_13257"/>
<feColorMatrix in="SourceAlpha" type="matrix" values="0 0 0 0 0 0 0 0 0 0 0 0 0 0 0 0 0 0 127 0" result="hardAlpha"/>
<feOffset dy="101.968"/>
<feGaussianBlur stdDeviation="73.6432"/>
<feColorMatrix type="matrix" values="0 0 0 0 0.105882 0 0 0 0 0.192157 0 0 0 0 0.223529 0 0 0 0.07 0"/>
<feBlend mode="normal" in2="effect5_dropShadow_1117_13257" result="effect6_dropShadow_1117_13257"/>
<feBlend mode="normal" in="SourceGraphic" in2="effect6_dropShadow_1117_13257" result="shape"/>
</filter>
</defs>
</svg>
