<svg width="150" height="150" viewBox="0 0 150 150" fill="none" xmlns="http://www.w3.org/2000/svg">
<path d="M75 40C57.64 40 43 55.16 43 73.1C43 86.55 48.48 89.72 56.35 92.1V108.53H59.35V89.85L58.27 89.53C50.64 87.33 46 85.35 46 73.08C46 56.77 59.27 43 75 43C90.73 43 104 56.79 104 73.1C104 85.37 99.34 87.35 91.73 89.55L90.65 89.87V108.54H93.65V92.09C101.52 89.7 107 86.53 107 73.09C107 55.14 92.35 40 75 40Z" fill="#1B3139"/>
<path d="M68.57 74.46C68.57 73.1028 68.1674 71.7761 67.4132 70.6478C66.659 69.5194 65.587 68.6402 64.3329 68.1212C63.0788 67.6023 61.699 67.467 60.368 67.7326C59.037 67.9981 57.8147 68.6524 56.8557 69.6128C55.8967 70.5732 55.2442 71.7965 54.9806 73.1278C54.717 74.4592 54.8543 75.8388 55.3751 77.0922C55.8958 78.3455 56.7766 79.4162 57.9061 80.1687C59.0355 80.9213 60.3628 81.322 61.72 81.32C62.6204 81.32 63.512 81.1425 64.3437 80.7976C65.1754 80.4528 65.931 79.9473 66.5672 79.3102C67.2034 78.673 67.7078 77.9167 68.0514 77.0845C68.3951 76.2522 68.5713 75.3604 68.57 74.46V74.46ZM61.72 78.32C60.9561 78.322 60.2089 78.0973 59.5728 77.6743C58.9367 77.2514 58.4404 76.6492 58.1467 75.9441C57.853 75.239 57.7751 74.4625 57.9229 73.7131C58.0708 72.9637 58.4376 72.275 58.977 71.7341C59.5165 71.1933 60.2042 70.8247 60.9533 70.6749C61.7023 70.5252 62.4789 70.601 63.1848 70.8929C63.8907 71.1847 64.4942 71.6795 64.9188 72.3145C65.3434 72.9495 65.57 73.6961 65.57 74.46C65.57 75.482 65.1647 76.4623 64.443 77.1859C63.7212 77.9095 62.742 78.3174 61.72 78.32V78.32Z" fill="#1B3139"/>
<path d="M95.13 74.46C95.13 73.1028 94.7274 71.7761 93.9732 70.6478C93.219 69.5194 92.147 68.6402 90.8929 68.1212C89.6388 67.6023 88.259 67.467 86.928 67.7326C85.597 67.9981 84.3747 68.6524 83.4157 69.6128C82.4567 70.5732 81.8042 71.7965 81.5406 73.1278C81.277 74.4592 81.4143 75.8388 81.9351 77.0922C82.4558 78.3455 83.3366 79.4162 84.4661 80.1687C85.5955 80.9213 86.9228 81.322 88.28 81.32C89.1804 81.32 90.072 81.1425 90.9037 80.7976C91.7354 80.4528 92.491 79.9473 93.1272 79.3102C93.7634 78.673 94.2678 77.9167 94.6115 77.0845C94.9551 76.2522 95.1313 75.3604 95.13 74.46V74.46ZM88.28 78.32C87.5161 78.322 86.7689 78.0973 86.1328 77.6743C85.4967 77.2514 85.0004 76.6492 84.7067 75.9441C84.413 75.239 84.3351 74.4625 84.483 73.7131C84.6308 72.9637 84.9976 72.275 85.537 71.7341C86.0765 71.1933 86.7642 70.8247 87.5133 70.6749C88.2623 70.5252 89.0389 70.601 89.7448 70.8929C90.4507 71.1847 91.0542 71.6795 91.4788 72.3145C91.9034 72.9495 92.13 73.6961 92.13 74.46C92.13 75.482 91.7247 76.4623 91.003 77.1859C90.2812 77.9095 89.302 78.3174 88.28 78.32V78.32Z" fill="#1B3139"/>
<path d="M77.2 81.57C76.9646 81.1982 76.639 80.892 76.2534 80.6799C75.8679 80.4677 75.435 80.3564 74.995 80.3564C74.555 80.3564 74.1221 80.4677 73.7366 80.6799C73.351 80.892 73.0254 81.1982 72.79 81.57L67.63 89.72L70.17 91.33L75 83.7L79.82 91.34L82.36 89.73L77.2 81.57Z" fill="#1B3139"/>
<path d="M67.91 96.71H64.91V108.52H67.91V96.71Z" fill="#1B3139"/>
<path d="M76.5 96.71H73.5V108.52H76.5V96.71Z" fill="#1B3139"/>
<path d="M85.08 96.71H82.08V108.52H85.08V96.71Z" fill="#1B3139"/>
<path d="M130.34 35.7C131.373 35.6907 132.393 35.474 133.34 35.0628C134.288 34.6516 135.143 34.0543 135.855 33.3063C136.567 32.5582 137.122 31.6748 137.486 30.7083C137.85 29.7418 138.016 28.7121 137.974 27.6802C137.933 26.6482 137.684 25.6352 137.244 24.7011C136.803 23.767 136.179 22.931 135.41 22.2426C134.64 21.5543 133.739 21.0276 132.762 20.6939C131.785 20.3602 130.75 20.2262 129.72 20.3C129.72 20.08 129.72 19.87 129.72 19.65C129.717 17.6033 128.903 15.6413 127.456 14.1941C126.009 12.7468 124.047 11.9326 122 11.93V11.93C120.987 11.9272 119.984 12.1255 119.048 12.5135C118.113 12.9014 117.264 13.4713 116.55 14.19C115.283 15.4517 114.491 17.1128 114.309 18.8916C114.127 20.6704 114.565 22.4575 115.55 23.95L110.76 28.74C100.511 20.7958 87.9121 16.4845 74.945 16.4845C61.9779 16.4845 49.3787 20.7958 39.13 28.74L34.39 24C35.3748 22.5075 35.8133 20.7204 35.631 18.9416C35.4488 17.1628 34.657 15.5017 33.39 14.24C32.6877 13.5194 31.85 12.9444 30.9251 12.548C30.0002 12.1516 29.0062 11.9416 28 11.93V11.93C26.9857 11.927 25.9808 12.1251 25.0436 12.5131C24.1064 12.901 23.2555 13.471 22.54 14.19C21.0891 15.6418 20.2697 17.6075 20.26 19.66C20.26 19.87 20.26 20.09 20.26 20.3C19.2299 20.2262 18.1954 20.3602 17.2181 20.6939C16.2407 21.0276 15.3404 21.5543 14.5705 22.2426C13.8005 22.931 13.1768 23.767 12.7362 24.7011C12.2956 25.6352 12.0472 26.6482 12.0056 27.6802C11.9641 28.7121 12.1303 29.7418 12.4943 30.7083C12.8584 31.6748 13.413 32.5582 14.125 33.3063C14.8371 34.0543 15.6922 34.6516 16.6396 35.0628C17.587 35.474 18.6073 35.6907 19.64 35.7V35.7C21.1643 35.7028 22.6547 35.2501 23.92 34.4L28.72 39.19C20.7823 49.4339 16.4747 62.0256 16.4747 74.985C16.4747 87.9443 20.7823 100.536 28.72 110.78L23.95 115.6C22.9461 114.93 21.7993 114.505 20.6014 114.358C19.4036 114.211 18.1879 114.346 17.0518 114.753C15.9157 115.16 14.8907 115.828 14.0589 116.702C13.2271 117.577 12.6116 118.634 12.2616 119.789C11.9117 120.944 11.8371 122.165 12.0437 123.354C12.2504 124.543 12.7326 125.667 13.4517 126.636C14.1708 127.605 15.1069 128.393 16.185 128.935C17.263 129.478 18.4531 129.76 19.66 129.76C19.88 129.76 20.09 129.76 20.3 129.76C20.2157 130.821 20.3523 131.889 20.7013 132.894C21.0503 133.9 21.6041 134.823 22.3277 135.604C23.0513 136.384 23.929 137.007 24.9053 137.431C25.8816 137.856 26.9354 138.073 28 138.07C29.3967 138.069 30.7669 137.689 31.9648 136.971C33.1627 136.253 34.1433 135.223 34.8021 133.992C35.461 132.76 35.7734 131.373 35.7061 129.978C35.6388 128.583 35.1943 127.232 34.42 126.07L39.22 121.27C49.4659 129.221 62.0661 133.536 75.035 133.536C88.0039 133.536 100.604 129.221 110.85 121.27L115.64 126.06C114.866 127.222 114.421 128.573 114.354 129.968C114.287 131.363 114.599 132.75 115.258 133.982C115.917 135.213 116.897 136.243 118.095 136.961C119.293 137.679 120.663 138.059 122.06 138.06V138.06C123.126 138.06 124.181 137.838 125.157 137.409C126.133 136.981 127.01 136.354 127.731 135.569C128.453 134.785 129.004 133.859 129.35 132.85C129.696 131.842 129.829 130.772 129.74 129.71C129.95 129.71 130.17 129.71 130.38 129.71C131.587 129.71 132.777 129.428 133.855 128.885C134.933 128.343 135.869 127.555 136.588 126.586C137.307 125.617 137.79 124.493 137.996 123.304C138.203 122.115 138.128 120.894 137.778 119.739C137.428 118.584 136.813 117.527 135.981 116.652C135.149 115.778 134.124 115.11 132.988 114.703C131.852 114.296 130.636 114.161 129.439 114.308C128.241 114.455 127.094 114.88 126.09 115.55L121.32 110.73C123.02 108.528 124.566 106.213 125.95 103.8C126.15 103.44 126.35 103.08 126.54 102.72C127.34 101.25 128.07 99.72 128.68 98.33L129.18 97.19C129.18 97.07 129.26 96.97 129.3 96.89L129.81 95.56L129.87 95.43C130.04 94.95 130.21 94.43 130.38 93.98C130.55 93.53 130.69 93.07 130.84 92.6L130.94 92.38V92.26C131.16 91.55 131.37 90.83 131.58 90.07L131.82 89.07C131.89 88.81 131.95 88.55 131.99 88.34C132.15 87.69 132.29 87.04 132.42 86.34C132.42 86.2 132.47 86.08 132.52 85.87L132.85 83.93C132.9 83.59 132.95 83.26 132.99 82.93C133.03 82.6 133.1 82.05 133.16 81.59L133.32 80.03C133.38 79.36 133.42 78.68 133.45 78.09C133.45 77.88 133.45 77.66 133.45 77.45C133.458 77.3201 133.458 77.1899 133.45 77.06C133.45 76.33 133.45 75.59 133.45 74.85C133.45 74.35 133.45 73.85 133.45 73.35C133.45 72.85 133.45 72.6 133.45 72.27C133.45 71.94 133.45 71.51 133.45 71.11C133.45 70.55 133.37 69.99 133.32 69.44C133.27 68.89 133.24 68.64 133.19 68.24V68.08C133.19 67.59 133.07 67.08 132.99 66.55C132.82 65.34 132.64 64.3 132.45 63.37C132.39 63.1 132.34 62.83 132.28 62.58C132.22 62.33 132.13 61.87 132.05 61.52C131.92 60.98 131.79 60.44 131.65 59.93C131.51 59.42 131.41 59.04 131.28 58.58C131.04 57.75 130.78 56.92 130.5 56.1C130.37 55.71 130.24 55.32 130.1 54.94C129.81 54.14 129.5 53.36 129.19 52.58C129.04 52.21 128.88 51.84 128.73 51.52C128.58 51.2 128.4 50.76 128.23 50.39C127.71 49.27 127.16 48.16 126.57 47.07C126.27 46.54 125.98 46.01 125.67 45.47L124.83 44.08L124.73 43.92C124.38 43.34 124.01 42.77 123.64 42.24C123.27 41.71 123.02 41.33 122.7 40.88C122.27 40.28 121.81 39.67 121.32 39.04L126.12 34.25C127.351 35.142 128.82 35.6468 130.34 35.7V35.7ZM106.44 49.77L108.57 51.89L119.12 41.33C119.5 41.82 119.86 42.33 120.19 42.76C120.52 43.19 120.79 43.62 121.1 44.08C121.41 44.54 121.79 45.08 122.1 45.63L122.2 45.79C122.47 46.24 122.75 46.69 123.01 47.14L123.87 48.66C124.42 49.66 124.95 50.73 125.44 51.81C125.6 52.15 125.75 52.48 125.91 52.87C126.07 53.26 126.2 53.52 126.33 53.87C126.64 54.62 126.93 55.36 127.21 56.13C127.34 56.5 127.47 56.87 127.59 57.24C127.86 58.02 128.1 58.81 128.33 59.58C128.45 60 128.56 60.42 128.68 60.86C128.8 61.3 128.94 61.86 129.06 62.37C129.13 62.7 129.21 63.03 129.28 63.37C129.35 63.71 129.39 63.85 129.44 64.11C129.62 64.99 129.79 65.98 129.96 67.17C130.02 67.63 130.09 68.08 130.13 68.55V68.72C130.13 69.1 130.22 69.48 130.25 69.86C130.3 70.39 130.34 70.93 130.38 71.45C130.38 71.8 130.38 72.14 130.43 72.54C130.48 72.94 130.43 73.23 130.43 73.54C130.43 73.85 130.43 74.54 130.43 74.97C130.43 75.66 130.43 76.36 130.43 77.12C130.435 77.2099 130.435 77.3001 130.43 77.39V77.51C130.438 77.6666 130.438 77.8234 130.43 77.98C130.43 78.62 130.36 79.25 130.3 79.91V80.08C130.3 80.17 130.3 80.26 130.3 80.29L130.18 81.38C130.14 81.8 130.09 82.22 130.03 82.64C130.03 82.94 129.94 83.25 129.89 83.55L129.6 85.31C129.55 85.51 129.51 85.7 129.48 85.89C129.37 86.49 129.23 87.1 129.08 87.74C129.08 87.96 128.98 88.18 128.92 88.4L128.69 89.32C128.48 90.06 128.28 90.79 128.05 91.52L127.94 91.74V91.86C127.82 92.25 127.69 92.64 127.56 93.02L127.06 94.4V94.5C126.9 94.93 126.74 95.36 126.55 95.83L126.47 96.01C126.32 96.38 126.17 96.74 125.99 97.14C125.4 98.51 124.71 99.92 123.99 101.31C123.8 101.65 123.62 101.99 123.42 102.31C122.176 104.486 120.789 106.577 119.27 108.57L105.52 94.87L103.39 97L126 119.74L127.07 118.68C127.956 117.794 129.157 117.297 130.41 117.297C131.663 117.297 132.864 117.794 133.75 118.68C134.636 119.566 135.133 120.767 135.133 122.02C135.133 123.273 134.636 124.474 133.75 125.36C133.054 126.064 132.154 126.531 131.177 126.695C130.201 126.858 129.197 126.709 128.31 126.27C127.85 126.044 127.431 125.743 127.07 125.38L126.07 124.38L123.94 126.5L124.94 127.5C125.399 127.939 125.91 128.322 126.46 128.64C126.74 129.354 126.841 130.125 126.756 130.887C126.67 131.649 126.4 132.378 125.968 133.012C125.536 133.645 124.957 134.164 124.279 134.523C123.602 134.881 122.847 135.069 122.08 135.07V135.07C121.146 135.071 120.232 134.795 119.455 134.276C118.678 133.758 118.072 133.02 117.715 132.157C117.357 131.294 117.264 130.344 117.446 129.428C117.629 128.512 118.079 127.67 118.74 127.01L119.8 125.95L101.3 107.45L99.18 109.58L108.73 119.12C99.0607 126.513 87.227 130.519 75.055 130.519C62.883 130.519 51.0493 126.513 41.38 119.12L50.92 109.58L48.8 107.45L30.25 126L31.31 127C31.7522 127.436 32.1029 127.956 32.3416 128.53C32.5802 129.103 32.7021 129.719 32.7 130.34C32.6975 130.961 32.5725 131.576 32.3323 132.149C32.0921 132.722 31.7413 133.243 31.3 133.68C30.5342 134.442 29.5299 134.917 28.4553 135.027C27.3807 135.136 26.3012 134.873 25.3976 134.281C24.4941 133.689 23.8214 132.805 23.4923 131.776C23.1632 130.747 23.1977 129.636 23.59 128.63C24.1405 128.312 24.6508 127.929 25.11 127.49L26.11 126.49L24 124.41L23 125.41C22.6386 125.773 22.2196 126.074 21.76 126.3C20.8748 126.738 19.8743 126.887 18.8999 126.726C17.9254 126.564 17.0264 126.1 16.33 125.4C15.4389 124.516 14.9356 123.313 14.9309 122.058C14.9262 120.802 15.4205 119.596 16.305 118.705C17.1895 117.814 18.3918 117.311 19.6473 117.306C20.9029 117.301 22.1089 117.796 23 118.68L24.07 119.74L46.61 97L44.48 94.89L30.84 108.63C23.4586 98.9651 19.4599 87.1412 19.4599 74.98C19.4599 62.8188 23.4586 50.9949 30.84 41.33L41.43 51.89L43.56 49.77L24 30.25L23 31.32C22.5641 31.7592 22.0452 32.1073 21.4735 32.3442C20.9019 32.5811 20.2888 32.7021 19.67 32.7V32.7C18.9777 32.7009 18.2936 32.5492 17.6666 32.2557C17.0395 31.9621 16.4849 31.534 16.0422 31.0017C15.5995 30.4693 15.2796 29.846 15.1053 29.1759C14.931 28.5059 14.9065 27.8056 15.0337 27.1251C15.1608 26.4445 15.4364 25.8003 15.8409 25.2384C16.2454 24.6765 16.7687 24.2107 17.3738 23.8741C17.9788 23.5375 18.6506 23.3384 19.3413 23.291C20.032 23.2437 20.7247 23.3492 21.37 23.6C21.6898 24.1518 22.076 24.6622 22.52 25.12L23.52 26.12L25.59 24L24.59 23C24.2162 22.6379 23.9113 22.211 23.69 21.74C23.3641 21.0985 23.1928 20.3896 23.19 19.67C23.1928 19.0448 23.3188 18.4263 23.5608 17.8497C23.8027 17.2732 24.1558 16.75 24.6 16.31C25.0438 15.8618 25.574 15.5085 26.1585 15.2713C26.7429 15.034 27.3694 14.918 28 14.93V14.93C28.6189 14.9274 29.2321 15.048 29.8038 15.285C30.3756 15.5219 30.8944 15.8704 31.33 16.31C31.7693 16.7492 32.1179 17.2707 32.3556 17.8447C32.5934 18.4186 32.7158 19.0338 32.7158 19.655C32.7158 20.2762 32.5934 20.8914 32.3556 21.4653C32.1179 22.0393 31.7693 22.5608 31.33 23L30.33 24.06L49.83 43.57L51.96 41.45L41.33 30.89C51.0006 23.4997 62.8338 19.4959 75.005 19.4959C87.1762 19.4959 99.0094 23.4997 108.68 30.89L98.11 41.45L100.24 43.57L119.74 24.06L118.74 23C118.301 22.5608 117.952 22.0393 117.714 21.4653C117.477 20.8914 117.354 20.2762 117.354 19.655C117.354 19.0338 117.477 18.4186 117.714 17.8447C117.952 17.2707 118.301 16.7492 118.74 16.31C119.603 15.4391 120.774 14.9433 122 14.93V14.93C123.253 14.9353 124.453 15.4353 125.339 16.3212C126.225 17.2071 126.725 18.4071 126.73 19.66C126.725 20.3921 126.554 21.1135 126.23 21.77C126.008 22.2289 125.706 22.6452 125.34 23L124.34 24L126.47 26.12L127.47 25.12C127.93 24.6593 128.33 24.1418 128.66 23.58C129.506 23.2529 130.43 23.179 131.317 23.3672C132.205 23.5554 133.019 23.9976 133.66 24.64C134.321 25.3001 134.771 26.1416 134.954 27.0578C135.136 27.9741 135.043 28.9239 134.685 29.7869C134.328 30.65 133.722 31.3875 132.945 31.9061C132.168 32.4247 131.254 32.701 130.32 32.7V32.7C129.703 32.7007 129.092 32.5792 128.522 32.3423C127.952 32.1054 127.435 31.758 127 31.32L126 30.25L106.44 49.77Z" fill="#1B3139"/>
</svg>
