<svg width="150" height="150" viewBox="0 0 150 150" fill="none" xmlns="http://www.w3.org/2000/svg">
<path d="M75 40C57.64 40 43 55.16 43 73.1C43 86.55 48.48 89.72 56.35 92.1V108.53H59.35V89.85L58.27 89.53C50.64 87.33 46 85.35 46 73.08C46 56.77 59.27 43 75 43C90.73 43 104 56.79 104 73.1C104 85.37 99.34 87.35 91.73 89.55L90.65 89.87V108.54H93.65V92.09C101.52 89.7 107 86.53 107 73.09C107 55.14 92.35 40 75 40Z" fill="#FF5F46"/>
<path d="M68.57 74.4601C68.57 73.1029 68.1674 71.7762 67.4132 70.6478C66.6589 69.5195 65.587 68.6403 64.3329 68.1213C63.0788 67.6024 61.699 67.4671 60.368 67.7326C59.037 67.9982 57.8147 68.6525 56.8557 69.6129C55.8967 70.5733 55.2441 71.7965 54.9806 73.1279C54.717 74.4593 54.8543 75.8389 55.375 77.0922C55.8958 78.3456 56.7766 79.4163 57.906 80.1688C59.0355 80.9214 60.3628 81.3221 61.72 81.3201C62.6204 81.3201 63.5119 81.1426 64.3437 80.7977C65.1754 80.4528 65.931 79.9474 66.5672 79.3102C67.2034 78.6731 67.7078 77.9168 68.0514 77.0845C68.3951 76.2523 68.5713 75.3605 68.57 74.4601ZM61.72 78.3201C60.9561 78.3221 60.2088 78.0974 59.5728 77.6744C58.9367 77.2515 58.4404 76.6493 58.1467 75.9442C57.853 75.239 57.7751 74.4626 57.9229 73.7132C58.0707 72.9638 58.4376 72.275 58.977 71.7342C59.5164 71.1934 60.2042 70.8248 60.9532 70.675C61.7023 70.5253 62.4789 70.6011 63.1848 70.893C63.8907 71.1848 64.4942 71.6796 64.9187 72.3146C65.3433 72.9495 65.57 73.6962 65.57 74.4601C65.57 75.4821 65.1647 76.4624 64.443 77.186C63.7212 77.9096 62.742 78.3174 61.72 78.3201Z" fill="#FF5F46"/>
<path d="M95.13 74.4601C95.13 73.1029 94.7275 71.7762 93.9732 70.6478C93.219 69.5195 92.147 68.6403 90.8929 68.1213C89.6388 67.6024 88.259 67.4671 86.928 67.7326C85.5971 67.9982 84.3747 68.6525 83.4157 69.6129C82.4568 70.5733 81.8042 71.7965 81.5406 73.1279C81.2771 74.4593 81.4143 75.8389 81.9351 77.0922C82.4558 78.3456 83.3367 79.4163 84.4661 80.1688C85.5955 80.9214 86.9228 81.3221 88.28 81.3201C89.1804 81.3201 90.072 81.1426 90.9037 80.7977C91.7355 80.4528 92.491 79.9474 93.1273 79.3102C93.7635 78.6731 94.2678 77.9168 94.6115 77.0845C94.9551 76.2523 95.1313 75.3605 95.13 74.4601ZM88.28 78.3201C87.5162 78.3221 86.7689 78.0974 86.1328 77.6744C85.4967 77.2515 85.0004 76.6493 84.7067 75.9442C84.4131 75.239 84.3352 74.4626 84.483 73.7132C84.6308 72.9638 84.9976 72.275 85.5371 71.7342C86.0765 71.1934 86.7643 70.8248 87.5133 70.675C88.2623 70.5253 89.039 70.6011 89.7449 70.893C90.4508 71.1848 91.0542 71.6796 91.4788 72.3146C91.9034 72.9495 92.13 73.6962 92.13 74.4601C92.13 75.4821 91.7247 76.4624 91.003 77.186C90.2813 77.9096 89.302 78.3174 88.28 78.3201Z" fill="#FF5F46"/>
<path d="M77.2 81.57C76.9646 81.1982 76.639 80.892 76.2534 80.6799C75.8679 80.4677 75.435 80.3564 74.995 80.3564C74.555 80.3564 74.1221 80.4677 73.7366 80.6799C73.3511 80.892 73.0254 81.1982 72.79 81.57L67.63 89.72L70.17 91.33L75 83.7L79.82 91.34L82.36 89.73L77.2 81.57Z" fill="#FF5F46"/>
<path d="M67.91 96.71H64.91V108.52H67.91V96.71Z" fill="#FF5F46"/>
<path d="M76.5 96.71H73.5V108.52H76.5V96.71Z" fill="#FF5F46"/>
<path d="M85.08 96.71H82.08V108.52H85.08V96.71Z" fill="#FF5F46"/>
<path d="M130.34 35.7002C131.373 35.6909 132.393 35.4742 133.34 35.063C134.288 34.6518 135.143 34.0545 135.855 33.3065C136.567 32.5584 137.122 31.675 137.486 30.7085C137.85 29.7421 138.016 28.7123 137.974 27.6804C137.933 26.6484 137.684 25.6354 137.244 24.7013C136.803 23.7673 136.179 22.9312 135.41 22.2429C134.64 21.5545 133.739 21.0278 132.762 20.6941C131.785 20.3604 130.75 20.2265 129.72 20.3002C129.72 20.0802 129.72 19.8702 129.72 19.6502C129.717 17.6036 128.903 15.6415 127.456 14.1943C126.009 12.7471 124.047 11.9329 122 11.9302C120.987 11.9274 119.984 12.1257 119.048 12.5137C118.113 12.9016 117.264 13.4715 116.55 14.1902C115.283 15.452 114.491 17.113 114.309 18.8918C114.127 20.6706 114.565 22.4577 115.55 23.9502L110.76 28.7402C100.511 20.796 87.9122 16.4847 74.945 16.4847C61.9779 16.4847 49.3787 20.796 39.13 28.7402L34.39 24.0002C35.3749 22.5077 35.8133 20.7206 35.6311 18.9418C35.4488 17.163 34.6571 15.502 33.39 14.2402C32.6877 13.5196 31.8501 12.9446 30.9251 12.5482C30.0002 12.1519 29.0062 11.9418 28 11.9302C26.9857 11.9272 25.9808 12.1254 25.0436 12.5133C24.1064 12.9012 23.2555 13.4712 22.54 14.1902C21.0891 15.642 20.2697 17.6077 20.26 19.6602C20.26 19.8702 20.26 20.0902 20.26 20.3002C19.2299 20.2265 18.1954 20.3604 17.2181 20.6941C16.2407 21.0278 15.3404 21.5545 14.5705 22.2429C13.8006 22.9312 13.1768 23.7673 12.7362 24.7013C12.2956 25.6354 12.0472 26.6484 12.0056 27.6804C11.9641 28.7123 12.1303 29.7421 12.4944 30.7085C12.8584 31.675 13.413 32.5584 14.125 33.3065C14.8371 34.0545 15.6922 34.6518 16.6396 35.063C17.587 35.4742 18.6073 35.6909 19.64 35.7002C21.1643 35.703 22.6547 35.2503 23.92 34.4002L28.72 39.1902C20.7823 49.4341 16.4747 62.0259 16.4747 74.9852C16.4747 87.9446 20.7823 100.536 28.72 110.78L23.95 115.6C22.9461 114.93 21.7993 114.505 20.6015 114.358C19.4036 114.211 18.1879 114.346 17.0518 114.753C15.9157 115.161 14.8907 115.828 14.0589 116.702C13.2271 117.577 12.6116 118.634 12.2616 119.789C11.9117 120.944 11.8371 122.165 12.0437 123.354C12.2504 124.543 12.7326 125.667 13.4517 126.636C14.1708 127.605 15.1069 128.393 16.185 128.935C17.263 129.478 18.4532 129.76 19.66 129.76C19.88 129.76 20.09 129.76 20.3 129.76C20.2157 130.821 20.3523 131.889 20.7013 132.895C21.0504 133.9 21.6041 134.823 22.3277 135.604C23.0513 136.385 23.929 137.007 24.9053 137.432C25.8817 137.856 26.9354 138.074 28 138.07C29.3967 138.069 30.7669 137.69 31.9648 136.971C33.1627 136.253 34.1433 135.223 34.8021 133.992C35.461 132.76 35.7734 131.373 35.7061 129.978C35.6388 128.583 35.1943 127.233 34.42 126.07L39.22 121.27C49.4659 129.221 62.0661 133.536 75.035 133.536C88.0039 133.536 100.604 129.221 110.85 121.27L115.64 126.06C114.866 127.223 114.421 128.573 114.354 129.968C114.287 131.363 114.599 132.75 115.258 133.982C115.917 135.213 116.897 136.243 118.095 136.961C119.293 137.68 120.663 138.059 122.06 138.06C123.126 138.06 124.181 137.838 125.157 137.409C126.133 136.981 127.01 136.354 127.731 135.57C128.453 134.785 129.004 133.859 129.35 132.85C129.696 131.842 129.829 130.773 129.74 129.71C129.95 129.71 130.17 129.71 130.38 129.71C131.587 129.71 132.777 129.428 133.855 128.885C134.933 128.343 135.869 127.555 136.588 126.586C137.307 125.617 137.79 124.493 137.996 123.304C138.203 122.115 138.128 120.894 137.778 119.739C137.428 118.584 136.813 117.527 135.981 116.652C135.149 115.778 134.124 115.111 132.988 114.703C131.852 114.296 130.636 114.161 129.439 114.308C128.241 114.455 127.094 114.88 126.09 115.55L121.32 110.73C123.02 108.528 124.566 106.213 125.95 103.8C126.15 103.44 126.35 103.08 126.54 102.72C127.34 101.25 128.07 99.7202 128.68 98.3302L129.18 97.1902C129.18 97.0702 129.26 96.9702 129.3 96.8902L129.81 95.5602L129.87 95.4302C130.04 94.9502 130.21 94.4302 130.38 93.9802C130.55 93.5302 130.69 93.0702 130.84 92.6002L130.94 92.3802V92.2602C131.16 91.5502 131.37 90.8302 131.58 90.0702L131.82 89.0702C131.89 88.8102 131.95 88.5502 131.99 88.3402C132.15 87.6902 132.29 87.0402 132.42 86.3402C132.42 86.2002 132.47 86.0802 132.52 85.8702L132.85 83.9302C132.9 83.5902 132.95 83.2602 132.99 82.9302C133.03 82.6002 133.1 82.0502 133.16 81.5902L133.32 80.0302C133.38 79.3602 133.42 78.6802 133.45 78.0902C133.45 77.8802 133.45 77.6602 133.45 77.4502C133.458 77.3204 133.458 77.1901 133.45 77.0602C133.45 76.3302 133.45 75.5902 133.45 74.8502C133.45 74.3502 133.45 73.8502 133.45 73.3502C133.45 72.8502 133.45 72.6002 133.45 72.2702C133.45 71.9402 133.45 71.5102 133.45 71.1102C133.45 70.5502 133.37 69.9902 133.32 69.4402C133.27 68.8902 133.24 68.6402 133.19 68.2402V68.0802C133.19 67.5902 133.07 67.0802 132.99 66.5502C132.82 65.3402 132.64 64.3002 132.45 63.3702C132.39 63.1002 132.34 62.8302 132.28 62.5802C132.22 62.3302 132.13 61.8702 132.05 61.5202C131.92 60.9802 131.79 60.4402 131.65 59.9302C131.51 59.4202 131.41 59.0402 131.28 58.5802C131.04 57.7502 130.78 56.9202 130.5 56.1002C130.37 55.7102 130.24 55.3202 130.1 54.9402C129.81 54.1402 129.5 53.3602 129.19 52.5802C129.04 52.2102 128.88 51.8402 128.73 51.5202C128.58 51.2002 128.4 50.7602 128.23 50.3902C127.71 49.2702 127.16 48.1602 126.57 47.0702C126.27 46.5402 125.98 46.0102 125.67 45.4702L124.83 44.0802L124.73 43.9202C124.38 43.3402 124.01 42.7702 123.64 42.2402C123.27 41.7102 123.02 41.3302 122.7 40.8802C122.27 40.2802 121.81 39.6702 121.32 39.0402L126.12 34.2502C127.351 35.1422 128.821 35.647 130.34 35.7002ZM106.44 49.7702L108.57 51.8902L119.12 41.3302C119.5 41.8202 119.86 42.3302 120.19 42.7602C120.52 43.1902 120.79 43.6202 121.1 44.0802C121.41 44.5402 121.79 45.0802 122.1 45.6302L122.2 45.7902C122.47 46.2402 122.75 46.6902 123.01 47.1402L123.87 48.6602C124.42 49.6602 124.95 50.7302 125.44 51.8102C125.6 52.1502 125.75 52.4802 125.91 52.8702C126.07 53.2602 126.2 53.5202 126.33 53.8702C126.64 54.6202 126.93 55.3602 127.21 56.1302C127.34 56.5002 127.47 56.8702 127.59 57.2402C127.86 58.0202 128.1 58.8102 128.33 59.5802C128.45 60.0002 128.56 60.4202 128.68 60.8602C128.8 61.3002 128.94 61.8602 129.06 62.3702C129.13 62.7002 129.21 63.0302 129.28 63.3702C129.35 63.7102 129.39 63.8502 129.44 64.1102C129.62 64.9902 129.79 65.9802 129.96 67.1702C130.02 67.6302 130.09 68.0802 130.13 68.5502V68.7202C130.13 69.1002 130.22 69.4802 130.25 69.8602C130.3 70.3902 130.34 70.9302 130.38 71.4502C130.38 71.8002 130.38 72.1402 130.43 72.5402C130.48 72.9402 130.43 73.2302 130.43 73.5402C130.43 73.8502 130.43 74.5402 130.43 74.9702C130.43 75.6602 130.43 76.3602 130.43 77.1202C130.435 77.2101 130.435 77.3003 130.43 77.3902V77.5102C130.438 77.6668 130.438 77.8237 130.43 77.9802C130.43 78.6202 130.36 79.2502 130.3 79.9102V80.0802C130.3 80.1702 130.3 80.2602 130.3 80.2902L130.18 81.3802C130.14 81.8002 130.09 82.2202 130.03 82.6402C130.03 82.9402 129.94 83.2502 129.89 83.5502L129.6 85.3102C129.55 85.5102 129.51 85.7002 129.48 85.8902C129.37 86.4902 129.23 87.1002 129.08 87.7402C129.08 87.9602 128.98 88.1802 128.92 88.4002L128.69 89.3202C128.48 90.0602 128.28 90.7902 128.05 91.5202L127.94 91.7402V91.8602C127.82 92.2502 127.69 92.6402 127.56 93.0202L127.06 94.4002V94.5002C126.9 94.9302 126.74 95.3602 126.55 95.8302L126.47 96.0102C126.32 96.3802 126.17 96.7402 125.99 97.1402C125.4 98.5102 124.71 99.9202 123.99 101.31C123.8 101.65 123.62 101.99 123.42 102.31C122.176 104.486 120.789 106.577 119.27 108.57L105.52 94.8702L103.39 97.0002L126 119.74L127.07 118.68C127.956 117.794 129.157 117.297 130.41 117.297C131.663 117.297 132.864 117.794 133.75 118.68C134.636 119.566 135.133 120.767 135.133 122.02C135.133 123.273 134.636 124.474 133.75 125.36C133.054 126.064 132.154 126.531 131.177 126.695C130.201 126.858 129.197 126.71 128.31 126.27C127.85 126.044 127.431 125.743 127.07 125.38L126.07 124.38L123.94 126.5L124.94 127.5C125.399 127.94 125.91 128.322 126.46 128.64C126.74 129.354 126.842 130.125 126.756 130.887C126.67 131.649 126.4 132.378 125.968 133.012C125.536 133.645 124.957 134.164 124.279 134.523C123.602 134.882 122.847 135.069 122.08 135.07C121.146 135.071 120.232 134.795 119.455 134.276C118.678 133.758 118.072 133.02 117.715 132.157C117.357 131.294 117.264 130.344 117.446 129.428C117.629 128.512 118.079 127.67 118.74 127.01L119.8 125.95L101.3 107.45L99.18 109.58L108.73 119.12C99.0608 126.514 87.227 130.519 75.055 130.519C62.883 130.519 51.0493 126.514 41.38 119.12L50.92 109.58L48.8 107.45L30.25 126L31.31 127C31.7522 127.437 32.1029 127.957 32.3416 128.53C32.5803 129.104 32.7021 129.719 32.7 130.34C32.6975 130.962 32.5726 131.576 32.3323 132.15C32.0921 132.723 31.7413 133.243 31.3 133.68C30.5342 134.442 29.5299 134.917 28.4553 135.027C27.3807 135.136 26.3012 134.873 25.3976 134.281C24.4941 133.689 23.8214 132.805 23.4923 131.776C23.1632 130.747 23.1977 129.637 23.59 128.63C24.1405 128.312 24.6508 127.93 25.11 127.49L26.11 126.49L24 124.41L23 125.41C22.6387 125.773 22.2196 126.074 21.76 126.3C20.8749 126.739 19.8743 126.887 18.8999 126.726C17.9254 126.564 17.0264 126.101 16.33 125.4C15.4389 124.516 14.9356 123.313 14.9309 122.058C14.9263 120.802 15.4205 119.596 16.305 118.705C17.1895 117.814 18.3918 117.311 19.6473 117.306C20.9029 117.301 22.1089 117.796 23 118.68L24.07 119.74L46.61 97.0002L44.48 94.8902L30.84 108.63C23.4586 98.9653 19.4599 87.1414 19.4599 74.9802C19.4599 62.819 23.4586 50.9951 30.84 41.3302L41.43 51.8902L43.56 49.7702L24 30.2502L23 31.3202C22.5641 31.7594 22.0452 32.1075 21.4735 32.3444C20.9019 32.5814 20.2888 32.7023 19.67 32.7002C18.9777 32.7012 18.2936 32.5495 17.6666 32.2559C17.0396 31.9624 16.4849 31.5342 16.0422 31.0019C15.5995 30.4696 15.2796 29.8462 15.1053 29.1761C14.931 28.5061 14.9065 27.8059 15.0337 27.1253C15.1608 26.4447 15.4364 25.8005 15.8409 25.2386C16.2454 24.6767 16.7687 24.2109 17.3738 23.8743C17.9788 23.5377 18.6506 23.3386 19.3413 23.2913C20.032 23.2439 20.7247 23.3494 21.37 23.6002C21.6898 24.152 22.076 24.6625 22.52 25.1202L23.52 26.1202L25.59 24.0002L24.59 23.0002C24.2162 22.6381 23.9113 22.2112 23.69 21.7402C23.3641 21.0987 23.1929 20.3898 23.19 19.6702C23.1929 19.045 23.3188 18.4265 23.5608 17.8499C23.8027 17.2734 24.1558 16.7502 24.6 16.3102C25.0439 15.8621 25.574 15.5087 26.1585 15.2715C26.7429 15.0343 27.3694 14.9182 28 14.9302C28.6189 14.9276 29.2321 15.0483 29.8039 15.2852C30.3756 15.5221 30.8944 15.8706 31.33 16.3102C31.7694 16.7494 32.1179 17.2709 32.3556 17.8449C32.5934 18.4188 32.7158 19.034 32.7158 19.6552C32.7158 20.2765 32.5934 20.8916 32.3556 21.4656C32.1179 22.0395 31.7694 22.561 31.33 23.0002L30.33 24.0602L49.83 43.5702L51.96 41.4502L41.33 30.8902C51.0007 23.4999 62.8339 19.4961 75.005 19.4961C87.1762 19.4961 99.0094 23.4999 108.68 30.8902L98.11 41.4502L100.24 43.5702L119.74 24.0602L118.74 23.0002C118.301 22.561 117.952 22.0395 117.714 21.4656C117.477 20.8916 117.354 20.2765 117.354 19.6552C117.354 19.034 117.477 18.4188 117.714 17.8449C117.952 17.2709 118.301 16.7494 118.74 16.3102C119.603 15.4393 120.774 14.9435 122 14.9302C123.253 14.9355 124.453 15.4355 125.339 16.3214C126.225 17.2073 126.725 18.4074 126.73 19.6602C126.725 20.3923 126.554 21.1137 126.23 21.7702C126.008 22.2291 125.706 22.6454 125.34 23.0002L124.34 24.0002L126.47 26.1202L127.47 25.1202C127.93 24.6595 128.33 24.142 128.66 23.5802C129.506 23.2531 130.43 23.1792 131.318 23.3674C132.205 23.5556 133.019 23.9978 133.66 24.6402C134.321 25.3003 134.771 26.1418 134.954 27.058C135.137 27.9743 135.043 28.9241 134.685 29.7871C134.328 30.6502 133.722 31.3877 132.945 31.9063C132.168 32.4249 131.254 32.7012 130.32 32.7002C129.703 32.701 129.092 32.5794 128.522 32.3425C127.952 32.1056 127.435 31.7582 127 31.3202L126 30.2502L106.44 49.7702Z" fill="#FF5F46"/>
</svg>
