<svg width="150" height="150" viewBox="0 0 150 150" fill="none" xmlns="http://www.w3.org/2000/svg">
<g clip-path="url(#clip0_6760_2292)">
<path d="M47.2001 65.3098C49.9601 62.5598 51.7101 58.4098 51.7101 53.7698C51.7101 45.4998 46.1501 38.7998 39.2901 38.7998C32.4301 38.7998 26.8701 45.4998 26.8701 53.7698C26.8701 58.4198 28.6301 62.5698 31.3801 65.3098C22.7501 68.5198 16.6001 76.8098 16.6001 86.5598V118.51H94.8001" stroke="#1B3139" stroke-width="3" stroke-miterlimit="3"/>
<path d="M102.8 65.3099C100.04 62.5599 98.2901 58.4099 98.2901 53.7699C98.2901 45.4999 103.85 38.7999 110.71 38.7999C117.57 38.7999 123.13 45.4999 123.13 53.7699C123.13 58.4199 121.37 62.5699 118.62 65.3099C127.25 68.5199 133.4 76.8099 133.4 86.5599V118.51H106.39V92.9799C106.39 79.4999 97.8701 68.0399 85.9401 63.5899C89.7501 59.7899 92.1801 54.0499 92.1801 47.6199C92.1801 36.1899 84.4901 26.9199 75.0001 26.9199C65.5101 26.9199 57.8201 36.1899 57.8201 47.6199C57.8201 54.0499 60.2501 59.7899 64.0601 63.5899C52.1301 68.0299 43.6101 79.4999 43.6101 92.9799V118.51" stroke="#1B3139" stroke-width="3" stroke-miterlimit="3"/>
</g>
<defs>
<clipPath id="clip0_6760_2292">
<rect width="150" height="150" fill="white"/>
</clipPath>
</defs>
</svg>
