<svg width="150" height="150" viewBox="0 0 150 150" fill="none" xmlns="http://www.w3.org/2000/svg">
<g clip-path="url(#clip0_5483_2072)">
<path d="M47.2 65.3098C49.96 62.5598 51.71 58.4098 51.71 53.7698C51.71 45.4998 46.15 38.7998 39.29 38.7998C32.43 38.7998 26.87 45.4998 26.87 53.7698C26.87 58.4198 28.63 62.5698 31.38 65.3098C22.75 68.5198 16.6 76.8098 16.6 86.5598V118.51H94.8" stroke="#FF5F46" stroke-width="3" stroke-miterlimit="3"/>
<path d="M102.8 65.3099C100.04 62.5599 98.29 58.4099 98.29 53.7699C98.29 45.4999 103.85 38.7999 110.71 38.7999C117.57 38.7999 123.13 45.4999 123.13 53.7699C123.13 58.4199 121.37 62.5699 118.62 65.3099C127.25 68.5199 133.4 76.8099 133.4 86.5599V118.51H106.39V92.9799C106.39 79.4999 97.87 68.0399 85.94 63.5899C89.75 59.7899 92.18 54.0499 92.18 47.6199C92.18 36.1899 84.49 26.9199 75 26.9199C65.51 26.9199 57.82 36.1899 57.82 47.6199C57.82 54.0499 60.25 59.7899 64.06 63.5899C52.13 68.0299 43.61 79.4999 43.61 92.9799V118.51" stroke="#FF5F46" stroke-width="3" stroke-miterlimit="3"/>
</g>
<defs>
<clipPath id="clip0_5483_2072">
<rect width="150" height="150" fill="white"/>
</clipPath>
</defs>
</svg>
