<svg width="150" height="150" viewBox="0 0 150 150" fill="none" xmlns="http://www.w3.org/2000/svg">
<path d="M96.4 87.6V90.6001H105.4V70.6C105.4 65.3 101.1 61 95.8 61H37.8V122.6H25.5V27.3H37.8V54.5H40.8V24.3H22.5V125.7H40.8V64.1H95.8C99.4 64.1 102.4 67 102.4 70.7V87.6H96.4Z" fill="#FF5F46"/>
<path d="M120 90.6001H127.5V87.6H121.5V70.6C121.5 56.5 110 45 95.8001 45H75.7V32.9001H64.1V27.3H84.4001V32.9001H80.5V35.9001H87.4001V24.3H61.1V35.9001H72.8001V45H46.3V48H95.8001C108.3 48 118.5 58.2 118.5 70.7V87.6H109.4L110.7 89.8C110.8 90 119.2 104.9 119.2 114.4C119.2 119 116 122.7 112 122.7C108 122.7 104.8 119 104.8 114.4C104.8 110.5 106.3 104.9 109.2 98.3L106.4 97.1001C103.3 104.2 101.8 110 101.8 114.4C101.8 120.6 106.4 125.7 112 125.7C117.6 125.7 122.2 120.6 122.2 114.4C122.2 106.3 116.9 95.2 114.5 90.5L120 90.6001Z" fill="#FF5F46"/>
</svg>
