<svg width="150" height="150" viewBox="0 0 150 150" fill="none" xmlns="http://www.w3.org/2000/svg">
<path d="M45.1 60.2601C44.5897 57.276 44.6807 54.22 45.3675 51.2715C46.0544 48.323 47.3234 45.5415 49.1 43.0901C49.78 47.6801 51.82 54.8001 57.89 54.8001C59.064 54.82 60.2267 54.5676 61.2868 54.0627C62.3469 53.5578 63.2756 52.8142 64 51.8901C64.9106 50.6739 65.5392 49.2703 65.8401 47.7812C66.1411 46.292 66.1069 44.7544 65.74 43.2801C65.44 41.9701 65.03 40.6701 64.63 39.4201C63.46 35.7601 62.36 32.3001 63.63 27.8901C65.3 22.2601 70.78 18.0001 79.57 15.5701C78.0633 19.2567 77.6806 23.3065 78.47 27.2101C79.68 32.8601 83.47 37.7601 89.86 41.7701C102.64 49.8701 103.63 57.0401 103.26 60.2601H106.26C106.62 56.0001 105.06 47.8501 91.46 39.2601C85.84 35.7001 82.46 31.4501 81.46 26.6301C80.6433 22.3546 81.4036 17.9281 83.6 14.1701L85.6 11.1001L82 11.8801C70.29 14.4201 62.94 19.6601 60.77 27.0001C59.22 32.3001 60.57 36.5401 61.77 40.2901C62.17 41.5401 62.54 42.7201 62.77 43.9001C63.0475 44.9357 63.0919 46.0199 62.9 47.0747C62.708 48.1295 62.2845 49.1287 61.66 50.0001C61.2191 50.5635 60.6539 51.0173 60.0086 51.3261C59.3633 51.6349 58.6553 51.7903 57.94 51.7801C52.2 51.7801 51.81 39.3501 51.81 39.2301L51.74 35.4801L49.21 38.2401C41.29 46.8601 41.34 55.7701 42.05 60.2401L45.1 60.2601Z" fill="#FF5F46"/>
<path d="M29.51 88H69.74V73.71C69.74 73.2842 69.8246 72.8627 69.9891 72.4699C70.1535 72.0772 70.3945 71.721 70.6978 71.4223C71.0012 71.1236 71.361 70.8882 71.7563 70.7298C72.1515 70.5715 72.5743 70.4933 73 70.5H120.54C121.391 70.5 122.208 70.8382 122.81 71.4402C123.412 72.0422 123.75 72.8586 123.75 73.71V81.81C123.747 82.2341 123.661 82.6535 123.495 83.0439C123.33 83.4343 123.088 83.7881 122.785 84.0847C122.482 84.3813 122.123 84.6149 121.729 84.772C121.335 84.9291 120.914 85.0066 120.49 85H73V88H120.54C122.186 87.9973 123.764 87.3422 124.928 86.1782C126.092 85.0142 126.747 83.4362 126.75 81.79V73.69C126.747 72.0438 126.092 70.4658 124.928 69.3018C123.764 68.1377 122.186 67.4826 120.54 67.48H73C71.3539 67.4826 69.7759 68.1377 68.6118 69.3018C67.4478 70.4658 66.7927 72.0438 66.7901 73.69V85H29.51C28.6587 85 27.8422 84.6618 27.2402 84.0598C26.6382 83.4578 26.3 82.6413 26.3 81.79V73.69C26.3 72.8386 26.6382 72.0222 27.2402 71.4202C27.8422 70.8182 28.6587 70.48 29.51 70.48H54.6101C55.4614 70.48 56.2779 70.8182 56.8799 71.4202C57.4819 72.0222 57.82 72.8386 57.82 73.69V81.79H60.82V73.69C60.8174 72.0438 60.1623 70.4658 58.9983 69.3018C57.8342 68.1377 56.2562 67.4826 54.6101 67.48H29.51C27.8631 67.48 26.2835 68.1342 25.1189 69.2988C23.9543 70.4634 23.3 72.043 23.3 73.69V81.79C23.3027 83.4362 23.9578 85.0142 25.1218 86.1782C26.2859 87.3422 27.8639 87.9973 29.51 88Z" fill="#FF5F46"/>
<path d="M29.51 138.9H69.74V124.59C69.7427 123.74 70.0821 122.926 70.6838 122.327C71.2855 121.727 72.1004 121.39 72.95 121.39H120.49C121.34 121.39 122.155 121.727 122.756 122.327C123.358 122.926 123.697 123.74 123.7 124.59V132.7C123.697 133.55 123.358 134.363 122.756 134.963C122.155 135.563 121.34 135.9 120.49 135.9H73V138.9H120.54C122.185 138.9 123.763 138.247 124.928 137.085C126.092 135.922 126.747 134.345 126.75 132.7V124.59C126.747 122.945 126.092 121.368 124.928 120.205C123.763 119.043 122.185 118.39 120.54 118.39H73C71.3548 118.39 69.7768 119.043 68.6124 120.205C67.4481 121.368 66.7927 122.945 66.7901 124.59V135.9H29.51C28.6604 135.9 27.8455 135.563 27.2438 134.963C26.6421 134.363 26.3027 133.55 26.3 132.7V124.59C26.3027 123.74 26.6421 122.926 27.2438 122.327C27.8455 121.727 28.6604 121.39 29.51 121.39H54.6101C55.4597 121.39 56.2746 121.727 56.8763 122.327C57.478 122.926 57.8174 123.74 57.82 124.59V132.7H60.82V124.59C60.8174 122.945 60.162 121.368 58.9977 120.205C57.8333 119.043 56.2553 118.39 54.6101 118.39H29.51C27.8648 118.39 26.2868 119.043 25.1224 120.205C23.9581 121.368 23.3027 122.945 23.3 124.59V132.7C23.3027 134.345 23.9581 135.922 25.1224 137.085C26.2868 138.247 27.8648 138.9 29.51 138.9Z" fill="#FF5F46"/>
<path d="M29.51 113.46H77.0501C78.6962 113.457 80.2742 112.802 81.4383 111.638C82.6023 110.474 83.2574 108.896 83.2601 107.25V95.9399H120.49C121.341 95.9399 122.158 96.2781 122.76 96.8801C123.362 97.4821 123.7 98.2986 123.7 99.1499V107.25C123.7 108.101 123.362 108.918 122.76 109.52C122.158 110.122 121.341 110.46 120.49 110.46H95.39C94.5387 110.46 93.7222 110.122 93.1202 109.52C92.5182 108.918 92.1801 108.101 92.1801 107.25V99.1499H89.1801V107.25C89.1827 108.896 89.8378 110.474 91.0018 111.638C92.1659 112.802 93.7439 113.457 95.39 113.46H120.49C122.137 113.46 123.717 112.806 124.881 111.641C126.046 110.476 126.7 108.897 126.7 107.25V99.1499C126.697 97.5038 126.042 95.9258 124.878 94.7617C123.714 93.5977 122.136 92.9426 120.49 92.9399H80.2601V107.25C80.2601 108.101 79.9219 108.918 79.3199 109.52C78.7179 110.122 77.9014 110.46 77.0501 110.46H29.51C28.6587 110.46 27.8422 110.122 27.2402 109.52C26.6382 108.918 26.3 108.101 26.3 107.25V99.1499C26.3 98.2986 26.6382 97.4821 27.2402 96.8801C27.8422 96.2781 28.6587 95.9399 29.51 95.9399H77.0501V92.9399H29.51C27.8639 92.9426 26.2859 93.5977 25.1218 94.7617C23.9578 95.9258 23.3027 97.5038 23.3 99.1499V107.25C23.3027 108.896 23.9578 110.474 25.1218 111.638C26.2859 112.802 27.8639 113.457 29.51 113.46Z" fill="#FF5F46"/>
</svg>
