<svg width="150" height="150" viewBox="0 0 150 150" fill="none" xmlns="http://www.w3.org/2000/svg">
<g clip-path="url(#clip0_214_429)">
<path d="M18.8 80.4V74.8C20.4 75.4 22.1 75.7 23.8 75.6C28.6 75.6 31.1 73.7 33.3 72.1C35.5 70.5 37.2001 69.2 41 69.2C44.8 69.2 46.6 70.6 48.7001 72.1C50.8 73.6 53.4001 75.6 58.2001 75.6C63 75.6 65.5 73.7 67.7 72.1C69.9 70.5 71.6001 69.2 75.4001 69.2C79.2001 69.2 81 70.6 83.1 72.1C85.2 73.6 87.8 75.6 92.6 75.6C97.4 75.6 99.9 73.7 102.1 72.1C104.3 70.5 106 69.2 109.8 69.2C113.6 69.2 115.4 70.6 117.5 72.1C119.6 73.6 122.2 75.6 127 75.6C128.7 75.6 130.4 75.3 132 74.8V80.4H135V27.9L132.8 29C131 29.9 129 30.4 127 30.6C123.2 30.6 121.4 29.2 119.3 27.7C117.2 26.2 114.6 24.2 109.8 24.2C105 24.2 102.5 26.1 100.3 27.7C98.1001 29.3 96.4 30.6 92.6 30.6C88.8 30.6 86.9 29.2 84.8 27.7C82.7001 26.2 80.2001 24 75.4001 24C70.6001 24 68.1001 25.9 65.9001 27.5C63.7001 29.1 62 30.4 58.2001 30.4C54.4001 30.4 52.6 29 50.5 27.5C48.4001 26 45.8 24 41 24C36.2001 24 33.7 25.9 31.5 27.5C29.3 29.1 27.6 30.4 23.8 30.4C21.8 30.5 19.8 30 18.1 28.9L15.8 27.5V80.4H18.8ZM132 57.5C130.5 58.3 128.7 58.7 127 58.6C123.2 58.6 121.4 57.3 119.3 55.7C117.2 54.1 114.6 52.2 109.8 52.2C105 52.2 102.5 54.1 100.3 55.7C98.1001 57.3 96.4 58.6 92.6 58.6C88.8 58.6 87 57.2 85 55.7C83 54.2 80.3 52.2 75.5 52.2C70.7001 52.2 68.2001 54 66 55.7C63.8 57.4 62.1 58.6 58.3 58.6C54.5 58.6 52.7 57.3 50.6 55.7C48.5 54.1 45.9 52.2 41.1 52.2C36.3 52.2 33.8 54 31.6 55.7C29.4 57.4 27.7 58.6 23.9 58.6C22.2 58.7 20.4 58.3 18.9 57.5V46.7C20.5 47.3 22.2 47.6 23.9 47.5C28.7 47.5 31.2001 45.6 33.4001 44C35.6001 42.4 37.3 41.1 41.1 41.1C44.9 41.1 46.7 42.4 48.8 44C50.9 45.6 53.5 47.5 58.3 47.5C63.1 47.5 65.6001 45.6 67.8001 44C70.0001 42.4 71.7001 41.1 75.5 41.1C79.3 41.1 81.1 42.4 83.2 44C85.3 45.6 87.9 47.5 92.7 47.5C97.5 47.5 100 45.6 102.2 44C104.4 42.4 106.1 41.1 109.9 41.1C113.7 41.1 115.5 42.4 117.6 44C119.7 45.6 122.3 47.5 127.1 47.5C128.8 47.5 130.5 47.2 132.1 46.7L132 57.5ZM127 72.7C123.2 72.7 121.4 71.4 119.3 69.8C117.2 68.2 114.6 66.3 109.8 66.3C105 66.3 102.5 68.2 100.3 69.8C98.1001 71.4 96.4 72.7 92.6 72.7C88.8 72.7 87 71.4 85 69.8C83 68.2 80.3 66.3 75.5 66.3C70.7001 66.3 68.2001 68.2 66 69.8C63.8 71.4 62.1 72.7 58.3 72.7C54.5 72.7 52.7 71.4 50.6 69.8C48.5 68.2 45.9 66.3 41.1 66.3C36.3 66.3 33.8 68.2 31.6 69.8C29.4 71.4 27.7 72.7 23.9 72.7C22.2 72.8 20.4 72.4 18.9 71.6V60.8C20.5 61.4 22.2 61.7 23.9 61.6C28.7 61.6 31.2001 59.7 33.4001 58.1C35.6001 56.5 37.3 55.2 41.1 55.2C44.9 55.2 46.7 56.6 48.8 58.1C50.9 59.6 53.5 61.6 58.3 61.6C63.1 61.6 65.6001 59.7 67.8001 58.1C70.0001 56.5 71.7001 55.2 75.5 55.2C79.3 55.2 81.1 56.6 83.2 58.1C85.3 59.6 87.9 61.6 92.7 61.6C97.5 61.6 100 59.7 102.2 58.1C104.4 56.5 106.1 55.2 109.9 55.2C113.7 55.2 115.5 56.6 117.6 58.1C119.7 59.6 122.3 61.6 127.1 61.6C128.8 61.6 130.5 61.3 132.1 60.8V71.6C130.5 72.3 128.8 72.7 127 72.7ZM23.8 33.5C28.6 33.5 31.1 31.6 33.3 30C35.5 28.4 37.2001 27 41 27C44.8 27 46.6 28.4 48.7001 29.9C50.8 31.4 53.4001 33.4 58.2001 33.4C63 33.4 65.5 31.5 67.7 29.9C69.9 28.3 71.6001 27 75.4001 27C79.2001 27 81 28.4 83.1 30C85.2 31.6 87.8 33.5 92.6 33.5C97.4 33.5 99.9 31.6 102.1 30C104.3 28.4 106 27.1 109.8 27.1C113.6 27.1 115.4 28.5 117.5 30C119.6 31.5 122.2 33.5 127 33.5C128.7 33.4 130.4 33.1 132 32.5V43.4C130.5 44.2 128.7 44.6 127 44.5C123.2 44.5 121.4 43.1 119.3 41.6C117.2 40.1 114.6 38.1 109.8 38.1C105 38.1 102.5 40 100.3 41.6C98.1001 43.2 96.4 44.5 92.6 44.5C88.8 44.5 87 43.1 84.9 41.6C82.8 40.1 80.2001 38.1 75.4001 38.1C70.6001 38.1 68.1001 40 65.9001 41.6C63.7001 43.2 62 44.5 58.2001 44.5C54.4001 44.5 52.6 43.1 50.5 41.6C48.4001 40.1 45.8 38.1 41 38.1C36.2001 38.1 33.7 40 31.5 41.6C29.3 43.2 27.6 44.5 23.8 44.5C22.1 44.6 20.3 44.2 18.8 43.4V32.7C20.4 33.2 22 33.5 23.8 33.5Z" fill="#FF5F46"/>
<path d="M49.6 108C44.6 108 40.6 112 40.6 117C40.6 122 44.6 126 49.6 126C54.6 126 58.6 122 58.6 117C58.6 112 54.6 108 49.6 108ZM49.6 123C46.3 123 43.6 120.3 43.6 117C43.6 113.7 46.3 111 49.6 111C52.9 111 55.6 113.7 55.6 117C55.6 120.3 52.9 123 49.6 123Z" fill="#FF5F46"/>
<path d="M91.1 125.7H108.6V108.2H91.1V125.7ZM94.1 111.2H105.6V122.7H94.1V111.2Z" fill="#FF5F46"/>
<path d="M113.7 126H136.2L125 106.5L113.7 126ZM118.9 123L124.9 112.5L130.9 123H118.9Z" fill="#FF5F46"/>
<path d="M63.5 126H86L74.7 106.5L63.5 126ZM68.7 123L74.7 112.5L80.7 123H68.7Z" fill="#FF5F46"/>
<path d="M15.8 125.7H33.3V108.2H15.8V125.7ZM18.8 111.2H30.3V122.7H18.8V111.2Z" fill="#FF5F46"/>
<path d="M13.9 93.3L16 95.4L23 88.3V102.5H26V88.3L33.1 95.4L35.2 93.3L24.5 82.6L13.9 93.3Z" fill="#FF5F46"/>
<path d="M39 93.3L41.1 95.4L48.1 88.3V102.5H51.1V88.3L58.2 95.4L60.3 93.3L49.6 82.6L39 93.3Z" fill="#FF5F46"/>
<path d="M76.2 102.5V88.3L83.3 95.4L85.4 93.3L74.7 82.6L64 93.3L66.2 95.4L73.2 88.3V102.5H76.2Z" fill="#FF5F46"/>
<path d="M89.1 93.3L91.3 95.4L98.3 88.3V102.5H101.3V88.3L108.4 95.4L110.5 93.3L99.8 82.6L89.1 93.3Z" fill="#FF5F46"/>
<path d="M126.4 102.5V88.3L133.4 95.4L135.6 93.3L124.9 82.6L114.2 93.3L116.3 95.4L123.4 88.3V102.5H126.4Z" fill="#FF5F46"/>
</g>
<defs>
<clipPath id="clip0_214_429">
<rect width="150" height="150" fill="white"/>
</clipPath>
</defs>
</svg>
