<svg width="1153" height="558" viewBox="0 0 1153 558" fill="none" xmlns="http://www.w3.org/2000/svg">
<g filter="url(#filter0_dddddd_1119_14818)">
<path d="M148 116.336C148 77.4903 179.49 46 218.336 46H339.664C378.51 46 410 77.4903 410 116.336V237.664C410 276.51 378.51 308 339.664 308H218.336C179.49 308 148 276.51 148 237.664V116.336Z" fill="white"/>
</g>
<path d="M278.78 152.132L257.262 164.566V189.434L278.78 201.869L300.299 189.434V164.566L278.78 152.132Z" fill="#FF5F46"/>
<path d="M324.152 150.836H348.912L336.467 129.335L324.152 150.836Z" fill="#FF5F46"/>
<path d="M324.152 203.293L336.597 224.794L349.041 203.293H324.152Z" fill="#FF5F46"/>
<path d="M266.336 250.828H291.095L278.651 229.327L266.336 250.828Z" fill="#FF5F46"/>
<path d="M208.523 203.293L220.968 224.794L233.412 203.293H208.523Z" fill="#FF5F46"/>
<path d="M208.523 150.836H233.283L220.838 129.335L208.523 150.836Z" fill="#FF5F46"/>
<path d="M266.336 103.172L278.78 124.673L291.225 103.172H266.336Z" fill="#FF5F46"/>
<path d="M302.373 107.446L287.984 132.315L312.873 146.692L327.262 121.823L302.373 107.446Z" fill="#FABFBA"/>
<path d="M350.856 162.623H322.078V191.377H350.856V162.623Z" fill="#FABFBA"/>
<path d="M312.873 207.438L287.984 221.815L302.373 246.683L327.262 232.306L312.873 207.438Z" fill="#FABFBA"/>
<path d="M244.561 207.438L230.172 232.306L255.061 246.683L269.45 221.815L244.561 207.438Z" fill="#FABFBA"/>
<path d="M235.356 162.623H206.578V191.377H235.356V162.623Z" fill="#FABFBA"/>
<path d="M255.061 107.446L230.172 121.823L244.561 146.692L269.45 132.315L255.061 107.446Z" fill="#FABFBA"/>
<path d="M511.094 215.825C505.501 215.825 500.422 214.721 495.859 212.513C491.37 210.305 487.763 206.919 485.04 202.356C482.39 197.793 481.066 192.052 481.066 185.134V137.22H494.314V185.244C494.314 189.439 495.013 192.898 496.411 195.622C497.81 198.345 499.76 200.406 502.262 201.804C504.838 203.129 507.856 203.791 511.315 203.791C514.848 203.791 517.866 203.129 520.368 201.804C522.944 200.406 524.894 198.345 526.219 195.622C527.618 192.898 528.317 189.439 528.317 185.244V137.22H541.565V185.134C541.565 192.052 540.203 197.793 537.48 202.356C534.757 206.919 531.077 210.305 526.44 212.513C521.803 214.721 516.688 215.825 511.094 215.825ZM552.691 214.5V158.858H564.393L565.387 168.132C567.08 164.894 569.509 162.318 572.673 160.404C575.838 158.49 579.592 157.534 583.934 157.534C588.424 157.534 592.251 158.49 595.416 160.404C598.581 162.244 601.009 164.967 602.702 168.574C604.469 172.18 605.352 176.67 605.352 182.042V214.5H592.104V183.257C592.104 178.62 591.073 175.05 589.013 172.548C586.952 170.046 583.897 168.794 579.849 168.794C577.2 168.794 574.808 169.42 572.673 170.671C570.613 171.922 568.957 173.762 567.705 176.191C566.528 178.546 565.939 181.417 565.939 184.802V214.5H552.691ZM616.559 214.5V158.858H629.807V214.5H616.559ZM623.183 150.026C620.754 150.026 618.73 149.29 617.111 147.818C615.566 146.273 614.793 144.396 614.793 142.188C614.793 139.906 615.566 138.066 617.111 136.668C618.73 135.196 620.754 134.46 623.183 134.46C625.612 134.46 627.599 135.196 629.145 136.668C630.764 138.066 631.574 139.906 631.574 142.188C631.574 144.396 630.764 146.273 629.145 147.818C627.599 149.29 625.612 150.026 623.183 150.026ZM665.982 214.5C662.229 214.5 658.953 213.911 656.157 212.734C653.433 211.556 651.299 209.606 649.753 206.882C648.208 204.159 647.435 200.479 647.435 195.842V170.009H637.941V158.858H647.435L648.981 144.175H660.683V158.858H675.808V170.009H660.683V195.842C660.683 198.639 661.272 200.59 662.449 201.694C663.701 202.724 665.761 203.239 668.632 203.239H675.477V214.5H665.982ZM691.694 238.788L705.273 208.318H701.961L679.771 158.858H694.233L710.793 196.615L726.47 158.858H740.491L705.715 238.788H691.694ZM805.184 215.825C797.529 215.825 790.905 214.169 785.312 210.857C779.792 207.471 775.523 202.798 772.505 196.836C769.561 190.801 768.089 183.846 768.089 175.97C768.089 168.022 769.561 161.066 772.505 155.105C775.523 149.07 779.792 144.359 785.312 140.974C790.905 137.588 797.529 135.895 805.184 135.895C814.384 135.895 821.891 138.177 827.705 142.74C833.52 147.23 837.2 153.596 838.745 161.839H824.172C823.142 157.497 821.044 154.074 817.88 151.572C814.715 149.07 810.446 147.818 805.073 147.818C800.216 147.818 796.02 148.959 792.488 151.241C789.028 153.449 786.342 156.687 784.428 160.956C782.588 165.151 781.668 170.156 781.668 175.97C781.668 181.785 782.588 186.79 784.428 190.985C786.342 195.106 789.028 198.308 792.488 200.59C796.02 202.798 800.216 203.902 805.073 203.902C810.446 203.902 814.715 202.761 817.88 200.479C821.044 198.124 823.142 194.886 824.172 190.764H838.745C837.273 198.566 833.593 204.711 827.705 209.201C821.891 213.617 814.384 215.825 805.184 215.825ZM866.502 215.825C861.939 215.825 858.149 215.052 855.131 213.506C852.113 211.961 849.869 209.9 848.397 207.324C846.925 204.748 846.189 201.951 846.189 198.934C846.189 195.401 847.072 192.346 848.838 189.77C850.678 187.194 853.365 185.207 856.897 183.809C860.43 182.337 864.773 181.601 869.925 181.601H883.945C883.945 178.657 883.541 176.228 882.731 174.314C881.921 172.327 880.67 170.855 878.977 169.898C877.285 168.942 875.113 168.463 872.464 168.463C869.446 168.463 866.87 169.162 864.736 170.561C862.601 171.886 861.277 173.946 860.761 176.743H847.734C848.176 172.769 849.501 169.383 851.709 166.586C853.917 163.716 856.824 161.508 860.43 159.962C864.11 158.343 868.121 157.534 872.464 157.534C877.689 157.534 882.142 158.454 885.822 160.294C889.502 162.06 892.299 164.636 894.213 168.022C896.2 171.334 897.193 175.345 897.193 180.055V214.5H885.933L884.608 205.558C883.872 207.03 882.915 208.391 881.737 209.642C880.633 210.894 879.345 211.998 877.873 212.954C876.401 213.838 874.709 214.537 872.795 215.052C870.955 215.567 868.857 215.825 866.502 215.825ZM869.483 205.337C871.617 205.337 873.494 204.969 875.113 204.233C876.806 203.423 878.241 202.319 879.419 200.921C880.67 199.449 881.627 197.83 882.289 196.063C882.952 194.297 883.393 192.42 883.614 190.433V190.212H871.36C868.784 190.212 866.649 190.543 864.957 191.206C863.264 191.794 862.049 192.678 861.313 193.855C860.577 195.033 860.209 196.394 860.209 197.94C860.209 199.486 860.577 200.81 861.313 201.914C862.049 203.018 863.117 203.865 864.515 204.454C865.913 205.042 867.569 205.337 869.483 205.337ZM931.352 214.5C927.598 214.5 924.323 213.911 921.526 212.734C918.803 211.556 916.669 209.606 915.123 206.882C913.577 204.159 912.805 200.479 912.805 195.842V170.009H903.31V158.858H912.805L914.35 144.175H926.053V158.858H941.177V170.009H926.053V195.842C926.053 198.639 926.641 200.59 927.819 201.694C929.07 202.724 931.131 203.239 934.001 203.239H940.846V214.5H931.352ZM968.877 215.825C964.313 215.825 960.523 215.052 957.505 213.506C954.488 211.961 952.243 209.9 950.771 207.324C949.299 204.748 948.563 201.951 948.563 198.934C948.563 195.401 949.446 192.346 951.213 189.77C953.053 187.194 955.739 185.207 959.272 183.809C962.805 182.337 967.147 181.601 972.299 181.601H986.32C986.32 178.657 985.915 176.228 985.105 174.314C984.296 172.327 983.045 170.855 981.352 169.898C979.659 168.942 977.488 168.463 974.838 168.463C971.821 168.463 969.245 169.162 967.11 170.561C964.976 171.886 963.651 173.946 963.136 176.743H950.109C950.55 172.769 951.875 169.383 954.083 166.586C956.291 163.716 959.198 161.508 962.805 159.962C966.485 158.343 970.496 157.534 974.838 157.534C980.064 157.534 984.517 158.454 988.197 160.294C991.877 162.06 994.673 164.636 996.587 168.022C998.574 171.334 999.568 175.345 999.568 180.055V214.5H988.307L986.982 205.558C986.246 207.03 985.289 208.391 984.112 209.642C983.008 210.894 981.72 211.998 980.248 212.954C978.776 213.838 977.083 214.537 975.169 215.052C973.329 215.567 971.232 215.825 968.877 215.825ZM971.857 205.337C973.992 205.337 975.869 204.969 977.488 204.233C979.181 203.423 980.616 202.319 981.793 200.921C983.045 199.449 984.001 197.83 984.664 196.063C985.326 194.297 985.768 192.42 985.989 190.433V190.212H973.734C971.158 190.212 969.024 190.543 967.331 191.206C965.638 191.794 964.424 192.678 963.688 193.855C962.952 195.033 962.584 196.394 962.584 197.94C962.584 199.486 962.952 200.81 963.688 201.914C964.424 203.018 965.491 203.865 966.889 204.454C968.288 205.042 969.944 205.337 971.857 205.337ZM1010.41 214.5V135.012H1023.66V214.5H1010.41ZM1061.07 215.825C1055.78 215.825 1050.99 214.61 1046.72 212.182C1042.53 209.679 1039.22 206.257 1036.79 201.914C1034.43 197.498 1033.25 192.457 1033.25 186.79C1033.25 180.975 1034.47 175.897 1036.9 171.554C1039.33 167.138 1042.64 163.716 1046.83 161.287C1051.1 158.785 1055.89 157.534 1061.18 157.534C1066.48 157.534 1071.23 158.785 1075.43 161.287C1079.7 163.716 1083.01 167.102 1085.36 171.444C1087.79 175.786 1089.01 180.865 1089.01 186.679C1089.01 192.494 1087.79 197.572 1085.36 201.914C1082.93 206.257 1079.58 209.679 1075.32 212.182C1071.12 214.61 1066.37 215.825 1061.07 215.825ZM1061.07 204.454C1063.72 204.454 1066.12 203.791 1068.25 202.466C1070.46 201.142 1072.22 199.154 1073.55 196.505C1074.87 193.855 1075.54 190.58 1075.54 186.679C1075.54 182.778 1074.87 179.54 1073.55 176.964C1072.3 174.314 1070.57 172.327 1068.36 171.002C1066.23 169.678 1063.83 169.015 1061.18 169.015C1058.61 169.015 1056.22 169.678 1054.01 171.002C1051.8 172.327 1050.03 174.314 1048.71 176.964C1047.38 179.54 1046.72 182.778 1046.72 186.679C1046.72 190.58 1047.38 193.855 1048.71 196.505C1050.03 199.154 1051.76 201.142 1053.9 202.466C1056.11 203.791 1058.5 204.454 1061.07 204.454ZM1118.83 240.113C1113.61 240.113 1109.01 239.45 1105.03 238.126C1101.13 236.874 1098.08 234.924 1095.87 232.274C1093.74 229.698 1092.67 226.46 1092.67 222.559C1092.67 220.278 1093.22 218.033 1094.32 215.825C1095.5 213.69 1097.23 211.703 1099.51 209.863C1101.87 207.95 1104.85 206.294 1108.46 204.895L1114.31 211.298C1110.77 212.55 1108.31 214.058 1106.91 215.825C1105.51 217.591 1104.81 219.394 1104.81 221.234C1104.81 223.148 1105.4 224.73 1106.58 225.982C1107.83 227.306 1109.49 228.3 1111.55 228.962C1113.68 229.625 1116.07 229.956 1118.72 229.956C1121.3 229.956 1123.54 229.588 1125.46 228.852C1127.37 228.19 1128.84 227.233 1129.87 225.982C1130.98 224.73 1131.53 223.222 1131.53 221.455C1131.53 219.247 1130.76 217.444 1129.21 216.046C1127.66 214.721 1124.61 213.911 1120.05 213.617C1116.15 213.322 1112.72 212.918 1109.78 212.402C1106.84 211.814 1104.3 211.151 1102.16 210.415C1100.1 209.679 1098.34 208.87 1096.86 207.986C1095.39 207.03 1094.18 206.073 1093.22 205.116V202.577L1104.81 190.433L1114.64 193.634L1101.61 206.33L1105.03 199.927C1105.77 200.442 1106.5 200.921 1107.24 201.362C1108.05 201.804 1109.04 202.209 1110.22 202.577C1111.47 202.871 1113.09 203.166 1115.08 203.46C1117.07 203.754 1119.64 204.049 1122.81 204.343C1127.74 204.711 1131.75 205.594 1134.84 206.993C1137.93 208.391 1140.21 210.268 1141.69 212.623C1143.16 214.978 1143.89 217.812 1143.89 221.124C1143.89 224.362 1142.97 227.417 1141.13 230.287C1139.37 233.158 1136.64 235.513 1132.96 237.353C1129.28 239.193 1124.57 240.113 1118.83 240.113ZM1118.83 197.83C1114.2 197.83 1110.18 196.946 1106.8 195.18C1103.49 193.34 1100.95 190.911 1099.18 187.894C1097.42 184.802 1096.53 181.417 1096.53 177.737C1096.53 173.983 1097.42 170.598 1099.18 167.58C1100.95 164.562 1103.49 162.134 1106.8 160.294C1110.18 158.454 1114.2 157.534 1118.83 157.534C1123.47 157.534 1127.44 158.454 1130.76 160.294C1134.07 162.134 1136.61 164.562 1138.37 167.58C1140.14 170.598 1141.02 173.983 1141.02 177.737C1141.02 181.417 1140.14 184.802 1138.37 187.894C1136.61 190.911 1134.07 193.34 1130.76 195.18C1127.44 196.946 1123.47 197.83 1118.83 197.83ZM1118.83 187.562C1122 187.562 1124.54 186.716 1126.45 185.023C1128.36 183.33 1129.32 180.902 1129.32 177.737C1129.32 174.572 1128.36 172.18 1126.45 170.561C1124.54 168.868 1122 168.022 1118.83 168.022C1115.67 168.022 1113.09 168.868 1111.1 170.561C1109.12 172.18 1108.12 174.572 1108.12 177.737C1108.12 180.902 1109.12 183.33 1111.1 185.023C1113.09 186.716 1115.67 187.562 1118.83 187.562ZM1128 168.574L1125.46 158.858H1148.31V167.138L1128 168.574Z" fill="#1B3139"/>
<defs>
<filter id="filter0_dddddd_1119_14818" x="0.713516" y="0.681084" width="556.573" height="556.573" filterUnits="userSpaceOnUse" color-interpolation-filters="sRGB">
<feFlood flood-opacity="0" result="BackgroundImageFix"/>
<feColorMatrix in="SourceAlpha" type="matrix" values="0 0 0 0 0 0 0 0 0 0 0 0 0 0 0 0 0 0 127 0" result="hardAlpha"/>
<feOffset dy="2.83243"/>
<feGaussianBlur stdDeviation="2.12432"/>
<feColorMatrix type="matrix" values="0 0 0 0 0.105882 0 0 0 0 0.192157 0 0 0 0 0.223529 0 0 0 0.0196802 0"/>
<feBlend mode="normal" in2="BackgroundImageFix" result="effect1_dropShadow_1119_14818"/>
<feColorMatrix in="SourceAlpha" type="matrix" values="0 0 0 0 0 0 0 0 0 0 0 0 0 0 0 0 0 0 127 0" result="hardAlpha"/>
<feOffset dy="5.66487"/>
<feGaussianBlur stdDeviation="5.66487"/>
<feColorMatrix type="matrix" values="0 0 0 0 0.105882 0 0 0 0 0.192157 0 0 0 0 0.223529 0 0 0 0.04 0"/>
<feBlend mode="normal" in2="effect1_dropShadow_1119_14818" result="effect2_dropShadow_1119_14818"/>
<feColorMatrix in="SourceAlpha" type="matrix" values="0 0 0 0 0 0 0 0 0 0 0 0 0 0 0 0 0 0 127 0" result="hardAlpha"/>
<feOffset dy="12.7459"/>
<feGaussianBlur stdDeviation="9.20541"/>
<feColorMatrix type="matrix" values="0 0 0 0 0.105882 0 0 0 0 0.192157 0 0 0 0 0.223529 0 0 0 0.035 0"/>
<feBlend mode="normal" in2="effect2_dropShadow_1119_14818" result="effect3_dropShadow_1119_14818"/>
<feColorMatrix in="SourceAlpha" type="matrix" values="0 0 0 0 0 0 0 0 0 0 0 0 0 0 0 0 0 0 127 0" result="hardAlpha"/>
<feOffset dy="22.6595"/>
<feGaussianBlur stdDeviation="16.9946"/>
<feColorMatrix type="matrix" values="0 0 0 0 0.105882 0 0 0 0 0.192157 0 0 0 0 0.223529 0 0 0 0.04 0"/>
<feBlend mode="normal" in2="effect3_dropShadow_1119_14818" result="effect4_dropShadow_1119_14818"/>
<feColorMatrix in="SourceAlpha" type="matrix" values="0 0 0 0 0 0 0 0 0 0 0 0 0 0 0 0 0 0 127 0" result="hardAlpha"/>
<feOffset dy="45.3189"/>
<feGaussianBlur stdDeviation="28.3243"/>
<feColorMatrix type="matrix" values="0 0 0 0 0.105882 0 0 0 0 0.192157 0 0 0 0 0.223529 0 0 0 0.0503198 0"/>
<feBlend mode="normal" in2="effect4_dropShadow_1119_14818" result="effect5_dropShadow_1119_14818"/>
<feColorMatrix in="SourceAlpha" type="matrix" values="0 0 0 0 0 0 0 0 0 0 0 0 0 0 0 0 0 0 127 0" result="hardAlpha"/>
<feOffset dy="101.968"/>
<feGaussianBlur stdDeviation="73.6432"/>
<feColorMatrix type="matrix" values="0 0 0 0 0.105882 0 0 0 0 0.192157 0 0 0 0 0.223529 0 0 0 0.07 0"/>
<feBlend mode="normal" in2="effect5_dropShadow_1119_14818" result="effect6_dropShadow_1119_14818"/>
<feBlend mode="normal" in="SourceGraphic" in2="effect6_dropShadow_1119_14818" result="shape"/>
</filter>
</defs>
</svg>
