<svg width="150" height="150" viewBox="0 0 150 150" fill="none" xmlns="http://www.w3.org/2000/svg">
<path d="M112.4 67.4L118.6 73.5H99.3V76.5H118.6L112.4 82.6L114.6 84.8L124.3 75L114.6 65.2L112.4 67.4Z" fill="#1B3139"/>
<path d="M126.6 31L124.5 33.1L130.7 39.2H98.9C94.8 39.2 91.4 42.6 91.4 46.7V69C91.4 71.5 89.4 73.5 86.9 73.5H80.2V76.5H86.9C91 76.5 94.4 73.1 94.4 69V46.8C94.4 44.3 96.4 42.3 98.9 42.3H130.6L124.4 48.4L126.5 50.5L136.3 40.7L126.6 31Z" fill="#1B3139"/>
<path d="M100.4 101.6L106.6 107.7H79.7C77.2 107.7 75.2 105.7 75.2 103.2V81C75.2 76.9 71.8 73.5 67.7 73.5H31.9C31.2 69.1 27.4 65.8 22.8 65.8C17.7 65.8 13.6 69.9 13.6 75C13.6 80.1 17.7 84.2 22.8 84.2C27.4 84.2 31.1 80.9 31.9 76.5H53.1V104.9C53.1 106.4 51.9 107.7 50.3 107.7H31.9C31.2 103.3 27.4 100 22.8 100C17.7 100 13.6 104.1 13.6 109.2C13.6 114.3 17.7 118.4 22.8 118.4C27.4 118.4 31.1 115.1 31.9 110.7H50.3C53.5 110.7 56.1 108.1 56.1 104.9V76.5H67.7C70.2 76.5 72.2 78.5 72.2 81V103.2C72.2 107.3 75.6 110.7 79.7 110.7H106.6L100.4 116.8L102.5 118.9L112.3 109.1L102.5 99.3L100.4 101.6ZM22.9 81.2C19.5 81.2 16.7 78.4 16.7 75C16.7 71.6 19.5 68.8 22.9 68.8C26.3 68.8 29.1 71.6 29.1 75C29 78.4 26.3 81.2 22.9 81.2ZM22.9 115.4C19.5 115.4 16.7 112.6 16.7 109.2C16.7 105.8 19.5 103 22.9 103C26.3 103 29.1 105.8 29.1 109.2C29 112.6 26.3 115.4 22.9 115.4Z" fill="#1B3139"/>
<path d="M22.9 50C27.5 50 31.2 46.7 32 42.3H50.4C51.9 42.3 53.2 43.5 53.2 45.1V67.4H56.2V45.1C56.2 41.9 53.6 39.3 50.4 39.3H31.9C31.2 34.9 27.4 31.6 22.8 31.6C17.7 31.6 13.6 35.7 13.6 40.8C13.6 45.9 17.8 50 22.9 50ZM22.9 34.6C26.3 34.6 29.1 37.4 29.1 40.8C29.1 44.2 26.3 47 22.9 47C19.5 47 16.7 44.2 16.7 40.8C16.7 37.4 19.4 34.6 22.9 34.6Z" fill="#1B3139"/>
</svg>
