<svg width="150" height="150" viewBox="0 0 150 150" fill="none" xmlns="http://www.w3.org/2000/svg">
<g clip-path="url(#clip0_5483_2014)">
<path d="M75 85.2999C78.993 85.2999 82.23 82.0629 82.23 78.0698C82.23 74.0768 78.993 70.8398 75 70.8398C71.007 70.8398 67.77 74.0768 67.77 78.0698C67.77 82.0629 71.007 85.2999 75 85.2999Z" stroke="#FF5F46" stroke-width="3" stroke-miterlimit="3" stroke-linecap="square"/>
<path d="M22.1 93.1802C26.093 93.1802 29.33 89.9432 29.33 85.9502C29.33 81.9572 26.093 78.7202 22.1 78.7202C18.107 78.7202 14.87 81.9572 14.87 85.9502C14.87 89.9432 18.107 93.1802 22.1 93.1802Z" stroke="#FF5F46" stroke-width="3" stroke-miterlimit="3" stroke-linecap="square"/>
<path d="M94.63 35.5498C98.623 35.5498 101.86 32.3129 101.86 28.3198C101.86 24.3268 98.623 21.0898 94.63 21.0898C90.637 21.0898 87.4 24.3268 87.4 28.3198C87.4 32.3129 90.637 35.5498 94.63 35.5498Z" stroke="#FF5F46" stroke-width="3" stroke-miterlimit="3" stroke-linecap="square"/>
<path d="M108.28 127.17C112.273 127.17 115.51 123.933 115.51 119.94C115.51 115.947 112.273 112.71 108.28 112.71C104.287 112.71 101.05 115.947 101.05 119.94C101.05 123.933 104.287 127.17 108.28 127.17Z" stroke="#FF5F46" stroke-width="3" stroke-miterlimit="3" stroke-linecap="square"/>
<path d="M91.97 35.04L77.65 71.35" stroke="#FF5F46" stroke-width="3" stroke-miterlimit="3" stroke-linecap="square"/>
<path d="M79.5 83.73L103.78 114.29" stroke="#FF5F46" stroke-width="3" stroke-miterlimit="3" stroke-linecap="square"/>
<path d="M67.85 79.1401L29.25 84.8901" stroke="#FF5F46" stroke-width="3" stroke-miterlimit="3" stroke-linecap="square"/>
<path d="M21.52 78.7201C21.52 78.5001 21.52 78.2901 21.52 78.0701C21.52 48.5301 45.47 24.5801 75.01 24.5801" stroke="#FF5F46" stroke-width="3" stroke-miterlimit="3" stroke-linecap="square"/>
<path d="M102.33 124.06C94.3301 128.82 84.9901 131.56 75.0001 131.56C55.2101 131.56 37.9201 120.81 28.6801 104.83" stroke="#FF5F46" stroke-width="3" stroke-miterlimit="3" stroke-linecap="square"/>
<path d="M101.16 31.4102C117.47 40.5702 128.48 58.0302 128.48 78.0702C128.48 87.8102 125.88 96.9502 121.32 104.81" stroke="#FF5F46" stroke-width="3" stroke-miterlimit="3" stroke-linecap="square"/>
<path d="M65.04 32.0701L76.12 24.5901L65.04 17.1001" stroke="#FF5F46" stroke-width="3" stroke-miterlimit="3" stroke-linecap="square"/>
<path d="M119.82 92.4502L120.76 105.79L132.78 99.9302" stroke="#FF5F46" stroke-width="3" stroke-miterlimit="3" stroke-linecap="square"/>
<path d="M40.1401 109.69L28.1101 103.84L27.1801 117.18" stroke="#FF5F46" stroke-width="3" stroke-miterlimit="3" stroke-linecap="square"/>
</g>
<defs>
<clipPath id="clip0_5483_2014">
<rect width="150" height="150" fill="white"/>
</clipPath>
</defs>
</svg>
