<svg width="150" height="150" viewBox="0 0 150 150" fill="none" xmlns="http://www.w3.org/2000/svg">
<g clip-path="url(#clip0_1_2203)">
<path d="M75 85.3001C78.993 85.3001 82.23 82.0631 82.23 78.0701C82.23 74.0771 78.993 70.8401 75 70.8401C71.007 70.8401 67.77 74.0771 67.77 78.0701C67.77 82.0631 71.007 85.3001 75 85.3001Z" stroke="white" stroke-width="3" stroke-miterlimit="3" stroke-linecap="square"/>
<path d="M22.1 93.18C26.093 93.18 29.33 89.943 29.33 85.95C29.33 81.9569 26.093 78.72 22.1 78.72C18.107 78.72 14.87 81.9569 14.87 85.95C14.87 89.943 18.107 93.18 22.1 93.18Z" stroke="white" stroke-width="3" stroke-miterlimit="3" stroke-linecap="square"/>
<path d="M94.63 35.5501C98.623 35.5501 101.86 32.3131 101.86 28.3201C101.86 24.3271 98.623 21.0901 94.63 21.0901C90.637 21.0901 87.4 24.3271 87.4 28.3201C87.4 32.3131 90.637 35.5501 94.63 35.5501Z" stroke="white" stroke-width="3" stroke-miterlimit="3" stroke-linecap="square"/>
<path d="M108.28 127.17C112.273 127.17 115.51 123.933 115.51 119.94C115.51 115.947 112.273 112.71 108.28 112.71C104.287 112.71 101.05 115.947 101.05 119.94C101.05 123.933 104.287 127.17 108.28 127.17Z" stroke="white" stroke-width="3" stroke-miterlimit="3" stroke-linecap="square"/>
<path d="M91.97 35.04L77.65 71.35" stroke="white" stroke-width="3" stroke-miterlimit="3" stroke-linecap="square"/>
<path d="M79.5 83.73L103.78 114.29" stroke="white" stroke-width="3" stroke-miterlimit="3" stroke-linecap="square"/>
<path d="M67.85 79.1399L29.25 84.8899" stroke="white" stroke-width="3" stroke-miterlimit="3" stroke-linecap="square"/>
<path d="M21.52 78.7201C21.52 78.5001 21.52 78.2901 21.52 78.0701C21.52 48.5301 45.47 24.5801 75.01 24.5801" stroke="white" stroke-width="3" stroke-miterlimit="3" stroke-linecap="square"/>
<path d="M102.33 124.06C94.33 128.82 84.99 131.56 75 131.56C55.21 131.56 37.92 120.81 28.68 104.83" stroke="white" stroke-width="3" stroke-miterlimit="3" stroke-linecap="square"/>
<path d="M101.16 31.4099C117.47 40.5699 128.48 58.0299 128.48 78.0699C128.48 87.8099 125.88 96.9499 121.32 104.81" stroke="white" stroke-width="3" stroke-miterlimit="3" stroke-linecap="square"/>
<path d="M65.04 32.0701L76.12 24.5901L65.04 17.1001" stroke="white" stroke-width="3" stroke-miterlimit="3" stroke-linecap="square"/>
<path d="M119.82 92.45L120.76 105.79L132.78 99.93" stroke="white" stroke-width="3" stroke-miterlimit="3" stroke-linecap="square"/>
<path d="M40.14 109.69L28.11 103.84L27.18 117.18" stroke="white" stroke-width="3" stroke-miterlimit="3" stroke-linecap="square"/>
</g>
<defs>
<clipPath id="clip0_1_2203">
<rect width="150" height="150" fill="white"/>
</clipPath>
</defs>
</svg>
