<svg width="150" height="150" viewBox="0 0 150 150" fill="none" xmlns="http://www.w3.org/2000/svg">
<g clip-path="url(#clip0_1_1986)">
<path d="M80.2 24.4999C79.1 22.5999 77 21.3999 74.8 21.3999C72.6 21.3999 70.5 22.5999 69.4 24.4999L28.6 95.1999C28.2 95.9999 28.3 96.9999 28.9 97.5999C29.5 98.1999 30.4 98.3999 31.2 98.0999C39.4 94.4999 48.2 92.4999 57.2 92.2999C63.1 92.1999 69 93.6999 74.2 96.4999L75.7 93.8999C70.8 90.9999 63.7 89.1999 57.1 89.1999C48.7 89.3999 40.4 91.0999 32.5 94.1999L71.9 25.9999C72.5 24.9999 73.6 24.3999 74.7 24.3999C75.9 24.3999 76.9 24.9999 77.5 25.9999L127.7 110.2C129 112.3 128.6 115.1 126.7 116.8C122.2 120.8 113.9 125.6 99.9 125.6C87.3 125.6 80.5 121.6 73.9 117.8C68.4 114.6 62.8 111.3 54.2 110.6C41.5 109.6 28.4 115.3 22.2 118.2C29.8 107.9 41.6 101.6 54.3 100.7C65.3 99.9999 70.7 103.2 76.4 106.6C81.8 109.8 87.3 113.1 97.5 113.1C101.4 113.1 105.2 112.4 108.8 111.1C110.3 110.6 111.2 108.9 110.6 107.4C110.5 107.2 110.4 107 110.3 106.8L77.6 51.1999C77.1 50.2999 76.1 49.6999 75 49.6999C73.9 49.6999 72.9 50.2999 72.3 51.1999L56.5 78.8999C55.7 80.3999 56.2 82.1999 57.6 83.0999C57.9 83.2999 58.2 83.3999 58.5 83.3999C65.1 84.5999 71.4 87.1999 77 90.9999L78.7 88.4999C72.9 84.3999 66.2 81.6999 59.2 80.3999V80.2999L75 52.5999H75.1L108 108.3C104.7 109.5 101.2 110.1 97.6 110.1C88.2 110.1 83.3 107.1 78 104C72.1 100.5 66.1 96.8999 54.2 97.5999C36.2 98.6999 23.2 110.4 18.8 117.9C18.1 119.1 18.5 120.6 19.7 121.3C20.4 121.7 21.3 121.8 22.1 121.4C27.3 118.9 41.1 112.3 54.1 113.4C62 114 67.1 117 72.6 120.2C79.5 124.2 86.7 128.4 100.1 128.4C115 128.4 124 123.2 128.9 118.9C131.8 116.3 132.5 111.9 130.5 108.6L80.2 24.4999Z" fill="white"/>
</g>
<defs>
<clipPath id="clip0_1_1986">
<rect width="150" height="150" fill="white"/>
</clipPath>
</defs>
</svg>
