<svg width="150" height="150" viewBox="0 0 150 150" fill="none" xmlns="http://www.w3.org/2000/svg">
<path d="M28 32.2708C30.2084 29.6701 33.5989 28 37.4 28C41.201 28 44.5916 29.6701 46.8 32.2708C49.0084 34.8716 52.3989 36.5417 56.2 36.5417C60.001 36.5417 63.3916 34.8716 65.6 32.2708C67.8084 29.6701 71.199 28 75 28C78.801 28 82.1916 29.6701 84.4 32.2708C86.6084 34.8716 89.9989 36.5417 93.8 36.5417C97.601 36.5417 100.992 34.8716 103.2 32.2708C105.408 29.6701 108.799 28 112.6 28C116.401 28 119.792 29.6701 122 32.2708V49.3625C119.792 46.7618 116.401 45.0917 112.6 45.0917C108.799 45.0917 105.408 46.7618 103.2 49.3625C100.992 51.9632 97.601 53.6333 93.8 53.6333C89.9989 53.6333 86.6084 51.9632 84.4 49.3625C82.1916 46.7618 78.801 45.0917 75 45.0917C71.199 45.0917 67.8084 46.7618 65.6 49.3625C63.3916 51.9632 60.001 53.6333 56.2 53.6333C52.3989 53.6333 49.0084 51.9632 46.8 49.3625C44.5916 46.7618 41.201 45.0917 37.4 45.0917C33.5989 45.0917 30.2084 46.7618 28 49.3625V66.4542C30.2084 63.8534 33.5989 62.1833 37.4 62.1833C41.201 62.1833 44.5916 63.8534 46.8 66.4542C49.0084 69.0549 52.3989 70.725 56.2 70.725C60.001 70.725 63.3916 69.0549 65.6 66.4542C67.8084 63.8534 71.199 62.1833 75 62.1833C78.801 62.1833 82.1916 63.8534 84.4 66.4542C86.6084 69.0549 89.9989 70.725 93.8 70.725C97.601 70.725 100.992 69.0549 103.2 66.4542C105.408 63.8534 108.799 62.1833 112.6 62.1833C116.401 62.1833 119.792 63.8534 122 66.4542V83.5458C119.792 80.9451 116.401 79.275 112.6 79.275C108.799 79.275 105.408 80.9451 103.2 83.5458C100.992 86.1466 97.601 87.8167 93.8 87.8167C89.9989 87.8167 86.6084 86.1466 84.4 83.5458C82.1916 80.9451 78.801 79.275 75 79.275C71.199 79.275 67.8084 80.9451 65.6 83.5458C63.3916 86.1466 60.001 87.8167 56.2 87.8167C52.3989 87.8167 49.0084 86.1466 46.8 83.5458C44.5916 80.9451 41.201 79.275 37.4 79.275C33.5989 79.275 30.2084 80.9451 28 83.5458V100.638C30.2084 98.0368 33.5989 96.3667 37.4 96.3667C41.201 96.3667 44.5916 98.0368 46.8 100.638C49.0084 103.238 52.3989 104.908 56.2 104.908C60.001 104.908 63.3916 103.238 65.6 100.638C67.8084 98.0368 71.199 96.3667 75 96.3667C78.801 96.3667 82.1916 98.0368 84.4 100.638C86.6084 103.238 89.9989 104.908 93.8 104.908C97.601 104.908 100.992 103.238 103.2 100.638C105.408 98.0368 108.799 96.3667 112.6 96.3667C116.401 96.3667 119.792 98.0368 122 100.638V117.729C119.792 115.128 116.401 113.458 112.6 113.458C108.799 113.458 105.408 115.128 103.2 117.729C100.992 120.33 97.601 122 93.8 122C89.9989 122 86.6084 120.33 84.4 117.729C82.1916 115.128 78.801 113.458 75 113.458C71.199 113.458 67.8084 115.128 65.6 117.729C63.3916 120.33 60.001 122 56.2 122C52.3989 122 49.0084 120.33 46.8 117.729C44.5916 115.128 41.201 113.458 37.4 113.458C33.5989 113.458 30.2084 115.128 28 117.729" stroke="white" stroke-width="3" stroke-miterlimit="1" stroke-linecap="square"/>
</svg>
