<svg width="150" height="150" viewBox="0 0 150 150" fill="none" xmlns="http://www.w3.org/2000/svg">
<g clip-path="url(#clip0_214_435)">
<path d="M80.2 24.5C79.1 22.6 77 21.4 74.8 21.4C72.6 21.4 70.5 22.6 69.4 24.5L28.6 95.2C28.2 96 28.3 97 28.9 97.6C29.5 98.2 30.4 98.4 31.2 98.1C39.4 94.5 48.2 92.5 57.2 92.3C63.1 92.2 69 93.7 74.2 96.5L75.7 93.9C70.8 91 63.7 89.2 57.1 89.2C48.7 89.4 40.4 91.1 32.5 94.2L71.9 26C72.5 25 73.6 24.4 74.7 24.4C75.9 24.4 76.9 25 77.5 26L127.7 110.2C129 112.3 128.6 115.1 126.7 116.8C122.2 120.8 113.9 125.6 99.9 125.6C87.3 125.6 80.5 121.6 73.9 117.8C68.4 114.6 62.8 111.3 54.2 110.6C41.5 109.6 28.4 115.3 22.2 118.2C29.8 107.9 41.6 101.6 54.3 100.7C65.3 100 70.7 103.2 76.4 106.6C81.8 109.8 87.3 113.1 97.5 113.1C101.4 113.1 105.2 112.4 108.8 111.1C110.3 110.6 111.2 108.9 110.6 107.4C110.5 107.2 110.4 107 110.3 106.8L77.6 51.2C77.1 50.3 76.1 49.7 75 49.7C73.9 49.7 72.9 50.3 72.3 51.2L56.5 78.9C55.7 80.4 56.2 82.2 57.6 83.1C57.9 83.3 58.2 83.4 58.5 83.4C65.1 84.6 71.4 87.2 77 91L78.7 88.5C72.9 84.4 66.2 81.7 59.2 80.4V80.3L75 52.6H75.1L108 108.3C104.7 109.5 101.2 110.1 97.6 110.1C88.2 110.1 83.3 107.1 78 104C72.1 100.5 66.1 96.9 54.2 97.6C36.2 98.7 23.2 110.4 18.8 117.9C18.1 119.1 18.5 120.6 19.7 121.3C20.4 121.7 21.3 121.8 22.1 121.4C27.3 118.9 41.1 112.3 54.1 113.4C62 114 67.1 117 72.6 120.2C79.5 124.2 86.7 128.4 100.1 128.4C115 128.4 124 123.2 128.9 118.9C131.8 116.3 132.5 111.9 130.5 108.6L80.2 24.5Z" fill="#FF5F46"/>
</g>
<defs>
<clipPath id="clip0_214_435">
<rect width="150" height="150" fill="white"/>
</clipPath>
</defs>
</svg>
