<svg width="150" height="150" viewBox="0 0 150 150" fill="none" xmlns="http://www.w3.org/2000/svg">
<path d="M74.9998 47.2817C100.405 47.2817 121 43.3671 121 38.5381C121 33.7091 100.405 29.7944 74.9998 29.7944C49.5946 29.7944 28.9996 33.7091 28.9996 38.5381C28.9996 43.3671 49.5946 47.2817 74.9998 47.2817Z" stroke="#FF5F46" stroke-width="3" stroke-miterlimit="3" stroke-linecap="square"/>
<path d="M121 39.563V53.1589C121 57.9871 100.406 61.9025 74.9998 61.9025C49.5936 61.9025 28.9996 57.9871 28.9996 53.1589V67.7796C28.9996 72.6079 49.5936 76.5233 74.9998 76.5233C100.406 76.5233 121 72.6079 121 67.7796V82.4004C121 87.2286 100.406 91.1441 74.9998 91.1441C49.5936 91.1441 28.9996 87.2286 28.9996 82.4004V97.0212C28.9996 101.849 49.5936 105.765 74.9998 105.765C100.406 105.765 121 101.849 121 97.0212V111.642C121 116.47 100.406 120.386 74.9998 120.386C49.5936 120.386 28.9996 116.47 28.9996 111.642V108.207" stroke="#FF5F46" stroke-width="3" stroke-miterlimit="3" stroke-linecap="square"/>
</svg>
