<svg width="150" height="150" viewBox="0 0 150 150" fill="none" xmlns="http://www.w3.org/2000/svg">
<g clip-path="url(#clip0_1_1985)">
<g clip-path="url(#clip1_1_1985)">
<path d="M74.9 25C63.9 25 53.79 26.57 47.23 29.32C42.43 31.32 40 33.78 40 36.62C40 38.45 41.1 41.13 46.35 43.55L46.53 43.63L47.22 43.93C47.98 44.26 48.83 44.57 49.9 44.93C56.46 47.08 65.34 48.26 74.9 48.26C82.6522 48.3431 90.3827 47.4255 97.9 45.53V67.79C91.84 69.61 83.53 70.7 74.9 70.7C65.8 70.7 57.03 69.54 50.84 67.51L48.84 66.87V95.36L49.9 95.7C56.46 97.85 65.34 99.03 74.9 99.03C82.6528 99.1125 90.3836 98.1915 97.9 96.29V118.55C91.81 120.37 83.5 121.41 74.9 121.41C65.78 121.41 57.01 120.25 50.83 118.22C50 117.95 49.2 117.66 48.39 117.32C44.97 115.88 43 114.22 43 112.77V105.32C44.0331 106.088 45.1463 106.742 46.32 107.27L47.21 107.66C47.96 107.98 48.81 108.3 49.9 108.66C56.37 110.77 65.48 111.98 74.9 111.98C80.3957 112.001 85.884 111.573 91.31 110.7L90.81 107.7C85.5508 108.563 80.2295 108.991 74.9 108.98C65.8 108.98 57.02 107.82 50.84 105.81C49.84 105.48 49.08 105.19 48.38 104.89C48.1 104.78 47.85 104.67 47.59 104.55C44.72 103.22 43.06 101.72 43.01 100.41V54.7C44.0433 55.4816 45.1561 56.1519 46.33 56.7L47.22 57.09C47.97 57.41 48.82 57.73 49.9 58.09C56.38 60.2 65.49 61.41 74.9 61.41C80.396 61.4279 85.8843 60.9964 91.31 60.12L90.81 57.12C85.5489 57.9596 80.2276 58.3643 74.9 58.33C65.79 58.33 57.02 57.17 50.84 55.16C49.84 54.83 49.08 54.54 48.38 54.24C48.1 54.13 47.85 54.02 47.59 53.9C44.72 52.57 43.06 51.06 43.01 49.76V49.7H40.01C40.01 49.7 40.01 49.76 40.01 49.8V100.35C40.01 100.35 40.01 100.41 40.01 100.45V112.77C40.01 115.61 42.44 118.07 47.24 120.08C48.12 120.45 49.02 120.78 49.91 121.08C56.47 123.23 65.35 124.41 74.91 124.41C84.47 124.41 93.36 123.23 99.91 121.08L100.91 120.74V92.2L98.91 92.84C92.72 94.84 83.91 96.03 74.85 96.03C66.23 96.03 57.92 95.03 51.85 93.17V70.91C59.3801 72.834 67.1283 73.7718 74.9 73.7C84.47 73.7 93.35 72.52 99.9 70.37L100.9 70.03V41.44L98.9 42.08C92.73 44.08 83.96 45.26 74.84 45.26C65.72 45.26 57.01 44.1 50.84 42.08C49.84 41.75 49.08 41.46 48.37 41.16L47.75 40.89L47.59 40.82C44.67 39.47 43 37.94 43 36.62C43 35.3 45 33.52 48.39 32.08C54.5 29.53 64.39 28 74.9 28C94.66 28 106.8 33 106.8 36.63V75.1C106.8 76.42 105.13 77.95 102.21 79.3L101.38 79.66C100.72 79.95 99.95 80.23 98.97 80.55C92.78 82.57 84 83.7 74.9 83.7C69.5713 83.7211 64.25 83.303 58.99 82.45L58.49 85.45C63.9168 86.313 69.4051 86.7311 74.9 86.7C84.31 86.7 93.42 85.49 99.9 83.38C100.98 83.02 101.83 82.7 102.54 82.38C102.86 82.25 103.17 82.12 103.47 81.98C104.65 81.438 105.767 80.7673 106.8 79.98V115.77H109.8V36.63C109.8 29.08 91.82 25 74.9 25Z" fill="#1B3139"/>
</g>
</g>
<defs>
<clipPath id="clip0_1_1985">
<rect width="150" height="150" fill="white"/>
</clipPath>
<clipPath id="clip1_1_1985">
<rect width="69.8" height="99.41" fill="white" transform="translate(40 25)"/>
</clipPath>
</defs>
</svg>
