<svg width="150" height="150" viewBox="0 0 150 150" fill="none" xmlns="http://www.w3.org/2000/svg">
<path d="M75 36.54V45.51H82.26V50.68C83.67 51.12 85.01 51.69 86.3 52.36L89.96 48.7L100.23 58.97L96.5701 62.63C97.2401 63.91 97.81 65.26 98.25 66.67H103.42" stroke="#1B3139" stroke-width="3" stroke-miterlimit="3" stroke-linecap="square"/>
<path d="M75 30.5801C78.4518 30.5801 81.25 27.7819 81.25 24.3301C81.25 20.8783 78.4518 18.0801 75 18.0801C71.5482 18.0801 68.75 20.8783 68.75 24.3301C68.75 27.7819 71.5482 30.5801 75 30.5801Z" stroke="#1B3139" stroke-width="3" stroke-miterlimit="3" stroke-linecap="square"/>
<path d="M61.6201 41.3598V29.8898C61.6201 26.8198 59.1301 24.3398 56.0701 24.3398H54.0901" stroke="#1B3139" stroke-width="3" stroke-miterlimit="3" stroke-linecap="square"/>
<path d="M46.72 30.5801C50.1718 30.5801 52.97 27.7819 52.97 24.3301C52.97 20.8783 50.1718 18.0801 46.72 18.0801C43.2682 18.0801 40.47 20.8783 40.47 24.3301C40.47 27.7819 43.2682 30.5801 46.72 30.5801Z" stroke="#1B3139" stroke-width="3" stroke-miterlimit="3" stroke-linecap="square"/>
<path d="M88.3799 41.3598V29.8898C88.3799 26.8198 90.8699 24.3398 93.9299 24.3398H95.9099" stroke="#1B3139" stroke-width="3" stroke-miterlimit="3" stroke-linecap="square"/>
<path d="M103.28 30.5801C106.732 30.5801 109.53 27.7819 109.53 24.3301C109.53 20.8783 106.732 18.0801 103.28 18.0801C99.8282 18.0801 97.03 20.8783 97.03 24.3301C97.03 27.7819 99.8282 30.5801 103.28 30.5801Z" stroke="#1B3139" stroke-width="3" stroke-miterlimit="3" stroke-linecap="square"/>
<path d="M75 111.3V102.33H67.74V97.1599C66.33 96.7199 64.99 96.1499 63.7 95.4799L60.04 99.1399L49.77 88.8699L53.4299 85.2099C52.7599 83.9299 52.19 82.5799 51.75 81.1699H46.5801" stroke="#1B3139" stroke-width="3" stroke-miterlimit="3" stroke-linecap="square"/>
<path d="M75 129.77C78.4518 129.77 81.25 126.972 81.25 123.52C81.25 120.068 78.4518 117.27 75 117.27C71.5482 117.27 68.75 120.068 68.75 123.52C68.75 126.972 71.5482 129.77 75 129.77Z" stroke="#1B3139" stroke-width="3" stroke-miterlimit="3" stroke-linecap="square"/>
<path d="M61.6201 106.49V117.96C61.6201 121.03 59.1301 123.51 56.0701 123.51H54.0901" stroke="#1B3139" stroke-width="3" stroke-miterlimit="3" stroke-linecap="square"/>
<path d="M46.72 129.77C50.1718 129.77 52.97 126.972 52.97 123.52C52.97 120.068 50.1718 117.27 46.72 117.27C43.2682 117.27 40.47 120.068 40.47 123.52C40.47 126.972 43.2682 129.77 46.72 129.77Z" stroke="#1B3139" stroke-width="3" stroke-miterlimit="3" stroke-linecap="square"/>
<path d="M88.3799 106.49V117.96C88.3799 121.03 90.8699 123.51 93.9299 123.51H95.9099" stroke="#1B3139" stroke-width="3" stroke-miterlimit="3" stroke-linecap="square"/>
<path d="M103.28 129.77C106.732 129.77 109.53 126.972 109.53 123.52C109.53 120.068 106.732 117.27 103.28 117.27C99.8282 117.27 97.03 120.068 97.03 123.52C97.03 126.972 99.8282 129.77 103.28 129.77Z" stroke="#1B3139" stroke-width="3" stroke-miterlimit="3" stroke-linecap="square"/>
<path d="M112.38 73.9199H103.41V81.1799H98.24C97.8 82.5899 97.2301 83.9299 96.5601 85.2199L100.22 88.8799L89.95 99.1499L86.29 95.4899C85.01 96.1599 83.66 96.7299 82.25 97.1699V102.34" stroke="#1B3139" stroke-width="3" stroke-miterlimit="3" stroke-linecap="square"/>
<path d="M124.59 80.1699C128.042 80.1699 130.84 77.3717 130.84 73.9199C130.84 70.4681 128.042 67.6699 124.59 67.6699C121.138 67.6699 118.34 70.4681 118.34 73.9199C118.34 77.3717 121.138 80.1699 124.59 80.1699Z" stroke="#1B3139" stroke-width="3" stroke-miterlimit="3" stroke-linecap="square"/>
<path d="M107.57 60.5398H119.04C122.11 60.5398 124.59 58.0498 124.59 54.9898V53.0098" stroke="#1B3139" stroke-width="3" stroke-miterlimit="3" stroke-linecap="square"/>
<path d="M124.59 51.8901C128.042 51.8901 130.84 49.0919 130.84 45.6401C130.84 42.1884 128.042 39.3901 124.59 39.3901C121.138 39.3901 118.34 42.1884 118.34 45.6401C118.34 49.0919 121.138 51.8901 124.59 51.8901Z" stroke="#1B3139" stroke-width="3" stroke-miterlimit="3" stroke-linecap="square"/>
<path d="M107.57 87.3101H119.04C122.11 87.3101 124.59 89.8001 124.59 92.8601V94.8401" stroke="#1B3139" stroke-width="3" stroke-miterlimit="3" stroke-linecap="square"/>
<path d="M124.59 108.45C128.042 108.45 130.84 105.652 130.84 102.2C130.84 98.7484 128.042 95.9502 124.59 95.9502C121.138 95.9502 118.34 98.7484 118.34 102.2C118.34 105.652 121.138 108.45 124.59 108.45Z" stroke="#1B3139" stroke-width="3" stroke-miterlimit="3" stroke-linecap="square"/>
<path d="M37.6201 73.92H46.5901V66.66H51.76C52.2 65.25 52.7699 63.91 53.4399 62.62L49.78 58.96L60.05 48.69L63.71 52.35C64.99 51.68 66.34 51.11 67.75 50.67V45.5" stroke="#1B3139" stroke-width="3" stroke-miterlimit="3" stroke-linecap="square"/>
<path d="M25.4099 80.1699C28.8617 80.1699 31.6599 77.3717 31.6599 73.9199C31.6599 70.4681 28.8617 67.6699 25.4099 67.6699C21.9581 67.6699 19.1599 70.4681 19.1599 73.9199C19.1599 77.3717 21.9581 80.1699 25.4099 80.1699Z" stroke="#1B3139" stroke-width="3" stroke-miterlimit="3" stroke-linecap="square"/>
<path d="M42.4299 60.5398H30.96C27.89 60.5398 25.4099 58.0498 25.4099 54.9898V53.0098" stroke="#1B3139" stroke-width="3" stroke-miterlimit="3" stroke-linecap="square"/>
<path d="M25.4099 51.8901C28.8617 51.8901 31.6599 49.0919 31.6599 45.6401C31.6599 42.1884 28.8617 39.3901 25.4099 39.3901C21.9581 39.3901 19.1599 42.1884 19.1599 45.6401C19.1599 49.0919 21.9581 51.8901 25.4099 51.8901Z" stroke="#1B3139" stroke-width="3" stroke-miterlimit="3" stroke-linecap="square"/>
<path d="M42.4299 87.3101H30.96C27.89 87.3101 25.4099 89.8001 25.4099 92.8601V94.8401" stroke="#1B3139" stroke-width="3" stroke-miterlimit="3" stroke-linecap="square"/>
<path d="M25.4099 108.45C28.8617 108.45 31.6599 105.652 31.6599 102.2C31.6599 98.7484 28.8617 95.9502 25.4099 95.9502C21.9581 95.9502 19.1599 98.7484 19.1599 102.2C19.1599 105.652 21.9581 108.45 25.4099 108.45Z" stroke="#1B3139" stroke-width="3" stroke-miterlimit="3" stroke-linecap="square"/>
<path d="M75 85.6699C81.4893 85.6699 86.75 80.4093 86.75 73.9199C86.75 67.4306 81.4893 62.1699 75 62.1699C68.5107 62.1699 63.25 67.4306 63.25 73.9199C63.25 80.4093 68.5107 85.6699 75 85.6699Z" stroke="#1B3139" stroke-width="3" stroke-miterlimit="3" stroke-linecap="square"/>
</svg>
