<svg width="150" height="150" viewBox="0 0 150 150" fill="none" xmlns="http://www.w3.org/2000/svg">
<path d="M116.22 53.42C113.22 53.15 109.1 51.8 104.74 50.37C99.04 48.5 93.14 46.57 88.42 46.57C83.2682 46.7236 78.2833 48.4317 74.12 51.47C69.9576 48.43 64.9721 46.7218 59.82 46.57C55.1 46.57 49.2 48.5 43.5 50.37C41.41 51.05 39.38 51.72 37.5 52.26C40.43 49.1 42.23 44.26 42.84 37.86C44.36 22.01 35.19 15.92 34.84 15.67L32.73 14.32L32.54 16.82C32.54 16.89 31.94 23.76 26.26 31.82C22.03 37.82 21.77 43.28 22.26 46.82L22.59 48.19L23.86 48.09C32.14 47.45 35.5 36.78 35.64 36.33L32.78 35.45C32.78 35.53 30.31 43.2 25.08 44.83C24.9804 40.7818 26.2487 36.8183 28.68 33.58C31.6444 29.4454 33.7897 24.7814 35 19.84C37.29 22.32 40.78 27.84 39.84 37.58C39.2 44.34 37.2 49.02 33.9 51.48C32.119 52.8141 29.9209 53.47 27.7 53.33C26.146 53.1575 24.6079 52.8633 23.1 52.45L20.76 51.75L21.19 54.15C21.19 54.28 23.42 66.61 24.77 75.65L27.77 75.21C26.77 68.45 25.28 59.88 24.57 55.88C25.16 55.99 25.85 56.11 26.57 56.21L27.18 56.29C28.8783 56.5025 30.5937 56.5427 32.3 56.41C35.63 56.11 39.91 54.7 44.44 53.22C49.91 51.42 55.58 49.57 59.82 49.57C67.23 49.57 73.09 54.45 73.15 54.5L74.15 55.32L75.15 54.5C75.21 54.5 81.07 49.57 88.48 49.57C92.73 49.57 98.39 51.42 103.86 53.22C108.39 54.7 112.67 56.11 116.01 56.41C118.602 56.5877 121.206 56.4094 123.75 55.88C123.04 59.88 121.56 68.45 120.55 75.21C118.39 89.38 109.78 96 93.39 96C84.61 96 79.95 93.94 77.59 92.2C76.5847 91.4593 75.3687 91.0597 74.12 91.0597C72.8713 91.0597 71.6553 91.4593 70.65 92.2C68.29 93.94 63.65 96 54.85 96C43.16 96 35.45 92.65 31.28 85.75L30.92 85.18L28.49 84.73V134.09H31.49V91C36.49 96.38 44.22 99 54.85 99C64.44 99 69.7 96.62 72.42 94.62C72.9118 94.26 73.5055 94.066 74.115 94.066C74.7245 94.066 75.3182 94.26 75.81 94.62C78.54 96.62 83.81 99 93.39 99C111.3 99 121.14 91.37 123.46 75.67C124.81 66.67 127.02 54.3 127.04 54.17L127.47 51.77L125.14 52.47C122.238 53.2703 119.225 53.5912 116.22 53.42V53.42Z" fill="white"/>
<path d="M114.09 72.72L114.77 71.78L114.03 70.89C113.8 70.61 108.17 63.97 97.18 63.97C85.94 64 79.76 77 79.5 77.59L79 78.74L80 79.45C80.23 79.62 85.93 83.45 95.92 83.45C106.22 83.45 113.78 73.16 114.09 72.72ZM97.18 67C102.208 66.8953 107.093 68.6793 110.87 72C108.82 74.43 102.97 80.51 95.94 80.51C91.425 80.5824 86.9535 79.6176 82.87 77.69C84.6 74.6 89.68 67 97.18 67Z" fill="white"/>
<path d="M52.3 83.45C62.3 83.45 67.98 79.62 68.22 79.45L69.22 78.74L68.68 77.59C68.48 77 62.3 64 51.06 64C40.06 64 34.44 70.64 34.21 70.92L33.47 71.81L34.15 72.75C34.46 73.16 42 83.45 52.3 83.45ZM51.06 67C58.56 67 63.64 74.63 65.37 77.66C61.284 79.5773 56.8127 80.5317 52.3 80.45C45.3 80.45 39.43 74.38 37.37 71.95C41.161 68.6584 46.0405 66.8941 51.06 67V67Z" fill="white"/>
<path d="M117.51 119.41C116.885 118.224 116.09 117.136 115.15 116.18L113 118.29C114.918 120.212 115.996 122.815 116 125.53H119C119.003 122.818 120.081 120.217 121.999 118.299C123.917 116.381 126.518 115.303 129.23 115.3V112.3C126.52 112.3 123.921 111.225 122.003 109.311C120.085 107.397 119.005 104.8 119 102.09H116C115.997 104.797 114.921 107.392 113.007 109.307C111.092 111.221 108.497 112.297 105.79 112.3V115.3C108.204 115.296 110.57 114.633 112.634 113.382C114.698 112.13 116.381 110.338 117.5 108.2C118.76 110.592 120.716 112.544 123.11 113.8C120.714 115.054 118.76 117.012 117.51 119.41V119.41Z" fill="white"/>
<path d="M92.37 130C91.8521 129.079 91.213 128.231 90.47 127.48L88.34 129.6C89.1434 130.404 89.7805 131.358 90.2146 132.408C90.6488 133.458 90.8715 134.584 90.87 135.72H93.87C93.8726 133.424 94.7859 131.223 96.4094 129.599C98.0329 127.976 100.234 127.063 102.53 127.06V124.06C100.237 124.06 98.037 123.15 96.4135 121.531C94.79 119.911 93.8753 117.713 93.87 115.42H90.87C90.8489 117.701 89.9286 119.882 88.309 121.488C86.6894 123.095 84.5012 123.997 82.22 124V127C84.2857 127 86.3142 126.451 88.0978 125.409C89.8813 124.367 91.3558 122.87 92.37 121.07C93.4205 122.922 94.9553 124.454 96.81 125.5C94.9492 126.569 93.4144 128.125 92.37 130V130Z" fill="white"/>
<path d="M108.59 34.55C107.972 33.3628 107.176 32.277 106.23 31.33L104.1 33.44C105.051 34.3889 105.805 35.5158 106.32 36.7564C106.834 37.997 107.1 39.3269 107.1 40.67H110.1C110.103 37.9577 111.181 35.3572 113.099 33.4392C115.017 31.5213 117.618 30.4427 120.33 30.44V27.44C117.62 27.44 115.021 26.365 113.103 24.4508C111.185 22.5366 110.105 19.9397 110.1 17.23H107.1C107.099 18.5721 106.833 19.9008 106.318 21.1403C105.803 22.3797 105.049 23.5056 104.1 24.4537C103.15 25.4018 102.022 26.1535 100.782 26.6659C99.5413 27.1783 98.2121 27.4413 96.87 27.44V30.44C99.2843 30.4396 101.652 29.7776 103.717 28.5259C105.781 27.2741 107.463 25.4806 108.58 23.34C109.841 25.7342 111.801 27.6875 114.2 28.94C111.801 30.1936 109.844 32.1513 108.59 34.55V34.55Z" fill="white"/>
</svg>
