<svg width="150" height="150" viewBox="0 0 150 150" fill="none" xmlns="http://www.w3.org/2000/svg">
<g clip-path="url(#clip0_14057_490)">
<mask id="mask0_14057_490" style="mask-type:luminance" maskUnits="userSpaceOnUse" x="11" y="11" width="129" height="129">
<path d="M11 11H140V140H11V11Z" fill="white"/>
</mask>
<g mask="url(#mask0_14057_490)">
<path d="M11.3896 92.0371C11.3896 105.891 22.6612 117.163 36.5156 117.163H100.834C101.662 117.163 102.334 116.491 102.334 115.663C102.334 114.835 101.662 114.163 100.834 114.163H36.5156C24.3181 114.163 14.3896 104.235 14.3896 92.0371C14.3897 79.837 24.3182 69.9092 36.5156 69.9092H52.8242C53.6526 69.9092 54.3242 69.2376 54.3242 68.4092C54.3242 67.5808 53.6526 66.9092 52.8242 66.9092H36.5156C22.6612 66.9092 11.3897 78.1803 11.3896 92.0371Z" fill="#FF5F46"/>
<path d="M129.052 52.3408C129.052 60.371 122.515 66.9079 114.485 66.9082H98.1758C97.3474 66.9082 96.6758 67.5798 96.6758 68.4082C96.6758 69.2366 97.3474 69.9082 98.1758 69.9082H114.485C124.172 69.9079 132.052 62.0277 132.052 52.3408C132.052 42.6516 124.172 34.7717 114.485 34.7715H50.874C50.0456 34.7715 49.374 35.4431 49.374 36.2715C49.3741 37.0998 50.0456 37.7715 50.874 37.7715H114.485C122.515 37.7717 129.052 44.3081 129.052 52.3408Z" fill="#FF5F46"/>
<path d="M99.6123 109.604C100.441 109.604 101.112 108.933 101.112 108.104C101.112 107.276 100.441 106.605 99.6123 106.604H67.5889C66.7604 106.604 66.0889 107.276 66.0889 108.104C66.0889 108.933 66.7604 109.604 67.5889 109.604H99.6123Z" fill="#FF5F46"/>
<path d="M18.9482 92.0352C18.9484 101.724 26.8284 109.604 36.5156 109.604H58.7705C59.5988 109.604 60.2705 108.933 60.2705 108.104C60.2705 107.276 59.5988 106.605 58.7705 106.604H36.5156C28.4856 106.604 21.9484 100.068 21.9482 92.0352C21.9482 84.0047 28.4854 77.4678 36.5156 77.4678H52.8242C53.6526 77.4678 54.3242 76.7962 54.3242 75.9678C54.3242 75.1394 53.6526 74.4678 52.8242 74.4678H36.5156C26.8285 74.4678 18.9482 82.3478 18.9482 92.0352Z" fill="#FF5F46"/>
<path d="M136.611 52.3408C136.611 64.5384 126.682 74.4668 114.485 74.4668H98.176C97.3476 74.4668 96.676 75.1384 96.676 75.9668C96.676 76.7952 97.3476 77.4668 98.176 77.4668H114.485C128.339 77.4668 139.611 66.1952 139.611 52.3408C139.611 38.484 128.339 27.2129 114.485 27.2129H51.1213C50.2929 27.2129 49.6213 27.8845 49.6213 28.7129C49.6214 29.5412 50.293 30.2129 51.1213 30.2129H114.485C126.682 30.2129 136.611 40.1407 136.611 52.3408Z" fill="#FF5F46"/>
<path d="M49.9288 32.1583C49.9288 37.3566 46.6393 43.2474 42.5957 48.4522C39.1036 52.9472 35.2289 56.7059 33.0108 58.7315L32.168 59.4903C32.1663 59.4918 32.1655 59.493 32.1651 59.4932H32.1641C32.1633 59.4935 32.1614 59.4942 32.1592 59.4942C32.1569 59.4942 32.1551 59.4935 32.1543 59.4932H32.1534C32.153 59.493 32.1513 59.4919 32.1495 59.4903C30.2 57.765 25.7041 53.589 21.711 48.4522C17.6648 43.2472 14.3773 37.3584 14.3897 32.1622C14.4004 27.7047 16.04 23.6346 18.7461 20.5147C19.289 19.8889 19.2216 18.9413 18.5957 18.3985C17.9699 17.8558 17.0223 17.9231 16.4795 18.5489C13.3189 22.1929 11.4022 26.9527 11.3897 32.1554C11.3748 38.4301 15.2398 45.016 19.3428 50.294C23.4986 55.6398 28.1487 59.9553 30.1612 61.7364C31.3025 62.7469 33.0165 62.7466 34.1573 61.7364L34.1582 61.7354C36.1681 59.9538 40.811 55.6377 44.9639 50.2921C49.0644 45.014 52.9288 38.4304 52.9288 32.1583C52.9286 20.6877 43.6298 11.3888 32.1592 11.3888C29.2912 11.3888 26.5567 11.971 24.0694 13.0255C23.3067 13.3488 22.9502 14.2296 23.2735 14.9923C23.5969 15.7549 24.4776 16.1105 25.2403 15.7872C27.3635 14.8871 29.7002 14.3888 32.1592 14.3888C41.973 14.3888 49.9286 22.3446 49.9288 32.1583Z" fill="#FF5F46"/>
<path d="M40.6418 32.4932C40.6418 37.1777 36.8442 40.9756 32.1594 40.9756C27.4749 40.9756 23.677 37.1777 23.677 32.4932C23.677 27.8084 27.4749 24.0107 32.1594 24.0107C36.8442 24.0108 40.6418 27.8084 40.6418 32.4932ZM43.6418 32.4932C43.6418 26.1515 38.5011 21.0108 32.1594 21.0107C25.818 21.0107 20.677 26.1515 20.677 32.4932C20.677 38.8346 25.818 43.9756 32.1594 43.9756C38.5011 43.9756 43.6418 38.8345 43.6418 32.4932Z" fill="#FF5F46"/>
<path d="M136.61 109.273C136.61 114.471 133.32 120.361 129.276 125.566C125.286 130.702 120.797 134.879 118.849 136.605C118.848 136.606 118.846 136.607 118.846 136.608H118.845C118.844 136.608 118.842 136.609 118.84 136.609C118.838 136.609 118.836 136.608 118.836 136.608H118.835L118.831 136.605C116.881 134.879 112.386 130.703 108.392 125.567C104.346 120.362 101.059 114.473 101.071 109.277C101.095 99.4568 109.03 91.5033 118.841 91.5032C128.654 91.5032 136.61 99.459 136.61 109.273ZM139.61 109.273C139.61 97.8021 130.311 88.5032 118.841 88.5032C107.367 88.5033 98.0988 97.8045 98.0711 109.269C98.0561 115.544 101.92 122.13 106.023 127.408C110.179 132.755 114.83 137.07 116.843 138.851L117.063 139.029C118.197 139.858 119.769 139.797 120.839 138.85C122.849 137.068 127.492 132.752 131.645 127.406C135.746 122.128 139.61 115.545 139.61 109.273Z" fill="#FF5F46"/>
<path d="M127.323 109.608C127.323 114.293 123.526 118.091 118.841 118.091C114.156 118.091 110.358 114.293 110.358 109.608C110.358 104.924 114.156 101.126 118.841 101.126C123.526 101.126 127.323 104.924 127.323 109.608ZM130.323 109.608C130.323 103.267 125.182 98.126 118.841 98.126C112.499 98.126 107.358 103.267 107.358 109.608C107.358 115.95 112.499 121.091 118.841 121.091C125.182 121.091 130.323 115.95 130.323 109.608Z" fill="#FF5F46"/>
<path d="M62.6624 87.0605V93.1631C62.6624 94.4206 61.6407 95.4424 60.3831 95.4424C59.1254 95.4424 58.1038 94.4206 58.1038 93.1631V86.9014C58.1035 86.0731 57.432 85.4014 56.6038 85.4014C55.7755 85.4014 55.104 86.0731 55.1038 86.9014V93.1631C55.1038 96.0774 57.4684 98.4424 60.3831 98.4424C63.2977 98.4424 65.6624 96.0774 65.6624 93.1631V87.0605C65.6624 86.2321 64.9908 85.5605 64.1624 85.5605C63.3339 85.5605 62.6624 86.2321 62.6624 87.0605Z" fill="#FF5F46"/>
<path d="M92.8967 86.9014V93.1631C92.8967 94.4206 91.8751 95.4424 90.6174 95.4424C89.3598 95.4424 88.3381 94.4206 88.3381 93.1631V87.0605C88.3381 86.2321 87.6666 85.5605 86.8381 85.5605C86.0097 85.5605 85.3381 86.2321 85.3381 87.0605V93.1631C85.3381 96.0774 87.7028 98.4424 90.6174 98.4424C93.5321 98.4424 95.8967 96.0774 95.8967 93.1631V86.9014C95.8965 86.0731 95.225 85.4014 94.3967 85.4014C93.5684 85.4014 92.897 86.0731 92.8967 86.9014Z" fill="#FF5F46"/>
<path d="M96.676 82.0215C96.676 83.9761 95.0916 85.5605 93.137 85.5605H57.8635C55.9089 85.5605 54.3245 83.9761 54.3245 82.0215V52.0391C54.3245 50.0844 55.9089 48.5 57.8635 48.5H93.137C95.0916 48.5 96.676 50.0844 96.676 52.0391V82.0215ZM99.676 52.0391C99.676 48.4276 96.7485 45.5 93.137 45.5H57.8635C54.252 45.5 51.3245 48.4276 51.3245 52.0391V82.0215C51.3245 85.633 54.252 88.5605 57.8635 88.5605H93.137C96.7485 88.5605 99.676 85.633 99.676 82.0215V52.0391Z" fill="#FF5F46"/>
<path d="M98.176 69.5996C99.0045 69.5996 99.676 68.928 99.676 68.0996C99.676 67.2712 99.0045 66.5996 98.176 66.5996H52.8245C51.996 66.5996 51.3245 67.2712 51.3245 68.0996C51.3245 68.928 51.996 69.5996 52.8245 69.5996H98.176Z" fill="#FF5F46"/>
<path d="M62.2727 79.4688C61.2306 79.4688 60.3831 78.6212 60.3831 77.5791C60.3831 76.5373 61.2306 75.6895 62.2727 75.6895C63.3148 75.6895 64.1624 76.5373 64.1624 77.5791C64.1624 78.6212 63.3148 79.4688 62.2727 79.4688Z" fill="#FF5F46"/>
<path d="M88.7278 79.4688C87.6855 79.4688 86.8381 78.6212 86.8381 77.5791C86.8381 76.5373 87.6855 75.6895 88.7278 75.6895C89.7701 75.6895 90.6174 76.5373 90.6174 77.5791C90.6174 78.6212 89.7701 79.4688 88.7278 79.4688Z" fill="#FF5F46"/>
<path d="M81.1692 79.0791C81.9976 79.0791 82.6692 78.4075 82.6692 77.5791C82.6692 76.7507 81.9976 76.0791 81.1692 76.0791H69.8313C69.0029 76.0791 68.3313 76.7507 68.3313 77.5791C68.3313 78.4075 69.0029 79.0791 69.8313 79.0791H81.1692Z" fill="#FF5F46"/>
</g>
</g>
<defs>
<clipPath id="clip0_14057_490">
<rect width="129" height="129" fill="white" transform="translate(11 11)"/>
</clipPath>
</defs>
</svg>
