<svg width="150" height="150" viewBox="0 0 150 150" fill="none" xmlns="http://www.w3.org/2000/svg">
<g clip-path="url(#clip0_1_2236)">
<path d="M62.25 115.88H95.61" stroke="#1B3139" stroke-width="3" stroke-miterlimit="3" stroke-linecap="square"/>
<path d="M62.25 123.62H95.61" stroke="#1B3139" stroke-width="3" stroke-miterlimit="3" stroke-linecap="square"/>
<path d="M71.5 131.37H86.35" stroke="#1B3139" stroke-width="3" stroke-miterlimit="3" stroke-linecap="square"/>
<path d="M86.03 86.92V81.92C87.39 81.5 88.69 80.95 89.93 80.3L93.47 83.84L103.4 73.91L99.86 70.37C100.51 69.13 101.06 67.83 101.48 66.47H106.48V52.43H101.48C101.06 51.07 100.51 49.77 99.86 48.53L103.4 44.99L93.47 35.06L89.93 38.6C88.69 37.95 87.39 37.4 86.03 36.98V31.98H79.16" stroke="#1B3139" stroke-width="3" stroke-miterlimit="3" stroke-linecap="square"/>
<path d="M71.98 31.96V36.96C70.62 37.38 69.32 37.9301 68.08 38.5801L64.54 35.0401L54.61 44.9701L58.15 48.51C57.5 49.75 56.95 51.05 56.53 52.41H51.53V66.45H56.53C56.95 67.81 57.5 69.11 58.15 70.35L54.61 73.89L64.54 83.8201L68.08 80.28C69.32 80.93 70.62 81.4801 71.98 81.9001V86.9001H78.92L79.15 108.11H62.23V98.1501C47.46 91.7101 37.13 76.9801 37.13 59.8301C37.13 36.7601 55.84 18.05 78.91 18.05C101.98 18.05 120.69 36.7601 120.69 59.8301C120.69 76.9701 110.36 91.7101 95.59 98.1501V115.86" stroke="#1B3139" stroke-width="3" stroke-miterlimit="3" stroke-linecap="square"/>
<path d="M79 71.89C85.8759 71.89 91.45 66.3159 91.45 59.44C91.45 52.564 85.8759 46.99 79 46.99C72.1241 46.99 66.55 52.564 66.55 59.44C66.55 66.3159 72.1241 71.89 79 71.89Z" stroke="#1B3139" stroke-width="3" stroke-miterlimit="3" stroke-linecap="square"/>
</g>
<defs>
<clipPath id="clip0_1_2236">
<rect width="150" height="150" fill="white"/>
</clipPath>
</defs>
</svg>
