<svg width="150" height="150" viewBox="0 0 150 150" fill="none" xmlns="http://www.w3.org/2000/svg">
<path d="M82.6599 35.8402C84.3499 33.9902 85.3899 31.5302 85.3899 28.8202C85.3899 23.0802 80.7399 18.4302 74.9999 18.4302C69.2599 18.4302 64.6099 23.0802 64.6099 28.8202C64.6099 34.5602 69.2599 39.2102 74.9999 39.2102" stroke="white" stroke-width="3" stroke-miterlimit="3" stroke-linecap="square"/>
<path d="M67.3399 114.16C65.6499 116.01 64.6099 118.47 64.6099 121.18C64.6099 126.92 69.2599 131.57 74.9999 131.57C80.7399 131.57 85.3899 126.92 85.3899 121.18C85.3899 115.44 80.7399 110.79 74.9999 110.79" stroke="white" stroke-width="3" stroke-miterlimit="3" stroke-linecap="square"/>
<path d="M85.0299 81.2202L105.1 93.6502" stroke="white" stroke-width="3" stroke-linecap="square" stroke-linejoin="bevel"/>
<path d="M44.8999 56.3501L65.8499 69.3301" stroke="white" stroke-width="3" stroke-linecap="square" stroke-linejoin="bevel"/>
<path d="M64.2799 80.3002L42.6099 91.0102L74.9999 39.2102V64.6102" stroke="white" stroke-width="3" stroke-linecap="square" stroke-linejoin="bevel"/>
<path d="M74.9999 85.3902V110.79L107.39 58.9902L84.6999 70.2002" stroke="white" stroke-width="3" stroke-linecap="square" stroke-linejoin="bevel"/>
<path d="M74.9999 85.3901C80.7381 85.3901 85.3899 80.7383 85.3899 75.0001C85.3899 69.2619 80.7381 64.6101 74.9999 64.6101C69.2616 64.6101 64.6099 69.2619 64.6099 75.0001C64.6099 80.7383 69.2616 85.3901 74.9999 85.3901Z" stroke="white" stroke-width="3" stroke-miterlimit="3" stroke-linecap="square"/>
<path d="M107.39 58.9903C105.66 57.1303 104.61 54.6503 104.61 51.9103C104.61 46.1703 109.26 41.5203 115 41.5203C120.74 41.5203 125.39 46.1703 125.39 51.9103C125.39 57.6503 120.74 62.3003 115 62.3003V87.7003" stroke="white" stroke-width="3" stroke-miterlimit="3" stroke-linecap="square"/>
<path d="M105.1 93.6502C106.76 90.1302 110.35 87.7002 114.5 87.7002C120.24 87.7002 124.89 92.3502 124.89 98.0902C124.89 103.83 120.24 108.48 114.5 108.48C110.35 108.48 106.78 106.05 105.11 102.54" stroke="white" stroke-width="3" stroke-miterlimit="3" stroke-linecap="square"/>
<path d="M42.6099 91.0103C44.3399 92.8703 45.3899 95.3503 45.3899 98.0903C45.3899 103.83 40.7399 108.48 34.9999 108.48C29.2599 108.48 24.6099 103.83 24.6099 98.0903C24.6099 92.3503 29.2599 87.7003 34.9999 87.7003V62.3003" stroke="white" stroke-width="3" stroke-miterlimit="3" stroke-linecap="square"/>
<path d="M44.8999 56.3503C43.2399 59.8703 39.6499 62.3003 35.4999 62.3003C29.7599 62.3003 25.1099 57.6503 25.1099 51.9103C25.1099 46.1703 29.7599 41.5203 35.4999 41.5203C39.6499 41.5203 43.2199 43.9503 44.8899 47.4603" stroke="white" stroke-width="3" stroke-miterlimit="3" stroke-linecap="square"/>
</svg>
