<svg width="475" height="200" viewBox="0 0 475 200" fill="none" xmlns="http://www.w3.org/2000/svg">
<path d="M94.1435 100.396V18.75C49.0531 18.75 12.5 55.3031 12.5 100.394C12.5 100.394 12.5 100.393 12.5 100.394L94.1435 100.396Z" fill="#FABFBA"/>
<path d="M62.3516 113.216C65.2545 129.02 78.0868 141.35 94.1416 143.499V181.123C57.4531 178.984 28.0261 149.801 25.5049 113.216H62.3516Z" fill="#FABFBA"/>
<path d="M106.969 35.1527C144.98 37.7724 175.002 69.4369 175.002 108.114C175.002 146.902 144.807 178.637 106.641 181.096V143.433C124.717 140.789 138.598 125.223 138.598 106.412C138.597 87.7162 124.885 72.2229 106.969 69.4398V35.1527Z" fill="#FF5F46"/>
<path d="M234.76 137.5L263.022 60.22H277.816L306.078 137.5H292.058L270.309 75.676L248.56 137.5H234.76ZM247.346 119.284L250.878 108.796H288.966L292.499 119.284H247.346ZM313.397 137.5V60.22H326.645V137.5H313.397ZM333.682 149.423L361.392 51.94H374.309L346.599 149.423H333.682ZM387.093 137.5V60.22H417.343C422.789 60.22 427.315 61.0664 430.922 62.7592C434.602 64.452 437.362 66.8072 439.202 69.8248C441.042 72.7688 441.962 76.1912 441.962 80.092C441.962 83.9928 441.115 87.268 439.423 89.9176C437.73 92.5672 435.485 94.5912 432.688 95.9896C429.965 97.388 426.984 98.2344 423.746 98.5288L425.402 97.3144C428.861 97.388 431.952 98.308 434.675 100.074C437.472 101.841 439.68 104.159 441.299 107.03C442.919 109.826 443.728 112.954 443.728 116.414C443.728 120.462 442.735 124.105 440.747 127.343C438.834 130.508 436 133.01 432.247 134.85C428.493 136.617 423.893 137.5 418.447 137.5H387.093ZM400.341 126.681H416.459C420.802 126.681 424.187 125.65 426.616 123.59C429.045 121.529 430.259 118.658 430.259 114.978C430.259 111.298 429.008 108.391 426.506 106.257C424.003 104.049 420.581 102.945 416.239 102.945H400.341V126.681ZM400.341 92.8984H415.466C419.735 92.8984 422.973 91.9416 425.181 90.028C427.389 88.0408 428.493 85.3176 428.493 81.8584C428.493 78.4728 427.389 75.8232 425.181 73.9096C422.973 71.9224 419.698 70.9288 415.355 70.9288H400.341V92.8984ZM453.104 137.5V60.22H466.352V137.5H453.104Z" fill="white"/>
</svg>
