<svg width="150" height="150" viewBox="0 0 150 150" fill="none" xmlns="http://www.w3.org/2000/svg">
<path d="M24.43 104.24V122.76H61.75C70.1019 122.752 78.1094 119.431 84.0151 113.525C89.9208 107.619 93.2421 99.6119 93.25 91.26V62.73L112.46 81.94L125.57 68.83L84 27.24L42.39 68.83L55.5 81.94L74.71 62.73V89.73C74.7047 93.574 73.1753 97.2591 70.4572 99.9772C67.7391 102.695 64.054 104.225 60.21 104.23H35.85V107.23H60.21C64.8497 107.225 69.2978 105.379 72.5785 102.099C75.8593 98.8178 77.7047 94.3697 77.71 89.73V55.49L55.5 77.7L46.63 68.83L84 31.48L121.35 68.83L112.48 77.7L90.25 55.49V91.26C90.2421 98.8162 87.2368 106.061 81.8938 111.404C76.5507 116.747 69.3062 119.752 61.75 119.76H27.43V104.24H24.43Z" fill="#FF5F46"/>
</svg>
