<svg width="150" height="150" viewBox="0 0 150 150" fill="none" xmlns="http://www.w3.org/2000/svg">
<path d="M108 84.0999H106C105.3 79.6999 101.5 76.3999 96.8999 76.3999C92.2999 76.3999 88.5999 79.6999 87.7999 84.0999H64.1999C57.8999 84.0999 52.7999 78.9999 52.7999 72.6999V65.8999C63.0999 65.1999 71.4999 57.1999 72.5999 46.7999L75.0999 22.8999C75.2999 20.8999 74.6999 18.8999 73.2999 17.4999C71.9999 15.9999 70.0999 15.1999 68.0999 15.1999H65.0999V11.3999H62.0999V21.8999H65.0999V18.0999H68.0999C69.2999 18.0999 70.2999 18.5999 71.0999 19.3999C71.8999 20.2999 72.1999 21.3999 72.0999 22.4999L69.5999 46.3999C68.5999 55.7999 60.7999 62.8999 51.2999 62.8999C41.8999 62.8999 33.9999 55.7999 32.9999 46.3999L30.4999 22.4999C30.3999 21.3999 30.6999 20.1999 31.4999 19.3999C32.2999 18.4999 33.2999 18.0999 34.4999 18.0999H37.4999V21.8999H40.4999V11.3999H37.4999V15.1999H34.4999C32.4999 15.1999 30.5999 15.9999 29.2999 17.4999C27.9999 18.9999 27.2999 20.9999 27.4999 22.8999L29.9999 46.7999C31.0999 57.1999 39.4999 65.1999 49.7999 65.8999V72.6999C49.7999 80.5999 56.2999 87.0999 64.1999 87.0999H90.6999V85.5999C90.6999 82.1999 93.4999 79.3999 96.8999 79.3999C100.3 79.3999 103.1 82.1999 103.1 85.5999C103.1 88.9999 100.3 91.7999 96.8999 91.7999H95.3999V109.9H54.2999C46.3999 109.9 39.8999 116.4 39.8999 124.3C39.8999 132.2 46.3999 138.7 54.2999 138.7H84.0999C91.9999 138.7 98.4999 132.2 98.4999 124.3V112.9H108C111.8 112.9 115.5 111.4 118.2 108.7C120.9 106 122.4 102.4 122.4 98.4999C122.4 90.4999 115.9 84.0999 108 84.0999ZM84.0999 135.6H54.2999C47.9999 135.6 42.8999 130.5 42.8999 124.2C42.8999 117.9 47.9999 112.8 54.2999 112.8H95.3999V124.2C95.4999 130.5 90.3999 135.6 84.0999 135.6ZM116 106.5C113.9 108.6 111 109.8 108 109.8H98.4999V94.5999C102.4 93.9999 105.4 90.8999 106.1 86.9999H108C114.3 86.9999 119.4 92.0999 119.4 98.3999C119.4 101.5 118.2 104.3 116 106.5Z" fill="#FF5F46"/>
<path d="M83 71.5998L85.1 73.6998C88.3 70.4998 92.5 68.7998 97 68.7998C101.5 68.7998 105.7 70.4998 108.9 73.6998L111 71.5998C107.2 67.8998 102.3 65.7998 97 65.7998C91.7 65.7998 86.7 67.7998 83 71.5998Z" fill="#FF5F46"/>
<path d="M96.9999 58.0999C104.3 58.0999 111.2 60.9999 116.4 66.0999L118.5 63.9999C112.7 58.1999 105.1 55.0999 96.9999 55.0999C88.8999 55.0999 81.1999 58.2999 75.3999 63.9999L77.4999 66.0999C82.6999 60.9999 89.5999 58.0999 96.9999 58.0999Z" fill="#FF5F46"/>
</svg>
