<svg width="150" height="150" viewBox="0 0 150 150" fill="none" xmlns="http://www.w3.org/2000/svg">
<path d="M108 84.1H106C105.3 79.7 101.5 76.4 96.9 76.4C92.3 76.4 88.6 79.7 87.8 84.1H64.2C57.9 84.1 52.8 79 52.8 72.7V65.9C63.1 65.2 71.5 57.2 72.6 46.8L75.1 22.9C75.3 20.9 74.7 18.9 73.3 17.5C72 16 70.1 15.2 68.1 15.2H65.1V11.4H62.1V21.9H65.1V18.1H68.1C69.3 18.1 70.3 18.6 71.1 19.4C71.9 20.3 72.2 21.4 72.1 22.5L69.6 46.4C68.6 55.8 60.8 62.9 51.3 62.9C41.9 62.9 34 55.8 33 46.4L30.5 22.5C30.4 21.4 30.7 20.2 31.5 19.4C32.3 18.5 33.3 18.1 34.5 18.1H37.5V21.9H40.5V11.4H37.5V15.2H34.5C32.5 15.2 30.6 16 29.3 17.5C28 19 27.3 21 27.5 22.9L30 46.8C31.1 57.2 39.5 65.2 49.8 65.9V72.7C49.8 80.6 56.3 87.1 64.2 87.1H90.7V85.6C90.7 82.2 93.5 79.4 96.9 79.4C100.3 79.4 103.1 82.2 103.1 85.6C103.1 89 100.3 91.8 96.9 91.8H95.4V109.9H54.3C46.4 109.9 39.9 116.4 39.9 124.3C39.9 132.2 46.4 138.7 54.3 138.7H84.1C92 138.7 98.5 132.2 98.5 124.3V112.9H108C111.8 112.9 115.5 111.4 118.2 108.7C120.9 106 122.4 102.4 122.4 98.5C122.4 90.5 115.9 84.1 108 84.1ZM84.1 135.6H54.3C48 135.6 42.9 130.5 42.9 124.2C42.9 117.9 48 112.8 54.3 112.8H95.4V124.2C95.5 130.5 90.4 135.6 84.1 135.6ZM116 106.5C113.9 108.6 111 109.8 108 109.8H98.5V94.6C102.4 94 105.4 90.9 106.1 87H108C114.3 87 119.4 92.1 119.4 98.4C119.4 101.5 118.2 104.3 116 106.5Z" fill="white"/>
<path d="M83 71.6L85.1 73.7C88.3 70.5 92.5 68.8 97 68.8C101.5 68.8 105.7 70.5 108.9 73.7L111 71.6C107.2 67.9 102.3 65.8 97 65.8C91.7 65.8 86.7 67.8 83 71.6Z" fill="white"/>
<path d="M97 58.1C104.3 58.1 111.2 61 116.4 66.1L118.5 64C112.7 58.2 105.1 55.1 97 55.1C88.9 55.1 81.2 58.3 75.4 64L77.5 66.1C82.7 61 89.6 58.1 97 58.1Z" fill="white"/>
</svg>
