<svg width="150" height="150" viewBox="0 0 150 150" fill="none" xmlns="http://www.w3.org/2000/svg">
<path d="M53.24 45.67C53.5956 43.8389 53.4003 41.9435 52.6786 40.2235C51.9569 38.5035 50.7413 37.0361 49.1855 36.007C47.6298 34.9779 45.8038 34.4333 43.9386 34.4421C42.0733 34.4509 40.2525 35.0127 38.7065 36.0564C37.1606 37.1001 35.9589 38.5788 35.2534 40.3056C34.548 42.0323 34.3704 43.9295 34.7433 45.7572C35.1162 47.5848 36.0227 49.2608 37.3483 50.5732C38.6738 51.8856 40.3587 52.7753 42.19 53.13C42.7837 53.2406 43.3861 53.2975 43.99 53.3C46.177 53.2966 48.2949 52.5339 49.982 51.1423C51.6691 49.7506 52.8207 47.8164 53.24 45.67ZM50.3 45.1C49.9735 46.7734 48.9957 48.2485 47.5818 49.2012C46.1679 50.1538 44.4335 50.5059 42.76 50.18C41.5092 49.9414 40.3576 49.3361 39.4516 48.4413C38.5457 47.5465 37.9263 46.4024 37.6722 45.1546C37.4182 43.9069 37.5409 42.6117 38.0249 41.4339C38.5088 40.256 39.3321 39.2487 40.39 38.54C41.454 37.816 42.713 37.4324 44 37.44C44.4162 37.4403 44.8314 37.4805 45.24 37.56C46.0674 37.7227 46.8546 38.0469 47.5567 38.5139C48.2588 38.9809 48.862 39.5817 49.3319 40.2818C49.8018 40.982 50.1291 41.7679 50.2952 42.5946C50.4613 43.4213 50.4629 44.2727 50.3 45.1Z" fill="#FF5F46"/>
<path d="M66.58 109.74C68.7228 110.166 70.9469 109.835 72.8731 108.804C74.7993 107.774 76.3084 106.107 77.1431 104.088C77.9779 102.069 78.0865 99.823 77.4506 97.733C76.8146 95.643 75.4735 93.8382 73.6558 92.6264C71.838 91.4146 69.6563 90.8707 67.4824 91.0875C65.3085 91.3044 63.2772 92.2685 61.7346 93.8155C60.1921 95.3625 59.2339 97.3966 59.0233 99.5711C58.8128 101.746 59.3629 103.926 60.58 105.74C61.9719 107.815 64.1295 109.253 66.58 109.74ZM62.07 99.25C62.3568 97.7884 63.1413 96.4714 64.29 95.5233C65.4387 94.5752 66.8806 94.0545 68.37 94.05C68.7862 94.0503 69.2015 94.0905 69.61 94.17C71.0726 94.4565 72.3908 95.2407 73.3406 96.3892C74.2904 97.5377 74.8131 98.9797 74.82 100.47C74.8197 100.886 74.7796 101.301 74.7 101.71C74.5385 102.539 74.2152 103.329 73.7486 104.033C73.282 104.737 72.6813 105.343 71.9806 105.815C71.28 106.287 70.4933 106.617 69.6653 106.785C68.8373 106.953 67.9843 106.957 67.155 106.795C66.3257 106.633 65.5364 106.31 64.832 105.844C64.1276 105.377 63.5221 104.776 63.0499 104.076C62.5777 103.375 62.2481 102.588 62.08 101.76C61.9119 100.932 61.9085 100.079 62.07 99.25Z" fill="#FF5F46"/>
<path d="M100.44 76.15C101.036 76.2688 101.642 76.3291 102.25 76.33C104.68 76.3369 107.02 75.4083 108.784 73.7368C110.548 72.0653 111.601 69.7791 111.725 67.3521C111.848 64.9251 111.033 62.5436 109.449 60.7012C107.864 58.8588 105.631 57.697 103.213 57.4565C100.795 57.216 98.3768 57.9153 96.4603 59.4095C94.5438 60.9037 93.2758 63.0781 92.9192 65.4819C92.5626 67.8858 93.1448 70.3346 94.545 72.3208C95.9452 74.307 98.0561 75.6782 100.44 76.15ZM95.93 65.67C96.2147 64.2066 96.9984 62.8873 98.1473 61.9372C99.2962 60.987 100.739 60.465 102.23 60.46C102.646 60.4603 103.061 60.5005 103.47 60.58C105.143 60.9065 106.619 61.8842 107.571 63.2982C108.524 64.7121 108.876 66.4465 108.55 68.12C108.408 68.9668 108.099 69.7766 107.639 70.5018C107.18 71.227 106.579 71.8527 105.874 72.3422C105.169 72.8317 104.373 73.175 103.533 73.3519C102.692 73.5287 101.825 73.5355 100.983 73.3719C100.14 73.2083 99.3383 72.8776 98.6254 72.3992C97.9125 71.9209 97.3026 71.3046 96.8316 70.5868C96.3607 69.8689 96.0383 69.064 95.8835 68.2196C95.7286 67.3751 95.7444 66.5082 95.93 65.67Z" fill="#FF5F46"/>
<path d="M116.82 97.81C116.583 99.0261 116.588 100.277 116.835 101.491C117.082 102.705 117.565 103.859 118.258 104.886C118.951 105.913 119.839 106.793 120.873 107.477C121.906 108.161 123.064 108.634 124.28 108.87C125.495 109.107 126.746 109.102 127.959 108.855C129.173 108.608 130.325 108.124 131.352 107.431C132.378 106.738 133.258 105.85 133.94 104.817C134.623 103.783 135.095 102.626 135.33 101.41C135.757 98.9762 135.212 96.4719 133.812 94.4359C132.411 92.3999 130.268 90.9949 127.842 90.5231C125.417 90.0514 122.903 90.5506 120.842 91.9133C118.78 93.2761 117.336 95.3935 116.82 97.81ZM132.39 100.81C132.149 102.061 131.542 103.213 130.646 104.119C129.75 105.025 128.605 105.645 127.356 105.9C126.108 106.156 124.812 106.035 123.632 105.553C122.452 105.071 121.442 104.25 120.729 103.194C120.016 102.138 119.632 100.894 119.627 99.6195C119.621 98.3452 119.993 97.0978 120.697 96.0353C121.4 94.9728 122.403 94.1429 123.579 93.6506C124.754 93.1584 126.049 93.0259 127.3 93.27C128.134 93.4279 128.928 93.7497 129.636 94.2169C130.345 94.6841 130.953 95.2872 131.427 95.9914C131.9 96.6956 132.229 97.4868 132.395 98.3191C132.56 99.1514 132.558 100.008 132.39 100.84V100.81Z" fill="#FF5F46"/>
<path d="M47.4 56.94C47.4667 57.0884 47.5436 57.2321 47.63 57.37C47.7248 57.5034 47.8283 57.6304 47.94 57.75C48.4128 58.214 49.0476 58.4758 49.71 58.48C49.873 58.4947 50.037 58.4947 50.2 58.48C50.5219 58.4186 50.828 58.2928 51.1 58.11C51.2353 58.0178 51.3625 57.9141 51.48 57.8C51.5917 57.6804 51.6952 57.5534 51.79 57.42C51.9728 57.148 52.0986 56.8419 52.16 56.52C52.1915 56.3585 52.2082 56.1945 52.21 56.03C52.2079 55.3672 51.9458 54.7316 51.48 54.26C51.3625 54.1459 51.2353 54.0422 51.1 53.95C50.828 53.7673 50.5219 53.6414 50.2 53.58C49.7964 53.4994 49.3792 53.5192 48.9851 53.6378C48.591 53.7564 48.2321 53.9701 47.94 54.26C47.8259 54.3775 47.7222 54.5047 47.63 54.64C47.5436 54.7779 47.4667 54.9216 47.4 55.07C47.3383 55.2218 47.2914 55.3792 47.26 55.54C47.1907 55.8697 47.1907 56.2103 47.26 56.54C47.2954 56.677 47.3423 56.8108 47.4 56.94Z" fill="#FF5F46"/>
<path d="M53 66.17C53.3413 66.1798 53.6811 66.122 54 66C54.4502 65.8068 54.834 65.4861 55.1041 65.0774C55.3742 64.6687 55.5187 64.1899 55.52 63.7C55.5251 63.3563 55.457 63.0154 55.32 62.7C55.1292 62.2433 54.8066 61.8538 54.3933 61.5812C53.9801 61.3087 53.495 61.1655 53 61.17C52.6563 61.1649 52.3154 61.2331 52 61.37C51.4682 61.5965 51.0314 62.0003 50.7637 62.5126C50.4961 63.0249 50.4143 63.6141 50.5322 64.18C50.6501 64.7458 50.9604 65.2534 51.4103 65.6162C51.8603 65.979 52.422 66.1747 53 66.17Z" fill="#FF5F46"/>
<path d="M59.52 81.56C59.8639 81.5664 60.2051 81.4981 60.52 81.36C60.965 81.164 61.3426 80.8414 61.6057 80.4325C61.8689 80.0235 62.006 79.5462 62 79.06C62.0051 78.7162 61.937 78.3753 61.8 78.06C61.6079 77.6091 61.2874 77.2246 60.8785 76.9543C60.4695 76.6841 59.9902 76.54 59.5 76.54C59.1563 76.5349 58.8154 76.6031 58.5 76.74C57.9682 76.9665 57.5314 77.3702 57.2637 77.8826C56.9961 78.3949 56.9143 78.9841 57.0322 79.55C57.1501 80.1158 57.4604 80.6234 57.9103 80.9862C58.3603 81.349 58.922 81.5447 59.5 81.54L59.52 81.56Z" fill="#FF5F46"/>
<path d="M56.25 73.87C56.5933 73.87 56.9332 73.802 57.25 73.67C57.701 73.4779 58.0855 73.1574 58.3557 72.7485C58.626 72.3395 58.7701 71.8602 58.77 71.37C58.7752 71.0262 58.707 70.6853 58.57 70.37C58.3779 69.9191 58.0574 69.5346 57.6485 69.2643C57.2396 68.9941 56.7602 68.85 56.27 68.85C55.9263 68.8449 55.5854 68.9131 55.27 69.05C54.7382 69.2765 54.3014 69.6802 54.0338 70.1926C53.7661 70.7049 53.6843 71.2941 53.8022 71.86C53.9201 72.4258 54.2304 72.9334 54.6803 73.2962C55.1303 73.659 55.692 73.8547 56.27 73.85L56.25 73.87Z" fill="#FF5F46"/>
<path d="M61 85C60.5328 85.4686 60.2705 86.1033 60.2705 86.765C60.2705 87.4267 60.5328 88.0614 61 88.53C61.1151 88.6496 61.2425 88.7569 61.38 88.85C61.5147 88.939 61.6589 89.0128 61.81 89.07C61.9615 89.1349 62.1189 89.1852 62.28 89.22C62.4414 89.2519 62.6054 89.2687 62.77 89.27C62.9345 89.2677 63.0984 89.251 63.26 89.22C63.4174 89.1837 63.5714 89.1335 63.72 89.07C63.8692 89.0088 64.013 88.9352 64.15 88.85C64.2875 88.7569 64.4148 88.6496 64.53 88.53C64.763 88.2997 64.9484 88.0257 65.0754 87.7237C65.2023 87.4217 65.2685 87.0976 65.27 86.77C65.2711 86.1104 65.0167 85.476 64.56 85C64.4429 84.8854 64.3157 84.7817 64.18 84.69C64.0409 84.5997 63.8935 84.5227 63.74 84.46C63.5916 84.3983 63.4375 84.3514 63.28 84.32C62.9506 84.247 62.6093 84.247 62.28 84.32C62.1192 84.3514 61.9618 84.3983 61.81 84.46C61.6586 84.5206 61.5144 84.5978 61.38 84.69C61.2405 84.7766 61.1128 84.8808 61 85Z" fill="#FF5F46"/>
<path d="M81.1 92.75C81.561 92.2834 81.8227 91.6559 81.83 91C81.8447 90.837 81.8447 90.673 81.83 90.51C81.7986 90.3492 81.7517 90.1918 81.69 90.04C81.6233 89.8916 81.5464 89.7479 81.46 89.61C81.3678 89.4747 81.2641 89.3475 81.15 89.23C80.6701 88.7808 80.0373 88.5308 79.38 88.5308C78.7227 88.5308 78.0899 88.7808 77.61 89.23C77.3694 89.4588 77.1765 89.733 77.0427 90.0368C76.9088 90.3407 76.8365 90.668 76.83 91C76.8099 91.1627 76.8099 91.3273 76.83 91.49C76.8914 91.8119 77.0172 92.118 77.2 92.39C77.2891 92.5276 77.3931 92.6551 77.51 92.77C77.9803 93.2378 78.6167 93.5003 79.28 93.5003C79.9433 93.5003 80.5797 93.2378 81.05 92.77L81.1 92.75Z" fill="#FF5F46"/>
<path d="M83.9 82.55C83.5587 82.9082 83.3315 83.3596 83.2469 83.847C83.1623 84.3345 83.2243 84.836 83.4249 85.2882C83.6255 85.7404 83.9558 86.123 84.3739 86.3874C84.7921 86.6518 85.2792 86.7862 85.7738 86.7736C86.2684 86.761 86.7481 86.6019 87.1522 86.3165C87.5563 86.0312 87.8666 85.6323 88.044 85.1705C88.2213 84.7086 88.2576 84.2046 88.1483 83.7221C88.039 83.2396 87.789 82.8003 87.43 82.46C86.9495 82.0046 86.3081 81.7583 85.6464 81.7752C84.9846 81.7921 84.3566 82.0707 83.9 82.55Z" fill="#FF5F46"/>
<path d="M89.7801 78.53C89.8372 78.6937 89.9109 78.8512 90.0001 79C90.0917 79.1357 90.1955 79.2629 90.3101 79.38C90.4255 79.4964 90.5528 79.6003 90.6901 79.69C90.8245 79.7822 90.9687 79.8594 91.1201 79.92C91.2718 79.9817 91.4292 80.0286 91.5901 80.06C91.753 80.0752 91.9171 80.0752 92.0801 80.06C92.2431 80.0743 92.407 80.0743 92.5701 80.06C92.7273 80.0272 92.8812 79.9803 93.0301 79.92C93.1814 79.8594 93.3256 79.7822 93.4601 79.69C93.5973 79.6003 93.7246 79.4964 93.8401 79.38C93.9546 79.2629 94.0584 79.1357 94.1501 79C94.2434 78.8645 94.3238 78.7206 94.3901 78.57C94.4518 78.4182 94.4987 78.2608 94.5301 78.1C94.5448 77.937 94.5448 77.773 94.5301 77.61C94.5259 76.9476 94.2641 76.3128 93.8001 75.84C93.6804 75.7283 93.5535 75.6248 93.4201 75.53C93.2809 75.4397 93.1336 75.3627 92.9801 75.3C92.8312 75.2397 92.6773 75.1928 92.5201 75.16C92.1907 75.087 91.8494 75.087 91.5201 75.16C91.3592 75.1914 91.2018 75.2383 91.0501 75.3C90.8987 75.3606 90.7545 75.4378 90.6201 75.53C90.4828 75.6197 90.3555 75.7236 90.2401 75.84C90.1255 75.9571 90.0217 76.0843 89.9301 76.22C89.7473 76.492 89.6214 76.7981 89.5601 77.12C89.4907 77.4497 89.4907 77.7903 89.5601 78.12C89.6207 78.2631 89.6943 78.4003 89.7801 78.53Z" fill="#FF5F46"/>
<path d="M116.24 89.29C116.761 89.2908 117.269 89.1262 117.69 88.82C118.001 88.5877 118.254 88.2858 118.427 87.9386C118.601 87.5913 118.691 87.2083 118.69 86.82C118.69 86.3008 118.529 85.7944 118.23 85.37C118.044 85.0912 117.805 84.8525 117.525 84.6681C117.245 84.4838 116.931 84.3575 116.602 84.2969C116.273 84.2362 115.934 84.2423 115.607 84.3149C115.28 84.3875 114.971 84.5251 114.698 84.7195C114.426 84.9139 114.195 85.1611 114.019 85.4465C113.844 85.7318 113.728 86.0496 113.677 86.3807C113.627 86.7119 113.644 87.0498 113.727 87.3744C113.81 87.6989 113.957 88.0035 114.16 88.27C114.4 88.594 114.714 88.8557 115.076 89.0332C115.438 89.2107 115.837 89.2987 116.24 89.29Z" fill="#FF5F46"/>
<path d="M111 82C111.394 82.0014 111.784 81.9096 112.136 81.7319C112.488 81.5542 112.793 81.2957 113.026 80.9776C113.259 80.6595 113.413 80.2907 113.477 79.9015C113.54 79.5122 113.51 79.1135 113.39 78.7379C113.27 78.3623 113.063 78.0205 112.785 77.7403C112.507 77.4602 112.167 77.2497 111.793 77.1261C111.418 77.0024 111.02 76.9691 110.63 77.0289C110.24 77.0887 109.87 77.2398 109.55 77.47C109.121 77.7783 108.801 78.2146 108.635 78.7162C108.47 79.2178 108.467 79.759 108.628 80.2621C108.789 80.7653 109.105 81.2044 109.532 81.5166C109.958 81.8289 110.472 81.9981 111 82Z" fill="#FF5F46"/>
<path d="M137.34 134.33H124.98V128.26H121.98V134.33H105.89V128.26H102.89V134.33H86.8V128.26H83.8V134.33H67.7V128.26H64.7V134.33H48.61V128.26H45.61V134.33H29.52V128.26H26.52V134.33H15.66V123.48H21.74V120.48H15.66V104.39H21.74V101.39H15.66V85.3H21.74V82.3H15.66V66.2H21.74V63.2H15.66V47.11H21.74V44.11H15.66V28.02H21.74V25.02H15.66V12.67H12.66V137.33H137.34V134.33Z" fill="#FF5F46"/>
</svg>
