<svg width="150" height="150" viewBox="0 0 150 150" fill="none" xmlns="http://www.w3.org/2000/svg">
<path d="M53.24 45.6699C53.5956 43.8388 53.4003 41.9434 52.6786 40.2234C51.9569 38.5033 50.7413 37.036 49.1855 36.0069C47.6298 34.9778 45.8038 34.4332 43.9386 34.442C42.0733 34.4508 40.2525 35.0126 38.7065 36.0563C37.1606 37.1 35.9589 38.5787 35.2534 40.3055C34.548 42.0322 34.3704 43.9294 34.7433 45.757C35.1162 47.5847 36.0227 49.2607 37.3483 50.573C38.6738 51.8854 40.3587 52.7752 42.19 53.1299C42.7837 53.2404 43.3861 53.2973 43.99 53.2999C46.177 53.2964 48.2949 52.5338 49.982 51.1421C51.6691 49.7505 52.8207 47.8163 53.24 45.6699V45.6699ZM50.3 45.0999C49.9735 46.7732 48.9957 48.2484 47.5818 49.201C46.1679 50.1537 44.4335 50.5057 42.76 50.1799C41.5092 49.9412 40.3576 49.336 39.4516 48.4412C38.5457 47.5463 37.9263 46.4023 37.6722 45.1545C37.4182 43.9067 37.5409 42.6116 38.0249 41.4337C38.5088 40.2559 39.3321 39.2486 40.39 38.5399C41.454 37.8158 42.713 37.4322 44 37.4399C44.4162 37.4401 44.8314 37.4803 45.24 37.5599C46.0674 37.7226 46.8546 38.0467 47.5567 38.5138C48.2588 38.9808 48.862 39.5815 49.3319 40.2817C49.8018 40.9819 50.1291 41.7678 50.2952 42.5945C50.4613 43.4212 50.4629 44.2725 50.3 45.0999V45.0999Z" fill="#1B3139"/>
<path d="M66.58 109.74C68.7228 110.166 70.9469 109.835 72.8731 108.804C74.7993 107.774 76.3084 106.107 77.1431 104.088C77.9779 102.069 78.0865 99.8231 77.4506 97.7331C76.8146 95.6431 75.4735 93.8383 73.6558 92.6265C71.838 91.4147 69.6563 90.8708 67.4824 91.0876C65.3085 91.3045 63.2772 92.2686 61.7346 93.8156C60.1921 95.3626 59.2339 97.3967 59.0233 99.5712C58.8128 101.746 59.3629 103.926 60.58 105.74C61.9719 107.815 64.1295 109.253 66.58 109.74V109.74ZM62.07 99.2501C62.3568 97.7885 63.1413 96.4715 64.29 95.5234C65.4387 94.5753 66.8806 94.0546 68.37 94.0501C68.7862 94.0504 69.2015 94.0905 69.61 94.1701C71.0726 94.4566 72.3908 95.2408 73.3406 96.3893C74.2904 97.5378 74.8131 98.9798 74.82 100.47C74.8197 100.886 74.7796 101.302 74.7 101.71C74.5385 102.539 74.2152 103.329 73.7486 104.033C73.282 104.737 72.6813 105.343 71.9806 105.815C71.28 106.287 70.4933 106.617 69.6653 106.785C68.8373 106.953 67.9843 106.957 67.155 106.795C66.3257 106.634 65.5364 106.31 64.832 105.844C64.1276 105.377 63.5221 104.776 63.0499 104.076C62.5777 103.375 62.2481 102.588 62.08 101.76C61.9119 100.932 61.9085 100.079 62.07 99.2501V99.2501Z" fill="#1B3139"/>
<path d="M100.44 76.1501C101.036 76.269 101.642 76.3292 102.25 76.3301C104.68 76.337 107.02 75.4085 108.784 73.7369C110.548 72.0654 111.601 69.7792 111.725 67.3522C111.848 64.9252 111.033 62.5437 109.449 60.7013C107.864 58.859 105.631 57.6971 103.213 57.4566C100.795 57.2161 98.3768 57.9155 96.4603 59.4097C94.5438 60.9038 93.2758 63.0783 92.9192 65.4821C92.5626 67.8859 93.1448 70.3348 94.545 72.321C95.9452 74.3071 98.0561 75.6783 100.44 76.1501V76.1501ZM95.93 65.6701C96.2147 64.2067 96.9984 62.8874 98.1473 61.9373C99.2962 60.9872 100.739 60.4651 102.23 60.4601C102.646 60.4604 103.061 60.5006 103.47 60.5801C105.143 60.9067 106.619 61.8844 107.571 63.2983C108.524 64.7123 108.876 66.4467 108.55 68.1201C108.408 68.9669 108.099 69.7768 107.639 70.5019C107.18 71.2271 106.579 71.8529 105.874 72.3424C105.169 72.8319 104.373 73.1752 103.533 73.352C102.692 73.5289 101.825 73.5357 100.983 73.3721C100.14 73.2085 99.3383 72.8777 98.6254 72.3994C97.9125 71.921 97.3026 71.3048 96.8316 70.5869C96.3607 69.8691 96.0383 69.0642 95.8835 68.2197C95.7286 67.3753 95.7444 66.5084 95.93 65.6701Z" fill="#1B3139"/>
<path d="M116.82 97.81C116.583 99.0261 116.588 100.277 116.835 101.491C117.082 102.705 117.565 103.859 118.258 104.886C118.951 105.913 119.839 106.793 120.873 107.477C121.906 108.161 123.064 108.634 124.28 108.87C125.495 109.107 126.746 109.101 127.959 108.855C129.173 108.608 130.325 108.124 131.352 107.431C132.378 106.738 133.258 105.85 133.94 104.817C134.623 103.783 135.095 102.626 135.33 101.41C135.757 98.9761 135.212 96.4718 133.812 94.4358C132.411 92.3999 130.268 90.9948 127.842 90.5231C125.417 90.0513 122.903 90.5505 120.842 91.9133C118.78 93.276 117.336 95.3934 116.82 97.81V97.81ZM132.39 100.81C132.149 102.061 131.542 103.213 130.646 104.119C129.75 105.025 128.605 105.645 127.356 105.9C126.108 106.155 124.812 106.035 123.632 105.553C122.452 105.071 121.442 104.25 120.729 103.194C120.016 102.138 119.632 100.894 119.627 99.6195C119.621 98.3452 119.993 97.0978 120.697 96.0353C121.4 94.9728 122.403 94.1429 123.579 93.6506C124.754 93.1584 126.049 93.0259 127.3 93.27C128.134 93.4279 128.928 93.7497 129.636 94.2169C130.345 94.684 130.953 95.2872 131.427 95.9914C131.9 96.6956 132.229 97.4868 132.395 98.3191C132.56 99.1514 132.558 100.008 132.39 100.84V100.81Z" fill="#1B3139"/>
<path d="M47.4 56.9399C47.4667 57.0883 47.5436 57.232 47.63 57.3699C47.7248 57.5033 47.8283 57.6303 47.94 57.7499C48.4128 58.2139 49.0476 58.4757 49.71 58.4799C49.873 58.4946 50.037 58.4946 50.2 58.4799C50.5219 58.4185 50.828 58.2926 51.1 58.1099C51.2353 58.0177 51.3625 57.9139 51.48 57.7999C51.5917 57.6803 51.6952 57.5533 51.79 57.4199C51.9728 57.1479 52.0986 56.8418 52.16 56.5199C52.1915 56.3584 52.2082 56.1944 52.21 56.0299C52.2079 55.367 51.9458 54.7315 51.48 54.2599C51.3625 54.1458 51.2353 54.0421 51.1 53.9499C50.828 53.7671 50.5219 53.6413 50.2 53.5799C49.7964 53.4993 49.3792 53.5191 48.9851 53.6377C48.591 53.7563 48.2321 53.9699 47.94 54.2599C47.8259 54.3774 47.7222 54.5045 47.63 54.6399C47.5436 54.7778 47.4667 54.9214 47.4 55.0699C47.3383 55.2217 47.2914 55.3791 47.26 55.5399C47.1907 55.8696 47.1907 56.2102 47.26 56.5399C47.2954 56.6769 47.3423 56.8107 47.4 56.9399V56.9399Z" fill="#1B3139"/>
<path d="M53 66.1702C53.3413 66.18 53.6811 66.1222 54 66.0002C54.4502 65.807 54.834 65.4863 55.1041 65.0776C55.3742 64.6689 55.5187 64.1901 55.52 63.7002C55.5251 63.3564 55.457 63.0155 55.32 62.7002C55.1292 62.2434 54.8066 61.8539 54.3933 61.5814C53.9801 61.3089 53.495 61.1657 53 61.1702C52.6563 61.1651 52.3154 61.2332 52 61.3702C51.4682 61.5967 51.0314 62.0004 50.7637 62.5128C50.4961 63.0251 50.4143 63.6143 50.5322 64.1802C50.6501 64.746 50.9604 65.2535 51.4103 65.6164C51.8603 65.9792 52.422 66.1749 53 66.1702V66.1702Z" fill="#1B3139"/>
<path d="M59.52 81.5598C59.8639 81.5662 60.2051 81.498 60.52 81.3598C60.965 81.1638 61.3426 80.8412 61.6057 80.4323C61.8689 80.0233 62.006 79.5461 62 79.0598C62.0051 78.7161 61.937 78.3752 61.8 78.0598C61.6079 77.6089 61.2874 77.2244 60.8785 76.9541C60.4695 76.6839 59.9902 76.5398 59.5 76.5398C59.1563 76.5347 58.8154 76.6029 58.5 76.7398C57.9682 76.9663 57.5314 77.3701 57.2637 77.8824C56.9961 78.3947 56.9143 78.9839 57.0322 79.5498C57.1501 80.1156 57.4604 80.6232 57.9103 80.986C58.3603 81.3488 58.922 81.5445 59.5 81.5398L59.52 81.5598Z" fill="#1B3139"/>
<path d="M56.25 73.8699C56.5933 73.8699 56.9331 73.8019 57.25 73.6699C57.7009 73.4777 58.0854 73.1573 58.3557 72.7483C58.6259 72.3394 58.77 71.86 58.77 71.3699C58.7751 71.0261 58.7069 70.6852 58.57 70.3699C58.3779 69.9189 58.0574 69.5344 57.6485 69.2642C57.2395 68.9939 56.7602 68.8499 56.27 68.8499C55.9263 68.8448 55.5853 68.9129 55.27 69.0499C54.7382 69.2764 54.3013 69.6801 54.0337 70.1924C53.7661 70.7048 53.6843 71.294 53.8022 71.8598C53.92 72.4257 54.2304 72.9332 54.6803 73.2961C55.1303 73.6589 55.692 73.8546 56.27 73.8499L56.25 73.8699Z" fill="#1B3139"/>
<path d="M61 84.9999C60.5329 85.4685 60.2705 86.1032 60.2705 86.7649C60.2705 87.4266 60.5329 88.0613 61 88.5299C61.1152 88.6495 61.2425 88.7568 61.38 88.8499C61.5148 88.9389 61.659 89.0127 61.81 89.0699C61.9615 89.1349 62.1189 89.1851 62.28 89.2199C62.4414 89.2519 62.6055 89.2686 62.77 89.2699C62.9345 89.2676 63.0985 89.2509 63.26 89.2199C63.4175 89.1836 63.5714 89.1334 63.72 89.0699C63.8692 89.0087 64.0131 88.9351 64.15 88.8499C64.2875 88.7568 64.4148 88.6495 64.53 88.5299C64.7631 88.2996 64.9484 88.0257 65.0754 87.7236C65.2024 87.4216 65.2685 87.0975 65.27 86.7699C65.2712 86.1103 65.0167 85.4759 64.56 84.9999C64.4429 84.8853 64.3158 84.7816 64.18 84.6899C64.0409 84.5996 63.8936 84.5226 63.74 84.4599C63.5917 84.3982 63.4376 84.3513 63.28 84.3199C62.9507 84.2469 62.6093 84.2469 62.28 84.3199C62.1192 84.3513 61.9618 84.3982 61.81 84.4599C61.6587 84.5205 61.5145 84.5977 61.38 84.6899C61.2405 84.7765 61.1128 84.8807 61 84.9999V84.9999Z" fill="#1B3139"/>
<path d="M81.1 92.7499C81.561 92.2833 81.8227 91.6558 81.83 90.9999C81.8447 90.8369 81.8447 90.6729 81.83 90.5099C81.7986 90.3491 81.7517 90.1917 81.69 90.0399C81.6233 89.8915 81.5464 89.7478 81.46 89.6099C81.3678 89.4746 81.2641 89.3475 81.15 89.2299C80.6701 88.7807 80.0373 88.5308 79.38 88.5308C78.7227 88.5308 78.0899 88.7807 77.61 89.2299C77.3694 89.4587 77.1765 89.733 77.0427 90.0368C76.9088 90.3406 76.8365 90.668 76.83 90.9999C76.8099 91.1627 76.8099 91.3272 76.83 91.4899C76.8914 91.8118 77.0172 92.118 77.2 92.3899C77.2891 92.5276 77.3931 92.655 77.51 92.7699C77.9803 93.2377 78.6167 93.5003 79.28 93.5003C79.9433 93.5003 80.5797 93.2377 81.05 92.7699L81.1 92.7499Z" fill="#1B3139"/>
<path d="M83.9 82.55C83.5588 82.9082 83.3315 83.3596 83.2469 83.8471C83.1623 84.3345 83.2243 84.8361 83.4249 85.2883C83.6256 85.7405 83.9558 86.123 84.374 86.3874C84.7921 86.6518 85.2793 86.7862 85.7738 86.7736C86.2684 86.761 86.7481 86.6019 87.1522 86.3166C87.5563 86.0312 87.8667 85.6323 88.044 85.1705C88.2213 84.7087 88.2576 84.2046 88.1483 83.7221C88.039 83.2396 87.789 82.8004 87.43 82.46C86.9496 82.0046 86.3081 81.7584 85.6464 81.7752C84.9846 81.7921 84.3566 82.0707 83.9 82.55V82.55Z" fill="#1B3139"/>
<path d="M89.78 78.5302C89.8372 78.694 89.9109 78.8514 90 79.0002C90.0917 79.136 90.1954 79.2632 90.31 79.3802C90.4254 79.4966 90.5528 79.6006 90.69 79.6902C90.8244 79.7825 90.9687 79.8596 91.12 79.9202C91.2718 79.9819 91.4292 80.0288 91.59 80.0602C91.753 80.0755 91.917 80.0755 92.08 80.0602C92.243 80.0745 92.407 80.0745 92.57 80.0602C92.7272 80.0274 92.8811 79.9805 93.03 79.9202C93.1813 79.8596 93.3255 79.7825 93.46 79.6902C93.5972 79.6006 93.7246 79.4966 93.84 79.3802C93.9546 79.2632 94.0583 79.136 94.15 79.0002C94.2434 78.8648 94.3237 78.7208 94.39 78.5702C94.4517 78.4184 94.4986 78.261 94.53 78.1002C94.5447 77.9372 94.5447 77.7732 94.53 77.6102C94.5258 76.9478 94.264 76.313 93.8 75.8402C93.6804 75.7286 93.5534 75.625 93.42 75.5302C93.2809 75.4399 93.1336 75.3629 92.98 75.3002C92.8312 75.2399 92.6772 75.1931 92.52 75.1602C92.1907 75.0872 91.8493 75.0872 91.52 75.1602C91.3592 75.1916 91.2018 75.2385 91.05 75.3002C90.8987 75.3609 90.7544 75.438 90.62 75.5302C90.4828 75.6199 90.3554 75.7238 90.24 75.8402C90.1254 75.9573 90.0217 76.0845 89.93 76.2202C89.7472 76.4922 89.6214 76.7984 89.56 77.1202C89.4907 77.45 89.4907 77.7905 89.56 78.1202C89.6206 78.2633 89.6943 78.4006 89.78 78.5302V78.5302Z" fill="#1B3139"/>
<path d="M116.24 89.2899C116.761 89.2907 117.269 89.1261 117.69 88.8199C118.001 88.5876 118.254 88.2857 118.427 87.9384C118.601 87.5912 118.691 87.2081 118.69 86.8199C118.69 86.3007 118.529 85.7943 118.23 85.3699C118.044 85.0911 117.805 84.8524 117.525 84.668C117.245 84.4837 116.931 84.3574 116.602 84.2967C116.273 84.2361 115.934 84.2422 115.607 84.3148C115.28 84.3874 114.971 84.525 114.698 84.7193C114.426 84.9137 114.195 85.1609 114.019 85.4463C113.844 85.7317 113.728 86.0494 113.677 86.3806C113.627 86.7118 113.644 87.0497 113.727 87.3743C113.81 87.6988 113.957 88.0034 114.16 88.2699C114.4 88.5939 114.714 88.8556 115.076 89.0331C115.438 89.2105 115.837 89.2986 116.24 89.2899V89.2899Z" fill="#1B3139"/>
<path d="M111 82C111.394 82.0014 111.783 81.9095 112.136 81.7318C112.488 81.5542 112.793 81.2957 113.026 80.9776C113.259 80.6594 113.413 80.2907 113.477 79.9014C113.54 79.5122 113.51 79.1135 113.39 78.7379C113.27 78.3623 113.063 78.0204 112.785 77.7403C112.507 77.4602 112.167 77.2497 111.793 77.126C111.418 77.0024 111.02 76.9691 110.63 77.0289C110.24 77.0887 109.87 77.2398 109.55 77.47C109.121 77.7783 108.801 78.2146 108.635 78.7162C108.47 79.2178 108.467 79.759 108.628 80.2621C108.789 80.7652 109.105 81.2044 109.532 81.5166C109.958 81.8288 110.472 81.9981 111 82V82Z" fill="#1B3139"/>
<path d="M137.34 134.33H124.98V128.26H121.98V134.33H105.89V128.26H102.89V134.33H86.8V128.26H83.8V134.33H67.7V128.26H64.7V134.33H48.61V128.26H45.61V134.33H29.52V128.26H26.52V134.33H15.66V123.48H21.74V120.48H15.66V104.39H21.74V101.39H15.66V85.2999H21.74V82.2999H15.66V66.1999H21.74V63.1999H15.66V47.1099H21.74V44.1099H15.66V28.0199H21.74V25.0199H15.66V12.6699H12.66V137.33H137.34V134.33Z" fill="#1B3139"/>
</svg>
