<svg width="150" height="150" viewBox="0 0 150 150" fill="none" xmlns="http://www.w3.org/2000/svg">
<path d="M25.77 39.1802H67.4301" stroke="#1B3139" stroke-width="3" stroke-miterlimit="3" stroke-linecap="square"/>
<path d="M34.76 46.8701V132.47" stroke="#1B3139" stroke-width="3" stroke-miterlimit="3" stroke-linecap="square"/>
<path d="M51.0898 46.8701V132.47" stroke="#1B3139" stroke-width="3" stroke-miterlimit="3" stroke-linecap="square"/>
<path d="M18.4302 132.47V19.3398H67.4302V132.47" stroke="#1B3139" stroke-width="3" stroke-miterlimit="3" stroke-linecap="square"/>
<path d="M75.26 102.08H131.57V132.47H116.42V112.15H101.18V132.47" stroke="#1B3139" stroke-width="3" stroke-miterlimit="3" stroke-linecap="square"/>
<path d="M85.9399 132.47V112.15H101.18V132.47" stroke="#1B3139" stroke-width="3" stroke-miterlimit="3" stroke-linecap="square"/>
<path d="M85.3 80.39H108.54C114.5 80.39 119.33 75.56 119.33 69.6C119.33 63.64 114.5 58.81 108.54 58.81H93.83C87.87 58.81 83.04 53.98 83.04 48.02C83.04 42.06 87.87 37.23 93.83 37.23H117.07" stroke="#1B3139" stroke-width="3" stroke-miterlimit="3" stroke-linecap="square"/>
<path d="M101.18 27.4399V89.8699" stroke="#1B3139" stroke-width="3" stroke-miterlimit="3" stroke-linecap="square"/>
</svg>
