<svg width="150" height="150" viewBox="0 0 150 150" fill="none" xmlns="http://www.w3.org/2000/svg">
<path d="M89.2 69.7H121.5C124.7 69.7 127.2 67.1 127.2 64V28.5C127.2 25.3 124.6 22.8 121.5 22.8H86.1C82.9 22.8 80.4001 25.4 80.4001 28.5V66.7H28.5C27 66.7 25.8 65.5 25.8 64V28.5C25.8 27 27 25.8 28.5 25.8H64C65.5 25.8 66.7 27 66.7 28.5V60.8H69.7V28.5C69.7 25.3 67.1 22.8 64 22.8H28.5C25.3 22.8 22.8 25.4 22.8 28.5V64C22.8 67.2001 25.4 69.7 28.5 69.7H66.7V121.6C66.7 123.1 65.5 124.3 64 124.3H28.5C27 124.3 25.8 123.1 25.8 121.6V86.1C25.8 84.6 27 83.4001 28.5 83.4001H60.8V80.4001H28.5C25.3 80.4001 22.8 83 22.8 86.1V121.6C22.8 124.8 25.4 127.3 28.5 127.3H64C67.2001 127.3 69.7 124.7 69.7 121.6V83.3001H121.6C123.1 83.3001 124.3 84.5 124.3 86V121.5C124.3 123 123.1 124.2 121.6 124.2H86.1C84.6 124.2 83.4001 123 83.4001 121.5V89.2H80.4001V121.5C80.4001 124.7 83 127.2 86.1 127.2H121.6C124.8 127.2 127.3 124.6 127.3 121.5V86.1C127.3 82.9 124.7 80.4001 121.6 80.4001H83.3001V28.5C83.3001 27 84.5 25.8 86 25.8H121.5C123 25.8 124.2 27 124.2 28.5V64C124.2 65.5 123 66.7 121.5 66.7H89.2V69.7ZM69.7 80.3001V69.7H80.3001V80.3001H69.7Z" fill="#FF5F46"/>
<path d="M113.7 95L99.4001 109.2L93.9001 103.7L91.7001 105.8L99.4001 113.5L115.8 97.1L113.7 95Z" fill="#FF5F46"/>
<path d="M97.6 54.5001L103.8 48.3001L110 54.5001L112.1 52.4001L105.9 46.2001L112.1 40.0001L110 37.9001L103.8 44.1001L97.6 37.9001L95.5 40.0001L101.7 46.2001L95.5 52.4001L97.6 54.5001Z" fill="#FF5F46"/>
<path d="M52.4 37.9001L46.2 44.1001L40 37.9001L37.9 40.0001L44.1 46.2001L37.9 52.4001L40 54.5001L46.2 48.3001L52.4 54.5001L54.5 52.4001L48.3 46.2001L54.5 40.0001L52.4 37.9001Z" fill="#FF5F46"/>
<path d="M52.4 95.5L46.2 101.7L40 95.5L37.9 97.6L44.1 103.8L37.9 110L40 112.1L46.2 105.9L52.4 112.1L54.5 110L48.3 103.8L54.5 97.6L52.4 95.5Z" fill="#FF5F46"/>
</svg>
