<svg width="150" height="150" viewBox="0 0 150 150" fill="none" xmlns="http://www.w3.org/2000/svg">
<path d="M79.0001 49.9H66.7001V52.9H97.4001V49.9H88.3001H79.0001Z" fill="#FF5F46"/>
<path d="M130.5 49.9H122.5V60.1H117.6V49.9H110.1V38.5C110.1 34.2 106.6 30.7 102.3 30.7C98 30.7 94.5 34.2 94.5 38.5V42.4H89.8V38.4C89.8 36.3 89 34.3 87.5 32.9C86 31.4 84.1 30.6 82 30.6C77.7 30.6 74.2 34.1 74.2 38.4V42.4H69.5V38.5C69.5 34.2 66 30.7 61.7001 30.7C57.4001 30.7 53.9001 34.2 53.9001 38.5V49.9H22.7V71.2H16.8V50.3H13.8V95H16.8V74.2H24.2H25.7V52.9H56.6V38.5C56.6 35.8 58.8001 33.7 61.4001 33.7C64.1001 33.7 66.2 35.9 66.2 38.5V45.4H76.9001V38.4C76.9001 35.7 79.1 33.6 81.7 33.6C83 33.6 84.2 34.1 85.1 35C86 35.9 86.5 37.1 86.5 38.4V45.4H97.2V38.5C97.2 35.8 99.4 33.7 102 33.7C104.7 33.7 106.8 35.9 106.8 38.5V52.9H114.3V63.1H125.2V52.9H130.2C131.7 52.9 132.9 54.1 132.9 55.6V89.8C132.9 91.3 131.7 92.5 130.2 92.5H125.2V82.3H114.3V105.7C114.3 111.6 109.5 116.4 103.6 116.4H64.9001L40.8 92.5H25.7V78.4H22.7V95.5H39.5L63.6 119.3H104C111.5 119.3 117.7 113.2 117.7 105.6V85.3H122.6V95.5H130.6C133.7 95.5 136.3 93 136.3 89.8V55.6C136.2 52.4 133.7 49.9 130.5 49.9Z" fill="#FF5F46"/>
<path d="M60 83.8C60 95.1 69.2 104.3 80.5 104.3C91.8 104.3 101 95.1 101 83.8C101 72.5 91.8 63.3 80.5 63.3C69.1 63.4 60 72.6 60 83.8ZM80.4 66.4C90 66.4 97.9 74.2 97.9 83.9C97.9 93.6 90.1 101.4 80.4 101.4C70.7 101.4 63 93.5 63 83.8C63 74.1 70.8 66.4 80.4 66.4Z" fill="#FF5F46"/>
<path d="M74 93.3L76.1 95.5L89.4 82.2H79L86.8 74.4L84.7 72.2L71.8 85.2H82.2L74 93.3Z" fill="#FF5F46"/>
</svg>
