<svg width="150" height="150" viewBox="0 0 150 150" fill="none" xmlns="http://www.w3.org/2000/svg">
<path d="M79 49.8999H66.7V52.8999H97.4V49.8999H88.3H79Z" fill="#1B3139"/>
<path d="M130.5 49.9001H122.5V60.1001H117.6V49.9001H110.1V38.5001C110.1 34.2001 106.6 30.7001 102.3 30.7001C98 30.7001 94.5 34.2001 94.5 38.5001V42.4001H89.8V38.4001C89.8 36.3001 89 34.3001 87.5 32.9001C86 31.4001 84.1 30.6001 82 30.6001C77.7 30.6001 74.2 34.1001 74.2 38.4001V42.4001H69.5V38.5001C69.5 34.2001 66 30.7001 61.7 30.7001C57.4 30.7001 53.9 34.2001 53.9 38.5001V49.9001H22.7V71.2001H16.8V50.3001H13.8V95.0001H16.8V74.2001H24.2H25.7V52.9001H56.6V38.5001C56.6 35.8001 58.8 33.7001 61.4 33.7001C64.1 33.7001 66.2 35.9001 66.2 38.5001V45.4001H76.9V38.4001C76.9 35.7001 79.1 33.6001 81.7 33.6001C83 33.6001 84.2 34.1001 85.1 35.0001C86 35.9001 86.5 37.1001 86.5 38.4001V45.4001H97.2V38.5001C97.2 35.8001 99.4 33.7001 102 33.7001C104.7 33.7001 106.8 35.9001 106.8 38.5001V52.9001H114.3V63.1001H125.2V52.9001H130.2C131.7 52.9001 132.9 54.1001 132.9 55.6001V89.8001C132.9 91.3001 131.7 92.5001 130.2 92.5001H125.2V82.3001H114.3V105.7C114.3 111.6 109.5 116.4 103.6 116.4H64.9L40.8 92.5001H25.7V78.4001H22.7V95.5001H39.5L63.6 119.3H104C111.5 119.3 117.7 113.2 117.7 105.6V85.3001H122.6V95.5001H130.6C133.7 95.5001 136.3 93.0001 136.3 89.8001V55.6001C136.2 52.4001 133.7 49.9001 130.5 49.9001Z" fill="#1B3139"/>
<path d="M60 83.8003C60 95.1003 69.2 104.3 80.5 104.3C91.8 104.3 101 95.1003 101 83.8003C101 72.5003 91.8 63.3003 80.5 63.3003C69.1 63.4003 60 72.6003 60 83.8003ZM80.4 66.4003C90 66.4003 97.9 74.2003 97.9 83.9003C97.9 93.6003 90.1 101.4 80.4 101.4C70.7 101.4 63 93.5003 63 83.8003C63 74.1003 70.8 66.4003 80.4 66.4003Z" fill="#1B3139"/>
<path d="M74 93.3002L76.1 95.5002L89.4 82.2002H79L86.8 74.4002L84.7 72.2002L71.8 85.2002H82.2L74 93.3002Z" fill="#1B3139"/>
</svg>
