<svg width="1080" height="1080" viewBox="0 0 1080 1080" fill="none" xmlns="http://www.w3.org/2000/svg">
<path d="M920.389 759.482V320.482L540.194 101L160 320.482V759.482L540.194 979L920.389 759.482Z" fill="#1B3139"/>
<mask id="mask0_4257_114" style="mask-type:luminance" maskUnits="userSpaceOnUse" x="188" y="133" width="705" height="814">
<path d="M892.359 743.285V336.681L540.194 133.361L188.065 336.681V743.285L540.194 946.605L892.359 743.285Z" fill="white"/>
</mask>
<g mask="url(#mask0_4257_114)">
<path d="M65.9109 198.188V122.304H993.878V198.188H65.9109Z" fill="#C83027"/>
<path d="M65.8757 274.072V198.188H993.843V274.072H65.8757Z" fill="#E38839"/>
<path d="M65.8757 349.955V274.071H993.843V349.955H65.8757Z" fill="#EEB64D"/>
<path d="M65.8757 425.839V349.955H993.843V425.839H65.8757Z" fill="#FFF100"/>
<path d="M993.843 463.798V448.833V425.839H529.877H65.8757V448.833V471.827V501.723H993.843V463.798Z" fill="#AFD136"/>
<path d="M993.843 501.724V520.703V539.683H529.877H65.8757V520.703V501.724H529.877H993.843Z" fill="#315E32"/>
<path d="M65.8757 539.683H993.843V577.642H65.8757V539.683Z" fill="#23161A"/>
<path d="M993.843 577.607V596.587V615.567H529.877H65.8757V596.587V577.607H529.877H993.843Z" fill="#CD519C"/>
<path d="M65.8757 615.566H993.843V653.526H65.8757V615.566Z" fill="#C3178C"/>
<path d="M993.843 653.491V672.471V691.451H529.877H65.8757V672.471V653.491H529.877H993.843Z" fill="#A2238D"/>
<path d="M65.8757 691.45H993.843V729.41H65.8757V691.45Z" fill="#23161A"/>
<path d="M65.9109 805.294V729.41H993.878V805.294H65.9109Z" fill="#5287C6"/>
<path d="M65.8757 881.178V805.294H993.843V881.178H65.8757Z" fill="#4472B7"/>
<path d="M65.8757 957.062V881.178H993.843V957.062H65.8757Z" fill="#21386D"/>
<path d="M65.8757 805.294H993.843V843.254H65.8757V805.294Z" fill="#23161A"/>
<path d="M170.353 729.41H217.679V805.294H170.353V729.41Z" fill="#6EC7DB"/>
<path d="M217.679 729.41H255.638V805.294H217.679V729.41Z" fill="#4395A8"/>
<path d="M255.603 729.41H293.563V805.294H255.603V729.41Z" fill="#316C81"/>
<path d="M293.563 729.41H331.522V805.294H293.563V729.41Z" fill="#6EC7DB"/>
<path d="M331.487 729.41H369.447V805.294H331.487V729.41Z" fill="#4395A8"/>
<path d="M369.447 729.41H407.406V805.294H369.447V729.41Z" fill="#316C81"/>
<path d="M407.371 729.41H445.331V805.294H407.371V729.41Z" fill="#6EC7DB"/>
<path d="M445.331 729.41H483.29V805.294H445.331V729.41Z" fill="#4395A8"/>
<path d="M483.255 729.41H521.215V805.294H483.255V729.41Z" fill="#316C81"/>
<path d="M521.214 729.41H559.174V805.294H521.214V729.41Z" fill="#6EC7DB"/>
<path d="M559.174 729.41H597.134V805.294H559.174V729.41Z" fill="#4395A8"/>
<path d="M597.098 729.41H635.058V805.294H597.098V729.41Z" fill="#316C81"/>
<path d="M635.058 729.41H673.018V805.294H635.058V729.41Z" fill="#6EC7DB"/>
<path d="M672.982 729.41H710.942V805.294H672.982V729.41Z" fill="#4395A8"/>
<path d="M710.942 729.41H748.901V805.294H710.942V729.41Z" fill="#316C81"/>
<path d="M748.866 729.41H786.826V805.294H748.866V729.41Z" fill="#6EC7DB"/>
<path d="M786.826 729.41H824.785V805.294H786.826V729.41Z" fill="#4395A8"/>
<path d="M824.786 729.41H862.745V805.294H824.786V729.41Z" fill="#316C81"/>
<path d="M862.71 729.41H909.473V805.294H862.71V729.41Z" fill="#6EC7DB"/>
</g>
<path d="M830.962 852.076L821.602 835.864L823.493 834.772L829.122 844.522L830.976 837.177L833.295 835.838L831.254 843.742L840.374 846.642L837.965 848.033L829.512 845.197L832.853 850.984L830.962 852.076Z" fill="#1B3139"/>
<path d="M822.782 856.8L816.334 845.632L818.045 844.644L819.438 846.692C819.359 845.757 819.546 844.868 820 844.025C820.454 843.183 821.199 842.462 822.235 841.864L823.379 843.846L822.861 844.145C822.201 844.526 821.662 844.997 821.245 845.558C820.82 846.104 820.602 846.75 820.593 847.496C820.583 848.242 820.86 849.103 821.423 850.079L824.673 855.708L822.782 856.8Z" fill="#1B3139"/>
<path d="M814.702 861.825C813.651 862.431 812.566 862.737 811.448 862.742C810.331 862.747 809.273 862.457 808.274 861.873C807.283 861.264 806.445 860.367 805.76 859.181C805.075 857.996 804.729 856.824 804.722 855.668C804.706 854.496 804.98 853.427 805.543 852.462C806.121 851.487 806.936 850.697 807.987 850.09C809.037 849.483 810.122 849.178 811.24 849.173C812.358 849.168 813.412 849.469 814.404 850.078C815.402 850.662 816.244 851.548 816.928 852.733C817.613 853.919 817.963 855.098 817.979 856.27C817.986 857.426 817.701 858.492 817.123 859.466C816.559 860.432 815.752 861.218 814.702 861.825ZM813.766 860.204C814.411 859.831 814.92 859.327 815.294 858.691C815.667 858.055 815.845 857.322 815.826 856.492C815.807 855.662 815.529 854.782 814.992 853.851C814.454 852.921 813.831 852.24 813.122 851.809C812.428 851.369 811.712 851.152 810.974 851.157C810.237 851.163 809.553 851.347 808.923 851.711C808.277 852.084 807.768 852.588 807.394 853.224C807.021 853.86 806.844 854.593 806.862 855.423C806.881 856.253 807.159 857.133 807.696 858.063C808.234 858.994 808.857 859.675 809.566 860.106C810.276 860.537 810.991 860.755 811.714 860.758C812.451 860.752 813.135 860.568 813.766 860.204Z" fill="#1B3139"/>
<path d="M795.151 872.752L785.438 863.469L787.329 862.377L794.751 869.771L792.306 859.504L794.445 858.269L802.136 865.507L799.421 855.396L801.335 854.291L804.518 867.344L802.581 868.462L794.517 860.839L797.087 871.634L795.151 872.752Z" fill="#1B3139"/>
<path d="M788.605 876.532C787.584 877.121 786.638 877.337 785.767 877.18C784.895 877.023 784.087 876.298 783.341 875.007L779.792 868.86L777.856 869.978L776.933 868.38L778.869 867.262L777.57 864.439L779.214 863.49L780.761 866.17L784.048 864.272L784.971 865.87L781.684 867.768L785.233 873.915C785.64 874.621 786.06 875.019 786.493 875.109C786.916 875.185 787.489 875.015 788.209 874.599L789.38 873.923L790.316 875.544L788.605 876.532Z" fill="#1B3139"/>
<path d="M776.923 883.636C775.857 884.252 774.773 884.557 773.67 884.554C772.558 884.535 771.511 884.229 770.528 883.636C769.56 883.034 768.734 882.14 768.049 880.954C767.373 879.783 767.016 878.628 766.979 877.489C766.933 876.334 767.184 875.279 767.732 874.322C768.287 873.341 769.112 872.534 770.208 871.902C771.289 871.278 772.363 870.988 773.429 871.033C774.502 871.054 775.478 871.341 776.358 871.894C777.238 872.446 777.942 873.181 778.47 874.096C778.566 874.262 778.654 874.431 778.734 874.605C778.829 874.77 778.938 874.958 779.059 875.168L770.165 880.303C770.704 881.132 771.311 881.733 771.985 882.104C772.666 882.451 773.352 882.616 774.042 882.598C774.747 882.571 775.4 882.384 776 882.038C776.781 881.587 777.33 881.03 777.647 880.366C777.964 879.703 778.065 878.994 777.95 878.24L779.819 877.161C780.117 878.37 780.037 879.567 779.58 880.751C779.13 881.912 778.244 882.874 776.923 883.636ZM771.086 873.526C770.185 874.046 769.543 874.788 769.158 875.75C768.779 876.689 768.841 877.715 769.342 878.826L776.368 874.77C775.742 873.79 774.942 873.202 773.967 873.004C772.992 872.806 772.032 872.98 771.086 873.526Z" fill="#1B3139"/>
<path d="M756.334 895.163L747.234 879.401L749.126 878.309L764.817 886.092L757.524 873.46L759.416 872.368L768.516 888.13L766.624 889.222L750.933 881.439L758.226 894.071L756.334 895.163Z" fill="#1B3139"/>
<path d="M736.019 906.892L736.249 896.161L726.919 891.13L729.059 889.895L736.571 893.964L736.624 885.527L738.741 884.305L738.485 894.99L747.863 900.054L745.724 901.289L738.176 897.21L738.159 905.657L736.019 906.892Z" fill="#1B3139"/>
<path d="M723.832 913.929L717.384 902.76L719.095 901.772L720.365 903.711C720.318 902.798 720.515 901.943 720.956 901.148C721.398 900.353 722.047 899.708 722.902 899.214C724.223 898.452 725.508 898.25 726.756 898.61C728.011 898.946 729.12 899.948 730.082 901.614L733.852 908.144L731.96 909.236L728.307 902.909C726.964 900.582 725.332 899.973 723.41 901.082C722.45 901.637 721.85 902.454 721.612 903.532C721.38 904.586 721.637 905.759 722.382 907.05L725.723 912.837L723.832 913.929Z" fill="#1B3139"/>
<path d="M711.715 902.731C711.34 902.948 710.955 903.009 710.561 902.917C710.174 902.8 709.872 902.554 709.655 902.179C709.447 901.819 709.394 901.449 709.495 901.07C709.612 900.683 709.858 900.381 710.233 900.164C710.593 899.956 710.97 899.898 711.364 899.991C711.758 900.084 712.059 900.311 712.267 900.671C712.484 901.046 712.538 901.435 712.43 901.838C712.314 902.225 712.075 902.523 711.715 902.731ZM718.647 916.922L712.199 905.754L714.091 904.662L720.539 915.83L718.647 916.922Z" fill="#1B3139"/>
<path d="M714.15 919.518C713.13 920.108 712.183 920.324 711.312 920.166C710.441 920.009 709.632 919.285 708.887 917.994L705.338 911.847L703.401 912.965L702.478 911.366L704.415 910.248L703.116 907.426L704.759 906.477L706.306 909.156L709.594 907.258L710.517 908.857L707.229 910.755L710.778 916.902C711.186 917.607 711.606 918.005 712.038 918.096C712.462 918.171 713.034 918.001 713.755 917.585L714.926 916.909L715.862 918.53L714.15 919.518Z" fill="#1B3139"/>
<path d="M701.734 927.046C700.804 927.583 699.939 927.872 699.142 927.912C698.345 927.952 697.644 927.796 697.041 927.444C696.437 927.092 695.958 926.609 695.602 925.993C694.944 924.852 694.872 923.723 695.387 922.605C695.902 921.487 696.911 920.494 698.412 919.627L701.429 917.885L701.351 917.75C700.788 916.775 700.108 916.186 699.311 915.986C698.506 915.77 697.676 915.909 696.82 916.403C696.085 916.828 695.555 917.384 695.232 918.071C694.914 918.735 694.892 919.458 695.164 920.242L693.227 921.36C692.834 920.506 692.71 919.667 692.855 918.843C693.015 918.01 693.365 917.247 693.906 916.555C694.438 915.847 695.102 915.264 695.897 914.804C697.459 913.903 698.872 913.647 700.138 914.037C701.41 914.404 702.445 915.277 703.242 916.658L707.207 923.526L705.519 924.501L704.249 922.562C704.298 923.374 704.144 924.184 703.789 924.989C703.44 925.771 702.755 926.457 701.734 927.046ZM701.104 925.278C701.824 924.862 702.332 924.32 702.625 923.65C702.934 922.971 703.05 922.253 702.974 921.497C702.897 920.741 702.668 920.032 702.287 919.372L702.274 919.349L699.414 921C698.304 921.641 697.628 922.292 697.388 922.95C697.154 923.586 697.202 924.189 697.532 924.759C697.87 925.344 698.353 925.696 698.981 925.814C699.616 925.908 700.323 925.729 701.104 925.278Z" fill="#1B3139"/>
<path d="M686.146 935.686L677.046 919.925L678.937 918.833L687.166 933.086L694.506 928.848L695.377 930.356L686.146 935.686Z" fill="#1B3139"/>
<path d="M672.926 943.679C671.935 944.251 670.973 944.596 670.041 944.714C669.1 944.817 668.239 944.714 667.459 944.403C666.68 944.093 666.028 943.588 665.505 942.89L668.41 941.213C668.751 941.596 669.208 941.833 669.78 941.923C670.359 941.989 670.963 941.84 671.594 941.476C672.224 941.112 672.608 940.72 672.746 940.3C672.899 939.872 672.88 939.492 672.69 939.162C672.412 938.682 672.016 938.48 671.5 938.558C670.976 938.62 670.291 938.786 669.445 939.054C668.904 939.226 668.342 939.38 667.76 939.516C667.178 939.652 666.612 939.729 666.062 939.746C665.518 939.74 665.014 939.63 664.551 939.417C664.079 939.189 663.687 938.805 663.375 938.265C662.803 937.274 662.712 936.216 663.103 935.09C663.509 933.955 664.424 932.976 665.851 932.152C667.172 931.39 668.4 931.091 669.536 931.256C670.687 931.412 671.649 931.987 672.423 932.981L669.699 934.554C669.057 933.824 668.196 933.77 667.115 934.394C666.575 934.706 666.215 935.054 666.036 935.438C665.872 935.813 665.881 936.158 666.063 936.473C666.254 936.803 666.623 936.94 667.171 936.884C667.719 936.828 668.401 936.674 669.217 936.423C670.102 936.153 670.932 935.944 671.707 935.796C672.489 935.625 673.201 935.644 673.842 935.854C674.475 936.049 675.021 936.545 675.481 937.34C675.894 938.022 676.074 938.749 676.019 939.521C675.965 940.293 675.676 941.041 675.152 941.763C674.629 942.486 673.886 943.124 672.926 943.679Z" fill="#1B3139"/>
<path d="M655.906 953.146L646.546 936.934L649.428 935.27L654.953 944.839L656.303 938.025L659.726 936.049L658.093 943.777L666.917 946.789L663.314 948.869L655.551 945.875L658.788 951.482L655.906 953.146Z" fill="#1B3139"/>
<path d="M648.032 958.052C646.892 958.71 645.743 959.043 644.586 959.051C643.429 959.058 642.34 958.766 641.319 958.175C640.312 957.575 639.479 956.705 638.821 955.564C638.162 954.423 637.825 953.267 637.809 952.096C637.808 950.915 638.099 949.826 638.684 948.828C639.269 947.83 640.132 947.002 641.272 946.343C642.698 945.52 644.116 945.202 645.525 945.389C646.925 945.561 648.138 946.222 649.162 947.372L646.122 949.127C645.66 948.673 645.117 948.426 644.493 948.386C643.876 948.322 643.267 948.464 642.667 948.81C641.871 949.27 641.369 949.96 641.16 950.881C640.952 951.802 641.155 952.796 641.77 953.861C642.386 954.927 643.144 955.6 644.046 955.88C644.948 956.159 645.797 956.07 646.593 955.61C647.193 955.264 647.625 954.815 647.886 954.263C648.163 953.703 648.217 953.102 648.046 952.46L651.086 950.705C651.544 952.121 651.506 953.494 650.972 954.823C650.438 956.152 649.458 957.228 648.032 958.052Z" fill="#1B3139"/>
<path d="M630.507 950.607C629.981 950.91 629.455 951.004 628.928 950.888C628.415 950.763 628.021 950.461 627.743 949.981C627.466 949.5 627.406 949.015 627.563 948.524C627.726 948.009 628.07 947.6 628.596 947.297C629.121 946.994 629.64 946.904 630.152 947.029C630.671 947.13 631.069 947.42 631.346 947.901C631.623 948.381 631.68 948.878 631.517 949.393C631.369 949.899 631.032 950.304 630.507 950.607ZM636.514 964.341L630.066 953.173L632.949 951.509L639.397 962.677L636.514 964.341Z" fill="#1B3139"/>
<path d="M627.474 969.561L621.026 958.392L623.593 956.91L625.072 958.848C625.062 957.894 625.28 957.007 625.728 956.188C626.182 955.345 626.882 954.651 627.828 954.105L629.583 957.145L628.772 957.613C628.142 957.977 627.635 958.399 627.253 958.881C626.87 959.362 626.675 959.925 626.667 960.57C626.674 961.206 626.924 961.952 627.418 962.808L630.356 967.897L627.474 969.561Z" fill="#1B3139"/>
<path d="M619.562 974.489C618.721 974.975 617.894 975.242 617.082 975.29C616.27 975.339 615.503 975.191 614.784 974.846L615.353 976.559L612.786 978.041L603.426 961.829L606.308 960.165L610.143 966.808C610.217 966.104 610.439 965.396 610.807 964.683C611.191 963.961 611.856 963.327 612.802 962.781C613.852 962.174 614.938 961.887 616.058 961.921C617.178 961.955 618.234 962.276 619.226 962.884C620.218 963.493 621.039 964.36 621.689 965.485C622.339 966.611 622.679 967.756 622.71 968.919C622.732 970.067 622.478 971.134 621.947 972.121C621.408 973.093 620.612 973.883 619.562 974.489ZM617.498 972.318C618.413 971.79 618.994 971.044 619.239 970.082C619.484 969.12 619.325 968.151 618.762 967.175C618.198 966.2 617.434 965.57 616.47 965.286C615.505 965.002 614.565 965.125 613.65 965.653C612.719 966.191 612.135 966.948 611.899 967.925C611.669 968.879 611.835 969.843 612.399 970.819C612.962 971.795 613.719 972.429 614.668 972.721C615.624 972.99 616.567 972.856 617.498 972.318Z" fill="#1B3139"/>
<path d="M603.797 983.59C602.836 984.145 601.961 984.45 601.172 984.505C600.375 984.545 599.679 984.397 599.084 984.06C598.489 983.723 598.014 983.246 597.659 982.631C597.061 981.595 596.98 980.521 597.418 979.407C597.856 978.294 598.886 977.269 600.507 976.333L603.344 974.695L603.188 974.425C602.746 973.659 602.204 973.222 601.56 973.113C600.917 973.004 600.273 973.136 599.627 973.509C599.042 973.847 598.614 974.284 598.343 974.82C598.064 975.342 598.027 975.903 598.234 976.504L595.42 978.129C595.027 977.275 594.89 976.414 595.008 975.545C595.142 974.667 595.493 973.854 596.062 973.105C596.622 972.342 597.367 971.691 598.298 971.154C599.889 970.235 601.372 969.909 602.747 970.176C604.122 970.443 605.23 971.305 606.07 972.761L610.035 979.628L607.581 981.045L606.271 979.4C606.287 980.191 606.108 980.955 605.733 981.692C605.373 982.42 604.727 983.053 603.797 983.59ZM603.15 980.962C603.975 980.485 604.457 979.847 604.596 979.046C604.749 978.237 604.656 977.4 604.317 976.535L601.862 977.952C601.097 978.394 600.631 978.853 600.466 979.329C600.291 979.79 600.321 980.223 600.555 980.628C600.807 981.064 601.167 981.306 601.636 981.356C602.105 981.405 602.609 981.274 603.15 980.962Z" fill="#1B3139"/>
<path d="M595.289 988.142C594.118 988.818 593.015 989.075 591.981 988.912C590.946 988.749 590.008 987.939 589.167 986.483L586.359 981.619L584.445 982.724L583.054 980.315L584.968 979.21L583.577 976.02L586.121 974.551L587.85 977.546L590.868 975.804L592.259 978.213L589.241 979.955L592.062 984.841C592.374 985.382 592.704 985.692 593.05 985.772C593.403 985.829 593.865 985.692 594.435 985.363L595.831 984.557L597.248 987.011L595.289 988.142Z" fill="#1B3139"/>
<path d="M581.478 996.476C580.517 997.031 579.642 997.336 578.854 997.391C578.056 997.431 577.36 997.283 576.765 996.945C576.17 996.608 575.695 996.132 575.34 995.517C574.742 994.481 574.662 993.406 575.1 992.293C575.538 991.179 576.567 990.155 578.188 989.219L581.025 987.581L580.869 987.31C580.427 986.545 579.885 986.108 579.242 985.999C578.598 985.89 577.954 986.022 577.308 986.394C576.723 986.732 576.295 987.17 576.024 987.706C575.745 988.228 575.709 988.789 575.916 989.39L573.101 991.015C572.708 990.161 572.571 989.3 572.69 988.43C572.823 987.553 573.174 986.739 573.743 985.991C574.303 985.227 575.048 984.577 575.979 984.04C577.57 983.121 579.053 982.795 580.428 983.062C581.803 983.329 582.911 984.19 583.752 985.646L587.717 992.514L585.262 993.931L583.952 992.286C583.969 993.077 583.789 993.841 583.414 994.578C583.054 995.306 582.409 995.939 581.478 996.476ZM580.831 993.848C581.656 993.371 582.138 992.732 582.277 991.932C582.43 991.123 582.337 990.286 581.998 989.421L579.544 990.838C578.778 991.28 578.312 991.739 578.147 992.215C577.973 992.676 578.003 993.109 578.237 993.514C578.488 993.949 578.848 994.192 579.317 994.241C579.786 994.291 580.29 994.16 580.831 993.848Z" fill="#1B3139"/>
<path d="M561.531 1007.63L552.431 991.871L557.813 988.764C559.659 987.698 561.366 987.153 562.933 987.129C564.507 987.081 565.921 987.485 567.176 988.342C568.437 989.175 569.527 990.387 570.446 991.978C571.365 993.569 571.874 995.127 571.973 996.651C572.079 998.151 571.722 999.578 570.902 1000.93C570.089 1002.26 568.759 1003.46 566.913 1004.53L561.531 1007.63ZM562.983 1003.49L565.348 1002.13C566.669 1001.36 567.59 1000.55 568.113 999.689C568.628 998.812 568.82 997.88 568.691 996.894C568.553 995.893 568.155 994.822 567.496 993.681C566.846 992.555 566.122 991.682 565.324 991.062C564.526 990.442 563.618 990.136 562.601 990.142C561.584 990.149 560.416 990.534 559.095 991.296L556.73 992.661L562.983 1003.49Z" fill="#1B3139"/>
</svg>
