<svg width="1080" height="1080" viewBox="0 0 1080 1080" fill="none" xmlns="http://www.w3.org/2000/svg">
<path d="M920.389 759.482V320.482L540.194 101L160 320.482V759.482L540.194 979L920.389 759.482Z" fill="#1B3139"/>
<mask id="mask0_4201_1674" style="mask-type:luminance" maskUnits="userSpaceOnUse" x="188" y="133" width="705" height="814">
<path d="M892.359 743.285V336.681L540.194 133.361L188.065 336.681V743.285L540.194 946.605L892.359 743.285Z" fill="white"/>
</mask>
<g mask="url(#mask0_4201_1674)">
<path d="M65.9109 198.187V122.303H993.878V198.187H65.9109Z" fill="#C83027"/>
<path d="M65.8757 274.071V198.187H993.843V274.071H65.8757Z" fill="#E38839"/>
<path d="M65.8757 349.955V274.071H993.843V349.955H65.8757Z" fill="#EEB64D"/>
<path d="M65.8757 425.839V349.955H993.843V425.839H65.8757Z" fill="#FFF100"/>
<path d="M993.843 463.799V448.833V425.839H529.877H65.8757V448.833V471.827V501.723H993.843V463.799Z" fill="#AFD136"/>
<path d="M993.843 501.723V520.703V539.682H529.877H65.8757V520.703V501.723H529.877H993.843Z" fill="#315E32"/>
<path d="M65.8757 539.682H993.843V577.642H65.8757V539.682Z" fill="#23161A"/>
<path d="M993.843 577.607V596.587V615.567H529.877H65.8757V596.587V577.607H529.877H993.843Z" fill="#CD519C"/>
<path d="M65.8757 615.567H993.843V653.526H65.8757V615.567Z" fill="#C3178C"/>
<path d="M993.843 653.491V672.471V691.45H529.877H65.8757V672.471V653.491H529.877H993.843Z" fill="#A2238D"/>
<path d="M65.8757 691.45H993.843V729.41H65.8757V691.45Z" fill="#23161A"/>
<path d="M65.9109 805.294V729.41H993.878V805.294H65.9109Z" fill="#5287C6"/>
<path d="M65.8757 881.177V805.293H993.843V881.177H65.8757Z" fill="#4472B7"/>
<path d="M65.8757 957.062V881.178H993.843V957.062H65.8757Z" fill="#21386D"/>
<path d="M65.8757 805.294H993.843V843.253H65.8757V805.294Z" fill="#23161A"/>
<path d="M170.353 729.41H217.679V805.294H170.353V729.41Z" fill="#6EC7DB"/>
<path d="M217.679 729.41H255.638V805.294H217.679V729.41Z" fill="#4395A8"/>
<path d="M255.603 729.41H293.563V805.294H255.603V729.41Z" fill="#316C81"/>
<path d="M293.563 729.41H331.522V805.294H293.563V729.41Z" fill="#6EC7DB"/>
<path d="M331.487 729.41H369.447V805.294H331.487V729.41Z" fill="#4395A8"/>
<path d="M369.447 729.41H407.406V805.294H369.447V729.41Z" fill="#316C81"/>
<path d="M407.371 729.41H445.331V805.294H407.371V729.41Z" fill="#6EC7DB"/>
<path d="M445.331 729.41H483.29V805.294H445.331V729.41Z" fill="#4395A8"/>
<path d="M483.255 729.41H521.215V805.294H483.255V729.41Z" fill="#316C81"/>
<path d="M521.214 729.41H559.174V805.294H521.214V729.41Z" fill="#6EC7DB"/>
<path d="M559.174 729.41H597.134V805.294H559.174V729.41Z" fill="#4395A8"/>
<path d="M597.098 729.41H635.058V805.294H597.098V729.41Z" fill="#316C81"/>
<path d="M635.058 729.41H673.018V805.294H635.058V729.41Z" fill="#6EC7DB"/>
<path d="M672.982 729.41H710.942V805.294H672.982V729.41Z" fill="#4395A8"/>
<path d="M710.942 729.41H748.901V805.294H710.942V729.41Z" fill="#316C81"/>
<path d="M748.866 729.41H786.826V805.294H748.866V729.41Z" fill="#6EC7DB"/>
<path d="M786.826 729.41H824.785V805.294H786.826V729.41Z" fill="#4395A8"/>
<path d="M824.786 729.41H862.745V805.294H824.786V729.41Z" fill="#316C81"/>
<path d="M862.71 729.41H909.473V805.294H862.71V729.41Z" fill="#6EC7DB"/>
</g>
</svg>
