<svg width="150" height="150" viewBox="0 0 150 150" fill="none" xmlns="http://www.w3.org/2000/svg">
<path d="M130.61 25.11H27.07C25.1268 25.1126 23.2639 25.8857 21.8898 27.2598C20.5158 28.6339 19.7426 30.4968 19.74 32.44V47H126.29V44H22.74V32.44C22.74 31.2916 23.1962 30.1902 24.0082 29.3782C24.8203 28.5662 25.9216 28.11 27.07 28.11H130.61C131.179 28.11 131.742 28.222 132.267 28.4396C132.792 28.6572 133.27 28.9761 133.672 29.3782C134.074 29.7803 134.393 30.2576 134.61 30.783C134.828 31.3083 134.94 31.8714 134.94 32.44V117.56C134.94 118.129 134.828 118.692 134.61 119.217C134.393 119.742 134.074 120.22 133.672 120.622C133.27 121.024 132.792 121.343 132.267 121.56C131.742 121.778 131.179 121.89 130.61 121.89H27.07C25.9216 121.89 24.8203 121.434 24.0082 120.622C23.1962 119.81 22.74 118.708 22.74 117.56V115.05H19.74V117.56C19.7426 119.503 20.5158 121.366 21.8898 122.74C23.2639 124.114 25.1268 124.887 27.07 124.89H130.61C132.553 124.887 134.416 124.114 135.79 122.74C137.164 121.366 137.937 119.503 137.94 117.56V32.44C137.937 30.4968 137.164 28.6339 135.79 27.2598C134.416 25.8857 132.553 25.1126 130.61 25.11Z" fill="#FF5F46"/>
<path d="M29.4399 36.18C29.4399 36.6369 29.5754 37.0835 29.8292 37.4634C30.0831 37.8432 30.4438 38.1393 30.8659 38.3142C31.288 38.489 31.7525 38.5347 32.2006 38.4456C32.6487 38.3565 33.0603 38.1365 33.3834 37.8134C33.7064 37.4904 33.9264 37.0787 34.0156 36.6307C34.1047 36.1826 34.0589 35.7181 33.8841 35.296C33.7093 34.8739 33.4132 34.5131 33.0333 34.2593C32.6534 34.0055 32.2068 33.87 31.7499 33.87C31.1373 33.87 30.5497 34.1134 30.1165 34.5466C29.6833 34.9798 29.4399 35.5673 29.4399 36.18Z" fill="#FF5F46"/>
<path d="M38.36 36.18C38.36 36.6369 38.4955 37.0835 38.7493 37.4634C39.0031 37.8433 39.3639 38.1393 39.786 38.3142C40.2081 38.489 40.6726 38.5348 41.1207 38.4456C41.5688 38.3565 41.9804 38.1365 42.3034 37.8134C42.6265 37.4904 42.8465 37.0788 42.9356 36.6307C43.0248 36.1826 42.979 35.7181 42.8042 35.296C42.6293 34.8739 42.3333 34.5131 41.9534 34.2593C41.5735 34.0055 41.1269 33.87 40.67 33.87C40.3663 33.8687 40.0653 33.9275 39.7844 34.0432C39.5036 34.1588 39.2484 34.3289 39.0336 34.5437C38.8189 34.7584 38.6488 35.0136 38.5331 35.2945C38.4175 35.5753 38.3587 35.8763 38.36 36.18Z" fill="#FF5F46"/>
<path d="M47.2801 36.18C47.2801 36.6369 47.4155 37.0835 47.6694 37.4634C47.9232 37.8433 48.284 38.1393 48.7061 38.3142C49.1282 38.489 49.5926 38.5348 50.0407 38.4456C50.4888 38.3565 50.9004 38.1365 51.2235 37.8134C51.5465 37.4904 51.7665 37.0788 51.8557 36.6307C51.9448 36.1826 51.8991 35.7181 51.7242 35.296C51.5494 34.8739 51.2533 34.5131 50.8734 34.2593C50.4935 34.0055 50.0469 33.87 49.5901 33.87C49.2863 33.8687 48.9853 33.9275 48.7045 34.0432C48.4236 34.1588 48.1685 34.3289 47.9537 34.5437C47.7389 34.7584 47.5688 35.0136 47.4532 35.2945C47.3376 35.5753 47.2787 35.8763 47.2801 36.18Z" fill="#FF5F46"/>
<path d="M30.43 100.66C30.4212 99.0184 29.9723 97.4092 29.13 96L44.2401 82.1C45.1857 82.9406 46.2949 83.5765 47.498 83.9681C48.701 84.3596 49.9721 84.4982 51.2313 84.3752C52.4905 84.2522 53.7107 83.8702 54.8153 83.2533C55.9198 82.6363 56.885 81.7977 57.6501 80.79L78.77 91.93C78.3551 93.1911 78.2186 94.5271 78.3699 95.846C78.5213 97.1649 78.9569 98.4353 79.6467 99.5696C80.3366 100.704 81.2642 101.675 82.3657 102.416C83.4672 103.157 84.7163 103.65 86.0269 103.862C87.3375 104.074 88.6784 103.999 89.9571 103.642C91.2358 103.285 92.422 102.655 93.4337 101.796C94.4455 100.936 95.2587 99.8672 95.8175 98.663C96.3762 97.4587 96.6671 96.1476 96.67 94.82C96.6705 92.9793 96.1165 91.1812 95.08 89.66L113.74 71.87C115.58 73.2534 117.873 73.8942 120.163 73.6653C122.453 73.4364 124.574 72.3545 126.103 70.6344C127.633 68.9143 128.46 66.6819 128.42 64.3804C128.379 62.079 127.475 59.8768 125.886 58.2113C124.297 56.5457 122.14 55.5386 119.843 55.3899C117.546 55.2412 115.277 55.9618 113.487 57.4086C111.697 58.8554 110.516 60.9226 110.18 63.1996C109.843 65.4767 110.375 67.7971 111.67 69.7L93 87.49C91.0616 86.0275 88.6222 85.3936 86.217 85.7273C83.8118 86.061 81.6371 87.3351 80.17 89.27L59.0601 78.15C59.4855 76.8859 59.6306 75.5443 59.4854 74.2184C59.3402 72.8926 58.9081 71.6142 58.2192 70.4721C57.5302 69.33 56.6009 68.3516 55.4958 67.6048C54.3908 66.8579 53.1363 66.3606 51.8197 66.1473C50.5031 65.9339 49.1558 66.0098 47.8714 66.3695C46.5871 66.7292 45.3964 67.3642 44.3821 68.2304C43.3678 69.0965 42.5542 70.1731 41.9978 71.3853C41.4414 72.5975 41.1555 73.9162 41.16 75.25C41.1564 76.8346 41.5666 78.3927 42.35 79.77L25.08 95.6L26 96.7C26.8981 97.7806 27.4011 99.135 27.4262 100.54C27.4512 101.945 26.9968 103.316 26.1378 104.428C25.2788 105.54 24.0666 106.326 22.7009 106.657C21.3353 106.987 19.8977 106.842 18.6254 106.246C17.353 105.65 16.3217 104.638 15.7016 103.378C15.0815 102.117 14.9095 100.682 15.2141 99.3105C15.5186 97.9388 16.2815 96.7119 17.377 95.8319C18.4724 94.952 19.835 94.4716 21.24 94.47H22.74V58.26H19.74V91.59C18.0102 91.8762 16.3983 92.6513 15.0947 93.8238C13.791 94.9962 12.8499 96.5172 12.3826 98.2071C11.9152 99.897 11.941 101.685 12.457 103.361C12.9729 105.037 13.9575 106.53 15.2944 107.664C16.6314 108.799 18.265 109.527 20.0024 109.763C21.7398 109.999 23.5084 109.733 25.0997 108.997C26.6909 108.261 28.0383 107.084 28.9828 105.607C29.9272 104.13 30.4294 102.413 30.43 100.66ZM119.27 58.35C120.494 58.35 121.691 58.7131 122.709 59.3932C123.727 60.0734 124.52 61.0401 124.989 62.1712C125.457 63.3023 125.58 64.5469 125.341 65.7476C125.102 66.9484 124.513 68.0513 123.647 68.917C122.781 69.7827 121.678 70.3722 120.478 70.6111C119.277 70.8499 118.032 70.7273 116.901 70.2588C115.77 69.7903 114.803 68.9969 114.123 67.979C113.443 66.9611 113.08 65.7643 113.08 64.54C113.08 62.8983 113.732 61.3239 114.893 60.163C116.054 59.0022 117.628 58.35 119.27 58.35ZM87.48 88.64C88.7052 88.638 89.9033 88.9997 90.9228 89.6791C91.9423 90.3585 92.7372 91.3251 93.2069 92.4566C93.6767 93.5881 93.8001 94.8335 93.5616 96.0352C93.3231 97.2368 92.7333 98.3407 91.867 99.207C91.0007 100.073 89.8969 100.663 88.6952 100.902C87.4935 101.14 86.2481 101.017 85.1166 100.547C83.9851 100.077 83.0185 99.2822 82.3391 98.2628C81.6597 97.2433 81.2981 96.0451 81.3 94.82C81.3027 93.1818 81.9546 91.6114 83.113 90.453C84.2714 89.2946 85.8418 88.6427 87.48 88.64ZM50.34 69.05C51.5647 69.048 52.7625 69.4094 53.7817 70.0884C54.801 70.7673 55.596 71.7334 56.066 72.8643C56.536 73.9952 56.66 75.2401 56.4223 76.4415C56.1846 77.6429 55.5959 78.7468 54.7306 79.6135C53.8653 80.4802 52.7624 81.0707 51.5613 81.3103C50.3603 81.55 49.1152 81.428 47.9836 80.9598C46.8519 80.4916 45.8846 79.6982 45.204 78.68C44.5233 77.6619 44.16 76.4647 44.16 75.24C44.16 73.6001 44.8108 72.0271 45.9695 70.8666C47.1282 69.706 48.7001 69.0527 50.34 69.05Z" fill="#FF5F46"/>
</svg>
