<svg width="150" height="150" viewBox="0 0 150 150" fill="none" xmlns="http://www.w3.org/2000/svg">
<path d="M130.61 25.1101H27.07C25.1268 25.1128 23.2639 25.8859 21.8898 27.2599C20.5158 28.634 19.7427 30.4969 19.74 32.4401V47.0001H126.29V44.0001H22.74V32.4401C22.74 31.2917 23.1962 30.1904 24.0082 29.3783C24.8203 28.5663 25.9216 28.1101 27.07 28.1101H130.61C131.179 28.1101 131.742 28.2221 132.267 28.4397C132.792 28.6573 133.27 28.9763 133.672 29.3783C134.074 29.7804 134.393 30.2577 134.61 30.7831C134.828 31.3084 134.94 31.8715 134.94 32.4401V117.56C134.94 118.129 134.828 118.692 134.61 119.217C134.393 119.742 134.074 120.22 133.672 120.622C133.27 121.024 132.792 121.343 132.267 121.561C131.742 121.778 131.179 121.89 130.61 121.89H27.07C25.9216 121.89 24.8203 121.434 24.0082 120.622C23.1962 119.81 22.74 118.708 22.74 117.56V115.05H19.74V117.56C19.7427 119.503 20.5158 121.366 21.8898 122.74C23.2639 124.114 25.1268 124.887 27.07 124.89H130.61C132.553 124.887 134.416 124.114 135.79 122.74C137.164 121.366 137.937 119.503 137.94 117.56V32.4401C137.937 30.4969 137.164 28.634 135.79 27.2599C134.416 25.8859 132.553 25.1128 130.61 25.1101V25.1101Z" fill="white"/>
<path d="M29.44 36.1801C29.44 36.637 29.5755 37.0836 29.8293 37.4635C30.0831 37.8434 30.4439 38.1394 30.866 38.3143C31.2881 38.4891 31.7526 38.5349 32.2007 38.4457C32.6488 38.3566 33.0604 38.1366 33.3834 37.8135C33.7065 37.4905 33.9265 37.0789 34.0156 36.6308C34.1047 36.1827 34.059 35.7182 33.8842 35.2961C33.7093 34.874 33.4132 34.5132 33.0334 34.2594C32.6535 34.0056 32.2069 33.8701 31.75 33.8701C31.1374 33.8701 30.5498 34.1135 30.1166 34.5467C29.6834 34.9799 29.44 35.5675 29.44 36.1801V36.1801Z" fill="white"/>
<path d="M38.36 36.1799C38.36 36.6368 38.4955 37.0834 38.7493 37.4633C39.0031 37.8431 39.3639 38.1392 39.786 38.3141C40.2081 38.4889 40.6726 38.5346 41.1207 38.4455C41.5688 38.3564 41.9804 38.1364 42.3034 37.8133C42.6265 37.4903 42.8465 37.0786 42.9356 36.6306C43.0248 36.1825 42.979 35.718 42.8042 35.2959C42.6293 34.8738 42.3333 34.513 41.9534 34.2592C41.5735 34.0054 41.1269 33.8699 40.67 33.8699C40.3663 33.8686 40.0653 33.9274 39.7844 34.043C39.5036 34.1587 39.2484 34.3288 39.0336 34.5435C38.8189 34.7583 38.6488 35.0135 38.5331 35.2943C38.4175 35.5752 38.3587 35.8762 38.36 36.1799V36.1799Z" fill="white"/>
<path d="M47.28 36.1799C47.28 36.6368 47.4155 37.0834 47.6693 37.4633C47.9231 37.8431 48.2839 38.1392 48.706 38.3141C49.1281 38.4889 49.5926 38.5346 50.0407 38.4455C50.4888 38.3564 50.9004 38.1364 51.2234 37.8133C51.5465 37.4903 51.7665 37.0786 51.8556 36.6306C51.9447 36.1825 51.899 35.718 51.7242 35.2959C51.5493 34.8738 51.2532 34.513 50.8734 34.2592C50.4935 34.0054 50.0469 33.8699 49.59 33.8699C49.2863 33.8686 48.9853 33.9274 48.7044 34.043C48.4236 34.1587 48.1684 34.3288 47.9536 34.5435C47.7389 34.7583 47.5688 35.0135 47.4531 35.2943C47.3375 35.5752 47.2787 35.8762 47.28 36.1799V36.1799Z" fill="white"/>
<path d="M30.43 100.66C30.4211 99.0183 29.9722 97.4091 29.13 95.9999L44.24 82.0999C45.1856 82.9404 46.2948 83.5764 47.4979 83.9679C48.701 84.3595 49.972 84.4981 51.2312 84.3751C52.4905 84.2521 53.7106 83.8701 54.8152 83.2531C55.9198 82.6362 56.8849 81.7976 57.65 80.7899V80.7899L78.77 91.9299C78.355 93.1909 78.2185 94.527 78.3699 95.8459C78.5212 97.1648 78.9568 98.4352 79.6467 99.5695C80.3365 100.704 81.2642 101.675 82.3656 102.416C83.4671 103.157 84.7162 103.65 86.0268 103.862C87.3374 104.074 88.6783 103.998 89.9571 103.642C91.2358 103.285 92.4219 102.655 93.4337 101.795C94.4454 100.936 95.2587 99.8671 95.8174 98.6629C96.3761 97.4586 96.667 96.1475 96.67 94.8199C96.6705 92.9792 96.1164 91.1811 95.08 89.6599V89.6599L113.74 71.8699C115.58 73.2532 117.872 73.8941 120.163 73.6652C122.453 73.4362 124.574 72.3543 126.103 70.6343C127.633 68.9142 128.46 66.6818 128.42 64.3803C128.379 62.0788 127.475 59.8767 125.886 58.2111C124.297 56.5456 122.14 55.5385 119.843 55.3898C117.546 55.2411 115.277 55.9617 113.487 57.4085C111.697 58.8553 110.516 60.9225 110.18 63.1995C109.843 65.4766 110.375 67.797 111.67 69.6999L93 87.4899C91.0616 86.0274 88.6222 85.3935 86.217 85.7272C83.8118 86.0609 81.6371 87.3349 80.17 89.2699V89.2699L59.06 78.1499C59.4854 76.8858 59.6305 75.5442 59.4853 74.2183C59.3401 72.8925 58.908 71.6141 58.2191 70.472C57.5302 69.3299 56.6009 68.3515 55.4958 67.6046C54.3907 66.8578 53.1363 66.3604 51.8197 66.1471C50.503 65.9338 49.1558 66.0097 47.8714 66.3694C46.587 66.7291 45.3964 67.3641 44.3821 68.2302C43.3678 69.0964 42.5542 70.1729 41.9978 71.3851C41.4414 72.5973 41.1555 73.9161 41.16 75.2499C41.1564 76.8345 41.5666 78.3925 42.35 79.7699L25.08 95.5999L26 96.6999C26.8981 97.7805 27.4011 99.1349 27.4261 100.54C27.4512 101.945 26.9967 103.316 26.1378 104.428C25.2788 105.54 24.0665 106.326 22.7009 106.656C21.3352 106.987 19.8977 106.842 18.6253 106.246C17.3529 105.65 16.3217 104.638 15.7016 103.377C15.0814 102.117 14.9095 100.682 15.214 99.3104C15.5186 97.9387 16.2815 96.7117 17.3769 95.8318C18.4723 94.9519 19.8349 94.4715 21.24 94.4699H22.74V58.2599H19.74V91.5899C18.0102 91.8761 16.3983 92.6512 15.0946 93.8236C13.7909 94.9961 12.8499 96.5171 12.3825 98.207C11.9151 99.8969 11.941 101.685 12.4569 103.361C12.9729 105.037 13.9574 106.53 15.2944 107.664C16.6314 108.799 18.2649 109.527 20.0023 109.763C21.7397 109.999 23.5084 109.733 25.0996 108.997C26.6908 108.261 28.0382 107.084 28.9827 105.607C29.9272 104.13 30.4294 102.413 30.43 100.66V100.66ZM119.27 58.3499C120.494 58.3499 121.691 58.7129 122.709 59.3931C123.727 60.0733 124.52 61.04 124.989 62.1711C125.457 63.3022 125.58 64.5468 125.341 65.7475C125.102 66.9483 124.513 68.0512 123.647 68.9169C122.781 69.7826 121.678 70.3721 120.478 70.611C119.277 70.8498 118.032 70.7272 116.901 70.2587C115.77 69.7902 114.803 68.9968 114.123 67.9789C113.443 66.9609 113.08 65.7642 113.08 64.5399C113.08 62.8982 113.732 61.3238 114.893 60.1629C116.054 59.0021 117.628 58.3499 119.27 58.3499V58.3499ZM87.48 88.6399C88.7051 88.6379 89.9033 88.9995 90.9227 89.6789C91.9422 90.3583 92.7371 91.325 93.2069 92.4565C93.6766 93.5879 93.8001 94.8334 93.5615 96.035C93.323 97.2367 92.7333 98.3406 91.867 99.2069C91.0007 100.073 89.8968 100.663 88.6952 100.901C87.4935 101.14 86.2481 101.017 85.1166 100.547C83.9851 100.077 83.0184 99.2821 82.339 98.2626C81.6596 97.2432 81.298 96.045 81.3 94.8199C81.3026 93.1817 81.9546 91.6113 83.113 90.4529C84.2714 89.2945 85.8418 88.6425 87.48 88.6399V88.6399ZM50.34 69.0499C51.5647 69.0479 52.7624 69.4093 53.7817 70.0882C54.801 70.7672 55.5959 71.7333 56.0659 72.8642C56.536 73.9951 56.66 75.24 56.4223 76.4414C56.1846 77.6428 55.5958 78.7467 54.7305 79.6133C53.8652 80.48 52.7623 81.0706 51.5613 81.3102C50.3603 81.5499 49.1152 81.4279 47.9835 80.9597C46.8519 80.4915 45.8845 79.6981 45.2039 78.6799C44.5233 77.6618 44.16 76.4646 44.16 75.2399C44.16 73.5999 44.8108 72.027 45.9695 70.8664C47.1282 69.7059 48.7 69.0526 50.34 69.0499V69.0499Z" fill="white"/>
</svg>
