<svg width="150" height="150" viewBox="0 0 150 150" fill="none" xmlns="http://www.w3.org/2000/svg">
<path d="M138.07 65.8101C135.886 65.8108 133.774 66.5892 132.112 68.0056C130.45 69.4221 129.347 71.3841 129 73.5401H121.92C121.802 69.6011 121.184 65.6931 120.08 61.9101C120.039 61.7442 119.989 61.5806 119.93 61.4201C119.649 60.4034 119.315 59.402 118.93 58.4201C118.361 56.8654 117.693 55.349 116.93 53.8801C116.72 53.4401 116.51 53.0101 116.3 52.6401C116.3 52.5701 116.21 52.5001 116.13 52.3501V52.2401C115.88 51.7901 115.63 51.3701 115.38 50.9601C114.9 50.1401 114.38 49.3201 113.82 48.5301L121.37 41.0001C122.921 42.1201 124.787 42.722 126.7 42.7201C128.757 42.7205 130.754 42.0295 132.37 40.7582C133.987 39.4868 135.129 37.7089 135.614 35.7101C136.098 33.7113 135.897 31.6077 135.042 29.7372C134.186 27.8668 132.727 26.3381 130.899 25.3968C129.07 24.4555 126.978 24.1563 124.959 24.5472C122.94 24.9381 121.111 25.9965 119.765 27.5522C118.42 29.1079 117.637 31.0707 117.542 33.1252C117.446 35.1796 118.045 37.2065 119.24 38.8801L112 46.1201C111.87 45.9301 111.73 45.7501 111.59 45.5701C111.45 45.3901 111.12 45.0001 110.88 44.7101L110.29 44.0101C109.99 43.6901 109.7 43.3701 109.44 43.1101C109.08 42.6901 108.69 42.2801 108.31 41.9101C107.93 41.5401 107.52 41.1301 107.13 40.7601C106.74 40.3901 106.32 40.0101 105.9 39.6501C105.48 39.2901 105.06 38.9201 104.67 38.6501C104.28 38.3801 103.92 38.0501 103.55 37.7601L103.37 37.6301C102.98 37.3301 102.59 37.0301 102.17 36.7401L102 36.6201L100.67 35.7201C99.87 35.1901 99 34.6601 97.99 34.1001L97.67 33.9101L96.58 33.3301L96.37 33.2201C95.92 32.9901 95.46 32.7601 95 32.5601L94.67 32.3301H94.54C94.15 32.1401 93.74 31.9701 93.36 31.8101L92.19 31.3301L92 31.2301L91.6 31.0801C90.6 30.6801 89.6 30.3501 88.6 30.0801H88.5C87.3 29.7201 86.27 29.4501 85.27 29.2301C84.72 29.1001 84.16 28.9901 83.6 28.8801L81.83 28.5501V33.9101L82.31 34.3601C85.46 37.2301 88.13 41.6801 90.2 47.1501H76.44V29.4401V21.0001C78.7081 20.6236 80.7516 19.4079 82.1649 17.5945C83.5782 15.7811 84.2579 13.5025 84.069 11.2112C83.8801 8.91983 82.8365 6.7833 81.1453 5.2258C79.4541 3.66829 77.2391 2.80371 74.94 2.80371C72.6409 2.80371 70.4258 3.66829 68.7347 5.2258C67.0435 6.7833 65.9998 8.91983 65.811 11.2112C65.6221 13.5025 66.3018 15.7811 67.7151 17.5945C69.1284 19.4079 71.1719 20.6236 73.44 21.0001V28.0801C66.5547 28.3094 59.804 30.0497 53.6659 33.1775C47.5277 36.3053 42.1522 40.7443 37.92 46.1801L30.63 38.8801C31.9699 37.0015 32.5541 34.6876 32.2665 32.3981C31.9789 30.1087 30.8406 28.0112 29.0777 26.5224C27.3148 25.0336 25.0563 24.2624 22.751 24.3621C20.4457 24.4619 18.2623 25.4251 16.6345 27.0606C15.0068 28.6961 14.0538 30.8841 13.965 33.1898C13.8762 35.4956 14.658 37.7503 16.1551 39.5062C17.6522 41.262 19.7551 42.3904 22.0459 42.6672C24.3367 42.944 26.6478 42.3488 28.52 41.0001L36.14 48.6301C31.1063 55.987 28.2819 64.6303 28 73.5401H21C20.6235 71.2693 19.4068 69.2232 17.5914 67.808C15.7761 66.3928 13.495 65.7121 11.201 65.901C8.90697 66.0899 6.7679 67.1346 5.20852 68.8277C3.64914 70.5207 2.78351 72.7383 2.78351 75.0401C2.78351 77.3418 3.64914 79.5594 5.20852 81.2525C6.7679 82.9455 8.90697 83.9902 11.201 84.1791C13.495 84.368 15.7761 83.6873 17.5914 82.2721C19.4068 80.8569 20.6235 78.8108 21 76.5401H28C28.2368 84.2767 30.3839 91.8345 34.25 98.5401C34.68 99.2701 35.12 99.9901 35.58 100.69L35.83 101.05L28.11 108.77C26.1552 107.53 23.8055 107.071 21.5277 107.483C19.2498 107.896 17.2106 109.151 15.8151 110.998C14.4195 112.844 13.7698 115.149 13.995 117.453C14.2202 119.757 15.3039 121.892 17.0306 123.433C18.7574 124.975 21.001 125.811 23.3156 125.775C25.6302 125.738 27.8465 124.833 29.5242 123.238C31.2019 121.643 32.2181 119.475 32.3711 117.165C32.5241 114.855 31.8026 112.572 30.35 110.77L37.59 103.54C37.6603 103.645 37.7371 103.745 37.82 103.84C38.07 104.17 38.33 104.5 38.59 104.84C39.18 105.56 39.79 106.25 40.41 106.93C40.64 107.19 40.88 107.44 41.13 107.69C41.7 108.29 42.31 108.88 42.91 109.45L43.85 110.3C44.14 110.57 44.45 110.83 44.76 111.1L45.93 112.04C46.54 112.51 47.14 112.97 47.78 113.41C48.12 113.65 48.46 113.89 48.78 114.12C49.46 114.58 50.15 115.02 50.86 115.45C51.23 115.68 51.61 115.89 51.98 116.09C53.08 116.71 54.2 117.28 55.36 117.8L56.51 118.3L57.67 118.78L58.77 119.2C59.18 119.35 59.61 119.5 60.05 119.64L61.13 119.99C61.63 120.14 62.13 120.29 62.63 120.42L63.71 120.7L64.55 120.89L65.17 121.03C65.53 121.11 65.86 121.18 66.17 121.24L67.96 121.58V116.21L67.47 115.77C64.47 112.98 61.71 108.54 59.61 102.97H73.44V122.05V129.05C71.1612 129.427 69.1074 130.647 67.6866 132.468C66.2658 134.289 65.5819 136.577 65.7708 138.879C65.9597 141.181 67.0076 143.328 68.7063 144.893C70.4051 146.458 72.6303 147.327 74.94 147.327C77.2497 147.327 79.4749 146.458 81.1736 144.893C82.8724 143.328 83.9202 141.181 84.1092 138.879C84.2981 136.577 83.6142 134.289 82.1934 132.468C80.7726 130.647 78.7188 129.427 76.44 129.05V122.05C83.4107 121.814 90.2415 120.03 96.4371 116.827C102.633 113.623 108.038 109.081 112.26 103.53L119.55 110.82C118.244 112.441 117.527 114.458 117.518 116.54C117.509 118.622 118.208 120.645 119.5 122.278C120.793 123.91 122.601 125.055 124.63 125.524C126.658 125.993 128.786 125.759 130.664 124.859C132.541 123.96 134.058 122.449 134.964 120.574C135.869 118.7 136.111 116.573 135.649 114.543C135.187 112.513 134.049 110.7 132.421 109.402C130.793 108.104 128.772 107.398 126.69 107.4C124.956 107.396 123.258 107.892 121.8 108.83L114.05 101C118.914 93.7348 121.637 85.2487 121.91 76.5101H129C129.294 78.2396 130.077 79.8488 131.256 81.1476C132.435 82.4464 133.962 83.3805 135.655 83.8396C137.348 84.2987 139.137 84.2636 140.811 83.7384C142.485 83.2132 143.974 82.2198 145.101 80.8757C146.229 79.5316 146.948 77.8929 147.174 76.1532C147.399 74.4135 147.123 72.6455 146.376 71.058C145.629 69.4706 144.444 68.13 142.959 67.1948C141.475 66.2595 139.754 65.7686 138 65.7801L138.07 65.8101ZM126.7 27.3401C127.925 27.3361 129.124 27.6958 130.144 28.3735C131.165 29.0513 131.961 30.0166 132.433 31.1474C132.905 32.2781 133.03 33.5233 132.793 34.7254C132.557 35.9274 131.969 37.0322 131.104 37.8999C130.239 38.7676 129.136 39.3591 127.935 39.5996C126.734 39.8401 125.488 39.7187 124.356 39.2508C123.224 38.7828 122.256 37.9895 121.575 36.9711C120.894 35.9527 120.53 34.7552 120.53 33.5301C120.53 31.8918 121.179 30.3204 122.336 29.1601C123.492 27.9998 125.062 27.3454 126.7 27.3401ZM23.18 39.7101C21.9553 39.7101 20.7581 39.3468 19.74 38.6662C18.7218 37.9855 17.9284 37.0182 17.4602 35.8866C16.992 34.7549 16.87 33.5098 17.1097 32.3088C17.3493 31.1078 17.9399 30.0048 18.8066 29.1395C19.6732 28.2742 20.7771 27.6855 21.9785 27.4478C23.1799 27.2101 24.4248 27.3341 25.5557 27.8041C26.6866 28.2742 27.6527 29.0691 28.3317 30.0884C29.0106 31.1076 29.372 32.3054 29.37 33.5301C29.3673 35.17 28.714 36.7419 27.5535 37.9006C26.3929 39.0593 24.82 39.7101 23.18 39.7101ZM11.93 81.1801C10.7053 81.1801 9.50813 80.8168 8.48998 80.1362C7.47182 79.4556 6.67844 78.4882 6.21023 77.3566C5.74202 76.2249 5.62002 74.9798 5.85967 73.7788C6.09933 72.5778 6.68986 71.4748 7.55655 70.6095C8.42324 69.7442 9.52713 69.1555 10.7285 68.9178C11.9299 68.6801 13.1748 68.8041 14.3057 69.2741C15.4366 69.7442 16.4027 70.5391 17.0817 71.5584C17.7606 72.5776 18.122 73.7754 18.12 75.0001C18.1173 76.64 17.464 78.2119 16.3035 79.3706C15.1429 80.5293 13.57 81.1801 11.93 81.1801ZM23.18 122.73C21.9553 122.73 20.7581 122.367 19.74 121.686C18.7218 121.006 17.9284 120.038 17.4602 118.907C16.992 117.775 16.87 116.53 17.1097 115.329C17.3493 114.128 17.9399 113.025 18.8066 112.16C19.6732 111.294 20.7771 110.705 21.9785 110.468C23.1799 110.23 24.4248 110.354 25.5557 110.824C26.6866 111.294 27.6527 112.089 28.3317 113.108C29.0106 114.128 29.372 115.325 29.37 116.55C29.3673 118.19 28.714 119.762 27.5535 120.921C26.3929 122.079 24.82 122.73 23.18 122.73ZM126.7 110.36C127.925 110.356 129.124 110.716 130.144 111.394C131.165 112.071 131.961 113.037 132.433 114.167C132.905 115.298 133.03 116.543 132.793 117.745C132.557 118.947 131.969 120.052 131.104 120.92C130.239 121.788 129.136 122.379 127.935 122.62C126.734 122.86 125.488 122.739 124.356 122.271C123.224 121.803 122.256 121.009 121.575 119.991C120.894 118.973 120.53 117.775 120.53 116.55C120.53 114.912 121.179 113.34 122.336 112.18C123.492 111.02 125.062 110.365 126.7 110.36ZM84.89 32.5701V32.1701C85.74 32.3601 86.64 32.5901 87.69 32.9101H87.8C88.68 33.1701 89.58 33.4801 90.61 33.9101L90.91 34.0301L91.09 34.0901C91.44 34.2401 91.81 34.3801 92.18 34.5501C92.6329 34.7243 93.0768 34.9212 93.51 35.1401L93.83 35.3001L94.74 35.7501L94.98 35.8701C95.38 36.0701 95.78 36.2801 96.21 36.5301C96.2864 36.5641 96.36 36.6042 96.43 36.6501L96.54 36.7101C97.43 37.2101 98.23 37.7101 98.96 38.1901C99.38 38.4601 99.8 38.7401 100.2 39.0201L100.43 39.1801L101.5 39.9701L101.69 40.1201C102.03 40.3801 102.36 40.6301 102.69 40.9301C103.02 41.2301 103.49 41.5801 103.86 41.9301C104.23 42.2801 104.63 42.6001 105.01 42.9301C105.39 43.2601 105.75 43.6301 106.13 44.0201C106.51 44.4101 106.82 44.7401 107.19 45.1501C107.41 45.3701 107.63 45.6001 107.84 45.8301L108.21 46.2701L108.9 47.1001H93.41C91.23 41.0001 88.33 35.9201 84.89 32.5701ZM91.3 50.1101C92.3204 53.3839 93.109 56.7255 93.66 60.1101H76.44V50.1101H91.3ZM68.82 11.9301C68.822 10.7082 69.1861 9.51434 69.8664 8.49936C70.5466 7.48439 71.5125 6.69384 72.6419 6.22762C73.7713 5.7614 75.0136 5.64044 76.2118 5.88003C77.4099 6.11961 78.5101 6.70899 79.3734 7.57367C80.2367 8.43836 80.8243 9.53955 81.062 10.7381C81.2996 11.9366 81.1766 13.1787 80.7086 14.3073C80.2406 15.436 79.4484 16.4006 78.4324 17.0792C77.4163 17.7579 76.2219 18.1201 75 18.1201C74.1876 18.1201 73.3831 17.9599 72.6327 17.6487C71.8823 17.3375 71.2005 16.8814 70.6265 16.3064C70.0525 15.7315 69.5975 15.0491 69.2875 14.2981C68.9776 13.5472 68.8187 12.7425 68.82 11.9301ZM73.44 31.1601V47.1601H59.64C63 38.1501 67.91 32.1001 73.44 31.1601ZM73.44 50.1601V60.1601H56.24C56.7992 56.7762 57.5911 53.435 58.61 50.1601H73.44ZM65.58 32.0501C61.93 35.3701 58.79 40.5901 56.45 47.1101H41C47.2806 39.4848 55.9342 34.1828 65.58 32.0501ZM38.74 50.1101H55.48C54.5023 53.39 53.7407 56.7305 53.2 60.1101H39.14V73.5401H31C31.283 65.15 33.9694 57.0177 38.74 50.1101ZM38.68 100C38.46 99.6901 38.25 99.3701 38.05 99.0001C37.85 98.6301 37.64 98.3601 37.45 98.0001C37.392 97.9253 37.3418 97.8449 37.3 97.7601C37.14 97.5101 36.99 97.2601 36.86 97.0101C33.2603 90.7694 31.248 83.7402 31 76.5401H39.18V90.0001H53.2C53.6574 92.7595 54.2582 95.4932 55 98.1901L55.51 99.9701L38.68 100ZM65 117.52V117.91C64.9502 117.916 64.8998 117.916 64.85 117.91C63.85 117.69 62.94 117.44 62.02 117.15L61.27 116.92L60.97 116.82L60.17 116.54C59.88 116.44 59.6 116.34 59.31 116.22C58.1002 115.774 56.9152 115.263 55.76 114.69C55.47 114.56 55.19 114.42 54.92 114.28C54.34 113.99 53.77 113.68 53.2 113.36C52.63 113.04 52.13 112.74 51.61 112.36C51.27 112.15 50.92 111.94 50.61 111.71C50.3 111.48 49.98 111.3 49.68 111.08C46.9188 109.154 44.3946 106.908 42.16 104.39L41.41 103.54C41.24 103.35 41.09 103.15 40.93 102.96H56.44C58.66 109.22 61.59 114.19 65 117.52ZM73.44 100H58.62C58.35 99.1601 58.09 98.3101 57.86 97.4301C57.1907 94.9846 56.6566 92.5042 56.26 90.0001H73.44V100ZM42.14 87.0001V63.1201H107.76V87.0001H42.14ZM93.64 90.0001C93.0961 93.3852 92.3107 96.727 91.29 100H76.44V90.0001H93.64ZM81.18 138.1C81.1721 139.321 80.8029 140.512 80.1191 141.523C79.4352 142.534 78.4673 143.319 77.3374 143.781C76.2075 144.243 74.9662 144.359 73.77 144.116C72.5739 143.873 71.4764 143.282 70.6161 142.416C69.7558 141.55 69.1712 140.449 68.936 139.251C68.7007 138.053 68.8254 136.813 69.2943 135.686C69.7632 134.559 70.5554 133.596 71.5708 132.919C72.5862 132.242 73.7794 131.88 75 131.88C76.6399 131.883 78.2118 132.536 79.3705 133.697C80.5292 134.857 81.18 136.43 81.18 138.07V138.1ZM76.44 118.96V103H90.26C86.89 112 82 118 76.44 118.93V118.96ZM84.31 118.06C87.95 114.74 91.1 109.52 93.43 103H108.87C102.583 110.596 93.939 115.875 84.31 118V118.06ZM111.14 100H94.39C95.3846 96.7239 96.1498 93.3825 96.68 90.0001H110.76V76.5401H118.93C118.637 84.9454 115.933 93.0892 111.14 100ZM110.76 73.5701V60.1201H96.68C96.1412 56.7393 95.3762 53.3984 94.39 50.1201H111.21C111.76 50.9001 112.29 51.7101 112.78 52.5501C113.01 52.9301 113.22 53.3101 113.44 53.7101L113.57 53.9401L113.64 54.0801C113.86 54.4601 114.06 54.8301 114.27 55.2701C114.97 56.6551 115.594 58.0772 116.14 59.5301C116.52 60.5301 116.83 61.4301 117.08 62.3001V62.4001C117.08 62.4601 117.08 62.5201 117.15 62.6701C118.192 66.208 118.78 69.8639 118.9 73.5501L110.76 73.5701ZM138.07 81.2101C136.847 81.2101 135.651 80.8475 134.633 80.1682C133.616 79.4889 132.822 78.5234 132.353 77.3935C131.884 76.2636 131.76 75.02 131.998 73.8198C132.235 72.6196 132.822 71.5166 133.686 70.6501C134.55 69.7837 135.651 69.1925 136.85 68.9514C138.05 68.7104 139.294 68.8301 140.425 69.2955C141.556 69.761 142.525 70.5512 143.207 71.5666C143.89 72.5819 144.256 73.7767 144.26 75.0001C144.26 75.8125 144.1 76.6169 143.789 77.3674C143.477 78.1178 143.021 78.7995 142.446 79.3735C141.871 79.9475 141.189 80.4025 140.438 80.7125C139.687 81.0225 138.882 81.1814 138.07 81.1801V81.2101Z" fill="#FF5F46"/>
<path d="M60.55 73.5399L59.95 76.5399L59.77 77.4599H59.7L59.47 76.5399L58.73 73.5399L57.65 69.1599H55.14L54.06 73.5399L53.32 76.5399L53.09 77.4599H53.02L52.84 76.5399L52.24 73.5399L52.07 72.7099L51.36 69.1599H48.14L49.28 73.5399L50.07 76.5399L51.35 81.4399H54.29L55.1 78.4499L55.61 76.5399L56.36 73.7699H56.43L57.18 76.5399L58.5 81.4399H61.44L62.72 76.5399L63.51 73.5399L64.65 69.1599H61.43L60.55 73.5399Z" fill="#FF5F46"/>
<path d="M79.08 73.5399L78.48 76.5399L78.3 77.4599H78.24L78.01 76.5399L77.27 73.5399L76.44 70.2099L76.18 69.1599H73.68L73.44 70.1299L72.6 73.5399L71.86 76.5399L71.63 77.4599H71.56L71.38 76.5399L70.78 73.5399L69.9 69.1599H66.67L67.81 73.5399L68.6 76.5399L69.88 81.4399H72.83L73.44 79.1799L74.15 76.5399L74.9 73.7699H74.97L75.72 76.5399L76.44 79.2199L77.04 81.4399H79.98L81.26 76.5399L82.05 73.5399L83.19 69.1599H79.96L79.08 73.5399Z" fill="#FF5F46"/>
<path d="M96.84 77.4599H96.77L96.54 76.5399L95.8 73.5399L94.72 69.1599H92.22L91.14 73.5399L90.4 76.5399L90.17 77.4599H90.1L89.92 76.5399L89.32 73.5399L88.44 69.1599H85.21L86.35 73.5399L87.14 76.5399L88.42 81.4399H91.37L92.69 76.5399L93.44 73.7699H93.5L94.25 76.5399L94.77 78.4799L95.57 81.4399H98.52L99.8 76.5399L100.59 73.5399L101.73 69.1599H98.5L97.81 72.6199L97.62 73.5399L97.02 76.5399L96.84 77.4599Z" fill="#FF5F46"/>
</svg>
