<svg width="150" height="150" viewBox="0 0 150 150" fill="none" xmlns="http://www.w3.org/2000/svg">
<path d="M138.07 65.81C135.886 65.8108 133.774 66.5891 132.112 68.0056C130.45 69.422 129.347 71.384 129 73.54H121.92C121.802 69.601 121.184 65.693 120.08 61.91C120.039 61.7441 119.989 61.5805 119.93 61.42C119.649 60.4033 119.315 59.402 118.93 58.42C118.361 56.8654 117.693 55.3489 116.93 53.88C116.72 53.44 116.51 53.01 116.3 52.64C116.3 52.57 116.21 52.5 116.13 52.35V52.24C115.88 51.79 115.63 51.37 115.38 50.96C114.9 50.14 114.38 49.32 113.82 48.53L121.37 41C122.921 42.12 124.787 42.7219 126.7 42.72C128.757 42.7204 130.754 42.0295 132.37 40.7581C133.987 39.4868 135.129 37.7088 135.614 35.7101C136.098 33.7113 135.897 31.6076 135.042 29.7372C134.186 27.8667 132.727 26.338 130.899 25.3968C129.07 24.4555 126.978 24.1563 124.959 24.5472C122.94 24.9381 121.111 25.9964 119.765 27.5521C118.42 29.1079 117.637 31.0707 117.542 33.1251C117.446 35.1796 118.045 37.2064 119.24 38.88L112 46.12C111.87 45.93 111.73 45.75 111.59 45.57C111.45 45.39 111.12 45 110.88 44.71L110.29 44.01C109.99 43.69 109.7 43.37 109.44 43.11C109.08 42.69 108.69 42.28 108.31 41.91C107.93 41.54 107.52 41.13 107.13 40.76C106.74 40.39 106.32 40.01 105.9 39.65C105.48 39.29 105.06 38.92 104.67 38.65C104.28 38.38 103.92 38.05 103.55 37.76L103.37 37.63C102.98 37.33 102.59 37.03 102.17 36.74L102 36.62L100.67 35.72C99.87 35.19 99 34.66 97.99 34.1L97.67 33.91L96.58 33.33L96.37 33.22C95.92 32.99 95.46 32.76 95 32.56L94.67 32.33H94.54C94.15 32.14 93.74 31.97 93.36 31.81L92.19 31.33L92 31.23L91.6 31.08C90.6 30.68 89.6 30.35 88.6 30.08H88.5C87.3 29.72 86.27 29.45 85.27 29.23C84.72 29.1 84.16 28.99 83.6 28.88L81.83 28.55V33.91L82.31 34.36C85.46 37.23 88.13 41.68 90.2 47.15H76.44V29.44V21C78.7081 20.6235 80.7516 19.4079 82.1649 17.5944C83.5782 15.781 84.2579 13.5024 84.069 11.2111C83.8801 8.91977 82.8365 6.78324 81.1453 5.22574C79.4541 3.66823 77.2391 2.80365 74.94 2.80365C72.6409 2.80365 70.4258 3.66823 68.7347 5.22574C67.0435 6.78324 65.9998 8.91977 65.811 11.2111C65.6221 13.5024 66.3018 15.781 67.7151 17.5944C69.1284 19.4079 71.1719 20.6235 73.44 21V28.08C66.5547 28.3094 59.804 30.0496 53.6659 33.1774C47.5277 36.3052 42.1522 40.7442 37.92 46.18L30.63 38.88C31.9699 37.0014 32.5541 34.6876 32.2665 32.3981C31.9789 30.1086 30.8406 28.0111 29.0777 26.5223C27.3148 25.0335 25.0563 24.2624 22.751 24.3621C20.4457 24.4618 18.2623 25.4251 16.6345 27.0606C15.0068 28.696 14.0538 30.884 13.965 33.1897C13.8762 35.4955 14.658 37.7503 16.1551 39.5061C17.6522 41.262 19.7551 42.3904 22.0459 42.6671C24.3367 42.9439 26.6478 42.3488 28.52 41L36.14 48.63C31.1063 55.987 28.2819 64.6302 28 73.54H21C20.6235 71.2692 19.4068 69.2231 17.5914 67.8079C15.7761 66.3928 13.495 65.712 11.201 65.9009C8.90697 66.0898 6.7679 67.1345 5.20852 68.8276C3.64914 70.5207 2.78351 72.7382 2.78351 75.04C2.78351 77.3418 3.64914 79.5593 5.20852 81.2524C6.7679 82.9455 8.90697 83.9902 11.201 84.1791C13.495 84.368 15.7761 83.6872 17.5914 82.2721C19.4068 80.8569 20.6235 78.8108 21 76.54H28C28.2368 84.2766 30.3839 91.8344 34.25 98.54C34.68 99.27 35.12 99.99 35.58 100.69L35.83 101.05L28.11 108.77C26.1552 107.53 23.8055 107.071 21.5277 107.483C19.2498 107.896 17.2106 109.151 15.8151 110.997C14.4195 112.844 13.7698 115.149 13.995 117.453C14.2202 119.757 15.3039 121.892 17.0306 123.433C18.7574 124.975 21.001 125.811 23.3156 125.775C25.6302 125.738 27.8465 124.833 29.5242 123.238C31.2019 121.643 32.2181 119.475 32.3711 117.165C32.5241 114.855 31.8026 112.572 30.35 110.77L37.59 103.54C37.6603 103.645 37.7371 103.745 37.82 103.84C38.07 104.17 38.33 104.5 38.59 104.84C39.18 105.56 39.79 106.25 40.41 106.93C40.64 107.19 40.88 107.44 41.13 107.69C41.7 108.29 42.31 108.88 42.91 109.45L43.85 110.3C44.14 110.57 44.45 110.83 44.76 111.1L45.93 112.04C46.54 112.51 47.14 112.97 47.78 113.41C48.12 113.65 48.46 113.89 48.78 114.12C49.46 114.58 50.15 115.02 50.86 115.45C51.23 115.68 51.61 115.89 51.98 116.09C53.08 116.71 54.2 117.28 55.36 117.8L56.51 118.3L57.67 118.78L58.77 119.2C59.18 119.35 59.61 119.5 60.05 119.64L61.13 119.99C61.63 120.14 62.13 120.29 62.63 120.42L63.71 120.7L64.55 120.89L65.17 121.03C65.53 121.11 65.86 121.18 66.17 121.24L67.96 121.58V116.21L67.47 115.77C64.47 112.98 61.71 108.54 59.61 102.97H73.44V122.05V129.05C71.1612 129.427 69.1074 130.647 67.6866 132.468C66.2658 134.289 65.5819 136.577 65.7708 138.879C65.9597 141.181 67.0076 143.328 68.7063 144.893C70.405 146.458 72.6303 147.327 74.94 147.327C77.2497 147.327 79.4749 146.458 81.1736 144.893C82.8723 143.328 83.9202 141.181 84.1092 138.879C84.2981 136.577 83.6142 134.289 82.1934 132.468C80.7726 130.647 78.7188 129.427 76.44 129.05V122.05C83.4107 121.814 90.2415 120.03 96.4371 116.827C102.633 113.623 108.038 109.081 112.26 103.53L119.55 110.82C118.244 112.441 117.527 114.458 117.518 116.54C117.509 118.622 118.208 120.645 119.5 122.278C120.793 123.91 122.601 125.055 124.63 125.524C126.658 125.993 128.786 125.759 130.664 124.859C132.541 123.96 134.058 122.449 134.964 120.574C135.869 118.7 136.111 116.573 135.649 114.543C135.187 112.513 134.049 110.7 132.421 109.402C130.793 108.104 128.772 107.398 126.69 107.4C124.956 107.396 123.258 107.892 121.8 108.83L114.05 101C118.914 93.7347 121.637 85.2487 121.91 76.51H129C129.294 78.2395 130.077 79.8487 131.256 81.1475C132.435 82.4463 133.962 83.3805 135.655 83.8395C137.348 84.2986 139.137 84.2635 140.811 83.7383C142.485 83.2131 143.974 82.2198 145.101 80.8757C146.228 79.5316 146.948 77.8928 147.174 76.1531C147.399 74.4134 147.123 72.6454 146.376 71.058C145.629 69.4705 144.444 68.13 142.959 67.1947C141.475 66.2594 139.754 65.7685 138 65.78L138.07 65.81ZM126.7 27.34C127.925 27.336 129.124 27.6957 130.144 28.3735C131.165 29.0512 131.961 30.0166 132.433 31.1473C132.905 32.278 133.03 33.5232 132.793 34.7253C132.557 35.9274 131.969 37.0322 131.104 37.8999C130.239 38.7676 129.136 39.3591 127.935 39.5996C126.734 39.84 125.488 39.7186 124.356 39.2507C123.224 38.7828 122.256 37.9894 121.575 36.9711C120.894 35.9527 120.53 34.7551 120.53 33.53C120.53 31.8918 121.179 30.3203 122.336 29.1601C123.492 27.9998 125.062 27.3453 126.7 27.34V27.34ZM23.18 39.71C21.9553 39.71 20.7581 39.3467 19.74 38.6661C18.7218 37.9855 17.9284 37.0182 17.4602 35.8865C16.992 34.7548 16.87 33.5097 17.1097 32.3087C17.3493 31.1077 17.9399 30.0048 18.8066 29.1395C19.6732 28.2742 20.7771 27.6854 21.9785 27.4477C23.1799 27.21 24.4248 27.334 25.5557 27.8041C26.6866 28.2741 27.6527 29.069 28.3317 30.0883C29.0106 31.1076 29.372 32.3053 29.37 33.53C29.3673 35.17 28.714 36.7418 27.5535 37.9005C26.3929 39.0592 24.82 39.71 23.18 39.71V39.71ZM11.93 81.18C10.7053 81.18 9.50813 80.8167 8.48998 80.1361C7.47182 79.4555 6.67844 78.4882 6.21023 77.3565C5.74202 76.2248 5.62002 74.9797 5.85967 73.7787C6.09933 72.5777 6.68986 71.4748 7.55655 70.6095C8.42324 69.7442 9.52713 69.1554 10.7285 68.9177C11.9299 68.68 13.1748 68.804 14.3057 69.2741C15.4366 69.7441 16.4027 70.539 17.0817 71.5583C17.7606 72.5776 18.122 73.7753 18.12 75C18.1173 76.64 17.464 78.2118 16.3035 79.3705C15.1429 80.5292 13.57 81.18 11.93 81.18V81.18ZM23.18 122.73C21.9553 122.73 20.7581 122.367 19.74 121.686C18.7218 121.005 17.9284 120.038 17.4602 118.906C16.992 117.775 16.87 116.53 17.1097 115.329C17.3493 114.128 17.9399 113.025 18.8066 112.159C19.6732 111.294 20.7771 110.705 21.9785 110.468C23.1799 110.23 24.4248 110.354 25.5557 110.824C26.6866 111.294 27.6527 112.089 28.3317 113.108C29.0106 114.128 29.372 115.325 29.37 116.55C29.3673 118.19 28.714 119.762 27.5535 120.921C26.3929 122.079 24.82 122.73 23.18 122.73V122.73ZM126.7 110.36C127.925 110.356 129.124 110.716 130.144 111.393C131.165 112.071 131.961 113.037 132.433 114.167C132.905 115.298 133.03 116.543 132.793 117.745C132.557 118.947 131.969 120.052 131.104 120.92C130.239 121.788 129.136 122.379 127.935 122.62C126.734 122.86 125.488 122.739 124.356 122.271C123.224 121.803 122.256 121.009 121.575 119.991C120.894 118.973 120.53 117.775 120.53 116.55C120.53 114.912 121.179 113.34 122.336 112.18C123.492 111.02 125.062 110.365 126.7 110.36V110.36ZM84.89 32.57V32.17C85.74 32.36 86.64 32.59 87.69 32.91H87.8C88.68 33.17 89.58 33.48 90.61 33.91L90.91 34.03L91.09 34.09C91.44 34.24 91.81 34.38 92.18 34.55C92.6329 34.7243 93.0768 34.9212 93.51 35.14L93.83 35.3L94.74 35.75L94.98 35.87C95.38 36.07 95.78 36.28 96.21 36.53C96.2864 36.564 96.36 36.6041 96.43 36.65L96.54 36.71C97.43 37.21 98.23 37.71 98.96 38.19C99.38 38.46 99.8 38.74 100.2 39.02L100.43 39.18L101.5 39.97L101.69 40.12C102.03 40.38 102.36 40.63 102.69 40.93C103.02 41.23 103.49 41.58 103.86 41.93C104.23 42.28 104.63 42.6 105.01 42.93C105.39 43.26 105.75 43.63 106.13 44.02C106.51 44.41 106.82 44.74 107.19 45.15C107.41 45.37 107.63 45.6 107.84 45.83L108.21 46.27L108.9 47.1H93.41C91.23 41 88.33 35.92 84.89 32.57ZM91.3 50.11C92.3204 53.3838 93.109 56.7254 93.66 60.11H76.44V50.11H91.3ZM68.82 11.93C68.822 10.7081 69.1861 9.51428 69.8664 8.4993C70.5466 7.48432 71.5125 6.69377 72.6419 6.22756C73.7713 5.76134 75.0136 5.64038 76.2118 5.87997C77.4099 6.11955 78.5101 6.70893 79.3734 7.57361C80.2367 8.4383 80.8243 9.53949 81.062 10.738C81.2996 11.9365 81.1766 13.1786 80.7086 14.3073C80.2406 15.436 79.4485 16.4005 78.4324 17.0792C77.4163 17.7578 76.2219 18.12 75 18.12C74.1876 18.12 73.3831 17.9598 72.6327 17.6486C71.8823 17.3374 71.2005 16.8813 70.6265 16.3064C70.0525 15.7315 69.5975 15.049 69.2875 14.2981C68.9776 13.5471 68.8187 12.7424 68.82 11.93ZM73.44 31.16V47.16H59.64C63 38.15 67.91 32.1 73.44 31.16ZM73.44 50.16V60.16H56.24C56.7992 56.7762 57.5911 53.4349 58.61 50.16H73.44ZM65.58 32.05C61.93 35.37 58.79 40.59 56.45 47.11H41C47.2806 39.4848 55.9342 34.1828 65.58 32.05V32.05ZM38.74 50.11H55.48C54.5023 53.3899 53.7407 56.7304 53.2 60.11H39.14V73.54H31C31.283 65.1499 33.9694 57.0176 38.74 50.11V50.11ZM38.68 100C38.46 99.69 38.25 99.37 38.05 99C37.85 98.63 37.64 98.36 37.45 98C37.392 97.9253 37.3418 97.8449 37.3 97.76C37.14 97.51 36.99 97.26 36.86 97.01C33.2603 90.7693 31.248 83.7402 31 76.54H39.18V90H53.2C53.6574 92.7594 54.2582 95.4931 55 98.19L55.51 99.97L38.68 100ZM65 117.52V117.91C64.9502 117.916 64.8998 117.916 64.85 117.91C63.85 117.69 62.94 117.44 62.02 117.15L61.27 116.92L60.97 116.82L60.17 116.54C59.88 116.44 59.6 116.34 59.31 116.22C58.1002 115.774 56.9152 115.263 55.76 114.69C55.47 114.56 55.19 114.42 54.92 114.28C54.34 113.99 53.77 113.68 53.2 113.36C52.63 113.04 52.13 112.74 51.61 112.36C51.27 112.15 50.92 111.94 50.61 111.71C50.3 111.48 49.98 111.3 49.68 111.08C46.9188 109.154 44.3946 106.908 42.16 104.39L41.41 103.54C41.24 103.35 41.09 103.15 40.93 102.96H56.44C58.66 109.22 61.59 114.19 65 117.52ZM73.44 100H58.62C58.35 99.16 58.09 98.31 57.86 97.43C57.1907 94.9846 56.6566 92.5041 56.26 90H73.44V100ZM42.14 87V63.12H107.76V87H42.14ZM93.64 90C93.0961 93.3851 92.3107 96.727 91.29 100H76.44V90H93.64ZM81.18 138.1C81.1721 139.321 80.8029 140.511 80.1191 141.522C79.4352 142.533 78.4673 143.319 77.3374 143.781C76.2075 144.243 74.9662 144.359 73.77 144.116C72.5738 143.873 71.4764 143.282 70.6161 142.416C69.7558 141.55 69.1712 140.449 68.936 139.251C68.7007 138.053 68.8254 136.813 69.2943 135.686C69.7632 134.559 70.5554 133.596 71.5708 132.919C72.5862 132.241 73.7794 131.88 75 131.88C76.6399 131.883 78.2118 132.536 79.3705 133.697C80.5292 134.857 81.18 136.43 81.18 138.07V138.1ZM76.44 118.96V103H90.26C86.89 112 82 118 76.44 118.93V118.96ZM84.31 118.06C87.95 114.74 91.1 109.52 93.43 103H108.87C102.583 110.596 93.939 115.875 84.31 118V118.06ZM111.14 100H94.39C95.3846 96.7239 96.1498 93.3825 96.68 90H110.76V76.54H118.93C118.637 84.9453 115.933 93.0891 111.14 100ZM110.76 73.57V60.12H96.68C96.1412 56.7392 95.3762 53.3984 94.39 50.12H111.21C111.76 50.9 112.29 51.71 112.78 52.55C113.01 52.93 113.22 53.31 113.44 53.71L113.57 53.94L113.64 54.08C113.86 54.46 114.06 54.83 114.27 55.27C114.97 56.655 115.594 58.0771 116.14 59.53C116.52 60.53 116.83 61.43 117.08 62.3V62.4C117.08 62.46 117.08 62.52 117.15 62.67C118.192 66.2079 118.78 69.8639 118.9 73.55L110.76 73.57ZM138.07 81.21C136.847 81.21 135.651 80.8475 134.633 80.1682C133.616 79.4889 132.822 78.5233 132.353 77.3934C131.884 76.2635 131.76 75.0199 131.998 73.8197C132.235 72.6195 132.822 71.5166 133.686 70.6501C134.55 69.7836 135.651 69.1925 136.85 68.9514C138.05 68.7103 139.294 68.83 140.425 69.2955C141.556 69.7609 142.525 70.5512 143.207 71.5665C143.89 72.5818 144.256 73.7766 144.26 75C144.26 75.8124 144.1 76.6168 143.789 77.3673C143.477 78.1177 143.021 78.7995 142.446 79.3735C141.871 79.9475 141.189 80.4025 140.438 80.7124C139.687 81.0224 138.882 81.1813 138.07 81.18V81.21Z" fill="#1B3139"/>
<path d="M60.55 73.54L59.95 76.54L59.77 77.46H59.7L59.47 76.54L58.73 73.54L57.65 69.16H55.14L54.06 73.54L53.32 76.54L53.09 77.46H53.02L52.84 76.54L52.24 73.54L52.07 72.71L51.36 69.16H48.14L49.28 73.54L50.07 76.54L51.35 81.44H54.29L55.1 78.45L55.61 76.54L56.36 73.77H56.43L57.18 76.54L58.5 81.44H61.44L62.72 76.54L63.51 73.54L64.65 69.16H61.43L60.55 73.54Z" fill="#1B3139"/>
<path d="M79.08 73.54L78.48 76.54L78.3 77.46H78.24L78.01 76.54L77.27 73.54L76.44 70.21L76.18 69.16H73.68L73.44 70.13L72.6 73.54L71.86 76.54L71.63 77.46H71.56L71.38 76.54L70.78 73.54L69.9 69.16H66.67L67.81 73.54L68.6 76.54L69.88 81.44H72.83L73.44 79.18L74.15 76.54L74.9 73.77H74.97L75.72 76.54L76.44 79.22L77.04 81.44H79.98L81.26 76.54L82.05 73.54L83.19 69.16H79.96L79.08 73.54Z" fill="#1B3139"/>
<path d="M96.84 77.46H96.77L96.54 76.54L95.8 73.54L94.72 69.16H92.22L91.14 73.54L90.4 76.54L90.17 77.46H90.1L89.92 76.54L89.32 73.54L88.44 69.16H85.21L86.35 73.54L87.14 76.54L88.42 81.44H91.37L92.69 76.54L93.44 73.77H93.5L94.25 76.54L94.77 78.48L95.57 81.44H98.52L99.8 76.54L100.59 73.54L101.73 69.16H98.5L97.81 72.62L97.62 73.54L97.02 76.54L96.84 77.46Z" fill="#1B3139"/>
</svg>
