<svg width="776" height="200" viewBox="0 0 776 200" fill="none" xmlns="http://www.w3.org/2000/svg">
<path d="M100 25L178.125 81.25H21.875L100 25Z" fill="#618794"/>
<path d="M24.8749 140.626H96.7499V140.626C96.7499 159.611 81.3597 175.001 62.3749 175.001H59.2499C40.2651 175.001 24.8749 159.611 24.8749 140.626V140.626Z" fill="#C4CCD6"/>
<path d="M24.875 97.583H96.75V97.583C96.75 116.568 81.3598 131.958 62.375 131.958H59.25C40.2652 131.958 24.875 116.568 24.875 97.583V97.583Z" fill="#618794"/>
<path d="M174.875 131.958L103 131.958V131.958C103 112.973 118.39 97.583 137.375 97.583L140.5 97.583C159.485 97.583 174.875 112.973 174.875 131.958V131.958Z" fill="#C4CCD6"/>
<path d="M174.875 175L103 175V175C103 156.015 118.39 140.625 137.375 140.625L140.5 140.625C159.485 140.625 174.875 156.015 174.875 175V175Z" fill="#618794"/>
<path d="M239.838 137.5V60.22H253.086V127.122H287.531V137.5H239.838ZM315.223 138.825C310.659 138.825 306.869 138.052 303.851 136.506C300.834 134.961 298.589 132.9 297.117 130.324C295.645 127.748 294.909 124.951 294.909 121.934C294.909 118.401 295.792 115.346 297.559 112.77C299.399 110.194 302.085 108.207 305.618 106.809C309.151 105.337 313.493 104.601 318.645 104.601H332.666C332.666 101.657 332.261 99.228 331.451 97.3144C330.642 95.3272 329.391 93.8552 327.698 92.8984C326.005 91.9416 323.834 91.4632 321.184 91.4632C318.167 91.4632 315.591 92.1624 313.456 93.5608C311.322 94.8856 309.997 96.9464 309.482 99.7432H296.455C296.896 95.7688 298.221 92.3832 300.429 89.5864C302.637 86.716 305.544 84.508 309.151 82.9624C312.831 81.3432 316.842 80.5336 321.184 80.5336C326.41 80.5336 330.863 81.4536 334.543 83.2936C338.223 85.06 341.019 87.636 342.933 91.0216C344.92 94.3336 345.914 98.3448 345.914 103.055V137.5H334.653L333.328 128.558C332.592 130.03 331.635 131.391 330.458 132.642C329.354 133.894 328.066 134.998 326.594 135.954C325.122 136.838 323.429 137.537 321.515 138.052C319.675 138.567 317.578 138.825 315.223 138.825ZM318.203 128.337C320.338 128.337 322.215 127.969 323.834 127.233C325.527 126.423 326.962 125.319 328.139 123.921C329.391 122.449 330.347 120.83 331.01 119.063C331.672 117.297 332.114 115.42 332.335 113.433V113.212H320.08C317.504 113.212 315.37 113.543 313.677 114.206C311.984 114.794 310.77 115.678 310.034 116.855C309.298 118.033 308.93 119.394 308.93 120.94C308.93 122.486 309.298 123.81 310.034 124.914C310.77 126.018 311.837 126.865 313.235 127.454C314.634 128.042 316.29 128.337 318.203 128.337ZM392.637 137.5L368.018 107.03L390.098 81.8584H405.885L378.396 112.439V102.172L409.197 137.5H392.637ZM356.757 137.5V58.012H370.005V137.5H356.757ZM436.425 138.825C430.905 138.825 426.047 137.647 421.852 135.292C417.657 132.863 414.381 129.478 412.026 125.135C409.671 120.793 408.493 115.788 408.493 110.121C408.493 104.233 409.634 99.0808 411.916 94.6648C414.271 90.2488 417.546 86.7896 421.741 84.2872C426.01 81.7848 430.941 80.5336 436.535 80.5336C441.981 80.5336 446.729 81.748 450.777 84.1768C454.825 86.6056 457.953 89.8808 460.161 94.0024C462.369 98.0504 463.473 102.614 463.473 107.692C463.473 108.428 463.473 109.238 463.473 110.121C463.473 111.004 463.399 111.924 463.252 112.881H417.988V104.38H450.114C449.967 100.332 448.605 97.1672 446.029 94.8856C443.453 92.5304 440.252 91.3528 436.425 91.3528C433.701 91.3528 431.199 91.9784 428.917 93.2296C426.636 94.4808 424.833 96.3576 423.508 98.86C422.183 101.289 421.521 104.38 421.521 108.134V111.335C421.521 114.794 422.146 117.775 423.397 120.278C424.722 122.78 426.489 124.694 428.697 126.018C430.978 127.27 433.517 127.895 436.314 127.895C439.405 127.895 441.945 127.233 443.932 125.908C445.993 124.583 447.501 122.817 448.458 120.609H461.927C460.897 124.068 459.204 127.196 456.849 129.993C454.493 132.716 451.586 134.887 448.127 136.506C444.668 138.052 440.767 138.825 436.425 138.825ZM472.393 137.5V58.012H485.641V90.4696C487.481 87.452 489.983 85.06 493.148 83.2936C496.313 81.4536 499.882 80.5336 503.857 80.5336C508.42 80.5336 512.284 81.4904 515.449 83.404C518.613 85.244 521.005 88.004 522.625 91.684C524.317 95.2904 525.164 99.8168 525.164 105.263V137.5H512.026V106.478C512.026 101.694 510.996 98.0504 508.935 95.548C506.948 93.0456 503.893 91.7944 499.772 91.7944C497.122 91.7944 494.73 92.4568 492.596 93.7816C490.461 95.0328 488.769 96.8728 487.517 99.3016C486.266 101.657 485.641 104.564 485.641 108.023V137.5H472.393ZM561.868 138.825C556.569 138.825 551.785 137.61 547.516 135.182C543.321 132.679 540.009 129.257 537.58 124.914C535.225 120.498 534.047 115.457 534.047 109.79C534.047 103.975 535.262 98.8968 537.691 94.5544C540.119 90.1384 543.431 86.716 547.627 84.2872C551.895 81.7848 556.679 80.5336 561.979 80.5336C567.278 80.5336 572.025 81.7848 576.22 84.2872C580.489 86.716 583.801 90.1016 586.156 94.444C588.585 98.7864 589.799 103.865 589.799 109.679C589.799 115.494 588.585 120.572 586.156 124.914C583.727 129.257 580.379 132.679 576.11 135.182C571.915 137.61 567.167 138.825 561.868 138.825ZM561.868 127.454C564.518 127.454 566.91 126.791 569.044 125.466C571.252 124.142 573.019 122.154 574.343 119.505C575.668 116.855 576.331 113.58 576.331 109.679C576.331 105.778 575.668 102.54 574.343 99.964C573.092 97.3144 571.363 95.3272 569.155 94.0024C567.02 92.6776 564.628 92.0152 561.979 92.0152C559.403 92.0152 557.011 92.6776 554.803 94.0024C552.595 95.3272 550.828 97.3144 549.503 99.964C548.179 102.54 547.516 105.778 547.516 109.679C547.516 113.58 548.179 116.855 549.503 119.505C550.828 122.154 552.558 124.142 554.692 125.466C556.9 126.791 559.292 127.454 561.868 127.454ZM620.101 138.825C615.611 138.825 611.747 137.942 608.509 136.175C605.344 134.335 602.915 131.612 601.222 128.006C599.53 124.326 598.683 119.799 598.683 114.426V81.8584H611.931V113.102C611.931 117.886 612.925 121.529 614.912 124.031C616.973 126.46 620.064 127.674 624.186 127.674C626.835 127.674 629.19 127.049 631.251 125.798C633.386 124.546 635.042 122.743 636.219 120.388C637.47 117.959 638.096 115.015 638.096 111.556V81.8584H651.344V137.5H639.642L638.648 128.226C636.955 131.465 634.49 134.041 631.251 135.954C628.086 137.868 624.37 138.825 620.101 138.825ZM684.963 138.825C680.031 138.825 675.726 138.052 672.046 136.506C668.439 134.887 665.569 132.679 663.435 129.882C661.374 127.012 660.159 123.737 659.791 120.057H673.039C673.407 121.602 674.07 123.038 675.027 124.362C675.983 125.614 677.271 126.607 678.891 127.343C680.583 128.079 682.571 128.447 684.852 128.447C687.06 128.447 688.863 128.153 690.262 127.564C691.66 126.902 692.691 126.055 693.353 125.025C694.015 123.994 694.347 122.89 694.347 121.713C694.347 119.946 693.868 118.585 692.911 117.628C691.955 116.671 690.556 115.935 688.716 115.42C686.95 114.831 684.815 114.279 682.313 113.764C679.663 113.249 677.087 112.623 674.585 111.887C672.156 111.078 669.948 110.084 667.961 108.906C666.047 107.729 664.502 106.22 663.324 104.38C662.22 102.54 661.668 100.295 661.668 97.6456C661.668 94.4072 662.515 91.5 664.207 88.924C665.974 86.348 668.476 84.324 671.715 82.852C675.027 81.3064 678.964 80.5336 683.527 80.5336C690.004 80.5336 695.156 82.0424 698.983 85.06C702.884 88.004 705.166 92.1624 705.828 97.5352H693.243C692.875 95.4744 691.844 93.892 690.151 92.788C688.459 91.6104 686.214 91.0216 683.417 91.0216C680.547 91.0216 678.339 91.5736 676.793 92.6776C675.321 93.708 674.585 95.1064 674.585 96.8728C674.585 97.9768 675.027 99.0072 675.91 99.964C676.867 100.847 678.228 101.62 679.995 102.282C681.761 102.871 683.932 103.46 686.508 104.049C690.63 104.858 694.273 105.815 697.438 106.919C700.603 108.023 703.105 109.642 704.945 111.777C706.785 113.911 707.705 116.929 707.705 120.83C707.779 124.362 706.859 127.49 704.945 130.214C703.105 132.937 700.492 135.071 697.107 136.617C693.721 138.089 689.673 138.825 684.963 138.825ZM743.302 138.825C737.782 138.825 732.924 137.647 728.729 135.292C724.534 132.863 721.259 129.478 718.904 125.135C716.548 120.793 715.371 115.788 715.371 110.121C715.371 104.233 716.512 99.0808 718.793 94.6648C721.148 90.2488 724.424 86.7896 728.619 84.2872C732.888 81.7848 737.819 80.5336 743.412 80.5336C748.859 80.5336 753.606 81.748 757.654 84.1768C761.702 86.6056 764.83 89.8808 767.038 94.0024C769.246 98.0504 770.35 102.614 770.35 107.692C770.35 108.428 770.35 109.238 770.35 110.121C770.35 111.004 770.276 111.924 770.129 112.881H724.865V104.38H756.992C756.844 100.332 755.483 97.1672 752.907 94.8856C750.331 92.5304 747.129 91.3528 743.302 91.3528C740.579 91.3528 738.076 91.9784 735.795 93.2296C733.513 94.4808 731.71 96.3576 730.385 98.86C729.06 101.289 728.398 104.38 728.398 108.134V111.335C728.398 114.794 729.024 117.775 730.275 120.278C731.6 122.78 733.366 124.694 735.574 126.018C737.856 127.27 740.395 127.895 743.192 127.895C746.283 127.895 748.822 127.233 750.809 125.908C752.87 124.583 754.379 122.817 755.336 120.609H768.804C767.774 124.068 766.081 127.196 763.726 129.993C761.371 132.716 758.464 134.887 755.004 136.506C751.545 138.052 747.644 138.825 743.302 138.825Z" fill="#1B3139"/>
</svg>
