<svg width="150" height="150" viewBox="0 0 150 150" fill="none" xmlns="http://www.w3.org/2000/svg">
<path d="M99 38.3L91.3 46L93.4 48.1L106.2 35.3H95.9L106.2 25H96.2L103.6 17.6L101.5 15.5L89 28H99L88.7 38.3H99Z" fill="white"/>
<path d="M131.7 123.5V120.5H124.4V116H114.4C109.4 116 105.2 119.7 104.5 124.5H31.3C25.8 124.5 21.3 120 21.3 114.5C21.3 109 25.8 104.5 31.3 104.5H73.2H117.1C124.3 104.5 130.1 98.7 130.1 91.5C130.1 84.3 124.3 78.5 117.1 78.5H110.3V55.5H84.6V78.5H78.6V14H51V78.6H45V34.9H38.4V24H19.3V34.9V37.9V90.3H110.8V87.3H22.3V81.6H36V78.6H22.3V70.7H36V67.7H22.3V59.8H36V56.8H22.3V48.9H36V45.9H22.3V38H38.4H42V81.6H54V27H59.6V80H62.6V27H67.7V80H70.7V27H75.7V81.5H87.7V70.7H96V81.2H99V70.7H107.3V81.6H117.1C122.6 81.6 127.1 86.1 127.1 91.6C127.1 97.1 122.6 101.6 117.1 101.6H73.2H31.3C24.1 101.6 18.3 107.4 18.3 114.6C18.3 121.8 24.1 127.6 31.3 127.6H104.5C105.2 132.4 109.4 136.1 114.4 136.1H124.4V131.6H131.7V128.6H124.4V123.7H131.7V123.5ZM22.3 34.9V27H35.4V34.9H22.3ZM54 24V17H75.7V24H54ZM87.6 67.7V58.6H96V67.7H87.6ZM99 67.7V58.6H107.3V67.7H99ZM121.4 133H114.4C110.5 133 107.4 129.9 107.4 126C107.4 122.1 110.5 119 114.4 119H121.4V133Z" fill="white"/>
</svg>
