<svg width="150" height="150" viewBox="0 0 150 150" fill="none" xmlns="http://www.w3.org/2000/svg">
<path d="M75 88.96C76.3642 88.96 77.47 87.8542 77.47 86.49C77.47 85.1259 76.3642 84.02 75 84.02C73.6359 84.02 72.53 85.1259 72.53 86.49C72.53 87.8542 73.6359 88.96 75 88.96Z" fill="#FF5F46"/>
<path d="M75 97.8199C76.3642 97.8199 77.47 96.714 77.47 95.3499C77.47 93.9857 76.3642 92.8799 75 92.8799C73.6359 92.8799 72.53 93.9857 72.53 95.3499C72.53 96.714 73.6359 97.8199 75 97.8199Z" fill="#FF5F46"/>
<path d="M113.16 20.4401V15.0801H36.84V20.4401C36.8453 22.2092 37.5511 23.9042 38.803 25.1542C40.0549 26.4042 41.7509 27.1074 43.52 27.1101H63.92C62.3034 28.0646 60.8119 29.2168 59.48 30.5401C57.0868 32.9478 55.2807 35.8747 54.202 39.0935C53.1233 42.3123 52.8009 45.7365 53.26 49.1001V49.2201C53.9265 53.9079 56.1031 58.2507 59.46 61.5901L72.89 75.0001L59.48 88.4101C55.3734 92.5333 53.0677 98.1157 53.0677 103.935C53.0677 109.754 55.3734 115.337 59.48 119.46C60.8093 120.786 62.3012 121.939 63.92 122.89H49.73V32.0001H46.73V122.86H43.51C41.7418 122.863 40.0468 123.566 38.7965 124.817C37.5463 126.067 36.8427 127.762 36.84 129.53V134.89H113.16V129.53C113.155 127.761 112.449 126.066 111.197 124.816C109.945 123.566 108.249 122.863 106.48 122.86H86.08C87.6984 121.908 89.1902 120.756 90.52 119.43C92.9189 117.026 94.7288 114.1 95.8079 110.88C96.887 107.66 97.2061 104.234 96.74 100.87V100.75C96.0701 96.0612 93.89 91.7185 90.53 88.3801L77.12 75.0001L90.52 61.5801C94.6267 57.4569 96.9324 51.8745 96.9324 46.0551C96.9324 40.2357 94.6267 34.6533 90.52 30.5301C89.1925 29.2019 87.7004 28.0492 86.08 27.1001H100.27V117.92H103.27V27.1101H106.49C108.258 27.1074 109.953 26.4039 111.204 25.1536C112.454 23.9033 113.157 22.2083 113.16 20.4401ZM79.74 122.28L78.61 122.57V125.89H106.48C106.963 125.889 107.441 125.983 107.888 126.167C108.334 126.35 108.74 126.621 109.082 126.961C109.423 127.302 109.695 127.707 109.88 128.153C110.065 128.599 110.16 129.077 110.16 129.56V131.92H39.84V129.56C39.84 128.587 40.2267 127.653 40.9149 126.965C41.6032 126.277 42.5367 125.89 43.51 125.89H71.4V122.56L70.27 122.28C66.9808 121.429 63.9842 119.701 61.6 117.28C61.47 117.16 61.35 117.02 61.23 116.9L75 105.83L88.78 116.94C88.661 117.077 88.5342 117.208 88.4 117.33C86.0139 119.733 83.0211 121.443 79.74 122.28ZM88.4 90.5301C91.271 93.387 93.1438 97.0939 93.74 101.1V101.22C94.4382 105.912 93.3303 110.694 90.64 114.6L75 102L59.34 114.61C56.8521 110.962 55.7163 106.559 56.129 102.163C56.5416 97.7661 58.4767 93.6517 61.6 90.5301L75 77.1201L88.4 90.5301ZM88.4 59.4701L75 72.8801L61.6 59.4701C58.9799 56.8597 57.1884 53.5341 56.45 49.9101C59.31 48.7701 66.87 46.4801 74.29 50.4401C80.47 53.7301 85.8 55.4401 89.72 55.4401C90.3435 55.4404 90.9658 55.3868 91.58 55.2801C90.7207 56.8183 89.6503 58.2286 88.4 59.4701ZM79.73 27.7201C83.8087 28.7596 87.4253 31.1274 90.0091 34.45C92.593 37.7727 93.9971 41.861 94 46.0701C93.9857 47.7365 93.7538 49.3938 93.31 51.0001C93.1554 51.286 92.9431 51.5367 92.6867 51.7363C92.4302 51.936 92.1351 52.0803 91.82 52.1601C88.75 53.1601 82.72 51.5201 75.72 47.7801C67.72 43.5201 59.82 45.4401 56.08 46.7801C55.906 42.4541 57.2193 38.199 59.8013 34.7236C62.3833 31.2483 66.078 28.7624 70.27 27.6801L71.4 27.3901V24.1101H43.52C43.0372 24.1114 42.5589 24.0174 42.1125 23.8336C41.6661 23.6497 41.2603 23.3796 40.9185 23.0387C40.5766 22.6978 40.3054 22.2928 40.1203 21.8468C39.9353 21.4009 39.84 20.9229 39.84 20.4401V18.0801H110.16V20.4401C110.16 21.4134 109.773 22.3469 109.085 23.0352C108.397 23.7234 107.463 24.1101 106.49 24.1101H78.6V27.4401L79.73 27.7201Z" fill="#FF5F46"/>
</svg>
