<svg width="150" height="150" viewBox="0 0 150 150" fill="none" xmlns="http://www.w3.org/2000/svg">
<path d="M75 88.96C76.3641 88.96 77.47 87.8542 77.47 86.49C77.47 85.1259 76.3641 84.02 75 84.02C73.6359 84.02 72.53 85.1259 72.53 86.49C72.53 87.8542 73.6359 88.96 75 88.96Z" fill="white"/>
<path d="M75 97.82C76.3641 97.82 77.47 96.7141 77.47 95.35C77.47 93.9859 76.3641 92.88 75 92.88C73.6359 92.88 72.53 93.9859 72.53 95.35C72.53 96.7141 73.6359 97.82 75 97.82Z" fill="white"/>
<path d="M113.16 20.44V15.08H36.84V20.44C36.8453 22.2091 37.5511 23.9041 38.803 25.1541C40.0549 26.4041 41.7509 27.1074 43.52 27.11H63.92C62.3034 28.0646 60.8119 29.2168 59.48 30.54C57.0868 32.9477 55.2807 35.8746 54.202 39.0935C53.1233 42.3123 52.8009 45.7364 53.26 49.1V49.22C53.9265 53.9079 56.1031 58.2507 59.46 61.59L72.89 75L59.48 88.41C55.3734 92.5332 53.0677 98.1156 53.0677 103.935C53.0677 109.754 55.3734 115.337 59.48 119.46C60.8093 120.786 62.3012 121.939 63.92 122.89H49.73V32H46.73V122.86H43.51C41.7418 122.863 40.0468 123.566 38.7965 124.817C37.5463 126.067 36.8427 127.762 36.84 129.53V134.89H113.16V129.53C113.155 127.761 112.449 126.066 111.197 124.816C109.945 123.566 108.249 122.863 106.48 122.86H86.08C87.6984 121.908 89.1902 120.756 90.52 119.43C92.9189 117.026 94.7288 114.1 95.8079 110.88C96.887 107.66 97.2061 104.234 96.74 100.87V100.75C96.0701 96.0611 93.89 91.7184 90.53 88.38L77.12 75L90.52 61.58C94.6267 57.4568 96.9324 51.8744 96.9324 46.055C96.9324 40.2356 94.6267 34.6532 90.52 30.53C89.1925 29.2019 87.7004 28.0492 86.08 27.1H100.27V117.92H103.27V27.11H106.49C108.258 27.1074 109.953 26.4038 111.204 25.1535C112.454 23.9032 113.157 22.2082 113.16 20.44V20.44ZM79.74 122.28L78.61 122.57V125.89H106.48C106.963 125.889 107.441 125.983 107.888 126.167C108.334 126.35 108.74 126.62 109.082 126.961C109.423 127.302 109.695 127.707 109.88 128.153C110.065 128.599 110.16 129.077 110.16 129.56V131.92H39.84V129.56C39.84 128.587 40.2267 127.653 40.9149 126.965C41.6032 126.277 42.5367 125.89 43.51 125.89H71.4V122.56L70.27 122.28C66.9808 121.429 63.9842 119.701 61.6 117.28C61.47 117.16 61.35 117.02 61.23 116.9L75 105.83L88.78 116.94C88.661 117.077 88.5342 117.208 88.4 117.33C86.0139 119.732 83.0211 121.443 79.74 122.28ZM88.4 90.53C91.271 93.3869 93.1438 97.0939 93.74 101.1V101.22C94.4382 105.912 93.3303 110.693 90.64 114.6L75 102L59.34 114.61C56.8521 110.962 55.7163 106.559 56.129 102.163C56.5416 97.766 58.4767 93.6516 61.6 90.53L75 77.12L88.4 90.53ZM88.4 59.47L75 72.88L61.6 59.47C58.9799 56.8596 57.1884 53.5341 56.45 49.91V49.91C59.31 48.77 66.87 46.48 74.29 50.44C80.47 53.73 85.8 55.44 89.72 55.44C90.3435 55.4403 90.9658 55.3868 91.58 55.28V55.28C90.7207 56.8182 89.6503 58.2286 88.4 59.47V59.47ZM79.73 27.72C83.8087 28.7595 87.4253 31.1273 90.0091 34.45C92.593 37.7726 93.9971 41.8609 94 46.07C93.9857 47.7364 93.7538 49.3937 93.31 51C93.1554 51.2859 92.9431 51.5366 92.6867 51.7363C92.4302 51.9359 92.1351 52.0802 91.82 52.16C88.75 53.16 82.72 51.52 75.72 47.78C67.72 43.52 59.82 45.44 56.08 46.78C55.906 42.454 57.2193 38.1989 59.8013 34.7236C62.3833 31.2482 66.078 28.7623 70.27 27.68L71.4 27.39V24.11H43.52C43.0372 24.1113 42.5589 24.0174 42.1125 23.8335C41.6661 23.6497 41.2603 23.3796 40.9185 23.0386C40.5766 22.6977 40.3054 22.2927 40.1203 21.8468C39.9353 21.4009 39.84 20.9228 39.84 20.44V18.08H110.16V20.44C110.16 21.4134 109.773 22.3468 109.085 23.0351C108.397 23.7234 107.463 24.11 106.49 24.11H78.6V27.44L79.73 27.72Z" fill="white"/>
</svg>
