<svg width="150" height="150" viewBox="0 0 150 150" fill="none" xmlns="http://www.w3.org/2000/svg">
<path fill-rule="evenodd" clip-rule="evenodd" d="M95.0254 52.5851C85.4034 43.4637 80.8616 30.5695 79.6573 21.4727C79.557 20.7153 78.8617 20.1826 78.1043 20.2828C77.3469 20.3831 76.8141 21.0784 76.9144 21.8358C78.1761 31.3664 82.9153 44.9175 93.1219 54.5931C103.415 64.3511 119.111 70.0117 141.862 63.9155C142.6 63.7178 143.038 62.9592 142.84 62.2212C142.643 61.4832 141.884 61.0452 141.146 61.243C119.241 67.1123 104.561 61.6242 95.0254 52.5851Z" fill="#1B3139"/>
<path fill-rule="evenodd" clip-rule="evenodd" d="M78.2898 21.7365L73.117 30.6961C72.735 31.3578 72.9617 32.2039 73.6234 32.5859C74.2851 32.968 75.1311 32.7412 75.5132 32.0796L79.3026 25.5161L85.866 29.3055C86.5277 29.6875 87.3738 29.4608 87.7558 28.7992C88.1378 28.1375 87.9111 27.2914 87.2494 26.9094L78.2898 21.7365Z" fill="#1B3139"/>
<path fill-rule="evenodd" clip-rule="evenodd" d="M80.5002 31.0888L77.6544 41.0353C77.4442 41.7699 77.8693 42.5357 78.6039 42.7459C79.3384 42.9561 80.1043 42.531 80.3145 41.7964L82.3992 34.51L89.6857 36.5948C90.4202 36.8049 91.1861 36.3798 91.3963 35.6453C91.6064 34.9107 91.1813 34.1448 90.4468 33.9347L80.5002 31.0888Z" fill="#1B3139"/>
<path fill-rule="evenodd" clip-rule="evenodd" d="M84.7516 40.8134L83.8568 51.1203C83.7907 51.8815 84.3542 52.5521 85.1154 52.6182C85.8766 52.6843 86.5472 52.1208 86.6133 51.3596L87.2687 43.8092L94.8192 44.4646C95.5803 44.5307 96.251 43.9672 96.317 43.206C96.3831 42.4449 95.8196 41.7742 95.0585 41.7082L84.7516 40.8134Z" fill="#1B3139"/>
<path fill-rule="evenodd" clip-rule="evenodd" d="M89.9545 49.445L90.6701 59.7658C90.7229 60.528 91.3836 61.1031 92.1459 61.0503C92.9081 60.9974 93.4831 60.3367 93.4303 59.5745L92.9061 52.0138L100.467 51.4896C101.229 51.4368 101.804 50.776 101.751 50.0138C101.698 49.2516 101.038 48.6766 100.275 48.7294L89.9545 49.445Z" fill="#1B3139"/>
<path fill-rule="evenodd" clip-rule="evenodd" d="M97.2306 56.7272L100.237 66.6264C100.459 67.3575 101.232 67.7701 101.963 67.5481C102.694 67.3261 103.107 66.5534 102.884 65.8224L100.682 58.5706L107.934 56.3682C108.665 56.1462 109.078 55.3736 108.856 54.6425C108.634 53.9114 107.861 53.4988 107.13 53.7208L97.2306 56.7272Z" fill="#1B3139"/>
<path fill-rule="evenodd" clip-rule="evenodd" d="M107.015 62.3296L113.088 70.705C113.536 71.3236 114.401 71.4614 115.02 71.0129C115.639 70.5644 115.776 69.6993 115.328 69.0808L110.879 62.9453L117.014 58.4962C117.633 58.0477 117.771 57.1827 117.322 56.5642C116.874 55.9456 116.009 55.8078 115.39 56.2563L107.015 62.3296Z" fill="#1B3139"/>
<path fill-rule="evenodd" clip-rule="evenodd" d="M118.874 64.8209L126.671 71.6203C127.247 72.1224 128.121 72.0627 128.623 71.4868C129.125 70.9109 129.065 70.037 128.49 69.5349L122.778 64.5539L127.758 58.8418C128.261 58.2659 128.201 57.3921 127.625 56.8899C127.049 56.3878 126.175 56.4475 125.673 57.0234L118.874 64.8209Z" fill="#1B3139"/>
<path fill-rule="evenodd" clip-rule="evenodd" d="M130.186 64.3326L137.983 71.132C138.559 71.6341 139.433 71.5744 139.935 70.9985C140.437 70.4227 140.377 69.5488 139.802 69.0466L134.089 64.0656L139.07 58.3535C139.573 57.7777 139.513 56.9038 138.937 56.4016C138.361 55.8995 137.487 55.9592 136.985 56.5351L130.186 64.3326Z" fill="#1B3139"/>
<path fill-rule="evenodd" clip-rule="evenodd" d="M80.1839 98.9088C89.3966 108.443 93.3686 121.524 94.1728 130.665C94.2398 131.426 94.911 131.989 95.6721 131.922C96.4333 131.855 96.996 131.184 96.929 130.423C96.0865 120.846 91.9461 107.1 82.1736 96.9862C72.318 86.7863 56.8859 80.4427 33.889 85.5354C33.1431 85.7006 32.6722 86.4392 32.8374 87.1852C33.0026 87.9312 33.7413 88.402 34.4872 88.2368C56.6284 83.3336 71.0543 89.4602 80.1839 98.9088Z" fill="#1B3139"/>
<path fill-rule="evenodd" clip-rule="evenodd" d="M95.5506 130.461L101.111 121.736C101.522 121.092 101.333 120.237 100.688 119.826C100.044 119.416 99.1889 119.605 98.7782 120.249L94.7046 126.64L88.3136 122.567C87.6694 122.156 86.8141 122.345 86.4035 122.99C85.9928 123.634 86.1822 124.489 86.8265 124.9L95.5506 130.461Z" fill="#1B3139"/>
<path fill-rule="evenodd" clip-rule="evenodd" d="M93.7527 121.02L97.032 111.208C97.2742 110.484 96.8831 109.7 96.1584 109.458C95.4338 109.215 94.65 109.607 94.4078 110.331L92.0055 117.519L84.8175 115.117C84.0929 114.875 83.3091 115.266 83.0669 115.991C82.8247 116.715 83.2159 117.499 83.9405 117.741L93.7527 121.02Z" fill="#1B3139"/>
<path fill-rule="evenodd" clip-rule="evenodd" d="M89.9316 111.12L91.2775 100.862C91.3769 100.104 90.8433 99.4095 90.0858 99.3101C89.3282 99.2107 88.6335 99.7443 88.5341 100.502L87.5482 108.016L80.0338 107.03C79.2763 106.931 78.5816 107.464 78.4822 108.222C78.3828 108.98 78.9163 109.674 79.6739 109.774L89.9316 111.12Z" fill="#1B3139"/>
<path fill-rule="evenodd" clip-rule="evenodd" d="M85.1122 102.268L84.8499 91.9259C84.8305 91.1621 84.1956 90.5587 83.4318 90.578C82.668 90.5974 82.0646 91.2323 82.0839 91.9961L82.2761 99.5725L74.6997 99.7646C73.9359 99.784 73.3324 100.419 73.3518 101.183C73.3712 101.946 74.006 102.55 74.7698 102.531L85.1122 102.268Z" fill="#1B3139"/>
<path fill-rule="evenodd" clip-rule="evenodd" d="M78.1627 94.6732L75.5932 84.6517C75.4035 83.9116 74.6497 83.4655 73.9096 83.6552C73.1695 83.845 72.7233 84.5988 72.9131 85.3389L74.7953 92.6802L67.454 94.5625C66.7139 94.7522 66.2677 95.506 66.4575 96.2461C66.6472 96.9862 67.401 97.4324 68.1411 97.2426L78.1627 94.6732Z" fill="#1B3139"/>
<path fill-rule="evenodd" clip-rule="evenodd" d="M68.6338 88.649L62.9337 80.0153C62.5127 79.3777 61.6546 79.202 61.017 79.623C60.3794 80.044 60.2037 80.9021 60.6247 81.5397L64.8004 87.8644L58.4757 92.0401C57.8381 92.4611 57.6624 93.3192 58.0834 93.9569C58.5044 94.5945 59.3625 94.7701 60.0001 94.3491L68.6338 88.649Z" fill="#1B3139"/>
<path fill-rule="evenodd" clip-rule="evenodd" d="M56.8949 85.639L49.403 78.5042C48.8498 77.9773 47.9741 77.9987 47.4472 78.552C46.9203 79.1053 46.9416 79.9809 47.4949 80.5079L52.9831 85.7345L47.7564 91.2227C47.2295 91.776 47.2509 92.6517 47.8042 93.1786C48.3575 93.7055 49.2331 93.6841 49.7601 93.1309L56.8949 85.639Z" fill="#1B3139"/>
<path fill-rule="evenodd" clip-rule="evenodd" d="M45.5726 85.6303L38.0808 78.4955C37.5275 77.9685 36.6518 77.9899 36.1249 78.5432C35.598 79.0965 35.6194 79.9722 36.1726 80.4991L41.6609 85.7257L36.4342 91.2139C35.9073 91.7672 35.9286 92.6429 36.4819 93.1698C37.0352 93.6967 37.9109 93.6754 38.4378 93.1221L45.5726 85.6303Z" fill="#1B3139"/>
<path fill-rule="evenodd" clip-rule="evenodd" d="M142.214 75.8891C142.214 105.694 118.052 129.855 88.2478 129.855C58.4433 129.855 34.2819 105.694 34.2819 75.8891C34.2819 74.4913 34.335 73.1059 34.4394 71.7348H31.6648C31.5655 73.1066 31.515 74.492 31.515 75.8891C31.515 107.222 56.9152 132.622 88.2478 132.622C119.581 132.622 144.981 107.222 144.981 75.8891C144.981 44.5564 119.581 19.1562 88.2478 19.1562C71.2601 19.1562 56.0163 26.6226 45.6189 38.4528H49.3781C59.1947 28.2626 72.9809 21.9231 88.2478 21.9231C118.052 21.9231 142.214 46.0845 142.214 75.8891ZM32.0528 68.0457H34.8477C35.3993 64.257 36.3446 60.5959 37.6407 57.1053H34.6984C33.4699 60.6078 32.5753 64.2673 32.0528 68.0457ZM46.1329 42.1419C43.3744 45.58 41.0281 49.3631 39.1692 53.4162H36.14C37.8761 49.3961 40.0638 45.6167 42.6391 42.1419H46.1329Z" fill="#1B3139"/>
<path fill-rule="evenodd" clip-rule="evenodd" d="M66.3798 39.1038L25.0199 39.1038L25.0199 36.3369L66.3798 36.3369L66.3798 39.1038Z" fill="#1B3139"/>
<path fill-rule="evenodd" clip-rule="evenodd" d="M52.8633 54.4368L5.01855 54.4368L5.01855 51.6699L52.8633 51.6699L52.8633 54.4368Z" fill="#1B3139"/>
<path fill-rule="evenodd" clip-rule="evenodd" d="M43.7322 69.429L20.0607 69.4289L20.0607 66.6621L43.7322 66.6621L43.7322 69.429Z" fill="#1B3139"/>
</svg>
