<svg width="911" height="200" viewBox="0 0 911 200" fill="none" xmlns="http://www.w3.org/2000/svg">
<path d="M99.7571 72.3687L75.8477 86.1844V113.816L99.7571 127.632L123.667 113.816V86.1844L99.7571 72.3687Z" fill="#FF5F46"/>
<path d="M150.168 70.9293H177.678L163.851 47.0396L150.168 70.9293Z" fill="#FF5F46"/>
<path d="M150.168 129.215L163.995 153.105L177.822 129.215H150.168Z" fill="#FF5F46"/>
<path d="M85.9297 182.031H113.44L99.6128 158.142L85.9297 182.031Z" fill="#FF5F46"/>
<path d="M21.6914 129.215L35.5186 153.105L49.3457 129.215H21.6914Z" fill="#FF5F46"/>
<path d="M21.6914 70.9293H49.2017L35.3745 47.0396L21.6914 70.9293Z" fill="#FF5F46"/>
<path d="M85.9297 17.9688L99.7568 41.8585L113.584 17.9688H85.9297Z" fill="#FF5F46"/>
<path d="M125.972 22.7178L109.984 50.3493L137.639 66.3238L153.626 38.6923L125.972 22.7178Z" fill="#FABFBA"/>
<path d="M179.839 84.0254H147.863V115.974H179.839V84.0254Z" fill="#FABFBA"/>
<path d="M137.639 133.82L109.984 149.794L125.972 177.426L153.626 161.451L137.639 133.82Z" fill="#FABFBA"/>
<path d="M61.7338 133.82L45.7461 161.451L73.4004 177.426L89.3881 149.794L61.7338 133.82Z" fill="#FABFBA"/>
<path d="M51.5066 84.0254H19.5312V115.974H51.5066V84.0254Z" fill="#FABFBA"/>
<path d="M73.4004 22.7178L45.7461 38.6923L61.7338 66.3238L89.3881 50.3493L73.4004 22.7178Z" fill="#FABFBA"/>
<path d="M269.094 138.825C263.501 138.825 258.422 137.721 253.859 135.513C249.37 133.305 245.763 129.919 243.04 125.356C240.39 120.793 239.066 115.052 239.066 108.134V60.22H252.314V108.244C252.314 112.439 253.013 115.898 254.411 118.622C255.81 121.345 257.76 123.406 260.262 124.804C262.838 126.129 265.856 126.791 269.315 126.791C272.848 126.791 275.866 126.129 278.368 124.804C280.944 123.406 282.894 121.345 284.219 118.622C285.618 115.898 286.317 112.439 286.317 108.244V60.22H299.565V108.134C299.565 115.052 298.203 120.793 295.48 125.356C292.757 129.919 289.077 133.305 284.44 135.513C279.803 137.721 274.688 138.825 269.094 138.825ZM310.691 137.5V81.8584H322.393L323.387 91.132C325.08 87.8936 327.509 85.3176 330.673 83.404C333.838 81.4904 337.592 80.5336 341.934 80.5336C346.424 80.5336 350.251 81.4904 353.416 83.404C356.581 85.244 359.009 87.9672 360.702 91.5736C362.469 95.18 363.352 99.6696 363.352 105.042V137.5H350.104V106.257C350.104 101.62 349.073 98.0504 347.013 95.548C344.952 93.0456 341.897 91.7944 337.849 91.7944C335.2 91.7944 332.808 92.42 330.673 93.6712C328.613 94.9224 326.957 96.7624 325.705 99.1912C324.528 101.546 323.939 104.417 323.939 107.802V137.5H310.691ZM374.559 137.5V81.8584H387.807V137.5H374.559ZM381.183 73.0264C378.754 73.0264 376.73 72.2904 375.111 70.8184C373.566 69.2728 372.793 67.396 372.793 65.188C372.793 62.9064 373.566 61.0664 375.111 59.668C376.73 58.196 378.754 57.46 381.183 57.46C383.612 57.46 385.599 58.196 387.145 59.668C388.764 61.0664 389.574 62.9064 389.574 65.188C389.574 67.396 388.764 69.2728 387.145 70.8184C385.599 72.2904 383.612 73.0264 381.183 73.0264ZM423.982 137.5C420.229 137.5 416.953 136.911 414.157 135.734C411.433 134.556 409.299 132.606 407.753 129.882C406.208 127.159 405.435 123.479 405.435 118.842V93.0088H395.941V81.8584H405.435L406.981 67.1752H418.683V81.8584H433.808V93.0088H418.683V118.842C418.683 121.639 419.272 123.59 420.449 124.694C421.701 125.724 423.761 126.239 426.632 126.239H433.477V137.5H423.982ZM449.694 161.788L463.273 131.318H459.961L437.771 81.8584H452.233L468.793 119.615L484.47 81.8584H498.491L463.715 161.788H449.694ZM563.184 138.825C555.529 138.825 548.905 137.169 543.312 133.857C537.792 130.471 533.523 125.798 530.505 119.836C527.561 113.801 526.089 106.846 526.089 98.9704C526.089 91.0216 527.561 84.0664 530.505 78.1048C533.523 72.0696 537.792 67.3592 543.312 63.9736C548.905 60.588 555.529 58.8952 563.184 58.8952C572.384 58.8952 579.891 61.1768 585.705 65.74C591.52 70.2296 595.2 76.596 596.745 84.8392H582.172C581.142 80.4968 579.044 77.0744 575.88 74.572C572.715 72.0696 568.446 70.8184 563.073 70.8184C558.216 70.8184 554.02 71.9592 550.488 74.2408C547.028 76.4488 544.342 79.6872 542.428 83.956C540.588 88.1512 539.668 93.156 539.668 98.9704C539.668 104.785 540.588 109.79 542.428 113.985C544.342 118.106 547.028 121.308 550.488 123.59C554.02 125.798 558.216 126.902 563.073 126.902C568.446 126.902 572.715 125.761 575.88 123.479C579.044 121.124 581.142 117.886 582.172 113.764H596.745C595.273 121.566 591.593 127.711 585.705 132.201C579.891 136.617 572.384 138.825 563.184 138.825ZM624.502 138.825C619.939 138.825 616.149 138.052 613.131 136.506C610.113 134.961 607.869 132.9 606.397 130.324C604.925 127.748 604.189 124.951 604.189 121.934C604.189 118.401 605.072 115.346 606.838 112.77C608.678 110.194 611.365 108.207 614.897 106.809C618.43 105.337 622.773 104.601 627.925 104.601H641.945C641.945 101.657 641.541 99.228 640.731 97.3144C639.921 95.3272 638.67 93.8552 636.977 92.8984C635.285 91.9416 633.113 91.4632 630.464 91.4632C627.446 91.4632 624.87 92.1624 622.736 93.5608C620.601 94.8856 619.277 96.9464 618.761 99.7432H605.734C606.176 95.7688 607.501 92.3832 609.709 89.5864C611.917 86.716 614.824 84.508 618.43 82.9624C622.11 81.3432 626.121 80.5336 630.464 80.5336C635.689 80.5336 640.142 81.4536 643.822 83.2936C647.502 85.06 650.299 87.636 652.213 91.0216C654.2 94.3336 655.193 98.3448 655.193 103.055V137.5H643.933L642.608 128.558C641.872 130.03 640.915 131.391 639.737 132.642C638.633 133.894 637.345 134.998 635.873 135.954C634.401 136.838 632.709 137.537 630.795 138.052C628.955 138.567 626.857 138.825 624.502 138.825ZM627.483 128.337C629.617 128.337 631.494 127.969 633.113 127.233C634.806 126.423 636.241 125.319 637.419 123.921C638.67 122.449 639.627 120.83 640.289 119.063C640.952 117.297 641.393 115.42 641.614 113.433V113.212H629.36C626.784 113.212 624.649 113.543 622.957 114.206C621.264 114.794 620.049 115.678 619.313 116.855C618.577 118.033 618.209 119.394 618.209 120.94C618.209 122.486 618.577 123.81 619.313 124.914C620.049 126.018 621.117 126.865 622.515 127.454C623.913 128.042 625.569 128.337 627.483 128.337ZM689.352 137.5C685.598 137.5 682.323 136.911 679.526 135.734C676.803 134.556 674.669 132.606 673.123 129.882C671.577 127.159 670.805 123.479 670.805 118.842V93.0088H661.31V81.8584H670.805L672.35 67.1752H684.053V81.8584H699.177V93.0088H684.053V118.842C684.053 121.639 684.641 123.59 685.819 124.694C687.07 125.724 689.131 126.239 692.001 126.239H698.846V137.5H689.352ZM726.877 138.825C722.313 138.825 718.523 138.052 715.505 136.506C712.488 134.961 710.243 132.9 708.771 130.324C707.299 127.748 706.563 124.951 706.563 121.934C706.563 118.401 707.446 115.346 709.213 112.77C711.053 110.194 713.739 108.207 717.272 106.809C720.805 105.337 725.147 104.601 730.299 104.601H744.32C744.32 101.657 743.915 99.228 743.105 97.3144C742.296 95.3272 741.045 93.8552 739.352 92.8984C737.659 91.9416 735.488 91.4632 732.838 91.4632C729.821 91.4632 727.245 92.1624 725.11 93.5608C722.976 94.8856 721.651 96.9464 721.136 99.7432H708.109C708.55 95.7688 709.875 92.3832 712.083 89.5864C714.291 86.716 717.198 84.508 720.805 82.9624C724.485 81.3432 728.496 80.5336 732.838 80.5336C738.064 80.5336 742.517 81.4536 746.197 83.2936C749.877 85.06 752.673 87.636 754.587 91.0216C756.574 94.3336 757.568 98.3448 757.568 103.055V137.5H746.307L744.982 128.558C744.246 130.03 743.289 131.391 742.112 132.642C741.008 133.894 739.72 134.998 738.248 135.954C736.776 136.838 735.083 137.537 733.169 138.052C731.329 138.567 729.232 138.825 726.877 138.825ZM729.857 128.337C731.992 128.337 733.869 127.969 735.488 127.233C737.181 126.423 738.616 125.319 739.793 123.921C741.045 122.449 742.001 120.83 742.664 119.063C743.326 117.297 743.768 115.42 743.989 113.433V113.212H731.734C729.158 113.212 727.024 113.543 725.331 114.206C723.638 114.794 722.424 115.678 721.688 116.855C720.952 118.033 720.584 119.394 720.584 120.94C720.584 122.486 720.952 123.81 721.688 124.914C722.424 126.018 723.491 126.865 724.889 127.454C726.288 128.042 727.944 128.337 729.857 128.337ZM768.411 137.5V58.012H781.659V137.5H768.411ZM819.074 138.825C813.775 138.825 808.991 137.61 804.722 135.182C800.527 132.679 797.215 129.257 794.786 124.914C792.431 120.498 791.254 115.457 791.254 109.79C791.254 103.975 792.468 98.8968 794.897 94.5544C797.326 90.1384 800.638 86.716 804.833 84.2872C809.102 81.7848 813.886 80.5336 819.185 80.5336C824.484 80.5336 829.231 81.7848 833.426 84.2872C837.695 86.716 841.007 90.1016 843.362 94.444C845.791 98.7864 847.006 103.865 847.006 109.679C847.006 115.494 845.791 120.572 843.362 124.914C840.934 129.257 837.585 132.679 833.316 135.182C829.121 137.61 824.374 138.825 819.074 138.825ZM819.074 127.454C821.724 127.454 824.116 126.791 826.25 125.466C828.458 124.142 830.225 122.154 831.55 119.505C832.874 116.855 833.537 113.58 833.537 109.679C833.537 105.778 832.874 102.54 831.55 99.964C830.298 97.3144 828.569 95.3272 826.361 94.0024C824.226 92.6776 821.834 92.0152 819.185 92.0152C816.609 92.0152 814.217 92.6776 812.009 94.0024C809.801 95.3272 808.034 97.3144 806.71 99.964C805.385 102.54 804.722 105.778 804.722 109.679C804.722 113.58 805.385 116.855 806.71 119.505C808.034 122.154 809.764 124.142 811.898 125.466C814.106 126.791 816.498 127.454 819.074 127.454ZM876.833 163.113C871.607 163.113 867.007 162.45 863.033 161.126C859.132 159.874 856.077 157.924 853.869 155.274C851.735 152.698 850.668 149.46 850.668 145.559C850.668 143.278 851.22 141.033 852.324 138.825C853.501 136.69 855.231 134.703 857.513 132.863C859.868 130.95 862.849 129.294 866.455 127.895L872.306 134.298C868.773 135.55 866.308 137.058 864.909 138.825C863.511 140.591 862.812 142.394 862.812 144.234C862.812 146.148 863.401 147.73 864.578 148.982C865.829 150.306 867.485 151.3 869.546 151.962C871.681 152.625 874.073 152.956 876.722 152.956C879.298 152.956 881.543 152.588 883.457 151.852C885.37 151.19 886.842 150.233 887.873 148.982C888.977 147.73 889.529 146.222 889.529 144.455C889.529 142.247 888.756 140.444 887.21 139.046C885.665 137.721 882.61 136.911 878.047 136.617C874.146 136.322 870.724 135.918 867.78 135.402C864.836 134.814 862.297 134.151 860.162 133.415C858.101 132.679 856.335 131.87 854.863 130.986C853.391 130.03 852.177 129.073 851.22 128.116V125.577L862.812 113.433L872.637 116.634L859.61 129.33L863.033 122.927C863.769 123.442 864.505 123.921 865.241 124.362C866.05 124.804 867.044 125.209 868.221 125.577C869.473 125.871 871.092 126.166 873.079 126.46C875.066 126.754 877.642 127.049 880.807 127.343C885.738 127.711 889.749 128.594 892.841 129.993C895.932 131.391 898.213 133.268 899.685 135.623C901.157 137.978 901.893 140.812 901.893 144.124C901.893 147.362 900.973 150.417 899.133 153.287C897.367 156.158 894.644 158.513 890.964 160.353C887.284 162.193 882.573 163.113 876.833 163.113ZM876.833 120.83C872.196 120.83 868.185 119.946 864.799 118.18C861.487 116.34 858.948 113.911 857.181 110.894C855.415 107.802 854.532 104.417 854.532 100.737C854.532 96.9832 855.415 93.5976 857.181 90.58C858.948 87.5624 861.487 85.1336 864.799 83.2936C868.185 81.4536 872.196 80.5336 876.833 80.5336C881.469 80.5336 885.444 81.4536 888.756 83.2936C892.068 85.1336 894.607 87.5624 896.373 90.58C898.14 93.5976 899.023 96.9832 899.023 100.737C899.023 104.417 898.14 107.802 896.373 110.894C894.607 113.911 892.068 116.34 888.756 118.18C885.444 119.946 881.469 120.83 876.833 120.83ZM876.833 110.562C879.997 110.562 882.537 109.716 884.45 108.023C886.364 106.33 887.321 103.902 887.321 100.737C887.321 97.572 886.364 95.18 884.45 93.5608C882.537 91.868 879.997 91.0216 876.833 91.0216C873.668 91.0216 871.092 91.868 869.105 93.5608C867.117 95.18 866.124 97.572 866.124 100.737C866.124 103.902 867.117 106.33 869.105 108.023C871.092 109.716 873.668 110.562 876.833 110.562ZM885.996 91.5736L883.457 81.8584H906.309V90.1384L885.996 91.5736Z" fill="white"/>
</svg>
