<svg width="150" height="150" viewBox="0 0 150 150" fill="none" xmlns="http://www.w3.org/2000/svg">
<path d="M133.82 23.8901L134.14 23.0101L131.32 22.0101L131 22.8901C130.374 24.5866 129.299 26.0815 127.89 27.2156C126.481 28.3496 124.791 29.0804 123 29.3301L121 29.4301H84.12C83.8939 28.0528 83.359 26.7444 82.5555 25.6032C81.7519 24.4619 80.7005 23.5173 79.48 22.8401C80.3856 21.9474 81.0053 20.8054 81.26 19.5595C81.5148 18.3136 81.3933 17.0201 80.9108 15.8434C80.4284 14.6668 79.6068 13.6603 78.5507 12.9519C77.4946 12.2435 76.2517 11.8652 74.98 11.8652C73.7083 11.8652 72.4654 12.2435 71.4093 12.9519C70.3532 13.6603 69.5316 14.6668 69.0492 15.8434C68.5668 17.0201 68.4452 18.3136 68.7 19.5595C68.9548 20.8054 69.5744 21.9474 70.48 22.8401C69.2595 23.5173 68.2081 24.4619 67.4045 25.6032C66.601 26.7444 66.0661 28.0528 65.84 29.4301H29L27 29.3301C25.2088 29.0804 23.5189 28.3496 22.1101 27.2156C20.7014 26.0815 19.6265 24.5866 19 22.8901L18.68 22.0001L15.86 23.0001L16.18 23.8901C16.9485 25.9786 18.2403 27.8349 19.9317 29.2811C21.6231 30.7274 23.6575 31.7153 25.84 32.1501L8.38 76.0501L8.73 76.6701C10.6543 80.0731 13.4476 82.9042 16.8244 84.8741C20.2013 86.8439 24.0406 87.8819 27.95 87.8819C31.8594 87.8819 35.6987 86.8439 39.0756 84.8741C42.4524 82.9042 45.2457 80.0731 47.17 76.6701L47.52 76.0501L30.16 32.4101H65.88C66.2417 34.5969 67.3774 36.5809 69.08 38.0001L62.33 58.4701L67.33 116.67C62.7227 118.367 58.8154 121.556 56.23 125.73H56C53.1047 125.733 50.3286 126.884 48.2813 128.931C46.234 130.979 45.0827 133.755 45.08 136.65V138.15H104.86V136.65C104.857 133.765 103.714 130.998 101.68 128.953C99.6456 126.907 96.8849 125.749 94 125.73H93.79C91.2063 121.552 87.2988 118.359 82.69 116.66L87.69 58.7701V58.4601L80.83 38.0901C82.5892 36.667 83.7609 34.6442 84.12 32.4101H119.84L102.48 76.0501L102.83 76.6701C104.754 80.0731 107.548 82.9042 110.924 84.8741C114.301 86.8439 118.141 87.8819 122.05 87.8819C125.959 87.8819 129.799 86.8439 133.176 84.8741C136.552 82.9042 139.346 80.0731 141.27 76.6701L141.62 76.0501L124.16 32.1601C126.344 31.7243 128.379 30.735 130.07 29.2869C131.762 27.8388 133.053 25.9805 133.82 23.8901ZM28 84.8801C25.0803 84.8774 22.2001 84.2053 19.5807 82.9155C16.9613 81.6258 14.6724 79.7526 12.89 77.4401H43.06C41.2843 79.7477 39.0038 81.618 36.3933 82.9076C33.7828 84.1972 30.9117 84.872 28 84.8801ZM43.7 74.4401H12.25L26.45 38.7401V69.4201H29.45V38.7501L43.7 74.4401ZM71.59 18.2501C71.59 17.5757 71.79 16.9164 72.1647 16.3556C72.5394 15.7948 73.072 15.3578 73.6951 15.0997C74.3182 14.8416 75.0038 14.7741 75.6653 14.9056C76.3267 15.0372 76.9343 15.362 77.4112 15.8389C77.8881 16.3158 78.2129 16.9234 78.3445 17.5849C78.4761 18.2463 78.4085 18.932 78.1504 19.5551C77.8923 20.1782 77.4553 20.7107 76.8945 21.0854C76.3337 21.4601 75.6744 21.6601 75 21.6601C74.0956 21.6601 73.2283 21.3008 72.5888 20.6613C71.9493 20.0218 71.59 19.1545 71.59 18.2501ZM65.37 58.8201L71.73 39.5601C72.3019 39.7717 72.8956 39.9193 73.5 40.0001V115.31C72.4171 115.387 71.3411 115.541 70.28 115.77L65.37 58.8201ZM94 128.73C95.8367 128.744 97.6126 129.39 99.0293 130.559C100.446 131.729 101.417 133.349 101.78 135.15H48.26C48.6091 133.35 49.5711 131.727 50.9823 130.556C52.3934 129.386 54.1666 128.741 56 128.73H94ZM90.15 125.73H59.88C61.6622 123.415 63.9523 121.539 66.5738 120.249C69.1953 118.959 72.0781 118.288 75 118.288C77.9219 118.288 80.8047 118.959 83.4262 120.249C86.0477 121.539 88.3379 123.415 90.12 125.73H90.15ZM79.75 115.8C78.6889 115.571 77.6129 115.417 76.53 115.34V40.0001C77.0995 39.9123 77.6589 39.7683 78.2 39.5701L84.66 58.8001L79.75 115.8ZM75 37.1601C73.7639 37.1601 72.5555 36.7936 71.5277 36.1068C70.4999 35.42 69.6988 34.4439 69.2258 33.3019C68.7527 32.1598 68.6289 30.9032 68.8701 29.6908C69.1113 28.4784 69.7065 27.3648 70.5806 26.4907C71.4547 25.6166 72.5683 25.0214 73.7807 24.7802C74.9931 24.539 76.2497 24.6628 77.3918 25.1359C78.5338 25.6089 79.5099 26.41 80.1967 27.4378C80.8835 28.4656 81.25 29.674 81.25 30.9101C81.2474 32.5669 80.588 34.1551 79.4165 35.3266C78.245 36.4981 76.6568 37.1575 75 37.1601ZM120.55 38.7401V69.4201H123.55V38.7401L137.75 74.4401H106.35L120.55 38.7401ZM122.05 84.8801C119.13 84.8774 116.25 84.2053 113.631 82.9155C111.011 81.6258 108.722 79.7526 106.94 77.4401H137.16C135.379 79.7543 133.091 81.6287 130.471 82.9186C127.851 84.2085 124.97 84.8796 122.05 84.8801Z" fill="#FF5F46"/>
</svg>
