<svg width="150" height="150" viewBox="0 0 150 150" fill="none" xmlns="http://www.w3.org/2000/svg">
<path d="M133.82 23.89L134.14 23.01L131.32 22.01L131 22.89C130.374 24.5865 129.299 26.0814 127.89 27.2154C126.481 28.3495 124.791 29.0803 123 29.33L121 29.43H84.12C83.8939 28.0526 83.359 26.7443 82.5555 25.6031C81.7519 24.4618 80.7005 23.5172 79.48 22.84C80.3856 21.9472 81.0053 20.8053 81.26 19.5594C81.5148 18.3135 81.3933 17.0199 80.9108 15.8433C80.4284 14.6667 79.6068 13.6602 78.5507 12.9518C77.4946 12.2434 76.2517 11.8651 74.98 11.8651C73.7083 11.8651 72.4654 12.2434 71.4093 12.9518C70.3532 13.6602 69.5316 14.6667 69.0492 15.8433C68.5668 17.0199 68.4452 18.3135 68.7 19.5594C68.9548 20.8053 69.5744 21.9472 70.48 22.84C69.2595 23.5172 68.2081 24.4618 67.4045 25.6031C66.601 26.7443 66.0661 28.0526 65.84 29.43H29L27 29.33C25.2088 29.0803 23.5189 28.3495 22.1101 27.2154C20.7014 26.0814 19.6265 24.5865 19 22.89L18.68 22L15.86 23L16.18 23.89C16.9485 25.9785 18.2403 27.8348 19.9317 29.281C21.6231 30.7273 23.6575 31.7151 25.84 32.15L8.38 76.05L8.73 76.67C10.6543 80.073 13.4476 82.9041 16.8244 84.874C20.2013 86.8438 24.0406 87.8818 27.95 87.8818C31.8594 87.8818 35.6987 86.8438 39.0756 84.874C42.4524 82.9041 45.2457 80.073 47.17 76.67L47.52 76.05L30.16 32.41H65.88C66.2417 34.5968 67.3774 36.5808 69.08 38V38L62.33 58.47L67.33 116.67C62.7227 118.367 58.8154 121.556 56.23 125.73H56C53.1047 125.733 50.3286 126.884 48.2813 128.931C46.234 130.979 45.0827 133.755 45.08 136.65V138.15H104.86V136.65C104.857 133.765 103.714 130.998 101.68 128.952C99.6456 126.907 96.8849 125.748 94 125.73H93.79C91.2063 121.552 87.2988 118.359 82.69 116.66L87.69 58.77V58.46L80.83 38.09C82.5892 36.6668 83.7609 34.6441 84.12 32.41H119.84L102.48 76.05L102.83 76.67C104.754 80.073 107.548 82.9041 110.924 84.874C114.301 86.8438 118.141 87.8818 122.05 87.8818C125.959 87.8818 129.799 86.8438 133.176 84.874C136.552 82.9041 139.346 80.073 141.27 76.67L141.62 76.05L124.16 32.16C126.344 31.7242 128.379 30.7349 130.07 29.2868C131.762 27.8387 133.053 25.9804 133.82 23.89V23.89ZM28 84.88C25.0803 84.8772 22.2001 84.2052 19.5807 82.9154C16.9613 81.6256 14.6724 79.7525 12.89 77.44H43.06C41.2843 79.7475 39.0038 81.6178 36.3933 82.9075C33.7828 84.1971 30.9117 84.8719 28 84.88V84.88ZM43.7 74.44H12.25L26.45 38.74V69.42H29.45V38.75L43.7 74.44ZM71.59 18.25C71.59 17.5756 71.79 16.9163 72.1647 16.3555C72.5394 15.7947 73.072 15.3577 73.6951 15.0996C74.3182 14.8415 75.0038 14.7739 75.6653 14.9055C76.3267 15.0371 76.9343 15.3619 77.4112 15.8388C77.8881 16.3157 78.2129 16.9233 78.3445 17.5847C78.4761 18.2462 78.4085 18.9318 78.1504 19.5549C77.8923 20.178 77.4553 20.7106 76.8945 21.0853C76.3337 21.46 75.6744 21.66 75 21.66C74.0956 21.66 73.2283 21.3007 72.5888 20.6612C71.9493 20.0217 71.59 19.1544 71.59 18.25V18.25ZM65.37 58.82L71.73 39.56C72.3019 39.7716 72.8956 39.9192 73.5 40V40V115.31C72.4171 115.387 71.3411 115.541 70.28 115.77V115.77L65.37 58.82ZM94 128.73C95.8367 128.744 97.6126 129.39 99.0293 130.559C100.446 131.728 101.417 133.349 101.78 135.15H48.26C48.6091 133.35 49.5711 131.727 50.9823 130.556C52.3934 129.386 54.1666 128.74 56 128.73H94ZM90.15 125.73H59.88C61.6622 123.415 63.9523 121.539 66.5738 120.249C69.1953 118.959 72.0781 118.288 75 118.288C77.9219 118.288 80.8047 118.959 83.4262 120.249C86.0477 121.539 88.3379 123.415 90.12 125.73H90.15ZM79.75 115.8C78.6889 115.571 77.6129 115.417 76.53 115.34V40C77.0995 39.9122 77.6589 39.7681 78.2 39.57L84.66 58.8L79.75 115.8ZM75 37.16C73.7639 37.16 72.5555 36.7934 71.5277 36.1067C70.4999 35.4199 69.6988 34.4438 69.2258 33.3018C68.7527 32.1597 68.6289 30.9031 68.8701 29.6907C69.1113 28.4783 69.7065 27.3647 70.5806 26.4906C71.4547 25.6165 72.5683 25.0212 73.7807 24.7801C74.9931 24.5389 76.2497 24.6627 77.3918 25.1357C78.5338 25.6088 79.5099 26.4099 80.1967 27.4377C80.8835 28.4655 81.25 29.6739 81.25 30.91C81.2474 32.5668 80.588 34.155 79.4165 35.3265C78.245 36.498 76.6568 37.1573 75 37.16V37.16ZM120.55 38.74V69.42H123.55V38.74L137.75 74.44H106.35L120.55 38.74ZM122.05 84.88C119.13 84.8772 116.25 84.2052 113.631 82.9154C111.011 81.6256 108.722 79.7525 106.94 77.44H137.16C135.379 79.7542 133.091 81.6285 130.471 82.9185C127.851 84.2084 124.97 84.8795 122.05 84.88V84.88Z" fill="#1B3139"/>
</svg>
