<svg width="150" height="150" viewBox="0 0 150 150" fill="none" xmlns="http://www.w3.org/2000/svg">
<path d="M24.6 33.8C26.5 33.8 28.3 33.2 29.9 32.1L49.9 52.1C44.2 58.3 41 66.4 41 75C41 76.2 41.1 77.5 41.2 78.7C41.6 82.2 43.9 85.1 47.3 86.3C48.3 86.7 49.4 86.8 50.4 86.8C52.8 86.8 55.1 85.9 56.9 84.1C59 82 60 79.3 59.7 76.5C59.2 71.9 60.8 67.4 64 64.1L61.9 62C58 65.9 56.1 71.3 56.7 76.8C56.9 78.6 56.2 80.5 54.8 82C53.1 83.7 50.6 84.3 48.3 83.5C46 82.7 44.5 80.8 44.2 78.4C44.1 77.3 44 76.1 44 75C44 66.8 47.2 59 53 53.2L54.1 52.1L42.8 40.7C51.6 32.5 62.9 28 75 28C85 28 94.5 31.1 102.5 36.9L104.3 34.5C95.8 28.3 85.6 25.1 75.1 25.1C62.2 25.1 50.1 29.9 40.8 38.7L32.1 30C33.2 28.5 33.8 26.6 33.8 24.7C33.8 22.2 32.8 19.9 31.1 18.2C29.4 16.5 27.1 15.5 24.6 15.5C22.1 15.5 19.8 16.5 18.1 18.2C14.5 21.8 14.5 27.6 18.1 31.2C19.9 32.9 22.3 33.8 24.6 33.8ZM20.3 20.3C21.5 19.1 23 18.5 24.7 18.5C26.4 18.5 27.9 19.1 29.1 20.3C30.3 21.5 30.9 23 30.9 24.7C30.9 26.4 30.2 27.8 29 29C26.6 31.4 22.7 31.4 20.3 29C17.9 26.6 17.9 22.7 20.3 20.3Z" fill="#FF5F46"/>
<path d="M120 117.9L100 97.8999C105.8 91.5999 108.9 83.4999 108.9 74.9999C108.9 73.1999 108.8 71.3999 108.5 69.5999C108 66.3999 105.7 63.7999 102.6 62.6999C99.5 61.6999 96.1 62.4999 93.8 64.7999L92.7 65.9999C90.8 67.8999 89.9 70.4999 90.2 73.2999C90.7 77.9999 89.1 82.4999 85.8 85.7999L88 87.9999C92 83.9999 93.9 78.5999 93.3 72.9999C93.1 71.0999 93.7 69.3999 94.9 68.0999L96 66.9999C97.5 65.4999 99.7 64.8999 101.8 65.5999C103.9 66.2999 105.3 67.8999 105.6 70.0999C105.9 71.6999 106 73.2999 106 74.9999C106 83.2999 102.8 90.9999 96.9 96.8999L95.8 97.9999L107.2 109.4C98.4 117.5 87.1 122 75 122C65 122 55.5 118.9 47.4 113.1L45.6 115.5C54.2 121.7 64.3 125 74.9 125C87.8 125 99.9 120.2 109.2 111.4L117.8 120C116.7 121.5 116.1 123.4 116.1 125.3C116.1 127.8 117.1 130.1 118.8 131.8C120.6 133.6 122.9 134.5 125.3 134.5C127.7 134.5 130 133.6 131.8 131.8C135.4 128.2 135.4 122.4 131.8 118.8C128.6 115.6 123.6 115.3 120 117.9ZM129.7 129.7C127.3 132.1 123.4 132.1 121 129.7C119.8 128.5 119.2 127 119.2 125.3C119.2 123.6 119.8 122.1 121 120.9C122.2 119.7 123.8 119.1 125.4 119.1C127 119.1 128.6 119.7 129.8 120.9C132.1 123.4 132.1 127.3 129.7 129.7Z" fill="#FF5F46"/>
<path d="M97.9 50C91.7 44.2 83.6 41 75 41C73.7 41 72.4 41.1 71.1 41.2C67.6 41.6 64.7 43.9 63.5 47.3C62.3 50.7 63.2 54.3 65.7 56.8L66.1 57.2C68 59.1 70.6 60 73.4 59.7C78.1 59.2 82.6 60.8 85.9 64.1L88 62C84 58 78.6 56.1 73 56.7C71.1 56.9 69.4 56.3 68.1 55.1L67.7 54.7C66 53 65.4 50.6 66.2 48.3C67 46 68.9 44.5 71.3 44.2C72.5 44.1 73.7 44 74.9 44C83.2 44 90.9 47.2 96.8 53.1L97.9 54.2L109.3 42.8C117.5 51.6 122 62.9 122 75C122 85 118.9 94.5 113.1 102.6L115.5 104.4C121.7 95.8 125 85.7 125 75.1C125 62.2 120.2 50.1 111.4 40.8L120 32.2C121.5 33.3 123.4 33.9 125.3 33.9C127.8 33.9 130.1 32.9 131.8 31.2C133.5 29.5 134.5 27.2 134.5 24.7C134.5 22.2 133.5 19.9 131.8 18.2C128.2 14.6 122.4 14.6 118.8 18.2C115.6 21.4 115.3 26.4 117.8 30L97.9 50ZM121 20.3C123.4 17.9 127.3 17.9 129.7 20.3C130.9 21.5 131.5 23 131.5 24.7C131.5 26.4 130.9 27.9 129.7 29.1C128.5 30.3 127 30.9 125.3 30.9C123.6 30.9 122.1 30.3 120.9 29.1C118.6 26.6 118.6 22.7 121 20.3Z" fill="#FF5F46"/>
<path d="M52.1 100.1C58.4 105.9 66.5 109 75 109C76.3 109 77.5 108.9 78.8 108.8C82.3 108.4 85.2 106.1 86.4 102.7C87.6 99.2999 86.8 95.6999 84.2 93.0999L83.8 92.6999C81.9 90.7999 79.3 89.9999 76.5 90.1999C71.9 90.6999 67.3 89.1 64.1 85.8L62 88C65.9 91.9 71.4 93.9 76.9 93.3C78.8 93.1 80.5 93.7 81.7 94.9L82.1 95.3C83.8 97 84.4 99.4 83.6 101.8C82.8 104.1 80.9 105.6 78.5 105.9C77.4 106 76.2 106.1 75.1 106.1C66.8 106.1 59 102.9 53.2 97L52 95.8L40.6 107.2C32.5 98.3999 27.9 87.1 27.9 75C27.9 65.1 31 55.5 36.8 47.5L34.4 45.7C28.2 54.3 25 64.4 25 74.9C25 87.7999 29.8 99.8999 38.6 109.2L30 117.8C26.4 115.2 21.4 115.5 18.2 118.8C14.6 122.4 14.6 128.2 18.2 131.8C20 133.6 22.3 134.5 24.7 134.5C27.1 134.5 29.4 133.6 31.2 131.8C34.4 128.6 34.7 123.6 32.2 120L52.1 100.1ZM29 129.7C26.6 132.1 22.7 132.1 20.3 129.7C17.9 127.3 17.9 123.4 20.3 121C21.5 119.8 23.1 119.2 24.7 119.2C26.3 119.2 27.9 119.8 29.1 121C31.4 123.4 31.4 127.3 29 129.7Z" fill="#FF5F46"/>
</svg>
