<svg width="852" height="300" viewBox="0 0 852 300" fill="none" xmlns="http://www.w3.org/2000/svg">
<path fill-rule="evenodd" clip-rule="evenodd" d="M89.0625 262.5L262.5 262.5V159.375L89.0625 159.375C60.5853 159.375 37.5 182.46 37.5 210.937C37.5 239.415 60.5853 262.5 89.0625 262.5ZM89.0625 234.375C102.007 234.375 112.5 223.882 112.5 210.937C112.5 197.993 102.007 187.5 89.0625 187.5C76.1183 187.5 65.625 197.993 65.625 210.937C65.625 223.882 76.1183 234.375 89.0625 234.375Z" fill="#FF5F46"/>
<path fill-rule="evenodd" clip-rule="evenodd" d="M210.938 140.625C239.415 140.625 262.5 117.54 262.5 89.0625C262.5 60.5853 239.415 37.5 210.938 37.5L37.5 37.5V140.625L210.938 140.625ZM210.938 112.5C223.882 112.5 234.375 102.007 234.375 89.0625C234.375 76.1183 223.882 65.625 210.938 65.625C197.993 65.625 187.5 76.1183 187.5 89.0625C187.5 102.007 197.993 112.5 210.938 112.5Z" fill="#FABFBA"/>
<path d="M340.501 138V60.72H360.373C369.352 60.72 376.749 62.3024 382.563 65.4672C388.451 68.5584 392.794 73.0112 395.59 78.8256C398.461 84.5664 399.896 91.4848 399.896 99.5808C399.896 107.53 398.461 114.374 395.59 120.115C392.794 125.856 388.451 130.272 382.563 133.363C376.749 136.454 369.352 138 360.373 138H340.501ZM349.774 130.272H360.152C367.586 130.272 373.51 129.058 377.926 126.629C382.342 124.126 385.507 120.594 387.421 116.03C389.334 111.394 390.291 105.91 390.291 99.5808C390.291 93.104 389.334 87.5472 387.421 82.9104C385.507 78.2736 382.342 74.704 377.926 72.2016C373.51 69.6992 367.586 68.448 360.152 68.448H349.774V130.272ZM427.945 139.325C423.529 139.325 419.849 138.515 416.905 136.896C413.961 135.203 411.753 132.995 410.281 130.272C408.809 127.475 408.073 124.494 408.073 121.33C408.073 117.502 409.029 114.264 410.943 111.614C412.93 108.891 415.69 106.83 419.223 105.432C422.756 104.034 426.877 103.334 431.588 103.334H446.05C446.05 99.5808 445.609 96.4528 444.725 93.9504C443.842 91.448 442.407 89.5712 440.42 88.32C438.433 87.0688 435.783 86.4432 432.471 86.4432C429.159 86.4432 426.325 87.2896 423.97 88.9824C421.615 90.6016 420.143 93.0304 419.554 96.2688H410.06C410.501 92.4416 411.789 89.24 413.924 86.664C416.058 84.0144 418.745 82.0272 421.983 80.7024C425.295 79.304 428.791 78.6048 432.471 78.6048C437.697 78.6048 442.002 79.5616 445.388 81.4752C448.773 83.3152 451.276 85.928 452.895 89.3136C454.514 92.6256 455.324 96.5632 455.324 101.126V138H447.044L446.492 128.064C445.756 129.61 444.799 131.082 443.621 132.48C442.517 133.805 441.193 134.982 439.647 136.013C438.101 137.043 436.335 137.853 434.348 138.442C432.434 139.03 430.3 139.325 427.945 139.325ZM429.269 131.486C431.698 131.486 433.943 130.934 436.004 129.83C438.065 128.726 439.831 127.254 441.303 125.414C442.849 123.501 444.026 121.366 444.836 119.011C445.645 116.656 446.05 114.19 446.05 111.614V110.51H432.361C428.901 110.51 426.068 110.952 423.86 111.835C421.725 112.718 420.18 113.97 419.223 115.589C418.266 117.134 417.788 118.901 417.788 120.888C417.788 123.022 418.229 124.899 419.113 126.518C419.996 128.064 421.284 129.278 422.977 130.162C424.743 131.045 426.841 131.486 429.269 131.486ZM488.345 138C485.033 138 482.163 137.485 479.734 136.454C477.305 135.424 475.429 133.694 474.104 131.266C472.853 128.763 472.227 125.414 472.227 121.219V87.768H462.07V79.9296H472.227L473.441 65.4672H481.501V79.9296H497.95V87.768H481.501V121.219C481.501 124.678 482.2 127.034 483.598 128.285C484.997 129.462 487.462 130.051 490.995 130.051H497.729V138H488.345ZM525.467 139.325C521.051 139.325 517.371 138.515 514.427 136.896C511.483 135.203 509.275 132.995 507.803 130.272C506.331 127.475 505.595 124.494 505.595 121.33C505.595 117.502 506.552 114.264 508.466 111.614C510.453 108.891 513.213 106.83 516.746 105.432C520.279 104.034 524.4 103.334 529.111 103.334H543.573C543.573 99.5808 543.131 96.4528 542.248 93.9504C541.365 91.448 539.93 89.5712 537.943 88.32C535.955 87.0688 533.306 86.4432 529.994 86.4432C526.682 86.4432 523.848 87.2896 521.493 88.9824C519.138 90.6016 517.666 93.0304 517.077 96.2688H507.583C508.024 92.4416 509.312 89.24 511.447 86.664C513.581 84.0144 516.267 82.0272 519.506 80.7024C522.818 79.304 526.314 78.6048 529.994 78.6048C535.219 78.6048 539.525 79.5616 542.911 81.4752C546.296 83.3152 548.799 85.928 550.418 89.3136C552.037 92.6256 552.847 96.5632 552.847 101.126V138H544.567L544.015 128.064C543.279 129.61 542.322 131.082 541.144 132.48C540.04 133.805 538.715 134.982 537.17 136.013C535.624 137.043 533.858 137.853 531.871 138.442C529.957 139.03 527.823 139.325 525.467 139.325ZM526.792 131.486C529.221 131.486 531.466 130.934 533.527 129.83C535.587 128.726 537.354 127.254 538.826 125.414C540.371 123.501 541.549 121.366 542.359 119.011C543.168 116.656 543.573 114.19 543.573 111.614V110.51H529.883C526.424 110.51 523.591 110.952 521.383 111.835C519.248 112.718 517.703 113.97 516.746 115.589C515.789 117.134 515.311 118.901 515.311 120.888C515.311 123.022 515.752 124.899 516.635 126.518C517.519 128.064 518.807 129.278 520.499 130.162C522.266 131.045 524.363 131.486 526.792 131.486ZM593.781 139.325C590.248 139.325 587.194 138.81 584.618 137.779C582.115 136.675 579.981 135.314 578.214 133.694C576.522 132.075 575.123 130.493 574.019 128.947L573.246 138H564.856V58.512H574.13V89.0928C575.896 85.6336 578.509 83.0208 581.968 81.2544C585.427 79.488 589.291 78.6048 593.56 78.6048C598.859 78.6048 603.496 79.8928 607.47 82.4688C611.445 85.0448 614.536 88.6144 616.744 93.1776C618.952 97.6672 620.056 102.856 620.056 108.744C620.056 114.558 618.952 119.784 616.744 124.421C614.536 129.058 611.445 132.701 607.47 135.35C603.57 138 599.006 139.325 593.781 139.325ZM592.566 131.266C596.026 131.266 599.08 130.382 601.73 128.616C604.453 126.776 606.587 124.2 608.133 120.888C609.752 117.502 610.562 113.528 610.562 108.965C610.562 104.402 609.752 100.464 608.133 97.152C606.587 93.7664 604.453 91.1904 601.73 89.424C599.08 87.584 596.026 86.664 592.566 86.664C588.886 86.664 585.685 87.584 582.962 89.424C580.238 91.1904 578.141 93.7664 576.669 97.152C575.197 100.464 574.461 104.402 574.461 108.965C574.461 113.528 575.197 117.502 576.669 120.888C578.141 124.2 580.238 126.776 582.962 128.616C585.685 130.382 588.886 131.266 592.566 131.266ZM630.221 138V79.9296H638.611L639.273 90.528C640.598 87.8784 642.328 85.6704 644.462 83.904C646.597 82.1376 649.173 80.8128 652.19 79.9296C655.281 79.0464 658.741 78.6048 662.568 78.6048V88.32H656.827C654.619 88.32 652.485 88.6144 650.424 89.2032C648.363 89.792 646.486 90.7488 644.793 92.0736C643.174 93.3984 641.886 95.2016 640.929 97.4832C639.973 99.7648 639.494 102.635 639.494 106.094V138H630.221ZM670.809 138V79.9296H680.083V138H670.809ZM675.446 68.8896C673.606 68.8896 672.06 68.3008 670.809 67.1232C669.631 65.872 669.043 64.3264 669.043 62.4864C669.043 60.6464 669.631 59.1744 670.809 58.0704C672.06 56.8928 673.606 56.304 675.446 56.304C677.212 56.304 678.721 56.8928 679.972 58.0704C681.223 59.1744 681.849 60.6464 681.849 62.4864C681.849 64.3264 681.223 65.872 679.972 67.1232C678.721 68.3008 677.212 68.8896 675.446 68.8896ZM718.304 139.325C713.005 139.325 708.295 138.074 704.173 135.571C700.051 132.995 696.813 129.426 694.458 124.862C692.103 120.299 690.925 115 690.925 108.965C690.925 102.856 692.103 97.5568 694.458 93.0672C696.813 88.504 700.051 84.9712 704.173 82.4688C708.295 79.8928 713.005 78.6048 718.304 78.6048C724.928 78.6048 730.448 80.3712 734.864 83.904C739.354 87.4368 742.224 92.184 743.475 98.1456H733.981C733.171 94.4656 731.295 91.632 728.351 89.6448C725.48 87.584 722.095 86.5536 718.194 86.5536C714.808 86.5536 711.754 87.4 709.031 89.0928C706.381 90.7856 704.283 93.288 702.738 96.6C701.192 99.912 700.419 104.034 700.419 108.965C700.419 112.645 700.861 115.92 701.744 118.79C702.627 121.587 703.842 123.942 705.387 125.856C707.007 127.696 708.883 129.094 711.018 130.051C713.226 131.008 715.618 131.486 718.194 131.486C720.843 131.486 723.235 131.045 725.37 130.162C727.578 129.205 729.418 127.843 730.89 126.077C732.435 124.31 733.466 122.213 733.981 119.784H743.475C742.298 125.598 739.427 130.309 734.864 133.915C730.375 137.522 724.855 139.325 718.304 139.325ZM787.762 138L761.377 106.646L786.217 79.9296H797.588L769.215 109.958L769.325 103.334L799.575 138H787.762ZM753.649 138V58.512H762.922V138H753.649ZM823.817 139.325C818.592 139.325 814.249 138.552 810.79 137.006C807.405 135.387 804.829 133.179 803.062 130.382C801.296 127.512 800.229 124.2 799.861 120.446H809.355C809.649 122.434 810.312 124.274 811.342 125.966C812.446 127.586 814.029 128.91 816.089 129.941C818.15 130.971 820.763 131.486 823.928 131.486C826.43 131.486 828.565 131.118 830.331 130.382C832.097 129.573 833.422 128.469 834.305 127.07C835.262 125.672 835.741 124.053 835.741 122.213C835.741 119.784 835.189 117.907 834.085 116.582C833.054 115.184 831.509 114.154 829.448 113.491C827.461 112.755 824.958 112.203 821.941 111.835C818.702 111.394 815.832 110.768 813.329 109.958C810.827 109.149 808.693 108.082 806.926 106.757C805.233 105.432 803.945 103.776 803.062 101.789C802.179 99.8016 801.737 97.4464 801.737 94.7232C801.737 91.5584 802.584 88.7616 804.277 86.3328C805.969 83.904 808.361 82.0272 811.453 80.7024C814.617 79.304 818.334 78.6048 822.603 78.6048C828.859 78.6048 833.79 80.04 837.397 82.9104C841.077 85.7808 843.248 89.8656 843.91 95.1648H834.747C834.379 92.4416 833.128 90.3072 830.993 88.7616C828.859 87.216 826.025 86.4432 822.493 86.4432C818.739 86.4432 815.905 87.1424 813.992 88.5408C812.078 89.9392 811.121 91.7792 811.121 94.0608C811.121 95.7536 811.526 97.2992 812.336 98.6976C813.219 100.022 814.691 101.163 816.752 102.12C818.813 103.003 821.573 103.666 825.032 104.107C829.374 104.622 833.054 105.469 836.072 106.646C839.089 107.75 841.371 109.48 842.917 111.835C844.536 114.19 845.309 117.392 845.235 121.44C845.235 125.267 844.315 128.506 842.475 131.155C840.709 133.805 838.206 135.829 834.968 137.227C831.803 138.626 828.086 139.325 823.817 139.325ZM365.782 238.325C360.189 238.325 355.221 237.331 350.878 235.344C346.536 233.357 343.15 230.523 340.722 226.843C338.293 223.163 337.042 218.784 336.968 213.706H350.989C350.989 216.282 351.578 218.6 352.755 220.661C354.006 222.648 355.699 224.23 357.834 225.408C360.042 226.586 362.691 227.174 365.782 227.174C368.432 227.174 370.714 226.77 372.627 225.96C374.614 225.077 376.123 223.862 377.154 222.317C378.258 220.698 378.81 218.821 378.81 216.686C378.81 214.258 378.221 212.27 377.043 210.725C375.939 209.106 374.394 207.744 372.406 206.64C370.419 205.536 368.138 204.579 365.562 203.77C362.986 202.886 360.262 201.966 357.392 201.01C351.283 198.949 346.683 196.336 343.592 193.171C340.501 189.933 338.955 185.627 338.955 180.254C338.955 175.765 340.022 171.901 342.157 168.662C344.291 165.424 347.272 162.922 351.099 161.155C355 159.315 359.49 158.395 364.568 158.395C369.72 158.395 374.21 159.315 378.037 161.155C381.938 162.995 384.992 165.571 387.2 168.883C389.482 172.122 390.659 176.022 390.733 180.586H376.602C376.528 178.672 376.013 176.906 375.056 175.286C374.099 173.594 372.701 172.232 370.861 171.202C369.094 170.098 366.923 169.546 364.347 169.546C362.139 169.472 360.152 169.84 358.386 170.65C356.693 171.386 355.331 172.49 354.301 173.962C353.344 175.36 352.866 177.126 352.866 179.261C352.866 181.322 353.307 183.051 354.19 184.45C355.147 185.774 356.509 186.915 358.275 187.872C360.042 188.755 362.102 189.602 364.458 190.411C366.813 191.221 369.389 192.104 372.186 193.061C376.013 194.312 379.472 195.858 382.563 197.698C385.728 199.464 388.23 201.782 390.07 204.653C391.91 207.523 392.83 211.24 392.83 215.803C392.83 219.778 391.8 223.494 389.739 226.954C387.678 230.339 384.661 233.099 380.686 235.234C376.712 237.294 371.744 238.325 365.782 238.325ZM456.606 248.592L429.117 205.536H444.352L472.283 248.592H456.606ZM437.617 238.325C430.184 238.325 423.597 236.669 417.856 233.357C412.189 229.971 407.736 225.298 404.497 219.336C401.259 213.301 399.64 206.309 399.64 198.36C399.64 190.485 401.259 183.566 404.497 177.605C407.736 171.57 412.189 166.859 417.856 163.474C423.597 160.088 430.184 158.395 437.617 158.395C445.198 158.395 451.859 160.088 457.6 163.474C463.341 166.859 467.793 171.57 470.958 177.605C474.123 183.566 475.705 190.485 475.705 198.36C475.705 206.309 474.123 213.301 470.958 219.336C467.793 225.298 463.341 229.971 457.6 233.357C451.859 236.669 445.198 238.325 437.617 238.325ZM437.728 226.402C442.659 226.402 446.965 225.298 450.645 223.09C454.325 220.808 457.158 217.57 459.145 213.374C461.133 209.179 462.126 204.174 462.126 198.36C462.126 192.546 461.133 187.541 459.145 183.346C457.158 179.15 454.325 175.949 450.645 173.741C446.965 171.459 442.659 170.318 437.728 170.318C432.797 170.318 428.491 171.459 424.811 173.741C421.131 175.949 418.261 179.15 416.2 183.346C414.213 187.541 413.219 192.546 413.219 198.36C413.219 204.174 414.213 209.179 416.2 213.374C418.261 217.57 421.131 220.808 424.811 223.09C428.491 225.298 432.797 226.402 437.728 226.402ZM485.338 237V159.72H498.586V226.622H533.031V237H485.338Z" fill="white"/>
</svg>
