<svg width="150" height="150" viewBox="0 0 150 150" fill="none" xmlns="http://www.w3.org/2000/svg">
<path d="M34.9 95.1C34.9 90.5 31.5 86.7 27.2 86V51.6C27.2 38 38.2 27 51.8 27H54.9C48.6 30.7 44.4 37.6 44.4 45.4V66C40 66.7 36.7 70.5 36.7 75.1C36.7 80.2 40.8 84.3 45.9 84.3C51 84.3 55 80.1 55 75C55 70.4 51.7 66.7 47.3 65.9V45.4C47.3 35.3 55.5 27 65.7 27H70.4C66.8 29.7 64.5 34 64.5 38.9V45.9C60.1 46.6 56.7 50.4 56.7 55C56.7 60.1 60.8 64.2 65.9 64.2C71 64.2 75.1 60.1 75.1 55C75.1 50.5 71.8 46.7 67.5 46V39C67.5 32.5 72.8 27.1 79.4 27.1H97.2L91 33.2L93.1 35.3L102.9 25.5L93.1 15.7L91 17.9L97.1 24H79.4H65.7H51.7C36.5 24 24.1 36.4 24.1 51.6V86.1C19.8 86.8 16.5 90.6 16.5 95.1C16.5 100.2 20.6 104.3 25.7 104.3C30.8 104.3 34.9 100.2 34.9 95.1ZM52 75C52 78.4 49.2 81.2 45.8 81.2C42.4 81.2 39.6 78.4 39.6 75C39.6 71.6 42.4 68.8 45.8 68.8C49.3 68.8 52 71.6 52 75ZM72.1 54.9C72.1 58.3 69.3 61.1 65.9 61.1C62.5 61.1 59.7 58.3 59.7 54.9C59.7 51.5 62.5 48.7 65.9 48.7C69.4 48.7 72.1 51.5 72.1 54.9ZM19.5 95.1C19.5 91.7 22.3 88.9 25.7 88.9C29.1 88.9 31.9 91.7 31.9 95.1C31.9 98.5 29.1 101.3 25.7 101.3C22.3 101.3 19.5 98.5 19.5 95.1Z" fill="#FF5F46"/>
<path d="M133.5 54.9C133.5 49.8 129.4 45.7 124.3 45.7C119.2 45.7 115.1 49.8 115.1 54.9C115.1 59.5 118.5 63.3 122.8 64V98.5C122.8 112.1 111.8 123.1 98.2 123.1H95.1C101.4 119.4 105.6 112.5 105.6 104.7V84.1C110 83.4 113.3 79.6 113.3 75C113.3 69.9 109.2 65.8 104.1 65.8C99 65.8 95 69.9 95 75C95 79.6 98.3 83.3 102.7 84.1V104.7C102.7 114.8 94.5 123.1 84.4 123.1H79.6C83.2 120.4 85.5 116.1 85.5 111.2V104.2C89.9 103.5 93.3 99.7 93.3 95.1C93.3 90 89.2 85.9 84.1 85.9C79 85.9 74.9 90 74.9 95.1C74.9 99.6 78.2 103.4 82.5 104.1V111.1C82.5 117.6 77.2 122.9 70.7 123H52.8L59 116.8L56.9 114.7L47.1 124.5L56.9 134.3L59 132.2L52.9 126.1H70.7H84.3H98.2C113.4 126.1 125.8 113.7 125.8 98.5V63.9C130.1 63.2 133.5 59.4 133.5 54.9ZM98 75C98 71.6 100.8 68.8 104.2 68.8C107.6 68.8 110.4 71.6 110.4 75C110.4 78.4 107.6 81.2 104.2 81.2C100.7 81.2 98 78.4 98 75ZM77.9 95.1C77.9 91.7 80.7 88.9 84.1 88.9C87.5 88.9 90.3 91.7 90.3 95.1C90.3 98.5 87.5 101.3 84.1 101.3C80.6 101.3 77.9 98.5 77.9 95.1ZM124.3 61C120.9 61 118.1 58.2 118.1 54.8C118.1 51.4 120.9 48.6 124.3 48.6C127.7 48.6 130.5 51.4 130.5 54.8C130.5 58.2 127.7 61 124.3 61Z" fill="#FF5F46"/>
<path d="M123.23 24.1426L23.8118 123.561L25.9331 125.682L125.351 26.2639L123.23 24.1426Z" fill="#FF5F46"/>
</svg>
