<svg width="150" height="150" viewBox="0 0 150 150" fill="none" xmlns="http://www.w3.org/2000/svg">
<path d="M127.3 115.7C130.3 113 132.1 109 132.1 104.6C132.1 96.1 127.2 90.5 119.6 90.1V47.1H89.5L75.9 33.5V13.6H91.2V21.1H80.2V24.1H94.2V10.6H72.9V33.3L59.1 47.1H29V110.2H89.8C90.6 111.3 91.5 112.4 92.5 113.3C89.4 114.5 86.7 116.3 84.5 118.6H24.1V121.6H82.3C80.8 123.9 79.7 126.6 79 129.6H16.3V132.6H137.6L139.1 130.8C137.6 123.5 133.4 118.2 127.3 115.7ZM107.1 84.8V63.8H116.6V90.2C115.9 90.3 115.2 90.4 114.5 90.6C112.8 87.8 110.3 85.8 107.1 84.8ZM54 63.8V107.2H44.5V63.8H54ZM57 63.8H66.5V107.2H57V63.8ZM69.5 63.8H79V107.2H69.5V63.8ZM49.6 60.8L74.3 36.1L99 60.8H49.6ZM104.1 63.8V84.1C103.4 84 102.7 84 102 84C99.2 84 96.7 84.6 94.6 85.6V63.8H104.1ZM116.6 50.1V60.8H103.3L92.5 50.1H116.6ZM56.1 50.1L45.3 60.8H32V50.1H56.1ZM32 63.8H41.5V107.2H32V63.8ZM82 107.3V63.8H91.5V87.7C88.5 90.5 86.9 94.9 86.9 100.5C86.9 102.9 87.4 105.2 88.2 107.3H82ZM100 129.7H82.1C83.6 123.9 87.3 117.4 96.3 115.4L96.7 112.6C92.5 110.3 89.9 105.7 89.9 100.5C89.9 96.4 91.1 87 101.9 87C109.4 87 113.9 92 113.9 100.5C113.9 105.7 111.3 110.4 107.1 112.6L107.5 115.4C114.6 117 119.6 122.1 121.7 129.7H100ZM132.3 129.7H124.9C123 121.7 118.2 116 111.4 113.4C115 110.3 117.1 105.6 117.1 100.5C117.1 97.9 116.7 95.5 115.9 93.5C116.8 93.3 117.8 93.2 118.9 93.2C125.3 93.2 129.1 97.5 129.1 104.7C129.1 109.1 126.9 113.1 123.3 115L123.7 117.8C129.7 119.2 134 123.4 135.8 129.8H132.3V129.7Z" fill="#1B3139"/>
</svg>
