<?xml version="1.0" encoding="UTF-8"?>
<svg xmlns="http://www.w3.org/2000/svg" version="1.1" viewBox="0 0 3005.9995117 1142.9995117">
  <!-- Generator: Adobe Illustrator 28.6.0, SVG Export Plug-In . SVG Version: 1.2.0 Build 709)  -->
  <g>
    <g id="logo">
      <g>
        <g>
          <g>
            <path d="M1808.0343134,220.3537054c0,3.2440701-1.948948,5.8411487-5.1930181,7.1362707-3.2440701,1.2979698-6.484723,0-8.43481-2.5936614-29.8459004-35.6864795-76.5591426-55.7996001-129.7628032-55.7996001-111.5923657,0-197.8848577,93.4287627-197.8848577,213.4593556,0,120.0300234,86.9394835,212.8112251,197.8848577,212.8112251,51.2581298,0,98.6229198-21.4110903,129.7628032-59.0408225,1.9500871-2.596509,5.8411487-3.2440701,8.43481-2.596509,3.2440701,1.2979698,5.1930181,3.8916311,5.1930181,7.1362707v44.12072h88.8861533V179.4804727h-88.8861533v40.8732327ZM1684.7596504,514.2644043c-71.3695418,0-127.1691418-57.7422832-127.1691418-131.708334,0-73.9637727,55.7996001-131.7089035,127.1691418-131.7089035,71.3672636,0,127.1657246,57.7451309,127.1657246,131.7089035,0,73.9660508-55.798461,131.708334-127.1657246,131.708334Z" fill="#fff"/>
            <rect x="1965.0461897" y="179.4713601" width="90.8510483" height="406.1568906" fill="#fff"/>
            <path d="M2010.4870913,2.9998709c-30.5179514,0-55.1708337,24.65573-55.1708337,55.1486218,0,30.4934614,24.6528823,55.1491914,55.1708337,55.1491914,30.4860575,0,55.1389397-24.65573,55.1389397-55.1491914,0-30.4928919-24.6528823-55.1486218-55.1389397-55.1486218Z" fill="#fff"/>
          </g>
          <g>
            <path d="M1310.4118888,348.1614563l-48.6621903-16.2180723c-33.1138909-11.0307495-48.6633293-26.6012608-48.6633293-48.0123511,0-24.65573,22.0558037-41.5242109,53.1842964-41.5242109,29.8459004,0,56.4522869,19.4621423,73.3150726,53.2025215l72.0324802-38.9305496c-26.6063866-54.4982131-81.7464654-88.2385923-145.3475528-88.2385923-80.4342572,0-138.8411875,51.9073994-138.8411875,122.627102,0,56.4465916,33.7551871,94.0763237,103.1609729,116.1378228l49.9766765,16.2186418c35.0081636,11.0307495,49.9470607,25.3061387,49.9470607,48.0123511,0,34.3879402-31.8016828,46.7143813-59.0505046,46.7143813-36.3215108,0-68.7644897-23.3571907-84.3435439-61.6373315l-73.3162116,38.9305496c24.0115861,61.6373315,83.0609516,99.9174724,155.0638161,99.9174724,73.3150726,0,147.9446314-44.768281,147.9446314-129.7628032,0-55.7996001-35.0389184-94.0791714-106.4004867-117.4369316Z" fill="#fff"/>
            <path d="M860.491968,169.7446857c-124.5439338,0-216.9933232,88.356136-216.9933232,212.8124138s92.4493894,212.803931,216.9933232,212.803931c124.5394096,0,216.9910611-88.3476532,216.9910611-212.803931s-92.4516515-212.8124138-216.9910611-212.8124138ZM860.4942301,514.1955156c-70.4324595,0-123.4603923-50.8291805-123.4603923-131.6384161,0-80.8182839,52.2000076-131.6384161,123.4603923-131.6384161,70.4279353,0,123.4558681,50.8201322,123.4558681,131.6384161,0,80.8092356-53.0279328,131.6384161-123.4558681,131.6384161Z" fill="#fff"/>
            <path d="M448.9227789,169.0967147c-64.4713366,0-103.9947718,36.6467151-119.7002628,63.3766907-2.7303497,4.6485428-9.5909656,4.4719871-12.0969186-.302423-14.1768596-27.0170211-49.231725-63.0742678-109.9270461-63.0742678-53.9987311,0-85.3937661,30.2964024-102.5549879,55.1845025-3.88081,5.6275731-12.7507445,2.7280716-12.7507445-4.1074848l.0011391-42.1404476H2.9998313v407.5949659h88.8861533v-226.0386702c0-23.3287139,3.701976-43.0682197,11.1127625-59.2094048,7.4062302-16.1332116,17.6510218-28.423772,30.741209-36.8728204,13.0765184-8.4319623,27.7750719-12.6607581,44.0728791-12.6607581,25.6700714,0,44.9294594,8.4490484,57.7758857,25.3215161,12.8373138,16.8895538,19.260527,41.2274833,19.260527,72.9972722v236.4628652h88.1468972v-226.0386702c0-23.3287139,3.701976-43.0682197,11.1082063-59.2094048,7.4107865-16.1332116,17.6510218-28.423772,30.7446262-36.8728204,13.0776575-8.4319623,28.2591765-12.6607581,45.5525304-12.6607581,25.1871059,0,44.1913423,8.4490484,57.0377687,25.3215161,12.8373138,16.8895538,19.259388,41.2274833,19.259388,72.9972722v236.4628652h88.1457581v-251.1762266c0-123.4762784-69.4376798-165.3553095-145.9216439-165.3553095Z" fill="#fff"/>
            <path d="M2330.3419706,513.6168433c-75.270855,0-131.724281-56.4471611-131.724281-131.060773,0-74.6113337,56.453426-131.0584948,131.724281-131.0584948,35.6802146,0,68.7633506,11.6788801,101.8476257,35.6836318l57.0947222-53.8506521c-66.8087073-57.0947222-127.17142-64.2338406-167.3737407-64.2338406-124.5754805,0-214.7533387,89.5371316-214.7533387,213.4593556,0,60.3416399,21.3826136,114.192292,59.6906617,153.1199939,38.9185893,38.9305496,93.4162329,60.3387922,154.390626,60.3387922,50.6179727,0,89.5377011-9.7299321,163.5248247-64.2309929l-51.2604079-53.8500825c-36.3522656,24.0047517-70.0778369,35.6830623-103.1609729,35.6830623Z" fill="#fff"/>
          </g>
        </g>
        <g>
          <path d="M1892.64324,1128.9717579v-405.5066405h-88.8861877v40.8735926c0,3.2442014-1.9491195,5.8408326-5.193146,7.136031-3.2442596,1.2983448-6.4854894,0-8.4343758-2.5935432-29.8457901-35.6864479-76.5600988-55.7994009-129.7629267-55.7994009-111.5927422,0-197.8853867,93.4287339-197.8853867,213.4588817,0,120.0302644,86.9403312,212.8113116,197.8853867,212.8113116,51.2569713,0,98.6219964-21.4111812,129.7629267-59.0405142,1.9488864-2.5966896,5.8405996-3.2442596,8.4343758-2.5966896,3.2440266,1.2982865,5.193146,3.8919462,5.193146,7.1360893v44.120882h88.8861877ZM1680.4826448,1058.2494619c-71.3699826,0-127.1693835-57.7422277-127.1693835-131.7087833,0-73.963351,55.7994009-131.708725,127.1693835-131.708725,71.3667197,0,127.1661206,57.745374,127.1661206,131.708725,0,73.9665556-55.7994009,131.7087833-127.1661206,131.7087833Z" fill="#fff"/>
          <path d="M211.9191967,806.5044711c8.4618774,0,16.2212981.6507164,21.4144441,1.9490029v-92.1335355c-3.2381999-.6476283-9.0729729-1.2982865-14.9075128-1.2982865-46.708249,0-89.5369042,24.0078708-112.2649006,62.2878619-1.9244146,3.2442596-5.1626146,4.5425461-8.431346,3.2442596-3.2379669-.6507164-5.8345399-3.8949178-5.8345399-7.1360893v-49.9586266H2.9998313v406.1542105h89.5369042v-179.0707785c0-88.8892759,45.4252282-144.0380186,119.3824612-144.0380186Z" fill="#fff"/>
          <path d="M2169.6883283,806.5044711c8.4618774,0,16.2212981.6507164,21.4144441,1.9490029v-92.1335355c-3.2381999-.6476283-9.0729729-1.2982865-14.9075128-1.2982865-46.708249,0-89.5369042,24.0078708-112.2649006,62.2878619-1.9244146,3.2442596-5.1626146,4.5425461-8.431346,3.2442596-3.2379669-.6507164-5.8345399-3.8949178-5.8345399-7.1360893v-49.9586266h-88.8955103v406.1542105h89.5369042v-179.0707785c0-88.8892759,45.4252282-144.0380186,119.3824612-144.0380186Z" fill="#fff"/>
          <path d="M830.2843379,1139.3459306c73.3160722,0,147.9452306-44.7684521,147.9452306-129.7628102,0-55.7995175-35.03847-94.0794503-106.3995961-117.4367212l-48.662962-16.2180352c-33.1142884-11.0309488-48.6634282-26.601414-48.6634282-48.0126534,0-24.6554991,22.055838-41.5242507,53.1844158-41.5242507,29.8457901,0,56.4529141,19.4622948,73.3156061,53.2028279l72.0328184-38.9306493c-26.6075902-54.4980846-81.7469521-88.2386177-145.3484245-88.2386177-80.4333998,0-138.8417262,51.9075712-138.8417262,122.6267791,0,56.4470293,33.7556823,94.0763622,103.1613962,116.1382599l49.9769804,16.2181517c35.0081716,11.0309488,49.9462159,25.3061573,49.9462159,48.0125952,0,34.3882197-31.8007362,46.7144252-59.0497202,46.7144252-36.3217239,0-68.76432-23.3571543-84.3437582-61.6372037l-73.3156061,38.9306493c24.0107841,61.6372037,83.0605043,99.9172531,155.0625582,99.9172531Z" fill="#fff"/>
          <path d="M2419.4786061,713.0817969c-124.5758403,0-214.7543714,89.5369042-214.7543714,213.4588817,0,60.3419471,21.3839127,114.1924616,59.6913471,153.120081,38.9185299,38.9306493,93.416498,60.3389172,154.3908659,60.3389172,50.6183743,0,89.5369042-9.7296325,163.5246687-64.2307469l-51.2597681-53.8505145c-36.3524884,24.0048409-70.0778723,35.6834764-103.1618623,35.6834764-75.2705522,0-131.7239325-56.4470875-131.7239325-131.0612132,0-74.6109793,56.4533803-131.0580668,131.7239325-131.0580668,35.6807961,0,68.76432,11.6786354,101.847844,35.6834181l57.0947741-53.8504562c-66.8089078-57.0946576-127.1721803-64.2337767-167.3734979-64.2337767Z" fill="#fff"/>
          <path d="M2853.3260923,715.0216521c-58.7150625,0-96.7973244,30.2093236-112.8457608,52.2430977-4.0127729,5.5093548-12.6614785,2.7350303-12.6614785-4.0807849v-216.8497709h-101.3452961v582.6380696h101.3452961v-207.0226807c0-71.323979,34.2996623-112.8681236,92.7658242-112.8681236,56.9079147,0,81.0744143,31.3517503,81.0744143,104.2476453v215.6431591h101.3407398v-230.5376325c0-119.1375624-52.688021-183.412979-149.673739-183.412979Z" fill="#fff"/>
          <path d="M1227.2443683,712.4244927c-115.0312167,0-198.4885645,91.5703707-199.0421523,214.1160292h-.0261986c0,.1332711.017086.2608469.017086.3941181,0,.2767939-.017086.5478925-.017086.8252559l.0558144.0210728c.2938799,59.8330454,21.5944805,113.2229438,59.6359863,151.8795471,38.9185893,38.9311191,93.4162329,60.3393618,154.390626,60.3393618,50.6179727,0,89.5377011-9.7299321,163.5248247-64.2309929l-51.2604079-53.8506521c-36.3522656,24.0047517-70.0778369,35.6836318-103.1609729,35.6836318-57.598827,0-104.0798351-33.1019028-122.7614159-82.0638434-2.3259917-6.0961152,2.2650503-12.6634586,8.7898382-12.6634586h279.4385159l.0045563.0005695c2.1346163-13.3783719,3.2873547-27.7830454,3.2873547-42.8620481,0-123.1573389-72.815021-207.5885912-192.8763689-207.5885912ZM1134.9720093,889.548696c-5.752236-.000015-10.1318754-5.1807952-9.2592112-10.8664505,9.1112126-59.3621415,55.6355956-92.290563,107.6825458-92.290563,61.2474977,0,102.7969241,35.0747099,109.0843879,92.5549233.6143562,5.6164654-3.6315437,10.6026211-9.2815098,10.6026063l-198.2262127-.0005161Z" fill="#fff"/>
          <path d="M446.0234539,712.4244927c-115.0312167,0-198.4885645,91.5703707-199.0421523,214.1160292h-.0261986c0,.1332711.017086.2608469.017086.3941181,0,.2767939-.017086.5478925-.017086.8252559l.0558144.0210728c.2938799,59.8330454,21.5944805,113.2229438,59.6359863,151.8795471,38.9185893,38.9311191,93.4162329,60.3393618,154.390626,60.3393618,50.6179727,0,89.5377011-9.7299321,163.5248247-64.2309929l-51.2604079-53.8506521c-36.3522656,24.0047517-70.0778369,35.6836318-103.1609729,35.6836318-57.598827,0-104.0798351-33.1019028-122.7614159-82.0638434-2.3259917-6.0961152,2.2650503-12.6634586,8.7898382-12.6634586h279.4385159l.0045563.0005695c2.1346163-13.3783719,3.2873547-27.7830454,3.2873547-42.8620481,0-123.1573389-72.815021-207.5885912-192.8763689-207.5885912ZM353.7510949,889.548696c-5.752236-.000015-10.1318754-5.1807952-9.2592112-10.8664505,9.1112126-59.3621415,55.6355956-92.290563,107.6825458-92.290563,61.2474977,0,102.7969241,35.0747099,109.0843879,92.5549233.6143562,5.6164654-3.6315437,10.6026211-9.2815098,10.6026063l-198.2262127-.0005161Z" fill="#fff"/>
        </g>
      </g>
    </g>
  </g>
</svg>