<svg width="150" height="150" viewBox="0 0 150 150" fill="none" xmlns="http://www.w3.org/2000/svg">
<path d="M54.4 58.9001C56.7 56.3001 58 51.6001 57.8 47.6001C57.5 41.0001 53 36.7001 46.4 36.7001C39.8 36.7001 35.3 41.0001 35 47.6001C34.8 51.6001 36.1 56.3001 38.4 58.9001C33.4 61.0001 30.3 65.4001 29 69.2001L31.8 70.2001C33.1 66.5001 36.4 62.1001 42 61.0001V58.1001C40.2 57.7001 37.7 53.0001 37.9 47.9001C38.1 42.8001 41.3 39.8001 46.3 39.8001C51.3 39.8001 54.5 42.8001 54.7 47.9001C54.9 53.0001 52.4 57.7001 50.6 58.1001V61.0001C56.2 62.1001 59.6 66.5001 60.8 70.2001L63.6 69.2001C62.5 65.4001 59.4 61.0001 54.4 58.9001Z" fill="#FF5F46"/>
<path d="M127.7 46.7001C129.3 44.6001 130.2 41.2001 130 38.3001C129.7 33.1001 126.2 29.7001 121 29.7001C115.8 29.7001 112.3 33.1001 112 38.3001C111.9 41.2001 112.7 44.6001 114.3 46.7001C111.5 48.0001 109.6 50.2001 108.4 52.4001C107.2 50.2001 105.2 48.0001 102.5 46.7001C104.1 44.6001 105 41.2001 104.8 38.3001C104.5 33.1001 101 29.7001 95.8 29.7001C90.6 29.7001 87.1 33.1001 86.8 38.3001C86.7 41.2001 87.5 44.6001 89.1 46.7001C85.9 48.2001 83.8 51.0001 82.6 53.5001H79.9H72.7V55.0001C72.7 62.3001 69.8 69.2001 64.6 74.3001L63.5 75.4001L73.4 85.3001L68.4 90.3001L67.3 91.5001L68.5 92.5001L86.5 110.5L98.4 122.4C100.4 124.4 103 125.4 105.6 125.4C108.2 125.4 110.8 124.4 112.8 122.4C114.7 120.5 115.8 117.9 115.8 115.2C115.8 112.5 114.7 109.9 112.8 108L95.6 90.6001L93.5 92.7001L110.8 110C112.1 111.3 112.9 113.1 112.9 115.1C112.9 117.1 112.2 118.8 110.8 120.2C108 123 103.5 123 100.7 120.2L88.8 108.3L71.8 91.3001L82 81.1001L88.4 87.5001L81 94.9001L83.1 97.0001L92.6 87.5001L82 76.9001L75.8 83.1001L68 75.4001C72.8 70.2001 75.5 63.6001 75.9 56.5001H80.1H83.8L85.2 55.5001C86.1 52.7001 88.6 49.5001 92.7 48.7001V45.8001C91.6 45.6001 89.7 42.4001 89.9 38.5001C90.1 34.8001 92.3 32.7001 95.9 32.7001C99.5 32.7001 101.7 34.8001 101.9 38.5001C102.1 42.4001 100.2 45.6001 99.1 45.8001V48.7001C102.4 49.4001 104.6 51.6001 105.9 53.9001C102.4 55.0001 100.2 57.9001 100 62.1001C99.9 65.0001 100.7 68.4001 102.3 70.5001C98.7 72.2001 96.4 75.4001 95.5 78.3001L98.3 79.3001C99.2 76.6001 101.7 73.4001 105.8 72.6001V69.7001C104.7 69.5001 102.8 66.3001 103 62.4001C103.2 58.7001 105.4 56.6001 109 56.6001C112.6 56.6001 114.8 58.7001 115 62.4001C115.2 66.3001 113.3 69.5001 112.2 69.7001V72.6001C116.3 73.4001 118.7 76.6001 119.7 79.3001L122.5 78.3001C121.5 75.5001 119.3 72.2001 115.7 70.5001C117.3 68.4001 118.2 65.0001 118 62.1001C117.8 57.7001 115.2 54.6001 111.2 53.7001C112.4 51.5001 114.6 49.4001 117.8 48.7001V45.8001C116.7 45.6001 114.8 42.4001 115 38.5001C115.2 34.8001 117.4 32.7001 121 32.7001C124.6 32.7001 126.8 34.8001 127 38.5001C127.2 42.4001 125.3 45.6001 124.2 45.8001V48.7001C128.3 49.5001 130.7 52.7001 131.7 55.4001L134.5 54.4001C133.5 51.6001 131.3 48.4001 127.7 46.7001Z" fill="#FF5F46"/>
<path d="M45.7 82.2C30.7 82.2 18.5 70 18.5 55C18.5 40 30.7 27.8 45.7 27.8C57.7 27.8 68.4 35.8 71.8 47.3L74.7 46.5C70.9 33.7 59 24.8 45.7 24.8C29 24.8 15.5 38.3 15.5 55C15.5 71.7001 29 85.2 45.7 85.2C50.5 85.2 55.1 84.1001 59.4 81.9001L58 79.3001C54.2 81.2001 50 82.2 45.7 82.2Z" fill="#FF5F46"/>
</svg>
