<svg width="150" height="150" viewBox="0 0 150 150" fill="none" xmlns="http://www.w3.org/2000/svg">
<path d="M54.4 58.9C56.7 56.3 58 51.5999 57.8 47.5999C57.5 40.9999 53 36.7 46.4 36.7C39.8 36.7 35.3 40.9999 35 47.5999C34.8 51.5999 36.1 56.3 38.4 58.9C33.4 61 30.3 65.3999 29 69.1999L31.8 70.1999C33.1 66.4999 36.4 62.1 42 61V58.0999C40.2 57.6999 37.7 53 37.9 47.9C38.1 42.8 41.3 39.7999 46.3 39.7999C51.3 39.7999 54.5 42.8 54.7 47.9C54.9 53 52.4 57.6999 50.6 58.0999V61C56.2 62.1 59.6 66.4999 60.8 70.1999L63.6 69.1999C62.5 65.3999 59.4 61 54.4 58.9Z" fill="white"/>
<path d="M127.7 46.7C129.3 44.6 130.2 41.1999 130 38.2999C129.7 33.0999 126.2 29.7 121 29.7C115.8 29.7 112.3 33.0999 112 38.2999C111.9 41.1999 112.7 44.6 114.3 46.7C111.5 48 109.6 50.2 108.4 52.4C107.2 50.2 105.2 48 102.5 46.7C104.1 44.6 105 41.1999 104.8 38.2999C104.5 33.0999 101 29.7 95.8 29.7C90.6 29.7 87.1 33.0999 86.8 38.2999C86.7 41.1999 87.5 44.6 89.1 46.7C85.9 48.2 83.8 51 82.6 53.5H79.9H72.7V55C72.7 62.3 69.8 69.2 64.6 74.3L63.5 75.4L73.4 85.3L68.4 90.3L67.3 91.5L68.5 92.5L86.5 110.5L98.4 122.4C100.4 124.4 103 125.4 105.6 125.4C108.2 125.4 110.8 124.4 112.8 122.4C114.7 120.5 115.8 117.9 115.8 115.2C115.8 112.5 114.7 109.9 112.8 108L95.6 90.5999L93.5 92.6999L110.8 110C112.1 111.3 112.9 113.1 112.9 115.1C112.9 117.1 112.2 118.8 110.8 120.2C108 123 103.5 123 100.7 120.2L88.8 108.3L71.8 91.3L82 81.0999L88.4 87.5L81 94.8999L83.1 97L92.6 87.5L82 76.9L75.8 83.0999L68 75.4C72.8 70.2 75.5 63.6 75.9 56.5H80.1H83.8L85.2 55.5C86.1 52.7 88.6 49.5 92.7 48.7V45.7999C91.6 45.5999 89.7 42.4 89.9 38.5C90.1 34.8 92.3 32.7 95.9 32.7C99.5 32.7 101.7 34.8 101.9 38.5C102.1 42.4 100.2 45.5999 99.1 45.7999V48.7C102.4 49.4 104.6 51.6 105.9 53.9C102.4 55 100.2 57.8999 100 62.0999C99.9 64.9999 100.7 68.4 102.3 70.5C98.7 72.2 96.4 75.4 95.5 78.3L98.3 79.3C99.2 76.6 101.7 73.3999 105.8 72.5999V69.6999C104.7 69.4999 102.8 66.3 103 62.4C103.2 58.7 105.4 56.5999 109 56.5999C112.6 56.5999 114.8 58.7 115 62.4C115.2 66.3 113.3 69.4999 112.2 69.6999V72.5999C116.3 73.3999 118.7 76.6 119.7 79.3L122.5 78.3C121.5 75.5 119.3 72.2 115.7 70.5C117.3 68.4 118.2 64.9999 118 62.0999C117.8 57.6999 115.2 54.6 111.2 53.7C112.4 51.5 114.6 49.4 117.8 48.7V45.7999C116.7 45.5999 114.8 42.4 115 38.5C115.2 34.8 117.4 32.7 121 32.7C124.6 32.7 126.8 34.8 127 38.5C127.2 42.4 125.3 45.5999 124.2 45.7999V48.7C128.3 49.5 130.7 52.7 131.7 55.4L134.5 54.4C133.5 51.6 131.3 48.4 127.7 46.7Z" fill="white"/>
<path d="M45.7 82.2C30.7 82.2 18.5 70 18.5 55C18.5 40 30.7 27.8 45.7 27.8C57.7 27.8 68.4 35.8 71.8 47.3L74.7 46.5C70.9 33.7 59 24.8 45.7 24.8C29 24.8 15.5 38.3 15.5 55C15.5 71.7001 29 85.2 45.7 85.2C50.5 85.2 55.1 84.1001 59.4 81.9001L58 79.3001C54.2 81.2001 50 82.2 45.7 82.2Z" fill="white"/>
</svg>
