<svg width="150" height="150" viewBox="0 0 150 150" fill="none" xmlns="http://www.w3.org/2000/svg">
<g clip-path="url(#clip0_5483_2144)">
<path d="M138.66 74.6102C138.66 80.0502 132.23 84.5702 130.89 89.5902C129.55 94.6102 132.77 101.9 130.14 106.45C127.47 111.06 119.64 111.77 115.9 115.51C112.16 119.25 111.44 127.08 106.84 129.75C102.24 132.42 95.17 129.11 89.98 130.5C84.79 131.89 80.44 138.27 75 138.27C69.56 138.27 65.04 131.84 60.02 130.5C55 129.16 47.71 132.38 43.16 129.75C38.61 127.12 37.84 119.25 34.1 115.51C30.36 111.77 22.53 111.05 19.86 106.45C17.19 101.85 20.5 94.7802 19.11 89.5902C17.72 84.4002 11.34 80.0502 11.34 74.6102C11.34 69.1702 17.77 64.6502 19.11 59.6302C20.45 54.6102 17.23 47.3202 19.86 42.7702C22.49 38.2202 30.36 37.4502 34.1 33.7102C37.84 29.9702 38.56 22.1402 43.16 19.4702C47.76 16.8002 54.83 20.1102 60.02 18.7202C65.21 17.3302 69.56 10.9502 75 10.9502C80.44 10.9502 84.96 17.3802 89.98 18.7202C95 20.0602 102.29 16.8402 106.84 19.4702C111.39 22.1002 112.16 29.9702 115.9 33.7102C119.64 37.4502 127.47 38.1702 130.14 42.7702C132.81 47.3702 129.5 54.4402 130.89 59.6302C132.28 64.8202 138.66 69.1702 138.66 74.6102Z" stroke="#FF5F46" stroke-width="3" stroke-miterlimit="3" stroke-linecap="square"/>
<path d="M112.73 64.9704C113.52 68.0504 113.93 71.2804 113.93 74.6104C113.93 96.1104 96.4999 113.55 74.9899 113.55C53.4799 113.55 36.0499 96.1204 36.0499 74.6104C36.0499 53.1004 53.4799 35.6704 74.9899 35.6704C88.4499 35.6704 100.32 42.5004 107.31 52.8904L70.4899 89.7504L52.6499 71.9104" stroke="#FF5F46" stroke-width="3" stroke-miterlimit="3" stroke-linecap="square"/>
</g>
<defs>
<clipPath id="clip0_5483_2144">
<rect width="150" height="150" fill="white"/>
</clipPath>
</defs>
</svg>
