<svg width="150" height="150" viewBox="0 0 150 150" fill="none" xmlns="http://www.w3.org/2000/svg">
<g clip-path="url(#clip0_1_2261)">
<path d="M138.66 74.61C138.66 80.05 132.23 84.57 130.89 89.59C129.55 94.61 132.77 101.9 130.14 106.45C127.47 111.06 119.64 111.77 115.9 115.51C112.16 119.25 111.44 127.08 106.84 129.75C102.24 132.42 95.17 129.11 89.98 130.5C84.79 131.89 80.44 138.27 75 138.27C69.56 138.27 65.04 131.84 60.02 130.5C55 129.16 47.71 132.38 43.16 129.75C38.61 127.12 37.84 119.25 34.1 115.51C30.36 111.77 22.53 111.05 19.86 106.45C17.19 101.85 20.5 94.78 19.11 89.59C17.72 84.4 11.34 80.05 11.34 74.61C11.34 69.17 17.77 64.65 19.11 59.63C20.45 54.61 17.23 47.32 19.86 42.77C22.49 38.22 30.36 37.4499 34.1 33.7099C37.84 29.9699 38.56 22.14 43.16 19.47C47.76 16.8 54.83 20.11 60.02 18.72C65.21 17.33 69.56 10.95 75 10.95C80.44 10.95 84.96 17.38 89.98 18.72C95 20.06 102.29 16.84 106.84 19.47C111.39 22.1 112.16 29.9699 115.9 33.7099C119.64 37.4499 127.47 38.17 130.14 42.77C132.81 47.37 129.5 54.44 130.89 59.63C132.28 64.82 138.66 69.17 138.66 74.61Z" stroke="#1B3139" stroke-width="3" stroke-miterlimit="3" stroke-linecap="square"/>
<path d="M112.73 64.9699C113.52 68.0499 113.93 71.2799 113.93 74.6099C113.93 96.1099 96.5 113.55 74.99 113.55C53.48 113.55 36.05 96.1199 36.05 74.6099C36.05 53.0999 53.48 35.6699 74.99 35.6699C88.45 35.6699 100.32 42.4999 107.31 52.8899L70.49 89.7499L52.65 71.9099" stroke="#1B3139" stroke-width="3" stroke-miterlimit="3" stroke-linecap="square"/>
</g>
<defs>
<clipPath id="clip0_1_2261">
<rect width="150" height="150" fill="white"/>
</clipPath>
</defs>
</svg>
