<svg width="151" height="150" viewBox="0 0 151 150" fill="none" xmlns="http://www.w3.org/2000/svg">
<g clip-path="url(#clip0_8407_587)">
<mask id="mask0_8407_587" style="mask-type:luminance" maskUnits="userSpaceOnUse" x="0" y="0" width="151" height="150">
<path d="M150.716 0H0.715576V150H150.716V0Z" fill="white"/>
</mask>
<g mask="url(#mask0_8407_587)">
<path d="M28.0056 119.25H18.8856V122.25H28.0056V119.25Z" fill="#1B3139"/>
<path d="M41.9956 119.25H32.8756V122.25H41.9956V119.25Z" fill="#1B3139"/>
<path d="M103.636 41.9502C98.2456 41.9502 93.8556 46.3402 93.8556 51.7302C93.8556 57.1202 98.2456 61.5102 103.636 61.5102C109.026 61.5102 113.416 57.1202 113.416 51.7302C113.416 46.3402 109.026 41.9502 103.636 41.9502ZM103.636 58.5102C99.8956 58.5102 96.8556 55.4702 96.8556 51.7302C96.8556 47.9902 99.8956 44.9502 103.636 44.9502C107.376 44.9502 110.416 47.9902 110.416 51.7302C110.416 55.4702 107.376 58.5102 103.636 58.5102Z" fill="#1B3139"/>
<path d="M140.046 65.67V26.29H42.9856C42.3256 23.85 40.0956 22.04 37.4456 22.04C34.2756 22.04 31.6956 24.62 31.6956 27.79C31.6956 30.96 34.2756 33.54 37.4456 33.54C40.0956 33.54 42.3256 31.73 42.9856 29.29H137.056V35.79H14.3856V29.29H18.2156C18.8756 31.73 21.1056 33.54 23.7556 33.54C26.9256 33.54 29.5056 30.96 29.5056 27.79C29.5056 24.62 26.9256 22.04 23.7556 22.04C21.1056 22.04 18.8756 23.85 18.2156 26.29H11.3856V107.16H14.3856V74.98L32.1656 59.71C37.7056 54.95 45.9256 55.43 50.8756 60.79L60.3256 71.12C60.6256 75.15 62.0356 78.93 64.3356 81.9C54.9156 86.3 48.7156 95.87 48.7156 106.37V113.54H11.3856V127.95H114.636V116.54H137.056V124.95H121.256V127.95H140.056V72.5H105.276C105.986 68.48 109.506 65.41 113.736 65.41C115.376 65.41 116.966 65.88 118.346 66.76L120.126 67.89L120.616 65.84C122.086 59.72 127.506 55.44 133.816 55.44C134.916 55.44 136.006 55.58 137.066 55.84V65.66H140.066L140.046 65.67ZM37.4356 30.54C35.9156 30.54 34.6856 29.31 34.6856 27.79C34.6856 26.27 35.9156 25.04 37.4356 25.04C38.9556 25.04 40.1856 26.27 40.1856 27.79C40.1856 29.31 38.9556 30.54 37.4356 30.54ZM23.7556 25.04C25.2756 25.04 26.5056 26.27 26.5056 27.79C26.5056 29.31 25.2756 30.54 23.7556 30.54C22.2356 30.54 21.0056 29.31 21.0056 27.79C21.0056 26.27 22.2356 25.04 23.7556 25.04ZM51.6956 106.37C51.6956 96.41 57.9856 87.37 67.3456 83.88L69.5356 83.06L67.8756 81.41C64.9357 78.48 63.2456 74.13 63.2456 69.49C63.2456 61.04 68.8356 54.16 75.7056 54.16C82.5756 54.16 88.1656 61.04 88.1656 69.49C88.1656 74.13 86.4756 78.47 83.5356 81.41L81.8756 83.06L84.0656 83.88C93.4256 87.37 99.7156 96.4 99.7156 106.37V113.54H51.6856V106.37H51.6956ZM111.626 124.95H14.3856V116.54H111.636V124.95H111.626ZM102.726 113.54V106.37C102.726 100.33 100.666 94.6 97.1256 89.98L97.2956 89.83C102.836 85.08 111.056 85.55 116.006 90.91L136.906 113.54H102.716H102.726ZM133.796 52.45C126.736 52.45 120.586 56.84 118.226 63.33C116.806 62.73 115.276 62.42 113.716 62.42C107.326 62.42 102.126 67.62 102.126 74.01V75.51H137.036V109.27L118.206 88.88C112.156 82.32 102.106 81.74 95.3356 87.56L95.1656 87.71C92.8856 85.33 90.1656 83.34 87.1056 81.91C89.7156 78.55 91.1756 74.14 91.1756 69.51C91.1756 59.4 84.2357 51.18 75.7156 51.18C67.9556 51.18 61.5356 57.99 60.4356 66.83L53.0756 58.78C47.0256 52.22 36.9756 51.64 30.2056 57.46L14.3856 71.05V38.81H137.056V52.79C135.986 52.58 134.906 52.46 133.806 52.46L133.796 52.45Z" fill="#1B3139"/>
</g>
</g>
<defs>
<clipPath id="clip0_8407_587">
<rect width="150" height="150" fill="white" transform="translate(0.715576)"/>
</clipPath>
</defs>
</svg>
