<svg width="150" height="150" viewBox="0 0 150 150" fill="none" xmlns="http://www.w3.org/2000/svg">
<g clip-path="url(#clip0_2919_2051)">
<path d="M27.29 119.25H18.17V122.25H27.29V119.25Z" fill="#FF5F46"/>
<path d="M41.28 119.25H32.16V122.25H41.28V119.25Z" fill="#FF5F46"/>
<path d="M102.92 41.95C97.53 41.95 93.14 46.34 93.14 51.73C93.14 57.12 97.53 61.51 102.92 61.51C108.31 61.51 112.7 57.12 112.7 51.73C112.7 46.34 108.31 41.95 102.92 41.95ZM102.92 58.51C99.18 58.51 96.14 55.47 96.14 51.73C96.14 47.99 99.18 44.95 102.92 44.95C106.66 44.95 109.7 47.99 109.7 51.73C109.7 55.47 106.66 58.51 102.92 58.51Z" fill="#FF5F46"/>
<path d="M139.33 65.67V26.29H42.27C41.61 23.85 39.38 22.04 36.73 22.04C33.56 22.04 30.98 24.62 30.98 27.79C30.98 30.96 33.56 33.54 36.73 33.54C39.38 33.54 41.61 31.73 42.27 29.29H136.34V35.79H13.67V29.29H17.5C18.16 31.73 20.39 33.54 23.04 33.54C26.21 33.54 28.79 30.96 28.79 27.79C28.79 24.62 26.21 22.04 23.04 22.04C20.39 22.04 18.16 23.85 17.5 26.29H10.67V107.16H13.67V74.98L31.45 59.71C36.99 54.95 45.21 55.43 50.16 60.79L59.61 71.12C59.91 75.15 61.32 78.93 63.62 81.9C54.2 86.3 48 95.87 48 106.37V113.54H10.67V127.95H113.92V116.54H136.34V124.95H120.54V127.95H139.34V72.5H104.56C105.27 68.48 108.79 65.41 113.02 65.41C114.66 65.41 116.25 65.88 117.63 66.76L119.41 67.89L119.9 65.84C121.37 59.72 126.79 55.44 133.1 55.44C134.2 55.44 135.29 55.58 136.35 55.84V65.66H139.35L139.33 65.67ZM36.72 30.54C35.2 30.54 33.97 29.31 33.97 27.79C33.97 26.27 35.2 25.04 36.72 25.04C38.24 25.04 39.47 26.27 39.47 27.79C39.47 29.31 38.24 30.54 36.72 30.54ZM23.04 25.04C24.56 25.04 25.79 26.27 25.79 27.79C25.79 29.31 24.56 30.54 23.04 30.54C21.52 30.54 20.29 29.31 20.29 27.79C20.29 26.27 21.52 25.04 23.04 25.04ZM50.98 106.37C50.98 96.41 57.27 87.37 66.63 83.88L68.82 83.06L67.16 81.41C64.2201 78.48 62.53 74.13 62.53 69.49C62.53 61.04 68.12 54.16 74.99 54.16C81.86 54.16 87.45 61.04 87.45 69.49C87.45 74.13 85.76 78.47 82.82 81.41L81.16 83.06L83.35 83.88C92.71 87.37 99 96.4 99 106.37V113.54H50.97V106.37H50.98ZM110.91 124.95H13.67V116.54H110.92V124.95H110.91ZM102.01 113.54V106.37C102.01 100.33 99.9501 94.6 96.41 89.98L96.58 89.83C102.12 85.08 110.34 85.55 115.29 90.91L136.19 113.54H102H102.01ZM133.08 52.45C126.02 52.45 119.87 56.84 117.51 63.33C116.09 62.73 114.56 62.42 113 62.42C106.61 62.42 101.41 67.62 101.41 74.01V75.51H136.32V109.27L117.49 88.88C111.44 82.32 101.39 81.74 94.62 87.56L94.45 87.71C92.17 85.33 89.45 83.34 86.39 81.91C89 78.55 90.46 74.14 90.46 69.51C90.46 59.4 83.5201 51.18 75 51.18C67.24 51.18 60.82 57.99 59.72 66.83L52.36 58.78C46.31 52.22 36.26 51.64 29.49 57.46L13.67 71.05V38.81H136.34V52.79C135.27 52.58 134.19 52.46 133.09 52.46L133.08 52.45Z" fill="#FF5F46"/>
</g>
<defs>
<clipPath id="clip0_2919_2051">
<rect width="150" height="150" fill="white"/>
</clipPath>
</defs>
</svg>
