<svg width="150" height="150" viewBox="0 0 150 150" fill="none" xmlns="http://www.w3.org/2000/svg">
<g clip-path="url(#clip0_214_425)">
<path fill-rule="evenodd" clip-rule="evenodd" d="M107.1 101.756C107.289 104.771 108.626 107.682 110.816 109.696L110.542 112.104L104.744 115.402C104.744 115.403 104.743 115.403 104.743 115.403C103.792 115.947 103.2 116.96 103.2 118V128.4H100.2V118C100.2 115.841 101.407 113.854 103.256 112.798L103.258 112.796L107.405 110.437C105.441 108.024 104.285 104.989 104.103 101.888L104.1 101.8C104.1 95.5071 108.242 90.8 114.2 90.8C117.113 90.8 119.649 91.9465 121.442 93.9493C123.225 95.9401 124.2 98.6893 124.2 101.8L124.197 101.888C124.015 104.989 122.859 108.024 120.895 110.437L125.044 112.798C126.893 113.854 128.1 115.841 128.1 118V128.7H125.1V118C125.1 116.96 124.507 115.947 123.557 115.403C123.557 115.403 123.556 115.403 123.556 115.402L117.758 112.104L117.484 109.696C119.673 107.682 121.011 104.771 121.2 101.756C121.191 99.2871 120.418 97.3018 119.208 95.9507C118.001 94.6035 116.287 93.8 114.2 93.8C110.17 93.8 107.118 96.8744 107.1 101.756Z" fill="#FF5F46"/>
<path fill-rule="evenodd" clip-rule="evenodd" d="M67.9001 19.3C37.1319 19.3 12.3 44.225 12.3 75C12.3 105.768 37.2251 130.6 68 130.6C74.4199 130.6 80.8505 129.432 86.8984 127.286L87.9017 130.114C81.5496 132.368 74.7802 133.6 68 133.6C35.575 133.6 9.30005 107.432 9.30005 75C9.30005 42.575 35.4682 16.3 67.9001 16.3C100.325 16.3 126.6 42.4681 126.6 74.9H123.6C123.6 44.1318 98.675 19.3 67.9001 19.3Z" fill="#FF5F46"/>
<path fill-rule="evenodd" clip-rule="evenodd" d="M123.6 75H126.6V83.7715C139.133 90.296 144.272 105.688 138.153 118.447C131.895 131.597 116.098 137.109 103.053 130.853C89.9021 124.595 84.3902 108.796 90.6475 95.7513L90.6485 95.7493C94.779 87.1706 103.152 81.4403 112.599 80.8034L112.801 83.7966C104.449 84.3597 97.0218 89.4289 93.3521 97.0495C87.8103 108.604 92.6975 122.604 104.344 128.146L104.349 128.148C115.903 133.69 129.904 128.803 135.445 117.156L135.448 117.151C140.99 105.597 136.103 91.5963 124.456 86.0545L123.6 85.6474V75Z" fill="#FF5F46"/>
<path fill-rule="evenodd" clip-rule="evenodd" d="M90.4681 107.223C84.0095 111.807 76.3111 114.196 68.52 114.3L68.51 114.3H67.5V111.3H68.4899C75.6954 111.202 82.7932 108.991 88.7319 104.777L90.4681 107.223Z" fill="#FF5F46"/>
<path fill-rule="evenodd" clip-rule="evenodd" d="M100.6 57.6H35.2V54.6H100.6V57.6Z" fill="#FF5F46"/>
<path fill-rule="evenodd" clip-rule="evenodd" d="M83.3 95.4H35.2V92.4H83.3V95.4Z" fill="#FF5F46"/>
<path fill-rule="evenodd" clip-rule="evenodd" d="M67.3912 35.7H69.4V105.2H66.4V38.7261C50.5083 39.3582 36.7956 50.3604 32.7515 65.8783L29.8485 65.1217C34.3184 47.9699 49.7037 35.9081 67.3824 35.7001L67.3912 35.7Z" fill="#FF5F46"/>
<path fill-rule="evenodd" clip-rule="evenodd" d="M67.4531 35.7H68V38.7H67.5491C63.6338 38.9701 59.6704 42.5986 56.6133 49.2629C53.7465 55.5126 51.8918 64.0199 51.714 73.5H84.1861C84.0548 66.4126 82.9969 59.8815 81.2699 54.4278C79.4135 48.5655 76.8223 44.0665 73.8927 41.4115L73.4 40.965V36.0864L75.1814 36.4267C93.6824 39.9605 107.2 56.1739 107.2 75V76.5H87.1864C87.0086 86.3309 85.0903 95.2802 82.0134 101.988C78.8319 108.923 74.1638 113.943 68.4935 114.297L68.4468 114.3H67.9V111.3H68.3508C72.2661 111.03 76.2295 107.401 79.2865 100.737C82.1534 94.4874 84.0081 85.9801 84.1859 76.5H51.7141C51.8483 83.5842 52.9279 90.1147 54.6666 95.5695C56.5357 101.433 59.1287 105.938 62.0159 108.596L62.5 109.042V113.912L60.72 113.574C42.1165 110.04 28.7 93.9249 28.7 75V73.5H48.7135C48.8913 63.6691 50.8096 54.7199 53.8866 48.0121C57.068 41.0766 61.7361 36.0573 67.4064 35.7029L67.4531 35.7ZM48.7136 76.5H31.7305C32.3893 92.673 43.6575 106.361 59.3701 110.211C56.234 107.046 53.6456 102.245 51.8083 96.4806C49.9684 90.7082 48.848 83.8671 48.7136 76.5ZM87.1866 73.5H104.169C103.502 57.4237 92.1634 43.6609 76.5452 39.7954C79.7226 42.9642 82.3069 47.7651 84.13 53.5222C85.9582 59.2957 87.055 66.1361 87.1866 73.5Z" fill="#FF5F46"/>
</g>
<defs>
<clipPath id="clip0_214_425">
<rect width="150" height="150" fill="white"/>
</clipPath>
</defs>
</svg>
