<svg width="150" height="150" viewBox="0 0 150 150" fill="none" xmlns="http://www.w3.org/2000/svg">
<g clip-path="url(#clip0_1_1999)">
<path fill-rule="evenodd" clip-rule="evenodd" d="M107.1 101.756C107.289 104.771 108.626 107.682 110.816 109.696L110.542 112.104L104.744 115.402C104.744 115.402 104.743 115.403 104.743 115.403C103.792 115.947 103.2 116.96 103.2 118V128.4H100.2V118C100.2 115.841 101.407 113.854 103.256 112.797L103.258 112.796L107.405 110.437C105.441 108.024 104.285 104.989 104.103 101.888L104.1 101.8C104.1 95.5069 108.242 90.7998 114.2 90.7998C117.113 90.7998 119.649 91.9463 121.442 93.9491C123.225 95.9399 124.2 98.6891 124.2 101.8L124.197 101.888C124.015 104.989 122.859 108.024 120.895 110.437L125.044 112.797C126.893 113.854 128.1 115.841 128.1 118V128.7H125.1V118C125.1 116.959 124.507 115.947 123.557 115.403C123.557 115.403 123.556 115.402 123.556 115.402L117.758 112.104L117.484 109.696C119.673 107.682 121.011 104.771 121.2 101.756C121.191 99.2869 120.418 97.3016 119.208 95.9505C118.001 94.6033 116.287 93.7998 114.2 93.7998C110.17 93.7998 107.118 96.8742 107.1 101.756Z" fill="#1B3139"/>
<path fill-rule="evenodd" clip-rule="evenodd" d="M67.9001 19.2998C37.1319 19.2998 12.3 44.2248 12.3 74.9998C12.3 105.768 37.2251 130.6 68 130.6C74.4199 130.6 80.8505 129.432 86.8984 127.286L87.9017 130.113C81.5496 132.367 74.7802 133.6 68 133.6C35.575 133.6 9.30005 107.432 9.30005 74.9998C9.30005 42.5748 35.4682 16.2998 67.9001 16.2998C100.325 16.2998 126.6 42.468 126.6 74.8998H123.6C123.6 44.1316 98.675 19.2998 67.9001 19.2998Z" fill="#1B3139"/>
<path fill-rule="evenodd" clip-rule="evenodd" d="M123.6 75H126.6V83.7715C139.133 90.296 144.272 105.688 138.153 118.447C131.895 131.597 116.098 137.109 103.053 130.853C89.9021 124.595 84.3902 108.796 90.6475 95.7513L90.6485 95.7493C94.779 87.1706 103.152 81.4403 112.599 80.8034L112.801 83.7966C104.449 84.3597 97.0218 89.4289 93.3521 97.0495C87.8103 108.604 92.6975 122.604 104.344 128.146L104.349 128.148C115.903 133.69 129.904 128.803 135.445 117.156L135.448 117.151C140.99 105.597 136.103 91.5963 124.456 86.0545L123.6 85.6474V75Z" fill="#1B3139"/>
<path fill-rule="evenodd" clip-rule="evenodd" d="M90.4681 107.223C84.0095 111.806 76.3111 114.196 68.52 114.299L68.51 114.3H67.5V111.3H68.4899C75.6954 111.202 82.7932 108.991 88.7319 104.776L90.4681 107.223Z" fill="#1B3139"/>
<path fill-rule="evenodd" clip-rule="evenodd" d="M100.6 57.5996H35.2V54.5996H100.6V57.5996Z" fill="#1B3139"/>
<path fill-rule="evenodd" clip-rule="evenodd" d="M83.3 95.3999H35.2V92.3999H83.3V95.3999Z" fill="#1B3139"/>
<path fill-rule="evenodd" clip-rule="evenodd" d="M67.3912 35.6997H69.4001V105.2H66.4001V38.7258C50.5083 39.3579 36.7956 50.3601 32.7516 65.878L29.8485 65.1214C34.3184 47.9696 49.7037 35.9078 67.3824 35.6998L67.3912 35.6997Z" fill="#1B3139"/>
<path fill-rule="evenodd" clip-rule="evenodd" d="M67.4531 35.6997H68V38.6997H67.5491C63.6338 38.9698 59.6704 42.5983 56.6133 49.2626C53.7465 55.5123 51.8918 64.0196 51.714 73.4997H84.1861C84.0548 66.4123 82.9969 59.8812 81.2699 54.4275C79.4135 48.5652 76.8223 44.0662 73.8927 41.4112L73.4 40.9647V36.0861L75.1814 36.4263C93.6824 39.9602 107.2 56.1736 107.2 74.9997V76.4997H87.1864C87.0086 86.3306 85.0903 95.2799 82.0134 101.988C78.8319 108.923 74.1638 113.942 68.4935 114.297L68.4468 114.3H67.9V111.3H68.3508C72.2661 111.03 76.2295 107.401 79.2865 100.737C82.1534 94.4871 84.0081 85.9798 84.1859 76.4997H51.7141C51.8483 83.5839 52.9279 90.1144 54.6666 95.5692C56.5357 101.433 59.1287 105.938 62.0159 108.596L62.5 109.042V113.911L60.72 113.573C42.1165 110.04 28.7 93.9246 28.7 74.9997V73.4997H48.7135C48.8913 63.6688 50.8096 54.7195 53.8866 48.0118C57.068 41.0763 61.7361 36.057 67.4064 35.7026L67.4531 35.6997ZM48.7136 76.4997H31.7305C32.3893 92.6727 43.6575 106.361 59.3701 110.211C56.234 107.046 53.6456 102.244 51.8083 96.4803C49.9684 90.7079 48.848 83.8668 48.7136 76.4997ZM87.1866 73.4997H104.169C103.502 57.4234 92.1634 43.6606 76.5452 39.7951C79.7226 42.9639 82.3069 47.7648 84.13 53.5219C85.9582 59.2954 87.055 66.1358 87.1866 73.4997Z" fill="#1B3139"/>
</g>
<defs>
<clipPath id="clip0_1_1999">
<rect width="150" height="150" fill="white"/>
</clipPath>
</defs>
</svg>
