<svg width="793" height="200" viewBox="0 0 793 200" fill="none" xmlns="http://www.w3.org/2000/svg">
<path d="M100 175C58.5786 175 25 141.421 25 100L25.2861 100C66.7073 100 100.287 133.579 100.287 175C100.287 133.675 133.711 100.156 175 100.001C174.968 100.001 174.936 100 174.904 100L175 100L175 175L100 175Z" fill="#C4CCD6"/>
<path d="M100.287 25.0019C100.286 66.4225 66.7068 100 25.2861 100L25 100L25 25L100 25C100.096 25 100.191 25.0016 100.287 25.0019ZM174.945 100C133.682 99.816 100.289 66.3086 100.288 25.0019C141.577 25.1573 175 58.6748 175 100L174.945 100Z" fill="#618794"/>
<path d="M234.76 137.5L263.022 60.22H277.816L306.078 137.5H292.058L270.309 75.676L248.56 137.5H234.76ZM247.346 119.284L250.878 108.796H288.966L292.499 119.284H247.346ZM313.397 137.5V60.22H326.645V137.5H313.397ZM333.682 149.423L361.392 51.94H374.309L346.599 149.423H333.682ZM387.093 137.5V60.22H417.343C422.789 60.22 427.315 61.0664 430.922 62.7592C434.602 64.452 437.362 66.8072 439.202 69.8248C441.042 72.7688 441.962 76.1912 441.962 80.092C441.962 83.9928 441.115 87.268 439.423 89.9176C437.73 92.5672 435.485 94.5912 432.688 95.9896C429.965 97.388 426.984 98.2344 423.746 98.5288L425.402 97.3144C428.861 97.388 431.952 98.308 434.675 100.074C437.472 101.841 439.68 104.159 441.299 107.03C442.919 109.826 443.728 112.954 443.728 116.414C443.728 120.462 442.735 124.105 440.747 127.343C438.834 130.508 436 133.01 432.247 134.85C428.493 136.617 423.893 137.5 418.447 137.5H387.093ZM400.341 126.681H416.459C420.802 126.681 424.187 125.65 426.616 123.59C429.045 121.529 430.259 118.658 430.259 114.978C430.259 111.298 429.008 108.391 426.506 106.257C424.003 104.049 420.581 102.945 416.239 102.945H400.341V126.681ZM400.341 92.8984H415.466C419.735 92.8984 422.973 91.9416 425.181 90.028C427.389 88.0408 428.493 85.3176 428.493 81.8584C428.493 78.4728 427.389 75.8232 425.181 73.9096C422.973 71.9224 419.698 70.9288 415.355 70.9288H400.341V92.8984ZM453.104 137.5V60.22H466.352V137.5H453.104ZM535.892 138.825C528.605 138.825 522.202 137.169 516.682 133.857C511.236 130.545 507.004 125.945 503.986 120.057C500.968 114.095 499.46 107.14 499.46 99.1912C499.46 91.316 501.005 84.3608 504.096 78.3256C507.188 72.2168 511.604 67.4696 517.344 64.084C523.159 60.6248 530.04 58.8952 537.989 58.8952C546.968 58.8952 554.402 61.0664 560.29 65.4088C566.252 69.6776 570.116 75.6392 571.882 83.2936H556.978C555.874 79.4664 553.703 76.4856 550.464 74.3512C547.226 72.2168 543.031 71.1496 537.879 71.1496C532.653 71.1496 528.164 72.2904 524.41 74.572C520.73 76.78 517.896 80.0184 515.909 84.2872C513.996 88.4824 513.039 93.4872 513.039 99.3016C513.039 105.116 513.996 110.121 515.909 114.316C517.896 118.511 520.693 121.713 524.3 123.921C527.906 126.055 532.138 127.122 536.996 127.122C544.208 127.122 549.655 125.098 553.335 121.05C557.015 117.002 559.186 111.74 559.848 105.263H539.866V95.2168H573.207V137.5H561.063L559.959 126.902C558.266 129.404 556.316 131.575 554.108 133.415C551.9 135.182 549.287 136.543 546.269 137.5C543.325 138.383 539.866 138.825 535.892 138.825ZM609.8 138.825C604.28 138.825 599.422 137.647 595.227 135.292C591.032 132.863 587.757 129.478 585.402 125.135C583.046 120.793 581.869 115.788 581.869 110.121C581.869 104.233 583.01 99.0808 585.291 94.6648C587.646 90.2488 590.922 86.7896 595.117 84.2872C599.386 81.7848 604.317 80.5336 609.91 80.5336C615.357 80.5336 620.104 81.748 624.152 84.1768C628.2 86.6056 631.328 89.8808 633.536 94.0024C635.744 98.0504 636.848 102.614 636.848 107.692C636.848 108.428 636.848 109.238 636.848 110.121C636.848 111.004 636.774 111.924 636.627 112.881H591.363V104.38H623.49C623.342 100.332 621.981 97.1672 619.405 94.8856C616.829 92.5304 613.627 91.3528 609.8 91.3528C607.077 91.3528 604.574 91.9784 602.293 93.2296C600.011 94.4808 598.208 96.3576 596.883 98.86C595.558 101.289 594.896 104.38 594.896 108.134V111.335C594.896 114.794 595.522 117.775 596.773 120.278C598.098 122.78 599.864 124.694 602.072 126.018C604.354 127.27 606.893 127.895 609.69 127.895C612.781 127.895 615.32 127.233 617.307 125.908C619.368 124.583 620.877 122.817 621.834 120.609H635.302C634.272 124.068 632.579 127.196 630.224 129.993C627.869 132.716 624.962 134.887 621.502 136.506C618.043 138.052 614.142 138.825 609.8 138.825ZM645.768 137.5V81.8584H657.47L658.464 91.132C660.157 87.8936 662.586 85.3176 665.75 83.404C668.915 81.4904 672.669 80.5336 677.011 80.5336C681.501 80.5336 685.328 81.4904 688.493 83.404C691.658 85.244 694.086 87.9672 695.779 91.5736C697.546 95.18 698.429 99.6696 698.429 105.042V137.5H685.181V106.257C685.181 101.62 684.15 98.0504 682.09 95.548C680.029 93.0456 676.974 91.7944 672.926 91.7944C670.277 91.7944 667.885 92.42 665.75 93.6712C663.69 94.9224 662.034 96.7624 660.782 99.1912C659.605 101.546 659.016 104.417 659.016 107.802V137.5H645.768ZM709.636 137.5V81.8584H722.884V137.5H709.636ZM716.26 73.0264C713.831 73.0264 711.807 72.2904 710.188 70.8184C708.643 69.2728 707.87 67.396 707.87 65.188C707.87 62.9064 708.643 61.0664 710.188 59.668C711.807 58.196 713.831 57.46 716.26 57.46C718.689 57.46 720.676 58.196 722.222 59.668C723.841 61.0664 724.651 62.9064 724.651 65.188C724.651 67.396 723.841 69.2728 722.222 70.8184C720.676 72.2904 718.689 73.0264 716.26 73.0264ZM760.936 138.825C755.416 138.825 750.558 137.647 746.363 135.292C742.168 132.863 738.893 129.478 736.537 125.135C734.182 120.793 733.005 115.788 733.005 110.121C733.005 104.233 734.145 99.0808 736.427 94.6648C738.782 90.2488 742.057 86.7896 746.253 84.2872C750.521 81.7848 755.453 80.5336 761.046 80.5336C766.493 80.5336 771.24 81.748 775.288 84.1768C779.336 86.6056 782.464 89.8808 784.672 94.0024C786.88 98.0504 787.984 102.614 787.984 107.692C787.984 108.428 787.984 109.238 787.984 110.121C787.984 111.004 787.91 111.924 787.763 112.881H742.499V104.38H774.625C774.478 100.332 773.117 97.1672 770.541 94.8856C767.965 92.5304 764.763 91.3528 760.936 91.3528C758.213 91.3528 755.71 91.9784 753.429 93.2296C751.147 94.4808 749.344 96.3576 748.019 98.86C746.694 101.289 746.032 104.38 746.032 108.134V111.335C746.032 114.794 746.657 117.775 747.909 120.278C749.233 122.78 751 124.694 753.208 126.018C755.489 127.27 758.029 127.895 760.825 127.895C763.917 127.895 766.456 127.233 768.443 125.908C770.504 124.583 772.013 122.817 772.969 120.609H786.438C785.408 124.068 783.715 127.196 781.36 129.993C779.005 132.716 776.097 134.887 772.638 136.506C769.179 138.052 765.278 138.825 760.936 138.825Z" fill="#1B3139"/>
</svg>
