<svg width="150" height="150" viewBox="0 0 150 150" fill="none" xmlns="http://www.w3.org/2000/svg">
<g clip-path="url(#clip0_1_1987)">
<path d="M31.8 75C31.8 56.2001 43.9 39.6 61.8 33.8L63 30.3C38.3 37 23.7 62.4 30.4 87C34.7 103.1 47.4 115.6 63.5 119.8V116.7C44.7 111.5 31.7 94.5 31.8 75Z" fill="white"/>
<path d="M105.1 64.5999H80V8.19995L44.9 85.4H70V141.8L105.1 64.5999ZM77 22V64.5999H70V75.1H73V67.5999H100.4L73 128V85.4H80V74.9H77V82.4H49.6L77 22Z" fill="white"/>
<path d="M118.2 75C118.2 93.8 106.1 110.4 88.2 116.2L87 119.7C111.7 113.1 126.3 87.7 119.6 63.1C115.3 47 102.6 34.5 86.5 30.3V33.4001C105.3 38.5001 118.3 55.5 118.2 75Z" fill="white"/>
<path d="M19.4 74.7C19.3 47.1 39.6 23.7 66.9 19.7L68 16.5C35.8 20.4 12.9 49.6 16.8 81.8C19.8 106.9 38.7 127.3 63.5 132.3V129.2C37.7 123.7 19.3 101 19.4 74.7Z" fill="white"/>
<path d="M86.5 17.2V20.2999C116.6 26.6999 135.8 56.2 129.4 86.3C124.6 109 106.3 126.3 83.3 129.8L82.1 133C114.2 129 137.1 99.7999 133.1 67.5999C130.1 42.3999 111.3 22.1 86.5 17.2Z" fill="white"/>
</g>
<defs>
<clipPath id="clip0_1_1987">
<rect width="150" height="150" fill="white"/>
</clipPath>
</defs>
</svg>
