<svg width="150" height="150" viewBox="0 0 150 150" fill="none" xmlns="http://www.w3.org/2000/svg">
<path d="M129.2 68.0999V44.7999L75 16.7L20.8 44.7999V68.0999L75 96.2L112.7 76.6999L126.2 83.7V103.4L75 129.9L23.8 103.4V85.3L75 111.8L120.5 88.2V84.8L75 108.4L25.5 82.8L33 78.9L29.7001 77.1999L20.8 81.8999V105.2L75 133.3L129.2 105.2V81.8999L112.7 73.3L75 92.8L23.8 66.3V46.5999L75 20.1L124.5 45.7L75 71.4L29.5 47.7999V51.2L75 74.6999L126.2 48.2V66.3L118.1 70.5L121.3 72.1999L129.2 68.0999Z" fill="#FF5F46"/>
<path d="M120.5 98.4V95L98.3 106.5V109.9L120.5 98.4Z" fill="#FF5F46"/>
<path d="M98.3 69.6V73L120.5 61.5V58.1L98.3 69.6Z" fill="#FF5F46"/>
<path d="M90.3 111.3C90.3 112.5 91.2 113.4 92.4 113.4C93.6 113.4 94.5 112.5 94.5 111.3C94.5 110.1 93.6 109.2 92.4 109.2C91.3 109.1 90.3 110.1 90.3 111.3Z" fill="#FF5F46"/>
<path d="M90.3 73.7C90.3 74.9 91.2 75.8 92.4 75.8C93.6 75.8 94.5 74.9 94.5 73.7C94.5 72.5 93.6 71.6 92.4 71.6C91.3 71.6 90.3 72.6 90.3 73.7Z" fill="#FF5F46"/>
</svg>
