<svg width="1846" height="300" viewBox="0 0 1846 300" fill="none" xmlns="http://www.w3.org/2000/svg">
<path d="M263.199 117.105L224.357 117.105L113.757 251.953L37.5 251.953L37.5 181.598L86.7008 181.598L197.301 46.875L263.25 46.875L263.199 117.105Z" fill="#FF5F46"/>
<path d="M214.051 181.599L263.251 181.599L263.251 251.953L186.994 251.953L165.148 225.318L207.525 173.65L214.051 181.599ZM103.45 46.875L135.597 86.0332L93.2334 137.636L76.3945 117.104L37.5527 117.104L37.502 46.875L103.45 46.875Z" fill="#FABFBA"/>
<path d="M340.501 138V60.72H360.373C369.352 60.72 376.749 62.3024 382.563 65.4672C388.451 68.5584 392.794 73.0112 395.59 78.8256C398.461 84.5664 399.896 91.4848 399.896 99.5808C399.896 107.53 398.461 114.374 395.59 120.115C392.794 125.856 388.451 130.272 382.563 133.363C376.749 136.454 369.352 138 360.373 138H340.501ZM349.774 130.272H360.152C367.586 130.272 373.51 129.058 377.926 126.629C382.342 124.126 385.507 120.594 387.421 116.03C389.334 111.394 390.291 105.91 390.291 99.5808C390.291 93.104 389.334 87.5472 387.421 82.9104C385.507 78.2736 382.342 74.704 377.926 72.2016C373.51 69.6992 367.586 68.448 360.152 68.448H349.774V130.272ZM427.945 139.325C423.529 139.325 419.849 138.515 416.905 136.896C413.961 135.203 411.753 132.995 410.281 130.272C408.809 127.475 408.073 124.494 408.073 121.33C408.073 117.502 409.029 114.264 410.943 111.614C412.93 108.891 415.69 106.83 419.223 105.432C422.756 104.034 426.877 103.334 431.588 103.334H446.05C446.05 99.5808 445.609 96.4528 444.725 93.9504C443.842 91.448 442.407 89.5712 440.42 88.32C438.433 87.0688 435.783 86.4432 432.471 86.4432C429.159 86.4432 426.325 87.2896 423.97 88.9824C421.615 90.6016 420.143 93.0304 419.554 96.2688H410.06C410.501 92.4416 411.789 89.24 413.924 86.664C416.058 84.0144 418.745 82.0272 421.983 80.7024C425.295 79.304 428.791 78.6048 432.471 78.6048C437.697 78.6048 442.002 79.5616 445.388 81.4752C448.773 83.3152 451.276 85.928 452.895 89.3136C454.514 92.6256 455.324 96.5632 455.324 101.126V138H447.044L446.492 128.064C445.756 129.61 444.799 131.082 443.621 132.48C442.517 133.805 441.193 134.982 439.647 136.013C438.101 137.043 436.335 137.853 434.348 138.442C432.434 139.03 430.3 139.325 427.945 139.325ZM429.269 131.486C431.698 131.486 433.943 130.934 436.004 129.83C438.065 128.726 439.831 127.254 441.303 125.414C442.849 123.501 444.026 121.366 444.836 119.011C445.645 116.656 446.05 114.19 446.05 111.614V110.51H432.361C428.901 110.51 426.068 110.952 423.86 111.835C421.725 112.718 420.18 113.97 419.223 115.589C418.266 117.134 417.788 118.901 417.788 120.888C417.788 123.022 418.229 124.899 419.113 126.518C419.996 128.064 421.284 129.278 422.977 130.162C424.743 131.045 426.841 131.486 429.269 131.486ZM488.345 138C485.033 138 482.163 137.485 479.734 136.454C477.305 135.424 475.429 133.694 474.104 131.266C472.853 128.763 472.227 125.414 472.227 121.219V87.768H462.07V79.9296H472.227L473.441 65.4672H481.501V79.9296H497.95V87.768H481.501V121.219C481.501 124.678 482.2 127.034 483.598 128.285C484.997 129.462 487.462 130.051 490.995 130.051H497.729V138H488.345ZM525.467 139.325C521.051 139.325 517.371 138.515 514.427 136.896C511.483 135.203 509.275 132.995 507.803 130.272C506.331 127.475 505.595 124.494 505.595 121.33C505.595 117.502 506.552 114.264 508.466 111.614C510.453 108.891 513.213 106.83 516.746 105.432C520.279 104.034 524.4 103.334 529.111 103.334H543.573C543.573 99.5808 543.131 96.4528 542.248 93.9504C541.365 91.448 539.93 89.5712 537.943 88.32C535.955 87.0688 533.306 86.4432 529.994 86.4432C526.682 86.4432 523.848 87.2896 521.493 88.9824C519.138 90.6016 517.666 93.0304 517.077 96.2688H507.583C508.024 92.4416 509.312 89.24 511.447 86.664C513.581 84.0144 516.267 82.0272 519.506 80.7024C522.818 79.304 526.314 78.6048 529.994 78.6048C535.219 78.6048 539.525 79.5616 542.911 81.4752C546.296 83.3152 548.799 85.928 550.418 89.3136C552.037 92.6256 552.847 96.5632 552.847 101.126V138H544.567L544.015 128.064C543.279 129.61 542.322 131.082 541.144 132.48C540.04 133.805 538.715 134.982 537.17 136.013C535.624 137.043 533.858 137.853 531.871 138.442C529.957 139.03 527.823 139.325 525.467 139.325ZM526.792 131.486C529.221 131.486 531.466 130.934 533.527 129.83C535.587 128.726 537.354 127.254 538.826 125.414C540.371 123.501 541.549 121.366 542.359 119.011C543.168 116.656 543.573 114.19 543.573 111.614V110.51H529.883C526.424 110.51 523.591 110.952 521.383 111.835C519.248 112.718 517.703 113.97 516.746 115.589C515.789 117.134 515.311 118.901 515.311 120.888C515.311 123.022 515.752 124.899 516.635 126.518C517.519 128.064 518.807 129.278 520.499 130.162C522.266 131.045 524.363 131.486 526.792 131.486ZM593.781 139.325C590.248 139.325 587.194 138.81 584.618 137.779C582.115 136.675 579.981 135.314 578.214 133.694C576.522 132.075 575.123 130.493 574.019 128.947L573.246 138H564.856V58.512H574.13V89.0928C575.896 85.6336 578.509 83.0208 581.968 81.2544C585.427 79.488 589.291 78.6048 593.56 78.6048C598.859 78.6048 603.496 79.8928 607.47 82.4688C611.445 85.0448 614.536 88.6144 616.744 93.1776C618.952 97.6672 620.056 102.856 620.056 108.744C620.056 114.558 618.952 119.784 616.744 124.421C614.536 129.058 611.445 132.701 607.47 135.35C603.57 138 599.006 139.325 593.781 139.325ZM592.566 131.266C596.026 131.266 599.08 130.382 601.73 128.616C604.453 126.776 606.587 124.2 608.133 120.888C609.752 117.502 610.562 113.528 610.562 108.965C610.562 104.402 609.752 100.464 608.133 97.152C606.587 93.7664 604.453 91.1904 601.73 89.424C599.08 87.584 596.026 86.664 592.566 86.664C588.886 86.664 585.685 87.584 582.962 89.424C580.238 91.1904 578.141 93.7664 576.669 97.152C575.197 100.464 574.461 104.402 574.461 108.965C574.461 113.528 575.197 117.502 576.669 120.888C578.141 124.2 580.238 126.776 582.962 128.616C585.685 130.382 588.886 131.266 592.566 131.266ZM630.221 138V79.9296H638.611L639.273 90.528C640.598 87.8784 642.328 85.6704 644.462 83.904C646.597 82.1376 649.173 80.8128 652.19 79.9296C655.281 79.0464 658.741 78.6048 662.568 78.6048V88.32H656.827C654.619 88.32 652.485 88.6144 650.424 89.2032C648.363 89.792 646.486 90.7488 644.793 92.0736C643.174 93.3984 641.886 95.2016 640.929 97.4832C639.973 99.7648 639.494 102.635 639.494 106.094V138H630.221ZM670.809 138V79.9296H680.083V138H670.809ZM675.446 68.8896C673.606 68.8896 672.06 68.3008 670.809 67.1232C669.631 65.872 669.043 64.3264 669.043 62.4864C669.043 60.6464 669.631 59.1744 670.809 58.0704C672.06 56.8928 673.606 56.304 675.446 56.304C677.212 56.304 678.721 56.8928 679.972 58.0704C681.223 59.1744 681.849 60.6464 681.849 62.4864C681.849 64.3264 681.223 65.872 679.972 67.1232C678.721 68.3008 677.212 68.8896 675.446 68.8896ZM718.304 139.325C713.005 139.325 708.295 138.074 704.173 135.571C700.051 132.995 696.813 129.426 694.458 124.862C692.103 120.299 690.925 115 690.925 108.965C690.925 102.856 692.103 97.5568 694.458 93.0672C696.813 88.504 700.051 84.9712 704.173 82.4688C708.295 79.8928 713.005 78.6048 718.304 78.6048C724.928 78.6048 730.448 80.3712 734.864 83.904C739.354 87.4368 742.224 92.184 743.475 98.1456H733.981C733.171 94.4656 731.295 91.632 728.351 89.6448C725.48 87.584 722.095 86.5536 718.194 86.5536C714.808 86.5536 711.754 87.4 709.031 89.0928C706.381 90.7856 704.283 93.288 702.738 96.6C701.192 99.912 700.419 104.034 700.419 108.965C700.419 112.645 700.861 115.92 701.744 118.79C702.627 121.587 703.842 123.942 705.387 125.856C707.007 127.696 708.883 129.094 711.018 130.051C713.226 131.008 715.618 131.486 718.194 131.486C720.843 131.486 723.235 131.045 725.37 130.162C727.578 129.205 729.418 127.843 730.89 126.077C732.435 124.31 733.466 122.213 733.981 119.784H743.475C742.298 125.598 739.427 130.309 734.864 133.915C730.375 137.522 724.855 139.325 718.304 139.325ZM787.762 138L761.377 106.646L786.217 79.9296H797.588L769.215 109.958L769.325 103.334L799.575 138H787.762ZM753.649 138V58.512H762.922V138H753.649ZM823.817 139.325C818.592 139.325 814.249 138.552 810.79 137.006C807.405 135.387 804.829 133.179 803.062 130.382C801.296 127.512 800.229 124.2 799.861 120.446H809.355C809.649 122.434 810.312 124.274 811.342 125.966C812.446 127.586 814.029 128.91 816.089 129.941C818.15 130.971 820.763 131.486 823.928 131.486C826.43 131.486 828.565 131.118 830.331 130.382C832.097 129.573 833.422 128.469 834.305 127.07C835.262 125.672 835.741 124.053 835.741 122.213C835.741 119.784 835.189 117.907 834.085 116.582C833.054 115.184 831.509 114.154 829.448 113.491C827.461 112.755 824.958 112.203 821.941 111.835C818.702 111.394 815.832 110.768 813.329 109.958C810.827 109.149 808.693 108.082 806.926 106.757C805.233 105.432 803.945 103.776 803.062 101.789C802.179 99.8016 801.737 97.4464 801.737 94.7232C801.737 91.5584 802.584 88.7616 804.277 86.3328C805.969 83.904 808.361 82.0272 811.453 80.7024C814.617 79.304 818.334 78.6048 822.603 78.6048C828.859 78.6048 833.79 80.04 837.397 82.9104C841.077 85.7808 843.248 89.8656 843.91 95.1648H834.747C834.379 92.4416 833.128 90.3072 830.993 88.7616C828.859 87.216 826.025 86.4432 822.493 86.4432C818.739 86.4432 815.905 87.1424 813.992 88.5408C812.078 89.9392 811.121 91.7792 811.121 94.0608C811.121 95.7536 811.526 97.2992 812.336 98.6976C813.219 100.022 814.691 101.163 816.752 102.12C818.813 103.003 821.573 103.666 825.032 104.107C829.374 104.622 833.054 105.469 836.072 106.646C839.089 107.75 841.371 109.48 842.917 111.835C844.536 114.19 845.309 117.392 845.235 121.44C845.235 125.267 844.315 128.506 842.475 131.155C840.709 133.805 838.206 135.829 834.968 137.227C831.803 138.626 828.086 139.325 823.817 139.325ZM339.838 237V159.72H353.086V226.622H387.531V237H339.838ZM415.223 238.325C410.659 238.325 406.869 237.552 403.851 236.006C400.834 234.461 398.589 232.4 397.117 229.824C395.645 227.248 394.909 224.451 394.909 221.434C394.909 217.901 395.792 214.846 397.559 212.27C399.399 209.694 402.085 207.707 405.618 206.309C409.151 204.837 413.493 204.101 418.645 204.101H432.666C432.666 201.157 432.261 198.728 431.451 196.814C430.642 194.827 429.391 193.355 427.698 192.398C426.005 191.442 423.834 190.963 421.184 190.963C418.167 190.963 415.591 191.662 413.456 193.061C411.322 194.386 409.997 196.446 409.482 199.243H396.455C396.896 195.269 398.221 191.883 400.429 189.086C402.637 186.216 405.544 184.008 409.151 182.462C412.831 180.843 416.842 180.034 421.184 180.034C426.41 180.034 430.863 180.954 434.543 182.794C438.223 184.56 441.019 187.136 442.933 190.522C444.92 193.834 445.914 197.845 445.914 202.555V237H434.653L433.328 228.058C432.592 229.53 431.635 230.891 430.458 232.142C429.354 233.394 428.066 234.498 426.594 235.454C425.122 236.338 423.429 237.037 421.515 237.552C419.675 238.067 417.578 238.325 415.223 238.325ZM418.203 227.837C420.338 227.837 422.215 227.469 423.834 226.733C425.527 225.923 426.962 224.819 428.139 223.421C429.391 221.949 430.347 220.33 431.01 218.563C431.672 216.797 432.114 214.92 432.335 212.933V212.712H420.08C417.504 212.712 415.37 213.043 413.677 213.706C411.984 214.294 410.77 215.178 410.034 216.355C409.298 217.533 408.93 218.894 408.93 220.44C408.93 221.986 409.298 223.31 410.034 224.414C410.77 225.518 411.837 226.365 413.235 226.954C414.634 227.542 416.29 227.837 418.203 227.837ZM492.637 237L468.018 206.53L490.098 181.358H505.885L478.396 211.939V201.672L509.197 237H492.637ZM456.757 237V157.512H470.005V237H456.757ZM536.425 238.325C530.905 238.325 526.047 237.147 521.852 234.792C517.657 232.363 514.381 228.978 512.026 224.635C509.671 220.293 508.493 215.288 508.493 209.621C508.493 203.733 509.634 198.581 511.916 194.165C514.271 189.749 517.546 186.29 521.741 183.787C526.01 181.285 530.941 180.034 536.535 180.034C541.981 180.034 546.729 181.248 550.777 183.677C554.825 186.106 557.953 189.381 560.161 193.502C562.369 197.55 563.473 202.114 563.473 207.192C563.473 207.928 563.473 208.738 563.473 209.621C563.473 210.504 563.399 211.424 563.252 212.381H517.988V203.88H550.114C549.967 199.832 548.605 196.667 546.029 194.386C543.453 192.03 540.252 190.853 536.425 190.853C533.701 190.853 531.199 191.478 528.917 192.73C526.636 193.981 524.833 195.858 523.508 198.36C522.183 200.789 521.521 203.88 521.521 207.634V210.835C521.521 214.294 522.146 217.275 523.397 219.778C524.722 222.28 526.489 224.194 528.697 225.518C530.978 226.77 533.517 227.395 536.314 227.395C539.405 227.395 541.945 226.733 543.932 225.408C545.993 224.083 547.501 222.317 548.458 220.109H561.927C560.897 223.568 559.204 226.696 556.849 229.493C554.493 232.216 551.586 234.387 548.127 236.006C544.668 237.552 540.767 238.325 536.425 238.325ZM575.153 237V175.286C575.153 171.018 575.852 167.595 577.25 165.019C578.722 162.37 580.82 160.456 583.543 159.278C586.266 158.101 589.505 157.512 593.258 157.512H599.882V168.773H595.245C592.817 168.773 591.05 169.288 589.946 170.318C588.916 171.275 588.401 172.968 588.401 175.397V237H575.153ZM567.204 192.509V181.358H600.986V192.509H567.204ZM612.357 237V157.512H625.605V237H612.357ZM663.054 238.325C657.755 238.325 652.971 237.11 648.702 234.682C644.507 232.179 641.195 228.757 638.766 224.414C636.411 219.998 635.233 214.957 635.233 209.29C635.233 203.475 636.448 198.397 638.877 194.054C641.305 189.638 644.617 186.216 648.813 183.787C653.081 181.285 657.865 180.034 663.165 180.034C668.464 180.034 673.211 181.285 677.406 183.787C681.675 186.216 684.987 189.602 687.342 193.944C689.771 198.286 690.985 203.365 690.985 209.179C690.985 214.994 689.771 220.072 687.342 224.414C684.913 228.757 681.565 232.179 677.296 234.682C673.101 237.11 668.353 238.325 663.054 238.325ZM663.054 226.954C665.704 226.954 668.096 226.291 670.23 224.966C672.438 223.642 674.205 221.654 675.529 219.005C676.854 216.355 677.517 213.08 677.517 209.179C677.517 205.278 676.854 202.04 675.529 199.464C674.278 196.814 672.549 194.827 670.341 193.502C668.206 192.178 665.814 191.515 663.165 191.515C660.589 191.515 658.197 192.178 655.989 193.502C653.781 194.827 652.014 196.814 650.689 199.464C649.365 202.04 648.702 205.278 648.702 209.179C648.702 213.08 649.365 216.355 650.689 219.005C652.014 221.654 653.744 223.642 655.878 224.966C658.086 226.291 660.478 226.954 663.054 226.954ZM709.741 237L693.402 181.358H706.54L717.911 227.064L715.482 226.954L728.178 181.358H742.972L755.778 226.954H753.349L764.721 181.358H777.858L761.519 237H747.829L734.25 189.859H737.01L723.431 237H709.741ZM808.094 237V159.72H833.044C842.024 159.72 849.42 161.302 855.235 164.467C861.123 167.632 865.465 172.122 868.262 177.936C871.132 183.677 872.568 190.522 872.568 198.47C872.568 206.272 871.132 213.08 868.262 218.894C865.465 224.635 861.123 229.088 855.235 232.253C849.42 235.418 842.024 237 833.044 237H808.094ZM821.342 225.739H832.382C839.08 225.739 844.342 224.672 848.169 222.538C852.07 220.33 854.83 217.202 856.449 213.154C858.142 209.032 858.988 204.138 858.988 198.47C858.988 192.73 858.142 187.835 856.449 183.787C854.83 179.666 852.07 176.501 848.169 174.293C844.342 172.011 839.08 170.87 832.382 170.87H821.342V225.739ZM907.804 238.325C902.284 238.325 897.427 237.147 893.231 234.792C889.036 232.363 885.761 228.978 883.406 224.635C881.051 220.293 879.873 215.288 879.873 209.621C879.873 203.733 881.014 198.581 883.295 194.165C885.651 189.749 888.926 186.29 893.121 183.787C897.39 181.285 902.321 180.034 907.915 180.034C913.361 180.034 918.108 181.248 922.156 183.677C926.204 186.106 929.332 189.381 931.54 193.502C933.748 197.55 934.852 202.114 934.852 207.192C934.852 207.928 934.852 208.738 934.852 209.621C934.852 210.504 934.779 211.424 934.631 212.381H889.367V203.88H921.494C921.347 199.832 919.985 196.667 917.409 194.386C914.833 192.03 911.631 190.853 907.804 190.853C905.081 190.853 902.579 191.478 900.297 192.73C898.015 193.981 896.212 195.858 894.887 198.36C893.563 200.789 892.9 203.88 892.9 207.634V210.835C892.9 214.294 893.526 217.275 894.777 219.778C896.102 222.28 897.868 224.194 900.076 225.518C902.358 226.77 904.897 227.395 907.694 227.395C910.785 227.395 913.324 226.733 915.311 225.408C917.372 224.083 918.881 222.317 919.838 220.109H933.307C932.276 223.568 930.583 226.696 928.228 229.493C925.873 232.216 922.966 234.387 919.507 236.006C916.047 237.552 912.147 238.325 907.804 238.325ZM970.158 238.325C964.711 238.325 959.817 237.11 955.475 234.682C951.206 232.179 947.857 228.757 945.428 224.414C943.073 219.998 941.895 214.994 941.895 209.4C941.895 203.586 943.073 198.507 945.428 194.165C947.857 189.749 951.206 186.29 955.475 183.787C959.817 181.285 964.748 180.034 970.268 180.034C977.187 180.034 983.001 181.874 987.711 185.554C992.422 189.16 995.439 194.128 996.764 200.458H982.854C982.118 197.661 980.572 195.453 978.217 193.834C975.935 192.214 973.212 191.405 970.047 191.405C967.324 191.405 964.822 192.104 962.54 193.502C960.332 194.901 958.566 196.925 957.241 199.574C955.99 202.224 955.364 205.426 955.364 209.179C955.364 212.05 955.732 214.589 956.468 216.797C957.204 219.005 958.235 220.882 959.559 222.427C960.958 223.899 962.54 225.04 964.307 225.85C966.073 226.659 967.987 227.064 970.047 227.064C972.182 227.064 974.095 226.733 975.788 226.07C977.555 225.334 979.027 224.267 980.204 222.869C981.455 221.47 982.339 219.814 982.854 217.901H996.764C995.439 224.083 992.422 229.051 987.711 232.805C983.001 236.485 977.15 238.325 970.158 238.325ZM1006.23 237V157.512H1019.47V237H1006.23ZM1049.49 238.325C1044.93 238.325 1041.14 237.552 1038.12 236.006C1035.1 234.461 1032.86 232.4 1031.39 229.824C1029.91 227.248 1029.18 224.451 1029.18 221.434C1029.18 217.901 1030.06 214.846 1031.83 212.27C1033.67 209.694 1036.35 207.707 1039.89 206.309C1043.42 204.837 1047.76 204.101 1052.91 204.101H1066.94C1066.94 201.157 1066.53 198.728 1065.72 196.814C1064.91 194.827 1063.66 193.355 1061.97 192.398C1060.27 191.442 1058.1 190.963 1055.45 190.963C1052.44 190.963 1049.86 191.662 1047.73 193.061C1045.59 194.386 1044.27 196.446 1043.75 199.243H1030.72C1031.17 195.269 1032.49 191.883 1034.7 189.086C1036.91 186.216 1039.81 184.008 1043.42 182.462C1047.1 180.843 1051.11 180.034 1055.45 180.034C1060.68 180.034 1065.13 180.954 1068.81 182.794C1072.49 184.56 1075.29 187.136 1077.2 190.522C1079.19 193.834 1080.18 197.845 1080.18 202.555V237H1068.92L1067.6 228.058C1066.86 229.53 1065.91 230.891 1064.73 232.142C1063.62 233.394 1062.34 234.498 1060.86 235.454C1059.39 236.338 1057.7 237.037 1055.79 237.552C1053.95 238.067 1051.85 238.325 1049.49 238.325ZM1052.47 227.837C1054.61 227.837 1056.48 227.469 1058.1 226.733C1059.8 225.923 1061.23 224.819 1062.41 223.421C1063.66 221.949 1064.62 220.33 1065.28 218.563C1065.94 216.797 1066.38 214.92 1066.6 212.933V212.712H1054.35C1051.77 212.712 1049.64 213.043 1047.95 213.706C1046.25 214.294 1045.04 215.178 1044.3 216.355C1043.57 217.533 1043.2 218.894 1043.2 220.44C1043.2 221.986 1043.57 223.31 1044.3 224.414C1045.04 225.518 1046.11 226.365 1047.51 226.954C1048.9 227.542 1050.56 227.837 1052.47 227.837ZM1091.03 237V181.358H1102.84L1104.05 191.736C1105.38 189.307 1107.03 187.246 1109.02 185.554C1111.01 183.787 1113.33 182.426 1115.98 181.469C1118.7 180.512 1121.68 180.034 1124.92 180.034V194.054H1120.28C1118.07 194.054 1115.98 194.349 1113.99 194.938C1112 195.453 1110.27 196.336 1108.8 197.587C1107.4 198.765 1106.3 200.421 1105.49 202.555C1104.68 204.616 1104.27 207.229 1104.27 210.394V237H1091.03ZM1150.14 238.325C1145.58 238.325 1141.79 237.552 1138.77 236.006C1135.75 234.461 1133.51 232.4 1132.04 229.824C1130.56 227.248 1129.83 224.451 1129.83 221.434C1129.83 217.901 1130.71 214.846 1132.48 212.27C1134.32 209.694 1137 207.707 1140.54 206.309C1144.07 204.837 1148.41 204.101 1153.56 204.101H1167.58C1167.58 201.157 1167.18 198.728 1166.37 196.814C1165.56 194.827 1164.31 193.355 1162.62 192.398C1160.92 191.442 1158.75 190.963 1156.1 190.963C1153.09 190.963 1150.51 191.662 1148.38 193.061C1146.24 194.386 1144.92 196.446 1144.4 199.243H1131.37C1131.82 195.269 1133.14 191.883 1135.35 189.086C1137.56 186.216 1140.46 184.008 1144.07 182.462C1147.75 180.843 1151.76 180.034 1156.1 180.034C1161.33 180.034 1165.78 180.954 1169.46 182.794C1173.14 184.56 1175.94 187.136 1177.85 190.522C1179.84 193.834 1180.83 197.845 1180.83 202.555V237H1169.57L1168.25 228.058C1167.51 229.53 1166.55 230.891 1165.38 232.142C1164.27 233.394 1162.98 234.498 1161.51 235.454C1160.04 236.338 1158.35 237.037 1156.43 237.552C1154.59 238.067 1152.5 238.325 1150.14 238.325ZM1153.12 227.837C1155.26 227.837 1157.13 227.469 1158.75 226.733C1160.45 225.923 1161.88 224.819 1163.06 223.421C1164.31 221.949 1165.27 220.33 1165.93 218.563C1166.59 216.797 1167.03 214.92 1167.25 212.933V212.712H1155C1152.42 212.712 1150.29 213.043 1148.6 213.706C1146.9 214.294 1145.69 215.178 1144.95 216.355C1144.22 217.533 1143.85 218.894 1143.85 220.44C1143.85 221.986 1144.22 223.31 1144.95 224.414C1145.69 225.518 1146.76 226.365 1148.15 226.954C1149.55 227.542 1151.21 227.837 1153.12 227.837ZM1214.99 237C1211.24 237 1207.96 236.411 1205.17 235.234C1202.44 234.056 1200.31 232.106 1198.76 229.382C1197.22 226.659 1196.44 222.979 1196.44 218.342V192.509H1186.95V181.358H1196.44L1197.99 166.675H1209.69V181.358H1224.82V192.509H1209.69V218.342C1209.69 221.139 1210.28 223.09 1211.46 224.194C1212.71 225.224 1214.77 225.739 1217.64 225.739H1224.49V237H1214.99ZM1234.52 237V181.358H1247.77V237H1234.52ZM1241.14 172.526C1238.72 172.526 1236.69 171.79 1235.07 170.318C1233.53 168.773 1232.75 166.896 1232.75 164.688C1232.75 162.406 1233.53 160.566 1235.07 159.168C1236.69 157.696 1238.72 156.96 1241.14 156.96C1243.57 156.96 1245.56 157.696 1247.11 159.168C1248.73 160.566 1249.54 162.406 1249.54 164.688C1249.54 166.896 1248.73 168.773 1247.11 170.318C1245.56 171.79 1243.57 172.526 1241.14 172.526ZM1275 237L1254.47 181.358H1268.38L1283.06 224.414L1297.74 181.358H1311.43L1290.9 237H1275ZM1340.94 238.325C1335.42 238.325 1330.57 237.147 1326.37 234.792C1322.18 232.363 1318.9 228.978 1316.54 224.635C1314.19 220.293 1313.01 215.288 1313.01 209.621C1313.01 203.733 1314.15 198.581 1316.43 194.165C1318.79 189.749 1322.06 186.29 1326.26 183.787C1330.53 181.285 1335.46 180.034 1341.05 180.034C1346.5 180.034 1351.25 181.248 1355.3 183.677C1359.34 186.106 1362.47 189.381 1364.68 193.502C1366.89 197.55 1367.99 202.114 1367.99 207.192C1367.99 207.928 1367.99 208.738 1367.99 209.621C1367.99 210.504 1367.92 211.424 1367.77 212.381H1322.51V203.88H1354.63C1354.49 199.832 1353.12 196.667 1350.55 194.386C1347.97 192.03 1344.77 190.853 1340.94 190.853C1338.22 190.853 1335.72 191.478 1333.44 192.73C1331.15 193.981 1329.35 195.858 1328.03 198.36C1326.7 200.789 1326.04 203.88 1326.04 207.634V210.835C1326.04 214.294 1326.66 217.275 1327.92 219.778C1329.24 222.28 1331.01 224.194 1333.22 225.518C1335.5 226.77 1338.04 227.395 1340.83 227.395C1343.92 227.395 1346.46 226.733 1348.45 225.408C1350.51 224.083 1352.02 222.317 1352.98 220.109H1366.45C1365.42 223.568 1363.72 226.696 1361.37 229.493C1359.01 232.216 1356.1 234.387 1352.65 236.006C1349.19 237.552 1345.29 238.325 1340.94 238.325ZM1400.99 237V159.72H1428.81C1435 159.72 1440.11 160.787 1444.16 162.922C1448.21 164.982 1451.23 167.779 1453.21 171.312C1455.2 174.845 1456.19 178.893 1456.19 183.456C1456.19 187.725 1455.24 191.662 1453.32 195.269C1451.41 198.802 1448.43 201.672 1444.38 203.88C1440.33 206.014 1435.14 207.082 1428.81 207.082H1414.24V237H1400.99ZM1414.24 196.262H1428.04C1433.27 196.262 1437.02 195.122 1439.3 192.84C1441.58 190.485 1442.72 187.357 1442.72 183.456C1442.72 179.408 1441.58 176.243 1439.3 173.962C1437.02 171.68 1433.27 170.539 1428.04 170.539H1414.24V196.262ZM1464.42 237V181.358H1477.67V237H1464.42ZM1471.04 172.526C1468.62 172.526 1466.59 171.79 1464.97 170.318C1463.43 168.773 1462.65 166.896 1462.65 164.688C1462.65 162.406 1463.43 160.566 1464.97 159.168C1466.59 157.696 1468.62 156.96 1471.04 156.96C1473.47 156.96 1475.46 157.696 1477.01 159.168C1478.63 160.566 1479.43 162.406 1479.43 164.688C1479.43 166.896 1478.63 168.773 1477.01 170.318C1475.46 171.79 1473.47 172.526 1471.04 172.526ZM1489.67 261.288V181.358H1501.48L1502.91 189.418C1504.09 187.798 1505.49 186.29 1507.11 184.891C1508.8 183.419 1510.83 182.242 1513.18 181.358C1515.61 180.475 1518.37 180.034 1521.46 180.034C1526.69 180.034 1531.29 181.322 1535.26 183.898C1539.31 186.474 1542.47 189.97 1544.76 194.386C1547.04 198.728 1548.18 203.696 1548.18 209.29C1548.18 214.883 1547 219.888 1544.64 224.304C1542.36 228.646 1539.2 232.069 1535.15 234.571C1531.18 237.074 1526.61 238.325 1521.46 238.325C1517.27 238.325 1513.59 237.552 1510.42 236.006C1507.33 234.387 1504.83 232.106 1502.91 229.162V261.288H1489.67ZM1518.7 226.843C1521.79 226.843 1524.55 226.107 1526.98 224.635C1529.41 223.163 1531.29 221.102 1532.61 218.453C1534.01 215.803 1534.71 212.749 1534.71 209.29C1534.71 205.757 1534.01 202.666 1532.61 200.016C1531.29 197.366 1529.41 195.306 1526.98 193.834C1524.55 192.362 1521.79 191.626 1518.7 191.626C1515.54 191.626 1512.74 192.362 1510.31 193.834C1507.96 195.306 1506.08 197.366 1504.68 200.016C1503.36 202.666 1502.69 205.72 1502.69 209.179C1502.69 212.712 1503.36 215.803 1504.68 218.453C1506.08 221.029 1507.96 223.09 1510.31 224.635C1512.74 226.107 1515.54 226.843 1518.7 226.843ZM1583.78 238.325C1578.26 238.325 1573.4 237.147 1569.21 234.792C1565.01 232.363 1561.74 228.978 1559.38 224.635C1557.03 220.293 1555.85 215.288 1555.85 209.621C1555.85 203.733 1556.99 198.581 1559.27 194.165C1561.63 189.749 1564.9 186.29 1569.1 183.787C1573.37 181.285 1578.3 180.034 1583.89 180.034C1589.34 180.034 1594.08 181.248 1598.13 183.677C1602.18 186.106 1605.31 189.381 1607.52 193.502C1609.72 197.55 1610.83 202.114 1610.83 207.192C1610.83 207.928 1610.83 208.738 1610.83 209.621C1610.83 210.504 1610.75 211.424 1610.61 212.381H1565.34V203.88H1597.47C1597.32 199.832 1595.96 196.667 1593.38 194.386C1590.81 192.03 1587.61 190.853 1583.78 190.853C1581.06 190.853 1578.55 191.478 1576.27 192.73C1573.99 193.981 1572.19 195.858 1570.86 198.36C1569.54 200.789 1568.88 203.88 1568.88 207.634V210.835C1568.88 214.294 1569.5 217.275 1570.75 219.778C1572.08 222.28 1573.84 224.194 1576.05 225.518C1578.33 226.77 1580.87 227.395 1583.67 227.395C1586.76 227.395 1589.3 226.733 1591.29 225.408C1593.35 224.083 1594.86 222.317 1595.81 220.109H1609.28C1608.25 223.568 1606.56 226.696 1604.2 229.493C1601.85 232.216 1598.94 234.387 1595.48 236.006C1592.02 237.552 1588.12 238.325 1583.78 238.325ZM1619.75 237V157.512H1633V237H1619.75ZM1645.02 237V181.358H1658.27V237H1645.02ZM1651.64 172.526C1649.21 172.526 1647.19 171.79 1645.57 170.318C1644.03 168.773 1643.25 166.896 1643.25 164.688C1643.25 162.406 1644.03 160.566 1645.57 159.168C1647.19 157.696 1649.21 156.96 1651.64 156.96C1654.07 156.96 1656.06 157.696 1657.6 159.168C1659.22 160.566 1660.03 162.406 1660.03 164.688C1660.03 166.896 1659.22 168.773 1657.6 170.318C1656.06 171.79 1654.07 172.526 1651.64 172.526ZM1670.26 237V181.358H1681.97L1682.96 190.632C1684.65 187.394 1687.08 184.818 1690.25 182.904C1693.41 180.99 1697.17 180.034 1701.51 180.034C1706 180.034 1709.82 180.99 1712.99 182.904C1716.15 184.744 1718.58 187.467 1720.28 191.074C1722.04 194.68 1722.93 199.17 1722.93 204.542V237H1709.68V205.757C1709.68 201.12 1708.65 197.55 1706.59 195.048C1704.53 192.546 1701.47 191.294 1697.42 191.294C1694.77 191.294 1692.38 191.92 1690.25 193.171C1688.19 194.422 1686.53 196.262 1685.28 198.691C1684.1 201.046 1683.51 203.917 1683.51 207.302V237H1670.26ZM1759.64 238.325C1754.12 238.325 1749.26 237.147 1745.06 234.792C1740.87 232.363 1737.59 228.978 1735.24 224.635C1732.88 220.293 1731.7 215.288 1731.7 209.621C1731.7 203.733 1732.84 198.581 1735.13 194.165C1737.48 189.749 1740.76 186.29 1744.95 183.787C1749.22 181.285 1754.15 180.034 1759.75 180.034C1765.19 180.034 1769.94 181.248 1773.99 183.677C1778.04 186.106 1781.16 189.381 1783.37 193.502C1785.58 197.55 1786.68 202.114 1786.68 207.192C1786.68 207.928 1786.68 208.738 1786.68 209.621C1786.68 210.504 1786.61 211.424 1786.46 212.381H1741.2V203.88H1773.32C1773.18 199.832 1771.82 196.667 1769.24 194.386C1766.66 192.03 1763.46 190.853 1759.64 190.853C1756.91 190.853 1754.41 191.478 1752.13 192.73C1749.85 193.981 1748.04 195.858 1746.72 198.36C1745.39 200.789 1744.73 203.88 1744.73 207.634V210.835C1744.73 214.294 1745.36 217.275 1746.61 219.778C1747.93 222.28 1749.7 224.194 1751.91 225.518C1754.19 226.77 1756.73 227.395 1759.52 227.395C1762.62 227.395 1765.16 226.733 1767.14 225.408C1769.2 224.083 1770.71 222.317 1771.67 220.109H1785.14C1784.11 223.568 1782.41 226.696 1780.06 229.493C1777.7 232.216 1774.8 234.387 1771.34 236.006C1767.88 237.552 1763.98 238.325 1759.64 238.325ZM1817.79 238.325C1812.86 238.325 1808.56 237.552 1804.88 236.006C1801.27 234.387 1798.4 232.179 1796.27 229.382C1794.2 226.512 1792.99 223.237 1792.62 219.557H1805.87C1806.24 221.102 1806.9 222.538 1807.86 223.862C1808.81 225.114 1810.1 226.107 1811.72 226.843C1813.41 227.579 1815.4 227.947 1817.68 227.947C1819.89 227.947 1821.69 227.653 1823.09 227.064C1824.49 226.402 1825.52 225.555 1826.18 224.525C1826.85 223.494 1827.18 222.39 1827.18 221.213C1827.18 219.446 1826.7 218.085 1825.74 217.128C1824.79 216.171 1823.39 215.435 1821.55 214.92C1819.78 214.331 1817.65 213.779 1815.14 213.264C1812.49 212.749 1809.92 212.123 1807.42 211.387C1804.99 210.578 1802.78 209.584 1800.79 208.406C1798.88 207.229 1797.33 205.72 1796.15 203.88C1795.05 202.04 1794.5 199.795 1794.5 197.146C1794.5 193.907 1795.35 191 1797.04 188.424C1798.8 185.848 1801.31 183.824 1804.55 182.352C1807.86 180.806 1811.79 180.034 1816.36 180.034C1822.83 180.034 1827.99 181.542 1831.81 184.56C1835.71 187.504 1838 191.662 1838.66 197.035H1826.07C1825.71 194.974 1824.67 193.392 1822.98 192.288C1821.29 191.11 1819.04 190.522 1816.25 190.522C1813.38 190.522 1811.17 191.074 1809.62 192.178C1808.15 193.208 1807.42 194.606 1807.42 196.373C1807.42 197.477 1807.86 198.507 1808.74 199.464C1809.7 200.347 1811.06 201.12 1812.83 201.782C1814.59 202.371 1816.76 202.96 1819.34 203.549C1823.46 204.358 1827.1 205.315 1830.27 206.419C1833.43 207.523 1835.94 209.142 1837.78 211.277C1839.62 213.411 1840.54 216.429 1840.54 220.33C1840.61 223.862 1839.69 226.99 1837.78 229.714C1835.94 232.437 1833.32 234.571 1829.94 236.117C1826.55 237.589 1822.5 238.325 1817.79 238.325Z" fill="#1B3139"/>
</svg>
