<svg width="955" height="558" viewBox="0 0 955 558" fill="none" xmlns="http://www.w3.org/2000/svg">
<g filter="url(#filter0_dddddd_1104_10750)">
<path d="M148 116.336C148 77.4903 179.49 46 218.336 46H339.664C378.51 46 410 77.4903 410 116.336V237.664C410 276.51 378.51 308 339.664 308H218.336C179.49 308 148 276.51 148 237.664V116.336Z" fill="white"/>
</g>
<path d="M279.001 194.562C268.989 191.049 257.501 189.041 245.251 189.041C233.002 189.041 221.526 191.049 211.501 194.562V158.679H346.501V194.562C336.476 197.933 325.001 199.859 312.751 199.859C300.884 199.859 289.733 198.051 279.945 194.873L279.001 194.562Z" fill="#FABFBA"/>
<path d="M245.41 202.237C257.221 202.237 268.321 203.953 278.063 206.969L279.94 207.561C289.682 210.576 300.782 212.291 312.593 212.291C324.785 212.291 336.206 210.463 346.184 207.265H346.501V244.5H211.501V207.265H211.819C221.797 204.066 233.217 202.237 245.41 202.237Z" fill="#FF5F46"/>
<rect x="211.501" y="109.5" width="135" height="37.2355" fill="#FABFBA"/>
<path d="M481.838 214.5V137.22H495.086V204.122H529.531V214.5H481.838ZM557.223 215.825C552.659 215.825 548.869 215.052 545.851 213.506C542.834 211.961 540.589 209.9 539.117 207.324C537.645 204.748 536.909 201.951 536.909 198.934C536.909 195.401 537.792 192.346 539.559 189.77C541.399 187.194 544.085 185.207 547.618 183.809C551.151 182.337 555.493 181.601 560.645 181.601H574.666C574.666 178.657 574.261 176.228 573.451 174.314C572.642 172.327 571.391 170.855 569.698 169.898C568.005 168.942 565.834 168.463 563.184 168.463C560.167 168.463 557.591 169.162 555.456 170.561C553.322 171.886 551.997 173.946 551.482 176.743H538.455C538.896 172.769 540.221 169.383 542.429 166.586C544.637 163.716 547.544 161.508 551.151 159.962C554.831 158.343 558.842 157.534 563.184 157.534C568.41 157.534 572.863 158.454 576.543 160.294C580.223 162.06 583.019 164.636 584.933 168.022C586.92 171.334 587.914 175.345 587.914 180.055V214.5H576.653L575.328 205.558C574.592 207.03 573.635 208.391 572.458 209.642C571.354 210.894 570.066 211.998 568.594 212.954C567.122 213.838 565.429 214.537 563.515 215.052C561.675 215.567 559.578 215.825 557.223 215.825ZM560.203 205.337C562.338 205.337 564.215 204.969 565.834 204.233C567.527 203.423 568.962 202.319 570.139 200.921C571.391 199.449 572.347 197.83 573.01 196.063C573.672 194.297 574.114 192.42 574.335 190.433V190.212H562.08C559.504 190.212 557.37 190.543 555.677 191.206C553.984 191.794 552.77 192.678 552.034 193.855C551.298 195.033 550.93 196.394 550.93 197.94C550.93 199.486 551.298 200.81 552.034 201.914C552.77 203.018 553.837 203.865 555.235 204.454C556.634 205.042 558.29 205.337 560.203 205.337ZM634.637 214.5L610.018 184.03L632.098 158.858H647.885L620.396 189.439V179.172L651.197 214.5H634.637ZM598.757 214.5V135.012H612.005V214.5H598.757ZM678.425 215.825C672.905 215.825 668.047 214.647 663.852 212.292C659.657 209.863 656.381 206.478 654.026 202.135C651.671 197.793 650.493 192.788 650.493 187.121C650.493 181.233 651.634 176.081 653.916 171.665C656.271 167.249 659.546 163.79 663.741 161.287C668.01 158.785 672.941 157.534 678.535 157.534C683.981 157.534 688.729 158.748 692.777 161.177C696.825 163.606 699.953 166.881 702.161 171.002C704.369 175.05 705.473 179.614 705.473 184.692C705.473 185.428 705.473 186.238 705.473 187.121C705.473 188.004 705.399 188.924 705.252 189.881H659.988V181.38H692.114C691.967 177.332 690.605 174.167 688.029 171.886C685.453 169.53 682.252 168.353 678.425 168.353C675.701 168.353 673.199 168.978 670.917 170.23C668.636 171.481 666.833 173.358 665.508 175.86C664.183 178.289 663.521 181.38 663.521 185.134V188.335C663.521 191.794 664.146 194.775 665.397 197.278C666.722 199.78 668.489 201.694 670.697 203.018C672.978 204.27 675.517 204.895 678.314 204.895C681.405 204.895 683.945 204.233 685.932 202.908C687.993 201.583 689.501 199.817 690.458 197.609H703.927C702.897 201.068 701.204 204.196 698.849 206.993C696.493 209.716 693.586 211.887 690.127 213.506C686.668 215.052 682.767 215.825 678.425 215.825ZM746.188 215.825C743.244 215.825 740.594 215.42 738.239 214.61C735.884 213.874 733.823 212.844 732.057 211.519C730.29 210.121 728.818 208.538 727.641 206.772L726.205 214.5H714.393V135.012H727.641V167.028C729.407 164.305 731.799 162.06 734.817 160.294C737.834 158.454 741.588 157.534 746.077 157.534C751.303 157.534 755.903 158.822 759.877 161.398C763.925 163.9 767.09 167.359 769.372 171.775C771.727 176.118 772.905 181.122 772.905 186.79C772.905 192.31 771.764 197.278 769.482 201.694C767.201 206.11 764.036 209.569 759.988 212.071C756.013 214.574 751.413 215.825 746.188 215.825ZM743.428 204.343C746.519 204.343 749.279 203.607 751.708 202.135C754.137 200.59 756.013 198.529 757.338 195.953C758.737 193.303 759.436 190.212 759.436 186.679C759.436 183.22 758.737 180.166 757.338 177.516C756.013 174.866 754.137 172.806 751.708 171.334C749.279 169.862 746.519 169.126 743.428 169.126C740.263 169.126 737.466 169.862 735.037 171.334C732.682 172.806 730.805 174.866 729.407 177.516C728.082 180.166 727.42 183.22 727.42 186.679C727.42 190.212 728.082 193.303 729.407 195.953C730.805 198.529 732.682 200.59 735.037 202.135C737.466 203.607 740.263 204.343 743.428 204.343ZM801 215.825C796.436 215.825 792.646 215.052 789.628 213.506C786.611 211.961 784.366 209.9 782.894 207.324C781.422 204.748 780.686 201.951 780.686 198.934C780.686 195.401 781.569 192.346 783.336 189.77C785.176 187.194 787.862 185.207 791.395 183.809C794.928 182.337 799.27 181.601 804.422 181.601H818.443C818.443 178.657 818.038 176.228 817.228 174.314C816.419 172.327 815.168 170.855 813.475 169.898C811.782 168.942 809.611 168.463 806.961 168.463C803.944 168.463 801.368 169.162 799.233 170.561C797.099 171.886 795.774 173.946 795.259 176.743H782.232C782.673 172.769 783.998 169.383 786.206 166.586C788.414 163.716 791.321 161.508 794.928 159.962C798.608 158.343 802.619 157.534 806.961 157.534C812.187 157.534 816.64 158.454 820.32 160.294C824 162.06 826.796 164.636 828.71 168.022C830.697 171.334 831.691 175.345 831.691 180.055V214.5H820.43L819.105 205.558C818.369 207.03 817.412 208.391 816.235 209.642C815.131 210.894 813.843 211.998 812.371 212.954C810.899 213.838 809.206 214.537 807.292 215.052C805.452 215.567 803.355 215.825 801 215.825ZM803.98 205.337C806.115 205.337 807.992 204.969 809.611 204.233C811.304 203.423 812.739 202.319 813.916 200.921C815.168 199.449 816.124 197.83 816.787 196.063C817.449 194.297 817.891 192.42 818.112 190.433V190.212H805.857C803.281 190.212 801.147 190.543 799.454 191.206C797.761 191.794 796.547 192.678 795.811 193.855C795.075 195.033 794.707 196.394 794.707 197.94C794.707 199.486 795.075 200.81 795.811 201.914C796.547 203.018 797.614 203.865 799.012 204.454C800.411 205.042 802.067 205.337 803.98 205.337ZM864.725 215.825C859.793 215.825 855.488 215.052 851.808 213.506C848.201 211.887 845.331 209.679 843.197 206.882C841.136 204.012 839.921 200.737 839.553 197.057H852.801C853.169 198.602 853.832 200.038 854.789 201.362C855.745 202.614 857.033 203.607 858.653 204.343C860.345 205.079 862.333 205.447 864.614 205.447C866.822 205.447 868.625 205.153 870.024 204.564C871.422 203.902 872.453 203.055 873.115 202.025C873.777 200.994 874.109 199.89 874.109 198.713C874.109 196.946 873.63 195.585 872.673 194.628C871.717 193.671 870.318 192.935 868.478 192.42C866.712 191.831 864.577 191.279 862.075 190.764C859.425 190.249 856.849 189.623 854.347 188.887C851.918 188.078 849.71 187.084 847.723 185.906C845.809 184.729 844.264 183.22 843.086 181.38C841.982 179.54 841.43 177.295 841.43 174.646C841.43 171.407 842.277 168.5 843.969 165.924C845.736 163.348 848.238 161.324 851.477 159.852C854.789 158.306 858.726 157.534 863.289 157.534C869.766 157.534 874.918 159.042 878.745 162.06C882.646 165.004 884.928 169.162 885.59 174.535H873.005C872.637 172.474 871.606 170.892 869.913 169.788C868.221 168.61 865.976 168.022 863.179 168.022C860.309 168.022 858.101 168.574 856.555 169.678C855.083 170.708 854.347 172.106 854.347 173.873C854.347 174.977 854.789 176.007 855.672 176.964C856.629 177.847 857.99 178.62 859.757 179.282C861.523 179.871 863.694 180.46 866.27 181.049C870.392 181.858 874.035 182.815 877.2 183.919C880.365 185.023 882.867 186.642 884.707 188.777C886.547 190.911 887.467 193.929 887.467 197.83C887.541 201.362 886.621 204.49 884.707 207.214C882.867 209.937 880.254 212.071 876.869 213.617C873.483 215.089 869.435 215.825 864.725 215.825ZM923.064 215.825C917.544 215.825 912.686 214.647 908.491 212.292C904.296 209.863 901.021 206.478 898.666 202.135C896.31 197.793 895.133 192.788 895.133 187.121C895.133 181.233 896.274 176.081 898.555 171.665C900.91 167.249 904.186 163.79 908.381 161.287C912.65 158.785 917.581 157.534 923.174 157.534C928.621 157.534 933.368 158.748 937.416 161.177C941.464 163.606 944.592 166.881 946.8 171.002C949.008 175.05 950.112 179.614 950.112 184.692C950.112 185.428 950.112 186.238 950.112 187.121C950.112 188.004 950.038 188.924 949.891 189.881H904.627V181.38H936.754C936.606 177.332 935.245 174.167 932.669 171.886C930.093 169.53 926.891 168.353 923.064 168.353C920.341 168.353 917.838 168.978 915.557 170.23C913.275 171.481 911.472 173.358 910.147 175.86C908.822 178.289 908.16 181.38 908.16 185.134V188.335C908.16 191.794 908.786 194.775 910.037 197.278C911.362 199.78 913.128 201.694 915.336 203.018C917.618 204.27 920.157 204.895 922.954 204.895C926.045 204.895 928.584 204.233 930.571 202.908C932.632 201.583 934.141 199.817 935.098 197.609H948.566C947.536 201.068 945.843 204.196 943.488 206.993C941.133 209.716 938.226 211.887 934.766 213.506C931.307 215.052 927.406 215.825 923.064 215.825Z" fill="#1B3139"/>
<defs>
<filter id="filter0_dddddd_1104_10750" x="0.713516" y="0.681084" width="556.573" height="556.573" filterUnits="userSpaceOnUse" color-interpolation-filters="sRGB">
<feFlood flood-opacity="0" result="BackgroundImageFix"/>
<feColorMatrix in="SourceAlpha" type="matrix" values="0 0 0 0 0 0 0 0 0 0 0 0 0 0 0 0 0 0 127 0" result="hardAlpha"/>
<feOffset dy="2.83243"/>
<feGaussianBlur stdDeviation="2.12432"/>
<feColorMatrix type="matrix" values="0 0 0 0 0.105882 0 0 0 0 0.192157 0 0 0 0 0.223529 0 0 0 0.0196802 0"/>
<feBlend mode="normal" in2="BackgroundImageFix" result="effect1_dropShadow_1104_10750"/>
<feColorMatrix in="SourceAlpha" type="matrix" values="0 0 0 0 0 0 0 0 0 0 0 0 0 0 0 0 0 0 127 0" result="hardAlpha"/>
<feOffset dy="5.66487"/>
<feGaussianBlur stdDeviation="5.66487"/>
<feColorMatrix type="matrix" values="0 0 0 0 0.105882 0 0 0 0 0.192157 0 0 0 0 0.223529 0 0 0 0.04 0"/>
<feBlend mode="normal" in2="effect1_dropShadow_1104_10750" result="effect2_dropShadow_1104_10750"/>
<feColorMatrix in="SourceAlpha" type="matrix" values="0 0 0 0 0 0 0 0 0 0 0 0 0 0 0 0 0 0 127 0" result="hardAlpha"/>
<feOffset dy="12.7459"/>
<feGaussianBlur stdDeviation="9.20541"/>
<feColorMatrix type="matrix" values="0 0 0 0 0.105882 0 0 0 0 0.192157 0 0 0 0 0.223529 0 0 0 0.035 0"/>
<feBlend mode="normal" in2="effect2_dropShadow_1104_10750" result="effect3_dropShadow_1104_10750"/>
<feColorMatrix in="SourceAlpha" type="matrix" values="0 0 0 0 0 0 0 0 0 0 0 0 0 0 0 0 0 0 127 0" result="hardAlpha"/>
<feOffset dy="22.6595"/>
<feGaussianBlur stdDeviation="16.9946"/>
<feColorMatrix type="matrix" values="0 0 0 0 0.105882 0 0 0 0 0.192157 0 0 0 0 0.223529 0 0 0 0.04 0"/>
<feBlend mode="normal" in2="effect3_dropShadow_1104_10750" result="effect4_dropShadow_1104_10750"/>
<feColorMatrix in="SourceAlpha" type="matrix" values="0 0 0 0 0 0 0 0 0 0 0 0 0 0 0 0 0 0 127 0" result="hardAlpha"/>
<feOffset dy="45.3189"/>
<feGaussianBlur stdDeviation="28.3243"/>
<feColorMatrix type="matrix" values="0 0 0 0 0.105882 0 0 0 0 0.192157 0 0 0 0 0.223529 0 0 0 0.0503198 0"/>
<feBlend mode="normal" in2="effect4_dropShadow_1104_10750" result="effect5_dropShadow_1104_10750"/>
<feColorMatrix in="SourceAlpha" type="matrix" values="0 0 0 0 0 0 0 0 0 0 0 0 0 0 0 0 0 0 127 0" result="hardAlpha"/>
<feOffset dy="101.968"/>
<feGaussianBlur stdDeviation="73.6432"/>
<feColorMatrix type="matrix" values="0 0 0 0 0.105882 0 0 0 0 0.192157 0 0 0 0 0.223529 0 0 0 0.07 0"/>
<feBlend mode="normal" in2="effect5_dropShadow_1104_10750" result="effect6_dropShadow_1104_10750"/>
<feBlend mode="normal" in="SourceGraphic" in2="effect6_dropShadow_1104_10750" result="shape"/>
</filter>
</defs>
</svg>
