<svg width="1116" height="724" viewBox="0 0 1116 724" fill="none" xmlns="http://www.w3.org/2000/svg">
<g filter="url(#filter0_dddddd_1117_14279)">
<path d="M192 150.383C192 99.9134 232.913 59 283.383 59H441.017C491.487 59 532.4 99.9134 532.4 150.383V308.017C532.4 358.487 491.487 399.4 441.017 399.4H283.383C232.913 399.4 192 358.487 192 308.017V150.383Z" fill="white"/>
</g>
<path d="M380.602 212.891V249.333H343.569V341L472 212.891H380.602ZM252 249.333H343.569V212.891H380.602V121L252 249.333Z" fill="#FF5F46"/>
<path d="M252 249.333H343.569V212.891H380.602V121L252 249.333Z" fill="#FABFBA"/>
<path d="M603.899 217.2V139.92H623.771C632.75 139.92 640.147 141.503 645.962 144.667C651.85 147.759 656.192 152.211 658.989 158.026C661.859 163.767 663.294 170.685 663.294 178.781C663.294 186.73 661.859 193.575 658.989 199.315C656.192 205.056 651.85 209.472 645.962 212.563C640.147 215.655 632.75 217.2 623.771 217.2H603.899ZM613.173 209.472H623.55C630.984 209.472 636.909 208.258 641.325 205.829C645.741 203.327 648.906 199.794 650.819 195.231C652.733 190.594 653.69 185.111 653.69 178.781C653.69 172.304 652.733 166.747 650.819 162.111C648.906 157.474 645.741 153.904 641.325 151.402C636.909 148.899 630.984 147.648 623.55 147.648H613.173V209.472ZM691.343 218.525C686.927 218.525 683.247 217.715 680.303 216.096C677.359 214.403 675.151 212.195 673.679 209.472C672.207 206.675 671.471 203.695 671.471 200.53C671.471 196.703 672.428 193.464 674.341 190.815C676.329 188.091 679.089 186.031 682.621 184.632C686.154 183.234 690.276 182.535 694.986 182.535H709.449C709.449 178.781 709.007 175.653 708.124 173.151C707.241 170.648 705.805 168.771 703.818 167.52C701.831 166.269 699.181 165.643 695.869 165.643C692.557 165.643 689.724 166.49 687.369 168.183C685.013 169.802 683.541 172.231 682.953 175.469H673.458C673.9 171.642 675.188 168.44 677.322 165.864C679.457 163.215 682.143 161.227 685.381 159.903C688.693 158.504 692.189 157.805 695.869 157.805C701.095 157.805 705.401 158.762 708.786 160.675C712.172 162.515 714.674 165.128 716.293 168.514C717.913 171.826 718.722 175.763 718.722 180.327V217.2H710.442L709.89 207.264C709.154 208.81 708.197 210.282 707.02 211.68C705.916 213.005 704.591 214.183 703.045 215.213C701.5 216.243 699.733 217.053 697.746 217.642C695.833 218.231 693.698 218.525 691.343 218.525ZM692.668 210.687C695.097 210.687 697.341 210.135 699.402 209.031C701.463 207.927 703.229 206.455 704.701 204.615C706.247 202.701 707.425 200.567 708.234 198.211C709.044 195.856 709.449 193.391 709.449 190.815V189.711H695.759C692.3 189.711 689.466 190.152 687.258 191.035C685.124 191.919 683.578 193.17 682.621 194.789C681.665 196.335 681.186 198.101 681.186 200.088C681.186 202.223 681.628 204.099 682.511 205.719C683.394 207.264 684.682 208.479 686.375 209.362C688.141 210.245 690.239 210.687 692.668 210.687ZM751.744 217.2C748.432 217.2 745.561 216.685 743.133 215.655C740.704 214.624 738.827 212.895 737.502 210.466C736.251 207.963 735.625 204.615 735.625 200.419V166.968H725.469V159.13H735.625L736.84 144.667H744.899V159.13H761.349V166.968H744.899V200.419C744.899 203.879 745.598 206.234 746.997 207.485C748.395 208.663 750.861 209.251 754.393 209.251H761.128V217.2H751.744ZM788.866 218.525C784.45 218.525 780.77 217.715 777.826 216.096C774.882 214.403 772.674 212.195 771.202 209.472C769.73 206.675 768.994 203.695 768.994 200.53C768.994 196.703 769.951 193.464 771.864 190.815C773.851 188.091 776.611 186.031 780.144 184.632C783.677 183.234 787.799 182.535 792.509 182.535H806.971C806.971 178.781 806.53 175.653 805.647 173.151C804.763 170.648 803.328 168.771 801.341 167.52C799.354 166.269 796.704 165.643 793.392 165.643C790.08 165.643 787.247 166.49 784.891 168.183C782.536 169.802 781.064 172.231 780.475 175.469H770.981C771.423 171.642 772.711 168.44 774.845 165.864C776.979 163.215 779.666 161.227 782.904 159.903C786.216 158.504 789.712 157.805 793.392 157.805C798.618 157.805 802.923 158.762 806.309 160.675C809.695 162.515 812.197 165.128 813.816 168.514C815.435 171.826 816.245 175.763 816.245 180.327V217.2H807.965L807.413 207.264C806.677 208.81 805.72 210.282 804.543 211.68C803.439 213.005 802.114 214.183 800.568 215.213C799.023 216.243 797.256 217.053 795.269 217.642C793.355 218.231 791.221 218.525 788.866 218.525ZM790.191 210.687C792.619 210.687 794.864 210.135 796.925 209.031C798.986 207.927 800.752 206.455 802.224 204.615C803.77 202.701 804.947 200.567 805.757 198.211C806.567 195.856 806.971 193.391 806.971 190.815V189.711H793.282C789.823 189.711 786.989 190.152 784.781 191.035C782.647 191.919 781.101 193.17 780.144 194.789C779.187 196.335 778.709 198.101 778.709 200.088C778.709 202.223 779.151 204.099 780.034 205.719C780.917 207.264 782.205 208.479 783.898 209.362C785.664 210.245 787.762 210.687 790.191 210.687ZM857.179 218.525C853.646 218.525 850.592 218.01 848.016 216.979C845.514 215.875 843.379 214.514 841.613 212.895C839.92 211.275 838.522 209.693 837.418 208.147L836.645 217.2H828.254V137.712H837.528V168.293C839.294 164.834 841.907 162.221 845.366 160.455C848.826 158.688 852.69 157.805 856.958 157.805C862.258 157.805 866.894 159.093 870.869 161.669C874.843 164.245 877.934 167.815 880.142 172.378C882.35 176.867 883.454 182.056 883.454 187.944C883.454 193.759 882.35 198.984 880.142 203.621C877.934 208.258 874.843 211.901 870.869 214.551C866.968 217.2 862.405 218.525 857.179 218.525ZM855.965 210.466C859.424 210.466 862.478 209.583 865.128 207.816C867.851 205.976 869.986 203.4 871.531 200.088C873.15 196.703 873.96 192.728 873.96 188.165C873.96 183.602 873.15 179.664 871.531 176.352C869.986 172.967 867.851 170.391 865.128 168.624C862.478 166.784 859.424 165.864 855.965 165.864C852.285 165.864 849.083 166.784 846.36 168.624C843.637 170.391 841.539 172.967 840.067 176.352C838.595 179.664 837.859 183.602 837.859 188.165C837.859 192.728 838.595 196.703 840.067 200.088C841.539 203.4 843.637 205.976 846.36 207.816C849.083 209.583 852.285 210.466 855.965 210.466ZM893.619 217.2V159.13H902.009L902.672 169.728C903.997 167.079 905.726 164.871 907.861 163.104C909.995 161.338 912.571 160.013 915.589 159.13C918.68 158.247 922.139 157.805 925.966 157.805V167.52H920.225C918.017 167.52 915.883 167.815 913.822 168.403C911.761 168.992 909.885 169.949 908.192 171.274C906.573 172.599 905.285 174.402 904.328 176.683C903.371 178.965 902.893 181.835 902.893 185.295V217.2H893.619ZM934.207 217.2V159.13H943.481V217.2H934.207ZM938.844 148.09C937.004 148.09 935.459 147.501 934.207 146.323C933.03 145.072 932.441 143.527 932.441 141.687C932.441 139.847 933.03 138.375 934.207 137.271C935.459 136.093 937.004 135.504 938.844 135.504C940.611 135.504 942.119 136.093 943.371 137.271C944.622 138.375 945.247 139.847 945.247 141.687C945.247 143.527 944.622 145.072 943.371 146.323C942.119 147.501 940.611 148.09 938.844 148.09ZM981.703 218.525C976.403 218.525 971.693 217.274 967.571 214.771C963.45 212.195 960.211 208.626 957.856 204.063C955.501 199.499 954.323 194.2 954.323 188.165C954.323 182.056 955.501 176.757 957.856 172.267C960.211 167.704 963.45 164.171 967.571 161.669C971.693 159.093 976.403 157.805 981.703 157.805C988.327 157.805 993.847 159.571 998.263 163.104C1002.75 166.637 1005.62 171.384 1006.87 177.346H997.38C996.57 173.666 994.693 170.832 991.749 168.845C988.879 166.784 985.493 165.754 981.592 165.754C978.207 165.754 975.152 166.6 972.429 168.293C969.779 169.986 967.682 172.488 966.136 175.8C964.591 179.112 963.818 183.234 963.818 188.165C963.818 191.845 964.259 195.12 965.143 197.991C966.026 200.787 967.24 203.143 968.786 205.056C970.405 206.896 972.282 208.295 974.416 209.251C976.624 210.208 979.016 210.687 981.592 210.687C984.242 210.687 986.634 210.245 988.768 209.362C990.976 208.405 992.816 207.043 994.288 205.277C995.834 203.511 996.864 201.413 997.38 198.984H1006.87C1005.7 204.799 1002.83 209.509 998.263 213.115C993.773 216.722 988.253 218.525 981.703 218.525ZM1051.16 217.2L1024.78 185.847L1049.62 159.13H1060.99L1032.61 189.159L1032.72 182.535L1062.97 217.2H1051.16ZM1017.05 217.2V137.712H1026.32V217.2H1017.05ZM1087.22 218.525C1081.99 218.525 1077.65 217.752 1074.19 216.207C1070.8 214.587 1068.23 212.379 1066.46 209.583C1064.69 206.712 1063.63 203.4 1063.26 199.647H1072.75C1073.05 201.634 1073.71 203.474 1074.74 205.167C1075.84 206.786 1077.43 208.111 1079.49 209.141C1081.55 210.171 1084.16 210.687 1087.33 210.687C1089.83 210.687 1091.96 210.319 1093.73 209.583C1095.5 208.773 1096.82 207.669 1097.7 206.271C1098.66 204.872 1099.14 203.253 1099.14 201.413C1099.14 198.984 1098.59 197.107 1097.48 195.783C1096.45 194.384 1094.91 193.354 1092.85 192.691C1090.86 191.955 1088.36 191.403 1085.34 191.035C1082.1 190.594 1079.23 189.968 1076.73 189.159C1074.23 188.349 1072.09 187.282 1070.32 185.957C1068.63 184.632 1067.34 182.976 1066.46 180.989C1065.58 179.002 1065.14 176.647 1065.14 173.923C1065.14 170.759 1065.98 167.962 1067.67 165.533C1069.37 163.104 1071.76 161.227 1074.85 159.903C1078.02 158.504 1081.73 157.805 1086 157.805C1092.26 157.805 1097.19 159.24 1100.79 162.111C1104.47 164.981 1106.65 169.066 1107.31 174.365H1098.15C1097.78 171.642 1096.53 169.507 1094.39 167.962C1092.26 166.416 1089.42 165.643 1085.89 165.643C1082.14 165.643 1079.3 166.343 1077.39 167.741C1075.48 169.139 1074.52 170.979 1074.52 173.261C1074.52 174.954 1074.92 176.499 1075.73 177.898C1076.62 179.223 1078.09 180.363 1080.15 181.32C1082.21 182.203 1084.97 182.866 1088.43 183.307C1092.77 183.823 1096.45 184.669 1099.47 185.847C1102.49 186.951 1104.77 188.68 1106.32 191.035C1107.93 193.391 1108.71 196.592 1108.63 200.64C1108.63 204.467 1107.71 207.706 1105.87 210.355C1104.11 213.005 1101.6 215.029 1098.37 216.427C1095.2 217.826 1091.48 218.525 1087.22 218.525ZM603.237 316.2V238.92H631.058C637.24 238.92 642.355 239.987 646.403 242.122C650.451 244.183 653.469 246.979 655.456 250.512C657.443 254.045 658.437 258.093 658.437 262.656C658.437 266.925 657.48 270.863 655.566 274.469C653.653 278.002 650.672 280.872 646.624 283.08C642.576 285.215 637.387 286.282 631.058 286.282H616.485V316.2H603.237ZM616.485 275.463H630.285C635.51 275.463 639.264 274.322 641.546 272.04C643.827 269.685 644.968 266.557 644.968 262.656C644.968 258.608 643.827 255.443 641.546 253.162C639.264 250.88 635.51 249.739 630.285 249.739H616.485V275.463ZM666.111 316.2V236.712H679.359V269.17C681.199 266.152 683.702 263.76 686.867 261.994C690.031 260.154 693.601 259.234 697.575 259.234C702.139 259.234 706.003 260.191 709.167 262.104C712.332 263.944 714.724 266.704 716.343 270.384C718.036 273.991 718.883 278.517 718.883 283.963V316.2H705.745V285.178C705.745 280.394 704.715 276.751 702.654 274.248C700.667 271.746 697.612 270.495 693.491 270.495C690.841 270.495 688.449 271.157 686.315 272.482C684.18 273.733 682.487 275.573 681.236 278.002C679.985 280.357 679.359 283.264 679.359 286.723V316.2H666.111ZM755.587 317.525C750.288 317.525 745.504 316.311 741.235 313.882C737.04 311.379 733.728 307.957 731.299 303.615C728.944 299.199 727.766 294.157 727.766 288.49C727.766 282.675 728.981 277.597 731.41 273.255C733.838 268.839 737.15 265.416 741.346 262.987C745.614 260.485 750.398 259.234 755.698 259.234C760.997 259.234 765.744 260.485 769.939 262.987C774.208 265.416 777.52 268.802 779.875 273.144C782.304 277.487 783.518 282.565 783.518 288.379C783.518 294.194 782.304 299.272 779.875 303.615C777.446 307.957 774.098 311.379 769.829 313.882C765.634 316.311 760.886 317.525 755.587 317.525ZM755.587 306.154C758.237 306.154 760.629 305.491 762.763 304.167C764.971 302.842 766.738 300.855 768.062 298.205C769.387 295.555 770.05 292.28 770.05 288.379C770.05 284.479 769.387 281.24 768.062 278.664C766.811 276.015 765.082 274.027 762.874 272.703C760.739 271.378 758.347 270.715 755.698 270.715C753.122 270.715 750.73 271.378 748.522 272.703C746.314 274.027 744.547 276.015 743.222 278.664C741.898 281.24 741.235 284.479 741.235 288.379C741.235 292.28 741.898 295.555 743.222 298.205C744.547 300.855 746.277 302.842 748.411 304.167C750.619 305.491 753.011 306.154 755.587 306.154ZM815.196 316.2C811.443 316.2 808.167 315.611 805.371 314.434C802.647 313.256 800.513 311.306 798.967 308.583C797.422 305.859 796.649 302.179 796.649 297.543V271.709H787.155V260.559H796.649L798.195 245.875H809.897V260.559H825.022V271.709H809.897V297.543C809.897 300.339 810.486 302.29 811.663 303.394C812.915 304.424 814.975 304.939 817.846 304.939H824.691V316.2H815.196ZM858.716 317.525C853.417 317.525 848.633 316.311 844.364 313.882C840.169 311.379 836.857 307.957 834.428 303.615C832.073 299.199 830.895 294.157 830.895 288.49C830.895 282.675 832.11 277.597 834.539 273.255C836.967 268.839 840.279 265.416 844.475 262.987C848.743 260.485 853.527 259.234 858.827 259.234C864.126 259.234 868.873 260.485 873.068 262.987C877.337 265.416 880.649 268.802 883.004 273.144C885.433 277.487 886.647 282.565 886.647 288.379C886.647 294.194 885.433 299.272 883.004 303.615C880.575 307.957 877.227 311.379 872.958 313.882C868.763 316.311 864.015 317.525 858.716 317.525ZM858.716 306.154C861.366 306.154 863.758 305.491 865.892 304.167C868.1 302.842 869.867 300.855 871.191 298.205C872.516 295.555 873.179 292.28 873.179 288.379C873.179 284.479 872.516 281.24 871.191 278.664C869.94 276.015 868.211 274.027 866.003 272.703C863.868 271.378 861.476 270.715 858.827 270.715C856.251 270.715 853.859 271.378 851.651 272.703C849.443 274.027 847.676 276.015 846.351 278.664C845.027 281.24 844.364 284.479 844.364 288.379C844.364 292.28 845.027 295.555 846.351 298.205C847.676 300.855 849.406 302.842 851.54 304.167C853.748 305.491 856.14 306.154 858.716 306.154ZM896.304 316.2V260.559H908.006L909 269.832C910.693 266.594 913.122 264.018 916.286 262.104C919.451 260.191 923.205 259.234 927.547 259.234C932.037 259.234 935.864 260.191 939.029 262.104C942.194 263.944 944.622 266.667 946.315 270.274C948.082 273.88 948.965 278.37 948.965 283.743V316.2H935.717V284.957C935.717 280.32 934.686 276.751 932.626 274.248C930.565 271.746 927.51 270.495 923.462 270.495C920.813 270.495 918.421 271.12 916.286 272.371C914.226 273.623 912.57 275.463 911.318 277.891C910.141 280.247 909.552 283.117 909.552 286.503V316.2H896.304Z" fill="#1B3139"/>
<defs>
<filter id="filter0_dddddd_1117_14279" x="0.639999" y="0.119995" width="723.118" height="723.12" filterUnits="userSpaceOnUse" color-interpolation-filters="sRGB">
<feFlood flood-opacity="0" result="BackgroundImageFix"/>
<feColorMatrix in="SourceAlpha" type="matrix" values="0 0 0 0 0 0 0 0 0 0 0 0 0 0 0 0 0 0 127 0" result="hardAlpha"/>
<feOffset dy="3.68"/>
<feGaussianBlur stdDeviation="2.76"/>
<feColorMatrix type="matrix" values="0 0 0 0 0.105882 0 0 0 0 0.192157 0 0 0 0 0.223529 0 0 0 0.0196802 0"/>
<feBlend mode="normal" in2="BackgroundImageFix" result="effect1_dropShadow_1117_14279"/>
<feColorMatrix in="SourceAlpha" type="matrix" values="0 0 0 0 0 0 0 0 0 0 0 0 0 0 0 0 0 0 127 0" result="hardAlpha"/>
<feOffset dy="7.36"/>
<feGaussianBlur stdDeviation="7.36"/>
<feColorMatrix type="matrix" values="0 0 0 0 0.105882 0 0 0 0 0.192157 0 0 0 0 0.223529 0 0 0 0.04 0"/>
<feBlend mode="normal" in2="effect1_dropShadow_1117_14279" result="effect2_dropShadow_1117_14279"/>
<feColorMatrix in="SourceAlpha" type="matrix" values="0 0 0 0 0 0 0 0 0 0 0 0 0 0 0 0 0 0 127 0" result="hardAlpha"/>
<feOffset dy="16.56"/>
<feGaussianBlur stdDeviation="11.96"/>
<feColorMatrix type="matrix" values="0 0 0 0 0.105882 0 0 0 0 0.192157 0 0 0 0 0.223529 0 0 0 0.035 0"/>
<feBlend mode="normal" in2="effect2_dropShadow_1117_14279" result="effect3_dropShadow_1117_14279"/>
<feColorMatrix in="SourceAlpha" type="matrix" values="0 0 0 0 0 0 0 0 0 0 0 0 0 0 0 0 0 0 127 0" result="hardAlpha"/>
<feOffset dy="29.44"/>
<feGaussianBlur stdDeviation="22.08"/>
<feColorMatrix type="matrix" values="0 0 0 0 0.105882 0 0 0 0 0.192157 0 0 0 0 0.223529 0 0 0 0.04 0"/>
<feBlend mode="normal" in2="effect3_dropShadow_1117_14279" result="effect4_dropShadow_1117_14279"/>
<feColorMatrix in="SourceAlpha" type="matrix" values="0 0 0 0 0 0 0 0 0 0 0 0 0 0 0 0 0 0 127 0" result="hardAlpha"/>
<feOffset dy="58.88"/>
<feGaussianBlur stdDeviation="36.8"/>
<feColorMatrix type="matrix" values="0 0 0 0 0.105882 0 0 0 0 0.192157 0 0 0 0 0.223529 0 0 0 0.0503198 0"/>
<feBlend mode="normal" in2="effect4_dropShadow_1117_14279" result="effect5_dropShadow_1117_14279"/>
<feColorMatrix in="SourceAlpha" type="matrix" values="0 0 0 0 0 0 0 0 0 0 0 0 0 0 0 0 0 0 127 0" result="hardAlpha"/>
<feOffset dy="132.48"/>
<feGaussianBlur stdDeviation="95.68"/>
<feColorMatrix type="matrix" values="0 0 0 0 0.105882 0 0 0 0 0.192157 0 0 0 0 0.223529 0 0 0 0.07 0"/>
<feBlend mode="normal" in2="effect5_dropShadow_1117_14279" result="effect6_dropShadow_1117_14279"/>
<feBlend mode="normal" in="SourceGraphic" in2="effect6_dropShadow_1117_14279" result="shape"/>
</filter>
</defs>
</svg>
