<svg width="1503" height="724" viewBox="0 0 1503 724" fill="none" xmlns="http://www.w3.org/2000/svg">
<g filter="url(#filter0_dddddd_1117_12241)">
<path d="M192 150.383C192 99.9134 232.913 59 283.383 59H441.017C491.487 59 532.4 99.9134 532.4 150.383V308.017C532.4 358.487 491.487 399.4 441.017 399.4H283.383C232.913 399.4 192 358.487 192 308.017V150.383Z" fill="white"/>
</g>
<path d="M265.998 327.517L265.999 236.371L307.166 236.371L307.166 285.876L356.261 285.876L356.261 327.517L265.998 327.517Z" fill="#FABFBA"/>
<path d="M457.998 135.001L457.997 226.147L416.83 226.147L416.83 176.642L367.735 176.642L367.735 135.001L457.998 135.001Z" fill="#FABFBA"/>
<rect width="68.7021" height="68.7043" transform="matrix(1 0 5.39465e-06 1 266 135)" fill="#FF5F46"/>
<rect width="68.7024" height="68.7043" transform="matrix(1 0 5.39465e-06 1 389.873 258.832)" fill="#FF5F46"/>
<path d="M603.901 217.2V139.92H623.773C632.752 139.92 640.149 141.503 645.964 144.667C651.852 147.759 656.194 152.211 658.991 158.026C661.861 163.767 663.296 170.685 663.296 178.781C663.296 186.73 661.861 193.575 658.991 199.315C656.194 205.056 651.852 209.472 645.964 212.563C640.149 215.655 632.752 217.2 623.773 217.2H603.901ZM613.175 209.472H623.552C630.986 209.472 636.911 208.258 641.327 205.829C645.743 203.327 648.908 199.794 650.821 195.231C652.735 190.594 653.692 185.111 653.692 178.781C653.692 172.304 652.735 166.747 650.821 162.111C648.908 157.474 645.743 153.904 641.327 151.402C636.911 148.899 630.986 147.648 623.552 147.648H613.175V209.472ZM691.345 218.525C686.929 218.525 683.249 217.715 680.305 216.096C677.361 214.403 675.153 212.195 673.681 209.472C672.209 206.675 671.473 203.695 671.473 200.53C671.473 196.703 672.43 193.464 674.343 190.815C676.33 188.091 679.09 186.031 682.623 184.632C686.156 183.234 690.278 182.535 694.988 182.535H709.45C709.45 178.781 709.009 175.653 708.126 173.151C707.242 170.648 705.807 168.771 703.82 167.52C701.833 166.269 699.183 165.643 695.871 165.643C692.559 165.643 689.726 166.49 687.37 168.183C685.015 169.802 683.543 172.231 682.954 175.469H673.46C673.902 171.642 675.19 168.44 677.324 165.864C679.458 163.215 682.145 161.227 685.383 159.903C688.695 158.504 692.191 157.805 695.871 157.805C701.097 157.805 705.402 158.762 708.788 160.675C712.174 162.515 714.676 165.128 716.295 168.514C717.914 171.826 718.724 175.763 718.724 180.327V217.2H710.444L709.892 207.264C709.156 208.81 708.199 210.282 707.022 211.68C705.918 213.005 704.593 214.183 703.047 215.213C701.502 216.243 699.735 217.053 697.748 217.642C695.834 218.231 693.7 218.525 691.345 218.525ZM692.67 210.687C695.098 210.687 697.343 210.135 699.404 209.031C701.465 207.927 703.231 206.455 704.703 204.615C706.249 202.701 707.426 200.567 708.236 198.211C709.046 195.856 709.45 193.391 709.45 190.815V189.711H695.761C692.302 189.711 689.468 190.152 687.26 191.035C685.126 191.919 683.58 193.17 682.623 194.789C681.666 196.335 681.188 198.101 681.188 200.088C681.188 202.223 681.63 204.099 682.513 205.719C683.396 207.264 684.684 208.479 686.377 209.362C688.143 210.245 690.241 210.687 692.67 210.687ZM751.746 217.2C748.434 217.2 745.563 216.685 743.135 215.655C740.706 214.624 738.829 212.895 737.504 210.466C736.253 207.963 735.627 204.615 735.627 200.419V166.968H725.471V159.13H735.627L736.842 144.667H744.901V159.13H761.351V166.968H744.901V200.419C744.901 203.879 745.6 206.234 746.999 207.485C748.397 208.663 750.863 209.251 754.395 209.251H761.13V217.2H751.746ZM788.868 218.525C784.452 218.525 780.772 217.715 777.828 216.096C774.884 214.403 772.676 212.195 771.204 209.472C769.732 206.675 768.996 203.695 768.996 200.53C768.996 196.703 769.953 193.464 771.866 190.815C773.853 188.091 776.613 186.031 780.146 184.632C783.679 183.234 787.801 182.535 792.511 182.535H806.973C806.973 178.781 806.532 175.653 805.649 173.151C804.765 170.648 803.33 168.771 801.343 167.52C799.356 166.269 796.706 165.643 793.394 165.643C790.082 165.643 787.249 166.49 784.893 168.183C782.538 169.802 781.066 172.231 780.477 175.469H770.983C771.425 171.642 772.713 168.44 774.847 165.864C776.981 163.215 779.668 161.227 782.906 159.903C786.218 158.504 789.714 157.805 793.394 157.805C798.62 157.805 802.925 158.762 806.311 160.675C809.697 162.515 812.199 165.128 813.818 168.514C815.437 171.826 816.247 175.763 816.247 180.327V217.2H807.967L807.415 207.264C806.679 208.81 805.722 210.282 804.545 211.68C803.441 213.005 802.116 214.183 800.57 215.213C799.025 216.243 797.258 217.053 795.271 217.642C793.357 218.231 791.223 218.525 788.868 218.525ZM790.193 210.687C792.621 210.687 794.866 210.135 796.927 209.031C798.988 207.927 800.754 206.455 802.226 204.615C803.772 202.701 804.949 200.567 805.759 198.211C806.569 195.856 806.973 193.391 806.973 190.815V189.711H793.284C789.825 189.711 786.991 190.152 784.783 191.035C782.649 191.919 781.103 193.17 780.146 194.789C779.189 196.335 778.711 198.101 778.711 200.088C778.711 202.223 779.153 204.099 780.036 205.719C780.919 207.264 782.207 208.479 783.9 209.362C785.666 210.245 787.764 210.687 790.193 210.687ZM857.181 218.525C853.648 218.525 850.594 218.01 848.018 216.979C845.516 215.875 843.381 214.514 841.615 212.895C839.922 211.275 838.524 209.693 837.42 208.147L836.647 217.2H828.256V137.712H837.53V168.293C839.296 164.834 841.909 162.221 845.368 160.455C848.828 158.688 852.692 157.805 856.96 157.805C862.26 157.805 866.896 159.093 870.871 161.669C874.845 164.245 877.936 167.815 880.144 172.378C882.352 176.867 883.456 182.056 883.456 187.944C883.456 193.759 882.352 198.984 880.144 203.621C877.936 208.258 874.845 211.901 870.871 214.551C866.97 217.2 862.407 218.525 857.181 218.525ZM855.967 210.466C859.426 210.466 862.48 209.583 865.13 207.816C867.853 205.976 869.988 203.4 871.533 200.088C873.152 196.703 873.962 192.728 873.962 188.165C873.962 183.602 873.152 179.664 871.533 176.352C869.988 172.967 867.853 170.391 865.13 168.624C862.48 166.784 859.426 165.864 855.967 165.864C852.287 165.864 849.085 166.784 846.362 168.624C843.639 170.391 841.541 172.967 840.069 176.352C838.597 179.664 837.861 183.602 837.861 188.165C837.861 192.728 838.597 196.703 840.069 200.088C841.541 203.4 843.639 205.976 846.362 207.816C849.085 209.583 852.287 210.466 855.967 210.466ZM893.621 217.2V159.13H902.011L902.674 169.728C903.999 167.079 905.728 164.871 907.863 163.104C909.997 161.338 912.573 160.013 915.591 159.13C918.682 158.247 922.141 157.805 925.968 157.805V167.52H920.227C918.019 167.52 915.885 167.815 913.824 168.403C911.763 168.992 909.887 169.949 908.194 171.274C906.575 172.599 905.287 174.402 904.33 176.683C903.373 178.965 902.895 181.835 902.895 185.295V217.2H893.621ZM934.209 217.2V159.13H943.483V217.2H934.209ZM938.846 148.09C937.006 148.09 935.461 147.501 934.209 146.323C933.032 145.072 932.443 143.527 932.443 141.687C932.443 139.847 933.032 138.375 934.209 137.271C935.461 136.093 937.006 135.504 938.846 135.504C940.613 135.504 942.121 136.093 943.373 137.271C944.624 138.375 945.249 139.847 945.249 141.687C945.249 143.527 944.624 145.072 943.373 146.323C942.121 147.501 940.613 148.09 938.846 148.09ZM981.705 218.525C976.405 218.525 971.695 217.274 967.573 214.771C963.452 212.195 960.213 208.626 957.858 204.063C955.503 199.499 954.325 194.2 954.325 188.165C954.325 182.056 955.503 176.757 957.858 172.267C960.213 167.704 963.452 164.171 967.573 161.669C971.695 159.093 976.405 157.805 981.705 157.805C988.329 157.805 993.849 159.571 998.265 163.104C1002.75 166.637 1005.62 171.384 1006.88 177.346H997.381C996.572 173.666 994.695 170.832 991.751 168.845C988.881 166.784 985.495 165.754 981.594 165.754C978.209 165.754 975.154 166.6 972.431 168.293C969.781 169.986 967.684 172.488 966.138 175.8C964.593 179.112 963.82 183.234 963.82 188.165C963.82 191.845 964.261 195.12 965.145 197.991C966.028 200.787 967.242 203.143 968.788 205.056C970.407 206.896 972.284 208.295 974.418 209.251C976.626 210.208 979.018 210.687 981.594 210.687C984.244 210.687 986.636 210.245 988.77 209.362C990.978 208.405 992.818 207.043 994.29 205.277C995.836 203.511 996.866 201.413 997.381 198.984H1006.88C1005.7 204.799 1002.83 209.509 998.265 213.115C993.775 216.722 988.255 218.525 981.705 218.525ZM1051.16 217.2L1024.78 185.847L1049.62 159.13H1060.99L1032.62 189.159L1032.73 182.535L1062.98 217.2H1051.16ZM1017.05 217.2V137.712H1026.32V217.2H1017.05ZM1087.22 218.525C1081.99 218.525 1077.65 217.752 1074.19 216.207C1070.8 214.587 1068.23 212.379 1066.46 209.583C1064.7 206.712 1063.63 203.4 1063.26 199.647H1072.76C1073.05 201.634 1073.71 203.474 1074.74 205.167C1075.85 206.786 1077.43 208.111 1079.49 209.141C1081.55 210.171 1084.16 210.687 1087.33 210.687C1089.83 210.687 1091.96 210.319 1093.73 209.583C1095.5 208.773 1096.82 207.669 1097.71 206.271C1098.66 204.872 1099.14 203.253 1099.14 201.413C1099.14 198.984 1098.59 197.107 1097.48 195.783C1096.45 194.384 1094.91 193.354 1092.85 192.691C1090.86 191.955 1088.36 191.403 1085.34 191.035C1082.1 190.594 1079.23 189.968 1076.73 189.159C1074.23 188.349 1072.09 187.282 1070.33 185.957C1068.63 184.632 1067.35 182.976 1066.46 180.989C1065.58 179.002 1065.14 176.647 1065.14 173.923C1065.14 170.759 1065.98 167.962 1067.68 165.533C1069.37 163.104 1071.76 161.227 1074.85 159.903C1078.02 158.504 1081.73 157.805 1086 157.805C1092.26 157.805 1097.19 159.24 1100.8 162.111C1104.48 164.981 1106.65 169.066 1107.31 174.365H1098.15C1097.78 171.642 1096.53 169.507 1094.39 167.962C1092.26 166.416 1089.43 165.643 1085.89 165.643C1082.14 165.643 1079.31 166.343 1077.39 167.741C1075.48 169.139 1074.52 170.979 1074.52 173.261C1074.52 174.954 1074.93 176.499 1075.74 177.898C1076.62 179.223 1078.09 180.363 1080.15 181.32C1082.21 182.203 1084.97 182.866 1088.43 183.307C1092.77 183.823 1096.45 184.669 1099.47 185.847C1102.49 186.951 1104.77 188.68 1106.32 191.035C1107.94 193.391 1108.71 196.592 1108.64 200.64C1108.64 204.467 1107.72 207.706 1105.88 210.355C1104.11 213.005 1101.61 215.029 1098.37 216.427C1095.2 217.826 1091.49 218.525 1087.22 218.525ZM603.239 316.2V238.92H616.487V305.823H650.932V316.2H603.239ZM678.623 317.525C674.06 317.525 670.269 316.752 667.252 315.207C664.234 313.661 661.989 311.6 660.517 309.024C659.045 306.448 658.309 303.651 658.309 300.634C658.309 297.101 659.193 294.047 660.959 291.471C662.799 288.895 665.485 286.907 669.018 285.509C672.551 284.037 676.893 283.301 682.045 283.301H696.066C696.066 280.357 695.661 277.928 694.852 276.015C694.042 274.027 692.791 272.555 691.098 271.599C689.405 270.642 687.234 270.163 684.585 270.163C681.567 270.163 678.991 270.863 676.857 272.261C674.722 273.586 673.397 275.647 672.882 278.443H659.855C660.297 274.469 661.621 271.083 663.829 268.287C666.037 265.416 668.945 263.208 672.551 261.663C676.231 260.043 680.242 259.234 684.585 259.234C689.81 259.234 694.263 260.154 697.943 261.994C701.623 263.76 704.42 266.336 706.333 269.722C708.321 273.034 709.314 277.045 709.314 281.755V316.2H698.053L696.729 307.258C695.993 308.73 695.036 310.091 693.858 311.343C692.754 312.594 691.466 313.698 689.994 314.655C688.522 315.538 686.829 316.237 684.916 316.752C683.076 317.267 680.978 317.525 678.623 317.525ZM681.604 307.037C683.738 307.037 685.615 306.669 687.234 305.933C688.927 305.123 690.362 304.019 691.54 302.621C692.791 301.149 693.748 299.53 694.41 297.763C695.073 295.997 695.514 294.12 695.735 292.133V291.912H683.481C680.905 291.912 678.77 292.243 677.077 292.906C675.385 293.495 674.17 294.378 673.434 295.555C672.698 296.733 672.33 298.095 672.33 299.64C672.33 301.186 672.698 302.511 673.434 303.615C674.17 304.719 675.237 305.565 676.636 306.154C678.034 306.743 679.69 307.037 681.604 307.037ZM756.038 316.2L731.418 285.73L753.498 260.559H769.286L741.796 291.139V280.872L772.598 316.2H756.038ZM720.158 316.2V236.712H733.406V316.2H720.158ZM799.825 317.525C794.305 317.525 789.447 316.347 785.252 313.992C781.057 311.563 777.782 308.178 775.427 303.835C773.071 299.493 771.894 294.488 771.894 288.821C771.894 282.933 773.035 277.781 775.316 273.365C777.671 268.949 780.947 265.49 785.142 262.987C789.411 260.485 794.342 259.234 799.935 259.234C805.382 259.234 810.129 260.448 814.177 262.877C818.225 265.306 821.353 268.581 823.561 272.703C825.769 276.751 826.873 281.314 826.873 286.392C826.873 287.128 826.873 287.938 826.873 288.821C826.873 289.704 826.799 290.624 826.652 291.581H781.388V283.08H813.515C813.367 279.032 812.006 275.867 809.43 273.586C806.854 271.231 803.652 270.053 799.825 270.053C797.102 270.053 794.599 270.679 792.318 271.93C790.036 273.181 788.233 275.058 786.908 277.56C785.583 279.989 784.921 283.08 784.921 286.834V290.035C784.921 293.495 785.547 296.475 786.798 298.978C788.123 301.48 789.889 303.394 792.097 304.719C794.379 305.97 796.918 306.595 799.715 306.595C802.806 306.595 805.345 305.933 807.332 304.608C809.393 303.283 810.902 301.517 811.859 299.309H825.327C824.297 302.768 822.604 305.896 820.249 308.693C817.894 311.416 814.987 313.587 811.527 315.207C808.068 316.752 804.167 317.525 799.825 317.525ZM838.553 316.2V254.487C838.553 250.218 839.252 246.795 840.651 244.219C842.123 241.57 844.22 239.656 846.943 238.479C849.667 237.301 852.905 236.712 856.659 236.712H863.283V247.973H858.646C856.217 247.973 854.451 248.488 853.347 249.519C852.316 250.475 851.801 252.168 851.801 254.597V316.2H838.553ZM830.604 271.709V260.559H864.387V271.709H830.604ZM875.758 316.2V236.712H889.006V316.2H875.758ZM926.455 317.525C921.155 317.525 916.371 316.311 912.103 313.882C907.907 311.379 904.595 307.957 902.167 303.615C899.811 299.199 898.634 294.157 898.634 288.49C898.634 282.675 899.848 277.597 902.277 273.255C904.706 268.839 908.018 265.416 912.213 262.987C916.482 260.485 921.266 259.234 926.565 259.234C931.864 259.234 936.611 260.485 940.807 262.987C945.075 265.416 948.387 268.802 950.743 273.144C953.171 277.487 954.386 282.565 954.386 288.379C954.386 294.194 953.171 299.272 950.743 303.615C948.314 307.957 944.965 311.379 940.696 313.882C936.501 316.311 931.754 317.525 926.455 317.525ZM926.455 306.154C929.104 306.154 931.496 305.491 933.631 304.167C935.839 302.842 937.605 300.855 938.93 298.205C940.255 295.555 940.917 292.28 940.917 288.379C940.917 284.479 940.255 281.24 938.93 278.664C937.679 276.015 935.949 274.027 933.741 272.703C931.607 271.378 929.215 270.715 926.565 270.715C923.989 270.715 921.597 271.378 919.389 272.703C917.181 274.027 915.415 276.015 914.09 278.664C912.765 281.24 912.103 284.479 912.103 288.379C912.103 292.28 912.765 295.555 914.09 298.205C915.415 300.855 917.144 302.842 919.279 304.167C921.487 305.491 923.879 306.154 926.455 306.154ZM973.142 316.2L956.803 260.559H969.94L981.311 306.264L978.883 306.154L991.579 260.559H1006.37L1019.18 306.154H1016.75L1028.12 260.559H1041.26L1024.92 316.2H1011.23L997.651 269.059H1000.41L986.831 316.2H973.142ZM1105.83 317.525C1098.17 317.525 1091.55 315.869 1085.96 312.557C1080.44 309.171 1076.17 304.498 1073.15 298.536C1070.21 292.501 1068.73 285.546 1068.73 277.671C1068.73 269.722 1070.21 262.767 1073.15 256.805C1076.17 250.77 1080.44 246.059 1085.96 242.674C1091.55 239.288 1098.17 237.595 1105.83 237.595C1115.03 237.595 1122.54 239.877 1128.35 244.44C1134.16 248.93 1137.84 255.296 1139.39 263.539H1124.82C1123.79 259.197 1121.69 255.775 1118.52 253.272C1115.36 250.77 1111.09 249.519 1105.72 249.519C1100.86 249.519 1096.67 250.659 1093.13 252.941C1089.67 255.149 1086.99 258.387 1085.07 262.656C1083.23 266.851 1082.31 271.856 1082.31 277.671C1082.31 283.485 1083.23 288.49 1085.07 292.685C1086.99 296.807 1089.67 300.008 1093.13 302.29C1096.67 304.498 1100.86 305.602 1105.72 305.602C1111.09 305.602 1115.36 304.461 1118.52 302.179C1121.69 299.824 1123.79 296.586 1124.82 292.464H1139.39C1137.92 300.266 1134.24 306.411 1128.35 310.901C1122.54 315.317 1115.03 317.525 1105.83 317.525ZM1174.54 317.525C1169.24 317.525 1164.46 316.311 1160.19 313.882C1156 311.379 1152.68 307.957 1150.26 303.615C1147.9 299.199 1146.72 294.157 1146.72 288.49C1146.72 282.675 1147.94 277.597 1150.37 273.255C1152.8 268.839 1156.11 265.416 1160.3 262.987C1164.57 260.485 1169.36 259.234 1174.65 259.234C1179.95 259.234 1184.7 260.485 1188.9 262.987C1193.16 265.416 1196.48 268.802 1198.83 273.144C1201.26 277.487 1202.48 282.565 1202.48 288.379C1202.48 294.194 1201.26 299.272 1198.83 303.615C1196.4 307.957 1193.05 311.379 1188.79 313.882C1184.59 316.311 1179.84 317.525 1174.54 317.525ZM1174.54 306.154C1177.19 306.154 1179.59 305.491 1181.72 304.167C1183.93 302.842 1185.69 300.855 1187.02 298.205C1188.34 295.555 1189.01 292.28 1189.01 288.379C1189.01 284.479 1188.34 281.24 1187.02 278.664C1185.77 276.015 1184.04 274.027 1181.83 272.703C1179.7 271.378 1177.3 270.715 1174.65 270.715C1172.08 270.715 1169.69 271.378 1167.48 272.703C1165.27 274.027 1163.5 276.015 1162.18 278.664C1160.85 281.24 1160.19 284.479 1160.19 288.379C1160.19 292.28 1160.85 295.555 1162.18 298.205C1163.5 300.855 1165.23 302.842 1167.37 304.167C1169.58 305.491 1171.97 306.154 1174.54 306.154ZM1212.13 316.2V260.559H1223.83L1224.83 269.832C1226.52 266.594 1228.95 264.018 1232.11 262.104C1235.28 260.191 1239.03 259.234 1243.38 259.234C1247.86 259.234 1251.69 260.191 1254.86 262.104C1258.02 263.944 1260.45 266.667 1262.14 270.274C1263.91 273.88 1264.79 278.37 1264.79 283.743V316.2H1251.54V284.957C1251.54 280.32 1250.51 276.751 1248.45 274.248C1246.39 271.746 1243.34 270.495 1239.29 270.495C1236.64 270.495 1234.25 271.12 1232.11 272.371C1230.05 273.623 1228.4 275.463 1227.15 277.891C1225.97 280.247 1225.38 283.117 1225.38 286.503V316.2H1212.13ZM1275.45 316.2V260.559H1287.15L1288.14 269.832C1289.84 266.594 1292.27 264.018 1295.43 262.104C1298.6 260.191 1302.35 259.234 1306.69 259.234C1311.18 259.234 1315.01 260.191 1318.17 262.104C1321.34 263.944 1323.77 266.667 1325.46 270.274C1327.23 273.88 1328.11 278.37 1328.11 283.743V316.2H1314.86V284.957C1314.86 280.32 1313.83 276.751 1311.77 274.248C1309.71 271.746 1306.65 270.495 1302.61 270.495C1299.96 270.495 1297.56 271.12 1295.43 272.371C1293.37 273.623 1291.71 275.463 1290.46 277.891C1289.28 280.247 1288.7 283.117 1288.7 286.503V316.2H1275.45ZM1364.82 317.525C1359.3 317.525 1354.44 316.347 1350.25 313.992C1346.05 311.563 1342.78 308.178 1340.42 303.835C1338.06 299.493 1336.89 294.488 1336.89 288.821C1336.89 282.933 1338.03 277.781 1340.31 273.365C1342.66 268.949 1345.94 265.49 1350.14 262.987C1354.4 260.485 1359.34 259.234 1364.93 259.234C1370.38 259.234 1375.12 260.448 1379.17 262.877C1383.22 265.306 1386.35 268.581 1388.55 272.703C1390.76 276.751 1391.87 281.314 1391.87 286.392C1391.87 287.128 1391.87 287.938 1391.87 288.821C1391.87 289.704 1391.79 290.624 1391.65 291.581H1346.38V283.08H1378.51C1378.36 279.032 1377 275.867 1374.42 273.586C1371.85 271.231 1368.65 270.053 1364.82 270.053C1362.1 270.053 1359.59 270.679 1357.31 271.93C1355.03 273.181 1353.23 275.058 1351.9 277.56C1350.58 279.989 1349.91 283.08 1349.91 286.834V290.035C1349.91 293.495 1350.54 296.475 1351.79 298.978C1353.12 301.48 1354.88 303.394 1357.09 304.719C1359.37 305.97 1361.91 306.595 1364.71 306.595C1367.8 306.595 1370.34 305.933 1372.33 304.608C1374.39 303.283 1375.9 301.517 1376.85 299.309H1390.32C1389.29 302.768 1387.6 305.896 1385.24 308.693C1382.89 311.416 1379.98 313.587 1376.52 315.207C1373.06 316.752 1369.16 317.525 1364.82 317.525ZM1427.17 317.525C1421.73 317.525 1416.83 316.311 1412.49 313.882C1408.22 311.379 1404.87 307.957 1402.44 303.615C1400.09 299.199 1398.91 294.194 1398.91 288.6C1398.91 282.786 1400.09 277.707 1402.44 273.365C1404.87 268.949 1408.22 265.49 1412.49 262.987C1416.83 260.485 1421.76 259.234 1427.28 259.234C1434.2 259.234 1440.02 261.074 1444.73 264.754C1449.44 268.36 1452.45 273.328 1453.78 279.658H1439.87C1439.13 276.861 1437.59 274.653 1435.23 273.034C1432.95 271.415 1430.23 270.605 1427.06 270.605C1424.34 270.605 1421.84 271.304 1419.55 272.703C1417.35 274.101 1415.58 276.125 1414.26 278.775C1413 281.424 1412.38 284.626 1412.38 288.379C1412.38 291.25 1412.75 293.789 1413.48 295.997C1414.22 298.205 1415.25 300.082 1416.57 301.627C1417.97 303.099 1419.55 304.24 1421.32 305.05C1423.09 305.859 1425 306.264 1427.06 306.264C1429.2 306.264 1431.11 305.933 1432.8 305.271C1434.57 304.535 1436.04 303.467 1437.22 302.069C1438.47 300.671 1439.35 299.015 1439.87 297.101H1453.78C1452.45 303.283 1449.44 308.251 1444.73 312.005C1440.02 315.685 1434.16 317.525 1427.17 317.525ZM1486.56 316.2C1482.8 316.2 1479.53 315.611 1476.73 314.434C1474.01 313.256 1471.87 311.306 1470.33 308.583C1468.78 305.859 1468.01 302.179 1468.01 297.543V271.709H1458.51V260.559H1468.01L1469.55 245.875H1481.26V260.559H1496.38V271.709H1481.26V297.543C1481.26 300.339 1481.84 302.29 1483.02 303.394C1484.27 304.424 1486.33 304.939 1489.2 304.939H1496.05V316.2H1486.56Z" fill="white"/>
<defs>
<filter id="filter0_dddddd_1117_12241" x="0.639999" y="0.119995" width="723.12" height="723.12" filterUnits="userSpaceOnUse" color-interpolation-filters="sRGB">
<feFlood flood-opacity="0" result="BackgroundImageFix"/>
<feColorMatrix in="SourceAlpha" type="matrix" values="0 0 0 0 0 0 0 0 0 0 0 0 0 0 0 0 0 0 127 0" result="hardAlpha"/>
<feOffset dy="3.68"/>
<feGaussianBlur stdDeviation="2.76"/>
<feColorMatrix type="matrix" values="0 0 0 0 0.105882 0 0 0 0 0.192157 0 0 0 0 0.223529 0 0 0 0.0196802 0"/>
<feBlend mode="normal" in2="BackgroundImageFix" result="effect1_dropShadow_1117_12241"/>
<feColorMatrix in="SourceAlpha" type="matrix" values="0 0 0 0 0 0 0 0 0 0 0 0 0 0 0 0 0 0 127 0" result="hardAlpha"/>
<feOffset dy="7.36"/>
<feGaussianBlur stdDeviation="7.36"/>
<feColorMatrix type="matrix" values="0 0 0 0 0.105882 0 0 0 0 0.192157 0 0 0 0 0.223529 0 0 0 0.04 0"/>
<feBlend mode="normal" in2="effect1_dropShadow_1117_12241" result="effect2_dropShadow_1117_12241"/>
<feColorMatrix in="SourceAlpha" type="matrix" values="0 0 0 0 0 0 0 0 0 0 0 0 0 0 0 0 0 0 127 0" result="hardAlpha"/>
<feOffset dy="16.56"/>
<feGaussianBlur stdDeviation="11.96"/>
<feColorMatrix type="matrix" values="0 0 0 0 0.105882 0 0 0 0 0.192157 0 0 0 0 0.223529 0 0 0 0.035 0"/>
<feBlend mode="normal" in2="effect2_dropShadow_1117_12241" result="effect3_dropShadow_1117_12241"/>
<feColorMatrix in="SourceAlpha" type="matrix" values="0 0 0 0 0 0 0 0 0 0 0 0 0 0 0 0 0 0 127 0" result="hardAlpha"/>
<feOffset dy="29.44"/>
<feGaussianBlur stdDeviation="22.08"/>
<feColorMatrix type="matrix" values="0 0 0 0 0.105882 0 0 0 0 0.192157 0 0 0 0 0.223529 0 0 0 0.04 0"/>
<feBlend mode="normal" in2="effect3_dropShadow_1117_12241" result="effect4_dropShadow_1117_12241"/>
<feColorMatrix in="SourceAlpha" type="matrix" values="0 0 0 0 0 0 0 0 0 0 0 0 0 0 0 0 0 0 127 0" result="hardAlpha"/>
<feOffset dy="58.88"/>
<feGaussianBlur stdDeviation="36.8"/>
<feColorMatrix type="matrix" values="0 0 0 0 0.105882 0 0 0 0 0.192157 0 0 0 0 0.223529 0 0 0 0.0503198 0"/>
<feBlend mode="normal" in2="effect4_dropShadow_1117_12241" result="effect5_dropShadow_1117_12241"/>
<feColorMatrix in="SourceAlpha" type="matrix" values="0 0 0 0 0 0 0 0 0 0 0 0 0 0 0 0 0 0 127 0" result="hardAlpha"/>
<feOffset dy="132.48"/>
<feGaussianBlur stdDeviation="95.68"/>
<feColorMatrix type="matrix" values="0 0 0 0 0.105882 0 0 0 0 0.192157 0 0 0 0 0.223529 0 0 0 0.07 0"/>
<feBlend mode="normal" in2="effect5_dropShadow_1117_12241" result="effect6_dropShadow_1117_12241"/>
<feBlend mode="normal" in="SourceGraphic" in2="effect6_dropShadow_1117_12241" result="shape"/>
</filter>
</defs>
</svg>
