<svg width="150" height="150" viewBox="0 0 150 150" fill="none" xmlns="http://www.w3.org/2000/svg">
<path d="M117.2 31.8H108.3V34.8H117.2C119.6 34.8 121.5 36.7 121.5 39.1V54.7H28.4V39.1C28.4 36.7 30.3 34.8 32.7 34.8H45.4V38.4C45.4 42.5 48.8 45.9 52.9 45.9C54.9 45.9 56.8 45.1 58.2 43.7C59.6 42.3 60.4 40.4 60.4 38.4V34.8H89.5V38.4C89.5 42.5 92.9 45.9 97 45.9C99 45.9 100.9 45.1 102.3 43.7C103.7 42.3 104.5 40.4 104.5 38.4V27.2C104.5 23.1 101.1 19.7 97 19.7C95 19.7 93.1 20.5 91.7 21.9C90.3 23.3 89.5 25.2 89.5 27.2H92.5C92.5 26 93 24.9 93.8 24C94.6 23.2 95.8 22.7 97 22.7C99.5 22.7 101.5 24.7 101.5 27.2V38.4C101.5 39.6 101 40.7 100.2 41.6C99.4 42.4 98.2 42.9 97 42.9C94.5 42.9 92.5 40.9 92.5 38.4V31.8H60.5V27.2C60.5 23.1 57.1 19.7 53 19.7C51 19.7 49.1 20.5 47.7 21.9C46.3 23.3 45.5 25.2 45.5 27.2H48.5C48.5 26 49 24.9 49.8 24C50.6 23.2 51.8 22.7 53 22.7C55.5 22.7 57.5 24.7 57.5 27.2V38.4C57.5 39.6 57 40.7 56.2 41.6C55.4 42.4 54.2 42.9 53 42.9C50.5 42.9 48.5 40.9 48.5 38.4V31.8H32.8C28.8 31.8 25.5 35.1 25.5 39.1V123C25.5 127 28.8 130.3 32.8 130.3H90.4V127.3H32.8C30.4 127.3 28.5 125.4 28.5 123V57.7H121.6V103.7L99 126.2V107C99 104.4 101.1 102.3 103.7 102.3H115.7V99.3H103.7C99.4 99.3 96 102.8 96 107V130.3H97.5H98.5H99.1L124.5 105V39.1C124.6 35.1 121.3 31.8 117.2 31.8Z" fill="white"/>
</svg>
