<svg width="150" height="150" viewBox="0 0 150 150" fill="none" xmlns="http://www.w3.org/2000/svg">
<path d="M117.2 31.8002H108.3V34.8002H117.2C119.6 34.8002 121.5 36.7002 121.5 39.1002V54.7002H28.4V39.1002C28.4 36.7002 30.3 34.8002 32.7 34.8002H45.4V38.4002C45.4 42.5002 48.8 45.9002 52.9 45.9002C54.9 45.9002 56.8 45.1002 58.2 43.7002C59.6 42.3002 60.4 40.4002 60.4 38.4002V34.8002H89.5V38.4002C89.5 42.5002 92.9 45.9002 97 45.9002C99 45.9002 100.9 45.1002 102.3 43.7002C103.7 42.3002 104.5 40.4002 104.5 38.4002V27.2002C104.5 23.1002 101.1 19.7002 97 19.7002C95 19.7002 93.1 20.5002 91.7 21.9002C90.3 23.3002 89.5 25.2002 89.5 27.2002H92.5C92.5 26.0002 93 24.9002 93.8 24.0002C94.6 23.2002 95.8 22.7002 97 22.7002C99.5 22.7002 101.5 24.7002 101.5 27.2002V38.4002C101.5 39.6002 101 40.7002 100.2 41.6002C99.4 42.4002 98.2 42.9002 97 42.9002C94.5 42.9002 92.5 40.9002 92.5 38.4002V31.8002H60.5V27.2002C60.5 23.1002 57.1 19.7002 53 19.7002C51 19.7002 49.1 20.5002 47.7 21.9002C46.3 23.3002 45.5 25.2002 45.5 27.2002H48.5C48.5 26.0002 49 24.9002 49.8 24.0002C50.6 23.2002 51.8 22.7002 53 22.7002C55.5 22.7002 57.5 24.7002 57.5 27.2002V38.4002C57.5 39.6002 57 40.7002 56.2 41.6002C55.4 42.4002 54.2 42.9002 53 42.9002C50.5 42.9002 48.5 40.9002 48.5 38.4002V31.8002H32.8C28.8 31.8002 25.5 35.1002 25.5 39.1002V123C25.5 127 28.8 130.3 32.8 130.3H90.4V127.3H32.8C30.4 127.3 28.5 125.4 28.5 123V57.7002H121.6V103.7L99 126.2V107C99 104.4 101.1 102.3 103.7 102.3H115.7V99.3002H103.7C99.4 99.3002 96 102.8 96 107V130.3H97.5H98.5H99.1L124.5 105V39.1002C124.6 35.1002 121.3 31.8002 117.2 31.8002Z" fill="#FF5F46"/>
</svg>
