<svg width="150" height="150" viewBox="0 0 150 150" fill="none" xmlns="http://www.w3.org/2000/svg">
<path d="M35 79.4201H72.3V89.4201C72.3 91.4092 73.0901 93.3169 74.4967 94.7234C75.9032 96.1299 77.8109 96.9201 79.8 96.9201H106C107.193 96.9227 108.336 97.3977 109.179 98.241C110.022 99.0844 110.497 100.227 110.5 101.42V119.1H98.91V137.47H125.71V119.1H113.46V101.41C113.455 99.4226 112.663 97.518 111.257 96.1126C109.852 94.7073 107.947 93.9154 105.96 93.9101H79.75C78.5565 93.9101 77.4119 93.436 76.568 92.5921C75.7241 91.7482 75.25 90.6036 75.25 89.4101V76.4101H35C32.7099 76.4375 30.4417 75.9623 28.3553 75.0179C26.2688 74.0736 24.4149 72.6831 22.9242 70.9445C21.4335 69.2058 20.3423 67.1614 19.7274 64.9552C19.1126 62.7491 18.9892 60.4349 19.3658 58.1759C19.7424 55.9169 20.61 53.768 21.9073 51.8806C23.2046 49.9933 24.9 48.4134 26.8742 47.2525C28.8483 46.0915 31.0531 45.3777 33.333 45.1613C35.613 44.9449 37.9127 45.2312 40.07 46.0001L40.87 46.3001L42.92 47.1101V44.9101C42.92 44.8501 42.92 44.7801 42.92 44.6601C43.2359 37.5091 46.0626 30.6983 50.9031 25.4252C55.7436 20.152 62.2881 16.754 69.3861 15.8286C76.484 14.9031 83.6809 16.5094 89.7117 20.3652C95.7425 24.2209 100.221 30.0792 102.36 36.9101C98.455 38.6729 95.1386 41.5205 92.8056 45.114C90.4725 48.7075 89.221 52.8957 89.2 57.1801H92.2C92.196 53.37 93.3222 49.6443 95.4361 46.4744C97.55 43.3045 100.557 40.8327 104.076 39.3719C107.595 37.9111 111.468 37.5269 115.205 38.2677C118.943 39.0086 122.376 40.8414 125.072 43.5342C127.767 46.2269 129.604 49.6587 130.348 53.3953C131.093 57.1319 130.713 61.0055 129.256 64.526C127.799 68.0464 125.33 71.0556 122.162 73.1728C118.995 75.29 115.27 76.4201 111.46 76.4201H80.77V79.4201H113.38V79.3301C116.481 79.069 119.493 78.1602 122.222 76.6624C124.95 75.1646 127.333 73.1111 129.218 70.6345C131.103 68.158 132.448 65.3136 133.165 62.285C133.882 59.2565 133.956 56.1112 133.381 53.0524C132.807 49.9935 131.597 47.0892 129.83 44.5271C128.063 41.9649 125.779 39.802 123.124 38.1779C120.469 36.5539 117.503 35.5049 114.417 35.0988C111.331 34.6927 108.195 34.9384 105.21 35.8201C102.869 28.4757 98.0623 22.1654 91.6042 17.9565C85.1461 13.7476 77.4325 11.8984 69.768 12.7216C62.1035 13.5449 54.9586 16.9901 49.5416 22.4745C44.1247 27.959 40.7683 35.146 40.04 42.8201C38.3843 42.3505 36.671 42.1149 34.95 42.1201C32.4638 42.0625 29.9912 42.5025 27.6775 43.4141C25.3638 44.3258 23.2557 45.6907 21.477 47.4287C19.6983 49.1666 18.285 51.2426 17.3201 53.5346C16.3551 55.8266 15.858 58.2883 15.858 60.7751C15.858 63.2619 16.3551 65.7237 17.3201 68.0156C18.285 70.3076 19.6983 72.3836 21.477 74.1216C23.2557 75.8595 25.3638 77.2244 27.6775 78.1361C29.9912 79.0477 32.4638 79.4877 34.95 79.4301L35 79.4201ZM122.76 134.47H101.96V122.1H122.76V134.47Z" fill="#FF5F46"/>
<path d="M41.55 96.9102H67.75V93.9102H41.55C39.5617 93.9128 37.6556 94.7038 36.2496 96.1098C34.8437 97.5157 34.0526 99.4218 34.05 101.41V119.1H21.8V137.47H48.59V119.1H37.05V101.41C37.05 100.217 37.5241 99.0721 38.368 98.2282C39.2119 97.3843 40.3565 96.9102 41.55 96.9102ZM45.55 134.47H24.8V122.1H45.59L45.55 134.47Z" fill="#FF5F46"/>
<path d="M72.25 102.91V119.1H60.35V137.47H87.15V119.1H75.25V102.91H72.25ZM84.15 134.47H63.35V122.1H84.15V134.47Z" fill="#FF5F46"/>
</svg>
