<svg width="150" height="150" viewBox="0 0 150 150" fill="none" xmlns="http://www.w3.org/2000/svg">
<path d="M35 79.42H72.3V89.42C72.3 91.4091 73.0902 93.3168 74.4967 94.7233C75.9032 96.1298 77.8109 96.92 79.8 96.92H106C107.193 96.9226 108.336 97.3976 109.179 98.2409C110.022 99.0843 110.497 100.227 110.5 101.42V119.1H98.91V137.47H125.71V119.1H113.46V101.41C113.455 99.4225 112.663 97.5179 111.257 96.1125C109.852 94.7071 107.947 93.9153 105.96 93.91H79.75C78.5565 93.91 77.4119 93.4359 76.568 92.592C75.7241 91.7481 75.25 90.6035 75.25 89.41V76.41H35C32.7099 76.4374 30.4417 75.9622 28.3553 75.0178C26.2688 74.0735 24.4149 72.683 22.9242 70.9443C21.4335 69.2057 20.3423 67.1613 19.7274 64.9551C19.1126 62.749 18.9892 60.4348 19.3658 58.1758C19.7424 55.9168 20.61 53.7678 21.9073 51.8805C23.2046 49.9931 24.9 48.4133 26.8742 47.2523C28.8483 46.0914 31.0531 45.3775 33.333 45.1612C35.613 44.9448 37.9127 45.2311 40.07 46L40.87 46.3L42.92 47.11V44.91C42.92 44.85 42.92 44.78 42.92 44.66C43.2359 37.509 46.0626 30.6982 50.9031 25.425C55.7436 20.1519 62.2881 16.7539 69.3861 15.8284C76.484 14.903 83.6809 16.5093 89.7117 20.365C95.7425 24.2208 100.221 30.079 102.36 36.91C98.455 38.6728 95.1386 41.5204 92.8056 45.1139C90.4725 48.7074 89.221 52.8956 89.2 57.18H92.2C92.196 53.3699 93.3222 49.6442 95.4361 46.4743C97.5501 43.3043 100.557 40.8326 104.076 39.3718C107.595 37.911 111.468 37.5267 115.205 38.2676C118.943 39.0085 122.376 40.8413 125.072 43.534C127.767 46.2268 129.604 49.6586 130.348 53.3952C131.093 57.1318 130.713 61.0054 129.256 64.5258C127.799 68.0463 125.33 71.0555 122.162 73.1727C118.995 75.2899 115.27 76.42 111.46 76.42H80.77V79.42H113.38V79.33C116.481 79.0689 119.493 78.1601 122.222 76.6623C124.95 75.1644 127.333 73.1109 129.218 70.6344C131.103 68.1579 132.448 65.3135 133.165 62.2849C133.882 59.2564 133.956 56.1111 133.381 53.0522C132.807 49.9934 131.597 47.0891 129.83 44.527C128.063 41.9648 125.779 39.8019 123.124 38.1778C120.469 36.5538 117.503 35.5048 114.417 35.0987C111.331 34.6925 108.195 34.9383 105.21 35.82C102.869 28.4756 98.0623 22.1653 91.6042 17.9564C85.1461 13.7475 77.4325 11.8983 69.768 12.7215C62.1035 13.5448 54.9586 16.99 49.5416 22.4744C44.1247 27.9588 40.7683 35.1459 40.04 42.82C38.3843 42.3504 36.671 42.1148 34.95 42.12C32.4638 42.0624 29.9912 42.5024 27.6775 43.414C25.3638 44.3256 23.2557 45.6906 21.477 47.4285C19.6983 49.1665 18.285 51.2425 17.3201 53.5345C16.3551 55.8264 15.858 58.2882 15.858 60.775C15.858 63.2618 16.3551 65.7235 17.3201 68.0155C18.285 70.3075 19.6983 72.3835 21.477 74.1214C23.2557 75.8594 25.3638 77.2243 27.6775 78.136C29.9912 79.0476 32.4638 79.4876 34.95 79.43L35 79.42ZM122.76 134.47H101.96V122.1H122.76V134.47Z" fill="#1B3139"/>
<path d="M41.55 96.91H67.75V93.91H41.55C39.5617 93.9127 37.6556 94.7037 36.2496 96.1096C34.8437 97.5156 34.0526 99.4217 34.05 101.41V119.1H21.8V137.47H48.59V119.1H37.05V101.41C37.05 100.217 37.5241 99.072 38.368 98.2281C39.2119 97.3841 40.3565 96.91 41.55 96.91V96.91ZM45.55 134.47H24.8V122.1H45.59L45.55 134.47Z" fill="#1B3139"/>
<path d="M72.25 102.91V119.1H60.35V137.47H87.15V119.1H75.25V102.91H72.25ZM84.15 134.47H63.35V122.1H84.15V134.47Z" fill="#1B3139"/>
</svg>
