<svg width="1148" height="200" viewBox="0 0 1148 200" fill="none" xmlns="http://www.w3.org/2000/svg">
<path d="M124.829 125.177L74.8226 125.178L74.8226 75.6994L124.829 25.6991L149.829 50.6992L174.828 75.6994L124.829 125.177Z" fill="#C4CCD6"/>
<path d="M175 175.001L125 175.001L125 125.002L175 125.002L175 175.001Z" fill="#618794"/>
<path d="M75.0002 175.001L25 175.001L25 125.002L75.0001 125.002L75.0002 175.001Z" fill="#618794"/>
<path d="M75.0002 74.999L25 74.999L25 25.0001L75.0001 25.0001L75.0002 74.999Z" fill="#618794"/>
<path d="M239.838 137.5V60.22H253.086V127.122H287.531V137.5H239.838ZM315.223 138.825C310.659 138.825 306.869 138.052 303.851 136.506C300.834 134.961 298.589 132.9 297.117 130.324C295.645 127.748 294.909 124.951 294.909 121.934C294.909 118.401 295.792 115.346 297.559 112.77C299.399 110.194 302.085 108.207 305.618 106.809C309.151 105.337 313.493 104.601 318.645 104.601H332.666C332.666 101.657 332.261 99.228 331.451 97.3144C330.642 95.3272 329.391 93.8552 327.698 92.8984C326.005 91.9416 323.834 91.4632 321.184 91.4632C318.167 91.4632 315.591 92.1624 313.456 93.5608C311.322 94.8856 309.997 96.9464 309.482 99.7432H296.455C296.896 95.7688 298.221 92.3832 300.429 89.5864C302.637 86.716 305.544 84.508 309.151 82.9624C312.831 81.3432 316.842 80.5336 321.184 80.5336C326.41 80.5336 330.863 81.4536 334.543 83.2936C338.223 85.06 341.019 87.636 342.933 91.0216C344.92 94.3336 345.914 98.3448 345.914 103.055V137.5H334.653L333.328 128.558C332.592 130.03 331.635 131.391 330.458 132.642C329.354 133.894 328.066 134.998 326.594 135.954C325.122 136.838 323.429 137.537 321.515 138.052C319.675 138.567 317.578 138.825 315.223 138.825ZM318.203 128.337C320.338 128.337 322.215 127.969 323.834 127.233C325.527 126.423 326.962 125.319 328.139 123.921C329.391 122.449 330.347 120.83 331.01 119.063C331.672 117.297 332.114 115.42 332.335 113.433V113.212H320.08C317.504 113.212 315.37 113.543 313.677 114.206C311.984 114.794 310.77 115.678 310.034 116.855C309.298 118.033 308.93 119.394 308.93 120.94C308.93 122.486 309.298 123.81 310.034 124.914C310.77 126.018 311.837 126.865 313.235 127.454C314.634 128.042 316.29 128.337 318.203 128.337ZM392.637 137.5L368.018 107.03L390.098 81.8584H405.885L378.396 112.439V102.172L409.197 137.5H392.637ZM356.757 137.5V58.012H370.005V137.5H356.757ZM436.425 138.825C430.905 138.825 426.047 137.647 421.852 135.292C417.657 132.863 414.381 129.478 412.026 125.135C409.671 120.793 408.493 115.788 408.493 110.121C408.493 104.233 409.634 99.0808 411.916 94.6648C414.271 90.2488 417.546 86.7896 421.741 84.2872C426.01 81.7848 430.941 80.5336 436.535 80.5336C441.981 80.5336 446.729 81.748 450.777 84.1768C454.825 86.6056 457.953 89.8808 460.161 94.0024C462.369 98.0504 463.473 102.614 463.473 107.692C463.473 108.428 463.473 109.238 463.473 110.121C463.473 111.004 463.399 111.924 463.252 112.881H417.988V104.38H450.114C449.967 100.332 448.605 97.1672 446.029 94.8856C443.453 92.5304 440.252 91.3528 436.425 91.3528C433.701 91.3528 431.199 91.9784 428.917 93.2296C426.636 94.4808 424.833 96.3576 423.508 98.86C422.183 101.289 421.521 104.38 421.521 108.134V111.335C421.521 114.794 422.146 117.775 423.397 120.278C424.722 122.78 426.489 124.694 428.697 126.018C430.978 127.27 433.517 127.895 436.314 127.895C439.405 127.895 441.945 127.233 443.932 125.908C445.993 124.583 447.501 122.817 448.458 120.609H461.927C460.897 124.068 459.204 127.196 456.849 129.993C454.493 132.716 451.586 134.887 448.127 136.506C444.668 138.052 440.767 138.825 436.425 138.825ZM475.153 137.5V75.7864C475.153 71.5176 475.852 68.0952 477.25 65.5192C478.722 62.8696 480.82 60.956 483.543 59.7784C486.266 58.6008 489.505 58.012 493.258 58.012H499.882V69.2728H495.245C492.817 69.2728 491.05 69.788 489.946 70.8184C488.916 71.7752 488.401 73.468 488.401 75.8968V137.5H475.153ZM467.204 93.0088V81.8584H500.986V93.0088H467.204ZM512.357 137.5V58.012H525.605V137.5H512.357ZM563.054 138.825C557.755 138.825 552.971 137.61 548.702 135.182C544.507 132.679 541.195 129.257 538.766 124.914C536.411 120.498 535.233 115.457 535.233 109.79C535.233 103.975 536.448 98.8968 538.877 94.5544C541.305 90.1384 544.617 86.716 548.813 84.2872C553.081 81.7848 557.865 80.5336 563.165 80.5336C568.464 80.5336 573.211 81.7848 577.406 84.2872C581.675 86.716 584.987 90.1016 587.342 94.444C589.771 98.7864 590.985 103.865 590.985 109.679C590.985 115.494 589.771 120.572 587.342 124.914C584.913 129.257 581.565 132.679 577.296 135.182C573.101 137.61 568.353 138.825 563.054 138.825ZM563.054 127.454C565.704 127.454 568.096 126.791 570.23 125.466C572.438 124.142 574.205 122.154 575.529 119.505C576.854 116.855 577.517 113.58 577.517 109.679C577.517 105.778 576.854 102.54 575.529 99.964C574.278 97.3144 572.549 95.3272 570.341 94.0024C568.206 92.6776 565.814 92.0152 563.165 92.0152C560.589 92.0152 558.197 92.6776 555.989 94.0024C553.781 95.3272 552.014 97.3144 550.689 99.964C549.365 102.54 548.702 105.778 548.702 109.679C548.702 113.58 549.365 116.855 550.689 119.505C552.014 122.154 553.744 124.142 555.878 125.466C558.086 126.791 560.478 127.454 563.054 127.454ZM609.741 137.5L593.402 81.8584H606.54L617.911 127.564L615.482 127.454L628.178 81.8584H642.972L655.778 127.454H653.349L664.721 81.8584H677.858L661.519 137.5H647.829L634.25 90.3592H637.01L623.431 137.5H609.741ZM708.094 137.5V60.22H733.044C742.024 60.22 749.42 61.8024 755.235 64.9672C761.123 68.132 765.465 72.6216 768.262 78.436C771.132 84.1768 772.568 91.0216 772.568 98.9704C772.568 106.772 771.132 113.58 768.262 119.394C765.465 125.135 761.123 129.588 755.235 132.753C749.42 135.918 742.024 137.5 733.044 137.5H708.094ZM721.342 126.239H732.382C739.08 126.239 744.342 125.172 748.169 123.038C752.07 120.83 754.83 117.702 756.449 113.654C758.142 109.532 758.988 104.638 758.988 98.9704C758.988 93.2296 758.142 88.3352 756.449 84.2872C754.83 80.1656 752.07 77.0008 748.169 74.7928C744.342 72.5112 739.08 71.3704 732.382 71.3704H721.342V126.239ZM807.804 138.825C802.284 138.825 797.427 137.647 793.231 135.292C789.036 132.863 785.761 129.478 783.406 125.135C781.051 120.793 779.873 115.788 779.873 110.121C779.873 104.233 781.014 99.0808 783.295 94.6648C785.651 90.2488 788.926 86.7896 793.121 84.2872C797.39 81.7848 802.321 80.5336 807.915 80.5336C813.361 80.5336 818.108 81.748 822.156 84.1768C826.204 86.6056 829.332 89.8808 831.54 94.0024C833.748 98.0504 834.852 102.614 834.852 107.692C834.852 108.428 834.852 109.238 834.852 110.121C834.852 111.004 834.779 111.924 834.631 112.881H789.367V104.38H821.494C821.347 100.332 819.985 97.1672 817.409 94.8856C814.833 92.5304 811.631 91.3528 807.804 91.3528C805.081 91.3528 802.579 91.9784 800.297 93.2296C798.015 94.4808 796.212 96.3576 794.887 98.86C793.563 101.289 792.9 104.38 792.9 108.134V111.335C792.9 114.794 793.526 117.775 794.777 120.278C796.102 122.78 797.868 124.694 800.076 126.018C802.358 127.27 804.897 127.895 807.694 127.895C810.785 127.895 813.324 127.233 815.311 125.908C817.372 124.583 818.881 122.817 819.838 120.609H833.307C832.276 124.068 830.583 127.196 828.228 129.993C825.873 132.716 822.966 134.887 819.507 136.506C816.047 138.052 812.147 138.825 807.804 138.825ZM865.963 138.825C861.031 138.825 856.726 138.052 853.046 136.506C849.439 134.887 846.569 132.679 844.435 129.882C842.374 127.012 841.159 123.737 840.791 120.057H854.039C854.407 121.602 855.07 123.038 856.027 124.362C856.983 125.614 858.271 126.607 859.891 127.343C861.583 128.079 863.571 128.447 865.852 128.447C868.06 128.447 869.863 128.153 871.262 127.564C872.66 126.902 873.691 126.055 874.353 125.025C875.015 123.994 875.347 122.89 875.347 121.713C875.347 119.946 874.868 118.585 873.911 117.628C872.955 116.671 871.556 115.935 869.716 115.42C867.95 114.831 865.815 114.279 863.313 113.764C860.663 113.249 858.087 112.623 855.585 111.887C853.156 111.078 850.948 110.084 848.961 108.906C847.047 107.729 845.502 106.22 844.324 104.38C843.22 102.54 842.668 100.295 842.668 97.6456C842.668 94.4072 843.515 91.5 845.207 88.924C846.974 86.348 849.476 84.324 852.715 82.852C856.027 81.3064 859.964 80.5336 864.527 80.5336C871.004 80.5336 876.156 82.0424 879.983 85.06C883.884 88.004 886.166 92.1624 886.828 97.5352H874.243C873.875 95.4744 872.844 93.892 871.151 92.788C869.459 91.6104 867.214 91.0216 864.417 91.0216C861.547 91.0216 859.339 91.5736 857.793 92.6776C856.321 93.708 855.585 95.1064 855.585 96.8728C855.585 97.9768 856.027 99.0072 856.91 99.964C857.867 100.847 859.228 101.62 860.995 102.282C862.761 102.871 864.932 103.46 867.508 104.049C871.63 104.858 875.273 105.815 878.438 106.919C881.603 108.023 884.105 109.642 885.945 111.777C887.785 113.911 888.705 116.929 888.705 120.83C888.779 124.362 887.859 127.49 885.945 130.214C884.105 132.937 881.492 135.071 878.107 136.617C874.721 138.089 870.673 138.825 865.963 138.825ZM898.8 137.5V81.8584H912.048V137.5H898.8ZM905.424 73.0264C902.995 73.0264 900.971 72.2904 899.352 70.8184C897.806 69.2728 897.033 67.396 897.033 65.188C897.033 62.9064 897.806 61.0664 899.352 59.668C900.971 58.196 902.995 57.46 905.424 57.46C907.852 57.46 909.84 58.196 911.385 59.668C913.004 61.0664 913.814 62.9064 913.814 65.188C913.814 67.396 913.004 69.2728 911.385 70.8184C909.84 72.2904 907.852 73.0264 905.424 73.0264ZM947.45 163.113C942.224 163.113 937.624 162.45 933.65 161.126C929.749 159.874 926.695 157.924 924.487 155.274C922.352 152.698 921.285 149.46 921.285 145.559C921.285 143.278 921.837 141.033 922.941 138.825C924.119 136.69 925.848 134.703 928.13 132.863C930.485 130.95 933.466 129.294 937.072 127.895L942.923 134.298C939.391 135.55 936.925 137.058 935.527 138.825C934.128 140.591 933.429 142.394 933.429 144.234C933.429 146.148 934.018 147.73 935.195 148.982C936.447 150.306 938.103 151.3 940.163 151.962C942.298 152.625 944.69 152.956 947.339 152.956C949.915 152.956 952.16 152.588 954.074 151.852C955.987 151.19 957.459 150.233 958.49 148.982C959.594 147.73 960.146 146.222 960.146 144.455C960.146 142.247 959.373 140.444 957.827 139.046C956.282 137.721 953.227 136.911 948.664 136.617C944.763 136.322 941.341 135.918 938.397 135.402C935.453 134.814 932.914 134.151 930.779 133.415C928.719 132.679 926.952 131.87 925.48 130.986C924.008 130.03 922.794 129.073 921.837 128.116V125.577L933.429 113.433L943.255 116.634L930.227 129.33L933.65 122.927C934.386 123.442 935.122 123.921 935.858 124.362C936.667 124.804 937.661 125.209 938.839 125.577C940.09 125.871 941.709 126.166 943.696 126.46C945.683 126.754 948.259 127.049 951.424 127.343C956.355 127.711 960.367 128.594 963.458 129.993C966.549 131.391 968.831 133.268 970.303 135.623C971.775 137.978 972.511 140.812 972.511 144.124C972.511 147.362 971.591 150.417 969.751 153.287C967.984 156.158 965.261 158.513 961.581 160.353C957.901 162.193 953.191 163.113 947.45 163.113ZM947.45 120.83C942.813 120.83 938.802 119.946 935.416 118.18C932.104 116.34 929.565 113.911 927.799 110.894C926.032 107.802 925.149 104.417 925.149 100.737C925.149 96.9832 926.032 93.5976 927.799 90.58C929.565 87.5624 932.104 85.1336 935.416 83.2936C938.802 81.4536 942.813 80.5336 947.45 80.5336C952.087 80.5336 956.061 81.4536 959.373 83.2936C962.685 85.1336 965.224 87.5624 966.991 90.58C968.757 93.5976 969.64 96.9832 969.64 100.737C969.64 104.417 968.757 107.802 966.991 110.894C965.224 113.911 962.685 116.34 959.373 118.18C956.061 119.946 952.087 120.83 947.45 120.83ZM947.45 110.562C950.615 110.562 953.154 109.716 955.067 108.023C956.981 106.33 957.938 103.902 957.938 100.737C957.938 97.572 956.981 95.18 955.067 93.5608C953.154 91.868 950.615 91.0216 947.45 91.0216C944.285 91.0216 941.709 91.868 939.722 93.5608C937.735 95.18 936.741 97.572 936.741 100.737C936.741 103.902 937.735 106.33 939.722 108.023C941.709 109.716 944.285 110.562 947.45 110.562ZM956.613 91.5736L954.074 81.8584H976.927V90.1384L956.613 91.5736ZM985.313 137.5V81.8584H997.015L998.009 91.132C999.701 87.8936 1002.13 85.3176 1005.3 83.404C1008.46 81.4904 1012.21 80.5336 1016.56 80.5336C1021.05 80.5336 1024.87 81.4904 1028.04 83.404C1031.2 85.244 1033.63 87.9672 1035.32 91.5736C1037.09 95.18 1037.97 99.6696 1037.97 105.042V137.5H1024.73V106.257C1024.73 101.62 1023.7 98.0504 1021.63 95.548C1019.57 93.0456 1016.52 91.7944 1012.47 91.7944C1009.82 91.7944 1007.43 92.42 1005.3 93.6712C1003.23 94.9224 1001.58 96.7624 1000.33 99.1912C999.149 101.546 998.561 104.417 998.561 107.802V137.5H985.313ZM1074.68 138.825C1069.16 138.825 1064.31 137.647 1060.11 135.292C1055.92 132.863 1052.64 129.478 1050.28 125.135C1047.93 120.793 1046.75 115.788 1046.75 110.121C1046.75 104.233 1047.89 99.0808 1050.17 94.6648C1052.53 90.2488 1055.8 86.7896 1060 84.2872C1064.27 81.7848 1069.2 80.5336 1074.79 80.5336C1080.24 80.5336 1084.99 81.748 1089.04 84.1768C1093.08 86.6056 1096.21 89.8808 1098.42 94.0024C1100.63 98.0504 1101.73 102.614 1101.73 107.692C1101.73 108.428 1101.73 109.238 1101.73 110.121C1101.73 111.004 1101.66 111.924 1101.51 112.881H1056.25V104.38H1088.37C1088.23 100.332 1086.86 97.1672 1084.29 94.8856C1081.71 92.5304 1078.51 91.3528 1074.68 91.3528C1071.96 91.3528 1069.46 91.9784 1067.18 93.2296C1064.89 94.4808 1063.09 96.3576 1061.77 98.86C1060.44 101.289 1059.78 104.38 1059.78 108.134V111.335C1059.78 114.794 1060.4 117.775 1061.66 120.278C1062.98 122.78 1064.75 124.694 1066.96 126.018C1069.24 127.27 1071.78 127.895 1074.57 127.895C1077.66 127.895 1080.2 127.233 1082.19 125.908C1084.25 124.583 1085.76 122.817 1086.72 120.609H1100.19C1099.16 124.068 1097.46 127.196 1095.11 129.993C1092.75 132.716 1089.84 134.887 1086.39 136.506C1082.93 138.052 1079.03 138.825 1074.68 138.825ZM1110.65 137.5V81.8584H1122.46L1123.68 92.236C1125 89.8072 1126.66 87.7464 1128.65 86.0536C1130.63 84.2872 1132.95 82.9256 1135.6 81.9688C1138.32 81.012 1141.31 80.5336 1144.54 80.5336V94.5544H1139.91C1137.7 94.5544 1135.6 94.8488 1133.61 95.4376C1131.63 95.9528 1129.9 96.836 1128.43 98.0872C1127.03 99.2648 1125.92 100.921 1125.11 103.055C1124.3 105.116 1123.9 107.729 1123.9 110.894V137.5H1110.65Z" fill="#1B3139"/>
</svg>
