<svg width="150" height="150" viewBox="0 0 150 150" fill="none" xmlns="http://www.w3.org/2000/svg">
<path d="M72.07 75.24H68.88L72.68 85.71H129.17L110.48 60.91L111.15 37.1H93.36L94.45 40.1H108.07L107.72 52.54H99L100.09 55.54H107.67L107.49 61.88L111.63 67.37H104.39L105.47 70.37H113.89L123.19 82.71H79L100.33 69.51L83 21.77H20.83L52.7 109.61C41.4144 112.82 30.9466 118.409 22 126L24 128.2C32.7281 120.949 42.8648 115.586 53.77 112.45L59.27 127.61L62.09 126.61L56.65 111.7C62.5068 110.23 68.5214 109.481 74.56 109.47C104.4 109.47 124.94 128.04 125.14 128.23L127.14 126.03C126.27 125.23 105.57 106.47 74.52 106.47C68.1144 106.474 61.7335 107.263 55.52 108.82L41.52 70.38H93.22L74.51 82L72.07 75.24ZM30.67 40.1H86.45L91 52.55H35.19L30.67 40.1ZM80.89 24.77L85.37 37.1H29.58L25.11 24.77H80.89ZM36.28 55.55H92.06L96.35 67.38H40.57L36.28 55.55Z" fill="white"/>
</svg>
