<svg width="150" height="150" viewBox="0 0 150 150" fill="none" xmlns="http://www.w3.org/2000/svg">
<g clip-path="url(#clip0_214_426)">
<path fill-rule="evenodd" clip-rule="evenodd" d="M114.1 93.8018C110.058 93.8018 107 96.8946 107 101.802C107 104.684 108.644 107.716 110.737 109.718L110.442 112.106L104.667 115.391C103.798 115.936 103.2 116.957 103.2 118.002V128.402H100.2V118.002C100.2 115.855 101.393 113.883 103.114 112.824L103.158 112.798L107.324 110.428C105.435 108.094 104 104.998 104 101.802C104 95.5089 108.142 90.8018 114.1 90.8018C119.969 90.8018 124.1 95.521 124.1 101.802C124.1 104.998 122.665 108.094 120.776 110.428L124.944 112.799C126.793 113.856 128 115.843 128 118.002V128.702H125V118.002C125 116.961 124.408 115.948 123.457 115.405C123.457 115.404 123.456 115.404 123.456 115.404L117.658 112.106L117.363 109.718C119.457 107.716 121.1 104.684 121.1 101.802C121.1 96.8825 118.031 93.8018 114.1 93.8018Z" fill="#FF5F46"/>
<path fill-rule="evenodd" clip-rule="evenodd" d="M68.0001 19.4009C37.3269 19.4009 12.4001 44.231 12.4001 75.0009C12.4001 105.674 37.2303 130.601 68.0001 130.601C74.6212 130.601 80.9492 129.433 86.8913 127.29L87.909 130.112C81.651 132.369 74.9791 133.601 68.0001 133.601C35.57 133.601 9.40015 107.328 9.40015 75.0009C9.40015 42.5707 35.6734 16.4009 68.0001 16.4009C100.43 16.4009 126.6 42.6742 126.6 75.0009H123.6C123.6 44.3276 98.77 19.4009 68.0001 19.4009Z" fill="#FF5F46"/>
<path fill-rule="evenodd" clip-rule="evenodd" d="M79.8001 49.2004H93.8001V82.6004H90.8001V52.2004H82.8001V101.9H69.7001V69.2004H61.7001V101.9H48.5001V78.1004H40.8001V101.9H31.1001V98.9004H37.8001V75.1004H51.5001V98.9004H58.7001V66.2004H72.7001V98.9004H79.8001V49.2004Z" fill="#FF5F46"/>
<path fill-rule="evenodd" clip-rule="evenodd" d="M67.9002 31.8018C44.0286 31.8018 24.7002 51.1302 24.7002 75.0018C24.7002 84.1927 27.5048 92.6947 32.3322 99.6462L29.8681 101.357C24.6955 93.9088 21.7002 84.8108 21.7002 75.0018C21.7002 49.4733 42.3718 28.8018 67.9002 28.8018C93.4286 28.8018 114.1 49.4733 114.1 75.0018H111.1C111.1 51.1302 91.7718 31.8018 67.9002 31.8018Z" fill="#FF5F46"/>
<path fill-rule="evenodd" clip-rule="evenodd" d="M111.2 80.938V75H114.2V83.699L112.804 83.7964C100.674 84.6426 91 94.7039 91 107.1C91 119.972 101.428 130.4 114.3 130.4C127.172 130.4 137.6 119.972 137.6 107.1C137.6 97.8025 132.154 89.8129 124.349 86.0513L123.5 85.6422V75H126.5V83.7769C134.839 88.1742 140.6 96.9388 140.6 107.1C140.6 121.628 128.828 133.4 114.3 133.4C99.7716 133.4 88 121.628 88 107.1C88 93.5761 98.1895 82.5378 111.2 80.938Z" fill="#FF5F46"/>
<path fill-rule="evenodd" clip-rule="evenodd" d="M82.9997 110.203H38.0997V107.203H82.9997V110.203Z" fill="#FF5F46"/>
</g>
<defs>
<clipPath id="clip0_214_426">
<rect width="150" height="150" fill="white"/>
</clipPath>
</defs>
</svg>
