<svg width="150" height="150" viewBox="0 0 150 150" fill="none" xmlns="http://www.w3.org/2000/svg">
<g clip-path="url(#clip0_214_420)">
<path d="M138.68 96.71C136.301 91.1209 132.061 86.5275 126.68 83.71V74.99C126.68 63.3915 123.24 52.0536 116.795 42.4107C110.35 32.7677 101.19 25.253 90.4729 20.8172C79.7562 16.3814 67.9646 15.2238 56.5898 17.491C45.2151 19.7581 34.7683 25.348 26.5712 33.5536C18.374 41.7591 12.7948 52.2116 10.5393 63.5887C8.28385 74.9657 9.45349 86.7561 13.9003 97.4683C18.347 108.18 25.8711 117.333 35.5207 123.768C45.1702 130.203 56.5116 133.632 68.1101 133.62C74.8822 133.625 81.6032 132.447 87.9701 130.14L86.9701 127.32C80.9234 129.509 74.5409 130.626 68.1101 130.62C57.1054 130.63 46.345 127.376 37.1901 121.269C28.0352 115.162 20.8972 106.478 16.679 96.3133C12.4608 86.1492 11.3521 74.9622 13.4929 64.1678C15.6337 53.3733 20.928 43.4563 28.706 35.6713C36.484 27.8863 46.3963 22.5831 57.1888 20.4326C67.9813 18.282 79.1692 19.3808 89.3372 23.5898C99.5051 27.7988 108.196 34.929 114.311 44.0784C120.426 53.2278 123.69 63.9853 123.69 74.99V85.6L124.54 86C128.202 87.7404 131.348 90.4056 133.666 93.7327C135.983 97.0599 137.394 100.934 137.757 104.972C138.121 109.011 137.425 113.075 135.738 116.762C134.052 120.45 131.433 123.634 128.14 126V118C128.139 116.948 127.861 115.914 127.335 115.003C126.808 114.093 126.051 113.336 125.14 112.81L121.01 110.43C123.007 107.979 124.161 104.949 124.3 101.79C124.3 95.42 120.08 90.79 114.3 90.79C108.52 90.79 104.3 95.41 104.3 101.85C104.445 104.988 105.603 107.995 107.6 110.42L103.47 112.79C102.528 113.296 101.738 114.045 101.182 114.96C100.626 115.874 100.325 116.92 100.31 117.99V125.58C96.5413 122.702 93.7396 118.743 92.2783 114.232C90.8171 109.721 90.7658 104.872 92.1314 100.331C93.497 95.7894 96.2145 91.7726 99.9216 88.8156C103.629 85.8586 108.149 84.102 112.88 83.78L114.28 83.68V73.57C113.998 64.251 110.904 55.2351 105.406 47.7057C99.9074 40.1764 92.2609 34.4855 83.4701 31.38L81.4701 30.67V55.42C80.1053 55.6325 78.8059 56.1499 77.6687 56.9338C76.5314 57.7177 75.5854 58.7478 74.9012 59.9476C74.2169 61.1474 73.8118 62.4861 73.7161 63.864C73.6205 65.2419 73.8366 66.6237 74.3485 67.9066C74.8605 69.1894 75.655 70.3404 76.673 71.2739C77.691 72.2074 78.9064 72.8995 80.2287 73.2986C81.551 73.6977 82.9463 73.7936 84.3108 73.5791C85.6753 73.3647 86.9739 72.8454 88.1101 72.06L94.6201 77.06C89.1052 80.7347 84.7628 85.9171 82.1101 91.99L65.3901 78.62V56.44C67.5398 56.0889 69.4947 54.9849 70.9054 53.3252C72.3161 51.6655 73.0906 49.5582 73.0906 47.38C73.0906 45.2018 72.3161 43.0945 70.9054 41.4348C69.4947 39.7751 67.5398 38.671 65.3901 38.32V28.76L63.7501 28.92C52.3267 29.9886 41.7134 35.2821 33.9877 43.7643C26.2619 52.2465 21.98 63.3068 21.9801 74.78C21.9801 98.78 41.5201 119.43 66.4701 121.78L68.1101 121.99V111.85C69.5453 111.617 70.9047 111.046 72.0767 110.186C73.2486 109.325 74.1995 108.198 74.8514 106.899C75.5032 105.599 75.8374 104.163 75.8263 102.709C75.8153 101.255 75.4594 99.8244 74.7879 98.5347C74.1164 97.245 73.1484 96.1331 71.9635 95.2902C70.7787 94.4474 69.4107 93.8978 67.9721 93.6864C66.5335 93.4751 65.0653 93.6082 63.6881 94.0747C62.3109 94.5412 61.0641 95.3279 60.0501 96.37L45.0501 84.86V76.38C47.3262 76.0034 49.3774 74.7845 50.7964 72.9654C52.2153 71.1463 52.8981 68.86 52.7092 66.5607C52.5203 64.2614 51.4735 62.1172 49.7766 60.5541C48.0798 58.991 45.8571 58.1232 43.5501 58.1232C41.243 58.1232 39.0203 58.991 37.3235 60.5541C35.6267 62.1172 34.5798 64.2614 34.3909 66.5607C34.202 68.86 34.8848 71.1463 36.3038 72.9654C37.7227 74.7845 39.7739 76.0034 42.0501 76.38V86.38L58.3501 98.88C57.7429 100.125 57.4314 101.494 57.4401 102.88C57.4659 105.037 58.2478 107.116 59.6495 108.755C61.0512 110.394 62.9836 111.49 65.1101 111.85V118.62C39.9501 115.41 24.9801 94.06 24.9801 74.78C24.9816 64.3386 28.7762 54.2533 35.6578 46.4005C42.5393 38.5477 52.0392 33.4621 62.3901 32.09V38.32C60.2403 38.671 58.2854 39.7751 56.8748 41.4348C55.4641 43.0945 54.6895 45.2018 54.6895 47.38C54.6895 49.5582 55.4641 51.6655 56.8748 53.3252C58.2854 54.9849 60.2403 56.0889 62.3901 56.44V80.06L83.3901 96.92L84.1101 94.99C86.6766 88.0409 91.6037 82.2148 98.0301 78.53L100.03 77.42L90.3301 69.99C91.519 68.4144 92.1615 66.4939 92.1601 64.52C92.1565 62.3444 91.382 60.2405 89.9741 58.5818C88.5663 56.9231 86.6162 55.8171 84.4701 55.46V34.99C92.1932 38.1564 98.8345 43.4909 103.592 50.3494C108.349 57.2079 111.02 65.297 111.28 73.64V80.94C105.037 81.6853 99.2662 84.6412 95.0134 89.2726C90.7606 93.904 88.3063 99.9049 88.0948 106.189C87.8833 112.473 89.9286 118.626 93.8604 123.533C97.7922 128.439 103.351 131.777 109.53 132.94C111.158 133.255 112.812 133.413 114.47 133.41C118.825 133.412 123.112 132.333 126.947 130.27C130.782 128.208 134.046 125.226 136.445 121.591C138.845 117.957 140.305 113.785 140.695 109.447C141.085 105.11 140.393 100.744 138.68 96.74V96.71ZM37.3501 67.32C37.3501 66.0957 37.7131 64.8989 38.3933 63.881C39.0734 62.8631 40.0402 62.0697 41.1713 61.6012C42.3023 61.1327 43.5469 61.0101 44.7477 61.2489C45.9484 61.4878 47.0514 62.0773 47.9171 62.943C48.7827 63.8087 49.3723 64.9116 49.6111 66.1124C49.85 67.3131 49.7274 68.5577 49.2589 69.6888C48.7904 70.8199 47.997 71.7866 46.979 72.4668C45.9611 73.1469 44.7643 73.51 43.5401 73.51C41.8992 73.5073 40.3263 72.8543 39.166 71.6941C38.0057 70.5338 37.3527 68.9609 37.3501 67.32ZM60.4301 102.79C60.432 101.566 60.7968 100.37 61.4781 99.3537C62.1595 98.3371 63.1269 97.5453 64.2582 97.0783C65.3894 96.6113 66.6337 96.4902 67.8338 96.7301C69.0339 96.9701 70.1359 97.5604 71.0006 98.4265C71.8653 99.2926 72.4538 100.396 72.6919 101.596C72.9299 102.797 72.8067 104.041 72.3379 105.171C71.8691 106.302 71.0757 107.268 70.058 107.947C69.0403 108.627 67.8439 108.99 66.6201 108.99C64.9775 108.987 63.403 108.333 62.2425 107.171C61.0819 106.008 60.4301 104.433 60.4301 102.79ZM57.7001 47.38C57.7001 46.1557 58.0631 44.9589 58.7433 43.941C59.4234 42.9231 60.3902 42.1297 61.5213 41.6612C62.6523 41.1927 63.8969 41.0701 65.0977 41.3089C66.2984 41.5478 67.4014 42.1373 68.2671 43.003C69.1327 43.8687 69.7223 44.9716 69.9611 46.1724C70.2 47.3731 70.0774 48.6177 69.6089 49.7488C69.1404 50.8799 68.347 51.8466 67.329 52.5268C66.3111 53.2069 65.1143 53.57 63.8901 53.57C62.2492 53.5673 60.6763 52.9143 59.516 51.7541C58.3557 50.5938 57.7027 49.0209 57.7001 47.38ZM89.1601 64.48C89.1601 65.7043 88.797 66.901 88.1169 67.919C87.4367 68.9369 86.47 69.7303 85.3389 70.1988C84.2078 70.6673 82.9632 70.7899 81.7625 70.551C80.5617 70.3122 79.4588 69.7227 78.5931 68.857C77.7274 67.9913 77.1379 66.8883 76.899 65.6876C76.6602 64.4869 76.7827 63.2422 77.2513 62.1112C77.7198 60.9801 78.5132 60.0134 79.5311 59.3332C80.549 58.653 81.7458 58.29 82.9701 58.29C84.6109 58.2926 86.1839 58.9456 87.3441 60.1059C88.5044 61.2662 89.1574 62.8391 89.1601 64.48ZM110.11 129.99C107.736 129.526 105.449 128.696 103.33 127.53V117.99C103.333 117.456 103.478 116.933 103.751 116.474C104.023 116.016 104.413 115.638 104.88 115.38L110.66 112.06L110.93 109.66C108.71 107.612 107.378 104.777 107.22 101.76C107.22 97.06 110.12 93.76 114.22 93.76C118.32 93.76 121.22 97.05 121.22 101.68C121.087 104.73 119.758 107.604 117.52 109.68L117.79 112.08L123.57 115.4C124.023 115.664 124.402 116.039 124.67 116.49C124.933 116.946 125.071 117.464 125.07 117.99V127.79C120.467 130.166 115.203 130.94 110.11 129.99Z" fill="#FF5F46"/>
</g>
<defs>
<clipPath id="clip0_214_420">
<rect width="150" height="150" fill="white"/>
</clipPath>
</defs>
</svg>
