<svg width="150" height="150" viewBox="0 0 150 150" fill="none" xmlns="http://www.w3.org/2000/svg">
<g clip-path="url(#clip0_1_1998)">
<path d="M138.68 96.7099C136.301 91.1208 132.061 86.5274 126.68 83.7099V74.9899C126.68 63.3914 123.24 52.0535 116.795 42.4105C110.35 32.7676 101.19 25.2529 90.4729 20.8171C79.7562 16.3813 67.9646 15.2237 56.5898 17.4908C45.2151 19.758 34.7683 25.3479 26.5712 33.5534C18.374 41.759 12.7948 52.2115 10.5393 63.5885C8.28382 74.9656 9.45345 86.756 13.9002 97.4682C18.347 108.18 25.8711 117.333 35.5206 123.768C45.1702 130.203 56.5116 133.632 68.11 133.62V133.62C74.8822 133.625 81.6031 132.447 87.97 130.14L86.97 127.32C80.9234 129.509 74.5409 130.626 68.11 130.62V130.62C57.1053 130.63 46.3449 127.376 37.1901 121.269C28.0352 115.162 20.8972 106.477 16.679 96.3132C12.4608 86.149 11.352 74.9621 13.4929 64.1677C15.6337 53.3732 20.928 43.4562 28.706 35.6712C36.484 27.8862 46.3962 22.583 57.1888 20.4325C67.9813 18.2819 79.1692 19.3806 89.3372 23.5897C99.5051 27.7987 108.196 34.9289 114.311 44.0783C120.426 53.2277 123.69 63.9852 123.69 74.9899V74.9899V85.5999L124.54 85.9999C128.202 87.7402 131.348 90.4055 133.666 93.7326C135.983 97.0597 137.394 100.934 137.757 104.972C138.121 109.011 137.425 113.074 135.738 116.762C134.052 120.449 131.433 123.634 128.14 126V118C128.139 116.948 127.861 115.914 127.335 115.003C126.808 114.092 126.051 113.336 125.14 112.81L121.01 110.43C123.007 107.979 124.161 104.949 124.3 101.79C124.3 95.4199 120.08 90.7899 114.3 90.7899C108.52 90.7899 104.3 95.4099 104.3 101.85C104.445 104.988 105.603 107.995 107.6 110.42L103.47 112.79C102.528 113.296 101.738 114.045 101.182 114.96C100.626 115.874 100.325 116.92 100.31 117.99V125.58C96.5413 122.702 93.7395 118.743 92.2783 114.232C90.8171 109.721 90.7658 104.871 92.1314 100.33C93.497 95.7893 96.2145 91.7725 99.9215 88.8155C103.629 85.8585 108.149 84.1018 112.88 83.7799L114.28 83.6799V73.5699C113.998 64.2508 110.904 55.235 105.406 47.7056C99.9074 40.1763 92.2609 34.4854 83.47 31.3799L81.47 30.6699V55.4199C80.1052 55.6324 78.8059 56.1498 77.6686 56.9337C76.5314 57.7175 75.5854 58.7477 74.9011 59.9475C74.2168 61.1473 73.8118 62.4859 73.7161 63.8639C73.6204 65.2418 73.8366 66.6236 74.3485 67.9064C74.8604 69.1893 75.6549 70.3403 76.673 71.2738C77.691 72.2073 78.9063 72.8993 80.2287 73.2984C81.551 73.6975 82.9463 73.7934 84.3108 73.579C85.6753 73.3646 86.9739 72.8453 88.11 72.0599L94.62 77.0599C89.1052 80.7346 84.7628 85.917 82.11 91.9899L65.39 78.6199V56.4399C67.5398 56.0888 69.4947 54.9848 70.9054 53.3251C72.316 51.6653 73.0906 49.5581 73.0906 47.3799C73.0906 45.2016 72.316 43.0944 70.9054 41.4347C69.4947 39.7749 67.5398 38.6709 65.39 38.3199V28.7599L63.75 28.9199C52.3267 29.9885 41.7134 35.282 33.9876 43.7642C26.2619 52.2464 21.98 63.3066 21.98 74.7799C21.98 98.7799 41.52 119.43 66.47 121.78L68.11 121.99V111.85C69.5453 111.617 70.9047 111.046 72.0766 110.186C73.2486 109.325 74.1995 108.198 74.8514 106.899C75.5032 105.599 75.8373 104.163 75.8263 102.709C75.8152 101.255 75.4593 99.8243 74.7878 98.5346C74.1163 97.2449 73.1484 96.133 71.9635 95.2901C70.7786 94.4473 69.4107 93.8976 67.9721 93.6863C66.5335 93.475 65.0653 93.6081 63.6881 94.0746C62.3109 94.5411 61.0641 95.3277 60.05 96.3699L45.05 84.8599V76.3799C47.3262 76.0033 49.3774 74.7844 50.7963 72.9653C52.2153 71.1462 52.8981 68.8599 52.7092 66.5606C52.5203 64.2613 51.4734 62.1171 49.7766 60.554C48.0798 58.9908 45.8571 58.1231 43.55 58.1231C41.243 58.1231 39.0203 58.9908 37.3235 60.554C35.6266 62.1171 34.5798 64.2613 34.3909 66.5606C34.202 68.8599 34.8848 71.1462 36.3037 72.9653C37.7227 74.7844 39.7739 76.0033 42.05 76.3799V86.3799L58.35 98.8799C57.7428 100.125 57.4314 101.494 57.44 102.88C57.4659 105.036 58.2478 107.116 59.6495 108.755C61.0511 110.394 62.9836 111.489 65.11 111.85V118.62C39.95 115.41 24.98 94.0599 24.98 74.7799C24.9816 64.3385 28.7762 54.2532 35.6577 46.4004C42.5393 38.5476 52.0392 33.462 62.39 32.0899V38.3199C60.2403 38.6709 58.2854 39.7749 56.8747 41.4347C55.464 43.0944 54.6895 45.2016 54.6895 47.3799C54.6895 49.5581 55.464 51.6653 56.8747 53.3251C58.2854 54.9848 60.2403 56.0888 62.39 56.4399V80.0599L83.39 96.9199L84.11 94.9899C86.6766 88.0408 91.6036 82.2147 98.03 78.5299L100.03 77.4199L90.33 69.9899C91.519 68.4142 92.1615 66.4937 92.16 64.5199C92.1564 62.3443 91.3819 60.2403 89.9741 58.5817C88.5662 56.923 86.6161 55.8169 84.47 55.4599V34.9899C92.1932 38.1562 98.8345 43.4908 103.592 50.3493C108.349 57.2078 111.02 65.2969 111.28 73.6399V80.9399C105.037 81.6852 99.2662 84.6411 95.0134 89.2725C90.7605 93.9039 88.3063 99.9048 88.0948 106.189C87.8833 112.473 89.9285 118.626 93.8604 123.532C97.7922 128.439 103.351 131.776 109.53 132.94C111.158 133.255 112.812 133.413 114.47 133.41C118.825 133.412 123.112 132.333 126.947 130.27C130.782 128.207 134.046 125.225 136.445 121.591C138.845 117.957 140.305 113.784 140.695 109.447C141.085 105.11 140.392 100.744 138.68 96.7399V96.7099ZM37.35 67.3199C37.35 66.0956 37.7131 64.8988 38.3932 63.8809C39.0734 62.8629 40.0402 62.0696 41.1712 61.601C42.3023 61.1325 43.5469 61.01 44.7476 61.2488C45.9484 61.4876 47.0513 62.0772 47.917 62.9429C48.7827 63.8086 49.3723 64.9115 49.6111 66.1123C49.8499 67.313 49.7274 68.5576 49.2589 69.6887C48.7903 70.8197 47.997 71.7865 46.979 72.4667C45.9611 73.1468 44.7643 73.5099 43.54 73.5099C41.8992 73.5072 40.3262 72.8542 39.166 71.6939C38.0057 70.5337 37.3527 68.9607 37.35 67.3199V67.3199ZM60.43 102.79C60.432 101.566 60.7967 100.37 61.4781 99.3536C62.1595 98.337 63.1269 97.5452 64.2581 97.0782C65.3894 96.6112 66.6337 96.49 67.8338 96.73C69.0338 96.97 70.1359 97.5603 71.0006 98.4264C71.8652 99.2925 72.4538 100.395 72.6918 101.596C72.9299 102.796 72.8067 104.04 72.3379 105.171C71.8691 106.301 71.0757 107.268 70.058 107.947C69.0403 108.627 67.8439 108.99 66.62 108.99C64.9774 108.987 63.403 108.333 62.2424 107.17C61.0819 106.008 60.43 104.432 60.43 102.79V102.79ZM57.7 47.3799C57.7 46.1556 58.0631 44.9588 58.7432 43.9409C59.4234 42.9229 60.3902 42.1296 61.5212 41.661C62.6523 41.1925 63.8969 41.07 65.0976 41.3088C66.2984 41.5476 67.4013 42.1372 68.267 43.0029C69.1327 43.8686 69.7223 44.9715 69.9611 46.1722C70.1999 47.373 70.0774 48.6176 69.6089 49.7487C69.1403 50.8797 68.347 51.8465 67.329 52.5267C66.3111 53.2068 65.1143 53.5699 63.89 53.5699C62.2492 53.5672 60.6762 52.9142 59.516 51.7539C58.3557 50.5937 57.7027 49.0207 57.7 47.3799V47.3799ZM89.16 64.4799C89.16 65.7041 88.797 66.9009 88.1168 67.9188C87.4367 68.9368 86.4699 69.7302 85.3389 70.1987C84.2078 70.6672 82.9632 70.7898 81.7624 70.5509C80.5617 70.3121 79.4587 69.7225 78.593 68.8568C77.7274 67.9912 77.1378 66.8882 76.899 65.6875C76.6601 64.4867 76.7827 63.2421 77.2512 62.111C77.7197 60.98 78.5131 60.0132 79.5311 59.3331C80.549 58.6529 81.7458 58.2899 82.97 58.2899C84.6109 58.2925 86.1838 58.9455 87.3441 60.1058C88.5044 61.2661 89.1574 62.839 89.16 64.4799V64.4799ZM110.11 129.99C107.736 129.526 105.449 128.696 103.33 127.53V117.99C103.333 117.456 103.478 116.933 103.751 116.474C104.023 116.016 104.413 115.638 104.88 115.38L110.66 112.06L110.93 109.66C108.709 107.612 107.378 104.777 107.22 101.76C107.22 97.0599 110.12 93.7599 114.22 93.7599C118.32 93.7599 121.22 97.0499 121.22 101.68C121.087 104.729 119.758 107.604 117.52 109.68L117.79 112.08L123.57 115.4C124.023 115.664 124.401 116.039 124.67 116.49C124.933 116.946 125.071 117.463 125.07 117.99V127.79C120.467 130.166 115.203 130.94 110.11 129.99Z" fill="white"/>
</g>
<defs>
<clipPath id="clip0_1_1998">
<rect width="150" height="150" fill="white"/>
</clipPath>
</defs>
</svg>
