<svg width="718" height="200" viewBox="0 0 718 200" fill="none" xmlns="http://www.w3.org/2000/svg">
<path d="M57.1207 89.2418C74.8605 89.2418 89.2414 74.8608 89.2414 57.1209C89.2414 39.381 74.8605 25 57.1207 25C39.3809 25 25 39.381 25 57.1209C25 74.8608 39.3809 89.2418 57.1207 89.2418Z" fill="#FABFBA"/>
<path d="M142.879 175.135C160.618 175.135 174.999 160.754 174.999 143.014C174.999 125.274 160.618 110.893 142.879 110.893C125.139 110.893 110.758 125.274 110.758 143.014C110.758 160.754 125.139 175.135 142.879 175.135Z" fill="#FABFBA"/>
<path d="M89.2414 143.021C89.2414 160.757 74.8569 175.141 57.1207 175.141C39.3845 175.141 25 160.757 25 143.021C25 125.284 39.3845 110.9 57.1207 110.9H66.6173C90.9173 110.9 110.609 91.2081 110.609 66.908V57.2717C110.609 39.5354 124.993 25.1508 142.729 25.1508C160.466 25.1508 174.85 39.5354 174.85 57.2717C174.85 75.0081 160.466 89.3926 142.729 89.3926H133.233C108.933 89.3926 89.2414 109.084 89.2414 133.384V143.021Z" fill="#FF5F46"/>
<path d="M239.838 137.5V60.22H255.515L280.245 110.121L304.754 60.22H320.541V137.5H307.293V82.9624L285.434 126.681H275.056L253.086 83.0728V137.5H239.838ZM358.413 138.825C353.114 138.825 348.33 137.61 344.061 135.182C339.866 132.679 336.554 129.257 334.125 124.914C331.77 120.498 330.592 115.457 330.592 109.79C330.592 103.975 331.807 98.8968 334.236 94.5544C336.664 90.1384 339.976 86.716 344.172 84.2872C348.44 81.7848 353.224 80.5336 358.524 80.5336C363.823 80.5336 368.57 81.7848 372.765 84.2872C377.034 86.716 380.346 90.1016 382.701 94.444C385.13 98.7864 386.344 103.865 386.344 109.679C386.344 115.494 385.13 120.572 382.701 124.914C380.272 129.257 376.924 132.679 372.655 135.182C368.46 137.61 363.712 138.825 358.413 138.825ZM358.413 127.454C361.063 127.454 363.455 126.791 365.589 125.466C367.797 124.142 369.564 122.154 370.888 119.505C372.213 116.855 372.876 113.58 372.876 109.679C372.876 105.778 372.213 102.54 370.888 99.964C369.637 97.3144 367.908 95.3272 365.7 94.0024C363.565 92.6776 361.173 92.0152 358.524 92.0152C355.948 92.0152 353.556 92.6776 351.348 94.0024C349.14 95.3272 347.373 97.3144 346.048 99.964C344.724 102.54 344.061 105.778 344.061 109.679C344.061 113.58 344.724 116.855 346.048 119.505C347.373 122.154 349.103 124.142 351.237 125.466C353.445 126.791 355.837 127.454 358.413 127.454ZM418.191 138.825C413.26 138.825 408.955 138.052 405.275 136.506C401.668 134.887 398.798 132.679 396.663 129.882C394.603 127.012 393.388 123.737 393.02 120.057H406.268C406.636 121.602 407.299 123.038 408.255 124.362C409.212 125.614 410.5 126.607 412.119 127.343C413.812 128.079 415.799 128.447 418.081 128.447C420.289 128.447 422.092 128.153 423.491 127.564C424.889 126.902 425.919 126.055 426.582 125.025C427.244 123.994 427.575 122.89 427.575 121.713C427.575 119.946 427.097 118.585 426.14 117.628C425.183 116.671 423.785 115.935 421.945 115.42C420.179 114.831 418.044 114.279 415.542 113.764C412.892 113.249 410.316 112.623 407.814 111.887C405.385 111.078 403.177 110.084 401.19 108.906C399.276 107.729 397.731 106.22 396.553 104.38C395.449 102.54 394.897 100.295 394.897 97.6456C394.897 94.4072 395.743 91.5 397.436 88.924C399.203 86.348 401.705 84.324 404.943 82.852C408.255 81.3064 412.193 80.5336 416.756 80.5336C423.233 80.5336 428.385 82.0424 432.212 85.06C436.113 88.004 438.395 92.1624 439.057 97.5352H426.471C426.103 95.4744 425.073 93.892 423.38 92.788C421.687 91.6104 419.443 91.0216 416.646 91.0216C413.775 91.0216 411.567 91.5736 410.022 92.6776C408.55 93.708 407.814 95.1064 407.814 96.8728C407.814 97.9768 408.255 99.0072 409.139 99.964C410.095 100.847 411.457 101.62 413.223 102.282C414.99 102.871 417.161 103.46 419.737 104.049C423.859 104.858 427.502 105.815 430.667 106.919C433.831 108.023 436.334 109.642 438.174 111.777C440.014 113.911 440.934 116.929 440.934 120.83C441.007 124.362 440.087 127.49 438.174 130.214C436.334 132.937 433.721 135.071 430.335 136.617C426.95 138.089 422.902 138.825 418.191 138.825ZM469.024 138.825C464.46 138.825 460.67 138.052 457.652 136.506C454.635 134.961 452.39 132.9 450.918 130.324C449.446 127.748 448.71 124.951 448.71 121.934C448.71 118.401 449.593 115.346 451.36 112.77C453.2 110.194 455.886 108.207 459.419 106.809C462.952 105.337 467.294 104.601 472.446 104.601H486.467C486.467 101.657 486.062 99.228 485.252 97.3144C484.443 95.3272 483.192 93.8552 481.499 92.8984C479.806 91.9416 477.635 91.4632 474.985 91.4632C471.968 91.4632 469.392 92.1624 467.257 93.5608C465.123 94.8856 463.798 96.9464 463.283 99.7432H450.256C450.697 95.7688 452.022 92.3832 454.23 89.5864C456.438 86.716 459.345 84.508 462.952 82.9624C466.632 81.3432 470.643 80.5336 474.985 80.5336C480.211 80.5336 484.664 81.4536 488.344 83.2936C492.024 85.06 494.82 87.636 496.734 91.0216C498.721 94.3336 499.715 98.3448 499.715 103.055V137.5H488.454L487.129 128.558C486.393 130.03 485.436 131.391 484.259 132.642C483.155 133.894 481.867 134.998 480.395 135.954C478.923 136.838 477.23 137.537 475.316 138.052C473.476 138.567 471.379 138.825 469.024 138.825ZM472.004 128.337C474.139 128.337 476.016 127.969 477.635 127.233C479.328 126.423 480.763 125.319 481.94 123.921C483.192 122.449 484.148 120.83 484.811 119.063C485.473 117.297 485.915 115.42 486.136 113.433V113.212H473.881C471.305 113.212 469.171 113.543 467.478 114.206C465.785 114.794 464.571 115.678 463.835 116.855C463.099 118.033 462.731 119.394 462.731 120.94C462.731 122.486 463.099 123.81 463.835 124.914C464.571 126.018 465.638 126.865 467.036 127.454C468.435 128.042 470.091 128.337 472.004 128.337ZM511.11 137.5V81.8584H524.358V137.5H511.11ZM517.734 73.0264C515.305 73.0264 513.281 72.2904 511.662 70.8184C510.117 69.2728 509.344 67.396 509.344 65.188C509.344 62.9064 510.117 61.0664 511.662 59.668C513.281 58.196 515.305 57.46 517.734 57.46C520.163 57.46 522.15 58.196 523.696 59.668C525.315 61.0664 526.125 62.9064 526.125 65.188C526.125 67.396 525.315 69.2728 523.696 70.8184C522.15 72.2904 520.163 73.0264 517.734 73.0264ZM562.741 138.825C557.295 138.825 552.4 137.61 548.058 135.182C543.789 132.679 540.44 129.257 538.012 124.914C535.656 120.498 534.479 115.494 534.479 109.9C534.479 104.086 535.656 99.0072 538.012 94.6648C540.44 90.2488 543.789 86.7896 548.058 84.2872C552.4 81.7848 557.332 80.5336 562.852 80.5336C569.77 80.5336 575.584 82.3736 580.295 86.0536C585.005 89.66 588.023 94.628 589.348 100.958H575.437C574.701 98.1608 573.156 95.9528 570.8 94.3336C568.519 92.7144 565.796 91.9048 562.631 91.9048C559.908 91.9048 557.405 92.604 555.124 94.0024C552.916 95.4008 551.149 97.4248 549.824 100.074C548.573 102.724 547.948 105.926 547.948 109.679C547.948 112.55 548.316 115.089 549.052 117.297C549.788 119.505 550.818 121.382 552.143 122.927C553.541 124.399 555.124 125.54 556.89 126.35C558.656 127.159 560.57 127.564 562.631 127.564C564.765 127.564 566.679 127.233 568.372 126.57C570.138 125.834 571.61 124.767 572.788 123.369C574.039 121.97 574.922 120.314 575.437 118.401H589.348C588.023 124.583 585.005 129.551 580.295 133.305C575.584 136.985 569.733 138.825 562.741 138.825ZM617.813 137.5L646.076 60.22H660.87L689.132 137.5H675.111L653.362 75.676L631.613 137.5H617.813ZM630.399 119.284L633.932 108.796H672.02L675.553 119.284H630.399ZM696.45 137.5V60.22H709.698V137.5H696.45Z" fill="white"/>
</svg>
