<svg width="150" height="150" viewBox="0 0 150 150" fill="none" xmlns="http://www.w3.org/2000/svg">
<path d="M60.4599 31.7802V27.4502C60.4563 26.4023 60.244 25.3657 59.8354 24.4007C59.4267 23.4358 58.83 22.562 58.0799 21.8302C57.3856 21.1427 56.5608 20.601 55.654 20.237C54.7473 19.8729 53.7769 19.6938 52.7999 19.7102C50.8475 19.7546 48.9898 20.5608 47.6238 21.9566C46.2579 23.3525 45.492 25.2272 45.4899 27.1802H48.4899C48.4897 26.0101 48.9483 24.8866 49.7672 24.0508C50.5861 23.2151 51.7001 22.7337 52.8699 22.7102C53.4518 22.7022 54.0292 22.8124 54.5672 23.0342C55.1052 23.2559 55.5927 23.5846 55.9999 24.0002C56.4627 24.4522 56.831 24.9918 57.0834 25.5876C57.3358 26.1833 57.4672 26.8232 57.4699 27.4702V38.4702C57.4679 39.6354 57.013 40.7542 56.2013 41.5902C55.3895 42.4262 54.2846 42.9138 53.1199 42.9502C52.537 42.951 51.9599 42.8336 51.4236 42.605C50.8873 42.3764 50.403 42.0413 49.9999 41.6202C49.5358 41.1686 49.1659 40.6293 48.9119 40.0336C48.6578 39.438 48.5246 38.7978 48.5199 38.1502V31.7802H32.7699C30.8267 31.7828 28.9638 32.5559 27.5898 33.93C26.2157 35.3041 25.4426 37.167 25.4399 39.1102V123C25.4426 124.943 26.2157 126.806 27.5898 128.18C28.9638 129.554 30.8267 130.328 32.7699 130.33H117.23C119.173 130.328 121.036 129.554 122.41 128.18C123.784 126.806 124.557 124.943 124.56 123V39.1102C124.557 37.167 123.784 35.3041 122.41 33.93C121.036 32.5559 119.173 31.7828 117.23 31.7802H108.3V34.7802H117.23C118.378 34.7802 119.48 35.2364 120.292 36.0484C121.104 36.8604 121.56 37.9618 121.56 39.1102V54.6802H28.4399V39.1102C28.4399 37.9618 28.8961 36.8604 29.7082 36.0484C30.5202 35.2364 31.6216 34.7802 32.7699 34.7802H45.4899V38.1502C45.4943 39.1988 45.708 40.2361 46.1184 41.2011C46.5288 42.1662 47.1277 43.0396 47.8799 43.7702C48.9311 44.781 50.2566 45.4602 51.6911 45.723C53.1256 45.9858 54.6057 45.8206 55.9469 45.248C57.2882 44.6755 58.4313 43.7209 59.2338 42.5032C60.0364 41.2855 60.4628 39.8585 60.4599 38.4002V34.7802H89.5399V38.4002C89.5426 40.3797 90.3287 42.2777 91.7266 43.6794C93.1245 45.081 95.0204 45.8722 96.9999 45.8802C98.9847 45.8802 100.888 45.0924 102.293 43.6899C103.697 42.2875 104.487 40.3849 104.49 38.4002V27.1802C104.49 25.1911 103.7 23.2834 102.293 21.8769C100.887 20.4704 98.9791 19.6802 96.9899 19.6802C95.0008 19.6802 93.0932 20.4704 91.6866 21.8769C90.2801 23.2834 89.4899 25.1911 89.4899 27.1802H92.4899C92.4899 25.9867 92.9641 24.8421 93.808 23.9982C94.6519 23.1543 95.7965 22.6802 96.9899 22.6802C98.1834 22.6802 99.328 23.1543 100.172 23.9982C101.016 24.8421 101.49 25.9867 101.49 27.1802V38.4002C101.482 39.5876 101.006 40.7241 100.166 41.5628C99.3249 42.4016 98.1874 42.8749 96.9999 42.8802C95.8126 42.8775 94.6746 42.4047 93.835 41.5651C92.9954 40.7255 92.5226 39.5875 92.5199 38.4002V31.7802H60.4599ZM121.56 57.6802V123C121.557 124.148 121.1 125.248 120.289 126.059C119.477 126.87 118.378 127.328 117.23 127.33H32.7699C31.6216 127.33 30.5202 126.874 29.7082 126.062C28.8961 125.25 28.4399 124.149 28.4399 123V57.6802H121.56Z" fill="#FF5F46"/>
<path d="M58.73 86.3402L56.61 84.2202L45.54 95.2902L41.35 91.1102L39.23 93.2402L45.54 99.5302L58.73 86.3402Z" fill="#FF5F46"/>
<path d="M58.73 67.16L56.61 65.04L45.54 76.11L41.35 71.94L39.23 74.06L45.54 80.36L58.73 67.16Z" fill="#FF5F46"/>
<path d="M111.17 70.6699H69.6V73.6699H111.17V70.6699Z" fill="#FF5F46"/>
<path d="M99.17 89.8398H69.6V92.8398H99.17V89.8398Z" fill="#FF5F46"/>
<path d="M58.73 105.51L56.61 103.39L45.54 114.47L41.35 110.29L39.23 112.41L45.54 118.71L58.73 105.51Z" fill="#FF5F46"/>
<path d="M111.17 109.02H69.6V112.02H111.17V109.02Z" fill="#FF5F46"/>
</svg>
