<svg width="150" height="150" viewBox="0 0 150 150" fill="none" xmlns="http://www.w3.org/2000/svg">
<path d="M60.46 31.78V27.45C60.4564 26.4021 60.244 25.3655 59.8354 24.4005C59.4268 23.4356 58.83 22.5618 58.08 21.83C57.3856 21.1425 56.5608 20.6009 55.6541 20.2368C54.7474 19.8727 53.777 19.6936 52.8 19.71C50.8475 19.7544 48.9898 20.5606 47.6239 21.9565C46.258 23.3523 45.4921 25.227 45.49 27.18H48.49C48.4898 26.0099 48.9483 24.8864 49.7673 24.0506C50.5862 23.2149 51.7002 22.7336 52.87 22.71C53.4519 22.702 54.0293 22.8123 54.5673 23.034C55.1053 23.2557 55.5927 23.5844 56 24C56.4628 24.4521 56.8311 24.9917 57.0835 25.5874C57.3358 26.1831 57.4672 26.823 57.47 27.47V38.47C57.468 39.6352 57.013 40.754 56.2013 41.59C55.3896 42.426 54.2847 42.9137 53.12 42.95C52.537 42.9508 51.96 42.8334 51.4237 42.6048C50.8874 42.3762 50.4031 42.0412 50 41.62C49.5358 41.1684 49.166 40.6291 48.9119 40.0335C48.6578 39.4378 48.5246 38.7976 48.52 38.15V31.78H32.77C30.8268 31.7826 28.9639 32.5558 27.5898 33.9298C26.2158 35.3039 25.4426 37.1668 25.44 39.11V123C25.4426 124.943 26.2158 126.806 27.5898 128.18C28.9639 129.554 30.8268 130.327 32.77 130.33H117.23C119.173 130.327 121.036 129.554 122.41 128.18C123.784 126.806 124.557 124.943 124.56 123V39.11C124.557 37.1668 123.784 35.3039 122.41 33.9298C121.036 32.5558 119.173 31.7826 117.23 31.78H108.3V34.78H117.23C118.378 34.78 119.48 35.2362 120.292 36.0482C121.104 36.8603 121.56 37.9616 121.56 39.11V54.68H28.44V39.11C28.44 37.9616 28.8962 36.8603 29.7082 36.0482C30.5203 35.2362 31.6216 34.78 32.77 34.78H45.49V38.15C45.4944 39.1987 45.708 40.2359 46.1184 41.2009C46.5288 42.166 47.1277 43.0394 47.88 43.77C48.9312 44.7808 50.2566 45.46 51.6911 45.7228C53.1256 45.9856 54.6057 45.8204 55.947 45.2479C57.2883 44.6753 58.4314 43.7207 59.2339 42.503C60.0364 41.2853 60.4628 39.8584 60.46 38.4V34.78H89.54V38.4C89.5426 40.3795 90.3288 42.2776 91.7267 43.6792C93.1246 45.0808 95.0205 45.8721 97 45.88C98.9847 45.88 100.888 45.0922 102.293 43.6898C103.697 42.2873 104.487 40.3847 104.49 38.4V27.18C104.49 25.1909 103.7 23.2832 102.293 21.8767C100.887 20.4702 98.9791 19.68 96.99 19.68C95.0009 19.68 93.0932 20.4702 91.6867 21.8767C90.2802 23.2832 89.49 25.1909 89.49 27.18H92.49C92.49 25.9865 92.9641 24.8419 93.808 23.998C94.6519 23.1541 95.7965 22.68 96.99 22.68C98.1835 22.68 99.3281 23.1541 100.172 23.998C101.016 24.8419 101.49 25.9865 101.49 27.18V38.4C101.482 39.5875 101.006 40.7239 100.166 41.5626C99.325 42.4014 98.1875 42.8748 97 42.88C95.8126 42.8774 94.6747 42.4045 93.8351 41.5649C92.9955 40.7253 92.5226 39.5874 92.52 38.4V31.78H60.46ZM121.56 57.68V123C121.557 124.148 121.1 125.247 120.289 126.059C119.477 126.87 118.378 127.327 117.23 127.33H32.77C31.6216 127.33 30.5203 126.874 29.7082 126.062C28.8962 125.25 28.44 124.148 28.44 123V57.68H121.56Z" fill="#1B3139"/>
<path d="M58.73 86.34L56.61 84.22L45.54 95.29L41.35 91.11L39.23 93.24L45.54 99.53L58.73 86.34Z" fill="#1B3139"/>
<path d="M58.73 67.16L56.61 65.04L45.54 76.11L41.35 71.94L39.23 74.06L45.54 80.36L58.73 67.16Z" fill="#1B3139"/>
<path d="M111.17 70.67H69.6V73.67H111.17V70.67Z" fill="#1B3139"/>
<path d="M99.17 89.84H69.6V92.84H99.17V89.84Z" fill="#1B3139"/>
<path d="M58.73 105.51L56.61 103.39L45.54 114.47L41.35 110.29L39.23 112.41L45.54 118.71L58.73 105.51Z" fill="#1B3139"/>
<path d="M111.17 109.02H69.6V112.02H111.17V109.02Z" fill="#1B3139"/>
</svg>
