<svg width="150" height="150" viewBox="0 0 150 150" fill="none" xmlns="http://www.w3.org/2000/svg">
<path d="M126.9 89.7C124 89.7 121.3 91.5 119.7 94.4C119.6 94.5 119.5 94.7 119.2 94.6C119 94.6 118.9 94.3 118.9 94.1V73.5H98.2C96.6 73.5 95.2 74.5 94.8 76C94.4 77.5 95.1 79.1 96.5 79.9C98.5 81 99.7 82.7 99.7 84.5C99.7 87.7 96.2 90.2 92 90.2C87.8 90.2 84.3 87.6 84.3 84.5C84.3 82.7 85.5 81 87.5 79.9C88.6 79.3 89.3 78.1 89.3 76.9C89.3 76 88.9 75.1 88.3 74.5C87.7 73.9 86.8 73.5 85.9 73.5H73.9V76.5H85.8C85.9 76.5 86 76.5 86.1 76.6C86.2 76.7 86.2 76.8 86.2 76.9C86.2 77 86.1 77.2 86 77.3C83 78.9 81.3 81.6 81.3 84.6C81.3 89.4 86.1 93.3 92 93.3C97.9 93.3 102.7 89.4 102.7 84.6C102.7 81.7 100.9 79 98 77.3C97.9 77.2 97.7 77.1 97.8 76.8C97.8 76.6 98 76.5 98.3 76.5H116V94.1C116 95.7 117 97.1 118.6 97.5C120.1 97.9 121.7 97.2 122.5 95.8C123.6 93.8 125.3 92.6 127.1 92.6C130.3 92.6 132.8 96.1 132.8 100.3C132.8 104.5 130.2 108 127.1 108C125.3 108 123.6 106.8 122.5 104.8C121.9 103.7 120.7 103 119.5 103C118.6 103 117.7 103.4 117.1 104C116.5 104.6 116.1 105.5 116.1 106.4V115.6C116.1 120.3 112.3 124.2 107.5 124.2H74.1V127.2H107.3C113.7 127.2 118.9 122 118.9 115.6V106.4C118.9 106.3 118.9 106.2 119 106.1C119.2 105.9 119.5 106 119.7 106.2C121.3 109.2 124 111 127 111C131.8 111 135.7 106.2 135.7 100.3C135.7 94.4 131.7 89.7 126.9 89.7Z" fill="#FF5F46"/>
<path d="M84.9 49.5999C84.9 43.6999 81 38.9 76.2 38.9C73.3 38.9 70.6 40.6999 69 43.5999C68.8 43.8999 68.4001 43.8 68.3001 43.7C68.3001 43.7 68.2 43.6 68.2 43.4V22.7H28.2C20.6 22.7 14.5 28.9 14.5 36.4V67.5H17.5V36.5C17.5 30.6 22.3 25.7999 28.2 25.7999H65.2V43.5C65.2 44.4 65.6 45.3 66.2 45.9C66.8 46.5 67.7 46.9 68.6 46.9C69.8 46.9 71 46.1999 71.6 45.0999C72.7 43.0999 74.4 41.9 76.2 41.9C79.4 41.9 81.9 45.3999 81.9 49.5999C81.9 53.7999 79.3 57.2999 76.2 57.2999C74.4 57.2999 72.7 56.0999 71.6 54.0999C70.8 52.6999 69.2 52 67.6 52.5C66.2 52.9 65.2 54.3 65.2 55.9V75V94.2C65.2 94.3999 65.1001 94.6 64.9001 94.7C64.6001 94.7999 64.5 94.6 64.4001 94.5C62.8001 91.5 60.1 89.7 57.1 89.7C52.3 89.7 48.4001 94.4999 48.4001 100.4C48.4001 106.3 52.3 111.1 57.1 111.1C60 111.1 62.7001 109.3 64.4001 106.4C64.5 106.1 64.9 106.1 65.1 106.3C65.2 106.4 65.2 106.5 65.2 106.6V124.3H25.9C21.2 124.3 17.3 120.5 17.3 115.7V76.5H35C35.9 76.5 36.8001 76.0999 37.4001 75.5C38.0001 74.9 38.4001 74 38.4001 73.0999C38.4001 71.8999 37.7 70.6999 36.6 70.0999C34.6 69 33.4001 67.2999 33.4001 65.5C33.4001 62.2999 36.9 59.7999 41.1 59.7999C45.3 59.7999 48.8 62.4 48.8 65.5C48.8 67.2999 47.6 69 45.6 70.0999C44.2 70.8999 43.5001 72.4 43.9001 74C44.3001 75.5 45.7 76.5 47.3 76.5H59.2001V73.5H47.5C47.3 73.5 47 73.3999 47 73.1999C46.9001 72.8999 47.2001 72.7999 47.2001 72.6999C50.2001 71.0999 52 68.4 52 65.4C52 60.6 47.2001 56.7 41.3 56.7C35.4 56.7 30.6 60.6 30.6 65.4C30.6 68.3 32.4 71 35.3 72.5999C35.5 72.6999 35.5 72.7999 35.5 73C35.5 73.2 35.4001 73.3 35.4001 73.3C35.3001 73.4 35.2 73.4 35.1 73.4H14.3V115.6C14.3 122 19.5 127.2 25.9 127.2H68.1V106.5C68.1 105.6 67.7 104.7 67.1 104.1C66.5 103.5 65.6 103.1 64.7 103.1C63.5 103.1 62.3 103.8 61.7001 104.9C60.6001 106.9 58.9 108.1 57.1 108.1C53.9 108.1 51.4001 104.6 51.4001 100.4C51.4001 96.2 54 92.7 57.1 92.7C58.9 92.7 60.6001 93.8999 61.7001 95.8999C62.5 97.2999 64 97.9999 65.6 97.5999C67.1 97.1999 68.1 95.7999 68.1 94.2V75V55.9C68.1 55.7 68.2001 55.4 68.4001 55.4C68.7001 55.3 68.9001 55.5 68.9001 55.5999C70.5 58.5999 73.2 60.4 76.2 60.4C81 60.3 84.9 55.5 84.9 49.5999Z" fill="#FF5F46"/>
</svg>
