<svg width="150" height="150" viewBox="0 0 150 150" fill="none" xmlns="http://www.w3.org/2000/svg">
<path d="M82.8901 49.6201H90.7701V18.0801H59.23V49.6201H75.0001V96.9101L65.8901 112.68L56.79 128.45H75.0001H93.21L79.7701 105.17" stroke="#FF5F46" stroke-width="3" stroke-miterlimit="3" stroke-linecap="square"/>
<path d="M44.1901 99.4598C48.5001 102.27 51.35 107.14 51.35 112.68C51.35 121.39 44.2901 128.45 35.5801 128.45C26.8701 128.45 19.8101 121.39 19.8101 112.68C19.8101 103.97 26.8701 96.9098 35.5801 96.9098V78.9598C35.5801 74.5998 39.11 71.0698 43.47 71.0698H75.0001" stroke="#FF5F46" stroke-width="3" stroke-miterlimit="3" stroke-linecap="square"/>
<path d="M123.02 99.4598C127.33 102.27 130.18 107.14 130.18 112.68C130.18 121.39 123.12 128.45 114.41 128.45C105.7 128.45 98.64 121.39 98.64 112.68C98.64 103.97 105.7 96.9098 114.41 96.9098V78.9598C114.41 74.5998 110.88 71.0698 106.52 71.0698H82.88" stroke="#FF5F46" stroke-width="3" stroke-miterlimit="3" stroke-linecap="square"/>
</svg>
