<svg width="150" height="150" viewBox="0 0 150 150" fill="none" xmlns="http://www.w3.org/2000/svg">
<g clip-path="url(#clip0_2919_2061)">
<path d="M127.68 73.06H66.66C60.64 73.06 55.74 77.96 55.74 83.98V100.71H58.74V83.98C58.74 79.61 62.29 76.06 66.66 76.06H127.68V73.06Z" fill="#FF5F46"/>
<path d="M119.23 98.04H72.34V101.04H119.23V98.04Z" fill="#FF5F46"/>
<path d="M132.83 115.09C132.83 119.46 129.28 123.01 124.91 123.01H92.89L78.47 134.65V122.94L66.67 122.98H66.64C64.53 122.98 62.54 122.16 61.05 120.67C59.55 119.17 58.72 117.18 58.72 115.06V111.7H119.22V108.7H55.72V115.06C55.72 117.98 56.86 120.73 58.93 122.79C60.99 124.85 63.73 125.98 66.64 125.98H66.68L75.47 125.95V140.93L93.95 126.01H124.91C130.93 126.01 135.83 121.11 135.83 115.09V98.36H132.83V115.09Z" fill="#FF5F46"/>
<path d="M121.7 9.07999V59.85H116.4V21.38H102.27V59.85H96.97V31.82H82.84V42.73H77.44C76.65 25.97 62.78 12.58 45.83 12.58C35.94 12.58 27.23 16.78 21.14 24.44L21.11 24.42L20.23 25.63L19.35 26.84L19.38 26.86C15.95 32.07 14.17 38.07 14.19 44.23V44.26C14.19 44.37 14.19 44.48 14.19 44.59V126.01H50.53V123.01H18.4L27.07 109.36L36.06 116.19L51.77 91.83L49.25 90.21L35.29 111.85L26.28 105.01L17.16 119.36V57.7C19.4 62.48 22.82 66.65 27.21 69.84C32.47 73.66 37.95 75.57 44.31 75.83V75.88H47.31V75.84C63.57 75.08 76.66 61.99 77.42 45.73H85.82V34.82H93.95V62.85H105.25V24.38H113.38V62.85H124.68V12.08H132.81V87.36H72.31V90.36H135.81V9.07999H121.68H121.7ZM28.98 67.41C22.79 62.91 18.72 56.27 17.52 48.72C16.4 41.66 17.92 34.58 21.79 28.64L44.32 45.01V72.86C38.62 72.6 33.71 70.86 28.98 67.42V67.41ZM47.32 72.84V45.73H69.18V42.73H46.31L23.55 26.2C29.1 19.25 36.77 15.58 45.82 15.58C61.62 15.58 74.47 28.43 74.47 44.23C74.47 60.03 62.42 72.06 47.32 72.84Z" fill="#FF5F46"/>
</g>
<defs>
<clipPath id="clip0_2919_2061">
<rect width="150" height="150" fill="white"/>
</clipPath>
</defs>
</svg>
