<svg width="151" height="150" viewBox="0 0 151 150" fill="none" xmlns="http://www.w3.org/2000/svg">
<g clip-path="url(#clip0_8407_582)">
<mask id="mask0_8407_582" style="mask-type:luminance" maskUnits="userSpaceOnUse" x="0" y="0" width="151" height="150">
<path d="M150.716 0H0.715576V150H150.716V0Z" fill="white"/>
</mask>
<g mask="url(#mask0_8407_582)">
<path d="M128.396 73.0605H67.3756C61.3556 73.0605 56.4556 77.9606 56.4556 83.9806V100.711H59.4556V83.9806C59.4556 79.6106 63.0056 76.0605 67.3756 76.0605H128.396V73.0605Z" fill="white"/>
<path d="M119.946 98.04H73.0556V101.04H119.946V98.04Z" fill="white"/>
<path d="M133.546 115.09C133.546 119.46 129.996 123.01 125.626 123.01H93.6056L79.1856 134.65V122.94L67.3856 122.98H67.3556C65.2456 122.98 63.2556 122.16 61.7656 120.67C60.2656 119.17 59.4356 117.18 59.4356 115.06V111.7H119.936V108.7H56.4356V115.06C56.4356 117.98 57.5756 120.73 59.6456 122.79C61.7056 124.85 64.4456 125.98 67.3556 125.98H67.3956L76.1856 125.95V140.93L94.6656 126.01H125.626C131.646 126.01 136.546 121.11 136.546 115.09V98.3604H133.546V115.09Z" fill="white"/>
<path d="M122.416 9.08008V59.8501H117.116V21.3801H102.986V59.8501H97.6856V31.8201H83.5556V42.7301H78.1556C77.3656 25.9701 63.4956 12.5801 46.5456 12.5801C36.6556 12.5801 27.9456 16.7801 21.8556 24.4401L21.8256 24.4201L20.9456 25.6301L20.0656 26.8401L20.0956 26.8601C16.6656 32.0701 14.8856 38.0701 14.9056 44.2301V44.2601C14.9056 44.3701 14.9056 44.4801 14.9056 44.5901V126.01H51.2456V123.01H19.1156L27.7856 109.36L36.7756 116.19L52.4856 91.8301L49.9656 90.2101L36.0056 111.85L26.9956 105.01L17.8756 119.36V57.7001C20.1156 62.4801 23.5356 66.6501 27.9256 69.8401C33.1856 73.6601 38.6656 75.5701 45.0256 75.8301V75.8801H48.0256V75.8401C64.2856 75.0801 77.3756 61.9901 78.1356 45.7301H86.5356V34.8201H94.6656V62.8501H105.966V24.3801H114.096V62.8501H125.396V12.0801H133.526V87.3601H73.0256V90.3601H136.526V9.08008H122.396H122.416ZM29.6956 67.4101C23.5056 62.9101 19.4356 56.2701 18.2356 48.7201C17.1156 41.6601 18.6356 34.5801 22.5056 28.6401L45.0356 45.0101V72.8601C39.3356 72.6001 34.4256 70.8601 29.6956 67.4201V67.4101ZM48.0356 72.8401V45.7301H69.8956V42.7301H47.0256L24.2656 26.2001C29.8156 19.2501 37.4856 15.5801 46.5356 15.5801C62.3356 15.5801 75.1856 28.4301 75.1856 44.2301C75.1856 60.0301 63.1356 72.0601 48.0356 72.8401Z" fill="white"/>
</g>
</g>
<defs>
<clipPath id="clip0_8407_582">
<rect width="150" height="150" fill="white" transform="translate(0.715576)"/>
</clipPath>
</defs>
</svg>
