<svg width="1229" height="724" viewBox="0 0 1229 724" fill="none" xmlns="http://www.w3.org/2000/svg">
<g filter="url(#filter0_dddddd_1117_13664)">
<path d="M192 150.383C192 99.9134 232.913 59 283.383 59H441.017C491.487 59 532.4 99.9134 532.4 150.383V308.017C532.4 358.487 491.487 399.4 441.017 399.4H283.383C232.913 399.4 192 358.487 192 308.017V150.383Z" fill="white"/>
</g>
<path d="M317.893 166.135L317.893 295.865L266.001 327L266.001 135L317.893 166.135Z" fill="#FABFBA"/>
<path d="M388.352 166.135L388.352 295.865L336.46 327L336.46 135L388.352 166.135Z" fill="#FF5F46"/>
<path d="M457.813 166.135L457.813 295.865L405.921 327L405.921 135L457.813 166.135Z" fill="#FABFBA"/>
<path d="M603.901 217.2V139.92H623.773C632.752 139.92 640.149 141.503 645.964 144.667C651.852 147.759 656.194 152.211 658.991 158.026C661.861 163.767 663.296 170.685 663.296 178.781C663.296 186.73 661.861 193.575 658.991 199.315C656.194 205.056 651.852 209.472 645.964 212.563C640.149 215.655 632.752 217.2 623.773 217.2H603.901ZM613.175 209.472H623.552C630.986 209.472 636.911 208.258 641.327 205.829C645.743 203.327 648.908 199.794 650.821 195.231C652.735 190.594 653.692 185.111 653.692 178.781C653.692 172.304 652.735 166.747 650.821 162.111C648.908 157.474 645.743 153.904 641.327 151.402C636.911 148.899 630.986 147.648 623.552 147.648H613.175V209.472ZM691.345 218.525C686.929 218.525 683.249 217.715 680.305 216.096C677.361 214.403 675.153 212.195 673.681 209.472C672.209 206.675 671.473 203.695 671.473 200.53C671.473 196.703 672.43 193.464 674.343 190.815C676.33 188.091 679.09 186.031 682.623 184.632C686.156 183.234 690.278 182.535 694.988 182.535H709.45C709.45 178.781 709.009 175.653 708.126 173.151C707.242 170.648 705.807 168.771 703.82 167.52C701.833 166.269 699.183 165.643 695.871 165.643C692.559 165.643 689.726 166.49 687.37 168.183C685.015 169.802 683.543 172.231 682.954 175.469H673.46C673.902 171.642 675.19 168.44 677.324 165.864C679.458 163.215 682.145 161.227 685.383 159.903C688.695 158.504 692.191 157.805 695.871 157.805C701.097 157.805 705.402 158.762 708.788 160.675C712.174 162.515 714.676 165.128 716.295 168.514C717.914 171.826 718.724 175.763 718.724 180.327V217.2H710.444L709.892 207.264C709.156 208.81 708.199 210.282 707.022 211.68C705.918 213.005 704.593 214.183 703.047 215.213C701.502 216.243 699.735 217.053 697.748 217.642C695.834 218.231 693.7 218.525 691.345 218.525ZM692.67 210.687C695.098 210.687 697.343 210.135 699.404 209.031C701.465 207.927 703.231 206.455 704.703 204.615C706.249 202.701 707.426 200.567 708.236 198.211C709.046 195.856 709.45 193.391 709.45 190.815V189.711H695.761C692.302 189.711 689.468 190.152 687.26 191.035C685.126 191.919 683.58 193.17 682.623 194.789C681.666 196.335 681.188 198.101 681.188 200.088C681.188 202.223 681.63 204.099 682.513 205.719C683.396 207.264 684.684 208.479 686.377 209.362C688.143 210.245 690.241 210.687 692.67 210.687ZM751.746 217.2C748.434 217.2 745.563 216.685 743.135 215.655C740.706 214.624 738.829 212.895 737.504 210.466C736.253 207.963 735.627 204.615 735.627 200.419V166.968H725.471V159.13H735.627L736.842 144.667H744.901V159.13H761.351V166.968H744.901V200.419C744.901 203.879 745.6 206.234 746.999 207.485C748.397 208.663 750.863 209.251 754.395 209.251H761.13V217.2H751.746ZM788.868 218.525C784.452 218.525 780.772 217.715 777.828 216.096C774.884 214.403 772.676 212.195 771.204 209.472C769.732 206.675 768.996 203.695 768.996 200.53C768.996 196.703 769.953 193.464 771.866 190.815C773.853 188.091 776.613 186.031 780.146 184.632C783.679 183.234 787.801 182.535 792.511 182.535H806.973C806.973 178.781 806.532 175.653 805.649 173.151C804.765 170.648 803.33 168.771 801.343 167.52C799.356 166.269 796.706 165.643 793.394 165.643C790.082 165.643 787.249 166.49 784.893 168.183C782.538 169.802 781.066 172.231 780.477 175.469H770.983C771.425 171.642 772.713 168.44 774.847 165.864C776.981 163.215 779.668 161.227 782.906 159.903C786.218 158.504 789.714 157.805 793.394 157.805C798.62 157.805 802.925 158.762 806.311 160.675C809.697 162.515 812.199 165.128 813.818 168.514C815.437 171.826 816.247 175.763 816.247 180.327V217.2H807.967L807.415 207.264C806.679 208.81 805.722 210.282 804.545 211.68C803.441 213.005 802.116 214.183 800.57 215.213C799.025 216.243 797.258 217.053 795.271 217.642C793.357 218.231 791.223 218.525 788.868 218.525ZM790.193 210.687C792.621 210.687 794.866 210.135 796.927 209.031C798.988 207.927 800.754 206.455 802.226 204.615C803.772 202.701 804.949 200.567 805.759 198.211C806.569 195.856 806.973 193.391 806.973 190.815V189.711H793.284C789.825 189.711 786.991 190.152 784.783 191.035C782.649 191.919 781.103 193.17 780.146 194.789C779.189 196.335 778.711 198.101 778.711 200.088C778.711 202.223 779.153 204.099 780.036 205.719C780.919 207.264 782.207 208.479 783.9 209.362C785.666 210.245 787.764 210.687 790.193 210.687ZM857.181 218.525C853.648 218.525 850.594 218.01 848.018 216.979C845.516 215.875 843.381 214.514 841.615 212.895C839.922 211.275 838.524 209.693 837.42 208.147L836.647 217.2H828.256V137.712H837.53V168.293C839.296 164.834 841.909 162.221 845.368 160.455C848.828 158.688 852.692 157.805 856.96 157.805C862.26 157.805 866.896 159.093 870.871 161.669C874.845 164.245 877.936 167.815 880.144 172.378C882.352 176.867 883.456 182.056 883.456 187.944C883.456 193.759 882.352 198.984 880.144 203.621C877.936 208.258 874.845 211.901 870.871 214.551C866.97 217.2 862.407 218.525 857.181 218.525ZM855.967 210.466C859.426 210.466 862.48 209.583 865.13 207.816C867.853 205.976 869.988 203.4 871.533 200.088C873.152 196.703 873.962 192.728 873.962 188.165C873.962 183.602 873.152 179.664 871.533 176.352C869.988 172.967 867.853 170.391 865.13 168.624C862.48 166.784 859.426 165.864 855.967 165.864C852.287 165.864 849.085 166.784 846.362 168.624C843.639 170.391 841.541 172.967 840.069 176.352C838.597 179.664 837.861 183.602 837.861 188.165C837.861 192.728 838.597 196.703 840.069 200.088C841.541 203.4 843.639 205.976 846.362 207.816C849.085 209.583 852.287 210.466 855.967 210.466ZM893.621 217.2V159.13H902.011L902.674 169.728C903.999 167.079 905.728 164.871 907.863 163.104C909.997 161.338 912.573 160.013 915.591 159.13C918.682 158.247 922.141 157.805 925.968 157.805V167.52H920.227C918.019 167.52 915.885 167.815 913.824 168.403C911.763 168.992 909.887 169.949 908.194 171.274C906.575 172.599 905.287 174.402 904.33 176.683C903.373 178.965 902.895 181.835 902.895 185.295V217.2H893.621ZM934.209 217.2V159.13H943.483V217.2H934.209ZM938.846 148.09C937.006 148.09 935.461 147.501 934.209 146.323C933.032 145.072 932.443 143.527 932.443 141.687C932.443 139.847 933.032 138.375 934.209 137.271C935.461 136.093 937.006 135.504 938.846 135.504C940.613 135.504 942.121 136.093 943.373 137.271C944.624 138.375 945.249 139.847 945.249 141.687C945.249 143.527 944.624 145.072 943.373 146.323C942.121 147.501 940.613 148.09 938.846 148.09ZM981.705 218.525C976.405 218.525 971.695 217.274 967.573 214.771C963.452 212.195 960.213 208.626 957.858 204.063C955.503 199.499 954.325 194.2 954.325 188.165C954.325 182.056 955.503 176.757 957.858 172.267C960.213 167.704 963.452 164.171 967.573 161.669C971.695 159.093 976.405 157.805 981.705 157.805C988.329 157.805 993.849 159.571 998.265 163.104C1002.75 166.637 1005.62 171.384 1006.88 177.346H997.381C996.572 173.666 994.695 170.832 991.751 168.845C988.881 166.784 985.495 165.754 981.594 165.754C978.209 165.754 975.154 166.6 972.431 168.293C969.781 169.986 967.684 172.488 966.138 175.8C964.593 179.112 963.82 183.234 963.82 188.165C963.82 191.845 964.261 195.12 965.145 197.991C966.028 200.787 967.242 203.143 968.788 205.056C970.407 206.896 972.284 208.295 974.418 209.251C976.626 210.208 979.018 210.687 981.594 210.687C984.244 210.687 986.636 210.245 988.77 209.362C990.978 208.405 992.818 207.043 994.29 205.277C995.836 203.511 996.866 201.413 997.381 198.984H1006.88C1005.7 204.799 1002.83 209.509 998.265 213.115C993.775 216.722 988.255 218.525 981.705 218.525ZM1051.16 217.2L1024.78 185.847L1049.62 159.13H1060.99L1032.62 189.159L1032.73 182.535L1062.98 217.2H1051.16ZM1017.05 217.2V137.712H1026.32V217.2H1017.05ZM1087.22 218.525C1081.99 218.525 1077.65 217.752 1074.19 216.207C1070.8 214.587 1068.23 212.379 1066.46 209.583C1064.7 206.712 1063.63 203.4 1063.26 199.647H1072.76C1073.05 201.634 1073.71 203.474 1074.74 205.167C1075.85 206.786 1077.43 208.111 1079.49 209.141C1081.55 210.171 1084.16 210.687 1087.33 210.687C1089.83 210.687 1091.96 210.319 1093.73 209.583C1095.5 208.773 1096.82 207.669 1097.71 206.271C1098.66 204.872 1099.14 203.253 1099.14 201.413C1099.14 198.984 1098.59 197.107 1097.48 195.783C1096.45 194.384 1094.91 193.354 1092.85 192.691C1090.86 191.955 1088.36 191.403 1085.34 191.035C1082.1 190.594 1079.23 189.968 1076.73 189.159C1074.23 188.349 1072.09 187.282 1070.33 185.957C1068.63 184.632 1067.35 182.976 1066.46 180.989C1065.58 179.002 1065.14 176.647 1065.14 173.923C1065.14 170.759 1065.98 167.962 1067.68 165.533C1069.37 163.104 1071.76 161.227 1074.85 159.903C1078.02 158.504 1081.73 157.805 1086 157.805C1092.26 157.805 1097.19 159.24 1100.8 162.111C1104.48 164.981 1106.65 169.066 1107.31 174.365H1098.15C1097.78 171.642 1096.53 169.507 1094.39 167.962C1092.26 166.416 1089.43 165.643 1085.89 165.643C1082.14 165.643 1079.31 166.343 1077.39 167.741C1075.48 169.139 1074.52 170.979 1074.52 173.261C1074.52 174.954 1074.93 176.499 1075.74 177.898C1076.62 179.223 1078.09 180.363 1080.15 181.32C1082.21 182.203 1084.97 182.866 1088.43 183.307C1092.77 183.823 1096.45 184.669 1099.47 185.847C1102.49 186.951 1104.77 188.68 1106.32 191.035C1107.94 193.391 1108.71 196.592 1108.64 200.64C1108.64 204.467 1107.72 207.706 1105.88 210.355C1104.11 213.005 1101.61 215.029 1098.37 216.427C1095.2 217.826 1091.49 218.525 1087.22 218.525ZM603.239 316.2V238.92H618.916L643.645 288.821L668.154 238.92H683.941V316.2H670.693V261.663L648.834 305.381H638.456L616.487 261.773V316.2H603.239ZM714.417 317.525C709.854 317.525 706.063 316.752 703.046 315.207C700.028 313.661 697.783 311.6 696.311 309.024C694.839 306.448 694.103 303.651 694.103 300.634C694.103 297.101 694.986 294.047 696.753 291.471C698.593 288.895 701.279 286.907 704.812 285.509C708.345 284.037 712.687 283.301 717.839 283.301H731.86C731.86 280.357 731.455 277.928 730.646 276.015C729.836 274.027 728.585 272.555 726.892 271.599C725.199 270.642 723.028 270.163 720.378 270.163C717.361 270.163 714.785 270.863 712.65 272.261C710.516 273.586 709.191 275.647 708.676 278.443H695.649C696.09 274.469 697.415 271.083 699.623 268.287C701.831 265.416 704.738 263.208 708.345 261.663C712.025 260.043 716.036 259.234 720.378 259.234C725.604 259.234 730.057 260.154 733.737 261.994C737.417 263.76 740.214 266.336 742.127 269.722C744.114 273.034 745.108 277.045 745.108 281.755V316.2H733.847L732.522 307.258C731.786 308.73 730.83 310.091 729.652 311.343C728.548 312.594 727.26 313.698 725.788 314.655C724.316 315.538 722.623 316.237 720.71 316.752C718.87 317.267 716.772 317.525 714.417 317.525ZM717.398 307.037C719.532 307.037 721.409 306.669 723.028 305.933C724.721 305.123 726.156 304.019 727.334 302.621C728.585 301.149 729.542 299.53 730.204 297.763C730.866 295.997 731.308 294.12 731.529 292.133V291.912H719.274C716.698 291.912 714.564 292.243 712.871 292.906C711.178 293.495 709.964 294.378 709.228 295.555C708.492 296.733 708.124 298.095 708.124 299.64C708.124 301.186 708.492 302.511 709.228 303.615C709.964 304.719 711.031 305.565 712.43 306.154C713.828 306.743 715.484 307.037 717.398 307.037ZM755.951 316.2V260.559H767.764L768.979 270.936C770.303 268.507 771.959 266.447 773.947 264.754C775.934 262.987 778.252 261.626 780.902 260.669C783.625 259.712 786.606 259.234 789.844 259.234V273.255H785.207C782.999 273.255 780.902 273.549 778.915 274.138C776.927 274.653 775.198 275.536 773.726 276.787C772.327 277.965 771.223 279.621 770.414 281.755C769.604 283.816 769.199 286.429 769.199 289.594V316.2H755.951ZM832.399 316.2L807.78 285.73L829.86 260.559H845.647L818.157 291.139V280.872L848.959 316.2H832.399ZM796.519 316.2V236.712H809.767V316.2H796.519ZM876.186 317.525C870.666 317.525 865.809 316.347 861.614 313.992C857.418 311.563 854.143 308.178 851.788 303.835C849.433 299.493 848.255 294.488 848.255 288.821C848.255 282.933 849.396 277.781 851.678 273.365C854.033 268.949 857.308 265.49 861.503 262.987C865.772 260.485 870.703 259.234 876.297 259.234C881.743 259.234 886.49 260.448 890.538 262.877C894.586 265.306 897.714 268.581 899.922 272.703C902.13 276.751 903.234 281.314 903.234 286.392C903.234 287.128 903.234 287.938 903.234 288.821C903.234 289.704 903.161 290.624 903.014 291.581H857.75V283.08H889.876C889.729 279.032 888.367 275.867 885.791 273.586C883.215 271.231 880.014 270.053 876.186 270.053C873.463 270.053 870.961 270.679 868.679 271.93C866.398 273.181 864.594 275.058 863.27 277.56C861.945 279.989 861.282 283.08 861.282 286.834V290.035C861.282 293.495 861.908 296.475 863.159 298.978C864.484 301.48 866.25 303.394 868.458 304.719C870.74 305.97 873.279 306.595 876.076 306.595C879.167 306.595 881.706 305.933 883.694 304.608C885.754 303.283 887.263 301.517 888.22 299.309H901.689C900.658 302.768 898.966 305.896 896.61 308.693C894.255 311.416 891.348 313.587 887.889 315.207C884.43 316.752 880.529 317.525 876.186 317.525ZM935.254 316.2C931.5 316.2 928.225 315.611 925.428 314.434C922.705 313.256 920.571 311.306 919.025 308.583C917.479 305.859 916.707 302.179 916.707 297.543V271.709H907.212V260.559H916.707L918.252 245.875H929.955V260.559H945.079V271.709H929.955V297.543C929.955 300.339 930.543 302.29 931.721 303.394C932.972 304.424 935.033 304.939 937.903 304.939H944.748V316.2H935.254ZM954.231 340.488V260.559H966.044L967.479 268.618C968.657 266.999 970.055 265.49 971.675 264.091C973.367 262.619 975.391 261.442 977.747 260.559C980.175 259.675 982.935 259.234 986.027 259.234C991.252 259.234 995.852 260.522 999.827 263.098C1003.87 265.674 1007.04 269.17 1009.32 273.586C1011.6 277.928 1012.74 282.896 1012.74 288.49C1012.74 294.083 1011.57 299.088 1009.21 303.504C1006.93 307.847 1003.76 311.269 999.716 313.771C995.742 316.274 991.179 317.525 986.027 317.525C981.831 317.525 978.151 316.752 974.987 315.207C971.895 313.587 969.393 311.306 967.479 308.362V340.488H954.231ZM983.267 306.043C986.358 306.043 989.118 305.307 991.547 303.835C993.975 302.363 995.852 300.303 997.177 297.653C998.575 295.003 999.275 291.949 999.275 288.49C999.275 284.957 998.575 281.866 997.177 279.216C995.852 276.567 993.975 274.506 991.547 273.034C989.118 271.562 986.358 270.826 983.267 270.826C980.102 270.826 977.305 271.562 974.876 273.034C972.521 274.506 970.644 276.567 969.246 279.216C967.921 281.866 967.259 284.92 967.259 288.379C967.259 291.912 967.921 295.003 969.246 297.653C970.644 300.229 972.521 302.29 974.876 303.835C977.305 305.307 980.102 306.043 983.267 306.043ZM1022.29 316.2V236.712H1035.54V316.2H1022.29ZM1065.56 317.525C1060.99 317.525 1057.2 316.752 1054.19 315.207C1051.17 313.661 1048.92 311.6 1047.45 309.024C1045.98 306.448 1045.24 303.651 1045.24 300.634C1045.24 297.101 1046.13 294.047 1047.89 291.471C1049.73 288.895 1052.42 286.907 1055.95 285.509C1059.49 284.037 1063.83 283.301 1068.98 283.301H1083C1083 280.357 1082.6 277.928 1081.79 276.015C1080.98 274.027 1079.73 272.555 1078.03 271.599C1076.34 270.642 1074.17 270.163 1071.52 270.163C1068.5 270.163 1065.93 270.863 1063.79 272.261C1061.66 273.586 1060.33 275.647 1059.82 278.443H1046.79C1047.23 274.469 1048.56 271.083 1050.76 268.287C1052.97 265.416 1055.88 263.208 1059.49 261.663C1063.17 260.043 1067.18 259.234 1071.52 259.234C1076.74 259.234 1081.2 260.154 1084.88 261.994C1088.56 263.76 1091.35 266.336 1093.27 269.722C1095.26 273.034 1096.25 277.045 1096.25 281.755V316.2H1084.99L1083.66 307.258C1082.93 308.73 1081.97 310.091 1080.79 311.343C1079.69 312.594 1078.4 313.698 1076.93 314.655C1075.46 315.538 1073.76 316.237 1071.85 316.752C1070.01 317.267 1067.91 317.525 1065.56 317.525ZM1068.54 307.037C1070.67 307.037 1072.55 306.669 1074.17 305.933C1075.86 305.123 1077.3 304.019 1078.47 302.621C1079.73 301.149 1080.68 299.53 1081.34 297.763C1082.01 295.997 1082.45 294.12 1082.67 292.133V291.912H1070.42C1067.84 291.912 1065.7 292.243 1064.01 292.906C1062.32 293.495 1061.1 294.378 1060.37 295.555C1059.63 296.733 1059.26 298.095 1059.26 299.64C1059.26 301.186 1059.63 302.511 1060.37 303.615C1061.1 304.719 1062.17 305.565 1063.57 306.154C1064.97 306.743 1066.62 307.037 1068.54 307.037ZM1133.48 317.525C1128.03 317.525 1123.14 316.311 1118.79 313.882C1114.53 311.379 1111.18 307.957 1108.75 303.615C1106.39 299.199 1105.22 294.194 1105.22 288.6C1105.22 282.786 1106.39 277.707 1108.75 273.365C1111.18 268.949 1114.53 265.49 1118.79 262.987C1123.14 260.485 1128.07 259.234 1133.59 259.234C1140.51 259.234 1146.32 261.074 1151.03 264.754C1155.74 268.36 1158.76 273.328 1160.08 279.658H1146.17C1145.44 276.861 1143.89 274.653 1141.54 273.034C1139.26 271.415 1136.53 270.605 1133.37 270.605C1130.64 270.605 1128.14 271.304 1125.86 272.703C1123.65 274.101 1121.89 276.125 1120.56 278.775C1119.31 281.424 1118.68 284.626 1118.68 288.379C1118.68 291.25 1119.05 293.789 1119.79 295.997C1120.52 298.205 1121.55 300.082 1122.88 301.627C1124.28 303.099 1125.86 304.24 1127.63 305.05C1129.39 305.859 1131.31 306.264 1133.37 306.264C1135.5 306.264 1137.42 305.933 1139.11 305.271C1140.87 304.535 1142.35 303.467 1143.52 302.069C1144.78 300.671 1145.66 299.015 1146.17 297.101H1160.08C1158.76 303.283 1155.74 308.251 1151.03 312.005C1146.32 315.685 1140.47 317.525 1133.48 317.525ZM1195.6 317.525C1190.08 317.525 1185.22 316.347 1181.03 313.992C1176.83 311.563 1173.56 308.178 1171.2 303.835C1168.85 299.493 1167.67 294.488 1167.67 288.821C1167.67 282.933 1168.81 277.781 1171.09 273.365C1173.45 268.949 1176.72 265.49 1180.92 262.987C1185.19 260.485 1190.12 259.234 1195.71 259.234C1201.16 259.234 1205.9 260.448 1209.95 262.877C1214 265.306 1217.13 268.581 1219.34 272.703C1221.54 276.751 1222.65 281.314 1222.65 286.392C1222.65 287.128 1222.65 287.938 1222.65 288.821C1222.65 289.704 1222.57 290.624 1222.43 291.581H1177.16V283.08H1209.29C1209.14 279.032 1207.78 275.867 1205.21 273.586C1202.63 271.231 1199.43 270.053 1195.6 270.053C1192.88 270.053 1190.37 270.679 1188.09 271.93C1185.81 273.181 1184.01 275.058 1182.68 277.56C1181.36 279.989 1180.7 283.08 1180.7 286.834V290.035C1180.7 293.495 1181.32 296.475 1182.57 298.978C1183.9 301.48 1185.66 303.394 1187.87 304.719C1190.15 305.97 1192.69 306.595 1195.49 306.595C1198.58 306.595 1201.12 305.933 1203.11 304.608C1205.17 303.283 1206.68 301.517 1207.63 299.309H1221.1C1220.07 302.768 1218.38 305.896 1216.02 308.693C1213.67 311.416 1210.76 313.587 1207.3 315.207C1203.84 316.752 1199.94 317.525 1195.6 317.525Z" fill="white"/>
<defs>
<filter id="filter0_dddddd_1117_13664" x="0.639999" y="0.119995" width="723.12" height="723.12" filterUnits="userSpaceOnUse" color-interpolation-filters="sRGB">
<feFlood flood-opacity="0" result="BackgroundImageFix"/>
<feColorMatrix in="SourceAlpha" type="matrix" values="0 0 0 0 0 0 0 0 0 0 0 0 0 0 0 0 0 0 127 0" result="hardAlpha"/>
<feOffset dy="3.68"/>
<feGaussianBlur stdDeviation="2.76"/>
<feColorMatrix type="matrix" values="0 0 0 0 0.105882 0 0 0 0 0.192157 0 0 0 0 0.223529 0 0 0 0.0196802 0"/>
<feBlend mode="normal" in2="BackgroundImageFix" result="effect1_dropShadow_1117_13664"/>
<feColorMatrix in="SourceAlpha" type="matrix" values="0 0 0 0 0 0 0 0 0 0 0 0 0 0 0 0 0 0 127 0" result="hardAlpha"/>
<feOffset dy="7.36"/>
<feGaussianBlur stdDeviation="7.36"/>
<feColorMatrix type="matrix" values="0 0 0 0 0.105882 0 0 0 0 0.192157 0 0 0 0 0.223529 0 0 0 0.04 0"/>
<feBlend mode="normal" in2="effect1_dropShadow_1117_13664" result="effect2_dropShadow_1117_13664"/>
<feColorMatrix in="SourceAlpha" type="matrix" values="0 0 0 0 0 0 0 0 0 0 0 0 0 0 0 0 0 0 127 0" result="hardAlpha"/>
<feOffset dy="16.56"/>
<feGaussianBlur stdDeviation="11.96"/>
<feColorMatrix type="matrix" values="0 0 0 0 0.105882 0 0 0 0 0.192157 0 0 0 0 0.223529 0 0 0 0.035 0"/>
<feBlend mode="normal" in2="effect2_dropShadow_1117_13664" result="effect3_dropShadow_1117_13664"/>
<feColorMatrix in="SourceAlpha" type="matrix" values="0 0 0 0 0 0 0 0 0 0 0 0 0 0 0 0 0 0 127 0" result="hardAlpha"/>
<feOffset dy="29.44"/>
<feGaussianBlur stdDeviation="22.08"/>
<feColorMatrix type="matrix" values="0 0 0 0 0.105882 0 0 0 0 0.192157 0 0 0 0 0.223529 0 0 0 0.04 0"/>
<feBlend mode="normal" in2="effect3_dropShadow_1117_13664" result="effect4_dropShadow_1117_13664"/>
<feColorMatrix in="SourceAlpha" type="matrix" values="0 0 0 0 0 0 0 0 0 0 0 0 0 0 0 0 0 0 127 0" result="hardAlpha"/>
<feOffset dy="58.88"/>
<feGaussianBlur stdDeviation="36.8"/>
<feColorMatrix type="matrix" values="0 0 0 0 0.105882 0 0 0 0 0.192157 0 0 0 0 0.223529 0 0 0 0.0503198 0"/>
<feBlend mode="normal" in2="effect4_dropShadow_1117_13664" result="effect5_dropShadow_1117_13664"/>
<feColorMatrix in="SourceAlpha" type="matrix" values="0 0 0 0 0 0 0 0 0 0 0 0 0 0 0 0 0 0 127 0" result="hardAlpha"/>
<feOffset dy="132.48"/>
<feGaussianBlur stdDeviation="95.68"/>
<feColorMatrix type="matrix" values="0 0 0 0 0.105882 0 0 0 0 0.192157 0 0 0 0 0.223529 0 0 0 0.07 0"/>
<feBlend mode="normal" in2="effect5_dropShadow_1117_13664" result="effect6_dropShadow_1117_13664"/>
<feBlend mode="normal" in="SourceGraphic" in2="effect6_dropShadow_1117_13664" result="shape"/>
</filter>
</defs>
</svg>
