<svg width="150" height="150" viewBox="0 0 150 150" fill="none" xmlns="http://www.w3.org/2000/svg">
<path d="M95 105.3H73.6V75.4001L78 79.9001L80.1 77.8001L72.1 69.7L64 77.8001L66.1 79.9001L70.6 75.4001V105.3H47V66.3001H44V108.3H70.6V121.2H17.7V108.3H24.7V105.3H17.7V92.4001H24.7V89.4001H17.7V76.5H24.7V73.5H17.7V60.6H24.7V57.6H17.7V44.7001H24.7V41.7001H17.7V28.8H24.7V25.8H14.7V124.2H73.6V108.3H95V105.3Z" fill="white"/>
<path d="M96.5 53.3H93L89.5 59.3H37.4L46.3 44.3H99.5V108.3H123.4V66.3001H120.4V105.3H102.5V48.2001H102.6L110.9 62.3H135.3L122.7 41.3H106.8L108.5 44.3H121L130 59.3H112.6L101.9 41.3H44.6L32.1 62.3H91.2L96.5 53.3Z" fill="white"/>
<path d="M134.6 121.2H79.1V124.2H134.6V121.2Z" fill="white"/>
</svg>
