<svg width="1143" height="558" viewBox="0 0 1143 558" fill="none" xmlns="http://www.w3.org/2000/svg">
<g filter="url(#filter0_dddddd_1119_14627)">
<path d="M148 116.336C148 77.4903 179.49 46 218.336 46H339.664C378.51 46 410 77.4903 410 116.336V237.664C410 276.51 378.51 308 339.664 308H218.336C179.49 308 148 276.51 148 237.664V116.336Z" fill="white"/>
</g>
<path d="M323.084 233.449C323.442 233.261 323.681 232.903 323.749 232.494C323.817 232.085 323.681 231.676 323.391 231.386C320.39 227.959 310.894 219.69 310.894 219.69C310.007 219.076 308.745 219.69 307.756 219.928C304.466 221.02 301.005 221.599 297.544 221.599C295.003 221.599 292.48 221.309 290.008 220.713C283.972 219.451 278.21 217.132 272.975 213.876C258.159 204.192 239.166 203.714 223.89 212.648C216.644 217.524 210.506 223.901 205.903 231.352C205.681 231.676 205.698 232.119 205.971 232.426C206.244 232.716 206.687 232.784 207.028 232.579C214.223 228.675 233.557 219.553 250.965 222.844C257.938 224.634 264.655 227.294 270.964 230.772C275.703 233.057 280.528 235.426 285.439 237.268C301.312 243.014 316.946 236.62 323.084 233.432V233.449Z" fill="#FF5F46"/>
<path d="M273.282 116.796L303.494 169.002C303.664 169.326 303.63 169.735 303.392 170.025C303.17 170.314 302.795 170.451 302.437 170.366C300.885 170.008 299.3 169.82 297.697 169.82C293.69 169.82 289.769 171.013 286.427 173.247C286.001 173.537 285.49 173.622 284.995 173.52C284.501 173.417 284.075 173.111 283.802 172.684L271.782 151.901C271.509 151.355 270.963 151.014 270.35 151.014C269.736 151.014 269.19 151.355 268.918 151.901L249.464 185.608C249.294 185.847 249.259 186.153 249.362 186.409C249.481 186.682 249.72 186.87 250.01 186.904C260.256 189.086 269.668 194.218 277.05 201.669C277.647 202.282 277.715 203.254 277.221 203.953C276.709 204.652 275.789 204.891 275.021 204.516C269.753 201.805 264.075 199.981 258.228 199.111C250.061 198.088 241.792 198.6 233.813 200.577C231.289 201.191 228.561 201.907 226.038 202.692C223.515 203.476 222.355 203.987 222.355 203.987C221.639 204.226 220.957 204.533 220.378 204.772H220.139C219.457 205.113 218.621 204.942 218.11 204.379C217.599 203.817 217.513 202.964 217.905 202.316L267.417 116.796C268.031 115.756 269.139 115.125 270.35 115.125C271.56 115.125 272.668 115.756 273.282 116.796Z" fill="#FF5F46"/>
<path fill-rule="evenodd" clip-rule="evenodd" d="M338.582 176.657C346.101 176.657 352.204 170.536 352.204 162.983C352.204 155.43 346.101 149.31 338.582 149.31C331.063 149.31 324.959 155.43 324.959 162.983C324.959 164.518 325.215 166.035 325.709 167.501L306.802 180.084C301.329 175.242 293.008 175.583 287.962 180.868C282.898 186.154 282.898 194.508 287.962 199.793C293.026 205.079 301.329 205.437 306.802 200.578L325.709 213.228C325.232 214.661 324.976 216.161 324.959 217.678C324.993 224.123 329.511 229.664 335.803 230.994C342.094 232.307 348.436 229.05 351.045 223.151C353.654 217.252 351.795 210.347 346.595 206.545C341.395 202.76 334.268 203.118 329.494 207.432L310.587 194.781C311.592 191.848 311.592 188.677 310.587 185.762L329.494 173.247C332.001 175.464 335.24 176.691 338.582 176.674V176.657Z" fill="#FABFBA"/>
<path d="M481.838 214.5V137.22H506.789C515.768 137.22 523.165 138.802 528.979 141.967C534.867 145.132 539.21 149.622 542.006 155.436C544.877 161.177 546.312 168.022 546.312 175.97C546.312 183.772 544.877 190.58 542.006 196.394C539.21 202.135 534.867 206.588 528.979 209.753C523.165 212.918 515.768 214.5 506.789 214.5H481.838ZM495.086 203.239H506.126C512.824 203.239 518.086 202.172 521.914 200.038C525.814 197.83 528.574 194.702 530.194 190.654C531.886 186.532 532.733 181.638 532.733 175.97C532.733 170.23 531.886 165.335 530.194 161.287C528.574 157.166 525.814 154.001 521.914 151.793C518.086 149.511 512.824 148.37 506.126 148.37H495.086V203.239ZM581.549 215.825C576.029 215.825 571.171 214.647 566.976 212.292C562.781 209.863 559.505 206.478 557.15 202.135C554.795 197.793 553.617 192.788 553.617 187.121C553.617 181.233 554.758 176.081 557.04 171.665C559.395 167.249 562.67 163.79 566.865 161.287C571.134 158.785 576.065 157.534 581.659 157.534C587.105 157.534 591.853 158.748 595.901 161.177C599.949 163.606 603.077 166.881 605.285 171.002C607.493 175.05 608.597 179.614 608.597 184.692C608.597 185.428 608.597 186.238 608.597 187.121C608.597 188.004 608.523 188.924 608.376 189.881H563.112V181.38H595.238C595.091 177.332 593.729 174.167 591.153 171.886C588.577 169.53 585.376 168.353 581.549 168.353C578.825 168.353 576.323 168.978 574.041 170.23C571.76 171.481 569.957 173.358 568.632 175.86C567.307 178.289 566.645 181.38 566.645 185.134V188.335C566.645 191.794 567.27 194.775 568.521 197.278C569.846 199.78 571.613 201.694 573.821 203.018C576.102 204.27 578.641 204.895 581.438 204.895C584.529 204.895 587.069 204.233 589.056 202.908C591.117 201.583 592.625 199.817 593.582 197.609H607.051C606.021 201.068 604.328 204.196 601.973 206.993C599.617 209.716 596.71 211.887 593.251 213.506C589.792 215.052 585.891 215.825 581.549 215.825ZM617.517 214.5V135.012H630.765V214.5H617.517ZM666.413 214.5C662.66 214.5 659.385 213.911 656.588 212.734C653.865 211.556 651.73 209.606 650.185 206.882C648.639 204.159 647.866 200.479 647.866 195.842V170.009H638.372V158.858H647.866L649.412 144.175H661.114V158.858H676.239V170.009H661.114V195.842C661.114 198.639 661.703 200.59 662.881 201.694C664.132 202.724 666.193 203.239 669.063 203.239H675.908V214.5H666.413ZM703.938 215.825C699.375 215.825 695.585 215.052 692.567 213.506C689.549 211.961 687.305 209.9 685.833 207.324C684.361 204.748 683.625 201.951 683.625 198.934C683.625 195.401 684.508 192.346 686.274 189.77C688.114 187.194 690.801 185.207 694.333 183.809C697.866 182.337 702.209 181.601 707.361 181.601H721.381C721.381 178.657 720.977 176.228 720.167 174.314C719.357 172.327 718.106 170.855 716.413 169.898C714.721 168.942 712.549 168.463 709.9 168.463C706.882 168.463 704.306 169.162 702.172 170.561C700.037 171.886 698.713 173.946 698.197 176.743H685.17C685.612 172.769 686.937 169.383 689.145 166.586C691.353 163.716 694.26 161.508 697.866 159.962C701.546 158.343 705.557 157.534 709.9 157.534C715.125 157.534 719.578 158.454 723.258 160.294C726.938 162.06 729.735 164.636 731.649 168.022C733.636 171.334 734.629 175.345 734.629 180.055V214.5H723.369L722.044 205.558C721.308 207.03 720.351 208.391 719.173 209.642C718.069 210.894 716.781 211.998 715.309 212.954C713.837 213.838 712.145 214.537 710.231 215.052C708.391 215.567 706.293 215.825 703.938 215.825ZM706.919 205.337C709.053 205.337 710.93 204.969 712.549 204.233C714.242 203.423 715.677 202.319 716.855 200.921C718.106 199.449 719.063 197.83 719.725 196.063C720.388 194.297 720.829 192.42 721.05 190.433V190.212H708.796C706.22 190.212 704.085 190.543 702.393 191.206C700.7 191.794 699.485 192.678 698.749 193.855C698.013 195.033 697.645 196.394 697.645 197.94C697.645 199.486 698.013 200.81 698.749 201.914C699.485 203.018 700.553 203.865 701.951 204.454C703.349 205.042 705.005 205.337 706.919 205.337ZM795.499 215.825C789.906 215.825 784.938 214.831 780.595 212.844C776.253 210.857 772.867 208.023 770.439 204.343C768.01 200.663 766.759 196.284 766.685 191.206H780.706C780.706 193.782 781.295 196.1 782.472 198.161C783.723 200.148 785.416 201.73 787.551 202.908C789.759 204.086 792.408 204.674 795.499 204.674C798.149 204.674 800.431 204.27 802.344 203.46C804.331 202.577 805.84 201.362 806.871 199.817C807.975 198.198 808.527 196.321 808.527 194.186C808.527 191.758 807.938 189.77 806.76 188.225C805.656 186.606 804.111 185.244 802.123 184.14C800.136 183.036 797.855 182.079 795.279 181.27C792.703 180.386 789.979 179.466 787.109 178.51C781 176.449 776.4 173.836 773.309 170.671C770.218 167.433 768.672 163.127 768.672 157.754C768.672 153.265 769.739 149.401 771.874 146.162C774.008 142.924 776.989 140.422 780.816 138.655C784.717 136.815 789.207 135.895 794.285 135.895C799.437 135.895 803.927 136.815 807.754 138.655C811.655 140.495 814.709 143.071 816.917 146.383C819.199 149.622 820.376 153.522 820.45 158.086H806.319C806.245 156.172 805.73 154.406 804.773 152.786C803.816 151.094 802.418 149.732 800.578 148.702C798.811 147.598 796.64 147.046 794.064 147.046C791.856 146.972 789.869 147.34 788.103 148.15C786.41 148.886 785.048 149.99 784.018 151.462C783.061 152.86 782.583 154.626 782.583 156.761C782.583 158.822 783.024 160.551 783.907 161.95C784.864 163.274 786.226 164.415 787.992 165.372C789.759 166.255 791.819 167.102 794.175 167.911C796.53 168.721 799.106 169.604 801.903 170.561C805.73 171.812 809.189 173.358 812.28 175.198C815.445 176.964 817.947 179.282 819.787 182.153C821.627 185.023 822.547 188.74 822.547 193.303C822.547 197.278 821.517 200.994 819.456 204.454C817.395 207.839 814.378 210.599 810.403 212.734C806.429 214.794 801.461 215.825 795.499 215.825ZM831.675 214.5V135.012H844.923V167.47C846.763 164.452 849.266 162.06 852.431 160.294C855.595 158.454 859.165 157.534 863.139 157.534C867.703 157.534 871.567 158.49 874.731 160.404C877.896 162.244 880.288 165.004 881.907 168.684C883.6 172.29 884.447 176.817 884.447 182.263V214.5H871.309V183.478C871.309 178.694 870.279 175.05 868.218 172.548C866.231 170.046 863.176 168.794 859.055 168.794C856.405 168.794 854.013 169.457 851.879 170.782C849.744 172.033 848.051 173.873 846.8 176.302C845.549 178.657 844.923 181.564 844.923 185.023V214.5H831.675ZM913.754 215.825C909.191 215.825 905.401 215.052 902.383 213.506C899.365 211.961 897.121 209.9 895.649 207.324C894.177 204.748 893.441 201.951 893.441 198.934C893.441 195.401 894.324 192.346 896.09 189.77C897.93 187.194 900.617 185.207 904.149 183.809C907.682 182.337 912.025 181.601 917.177 181.601H931.197C931.197 178.657 930.793 176.228 929.983 174.314C929.173 172.327 927.922 170.855 926.229 169.898C924.537 168.942 922.365 168.463 919.716 168.463C916.698 168.463 914.122 169.162 911.988 170.561C909.853 171.886 908.529 173.946 908.013 176.743H894.986C895.428 172.769 896.753 169.383 898.961 166.586C901.169 163.716 904.076 161.508 907.682 159.962C911.362 158.343 915.373 157.534 919.716 157.534C924.941 157.534 929.394 158.454 933.074 160.294C936.754 162.06 939.551 164.636 941.465 168.022C943.452 171.334 944.445 175.345 944.445 180.055V214.5H933.185L931.86 205.558C931.124 207.03 930.167 208.391 928.989 209.642C927.885 210.894 926.597 211.998 925.125 212.954C923.653 213.838 921.961 214.537 920.047 215.052C918.207 215.567 916.109 215.825 913.754 215.825ZM916.735 205.337C918.869 205.337 920.746 204.969 922.365 204.233C924.058 203.423 925.493 202.319 926.671 200.921C927.922 199.449 928.879 197.83 929.541 196.063C930.204 194.297 930.645 192.42 930.866 190.433V190.212H918.612C916.036 190.212 913.901 190.543 912.209 191.206C910.516 191.794 909.301 192.678 908.565 193.855C907.829 195.033 907.461 196.394 907.461 197.94C907.461 199.486 907.829 200.81 908.565 201.914C909.301 203.018 910.369 203.865 911.767 204.454C913.165 205.042 914.821 205.337 916.735 205.337ZM955.289 214.5V158.858H967.102L968.316 169.236C969.641 166.807 971.297 164.746 973.284 163.054C975.271 161.287 977.59 159.926 980.239 158.969C982.962 158.012 985.943 157.534 989.182 157.534V171.554H984.545C982.337 171.554 980.239 171.849 978.252 172.438C976.265 172.953 974.535 173.836 973.063 175.087C971.665 176.265 970.561 177.921 969.751 180.055C968.942 182.116 968.537 184.729 968.537 187.894V214.5H955.289ZM996.409 214.5V158.858H1009.66V214.5H996.409ZM1003.03 150.026C1000.6 150.026 998.58 149.29 996.961 147.818C995.415 146.273 994.642 144.396 994.642 142.188C994.642 139.906 995.415 138.066 996.961 136.668C998.58 135.196 1000.6 134.46 1003.03 134.46C1005.46 134.46 1007.45 135.196 1008.99 136.668C1010.61 138.066 1011.42 139.906 1011.42 142.188C1011.42 144.396 1010.61 146.273 1008.99 147.818C1007.45 149.29 1005.46 150.026 1003.03 150.026ZM1021.65 214.5V158.858H1033.36L1034.35 168.132C1036.04 164.894 1038.47 162.318 1041.64 160.404C1044.8 158.49 1048.55 157.534 1052.9 157.534C1057.39 157.534 1061.21 158.49 1064.38 160.404C1067.54 162.244 1069.97 164.967 1071.67 168.574C1073.43 172.18 1074.31 176.67 1074.31 182.042V214.5H1061.07V183.257C1061.07 178.62 1060.04 175.05 1057.98 172.548C1055.91 170.046 1052.86 168.794 1048.81 168.794C1046.16 168.794 1043.77 169.42 1041.64 170.671C1039.58 171.922 1037.92 173.762 1036.67 176.191C1035.49 178.546 1034.9 181.417 1034.9 184.802V214.5H1021.65ZM1108.37 240.113C1103.15 240.113 1098.55 239.45 1094.57 238.126C1090.67 236.874 1087.62 234.924 1085.41 232.274C1083.28 229.698 1082.21 226.46 1082.21 222.559C1082.21 220.278 1082.76 218.033 1083.87 215.825C1085.04 213.69 1086.77 211.703 1089.05 209.863C1091.41 207.95 1094.39 206.294 1098 204.895L1103.85 211.298C1100.32 212.55 1097.85 214.058 1096.45 215.825C1095.05 217.591 1094.35 219.394 1094.35 221.234C1094.35 223.148 1094.94 224.73 1096.12 225.982C1097.37 227.306 1099.03 228.3 1101.09 228.962C1103.22 229.625 1105.61 229.956 1108.26 229.956C1110.84 229.956 1113.09 229.588 1115 228.852C1116.91 228.19 1118.38 227.233 1119.41 225.982C1120.52 224.73 1121.07 223.222 1121.07 221.455C1121.07 219.247 1120.3 217.444 1118.75 216.046C1117.21 214.721 1114.15 213.911 1109.59 213.617C1105.69 213.322 1102.27 212.918 1099.32 212.402C1096.38 211.814 1093.84 211.151 1091.7 210.415C1089.64 209.679 1087.88 208.87 1086.41 207.986C1084.93 207.03 1083.72 206.073 1082.76 205.116V202.577L1094.35 190.433L1104.18 193.634L1091.15 206.33L1094.57 199.927C1095.31 200.442 1096.05 200.921 1096.78 201.362C1097.59 201.804 1098.59 202.209 1099.76 202.577C1101.01 202.871 1102.63 203.166 1104.62 203.46C1106.61 203.754 1109.18 204.049 1112.35 204.343C1117.28 204.711 1121.29 205.594 1124.38 206.993C1127.47 208.391 1129.76 210.268 1131.23 212.623C1132.7 214.978 1133.44 217.812 1133.44 221.124C1133.44 224.362 1132.52 227.417 1130.68 230.287C1128.91 233.158 1126.19 235.513 1122.51 237.353C1118.83 239.193 1114.12 240.113 1108.37 240.113ZM1108.37 197.83C1103.74 197.83 1099.73 196.946 1096.34 195.18C1093.03 193.34 1090.49 190.911 1088.72 187.894C1086.96 184.802 1086.07 181.417 1086.07 177.737C1086.07 173.983 1086.96 170.598 1088.72 167.58C1090.49 164.562 1093.03 162.134 1096.34 160.294C1099.73 158.454 1103.74 157.534 1108.37 157.534C1113.01 157.534 1116.99 158.454 1120.3 160.294C1123.61 162.134 1126.15 164.562 1127.92 167.58C1129.68 170.598 1130.57 173.983 1130.57 177.737C1130.57 181.417 1129.68 184.802 1127.92 187.894C1126.15 190.911 1123.61 193.34 1120.3 195.18C1116.99 196.946 1113.01 197.83 1108.37 197.83ZM1108.37 187.562C1111.54 187.562 1114.08 186.716 1115.99 185.023C1117.91 183.33 1118.86 180.902 1118.86 177.737C1118.86 174.572 1117.91 172.18 1115.99 170.561C1114.08 168.868 1111.54 168.022 1108.37 168.022C1105.21 168.022 1102.63 168.868 1100.65 170.561C1098.66 172.18 1097.67 174.572 1097.67 177.737C1097.67 180.902 1098.66 183.33 1100.65 185.023C1102.63 186.716 1105.21 187.562 1108.37 187.562ZM1117.54 168.574L1115 158.858H1137.85V167.138L1117.54 168.574Z" fill="white"/>
<defs>
<filter id="filter0_dddddd_1119_14627" x="0.713516" y="0.681084" width="556.573" height="556.573" filterUnits="userSpaceOnUse" color-interpolation-filters="sRGB">
<feFlood flood-opacity="0" result="BackgroundImageFix"/>
<feColorMatrix in="SourceAlpha" type="matrix" values="0 0 0 0 0 0 0 0 0 0 0 0 0 0 0 0 0 0 127 0" result="hardAlpha"/>
<feOffset dy="2.83243"/>
<feGaussianBlur stdDeviation="2.12432"/>
<feColorMatrix type="matrix" values="0 0 0 0 0.105882 0 0 0 0 0.192157 0 0 0 0 0.223529 0 0 0 0.0196802 0"/>
<feBlend mode="normal" in2="BackgroundImageFix" result="effect1_dropShadow_1119_14627"/>
<feColorMatrix in="SourceAlpha" type="matrix" values="0 0 0 0 0 0 0 0 0 0 0 0 0 0 0 0 0 0 127 0" result="hardAlpha"/>
<feOffset dy="5.66487"/>
<feGaussianBlur stdDeviation="5.66487"/>
<feColorMatrix type="matrix" values="0 0 0 0 0.105882 0 0 0 0 0.192157 0 0 0 0 0.223529 0 0 0 0.04 0"/>
<feBlend mode="normal" in2="effect1_dropShadow_1119_14627" result="effect2_dropShadow_1119_14627"/>
<feColorMatrix in="SourceAlpha" type="matrix" values="0 0 0 0 0 0 0 0 0 0 0 0 0 0 0 0 0 0 127 0" result="hardAlpha"/>
<feOffset dy="12.7459"/>
<feGaussianBlur stdDeviation="9.20541"/>
<feColorMatrix type="matrix" values="0 0 0 0 0.105882 0 0 0 0 0.192157 0 0 0 0 0.223529 0 0 0 0.035 0"/>
<feBlend mode="normal" in2="effect2_dropShadow_1119_14627" result="effect3_dropShadow_1119_14627"/>
<feColorMatrix in="SourceAlpha" type="matrix" values="0 0 0 0 0 0 0 0 0 0 0 0 0 0 0 0 0 0 127 0" result="hardAlpha"/>
<feOffset dy="22.6595"/>
<feGaussianBlur stdDeviation="16.9946"/>
<feColorMatrix type="matrix" values="0 0 0 0 0.105882 0 0 0 0 0.192157 0 0 0 0 0.223529 0 0 0 0.04 0"/>
<feBlend mode="normal" in2="effect3_dropShadow_1119_14627" result="effect4_dropShadow_1119_14627"/>
<feColorMatrix in="SourceAlpha" type="matrix" values="0 0 0 0 0 0 0 0 0 0 0 0 0 0 0 0 0 0 127 0" result="hardAlpha"/>
<feOffset dy="45.3189"/>
<feGaussianBlur stdDeviation="28.3243"/>
<feColorMatrix type="matrix" values="0 0 0 0 0.105882 0 0 0 0 0.192157 0 0 0 0 0.223529 0 0 0 0.0503198 0"/>
<feBlend mode="normal" in2="effect4_dropShadow_1119_14627" result="effect5_dropShadow_1119_14627"/>
<feColorMatrix in="SourceAlpha" type="matrix" values="0 0 0 0 0 0 0 0 0 0 0 0 0 0 0 0 0 0 127 0" result="hardAlpha"/>
<feOffset dy="101.968"/>
<feGaussianBlur stdDeviation="73.6432"/>
<feColorMatrix type="matrix" values="0 0 0 0 0.105882 0 0 0 0 0.192157 0 0 0 0 0.223529 0 0 0 0.07 0"/>
<feBlend mode="normal" in2="effect5_dropShadow_1119_14627" result="effect6_dropShadow_1119_14627"/>
<feBlend mode="normal" in="SourceGraphic" in2="effect6_dropShadow_1119_14627" result="shape"/>
</filter>
</defs>
</svg>
