<svg width="1005" height="200" viewBox="0 0 1005 200" fill="none" xmlns="http://www.w3.org/2000/svg">
<path fill-rule="evenodd" clip-rule="evenodd" d="M59.375 175L175 175V106.25L59.375 106.25C40.3902 106.25 25 121.64 25 140.625C25 159.61 40.3902 175 59.375 175ZM59.375 156.25C68.0045 156.25 75 149.254 75 140.625C75 131.996 68.0045 125 59.375 125C50.7455 125 43.75 131.996 43.75 140.625C43.75 149.254 50.7455 156.25 59.375 156.25Z" fill="#C4CCD6"/>
<path fill-rule="evenodd" clip-rule="evenodd" d="M140.625 93.75C159.61 93.75 175 78.3598 175 59.375C175 40.3902 159.61 25 140.625 25L25 25V93.75L140.625 93.75ZM140.625 75C149.254 75 156.25 68.0045 156.25 59.375C156.25 50.7455 149.254 43.75 140.625 43.75C131.996 43.75 125 50.7455 125 59.375C125 68.0045 131.996 75 140.625 75Z" fill="#618794"/>
<path d="M239.838 137.5V60.22H264.789C273.768 60.22 281.165 61.8024 286.979 64.9672C292.867 68.132 297.21 72.6216 300.006 78.436C302.877 84.1768 304.312 91.0216 304.312 98.9704C304.312 106.772 302.877 113.58 300.006 119.394C297.21 125.135 292.867 129.588 286.979 132.753C281.165 135.918 273.768 137.5 264.789 137.5H239.838ZM253.086 126.239H264.126C270.824 126.239 276.086 125.172 279.914 123.038C283.814 120.83 286.574 117.702 288.194 113.654C289.886 109.532 290.733 104.638 290.733 98.9704C290.733 93.2296 289.886 88.3352 288.194 84.2872C286.574 80.1656 283.814 77.0008 279.914 74.7928C276.086 72.5112 270.824 71.3704 264.126 71.3704H253.086V126.239ZM332.041 138.825C327.478 138.825 323.688 138.052 320.67 136.506C317.653 134.961 315.408 132.9 313.936 130.324C312.464 127.748 311.728 124.951 311.728 121.934C311.728 118.401 312.611 115.346 314.377 112.77C316.217 110.194 318.904 108.207 322.437 106.809C325.969 105.337 330.312 104.601 335.464 104.601H349.485C349.485 101.657 349.08 99.228 348.27 97.3144C347.461 95.3272 346.209 93.8552 344.517 92.8984C342.824 91.9416 340.653 91.4632 338.003 91.4632C334.985 91.4632 332.409 92.1624 330.275 93.5608C328.141 94.8856 326.816 96.9464 326.301 99.7432H313.273C313.715 95.7688 315.04 92.3832 317.248 89.5864C319.456 86.716 322.363 84.508 325.969 82.9624C329.649 81.3432 333.661 80.5336 338.003 80.5336C343.229 80.5336 347.681 81.4536 351.361 83.2936C355.041 85.06 357.838 87.636 359.752 91.0216C361.739 94.3336 362.733 98.3448 362.733 103.055V137.5H351.472L350.147 128.558C349.411 130.03 348.454 131.391 347.277 132.642C346.173 133.894 344.885 134.998 343.413 135.954C341.941 136.838 340.248 137.537 338.334 138.052C336.494 138.567 334.397 138.825 332.041 138.825ZM335.022 128.337C337.157 128.337 339.033 127.969 340.653 127.233C342.345 126.423 343.781 125.319 344.958 123.921C346.209 122.449 347.166 120.83 347.829 119.063C348.491 117.297 348.933 115.42 349.153 113.433V113.212H336.899C334.323 113.212 332.189 113.543 330.496 114.206C328.803 114.794 327.589 115.678 326.853 116.855C326.117 118.033 325.749 119.394 325.749 120.94C325.749 122.486 326.117 123.81 326.853 124.914C327.589 126.018 328.656 126.865 330.054 127.454C331.453 128.042 333.109 128.337 335.022 128.337ZM396.891 137.5C393.137 137.5 389.862 136.911 387.065 135.734C384.342 134.556 382.208 132.606 380.662 129.882C379.117 127.159 378.344 123.479 378.344 118.842V93.0088H368.849V81.8584H378.344L379.889 67.1752H391.592V81.8584H406.717V93.0088H391.592V118.842C391.592 121.639 392.181 123.59 393.358 124.694C394.609 125.724 396.67 126.239 399.541 126.239H406.385V137.5H396.891ZM434.416 138.825C429.853 138.825 426.062 138.052 423.045 136.506C420.027 134.961 417.782 132.9 416.31 130.324C414.838 127.748 414.102 124.951 414.102 121.934C414.102 118.401 414.985 115.346 416.752 112.77C418.592 110.194 421.278 108.207 424.811 106.809C428.344 105.337 432.686 104.601 437.838 104.601H451.859C451.859 101.657 451.454 99.228 450.645 97.3144C449.835 95.3272 448.584 93.8552 446.891 92.8984C445.198 91.9416 443.027 91.4632 440.377 91.4632C437.36 91.4632 434.784 92.1624 432.649 93.5608C430.515 94.8856 429.19 96.9464 428.675 99.7432H415.648C416.089 95.7688 417.414 92.3832 419.622 89.5864C421.83 86.716 424.737 84.508 428.344 82.9624C432.024 81.3432 436.035 80.5336 440.377 80.5336C445.603 80.5336 450.056 81.4536 453.736 83.2936C457.416 85.06 460.213 87.636 462.126 91.0216C464.113 94.3336 465.107 98.3448 465.107 103.055V137.5H453.846L452.521 128.558C451.785 130.03 450.829 131.391 449.651 132.642C448.547 133.894 447.259 134.998 445.787 135.954C444.315 136.838 442.622 137.537 440.709 138.052C438.869 138.567 436.771 138.825 434.416 138.825ZM437.397 128.337C439.531 128.337 441.408 127.969 443.027 127.233C444.72 126.423 446.155 125.319 447.333 123.921C448.584 122.449 449.541 120.83 450.203 119.063C450.865 117.297 451.307 115.42 451.528 113.433V113.212H439.273C436.697 113.212 434.563 113.543 432.87 114.206C431.177 114.794 429.963 115.678 429.227 116.855C428.491 118.033 428.123 119.394 428.123 120.94C428.123 122.486 428.491 123.81 429.227 124.914C429.963 126.018 431.03 126.865 432.429 127.454C433.827 128.042 435.483 128.337 437.397 128.337ZM507.746 138.825C504.802 138.825 502.152 138.42 499.797 137.61C497.442 136.874 495.381 135.844 493.614 134.519C491.848 133.121 490.376 131.538 489.198 129.772L487.763 137.5H475.95V58.012H489.198V90.028C490.965 87.3048 493.357 85.06 496.374 83.2936C499.392 81.4536 503.146 80.5336 507.635 80.5336C512.861 80.5336 517.461 81.8216 521.435 84.3976C525.483 86.9 528.648 90.3592 530.93 94.7752C533.285 99.1176 534.462 104.122 534.462 109.79C534.462 115.31 533.322 120.278 531.04 124.694C528.758 129.11 525.594 132.569 521.546 135.071C517.571 137.574 512.971 138.825 507.746 138.825ZM504.986 127.343C508.077 127.343 510.837 126.607 513.266 125.135C515.694 123.59 517.571 121.529 518.896 118.953C520.294 116.303 520.994 113.212 520.994 109.679C520.994 106.22 520.294 103.166 518.896 100.516C517.571 97.8664 515.694 95.8056 513.266 94.3336C510.837 92.8616 508.077 92.1256 504.986 92.1256C501.821 92.1256 499.024 92.8616 496.595 94.3336C494.24 95.8056 492.363 97.8664 490.965 100.516C489.64 103.166 488.978 106.22 488.978 109.679C488.978 113.212 489.64 116.303 490.965 118.953C492.363 121.529 494.24 123.59 496.595 125.135C499.024 126.607 501.821 127.343 504.986 127.343ZM544.01 137.5V81.8584H555.823L557.037 92.236C558.362 89.8072 560.018 87.7464 562.005 86.0536C563.993 84.2872 566.311 82.9256 568.961 81.9688C571.684 81.012 574.665 80.5336 577.903 80.5336V94.5544H573.266C571.058 94.5544 568.961 94.8488 566.973 95.4376C564.986 95.9528 563.257 96.836 561.785 98.0872C560.386 99.2648 559.282 100.921 558.473 103.055C557.663 105.116 557.258 107.729 557.258 110.894V137.5H544.01ZM585.13 137.5V81.8584H598.378V137.5H585.13ZM591.754 73.0264C589.325 73.0264 587.301 72.2904 585.682 70.8184C584.136 69.2728 583.364 67.396 583.364 65.188C583.364 62.9064 584.136 61.0664 585.682 59.668C587.301 58.196 589.325 57.46 591.754 57.46C594.183 57.46 596.17 58.196 597.716 59.668C599.335 61.0664 600.144 62.9064 600.144 65.188C600.144 67.396 599.335 69.2728 597.716 70.8184C596.17 72.2904 594.183 73.0264 591.754 73.0264ZM636.761 138.825C631.315 138.825 626.42 137.61 622.078 135.182C617.809 132.679 614.46 129.257 612.031 124.914C609.676 120.498 608.499 115.494 608.499 109.9C608.499 104.086 609.676 99.0072 612.031 94.6648C614.46 90.2488 617.809 86.7896 622.078 84.2872C626.42 81.7848 631.351 80.5336 636.871 80.5336C643.79 80.5336 649.604 82.3736 654.315 86.0536C659.025 89.66 662.043 94.628 663.367 100.958H649.457C648.721 98.1608 647.175 95.9528 644.82 94.3336C642.539 92.7144 639.815 91.9048 636.651 91.9048C633.927 91.9048 631.425 92.604 629.143 94.0024C626.935 95.4008 625.169 97.4248 623.844 100.074C622.593 102.724 621.967 105.926 621.967 109.679C621.967 112.55 622.335 115.089 623.071 117.297C623.807 119.505 624.838 121.382 626.163 122.927C627.561 124.399 629.143 125.54 630.91 126.35C632.676 127.159 634.59 127.564 636.651 127.564C638.785 127.564 640.699 127.233 642.391 126.57C644.158 125.834 645.63 124.767 646.807 123.369C648.059 121.97 648.942 120.314 649.457 118.401H663.367C662.043 124.583 659.025 129.551 654.315 133.305C649.604 136.985 643.753 138.825 636.761 138.825ZM708.709 137.5L684.09 107.03L706.17 81.8584H721.957L694.467 112.439V102.172L725.269 137.5H708.709ZM672.829 137.5V58.012H686.077V137.5H672.829ZM750.25 138.825C745.318 138.825 741.013 138.052 737.333 136.506C733.726 134.887 730.856 132.679 728.722 129.882C726.661 127.012 725.446 123.737 725.078 120.057H738.326C738.694 121.602 739.357 123.038 740.314 124.362C741.27 125.614 742.558 126.607 744.178 127.343C745.87 128.079 747.858 128.447 750.139 128.447C752.347 128.447 754.15 128.153 755.549 127.564C756.947 126.902 757.978 126.055 758.64 125.025C759.302 123.994 759.634 122.89 759.634 121.713C759.634 119.946 759.155 118.585 758.198 117.628C757.242 116.671 755.843 115.935 754.003 115.42C752.237 114.831 750.102 114.279 747.6 113.764C744.95 113.249 742.374 112.623 739.872 111.887C737.443 111.078 735.235 110.084 733.248 108.906C731.334 107.729 729.789 106.22 728.611 104.38C727.507 102.54 726.955 100.295 726.955 97.6456C726.955 94.4072 727.802 91.5 729.494 88.924C731.261 86.348 733.763 84.324 737.002 82.852C740.314 81.3064 744.251 80.5336 748.814 80.5336C755.291 80.5336 760.443 82.0424 764.27 85.06C768.171 88.004 770.453 92.1624 771.115 97.5352H758.53C758.162 95.4744 757.131 93.892 755.438 92.788C753.746 91.6104 751.501 91.0216 748.704 91.0216C745.834 91.0216 743.626 91.5736 742.08 92.6776C740.608 93.708 739.872 95.1064 739.872 96.8728C739.872 97.9768 740.314 99.0072 741.197 99.964C742.154 100.847 743.515 101.62 745.282 102.282C747.048 102.871 749.219 103.46 751.795 104.049C755.917 104.858 759.56 105.815 762.725 106.919C765.89 108.023 768.392 109.642 770.232 111.777C772.072 113.911 772.992 116.929 772.992 120.83C773.066 124.362 772.146 127.49 770.232 130.214C768.392 132.937 765.779 135.071 762.394 136.617C759.008 138.089 754.96 138.825 750.25 138.825ZM832.561 138.825C826.968 138.825 822 137.831 817.657 135.844C813.315 133.857 809.929 131.023 807.501 127.343C805.072 123.663 803.821 119.284 803.747 114.206H817.768C817.768 116.782 818.357 119.1 819.534 121.161C820.785 123.148 822.478 124.73 824.613 125.908C826.821 127.086 829.47 127.674 832.561 127.674C835.211 127.674 837.493 127.27 839.406 126.46C841.393 125.577 842.902 124.362 843.933 122.817C845.037 121.198 845.589 119.321 845.589 117.186C845.589 114.758 845 112.77 843.822 111.225C842.718 109.606 841.173 108.244 839.185 107.14C837.198 106.036 834.917 105.079 832.341 104.27C829.765 103.386 827.041 102.466 824.171 101.51C818.062 99.4488 813.462 96.836 810.371 93.6712C807.28 90.4328 805.734 86.1272 805.734 80.7544C805.734 76.2648 806.801 72.4008 808.936 69.1624C811.07 65.924 814.051 63.4216 817.878 61.6552C821.779 59.8152 826.269 58.8952 831.347 58.8952C836.499 58.8952 840.989 59.8152 844.816 61.6552C848.717 63.4952 851.771 66.0712 853.979 69.3832C856.261 72.6216 857.438 76.5224 857.512 81.0856H843.381C843.307 79.172 842.792 77.4056 841.835 75.7864C840.878 74.0936 839.48 72.732 837.64 71.7016C835.873 70.5976 833.702 70.0456 831.126 70.0456C828.918 69.972 826.931 70.34 825.165 71.1496C823.472 71.8856 822.11 72.9896 821.08 74.4616C820.123 75.86 819.645 77.6264 819.645 79.7608C819.645 81.8216 820.086 83.5512 820.969 84.9496C821.926 86.2744 823.288 87.4152 825.054 88.372C826.821 89.2552 828.881 90.1016 831.237 90.9112C833.592 91.7208 836.168 92.604 838.965 93.5608C842.792 94.812 846.251 96.3576 849.342 98.1976C852.507 99.964 855.009 102.282 856.849 105.153C858.689 108.023 859.609 111.74 859.609 116.303C859.609 120.278 858.579 123.994 856.518 127.454C854.457 130.839 851.44 133.599 847.465 135.734C843.491 137.794 838.523 138.825 832.561 138.825ZM923.385 149.092L895.896 106.036H911.131L939.062 149.092H923.385ZM904.396 138.825C896.963 138.825 890.376 137.169 884.635 133.857C878.968 130.471 874.515 125.798 871.276 119.836C868.038 113.801 866.419 106.809 866.419 98.86C866.419 90.9848 868.038 84.0664 871.276 78.1048C874.515 72.0696 878.968 67.3592 884.635 63.9736C890.376 60.588 896.963 58.8952 904.396 58.8952C911.977 58.8952 918.638 60.588 924.379 63.9736C930.12 67.3592 934.572 72.0696 937.737 78.1048C940.902 84.0664 942.484 90.9848 942.484 98.86C942.484 106.809 940.902 113.801 937.737 119.836C934.572 125.798 930.12 130.471 924.379 133.857C918.638 137.169 911.977 138.825 904.396 138.825ZM904.507 126.902C909.438 126.902 913.744 125.798 917.424 123.59C921.104 121.308 923.937 118.07 925.924 113.874C927.912 109.679 928.905 104.674 928.905 98.86C928.905 93.0456 927.912 88.0408 925.924 83.8456C923.937 79.6504 921.104 76.4488 917.424 74.2408C913.744 71.9592 909.438 70.8184 904.507 70.8184C899.576 70.8184 895.27 71.9592 891.59 74.2408C887.91 76.4488 885.04 79.6504 882.979 83.8456C880.992 88.0408 879.998 93.0456 879.998 98.86C879.998 104.674 880.992 109.679 882.979 113.874C885.04 118.07 887.91 121.308 891.59 123.59C895.27 125.798 899.576 126.902 904.507 126.902ZM952.117 137.5V60.22H965.365V127.122H999.81V137.5H952.117Z" fill="#1B3139"/>
</svg>
