<svg width="1156" height="724" viewBox="0 0 1156 724" fill="none" xmlns="http://www.w3.org/2000/svg">
<g filter="url(#filter0_dddddd_1117_13995)">
<path d="M192 150.383C192 99.9134 232.913 59 283.383 59H441.017C491.487 59 532.4 99.9134 532.4 150.383V308.017C532.4 358.487 491.487 399.4 441.017 399.4H283.383C232.913 399.4 192 358.487 192 308.017V150.383Z" fill="white"/>
</g>
<path d="M458 168.731C446.521 174.726 437.86 185.412 437.86 197.929V265.719H403.3V204.796C403.299 182.025 384.838 163.565 362.067 163.563C340.761 163.564 321.058 180.001 321.058 200.458V219.649H286.5V200.938H286.313C286.313 187.553 277.798 175.661 266 169.058V140H458V168.731Z" fill="#FF5F46"/>
<path d="M266 240H315C340.405 240 361 260.595 361 286H266V240Z" fill="#FABFBA"/>
<path d="M457 332L407 332C381.595 332 361 311.405 361 286L457 286V332Z" fill="#FABFBA"/>
<path d="M603.899 217.2V139.92H623.771C632.75 139.92 640.147 141.503 645.962 144.667C651.85 147.759 656.192 152.211 658.989 158.026C661.859 163.767 663.294 170.685 663.294 178.781C663.294 186.73 661.859 193.575 658.989 199.315C656.192 205.056 651.85 209.472 645.962 212.563C640.147 215.655 632.75 217.2 623.771 217.2H603.899ZM613.173 209.472H623.55C630.984 209.472 636.909 208.258 641.325 205.829C645.741 203.327 648.906 199.794 650.819 195.231C652.733 190.594 653.69 185.111 653.69 178.781C653.69 172.304 652.733 166.747 650.819 162.111C648.906 157.474 645.741 153.904 641.325 151.402C636.909 148.899 630.984 147.648 623.55 147.648H613.173V209.472ZM691.343 218.525C686.927 218.525 683.247 217.715 680.303 216.096C677.359 214.403 675.151 212.195 673.679 209.472C672.207 206.675 671.471 203.695 671.471 200.53C671.471 196.703 672.428 193.464 674.341 190.815C676.329 188.091 679.089 186.031 682.621 184.632C686.154 183.234 690.276 182.535 694.986 182.535H709.449C709.449 178.781 709.007 175.653 708.124 173.151C707.241 170.648 705.805 168.771 703.818 167.52C701.831 166.269 699.181 165.643 695.869 165.643C692.557 165.643 689.724 166.49 687.369 168.183C685.013 169.802 683.541 172.231 682.953 175.469H673.458C673.9 171.642 675.188 168.44 677.322 165.864C679.457 163.215 682.143 161.227 685.381 159.903C688.693 158.504 692.189 157.805 695.869 157.805C701.095 157.805 705.401 158.762 708.786 160.675C712.172 162.515 714.674 165.128 716.293 168.514C717.913 171.826 718.722 175.763 718.722 180.327V217.2H710.442L709.89 207.264C709.154 208.81 708.197 210.282 707.02 211.68C705.916 213.005 704.591 214.183 703.045 215.213C701.5 216.243 699.733 217.053 697.746 217.642C695.833 218.231 693.698 218.525 691.343 218.525ZM692.668 210.687C695.097 210.687 697.341 210.135 699.402 209.031C701.463 207.927 703.229 206.455 704.701 204.615C706.247 202.701 707.425 200.567 708.234 198.211C709.044 195.856 709.449 193.391 709.449 190.815V189.711H695.759C692.3 189.711 689.466 190.152 687.258 191.035C685.124 191.919 683.578 193.17 682.621 194.789C681.665 196.335 681.186 198.101 681.186 200.088C681.186 202.223 681.628 204.099 682.511 205.719C683.394 207.264 684.682 208.479 686.375 209.362C688.141 210.245 690.239 210.687 692.668 210.687ZM751.744 217.2C748.432 217.2 745.561 216.685 743.133 215.655C740.704 214.624 738.827 212.895 737.502 210.466C736.251 207.963 735.625 204.615 735.625 200.419V166.968H725.469V159.13H735.625L736.84 144.667H744.899V159.13H761.349V166.968H744.899V200.419C744.899 203.879 745.598 206.234 746.997 207.485C748.395 208.663 750.861 209.251 754.393 209.251H761.128V217.2H751.744ZM788.866 218.525C784.45 218.525 780.77 217.715 777.826 216.096C774.882 214.403 772.674 212.195 771.202 209.472C769.73 206.675 768.994 203.695 768.994 200.53C768.994 196.703 769.951 193.464 771.864 190.815C773.851 188.091 776.611 186.031 780.144 184.632C783.677 183.234 787.799 182.535 792.509 182.535H806.971C806.971 178.781 806.53 175.653 805.647 173.151C804.763 170.648 803.328 168.771 801.341 167.52C799.354 166.269 796.704 165.643 793.392 165.643C790.08 165.643 787.247 166.49 784.891 168.183C782.536 169.802 781.064 172.231 780.475 175.469H770.981C771.423 171.642 772.711 168.44 774.845 165.864C776.979 163.215 779.666 161.227 782.904 159.903C786.216 158.504 789.712 157.805 793.392 157.805C798.618 157.805 802.923 158.762 806.309 160.675C809.695 162.515 812.197 165.128 813.816 168.514C815.435 171.826 816.245 175.763 816.245 180.327V217.2H807.965L807.413 207.264C806.677 208.81 805.72 210.282 804.543 211.68C803.439 213.005 802.114 214.183 800.568 215.213C799.023 216.243 797.256 217.053 795.269 217.642C793.355 218.231 791.221 218.525 788.866 218.525ZM790.191 210.687C792.619 210.687 794.864 210.135 796.925 209.031C798.986 207.927 800.752 206.455 802.224 204.615C803.77 202.701 804.947 200.567 805.757 198.211C806.567 195.856 806.971 193.391 806.971 190.815V189.711H793.282C789.823 189.711 786.989 190.152 784.781 191.035C782.647 191.919 781.101 193.17 780.144 194.789C779.187 196.335 778.709 198.101 778.709 200.088C778.709 202.223 779.151 204.099 780.034 205.719C780.917 207.264 782.205 208.479 783.898 209.362C785.664 210.245 787.762 210.687 790.191 210.687ZM857.179 218.525C853.646 218.525 850.592 218.01 848.016 216.979C845.514 215.875 843.379 214.514 841.613 212.895C839.92 211.275 838.522 209.693 837.418 208.147L836.645 217.2H828.254V137.712H837.528V168.293C839.294 164.834 841.907 162.221 845.366 160.455C848.826 158.688 852.69 157.805 856.958 157.805C862.258 157.805 866.894 159.093 870.869 161.669C874.843 164.245 877.934 167.815 880.142 172.378C882.35 176.867 883.454 182.056 883.454 187.944C883.454 193.759 882.35 198.984 880.142 203.621C877.934 208.258 874.843 211.901 870.869 214.551C866.968 217.2 862.405 218.525 857.179 218.525ZM855.965 210.466C859.424 210.466 862.478 209.583 865.128 207.816C867.851 205.976 869.986 203.4 871.531 200.088C873.15 196.703 873.96 192.728 873.96 188.165C873.96 183.602 873.15 179.664 871.531 176.352C869.986 172.967 867.851 170.391 865.128 168.624C862.478 166.784 859.424 165.864 855.965 165.864C852.285 165.864 849.083 166.784 846.36 168.624C843.637 170.391 841.539 172.967 840.067 176.352C838.595 179.664 837.859 183.602 837.859 188.165C837.859 192.728 838.595 196.703 840.067 200.088C841.539 203.4 843.637 205.976 846.36 207.816C849.083 209.583 852.285 210.466 855.965 210.466ZM893.619 217.2V159.13H902.009L902.672 169.728C903.997 167.079 905.726 164.871 907.861 163.104C909.995 161.338 912.571 160.013 915.589 159.13C918.68 158.247 922.139 157.805 925.966 157.805V167.52H920.225C918.017 167.52 915.883 167.815 913.822 168.403C911.761 168.992 909.885 169.949 908.192 171.274C906.573 172.599 905.285 174.402 904.328 176.683C903.371 178.965 902.893 181.835 902.893 185.295V217.2H893.619ZM934.207 217.2V159.13H943.481V217.2H934.207ZM938.844 148.09C937.004 148.09 935.459 147.501 934.207 146.323C933.03 145.072 932.441 143.527 932.441 141.687C932.441 139.847 933.03 138.375 934.207 137.271C935.459 136.093 937.004 135.504 938.844 135.504C940.611 135.504 942.119 136.093 943.371 137.271C944.622 138.375 945.247 139.847 945.247 141.687C945.247 143.527 944.622 145.072 943.371 146.323C942.119 147.501 940.611 148.09 938.844 148.09ZM981.703 218.525C976.403 218.525 971.693 217.274 967.571 214.771C963.45 212.195 960.211 208.626 957.856 204.063C955.501 199.499 954.323 194.2 954.323 188.165C954.323 182.056 955.501 176.757 957.856 172.267C960.211 167.704 963.45 164.171 967.571 161.669C971.693 159.093 976.403 157.805 981.703 157.805C988.327 157.805 993.847 159.571 998.263 163.104C1002.75 166.637 1005.62 171.384 1006.87 177.346H997.38C996.57 173.666 994.693 170.832 991.749 168.845C988.879 166.784 985.493 165.754 981.592 165.754C978.207 165.754 975.152 166.6 972.429 168.293C969.779 169.986 967.682 172.488 966.136 175.8C964.591 179.112 963.818 183.234 963.818 188.165C963.818 191.845 964.259 195.12 965.143 197.991C966.026 200.787 967.24 203.143 968.786 205.056C970.405 206.896 972.282 208.295 974.416 209.251C976.624 210.208 979.016 210.687 981.592 210.687C984.242 210.687 986.634 210.245 988.768 209.362C990.976 208.405 992.816 207.043 994.288 205.277C995.834 203.511 996.864 201.413 997.38 198.984H1006.87C1005.7 204.799 1002.83 209.509 998.263 213.115C993.773 216.722 988.253 218.525 981.703 218.525ZM1051.16 217.2L1024.78 185.847L1049.62 159.13H1060.99L1032.61 189.159L1032.72 182.535L1062.97 217.2H1051.16ZM1017.05 217.2V137.712H1026.32V217.2H1017.05ZM1087.22 218.525C1081.99 218.525 1077.65 217.752 1074.19 216.207C1070.8 214.587 1068.23 212.379 1066.46 209.583C1064.69 206.712 1063.63 203.4 1063.26 199.647H1072.75C1073.05 201.634 1073.71 203.474 1074.74 205.167C1075.84 206.786 1077.43 208.111 1079.49 209.141C1081.55 210.171 1084.16 210.687 1087.33 210.687C1089.83 210.687 1091.96 210.319 1093.73 209.583C1095.5 208.773 1096.82 207.669 1097.7 206.271C1098.66 204.872 1099.14 203.253 1099.14 201.413C1099.14 198.984 1098.59 197.107 1097.48 195.783C1096.45 194.384 1094.91 193.354 1092.85 192.691C1090.86 191.955 1088.36 191.403 1085.34 191.035C1082.1 190.594 1079.23 189.968 1076.73 189.159C1074.23 188.349 1072.09 187.282 1070.32 185.957C1068.63 184.632 1067.34 182.976 1066.46 180.989C1065.58 179.002 1065.14 176.647 1065.14 173.923C1065.14 170.759 1065.98 167.962 1067.67 165.533C1069.37 163.104 1071.76 161.227 1074.85 159.903C1078.02 158.504 1081.73 157.805 1086 157.805C1092.26 157.805 1097.19 159.24 1100.79 162.111C1104.47 164.981 1106.65 169.066 1107.31 174.365H1098.15C1097.78 171.642 1096.53 169.507 1094.39 167.962C1092.26 166.416 1089.42 165.643 1085.89 165.643C1082.14 165.643 1079.3 166.343 1077.39 167.741C1075.48 169.139 1074.52 170.979 1074.52 173.261C1074.52 174.954 1074.92 176.499 1075.73 177.898C1076.62 179.223 1078.09 180.363 1080.15 181.32C1082.21 182.203 1084.97 182.866 1088.43 183.307C1092.77 183.823 1096.45 184.669 1099.47 185.847C1102.49 186.951 1104.77 188.68 1106.32 191.035C1107.93 193.391 1108.71 196.592 1108.63 200.64C1108.63 204.467 1107.71 207.706 1105.87 210.355C1104.11 213.005 1101.6 215.029 1098.37 216.427C1095.2 217.826 1091.48 218.525 1087.22 218.525ZM603.237 316.2V238.92H616.485V305.823H650.93V316.2H603.237ZM678.621 317.525C674.058 317.525 670.267 316.752 667.25 315.207C664.232 313.661 661.987 311.6 660.515 309.024C659.043 306.448 658.307 303.651 658.307 300.634C658.307 297.101 659.191 294.047 660.957 291.471C662.797 288.895 665.483 286.907 669.016 285.509C672.549 284.037 676.891 283.301 682.043 283.301H696.064C696.064 280.357 695.659 277.928 694.85 276.015C694.04 274.027 692.789 272.555 691.096 271.599C689.403 270.642 687.232 270.163 684.583 270.163C681.565 270.163 678.989 270.863 676.855 272.261C674.72 273.586 673.395 275.647 672.88 278.443H659.853C660.295 274.469 661.619 271.083 663.827 268.287C666.035 265.416 668.943 263.208 672.549 261.663C676.229 260.043 680.24 259.234 684.583 259.234C689.808 259.234 694.261 260.154 697.941 261.994C701.621 263.76 704.418 266.336 706.331 269.722C708.319 273.034 709.312 277.045 709.312 281.755V316.2H698.051L696.727 307.258C695.991 308.73 695.034 310.091 693.856 311.343C692.752 312.594 691.464 313.698 689.992 314.655C688.52 315.538 686.827 316.237 684.914 316.752C683.074 317.267 680.976 317.525 678.621 317.525ZM681.602 307.037C683.736 307.037 685.613 306.669 687.232 305.933C688.925 305.123 690.36 304.019 691.538 302.621C692.789 301.149 693.746 299.53 694.408 297.763C695.071 295.997 695.512 294.12 695.733 292.133V291.912H683.479C680.903 291.912 678.768 292.243 677.075 292.906C675.383 293.495 674.168 294.378 673.432 295.555C672.696 296.733 672.328 298.095 672.328 299.64C672.328 301.186 672.696 302.511 673.432 303.615C674.168 304.719 675.235 305.565 676.634 306.154C678.032 306.743 679.688 307.037 681.602 307.037ZM756.036 316.2L731.416 285.73L753.496 260.559H769.284L741.794 291.139V280.872L772.596 316.2H756.036ZM720.156 316.2V236.712H733.404V316.2H720.156ZM799.823 317.525C794.303 317.525 789.445 316.347 785.25 313.992C781.055 311.563 777.78 308.178 775.425 303.835C773.069 299.493 771.892 294.488 771.892 288.821C771.892 282.933 773.033 277.781 775.314 273.365C777.669 268.949 780.945 265.49 785.14 262.987C789.409 260.485 794.34 259.234 799.933 259.234C805.38 259.234 810.127 260.448 814.175 262.877C818.223 265.306 821.351 268.581 823.559 272.703C825.767 276.751 826.871 281.314 826.871 286.392C826.871 287.128 826.871 287.938 826.871 288.821C826.871 289.704 826.797 290.624 826.65 291.581H781.386V283.08H813.513C813.365 279.032 812.004 275.867 809.428 273.586C806.852 271.231 803.65 270.053 799.823 270.053C797.1 270.053 794.597 270.679 792.316 271.93C790.034 273.181 788.231 275.058 786.906 277.56C785.581 279.989 784.919 283.08 784.919 286.834V290.035C784.919 293.495 785.545 296.475 786.796 298.978C788.121 301.48 789.887 303.394 792.095 304.719C794.377 305.97 796.916 306.595 799.713 306.595C802.804 306.595 805.343 305.933 807.33 304.608C809.391 303.283 810.9 301.517 811.857 299.309H825.325C824.295 302.768 822.602 305.896 820.247 308.693C817.892 311.416 814.985 313.587 811.525 315.207C808.066 316.752 804.165 317.525 799.823 317.525ZM867.586 317.525C864.642 317.525 861.993 317.12 859.637 316.311C857.282 315.575 855.221 314.544 853.455 313.219C851.689 311.821 850.217 310.239 849.039 308.472L847.604 316.2H835.791V236.712H849.039V268.728C850.805 266.005 853.197 263.76 856.215 261.994C859.233 260.154 862.986 259.234 867.476 259.234C872.701 259.234 877.301 260.522 881.276 263.098C885.324 265.6 888.489 269.059 890.77 273.475C893.125 277.818 894.303 282.823 894.303 288.49C894.303 294.01 893.162 298.978 890.881 303.394C888.599 307.81 885.434 311.269 881.386 313.771C877.412 316.274 872.812 317.525 867.586 317.525ZM864.826 306.043C867.917 306.043 870.677 305.307 873.106 303.835C875.535 302.29 877.412 300.229 878.737 297.653C880.135 295.003 880.834 291.912 880.834 288.379C880.834 284.92 880.135 281.866 878.737 279.216C877.412 276.567 875.535 274.506 873.106 273.034C870.677 271.562 867.917 270.826 864.826 270.826C861.661 270.826 858.865 271.562 856.436 273.034C854.081 274.506 852.204 276.567 850.805 279.216C849.481 281.866 848.818 284.92 848.818 288.379C848.818 291.912 849.481 295.003 850.805 297.653C852.204 300.229 854.081 302.29 856.436 303.835C858.865 305.307 861.661 306.043 864.826 306.043ZM903.851 316.2V260.559H915.664L916.878 270.936C918.203 268.507 919.859 266.447 921.846 264.754C923.833 262.987 926.152 261.626 928.801 260.669C931.524 259.712 934.505 259.234 937.744 259.234V273.255H933.107C930.899 273.255 928.801 273.549 926.814 274.138C924.827 274.653 923.097 275.536 921.625 276.787C920.227 277.965 919.123 279.621 918.313 281.755C917.504 283.816 917.099 286.429 917.099 289.594V316.2H903.851ZM944.971 316.2V260.559H958.219V316.2H944.971ZM951.595 251.727C949.166 251.727 947.142 250.991 945.523 249.519C943.977 247.973 943.204 246.096 943.204 243.888C943.204 241.607 943.977 239.767 945.523 238.368C947.142 236.896 949.166 236.16 951.595 236.16C954.023 236.16 956.011 236.896 957.556 238.368C959.175 239.767 959.985 241.607 959.985 243.888C959.985 246.096 959.175 247.973 957.556 249.519C956.011 250.991 954.023 251.727 951.595 251.727ZM994.946 317.525C989.794 317.525 985.194 316.274 981.146 313.771C977.098 311.269 973.933 307.81 971.651 303.394C969.443 298.978 968.339 293.973 968.339 288.379C968.339 282.786 969.48 277.818 971.762 273.475C974.043 269.059 977.208 265.6 981.256 263.098C985.378 260.522 990.014 259.234 995.166 259.234C999.362 259.234 1003 260.043 1006.1 261.663C1009.26 263.208 1011.76 265.416 1013.6 268.287V236.712H1026.85V316.2H1014.93L1013.6 308.141C1012.43 309.76 1010.99 311.306 1009.3 312.778C1007.6 314.176 1005.58 315.317 1003.23 316.2C1000.87 317.083 998.11 317.525 994.946 317.525ZM997.706 306.043C1000.87 306.043 1003.67 305.307 1006.1 303.835C1008.52 302.29 1010.4 300.192 1011.73 297.543C1013.05 294.893 1013.71 291.839 1013.71 288.379C1013.71 284.92 1013.05 281.866 1011.73 279.216C1010.4 276.567 1008.52 274.506 1006.1 273.034C1003.67 271.562 1000.87 270.826 997.706 270.826C994.688 270.826 991.965 271.562 989.536 273.034C987.107 274.506 985.194 276.567 983.795 279.216C982.47 281.866 981.808 284.92 981.808 288.379C981.808 291.839 982.47 294.893 983.795 297.543C985.194 300.192 987.107 302.29 989.536 303.835C991.965 305.307 994.688 306.043 997.706 306.043ZM1061.68 341.813C1056.45 341.813 1051.85 341.151 1047.88 339.826C1043.98 338.575 1040.93 336.624 1038.72 333.975C1036.58 331.399 1035.52 328.16 1035.52 324.259C1035.52 321.978 1036.07 319.733 1037.17 317.525C1038.35 315.391 1040.08 313.403 1042.36 311.563C1044.72 309.65 1047.7 307.994 1051.3 306.595L1057.15 312.999C1053.62 314.25 1051.16 315.759 1049.76 317.525C1048.36 319.291 1047.66 321.095 1047.66 322.935C1047.66 324.848 1048.25 326.431 1049.43 327.682C1050.68 329.007 1052.33 330 1054.39 330.663C1056.53 331.325 1058.92 331.656 1061.57 331.656C1064.15 331.656 1066.39 331.288 1068.3 330.552C1070.22 329.89 1071.69 328.933 1072.72 327.682C1073.82 326.431 1074.38 324.922 1074.38 323.155C1074.38 320.947 1073.6 319.144 1072.06 317.746C1070.51 316.421 1067.46 315.611 1062.9 315.317C1058.99 315.023 1055.57 314.618 1052.63 314.103C1049.68 313.514 1047.14 312.851 1045.01 312.115C1042.95 311.379 1041.18 310.57 1039.71 309.687C1038.24 308.73 1037.02 307.773 1036.07 306.816V304.277L1047.66 292.133L1057.49 295.335L1044.46 308.031L1047.88 301.627C1048.62 302.143 1049.35 302.621 1050.09 303.063C1050.9 303.504 1051.89 303.909 1053.07 304.277C1054.32 304.571 1055.94 304.866 1057.93 305.16C1059.91 305.455 1062.49 305.749 1065.66 306.043C1070.59 306.411 1074.6 307.295 1077.69 308.693C1080.78 310.091 1083.06 311.968 1084.53 314.323C1086.01 316.679 1086.74 319.512 1086.74 322.824C1086.74 326.063 1085.82 329.117 1083.98 331.987C1082.22 334.858 1079.49 337.213 1075.81 339.053C1072.13 340.893 1067.42 341.813 1061.68 341.813ZM1061.68 299.53C1057.04 299.53 1053.03 298.647 1049.65 296.88C1046.33 295.04 1043.8 292.611 1042.03 289.594C1040.26 286.503 1039.38 283.117 1039.38 279.437C1039.38 275.683 1040.26 272.298 1042.03 269.28C1043.8 266.263 1046.33 263.834 1049.65 261.994C1053.03 260.154 1057.04 259.234 1061.68 259.234C1066.32 259.234 1070.29 260.154 1073.6 261.994C1076.92 263.834 1079.46 266.263 1081.22 269.28C1082.99 272.298 1083.87 275.683 1083.87 279.437C1083.87 283.117 1082.99 286.503 1081.22 289.594C1079.46 292.611 1076.92 295.04 1073.6 296.88C1070.29 298.647 1066.32 299.53 1061.68 299.53ZM1061.68 289.263C1064.85 289.263 1067.38 288.416 1069.3 286.723C1071.21 285.031 1072.17 282.602 1072.17 279.437C1072.17 276.272 1071.21 273.88 1069.3 272.261C1067.38 270.568 1064.85 269.722 1061.68 269.722C1058.52 269.722 1055.94 270.568 1053.95 272.261C1051.97 273.88 1050.97 276.272 1050.97 279.437C1050.97 282.602 1051.97 285.031 1053.95 286.723C1055.94 288.416 1058.52 289.263 1061.68 289.263ZM1070.84 270.274L1068.3 260.559H1091.16V268.839L1070.84 270.274ZM1123.44 317.525C1117.92 317.525 1113.06 316.347 1108.87 313.992C1104.67 311.563 1101.4 308.178 1099.04 303.835C1096.69 299.493 1095.51 294.488 1095.51 288.821C1095.51 282.933 1096.65 277.781 1098.93 273.365C1101.29 268.949 1104.56 265.49 1108.76 262.987C1113.03 260.485 1117.96 259.234 1123.55 259.234C1129 259.234 1133.75 260.448 1137.79 262.877C1141.84 265.306 1144.97 268.581 1147.18 272.703C1149.39 276.751 1150.49 281.314 1150.49 286.392C1150.49 287.128 1150.49 287.938 1150.49 288.821C1150.49 289.704 1150.42 290.624 1150.27 291.581H1105V283.08H1137.13C1136.98 279.032 1135.62 275.867 1133.05 273.586C1130.47 271.231 1127.27 270.053 1123.44 270.053C1120.72 270.053 1118.22 270.679 1115.93 271.93C1113.65 273.181 1111.85 275.058 1110.52 277.56C1109.2 279.989 1108.54 283.08 1108.54 286.834V290.035C1108.54 293.495 1109.16 296.475 1110.41 298.978C1111.74 301.48 1113.51 303.394 1115.71 304.719C1118 305.97 1120.53 306.595 1123.33 306.595C1126.42 306.595 1128.96 305.933 1130.95 304.608C1133.01 303.283 1134.52 301.517 1135.48 299.309H1148.94C1147.91 302.768 1146.22 305.896 1143.87 308.693C1141.51 311.416 1138.6 313.587 1135.14 315.207C1131.68 316.752 1127.78 317.525 1123.44 317.525Z" fill="white"/>
<defs>
<filter id="filter0_dddddd_1117_13995" x="0.639999" y="0.119995" width="723.118" height="723.12" filterUnits="userSpaceOnUse" color-interpolation-filters="sRGB">
<feFlood flood-opacity="0" result="BackgroundImageFix"/>
<feColorMatrix in="SourceAlpha" type="matrix" values="0 0 0 0 0 0 0 0 0 0 0 0 0 0 0 0 0 0 127 0" result="hardAlpha"/>
<feOffset dy="3.68"/>
<feGaussianBlur stdDeviation="2.76"/>
<feColorMatrix type="matrix" values="0 0 0 0 0.105882 0 0 0 0 0.192157 0 0 0 0 0.223529 0 0 0 0.0196802 0"/>
<feBlend mode="normal" in2="BackgroundImageFix" result="effect1_dropShadow_1117_13995"/>
<feColorMatrix in="SourceAlpha" type="matrix" values="0 0 0 0 0 0 0 0 0 0 0 0 0 0 0 0 0 0 127 0" result="hardAlpha"/>
<feOffset dy="7.36"/>
<feGaussianBlur stdDeviation="7.36"/>
<feColorMatrix type="matrix" values="0 0 0 0 0.105882 0 0 0 0 0.192157 0 0 0 0 0.223529 0 0 0 0.04 0"/>
<feBlend mode="normal" in2="effect1_dropShadow_1117_13995" result="effect2_dropShadow_1117_13995"/>
<feColorMatrix in="SourceAlpha" type="matrix" values="0 0 0 0 0 0 0 0 0 0 0 0 0 0 0 0 0 0 127 0" result="hardAlpha"/>
<feOffset dy="16.56"/>
<feGaussianBlur stdDeviation="11.96"/>
<feColorMatrix type="matrix" values="0 0 0 0 0.105882 0 0 0 0 0.192157 0 0 0 0 0.223529 0 0 0 0.035 0"/>
<feBlend mode="normal" in2="effect2_dropShadow_1117_13995" result="effect3_dropShadow_1117_13995"/>
<feColorMatrix in="SourceAlpha" type="matrix" values="0 0 0 0 0 0 0 0 0 0 0 0 0 0 0 0 0 0 127 0" result="hardAlpha"/>
<feOffset dy="29.44"/>
<feGaussianBlur stdDeviation="22.08"/>
<feColorMatrix type="matrix" values="0 0 0 0 0.105882 0 0 0 0 0.192157 0 0 0 0 0.223529 0 0 0 0.04 0"/>
<feBlend mode="normal" in2="effect3_dropShadow_1117_13995" result="effect4_dropShadow_1117_13995"/>
<feColorMatrix in="SourceAlpha" type="matrix" values="0 0 0 0 0 0 0 0 0 0 0 0 0 0 0 0 0 0 127 0" result="hardAlpha"/>
<feOffset dy="58.88"/>
<feGaussianBlur stdDeviation="36.8"/>
<feColorMatrix type="matrix" values="0 0 0 0 0.105882 0 0 0 0 0.192157 0 0 0 0 0.223529 0 0 0 0.0503198 0"/>
<feBlend mode="normal" in2="effect4_dropShadow_1117_13995" result="effect5_dropShadow_1117_13995"/>
<feColorMatrix in="SourceAlpha" type="matrix" values="0 0 0 0 0 0 0 0 0 0 0 0 0 0 0 0 0 0 127 0" result="hardAlpha"/>
<feOffset dy="132.48"/>
<feGaussianBlur stdDeviation="95.68"/>
<feColorMatrix type="matrix" values="0 0 0 0 0.105882 0 0 0 0 0.192157 0 0 0 0 0.223529 0 0 0 0.07 0"/>
<feBlend mode="normal" in2="effect5_dropShadow_1117_13995" result="effect6_dropShadow_1117_13995"/>
<feBlend mode="normal" in="SourceGraphic" in2="effect6_dropShadow_1117_13995" result="shape"/>
</filter>
</defs>
</svg>
