<svg width="150" height="150" viewBox="0 0 150 150" fill="none" xmlns="http://www.w3.org/2000/svg">
<path d="M123.65 67.4801H103.81V74.7901H92.1V34.1901H81.37C81.1264 33.2444 80.653 32.3735 79.9918 31.6547C79.3306 30.936 78.5022 30.3916 77.58 30.0701C76.6579 29.7485 75.6706 29.6597 74.7059 29.8115C73.7412 29.9632 72.8289 30.3509 72.05 30.9401C71.003 27.0373 68.6984 23.5887 65.4931 21.1283C62.2878 18.6678 58.3607 17.3328 54.32 17.3301H34.48V25.1301H8V28.1301H34.48V43.2501H19.48V63.7901H8V66.7901H19.48V87.3401H103.81V93.8801H89.1V115.38H68.9C68.5719 114.097 67.824 112.961 66.7754 112.153C65.7267 111.345 64.4377 110.91 63.1137 110.92C61.7897 110.929 60.5069 111.381 59.4696 112.204C58.4323 113.027 57.7002 114.173 57.39 115.46L32.48 101.08V115.38H8V118.38H32.48V132.67L57.39 118.3C57.7077 119.581 58.4428 120.719 59.4792 121.536C60.5157 122.352 61.7945 122.8 63.1139 122.81C64.4334 122.819 65.7183 122.388 66.766 121.586C67.8137 120.784 68.5645 119.656 68.9 118.38H92.1V96.8801H103.81V104.19H123.65C126.096 104.247 128.53 103.815 130.807 102.918C133.083 102.021 135.158 100.678 136.909 98.9682C138.659 97.2581 140.05 95.2153 141 92.96C141.949 90.7046 142.438 88.2822 142.438 85.8351C142.438 83.3879 141.949 80.9655 141 78.7102C140.05 76.4548 138.659 74.4121 136.909 72.702C135.158 70.9919 133.083 69.649 130.807 68.7523C128.53 67.8555 126.096 67.423 123.65 67.4801ZM35.48 127.48V106.28L53.84 116.88L35.48 127.48ZM63.16 119.82C62.5757 119.822 62.004 119.65 61.5173 119.327C61.0307 119.004 60.651 118.543 60.4265 118.004C60.202 117.464 60.1427 116.87 60.2562 116.297C60.3697 115.724 60.6509 115.197 61.0641 114.784C61.4772 114.371 62.0038 114.09 62.577 113.976C63.1501 113.863 63.7441 113.922 64.2835 114.147C64.823 114.371 65.2836 114.751 65.607 115.237C65.9304 115.724 66.102 116.296 66.1 116.88C66.0974 117.659 65.7868 118.405 65.236 118.956C64.6852 119.507 63.9389 119.817 63.16 119.82ZM75.63 32.7401C76.2135 32.7401 76.7838 32.9131 77.2689 33.2372C77.7541 33.5614 78.1322 34.0221 78.3554 34.5612C78.5787 35.1002 78.6371 35.6934 78.5233 36.2656C78.4095 36.8378 78.1285 37.3635 77.716 37.776C77.3034 38.1886 76.7778 38.4696 76.2055 38.5834C75.6333 38.6972 75.0401 38.6388 74.5011 38.4155C73.962 38.1922 73.5013 37.8141 73.1772 37.329C72.853 36.8439 72.68 36.2735 72.68 35.6901C72.68 34.9077 72.9908 34.1573 73.544 33.6041C74.0973 33.0509 74.8476 32.7401 75.63 32.7401ZM37.48 20.3301H54.32C58.3937 20.3301 62.3006 21.9484 65.1812 24.8289C68.0617 27.7095 69.68 31.6164 69.68 35.6901C69.68 39.7638 68.0617 43.6707 65.1812 46.5512C62.3006 49.4318 58.3937 51.0501 54.32 51.0501H37.48V20.3301ZM22.48 84.3301V46.2501H34.48V54.0501H54.32C58.3616 54.045 62.2889 52.708 65.494 50.2458C68.6991 47.7837 71.0033 44.3338 72.05 40.4301C72.8282 41.0193 73.7398 41.4073 74.7039 41.5597C75.668 41.7121 76.6549 41.6241 77.5768 41.3036C78.4988 40.9831 79.3274 40.4399 79.9891 39.7223C80.6508 39.0048 81.1251 38.135 81.37 37.1901H89.1V77.7901H103.81V84.3401L22.48 84.3301ZM123.65 101.18H106.81V70.4801H123.65C125.699 70.4278 127.739 70.7863 129.647 71.5344C131.556 72.2825 133.296 73.4052 134.764 74.8362C136.232 76.2673 137.398 77.9777 138.195 79.8667C138.991 81.7556 139.402 83.785 139.402 85.8351C139.402 87.8852 138.991 89.9145 138.195 91.8035C137.398 93.6925 136.232 95.4029 134.764 96.8339C133.296 98.2649 131.556 99.3876 129.647 100.136C127.739 100.884 125.699 101.242 123.65 101.19V101.18Z" fill="#FF5F46"/>
</svg>
