<svg width="150" height="150" viewBox="0 0 150 150" fill="none" xmlns="http://www.w3.org/2000/svg">
<path d="M123.65 67.48H103.81V74.79H92.1V34.19H81.37C81.1264 33.2443 80.653 32.3734 79.9918 31.6546C79.3306 30.9359 78.5022 30.3916 77.58 30.07C76.6579 29.7485 75.6706 29.6596 74.7059 29.8114C73.7412 29.9632 72.8289 30.3509 72.05 30.94C71.003 27.0373 68.6984 23.5887 65.4931 21.1282C62.2878 18.6678 58.3607 17.3328 54.32 17.33H34.48V25.13H8V28.13H34.48V43.25H19.48V63.79H8V66.79H19.48V87.34H103.81V93.88H89.1V115.38H68.9C68.5719 114.097 67.824 112.961 66.7754 112.153C65.7267 111.345 64.4377 110.91 63.1137 110.92C61.7897 110.929 60.5069 111.381 59.4696 112.204C58.4323 113.027 57.7002 114.173 57.39 115.46L32.48 101.08V115.38H8V118.38H32.48V132.67L57.39 118.3C57.7077 119.581 58.4428 120.719 59.4792 121.536C60.5157 122.352 61.7945 122.8 63.1139 122.81C64.4334 122.819 65.7183 122.388 66.766 121.586C67.8137 120.784 68.5645 119.656 68.9 118.38H92.1V96.88H103.81V104.19H123.65C126.096 104.247 128.53 103.815 130.807 102.918C133.083 102.021 135.158 100.678 136.909 98.9681C138.659 97.258 140.05 95.2153 141 92.9599C141.949 90.7046 142.438 88.2821 142.438 85.835C142.438 83.3879 141.949 80.9654 141 78.7101C140.05 76.4547 138.659 74.412 136.909 72.7019C135.158 70.9919 133.083 69.649 130.807 68.7522C128.53 67.8554 126.096 67.4229 123.65 67.48V67.48ZM35.48 127.48V106.28L53.84 116.88L35.48 127.48ZM63.16 119.82C62.5757 119.822 62.004 119.65 61.5173 119.327C61.0307 119.004 60.651 118.543 60.4265 118.004C60.202 117.464 60.1427 116.87 60.2562 116.297C60.3697 115.724 60.6509 115.197 61.0641 114.784C61.4772 114.371 62.0038 114.09 62.577 113.976C63.1501 113.863 63.7441 113.922 64.2835 114.146C64.823 114.371 65.2836 114.751 65.607 115.237C65.9304 115.724 66.102 116.296 66.1 116.88C66.0974 117.659 65.7868 118.405 65.236 118.956C64.6852 119.507 63.9389 119.817 63.16 119.82V119.82ZM75.63 32.74C76.2135 32.74 76.7838 32.913 77.2689 33.2372C77.7541 33.5613 78.1322 34.0221 78.3554 34.5611C78.5787 35.1001 78.6371 35.6933 78.5233 36.2655C78.4095 36.8378 78.1285 37.3634 77.716 37.776C77.3034 38.1885 76.7778 38.4695 76.2055 38.5833C75.6333 38.6972 75.0401 38.6387 74.5011 38.4155C73.962 38.1922 73.5013 37.8141 73.1772 37.329C72.853 36.8438 72.68 36.2735 72.68 35.69C72.68 34.9076 72.9908 34.1573 73.544 33.6041C74.0973 33.0508 74.8476 32.74 75.63 32.74V32.74ZM37.48 20.33H54.32C58.3937 20.33 62.3006 21.9483 65.1812 24.8289C68.0617 27.7094 69.68 31.6163 69.68 35.69C69.68 39.7637 68.0617 43.6706 65.1812 46.5512C62.3006 49.4317 58.3937 51.05 54.32 51.05H37.48V20.33ZM22.48 84.33V46.25H34.48V54.05H54.32C58.3616 54.045 62.2889 52.7079 65.494 50.2458C68.6991 47.7837 71.0033 44.3338 72.05 40.43C72.8282 41.0192 73.7398 41.4072 74.7039 41.5596C75.668 41.712 76.6549 41.624 77.5768 41.3035C78.4988 40.983 79.3274 40.4399 79.9891 39.7223C80.6508 39.0047 81.1251 38.1349 81.37 37.19H89.1V77.79H103.81V84.34L22.48 84.33ZM123.65 101.18H106.81V70.48H123.65C125.699 70.4277 127.739 70.7862 129.647 71.5343C131.556 72.2825 133.296 73.4052 134.764 74.8362C136.232 76.2672 137.398 77.9776 138.195 79.8666C138.991 81.7556 139.402 83.7849 139.402 85.835C139.402 87.8851 138.991 89.9144 138.195 91.8034C137.398 93.6924 136.232 95.4028 134.764 96.8339C133.296 98.2649 131.556 99.3875 129.647 100.136C127.739 100.884 125.699 101.242 123.65 101.19V101.18Z" fill="#1B3139"/>
</svg>
