<svg width="150" height="150" viewBox="0 0 150 150" fill="none" xmlns="http://www.w3.org/2000/svg">
<path d="M28.0201 57.5317V68.3386C30.2271 65.7733 33.6149 64.1364 37.4181 64.1364C41.2212 64.1364 44.6091 65.7815 46.8161 68.3386C49.0231 70.9039 52.4109 72.5408 56.2141 72.5408C60.0172 72.5408 63.4051 70.8958 65.612 68.3386C67.819 65.7733 71.2069 64.1364 75.0101 64.1364C78.8132 64.1364 82.2011 65.7815 84.4081 68.3386C86.6151 70.9039 90.0028 72.5408 93.806 72.5408C97.6092 72.5408 100.997 70.8958 103.204 68.3386C105.411 65.7733 108.799 64.1364 112.602 64.1364C116.405 64.1364 119.793 65.7815 122 68.3386V86.6053C119.793 84.04 116.405 82.403 112.602 82.403C108.799 82.403 105.411 84.0481 103.204 86.6053C100.997 89.1706 97.6092 90.8075 93.806 90.8075C90.0028 90.8075 86.6151 89.1624 84.4081 86.6053C82.2011 84.04 78.8132 82.403 75.0101 82.403C71.2069 82.403 67.819 84.0481 65.612 86.6053C63.4051 89.1706 60.0172 90.8075 56.2141 90.8075C52.4109 90.8075 49.0231 89.1624 46.8161 86.6053C44.6091 84.04 41.2212 82.403 37.4181 82.403C33.6149 82.403 30.2271 84.0481 28.0201 86.6053V104.872C30.2271 102.307 33.6149 100.67 37.4181 100.67C41.2212 100.67 44.6091 102.315 46.8161 104.872C49.0231 107.437 52.4109 109.074 56.2141 109.074C60.0172 109.074 63.4051 107.429 65.612 104.872C67.819 102.307 71.2069 100.67 75.0101 100.67C78.8132 100.67 82.2011 102.315 84.4081 104.872C86.6151 107.437 90.0028 109.074 93.806 109.074C97.6092 109.074 100.997 107.429 103.204 104.872C105.411 102.307 108.799 100.67 112.602 100.67C116.405 100.67 119.793 102.315 122 104.872V121.168" stroke="#1B3139" stroke-width="3" stroke-miterlimit="1" stroke-linecap="square"/>
<path d="M121.984 50.0642L75.0019 29.0205L28.0201 50.0642V57.5321" stroke="#1B3139" stroke-width="3" stroke-miterlimit="3" stroke-linecap="square"/>
<path d="M121.984 121.16H28.0201" stroke="#1B3139" stroke-width="3" stroke-miterlimit="1" stroke-linecap="square"/>
</svg>
