<svg width="150" height="150" viewBox="0 0 150 150" fill="none" xmlns="http://www.w3.org/2000/svg">
<path d="M28.0201 57.5322V68.3391C30.2271 65.7738 33.6149 64.1369 37.4181 64.1369C41.2212 64.1369 44.6091 65.7819 46.8161 68.3391C49.0231 70.9044 52.4109 72.5413 56.2141 72.5413C60.0172 72.5413 63.4051 70.8963 65.612 68.3391C67.819 65.7738 71.2069 64.1369 75.0101 64.1369C78.8132 64.1369 82.2011 65.7819 84.4081 68.3391C86.6151 70.9044 90.0028 72.5413 93.806 72.5413C97.6092 72.5413 100.997 70.8963 103.204 68.3391C105.411 65.7738 108.799 64.1369 112.602 64.1369C116.405 64.1369 119.793 65.7819 122 68.3391V86.6058C119.793 84.0404 116.405 82.4035 112.602 82.4035C108.799 82.4035 105.411 84.0486 103.204 86.6058C100.997 89.1711 97.6092 90.808 93.806 90.808C90.0028 90.808 86.6151 89.1629 84.4081 86.6058C82.2011 84.0404 78.8132 82.4035 75.0101 82.4035C71.2069 82.4035 67.819 84.0486 65.612 86.6058C63.4051 89.1711 60.0172 90.808 56.2141 90.808C52.4109 90.808 49.0231 89.1629 46.8161 86.6058C44.6091 84.0404 41.2212 82.4035 37.4181 82.4035C33.6149 82.4035 30.2271 84.0486 28.0201 86.6058V104.872C30.2271 102.307 33.6149 100.67 37.4181 100.67C41.2212 100.67 44.6091 102.315 46.8161 104.872C49.0231 107.438 52.4109 109.075 56.2141 109.075C60.0172 109.075 63.4051 107.43 65.612 104.872C67.819 102.307 71.2069 100.67 75.0101 100.67C78.8132 100.67 82.2011 102.315 84.4081 104.872C86.6151 107.438 90.0028 109.075 93.806 109.075C97.6092 109.075 100.997 107.43 103.204 104.872C105.411 102.307 108.799 100.67 112.602 100.67C116.405 100.67 119.793 102.315 122 104.872V121.168" stroke="#FF5F46" stroke-width="3" stroke-miterlimit="1" stroke-linecap="square"/>
<path d="M121.984 50.0642L75.0019 29.0205L28.0201 50.0642V57.5321" stroke="#FF5F46" stroke-width="3" stroke-miterlimit="3" stroke-linecap="square"/>
<path d="M121.984 121.159H28.0201" stroke="#FF5F46" stroke-width="3" stroke-miterlimit="1" stroke-linecap="square"/>
</svg>
