<svg width="865" height="200" viewBox="0 0 865 200" fill="none" xmlns="http://www.w3.org/2000/svg">
<path d="M65.5391 49.3243L65.5391 150.676L24.9985 175L24.9985 25L65.5391 49.3243Z" fill="#618794"/>
<path d="M120.586 49.3243L120.586 150.676L80.0454 175L80.0454 25L120.586 49.3243Z" fill="#C4CCD6"/>
<path d="M174.852 49.3243L174.852 150.676L134.311 175L134.311 25L174.852 49.3243Z" fill="#618794"/>
<path d="M239.838 137.5V60.22H255.515L280.245 110.121L304.754 60.22H320.541V137.5H307.293V82.9624L285.434 126.681H275.056L253.086 83.0728V137.5H239.838ZM351.016 138.825C346.453 138.825 342.663 138.052 339.645 136.506C336.628 134.961 334.383 132.9 332.911 130.324C331.439 127.748 330.703 124.951 330.703 121.934C330.703 118.401 331.586 115.346 333.352 112.77C335.192 110.194 337.879 108.207 341.412 106.809C344.944 105.337 349.287 104.601 354.439 104.601H368.46C368.46 101.657 368.055 99.228 367.245 97.3144C366.436 95.3272 365.184 93.8552 363.492 92.8984C361.799 91.9416 359.628 91.4632 356.978 91.4632C353.96 91.4632 351.384 92.1624 349.25 93.5608C347.116 94.8856 345.791 96.9464 345.276 99.7432H332.248C332.69 95.7688 334.015 92.3832 336.223 89.5864C338.431 86.716 341.338 84.508 344.944 82.9624C348.624 81.3432 352.636 80.5336 356.978 80.5336C362.204 80.5336 366.656 81.4536 370.336 83.2936C374.016 85.06 376.813 87.636 378.727 91.0216C380.714 94.3336 381.708 98.3448 381.708 103.055V137.5H370.447L369.122 128.558C368.386 130.03 367.429 131.391 366.252 132.642C365.148 133.894 363.86 134.998 362.388 135.954C360.916 136.838 359.223 137.537 357.309 138.052C355.469 138.567 353.372 138.825 351.016 138.825ZM353.997 128.337C356.132 128.337 358.008 127.969 359.628 127.233C361.32 126.423 362.756 125.319 363.933 123.921C365.184 122.449 366.141 120.83 366.804 119.063C367.466 117.297 367.908 115.42 368.128 113.433V113.212H355.874C353.298 113.212 351.164 113.543 349.471 114.206C347.778 114.794 346.564 115.678 345.828 116.855C345.092 118.033 344.724 119.394 344.724 120.94C344.724 122.486 345.092 123.81 345.828 124.914C346.564 126.018 347.631 126.865 349.029 127.454C350.428 128.042 352.084 128.337 353.997 128.337ZM392.551 137.5V81.8584H404.364L405.578 92.236C406.903 89.8072 408.559 87.7464 410.546 86.0536C412.533 84.2872 414.852 82.9256 417.501 81.9688C420.225 81.012 423.205 80.5336 426.444 80.5336V94.5544H421.807C419.599 94.5544 417.501 94.8488 415.514 95.4376C413.527 95.9528 411.797 96.836 410.325 98.0872C408.927 99.2648 407.823 100.921 407.013 103.055C406.204 105.116 405.799 107.729 405.799 110.894V137.5H392.551ZM468.999 137.5L444.379 107.03L466.459 81.8584H482.247L454.757 112.439V102.172L485.559 137.5H468.999ZM433.119 137.5V58.012H446.367V137.5H433.119ZM512.786 138.825C507.266 138.825 502.408 137.647 498.213 135.292C494.018 132.863 490.743 129.478 488.388 125.135C486.032 120.793 484.855 115.788 484.855 110.121C484.855 104.233 485.996 99.0808 488.277 94.6648C490.632 90.2488 493.908 86.7896 498.103 84.2872C502.372 81.7848 507.303 80.5336 512.896 80.5336C518.343 80.5336 523.09 81.748 527.138 84.1768C531.186 86.6056 534.314 89.8808 536.522 94.0024C538.73 98.0504 539.834 102.614 539.834 107.692C539.834 108.428 539.834 109.238 539.834 110.121C539.834 111.004 539.76 111.924 539.613 112.881H494.349V104.38H526.476C526.328 100.332 524.967 97.1672 522.391 94.8856C519.815 92.5304 516.613 91.3528 512.786 91.3528C510.063 91.3528 507.56 91.9784 505.279 93.2296C502.997 94.4808 501.194 96.3576 499.869 98.86C498.544 101.289 497.882 104.38 497.882 108.134V111.335C497.882 114.794 498.508 117.775 499.759 120.278C501.084 122.78 502.85 124.694 505.058 126.018C507.34 127.27 509.879 127.895 512.676 127.895C515.767 127.895 518.306 127.233 520.293 125.908C522.354 124.583 523.863 122.817 524.82 120.609H538.288C537.258 124.068 535.565 127.196 533.21 129.993C530.855 132.716 527.948 134.887 524.488 136.506C521.029 138.052 517.128 138.825 512.786 138.825ZM571.853 137.5C568.1 137.5 564.825 136.911 562.028 135.734C559.305 134.556 557.17 132.606 555.625 129.882C554.079 127.159 553.306 123.479 553.306 118.842V93.0088H543.812V81.8584H553.306L554.852 67.1752H566.554V81.8584H581.679V93.0088H566.554V118.842C566.554 121.639 567.143 123.59 568.321 124.694C569.572 125.724 571.633 126.239 574.503 126.239H581.348V137.5H571.853ZM590.831 161.788V81.8584H602.644L604.079 89.9176C605.257 88.2984 606.655 86.7896 608.274 85.3912C609.967 83.9192 611.991 82.7416 614.346 81.8584C616.775 80.9752 619.535 80.5336 622.626 80.5336C627.852 80.5336 632.452 81.8216 636.426 84.3976C640.474 86.9736 643.639 90.4696 645.921 94.8856C648.202 99.228 649.343 104.196 649.343 109.79C649.343 115.383 648.165 120.388 645.81 124.804C643.529 129.146 640.364 132.569 636.316 135.071C632.341 137.574 627.778 138.825 622.626 138.825C618.431 138.825 614.751 138.052 611.586 136.506C608.495 134.887 605.993 132.606 604.079 129.662V161.788H590.831ZM619.866 127.343C622.957 127.343 625.717 126.607 628.146 125.135C630.575 123.663 632.452 121.602 633.777 118.953C635.175 116.303 635.874 113.249 635.874 109.79C635.874 106.257 635.175 103.166 633.777 100.516C632.452 97.8664 630.575 95.8056 628.146 94.3336C625.717 92.8616 622.957 92.1256 619.866 92.1256C616.701 92.1256 613.905 92.8616 611.476 94.3336C609.121 95.8056 607.244 97.8664 605.845 100.516C604.521 103.166 603.858 106.22 603.858 109.679C603.858 113.212 604.521 116.303 605.845 118.953C607.244 121.529 609.121 123.59 611.476 125.135C613.905 126.607 616.701 127.343 619.866 127.343ZM658.891 137.5V58.012H672.139V137.5H658.891ZM702.157 138.825C697.594 138.825 693.804 138.052 690.786 136.506C687.769 134.961 685.524 132.9 684.052 130.324C682.58 127.748 681.844 124.951 681.844 121.934C681.844 118.401 682.727 115.346 684.493 112.77C686.333 110.194 689.02 108.207 692.553 106.809C696.085 105.337 700.428 104.601 705.58 104.601H719.601C719.601 101.657 719.196 99.228 718.386 97.3144C717.577 95.3272 716.325 93.8552 714.633 92.8984C712.94 91.9416 710.769 91.4632 708.119 91.4632C705.101 91.4632 702.525 92.1624 700.391 93.5608C698.257 94.8856 696.932 96.9464 696.417 99.7432H683.389C683.831 95.7688 685.156 92.3832 687.364 89.5864C689.572 86.716 692.479 84.508 696.085 82.9624C699.765 81.3432 703.777 80.5336 708.119 80.5336C713.345 80.5336 717.797 81.4536 721.477 83.2936C725.157 85.06 727.954 87.636 729.868 91.0216C731.855 94.3336 732.849 98.3448 732.849 103.055V137.5H721.588L720.263 128.558C719.527 130.03 718.57 131.391 717.393 132.642C716.289 133.894 715.001 134.998 713.529 135.954C712.057 136.838 710.364 137.537 708.45 138.052C706.61 138.567 704.513 138.825 702.157 138.825ZM705.138 128.337C707.273 128.337 709.149 127.969 710.769 127.233C712.461 126.423 713.897 125.319 715.074 123.921C716.325 122.449 717.282 120.83 717.945 119.063C718.607 117.297 719.049 115.42 719.269 113.433V113.212H707.015C704.439 113.212 702.305 113.543 700.612 114.206C698.919 114.794 697.705 115.678 696.969 116.855C696.233 118.033 695.865 119.394 695.865 120.94C695.865 122.486 696.233 123.81 696.969 124.914C697.705 126.018 698.772 126.865 700.17 127.454C701.569 128.042 703.225 128.337 705.138 128.337ZM770.078 138.825C764.631 138.825 759.737 137.61 755.394 135.182C751.126 132.679 747.777 129.257 745.348 124.914C742.993 120.498 741.815 115.494 741.815 109.9C741.815 104.086 742.993 99.0072 745.348 94.6648C747.777 90.2488 751.126 86.7896 755.394 84.2872C759.737 81.7848 764.668 80.5336 770.188 80.5336C777.106 80.5336 782.921 82.3736 787.631 86.0536C792.342 89.66 795.359 94.628 796.684 100.958H782.774C782.038 98.1608 780.492 95.9528 778.137 94.3336C775.855 92.7144 773.132 91.9048 769.967 91.9048C767.244 91.9048 764.742 92.604 762.46 94.0024C760.252 95.4008 758.486 97.4248 757.161 100.074C755.91 102.724 755.284 105.926 755.284 109.679C755.284 112.55 755.652 115.089 756.388 117.297C757.124 119.505 758.154 121.382 759.479 122.927C760.878 124.399 762.46 125.54 764.226 126.35C765.993 127.159 767.906 127.564 769.967 127.564C772.102 127.564 774.015 127.233 775.708 126.57C777.474 125.834 778.946 124.767 780.124 123.369C781.375 121.97 782.258 120.314 782.774 118.401H796.684C795.359 124.583 792.342 129.551 787.631 133.305C782.921 136.985 777.07 138.825 770.078 138.825ZM832.2 138.825C826.68 138.825 821.822 137.647 817.627 135.292C813.432 132.863 810.157 129.478 807.802 125.135C805.446 120.793 804.269 115.788 804.269 110.121C804.269 104.233 805.41 99.0808 807.691 94.6648C810.046 90.2488 813.322 86.7896 817.517 84.2872C821.786 81.7848 826.717 80.5336 832.31 80.5336C837.757 80.5336 842.504 81.748 846.552 84.1768C850.6 86.6056 853.728 89.8808 855.936 94.0024C858.144 98.0504 859.248 102.614 859.248 107.692C859.248 108.428 859.248 109.238 859.248 110.121C859.248 111.004 859.174 111.924 859.027 112.881H813.763V104.38H845.89C845.742 100.332 844.381 97.1672 841.805 94.8856C839.229 92.5304 836.027 91.3528 832.2 91.3528C829.477 91.3528 826.974 91.9784 824.693 93.2296C822.411 94.4808 820.608 96.3576 819.283 98.86C817.958 101.289 817.296 104.38 817.296 108.134V111.335C817.296 114.794 817.922 117.775 819.173 120.278C820.498 122.78 822.264 124.694 824.472 126.018C826.754 127.27 829.293 127.895 832.09 127.895C835.181 127.895 837.72 127.233 839.707 125.908C841.768 124.583 843.277 122.817 844.234 120.609H857.702C856.672 124.068 854.979 127.196 852.624 129.993C850.269 132.716 847.362 134.887 843.902 136.506C840.443 138.052 836.542 138.825 832.2 138.825Z" fill="#1B3139"/>
</svg>
