<svg width="1080" height="1080" viewBox="0 0 1080 1080" fill="none" xmlns="http://www.w3.org/2000/svg">
<g clip-path="url(#clip0_64001_4)">
<rect width="1080" height="1080" fill="white"/>
<path d="M704.5 891.5C704.5 982.351 630.851 1056 540 1056C449.149 1056 375.5 982.351 375.5 891.5C375.5 891.333 375.502 891.167 375.503 891H704.497C704.498 891.167 704.5 891.333 704.5 891.5ZM375.562 184C375.521 185.495 375.5 186.995 375.5 188.5C375.5 279.351 449.149 353 540 353C630.851 353 704.5 279.351 704.5 188.5C704.5 186.995 704.479 185.495 704.438 184H893.5V375.513C892.834 375.505 892.168 375.5 891.5 375.5C800.649 375.5 727 449.149 727 540C727 630.851 800.649 704.5 891.5 704.5C892.168 704.5 892.834 704.494 893.5 704.486V891H704.497C704.227 800.379 630.684 727 540 727C449.316 727 375.773 800.379 375.503 891H186.5V704.486C187.166 704.494 187.832 704.5 188.5 704.5C279.351 704.5 353 630.851 353 540C353 449.149 279.351 375.5 188.5 375.5C187.832 375.5 187.166 375.505 186.5 375.513V184H375.562ZM186.5 704.486C96.5707 703.415 24 630.183 24 540C24 449.817 96.5707 376.584 186.5 375.513V704.486ZM893.5 375.513C983.429 376.584 1056 449.817 1056 540C1056 630.183 983.429 703.415 893.5 704.486V375.513ZM540 24C629.346 24 702.054 95.2296 704.438 184H375.562C377.946 95.2296 450.654 24 540 24Z" fill="#FF3621"/>
</g>
<defs>
<clipPath id="clip0_64001_4">
<rect width="1080" height="1080" fill="white"/>
</clipPath>
</defs>
</svg>
