<svg width="1035" height="558" viewBox="0 0 1035 558" fill="none" xmlns="http://www.w3.org/2000/svg">
<g filter="url(#filter0_dddddd_1107_11263)">
<path d="M148 116.336C148 77.4903 179.49 46 218.336 46H339.664C378.51 46 410 77.4903 410 116.336V237.664C410 276.51 378.51 308 339.664 308H218.336C179.49 308 148 276.51 148 237.664V116.336Z" fill="white"/>
</g>
<path d="M279.26 109.502C279.259 146.78 249.038 177 211.76 177L211.502 177L211.502 109.5L279.002 109.5C279.088 109.5 279.174 109.502 279.26 109.502ZM346.452 177C309.315 176.834 279.262 146.678 279.261 109.502C316.421 109.642 346.502 139.807 346.502 177L346.452 177Z" fill="#FABFBA"/>
<path d="M279.002 244.5C241.723 244.5 211.502 214.279 211.502 177L211.76 177C249.039 177 279.26 207.221 279.261 244.5C279.261 207.307 309.342 177.14 346.502 177.001C346.47 177.001 346.437 177 346.405 177L346.502 177L346.502 244.5L279.002 244.5Z" fill="#FF5F46"/>
<path d="M476.76 214.5L505.022 137.22H519.816L548.078 214.5H534.058L512.309 152.676L490.56 214.5H476.76ZM489.346 196.284L492.878 185.796H530.966L534.499 196.284H489.346ZM555.397 214.5V137.22H568.645V214.5H555.397ZM575.682 226.423L603.392 128.94H616.309L588.599 226.423H575.682ZM629.093 214.5V137.22H659.343C664.789 137.22 669.315 138.066 672.922 139.759C676.602 141.452 679.362 143.807 681.202 146.825C683.042 149.769 683.962 153.191 683.962 157.092C683.962 160.993 683.115 164.268 681.423 166.918C679.73 169.567 677.485 171.591 674.688 172.99C671.965 174.388 668.984 175.234 665.746 175.529L667.402 174.314C670.861 174.388 673.952 175.308 676.675 177.074C679.472 178.841 681.68 181.159 683.299 184.03C684.919 186.826 685.728 189.954 685.728 193.414C685.728 197.462 684.735 201.105 682.747 204.343C680.834 207.508 678 210.01 674.247 211.85C670.493 213.617 665.893 214.5 660.447 214.5H629.093ZM642.341 203.681H658.459C662.802 203.681 666.187 202.65 668.616 200.59C671.045 198.529 672.259 195.658 672.259 191.978C672.259 188.298 671.008 185.391 668.506 183.257C666.003 181.049 662.581 179.945 658.239 179.945H642.341V203.681ZM642.341 169.898H657.466C661.735 169.898 664.973 168.942 667.181 167.028C669.389 165.041 670.493 162.318 670.493 158.858C670.493 155.473 669.389 152.823 667.181 150.91C664.973 148.922 661.698 147.929 657.355 147.929H642.341V169.898ZM695.104 214.5V137.22H708.352V214.5H695.104ZM777.892 215.825C770.605 215.825 764.202 214.169 758.682 210.857C753.236 207.545 749.004 202.945 745.986 197.057C742.968 191.095 741.46 184.14 741.46 176.191C741.46 168.316 743.005 161.361 746.096 155.326C749.188 149.217 753.604 144.47 759.344 141.084C765.159 137.625 772.04 135.895 779.989 135.895C788.968 135.895 796.402 138.066 802.29 142.409C808.252 146.678 812.116 152.639 813.882 160.294H798.978C797.874 156.466 795.703 153.486 792.464 151.351C789.226 149.217 785.031 148.15 779.879 148.15C774.653 148.15 770.164 149.29 766.41 151.572C762.73 153.78 759.896 157.018 757.909 161.287C755.996 165.482 755.039 170.487 755.039 176.302C755.039 182.116 755.996 187.121 757.909 191.316C759.896 195.511 762.693 198.713 766.3 200.921C769.906 203.055 774.138 204.122 778.996 204.122C786.208 204.122 791.655 202.098 795.335 198.05C799.015 194.002 801.186 188.74 801.848 182.263H781.866V172.217H815.207V214.5H803.063L801.959 203.902C800.266 206.404 798.316 208.575 796.108 210.415C793.9 212.182 791.287 213.543 788.269 214.5C785.325 215.383 781.866 215.825 777.892 215.825ZM851.8 215.825C846.28 215.825 841.422 214.647 837.227 212.292C833.032 209.863 829.757 206.478 827.402 202.135C825.046 197.793 823.869 192.788 823.869 187.121C823.869 181.233 825.01 176.081 827.291 171.665C829.646 167.249 832.922 163.79 837.117 161.287C841.386 158.785 846.317 157.534 851.91 157.534C857.357 157.534 862.104 158.748 866.152 161.177C870.2 163.606 873.328 166.881 875.536 171.002C877.744 175.05 878.848 179.614 878.848 184.692C878.848 185.428 878.848 186.238 878.848 187.121C878.848 188.004 878.774 188.924 878.627 189.881H833.363V181.38H865.49C865.342 177.332 863.981 174.167 861.405 171.886C858.829 169.53 855.627 168.353 851.8 168.353C849.077 168.353 846.574 168.978 844.293 170.23C842.011 171.481 840.208 173.358 838.883 175.86C837.558 178.289 836.896 181.38 836.896 185.134V188.335C836.896 191.794 837.522 194.775 838.773 197.278C840.098 199.78 841.864 201.694 844.072 203.018C846.354 204.27 848.893 204.895 851.69 204.895C854.781 204.895 857.32 204.233 859.307 202.908C861.368 201.583 862.877 199.817 863.834 197.609H877.302C876.272 201.068 874.579 204.196 872.224 206.993C869.869 209.716 866.962 211.887 863.502 213.506C860.043 215.052 856.142 215.825 851.8 215.825ZM887.768 214.5V158.858H899.47L900.464 168.132C902.157 164.894 904.586 162.318 907.75 160.404C910.915 158.49 914.669 157.534 919.011 157.534C923.501 157.534 927.328 158.49 930.493 160.404C933.658 162.244 936.086 164.967 937.779 168.574C939.546 172.18 940.429 176.67 940.429 182.042V214.5H927.181V183.257C927.181 178.62 926.15 175.05 924.09 172.548C922.029 170.046 918.974 168.794 914.926 168.794C912.277 168.794 909.885 169.42 907.75 170.671C905.69 171.922 904.034 173.762 902.782 176.191C901.605 178.546 901.016 181.417 901.016 184.802V214.5H887.768ZM951.636 214.5V158.858H964.884V214.5H951.636ZM958.26 150.026C955.831 150.026 953.807 149.29 952.188 147.818C950.643 146.273 949.87 144.396 949.87 142.188C949.87 139.906 950.643 138.066 952.188 136.668C953.807 135.196 955.831 134.46 958.26 134.46C960.689 134.46 962.676 135.196 964.222 136.668C965.841 138.066 966.651 139.906 966.651 142.188C966.651 144.396 965.841 146.273 964.222 147.818C962.676 149.29 960.689 150.026 958.26 150.026ZM1002.94 215.825C997.416 215.825 992.558 214.647 988.363 212.292C984.168 209.863 980.893 206.478 978.537 202.135C976.182 197.793 975.005 192.788 975.005 187.121C975.005 181.233 976.145 176.081 978.427 171.665C980.782 167.249 984.057 163.79 988.253 161.287C992.521 158.785 997.453 157.534 1003.05 157.534C1008.49 157.534 1013.24 158.748 1017.29 161.177C1021.34 163.606 1024.46 166.881 1026.67 171.002C1028.88 175.05 1029.98 179.614 1029.98 184.692C1029.98 185.428 1029.98 186.238 1029.98 187.121C1029.98 188.004 1029.91 188.924 1029.76 189.881H984.499V181.38H1016.63C1016.48 177.332 1015.12 174.167 1012.54 171.886C1009.96 169.53 1006.76 168.353 1002.94 168.353C1000.21 168.353 997.71 168.978 995.429 170.23C993.147 171.481 991.344 173.358 990.019 175.86C988.694 178.289 988.032 181.38 988.032 185.134V188.335C988.032 191.794 988.657 194.775 989.909 197.278C991.233 199.78 993 201.694 995.208 203.018C997.489 204.27 1000.03 204.895 1002.83 204.895C1005.92 204.895 1008.46 204.233 1010.44 202.908C1012.5 201.583 1014.01 199.817 1014.97 197.609H1028.44C1027.41 201.068 1025.72 204.196 1023.36 206.993C1021 209.716 1018.1 211.887 1014.64 213.506C1011.18 215.052 1007.28 215.825 1002.94 215.825Z" fill="#1B3139"/>
<defs>
<filter id="filter0_dddddd_1107_11263" x="0.713516" y="0.681084" width="556.573" height="556.573" filterUnits="userSpaceOnUse" color-interpolation-filters="sRGB">
<feFlood flood-opacity="0" result="BackgroundImageFix"/>
<feColorMatrix in="SourceAlpha" type="matrix" values="0 0 0 0 0 0 0 0 0 0 0 0 0 0 0 0 0 0 127 0" result="hardAlpha"/>
<feOffset dy="2.83243"/>
<feGaussianBlur stdDeviation="2.12432"/>
<feColorMatrix type="matrix" values="0 0 0 0 0.105882 0 0 0 0 0.192157 0 0 0 0 0.223529 0 0 0 0.0196802 0"/>
<feBlend mode="normal" in2="BackgroundImageFix" result="effect1_dropShadow_1107_11263"/>
<feColorMatrix in="SourceAlpha" type="matrix" values="0 0 0 0 0 0 0 0 0 0 0 0 0 0 0 0 0 0 127 0" result="hardAlpha"/>
<feOffset dy="5.66487"/>
<feGaussianBlur stdDeviation="5.66487"/>
<feColorMatrix type="matrix" values="0 0 0 0 0.105882 0 0 0 0 0.192157 0 0 0 0 0.223529 0 0 0 0.04 0"/>
<feBlend mode="normal" in2="effect1_dropShadow_1107_11263" result="effect2_dropShadow_1107_11263"/>
<feColorMatrix in="SourceAlpha" type="matrix" values="0 0 0 0 0 0 0 0 0 0 0 0 0 0 0 0 0 0 127 0" result="hardAlpha"/>
<feOffset dy="12.7459"/>
<feGaussianBlur stdDeviation="9.20541"/>
<feColorMatrix type="matrix" values="0 0 0 0 0.105882 0 0 0 0 0.192157 0 0 0 0 0.223529 0 0 0 0.035 0"/>
<feBlend mode="normal" in2="effect2_dropShadow_1107_11263" result="effect3_dropShadow_1107_11263"/>
<feColorMatrix in="SourceAlpha" type="matrix" values="0 0 0 0 0 0 0 0 0 0 0 0 0 0 0 0 0 0 127 0" result="hardAlpha"/>
<feOffset dy="22.6595"/>
<feGaussianBlur stdDeviation="16.9946"/>
<feColorMatrix type="matrix" values="0 0 0 0 0.105882 0 0 0 0 0.192157 0 0 0 0 0.223529 0 0 0 0.04 0"/>
<feBlend mode="normal" in2="effect3_dropShadow_1107_11263" result="effect4_dropShadow_1107_11263"/>
<feColorMatrix in="SourceAlpha" type="matrix" values="0 0 0 0 0 0 0 0 0 0 0 0 0 0 0 0 0 0 127 0" result="hardAlpha"/>
<feOffset dy="45.3189"/>
<feGaussianBlur stdDeviation="28.3243"/>
<feColorMatrix type="matrix" values="0 0 0 0 0.105882 0 0 0 0 0.192157 0 0 0 0 0.223529 0 0 0 0.0503198 0"/>
<feBlend mode="normal" in2="effect4_dropShadow_1107_11263" result="effect5_dropShadow_1107_11263"/>
<feColorMatrix in="SourceAlpha" type="matrix" values="0 0 0 0 0 0 0 0 0 0 0 0 0 0 0 0 0 0 127 0" result="hardAlpha"/>
<feOffset dy="101.968"/>
<feGaussianBlur stdDeviation="73.6432"/>
<feColorMatrix type="matrix" values="0 0 0 0 0.105882 0 0 0 0 0.192157 0 0 0 0 0.223529 0 0 0 0.07 0"/>
<feBlend mode="normal" in2="effect5_dropShadow_1107_11263" result="effect6_dropShadow_1107_11263"/>
<feBlend mode="normal" in="SourceGraphic" in2="effect6_dropShadow_1107_11263" result="shape"/>
</filter>
</defs>
</svg>
