<svg width="150" height="150" viewBox="0 0 150 150" fill="none" xmlns="http://www.w3.org/2000/svg">
<g clip-path="url(#clip0_214_428)">
<path fill-rule="evenodd" clip-rule="evenodd" d="M114.09 93.93C110.095 93.93 107.04 97.0345 107.04 101.92C107.04 104.791 108.703 107.842 110.764 109.803L110.477 112.191L104.695 115.512C103.784 116.034 103.2 117.036 103.2 118.1V128.55H100.2V118.1C100.2 115.964 101.357 113.966 103.205 112.908L107.358 110.523C105.484 108.206 104.04 105.103 104.04 101.92C104.04 95.6655 108.165 90.93 114.09 90.93C120.009 90.93 124.12 95.6691 124.12 101.92C124.12 105.103 122.676 108.206 120.808 110.522L124.953 112.907C126.829 113.968 127.97 115.97 127.97 118.1V128.85H124.97V118.1C124.97 117.032 124.394 116.036 123.473 115.516L123.462 115.51L117.692 112.19L117.404 109.806C119.457 107.843 121.12 104.791 121.12 101.92C121.12 97.0309 118.071 93.93 114.09 93.93Z" fill="#FF5F46"/>
<path fill-rule="evenodd" clip-rule="evenodd" d="M9.31006 75.11C9.31006 42.7314 35.5618 16.48 67.9501 16.48C100.328 16.48 126.58 42.7316 126.58 75.11H123.58C123.58 44.3884 98.6716 19.48 67.9501 19.48C37.2183 19.48 12.3101 44.3886 12.3101 75.11C12.3101 90.4659 18.5403 104.379 28.6107 114.449C36.4269 122.256 46.5526 127.756 57.8701 129.829V98.6C57.8701 95.3981 56.404 92.3715 53.9586 90.1767C49.6843 86.3438 47.0001 80.7833 47.0001 74.59C47.0001 65.4096 52.9058 57.6229 61.1229 54.8013L63.1101 54.1189V70.47C63.1101 73.1829 65.3495 75.3647 68.084 75.2807C70.6565 75.198 72.7501 72.9291 72.7501 70.2V54.1089L74.7372 54.7913C82.954 57.6128 88.8701 65.4093 88.8701 74.59C88.8701 80.783 86.186 86.3429 81.9229 90.1755L81.9199 90.1782C79.4659 92.3724 78.0001 95.3983 78.0001 98.6V129.841C81.0445 129.287 84.0091 128.482 86.8707 127.449L87.8894 130.271C84.3078 131.564 80.5714 132.519 76.7216 133.094L75.0001 133.351V98.6C75.0001 94.4627 76.8932 90.6495 79.9179 87.9439C83.5744 84.6564 85.8701 79.8966 85.8701 74.59C85.8701 67.4916 81.7392 61.3523 75.7501 58.4482V70.2C75.7501 74.3903 72.5244 78.141 68.1777 78.2792L68.1761 78.2793C63.7506 78.4152 60.1101 74.877 60.1101 70.47V58.4581C54.1229 61.3605 50.0001 67.4914 50.0001 74.59C50.0001 79.8967 52.2958 84.6561 55.9615 87.9432C58.9759 90.6484 60.8701 94.462 60.8701 98.6V133.343L59.1465 133.083C46.4793 131.174 35.139 125.21 26.49 116.571C15.8804 105.962 9.31006 91.294 9.31006 75.11Z" fill="#FF5F46"/>
<path fill-rule="evenodd" clip-rule="evenodd" d="M58.2052 28.69H77.6538L80.4434 39.1976C81.7776 39.6646 83.085 40.2015 84.3599 40.8246L93.7656 35.3629L107.506 49.1259L102.057 58.5175C102.682 59.7862 103.23 61.1001 103.697 62.4477L114.17 65.226V83.7936L112.77 83.8867C100.613 84.6947 91.0101 94.8049 91.0101 107.17C91.0101 120.062 101.458 130.51 114.35 130.51C127.242 130.51 137.69 120.062 137.69 107.17C137.69 97.8891 132.271 89.873 124.422 86.1128L123.57 85.7047V75.11H126.57V83.8345C134.959 88.2349 140.69 97.0305 140.69 107.17C140.69 121.718 128.898 133.51 114.35 133.51C99.8016 133.51 88.0101 121.718 88.0101 107.17C88.0101 93.6934 98.1174 82.5904 111.17 81.0238V67.534L101.352 64.9294L101.102 64.1477C100.547 62.4182 99.8505 60.7482 99.0215 59.1663L98.6372 58.4332L103.754 49.6141L93.2745 39.1171L84.4493 44.2418L83.717 43.8603C82.1293 43.0332 80.4663 42.3536 78.7328 41.7854L77.9592 41.5318L75.3463 31.69H60.5149L57.9093 41.541L57.1229 41.79C55.4072 42.3333 53.7375 43.0297 52.1431 43.8603L51.41 44.2422L42.6044 39.1177L32.1162 49.6145L37.2329 58.4332L36.8487 59.1663C36.023 60.7417 35.3448 62.4014 34.7878 64.13L34.5369 64.9088L24.6901 67.5326V82.3763L34.5366 84.9904L34.7878 85.77C35.3448 87.4986 36.023 89.1583 36.8487 90.7337L37.2329 91.4668L32.1164 100.285L42.6039 110.773L50.6956 106.064L52.2045 108.656L42.1162 114.527L28.3637 100.775L33.8139 91.3818C33.1913 90.1129 32.6554 88.8067 32.1936 87.4723L21.6901 84.6837V65.2274L32.1933 62.4286C32.6552 61.0939 33.1912 59.7874 33.8139 58.5183L28.364 49.1255L42.1158 35.3623L51.5004 40.8238C52.7718 40.2 54.0847 39.6531 55.4277 39.1908L58.2052 28.69Z" fill="#FF5F46"/>
</g>
<defs>
<clipPath id="clip0_214_428">
<rect width="150" height="150" fill="white"/>
</clipPath>
</defs>
</svg>
