<svg width="150" height="150" viewBox="0 0 150 150" fill="none" xmlns="http://www.w3.org/2000/svg">
<g clip-path="url(#clip0_1_1992)">
<path fill-rule="evenodd" clip-rule="evenodd" d="M114.09 93.9302C110.095 93.9302 107.04 97.0347 107.04 101.92C107.04 104.791 108.703 107.842 110.764 109.804L110.477 112.191L104.695 115.512C103.783 116.034 103.2 117.036 103.2 118.1V128.55H100.2V118.1C100.2 115.964 101.357 113.966 103.205 112.908L107.358 110.523C105.483 108.206 104.04 105.103 104.04 101.92C104.04 95.6657 108.165 90.9302 114.09 90.9302C120.009 90.9302 124.12 95.6693 124.12 101.92C124.12 105.103 122.676 108.206 120.808 110.522L124.953 112.907C126.829 113.968 127.97 115.97 127.97 118.1V128.85H124.97V118.1C124.97 117.033 124.394 116.036 123.473 115.517L123.462 115.51L117.692 112.19L117.404 109.806C119.457 107.843 121.12 104.792 121.12 101.92C121.12 97.031 118.071 93.9302 114.09 93.9302Z" fill="white"/>
<path fill-rule="evenodd" clip-rule="evenodd" d="M9.31 75.11C9.31 42.7314 35.5617 16.48 67.95 16.48C100.328 16.48 126.58 42.7316 126.58 75.11H123.58C123.58 44.3884 98.6716 19.48 67.95 19.48C37.2183 19.48 12.31 44.3886 12.31 75.11C12.31 90.4659 18.5403 104.379 28.6107 114.449C36.4269 122.256 46.5525 127.756 57.87 129.829V98.6C57.87 95.3981 56.4039 92.3715 53.9586 90.1767C49.6842 86.3438 47 80.7833 47 74.59C47 65.4096 52.9057 57.6229 61.1228 54.8013L63.11 54.1189V70.47C63.11 73.1829 65.3494 75.3647 68.0839 75.2807C70.6565 75.198 72.75 72.9291 72.75 70.2V54.1089L74.7372 54.7913C82.9539 57.6128 88.87 65.4093 88.87 74.59C88.87 80.783 86.186 86.3429 81.9228 90.1755L81.9198 90.1782C79.4659 92.3724 78 95.3983 78 98.6V129.841C81.0445 129.287 84.0091 128.482 86.8706 127.449L87.8894 130.271C84.3077 131.564 80.5714 132.519 76.7215 133.094L75 133.351V98.6C75 94.4627 76.8932 90.6495 79.9179 87.9439C83.5743 84.6564 85.87 79.8966 85.87 74.59C85.87 67.4916 81.7391 61.3523 75.75 58.4482V70.2C75.75 74.3903 72.5244 78.141 68.1777 78.2792L68.1761 78.2793C63.7506 78.4152 60.11 74.877 60.11 70.47V58.4581C54.1228 61.3605 50 67.4914 50 74.59C50 79.8967 52.2957 84.6561 55.9614 87.9432C58.9758 90.6484 60.87 94.462 60.87 98.6V133.343L59.1464 133.083C46.4792 131.174 35.139 125.21 26.49 116.571C15.8804 105.962 9.31 91.294 9.31 75.11Z" fill="white"/>
<path fill-rule="evenodd" clip-rule="evenodd" d="M58.2052 28.6899H77.6537L80.4433 39.1975C81.7775 39.6645 83.0849 40.2014 84.3598 40.8245L93.7655 35.3628L107.506 49.1258L102.057 58.5174C102.682 59.7861 103.23 61.1001 103.697 62.4476L114.17 65.226V83.7936L112.769 83.8866C100.612 84.6946 91.01 94.8048 91.01 107.17C91.01 120.062 101.458 130.51 114.35 130.51C127.242 130.51 137.69 120.062 137.69 107.17C137.69 97.8891 132.271 89.8729 124.422 86.1127L123.57 85.7046V75.1099H126.57V83.8345C134.959 88.2348 140.69 97.0305 140.69 107.17C140.69 121.718 128.898 133.51 114.35 133.51C99.8016 133.51 88.01 121.718 88.01 107.17C88.01 93.6933 98.1174 82.5904 111.17 81.0237V67.5339L101.352 64.9293L101.102 64.1477C100.547 62.4182 99.8505 60.7481 99.0214 59.1663L98.6372 58.4331L103.754 49.6141L93.2745 39.1171L84.4492 44.2417L83.717 43.8602C82.1293 43.0331 80.4662 42.3535 78.7328 41.7853L77.9591 41.5317L75.3463 31.6899H60.5148L57.9092 41.5409L57.1228 41.79C55.4072 42.3332 53.7375 43.0296 52.143 43.8602L51.41 44.2421L42.6043 39.1176L32.1161 49.6145L37.2328 58.4331L36.8486 59.1663C36.0229 60.7417 35.3447 62.4014 34.7877 64.13L34.5368 64.9087L24.69 67.5326V82.3762L34.5365 84.9903L34.7877 85.7699C35.3447 87.4985 36.0229 89.1582 36.8486 90.7336L37.2328 91.4668L32.1163 100.285L42.6039 110.772L50.6955 106.063L52.2045 108.656L42.1161 114.527L28.3637 100.775L33.8138 91.3817C33.1912 90.1128 32.6553 88.8066 32.1936 87.4722L21.69 84.6837V65.2273L32.1933 62.4285C32.6551 61.0938 33.1911 59.7873 33.8138 58.5182L28.3639 49.1254L42.1157 35.3623L51.5003 40.8237C52.7717 40.1999 54.0846 39.653 55.4277 39.1908L58.2052 28.6899Z" fill="white"/>
</g>
<defs>
<clipPath id="clip0_1_1992">
<rect width="150" height="150" fill="white"/>
</clipPath>
</defs>
</svg>
