<svg width="150" height="150" viewBox="0 0 150 150" fill="none" xmlns="http://www.w3.org/2000/svg">
<path d="M73.7562 28.2393C73.5562 28.2393 73.3562 28.2393 73.1862 28.2493C61.6262 28.8993 52.3562 49.0293 52.3562 73.7593C52.3562 82.0493 53.3962 89.8193 55.2162 96.5093C57.5262 104.969 61.0662 111.699 65.3162 115.589V118.489C52.0762 115.999 40.8562 107.799 34.3462 96.5193" stroke="white" stroke-width="3" stroke-miterlimit="10"/>
<path d="M73.186 119.26C73.366 119.26 73.566 119.26 73.756 119.26C73.946 119.26 74.146 119.26 74.326 119.26C85.886 118.61 95.156 98.48 95.156 73.76C95.156 55.01 89.826 38.9 82.196 31.93V29.04C82.736 29.14 83.276 29.25 83.816 29.37" stroke="white" stroke-width="3" stroke-miterlimit="10"/>
<path d="M28.2461 73.7598H119.266" stroke="white" stroke-width="3" stroke-miterlimit="10"/>
<path d="M110.846 47.3301H91.206H73.756H56.326H36.686" stroke="white" stroke-width="3" stroke-miterlimit="10"/>
<path d="M110.846 100.18H91.2063H73.7563H36.6763" stroke="white" stroke-width="3" stroke-miterlimit="10"/>
<path d="M65.3161 118.479C44.2161 114.519 28.2461 96.0093 28.2461 73.7493C28.2461 48.7993 48.3161 28.5493 73.1861 28.2493C73.3761 28.2493 73.7561 28.2393 73.7561 28.2393V119.259C73.9461 119.259 74.1361 119.259 74.3261 119.249C99.1961 118.949 119.266 98.6993 119.266 73.7493C119.266 69.2993 118.636 65.0093 117.436 60.9493C117.406 60.8193 117.366 60.6993 117.326 60.5893C117.046 59.6093 116.716 58.6493 116.356 57.6993C115.786 56.1893 115.146 54.7093 114.406 53.2793C114.206 52.8593 113.996 52.4593 113.776 52.0593C113.716 51.9393 113.646 51.8293 113.596 51.7193C113.356 51.2893 113.116 50.8793 112.866 50.4693C112.346 49.5793 111.786 48.7093 111.196 47.8693C111.156 47.8093 111.126 47.7593 111.076 47.6993C110.486 46.8593 109.876 46.0193 109.216 45.2193C108.886 44.8093 108.546 44.3993 108.196 43.9993C108.196 43.9993 108.186 43.9693 108.176 43.9593C107.836 43.5793 107.496 43.1893 107.136 42.8193C106.786 42.4293 106.416 42.0393 106.036 41.6693C105.666 41.2893 105.276 40.9193 104.896 40.5593C104.506 40.1893 104.116 39.8393 103.716 39.4893C103.316 39.1393 102.906 38.7893 102.496 38.4593C102.096 38.1193 101.666 37.7993 101.246 37.4793C100.876 37.1893 100.496 36.9093 100.106 36.6293C100.056 36.5993 100.006 36.5693 99.9661 36.5293C99.5261 36.2293 99.0761 35.9293 98.6361 35.6393C97.8161 35.0893 96.9661 34.5793 96.1061 34.0993C95.9861 34.0293 95.8561 33.9493 95.7361 33.8893C95.3261 33.6593 94.9061 33.4393 94.4861 33.2293H94.4761C94.0161 32.9793 93.5461 32.7493 93.0761 32.5393C93.0461 32.5193 93.0261 32.4993 92.9961 32.4993C92.5361 32.2693 92.0561 32.0593 91.5661 31.8593C91.1961 31.6993 90.8261 31.5493 90.4461 31.3993C90.2661 31.3293 90.0761 31.2493 89.8961 31.1893C88.9561 30.8293 88.0061 30.4993 87.0361 30.2093C87.0061 30.2093 86.9661 30.1893 86.9361 30.1793C85.9061 29.8693 84.8761 29.5893 83.8161 29.3593" stroke="white" stroke-width="3" stroke-miterlimit="10"/>
<path d="M99.4539 35.82C119.443 29.1329 134.931 28.6256 139.085 35.8201C140.758 38.7186 140.429 42.5853 138.407 47.083M28.3978 76.9827C22.3152 82.4081 17.389 87.7039 13.8976 92.5669M134.041 54.4015C132.685 56.2713 131.118 58.204 129.357 60.1825C119.773 70.9484 104.428 83.0704 85.8519 93.7955C49.9376 114.531 15.542 122.193 9.02733 110.909C7.26292 107.853 7.72456 103.72 10.0494 98.907" stroke="white" stroke-width="2.93869" stroke-miterlimit="10"/>
<path d="M135.658 66.9518L134.406 53.9521L121.406 55.2039" stroke="white" stroke-width="2.93869" stroke-miterlimit="10"/>
<path d="M12.5641 79.5433L13.8159 92.543L26.8155 91.2912" stroke="white" stroke-width="2.93869" stroke-miterlimit="10"/>
</svg>
