<?xml version="1.0" encoding="UTF-8"?>
<svg xmlns="http://www.w3.org/2000/svg" version="1.1" viewBox="0 0 8841.0056152 606.8847656">
  <!-- Generator: Adobe Illustrator 28.6.0, SVG Export Plug-In . SVG Version: 1.2.0 Build 709)  -->
  <g>
    <g id="logo">
      <g>
        <g>
          <path d="M529.0619136,250.7819018l-247.8703586,139.894622L15.7651526,241.2074543l-12.7650463,6.9172512v108.5092108l278.1914487,156.3812095,247.8703586-139.3611478v57.446494l-247.8703586,139.894622L15.7651526,421.5260245l-12.7650463,6.9172035v18.6154208l278.1914487,156.383789,277.6579745-156.383789v-108.5092586l-12.7649746-6.914624-264.8929998,148.9355953L32.7877221,341.2091182v-57.446494l248.4038328,139.3612433,277.6579745-156.383789v-106.9138995l-13.8293435-7.9790884-263.828631,148.4047006L45.5527684,168.3362577,281.191555,35.8897339l193.6145351,109.0426373,17.0225934-9.5743997v-13.2984966L281.191555,3.4424378,3.0001063,159.8261791v17.0201095l278.1914487,156.3837412,247.8703586-139.894622v57.446494Z" fill="#fff"/>
          <g>
            <path d="M1078.5226396,514.608001V36.9491349h-73.4021868v178.7232112c0,2.659728-1.597843,4.7884657-4.2549915,5.8503507-2.659728,1.0643689-5.319456,0-6.9172035-1.5953113-24.9992457-29.2541894-63.8278348-45.7433087-106.3804253-45.7433087-90.9582067,0-162.2341397,76.5952934-162.2341397,174.4656879,0,47.8746259,16.489167,92.0225755,46.8076776,124.4699194,30.3186061,32.4447643,71.275933,49.9983003,115.4264621,49.9983003,42.0192119,0,80.850285-17.5535359,106.3804253-47.8720464,1.5977475-2.1262538,4.7884657-2.659728,6.9172035-2.1262538,2.6571485,1.0618849,4.2549915,3.1906227,4.2549915,5.8503507v35.6379665h73.4021868ZM903.5234297,456.6305169c-58.5108628,0-104.2541715-47.3411518-104.2541715-107.9807523,0-60.6371166,45.7433087-107.9782206,104.2541715-107.9782206s104.256751,47.341104,104.256751,107.9782206c0,60.6396006-45.7458882,107.9807523-104.256751,107.9807523Z" fill="#fff"/>
            <path d="M1471.0686819,514.610485V182.165649h-72.8713876v33.5092288c0,2.6596802-1.5952636,4.7884657-4.2549915,5.8503029-2.659728,1.0644166-5.3192649,0-6.9147195-2.1262538-24.4681599-29.2566734-62.7657588-45.7457926-106.3829093-45.7457926-90.9582067,0-162.2340441,76.5952934-162.2340441,174.4682196s71.2758375,174.4682196,162.2340441,174.4682196c42.0216958,0,80.850285-17.5535359,106.3829093-48.4055206,1.5954546-2.1262538,4.7859818-2.659728,6.9147195-2.1262538,2.659728,1.0618849,4.2549915,3.1906227,4.2549915,5.8503507v36.1688612h72.8713876v.5334742ZM1297.1338409,456.6305169c-58.5108628,0-104.2566555-47.3385723-104.2566555-107.9782684,0-60.6370689,45.7457926-107.9782206,104.2566555-107.9782206s104.2541715,47.3411518,104.2541715,107.9782206c0,60.6396961-45.7433087,107.9782684-104.2541715,107.9782684Z" fill="#fff"/>
            <path d="M2095.0108672,514.610485V182.165649h-72.8711966v33.5092288c0,2.6596802-1.5979386,4.7884657-4.2574755,5.8503029-2.659728,1.0644166-5.316972,0-6.9147195-2.1262538-24.468351-29.2566734-62.7659499-45.7457926-106.3830048-45.7457926-91.4866174,0-162.2315602,76.5952934-162.2315602,174.9991143,0,98.4039164,71.275933,174.4682196,162.2315602,174.4682196,42.0217913,0,80.8528645-17.5534404,106.3830048-48.4029411,1.5977475-2.1288333,4.7882747-2.659728,6.9147195-2.1288333,2.6595369,1.0643689,4.2574755,3.1907182,4.2574755,5.8503507v36.1714407h72.8711966ZM1921.0761217,456.6305169c-58.5109584,0-104.256751-47.3385723-104.256751-107.9782684,0-60.6370689,45.7457926-107.9782206,104.256751-107.9782206,58.5082833,0,104.254076,47.3411518,104.254076,107.9782206,0,60.6396961-45.7457926,107.9782684-104.254076,107.9782684Z" fill="#fff"/>
            <path d="M2228.5316956,475.2459377c.5260224,0,1.577876-.5309902,2.1287377-.5309902,1.577876,0,3.7066137,1.0644644,4.7834978,2.1262538,24.9941822,29.2567212,63.8128357,45.7458882,106.3629422,45.7458882,90.9605951,0,162.2365281-76.595389,162.2365281-174.4682196,0-47.8720942-16.4790402-92.0200916-46.807582-124.4674354-30.3035114-32.4472961-71.275933-50.000832-115.428946-50.000832-41.9992448,0-80.8429287,17.5535359-106.3629422,47.8720942-1.6029065,2.1287377-4.2574755,2.6596802-6.9122356,2.1287377-2.6795995-1.0643689-4.2574755-3.1906227-4.2574755-5.8503029V36.9491349h-73.4121226v477.6588662h73.4121226v-33.5117127c0-2.659728,1.577876-4.7859818,4.2574755-5.8503507ZM2221.0685983,348.6497645c0-60.6371166,45.7557284-107.9782206,104.2590439-107.9782206,58.5035065,0,104.2592349,47.341104,104.2592349,107.9782206,0,60.6396006-45.7557284,107.9807523-104.2592349,107.9807523-58.5033155,0-104.2590439-47.8745304-104.2590439-107.9807523Z" fill="#fff"/>
            <path d="M2716.268294,250.2484276c6.9372661,0,13.2986399.5334742,17.5561154,1.597843v-75.5334563c-2.6547601-.5309425-7.4382579-1.0643689-12.2215647-1.0643689-38.2926311,0-73.4046707,19.6822736-92.0376702,51.0652008-1.5776849,2.659728-4.232445,3.7240969-6.9122356,2.659728-2.654569-.5334742-4.7833068-3.1931544-4.7833068-5.8503507v-40.9573747h-72.8788395v332.9757307h73.4046707v-146.8068576c0-72.8737283,37.2407774-118.0860945,97.8728306-118.0860945Z" fill="#fff"/>
            <path d="M2854.587715,182.1581494h-74.4815549v332.9782624h74.4815549V182.1581494Z" fill="#fff"/>
            <path d="M2816.295084,37.4825613c-25.0192127,0-45.2298971,20.2132161-45.2298971,45.2123662,0,24.9991979,20.2106844,45.2123662,45.2298971,45.2123662,24.9941822,0,45.2048666-20.2131683,45.2048666-45.2123662,0-24.9991501-20.2106844-45.2123662-45.2048666-45.2123662Z" fill="#fff"/>
            <path d="M3072.6731806,173.6531342c-102.1304972,0-176.0611903,73.4046707-176.0611903,174.9991143,0,49.4698895,17.5310849,93.6179346,48.9365109,125.5318043,31.9064178,31.9163536,76.5852621,49.4674056,126.5736266,49.4674056,41.4982529,0,73.4046707-7.9766045,134.0617544-52.6580282l-42.0240842-44.1480451c-29.8027106,19.6797897-57.4516529,29.2542372-84.574764,29.2542372-61.7087463,0-107.9906881-46.2767829-107.9906881-107.4473737,0-61.1680113,46.2819418-107.4447942,107.9906881-107.4447942,29.2520399,0,56.3747688,9.5744475,83.4974977,29.2541894l46.8077731-44.1479974c-54.7716713-46.8076776-104.2590439-52.6605122-137.2171243-52.6605122Z" fill="#fff"/>
            <path d="M3335.4371083,368.3320382c1.0520447-1.0643689,2.6547601-1.5952636,4.2574755-1.5952636h.5262134c1.6027154,0,3.1805914,1.0643689,4.7833068,2.1262538l117.5576838,145.7449726h90.4345727l-152.1437011-184.0426671c-2.1285467-2.659728-2.1285467-6.3812454.5262134-8.5100786l139.8971059-139.8920903h-89.883902l-120.7382751,121.2742333c-1.6027154,1.5977953-4.2574755,2.1287855-6.9122356,1.5977953-2.1289288-1.0643689-3.7316442-3.1931066-3.7316442-5.8527868V37.4825613h-73.930502v477.6563345h73.4046707v-129.7867958c0-1.5952636.5258313-3.7215174,2.1285467-4.7859818l13.8244712-12.2340799Z" fill="#fff"/>
            <path d="M3672.6577515,523.1155002c60.106413,0,121.289328-36.7023354,121.289328-106.3829093,0-45.7458882-28.7254443-77.1287676-87.2291419-96.2776626l-39.8951554-13.2959649c-27.1479505-9.0434573-39.8955375-21.8085275-39.8955375-39.3620156,0-20.2132161,18.0819467-34.0426552,43.6019602-34.0426552,24.468351,0,46.2815597,15.9556929,60.1060309,43.6170549l59.0543683-31.9163536c-21.8135909-44.6789398-67.0182664-72.3403019-119.1603992-72.3403019-65.9413823,0-113.8260396,42.55517-113.8260396,100.5326064,0,46.2767351,27.6737818,77.1262359,84.5743818,95.2131504l40.9724216,13.2960604c28.7006049,9.0434573,40.9472001,20.7466425,40.9472001,39.3619678,0,28.1923523-26.0710664,38.2976945-48.4104885,38.2976945-29.777489,0-56.3747688-19.1487995-69.1471953-50.5317744l-60.1060309,31.9163536c19.6846621,50.5317744,68.0951506,81.9147494,127.1242973,81.9147494Z" fill="#fff"/>
            <path d="M1675.3344531,519.9298454c23.4038866,0,44.1505291-2.1287377,55.8512304-3.7240969v-63.8302232c-9.5744475,1.0643689-26.5946048,2.1287377-36.7023354,2.1287377-29.7851319,0-52.6580282-5.3193604-52.6580282-69.6805739v-136.7015154c0-3.7240491,2.659728-6.3837771,6.3812454-6.3837771h71.8094072v-60.1061742h-71.8094072c-3.7215174,0-6.3812454-2.6596802-6.3812454-6.3812931v-95.7466246h-73.4046707v96.2775671c0,3.7240969-2.659728,6.3837771-6.3839204,6.3837771h-51.0625736v60.1062219h51.0625736c3.7241924,0,6.3839204,2.6596802,6.3839204,6.3812454v154.7884777c0,116.4882515,77.6596623,116.4882515,106.913804,116.4882515Z" fill="#fff"/>
          </g>
        </g>
        <path d="M3960.4312428,3.4424378v600h29.7876158V3.4424378h-29.7876158Z" fill="#fff"/>
        <g>
          <g>
            <g>
              <path d="M5645.0269773,215.6746604c0,2.6595726-1.597798,4.7887248-4.2573706,5.8504994-2.6595726,1.0641092-5.3163437,0-6.9150755-2.1263507-24.4684414-29.2566992-62.765166-45.7459559-106.3829036-45.7459559-91.4863088,0-162.2311264,76.595317-162.2311264,174.9995028,0,98.4037189,71.275238,174.4681486,162.2311264,174.4681486,42.0227411,0,80.8536215-17.5533659,106.3829036-48.4031939,1.5987318-2.1286853,4.7887248-2.6595726,6.9150755-2.1286853,2.6595726,1.0641092,4.2573706,3.1904599,4.2573706,5.8504994v36.1713078h72.8711683V182.1657267h-72.8711683v33.5089337ZM5543.9632189,456.6302561c-58.510597,0-104.2565529-47.3386178-104.2565529-107.9779001,0-60.6374146,45.7459559-107.978367,104.2565529-107.978367,58.5087293,0,104.2537514,47.3409524,104.2537514,107.978367,0,60.6392823-45.7450221,107.9779001-104.2537514,107.9779001Z" fill="#fff"/>
              <rect x="5773.7493761" y="182.158256" width="74.4820401" height="332.9779279" fill="#fff"/>
              <path d="M5811.0030029,37.4823631c-25.0194062,0-45.230477,20.2134054-45.230477,45.2122671,0,24.9993287,20.2110708,45.212734,45.230477,45.212734,24.9932587,0,45.2043295-20.2134054,45.2043295-45.212734,0-24.9988617-20.2110708-45.2122671-45.2043295-45.2122671Z" fill="#fff"/>
            </g>
            <g>
              <path d="M5237.063238,320.4547615l-39.8945227-13.2959953c-27.1476246-9.0432939-39.8954565-21.8084018-39.8954565-39.3617677,0-20.2134054,18.0819186-34.0426225,43.6018623-34.0426225,24.4684414,0,46.2810455,15.9555679,60.1055934,43.6168037l59.0540911-31.9162718c-21.8126041-44.6790452-67.0178674-72.340281-119.1596845-72.340281-65.9420853,0-113.8255979,42.5550291-113.8255979,100.5328711,0,46.2763763,27.6733757,77.1262043,84.5740348,95.2127921l40.9721725,13.2964622c28.7005983,9.0432939,40.9478927,20.7466273,40.9478927,39.3617677,0,28.1921231-26.0718424,38.2976585-48.4111315,38.2976585-29.7773143,0-56.3749079-19.1488293-69.1470196-50.5318792l-60.1065273,31.9162718c19.6853196,50.5318792,68.0955173,81.9149291,127.1253286,81.9149291,60.1055934,0,121.2888367-36.7021951,121.2888367-106.3829036,0-45.7459559-28.7258119-77.1285389-87.229872-96.2778351Z" fill="#fff"/>
              <path d="M4868.2072457,174.1840766c-102.1043394,0-177.8967408,72.4366465-177.8967408,174.4691232s75.7924015,174.4621687,177.8967408,174.4621687c102.1006304,0,177.8948863-72.429692,177.8948863-174.4621687s-75.794256-174.4691232-177.8948863-174.4691232ZM4868.2091002,456.5737794c-57.7423527,0-101.216024-41.6710774-101.216024-107.9205796,0-66.2569203,42.7949168-107.9205796,101.216024-107.9205796,57.7386436,0,101.212315,41.6636593,101.212315,107.9205796,0,66.2495022-43.4736714,107.9205796-101.212315,107.9205796Z" fill="#fff"/>
              <path d="M4530.7921755,173.6528532c-52.8552699,0-85.2576047,30.0439253-98.1333726,51.9578509-2.2384113,3.8109957-7.8629218,3.6662507-9.9173669-.2479342-11.6225563-22.149253-40.361442-51.7099167-90.1210366-51.7099167-44.2695569,0-70.0080189,24.8377746-84.0772326,45.241683-3.1815884,4.61363-10.4533903,2.2365437-10.4533903-3.3674223l.0009338-34.5478293h-72.8777052v334.1568992h72.8711683v-185.3123504c0-19.1254833,3.0349757-35.3084409,9.1105303-48.541402,6.0718192-13.2264243,14.4707643-23.3025438,25.2024386-30.2292922,10.7204682-6.9127409,22.7707226-10.379617,36.1320866-10.379617,21.0449887,0,36.8343333,6.9267485,47.366166,20.7592341,10.524362,13.8464932,15.7902784,33.7993575,15.7902784,59.8450525v193.8583752h72.265107v-185.3123504c0-19.1254833,3.0349757-35.3084409,9.1067949-48.541402,6.0755545-13.2264243,14.4707643-23.3025438,25.2052401-30.2292922,10.721402-6.9127409,23.1676041-10.379617,37.3451431-10.379617,20.6490411,0,36.2292058,6.9267485,46.7610386,20.7592341,10.524362,13.8464932,15.7893446,33.7993575,15.7893446,59.8450525v193.8583752h72.2641732v-205.9207696c0-101.2290478-56.9268065-135.5625611-119.6303392-135.5625611Z" fill="#fff"/>
              <path d="M6073.228309,456.0993688c-61.7089945,0-107.9909738-46.2768432-107.9909738-107.4470128,0-61.1683019,46.2819793-107.4451451,107.9909738-107.4451451,29.2515631,0,56.373974,9.5746481,83.4973188,29.2543646l46.8077305-44.1481579c-54.7715069-46.8077305-104.2584206-52.6605645-137.2173233-52.6605645-102.1302022,0-176.0603436,73.4048572-176.0603436,174.9995028,0,49.4696377,17.5300199,93.6177956,48.9359489,125.5317328,31.9064665,31.9162718,76.5850448,49.4673031,126.5734299,49.4673031,41.4979237,0,73.4053241-7.9768501,134.0618823-52.6582299l-42.0246087-44.147691c-29.802528,19.6797166-57.4516239,29.2538977-84.5740348,29.2538977Z" fill="#fff"/>
            </g>
          </g>
          <g>
            <path d="M7927.7060641,514.610485V182.165649h-72.8711966v33.5092288c0,2.6596802-1.5979386,4.7884657-4.2574755,5.8503029-2.659728,1.0644166-5.316972,0-6.9147195-2.1262538-24.468351-29.2566734-62.7659499-45.7457926-106.3830048-45.7457926-91.4866174,0-162.2315602,76.5952934-162.2315602,174.9991143,0,98.4039164,71.275933,174.4682196,162.2315602,174.4682196,42.0217913,0,80.8528645-17.5534404,106.3830048-48.4029411,1.5977475-2.1288333,4.7882747-2.659728,6.9147195-2.1288333,2.6595369,1.0643689,4.2574755,3.1907182,4.2574755,5.8503507v36.1714407h72.8711966ZM7753.7713187,456.6305169c-58.5109584,0-104.256751-47.3385723-104.256751-107.9782684,0-60.6370689,45.7457926-107.9782206,104.256751-107.9782206,58.5082833,0,104.254076,47.3411518,104.254076,107.9782206,0,60.6396961-45.7457926,107.9782684-104.254076,107.9782684Z" fill="#fff"/>
            <path d="M6549.8050061,250.2434597c6.9372661,0,13.2986399.5334742,17.5561154,1.597843v-75.5334563c-2.6547601-.5309425-7.4382579-1.0643689-12.2215647-1.0643689-38.2926311,0-73.4046707,19.6822736-92.0376702,51.0652008-1.5776849,2.659728-4.232445,3.7240969-6.9122356,2.659728-2.654569-.5334742-4.7833068-3.1931544-4.7833068-5.8503507v-40.9573747h-72.8788395v332.9757307h73.4046707v-146.8068576c0-72.8737283,37.2407774-118.0860945,97.8728306-118.0860945Z" fill="#fff"/>
            <path d="M8154.8347959,250.2434597c6.9372661,0,13.2986399.5334742,17.5561154,1.597843v-75.5334563c-2.6547601-.5309425-7.4382579-1.0643689-12.2215647-1.0643689-38.2926311,0-73.4046707,19.6822736-92.0376702,51.0652008-1.5776849,2.659728-4.232445,3.7240969-6.9122356,2.659728-2.654569-.5334742-4.7833068-3.1931544-4.7833068-5.8503507v-40.9573747h-72.8788395v332.9757307h73.4046707v-146.8068576c0-72.8737283,37.2407774-118.0860945,97.8728306-118.0860945Z" fill="#fff"/>
            <path d="M7056.7567486,523.1155002c60.106413,0,121.289328-36.7023354,121.289328-106.3829093,0-45.7458882-28.7254443-77.1287676-87.2291419-96.2776626l-39.8951554-13.2959649c-27.1479505-9.0434573-39.8955375-21.8085275-39.8955375-39.3620156,0-20.2132161,18.0819467-34.0426552,43.6019602-34.0426552,24.468351,0,46.2815597,15.9556929,60.1060309,43.6170549l59.0543683-31.9163536c-21.8135909-44.6789398-67.0182664-72.3403019-119.1603992-72.3403019-65.9413823,0-113.8260396,42.55517-113.8260396,100.5326064,0,46.2767351,27.6737818,77.1262359,84.5743818,95.2131504l40.9724216,13.2960604c28.7006049,9.0434573,40.9472001,20.7466425,40.9472001,39.3619678,0,28.1923523-26.0710664,38.2976945-48.4104885,38.2976945-29.777489,0-56.3747688-19.1487995-69.1471953-50.5317744l-60.1060309,31.9163536c19.6846621,50.5317744,68.0951506,81.9147494,127.1242973,81.9147494Z" fill="#fff"/>
            <path d="M8359.6193287,173.6531342c-102.1304972,0-176.0611903,73.4046707-176.0611903,174.9991143,0,49.4698895,17.5310849,93.6179346,48.9365109,125.5318043,31.9064178,31.9163536,76.5852621,49.4674056,126.5736266,49.4674056,41.4982529,0,73.4046707-7.9766045,134.0617544-52.6580282l-42.0240842-44.1480451c-29.8027106,19.6797897-57.4516529,29.2542372-84.574764,29.2542372-61.7087463,0-107.9906881-46.2767829-107.9906881-107.4473737,0-61.1680113,46.2819418-107.4447942,107.9906881-107.4447942,29.2520399,0,56.3747688,9.5744475,83.4974977,29.2541894l46.8077731-44.1479974c-54.7716713-46.8076776-104.2590439-52.6605122-137.2171243-52.6605122Z" fill="#fff"/>
            <path d="M8715.2987234,175.2434776c-48.1361274,0-79.3569511,24.7663851-92.5138745,42.8302433-3.289775,4.5167116-10.3802077,2.2422486-10.3802077-3.345533V36.9491349h-83.0854959v477.6617647h83.0854959v-169.7225502c0-58.4732434,28.1197506-92.5322081,76.0518229-92.5322081,46.654581,0,66.4669026,25.7029761,66.4669026,85.4649169v176.7898414h83.0817606v-189.0007161c0-97.6720563-43.1950029-150.3667059-122.7064039-150.3667059Z" fill="#fff"/>
            <path d="M7382.1948525,173.1142592c-94.3055678,0-162.7260609,75.0717592-163.1799065,175.5378609h-.0214783c0,.1092591.0140076.2138491.0140076.3231082,0,.2269228-.0140076.4491764-.0140076.6765661l.0457581.017276c.2409304,49.0526787,17.7037139,92.8230989,48.8911246,124.5147825,31.9064665,31.9167387,76.5850448,49.46777,126.5734299,49.46777,41.4979237,0,73.4053241-7.9768501,134.0618823-52.6582299l-42.0246087-44.1481579c-29.802528,19.6797166-57.4516239,29.2543646-84.5740348,29.2543646-47.2210087,0-85.3273418-27.1377964-100.6429851-67.2780622-1.9069082-4.997753,1.8569468-10.381831,7.2061368-10.381831h229.0909256l.0037354.0004669c1.7500137-10.9679354,2.6950585-22.7772595,2.6950585-35.1394161,0-100.967573-59.6956383-170.1864982-158.1250377-170.1864982ZM7306.5475851,318.325264c-4.7158319-.0000123-8.3063736-4.2473499-7.5909409-8.9085973,7.4696079-48.6666195,45.6115008-75.6621915,88.2809372-75.6621915,50.2122834,0,84.2755782,28.7551547,89.4302037,75.8789209.5036651,4.6045237-2.9772335,8.6923031-7.6092219,8.692291l-162.5109781-.0004231Z" fill="#fff"/>
            <path d="M6741.7297335,173.1142592c-94.3055678,0-162.7260609,75.0717592-163.1799065,175.5378609h-.0214783c0,.1092591.0140076.2138491.0140076.3231082,0,.2269228-.0140076.4491764-.0140076.6765661l.0457581.017276c.2409304,49.0526787,17.7037139,92.8230989,48.8911246,124.5147825,31.9064665,31.9167387,76.5850448,49.46777,126.5734299,49.46777,41.4979237,0,73.4053241-7.9768501,134.0618823-52.6582299l-42.0246087-44.1481579c-29.802528,19.6797166-57.4516239,29.2543646-84.5740348,29.2543646-47.2210087,0-85.3273418-27.1377964-100.6429851-67.2780622-1.9069082-4.997753,1.8569468-10.381831,7.2061368-10.381831h229.0909256l.0037354.0004669c1.7500137-10.9679354,2.6950585-22.7772595,2.6950585-35.1394161,0-100.967573-59.6956383-170.1864982-158.1250377-170.1864982ZM6666.082466,318.325264c-4.7158319-.0000123-8.3063736-4.2473499-7.5909409-8.9085973,7.4696079-48.6666195,45.6115008-75.6621915,88.2809372-75.6621915,50.2122834,0,84.2755782,28.7551547,89.4302037,75.8789209.5036651,4.6045237-2.9772335,8.6923031-7.6092219,8.692291l-162.5109781-.0004231Z" fill="#fff"/>
          </g>
        </g>
      </g>
    </g>
  </g>
</svg>