<?xml version="1.0" encoding="UTF-8"?>
<svg xmlns="http://www.w3.org/2000/svg" version="1.1" viewBox="0 0 8192 606.8847656">
  <!-- Generator: Adobe Illustrator 28.7.1, SVG Export Plug-In . SVG Version: 1.2.0 Build 142)  -->
  <g>
    <g id="Layer_1">
      <g id="logo">
        <g>
          <g>
            <path d="M490.2241951,254.6476251l-229.6745442,129.6251397L14.6078551,245.7760243l-11.8279819,6.4094658v100.5436921l257.7697777,144.9014982,229.6745442-129.130838v53.2294351l-229.6745442,129.6251539L14.6078551,412.8576627l-11.8279819,6.4094234v17.2488857l257.7697777,144.9038735,257.2754759-144.9038735v-100.5437628l-11.8278962-6.4070198-245.4475797,138.0024529L30.3808225,338.4366909v-53.2294351l230.1688566,129.1309228,257.2755042-144.9038735v-99.0655091l-12.8141527-7.3933612-244.4613514,137.5105123L42.2088036,178.2541968l218.3408756-122.7238111,179.40156,101.0379727,15.772979-8.8715584v-12.3222687L260.5496791,25.4650019,2.7798727,170.3688243v15.7706885l257.7697781,144.9038452,229.6745442-129.6251539v53.2294351-.0000141Z" fill="#ff3621"/>
            <g>
              <path d="M999.3497462,499.1065871V56.512019h-68.0138105v165.6033775c0,2.464482-1.4805442,4.4369527-3.9426509,5.4208905-2.464482.9862283-4.928964,0-6.4093951-1.4781972-23.1641063-27.1066865-59.1423087-42.3853495-98.5711931-42.3853495-84.2810771,0-150.3247498,70.9725378-150.3247498,161.6584149,0,44.3602238,15.2787479,85.2673337,43.3715919,115.3327474,28.0929572,30.0630384,66.0436727,46.3279863,106.9531579,46.3279863,38.9346534,0,74.9151745-16.2649479,98.5711931-44.3578202,1.4804311-1.9701661,4.4369386-2.464482,6.4093951-1.9701661,2.4621067.9839378,3.9426509,2.9563944,3.9426509,5.4208764v33.0218081h68.0138105ZM837.1970436,445.3851831c-54.2156634,0-96.6009988-43.8659078-96.6009988-100.0540278,0-56.1858295,42.3853354-100.0516808,96.6009988-100.0516808s96.6034306,43.8658513,96.6034306,100.0516808c0,56.18812-42.3877672,100.0540278-96.6034306,100.0540278Z" fill="#f2f2f2"/>
              <path d="M1363.0796245,499.1089059V191.068392h-67.5219547v31.0493657c0,2.4644396-1.4781123,4.4369527-3.9426509,5.420834-2.4644255.9862848-4.9287378,0-6.4070764-1.9701661-22.6719677-27.1089769-58.1582012-42.3876541-98.5735119-42.3876541-84.2811337,0-150.3246367,70.9725378-150.3246367,161.6607337s66.0436162,161.6607337,150.3246367,161.6607337c38.9369721,0,74.9152311-16.2649479,98.5735119-44.8521361,1.4783386-1.9701661,4.4346764-2.464482,6.4070764-1.9701661,2.4644255.9839378,3.9426509,2.9563944,3.9426509,5.4208764v33.5137487h67.5219547v.4943442ZM1201.9130088,445.3851831c-54.2156634,0-96.603261-43.8635043-96.603261-100.0517373,0-56.1857729,42.3877107-100.0516808,96.603261-100.0516808s96.6009988,43.8659078,96.6009988,100.0516808c0,56.1882048-42.3853354,100.0517373-96.6009988,100.0517373Z" fill="#f2f2f2"/>
              <path d="M1941.2191552,499.1089059V191.068392h-67.5218416v31.0493657c0,2.4644396-1.4806008,4.4369527-3.9449131,5.420834-2.4644255.9862848-4.9267018,0-6.4070764-1.9701661-22.6721939-27.1089769-58.1584274-42.3876541-98.573625-42.3876541-84.7706707,0-150.3223746,70.9725378-150.3223746,162.1526743,0,91.1802072,66.0436162,161.660762,150.3223746,161.660762,38.9370852,0,74.9176064-16.264863,98.573625-44.8497608,1.4804876-1.9725697,4.4368255-2.464482,6.4070764-1.9725697,2.4643123.9862283,3.9449131,2.9564792,3.9449131,5.4208764v33.5161523h67.5218416ZM1780.0526526,445.3851831c-54.2157765,0-96.6033741-43.8635043-96.6033741-100.0517373,0-56.1857729,42.3877107-100.0516808,96.6033741-100.0516808,54.2132881,0,96.6008857,43.8659078,96.6008857,100.0516808,0,56.1882048-42.3877107,100.0517373-96.6008857,100.0517373Z" fill="#f2f2f2"/>
              <path d="M2064.9383351,462.6340688c.4875011,0,1.4620508-.4919972,1.9724-.4919972,1.4620508,0,3.4344508.9863131,4.4323011,1.9701661,23.1593557,27.1090194,59.1283397,42.3877389,98.5550751,42.3877389,84.2833959,0,150.327012-70.9726367,150.327012-161.6607337,0-44.3578768-15.2693032-85.2650149-43.3715354-115.3304569-28.0789316-30.0653854-66.0436162-46.3303333-106.9554767-46.3303333-38.91616,0-74.9084445,16.2649479-98.5550751,44.3578768-1.4853513,1.9724707-3.9450262,2.4644396-6.4049273,1.9724707-2.4829754-.9862283-3.9450262-2.9564085-3.9450262-5.420834V56.512019h-68.0230289v442.5946247h68.0230289v-31.0516703c0-2.464482,1.4620508-4.4346481,3.9450262-5.4208764l.0002262-.0000283ZM2058.0230587,345.331127c0-56.1858295,42.3967594-100.0516808,96.6055232-100.0516808s96.6057494,43.8658513,96.6057494,100.0516808c0,56.18812-42.3967594,100.0540278-96.6057494,100.0540278-54.2087637,0-96.6055232-44.3601389-96.6055232-100.0540278Z" fill="#f2f2f2"/>
              <path d="M2516.8708467,254.1533092c6.4280016,0,12.3223535.4943159,16.2673797,1.4805442v-69.9886565c-2.4599011-.4919689-6.8922022-.9862283-11.3245032-.9862283-35.4817092,0-68.0162424,18.2374327-85.2812461,47.3165757-1.4618246,2.464482-3.9217257,3.4507103-6.4049273,2.464482-2.4596749-.4943159-4.4320749-2.9587555-4.4320749-5.4208905v-37.9507438h-67.5289675v308.5324262h68.0162424v-136.0299681c0-67.5241604,34.5069332-109.4175551,90.6880969-109.4175551v.0000141Z" fill="#f2f2f2"/>
              <path d="M2645.0363533,191.0614358h-69.0138664v308.5348015h69.0138664V191.0614358Z" fill="#f2f2f2"/>
              <path d="M2609.5548704,57.006289c-23.1826562,0-41.9097108,18.729391-41.9097108,41.8933912,0,23.1640426,18.7270546,41.8933947,41.9097108,41.8933947,23.1593557,0,41.8864102-18.729345,41.8864102-41.8933947,0-23.1639967-18.7270546-41.8933912-41.8864102-41.8933912Z" fill="#f2f2f2"/>
              <path d="M2847.1124542,183.1807714c-94.6333494,0-163.1368666,68.0161293-163.1368666,162.1526743,0,45.8383644,16.2440792,86.7455874,45.3441616,116.3166852,29.564283,29.5734165,70.9631921,45.8361022,117.2821297,45.8361022,38.4519594,0,68.0162424-7.3910707,124.2204804-48.7924683l-38.9392343-40.9071947c-27.6149573,18.235114-53.234214,27.1067289-78.3661959,27.1067289-57.1787878,0-100.0632745-42.8796796-100.0632745-99.559825,0-56.6777419,42.8844867-99.5574214,100.0632745-99.5574214,27.1046081,0,52.2363637,8.8716008,77.3681194,27.1066723l43.3717616-40.9071523c-50.7510124-43.3715919-96.6055232-48.7947729-127.1441296-48.7947729l-.0002262-.0000283Z" fill="#f2f2f2"/>
              <path d="M3090.5872381,363.5685597c.974776-.9862283,2.4599011-1.4781689,3.9450262-1.4781689h.4875011c1.4851251,0,2.947176.9862283,4.4320749,1.9701661l108.9278767,135.0460303h83.7958948l-140.975135-170.5323486c-1.9724-2.464482-1.9724-5.912817.4875011-7.8853584l129.6275575-129.6228069h-83.2855456l-111.8750526,112.371659c-1.4851251,1.4805159-3.9450262,1.9725131-6.4049273,1.4805159-1.9726262-.9862283-3.4577513-2.9587131-3.4577513-5.4231386V57.006289h-68.503291v442.5922671h68.0162424v-120.2593361c0-1.4781689.4872749-3.448335,1.9724-4.4346481l12.8096284-11.3359838v-.0000283Z" fill="#f2f2f2"/>
              <path d="M3403.0530402,506.9895702c55.6941151,0,112.385628-34.0080646,112.385628-98.5734836,0-42.3877389-26.6166546-71.4668396-80.8258707-89.2100694l-36.9666081-12.3199217c-25.1550562-8.3795895-36.9668343-20.2075988-36.9668343-36.4724901,0-18.7293875,16.7546546-31.5436392,40.4012851-31.5436392,22.6720808,0,42.8840343,14.7844037,55.6936627,40.4151976l54.7193391-29.5734165c-20.2121797-41.3991212-62.0985899-67.029901-110.4130018-67.029901-61.1007397,0-105.4701253,39.4312597-105.4701253,93.1526355,0,42.879623,25.642331,71.4644925,78.3659697,88.2236715l37.9646845,12.3200065c26.5938065,8.3795895,37.941384,19.223661,37.941384,36.4724618,0,26.1227911-24.1572059,35.4863184-44.8566605,35.4863184-27.5916567,0-52.2363637-17.7431168-64.0712162-46.8223022l-55.6936627,29.5734165c18.2395535,46.8223022,63.0964402,75.9015159,117.7922526,75.9015159h-.0002262Z" fill="#f2f2f2"/>
              <path d="M1552.3505083,504.0378134c21.6858808,0,40.9094852-1.9724566,51.751238-3.4507386v-59.1445426c-8.8716149.9862283-24.6423317,1.9724566-34.0081212,1.9724566-27.5986695,0-48.7925249-4.9288792-48.7925249-64.565419v-126.6664549c0-3.4506679,2.4644255-5.9151499,5.9127887-5.9151499h66.5380169v-55.6938606h-66.5380169c-3.4483633,0-5.9127887-2.4644396-5.9127887-5.9128453v-88.7180016h-68.0161293v89.2099705c0,3.4507103-2.4644255,5.9151499-5.9152771,5.9151499h-47.3141863v55.693903h47.3141863c3.4508517,0,5.9152771,2.4644396,5.9152771,5.9128029v143.4256904c0,107.9369826,71.9587802,107.9369826,99.0654242,107.9369826l.0001131.0000566Z" fill="#f2f2f2"/>
            </g>
          </g>
          <path d="M3669.7014315,25.4650019v555.9548433h27.6009317V25.4650019h-27.6009317Z" fill="#ff3621"/>
          <g>
            <g>
              <g>
                <path d="M5230.6333163,222.1175597c0,2.4643406-1.4803745,4.4371931-3.9448,5.4210178-2.4644255.9859879-4.9261363,0-6.4074157-1.9702651-22.6720808-27.1090052-58.1576357-42.3878096-98.5733988-42.3878096-84.7704445,0-150.321809,70.972566-150.321809,162.1530278,0,91.1800376,66.0431637,161.6606771,150.321809,161.6606771,38.9381032,0,74.9181719-16.2648065,98.5733988-44.849987,1.4812794-1.9724283,4.4370517-2.4643406,6.4074157-1.9724283,2.4644255.9860021,3.9448,2.956253,3.9448,5.4210178v33.5160392h67.5217285V191.0684627h-67.5217285v31.049097ZM5136.9887685,445.3849286c-54.2155503,0-96.6030348-43.8635608-96.6030348-100.051398,0-56.1861123,42.3879369-100.0518222,96.6030348-100.0518222,54.2137406,0,96.6007726,43.8657099,96.6007726,100.0518222,0,56.1878372-42.387032,100.051398-96.6007726,100.051398Z" fill="#ff3621"/>
                <rect x="5349.9066221" y="191.0615348" width="69.0143189" height="308.5344763" fill="#ff3621"/>
                <path d="M5384.4253187,57.0061052c-23.1828824,0-41.9101632,18.7295677-41.9101632,41.8932993,0,23.1641628,18.7272808,41.893727,41.9101632,41.893727,23.1584508,0,41.8857316-18.7295713,41.8857316-41.8937341,0-23.1637316-18.7272808-41.8932993-41.8857316-41.8932922Z" fill="#ff3621"/>
              </g>
              <g>
                <path d="M4852.6179594,319.2059041l-36.9659294-12.3199499c-25.1546037-8.3794481-36.9668343-20.2074857-36.9668343-36.4722639,0-18.7295713,16.7546546-31.5435968,40.4012851-31.5435968,22.6720808,0,42.8838081,14.7842906,55.6932102,40.4149572l54.7191129-29.5733458c-20.2112748-41.3992202-62.0983637-67.0298869-110.4123231-67.0298869-61.1011921,0-105.4698991,39.4311184-105.4698991,93.15289,0,42.8792837,25.6418786,71.4644925,78.3657434,88.2233604l37.9644583,12.3203741c26.5938065,8.3794481,37.9418365,19.2236327,37.9418365,36.4722639,0,26.1225649-24.1578846,35.4862901-44.8573392,35.4862901-27.5914305,0-52.23659-17.743145-64.0709899-46.8224153l-55.6941151,29.5733317c18.2404584,46.8224153,63.0968926,75.9016573,117.7933837,75.9016573,55.6932102,0,112.3854018-34.0079515,112.3854018-98.5734836,0-42.3877955-26.6168808-71.4666416-80.8265494-89.2102108l-.0004524.0000283Z" fill="#f2f2f2"/>
                <path d="M4510.8387507,183.6727403c-94.609144,0-164.8378043,67.1191725-164.8378043,161.661582s70.2286603,161.6551348,164.8378043,161.6551348c94.6055245,0,164.8359945-67.1127253,164.8359945-161.6551348s-70.2304701-161.661582-164.8359945-161.661582ZM4510.8405605,445.3326156c-53.5034141,0-93.7857083-38.6120656-93.7857083-99.9982932,0-61.393099,39.6534064-99.9982791,93.7857083-99.9982791,53.5002471,0,93.7825412,38.6051801,93.7825412,99.9982791,0,61.3862276-40.2822941,99.9982932-93.7825412,99.9982932Z" fill="#f2f2f2"/>
                <path d="M4198.1928785,183.1805028c-48.9754226,0-78.9991555,27.8384471-90.9294722,48.1437016-2.0739721,3.53123-7.2855963,3.3971106-9.1894521-.2297391-10.7693628-20.5233151-37.3984594-47.9139625-83.5054301-47.9139625-41.0197668,0-64.8686367,23.0144626-77.9051624,41.9205551-2.9480808,4.2749519-9.6862281,2.0723603-9.6862281-3.120219l.0009049-32.0117279h-67.5280626v309.6269001h67.5217285v-171.7088267c0-17.7215129,2.8123497-32.7164978,8.4415734-44.9780551,5.6260566-12.2554776,13.408429-21.5919435,23.3525463-28.0102036,9.9337113-6.4052808,21.0989566-9.6176698,33.4799008-9.6176698,19.5000435,0,34.1305055,6.4182601,43.8891235,19.2353395,9.7518315,12.8300446,14.6309143,31.3181841,14.6309143,55.4519198v179.6274958h66.9602539v-171.7088267c0-17.7215129,2.8123497-32.7164978,8.4384063-44.9780551,5.6296761-12.2554776,13.408429-21.5919435,23.3548085-28.0102036,9.9341637-6.4052808,21.4667881-9.6176698,34.6037548-9.6176698,19.133117,0,33.5694833,6.4182601,43.3285538,19.2353395,9.7518315,12.8300446,14.6304619,31.3181841,14.6304619,55.4519198v179.6274958h66.9593491v-190.8044197c0-93.7979665-52.747844-125.6111027-110.8484726-125.6111027v.0000141Z" fill="#f2f2f2"/>
                <path d="M5627.4012905,444.8930163c-57.179014,0-100.0637269-42.8797361-100.0637269-99.5594857,0-56.6780246,42.8842605-99.5577466,100.0637269-99.5577466,27.1041557,0,52.2356851,8.8717846,77.3681194,27.1068279l43.3715354-40.9073079c-50.7507862-43.3716485-96.6048445-48.7948295-127.1443559-48.7948295-94.6331232,0-163.136188,68.0163131-163.136188,162.1530278,0,45.8381382,16.2429481,86.745446,45.3437091,116.3166287,29.5640567,29.5733317,70.9629659,45.8359891,117.2816772,45.8359891,38.4517332,0,68.0166948-7.391297,124.2207066-48.7926662l-38.9394605-40.9068554c-27.6149573,18.2350574-53.234214,27.1064178-78.3657434,27.1064178Z" fill="#f2f2f2"/>
              </g>
            </g>
            <g>
              <path d="M7345.7442229,499.1089059V191.068392h-67.5217285v31.0493657c0,2.4644396-1.480827,4.4369527-3.9448,5.420834-2.4644255.9862848-4.9265887,0-6.4069633-1.9701661-22.6720808-27.1089769-58.1585405-42.3876541-98.5733988-42.3876541-84.770897,0-150.3222614,70.9725378-150.3222614,162.1526743,0,91.1802072,66.0436162,161.660762,150.3222614,161.660762,38.9371983,0,74.9177195-16.264863,98.5733988-44.8497608,1.4803745-1.9725697,4.4365992-2.464482,6.4069633-1.9725697,2.4644255.9862283,3.9448,2.9564792,3.9448,5.4208764v33.5161523h67.5217285ZM7184.5779465,445.3851831c-54.2155503,0-96.6034872-43.8635043-96.6034872-100.0517373,0-56.1857729,42.3874844-100.0516808,96.6034872-100.0516808,54.2132881,0,96.6007726,43.8659078,96.6007726,100.0516808,0,56.1882048-42.3874844,100.0517373-96.6007726,100.0517373Z" fill="#f2f2f2"/>
              <path d="M6068.9931235,254.1487c6.4282278,0,12.3225797.4943159,16.2673797,1.4805442v-69.9886565c-2.4599011-.4919689-6.8924284-.9862283-11.3245032-.9862283-35.4814829,0-68.0162424,18.2374327-85.2812461,47.3165757-1.4618246,2.464482-3.9217257,3.4507103-6.4047011,2.464482-2.4599011-.4943159-4.4320749-2.9587555-4.4320749-5.4208905v-37.9507438h-67.5289675v308.5324545h68.0162424v-136.0299681c0-67.5241604,34.5069332-109.4175551,90.6883232-109.4175551l-.0004524-.0000141Z" fill="#f2f2f2"/>
              <path d="M7556.1999133,254.1487c6.4282278,0,12.3225797.4943159,16.2673797,1.4805442v-69.9886565c-2.4599011-.4919689-6.8924284-.9862283-11.3245032-.9862283-35.4814829,0-68.0162424,18.2374327-85.2812461,47.3165757-1.4618246,2.464482-3.9217257,3.4507103-6.4047011,2.464482-2.4599011-.4943159-4.4320749-2.9587555-4.4320749-5.4208905v-37.9507438h-67.5289675v308.5324545h68.0162424v-136.0299681c0-67.5241604,34.5069332-109.4175551,90.6883232-109.4175551l-.0004524-.0000141Z" fill="#f2f2f2"/>
              <path d="M6538.7301702,506.9895702c55.6941151,0,112.3858542-34.0080646,112.3858542-98.5734836,0-42.3877389-26.6168808-71.4668396-80.8256445-89.2100694l-36.9663819-12.3199217c-25.1550562-8.3795895-36.9668343-20.2075988-36.9668343-36.4724901,0-18.7293875,16.7546546-31.5436392,40.4012851-31.5436392,22.6720808,0,42.8842605,14.7844037,55.6936627,40.4151976l54.7191129-29.5734165c-20.2121797-41.3991212-62.0983637-67.029901-110.4127756-67.029901-61.1007397,0-105.4703515,39.4312597-105.4703515,93.1526355,0,42.879623,25.642331,71.4644925,78.3657434,88.2236715l37.9649108,12.3200065c26.5938065,8.3795895,37.941384,19.223661,37.941384,36.4724618,0,26.1227911-24.1574321,35.4863184-44.8568867,35.4863184-27.5914305,0-52.23659-17.7431168-64.0709899-46.8223022l-55.6936627,29.5734165c18.2395535,46.8223022,63.0964402,75.9015159,117.7924788,75.9015159h-.0009049Z" fill="#f2f2f2"/>
              <path d="M7745.9511723,183.1807714c-94.6335756,0-163.1366404,68.0161293-163.1366404,162.1526743,0,45.8383644,16.243853,86.7455874,45.3437091,116.3166852,29.5640567,29.5734165,70.9629659,45.8361022,117.2816772,45.8361022,38.4517332,0,68.0157899-7.3910707,124.2202542-48.7924683l-38.9394605-40.9071947c-27.6149573,18.235114-53.2337616,27.1067289-78.3666483,27.1067289-57.179014,0-100.0628221-42.8796796-100.0628221-99.559825,0-56.6777419,42.8847129-99.5574214,100.0628221-99.5574214,27.1046081,0,52.23659,8.8716008,77.367667,27.1066723l43.3715354-40.9071523c-50.7507862-43.3715919-96.6052969-48.7947729-127.1439034-48.7947729l.0018097-.0000283Z" fill="#f2f2f2"/>
              <path d="M8075.5209106,184.6543736c-44.6021646,0-73.5319043,22.948322-85.7223724,39.6861374-3.0485219,4.1851431-9.6179101,2.0776482-9.6179101-3.0999442V56.512019h-76.9867148v442.5972828h76.9867148v-157.2634399c0-54.1807975,26.0558586-85.7395509,70.4689045-85.7395509,43.2294701,0,61.5875621,23.8161672,61.5875621,79.1910596v163.8119312h76.9830953v-175.1264526c0-90.5020887-40.0244049-139.3284898-113.6983746-139.3284898l-.0009049.0000141Z" fill="#f2f2f2"/>
              <path d="M6840.2782102,182.6814504c-87.3828169,0-150.7805803,69.5608489-151.2008945,162.6518539h-.0199072c0,.1012328.0131207.1981392.0131207.2994003,0,.2102702-.0131207.416214-.0131207.6269083l.0425291.016005c.2230515,45.4517851,16.4040158,86.0090762,45.3020849,115.3743151,29.5640567,29.5737841,70.9629659,45.8364133,117.2816772,45.8364133,38.4517332,0,68.0166948-7.391297,124.2207066-48.7926662l-38.9394605-40.9073079c-27.6149573,18.2350574-53.234214,27.106842-78.3657434,27.106842-43.7547497,0-79.0634016-25.1456398-93.2549994-62.3392583-1.7667673-4.6308645,1.7206187-9.6197199,6.6770683-9.6197199h212.2735831l.0036195.0004242c1.6215349-10.1627859,2.4970009-21.1052059,2.4970009-32.5598697,0-93.5556864-55.3136154-157.6933401-146.5172645-157.6933401ZM6770.1839237,317.2327123c-4.3696385,0-7.6964093-3.9355533-7.0335888-8.254632,6.9213844-45.0940769,42.2630642-70.1079444,81.8001943-70.1079444,46.52638,0,78.0888519,26.6442815,82.8652315,70.3087417.4669152,4.2665111-2.7585096,8.0542023-7.0507814,8.0542023l-150.5810555-.0003959v.0000283Z" fill="#f2f2f2"/>
              <path d="M6246.8285439,182.6814504c-87.3828169,0-150.7805803,69.5608489-151.2008945,162.6518539h-.0199072c0,.1012328.0131207.1981392.0131207.2994003,0,.2102702-.0131207.416214-.0131207.6269083l.0425291.016005c.2230515,45.4517851,16.4040158,86.0090762,45.3020849,115.3743151,29.5640567,29.5737841,70.9629659,45.8364133,117.2816772,45.8364133,38.4517332,0,68.0166948-7.391297,124.2207066-48.7926662l-38.9394605-40.9073079c-27.6149573,18.2350574-53.234214,27.106842-78.3657434,27.106842-43.7547497,0-79.0634016-25.1456398-93.2549994-62.3392583-1.7667673-4.6308645,1.7206187-9.6197199,6.6770683-9.6197199h212.2735831l.0036195.0004242c1.6215349-10.1627859,2.4970009-21.1052059,2.4970009-32.5598697,0-93.5556864-55.3136154-157.6933401-146.5172645-157.6933401ZM6176.7347098,317.2327123c-4.3696385,0-7.6964093-3.9355533-7.0335888-8.254632,6.9213844-45.0940769,42.2630642-70.1079444,81.8001943-70.1079444,46.52638,0,78.0888519,26.6442815,82.8652315,70.3087417.4669152,4.2665111-2.7585096,8.0542023-7.0507814,8.0542023l-150.5810555-.0003959v.0000283Z" fill="#f2f2f2"/>
            </g>
          </g>
        </g>
      </g>
    </g>
  </g>
</svg>