<svg width="150" height="150" viewBox="0 0 150 150" fill="none" xmlns="http://www.w3.org/2000/svg">
<path d="M73.5 35.03V41.39H67.14V44.39H73.5V50.75H76.5V44.39H82.86V41.39H76.5V35.03H73.5Z" fill="#FF5F46"/>
<path d="M107.06 61.8799H132.9V68.9299H107.62V71.9299H132.9V78.9699H107.62V81.9699H132.9V89.0099H107.62V92.0099H132.9V99.0499H107.62V102.05H132.9V109.09H107.62V112.09H132.9V121.42H88.7V99.0499H61.24V121.42H17.11V112.09H42.38V109.09H17.11V102.05H42.38V99.0499H17.11V92.0099H42.38V89.0099H17.11V81.9699H42.38V78.9699H17.11V71.9299H42.38V68.9299H17.11V61.8799H42.38V58.8799H14.11V124.42H64.24V102.05H73.47V124.92H76.47V102.05H85.7V124.42H135.9V58.8799H107.06V61.8799Z" fill="#FF5F46"/>
<path d="M88.91 89.01H61.14V92.01H88.91V89.01Z" fill="#FF5F46"/>
<path d="M88.91 78.97H61.14V81.97H88.91V78.97Z" fill="#FF5F46"/>
<path d="M88.86 68.9299H61.09V71.9299H88.86V68.9299Z" fill="#FF5F46"/>
<path d="M88.86 58.8899H61.09V61.8899H88.86V58.8899Z" fill="#FF5F46"/>
<path d="M101.39 112.59V25.0801H48.61V112.59H51.61V28.0801H98.39V112.59H101.39Z" fill="#FF5F46"/>
</svg>
