<svg width="150" height="150" viewBox="0 0 150 150" fill="none" xmlns="http://www.w3.org/2000/svg">
<path d="M129.2 119.2H126.2V50.6998C126.2 48.1998 124.2 46.1998 121.7 46.1998H67L60.4001 36.0998C59.6001 34.6998 58.1 33.7998 56.5 33.7998H28.3C25.8 33.7998 23.8 35.7998 23.8 38.2998V111.7C23.8 114.2 25.8 116.2 28.3 116.2V119.2C24.2 119.2 20.8 115.8 20.8 111.7V38.2998C20.8 34.1998 24.2 30.7998 28.3 30.7998H56.6C59.2 30.7998 61.7 32.1998 63.1 34.4998L68.7 43.1998H121.8C125.9 43.1998 129.3 46.5998 129.3 50.6998V119.2H129.2Z" fill="#FF5F46"/>
<path d="M121.7 119.1H33V59.8999C33 55.7999 36.4 52.3999 40.5 52.3999H120.6V55.3999H40.5C38 55.3999 36 57.3999 36 59.8999V116.1H121.7V119.1Z" fill="#FF5F46"/>
<path d="M62.6001 99.1998L49.1001 85.7998L62.6001 72.2998L64.7001 74.4998L53.4001 85.7998L64.7001 97.0998L62.6001 99.1998Z" fill="#FF5F46"/>
<path d="M99.8001 99.1998L97.7001 97.0998L109 85.7998L97.7001 74.4998L99.8001 72.2998L113.2 85.7998L99.8001 99.1998Z" fill="#FF5F46"/>
<path d="M90.4328 68.2012L69.421 101.766L71.9638 103.358L92.9756 69.793L90.4328 68.2012Z" fill="#FF5F46"/>
</svg>
