<svg width="150" height="150" viewBox="0 0 150 150" fill="none" xmlns="http://www.w3.org/2000/svg">
<path d="M129.2 119.2H126.2V50.7001C126.2 48.2001 124.2 46.2001 121.7 46.2001H67L60.4 36.1C59.6 34.7 58.1 33.8 56.5 33.8H28.3C25.8 33.8 23.8 35.8 23.8 38.3V111.7C23.8 114.2 25.8 116.2 28.3 116.2V119.2C24.2 119.2 20.8 115.8 20.8 111.7V38.3C20.8 34.2 24.2 30.8 28.3 30.8H56.6C59.2 30.8 61.7 32.2 63.1 34.5L68.7 43.2001H121.8C125.9 43.2001 129.3 46.6001 129.3 50.7001V119.2H129.2Z" fill="#1B3139"/>
<path d="M121.7 119.1H33V59.9C33 55.8 36.4 52.4 40.5 52.4H120.6V55.4H40.5C38 55.4 36 57.4 36 59.9V116.1H121.7V119.1Z" fill="#1B3139"/>
<path d="M62.6 99.2L49.1 85.8L62.6 72.3L64.7 74.5L53.4 85.8L64.7 97.1L62.6 99.2Z" fill="#1B3139"/>
<path d="M99.8 99.2L97.7 97.1L109 85.8L97.7 74.5L99.8 72.3L113.2 85.8L99.8 99.2Z" fill="#1B3139"/>
<path d="M90.4328 68.2014L69.421 101.766L71.9638 103.358L92.9756 69.7932L90.4328 68.2014Z" fill="#1B3139"/>
</svg>
