<svg width="512" height="512" viewBox="0 0 512 512" fill="none" xmlns="http://www.w3.org/2000/svg">
<path d="M176.141 151.491L127.833 177.741V335.717L176.141 361.966V431.608L64 367.129V146.331L176.141 81.8494V151.491ZM447.999 146.331V367.129L336.141 431.446V361.812L384.166 335.717V177.741L336.141 151.644V82.0125L447.999 146.331Z" fill="#FFDB96"/>
<path d="M344.521 207.865V305.595L256.745 354.46L168.969 305.595V207.865L256.745 159L344.521 207.865ZM193.79 221.768V291.691L256.745 326.739L319.699 291.691V221.768L256.745 186.72L193.79 221.768Z" fill="#FFAB00"/>
<path d="M193.79 221.768V291.691L256.745 326.739L319.699 291.691V221.768L256.745 186.72L193.79 221.768Z" fill="#FFAB00"/>
</svg>
