<svg width="150" height="150" viewBox="0 0 150 150" fill="none" xmlns="http://www.w3.org/2000/svg">
<path d="M78.53 29.76V69.91H81.53V37L94.35 49.83L104.08 40.11L74.65 10.68L45.22 40.11L54.95 49.83L67.77 37V102.46H70.77V29.76L54.95 45.59L49.47 40.11L74.65 14.92L99.83 40.11L94.35 45.59L78.53 29.76Z" fill="#FF5F46"/>
<path d="M103.46 58.87L116.29 71.7H90C86.7607 71.6971 83.56 72.4037 80.6231 73.7703C77.6861 75.1368 75.0841 77.1301 73 79.61L75.3 81.54C77.1017 79.3951 79.3516 77.6711 81.8913 76.4894C84.431 75.3077 87.1988 74.6969 90 74.7H123.5L107.7 58.87L113.18 53.39L138.37 78.57L113.18 103.76L107.7 98.28L123.53 82.45H91.09C87.7623 82.4553 84.5722 83.7789 82.2181 86.131C79.8641 88.4832 78.538 91.6722 78.53 95V136.3H69.27V139.3H81.53V95C81.53 92.4636 82.5369 90.0309 84.3295 88.2365C86.122 86.4421 88.5536 85.4326 91.09 85.43H116.29L103.46 98.28L113.18 108L142.61 78.57L113.18 49.15L103.46 58.87Z" fill="#FF5F46"/>
<path d="M71.53 127.16C72.2125 125.988 72.572 124.656 72.572 123.3C72.572 121.944 72.2125 120.612 71.53 119.44L46.66 76.37C45.9924 75.1933 45.0237 74.2156 43.8532 73.5372C42.6828 72.8588 41.3528 72.5043 40 72.51C38.6456 72.5035 37.314 72.8577 36.1418 73.536C34.9696 74.2144 33.9991 75.1925 33.33 76.37L8.42996 119.44C7.75439 120.612 7.39914 121.941 7.3999 123.294C7.40067 124.647 7.75741 125.976 8.4343 127.148C9.1112 128.319 10.0844 129.292 11.2562 129.968C12.428 130.644 13.7571 131 15.11 131H36.87V128H15.11C14.2813 128.005 13.466 127.791 12.7463 127.38C12.0267 126.969 11.4282 126.376 11.0113 125.66C10.5944 124.944 10.3738 124.13 10.3718 123.301C10.3698 122.473 10.5865 121.658 11 120.94L35.9 77.87C36.3105 77.1465 36.9072 76.546 37.6282 76.131C38.3492 75.716 39.1681 75.5016 40 75.51C40.8284 75.5052 41.6432 75.7213 42.3603 76.1361C43.0775 76.551 43.6711 77.1495 44.08 77.87L68.95 120.94C69.363 121.657 69.5797 122.471 69.5781 123.299C69.5766 124.127 69.3568 124.94 68.9411 125.655C68.5254 126.371 67.9283 126.965 67.2101 127.377C66.4918 127.788 65.6778 128.003 64.85 128H43.09V131H64.85C66.2038 131.009 67.5358 130.658 68.7095 129.984C69.8832 129.309 70.8566 128.335 71.53 127.16Z" fill="#FF5F46"/>
<path d="M41.48 87.36H38.48V113.08H41.48V87.36Z" fill="#FF5F46"/>
<path d="M40 116.18C39.5293 116.18 39.0691 116.32 38.6777 116.581C38.2864 116.843 37.9813 117.214 37.8012 117.649C37.621 118.084 37.5739 118.563 37.6657 119.024C37.7576 119.486 37.9842 119.91 38.3171 120.243C38.6499 120.576 39.074 120.802 39.5357 120.894C39.9974 120.986 40.4759 120.939 40.9108 120.759C41.3457 120.579 41.7174 120.274 41.9789 119.882C42.2404 119.491 42.38 119.031 42.38 118.56C42.3774 117.93 42.1258 117.326 41.68 116.88C41.2342 116.434 40.6304 116.183 40 116.18Z" fill="#FF5F46"/>
</svg>
