<svg width="150" height="150" viewBox="0 0 150 150" fill="none" xmlns="http://www.w3.org/2000/svg">
<path d="M78.53 29.7599V69.9099H81.53V36.9999L94.35 49.8299L104.08 40.1099L74.65 10.6799L45.22 40.1099L54.95 49.8299L67.77 36.9999V102.46H70.77V29.7599L54.95 45.5899L49.47 40.1099L74.65 14.9199L99.83 40.1099L94.35 45.5899L78.53 29.7599Z" fill="#1B3139"/>
<path d="M103.46 58.8699L116.29 71.6999H90C86.7607 71.697 83.56 72.4036 80.623 73.7702C77.6861 75.1367 75.0841 77.13 73 79.6099L75.3 81.5399C77.1017 79.395 79.3516 77.671 81.8913 76.4893C84.431 75.3076 87.1988 74.6968 90 74.6999H123.5L107.7 58.8699L113.18 53.3899L138.37 78.5699L113.18 103.76L107.7 98.2799L123.53 82.4499H91.09C87.7622 82.4552 84.5721 83.7788 82.2181 86.1309C79.8641 88.4831 78.5379 91.6721 78.53 94.9999V136.3H69.27V139.3H81.53V94.9999C81.53 92.4635 82.5369 90.0309 84.3294 88.2364C86.122 86.442 88.5536 85.4326 91.09 85.4299H116.29L103.46 98.2799L113.18 108L142.61 78.5699L113.18 49.1499L103.46 58.8699Z" fill="#1B3139"/>
<path d="M71.53 127.16C72.2125 125.988 72.5721 124.656 72.5721 123.3C72.5721 121.944 72.2125 120.612 71.53 119.44L46.66 76.3701C45.9925 75.1934 45.0237 74.2157 43.8532 73.5373C42.6828 72.8589 41.3528 72.5044 40 72.5101V72.5101C38.6457 72.5036 37.314 72.8578 36.1419 73.5361C34.9697 74.2145 33.9992 75.1926 33.33 76.3701L8.42999 119.44C7.75442 120.612 7.39917 121.942 7.39993 123.294C7.4007 124.647 7.75744 125.976 8.43433 127.148C9.11123 128.319 10.0844 129.292 11.2562 129.968C12.428 130.644 13.7571 131 15.11 131H36.87V128H15.11C14.2813 128.005 13.466 127.791 12.7464 127.38C12.0267 126.969 11.4282 126.376 11.0113 125.66C10.5944 124.944 10.3738 124.13 10.3718 123.301C10.3698 122.473 10.5865 121.658 11 120.94L35.9 77.8701C36.3105 77.1466 36.9073 76.5461 37.6283 76.1311C38.3492 75.7161 39.1682 75.5017 40 75.5101V75.5101C40.8285 75.5053 41.6432 75.7214 42.3604 76.1362C43.0775 76.551 43.6711 77.1496 44.08 77.8701L68.95 120.94C69.363 121.658 69.5797 122.471 69.5781 123.299C69.5766 124.127 69.3569 124.94 68.9411 125.655C68.5254 126.371 67.9283 126.965 67.2101 127.377C66.4919 127.788 65.6778 128.003 64.85 128H43.09V131H64.85C66.2038 131.009 67.5358 130.659 68.7095 129.984C69.8833 129.309 70.8566 128.335 71.53 127.16V127.16Z" fill="#1B3139"/>
<path d="M41.48 87.3601H38.48V113.08H41.48V87.3601Z" fill="#1B3139"/>
<path d="M40 116.18C39.5293 116.18 39.0691 116.32 38.6777 116.581C38.2864 116.843 37.9813 117.214 37.8012 117.649C37.621 118.084 37.5739 118.563 37.6657 119.024C37.7576 119.486 37.9842 119.91 38.3171 120.243C38.6499 120.576 39.074 120.802 39.5357 120.894C39.9974 120.986 40.4759 120.939 40.9108 120.759C41.3457 120.579 41.7174 120.274 41.9789 119.882C42.2404 119.491 42.38 119.031 42.38 118.56C42.3774 117.93 42.1258 117.326 41.68 116.88C41.2342 116.434 40.6304 116.183 40 116.18V116.18Z" fill="#1B3139"/>
</svg>
