<svg width="150" height="150" viewBox="0 0 150 150" fill="none" xmlns="http://www.w3.org/2000/svg">
<path d="M14.2737 126.275H135.705C137.697 126.275 139.607 125.481 141.015 124.067C142.423 122.653 143.214 120.735 143.214 118.736V112.586L130.041 98.5841L127.681 100.846L137.851 111.616H20.1629V114.848H139.975V118.746C139.975 119.889 139.522 120.985 138.718 121.793C137.913 122.601 136.822 123.055 135.684 123.055H14.2737C13.1357 123.055 12.0443 122.601 11.2396 121.793C10.4349 120.985 9.98283 119.889 9.98283 118.746V113.867L26.1701 96.6347H126.061V30.8919C126.059 28.9996 125.312 27.1848 123.985 25.8417C122.657 24.4987 120.855 23.7358 118.971 23.7188H31.0081C29.1123 23.7187 27.294 24.4741 25.9525 25.8191C24.611 27.164 23.8559 28.9884 23.853 30.8919V87.5013H27.0712V30.8919C27.0712 30.3733 27.1731 29.8598 27.3711 29.3808C27.569 28.9019 27.8592 28.4668 28.2249 28.1006C28.5906 27.7345 29.0247 27.4443 29.5023 27.2469C29.9799 27.0494 30.4916 26.9485 31.0081 26.9499H118.971C119.487 26.9485 119.999 27.0494 120.477 27.2469C120.954 27.4443 121.388 27.7345 121.754 28.1006C122.12 28.4668 122.41 28.9019 122.608 29.3808C122.806 29.8598 122.908 30.3733 122.908 30.8919V93.4359H24.8078L6.78613 112.586V118.746C6.78896 120.74 7.57839 122.652 8.98166 124.063C10.3849 125.474 12.2878 126.269 14.2737 126.275Z" fill="white"/>
<mask id="mask0_8889_528" style="mask-type:alpha" maskUnits="userSpaceOnUse" x="46" y="39" width="60" height="43">
<path d="M46.7441 46.3577C46.7441 42.7202 49.6929 39.7715 53.3303 39.7715H98.5523C102.19 39.7715 105.138 42.7202 105.138 46.3577V74.9599C105.138 78.5974 102.19 81.5461 98.5523 81.5461H53.3303C49.6929 81.5461 46.7441 78.5974 46.7441 74.9599V46.3577Z" fill="#D9D9D9"/>
</mask>
<g mask="url(#mask0_8889_528)">
<path d="M98.5898 39.6968H80.0099V3.15625H-11.6511V60.5771H41.8768V57.9228H-8.99685V5.81053H77.3556V39.7853H69.3928V22.0901H68.0656C63.6419 22.0901 60.1028 18.5511 60.1028 14.1273V12.8001H8.25595V14.1273C8.25595 18.5511 4.71692 22.0901 0.293121 22.0901H-1.03402V41.8202H0.293121C4.71692 41.8202 8.25595 45.3592 8.25595 49.783V50.9332L46.743 59.8185V74.9987C46.743 78.6262 49.6627 81.5459 53.2902 81.5459H98.5898C102.217 81.5459 105.137 78.6262 105.137 74.9987V46.244C105.137 42.6165 102.217 39.6968 98.5898 39.6968ZM10.8218 48.279C10.2024 43.5013 6.39796 39.6968 1.62026 39.0775V24.5674C6.39796 23.9481 10.2024 20.1436 10.8218 15.3659H57.537C58.1563 20.1436 61.9608 23.9481 66.7385 24.5674V39.6968H61.0893C57.4618 39.6968 61.9951 42.6165 61.9951 46.244L62.5428 48.279L56.89 57.3151L48.3301 59.25L10.8218 48.279ZM102.483 74.9987C102.483 77.1221 100.713 78.8916 98.5898 78.8916H53.2902C51.1668 78.8916 49.3972 77.1221 49.3972 74.9987V59.8185L56.89 57.3151L61.7353 50.9332H95.0508V68.6284C95.0508 69.1593 94.6084 69.5132 94.166 69.5132H86.4686C85.9378 69.5132 85.5839 69.0708 85.5839 68.6284V62.789C85.5839 62.2581 86.0263 61.9042 86.4686 61.9042H91.8657V59.25H86.4686C84.5222 59.25 82.9296 60.8425 82.9296 62.789V68.6284C82.9296 70.5749 84.5222 72.1674 86.4686 72.1674H94.166C96.1125 72.1674 97.7051 70.5749 97.7051 68.6284V48.279H62.9466L62.5428 46.1555C62.5428 44.0321 59.6119 42.2626 61.7353 42.2626H98.5898C100.713 42.2626 102.483 44.0321 102.483 46.1555V74.9987Z" fill="white"/>
<path d="M71.2492 64.5879H54.9696V67.2422H71.2492V64.5879Z" fill="white"/>
<path d="M71.2494 68.9082H54.9698V71.5625H71.2494V68.9082Z" fill="white"/>
</g>
<path fill-rule="evenodd" clip-rule="evenodd" d="M49.3619 58.3064C55.5676 58.3064 60.5983 53.2757 60.5983 47.07C60.5983 40.8644 55.5676 35.8337 49.3619 35.8337C43.1562 35.8337 38.1255 40.8644 38.1255 47.07C38.1255 53.2757 43.1562 58.3064 49.3619 58.3064ZM49.3619 60.6586C56.8667 60.6586 62.9505 54.5748 62.9505 47.07C62.9505 39.5653 56.8667 33.4814 49.3619 33.4814C41.8571 33.4814 35.7733 39.5653 35.7733 47.07C35.7733 54.5748 41.8571 60.6586 49.3619 60.6586Z" fill="white"/>
<path fill-rule="evenodd" clip-rule="evenodd" d="M50.4885 55.5108V53.5489H52.0962C54.188 53.5489 55.8985 51.8384 55.8985 49.7466C55.8985 47.66 54.2526 45.9443 52.1557 45.9443H50.5479V42.7882H55.0662V40.5343H50.4885V38.6318H48.2345V40.5343H46.6267C44.535 40.5343 42.8245 42.2448 42.8245 44.3366C42.8245 46.4284 44.535 48.1388 46.6267 48.1388H48.2345V51.2949H43.6568V53.5489H48.2345V55.5108H50.4885ZM46.862 46.0038V45.9443H46.6267C45.7511 45.9443 45.0784 45.2224 45.0784 44.396C45.0784 43.5747 45.8054 42.8477 46.6267 42.8477H48.2345V46.0038H46.862ZM52.1557 51.3544H50.5479V48.1983H52.1557C53.0314 48.1983 53.704 48.9202 53.704 49.7466C53.704 50.5779 52.9673 51.3544 52.1557 51.3544Z" fill="white"/>
</svg>
