<svg width="150" height="150" viewBox="0 0 150 150" fill="none" xmlns="http://www.w3.org/2000/svg">
<path d="M130.48 12.06H111.32C109.521 12.0627 107.796 12.7792 106.525 14.0523C105.254 15.3254 104.54 17.051 104.54 18.85V26.92H91.36V18.85C91.36 17.051 90.646 15.3254 89.3748 14.0523C88.1036 12.7792 86.3791 12.0627 84.58 12.06H65.42C63.6209 12.0627 61.8964 12.7792 60.6252 14.0523C59.354 15.3254 58.64 17.051 58.64 18.85V26.92H45.47V18.84C45.4674 17.04 44.7511 15.3145 43.4783 14.0417C42.2055 12.7689 40.48 12.0527 38.68 12.05H19.52C17.7209 12.0527 15.9964 12.7692 14.7252 14.0423C13.454 15.3154 12.74 17.041 12.74 18.84V38C12.7427 39.7974 13.4578 41.5204 14.7287 42.7913C15.9997 44.0622 17.7227 44.7774 19.52 44.78H28.61L47.47 58.6301H42.47C40.6709 58.6327 38.9464 59.3492 37.6752 60.6223C36.404 61.8954 35.69 63.621 35.69 65.42V84.57C35.69 86.3691 36.404 88.0947 37.6752 89.3678C38.9464 90.6409 40.6709 91.3574 42.47 91.36H47.47L28.61 105.21H19.52C17.7209 105.213 15.9964 105.929 14.7252 107.202C13.454 108.475 12.74 110.201 12.74 112V131.15C12.74 132.949 13.454 134.675 14.7252 135.948C15.9964 137.221 17.7209 137.937 19.52 137.94H38.68C40.48 137.937 42.2055 137.221 43.4783 135.948C44.7511 134.676 45.4674 132.95 45.47 131.15V123.08H61.63V112C61.63 110.997 62.0279 110.034 62.7365 109.324C63.4451 108.613 64.4066 108.213 65.41 108.21H84.58C85.5826 108.215 86.5425 108.617 87.2506 109.327C87.9586 110.036 88.3574 110.997 88.36 112V131.16C88.3666 131.661 88.2738 132.159 88.0869 132.623C87.9001 133.088 87.6228 133.512 87.2713 133.869C86.9198 134.226 86.5009 134.51 86.0389 134.704C85.577 134.898 85.0811 134.999 84.58 135H65.42C64.4166 134.997 63.4551 134.597 62.7465 133.886C62.0379 133.176 61.64 132.213 61.64 131.21V128.1H58.64V131.16C58.6334 132.055 58.8038 132.943 59.1415 133.772C59.4791 134.6 59.9774 135.354 60.6075 135.99C61.2376 136.626 61.9871 137.131 62.8131 137.476C63.639 137.821 64.5249 137.999 65.42 138H84.58C86.3783 137.995 88.1012 137.277 89.3719 136.005C90.6425 134.732 91.3574 133.008 91.36 131.21V123.13H107.54V112C107.543 110.997 107.941 110.036 108.649 109.327C109.357 108.617 110.317 108.215 111.32 108.21H130.48C131.483 108.213 132.445 108.613 133.153 109.324C133.862 110.034 134.26 110.997 134.26 112V131.16C134.26 132.163 133.862 133.126 133.153 133.836C132.445 134.547 131.483 134.947 130.48 134.95H111.32C110.317 134.947 109.355 134.547 108.647 133.836C107.938 133.126 107.54 132.163 107.54 131.16V128.1H104.54V131.16C104.54 132.959 105.254 134.685 106.525 135.958C107.796 137.231 109.521 137.947 111.32 137.95H130.48C132.279 137.947 134.004 137.231 135.275 135.958C136.546 134.685 137.26 132.959 137.26 131.16V112C137.26 110.201 136.546 108.475 135.275 107.202C134.004 105.929 132.279 105.213 130.48 105.21H121.39L102.53 91.36H107.53C109.329 91.3574 111.054 90.6409 112.325 89.3678C113.596 88.0947 114.31 86.3691 114.31 84.57V65.42C114.307 63.6218 113.593 61.8978 112.322 60.6252C111.051 59.3527 109.328 58.6353 107.53 58.6301H102.53L121.39 44.7901H130.48C132.279 44.7874 134.004 44.0709 135.275 42.7978C136.546 41.5247 137.26 39.7991 137.26 38V18.85C137.26 17.051 136.546 15.3254 135.275 14.0523C134.004 12.7792 132.279 12.0627 130.48 12.06V12.06ZM15.74 38V18.84C15.74 17.8366 16.1379 16.8741 16.8465 16.1636C17.5551 15.4532 18.5166 15.0527 19.52 15.05H38.68C39.6852 15.05 40.6492 15.4494 41.3599 16.1601C42.0707 16.8709 42.47 17.8349 42.47 18.84V38C42.4674 39.0035 42.0669 39.9649 41.3564 40.6735C40.6459 41.3821 39.6834 41.7801 38.68 41.78H19.52C18.5183 41.7774 17.5584 41.3783 16.8501 40.67C16.1417 39.9617 15.7426 39.0018 15.74 38V38ZM38.68 44.78C40.4791 44.7801 42.2046 44.0661 43.4777 42.7948C44.7508 41.5236 45.4674 39.7991 45.47 38V29.92H61.64V18.85C61.64 17.8466 62.0379 16.8841 62.7465 16.1736C63.4551 15.4632 64.4166 15.0627 65.42 15.06H84.58C85.5834 15.0627 86.5449 15.4632 87.2535 16.1736C87.9621 16.8841 88.36 17.8466 88.36 18.85V38C88.36 39.0035 87.9621 39.966 87.2535 40.6765C86.5449 41.3869 85.5834 41.7874 84.58 41.7901H65.42C64.4166 41.7874 63.4551 41.3869 62.7465 40.6765C62.0379 39.966 61.64 39.0035 61.64 38V35H58.64V38C58.64 39.7991 59.354 41.5247 60.6252 42.7978C61.8964 44.0709 63.6209 44.7874 65.42 44.7901H70.42L52.05 58.28L33.68 44.78H38.68ZM61.68 58.6301H56.68L75 45.1501L93.37 58.6301H88.37C86.5709 58.6327 84.8464 59.3492 83.5752 60.6223C82.304 61.8954 81.59 63.621 81.59 65.42V73.5H68.42V65.42C68.4174 63.62 67.7011 61.8945 66.4283 60.6217C65.1555 59.3489 63.43 58.6327 61.63 58.6301H61.68ZM38.69 84.57V65.42C38.69 64.4166 39.0879 63.4541 39.7965 62.7436C40.5051 62.0332 41.4666 61.6327 42.47 61.6301H61.63C62.6352 61.6301 63.5992 62.0294 64.3099 62.7401C65.0207 63.4509 65.42 64.4149 65.42 65.42V84.57C65.42 85.5752 65.0207 86.5392 64.3099 87.25C63.5992 87.9607 62.6352 88.36 61.63 88.36H42.47C41.4666 88.3574 40.5051 87.9569 39.7965 87.2465C39.0879 86.536 38.69 85.5735 38.69 84.57V84.57ZM42.47 131.15C42.47 132.155 42.0707 133.119 41.3599 133.83C40.6492 134.541 39.6852 134.94 38.68 134.94H19.52C18.5166 134.937 17.5551 134.537 16.8465 133.826C16.1379 133.116 15.74 132.153 15.74 131.15V112C15.74 110.997 16.1379 110.034 16.8465 109.324C17.5551 108.613 18.5166 108.213 19.52 108.21H38.68C39.1777 108.21 39.6706 108.308 40.1304 108.499C40.5902 108.689 41.008 108.968 41.3599 109.32C41.7119 109.672 41.991 110.09 42.1815 110.55C42.372 111.009 42.47 111.502 42.47 112V131.15ZM58.64 112V120.08H45.47V112C45.4674 110.2 44.7511 108.475 43.4783 107.202C42.2055 105.929 40.48 105.213 38.68 105.21H33.68L52.05 91.72L70.42 105.21H65.42C63.6209 105.213 61.8964 105.929 60.6252 107.202C59.354 108.475 58.64 110.201 58.64 112V112ZM111.32 105.21C109.521 105.213 107.796 105.929 106.525 107.202C105.254 108.475 104.54 110.201 104.54 112V120.08H91.36V112C91.3574 110.202 90.6425 108.478 89.3719 107.205C88.1012 105.933 86.3783 105.215 84.58 105.21H79.58L98 91.72L116.37 105.21H111.32ZM111.32 65.42V84.57C111.32 85.5735 110.922 86.536 110.213 87.2465C109.505 87.9569 108.543 88.3574 107.54 88.36H88.37C87.3666 88.3574 86.4051 87.9569 85.6965 87.2465C84.9879 86.536 84.59 85.5735 84.59 84.57V81.57H81.59V84.57C81.59 86.3691 82.304 88.0947 83.5752 89.3678C84.8464 90.6409 86.5709 91.3574 88.37 91.36H93.37L75 104.85L56.63 91.36H61.63C63.43 91.3574 65.1555 90.6412 66.4283 89.3684C67.7011 88.0956 68.4174 86.3701 68.42 84.57V76.5H84.58V65.42C84.58 64.4166 84.9779 63.4541 85.6865 62.7436C86.3951 62.0332 87.3566 61.6327 88.36 61.6301H107.52C108.018 61.6301 108.511 61.7281 108.97 61.9185C109.43 62.109 109.848 62.3882 110.2 62.7401C110.552 63.0921 110.831 63.5099 111.022 63.9697C111.212 64.4295 111.31 64.9223 111.31 65.42H111.32ZM134.26 38C134.26 39.0035 133.862 39.966 133.153 40.6765C132.445 41.3869 131.483 41.7874 130.48 41.7901H111.32C110.317 41.7874 109.355 41.3869 108.647 40.6765C107.938 39.966 107.54 39.0035 107.54 38V35H104.54V38C104.54 39.7991 105.254 41.5247 106.525 42.7978C107.796 44.0709 109.521 44.7874 111.32 44.7901H116.32L98 58.28L79.58 44.7901H84.58C86.3791 44.7874 88.1036 44.0709 89.3748 42.7978C90.646 41.5247 91.36 39.7991 91.36 38V29.92H107.54V18.85C107.54 17.8466 107.938 16.8841 108.647 16.1736C109.355 15.4632 110.317 15.0627 111.32 15.06H130.48C131.483 15.0627 132.445 15.4632 133.153 16.1736C133.862 16.8841 134.26 17.8466 134.26 18.85V38Z" fill="#1B3139"/>
</svg>
