<svg width="150" height="150" viewBox="0 0 150 150" fill="none" xmlns="http://www.w3.org/2000/svg">
<path d="M93.5797 124.997C91.3238 125.016 89.0907 124.546 87.0353 123.62C84.9798 122.694 83.1511 121.334 81.676 119.635C80.7736 118.66 79.678 117.882 78.4585 117.349C77.2389 116.817 75.922 116.542 74.5905 116.542C73.259 116.542 71.9419 116.817 70.7224 117.349C69.5029 117.882 68.4074 118.66 67.505 119.635C66.0181 121.32 64.1872 122.671 62.1345 123.596C60.0818 124.521 57.8545 125 55.6014 125C53.3482 125 51.1209 124.521 49.0682 123.596C47.0155 122.671 45.1846 121.32 43.6977 119.635C42.7953 118.66 41.6999 117.882 40.4803 117.349C39.2608 116.817 37.9437 116.542 36.6122 116.542C35.2807 116.542 33.9638 116.817 32.7442 117.349C31.5247 117.882 30.4291 118.66 29.5267 119.635L24.7653 115.57C26.2572 113.893 28.0897 112.55 30.1417 111.63C32.1937 110.71 34.4186 110.234 36.6689 110.234C38.9193 110.234 41.144 110.71 43.196 111.63C45.2481 112.55 47.0807 113.893 48.5726 115.57C49.4727 116.549 50.5674 117.331 51.7872 117.865C53.007 118.4 54.3253 118.676 55.6581 118.676C56.9909 118.676 58.309 118.4 59.5288 117.865C60.7486 117.331 61.8435 116.549 62.7436 115.57C64.2355 113.893 66.068 112.55 68.12 111.63C70.172 110.71 72.3967 110.234 74.6471 110.234C76.8975 110.234 79.1223 110.71 81.1743 111.63C83.2264 112.55 85.0588 113.893 86.5507 115.57C87.4509 116.549 88.5457 117.331 89.7655 117.865C90.9853 118.4 92.3035 118.676 93.6362 118.676C94.969 118.676 96.2871 118.4 97.5069 117.865C98.7268 117.331 99.8216 116.549 100.722 115.57C102.202 113.879 104.032 112.526 106.087 111.605C108.142 110.685 110.372 110.218 112.625 110.236C114.818 110.231 116.988 110.672 119.002 111.535V101.826C117.101 100.157 114.616 99.3011 112.086 99.4437C109.555 99.5863 107.183 100.716 105.483 102.588C103.994 104.27 102.162 105.616 100.11 106.539C98.0573 107.462 95.8314 107.939 93.5797 107.939C91.3279 107.939 89.1018 107.462 87.0494 106.539C84.9971 105.616 83.1654 104.27 81.676 102.588C80.7805 101.601 79.6872 100.813 78.4668 100.273C77.2463 99.7335 75.9259 99.4546 74.5905 99.4546C73.2551 99.4546 71.9345 99.7335 70.7141 100.273C69.4936 100.813 68.4005 101.601 67.505 102.588C66.0131 104.266 64.1805 105.609 62.1284 106.529C60.0764 107.449 57.8517 107.924 55.6014 107.924C53.351 107.924 51.1263 107.449 49.0743 106.529C47.0222 105.609 45.1896 104.266 43.6977 102.588C42.8022 101.601 41.7091 100.813 40.4886 100.273C39.2682 99.7335 37.9476 99.4546 36.6122 99.4546C35.2768 99.4546 33.9564 99.7335 32.7359 100.273C31.5155 100.813 30.4222 101.601 29.5267 102.588L24 100.556V82.3518L24.7653 81.4769C26.2522 79.791 28.0831 78.4404 30.1358 77.5152C32.1885 76.59 34.4158 76.1115 36.6689 76.1115C38.9221 76.1115 41.1494 76.59 43.2021 77.5152C45.2548 78.4404 47.0857 79.791 48.5726 81.4769C49.4727 82.4556 50.5674 83.2372 51.7872 83.7719C53.007 84.3066 54.3253 84.5826 55.6581 84.5826C56.9909 84.5826 58.309 84.3066 59.5288 83.7719C60.7486 83.2372 61.8435 82.4556 62.7436 81.4769C64.2305 79.791 66.0614 78.4404 68.1141 77.5152C70.1668 76.59 72.3939 76.1115 74.6471 76.1115C76.9002 76.1115 79.1275 76.59 81.1802 77.5152C83.2329 78.4404 85.0638 79.791 86.5507 81.4769C87.4509 82.4556 88.5457 83.2372 89.7655 83.7719C90.9853 84.3066 92.3035 84.5826 93.6362 84.5826C94.969 84.5826 96.2871 84.3066 97.5069 83.7719C98.7268 83.2372 99.8216 82.4556 100.722 81.4769C102.945 78.9609 105.915 77.214 109.201 76.4885C112.487 75.7631 115.919 76.0966 119.002 77.441V67.7322C117.101 66.0633 114.616 65.2075 112.086 65.3501C109.555 65.4927 107.183 66.6224 105.483 68.4943C103.996 70.1801 102.165 71.5306 100.113 72.4558C98.0599 73.3811 95.8328 73.8597 93.5797 73.8597C91.3265 73.8597 89.0992 73.3811 87.0465 72.4558C84.9938 71.5306 83.1629 70.1801 81.676 68.4943C80.7736 67.5194 79.678 66.7412 78.4585 66.209C77.2389 65.6768 75.922 65.402 74.5905 65.402C73.259 65.402 71.9419 65.6768 70.7224 66.209C69.5029 66.7412 68.4074 67.5194 67.505 68.4943C66.0181 70.1801 64.1872 71.5306 62.1345 72.4558C60.0818 73.3811 57.8545 73.8597 55.6014 73.8597C53.3482 73.8597 51.1209 73.3811 49.0682 72.4558C47.0155 71.5306 45.1846 70.1801 43.6977 68.4943C42.7953 67.5194 41.6999 66.7412 40.4803 66.209C39.2608 65.6768 37.9437 65.402 36.6122 65.402C35.2807 65.402 33.9638 65.6768 32.7442 66.209C31.5247 66.7412 30.4291 67.5194 29.5267 68.4943L24 66.4622V48.2583L24.7653 47.3833C26.2572 45.7056 28.0897 44.3624 30.1417 43.4425C32.1937 42.5225 34.4186 42.0468 36.6689 42.0468C38.9193 42.0468 41.144 42.5225 43.196 43.4425C45.2481 44.3624 47.0807 45.7056 48.5726 47.3833C49.4727 48.3621 50.5674 49.1436 51.7872 49.6783C53.007 50.213 54.3253 50.4891 55.6581 50.4891C56.9909 50.4891 58.309 50.213 59.5288 49.6783C60.7486 49.1436 61.8435 48.3621 62.7436 47.3833C64.2355 45.7056 66.068 44.3624 68.12 43.4425C70.172 42.5225 72.3967 42.0468 74.6471 42.0468C76.8975 42.0468 79.1223 42.5225 81.1743 43.4425C83.2264 44.3624 85.0588 45.7056 86.5507 47.3833C87.4509 48.3621 88.5457 49.1436 89.7655 49.6783C90.9853 50.213 92.3035 50.4891 93.6362 50.4891C94.969 50.4891 96.2871 50.213 97.5069 49.6783C98.7268 49.1436 99.8216 48.3621 100.722 47.3833C102.202 45.6917 104.032 44.3391 106.087 43.4183C108.142 42.4976 110.372 42.0305 112.625 42.0491C114.818 42.0434 116.988 42.4853 119.002 43.3475V33.6387C117.25 32.0782 114.976 31.223 112.625 31.2397C111.274 31.2222 109.934 31.4984 108.701 32.0492C107.467 32.6 106.369 33.4122 105.483 34.4289C103.991 36.1067 102.159 37.4499 100.107 38.3698C98.0547 39.2898 95.83 39.7655 93.5797 39.7655C91.3293 39.7655 89.1044 39.2898 87.0524 38.3698C85.0004 37.4499 83.1679 36.1067 81.676 34.4289C80.7805 33.4425 79.6872 32.6539 78.4668 32.1143C77.2463 31.5746 75.9259 31.2957 74.5905 31.2957C73.2551 31.2957 71.9345 31.5746 70.7141 32.1143C69.4936 32.6539 68.4005 33.4425 67.505 34.4289C66.0131 36.1067 64.1805 37.4499 62.1284 38.3698C60.0764 39.2898 57.8517 39.7655 55.6014 39.7655C53.351 39.7655 51.1263 39.2898 49.0743 38.3698C47.0222 37.4499 45.1896 36.1067 43.6977 34.4289C42.8022 33.4425 41.7091 32.6539 40.4886 32.1143C39.2682 31.5746 37.9476 31.2957 36.6122 31.2957C35.2768 31.2957 33.9564 31.5746 32.7359 32.1143C31.5155 32.6539 30.4222 33.4425 29.5267 34.4289L24.7653 30.3365C26.2572 28.6588 28.0897 27.3156 30.1417 26.3957C32.1937 25.4757 34.4186 25 36.6689 25C38.9193 25 41.144 25.4757 43.196 26.3957C45.2481 27.3156 47.0807 28.6588 48.5726 30.3365C49.4681 31.323 50.5612 32.1115 51.7817 32.6512C53.0021 33.1909 54.3227 33.4698 55.6581 33.4698C56.9935 33.4698 58.3139 33.1909 59.5344 32.6512C60.7548 32.1115 61.8481 31.323 62.7436 30.3365C64.2355 28.6588 66.068 27.3156 68.12 26.3957C70.172 25.4757 72.3967 25 74.6471 25C76.8975 25 79.1223 25.4757 81.1743 26.3957C83.2264 27.3156 85.0588 28.6588 86.5507 30.3365C87.4462 31.323 88.5395 32.1115 89.76 32.6512C90.9804 33.1909 92.3008 33.4698 93.6362 33.4698C94.9716 33.4698 96.2922 33.1909 97.5126 32.6512C98.7331 32.1115 99.8262 31.323 100.722 30.3365C102.214 28.6588 104.046 27.3156 106.098 26.3957C108.15 25.4757 110.375 25 112.625 25C114.876 25 117.1 25.4757 119.152 26.3957C121.204 27.3156 123.037 28.6588 124.529 30.3365L125.294 31.2115V49.4154L119.768 51.4475C118.865 50.4725 117.77 49.6944 116.55 49.1622C115.331 48.63 114.014 48.3552 112.682 48.3552C111.351 48.3552 110.033 48.63 108.814 49.1622C107.594 49.6944 106.499 50.4725 105.597 51.4475C104.11 53.1333 102.279 54.4839 100.226 55.4091C98.1734 56.3344 95.9461 56.813 93.693 56.813C91.4398 56.813 89.2125 56.3344 87.1598 55.4091C85.1071 54.4839 83.2762 53.1333 81.7893 51.4475C80.8869 50.4725 79.7915 49.6944 78.5719 49.1622C77.3524 48.63 76.0353 48.3552 74.7038 48.3552C73.3723 48.3552 72.0554 48.63 70.8358 49.1622C69.6163 49.6944 68.5207 50.4725 67.6183 51.4475C66.1314 53.1333 64.3005 54.4839 62.2478 55.4091C60.1951 56.3344 57.9678 56.813 55.7147 56.813C53.4615 56.813 51.2342 56.3344 49.1815 55.4091C47.1288 54.4839 45.2981 53.1333 43.8112 51.4475C42.1112 49.5756 39.7391 48.446 37.2087 48.3034C34.6783 48.1608 32.1933 49.0165 30.292 50.6854V60.3942C32.3042 59.5223 34.4746 59.0709 36.6689 59.0677C38.9248 59.0487 41.1579 59.5185 43.2133 60.4445C45.2688 61.3704 47.0975 62.7304 48.5726 64.4301C49.4727 65.4089 50.5674 66.1904 51.7872 66.7251C53.007 67.2598 54.3253 67.5359 55.6581 67.5359C56.9909 67.5359 58.309 67.2598 59.5288 66.7251C60.7486 66.1904 61.8435 65.4089 62.7436 64.4301C64.2305 62.7443 66.0614 61.3937 68.1141 60.4685C70.1668 59.5433 72.3939 59.0647 74.6471 59.0647C76.9002 59.0647 79.1275 59.5433 81.1802 60.4685C83.2329 61.3937 85.0638 62.7443 86.5507 64.4301C87.4509 65.4089 88.5457 66.1904 89.7655 66.7251C90.9853 67.2598 92.3035 67.5359 93.6362 67.5359C94.969 67.5359 96.2871 67.2598 97.5069 66.7251C98.7268 66.1904 99.8216 65.4089 100.722 64.4301C102.209 62.7443 104.04 61.3937 106.092 60.4685C108.145 59.5433 110.372 59.0647 112.625 59.0647C114.879 59.0647 117.106 59.5433 119.159 60.4685C121.211 61.3937 123.042 62.7443 124.529 64.4301L125.294 65.3051V83.5089L119.768 85.541C118.872 84.5545 117.779 83.766 116.558 83.2263C115.338 82.6867 114.017 82.4078 112.682 82.4078C111.347 82.4078 110.026 82.6867 108.806 83.2263C107.585 83.766 106.492 84.5545 105.597 85.541C104.105 87.2187 102.272 88.562 100.22 89.482C98.168 90.4019 95.9433 90.8776 93.693 90.8776C91.4426 90.8776 89.2179 90.4019 87.1659 89.482C85.1138 88.562 83.2812 87.2187 81.7893 85.541C80.8938 84.5545 79.8007 83.766 78.5802 83.2263C77.3598 82.6867 76.0392 82.4078 74.7038 82.4078C73.3684 82.4078 72.048 82.6867 70.8275 83.2263C69.6071 83.766 68.5138 84.5545 67.6183 85.541C66.1264 87.2187 64.2939 88.562 62.2419 89.482C60.1899 90.4019 57.965 90.8776 55.7147 90.8776C53.4643 90.8776 51.2396 90.4019 49.1876 89.482C47.1355 88.562 45.3031 87.2187 43.8112 85.541C42.9252 84.5242 41.827 83.7122 40.5935 83.1614C39.3599 82.6106 38.0207 82.3343 36.6689 82.3518C34.3179 82.3351 32.0447 83.1903 30.292 84.7508V94.4595C32.3062 93.5974 34.4765 93.1555 36.6689 93.1613C38.9248 93.1423 41.1579 93.6121 43.2133 94.5381C45.2688 95.464 47.0975 96.824 48.5726 98.5237C49.4704 99.5063 50.5643 100.291 51.7844 100.828C53.0046 101.366 54.324 101.643 55.6581 101.643C56.9921 101.643 58.3115 101.366 59.5316 100.828C60.7517 100.291 61.8458 99.5063 62.7436 98.5237C64.2355 96.8459 66.068 95.5027 68.12 94.5828C70.172 93.6628 72.3967 93.1871 74.6471 93.1871C76.8975 93.1871 79.1223 93.6628 81.1743 94.5828C83.2264 95.5027 85.0588 96.8459 86.5507 98.5237C87.4462 99.5101 88.5395 100.299 89.76 100.838C90.9804 101.378 92.3008 101.657 93.6362 101.657C94.9716 101.657 96.2922 101.378 97.5126 100.838C98.7331 100.299 99.8262 99.5101 100.722 98.5237C102.211 96.8419 104.043 95.495 106.095 94.5724C108.148 93.6499 110.374 93.1727 112.625 93.1727C114.877 93.1727 117.103 93.6499 119.156 94.5724C121.208 95.495 123.04 96.8419 124.529 98.5237L125.294 99.3986V117.574L119.768 119.606C118.865 118.631 117.77 117.853 116.55 117.321C115.331 116.789 114.014 116.514 112.682 116.514C111.351 116.514 110.033 116.789 108.814 117.321C107.594 117.853 106.499 118.631 105.597 119.606C104.121 121.306 102.293 122.666 100.237 123.592C98.1819 124.518 95.9489 124.988 93.693 124.969" fill="#FF5F46"/>
</svg>
