<svg width="150" height="150" viewBox="0 0 150 150" fill="none" xmlns="http://www.w3.org/2000/svg">
<path d="M133 65.2001L130.9 67.3001L137 73.4001H118.6V75.0001C118.6 105.9 113 124.9 109 124.9C105.1 124.9 99.6 106.5 99.4 76.5001H113.9V73.5001H99.4C99.6 43.5001 105 25.1001 109 25.1001C110.4 25.1001 112.8 28.2001 114.9 36.8001C116.9 44.9001 118.2 56.0001 118.5 68.2001L121.5 68.1001C121 51.0001 117.8 22.1001 109 22.1001C100.9 22.1001 96.6 47.7001 96.4 73.5001H87.1V75.0001C87.1 105.9 81.5 124.9 77.5 124.9C73.6 124.9 68.1 106.5 67.9 76.5001H82.4V73.5001H67.9C68.1 43.5001 73.5 25.1001 77.5 25.1001C78.9 25.1001 81.3 28.2001 83.4 36.8001C85.4 44.9001 86.7 56.0001 87 68.2001L90 68.1001C89.5 51.0001 86.3 22.1001 77.5 22.1001C69.4 22.1001 65.1 47.7001 64.9 73.5001H55.5V75.0001C55.5 105.9 49.9 124.9 45.9 124.9C42 124.9 36.5 106.5 36.3 76.5001H50.4V73.5001H36.4C36.6 43.5001 42 25.1001 46 25.1001C47.4 25.1001 49.8 28.2001 51.9 36.8001C53.9 44.9001 55.2 56.0001 55.5 68.2001L58.5 68.1001C58 51.0001 54.8 22.1001 46 22.1001C37.9 22.1001 33.6 47.7001 33.4 73.5001H25.4C24.7 69.1001 20.9 65.8001 16.3 65.8001C11.2 65.8001 7.09998 69.9001 7.09998 75.0001C7.09998 80.1001 11.2 84.2001 16.3 84.2001C20.9 84.2001 24.6 80.9001 25.4 76.5001H33.4C33.6 102.3 37.9 127.9 46 127.9C54.1 127.9 58.4 102.3 58.6 76.5001H65C65.2 102.3 69.5 127.9 77.6 127.9C85.7 127.9 90 102.3 90.2 76.5001H96.6C96.8 102.3 101.1 127.9 109.2 127.9C117.3 127.9 121.6 102.3 121.8 76.5001H137.2L131 82.7001L133.1 84.8001L142.9 75.0001L133 65.2001ZM16.4 81.2001C13 81.2001 10.2 78.4001 10.2 75.0001C10.2 71.6001 13 68.8001 16.4 68.8001C19.8 68.8001 22.6 71.6001 22.6 75.0001C22.6 78.4001 19.8 81.2001 16.4 81.2001Z" fill="#FF5F46"/>
</svg>
