<svg width="150" height="150" viewBox="0 0 150 150" fill="none" xmlns="http://www.w3.org/2000/svg">
<path d="M133 65.2L130.9 67.3L137 73.4H118.6V75C118.6 105.9 113 124.9 109 124.9C105.1 124.9 99.6 106.5 99.4 76.5H113.9V73.5H99.4C99.6 43.5 105 25.1 109 25.1C110.4 25.1 112.8 28.2 114.9 36.8C116.9 44.9 118.2 56 118.5 68.2L121.5 68.1C121 51 117.8 22.1 109 22.1C100.9 22.1 96.6 47.7 96.4 73.5H87.1V75C87.1 105.9 81.5 124.9 77.5 124.9C73.6 124.9 68.1 106.5 67.9 76.5H82.4V73.5H67.9C68.1 43.5 73.5 25.1 77.5 25.1C78.9 25.1 81.3 28.2 83.4 36.8C85.4 44.9 86.7 56 87 68.2L90 68.1C89.5 51 86.3 22.1 77.5 22.1C69.4 22.1 65.1 47.7 64.9 73.5H55.5V75C55.5 105.9 49.9 124.9 45.9 124.9C42 124.9 36.5 106.5 36.3 76.5H50.4V73.5H36.4C36.6 43.5 42 25.1 46 25.1C47.4 25.1 49.8 28.2 51.9 36.8C53.9 44.9 55.2 56 55.5 68.2L58.5 68.1C58 51 54.8 22.1 46 22.1C37.9 22.1 33.6 47.7 33.4 73.5H25.4C24.7 69.1 20.9 65.8 16.3 65.8C11.2 65.8 7.09998 69.9 7.09998 75C7.09998 80.1 11.2 84.2 16.3 84.2C20.9 84.2 24.6 80.9 25.4 76.5H33.4C33.6 102.3 37.9 127.9 46 127.9C54.1 127.9 58.4 102.3 58.6 76.5H65C65.2 102.3 69.5 127.9 77.6 127.9C85.7 127.9 90 102.3 90.2 76.5H96.6C96.8 102.3 101.1 127.9 109.2 127.9C117.3 127.9 121.6 102.3 121.8 76.5H137.2L131 82.7L133.1 84.8L142.9 75L133 65.2ZM16.4 81.2C13 81.2 10.2 78.4 10.2 75C10.2 71.6 13 68.8 16.4 68.8C19.8 68.8 22.6 71.6 22.6 75C22.6 78.4 19.8 81.2 16.4 81.2Z" fill="white"/>
</svg>
