<svg width="1131" height="558" viewBox="0 0 1131 558" fill="none" xmlns="http://www.w3.org/2000/svg">
<g filter="url(#filter0_dddddd_1110_11769)">
<path d="M148 116.336C148 77.4903 179.49 46 218.336 46H339.664C378.51 46 410 77.4903 410 116.336V237.664C410 276.51 378.51 308 339.664 308H218.336C179.49 308 148 276.51 148 237.664V116.336Z" fill="white"/>
</g>
<path d="M346.502 109.5H250.877L250.921 148.875L307.127 148.931L307.172 205.181L346.591 205.125L346.502 109.5Z" fill="#FF5F46"/>
<path d="M250.877 148.875H211.502L211.502 244.524H307.083L307.127 205.125H250.921L250.877 148.875Z" fill="#FABFBA"/>
<path d="M516.173 215.825C508.518 215.825 501.894 214.169 496.301 210.857C490.781 207.471 486.512 202.798 483.494 196.836C480.55 190.801 479.078 183.846 479.078 175.97C479.078 168.022 480.55 161.066 483.494 155.105C486.512 149.07 490.781 144.359 496.301 140.974C501.894 137.588 508.518 135.895 516.173 135.895C525.373 135.895 532.88 138.177 538.694 142.74C544.509 147.23 548.189 153.596 549.734 161.839H535.162C534.131 157.497 532.034 154.074 528.869 151.572C525.704 149.07 521.435 147.818 516.062 147.818C511.205 147.818 507.01 148.959 503.477 151.241C500.018 153.449 497.331 156.687 495.418 160.956C493.578 165.151 492.658 170.156 492.658 175.97C492.658 181.785 493.578 186.79 495.418 190.985C497.331 195.106 500.018 198.308 503.477 200.59C507.01 202.798 511.205 203.902 516.062 203.902C521.435 203.902 525.704 202.761 528.869 200.479C532.034 198.124 534.131 194.886 535.162 190.764H549.734C548.262 198.566 544.582 204.711 538.694 209.201C532.88 213.617 525.373 215.825 516.173 215.825ZM558.944 214.5V135.012H572.192V214.5H558.944ZM609.718 215.825C604.198 215.825 599.34 214.647 595.145 212.292C590.95 209.863 587.675 206.478 585.319 202.135C582.964 197.793 581.787 192.788 581.787 187.121C581.787 181.233 582.927 176.081 585.209 171.665C587.564 167.249 590.839 163.79 595.035 161.287C599.303 158.785 604.235 157.534 609.828 157.534C615.275 157.534 620.022 158.748 624.07 161.177C628.118 163.606 631.246 166.881 633.454 171.002C635.662 175.05 636.766 179.614 636.766 184.692C636.766 185.428 636.766 186.238 636.766 187.121C636.766 188.004 636.692 188.924 636.545 189.881H591.281V181.38H623.407C623.26 177.332 621.899 174.167 619.323 171.886C616.747 169.53 613.545 168.353 609.718 168.353C606.995 168.353 604.492 168.978 602.211 170.23C599.929 171.481 598.126 173.358 596.801 175.86C595.476 178.289 594.814 181.38 594.814 185.134V188.335C594.814 191.794 595.439 194.775 596.691 197.278C598.015 199.78 599.782 201.694 601.99 203.018C604.271 204.27 606.811 204.895 609.607 204.895C612.699 204.895 615.238 204.233 617.225 202.908C619.286 201.583 620.795 199.817 621.751 197.609H635.22C634.19 201.068 632.497 204.196 630.142 206.993C627.787 209.716 624.879 211.887 621.42 213.506C617.961 215.052 614.06 215.825 609.718 215.825ZM664.233 215.825C659.67 215.825 655.879 215.052 652.862 213.506C649.844 211.961 647.599 209.9 646.127 207.324C644.655 204.748 643.919 201.951 643.919 198.934C643.919 195.401 644.803 192.346 646.569 189.77C648.409 187.194 651.095 185.207 654.628 183.809C658.161 182.337 662.503 181.601 667.655 181.601H681.676C681.676 178.657 681.271 176.228 680.462 174.314C679.652 172.327 678.401 170.855 676.708 169.898C675.015 168.942 672.844 168.463 670.195 168.463C667.177 168.463 664.601 169.162 662.467 170.561C660.332 171.886 659.007 173.946 658.492 176.743H645.465C645.907 172.769 647.231 169.383 649.439 166.586C651.647 163.716 654.555 161.508 658.161 159.962C661.841 158.343 665.852 157.534 670.195 157.534C675.42 157.534 679.873 158.454 683.553 160.294C687.233 162.06 690.03 164.636 691.943 168.022C693.931 171.334 694.924 175.345 694.924 180.055V214.5H683.663L682.339 205.558C681.603 207.03 680.646 208.391 679.468 209.642C678.364 210.894 677.076 211.998 675.604 212.954C674.132 213.838 672.439 214.537 670.526 215.052C668.686 215.567 666.588 215.825 664.233 215.825ZM667.214 205.337C669.348 205.337 671.225 204.969 672.844 204.233C674.537 203.423 675.972 202.319 677.15 200.921C678.401 199.449 679.358 197.83 680.02 196.063C680.683 194.297 681.124 192.42 681.345 190.433V190.212H669.091C666.515 190.212 664.38 190.543 662.687 191.206C660.995 191.794 659.78 192.678 659.044 193.855C658.308 195.033 657.94 196.394 657.94 197.94C657.94 199.486 658.308 200.81 659.044 201.914C659.78 203.018 660.847 203.865 662.246 204.454C663.644 205.042 665.3 205.337 667.214 205.337ZM705.768 214.5V158.858H717.47L718.464 168.132C720.156 164.894 722.585 162.318 725.75 160.404C728.915 158.49 732.668 157.534 737.011 157.534C741.5 157.534 745.328 158.49 748.492 160.404C751.657 162.244 754.086 164.967 755.779 168.574C757.545 172.18 758.428 176.67 758.428 182.042V214.5H745.18V183.257C745.18 178.62 744.15 175.05 742.089 172.548C740.028 170.046 736.974 168.794 732.926 168.794C730.276 168.794 727.884 169.42 725.75 170.671C723.689 171.922 722.033 173.762 720.782 176.191C719.604 178.546 719.016 181.417 719.016 184.802V214.5H705.768ZM793.166 214.5V137.22H820.877C826.986 137.22 832.027 138.287 836.002 140.422C840.05 142.482 843.03 145.279 844.944 148.812C846.931 152.271 847.925 156.209 847.925 160.625C847.925 164.746 846.968 168.574 845.054 172.106C843.141 175.639 840.16 178.473 836.112 180.607C832.064 182.742 826.875 183.809 820.546 183.809H806.414V214.5H793.166ZM833.462 214.5L817.234 180.386H831.586L848.587 214.5H833.462ZM806.414 173.983H819.994C824.925 173.983 828.531 172.806 830.813 170.45C833.168 168.022 834.346 164.857 834.346 160.956C834.346 157.129 833.205 154.074 830.923 151.793C828.642 149.438 824.998 148.26 819.994 148.26H806.414V173.983ZM880.476 215.825C875.176 215.825 870.392 214.61 866.124 212.182C861.928 209.679 858.616 206.257 856.188 201.914C853.832 197.498 852.655 192.457 852.655 186.79C852.655 180.975 853.869 175.897 856.298 171.554C858.727 167.138 862.039 163.716 866.234 161.287C870.503 158.785 875.287 157.534 880.586 157.534C885.885 157.534 890.632 158.785 894.828 161.287C899.096 163.716 902.408 167.102 904.764 171.444C907.192 175.786 908.407 180.865 908.407 186.679C908.407 192.494 907.192 197.572 904.764 201.914C902.335 206.257 898.986 209.679 894.717 212.182C890.522 214.61 885.775 215.825 880.476 215.825ZM880.476 204.454C883.125 204.454 885.517 203.791 887.652 202.466C889.86 201.142 891.626 199.154 892.951 196.505C894.276 193.855 894.938 190.58 894.938 186.679C894.938 182.778 894.276 179.54 892.951 176.964C891.7 174.314 889.97 172.327 887.762 171.002C885.628 169.678 883.236 169.015 880.586 169.015C878.01 169.015 875.618 169.678 873.41 171.002C871.202 172.327 869.436 174.314 868.111 176.964C866.786 179.54 866.124 182.778 866.124 186.679C866.124 190.58 866.786 193.855 868.111 196.505C869.436 199.154 871.165 201.142 873.3 202.466C875.508 203.791 877.9 204.454 880.476 204.454ZM944.007 215.825C938.708 215.825 933.924 214.61 929.655 212.182C925.46 209.679 922.148 206.257 919.719 201.914C917.364 197.498 916.187 192.457 916.187 186.79C916.187 180.975 917.401 175.897 919.83 171.554C922.259 167.138 925.571 163.716 929.766 161.287C934.035 158.785 938.819 157.534 944.118 157.534C949.417 157.534 954.164 158.785 958.359 161.287C962.628 163.716 965.94 167.102 968.295 171.444C970.724 175.786 971.939 180.865 971.939 186.679C971.939 192.494 970.724 197.572 968.295 201.914C965.867 206.257 962.518 209.679 958.249 212.182C954.054 214.61 949.307 215.825 944.007 215.825ZM944.007 204.454C946.657 204.454 949.049 203.791 951.183 202.466C953.391 201.142 955.158 199.154 956.483 196.505C957.807 193.855 958.47 190.58 958.47 186.679C958.47 182.778 957.807 179.54 956.483 176.964C955.231 174.314 953.502 172.327 951.294 171.002C949.159 169.678 946.767 169.015 944.118 169.015C941.542 169.015 939.15 169.678 936.942 171.002C934.734 172.327 932.967 174.314 931.643 176.964C930.318 179.54 929.655 182.778 929.655 186.679C929.655 190.58 930.318 193.855 931.643 196.505C932.967 199.154 934.697 201.142 936.831 202.466C939.039 203.791 941.431 204.454 944.007 204.454ZM981.595 214.5V158.858H993.297L994.401 166.476C996.168 163.679 998.486 161.508 1001.36 159.962C1004.3 158.343 1007.65 157.534 1011.4 157.534C1014.2 157.534 1016.7 157.902 1018.91 158.638C1021.19 159.374 1023.18 160.478 1024.87 161.95C1026.64 163.422 1028.07 165.262 1029.18 167.47C1031.24 164.378 1033.92 161.95 1037.24 160.183C1040.55 158.417 1044.16 157.534 1048.06 157.534C1052.69 157.534 1056.63 158.49 1059.87 160.404C1063.11 162.244 1065.57 165.004 1067.27 168.684C1068.96 172.29 1069.8 176.743 1069.8 182.042V214.5H1056.67V183.367C1056.67 178.657 1055.71 175.05 1053.8 172.548C1051.88 170.046 1049.05 168.794 1045.3 168.794C1042.72 168.794 1040.44 169.42 1038.45 170.671C1036.54 171.922 1035.03 173.762 1033.92 176.191C1032.82 178.546 1032.27 181.454 1032.27 184.913V214.5H1019.13V183.367C1019.13 178.657 1018.17 175.05 1016.26 172.548C1014.35 170.046 1011.48 168.794 1007.65 168.794C1005.22 168.794 1003.01 169.42 1001.03 170.671C999.112 171.922 997.603 173.762 996.499 176.191C995.395 178.546 994.843 181.454 994.843 184.913V214.5H981.595ZM1102.68 215.825C1097.75 215.825 1093.44 215.052 1089.76 213.506C1086.16 211.887 1083.29 209.679 1081.15 206.882C1079.09 204.012 1077.88 200.737 1077.51 197.057H1090.76C1091.12 198.602 1091.79 200.038 1092.74 201.362C1093.7 202.614 1094.99 203.607 1096.61 204.343C1098.3 205.079 1100.29 205.447 1102.57 205.447C1104.78 205.447 1106.58 205.153 1107.98 204.564C1109.38 203.902 1110.41 203.055 1111.07 202.025C1111.73 200.994 1112.06 199.89 1112.06 198.713C1112.06 196.946 1111.59 195.585 1110.63 194.628C1109.67 193.671 1108.27 192.935 1106.43 192.42C1104.67 191.831 1102.53 191.279 1100.03 190.764C1097.38 190.249 1094.8 189.623 1092.3 188.887C1089.87 188.078 1087.67 187.084 1085.68 185.906C1083.76 184.729 1082.22 183.22 1081.04 181.38C1079.94 179.54 1079.39 177.295 1079.39 174.646C1079.39 171.407 1080.23 168.5 1081.92 165.924C1083.69 163.348 1086.19 161.324 1089.43 159.852C1092.74 158.306 1096.68 157.534 1101.24 157.534C1107.72 157.534 1112.87 159.042 1116.7 162.06C1120.6 165.004 1122.88 169.162 1123.55 174.535H1110.96C1110.59 172.474 1109.56 170.892 1107.87 169.788C1106.18 168.61 1103.93 168.022 1101.13 168.022C1098.26 168.022 1096.06 168.574 1094.51 169.678C1093.04 170.708 1092.3 172.106 1092.3 173.873C1092.3 174.977 1092.74 176.007 1093.63 176.964C1094.58 177.847 1095.95 178.62 1097.71 179.282C1099.48 179.871 1101.65 180.46 1104.23 181.049C1108.35 181.858 1111.99 182.815 1115.15 183.919C1118.32 185.023 1120.82 186.642 1122.66 188.777C1124.5 190.911 1125.42 193.929 1125.42 197.83C1125.5 201.362 1124.58 204.49 1122.66 207.214C1120.82 209.937 1118.21 212.071 1114.82 213.617C1111.44 215.089 1107.39 215.825 1102.68 215.825Z" fill="#1B3139"/>
<defs>
<filter id="filter0_dddddd_1110_11769" x="0.713516" y="0.681084" width="556.573" height="556.573" filterUnits="userSpaceOnUse" color-interpolation-filters="sRGB">
<feFlood flood-opacity="0" result="BackgroundImageFix"/>
<feColorMatrix in="SourceAlpha" type="matrix" values="0 0 0 0 0 0 0 0 0 0 0 0 0 0 0 0 0 0 127 0" result="hardAlpha"/>
<feOffset dy="2.83243"/>
<feGaussianBlur stdDeviation="2.12432"/>
<feColorMatrix type="matrix" values="0 0 0 0 0.105882 0 0 0 0 0.192157 0 0 0 0 0.223529 0 0 0 0.0196802 0"/>
<feBlend mode="normal" in2="BackgroundImageFix" result="effect1_dropShadow_1110_11769"/>
<feColorMatrix in="SourceAlpha" type="matrix" values="0 0 0 0 0 0 0 0 0 0 0 0 0 0 0 0 0 0 127 0" result="hardAlpha"/>
<feOffset dy="5.66487"/>
<feGaussianBlur stdDeviation="5.66487"/>
<feColorMatrix type="matrix" values="0 0 0 0 0.105882 0 0 0 0 0.192157 0 0 0 0 0.223529 0 0 0 0.04 0"/>
<feBlend mode="normal" in2="effect1_dropShadow_1110_11769" result="effect2_dropShadow_1110_11769"/>
<feColorMatrix in="SourceAlpha" type="matrix" values="0 0 0 0 0 0 0 0 0 0 0 0 0 0 0 0 0 0 127 0" result="hardAlpha"/>
<feOffset dy="12.7459"/>
<feGaussianBlur stdDeviation="9.20541"/>
<feColorMatrix type="matrix" values="0 0 0 0 0.105882 0 0 0 0 0.192157 0 0 0 0 0.223529 0 0 0 0.035 0"/>
<feBlend mode="normal" in2="effect2_dropShadow_1110_11769" result="effect3_dropShadow_1110_11769"/>
<feColorMatrix in="SourceAlpha" type="matrix" values="0 0 0 0 0 0 0 0 0 0 0 0 0 0 0 0 0 0 127 0" result="hardAlpha"/>
<feOffset dy="22.6595"/>
<feGaussianBlur stdDeviation="16.9946"/>
<feColorMatrix type="matrix" values="0 0 0 0 0.105882 0 0 0 0 0.192157 0 0 0 0 0.223529 0 0 0 0.04 0"/>
<feBlend mode="normal" in2="effect3_dropShadow_1110_11769" result="effect4_dropShadow_1110_11769"/>
<feColorMatrix in="SourceAlpha" type="matrix" values="0 0 0 0 0 0 0 0 0 0 0 0 0 0 0 0 0 0 127 0" result="hardAlpha"/>
<feOffset dy="45.3189"/>
<feGaussianBlur stdDeviation="28.3243"/>
<feColorMatrix type="matrix" values="0 0 0 0 0.105882 0 0 0 0 0.192157 0 0 0 0 0.223529 0 0 0 0.0503198 0"/>
<feBlend mode="normal" in2="effect4_dropShadow_1110_11769" result="effect5_dropShadow_1110_11769"/>
<feColorMatrix in="SourceAlpha" type="matrix" values="0 0 0 0 0 0 0 0 0 0 0 0 0 0 0 0 0 0 127 0" result="hardAlpha"/>
<feOffset dy="101.968"/>
<feGaussianBlur stdDeviation="73.6432"/>
<feColorMatrix type="matrix" values="0 0 0 0 0.105882 0 0 0 0 0.192157 0 0 0 0 0.223529 0 0 0 0.07 0"/>
<feBlend mode="normal" in2="effect5_dropShadow_1110_11769" result="effect6_dropShadow_1110_11769"/>
<feBlend mode="normal" in="SourceGraphic" in2="effect6_dropShadow_1110_11769" result="shape"/>
</filter>
</defs>
</svg>
