<svg width="150" height="150" viewBox="0 0 150 150" fill="none" xmlns="http://www.w3.org/2000/svg">
<path d="M40.93 93.66V138H80.07V59.32H98.73V96.76H111.21V135H85.88V138H126.07V93.76H101.73V56.32H77.07V135H68V119H52.75V135H43.93V93.66H40.93ZM123.07 135H114.21V96.76H123.07V135ZM55.75 122H65V135H55.75V122Z" fill="#1B3139"/>
<path d="M21.07 81.3C24.2453 83.1933 27.8834 84.1695 31.58 84.12H43.93V59.32H70.63V56.32H40.93V81.12H31.58C27.0713 81.12 22.7473 79.3289 19.5592 76.1408C16.3711 72.9527 14.58 68.6287 14.58 64.12C14.58 59.6113 16.3711 55.2873 19.5592 52.0992C22.7473 48.9111 27.0713 47.12 31.58 47.12C33.4929 47.1149 35.3929 47.4327 37.2 48.06C37.48 48.16 37.76 48.26 38.04 48.38L40.1 49.2V47C40.1 46.94 40.1 46.87 40.1 46.73C40.4448 38.9397 43.5273 31.5209 48.8047 25.7801C54.0821 20.0393 61.2158 16.3446 68.9497 15.3468C76.6835 14.349 84.5214 16.1121 91.083 20.3255C97.6446 24.5388 102.509 30.9323 104.82 38.38C102.105 39.5871 99.634 41.2818 97.53 43.38L99.66 45.5C102.594 42.5698 106.329 40.5737 110.396 39.7633C114.462 38.953 118.678 39.3646 122.511 40.9463C126.344 42.528 129.623 45.2091 131.934 48.6515C134.246 52.0939 135.486 56.1435 135.5 60.29C135.5 60.69 135.5 61.1 135.5 61.5C134.89 72.17 125.76 80.5 114.72 80.5H109.35V83.5H114.72C127.35 83.5 137.79 73.89 138.49 61.63C138.49 61.17 138.49 60.71 138.49 60.25C138.49 53.8848 135.961 47.7803 131.461 43.2794C126.96 38.7786 120.855 36.25 114.49 36.25C112.167 36.2459 109.855 36.5828 107.63 37.25C105.125 29.2846 99.9386 22.4329 92.9518 17.8607C85.965 13.2884 77.61 11.278 69.308 12.1715C61.0061 13.065 53.2701 16.8072 47.4163 22.7614C41.5624 28.7156 37.9522 36.5141 37.2 44.83C35.3685 44.2925 33.4687 44.023 31.56 44.03C27.1677 44.0134 22.891 45.4367 19.3846 48.082C15.8782 50.7273 13.3354 54.4488 12.1454 58.6768C10.9553 62.9049 11.1837 67.4064 12.7956 71.4923C14.4074 75.5781 17.3139 79.0232 21.07 81.3V81.3Z" fill="#1B3139"/>
<path d="M71.34 93.76H49.56V96.76H71.34V93.76Z" fill="#1B3139"/>
<path d="M71.34 106.4H49.56V109.4H71.34V106.4Z" fill="#1B3139"/>
<path d="M71.34 68.49H49.56V71.49H71.34V68.49Z" fill="#1B3139"/>
<path d="M71.34 81.12H49.56V84.12H71.34V81.12Z" fill="#1B3139"/>
<path d="M105.84 106.4H85.78V109.4H105.84V106.4Z" fill="#1B3139"/>
<path d="M105.84 119.04H85.78V122.04H105.84V119.04Z" fill="#1B3139"/>
</svg>
