<svg width="150" height="150" viewBox="0 0 150 150" fill="none" xmlns="http://www.w3.org/2000/svg">
<path d="M40.9301 93.6601V138H80.0701V59.3201H98.7301V96.7601H111.21V135H85.8801V138H126.07V93.7601H101.73V56.3201H77.0701V135H68.0001V119H52.7501V135H43.9301V93.6601H40.9301ZM123.07 135H114.21V96.7601H123.07V135ZM55.7501 122H65.0001V135H55.7501V122Z" fill="#FF5F46"/>
<path d="M21.07 81.3001C24.2453 83.1934 27.8833 84.1695 31.58 84.1201H43.93V59.3201H70.63V56.3201H40.93V81.1201H31.58C27.0713 81.1201 22.7473 79.329 19.5591 76.1409C16.371 72.9528 14.58 68.6288 14.58 64.1201C14.58 59.6114 16.371 55.2874 19.5591 52.0993C22.7473 48.9111 27.0713 47.1201 31.58 47.1201C33.4928 47.115 35.3929 47.4328 37.2 48.0601C37.48 48.1601 37.76 48.2601 38.04 48.3801L40.1 49.2001V47.0001C40.1 46.9401 40.1 46.8701 40.1 46.7301C40.4448 38.9398 43.5273 31.521 48.8047 25.7801C54.0821 20.0393 61.2158 16.3447 68.9496 15.3469C76.6835 14.3491 84.5213 16.1121 91.083 20.3255C97.6446 24.5389 102.509 30.9324 104.82 38.3801C102.105 39.5872 99.634 41.2819 97.53 43.3801L99.66 45.5001C102.594 42.5699 106.329 40.5738 110.396 39.7634C114.462 38.953 118.678 39.3646 122.511 40.9464C126.344 42.5281 129.623 45.2091 131.934 48.6515C134.246 52.0939 135.486 56.1436 135.5 60.2901C135.5 60.6901 135.5 61.1001 135.5 61.5001C134.89 72.1701 125.76 80.5001 114.72 80.5001H109.35V83.5001H114.72C127.35 83.5001 137.79 73.8901 138.49 61.6301C138.49 61.1701 138.49 60.7101 138.49 60.2501C138.49 53.8849 135.961 47.7804 131.461 43.2795C126.96 38.7786 120.855 36.2501 114.49 36.2501C112.167 36.2459 109.855 36.5829 107.63 37.2501C105.125 29.2847 99.9386 22.433 92.9518 17.8607C85.965 13.2885 77.6099 11.2781 69.308 12.1716C61.0061 13.0651 53.2701 16.8072 47.4162 22.7615C41.5624 28.7157 37.9522 36.5141 37.2 44.8301C35.3684 44.2925 33.4687 44.0231 31.56 44.0301C27.1677 44.0134 22.891 45.4367 19.3846 48.082C15.8782 50.7273 13.3353 54.4489 12.1453 58.6769C10.9553 62.9049 11.1837 67.4064 12.7955 71.4923C14.4074 75.5782 17.3138 79.0233 21.07 81.3001Z" fill="#FF5F46"/>
<path d="M71.3401 93.76H49.5601V96.76H71.3401V93.76Z" fill="#FF5F46"/>
<path d="M71.3401 106.4H49.5601V109.4H71.3401V106.4Z" fill="#FF5F46"/>
<path d="M71.3401 68.49H49.5601V71.49H71.3401V68.49Z" fill="#FF5F46"/>
<path d="M71.3401 81.1201H49.5601V84.1201H71.3401V81.1201Z" fill="#FF5F46"/>
<path d="M105.84 106.4H85.78V109.4H105.84V106.4Z" fill="#FF5F46"/>
<path d="M105.84 119.04H85.78V122.04H105.84V119.04Z" fill="#FF5F46"/>
</svg>
