<svg width="150" height="150" viewBox="0 0 150 150" fill="none" xmlns="http://www.w3.org/2000/svg">
<path d="M22.64 50.47V47.47C21.4465 47.47 20.3019 46.9959 19.458 46.152C18.6141 45.3081 18.14 44.1635 18.14 42.97C18.14 41.7765 18.6141 40.6319 19.458 39.788C20.3019 38.9441 21.4465 38.47 22.64 38.47H31.86C32.4522 38.4713 33.0382 38.5897 33.5845 38.8185C34.1307 39.0472 34.6263 39.3817 35.0427 39.8028C35.4591 40.2238 35.7881 40.7231 36.0107 41.2718C36.2334 41.8205 36.3453 42.4079 36.34 43C36.3374 44.1874 35.8645 45.3253 35.0249 46.1649C34.1853 47.0045 33.0474 47.4774 31.86 47.48H26.24V67.48H22.65C21.6647 67.4813 20.6894 67.677 19.7798 68.0559C18.8703 68.4347 18.0445 68.9894 17.3496 69.6879C16.6548 70.3865 16.1046 71.2153 15.7306 72.1268C15.3565 73.0383 15.1661 74.0147 15.17 75C15.17 76.9838 15.9581 78.8864 17.3608 80.2892C18.7636 81.6919 20.6662 82.48 22.65 82.48V79.48C21.4565 79.48 20.3119 79.0059 19.468 78.162C18.6241 77.3181 18.15 76.1735 18.15 74.98C18.15 73.7865 18.6241 72.6419 19.468 71.798C20.3119 70.9541 21.4565 70.48 22.65 70.48H31.86C33.0535 70.48 34.1981 70.9541 35.042 71.798C35.8859 72.6419 36.36 73.7865 36.36 74.98C36.36 76.1735 35.8859 77.3181 35.042 78.162C34.1981 79.0059 33.0535 79.48 31.86 79.48H26.24V99.68H22.92C21.8723 99.6848 20.836 99.8976 19.8712 100.306C18.9065 100.715 18.0325 101.311 17.3 102.06C16.6069 102.755 16.0611 103.582 15.6951 104.493C15.3291 105.404 15.1505 106.379 15.17 107.36C15.217 109.312 16.0258 111.169 17.4235 112.533C18.8212 113.897 20.697 114.661 22.65 114.66V111.66C21.4797 111.658 20.3566 111.199 19.5198 110.381C18.683 109.562 18.1987 108.45 18.17 107.28C18.1608 106.701 18.2685 106.127 18.4868 105.59C18.705 105.054 19.0292 104.568 19.44 104.16C19.8934 103.696 20.4345 103.326 21.0318 103.072C21.6291 102.817 22.2709 102.684 22.92 102.68H31.86C32.4447 102.681 33.0233 102.799 33.5623 103.025C34.1013 103.252 34.5899 103.583 35 104C35.8089 104.793 36.2785 105.868 36.31 107C36.3226 107.581 36.2175 108.159 36.001 108.699C35.7845 109.238 35.461 109.729 35.05 110.14C34.5991 110.605 34.06 110.976 33.4641 111.23C32.8683 111.484 32.2278 111.616 31.58 111.62H26.25V129.2H104.25C106.191 129.197 108.051 128.425 109.423 127.053C110.795 125.681 111.567 123.821 111.57 121.88V80.68H108.57V121.92C108.567 123.065 108.111 124.162 107.302 124.972C106.492 125.781 105.395 126.237 104.25 126.24H48.15V23.76H104.23C105.377 23.7627 106.475 24.22 107.285 25.0318C108.095 25.8435 108.55 26.9434 108.55 28.09V49.23L117.28 57.91L119.39 55.78L112.17 48.61L121.29 39.5L130.59 48.8L74 105.37L61.89 108.18L64.69 96.06L105.69 55.06L103.57 52.94L62 94.55L57.92 112.18L75.56 108.1L134.85 48.8L121.29 35.25L111.55 45V28.09C111.547 26.1485 110.776 24.2871 109.404 22.9134C108.032 21.5396 106.172 20.7653 104.23 20.76H26.23V31H29.23V23.76H45.13V126.24H29.25V114.66H31.61C32.6588 114.657 33.6964 114.444 34.6616 114.033C35.6268 113.623 36.5001 113.023 37.23 112.27C37.9172 111.578 38.4581 110.755 38.8206 109.849C39.1831 108.944 39.3598 107.975 39.34 107C39.2829 105.053 38.4703 103.204 37.0742 101.845C35.6781 100.487 33.8081 99.7244 31.86 99.72H29.24V82.49H31.86C32.8431 82.49 33.8166 82.2962 34.7248 81.9197C35.633 81.5431 36.458 80.9913 37.1527 80.2956C37.8474 79.6 38.3982 78.7742 38.7735 77.8655C39.1488 76.9569 39.3413 75.9831 39.34 75C39.34 73.0153 38.5523 71.1117 37.1498 69.7073C35.7473 68.303 33.8447 67.5127 31.86 67.51H29.24V50.51H31.86C32.8444 50.5087 33.819 50.3133 34.7279 49.9351C35.6367 49.5568 36.4621 49.0031 37.1568 48.3056C37.8516 47.6081 38.402 46.7805 38.7766 45.8701C39.1512 44.9598 39.3426 43.9845 39.34 43C39.3347 41.0169 38.5453 39.1163 37.1439 37.7131C35.7426 36.3099 33.8431 35.5179 31.86 35.51H22.64C20.6561 35.5153 18.7551 36.3064 17.3532 37.7102C15.9512 39.114 15.1626 41.0161 15.16 43C15.1626 44.983 15.9516 46.884 17.3538 48.2862C18.756 49.6884 20.657 50.4774 22.64 50.48V50.47Z" fill="white"/>
<path d="M65.75 35.85L57.77 43.63L65.75 51.41L67.84 49.26L62.07 43.63L67.84 38L65.75 35.85Z" fill="white"/>
<path d="M90.2 51.41L98.18 43.63L90.2 35.85L88.11 38L93.88 43.63L88.11 49.26L90.2 51.41Z" fill="white"/>
<path d="M81.8976 32.0388L71.3488 53.9186L74.0511 55.2215L84.6 33.3417L81.8976 32.0388Z" fill="white"/>
</svg>
