<svg width="150" height="150" viewBox="0 0 150 150" fill="none" xmlns="http://www.w3.org/2000/svg">
<path d="M22.64 50.4698V47.4698C21.4466 47.4698 20.302 46.9957 19.4581 46.1517C18.6141 45.3078 18.14 44.1632 18.14 42.9698C18.14 41.7763 18.6141 40.6317 19.4581 39.7878C20.302 38.9439 21.4466 38.4698 22.64 38.4698H31.86C32.4522 38.4711 33.0383 38.5895 33.5845 38.8182C34.1307 39.0469 34.6263 39.3815 35.0427 39.8025C35.4591 40.2236 35.7881 40.7228 36.0107 41.2715C36.2334 41.8203 36.3453 42.4076 36.34 42.9998C36.3374 44.1871 35.8645 45.3251 35.025 46.1647C34.1854 47.0043 33.0474 47.4771 31.86 47.4798H26.24V67.4798H22.65C21.6647 67.4811 20.6894 67.6768 19.7799 68.0556C18.8703 68.4345 18.0445 68.9891 17.3496 69.6877C16.6548 70.3862 16.1046 71.215 15.7306 72.1266C15.3566 73.0381 15.1661 74.0145 15.17 74.9998C15.17 76.9836 15.9581 78.8862 17.3609 80.2889C18.7636 81.6917 20.6662 82.4798 22.65 82.4798V79.4798C21.4566 79.4798 20.312 79.0057 19.4681 78.1617C18.6241 77.3178 18.15 76.1732 18.15 74.9798C18.15 73.7863 18.6241 72.6417 19.4681 71.7978C20.312 70.9539 21.4566 70.4798 22.65 70.4798H31.86C33.0535 70.4798 34.1981 70.9539 35.042 71.7978C35.8859 72.6417 36.36 73.7863 36.36 74.9798C36.36 76.1732 35.8859 77.3178 35.042 78.1617C34.1981 79.0057 33.0535 79.4798 31.86 79.4798H26.24V99.6798H22.92C21.8723 99.6845 20.836 99.8973 19.8712 100.306C18.9065 100.714 18.0325 101.311 17.3 102.06C16.607 102.755 16.0611 103.582 15.6951 104.493C15.3292 105.403 15.1506 106.379 15.17 107.36C15.217 109.312 16.0258 111.169 17.4235 112.533C18.8212 113.897 20.697 114.66 22.65 114.66V111.66C21.4798 111.658 20.3566 111.198 19.5198 110.38C18.683 109.562 18.1987 108.45 18.17 107.28C18.1608 106.701 18.2686 106.126 18.4868 105.59C18.705 105.054 19.0292 104.568 19.44 104.16C19.8935 103.695 20.4345 103.325 21.0318 103.071C21.6292 102.817 22.2709 102.684 22.92 102.68H31.86C32.4447 102.681 33.0233 102.799 33.5623 103.025C34.1013 103.252 34.59 103.583 35 104C35.8089 104.792 36.2786 105.868 36.31 107C36.3227 107.581 36.2176 108.159 36.001 108.699C35.7845 109.238 35.461 109.728 35.05 110.14C34.5991 110.605 34.06 110.975 33.4642 111.229C32.8683 111.484 32.2278 111.616 31.58 111.62H26.25V129.2H104.25C106.191 129.197 108.051 128.425 109.423 127.053C110.795 125.681 111.567 123.82 111.57 121.88V80.6798H108.57V121.92C108.567 123.065 108.111 124.162 107.302 124.972C106.492 125.781 105.395 126.237 104.25 126.24H48.15V23.7598H104.23C105.377 23.7624 106.475 24.2198 107.285 25.0315C108.095 25.8433 108.55 26.9431 108.55 28.0898V49.2298L117.28 57.9098L119.39 55.7798L112.17 48.6098L121.29 39.4998L130.59 48.7998L74 105.37L61.89 108.18L64.69 96.0598L105.69 55.0598L103.57 52.9398L62 94.5498L57.92 112.18L75.56 108.1L134.85 48.7998L121.29 35.2498L111.55 44.9998V28.0898C111.547 26.1483 110.776 24.2869 109.404 22.9131C108.032 21.5393 106.172 20.7651 104.23 20.7598H26.23V30.9998H29.23V23.7598H45.13V126.24H29.25V114.66H31.61C32.6589 114.657 33.6965 114.443 34.6616 114.033C35.6268 113.622 36.5001 113.023 37.23 112.27C37.9172 111.578 38.4582 110.755 38.8207 109.849C39.1832 108.944 39.3598 107.975 39.34 107C39.2829 105.052 38.4703 103.204 37.0742 101.845C35.6781 100.486 33.8082 99.7241 31.86 99.7198H29.24V82.4898H31.86C32.8432 82.4898 33.8167 82.296 34.7248 81.9194C35.633 81.5429 36.458 80.991 37.1527 80.2954C37.8474 79.5997 38.3982 78.774 38.7735 77.8653C39.1488 76.9566 39.3413 75.9829 39.34 74.9998C39.34 73.015 38.5523 71.1114 37.1498 69.7071C35.7473 68.3027 33.8448 67.5124 31.86 67.5098H29.24V50.5098H31.86C32.8445 50.5085 33.819 50.3131 34.7279 49.9348C35.6368 49.5566 36.4622 49.0029 37.1569 48.3054C37.8516 47.6079 38.402 46.7803 38.7766 45.8699C39.1512 44.9595 39.3427 43.9842 39.34 42.9998C39.3348 41.0166 38.5453 39.1161 37.144 37.7129C35.7426 36.3097 33.8431 35.5177 31.86 35.5098H22.64C20.6561 35.5151 18.7551 36.3062 17.3532 37.71C15.9513 39.1138 15.1627 41.0158 15.16 42.9998C15.1627 44.9828 15.9516 46.8838 17.3538 48.286C18.756 49.6882 20.657 50.4771 22.64 50.4798V50.4698Z" fill="#FF5F46"/>
<path d="M65.75 35.8501L57.77 43.6301L65.75 51.4101L67.84 49.2601L62.07 43.6301L67.84 38.0001L65.75 35.8501Z" fill="#FF5F46"/>
<path d="M90.2 51.4101L98.18 43.6301L90.2 35.8501L88.11 38.0001L93.88 43.6301L88.11 49.2601L90.2 51.4101Z" fill="#FF5F46"/>
<path d="M81.8976 32.0387L71.3488 53.9185L74.0511 55.2213L84.5999 33.3415L81.8976 32.0387Z" fill="#FF5F46"/>
</svg>
