<?xml version="1.0" encoding="utf-8"?>
<!-- Generator: Adobe Illustrator 19.2.0, SVG Export Plug-In . SVG Version: 6.00 Build 0)  -->
<svg version="1.1" xmlns="http://www.w3.org/2000/svg" xmlns:xlink="http://www.w3.org/1999/xlink" x="0px" y="0px"
	 viewBox="0 0 792 612" style="enable-background:new 0 0 792 612;" xml:space="preserve">
<style type="text/css">
	.st0{fill-rule:evenodd;clip-rule:evenodd;fill:#E26A1A;}
	.st1{fill-rule:evenodd;clip-rule:evenodd;fill:#424143;}
	.st2{fill:#424143;}
</style>
<g id="Layer_1">
</g>
<g id="Isolation_Mode">
	<path class="st0" d="M524.9,307.7c-0.3-0.6-0.4-0.9-0.5-1.1c-3.9-7.4-7.8-14.8-11.7-22.2c-0.4-0.7-0.3-1.2,0.2-1.8
		c6.2-7.2,12.3-14.5,18.5-21.7c0.2-0.3,0.4-0.5,0.5-1c-1.8,0.5-3.6,0.9-5.4,1.4c-7.5,2-15,4-22.4,6c-0.7,0.2-1,0-1.4-0.6
		c-4.2-7.1-8.5-14.2-12.8-21.2c-0.2-0.4-0.5-0.7-0.9-1c-0.3,1.9-0.7,3.8-1,5.7c-1.2,6.7-2.4,13.3-3.6,20c-0.1,0.7-0.3,1.4-0.4,2.2
		c-0.1,0.7-0.4,0.9-1,1.1c-8.8,2.8-17.6,5.6-26.4,8.3c-0.4,0.1-0.8,0.3-1.2,0.7c7.2,2.9,14.4,5.7,21.7,8.6c-0.3,0.2-0.4,0.4-0.6,0.5
		c-4.5,2.9-9,5.8-13.5,8.7c-0.5,0.4-1,0.4-1.6,0.1c-5.4-2.4-10.8-4.8-16.2-7.2c-2.4-1.1-4.6-2.5-6.3-4.6c-3.8-4.7-3.1-10,2-13.3
		c1.7-1.1,3.6-1.9,5.5-2.5c8.6-2.8,17.3-5.5,25.9-8.2c0.7-0.2,1.1-0.6,1.2-1.3c1.2-6.7,2.3-13.4,3.6-20c0.6-3.6,1-7.2,2.7-10.5
		c0.7-1.3,1.5-2.5,2.4-3.5c3.4-3.8,8.2-4,11.9-0.3c1.2,1.2,2.3,2.7,3.2,4.2c4,6.5,7.9,13.1,11.9,19.7c0.5,0.8,0.9,0.9,1.7,0.7
		c9.7-2.6,19.3-5.1,29-7.7c2-0.5,4-0.7,6.1-0.3c4.5,0.8,6.4,4.2,4.9,8.5c-0.7,2-1.9,3.6-3.2,5.2c-6.7,7.9-13.5,15.9-20.2,23.8
		c-0.6,0.6-0.6,1.1-0.2,1.8c4,7.6,8,15.2,12.1,22.9c1,1.8,1.7,3.7,1.7,5.8c0,4.8-3.4,8.7-8.2,9.4c-2.7,0.4-5.1-0.2-7.6-0.9
		c-6.1-1.9-12.1-3.7-18.2-5.5c-0.6-0.2-0.8-0.4-0.9-1c-0.7-4.3-1.5-8.5-2.2-12.8c0-0.1,0-0.2,0-0.5
		C510.9,303.8,517.7,305.7,524.9,307.7z"/>
	<g>
		<g>
			<path class="st1" d="M513.1,369.9c-5.5,0-10.9,0-16.4,0c-0.7,0-1.1-0.2-1.5-0.8c-6.5-9.8-13-19.7-19.4-29.5
				c-0.2-0.3-0.4-0.6-0.8-1.1c-1.4,10.6-2.8,21-4.1,31.4c-4.8,0-9.5,0-14.3,0c0.2-1.4,0.3-2.7,0.5-4.1c1.4-10.7,2.8-21.3,4.2-32
				c1.3-10.2,2.7-20.4,4-30.6c0-0.3,0.2-0.7,0.5-0.8c4.9-3.2,9.9-6.4,14.8-9.6c0.1,0,0.2-0.1,0.4-0.1c-1.5,11.4-3,22.7-4.5,34
				c0.1,0,0.1,0.1,0.2,0.1c7.7-8.6,15.5-17.2,23.4-25.9c0.2,1.3,0.4,2.4,0.6,3.6c0.6,3.2,1.1,6.5,1.7,9.7c0.1,0.7-0.1,1.1-0.5,1.5
				c-5,5.2-10,10.5-15,15.8c-0.2,0.2-0.4,0.5-0.7,0.7c0.2,0.3,0.3,0.5,0.5,0.7c8.6,12.1,17.2,24.2,25.8,36.3
				c0.2,0.2,0.4,0.4,0.6,0.6C513.1,369.7,513.1,369.8,513.1,369.9z"/>
			<path class="st1" d="M305.8,365.9c-0.4,3.2-0.8,6.2-1.2,9.2c-0.5,4-1,8-1.5,12c-0.1,0.5-0.2,0.7-0.7,0.7c-3.9,0-7.9,0-11.8,0
				c-0.1,0-0.2,0-0.4-0.1c0.2-1.9,0.5-3.8,0.7-5.7c0.9-6.6,1.7-13.2,2.6-19.8c1-7.6,1.8-15.1,3.1-22.7c2.3-13.3,13.6-24.7,26.8-27.6
				c7.7-1.7,15-0.9,21.7,3.4c6.7,4.3,10.5,10.6,11.4,18.4c1.2,11.1-2.9,20.3-10.7,28c-5.2,5-11.4,8.2-18.5,9.3
				c-7.4,1.1-14.3-0.1-20.5-4.5C306.4,366.3,306.2,366.2,305.8,365.9z M343.6,338.4c-0.2-1.1-0.4-2.7-0.9-4.3
				c-2.4-7.4-10-11.4-17.8-9.6c-8.6,2-14.8,8.8-15.6,17.6c-0.7,6.5,2.8,12.8,9.3,15.1c5.2,1.9,10.3,1.1,15-1.7
				C339.8,351.8,343.2,346.2,343.6,338.4z"/>
			<path class="st1" d="M299.4,302.7c-4.4,3.3-8.6,6.4-12.9,9.6c-0.7-1.1-1.3-2.2-2-3.2c-1.8-2.6-4.1-4.5-7.5-4.8
				c-2.8-0.2-5.2,0.7-7,2.8c-1.7,1.8-1.9,4.4-0.3,6.5c1.7,2.3,3.6,4.4,5.6,6.5c3.2,3.5,6.6,6.9,9.8,10.4c2.9,3.2,5.2,6.8,6,11.2
				c0.9,5.2-0.2,10.1-2.6,14.7c-4.5,8.5-11.7,13.4-21.2,14.9c-4.2,0.7-8.3,0.5-12.4-0.7c-5.4-1.6-9.2-5.1-11.6-10.1
				c-0.9-1.8-1.5-3.6-2.3-5.5c4.7-2.5,9.3-5,14-7.5c0.2,0.4,0.3,0.7,0.4,1c0.8,1.6,1.4,3.3,2.4,4.8c2.9,4.3,7.6,5.7,12.4,3.5
				c1.2-0.6,2.4-1.3,3.4-2.2c3.1-2.7,3.7-6.6,1.4-10c-1.3-2-3-3.8-4.6-5.5c-3.8-4.2-7.8-8.4-11.5-12.7c-2.6-3-4.3-6.4-4.9-10.4
				c-0.6-4.4,0.3-8.5,2.5-12.1c5.6-9.1,13.8-13.8,24.6-13.5c6.2,0.2,11.1,3.1,14.9,7.9C297.2,299.7,298.3,301.2,299.4,302.7z"/>
			<path class="st1" d="M404,351.7c-0.7,5.5-1.4,10.7-2.1,15.9c0,0.3-0.2,0.6-0.5,0.7c-10.7,4.9-24.7,4.2-33.4-5.7
				c-4.7-5.3-6.7-11.7-6.4-18.7c0.7-16.3,14.2-30.6,30.4-32.6c9.5-1.2,17.7,1.4,24.2,8.7c4.4,5,6.4,11,6.1,17.6
				c-0.2,4.4-0.9,8.7-1.4,13c-0.8,6.1-1.6,12.3-2.4,18.4c0,0.2-0.1,0.4-0.1,0.7c-4.2,0-8.4,0-12.7,0c0.2-1.4,0.3-2.8,0.5-4.2
				c0.9-7.1,1.9-14.2,2.7-21.3c0.5-4.4,0.2-8.8-1.8-12.9c-2.2-4.4-5.8-6.7-10.5-7.2c-9.8-1-19.2,5.8-21.2,15.4
				c-1.4,6.4,0.8,12.5,5.9,15.9c4.9,3.3,10.3,3.3,15.6,1.2C399.4,355.7,401.8,354,404,351.7z"/>
			<path class="st1" d="M457.7,312.6c-0.6,4.4-1.2,8.8-1.7,13.2c-2.7,0-5.3,0-8,0c-2.1,0-4.1,1.4-4.7,3.4c-0.3,0.8-0.3,1.6-0.5,2.4
				c-1.3,10.1-2.7,20.3-4,30.4c-0.3,2.6-0.7,5.1-1,7.7c-4.4,0-8.8,0-13.3,0c0.2-2,0.5-3.8,0.7-5.7c0.9-6.6,1.7-13.2,2.6-19.7
				c0.8-5.7,1.4-11.4,2.3-17.1c1.2-7.6,8.8-14.3,16.4-14.7C450.2,312.4,453.9,312.6,457.7,312.6z"/>
			<g>
				<path class="st2" d="M519,364v5.8h-1.1V364h-2.1v-0.9h5.3v0.9H519z M528.7,369.8v-5.6h0l-2.2,5.6h-0.7l-2.2-5.6h0v5.6h-1.1v-6.7
					h1.7l2,5.1l2-5.1h1.7v6.7H528.7z"/>
			</g>
		</g>
		<g>
			<path class="st2" d="M321,296.5h-5.5l-1.7,3.4h-3.9l8.6-16h3.7l2.9,16h-3.6L321,296.5z M317.2,293.3h3.3l-0.8-5L317.2,293.3z"/>
			<path class="st2" d="M335.9,284h5.1c2.7,0,4.6,1.6,4.6,4.3c0,3.5-2.4,5.8-5.9,5.8h-2.2l-1,5.9H333L335.9,284z M340.6,287.2h-2
				l-0.7,3.7h1.9c1.2,0,2.1-0.8,2.1-2.2C342,287.7,341.4,287.2,340.6,287.2z"/>
			<path class="st2" d="M360.7,296.5h-5.5l-1.7,3.4h-3.9l8.6-16h3.7l2.9,16h-3.6L360.7,296.5z M356.9,293.3h3.3l-0.8-5L356.9,293.3z
				"/>
			<path class="st2" d="M382.3,299.4c-1.1,0.5-2.4,0.8-3.6,0.8c-4.2,0-6.9-3.2-6.9-7.1c0-5.1,4.3-9.3,9.3-9.3c1.3,0,2.4,0.3,3.4,0.8
				l-0.5,3.8c-0.7-0.8-1.8-1.3-3.2-1.3c-2.9,0-5.5,2.6-5.5,5.7c0,2.3,1.5,4.1,3.8,4.1c1.4,0,2.8-0.5,3.7-1.3L382.3,299.4z"/>
			<path class="st2" d="M402.7,293.5h-7l-1.1,6.4h-3.3l2.8-16h3.3l-1.1,6.3h7l1.1-6.3h3.3l-2.8,16h-3.3L402.7,293.5z"/>
			<path class="st2" d="M414.9,299.9l2.8-16h8.9l-0.6,3.2h-5.5l-0.6,3.1h5.1l-0.6,3.2h-5.1l-0.6,3.2h5.5l-0.6,3.2H414.9z"/>
		</g>
	</g>
</g>
<g id="Layer_1_xA0_Image">
</g>
</svg>
