<svg width="1080" height="1080" viewBox="0 0 1080 1080" fill="none" xmlns="http://www.w3.org/2000/svg">
<path d="M920.389 759.482V320.482L540.194 101L160 320.482V759.482L540.194 979L920.389 759.482Z" fill="#1B3139"/>
<mask id="mask0_4257_55" style="mask-type:luminance" maskUnits="userSpaceOnUse" x="188" y="133" width="705" height="814">
<path d="M892.359 743.284V336.68L540.194 133.36L188.065 336.68V743.284L540.194 946.604L892.359 743.284Z" fill="white"/>
</mask>
<g mask="url(#mask0_4257_55)">
<path d="M254.969 85.9985H184.156V975.513H254.969V85.9985Z" fill="#AA3F24"/>
<path d="M325.783 85.9985H254.969V975.513H325.783V85.9985Z" fill="#E67043"/>
<path d="M396.631 85.9985H325.818V975.513H396.631V85.9985Z" fill="#EBA24B"/>
<path d="M467.444 85.9985H396.631V975.513H467.444V85.9985Z" fill="#F3CA81"/>
<path d="M538.258 85.9985H467.444V975.513H538.258V85.9985Z" fill="#EEB64D"/>
<path d="M609.071 85.9985H538.258V975.513H609.071V85.9985Z" fill="#E98D48"/>
<path d="M679.884 85.9985H609.071V975.513H679.884V85.9985Z" fill="#885A47"/>
<path d="M750.697 85.9985H679.884V975.513H750.697V85.9985Z" fill="#6B4737"/>
<path d="M821.511 85.9985H750.697V975.513H821.511V85.9985Z" fill="#BFA584"/>
<path d="M892.324 85.9985H821.511V975.513H892.324V85.9985Z" fill="#261B1A"/>
<mask id="mask1_4257_55" style="mask-type:luminance" maskUnits="userSpaceOnUse" x="399" y="-160" width="626" height="1096">
<path d="M582.415 -118.307C582.415 -118.307 494.84 3.98764 507.094 121.74C519.383 239.492 522.975 301.925 509.7 326.926C496.425 351.927 470.402 393.584 460.085 403.267C449.732 412.951 404.624 448.34 399.589 472.778C396.596 487.286 408.04 536.408 460.05 552.746C460.05 552.746 449.908 588.981 429.027 606.693C408.146 624.405 422.935 660.639 426.069 671.837C429.203 683.034 471.001 697.401 471.001 697.401C471.001 697.401 439.873 713.177 441.492 737.861C443.112 762.545 453.007 786.842 473.29 789.624C473.29 789.624 496.53 777.053 507.059 818.816C512.024 838.57 505.509 882.129 541.075 912.271C576.64 942.413 616.466 942.096 711.435 919.49C806.404 896.883 881.901 865.262 881.901 865.262C881.901 865.262 984.159 770.785 1024.51 811.914L895.211 -159.929L582.379 -118.307H582.415Z" fill="white"/>
</mask>
<g mask="url(#mask1_4257_55)">
<path d="M821.546 975.513H907.008L907.008 85.9985H821.546L821.546 975.513Z" fill="#261B1A"/>
<path d="M750.733 975.513H821.546L821.546 85.9985H750.733L750.733 975.513Z" fill="#3B1A42"/>
<path d="M679.919 975.513H750.733L750.733 85.9985H679.919L679.919 975.513Z" fill="#692365"/>
<path d="M609.071 975.513H679.884L679.884 85.9985H609.071L609.071 975.513Z" fill="#6B4737"/>
<path d="M538.258 975.513H609.071L609.071 85.9985H538.258L538.258 975.513Z" fill="#885A47"/>
<path d="M467.444 975.513H538.258L538.258 85.9985H467.444L467.444 975.513Z" fill="#4F261C"/>
<path d="M396.631 975.513H467.444L467.444 85.9985H396.631L396.631 975.513Z" fill="#371D17"/>
</g>
</g>
<path d="M929.099 795.418L919.739 779.206L921.63 778.114L927.259 787.863L929.113 780.518L931.432 779.179L929.39 787.083L938.51 789.984L936.101 791.375L927.649 788.539L930.99 794.326L929.099 795.418Z" fill="#1B3139"/>
<path d="M920.919 800.14L914.471 788.972L916.182 787.984L917.575 790.032C917.495 789.097 917.683 788.208 918.137 787.366C918.591 786.523 919.336 785.803 920.372 785.205L921.516 787.186L920.998 787.485C920.337 787.866 919.799 788.338 919.382 788.898C918.957 789.444 918.739 790.09 918.729 790.836C918.72 791.582 918.997 792.443 919.56 793.419L922.81 799.048L920.919 800.14Z" fill="#1B3139"/>
<path d="M912.838 805.166C911.787 805.772 910.703 806.078 909.585 806.083C908.467 806.088 907.409 805.798 906.411 805.214C905.419 804.605 904.581 803.708 903.897 802.522C903.212 801.336 902.866 800.165 902.859 799.009C902.843 797.837 903.116 796.768 903.68 795.802C904.258 794.828 905.072 794.038 906.123 793.431C907.174 792.824 908.258 792.518 909.376 792.514C910.494 792.509 911.549 792.81 912.541 793.419C913.539 794.003 914.38 794.888 915.065 796.074C915.75 797.26 916.1 798.439 916.116 799.611C916.123 800.767 915.838 801.833 915.259 802.807C914.696 803.773 913.889 804.559 912.838 805.166ZM911.902 803.544C912.548 803.172 913.057 802.667 913.431 802.032C913.804 801.396 913.981 800.663 913.963 799.833C913.944 799.003 913.666 798.123 913.128 797.192C912.591 796.262 911.968 795.581 911.259 795.15C910.564 794.71 909.848 794.493 909.111 794.498C908.374 794.503 907.69 794.688 907.059 795.052C906.414 795.425 905.904 795.929 905.531 796.565C905.158 797.201 904.98 797.934 904.999 798.764C905.018 799.593 905.296 800.474 905.833 801.404C906.37 802.335 906.994 803.016 907.703 803.447C908.412 803.878 909.128 804.095 909.85 804.099C910.588 804.093 911.272 803.908 911.902 803.544Z" fill="#1B3139"/>
<path d="M893.287 816.093L883.574 806.81L885.466 805.718L892.887 813.112L890.442 802.845L892.581 801.61L900.273 808.848L897.557 798.737L899.471 797.632L902.654 810.685L900.718 811.803L892.654 804.18L895.224 814.975L893.287 816.093Z" fill="#1B3139"/>
<path d="M886.741 819.872C885.721 820.462 884.774 820.678 883.903 820.52C883.032 820.363 882.223 819.639 881.478 818.348L877.929 812.201L875.992 813.319L875.069 811.72L877.006 810.602L875.707 807.78L877.35 806.831L878.897 809.51L882.185 807.612L883.108 809.211L879.82 811.109L883.369 817.256C883.777 817.961 884.197 818.359 884.629 818.45C885.053 818.525 885.625 818.355 886.346 817.939L887.517 817.263L888.453 818.884L886.741 819.872Z" fill="#1B3139"/>
<path d="M875.06 826.977C873.994 827.592 872.91 827.898 871.807 827.895C870.695 827.876 869.648 827.57 868.665 826.977C867.697 826.375 866.87 825.481 866.186 824.295C865.51 823.124 865.153 821.969 865.116 820.829C865.07 819.675 865.321 818.619 865.869 817.662C866.424 816.682 867.249 815.875 868.345 815.242C869.426 814.618 870.499 814.329 871.566 814.373C872.639 814.394 873.615 814.681 874.495 815.234C875.374 815.787 876.078 816.522 876.607 817.437C876.702 817.602 876.79 817.772 876.871 817.946C876.966 818.111 877.074 818.298 877.196 818.509L868.302 823.644C868.841 824.473 869.447 825.074 870.122 825.445C870.803 825.792 871.488 825.957 872.178 825.939C872.884 825.912 873.536 825.725 874.137 825.378C874.917 824.928 875.466 824.371 875.784 823.707C876.101 823.043 876.202 822.335 876.087 821.58L877.956 820.501C878.254 821.711 878.174 822.907 877.717 824.092C877.267 825.253 876.381 826.214 875.06 826.977ZM869.223 816.867C868.322 817.387 867.679 818.128 867.294 819.091C866.916 820.03 866.977 821.056 867.479 822.167L874.504 818.111C873.879 817.131 873.078 816.542 872.104 816.345C871.129 816.147 870.168 816.321 869.223 816.867Z" fill="#1B3139"/>
<path d="M854.471 838.504L845.371 822.742L847.262 821.65L862.954 829.433L855.661 816.801L857.552 815.709L866.652 831.471L864.761 832.563L849.069 824.78L856.362 837.412L854.471 838.504Z" fill="#1B3139"/>
<path d="M840.757 846.782C839.691 847.397 838.607 847.703 837.504 847.699C836.392 847.681 835.345 847.375 834.362 846.781C833.394 846.179 832.568 845.285 831.883 844.099C831.207 842.929 830.85 841.773 830.813 840.634C830.767 839.48 831.018 838.424 831.566 837.467C832.121 836.486 832.946 835.68 834.042 835.047C835.123 834.423 836.197 834.133 837.263 834.178C838.336 834.199 839.312 834.486 840.192 835.039C841.072 835.592 841.776 836.326 842.304 837.242C842.4 837.407 842.488 837.577 842.568 837.75C842.663 837.915 842.772 838.103 842.893 838.313L833.999 843.448C834.538 844.278 835.145 844.878 835.819 845.249C836.5 845.597 837.186 845.761 837.876 845.743C838.581 845.716 839.234 845.53 839.834 845.183C840.615 844.732 841.164 844.175 841.481 843.512C841.798 842.848 841.899 842.139 841.784 841.385L843.653 840.306C843.951 841.515 843.871 842.712 843.414 843.897C842.964 845.057 842.078 846.019 840.757 846.782ZM834.92 836.672C834.019 837.192 833.377 837.933 832.992 838.896C832.613 839.835 832.675 840.86 833.176 841.972L840.202 837.916C839.576 836.936 838.776 836.347 837.801 836.149C836.826 835.952 835.866 836.126 834.92 836.672Z" fill="#1B3139"/>
<path d="M827.937 854.183C826.871 854.798 825.787 855.104 824.684 855.101C823.572 855.082 822.525 854.776 821.542 854.183C820.574 853.581 819.748 852.687 819.063 851.501C818.387 850.33 818.03 849.175 817.993 848.036C817.947 846.881 818.198 845.826 818.747 844.869C819.301 843.888 820.126 843.081 821.222 842.448C822.303 841.824 823.377 841.535 824.443 841.58C825.516 841.601 826.492 841.888 827.372 842.44C828.252 842.993 828.956 843.728 829.485 844.643C829.58 844.808 829.668 844.978 829.748 845.152C829.843 845.317 829.952 845.504 830.073 845.715L821.179 850.85C821.718 851.679 822.325 852.28 822.999 852.651C823.68 852.998 824.366 853.163 825.056 853.145C825.761 853.118 826.414 852.931 827.014 852.584C827.795 852.134 828.344 851.577 828.661 850.913C828.979 850.249 829.08 849.541 828.964 848.786L830.833 847.707C831.131 848.917 831.052 850.113 830.595 851.298C830.144 852.459 829.258 853.42 827.937 854.183ZM822.1 844.073C821.2 844.593 820.557 845.335 820.172 846.297C819.793 847.236 819.855 848.262 820.357 849.373L827.382 845.317C826.756 844.337 825.956 843.749 824.981 843.551C824.006 843.353 823.046 843.527 822.1 844.073Z" fill="#1B3139"/>
<path d="M815.38 867.678L814.665 860.044L814.012 860.421L803.752 852.895L805.801 851.712L814.512 858.271L813.412 847.318L815.371 846.187L817.361 866.534L815.38 867.678Z" fill="#1B3139"/>
<path d="M804.125 867.931C803.074 868.538 801.99 868.844 800.872 868.849C799.754 868.854 798.696 868.564 797.698 867.979C796.706 867.371 795.868 866.474 795.183 865.288C794.499 864.102 794.153 862.931 794.145 861.774C794.129 860.602 794.403 859.534 794.966 858.568C795.545 857.594 796.359 856.803 797.41 856.197C798.461 855.59 799.545 855.284 800.663 855.279C801.781 855.274 802.836 855.576 803.827 856.184C804.825 856.769 805.667 857.654 806.352 858.84C807.036 860.026 807.386 861.205 807.402 862.376C807.41 863.533 807.124 864.598 806.546 865.573C805.983 866.538 805.176 867.325 804.125 867.931ZM803.189 866.31C803.834 865.937 804.344 865.433 804.717 864.797C805.091 864.161 805.268 863.428 805.249 862.599C805.23 861.769 804.952 860.889 804.415 859.958C803.878 859.027 803.254 858.346 802.545 857.915C801.851 857.475 801.135 857.258 800.398 857.264C799.66 857.269 798.976 857.454 798.346 857.818C797.7 858.19 797.191 858.695 796.818 859.331C796.444 859.967 796.267 860.699 796.286 861.529C796.304 862.359 796.582 863.239 797.12 864.17C797.657 865.101 798.28 865.782 798.99 866.213C799.699 866.644 800.415 866.861 801.137 866.864C801.874 866.859 802.558 866.674 803.189 866.31Z" fill="#1B3139"/>
<path d="M793.889 873.481L784.529 857.269L786.42 856.177L795.78 872.389L793.889 873.481Z" fill="#1B3139"/>
<path d="M782.61 886.598L773.302 870.476L775.013 869.488L776.259 871.23C776.307 870.482 776.536 869.699 776.945 868.883C777.369 868.057 778.099 867.346 779.135 866.748C780.246 866.106 781.362 865.802 782.482 865.836C783.602 865.87 784.643 866.2 785.605 866.825C786.581 867.442 787.395 868.314 788.045 869.439C788.695 870.565 789.043 871.705 789.089 872.86C789.141 873.99 788.894 875.053 788.348 876.049C787.809 877.021 786.983 877.828 785.873 878.469C784.957 878.998 784.031 879.283 783.093 879.323C782.171 879.355 781.327 879.142 780.562 878.683L784.501 885.506L782.61 886.598ZM784.721 876.943C785.472 876.509 786.032 875.955 786.403 875.281C786.766 874.591 786.93 873.836 786.896 873.015C786.863 872.193 786.603 871.363 786.118 870.522C785.633 869.681 785.043 869.041 784.348 868.601C783.654 868.161 782.922 867.934 782.152 867.918C781.374 867.887 780.61 868.088 779.859 868.521C779.108 868.955 778.552 869.516 778.19 870.206C777.818 870.88 777.65 871.628 777.684 872.449C777.717 873.27 777.977 874.101 778.462 874.942C778.948 875.783 779.537 876.423 780.232 876.863C780.926 877.302 781.662 877.538 782.441 877.569C783.21 877.585 783.97 877.376 784.721 876.943Z" fill="#1B3139"/>
<path d="M759.608 893.273L753.16 882.105L754.871 881.117L755.942 882.66C755.956 881.851 756.168 881.109 756.577 880.432C756.987 879.755 757.567 879.2 758.318 878.766C759.203 878.255 760.066 877.998 760.904 877.994C761.757 877.981 762.569 878.243 763.339 878.78C763.339 877.879 763.565 877.038 764.015 876.258C764.48 875.469 765.11 874.845 765.906 874.385C767.242 873.614 768.542 873.404 769.805 873.755C771.06 874.092 772.169 875.093 773.131 876.759L776.901 883.289L775.032 884.368L771.379 878.041C770.711 876.885 769.976 876.149 769.173 875.832C768.369 875.515 767.532 875.608 766.662 876.111C765.761 876.631 765.214 877.417 765.021 878.469C764.834 879.497 765.114 880.657 765.859 881.948L769.2 887.735L767.309 888.827L763.656 882.5C762.988 881.344 762.253 880.608 761.45 880.291C760.646 879.974 759.809 880.067 758.939 880.57C758.053 881.081 757.514 881.863 757.32 882.915C757.134 883.943 757.413 885.103 758.158 886.394L761.499 892.181L759.608 893.273Z" fill="#1B3139"/>
<path d="M747.011 900.546L737.911 884.784L747.661 879.155L748.558 880.709L740.699 885.246L743.871 890.74L751.054 886.593L751.938 888.124L744.755 892.271L748.005 897.9L755.864 893.363L756.761 894.917L747.011 900.546Z" fill="#1B3139"/>
<path d="M729.593 910.602L720.233 894.39L722.124 893.298L727.753 903.048L729.607 895.703L731.926 894.364L729.885 902.268L739.005 905.168L736.596 906.559L728.143 903.723L731.484 909.51L729.593 910.602Z" fill="#1B3139"/>
<path d="M722.041 915.322C720.975 915.938 719.876 916.252 718.743 916.266C717.616 916.256 716.554 915.958 715.556 915.374C714.564 914.765 713.731 913.876 713.055 912.705C712.379 911.534 712.029 910.375 712.007 909.227C711.991 908.055 712.265 906.986 712.828 906.021C713.398 905.031 714.215 904.229 715.281 903.614C716.602 902.851 717.912 902.555 719.212 902.725C720.526 902.887 721.637 903.477 722.544 904.494L720.608 905.612C720.059 905.008 719.384 904.687 718.582 904.65C717.771 904.598 716.975 904.797 716.195 905.248C715.564 905.612 715.062 906.112 714.689 906.748C714.315 907.384 714.138 908.116 714.157 908.946C714.176 909.776 714.454 910.656 714.991 911.587C715.528 912.518 716.152 913.199 716.861 913.63C717.57 914.061 718.298 914.281 719.044 914.291C719.781 914.285 720.465 914.101 721.096 913.737C721.876 913.286 722.451 912.704 722.82 911.991C723.18 911.262 723.231 910.502 722.974 909.71L724.91 908.592C725.335 909.848 725.294 911.093 724.785 912.327C724.277 913.561 723.362 914.56 722.041 915.322Z" fill="#1B3139"/>
<path d="M708.441 923.175C707.51 923.712 706.646 924.001 705.849 924.041C705.051 924.081 704.351 923.925 703.747 923.573C703.144 923.221 702.664 922.737 702.309 922.122C701.65 920.981 701.578 919.851 702.094 918.733C702.609 917.615 703.617 916.623 705.118 915.756L708.136 914.014L708.058 913.879C707.494 912.903 706.814 912.315 706.018 912.114C705.213 911.898 704.383 912.038 703.527 912.532C702.792 912.956 702.262 913.512 701.938 914.2C701.621 914.863 701.598 915.587 701.87 916.37L699.934 917.488C699.541 916.634 699.417 915.795 699.562 914.971C699.721 914.138 700.072 913.376 700.612 912.683C701.145 911.976 701.808 911.392 702.604 910.933C704.165 910.032 705.579 909.776 706.845 910.166C708.117 910.532 709.152 911.406 709.949 912.787L713.914 919.654L712.225 920.629L710.956 918.69C711.005 919.503 710.851 920.312 710.496 921.118C710.147 921.9 709.462 922.585 708.441 923.175ZM707.811 921.407C708.531 920.991 709.038 920.448 709.332 919.778C709.641 919.099 709.757 918.382 709.68 917.625C709.604 916.869 709.375 916.16 708.994 915.5L708.981 915.477L706.121 917.128C705.01 917.77 704.335 918.42 704.095 919.079C703.861 919.714 703.909 920.317 704.238 920.887C704.576 921.473 705.059 921.824 705.688 921.942C706.322 922.036 707.03 921.858 707.811 921.407Z" fill="#1B3139"/>
<path d="M699.578 927.931L690.218 911.719L692.11 910.627L701.47 926.839L699.578 927.931Z" fill="#1B3139"/>
<path d="M686.145 935.686L677.045 919.925L682.585 916.727C683.695 916.085 684.715 915.737 685.644 915.681C686.578 915.602 687.404 915.766 688.119 916.173C688.826 916.566 689.396 917.137 689.83 917.888C690.419 918.909 690.605 919.872 690.388 920.778C690.185 921.675 689.766 922.458 689.131 923.125C689.777 922.892 690.444 922.817 691.132 922.9C691.821 922.983 692.456 923.217 693.038 923.601C693.635 923.977 694.12 924.487 694.493 925.133C694.952 925.928 695.177 926.769 695.168 927.655C695.151 928.526 694.872 929.377 694.332 930.21C693.783 931.027 692.96 931.752 691.865 932.384L686.145 935.686ZM682.915 925.723L686.427 923.695C687.433 923.114 688.072 922.435 688.344 921.658C688.607 920.866 688.496 920.049 688.01 919.208C687.551 918.413 686.912 917.931 686.095 917.763C685.292 917.585 684.358 917.805 683.292 918.42L679.847 920.409L682.915 925.723ZM687.127 933.018L690.752 930.925C691.833 930.301 692.523 929.573 692.822 928.739C693.113 927.891 692.998 927.016 692.478 926.116C691.967 925.23 691.252 924.702 690.333 924.532C689.406 924.347 688.417 924.558 687.366 925.165L683.786 927.232L687.127 933.018Z" fill="#1B3139"/>
<path d="M672.926 943.679C671.935 944.251 670.973 944.596 670.041 944.714C669.1 944.817 668.239 944.714 667.459 944.403C666.68 944.093 666.028 943.588 665.505 942.89L668.41 941.213C668.751 941.596 669.208 941.833 669.78 941.923C670.359 941.989 670.963 941.84 671.594 941.476C672.224 941.112 672.608 940.72 672.746 940.3C672.899 939.872 672.88 939.492 672.69 939.162C672.412 938.682 672.016 938.48 671.5 938.558C670.976 938.62 670.291 938.786 669.445 939.054C668.904 939.226 668.342 939.38 667.76 939.516C667.178 939.652 666.612 939.729 666.062 939.746C665.518 939.74 665.014 939.63 664.551 939.417C664.079 939.189 663.687 938.805 663.375 938.265C662.803 937.274 662.712 936.216 663.103 935.09C663.509 933.955 664.424 932.976 665.851 932.152C667.172 931.39 668.4 931.091 669.536 931.256C670.687 931.412 671.649 931.987 672.423 932.981L669.699 934.554C669.057 933.824 668.196 933.77 667.115 934.394C666.575 934.706 666.215 935.054 666.036 935.438C665.872 935.813 665.881 936.158 666.063 936.473C666.254 936.803 666.623 936.94 667.171 936.884C667.719 936.828 668.401 936.674 669.217 936.423C670.102 936.153 670.932 935.944 671.707 935.796C672.489 935.625 673.201 935.644 673.842 935.854C674.475 936.049 675.021 936.545 675.481 937.34C675.894 938.022 676.074 938.749 676.019 939.521C675.965 940.293 675.676 941.041 675.152 941.763C674.629 942.486 673.886 943.124 672.926 943.679Z" fill="#1B3139"/>
<path d="M655.906 953.145L646.546 936.933L649.428 935.269L654.953 944.839L656.303 938.025L659.726 936.049L658.093 943.777L666.917 946.788L663.314 948.868L655.551 945.874L658.788 951.481L655.906 953.145Z" fill="#1B3139"/>
<path d="M648.032 958.052C646.892 958.71 645.743 959.043 644.586 959.051C643.429 959.058 642.34 958.766 641.319 958.175C640.312 957.575 639.479 956.705 638.821 955.564C638.162 954.423 637.825 953.267 637.809 952.096C637.808 950.915 638.099 949.826 638.684 948.828C639.269 947.83 640.132 947.002 641.272 946.343C642.698 945.52 644.116 945.202 645.525 945.389C646.925 945.561 648.138 946.222 649.162 947.372L646.122 949.127C645.66 948.673 645.117 948.426 644.493 948.386C643.876 948.322 643.267 948.464 642.667 948.81C641.871 949.27 641.369 949.96 641.16 950.881C640.952 951.802 641.155 952.796 641.77 953.861C642.386 954.927 643.144 955.6 644.046 955.88C644.948 956.159 645.797 956.07 646.593 955.61C647.193 955.264 647.625 954.815 647.886 954.263C648.163 953.703 648.217 953.102 648.046 952.46L651.086 950.705C651.544 952.121 651.506 953.494 650.972 954.823C650.438 956.152 649.458 957.228 648.032 958.052Z" fill="#1B3139"/>
<path d="M630.507 950.607C629.981 950.91 629.455 951.004 628.928 950.888C628.415 950.763 628.021 950.461 627.743 949.981C627.466 949.5 627.406 949.015 627.563 948.524C627.726 948.009 628.07 947.6 628.596 947.297C629.121 946.994 629.64 946.904 630.152 947.029C630.671 947.13 631.069 947.42 631.346 947.901C631.623 948.381 631.68 948.878 631.517 949.393C631.369 949.899 631.032 950.304 630.507 950.607ZM636.514 964.341L630.066 953.173L632.949 951.509L639.397 962.677L636.514 964.341Z" fill="#1B3139"/>
<path d="M627.474 969.561L621.026 958.392L623.593 956.91L625.072 958.848C625.062 957.894 625.28 957.007 625.728 956.188C626.182 955.345 626.882 954.651 627.828 954.105L629.583 957.145L628.772 957.613C628.142 957.977 627.635 958.399 627.253 958.881C626.87 959.362 626.675 959.925 626.667 960.57C626.674 961.206 626.924 961.952 627.418 962.808L630.356 967.897L627.474 969.561Z" fill="#1B3139"/>
<path d="M619.562 974.489C618.721 974.974 617.895 975.241 617.082 975.29C616.27 975.339 615.504 975.191 614.784 974.845L615.353 976.559L612.786 978.041L603.426 961.829L606.308 960.165L610.143 966.807C610.217 966.104 610.439 965.395 610.807 964.682C611.191 963.96 611.856 963.326 612.802 962.78C613.852 962.173 614.938 961.887 616.058 961.921C617.179 961.954 618.235 962.275 619.226 962.884C620.218 963.492 621.039 964.359 621.689 965.485C622.339 966.611 622.679 967.755 622.71 968.918C622.733 970.066 622.478 971.134 621.947 972.121C621.408 973.093 620.612 973.882 619.562 974.489ZM617.498 972.318C618.413 971.789 618.994 971.044 619.239 970.082C619.484 969.12 619.325 968.151 618.762 967.175C618.198 966.199 617.434 965.57 616.47 965.286C615.505 965.002 614.565 965.124 613.65 965.653C612.719 966.19 612.135 966.948 611.899 967.925C611.669 968.878 611.836 969.843 612.399 970.818C612.962 971.794 613.719 972.428 614.668 972.721C615.624 972.99 616.567 972.855 617.498 972.318Z" fill="#1B3139"/>
<path d="M603.797 983.591C602.836 984.146 601.961 984.451 601.172 984.506C600.375 984.546 599.679 984.397 599.084 984.06C598.489 983.723 598.014 983.247 597.659 982.631C597.061 981.596 596.98 980.521 597.418 979.408C597.856 978.294 598.886 977.269 600.507 976.333L603.344 974.695L603.188 974.425C602.746 973.66 602.204 973.222 601.56 973.113C600.917 973.004 600.273 973.136 599.627 973.509C599.042 973.847 598.614 974.284 598.343 974.821C598.064 975.342 598.027 975.904 598.234 976.505L595.42 978.13C595.027 977.276 594.89 976.414 595.008 975.545C595.142 974.667 595.493 973.854 596.062 973.106C596.622 972.342 597.367 971.692 598.298 971.154C599.889 970.236 601.372 969.91 602.747 970.177C604.122 970.444 605.23 971.305 606.07 972.761L610.035 979.629L607.581 981.046L606.271 979.4C606.287 980.192 606.108 980.956 605.733 981.693C605.373 982.421 604.727 983.054 603.797 983.591ZM603.15 980.962C603.975 980.486 604.457 979.847 604.596 979.047C604.749 978.238 604.656 977.401 604.317 976.536L601.862 977.953C601.097 978.395 600.631 978.854 600.466 979.33C600.291 979.79 600.321 980.223 600.555 980.629C600.807 981.064 601.167 981.307 601.636 981.356C602.105 981.406 602.609 981.274 603.15 980.962Z" fill="#1B3139"/>
<path d="M595.289 988.142C594.118 988.818 593.015 989.075 591.981 988.912C590.946 988.749 590.008 987.939 589.167 986.483L586.359 981.619L584.445 982.724L583.054 980.315L584.968 979.21L583.577 976.02L586.121 974.551L587.85 977.546L590.868 975.804L592.259 978.213L589.241 979.955L592.062 984.841C592.374 985.382 592.704 985.692 593.05 985.772C593.403 985.829 593.865 985.692 594.435 985.363L595.831 984.557L597.248 987.011L595.289 988.142Z" fill="#1B3139"/>
<path d="M581.478 996.477C580.517 997.031 579.642 997.336 578.854 997.391C578.056 997.431 577.36 997.283 576.765 996.946C576.17 996.609 575.695 996.133 575.34 995.517C574.742 994.481 574.662 993.407 575.1 992.293C575.538 991.18 576.567 990.155 578.188 989.219L581.025 987.581L580.869 987.311C580.427 986.545 579.885 986.108 579.242 985.999C578.598 985.89 577.954 986.022 577.308 986.395C576.723 986.733 576.295 987.17 576.024 987.707C575.745 988.228 575.709 988.789 575.916 989.39L573.101 991.015C572.708 990.162 572.571 989.3 572.69 988.431C572.823 987.553 573.174 986.74 573.743 985.991C574.303 985.228 575.048 984.577 575.979 984.04C577.57 983.121 579.053 982.795 580.428 983.062C581.803 983.329 582.911 984.191 583.752 985.647L587.717 992.514L585.262 993.931L583.952 992.286C583.969 993.077 583.789 993.841 583.414 994.578C583.054 995.307 582.409 995.939 581.478 996.477ZM580.831 993.848C581.656 993.371 582.138 992.733 582.277 991.932C582.43 991.123 582.337 990.286 581.998 989.421L579.544 990.838C578.778 991.28 578.312 991.739 578.147 992.215C577.973 992.676 578.003 993.109 578.237 993.515C578.488 993.95 578.848 994.192 579.317 994.242C579.786 994.291 580.29 994.16 580.831 993.848Z" fill="#1B3139"/>
<path d="M561.531 1007.63L552.431 991.871L557.813 988.764C559.659 987.698 561.366 987.153 562.933 987.129C564.507 987.081 565.921 987.485 567.176 988.342C568.437 989.175 569.527 990.387 570.446 991.978C571.365 993.569 571.874 995.127 571.973 996.651C572.079 998.151 571.722 999.578 570.902 1000.93C570.089 1002.26 568.759 1003.46 566.913 1004.53L561.531 1007.63ZM562.983 1003.49L565.348 1002.13C566.669 1001.36 567.59 1000.55 568.113 999.689C568.628 998.812 568.82 997.88 568.691 996.894C568.553 995.893 568.155 994.822 567.496 993.681C566.846 992.555 566.122 991.682 565.324 991.062C564.526 990.442 563.618 990.136 562.601 990.142C561.584 990.149 560.416 990.534 559.095 991.296L556.73 992.661L562.983 1003.49Z" fill="#1B3139"/>
</svg>
