<svg width="1080" height="1080" viewBox="0 0 1080 1080" fill="none" xmlns="http://www.w3.org/2000/svg">
<path d="M920.389 759.482V320.482L540.194 101L160 320.482V759.482L540.194 979L920.389 759.482Z" fill="#1B3139"/>
<mask id="mask0_4201_1619" style="mask-type:luminance" maskUnits="userSpaceOnUse" x="188" y="133" width="705" height="814">
<path d="M892.359 743.284V336.68L540.194 133.361L188.065 336.68V743.284L540.194 946.604L892.359 743.284Z" fill="white"/>
</mask>
<g mask="url(#mask0_4201_1619)">
<path d="M254.969 85.9988H184.156V975.513H254.969V85.9988Z" fill="#AA3F24"/>
<path d="M325.783 85.9988H254.969V975.513H325.783V85.9988Z" fill="#E67043"/>
<path d="M396.631 85.9988H325.818V975.513H396.631V85.9988Z" fill="#EBA24B"/>
<path d="M467.444 85.9988H396.631V975.513H467.444V85.9988Z" fill="#F3CA81"/>
<path d="M538.258 85.9988H467.444V975.513H538.258V85.9988Z" fill="#EEB64D"/>
<path d="M609.071 85.9988H538.258V975.513H609.071V85.9988Z" fill="#E98D48"/>
<path d="M679.884 85.9988H609.071V975.513H679.884V85.9988Z" fill="#885A47"/>
<path d="M750.697 85.9988H679.884V975.513H750.697V85.9988Z" fill="#6B4737"/>
<path d="M821.511 85.9988H750.697V975.513H821.511V85.9988Z" fill="#BFA584"/>
<path d="M892.324 85.9988H821.511V975.513H892.324V85.9988Z" fill="#261B1A"/>
<mask id="mask1_4201_1619" style="mask-type:luminance" maskUnits="userSpaceOnUse" x="399" y="-160" width="626" height="1096">
<path d="M582.415 -118.307C582.415 -118.307 494.84 3.98784 507.094 121.74C519.383 239.492 522.975 301.925 509.7 326.926C496.425 351.927 470.402 393.584 460.085 403.268C449.732 412.951 404.624 448.34 399.589 472.778C396.596 487.286 408.04 536.408 460.05 552.747C460.05 552.747 449.908 588.981 429.027 606.693C408.146 624.405 422.935 660.639 426.069 671.837C429.203 683.035 471.001 697.402 471.001 697.402C471.001 697.402 439.873 713.177 441.492 737.861C443.112 762.545 453.007 786.842 473.29 789.624C473.29 789.624 496.53 777.053 507.059 818.816C512.024 838.57 505.509 882.129 541.075 912.271C576.64 942.413 616.466 942.097 711.435 919.49C806.404 896.883 881.901 865.262 881.901 865.262C881.901 865.262 984.159 770.785 1024.51 811.914L895.211 -159.929L582.379 -118.307H582.415Z" fill="white"/>
</mask>
<g mask="url(#mask1_4201_1619)">
<path d="M821.546 975.513H907.008L907.008 85.9987H821.546L821.546 975.513Z" fill="#261B1A"/>
<path d="M750.733 975.513H821.546L821.546 85.9987H750.733L750.733 975.513Z" fill="#3B1A42"/>
<path d="M679.919 975.513H750.733L750.733 85.9987H679.919L679.919 975.513Z" fill="#692365"/>
<path d="M609.071 975.513H679.884L679.884 85.9987H609.071L609.071 975.513Z" fill="#6B4737"/>
<path d="M538.258 975.513H609.071L609.071 85.9987H538.258L538.258 975.513Z" fill="#885A47"/>
<path d="M467.444 975.513H538.258L538.258 85.9987H467.444L467.444 975.513Z" fill="#4F261C"/>
<path d="M396.631 975.513H467.444L467.444 85.9987H396.631L396.631 975.513Z" fill="#371D17"/>
</g>
</g>
</svg>
