<svg width="150" height="150" viewBox="0 0 150 150" fill="none" xmlns="http://www.w3.org/2000/svg">
<g clip-path="url(#clip0_1_1984)">
<path fill-rule="evenodd" clip-rule="evenodd" d="M52.8 36.7998C49.7624 36.7998 47.3 39.2622 47.3 42.2998C47.3 45.3374 49.7624 47.7998 52.8 47.7998C55.8376 47.7998 58.3 45.3374 58.3 42.2998C58.3 39.2622 55.8376 36.7998 52.8 36.7998ZM44.3 42.2998C44.3 37.6054 48.1056 33.7998 52.8 33.7998C57.4944 33.7998 61.3 37.6054 61.3 42.2998C61.3 46.9942 57.4944 50.7998 52.8 50.7998C48.1056 50.7998 44.3 46.9942 44.3 42.2998Z" fill="white"/>
<path fill-rule="evenodd" clip-rule="evenodd" d="M89.8 34.8999H104.6V49.6999H89.8V34.8999ZM92.8 37.8999V46.6999H101.6V37.8999H92.8Z" fill="white"/>
<path fill-rule="evenodd" clip-rule="evenodd" d="M74.9 58.7998C71.8624 58.7998 69.4 61.2622 69.4 64.2998C69.4 67.3374 71.8624 69.7998 74.9 69.7998C77.9376 69.7998 80.4 67.3374 80.4 64.2998C80.4 61.2622 77.9376 58.7998 74.9 58.7998ZM66.4 64.2998C66.4 59.6054 70.2056 55.7998 74.9 55.7998C79.5944 55.7998 83.4 59.6054 83.4 64.2998C83.4 68.9942 79.5944 72.7998 74.9 72.7998C70.2056 72.7998 66.4 68.9942 66.4 64.2998Z" fill="white"/>
<path fill-rule="evenodd" clip-rule="evenodd" d="M60.1566 71.7341H45.3566V56.9341H60.1566V71.7341ZM57.1566 68.7341V59.9341H48.3566V68.7341H57.1566Z" fill="white"/>
<path fill-rule="evenodd" clip-rule="evenodd" d="M74.9 81.2998C71.8624 81.2998 69.4 83.7622 69.4 86.7998C69.4 89.8374 71.8624 92.2998 74.9 92.2998C77.9376 92.2998 80.4 89.8374 80.4 86.7998C80.4 83.7622 77.9376 81.2998 74.9 81.2998ZM66.4 86.7998C66.4 82.1054 70.2056 78.2998 74.9 78.2998C79.5944 78.2998 83.4 82.1054 83.4 86.7998C83.4 91.4942 79.5944 95.2998 74.9 95.2998C70.2056 95.2998 66.4 91.4942 66.4 86.7998Z" fill="white"/>
<path fill-rule="evenodd" clip-rule="evenodd" d="M82.3588 116.19H67.5588V101.39H82.3588V116.19ZM79.3588 113.19V104.39H70.5588V113.19H79.3588Z" fill="white"/>
<path fill-rule="evenodd" clip-rule="evenodd" d="M74.8827 32.2981L79.9986 41.049L84.9998 49.6998H64.9002L69.8989 41.0534L74.8827 32.2981ZM74.9173 38.3015L72.4986 42.5506L70.0998 46.6998H79.8002L77.4032 42.5537L74.9173 38.3015Z" fill="white"/>
<path fill-rule="evenodd" clip-rule="evenodd" d="M97.2 54.3027L102.199 62.949L107.314 71.6997H87.2202L92.2014 62.949L97.2 54.3027ZM97.2 60.2967L94.8011 64.4462L92.3798 68.6997H102.086L99.6014 64.4505L97.2 60.2967Z" fill="white"/>
<path fill-rule="evenodd" clip-rule="evenodd" d="M52.8 76.7676L57.8011 85.5533L62.7998 94.1997H42.6649L47.8032 85.5457L52.8 76.7676ZM52.8 82.8319L50.3968 87.0537L47.9351 91.1997H57.6002L55.1964 87.0418L52.8 82.8319Z" fill="white"/>
<path fill-rule="evenodd" clip-rule="evenodd" d="M75 19.3999C44.293 19.3999 19.4 44.2929 19.4 74.9999C19.4 105.707 44.293 130.6 75 130.6C105.707 130.6 130.6 105.707 130.6 74.9999C130.6 44.2929 105.707 19.3999 75 19.3999ZM16.4 74.9999C16.4 42.636 42.6361 16.3999 75 16.3999C107.364 16.3999 133.6 42.636 133.6 74.9999C133.6 107.364 107.364 133.6 75 133.6C42.6361 133.6 16.4 107.364 16.4 74.9999Z" fill="white"/>
</g>
<defs>
<clipPath id="clip0_1_1984">
<rect width="150" height="150" fill="white"/>
</clipPath>
</defs>
</svg>
