<svg width="150" height="150" viewBox="0 0 150 150" fill="none" xmlns="http://www.w3.org/2000/svg">
<g clip-path="url(#clip0_214_437)">
<path fill-rule="evenodd" clip-rule="evenodd" d="M52.8 36.8C49.7625 36.8 47.3 39.2624 47.3 42.3C47.3 45.3376 49.7625 47.8 52.8 47.8C55.8376 47.8 58.3 45.3376 58.3 42.3C58.3 39.2624 55.8376 36.8 52.8 36.8ZM44.3 42.3C44.3 37.6056 48.1056 33.8 52.8 33.8C57.4945 33.8 61.3 37.6056 61.3 42.3C61.3 46.9944 57.4945 50.8 52.8 50.8C48.1056 50.8 44.3 46.9944 44.3 42.3Z" fill="#FF5F46"/>
<path fill-rule="evenodd" clip-rule="evenodd" d="M89.8 34.9H104.6V49.7H89.8V34.9ZM92.8 37.9V46.7H101.6V37.9H92.8Z" fill="#FF5F46"/>
<path fill-rule="evenodd" clip-rule="evenodd" d="M74.9 58.8C71.8625 58.8 69.4 61.2624 69.4 64.3C69.4 67.3376 71.8625 69.8 74.9 69.8C77.9376 69.8 80.4 67.3376 80.4 64.3C80.4 61.2624 77.9376 58.8 74.9 58.8ZM66.4 64.3C66.4 59.6056 70.2056 55.8 74.9 55.8C79.5944 55.8 83.4 59.6056 83.4 64.3C83.4 68.9944 79.5944 72.8 74.9 72.8C70.2056 72.8 66.4 68.9944 66.4 64.3Z" fill="#FF5F46"/>
<path fill-rule="evenodd" clip-rule="evenodd" d="M60.1566 71.7342H45.3566V56.9342H60.1566V71.7342ZM57.1566 68.7342V59.9342H48.3566V68.7342H57.1566Z" fill="#FF5F46"/>
<path fill-rule="evenodd" clip-rule="evenodd" d="M74.9 81.3C71.8625 81.3 69.4 83.7624 69.4 86.8C69.4 89.8376 71.8625 92.3 74.9 92.3C77.9376 92.3 80.4 89.8376 80.4 86.8C80.4 83.7624 77.9376 81.3 74.9 81.3ZM66.4 86.8C66.4 82.1056 70.2056 78.3 74.9 78.3C79.5944 78.3 83.4 82.1056 83.4 86.8C83.4 91.4944 79.5944 95.3 74.9 95.3C70.2056 95.3 66.4 91.4944 66.4 86.8Z" fill="#FF5F46"/>
<path fill-rule="evenodd" clip-rule="evenodd" d="M82.3589 116.19H67.5589V101.39H82.3589V116.19ZM79.3589 113.19V104.39H70.5589V113.19H79.3589Z" fill="#FF5F46"/>
<path fill-rule="evenodd" clip-rule="evenodd" d="M74.8826 32.2983L79.9986 41.0492L84.9998 49.7H64.9001L69.8988 41.0536L74.8826 32.2983ZM74.9173 38.3017L72.4986 42.5508L70.0998 46.7H79.8001L77.4032 42.5539L74.9173 38.3017Z" fill="#FF5F46"/>
<path fill-rule="evenodd" clip-rule="evenodd" d="M97.2 54.303L102.199 62.9492L107.314 71.7H87.2202L92.2014 62.9492L97.2 54.303ZM97.2 60.297L94.8011 64.4464L92.3799 68.7H102.086L99.6014 64.4508L97.2 60.297Z" fill="#FF5F46"/>
<path fill-rule="evenodd" clip-rule="evenodd" d="M52.8 76.7679L57.8011 85.5536L62.7998 94.2H42.6649L47.8032 85.546L52.8 76.7679ZM52.8 82.8322L50.3968 87.054L47.9351 91.2H57.6002L55.1964 87.0421L52.8 82.8322Z" fill="#FF5F46"/>
<path fill-rule="evenodd" clip-rule="evenodd" d="M75 19.4C44.293 19.4 19.4 44.293 19.4 75C19.4 105.707 44.293 130.6 75 130.6C105.707 130.6 130.6 105.707 130.6 75C130.6 44.293 105.707 19.4 75 19.4ZM16.4 75C16.4 42.6361 42.6361 16.4 75 16.4C107.364 16.4 133.6 42.6361 133.6 75C133.6 107.364 107.364 133.6 75 133.6C42.6361 133.6 16.4 107.364 16.4 75Z" fill="#FF5F46"/>
</g>
<defs>
<clipPath id="clip0_214_437">
<rect width="150" height="150" fill="white"/>
</clipPath>
</defs>
</svg>
