<svg width="136" height="136" viewBox="0 0 136 136" fill="none" xmlns="http://www.w3.org/2000/svg">
<rect width="136" height="136" fill="#9ED6C4"/>
<path d="M68 25L114.765 106H21.2346L68 25Z" fill="#00A972"/>
<path d="M68 43L68 61" stroke="white" stroke-width="2"/>
<path d="M99.1773 97L83.5889 88" stroke="white" stroke-width="2"/>
<path d="M36.8232 97L52.4116 88" stroke="white" stroke-width="2"/>
<path d="M21.1481 109.296C22.8868 109.296 24.2963 107.887 24.2963 106.148C24.2963 104.409 22.8868 103 21.1481 103C19.4095 103 18 104.409 18 106.148C18 107.887 19.4095 109.296 21.1481 109.296Z" fill="#095A35"/>
<path d="M115.148 109.296C116.887 109.296 118.296 107.887 118.296 106.148C118.296 104.409 116.887 103 115.148 103C113.409 103 112 104.409 112 106.148C112 107.887 113.409 109.296 115.148 109.296Z" fill="#095A35"/>
<path d="M68.0002 28.2963C69.7389 28.2963 71.1483 26.8868 71.1483 25.1481C71.1483 23.4095 69.7389 22 68.0002 22C66.2615 22 64.8521 23.4095 64.8521 25.1481C64.8521 26.8868 66.2615 28.2963 68.0002 28.2963Z" fill="#095A35"/>
</svg>
