<svg width="150" height="150" viewBox="0 0 150 150" fill="none" xmlns="http://www.w3.org/2000/svg">
<g clip-path="url(#clip0_1_2246)">
<path d="M86.778 95.644C83.528 92.394 78.25 92.394 75 95.644C71.75 92.394 66.472 92.394 63.222 95.644C59.972 98.894 59.972 104.172 63.222 107.422L75 119.2L86.778 107.422C90.028 104.172 90.028 98.894 86.778 95.644Z" stroke="#1B3139" stroke-width="3" stroke-miterlimit="3" stroke-linecap="square"/>
<path d="M107.942 103.461C104.146 94.3699 96.6927 87.1939 87.428 83.7446C91.7613 79.4286 94.5173 72.9026 94.5173 65.5966C94.5173 52.5966 85.7813 42.0666 75 42.0666C64.2187 42.0666 55.474 52.6052 55.474 65.5966C55.474 72.9026 58.2387 79.4286 62.5633 83.7446C50.5513 88.2166 41.5813 98.9546 39.692 111.998C29.9333 102.69 23.858 89.5512 23.858 75.0086C23.858 46.7726 46.7553 23.8752 74.9913 23.8752C103.227 23.8752 126.125 46.7726 126.125 75.0086C126.125 103.245 103.227 126.142 74.9913 126.142V119.209" stroke="#1B3139" stroke-width="3" stroke-miterlimit="3" stroke-linecap="square"/>
</g>
<defs>
<clipPath id="clip0_1_2246">
<rect width="130" height="130" fill="white" transform="translate(10 10)"/>
</clipPath>
</defs>
</svg>
