<svg width="150" height="150" viewBox="0 0 150 150" fill="none" xmlns="http://www.w3.org/2000/svg">
<g clip-path="url(#clip0_5483_2067)">
<path d="M86.778 95.644C83.528 92.394 78.25 92.394 75 95.644C71.75 92.394 66.472 92.394 63.222 95.644C59.972 98.894 59.972 104.172 63.222 107.422L75 119.2L86.778 107.422C90.028 104.172 90.028 98.894 86.778 95.644Z" stroke="#FF5F46" stroke-width="3" stroke-miterlimit="3" stroke-linecap="square"/>
<path d="M107.942 103.461C104.146 94.3702 96.6927 87.1942 87.428 83.7448C91.7614 79.4288 94.5174 72.9028 94.5174 65.5968C94.5174 52.5968 85.7814 42.0668 75 42.0668C64.2187 42.0668 55.474 52.6055 55.474 65.5968C55.474 72.9028 58.2387 79.4288 62.5634 83.7448C50.5514 88.2168 41.5814 98.9548 39.692 111.998C29.9334 102.69 23.858 89.5515 23.858 75.0088C23.858 46.7728 46.7554 23.8755 74.9914 23.8755C103.227 23.8755 126.125 46.7728 126.125 75.0088C126.125 103.245 103.227 126.142 74.9914 126.142V119.209" stroke="#FF5F46" stroke-width="3" stroke-miterlimit="3" stroke-linecap="square"/>
</g>
<defs>
<clipPath id="clip0_5483_2067">
<rect width="130" height="130" fill="white" transform="translate(10 10)"/>
</clipPath>
</defs>
</svg>
