<svg width="150" height="150" viewBox="0 0 150 150" fill="none" xmlns="http://www.w3.org/2000/svg">
<path d="M113.39 39C111.14 39.0109 108.903 39.3477 106.75 40C104.306 32.2649 99.261 25.6138 92.4707 21.176C85.6803 16.7381 77.5633 14.787 69.4978 15.6539C61.4323 16.5207 53.9154 20.1521 48.2231 25.9316C42.5309 31.711 39.0141 39.2823 38.27 47.36C35.5771 46.5761 32.7472 46.3802 29.972 46.7855C27.1967 47.1908 24.541 48.1879 22.1848 49.7092C19.8286 51.2306 17.8269 53.2406 16.3154 55.6031C14.8038 57.9656 13.8178 60.6254 13.424 63.4023C13.0302 66.1791 13.2378 69.0082 14.0329 71.6978C14.828 74.3875 16.1919 76.8748 18.0322 78.9912C19.8725 81.1077 22.1463 82.8038 24.6994 83.9648C27.2525 85.1257 30.0253 85.7243 32.83 85.72V82.72C30.4198 82.7222 28.0381 82.1984 25.851 81.1854C23.664 80.1723 21.7243 78.6944 20.1673 76.8546C18.6102 75.0148 17.4733 72.8574 16.8357 70.533C16.1982 68.2086 16.0754 65.7731 16.4759 63.3964C16.8765 61.0196 17.7907 58.7589 19.1549 56.7718C20.519 54.7848 22.3002 53.1192 24.3743 51.8914C26.4483 50.6635 28.7653 49.9029 31.1635 49.6626C33.5618 49.4223 35.9836 49.7081 38.26 50.5L39.1 50.82L41.1 51.62V49.16C41.3932 41.5746 44.3626 34.3379 49.482 28.7327C54.6014 23.1276 61.54 19.5161 69.0679 18.5384C76.5958 17.5607 84.2268 19.28 90.6081 23.3915C96.9895 27.503 101.709 33.7411 103.93 41C99.7948 42.8425 96.28 45.8406 93.8087 49.6336C91.3374 53.4266 90.0148 57.853 90 62.3801H93C92.998 58.3552 94.1896 54.4202 96.424 51.0725C98.6585 47.7249 101.835 45.115 105.553 43.5729C109.271 42.0309 113.362 41.6259 117.31 42.4091C121.258 43.1924 124.885 45.1288 127.733 47.9734C130.58 50.818 132.52 54.443 133.307 58.3902C134.094 62.3373 133.693 66.4292 132.155 70.1484C130.616 73.8677 128.01 77.0472 124.664 79.2849C121.319 81.5226 117.385 82.7181 113.36 82.72V85.72C119.468 85.5936 125.283 83.0785 129.558 78.7143C133.833 74.35 136.227 68.4842 136.227 62.375C136.227 56.2659 133.833 50.4001 129.558 46.0358C125.283 41.6716 119.468 39.1565 113.36 39.03L113.39 39Z" fill="white"/>
<path d="M37.05 116.36V98.49C37.05 97.2965 37.5241 96.1519 38.368 95.308C39.2119 94.4641 40.3565 93.99 41.55 93.99H67.75V91H41.55C39.5617 91.0026 37.6556 91.7937 36.2496 93.1996C34.8437 94.6056 34.0526 96.5117 34.05 98.5V116.26C31.7698 116.553 29.6832 117.693 28.2046 119.454C26.726 121.214 25.9635 123.467 26.0684 125.763C26.1734 128.06 27.1381 130.233 28.771 131.851C30.404 133.47 32.5858 134.415 34.8833 134.499C37.1807 134.583 39.4259 133.8 41.173 132.306C42.9201 130.812 44.0413 128.715 44.3142 126.432C44.587 124.149 43.9914 121.847 42.6458 119.983C41.3001 118.119 39.3026 116.83 37.05 116.37V116.36ZM35.19 131.54C33.9653 131.54 32.7681 131.177 31.75 130.496C30.7318 129.815 29.9384 128.848 29.4702 127.716C29.002 126.585 28.88 125.34 29.1197 124.139C29.3593 122.938 29.9499 121.835 30.8166 120.969C31.6832 120.104 32.7871 119.515 33.9885 119.278C35.1899 119.04 36.4348 119.164 37.5657 119.634C38.6966 120.104 39.6627 120.899 40.3417 121.918C41.0206 122.938 41.382 124.135 41.38 125.36C41.38 126.172 41.2198 126.977 40.9086 127.727C40.5974 128.478 40.1413 129.159 39.5664 129.733C38.9915 130.307 38.309 130.762 37.5581 131.072C36.8071 131.382 36.0024 131.541 35.19 131.54V131.54Z" fill="white"/>
<path d="M75.25 116.31V100H72.25V116.33C69.9766 116.707 67.9279 117.924 66.5108 119.742C65.0938 121.559 64.412 123.842 64.6009 126.139C64.7898 128.436 65.8356 130.577 67.5305 132.139C69.2255 133.7 71.4456 134.567 73.75 134.567C76.0544 134.567 78.2745 133.7 79.9695 132.139C81.6644 130.577 82.7102 128.436 82.8991 126.139C83.088 123.842 82.4062 121.559 80.9892 119.742C79.5721 117.924 77.5234 116.707 75.25 116.33V116.31ZM73.75 131.54C72.5249 131.542 71.3267 131.18 70.3073 130.501C69.2878 129.822 68.4929 128.855 68.0231 127.723C67.5534 126.592 67.4299 125.347 67.6685 124.145C67.907 122.943 68.4967 121.839 69.363 120.973C70.2293 120.107 71.3332 119.517 72.5349 119.278C73.7365 119.04 74.982 119.163 76.1134 119.633C77.2449 120.103 78.2116 120.898 78.891 121.917C79.5704 122.937 79.932 124.135 79.93 125.36C79.9274 126.998 79.2754 128.569 78.117 129.727C76.9586 130.885 75.3882 131.537 73.75 131.54V131.54Z" fill="white"/>
<path d="M113.46 116.25V98.49C113.452 96.5111 112.665 94.6151 111.268 93.213C109.872 91.8109 107.979 91.0158 106 91H79.75C78.5573 90.9973 77.4143 90.5224 76.5709 89.679C75.7276 88.8357 75.2526 87.6926 75.25 86.5V57L81.4 63.16L83.52 61L73.75 51.23L64 61L66.12 63.13L72.25 57V86.49C72.25 88.4791 73.0402 90.3868 74.4467 91.7933C75.8532 93.1998 77.7609 93.99 79.75 93.99H106C107.193 93.9926 108.336 94.4676 109.179 95.3109C110.022 96.1543 110.497 97.2973 110.5 98.49V116.36C108.237 116.82 106.229 118.115 104.876 119.986C103.523 121.858 102.924 124.171 103.197 126.464C103.47 128.758 104.596 130.864 106.351 132.366C108.106 133.867 110.362 134.654 112.67 134.569C114.978 134.485 117.17 133.535 118.81 131.909C120.45 130.283 121.419 128.099 121.523 125.792C121.628 123.485 120.861 121.223 119.374 119.455C117.888 117.687 115.791 116.543 113.5 116.25H113.46ZM112.31 131.54C111.085 131.542 109.887 131.18 108.867 130.501C107.848 129.822 107.053 128.855 106.583 127.723C106.113 126.592 105.99 125.347 106.228 124.145C106.467 122.943 107.057 121.839 107.923 120.973C108.789 120.107 109.893 119.517 111.095 119.278C112.297 119.04 113.542 119.163 114.673 119.633C115.805 120.103 116.772 120.898 117.451 121.917C118.13 122.937 118.492 124.135 118.49 125.36C118.487 126.998 117.835 128.569 116.677 129.727C115.519 130.885 113.948 131.537 112.31 131.54V131.54Z" fill="white"/>
</svg>
