<svg width="150" height="150" viewBox="0 0 150 150" fill="none" xmlns="http://www.w3.org/2000/svg">
<path d="M104.7 35.6999H80.7V18.8999C80.7 16.1999 79.6 13.4999 77.6 11.6999C75.6 9.79993 73 8.89993 70.2 8.99993C65 9.39993 61 13.7999 61 19.1999V35.7999H45.1V38.7999H61V42.7999C61 45.5999 59.6 48.2999 57.3 50.0999C51.7 54.3999 48.4 60.8999 48.4 67.9999C48.4 76.8999 53.7 84.9999 61.9 88.5999L64 89.4999V69.8999C64 66.0999 67.1 62.9999 70.9 62.9999C74.7 62.9999 77.8 66.0999 77.8 69.8999V89.2999L79.9 88.3999C88.1 84.7999 93.4 76.6999 93.4 67.7999C93.4 60.6999 90.2 54.1999 84.5 49.8999C82.1 48.0999 80.8 45.4999 80.8 42.5999V38.5999H104.7C111.5 38.5999 117 44.0999 117 50.8999V110.2C114.2 106.4 109.7 103.9 104.7 103.9H103.2H96.6V106.9H103.2V134.6H104.7C113.2 134.6 120 127.7 120 119.3V51.0999C120 42.5999 113.1 35.6999 104.7 35.6999ZM82.6 52.3999C87.5 56.0999 90.3 61.7999 90.3 67.8999C90.3 74.7999 86.6 81.1999 80.7 84.6999V69.8999C80.7 64.3999 76.3 59.9999 70.8 59.9999C65.3 59.9999 60.9 64.3999 60.9 69.8999V84.5999C55 81.0999 51.3 74.7999 51.3 67.7999C51.3 61.6999 54.1 55.9999 59 52.2999C62.1 49.8999 63.9 46.3999 63.9 42.6999V19.1999C63.9 15.3999 66.7 12.2999 70.3 11.9999C70.5 11.9999 70.6 11.9999 70.8 11.9999C72.6 11.9999 74.2 12.6999 75.5 13.8999C76.9 15.1999 77.7 16.9999 77.7 18.8999V42.6999C77.7 46.4999 79.5 49.9999 82.6 52.3999ZM106.2 131.7V107.2C112.3 107.9 117 113.2 117 119.5C117 125.8 112.3 131 106.2 131.7Z" fill="#FF5F46"/>
<path d="M60.1 117.4C60.1 123.5 65.1 128.5 71.2 128.5C77.3 128.5 82.3 123.5 82.3 117.4C82.3 111.3 77.3 106.3 71.2 106.3C65.1 106.3 60.1 111.3 60.1 117.4ZM79.3 117.4C79.3 121.9 75.7 125.5 71.2 125.5C66.7 125.5 63.1 121.9 63.1 117.4C63.1 112.9 66.7 109.3 71.2 109.3C75.7 109.3 79.3 112.9 79.3 117.4Z" fill="#FF5F46"/>
<path d="M50.1 105.2V129.6L71.2 141.8L92.3 129.6V105.2L71.2 93L50.1 105.2ZM89.3 127.8L71.2 138.3L53.1 127.8V106.9L71.2 96.4L89.3 106.9V127.8Z" fill="#FF5F46"/>
<path d="M27.2 93.4C27.3 89.6 29.2 87.1 30.8 85.6C33.6 83 37.1 82 39.3 82.1L40.9 82.2V8.19995H39.4C30.9 8.19995 24 15.1 24 23.6C24 53.7 24.2 94 24.2 94C24.8 101.9 31.4 108.2 39.4 108.2H46V105.2H39.4C32.8 105.2 27.4 100 27.2 93.4ZM27 23.6C27 17.3 31.7 12.1 37.8 11.3V79.1C34.7 79.4 31.2 81 28.6 83.4C28.1 83.9 27.5 84.5 27 85.1V23.6Z" fill="#FF5F46"/>
</svg>
