<svg width="150" height="150" viewBox="0 0 150 150" fill="none" xmlns="http://www.w3.org/2000/svg">
<path d="M63.3 49.2L66.2 48.4L63.1 36.8C66.9 35.8 70.8 35.2 74.9 35.2C79 35.2 83 35.7 86.8 36.8L83.7 48.4L86.6 49.2L89.6 37.7C96.4 40 102.4 43.8 107.4 48.7L99 57.2L101.1 59.3L109.5 50.8C116.7 59 121 69.6 121 81.2C121 85.3 120.5 89.2 119.5 93.1L107.8 90L107 92.9L118.6 95.9C117 100.8 114.5 105.4 111.2 109.6L113.6 111.5C120.4 102.8 124 92.4 124 81.3C124 54.3 102 32.3 75 32.3C48 32.3 26 54.3 26 81.3C26 94.8 31.6 107.8 41.4 117L42.5 118L53.1 107.5L51 105.4L42.5 113.9C37.4 108.8 33.7 102.8 31.5 96.1L43.1 93.1L42.2 90L30.5 93.1C29.5 89.3 29 85.3 29 81.2C29 78.1 29.3 75.1 29.9 72.2L41.4 75.3L42.2 72.4L30.6 69.2C32.5 62.3 35.9 56 40.5 50.8L48.9 59.3L51 57.2L42.5 48.7C47.4 43.8 53.5 40 60.3 37.7L63.3 49.2Z" fill="#1B3139"/>
<path d="M113.4 70.6L85 77.4C83.4 73.4 79.5 70.6 75 70.6C69 70.6 64.2 75.4 64.2 81.4C64.2 87.4 69 92.2 75 92.2C81 92.2 85.8 87.4 85.8 81.4C85.8 81.1 85.8 80.7 85.7 80.4L114.1 73.6L113.4 70.6ZM82.8 81.4C82.8 85.7 79.3 89.2 75 89.2C70.7 89.2 67.2 85.7 67.2 81.4C67.2 77.1 70.7 73.6 75 73.6C78.1 73.6 80.8 75.5 82.1 78.2L74.7 80L75.4 82.9L82.8 81.1C82.8 81.2 82.8 81.3 82.8 81.4Z" fill="#1B3139"/>
<path d="M75 22.6C42.7 22.6 16.4 48.9 16.4 81.2C16.4 99.2 24.5 115.9 38.5 127.1L38.9 127.4H61.3V115.3H88.7V127.4H102.9V124.4H91.7V112.3H58.3V124.4H40C26.9 113.8 19.4 98.1 19.4 81.2C19.4 50.5 44.4 25.6 75 25.6C105.7 25.6 130.7 50.6 130.7 81.2C130.7 96.1 124.9 110 114.5 120.5L99 105.2L96.9 107.3L114.4 124.6L115.5 123.6C127.1 112.6 133.7 97.1 133.7 81.1C133.6 48.9 107.3 22.6 75 22.6Z" fill="#1B3139"/>
</svg>
