<svg width="150" height="150" viewBox="0 0 150 150" fill="none" xmlns="http://www.w3.org/2000/svg">
<path d="M63.3 49.2001L66.2 48.4001L63.1 36.8C66.9 35.8 70.8 35.2001 74.9 35.2001C79 35.2001 83 35.7 86.8 36.8L83.7 48.4001L86.6 49.2001L89.6 37.7001C96.4 40.0001 102.4 43.8001 107.4 48.7001L99 57.2001L101.1 59.3L109.5 50.8C116.7 59 121 69.6 121 81.2C121 85.3 120.5 89.2 119.5 93.1L107.8 90L107 92.9001L118.6 95.9001C117 100.8 114.5 105.4 111.2 109.6L113.6 111.5C120.4 102.8 124 92.4001 124 81.3001C124 54.3001 102 32.3 75 32.3C48 32.3 26 54.3001 26 81.3001C26 94.8001 31.6 107.8 41.4 117L42.5 118L53.1 107.5L51 105.4L42.5 113.9C37.4 108.8 33.7 102.8 31.5 96.1L43.1 93.1L42.2 90L30.5 93.1C29.5 89.3 29 85.3 29 81.2C29 78.1 29.3 75.1 29.9 72.2L41.4 75.3001L42.2 72.4001L30.6 69.2C32.5 62.3 35.9 56 40.5 50.8L48.9 59.3L51 57.2001L42.5 48.7001C47.4 43.8001 53.5 40.0001 60.3 37.7001L63.3 49.2001Z" fill="#FF5F46"/>
<path d="M113.4 70.6001L85.0001 77.4001C83.4001 73.4001 79.5001 70.6001 75.0001 70.6001C69.0001 70.6001 64.2001 75.4001 64.2001 81.4001C64.2001 87.4001 69.0001 92.2001 75.0001 92.2001C81.0001 92.2001 85.8001 87.4001 85.8001 81.4001C85.8001 81.1001 85.8001 80.7001 85.7001 80.4001L114.1 73.6001L113.4 70.6001ZM82.8001 81.4001C82.8001 85.7001 79.3001 89.2001 75.0001 89.2001C70.7001 89.2001 67.2001 85.7001 67.2001 81.4001C67.2001 77.1001 70.7001 73.6001 75.0001 73.6001C78.1001 73.6001 80.8001 75.5001 82.1001 78.2001L74.7001 80.0001L75.4001 82.9001L82.8001 81.1001C82.8001 81.2001 82.8001 81.3001 82.8001 81.4001Z" fill="#FF5F46"/>
<path d="M75 22.6001C42.7 22.6001 16.4 48.9001 16.4 81.2001C16.4 99.2001 24.5 115.9 38.5 127.1L38.9 127.4H61.3V115.3H88.7V127.4H102.9V124.4H91.7V112.3H58.3V124.4H40C26.9 113.8 19.4 98.1001 19.4 81.2001C19.4 50.5001 44.4 25.6001 75 25.6001C105.7 25.6001 130.7 50.6001 130.7 81.2001C130.7 96.1001 124.9 110 114.5 120.5L99 105.2L96.9 107.3L114.4 124.6L115.5 123.6C127.1 112.6 133.7 97.1001 133.7 81.1001C133.6 48.9001 107.3 22.6001 75 22.6001Z" fill="#FF5F46"/>
</svg>
