<svg width="1080" height="1080" viewBox="0 0 1080 1080" fill="none" xmlns="http://www.w3.org/2000/svg">
<path d="M906.587 751.553V328.482L540.193 116.947L173.8 328.482V751.553L540.193 963.053L906.587 751.553Z" fill="white"/>
<mask id="mask0_4201_1593" style="mask-type:luminance" maskUnits="userSpaceOnUse" x="170" y="112" width="741" height="856">
<path d="M170.068 326.3V753.7L540.193 967.383L910.283 753.7V326.3L540.193 112.617L170.068 326.3Z" fill="white"/>
</mask>
<g mask="url(#mask0_4201_1593)">
<path d="M540.193 197.069C540.193 197.069 549.381 240.404 568.884 265.997C588.703 292.047 600.355 325.314 597.574 355.941C594.793 386.567 540.228 403.078 540.228 403.078C540.228 403.078 485.664 386.567 482.883 355.941C480.102 325.314 493.021 292.998 511.573 265.997C530.477 238.468 540.264 197.069 540.264 197.069H540.193Z" fill="#EA2136"/>
<path d="M430.184 792.6C430.184 792.6 360.165 864.837 268.531 827.803C176.897 790.769 126.099 774.611 116.137 774.611C116.137 774.611 106.175 701.494 230.441 656.857C230.441 656.857 293.807 710.154 454.65 703.994C454.65 703.994 416.771 735.571 430.184 792.6Z" fill="#883A32"/>
<path d="M273.178 299.862C278.74 338.163 273.248 433.036 312.781 485.066C352.314 537.096 425.466 516.08 425.466 516.08C425.466 516.08 458.487 422.158 430.184 376.429C401.88 330.7 327.426 294.899 273.178 299.827V299.862Z" fill="#EA2136"/>
<path d="M441.519 707.655C441.519 707.655 309.367 721.419 230.441 656.857C151.516 592.294 104.344 484.045 33.5857 503.019C33.5857 503.019 48.0894 454.439 121.593 441.308C158.768 434.655 244.945 479.292 244.945 479.292C244.945 479.292 267.616 579.938 328.412 636.932C389.172 693.89 441.519 707.655 441.519 707.655Z" fill="#C92B32"/>
<path d="M441.519 707.655C441.519 707.655 389.207 693.89 328.412 636.932C267.651 579.973 244.945 479.292 244.945 479.292C239.489 452.714 244.945 440.639 244.945 440.639C244.945 440.639 307.536 495.451 361.045 499.253C361.045 499.253 509.743 602.89 441.484 707.69L441.519 707.655Z" fill="#F05A2B"/>
<path d="M650.168 792.6C650.168 792.6 720.187 864.837 811.82 827.803C903.454 790.769 954.252 774.611 964.214 774.611C964.214 774.611 974.177 701.494 849.91 656.857C849.91 656.857 793.303 710.506 632.461 704.346C632.461 704.346 663.58 735.571 650.168 792.6Z" fill="#883A32"/>
<path d="M807.209 299.862C801.647 338.163 807.138 433.036 767.605 485.066C728.072 537.096 654.92 516.08 654.92 516.08C654.92 516.08 621.9 422.158 650.203 376.429C678.506 330.7 752.961 294.899 807.209 299.827V299.862Z" fill="#EA2136"/>
<path d="M638.867 707.655C638.867 707.655 771.02 721.419 849.945 656.857C928.87 592.294 976.043 484.045 1046.8 503.019C1046.8 503.019 1032.3 454.439 958.793 441.308C921.619 434.655 835.441 479.292 835.441 479.292C835.441 479.292 812.771 579.938 751.975 636.932C691.214 693.89 638.867 707.655 638.867 707.655Z" fill="#C92B32"/>
<path d="M638.867 707.655C638.867 707.655 691.179 693.89 751.975 636.932C812.735 579.973 835.441 479.292 835.441 479.292C840.898 452.714 835.441 440.639 835.441 440.639C835.441 440.639 772.85 495.451 719.342 499.253C719.342 499.253 592.575 629.856 638.903 707.69L638.867 707.655Z" fill="#F05A2B"/>
<path d="M461.479 280.923C461.479 280.923 426.558 359.708 430.184 403.113C433.81 446.518 467.323 471.02 467.323 471.02C467.323 471.02 511.855 405.296 513.967 379.492C516.079 353.688 461.479 280.958 461.479 280.958V280.923Z" fill="#F38035"/>
<path d="M352.314 367.804C352.314 391.285 341.613 486.368 388.292 574.13C388.292 574.13 419.799 587.19 451.482 602.327C451.482 602.327 445.955 501.576 467.323 460.74C467.323 460.74 436.767 415.997 409.308 403.641C381.85 391.285 352.35 367.804 352.35 367.804H352.314Z" fill="#F8BD5E"/>
<path d="M540.193 724.306C585.218 724.306 638.868 707.69 638.868 707.69C691.707 787.319 602.292 887.648 540.193 931.089C478.095 887.648 388.679 787.319 441.519 707.69C441.519 707.69 495.169 724.306 540.193 724.306Z" fill="#EA2136"/>
<path d="M618.872 280.923C618.872 280.923 653.794 359.708 650.168 403.113C646.542 446.518 613.028 471.02 613.028 471.02C613.028 471.02 568.497 405.296 566.384 379.492C564.272 353.688 618.872 280.958 618.872 280.958V280.923Z" fill="#F38035"/>
<path d="M540.193 340.627C560.435 371.536 626.546 460.494 628.905 516.115C631.264 571.736 628.905 602.362 628.905 602.362C628.905 602.362 540.193 645.838 540.193 724.306C540.193 645.803 451.481 602.362 451.481 602.362C451.481 602.362 449.123 571.736 451.481 516.115C453.84 460.494 519.951 371.536 540.193 340.627Z" fill="#FDFADC"/>
<path d="M728.072 367.804C728.072 391.285 738.774 486.368 692.095 574.13C692.095 574.13 660.588 587.19 628.905 602.327C628.905 602.327 634.432 501.576 613.064 460.74C613.064 460.74 643.62 415.997 671.078 403.641C698.537 391.285 728.037 367.804 728.037 367.804H728.072Z" fill="#F8BD5E"/>
<path d="M540.193 516.115C553.359 534.667 593.35 559.591 597.539 621.9C597.539 621.9 541.601 661.609 540.193 724.306C532.378 659.075 481.932 623.519 481.932 623.519C486.156 561.245 527.027 534.632 540.193 516.115Z" fill="#FCF072"/>
<path d="M692.095 574.165C692.095 574.165 723.848 559.063 738.352 535.336C738.352 535.336 747.997 631.229 638.868 707.69C638.868 707.69 591.484 724.306 540.193 724.306C540.193 724.306 538.785 667.347 586.873 629.821C634.96 592.329 679.809 581.1 692.095 574.165Z" fill="#F38035"/>
<path d="M388.292 574.165C388.292 574.165 356.539 559.063 342.035 535.336C342.035 535.336 332.389 631.229 441.519 707.69C441.519 707.69 488.902 724.306 540.193 724.306C540.193 724.306 541.601 667.347 493.514 629.821C445.427 592.329 400.578 581.1 388.292 574.165Z" fill="#F38035"/>
</g>
<path d="M540.193 132.718L892.893 336.368V743.632L540.193 947.282L187.494 743.632V336.368L540.193 132.718ZM540.193 101L160 320.491V759.509L540.193 979L920.387 759.509V320.491L540.193 101Z" fill="#1B3139"/>
</svg>
