<svg width="1080" height="1080" viewBox="0 0 1080 1080" fill="none" xmlns="http://www.w3.org/2000/svg">
<path d="M906.587 751.553V328.483L540.193 116.947L173.8 328.483V751.553L540.193 963.053L906.587 751.553Z" fill="white"/>
<mask id="mask0_4257_27" style="mask-type:luminance" maskUnits="userSpaceOnUse" x="170" y="112" width="741" height="856">
<path d="M170.068 326.3V753.7L540.193 967.383L910.283 753.7V326.3L540.193 112.617L170.068 326.3Z" fill="white"/>
</mask>
<g mask="url(#mask0_4257_27)">
<path d="M540.193 197.069C540.193 197.069 549.381 240.404 568.884 265.997C588.703 292.047 600.355 325.314 597.574 355.941C594.793 386.568 540.228 403.078 540.228 403.078C540.228 403.078 485.664 386.568 482.883 355.941C480.102 325.314 493.021 292.998 511.573 265.997C530.477 238.468 540.264 197.069 540.264 197.069H540.193Z" fill="#EA2136"/>
<path d="M430.184 792.6C430.184 792.6 360.165 864.837 268.531 827.803C176.897 790.769 126.099 774.611 116.137 774.611C116.137 774.611 106.175 701.494 230.441 656.857C230.441 656.857 293.807 710.154 454.65 703.994C454.65 703.994 416.771 735.571 430.184 792.6Z" fill="#883A32"/>
<path d="M273.178 299.863C278.74 338.164 273.248 433.036 312.781 485.066C352.314 537.096 425.466 516.08 425.466 516.08C425.466 516.08 458.487 422.158 430.184 376.429C401.88 330.7 327.426 294.899 273.178 299.827V299.863Z" fill="#EA2136"/>
<path d="M441.519 707.655C441.519 707.655 309.367 721.419 230.441 656.857C151.516 592.295 104.344 484.045 33.5857 503.02C33.5857 503.02 48.0894 454.439 121.593 441.309C158.768 434.655 244.945 479.293 244.945 479.293C244.945 479.293 267.616 579.938 328.412 636.932C389.172 693.891 441.519 707.655 441.519 707.655Z" fill="#C92B32"/>
<path d="M441.519 707.655C441.519 707.655 389.207 693.891 328.412 636.932C267.651 579.973 244.945 479.293 244.945 479.293C239.489 452.714 244.945 440.64 244.945 440.64C244.945 440.64 307.536 495.451 361.045 499.253C361.045 499.253 509.743 602.891 441.484 707.69L441.519 707.655Z" fill="#F05A2B"/>
<path d="M650.168 792.6C650.168 792.6 720.187 864.837 811.82 827.803C903.454 790.769 954.252 774.611 964.214 774.611C964.214 774.611 974.177 701.494 849.91 656.857C849.91 656.857 793.303 710.506 632.461 704.346C632.461 704.346 663.58 735.571 650.168 792.6Z" fill="#883A32"/>
<path d="M807.209 299.863C801.647 338.164 807.138 433.036 767.605 485.066C728.072 537.096 654.92 516.08 654.92 516.08C654.92 516.08 621.9 422.158 650.203 376.429C678.506 330.7 752.961 294.899 807.209 299.827V299.863Z" fill="#EA2136"/>
<path d="M638.867 707.655C638.867 707.655 771.02 721.419 849.945 656.857C928.87 592.295 976.043 484.045 1046.8 503.02C1046.8 503.02 1032.3 454.439 958.793 441.309C921.619 434.655 835.441 479.293 835.441 479.293C835.441 479.293 812.771 579.938 751.975 636.932C691.214 693.891 638.867 707.655 638.867 707.655Z" fill="#C92B32"/>
<path d="M638.867 707.655C638.867 707.655 691.179 693.891 751.975 636.932C812.735 579.973 835.441 479.293 835.441 479.293C840.898 452.714 835.441 440.64 835.441 440.64C835.441 440.64 772.85 495.451 719.342 499.253C719.342 499.253 592.575 629.856 638.903 707.69L638.867 707.655Z" fill="#F05A2B"/>
<path d="M461.479 280.923C461.479 280.923 426.558 359.707 430.184 403.113C433.81 446.518 467.323 471.019 467.323 471.019C467.323 471.019 511.855 405.295 513.967 379.491C516.079 353.688 461.479 280.958 461.479 280.958V280.923Z" fill="#F38035"/>
<path d="M352.314 367.804C352.314 391.285 341.613 486.368 388.292 574.129C388.292 574.129 419.799 587.19 451.482 602.327C451.482 602.327 445.955 501.576 467.323 460.74C467.323 460.74 436.767 415.997 409.308 403.641C381.85 391.285 352.35 367.804 352.35 367.804H352.314Z" fill="#F8BD5E"/>
<path d="M540.193 724.306C585.218 724.306 638.868 707.69 638.868 707.69C691.707 787.319 602.292 887.648 540.193 931.089C478.095 887.648 388.679 787.319 441.519 707.69C441.519 707.69 495.169 724.306 540.193 724.306Z" fill="#EA2136"/>
<path d="M618.872 280.923C618.872 280.923 653.794 359.707 650.168 403.113C646.542 446.518 613.028 471.019 613.028 471.019C613.028 471.019 568.497 405.295 566.384 379.491C564.272 353.688 618.872 280.958 618.872 280.958V280.923Z" fill="#F38035"/>
<path d="M540.193 340.627C560.435 371.536 626.546 460.494 628.905 516.115C631.264 571.736 628.905 602.362 628.905 602.362C628.905 602.362 540.193 645.838 540.193 724.306C540.193 645.803 451.481 602.362 451.481 602.362C451.481 602.362 449.123 571.736 451.481 516.115C453.84 460.494 519.951 371.536 540.193 340.627Z" fill="#FDFADC"/>
<path d="M728.072 367.804C728.072 391.285 738.774 486.368 692.095 574.129C692.095 574.129 660.588 587.19 628.905 602.327C628.905 602.327 634.432 501.576 613.064 460.74C613.064 460.74 643.62 415.997 671.078 403.641C698.537 391.285 728.037 367.804 728.037 367.804H728.072Z" fill="#F8BD5E"/>
<path d="M540.193 516.115C553.359 534.667 593.35 559.591 597.539 621.9C597.539 621.9 541.601 661.609 540.193 724.306C532.378 659.074 481.932 623.519 481.932 623.519C486.156 561.245 527.027 534.632 540.193 516.115Z" fill="#FCF072"/>
<path d="M692.095 574.165C692.095 574.165 723.848 559.063 738.352 535.336C738.352 535.336 747.997 631.229 638.868 707.69C638.868 707.69 591.484 724.306 540.193 724.306C540.193 724.306 538.785 667.347 586.873 629.821C634.96 592.33 679.809 581.1 692.095 574.165Z" fill="#F38035"/>
<path d="M388.292 574.165C388.292 574.165 356.539 559.063 342.035 535.336C342.035 535.336 332.389 631.229 441.519 707.69C441.519 707.69 488.902 724.306 540.193 724.306C540.193 724.306 541.601 667.347 493.514 629.821C445.427 592.33 400.578 581.1 388.292 574.165Z" fill="#F38035"/>
</g>
<path d="M540.193 132.718L892.893 336.368V743.632L540.193 947.282L187.494 743.632V336.368L540.193 132.718ZM540.193 101L160 320.491V759.509L540.193 979L920.387 759.509V320.491L540.193 101Z" fill="#1B3139"/>
<path d="M930.858 794.402L921.498 778.19L923.389 777.098L929.018 786.848L930.872 779.503L933.191 778.164L931.149 786.067L940.27 788.968L937.86 790.359L929.408 787.523L932.749 793.31L930.858 794.402Z" fill="#1B3139"/>
<path d="M922.678 799.124L916.23 787.956L917.941 786.968L919.334 789.016C919.254 788.081 919.442 787.193 919.896 786.35C920.35 785.507 921.095 784.787 922.131 784.189L923.275 786.171L922.757 786.47C922.096 786.851 921.558 787.322 921.141 787.883C920.716 788.429 920.498 789.075 920.488 789.821C920.479 790.567 920.756 791.428 921.319 792.403L924.569 798.033L922.678 799.124Z" fill="#1B3139"/>
<path d="M914.597 804.15C913.546 804.757 912.462 805.062 911.344 805.067C910.226 805.072 909.168 804.783 908.17 804.198C907.178 803.59 906.34 802.693 905.656 801.507C904.971 800.321 904.625 799.15 904.618 797.993C904.602 796.821 904.875 795.753 905.439 794.787C906.017 793.813 906.832 793.022 907.882 792.415C908.933 791.809 910.017 791.503 911.135 791.498C912.253 791.493 913.308 791.795 914.3 792.403C915.298 792.988 916.139 793.873 916.824 795.059C917.509 796.245 917.859 797.423 917.875 798.595C917.882 799.752 917.597 800.817 917.018 801.791C916.455 802.757 915.648 803.543 914.597 804.15ZM913.661 802.529C914.307 802.156 914.816 801.652 915.19 801.016C915.563 800.38 915.74 799.647 915.722 798.817C915.703 797.988 915.425 797.107 914.887 796.177C914.35 795.246 913.727 794.565 913.018 794.134C912.323 793.694 911.608 793.477 910.87 793.482C910.133 793.488 909.449 793.673 908.818 794.037C908.173 794.409 907.663 794.913 907.29 795.549C906.917 796.185 906.739 796.918 906.758 797.748C906.777 798.578 907.055 799.458 907.592 800.389C908.129 801.319 908.753 802 909.462 802.431C910.171 802.863 910.887 803.08 911.609 803.083C912.347 803.078 913.031 802.893 913.661 802.529Z" fill="#1B3139"/>
<path d="M895.047 815.077L885.334 805.794L887.225 804.702L894.646 812.096L892.201 801.829L894.34 800.594L902.032 807.832L899.316 797.721L901.23 796.616L904.413 809.669L902.477 810.787L894.413 803.164L896.983 813.959L895.047 815.077Z" fill="#1B3139"/>
<path d="M888.5 818.857C887.48 819.446 886.534 819.662 885.662 819.505C884.791 819.347 883.982 818.623 883.237 817.332L879.688 811.185L877.752 812.303L876.829 810.704L878.765 809.586L877.466 806.764L879.109 805.815L880.656 808.494L883.944 806.596L884.867 808.195L881.579 810.093L885.128 816.24C885.536 816.946 885.956 817.344 886.388 817.434C886.812 817.51 887.384 817.339 888.105 816.923L889.276 816.247L890.212 817.869L888.5 818.857Z" fill="#1B3139"/>
<path d="M876.819 825.961C875.753 826.577 874.669 826.883 873.566 826.879C872.454 826.86 871.407 826.554 870.424 825.961C869.456 825.359 868.629 824.465 867.945 823.279C867.269 822.108 866.912 820.953 866.875 819.814C866.829 818.66 867.08 817.604 867.628 816.647C868.183 815.666 869.008 814.859 870.104 814.227C871.185 813.603 872.258 813.313 873.325 813.358C874.398 813.379 875.374 813.666 876.254 814.219C877.133 814.772 877.838 815.506 878.366 816.422C878.462 816.587 878.549 816.756 878.63 816.93C878.725 817.095 878.833 817.283 878.955 817.493L870.061 822.628C870.6 823.458 871.206 824.058 871.881 824.429C872.562 824.776 873.247 824.941 873.938 824.923C874.643 824.896 875.295 824.709 875.896 824.363C876.676 823.912 877.225 823.355 877.543 822.691C877.86 822.028 877.961 821.319 877.846 820.565L879.715 819.486C880.013 820.695 879.933 821.892 879.476 823.076C879.026 824.237 878.14 825.199 876.819 825.961ZM870.982 815.851C870.081 816.371 869.438 817.113 869.053 818.076C868.675 819.015 868.737 820.04 869.238 821.151L876.263 817.095C875.638 816.116 874.837 815.527 873.863 815.329C872.888 815.131 871.927 815.305 870.982 815.851Z" fill="#1B3139"/>
<path d="M856.23 837.488L847.13 821.727L849.021 820.635L864.713 828.417L857.42 815.786L859.311 814.694L868.411 830.455L866.52 831.547L850.828 823.764L858.121 836.396L856.23 837.488Z" fill="#1B3139"/>
<path d="M842.516 845.766C841.45 846.381 840.366 846.687 839.263 846.684C838.151 846.665 837.104 846.359 836.121 845.766C835.153 845.164 834.327 844.27 833.642 843.084C832.966 841.913 832.609 840.758 832.572 839.619C832.526 838.464 832.777 837.409 833.325 836.452C833.88 835.471 834.705 834.664 835.801 834.031C836.882 833.407 837.956 833.118 839.022 833.163C840.095 833.184 841.071 833.471 841.951 834.023C842.831 834.576 843.535 835.311 844.063 836.226C844.159 836.391 844.247 836.561 844.327 836.735C844.422 836.9 844.531 837.087 844.652 837.298L835.758 842.433C836.297 843.262 836.904 843.863 837.578 844.234C838.259 844.581 838.945 844.746 839.635 844.728C840.34 844.701 840.993 844.514 841.593 844.167C842.374 843.717 842.923 843.16 843.24 842.496C843.557 841.832 843.658 841.124 843.543 840.369L845.412 839.29C845.71 840.5 845.63 841.696 845.173 842.881C844.723 844.042 843.837 845.003 842.516 845.766ZM836.679 835.656C835.778 836.176 835.136 836.918 834.751 837.88C834.372 838.819 834.434 839.845 834.935 840.956L841.961 836.9C841.335 835.92 840.535 835.332 839.56 835.134C838.585 834.936 837.625 835.11 836.679 835.656Z" fill="#1B3139"/>
<path d="M829.696 853.168C828.631 853.783 827.546 854.089 826.443 854.085C825.332 854.066 824.284 853.76 823.301 853.167C822.333 852.565 821.507 851.671 820.822 850.485C820.146 849.314 819.79 848.159 819.752 847.02C819.706 845.866 819.958 844.81 820.506 843.853C821.06 842.872 821.886 842.066 822.982 841.433C824.062 840.809 825.136 840.519 826.203 840.564C827.275 840.585 828.252 840.872 829.131 841.425C830.011 841.978 830.715 842.712 831.244 843.628C831.339 843.793 831.427 843.962 831.507 844.136C831.603 844.301 831.711 844.489 831.832 844.699L822.938 849.834C823.477 850.664 824.084 851.264 824.759 851.635C825.44 851.982 826.125 852.147 826.815 852.129C827.52 852.102 828.173 851.915 828.773 851.569C829.554 851.118 830.103 850.561 830.42 849.897C830.738 849.234 830.839 848.525 830.724 847.771L832.593 846.692C832.89 847.901 832.811 849.098 832.354 850.282C831.903 851.443 831.017 852.405 829.696 853.168ZM823.859 843.058C822.959 843.578 822.316 844.319 821.931 845.282C821.553 846.221 821.614 847.246 822.116 848.357L829.141 844.301C828.515 843.322 827.715 842.733 826.74 842.535C825.765 842.337 824.805 842.512 823.859 843.058Z" fill="#1B3139"/>
<path d="M817.139 866.662L816.424 859.029L815.771 859.406L805.512 851.879L807.561 850.696L816.271 857.256L815.171 846.302L817.13 845.171L819.12 865.518L817.139 866.662Z" fill="#1B3139"/>
<path d="M805.884 866.916C804.833 867.522 803.749 867.828 802.631 867.833C801.513 867.838 800.455 867.548 799.457 866.964C798.465 866.355 797.627 865.458 796.942 864.272C796.258 863.086 795.912 861.915 795.904 860.759C795.888 859.587 796.162 858.518 796.725 857.552C797.304 856.578 798.118 855.788 799.169 855.181C800.22 854.574 801.304 854.268 802.422 854.264C803.54 854.259 804.595 854.56 805.587 855.169C806.585 855.753 807.426 856.638 808.111 857.824C808.795 859.01 809.146 860.189 809.162 861.361C809.169 862.517 808.883 863.583 808.305 864.557C807.742 865.523 806.935 866.309 805.884 866.916ZM804.948 865.294C805.593 864.922 806.103 864.417 806.476 863.782C806.85 863.146 807.027 862.413 807.008 861.583C806.99 860.753 806.712 859.873 806.174 858.942C805.637 858.012 805.014 857.331 804.304 856.9C803.61 856.46 802.894 856.243 802.157 856.248C801.419 856.253 800.736 856.438 800.105 856.802C799.46 857.175 798.95 857.679 798.577 858.315C798.203 858.951 798.026 859.684 798.045 860.514C798.063 861.343 798.341 862.224 798.879 863.154C799.416 864.085 800.039 864.766 800.749 865.197C801.458 865.628 802.174 865.845 802.896 865.849C803.634 865.843 804.318 865.658 804.948 865.294Z" fill="#1B3139"/>
<path d="M795.648 872.465L786.288 856.253L788.179 855.161L797.539 871.373L795.648 872.465Z" fill="#1B3139"/>
<path d="M784.369 885.582L775.061 869.46L776.772 868.472L778.018 870.215C778.067 869.466 778.295 868.684 778.704 867.867C779.129 867.042 779.859 866.33 780.894 865.732C782.005 865.091 783.121 864.787 784.241 864.821C785.361 864.854 786.402 865.184 787.364 865.81C788.341 866.427 789.154 867.298 789.804 868.424C790.454 869.55 790.802 870.69 790.848 871.844C790.9 872.975 790.653 874.038 790.107 875.034C789.568 876.006 788.743 876.812 787.632 877.454C786.716 877.982 785.79 878.267 784.853 878.308C783.93 878.34 783.087 878.126 782.321 877.668L786.26 884.49L784.369 885.582ZM786.48 875.927C787.231 875.494 787.792 874.94 788.163 874.265C788.525 873.575 788.689 872.82 788.656 871.999C788.622 871.178 788.362 870.347 787.877 869.506C787.392 868.666 786.802 868.025 786.108 867.586C785.413 867.146 784.681 866.918 783.912 866.902C783.133 866.871 782.369 867.072 781.618 867.506C780.868 867.939 780.311 868.5 779.949 869.19C779.578 869.865 779.409 870.613 779.443 871.434C779.476 872.255 779.736 873.086 780.221 873.926C780.707 874.767 781.296 875.407 781.991 875.847C782.685 876.287 783.421 876.522 784.2 876.553C784.969 876.569 785.73 876.36 786.48 875.927Z" fill="#1B3139"/>
<path d="M761.367 892.257L754.919 881.089L756.63 880.101L757.701 881.644C757.715 880.836 757.927 880.093 758.336 879.416C758.746 878.739 759.326 878.184 760.077 877.751C760.963 877.24 761.825 876.982 762.663 876.978C763.517 876.966 764.328 877.228 765.098 877.764C765.099 876.863 765.324 876.023 765.774 875.242C766.239 874.453 766.87 873.829 767.665 873.37C769.001 872.599 770.301 872.388 771.564 872.74C772.819 873.076 773.928 874.077 774.89 875.743L778.66 882.273L776.791 883.352L773.138 877.025C772.471 875.869 771.735 875.133 770.932 874.816C770.129 874.499 769.292 874.592 768.421 875.095C767.52 875.615 766.973 876.401 766.78 877.453C766.594 878.482 766.873 879.642 767.618 880.933L770.959 886.719L769.068 887.811L765.415 881.484C764.747 880.328 764.012 879.592 763.209 879.275C762.405 878.958 761.568 879.051 760.698 879.554C759.812 880.065 759.273 880.847 759.08 881.899C758.893 882.928 759.172 884.088 759.917 885.379L763.258 891.165L761.367 892.257Z" fill="#1B3139"/>
<path d="M748.77 899.53L739.67 883.769L749.42 878.14L750.317 879.693L742.458 884.23L745.63 889.724L752.813 885.577L753.697 887.108L746.514 891.255L749.764 896.885L757.623 892.348L758.52 893.901L748.77 899.53Z" fill="#1B3139"/>
<path d="M729.813 910.475L723.365 899.307L725.076 898.319L726.346 900.258C726.299 899.344 726.496 898.49 726.937 897.695C727.379 896.899 728.027 896.255 728.883 895.761C730.204 894.998 731.489 894.797 732.737 895.157C733.992 895.493 735.101 896.494 736.063 898.16L739.833 904.69L737.941 905.782L734.288 899.455C732.945 897.128 731.313 896.519 729.391 897.629C728.431 898.183 727.831 899 727.593 900.078C727.361 901.133 727.618 902.305 728.363 903.596L731.704 909.383L729.813 910.475Z" fill="#1B3139"/>
<path d="M721.502 915.634C720.572 916.171 719.708 916.46 718.91 916.5C718.113 916.54 717.412 916.384 716.809 916.032C716.205 915.68 715.726 915.196 715.37 914.581C714.712 913.44 714.64 912.31 715.155 911.192C715.671 910.074 716.679 909.082 718.18 908.215L721.197 906.473L721.119 906.338C720.556 905.362 719.876 904.774 719.08 904.573C718.274 904.357 717.444 904.497 716.588 904.991C715.853 905.415 715.323 905.971 715 906.658C714.682 907.322 714.66 908.046 714.932 908.829L712.995 909.947C712.602 909.093 712.478 908.254 712.623 907.43C712.783 906.597 713.133 905.835 713.674 905.142C714.206 904.435 714.87 903.851 715.665 903.392C717.227 902.491 718.64 902.235 719.906 902.625C721.178 902.991 722.213 903.865 723.01 905.246L726.975 912.113L725.287 913.088L724.017 911.149C724.066 911.962 723.913 912.771 723.557 913.577C723.208 914.359 722.523 915.044 721.502 915.634ZM720.872 913.866C721.593 913.45 722.1 912.907 722.393 912.237C722.702 911.558 722.818 910.841 722.742 910.084C722.665 909.328 722.436 908.619 722.055 907.959L722.042 907.936L719.182 909.587C718.072 910.229 717.396 910.879 717.156 911.538C716.923 912.173 716.97 912.776 717.3 913.346C717.638 913.932 718.121 914.283 718.749 914.401C719.384 914.495 720.091 914.317 720.872 913.866Z" fill="#1B3139"/>
<path d="M705.514 906.31C705.139 906.527 704.754 906.589 704.36 906.496C703.973 906.38 703.671 906.134 703.454 905.758C703.246 905.398 703.193 905.029 703.294 904.65C703.411 904.262 703.657 903.96 704.032 903.744C704.392 903.536 704.769 903.478 705.163 903.571C705.557 903.664 705.858 903.89 706.066 904.25C706.283 904.626 706.337 905.015 706.229 905.417C706.113 905.805 705.874 906.102 705.514 906.31ZM712.446 920.502L705.998 909.333L707.89 908.241L714.338 919.41L712.446 920.502Z" fill="#1B3139"/>
<path d="M705.42 924.919C704.084 925.69 702.778 925.994 701.502 925.83C700.226 925.665 699.18 925.049 698.362 923.98L700.299 922.862C700.757 923.378 701.359 923.71 702.106 923.86C702.859 923.985 703.663 923.801 704.519 923.307C705.315 922.848 705.805 922.345 705.989 921.798C706.165 921.236 706.119 920.722 705.85 920.257C705.46 919.581 704.953 919.274 704.327 919.335C703.717 919.387 702.917 919.579 701.927 919.91C701.258 920.137 700.557 920.311 699.827 920.432C699.097 920.554 698.412 920.529 697.772 920.357C697.124 920.171 696.605 919.74 696.215 919.065C695.652 918.089 695.553 917.085 695.918 916.054C696.29 914.999 697.098 914.112 698.344 913.392C699.53 912.708 700.672 912.449 701.769 912.616C702.873 912.759 703.801 913.344 704.554 914.371L702.685 915.45C702.28 914.923 701.777 914.623 701.175 914.55C700.579 914.454 699.935 914.605 699.245 915.004C698.569 915.394 698.126 915.84 697.916 916.342C697.72 916.835 697.757 917.314 698.025 917.78C698.285 918.23 698.722 918.448 699.334 918.435C699.962 918.413 700.733 918.258 701.648 917.97C702.425 917.721 703.186 917.532 703.932 917.402C704.683 917.248 705.38 917.276 706.022 917.486C706.67 917.672 707.228 918.171 707.696 918.981C708.291 919.978 708.39 921.033 707.99 922.144C707.598 923.231 706.741 924.156 705.42 924.919Z" fill="#1B3139"/>
<path d="M685.155 936.258L681.864 917.143L683.868 915.986L698.755 928.406L696.751 929.563L692.97 926.342L686.26 930.216L687.136 935.114L685.155 936.258ZM685.939 928.36L691.523 925.136L684.233 918.957L685.939 928.36Z" fill="#1B3139"/>
<path d="M672.926 943.679C671.935 944.251 670.973 944.596 670.041 944.714C669.1 944.817 668.239 944.714 667.459 944.403C666.68 944.093 666.028 943.588 665.505 942.89L668.41 941.213C668.751 941.596 669.208 941.833 669.78 941.923C670.359 941.989 670.963 941.84 671.594 941.476C672.224 941.112 672.608 940.72 672.746 940.3C672.899 939.872 672.88 939.492 672.69 939.162C672.412 938.682 672.016 938.48 671.5 938.558C670.976 938.62 670.291 938.786 669.445 939.054C668.904 939.226 668.342 939.38 667.76 939.516C667.178 939.652 666.612 939.729 666.062 939.746C665.518 939.74 665.014 939.63 664.551 939.417C664.079 939.189 663.687 938.805 663.375 938.265C662.803 937.274 662.712 936.216 663.103 935.09C663.509 933.955 664.424 932.976 665.851 932.152C667.172 931.39 668.4 931.091 669.536 931.256C670.687 931.412 671.649 931.987 672.423 932.981L669.699 934.554C669.057 933.824 668.196 933.77 667.115 934.394C666.575 934.706 666.215 935.054 666.036 935.438C665.872 935.813 665.881 936.158 666.063 936.473C666.254 936.803 666.623 936.94 667.171 936.884C667.719 936.828 668.401 936.674 669.217 936.423C670.102 936.153 670.932 935.944 671.707 935.796C672.489 935.625 673.201 935.644 673.842 935.854C674.475 936.049 675.021 936.545 675.481 937.34C675.894 938.022 676.074 938.749 676.019 939.521C675.965 940.293 675.676 941.041 675.152 941.763C674.629 942.486 673.886 943.124 672.926 943.679Z" fill="#1B3139"/>
<path d="M655.906 953.145L646.546 936.933L649.428 935.269L654.953 944.839L656.303 938.025L659.726 936.049L658.093 943.777L666.917 946.788L663.314 948.868L655.551 945.874L658.788 951.481L655.906 953.145Z" fill="#1B3139"/>
<path d="M648.032 958.052C646.892 958.71 645.743 959.043 644.586 959.051C643.429 959.058 642.34 958.766 641.319 958.175C640.312 957.575 639.479 956.705 638.821 955.564C638.162 954.423 637.825 953.267 637.809 952.096C637.808 950.915 638.099 949.826 638.684 948.828C639.269 947.83 640.132 947.002 641.272 946.343C642.698 945.52 644.116 945.202 645.525 945.389C646.925 945.561 648.138 946.222 649.162 947.372L646.122 949.127C645.66 948.673 645.117 948.426 644.493 948.386C643.876 948.322 643.267 948.464 642.667 948.81C641.871 949.27 641.369 949.96 641.16 950.881C640.952 951.802 641.155 952.796 641.77 953.861C642.386 954.927 643.144 955.6 644.046 955.88C644.948 956.159 645.797 956.07 646.593 955.61C647.193 955.264 647.625 954.815 647.886 954.263C648.163 953.703 648.217 953.102 648.046 952.46L651.086 950.705C651.544 952.121 651.506 953.494 650.972 954.823C650.438 956.152 649.458 957.228 648.032 958.052Z" fill="#1B3139"/>
<path d="M630.507 950.607C629.981 950.91 629.455 951.004 628.928 950.888C628.415 950.763 628.021 950.461 627.743 949.981C627.466 949.5 627.406 949.015 627.563 948.524C627.726 948.009 628.07 947.6 628.596 947.297C629.121 946.994 629.64 946.904 630.152 947.029C630.671 947.13 631.069 947.42 631.346 947.901C631.623 948.381 631.68 948.878 631.517 949.393C631.369 949.899 631.032 950.304 630.507 950.607ZM636.514 964.341L630.066 953.173L632.949 951.509L639.397 962.677L636.514 964.341Z" fill="#1B3139"/>
<path d="M627.474 969.561L621.026 958.392L623.593 956.91L625.072 958.848C625.062 957.894 625.28 957.007 625.728 956.188C626.182 955.345 626.882 954.651 627.828 954.105L629.583 957.145L628.772 957.613C628.142 957.977 627.635 958.399 627.253 958.881C626.87 959.362 626.675 959.925 626.667 960.57C626.674 961.206 626.924 961.952 627.418 962.808L630.356 967.897L627.474 969.561Z" fill="#1B3139"/>
<path d="M619.562 974.489C618.721 974.974 617.894 975.241 617.082 975.29C616.27 975.339 615.503 975.191 614.784 974.845L615.353 976.559L612.786 978.041L603.426 961.829L606.308 960.165L610.143 966.807C610.217 966.104 610.439 965.395 610.807 964.682C611.191 963.96 611.856 963.326 612.802 962.78C613.852 962.173 614.938 961.887 616.058 961.921C617.178 961.954 618.234 962.275 619.226 962.884C620.218 963.492 621.039 964.359 621.689 965.485C622.339 966.611 622.679 967.755 622.71 968.918C622.732 970.066 622.478 971.134 621.947 972.121C621.408 973.093 620.612 973.882 619.562 974.489ZM617.498 972.318C618.413 971.789 618.994 971.044 619.239 970.082C619.484 969.12 619.325 968.151 618.762 967.175C618.198 966.199 617.434 965.57 616.47 965.286C615.505 965.002 614.565 965.124 613.65 965.653C612.719 966.19 612.135 966.948 611.899 967.925C611.669 968.878 611.835 969.843 612.399 970.818C612.962 971.794 613.719 972.428 614.668 972.721C615.624 972.99 616.567 972.855 617.498 972.318Z" fill="#1B3139"/>
<path d="M603.797 983.591C602.836 984.146 601.961 984.451 601.172 984.506C600.375 984.546 599.679 984.397 599.084 984.06C598.489 983.723 598.014 983.247 597.659 982.631C597.061 981.596 596.98 980.521 597.418 979.408C597.856 978.294 598.886 977.269 600.507 976.333L603.344 974.695L603.188 974.425C602.746 973.66 602.204 973.222 601.56 973.113C600.917 973.004 600.273 973.136 599.627 973.509C599.042 973.847 598.614 974.284 598.343 974.821C598.064 975.342 598.027 975.904 598.234 976.505L595.42 978.13C595.027 977.276 594.89 976.414 595.008 975.545C595.142 974.667 595.493 973.854 596.062 973.106C596.622 972.342 597.367 971.692 598.298 971.154C599.889 970.236 601.372 969.91 602.747 970.177C604.122 970.444 605.23 971.305 606.07 972.761L610.035 979.629L607.581 981.046L606.271 979.4C606.287 980.192 606.108 980.956 605.733 981.693C605.373 982.421 604.727 983.054 603.797 983.591ZM603.15 980.962C603.975 980.486 604.457 979.847 604.596 979.047C604.749 978.238 604.656 977.401 604.317 976.536L601.862 977.953C601.097 978.395 600.631 978.854 600.466 979.33C600.291 979.79 600.321 980.223 600.555 980.629C600.807 981.064 601.167 981.307 601.636 981.356C602.105 981.406 602.609 981.274 603.15 980.962Z" fill="#1B3139"/>
<path d="M595.289 988.142C594.118 988.818 593.015 989.075 591.981 988.912C590.946 988.749 590.008 987.939 589.167 986.483L586.359 981.619L584.445 982.724L583.054 980.315L584.968 979.21L583.577 976.02L586.121 974.551L587.85 977.546L590.868 975.804L592.259 978.213L589.241 979.955L592.062 984.841C592.374 985.382 592.704 985.692 593.05 985.772C593.403 985.829 593.865 985.692 594.435 985.363L595.831 984.557L597.248 987.011L595.289 988.142Z" fill="#1B3139"/>
<path d="M581.478 996.477C580.517 997.031 579.642 997.336 578.854 997.391C578.056 997.431 577.36 997.283 576.765 996.946C576.17 996.609 575.695 996.133 575.34 995.517C574.742 994.481 574.662 993.407 575.1 992.293C575.538 991.18 576.567 990.155 578.188 989.219L581.025 987.581L580.869 987.311C580.427 986.545 579.885 986.108 579.242 985.999C578.598 985.89 577.954 986.022 577.308 986.395C576.723 986.733 576.295 987.17 576.024 987.707C575.745 988.228 575.709 988.789 575.916 989.39L573.101 991.015C572.708 990.162 572.571 989.3 572.69 988.431C572.823 987.553 573.174 986.74 573.743 985.991C574.303 985.228 575.048 984.577 575.979 984.04C577.57 983.121 579.053 982.795 580.428 983.062C581.803 983.329 582.911 984.191 583.752 985.647L587.717 992.514L585.262 993.931L583.952 992.286C583.969 993.077 583.789 993.841 583.414 994.578C583.054 995.307 582.409 995.939 581.478 996.477ZM580.831 993.848C581.656 993.371 582.138 992.733 582.277 991.932C582.43 991.123 582.337 990.286 581.998 989.421L579.544 990.838C578.778 991.28 578.312 991.739 578.147 992.215C577.973 992.676 578.003 993.109 578.237 993.515C578.488 993.95 578.848 994.192 579.317 994.242C579.786 994.291 580.29 994.16 580.831 993.848Z" fill="#1B3139"/>
<path d="M561.531 1007.63L552.431 991.871L557.813 988.764C559.659 987.698 561.366 987.153 562.933 987.129C564.507 987.081 565.921 987.485 567.176 988.342C568.437 989.175 569.527 990.387 570.446 991.978C571.365 993.569 571.874 995.127 571.973 996.651C572.079 998.151 571.722 999.578 570.902 1000.93C570.089 1002.26 568.759 1003.46 566.913 1004.53L561.531 1007.63ZM562.983 1003.49L565.348 1002.13C566.669 1001.36 567.59 1000.55 568.113 999.689C568.628 998.812 568.82 997.88 568.691 996.894C568.553 995.893 568.155 994.822 567.496 993.681C566.846 992.555 566.122 991.682 565.324 991.062C564.526 990.442 563.618 990.136 562.601 990.142C561.584 990.149 560.416 990.534 559.095 991.296L556.73 992.661L562.983 1003.49Z" fill="#1B3139"/>
</svg>
