<svg width="150" height="150" viewBox="0 0 150 150" fill="none" xmlns="http://www.w3.org/2000/svg">
<path d="M30.3 92.3V62.4H27.3V92.3C22.9 93 19.6 96.8 19.6 101.4C19.6 106.5 23.7 110.6 28.8 110.6C33.9 110.6 38 106.5 38 101.4C38 96.8 34.7 93 30.3 92.3ZM28.8 107.5C25.4 107.5 22.6 104.7 22.6 101.3C22.6 97.9 25.4 95.1 28.8 95.1C32.2 95.1 35 97.9 35 101.3C35 104.8 32.3 107.5 28.8 107.5Z" fill="white"/>
<path d="M28.8 57.5C32.1 57.5 35.1 55.7 36.8 52.9L34.2 51.4C33.1 53.3 31.1 54.5 28.9 54.5C25.5 54.5 22.7 51.7 22.7 48.3C22.7 44.9 25.5 42.1 28.9 42.1C31.1 42.1 33.1 43.3 34.3 45.2L35.1 46.5L68.1 27.5C69.8 29.5 72.3 30.9 75.2 30.9C78.1 30.9 80.6 29.6 82.3 27.5L108 42.3L109.5 39.7L83.6 24.9C84 23.9 84.2 22.8 84.2 21.7C84.2 16.6 80.1 12.5 75 12.5C69.9 12.5 65.8 16.6 65.8 21.7C65.8 22.8 66 23.9 66.4 24.9L35.9 42.5C34.2 40.4 31.6 39.1 28.8 39.1C23.7 39.1 19.6 43.2 19.6 48.3C19.7 53.4 23.8 57.5 28.8 57.5ZM75 15.5C78.4 15.5 81.2 18.3 81.2 21.7C81.2 25.1 78.4 27.9 75 27.9C71.6 27.9 68.8 25.1 68.8 21.7C68.8 18.3 71.6 15.5 75 15.5Z" fill="white"/>
<path d="M122.7 92.3V62.4H119.7V92.3C115.3 93 112 96.8 112 101.4C112 102.6 112.2 103.8 112.7 104.9L82.1 122.6C80.4 120.5 77.8 119.2 75 119.2V122.2C77.2 122.2 79.3 123.4 80.4 125.3C80.9 126.2 81.2 127.3 81.2 128.4C81.2 131.8 78.4 134.6 75 134.6C71.6 134.6 68.8 131.8 68.8 128.4C68.8 127.3 69.1 126.2 69.6 125.3L70.4 124L41.4 107.3L39.9 109.9L66.4 125.2C66 126.2 65.8 127.3 65.8 128.4C65.8 133.5 69.9 137.6 75 137.6C80.1 137.6 84.2 133.5 84.2 128.4C84.2 127.3 84 126.2 83.6 125.2L114.3 107.5C116 109.4 118.5 110.7 121.2 110.7C126.3 110.7 130.4 106.6 130.4 101.5C130.3 96.8 127 93 122.7 92.3ZM121.2 107.5C117.8 107.5 115 104.7 115 101.3C115 97.9 117.8 95.1 121.2 95.1C124.6 95.1 127.4 97.9 127.4 101.3C127.3 104.8 124.6 107.5 121.2 107.5Z" fill="white"/>
<path d="M75 73.3L54.5 61.4C59 54.6 66.6 50.5 74.8 50.5C81.8 50.5 88.5 53.4999 93.1 58.7999L95.4 56.7999C90.2 50.8999 82.7 47.5 74.8 47.5C65.6 47.5 56.9 52.2 51.9 59.9L41.4 53.9L39.9 56.5L73.5 75.9V99.1999C60.7 98.5999 50.4 87.9 50.4 74.9C50.4 72.8 50.7 70.5999 51.2 68.5999L48.3 67.8C47.7 70.1 47.4 72.5 47.4 74.9C47.4 89.6 59 101.5 73.5 102.2V114H76.5V75.9L96.6 64.3C98.2 67.6 99 71.2 99 74.9C99 86.1 91.4 95.9 80.5 98.5L81.2 101.4C93.4 98.4 102 87.5 102 74.9C102 70.7 101 66.4999 99.2 62.7999L116.5 52.7999L115.7 51.5C115.2 50.6 114.9 49.5 114.9 48.4C114.9 47.3 115.2 46.1999 115.7 45.2999C116.8 43.3999 118.9 42.2 121.1 42.2C124.5 42.2 127.3 45 127.3 48.4C127.3 51.8 124.5 54.5999 121.1 54.5999V57.5999C126.2 57.5999 130.3 53.5 130.3 48.4C130.3 43.3 126.2 39.2 121.1 39.2C117.8 39.2 114.8 40.9999 113.2 43.7999C112.4 45.1999 112 46.8 112 48.4C112 49.5 112.2 50.5999 112.6 51.5999L75 73.3Z" fill="white"/>
</svg>
