<svg width="150" height="150" viewBox="0 0 150 150" fill="none" xmlns="http://www.w3.org/2000/svg">
<path d="M52.15 64.47C45.36 64.47 39.83 58.94 39.83 52.15C39.83 45.36 45.36 39.83 52.15 39.83C58.94 39.83 64.47 45.36 64.47 52.15C64.47 58.94 58.94 64.47 52.15 64.47ZM52.15 42.83C47.01 42.83 42.83 47.01 42.83 52.15C42.83 57.29 47.01 61.47 52.15 61.47C57.29 61.47 61.47 57.29 61.47 52.15C61.46 47.01 57.28 42.83 52.15 42.83Z" fill="white"/>
<path d="M97.85 110.17C91.06 110.17 85.53 104.64 85.53 97.85C85.53 91.06 91.06 85.53 97.85 85.53C104.64 85.53 110.17 91.06 110.17 97.85C110.17 104.64 104.64 110.17 97.85 110.17ZM97.85 88.53C92.71 88.53 88.53 92.71 88.53 97.85C88.53 102.99 92.71 107.17 97.85 107.17C102.99 107.17 107.17 102.99 107.17 97.85C107.17 92.71 102.99 88.53 97.85 88.53Z" fill="white"/>
<path d="M105.2 131.66H19.84V128.66H102.88L104.74 121.63L105.53 121.38C106.77 120.99 107.96 120.5 109.05 119.92L109.78 119.54L116.07 123.19L123.19 116.07L119.53 109.79L119.92 109.05C120.47 107.99 120.96 106.84 121.39 105.52L121.64 104.75L128.65 102.89V92.8L121.64 90.94L121.39 90.17C120.95 88.85 120.47 87.69 119.92 86.64L119.53 85.91L123.19 79.62L116.07 72.5L109.78 76.16L109.05 75.77C107.93 75.19 106.75 74.69 105.52 74.29L104.74 74.04L102.89 67.04H92.82L91.16 73.26L88.26 72.48L90.52 64.04H105.2L107.23 71.7C108.08 72 108.9 72.35 109.7 72.74L116.57 68.75L126.95 79.13L122.96 86C123.33 86.77 123.67 87.58 123.98 88.46L131.66 90.5V105.2L123.98 107.24C123.67 108.12 123.33 108.93 122.96 109.7L126.95 116.56L116.57 126.94L109.7 122.96C108.91 123.34 108.08 123.68 107.22 123.98L105.2 131.66Z" fill="white"/>
<path d="M71.48 117.81H32.33V114.81H69.76L72.74 109.7C72.37 108.92 72.02 108.1 71.71 107.23L64.05 105.2V90.5L71.71 88.47C72.02 87.6 72.37 86.77 72.74 86L68.75 79.13L77.5 70.38L73.86 64.11L74.24 63.38C74.83 62.25 75.32 61.05 75.72 59.84L75.97 59.06L82.97 57.2V47.11L75.97 45.26L75.72 44.48C75.33 43.27 74.83 42.07 74.24 40.94L73.86 40.21L78.52 32.18H117.68V35.18H80.23L77.26 40.3C77.64 41.11 77.99 41.93 78.29 42.77L85.95 44.8V59.49L78.29 61.53C77.99 62.37 77.64 63.2 77.26 64L81.25 70.86L72.5 79.61L76.16 85.9L75.77 86.63C75.21 87.69 74.71 88.88 74.29 90.17L74.04 90.94L67.05 92.79V102.87L74.04 104.72L74.29 105.49C74.72 106.78 75.22 107.97 75.77 109.03L76.16 109.77L71.48 117.81Z" fill="white"/>
<path d="M59.48 85.96H44.81L42.78 78.29C41.92 77.98 41.09 77.64 40.31 77.26L33.44 81.24L23.05 70.86L27.04 64C26.66 63.21 26.32 62.39 26.01 61.53L18.33 59.48V44.81L26.01 42.77C26.31 41.92 26.66 41.1 27.04 40.31L23.05 33.44L33.43 23.06L40.3 27.05C41.11 26.66 41.93 26.32 42.77 26.02L44.8 18.35H130.16V21.35H47.12L45.26 28.37L44.47 28.62C43.26 29 42.08 29.5 40.95 30.09L40.22 30.48L33.93 26.82L26.81 33.94L30.47 40.23L30.08 40.96C29.51 42.05 29.01 43.24 28.61 44.48L28.36 45.26L21.34 47.12V57.19L28.36 59.06L28.61 59.84C29.01 61.09 29.51 62.27 30.08 63.36L30.47 64.1L26.81 70.38L33.93 77.5L40.22 73.85L40.95 74.23C42.03 74.8 43.22 75.29 44.48 75.7L45.26 75.95L47.11 82.96H57.17L58.82 76.74L61.72 77.51L59.48 85.96Z" fill="white"/>
<path d="M52.15 100.97H19.84V103.97H52.15V100.97Z" fill="white"/>
<path d="M130.16 46.02H97.85V49.02H130.16V46.02Z" fill="white"/>
</svg>
