<svg width="150" height="150" viewBox="0 0 150 150" fill="none" xmlns="http://www.w3.org/2000/svg">
<path d="M52.15 64.4701C45.36 64.4701 39.83 58.9401 39.83 52.1501C39.83 45.3601 45.36 39.8301 52.15 39.8301C58.94 39.8301 64.47 45.3601 64.47 52.1501C64.47 58.9401 58.94 64.4701 52.15 64.4701ZM52.15 42.8301C47.01 42.8301 42.83 47.0101 42.83 52.1501C42.83 57.2901 47.01 61.4701 52.15 61.4701C57.29 61.4701 61.47 57.2901 61.47 52.1501C61.46 47.0101 57.28 42.8301 52.15 42.8301Z" fill="#FF5F46"/>
<path d="M97.8499 110.17C91.0599 110.17 85.5299 104.64 85.5299 97.8503C85.5299 91.0603 91.0599 85.5303 97.8499 85.5303C104.64 85.5303 110.17 91.0603 110.17 97.8503C110.17 104.64 104.64 110.17 97.8499 110.17ZM97.8499 88.5303C92.7099 88.5303 88.5299 92.7103 88.5299 97.8503C88.5299 102.99 92.7099 107.17 97.8499 107.17C102.99 107.17 107.17 102.99 107.17 97.8503C107.17 92.7103 102.99 88.5303 97.8499 88.5303Z" fill="#FF5F46"/>
<path d="M105.2 131.66H19.84V128.66H102.88L104.74 121.63L105.53 121.38C106.77 120.99 107.96 120.5 109.05 119.92L109.78 119.54L116.07 123.19L123.19 116.07L119.53 109.79L119.92 109.05C120.47 107.99 120.96 106.84 121.39 105.52L121.64 104.75L128.65 102.89V92.8L121.64 90.94L121.39 90.17C120.95 88.85 120.47 87.69 119.92 86.64L119.53 85.91L123.19 79.62L116.07 72.5L109.78 76.16L109.05 75.77C107.93 75.19 106.75 74.69 105.52 74.29L104.74 74.04L102.89 67.04H92.82L91.16 73.26L88.26 72.48L90.52 64.04H105.2L107.23 71.7C108.08 72 108.9 72.35 109.7 72.74L116.57 68.75L126.95 79.13L122.96 86C123.33 86.77 123.67 87.58 123.98 88.46L131.66 90.5V105.2L123.98 107.24C123.67 108.12 123.33 108.93 122.96 109.7L126.95 116.56L116.57 126.94L109.7 122.96C108.91 123.34 108.08 123.68 107.22 123.98L105.2 131.66Z" fill="#FF5F46"/>
<path d="M71.48 117.81H32.33V114.81H69.76L72.74 109.7C72.37 108.92 72.02 108.1 71.71 107.23L64.05 105.2V90.5002L71.71 88.4702C72.02 87.6002 72.37 86.7702 72.74 86.0002L68.75 79.1302L77.5 70.3802L73.86 64.1102L74.24 63.3802C74.83 62.2502 75.32 61.0502 75.72 59.8402L75.97 59.0602L82.97 57.2002V47.1102L75.97 45.2602L75.72 44.4802C75.33 43.2702 74.83 42.0702 74.24 40.9402L73.86 40.2102L78.52 32.1802H117.68V35.1802H80.23L77.26 40.3002C77.64 41.1102 77.99 41.9302 78.29 42.7702L85.95 44.8002V59.4902L78.29 61.5302C77.99 62.3702 77.64 63.2002 77.26 64.0002L81.25 70.8602L72.5 79.6102L76.16 85.9002L75.77 86.6302C75.2099 87.6902 74.71 88.8802 74.29 90.1702L74.04 90.9402L67.05 92.7902V102.87L74.04 104.72L74.29 105.49C74.72 106.78 75.22 107.97 75.77 109.03L76.16 109.77L71.48 117.81Z" fill="#FF5F46"/>
<path d="M59.48 85.9601H44.81L42.78 78.2901C41.92 77.9801 41.09 77.6401 40.31 77.2601L33.44 81.2401L23.05 70.8601L27.04 64.0001C26.66 63.2101 26.32 62.3901 26.01 61.5301L18.33 59.4801V44.8101L26.01 42.7701C26.31 41.9201 26.66 41.1001 27.04 40.3101L23.05 33.4401L33.43 23.0601L40.3 27.0501C41.11 26.6601 41.93 26.3201 42.77 26.0201L44.8 18.3501H130.16V21.3501H47.12L45.26 28.3701L44.47 28.6201C43.26 29.0001 42.08 29.5001 40.95 30.0901L40.22 30.4801L33.93 26.8201L26.81 33.9401L30.47 40.2301L30.08 40.9601C29.51 42.0501 29.01 43.2401 28.61 44.4801L28.36 45.2601L21.34 47.1201V57.1901L28.36 59.0601L28.61 59.8401C29.01 61.0901 29.51 62.2701 30.08 63.3601L30.47 64.1001L26.81 70.3801L33.93 77.5001L40.22 73.8501L40.95 74.2301C42.03 74.8001 43.22 75.2901 44.48 75.7001L45.26 75.9501L47.11 82.9601H57.17L58.82 76.7401L61.72 77.5101L59.48 85.9601Z" fill="#FF5F46"/>
<path d="M52.15 100.97H19.84V103.97H52.15V100.97Z" fill="#FF5F46"/>
<path d="M130.16 46.02H97.85V49.02H130.16V46.02Z" fill="#FF5F46"/>
</svg>
