<svg width="150" height="150" viewBox="0 0 150 150" fill="none" xmlns="http://www.w3.org/2000/svg">
<path d="M137.51 65.81C132.96 65.81 129.18 69.14 128.46 73.49H116.34C116.07 66.06 113.83 59.07 110.09 53.08H113.4C116.48 53.08 119.38 51.88 121.56 49.7C123.41 47.85 124.55 45.47 124.85 42.91C129.23 42.22 132.6 38.42 132.6 33.85C132.6 28.79 128.48 24.67 123.42 24.67C118.36 24.67 114.23 28.79 114.23 33.85C114.23 38.37 117.52 42.13 121.82 42.89C121.54 44.66 120.72 46.29 119.43 47.58C117.82 49.19 115.67 50.08 113.39 50.08H108.02C101.99 42.09 93.1 36.3 82.67 34.34L80.89 34.01V38.76L81.44 39.21C84.3 41.56 86.77 45.36 88.7 50.08H73.49V73.5H56.85C56.99 65.72 58.24 58.35 60.49 52.09L61.21 50.08H45.83C53.01 41.64 63.31 36.78 74.59 36.64C74.73 36.63 74.87 36.63 75.01 36.63H76.51V22.81C80.86 22.09 84.2 18.31 84.2 13.76C84.2 8.70002 80.08 4.58002 75.01 4.58002C69.94 4.58002 65.83 8.70002 65.83 13.76C65.83 18.31 69.16 22.09 73.51 22.81V33.67C61.14 34.12 49.47 40.19 42 50.09H36.6C32.35 50.09 28.83 46.97 28.18 42.9C32.49 42.14 35.77 38.38 35.77 33.86C35.77 28.8 31.65 24.68 26.59 24.68C21.53 24.68 17.4 28.8 17.4 33.86C17.4 38.44 20.77 42.23 25.15 42.92C25.83 48.64 30.7 53.09 36.6 53.09H39.91C36.06 59.23 33.94 66.21 33.68 73.51H21.55C20.83 69.16 17.05 65.83 12.5 65.83C7.44001 65.83 3.32001 69.95 3.32001 75.02C3.32001 80.09 7.44001 84.2 12.5 84.2C17.05 84.2 20.83 80.87 21.55 76.51H33.67C33.94 83.94 36.17 90.93 39.92 96.93H36.6C30.7 96.93 25.83 101.38 25.15 107.1C20.77 107.79 17.4 111.59 17.4 116.16C17.4 121.22 21.52 125.35 26.59 125.35C31.66 125.35 35.77 121.23 35.77 116.16C35.77 111.64 32.48 107.88 28.18 107.12C28.83 103.05 32.36 99.93 36.61 99.93H41.98C48.01 107.93 56.91 113.71 67.33 115.67L69.11 116V111.25L68.56 110.8C65.7 108.45 63.23 104.64 61.29 99.92H76.5V76.5H81.4H93.15C93.01 84.28 91.76 91.66 89.51 97.92L88.76 99.99L90.96 99.93L104.16 99.92C97.12 108.15 86.66 113.38 75 113.38H73.5V127.2C69.15 127.92 65.82 131.7 65.82 136.25C65.82 141.31 69.94 145.44 75 145.44C80.06 145.44 84.19 141.32 84.19 136.25C84.19 131.7 80.86 127.92 76.5 127.2V116.35C89.35 115.89 100.73 109.54 108.01 99.92H113.4C117.65 99.92 121.17 103.04 121.82 107.12C117.51 107.88 114.23 111.64 114.23 116.16C114.23 121.22 118.35 125.35 123.42 125.35C128.49 125.35 132.6 121.23 132.6 116.16C132.6 111.58 129.23 107.79 124.85 107.1C124.17 101.38 119.3 96.93 113.4 96.93H110.08C113.82 90.97 116.05 83.99 116.32 76.51H128.46C129.18 80.86 132.96 84.2 137.51 84.2C142.57 84.2 146.69 80.08 146.69 75.02C146.69 69.96 142.57 65.81 137.51 65.81ZM117.23 33.85C117.23 30.44 120 27.67 123.42 27.67C126.83 27.67 129.6 30.44 129.6 33.85C129.6 37.26 126.83 40.04 123.42 40.04C120.01 40.04 117.23 37.27 117.23 33.85ZM68.81 13.75C68.81 10.34 71.58 7.57002 74.99 7.57002C78.4 7.57002 81.18 10.34 81.18 13.75C81.18 17.16 78.41 19.94 74.99 19.94C71.59 19.94 68.81 17.17 68.81 13.75ZM20.4 33.85C20.4 30.44 23.17 27.67 26.59 27.67C30 27.67 32.77 30.44 32.77 33.85C32.77 37.26 30 40.04 26.59 40.04C23.17 40.04 20.4 37.27 20.4 33.85ZM12.49 81.18C9.08001 81.18 6.31001 78.41 6.31001 75C6.31001 71.59 9.08001 68.81 12.49 68.81C15.9 68.81 18.68 71.58 18.68 75C18.68 78.41 15.91 81.18 12.49 81.18ZM32.77 116.14C32.77 119.55 30 122.33 26.59 122.33C23.18 122.33 20.4 119.56 20.4 116.14C20.4 112.73 23.17 109.96 26.59 109.96C29.99 109.96 32.77 112.73 32.77 116.14ZM81.19 136.24C81.19 139.65 78.42 142.43 75 142.43C71.59 142.43 68.82 139.66 68.82 136.24C68.82 132.83 71.59 130.06 75 130.06C78.41 130.06 81.19 132.83 81.19 136.24ZM129.6 116.14C129.6 119.55 126.83 122.33 123.42 122.33C120.01 122.33 117.23 119.56 117.23 116.14C117.23 112.73 120 109.96 123.42 109.96C126.83 109.96 129.6 112.73 129.6 116.14ZM113.34 73.5H96.15C96.02 66.1 94.91 59.1 93.01 53.09H106.48C110.57 58.95 113.05 65.98 113.34 73.5ZM84.36 37.79C92.27 39.77 99.12 44.16 104.18 50.09H91.97C90 44.93 87.42 40.68 84.36 37.79ZM43.51 53.08H56.99C55.05 59.2 53.98 66.19 53.85 73.5H36.69C36.97 66.13 39.29 59.11 43.51 53.08ZM36.66 76.5H53.85C53.98 83.9 55.09 90.9 56.99 96.92H43.52C39.43 91.05 36.95 84.02 36.66 76.5ZM65.64 112.22C57.72 110.24 50.87 105.84 45.82 99.92H58.04C60 105.07 62.58 109.33 65.64 112.22ZM73.5 96.92H60.17C58.18 90.98 56.99 83.91 56.85 76.5H73.5V96.92ZM76.5 73.5V53.08H89.83C91.82 59.02 93.01 66.08 93.15 73.49H81.4H76.5V73.5ZM106.48 96.91H93.01C94.95 90.79 96.02 83.8 96.15 76.49H113.34C113.05 84.07 110.56 91.08 106.48 96.91ZM137.51 81.18C134.1 81.18 131.32 78.41 131.32 75C131.32 71.59 134.09 68.81 137.51 68.81C140.92 68.81 143.69 71.58 143.69 75C143.69 78.41 140.92 81.18 137.51 81.18Z" fill="#1B3139"/>
</svg>
