<svg width="150" height="150" viewBox="0 0 150 150" fill="none" xmlns="http://www.w3.org/2000/svg">
<path d="M137.51 65.8101C132.96 65.8101 129.18 69.1401 128.46 73.4901H116.34C116.07 66.0601 113.83 59.0701 110.09 53.0801H113.4C116.48 53.0801 119.38 51.8801 121.56 49.7001C123.41 47.8501 124.55 45.4701 124.85 42.9101C129.23 42.2201 132.6 38.4201 132.6 33.8501C132.6 28.7901 128.48 24.6701 123.42 24.6701C118.36 24.6701 114.23 28.7901 114.23 33.8501C114.23 38.3701 117.52 42.1301 121.82 42.8901C121.54 44.6601 120.72 46.2901 119.43 47.5801C117.82 49.1901 115.67 50.0801 113.39 50.0801H108.02C101.99 42.0901 93.0999 36.3001 82.6699 34.3401L80.8899 34.0101V38.7601L81.4399 39.2101C84.2999 41.5601 86.7699 45.3601 88.6999 50.0801H73.4899V73.5001H56.8499C56.9899 65.7201 58.2399 58.3501 60.4899 52.0901L61.2099 50.0801H45.8299C53.0099 41.6401 63.3099 36.7801 74.5899 36.6401C74.7299 36.6301 74.8699 36.6301 75.0099 36.6301H76.5099V22.8101C80.8599 22.0901 84.1999 18.3101 84.1999 13.7601C84.1999 8.70008 80.0799 4.58008 75.0099 4.58008C69.9399 4.58008 65.8299 8.70008 65.8299 13.7601C65.8299 18.3101 69.16 22.0901 73.5099 22.8101V33.6701C61.1399 34.1201 49.4699 40.1901 41.9999 50.0901H36.5999C32.3499 50.0901 28.8299 46.9701 28.1799 42.9001C32.4899 42.1401 35.7699 38.3801 35.7699 33.8601C35.7699 28.8001 31.6499 24.6801 26.5899 24.6801C21.5299 24.6801 17.3999 28.8001 17.3999 33.8601C17.3999 38.4401 20.7699 42.2301 25.1499 42.9201C25.8299 48.6401 30.6999 53.0901 36.5999 53.0901H39.9099C36.0599 59.2301 33.9399 66.2101 33.6799 73.5101H21.5499C20.8299 69.1601 17.0499 65.8301 12.4999 65.8301C7.43995 65.8301 3.31995 69.9501 3.31995 75.0201C3.31995 80.0901 7.43995 84.2001 12.4999 84.2001C17.0499 84.2001 20.8299 80.8701 21.5499 76.5101H33.6699C33.9399 83.9401 36.1699 90.9301 39.9199 96.9301H36.5999C30.6999 96.9301 25.8299 101.38 25.1499 107.1C20.7699 107.79 17.3999 111.59 17.3999 116.16C17.3999 121.22 21.5199 125.35 26.5899 125.35C31.6599 125.35 35.7699 121.23 35.7699 116.16C35.7699 111.64 32.4799 107.88 28.1799 107.12C28.8299 103.05 32.3599 99.9301 36.6099 99.9301H41.9799C48.0099 107.93 56.91 113.71 67.3299 115.67L69.1099 116V111.25L68.5599 110.8C65.6999 108.45 63.2299 104.64 61.2899 99.9201H76.4999V76.5001H81.3999H93.1499C93.0099 84.2801 91.7599 91.6601 89.5099 97.9201L88.7599 99.9901L90.9599 99.9301L104.16 99.9201C97.1199 108.15 86.6599 113.38 74.9999 113.38H73.4999V127.2C69.1499 127.92 65.8199 131.7 65.8199 136.25C65.8199 141.31 69.9399 145.44 74.9999 145.44C80.0599 145.44 84.1899 141.32 84.1899 136.25C84.1899 131.7 80.8599 127.92 76.4999 127.2V116.35C89.3499 115.89 100.73 109.54 108.01 99.9201H113.4C117.65 99.9201 121.17 103.04 121.82 107.12C117.51 107.88 114.23 111.64 114.23 116.16C114.23 121.22 118.35 125.35 123.42 125.35C128.49 125.35 132.6 121.23 132.6 116.16C132.6 111.58 129.23 107.79 124.85 107.1C124.17 101.38 119.3 96.9301 113.4 96.9301H110.08C113.82 90.9701 116.05 83.9901 116.32 76.5101H128.46C129.18 80.8601 132.96 84.2001 137.51 84.2001C142.57 84.2001 146.69 80.0801 146.69 75.0201C146.69 69.9601 142.57 65.8101 137.51 65.8101ZM117.23 33.8501C117.23 30.4401 120 27.6701 123.42 27.6701C126.83 27.6701 129.6 30.4401 129.6 33.8501C129.6 37.2601 126.83 40.0401 123.42 40.0401C120.01 40.0401 117.23 37.2701 117.23 33.8501ZM68.8099 13.7501C68.8099 10.3401 71.5799 7.57008 74.9899 7.57008C78.3999 7.57008 81.1799 10.3401 81.1799 13.7501C81.1799 17.1601 78.4099 19.9401 74.9899 19.9401C71.5899 19.9401 68.8099 17.1701 68.8099 13.7501ZM20.3999 33.8501C20.3999 30.4401 23.1699 27.6701 26.5899 27.6701C29.9999 27.6701 32.7699 30.4401 32.7699 33.8501C32.7699 37.2601 29.9999 40.0401 26.5899 40.0401C23.1699 40.0401 20.3999 37.2701 20.3999 33.8501ZM12.4899 81.1801C9.07995 81.1801 6.30995 78.4101 6.30995 75.0001C6.30995 71.5901 9.07995 68.8101 12.4899 68.8101C15.8999 68.8101 18.6799 71.5801 18.6799 75.0001C18.6799 78.4101 15.9099 81.1801 12.4899 81.1801ZM32.7699 116.14C32.7699 119.55 29.9999 122.33 26.5899 122.33C23.1799 122.33 20.3999 119.56 20.3999 116.14C20.3999 112.73 23.1699 109.96 26.5899 109.96C29.9899 109.96 32.7699 112.73 32.7699 116.14ZM81.1899 136.24C81.1899 139.65 78.4199 142.43 74.9999 142.43C71.5899 142.43 68.8199 139.66 68.8199 136.24C68.8199 132.83 71.5899 130.06 74.9999 130.06C78.41 130.06 81.1899 132.83 81.1899 136.24ZM129.6 116.14C129.6 119.55 126.83 122.33 123.42 122.33C120.01 122.33 117.23 119.56 117.23 116.14C117.23 112.73 120 109.96 123.42 109.96C126.83 109.96 129.6 112.73 129.6 116.14ZM113.34 73.5001H96.1499C96.02 66.1001 94.91 59.1001 93.0099 53.0901H106.48C110.57 58.9501 113.05 65.9801 113.34 73.5001ZM84.3599 37.7901C92.2699 39.7701 99.1199 44.1601 104.18 50.0901H91.9699C89.9999 44.9301 87.4199 40.6801 84.3599 37.7901ZM43.5099 53.0801H56.9899C55.0499 59.2001 53.9799 66.1901 53.8499 73.5001H36.6899C36.9699 66.1301 39.2899 59.1101 43.5099 53.0801ZM36.6599 76.5001H53.8499C53.9799 83.9001 55.0899 90.9001 56.9899 96.9201H43.5199C39.4299 91.0501 36.9499 84.0201 36.6599 76.5001ZM65.6399 112.22C57.7199 110.24 50.8699 105.84 45.8199 99.9201H58.0399C59.9999 105.07 62.5799 109.33 65.6399 112.22ZM73.4999 96.9201H60.1699C58.1799 90.9801 56.9899 83.9101 56.8499 76.5001H73.4999V96.9201ZM76.4999 73.5001V53.0801H89.8299C91.8199 59.0201 93.0099 66.0801 93.1499 73.4901H81.3999H76.4999V73.5001ZM106.48 96.9101H93.0099C94.95 90.7901 96.02 83.8001 96.1499 76.4901H113.34C113.05 84.0701 110.56 91.0801 106.48 96.9101ZM137.51 81.1801C134.1 81.1801 131.32 78.4101 131.32 75.0001C131.32 71.5901 134.09 68.8101 137.51 68.8101C140.92 68.8101 143.69 71.5801 143.69 75.0001C143.69 78.4101 140.92 81.1801 137.51 81.1801Z" fill="#FF5F46"/>
</svg>
