<svg width="150" height="150" viewBox="0 0 150 150" fill="none" xmlns="http://www.w3.org/2000/svg">
<path d="M18.4 122.61H131.6C133.457 122.61 135.237 121.873 136.55 120.56C137.863 119.247 138.6 117.467 138.6 115.61V109.9L126.32 96.9L124.12 99L133.6 109H23.89V112H135.58V115.62C135.58 116.681 135.159 117.698 134.408 118.448C133.658 119.199 132.641 119.62 131.58 119.62H18.4C17.3391 119.62 16.3217 119.199 15.5716 118.448C14.8214 117.698 14.4 116.681 14.4 115.62V111.09L29.49 95.09H122.61V34.05C122.607 32.2931 121.912 30.6081 120.674 29.3611C119.437 28.1141 117.757 27.4058 116 27.39H34C32.2328 27.39 30.5377 28.0914 29.2871 29.3401C28.0366 30.5888 27.3327 32.2828 27.33 34.05V86.61H30.33V34.05C30.33 33.5685 30.425 33.0918 30.6096 32.6471C30.7941 32.2024 31.0646 31.7985 31.4055 31.4585C31.7465 31.1185 32.1511 30.8491 32.5963 30.6657C33.0415 30.4824 33.5185 30.3887 34 30.39H116C116.481 30.3887 116.959 30.4824 117.404 30.6657C117.849 30.8491 118.254 31.1185 118.594 31.4585C118.935 31.7985 119.206 32.2024 119.39 32.6471C119.575 33.0918 119.67 33.5685 119.67 34.05V92.12H28.22L11.42 109.9V115.62C11.4227 117.471 12.1586 119.246 13.4667 120.556C14.7749 121.866 16.5487 122.605 18.4 122.61Z" fill="white"/>
<path d="M75 78.07C76.6361 78.072 78.236 77.5887 79.5973 76.6811C80.9586 75.7736 82.0201 74.4827 82.6476 72.9718C83.2751 71.4608 83.4403 69.7977 83.1223 68.1928C82.8043 66.5879 82.0175 65.1134 80.8613 63.9558C79.7051 62.7982 78.2316 62.0096 76.6271 61.6897C75.0226 61.3698 73.3592 61.533 71.8475 62.1586C70.3358 62.7842 69.0436 63.8442 68.1344 65.2044C67.2253 66.5646 66.74 68.164 66.74 69.8C66.7426 71.9908 67.6134 74.0913 69.1616 75.6414C70.7098 77.1914 72.8092 78.0647 75 78.07V78.07ZM75 64.53C76.0427 64.528 77.0626 64.8354 77.9306 65.4133C78.7985 65.9912 79.4756 66.8136 79.876 67.7763C80.2764 68.7391 80.3822 69.7991 80.1799 70.822C79.9777 71.8449 79.4766 72.7849 78.74 73.5229C78.0034 74.261 77.0644 74.7639 76.0418 74.968C75.0192 75.1722 73.9591 75.0684 72.9956 74.6698C72.032 74.2712 71.2084 73.5958 70.6288 72.7289C70.0493 71.8621 69.74 70.8428 69.74 69.8C69.7426 68.4049 70.2973 67.0675 71.2829 66.08C72.2685 65.0926 73.6048 64.5353 75 64.53V64.53Z" fill="white"/>
<path d="M75.1 37H74.9C73.4358 37.0013 71.9861 37.291 70.6339 37.8526C69.2816 38.4141 68.0531 39.2365 67.0187 40.2728C65.9843 41.3091 65.164 42.539 64.6049 43.8923C64.0458 45.2456 63.7587 46.6958 63.76 48.16V55.7H62C61.1415 55.7026 60.3189 56.0448 59.7119 56.6519C59.1049 57.2589 58.7626 58.0815 58.76 58.94V80.67C58.7627 81.5276 59.1052 82.3491 59.7125 82.9546C60.3198 83.56 61.1424 83.9 62 83.9H88.1C88.9576 83.9 89.7802 83.56 90.3875 82.9546C90.9948 82.3491 91.3374 81.5276 91.34 80.67V58.94C91.34 58.5145 91.2562 58.0932 91.0934 57.7001C90.9306 57.307 90.6919 56.9498 90.391 56.649C90.0902 56.3481 89.733 56.1095 89.3399 55.9466C88.9468 55.7838 88.5255 55.7 88.1 55.7H86.24V48.16C86.2413 46.6958 85.9542 45.2456 85.3951 43.8923C84.836 42.539 84.0158 41.3091 82.9813 40.2728C81.9469 39.2365 80.7184 38.4141 79.3662 37.8526C78.0139 37.291 76.5642 37.0013 75.1 37V37ZM66.76 48.16C66.7587 47.0897 66.9682 46.0297 67.3766 45.0404C67.7849 44.0511 68.3841 43.1519 69.14 42.3941C69.8959 41.6364 70.7936 41.035 71.7819 40.6242C72.7702 40.2134 73.8297 40.0013 74.9 40H75.1C77.2563 40.0026 79.3237 40.8597 80.8494 42.3835C82.3751 43.9073 83.2347 45.9737 83.24 48.13V55.7H66.76V48.16ZM88.29 58.94V80.67C88.29 80.7011 88.2838 80.7318 88.2716 80.7604C88.2594 80.789 88.2416 80.8148 88.2192 80.8363C88.1967 80.8578 88.1702 80.8745 88.1411 80.8854C88.112 80.8964 88.081 80.9014 88.05 80.9H62C61.969 80.9014 61.938 80.8964 61.9089 80.8854C61.8799 80.8745 61.8533 80.8578 61.8309 80.8363C61.8084 80.8148 61.7906 80.789 61.7784 80.7604C61.7662 80.7318 61.76 80.7011 61.76 80.67V58.94C61.76 58.8763 61.7853 58.8153 61.8303 58.7703C61.8753 58.7253 61.9364 58.7 62 58.7H88.1C88.1547 58.7116 88.2036 58.742 88.2382 58.7858C88.2729 58.8296 88.2912 58.8841 88.29 58.94Z" fill="white"/>
</svg>
