<svg width="896" height="735" viewBox="0 0 896 735" fill="none" xmlns="http://www.w3.org/2000/svg">
<g filter="url(#filter0_dddddd_1107_11007)">
<path d="M192 196.45C192 120.538 253.538 59.0001 329.45 59.0001H566.55C642.462 59.0001 704 120.538 704 196.45V433.55C704 509.462 642.462 571 566.55 571H329.45C253.538 571 192 509.462 192 433.55V196.45Z" fill="white"/>
</g>
<path d="M436.424 318.47V161.28C349.613 161.28 279.238 231.654 279.238 318.465C279.238 318.467 279.238 318.463 279.238 318.465L436.424 318.47Z" fill="#FABFBA"/>
<path d="M375.216 343.152C380.805 373.578 405.51 397.315 436.419 401.452V473.891C365.784 469.772 309.129 413.587 304.275 343.152H375.216Z" fill="#FABFBA"/>
<path d="M461.116 192.859C534.298 197.903 592.099 258.866 592.099 333.329C592.098 408.006 533.965 469.103 460.484 473.839V401.331C495.287 396.24 522.009 366.268 522.009 330.053C522.009 294.058 495.61 264.229 461.116 258.871V192.859Z" fill="#FF5F46"/>
<defs>
<filter id="filter0_dddddd_1107_11007" x="0.639999" y="0.120117" width="894.72" height="894.72" filterUnits="userSpaceOnUse" color-interpolation-filters="sRGB">
<feFlood flood-opacity="0" result="BackgroundImageFix"/>
<feColorMatrix in="SourceAlpha" type="matrix" values="0 0 0 0 0 0 0 0 0 0 0 0 0 0 0 0 0 0 127 0" result="hardAlpha"/>
<feOffset dy="3.68"/>
<feGaussianBlur stdDeviation="2.76"/>
<feColorMatrix type="matrix" values="0 0 0 0 0.105882 0 0 0 0 0.192157 0 0 0 0 0.223529 0 0 0 0.0196802 0"/>
<feBlend mode="normal" in2="BackgroundImageFix" result="effect1_dropShadow_1107_11007"/>
<feColorMatrix in="SourceAlpha" type="matrix" values="0 0 0 0 0 0 0 0 0 0 0 0 0 0 0 0 0 0 127 0" result="hardAlpha"/>
<feOffset dy="7.36"/>
<feGaussianBlur stdDeviation="7.36"/>
<feColorMatrix type="matrix" values="0 0 0 0 0.105882 0 0 0 0 0.192157 0 0 0 0 0.223529 0 0 0 0.04 0"/>
<feBlend mode="normal" in2="effect1_dropShadow_1107_11007" result="effect2_dropShadow_1107_11007"/>
<feColorMatrix in="SourceAlpha" type="matrix" values="0 0 0 0 0 0 0 0 0 0 0 0 0 0 0 0 0 0 127 0" result="hardAlpha"/>
<feOffset dy="16.56"/>
<feGaussianBlur stdDeviation="11.96"/>
<feColorMatrix type="matrix" values="0 0 0 0 0.105882 0 0 0 0 0.192157 0 0 0 0 0.223529 0 0 0 0.035 0"/>
<feBlend mode="normal" in2="effect2_dropShadow_1107_11007" result="effect3_dropShadow_1107_11007"/>
<feColorMatrix in="SourceAlpha" type="matrix" values="0 0 0 0 0 0 0 0 0 0 0 0 0 0 0 0 0 0 127 0" result="hardAlpha"/>
<feOffset dy="29.44"/>
<feGaussianBlur stdDeviation="22.08"/>
<feColorMatrix type="matrix" values="0 0 0 0 0.105882 0 0 0 0 0.192157 0 0 0 0 0.223529 0 0 0 0.04 0"/>
<feBlend mode="normal" in2="effect3_dropShadow_1107_11007" result="effect4_dropShadow_1107_11007"/>
<feColorMatrix in="SourceAlpha" type="matrix" values="0 0 0 0 0 0 0 0 0 0 0 0 0 0 0 0 0 0 127 0" result="hardAlpha"/>
<feOffset dy="58.88"/>
<feGaussianBlur stdDeviation="36.8"/>
<feColorMatrix type="matrix" values="0 0 0 0 0.105882 0 0 0 0 0.192157 0 0 0 0 0.223529 0 0 0 0.0503198 0"/>
<feBlend mode="normal" in2="effect4_dropShadow_1107_11007" result="effect5_dropShadow_1107_11007"/>
<feColorMatrix in="SourceAlpha" type="matrix" values="0 0 0 0 0 0 0 0 0 0 0 0 0 0 0 0 0 0 127 0" result="hardAlpha"/>
<feOffset dy="132.48"/>
<feGaussianBlur stdDeviation="95.68"/>
<feColorMatrix type="matrix" values="0 0 0 0 0.105882 0 0 0 0 0.192157 0 0 0 0 0.223529 0 0 0 0.07 0"/>
<feBlend mode="normal" in2="effect5_dropShadow_1107_11007" result="effect6_dropShadow_1107_11007"/>
<feBlend mode="normal" in="SourceGraphic" in2="effect6_dropShadow_1107_11007" result="shape"/>
</filter>
</defs>
</svg>
