<svg width="16" height="16" viewBox="0 0 16 16" fill="none" xmlns="http://www.w3.org/2000/svg">
<path d="M7.99997 2.5C9.48265 2.5 10.827 3.0857 11.8168 4.03994L11.8257 4.04855L12.3261 4.5H11V6L15 6V2L13.5 2V3.53879L12.8487 2.95121C11.5914 1.74351 9.88175 1 7.99997 1C4.91621 1 2.30002 2.9936 1.36621 5.76014L2.78743 6.23986C3.52167 4.06457 5.57908 2.5 7.99997 2.5Z" fill="#FF3621"/>
<path d="M7.99996 11C8.82839 11 9.49996 10.3284 9.49996 9.5C9.49996 8.67157 8.82839 8 7.99996 8C7.17153 8 6.49996 8.67157 6.49996 9.5C6.49996 10.3284 7.17153 11 7.99996 11Z" fill="#FF3621"/>
</svg>
