<svg width="16" height="16" viewBox="0 0 16 16" fill="none" xmlns="http://www.w3.org/2000/svg">
<g clip-path="url(#clip0_2246_2613)">
<path fill-rule="evenodd" clip-rule="evenodd" d="M7.99623 0C8.30152 0 8.57635 0.185049 8.69117 0.467924L11.3426 7H9.7237L9.3178 6H6.67467L6.26876 7H4.6499L7.3013 0.467924C7.41612 0.185049 7.69094 0 7.99623 0ZM7.28352 4.5H8.70894L7.99623 2.74414L7.28352 4.5Z" fill="#FF3621"/>
<path fill-rule="evenodd" clip-rule="evenodd" d="M8.66357 9.5H4.99625V8H10.2463C10.536 8 10.7999 8.16695 10.924 8.42883C11.0481 8.6907 11.0102 9.00064 10.8267 9.22493L7.32894 13.5H10.9963V15H5.74625C5.45646 15 5.1926 14.8331 5.0685 14.5712C4.9444 14.3093 4.98228 13.9994 5.16579 13.7751L8.66357 9.5Z" fill="#FF3621"/>
</g>
<defs>
<clipPath id="clip0_2246_2613">
<rect width="16" height="16" fill="white"/>
</clipPath>
</defs>
</svg>
