<svg width="16" height="16" viewBox="0 0 16 16" fill="none" xmlns="http://www.w3.org/2000/svg">
<path fill-rule="evenodd" clip-rule="evenodd" d="M4.75 3C4.33579 3 4 3.33579 4 3.75V8V12.25C4 12.6642 4.33579 13 4.75 13H8.5H9.125C10.7128 13 12 11.7128 12 10.125C12 9.0853 11.4482 8.17438 10.6214 7.66946C11.0148 7.17763 11.25 6.55379 11.25 5.875C11.25 4.28714 9.96269 3 8.37491 3H8.3639H8.35289H8.34188H8.33087H8.31987H8.30887H8.29788H8.28689H8.2759H8.26492H8.25394H8.24296H8.23199H8.22102H8.21006H8.1991H8.18814H8.17719H8.16625H8.1553H8.14437H8.13343H8.1225H8.11158H8.10066H8.08975H8.07884H8.06794H8.05704H8.04614H8.03525H8.02437H8.01349H8.00262H7.99176H7.98089H7.97004H7.95919H7.94835H7.93751H7.92668H7.91585H7.90503H7.89422H7.88341H7.87261H7.86181H7.85103H7.84025H7.82947H7.8187H7.80794H7.79719H7.78644H7.7757H7.76496H7.75424H7.74352H7.73281H7.7221H7.71141H7.70072H7.69003H7.67936H7.66869H7.65803H7.64738H7.63674H7.6261H7.61548H7.60486H7.59425H7.58364H7.57305H7.56246H7.55189H7.54132H7.53076H7.52021H7.50966H7.49913H7.4886H7.47809H7.46758H7.45708H7.44659H7.43612H7.42565H7.41519H7.40473H7.39429H7.38386H7.37344H7.36303H7.35262H7.34223H7.33185H7.32148H7.31112H7.30076H7.29042H7.28009H7.26977H7.25946H7.24916H7.23887H7.22859H7.21832H7.20807H7.19782H7.18759H7.17736H7.16715H7.15695H7.14676H7.13658H7.12641H7.11626H7.10611H7.09598H7.08586H7.07575H7.06565H7.05557H7.0455H7.03544H7.02539H7.01535H7.00533H6.99531H6.98531H6.97533H6.96535H6.95539H6.94544H6.93551H6.92558H6.91567H6.90578H6.89589H6.88602H6.87616H6.86632H6.85649H6.84667H6.83687H6.82708H6.8173H6.80754H6.79779H6.78805H6.77833H6.76862H6.75893H6.74925H6.73958H6.72993H6.7203H6.71068H6.70107H6.69148H6.6819H6.67234H6.66279H6.65325H6.64374H6.63423H6.62474H6.61527H6.60581H6.59637H6.58694H6.57753H6.56814H6.55876H6.54939H6.54004H6.53071H6.52139H6.51209H6.50281H6.49354H6.48428H6.47505H6.46583H6.45662H6.44744H6.43826H6.42911H6.41997H6.41085H6.40175H6.39266H6.38359H6.37454H6.3655H6.35648H6.34748H6.3385H6.32953H6.32058H6.31165H6.30274H6.29384H6.28496H6.2761H6.26726H6.25843H6.24963H6.24084H6.23207H6.22332H6.21458H6.20587H6.19717H6.18849H6.17983H6.17119H6.16257H6.15397H6.14538H6.13682H6.12827H6.11974H6.11124H6.10275H6.09428H6.08583H6.0774H6.06899H6.0606H6.05223H6.04387H6.03554H6.02723H6.01894H6.01067H6.00242H5.99418H5.98597H5.97778H5.96961H5.96146H5.95333H5.94523H5.93714H5.92907H5.92102H5.913H5.905H5.89701H5.88905H5.88111H5.87319H5.86529H5.85742H5.84956H5.84173H5.83392H5.82613H5.81836H5.81061H5.80289H5.79518H5.7875H5.77985H5.77221H5.7646H5.75701H5.74944H5.74189H5.73437H5.72687H5.71939H5.71193H5.7045H5.69709H5.6897H5.68234H5.675H5.66768H5.66039H5.65312H5.64587H5.63865H5.63145H5.62427H5.61712H5.60999H5.60289H5.59581H5.58875H5.58172H5.57471H5.56772H5.56076H5.55383H5.54692H5.54003H5.53317H5.52633H5.51952H5.51273H5.50597H5.49923H5.49252H5.48583H5.47917H5.47253H5.46592H5.45934H5.45277H5.44624H5.43973H5.43325H5.42679H5.42035H5.41395H5.40757H5.40121H5.39489H5.38858H5.38231H5.37606H5.36983H5.36364H5.35747H5.35132H5.34521H5.33912H5.33305H5.32702H5.32101H5.31503H5.30907H5.30314H5.29724H5.29137H5.28552H5.27971H5.27391H5.26815H5.26242H5.25671H5.25103H5.24538H5.23975H5.23416H5.22859H5.22305H5.21754H5.21206H5.2066H5.20117H5.19578H5.19041H5.18507H5.17976H5.17447H5.16922H5.164H5.1588H5.15364H5.1485H5.14339H5.13831H5.13326H5.12824H5.12325H5.11829H5.11336H5.10846H5.10359H5.09875H5.09394H5.08916H5.08441H5.07969H5.075H5.07034H5.06571H5.06111H5.05654H5.052H5.0475H5.04302H5.03857H5.03416H5.02978H5.02542H5.0211H5.01681H5.01255H5.00833H5.00413H4.99997H4.99584H4.99173H4.98766H4.98363H4.97962H4.97565H4.97171H4.9678H4.96392H4.96007H4.95626H4.95248H4.94873H4.94502H4.94134H4.93769H4.93407H4.93048H4.92693H4.92341H4.91993H4.91647H4.91306H4.90967H4.90632H4.903H4.89971H4.89646H4.89324H4.89005H4.8869H4.88378H4.8807H4.87765H4.87464H4.87165H4.86871H4.86579H4.86291H4.86007H4.85726H4.85448H4.85174H4.84904H4.84637H4.84373H4.84113H4.83856H4.83603H4.83353H4.83107H4.82864H4.82625H4.8239H4.82158H4.81929H4.81704H4.81483H4.81265H4.81051H4.80841H4.80634H4.8043H4.80231H4.80035H4.79842H4.79653H4.79468H4.79286H4.79108H4.78934H4.78764H4.78597H4.78433H4.78274H4.78118H4.77966H4.77818H4.77673H4.77532H4.77395H4.77261H4.77131H4.77005H4.76883H4.76765H4.7665H4.76539H4.76432H4.76329H4.76134H4.75954H4.75789H4.7564H4.75506H4.75388H4.75285H4.75161H4.75ZM5.5 8.75V11.5H8.5H9.125C9.88439 11.5 10.5 10.8844 10.5 10.125C10.5 9.36544 9.88459 8.75 9.12536 8.75H9.1174H9.10942H9.10144H9.09344H9.08544H9.07743H9.06942H9.06139H9.05335H9.04531H9.03726H9.0292H9.02113H9.01305H9.00497H8.99688H8.98878H8.98067H8.97255H8.96442H8.95629H8.94815H8.94H8.93184H8.92368H8.91551H8.90733H8.89914H8.89094H8.88274H8.87453H8.86631H8.85808H8.84985H8.84161H8.83336H8.8251H8.81684H8.80857H8.80029H8.79201H8.78372H8.77542H8.76711H8.7588H8.75048H8.74215H8.73382H8.72547H8.71713H8.70877H8.70041H8.69204H8.68366H8.67528H8.66689H8.6585H8.6501H8.64169H8.63327H8.62485H8.61642H8.60799H8.59955H8.5911H8.58265H8.57419H8.56572H8.55725H8.54877H8.54029H8.5318H8.5233H8.5148H8.50629H8.49778H8.48926H8.48074H8.4722H8.46367H8.45512H8.44658H8.43802H8.42946H8.4209H8.41233H8.40375H8.39517H8.38658H8.37799C8.3772 8.75 8.37579 8.75 8.375 8.75L5.5 8.75ZM8.37664 7.25C9.13528 7.24912 9.75 6.63385 9.75 5.875C9.75 5.11565 9.13435 4.5 8.37491 4.5H8.3639H8.35289H8.34188H8.33087H8.31987H8.30887H8.29788H8.28689H8.2759H8.26492H8.25394H8.24296H8.23199H8.22102H8.21006H8.1991H8.18814H8.17719H8.16625H8.1553H8.14437H8.13343H8.1225H8.11158H8.10066H8.08975H8.07884H8.06794H8.05704H8.04614H8.03525H8.02437H8.01349H8.00262H7.99176H7.98089H7.97004H7.95919H7.94835H7.93751H7.92668H7.91585H7.90503H7.89422H7.88341H7.87261H7.86181H7.85103H7.84025H7.82947H7.8187H7.80794H7.79719H7.78644H7.7757H7.76496H7.75424H7.74352H7.73281H7.7221H7.71141H7.70072H7.69003H7.67936H7.66869H7.65803H7.64738H7.63674H7.6261H7.61548H7.60486H7.59425H7.58364H7.57305H7.56246H7.55189H7.54132H7.53076H7.52021H7.50966H7.49913H7.4886H7.47809H7.46758H7.45708H7.44659H7.43612H7.42565H7.41519H7.40473H7.39429H7.38386H7.37344H7.36303H7.35262H7.34223H7.33185H7.32148H7.31112H7.30076H7.29042H7.28009H7.26977H7.25946H7.24916H7.23887H7.22859H7.21832H7.20807H7.19782H7.18759H7.17736H7.16715H7.15695H7.14676H7.13658H7.12641H7.11626H7.10611H7.09598H7.08586H7.07575H7.06565H7.05557H7.0455H7.03544H7.02539H7.01535H7.00533H6.99531H6.98531H6.97533H6.96535H6.95539H6.94544H6.93551H6.92558H6.91567H6.90578H6.89589H6.88602H6.87616H6.86632H6.85649H6.84667H6.83687H6.82708H6.8173H6.80754H6.79779H6.78805H6.77833H6.76862H6.75893H6.74925H6.73958H6.72993H6.7203H6.71068H6.70107H6.69148H6.6819H6.67234H6.66279H6.65325H6.64374H6.63423H6.62474H6.61527H6.60581H6.59637H6.58694H6.57753H6.56814H6.55876H6.54939H6.54004H6.53071H6.52139H6.51209H6.50281H6.49354H6.48428H6.47505H6.46583H6.45662H6.44744H6.43826H6.42911H6.41997H6.41085H6.40175H6.39266H6.38359H6.37454H6.3655H6.35648H6.34748H6.3385H6.32953H6.32058H6.31165H6.30274H6.29384H6.28496H6.2761H6.26726H6.25843H6.24963H6.24084H6.23207H6.22332H6.21458H6.20587H6.19717H6.18849H6.17983H6.17119H6.16257H6.15397H6.14538H6.13682H6.12827H6.11974H6.11124H6.10275H6.09428H6.08583H6.0774H6.06899H6.0606H6.05223H6.04387H6.03554H6.02723H6.01894H6.01067H6.00242H5.99418H5.98597H5.97778H5.96961H5.96146H5.95333H5.94523H5.93714H5.92907H5.92102H5.913H5.905H5.89701H5.88905H5.88111H5.87319H5.86529H5.85742H5.84956H5.84173H5.83392H5.82613H5.81836H5.81061H5.80289H5.79518H5.7875H5.77985H5.77221H5.7646H5.75701H5.74944H5.74189H5.73437H5.72687H5.71939H5.71193H5.7045H5.69709H5.6897H5.68234H5.675H5.66768H5.66039H5.65312H5.64587H5.63865H5.63145H5.62427H5.61712H5.60999H5.60289H5.59581H5.58875H5.58172H5.57471H5.56772H5.56076H5.55383H5.54692H5.54003H5.53317H5.52633H5.51952H5.51273H5.50597H5.5V7.25L5.50282 7.25H5.51114H5.51947H5.5278H5.53614H5.54449H5.55284H5.5612H5.56957H5.57795H5.58633H5.59471H5.60311H5.61151H5.61992H5.62833H5.63675H5.64518H5.65361H5.66205H5.6705H5.67895H5.68741H5.69587H5.70434H5.71282H5.7213H5.72979H5.73829H5.74679H5.75529H5.76381H5.77233H5.78085H5.78938H5.79792H5.80646H5.81501H5.82356H5.83212H5.84068H5.84925H5.85783H5.86641H5.87499H5.88359H5.89218H5.90078H5.90939H5.918H5.92662H5.93525H5.94387H5.95251H5.96115H5.96979H5.97844H5.98709H5.99575H6.00441H6.01308H6.02175H6.03043H6.03911H6.0478H6.05649H6.06518H6.07388H6.08259H6.0913H6.10001H6.10873H6.11745H6.12618H6.13491H6.14364H6.15238H6.16113H6.16988H6.17863H6.18738H6.19614H6.20491H6.21367H6.22245H6.23122H6.24H6.24878H6.25757H6.26636H6.27516H6.28395H6.29276H6.30156H6.31037H6.31918H6.328H6.33682H6.34564H6.35446H6.36329H6.37213H6.38096H6.3898H6.39864H6.40749H6.41633H6.42518H6.43404H6.4429H6.45176H6.46062H6.46948H6.47835H6.48722H6.4961H6.50497H6.51385H6.52273H6.53162H6.54051H6.5494H6.55829H6.56718H6.57608H6.58498H6.59388H6.60278H6.61169H6.6206H6.62951H6.63842H6.64733H6.65625H6.66517H6.67409H6.68301H6.69193H6.70086H6.70979H6.71872H6.72765H6.73658H6.74552H6.75445H6.76339H6.77233H6.78127H6.79022H6.79916H6.8081H6.81705H6.826H6.83495H6.8439H6.85285H6.8618H6.87076H6.87971H6.88867H6.89763H6.90659H6.91555H6.92451H6.93347H6.94243H6.95139H6.96036H6.96932H6.97828H6.98725H6.99622H7.00518H7.01415H7.02312H7.03209H7.04105H7.05002H7.05899H7.06796H7.07693H7.0859H7.09487H7.10384H7.11281H7.12179H7.13076H7.13973H7.1487H7.15767H7.16664H7.17561H7.18458H7.19355H7.20252H7.21149H7.22046H7.22943H7.23839H7.24736H7.25633H7.2653H7.27426H7.28323H7.29219H7.30116H7.31012H7.31908H7.32805H7.33701H7.34597H7.35493H7.36389H7.37284H7.3818H7.39076H7.39971H7.40866H7.41761H7.42657H7.43552H7.44446H7.45341H7.46236H7.4713H7.48024H7.48919H7.49812H7.50706H7.516H7.52494H7.53387H7.5428H7.55173H7.56066H7.56958H7.57851H7.58743H7.59635H7.60527H7.61419H7.6231H7.63202H7.64093H7.64983H7.65874H7.66764H7.67655H7.68545H7.69434H7.70324H7.71213H7.72102H7.72991H7.73879H7.74767H7.75655H7.76543H7.77431H7.78318H7.79205H7.80091H7.80977H7.81863H7.82749H7.83635H7.8452H7.85405H7.86289H7.87173H7.88057H7.88941H7.89824H7.90707H7.9159H7.92472H7.93354H7.94236H7.95117H7.95998H7.96878H7.97759H7.98638H7.99518H8.00397H8.01276H8.02154H8.03032H8.0391H8.04787H8.05664H8.0654H8.07416H8.08292H8.09167H8.10042H8.10917H8.11791H8.12664H8.13537H8.1441H8.15282H8.16154H8.17026H8.17897H8.18767H8.19637H8.20507H8.21376H8.22245H8.23113H8.23981H8.24848H8.25715H8.26582H8.27447H8.28313H8.29178H8.30042H8.30906H8.31769H8.32632H8.33495H8.34357H8.35218H8.36079H8.36939H8.37664Z" fill="#FF3621"/>
</svg>
