<svg width="16" height="16" viewBox="0 0 16 16" fill="none" xmlns="http://www.w3.org/2000/svg">
<g clip-path="url(#clip0_2246_2643)">
<path d="M14.0005 11.9393L12.5005 10.4393V5H7.0612L5.5612 3.5H12.5005V1.5H4.50055C4.23983 1.5 4.00242 1.59977 3.82442 1.76321L2.76337 0.702162C3.21316 0.267455 3.82562 0 4.50055 0H13.2505C13.6648 0 14.0005 0.335786 14.0005 0.75V11.9393Z" fill="#FF3621"/>
<path fill-rule="evenodd" clip-rule="evenodd" d="M2.00054 4.06066L0.470215 2.53033L1.53087 1.46967L15.0309 14.9697L13.9702 16.0303L13.9399 16H4.75055C3.23176 16 2.00054 14.7688 2.00054 13.25V4.06066ZM3.50055 5.56066V13.25C3.50055 13.9404 4.06019 14.5 4.75055 14.5H12.4399L3.50055 5.56066Z" fill="#FF3621"/>
</g>
<defs>
<clipPath id="clip0_2246_2643">
<rect width="16" height="16" fill="white"/>
</clipPath>
</defs>
</svg>
