<svg width="16" height="16" viewBox="0 0 16 16" fill="none" xmlns="http://www.w3.org/2000/svg">
<path d="M6.14372 12.331L7.11599 11.3588L8.17665 12.4194L7.20438 13.3917C5.78872 14.8073 3.4935 14.8073 2.07785 13.3917C0.6622 11.976 0.662201 9.68081 2.07785 8.26516L4.19917 6.14384C5.61482 4.72819 7.91005 4.72819 9.3257 6.14384C9.85276 6.6709 10.1836 7.31988 10.3182 8L8.76686 8C8.66461 7.70951 8.49734 7.4368 8.26504 7.2045C7.43517 6.37464 6.0897 6.37464 5.25983 7.2045L3.13851 9.32582C2.30865 10.1557 2.30865 11.5012 3.13851 12.331C3.96838 13.1609 5.31385 13.1609 6.14372 12.331Z" fill="#FF3621"/>
<path d="M9.85603 3.66897L8.88375 4.64124L7.82309 3.58058L8.79537 2.60831C10.211 1.19266 12.5062 1.19266 13.9219 2.60831C15.3375 4.02396 15.3375 6.31918 13.9219 7.73483L11.8006 9.85615C10.3849 11.2718 8.0897 11.2718 6.67405 9.85615C6.14699 9.32909 5.81616 8.68011 5.68155 8H7.23288C7.33513 8.29049 7.5024 8.56319 7.73471 8.79549C8.56457 9.62536 9.91005 9.62536 10.7399 8.79549L12.8612 6.67417C13.6911 5.84431 13.6911 4.49883 12.8612 3.66897C12.0314 2.8391 10.6859 2.8391 9.85603 3.66897Z" fill="#FF3621"/>
</svg>
