<?xml version="1.0" encoding="utf-8"?>
<!-- Generator: Adobe Illustrator 28.0.0, SVG Export Plug-In . SVG Version: 6.00 Build 0)  -->
<svg version="1.1" id="Layer_1" xmlns="http://www.w3.org/2000/svg" xmlns:xlink="http://www.w3.org/1999/xlink" x="0px" y="0px"
	 viewBox="0 0 360 360" style="enable-background:new 0 0 360 360;" xml:space="preserve">
<style type="text/css">
	.st0{fill:#FABFBA;}
	.st1{fill:#FF9E94;}
	.st2{fill:#143D4A;}
	.st3{fill:#FF3621;}
	.st4{fill:#FF5F46;}
	.st5{fill:#FFFFFF;}
</style>
<g>
	<rect x="180" class="st0" width="180" height="273.19"/>
	<rect y="90" class="st1" width="180" height="270"/>
	<path class="st2" d="M270,180L270,180c-49.71,0-90-40.29-90-90l0-90l180,0v90C360,139.71,319.71,180,270,180z"/>
	<circle class="st3" cx="90" cy="90" r="90"/>
	<circle class="st4" cx="270" cy="270" r="90"/>
	<path class="st2" d="M90,180L90,180c49.71,0,90,40.29,90,90v90H0v-90C0,220.29,40.29,180,90,180z"/>
	<polygon class="st3" points="270,104.13 298.38,123.88 288.37,90.78 315.93,69.89 281.35,69.18 270,36.52 258.65,69.18 
		224.07,69.89 251.63,90.78 241.62,123.88 	"/>
	<polygon class="st5" points="304.32,235.44 257.36,282.4 238.94,263.98 225.66,277.27 257.36,308.97 317.6,248.73 	"/>
</g>
</svg>
