<?xml version="1.0" encoding="utf-8"?>
<!-- Generator: Adobe Illustrator 28.0.0, SVG Export Plug-In . SVG Version: 6.00 Build 0)  -->
<svg version="1.1" id="Layer_1" xmlns="http://www.w3.org/2000/svg" xmlns:xlink="http://www.w3.org/1999/xlink" x="0px" y="0px"
	 viewBox="0 0 360 360" style="enable-background:new 0 0 360 360;" xml:space="preserve">
<style type="text/css">
	.st0{fill:#FF3621;}
	.st1{fill:#143D4A;}
	.st2{fill:#FF9E94;}
</style>
<g>
	<g>
		<polygon class="st0" points="360,90 360,0 270,0 		"/>
		<polygon class="st0" points="270,180 360,180 360,90 		"/>
	</g>
	
		<rect x="-45" y="225" transform="matrix(-8.167742e-08 1 -1 -8.167742e-08 315.0018 225.0006)" class="st0" width="180" height="90"/>
	<polygon class="st1" points="90,180 360,180 360,360 90,360 0,270 	"/>
	<path class="st2" d="M360,360l-245.4,0c-4.99,0-9.04-4.05-9.04-9.04s4.05-9.04,9.04-9.04h98.93c4.9,0,8.88-3.97,8.88-8.88v-0.33
		c0-4.9-3.97-8.88-8.88-8.88l-98.93,0c-4.99,0-9.04-4.05-9.04-9.04c0-4.99,4.05-9.04,9.04-9.04l98.93,0c4.9,0,8.88-3.97,8.88-8.88
		v-0.33c0-4.9-3.97-8.88-8.88-8.88H114.6c-4.99,0-9.04-4.05-9.04-9.04c0-4.99,4.05-9.04,9.04-9.04h98.93c4.9,0,8.88-3.97,8.88-8.88
		v-0.33c0-4.9-3.97-8.88-8.88-8.88l-98.93,0c-4.99,0-9.04-4.05-9.04-9.04c0-4.99,4.05-9.04,9.04-9.04l130.97,0
		c4.9,0,8.88-3.97,8.88-8.88v-0.33c0-4.9-3.97-8.88-8.88-8.88l-49.26,0c-4.99,0-9.04-4.05-9.04-9.04c0-4.99,4.05-9.04,9.04-9.04
		h64.13c24.66,0,48.48,8.91,67.09,25.08L360,250.55V360z"/>
	<path class="st1" d="M0,0l245.4,0c4.99,0,9.04,4.05,9.04,9.04s-4.05,9.04-9.04,9.04h-98.93c-4.9,0-8.88,3.97-8.88,8.88v0.33
		c0,4.9,3.97,8.88,8.88,8.88l98.93,0c4.99,0,9.04,4.05,9.04,9.04c0,4.99-4.05,9.04-9.04,9.04l-98.93,0c-4.9,0-8.88,3.97-8.88,8.88
		v0.33c0,4.9,3.97,8.88,8.88,8.88h98.93c4.99,0,9.04,4.05,9.04,9.04s-4.05,9.04-9.04,9.04h-98.93c-4.9,0-8.88,3.97-8.88,8.88v0.33
		c0,4.9,3.97,8.88,8.88,8.88l98.93,0c4.99,0,9.04,4.05,9.04,9.04c0,4.99-4.05,9.04-9.04,9.04l-130.97,0c-4.9,0-8.88,3.97-8.88,8.88
		v0.33c0,4.9,3.97,8.88,8.88,8.88l49.26,0c4.99,0,9.04,4.05,9.04,9.04c0,4.99-4.05,9.04-9.04,9.04H99.56
		c-24.66,0-48.48-8.91-67.09-25.08L0,109.45L0,0z"/>
</g>
</svg>
