<?xml version="1.0" encoding="utf-8"?>
<!-- Generator: Adobe Illustrator 28.0.0, SVG Export Plug-In . SVG Version: 6.00 Build 0)  -->
<svg version="1.1" id="Layer_1" xmlns="http://www.w3.org/2000/svg" xmlns:xlink="http://www.w3.org/1999/xlink" x="0px" y="0px"
	 viewBox="0 0 360 360" style="enable-background:new 0 0 360 360;" xml:space="preserve">
<style type="text/css">
	.st0{fill:#FF9E94;}
	.st1{fill:#143D4A;}
	.st2{fill:#FF3621;}
	.st3{fill:#FFFFFF;}
</style>
<g>
	<path class="st0" d="M40.53,0C18.15,0,0,18.22,0,40.7c0,0.01,0,0.02,0,0.03V319.3h40.53L40.53,0z"/>
	<path class="st1" d="M40.53,278.61C18.15,278.61,0,296.83,0,319.3C0,341.78,18.15,360,40.53,360H360v-81.39H40.53z"/>
	<rect x="40.53" class="st2" width="319.47" height="278.61"/>
	<polygon class="st3" points="103.71,26.35 103.71,87.98 228.99,87.98 103.6,213.89 146.99,257.47 272.39,131.55 272.39,257.36 
		333.76,257.36 333.76,26.35 	"/>
	<g>
		<rect x="40.53" y="295.16" class="st2" width="319.47" height="5.9"/>
		<rect x="40.53" y="316.35" class="st2" width="319.47" height="5.9"/>
		<rect x="40.53" y="337.55" class="st2" width="319.47" height="5.9"/>
	</g>
</g>
</svg>
