<?xml version="1.0" encoding="utf-8"?>
<!-- Generator: Adobe Illustrator 28.0.0, SVG Export Plug-In . SVG Version: 6.00 Build 0)  -->
<svg version="1.1" id="Layer_1" xmlns="http://www.w3.org/2000/svg" xmlns:xlink="http://www.w3.org/1999/xlink" x="0px" y="0px"
	 viewBox="0 0 360 360" style="enable-background:new 0 0 360 360;" xml:space="preserve">
<style type="text/css">
	.st0{fill:#FABFBA;}
	.st1{fill:#143D4A;}
	.st2{fill:#FF3621;}
	.st3{fill:#FF9E94;}
	.st4{fill:#FFFFFF;}
</style>
<g>
	<polygon class="st0" points="180,0 0,119.92 0,0 	"/>
	<polygon class="st1" points="360,119.92 180,0 360,0 	"/>
	<path class="st2" d="M180,0L0,119.92v196.83l0,0c21.14-26.36,53.59-43.25,90-43.25s68.86,16.89,90,43.25h180V119.92L180,0z"/>
	<path class="st3" d="M360,316.75C338.86,343.11,306.41,360,270,360c-36.41,0-68.86-16.89-90-43.25L360,316.75z"/>
	<g>
		<circle class="st1" cx="180" cy="128.81" r="22.7"/>
		<circle class="st4" cx="88.54" cy="128.81" r="22.7"/>
		<rect x="248.76" y="106.11" class="st3" width="45.41" height="45.41"/>
		<path class="st4" d="M155.03,244.6L180,199.19l24.97,45.41H155.03z"/>
		<rect x="65.83" y="199.19" class="st1" width="45.41" height="45.41"/>
		<circle class="st0" cx="271.46" cy="221.9" r="22.7"/>
	</g>
</g>
</svg>
