<svg width="16" height="16" viewBox="0 0 16 16" fill="none" xmlns="http://www.w3.org/2000/svg">
<path fill-rule="evenodd" clip-rule="evenodd" d="M9 2.75C9 2.33579 9.33579 2 9.75 2H15.25C15.6642 2 16 2.33579 16 2.75V6.25C16 6.66421 15.6642 7 15.25 7H9.75C9.35545 7 9.03205 6.69533 9.00224 6.30842L7.31066 8L9.00224 9.69158C9.03205 9.30467 9.35544 9 9.75 9H15.25C15.6642 9 16 9.33579 16 9.75V13.25C16 13.6642 15.6642 14 15.25 14H9.75C9.33579 14 9 13.6642 9 13.25V11.8107L6.99776 9.80842C6.96795 10.1953 6.64456 10.5 6.25 10.5H0.75C0.335786 10.5 0 10.1642 0 9.75V6.25C0 5.83579 0.335786 5.5 0.75 5.5H6.25C6.64456 5.5 6.96795 5.80467 6.99776 6.19158L9 4.18934V2.75ZM10.5 5.5H14.5V3.5H10.5V5.5ZM5.5 7H1.5V9H5.5V7ZM10.5 10.5V12.5H14.5V10.5H10.5Z" fill="#FF3621"/>
</svg>
