<svg width="16" height="16" viewBox="0 0 16 16" fill="none" xmlns="http://www.w3.org/2000/svg">
<path fill-rule="evenodd" clip-rule="evenodd" d="M4.5 2.75C4.5 2.33579 4.83579 2 5.25 2H10.75C11.1642 2 11.5 2.33579 11.5 2.75V6.25C11.5 6.66421 11.1642 7 10.75 7H10.1859L12.7573 9H15.25C15.6642 9 16 9.33579 16 9.75V13.25C16 13.6642 15.6642 14 15.25 14H9.75C9.33579 14 9 13.6642 9 13.25V9.75C9 9.33579 9.33579 9 9.75 9H10.3141L8 7.20015L5.6859 9H6.25C6.66421 9 7 9.33579 7 9.75V13.25C7 13.6642 6.66421 14 6.25 14H0.75C0.335786 14 0 13.6642 0 13.25V9.75C0 9.33579 0.335786 9 0.75 9H3.24267L5.8141 7H5.25C4.83579 7 4.5 6.66421 4.5 6.25V2.75ZM6 3.5V5.5H10V3.5H6ZM1.5 10.5V12.5H5.5V10.5H1.5ZM10.5 10.5V12.5H14.5V10.5H10.5Z" fill="#FF3621"/>
</svg>
