<svg width="16" height="16" viewBox="0 0 16 16" fill="none" xmlns="http://www.w3.org/2000/svg">
<path fill-rule="evenodd" clip-rule="evenodd" d="M15.776 11.5334L11.5334 15.776C11.3927 15.9167 11.202 15.9957 11.003 15.9957L4.99264 15.9957C4.79373 15.9957 4.60296 15.9167 4.46231 15.776L0.219669 11.5334C0.0790176 11.3927 -1.73895e-08 11.202 0 11.003L5.25447e-07 4.99264C5.42836e-07 4.79373 0.0790182 4.60296 0.219671 4.46231L4.46231 0.21967C4.60296 0.0790176 4.79373 -1.73895e-08 4.99264 0L11.003 2.4328e-06C11.202 1.49651e-06 11.3927 0.0790191 11.5334 0.219672L15.776 4.46231C15.9167 4.60296 15.9957 4.79373 15.9957 4.99264L15.9957 11.003C15.9957 11.202 15.9167 11.3927 15.776 11.5334ZM7.24784 10.7478C7.24784 11.1621 7.58363 11.4978 7.99784 11.4978C8.41205 11.4978 8.74784 11.1621 8.74784 10.7478C8.74784 10.3336 8.41205 9.99784 7.99784 9.99784C7.58363 9.99784 7.24784 10.3336 7.24784 10.7478ZM8.74784 4.99784L8.74784 8.99784H7.24784L7.24784 4.99784H8.74784Z" fill="#FF3621"/>
</svg>
