<svg width="3605" height="1574" viewBox="0 0 3605 1574" fill="none" xmlns="http://www.w3.org/2000/svg">
<path d="M380 722L737.668 928.5V1341.5L380 1548L22.3315 1341.5V928.5L380 722Z" fill="white"/>
<path d="M380.193 728.668L732.118 931.861V1338.21L380.193 1541.4L28.2681 1338.21V931.861L380.193 728.668ZM380.193 696L0 915.491V1354.51L380.193 1574L760.386 1354.51V915.491L380.193 696.035V696Z" fill="#1B3139"/>
<path d="M632.615 1082.3L379.771 1225L109.022 1072.53L96 1079.59V1190.28L379.771 1349.8L632.615 1207.64V1266.24L379.771 1408.94L109.022 1256.47L96 1263.52V1282.51L379.771 1442.03L663 1282.51V1171.83L649.978 1164.77L379.771 1316.7L126.385 1174.54V1115.94L379.771 1258.1L663 1098.58V989.52L648.893 981.381L379.771 1132.76L139.407 998.201L379.771 863.098L577.272 974.327L594.634 964.561V950.996L379.771 830L96 989.52V1006.88L379.771 1166.4L632.615 1023.7V1082.3Z" fill="#FF3621"/>
<path d="M1193.19 728.598L840.914 932.001V1033.7L1193.19 830.299L1545.47 1033.7V932.001L1193.19 728.598Z" fill="#759259"/>
<path d="M840.883 1033.7V1135.4L1193.16 932.002L1545.44 1135.4V1033.7L1193.16 830.3L840.883 1033.7Z" fill="#095A35"/>
<path d="M840.883 1135.4V1237.11L1193.16 1033.88L1545.44 1237.11V1135.4L1193.16 932.001L840.883 1135.4Z" fill="#759259"/>
<path d="M840.883 1237.07V1338.77L1193.16 1135.37L1545.44 1338.77V1237.07L1193.16 1033.84L840.883 1237.07Z" fill="#095A35"/>
<path d="M840.883 1338.77C840.883 1338.77 895.94 1370.56 928.961 1389.61L1193.2 1237.07L1457.43 1389.61L1545.51 1338.77L1193.23 1135.37L840.953 1338.77H840.883Z" fill="#759259"/>
<path d="M1193.19 1338.77L1369.35 1440.47L1457.43 1389.64L1193.19 1237.11L928.957 1389.64C961.978 1408.72 972.996 1415.06 1017.04 1440.47L1193.19 1338.77Z" fill="#095A35"/>
<path d="M1017.04 1440.47C1061.08 1465.89 1072.1 1472.26 1105.12 1491.31L1193.2 1440.47L1281.27 1491.31L1369.35 1440.47L1193.2 1338.77L1017.04 1440.47Z" fill="#759259"/>
<path d="M1281.27 1491.34L1193.19 1440.51L1105.11 1491.34C1138.13 1510.42 1193.19 1542.18 1193.19 1542.18L1281.27 1491.34Z" fill="#095A35"/>
<path d="M1193.2 728.598V830.299L1545.47 1033.7V932.001L1193.2 728.598Z" fill="#20366A"/>
<path d="M1193.2 932.002L1545.47 1135.4V1033.7L1193.2 830.3V932.002Z" fill="#4972A3"/>
<path d="M1193.2 1033.88L1545.47 1237.11V1135.4L1193.2 932.001V1033.88Z" fill="#20366A"/>
<path d="M1193.2 1135.4L1545.47 1338.81V1237.11L1193.2 1033.88V1135.4Z" fill="#4972A3"/>
<path d="M1193.2 1237.07L1457.39 1389.64L1545.47 1338.77L1193.2 1135.41V1237.07Z" fill="#20366A"/>
<path d="M1193.2 1338.77L1369.32 1440.47L1457.39 1389.64L1193.2 1237.07V1338.77Z" fill="#4972A3"/>
<path d="M1193.2 1440.47L1281.27 1491.34L1369.32 1440.47L1193.2 1338.77V1440.47Z" fill="#20366A"/>
<path d="M1281.27 1491.34L1193.2 1440.47V1542.18L1281.27 1491.34Z" fill="#4972A3"/>
<path d="M938.957 1132.17L1193.19 985.405L1447.43 1132.17V1030.5L1193.19 883.703L938.957 1030.5V1132.17Z" fill="#F6A71B"/>
<path d="M938.957 1233.87L1193.19 1087.11L1447.43 1233.87V1132.17L1193.19 985.405L938.957 1132.17V1233.87Z" fill="#F1DB0B"/>
<path d="M938.957 1233.87L1193.19 1087.11L1447.43 1233.87V1180.54L1193.19 1033.88L938.957 1180.54V1233.87Z" fill="#EE3F2B"/>
<path d="M938.957 1335.57L1193.19 1188.77L1447.43 1335.57V1233.87L1193.19 1087.11L938.957 1233.87V1335.57Z" fill="#F6A71B"/>
<path d="M1193.19 728.668L1545.12 931.861V1338.21L1193.19 1541.4L841.268 1338.21V931.861L1193.19 728.668ZM1193.19 696L813 915.491V1354.51L1193.19 1574L1573.39 1354.51V915.491L1193.19 696.035V696Z" fill="#1B3139"/>
<path d="M2006.2 696L1626 915.48V1354.48L2006.2 1574L2386.4 1354.48V915.48L2006.2 696ZM2358.99 931.32V1338.68L2006.2 1542.4L1653.41 1338.69V931.31L2006.2 727.6L2358.99 931.31V931.32Z" fill="#1B3139"/>
<path d="M2268.1 1286.21C2233.17 1346.69 2145.87 1376.94 2076.03 1255.97C2145.89 1376.94 2076.03 1437.42 2006.19 1437.42V1542.4L2358.98 1338.69L2268.1 1286.21Z" fill="#095A35"/>
<path d="M2145.89 1135C2285.56 1135 2303.03 1225.72 2268.1 1286.21L2358.98 1338.68V931.32L2268.1 983.79C2303.03 1044.27 2285.56 1135 2145.89 1135Z" fill="#3380AA"/>
<path d="M2006.2 832.58C2076.04 832.6 2145.87 893.08 2076.04 1014.03C2145.88 893.08 2233.18 923.3 2268.11 983.79L2358.99 931.32L2006.2 727.6V832.58Z" fill="#B0C2CB"/>
<path d="M1936.36 1014.03C1866.5 893.06 1936.36 832.58 2006.2 832.58V727.6L1653.41 931.31L1744.3 983.79C1779.23 923.31 1866.53 893.07 1936.37 1014.04L1936.36 1014.03Z" fill="#EC9B21"/>
<path d="M1744.29 1286.21C1709.36 1225.73 1726.83 1135 1866.52 1135C1726.83 1135 1709.36 1044.27 1744.29 983.791L1653.4 931.311V1338.69L1744.29 1286.21Z" fill="#5A4E66"/>
<path d="M1936.36 1255.97C1866.52 1376.94 1779.22 1346.7 1744.29 1286.22L1653.4 1338.7L2006.19 1542.41V1437.43C1936.35 1437.43 1866.5 1376.94 1936.35 1255.98L1936.36 1255.97Z" fill="black"/>
<path d="M2211.52 1016.5L2210.76 1016.95C2120.39 1069.89 2120.59 1200.83 2211.37 1253.46L2268.11 1286.22C2303.04 1225.74 2285.57 1135.01 2145.9 1135.01C2285.57 1135.01 2303.04 1044.29 2268.11 983.8L2209.83 1017.45C2210.39 1017.13 2210.96 1016.84 2211.52 1016.51V1016.5Z" fill="#7BC1DF"/>
<path d="M2006.23 898.82C2006.24 898.66 2006.24 898.5 2006.24 898.36C2006.57 1002.82 2118.99 1068.23 2209.83 1017.44L2268.11 983.79C2233.18 923.31 2145.88 893.08 2076.04 1014.03C2145.88 893.08 2076.04 832.6 2006.2 832.58V900C2006.2 899.6 2006.22 899.21 2006.23 898.82Z" fill="#E7E7E7"/>
<path d="M1936.36 1014.03C1866.52 893.06 1779.22 923.3 1744.29 983.78L1801.53 1016.83L1801.74 1016.95C1892.25 1068.41 2004.71 1003.83 2006.19 899.99V832.57C1936.35 832.57 1866.5 893.05 1936.35 1014.02L1936.36 1014.03Z" fill="#EDDD77"/>
<path d="M1801.25 1016.68L1801.54 1016.84L1744.3 983.79C1709.37 1044.27 1726.84 1135 1866.53 1135C1726.84 1135 1709.37 1225.73 1744.3 1286.21L1802.34 1252.7C1892.02 1199.51 1891.66 1069.23 1801.25 1016.68Z" fill="#CE7280"/>
<path d="M1801.7 1253.12L1801.4 1253.29C1801.23 1253.37 1801.06 1253.47 1800.88 1253.58C1801.37 1253.29 1801.85 1252.99 1802.34 1252.7L1744.3 1286.21C1779.23 1346.69 1866.53 1376.93 1936.37 1255.96C1866.51 1376.93 1936.37 1437.41 2006.21 1437.41V1369.79C2004.53 1266.08 1892.15 1201.64 1801.71 1253.11L1801.7 1253.12Z" fill="#595959"/>
<path d="M2211.47 1253.51L2210.86 1253.17C2210.86 1253.17 2210.83 1253.16 2210.81 1253.15L2210.8 1253.14C2119.81 1201.35 2006.6 1266.85 2006.24 1371.64C2006.24 1371.02 2006.21 1370.42 2006.2 1369.8V1437.42C2076.04 1437.42 2145.89 1376.94 2076.04 1255.97C2145.88 1376.94 2233.18 1346.7 2268.11 1286.21L2211.37 1253.45C2211.37 1253.45 2211.44 1253.49 2211.47 1253.51Z" fill="#3BAF7D"/>
<path d="M1890.49 1068.19C1941.92 1097.89 2006.19 1060.77 2006.19 1001.39C2006.19 1002.23 2006.21 1003.06 2006.23 1003.88V898.35C2006.23 898.49 2006.23 898.65 2006.22 898.81C2006.22 899.21 2006.2 899.6 2006.19 899.99C2004.71 1003.83 1892.25 1068.41 1801.74 1016.95L1890.61 1068.26C1890.61 1068.26 1890.53 1068.21 1890.48 1068.18L1890.49 1068.19Z" fill="#EDE7C0"/>
<path d="M2210.81 1253.15C2210.81 1253.15 2210.85 1253.16 2210.86 1253.17L2210.81 1253.14V1253.15Z" fill="#F4F4F4"/>
<path d="M2121.91 1068.19C2121.16 1068.62 2120.43 1069.06 2119.71 1069.51L2210.76 1016.94L2211.52 1016.49C2210.96 1016.81 2210.39 1017.11 2209.83 1017.43C2118.99 1068.22 2006.57 1002.81 2006.24 898.35V1003.88C2008.01 1061.79 2071.21 1097.46 2121.91 1068.18V1068.19Z" fill="#F1F1F1"/>
<path d="M2121.91 1201.8C2121.73 1201.7 2121.56 1201.61 2121.38 1201.51L2210.8 1253.14H2210.81L2210.86 1253.17L2211.47 1253.51C2211.47 1253.51 2211.4 1253.47 2211.37 1253.45C2120.59 1200.82 2120.39 1069.89 2210.76 1016.94L2119.71 1069.51C2070.5 1100.03 2071.23 1172.54 2121.91 1201.8Z" fill="#A2D1E5"/>
<path d="M2006.2 1268.61C2006.2 1210.08 1943.76 1173.19 1892.72 1200.57L1801.71 1253.12C1892.15 1201.65 2004.53 1266.09 2006.21 1369.8C2006.21 1370.41 2006.25 1371.02 2006.25 1371.64V1266.11C2006.22 1266.94 2006.21 1267.77 2006.21 1268.6L2006.2 1268.61Z" fill="#7D7D7D"/>
<path d="M1802.34 1252.7C1801.85 1252.99 1801.37 1253.29 1800.88 1253.58C1801.06 1253.47 1801.23 1253.38 1801.4 1253.29L1801.7 1253.12L1892.71 1200.57C1891.97 1200.97 1891.23 1201.38 1890.49 1201.8C1941.88 1172.14 1941.92 1098.01 1890.62 1068.27L1801.75 1016.96L1801.54 1016.84L1801.25 1016.68C1891.66 1069.23 1892.02 1199.51 1802.34 1252.7Z" fill="#CE8E97"/>
<path d="M2006.24 1266.11V1371.64C2006.6 1266.85 2119.81 1201.35 2210.8 1253.14L2121.38 1201.51C2070.76 1172.79 2008 1208.39 2006.24 1266.12V1266.11Z" fill="#86C1A7"/>
<path d="M2006.2 1268.61C2006.2 1267.77 2006.22 1266.94 2006.24 1266.12C2008 1208.4 2070.77 1172.79 2121.38 1201.51C2121.56 1201.61 2121.73 1201.7 2121.91 1201.8C2071.23 1172.54 2070.49 1100.03 2119.71 1069.51C2120.43 1069.06 2121.17 1068.62 2121.91 1068.19C2071.2 1097.47 2008.01 1061.8 2006.24 1003.89C2006.21 1003.06 2006.2 1002.23 2006.2 1001.4C2006.2 1060.78 1941.93 1097.89 1890.5 1068.2C1890.54 1068.22 1890.58 1068.25 1890.63 1068.28C1941.93 1098.03 1941.89 1172.15 1890.5 1201.81C1891.24 1201.38 1891.98 1200.98 1892.72 1200.58C1943.76 1173.2 2006.2 1210.08 2006.2 1268.62V1268.61Z" fill="white"/>
<path d="M3199.39 1354.48V915.482L2819.19 696L2439 915.482V1354.48L2819.19 1574L3199.39 1354.48Z" fill="#1B3139"/>
<mask id="mask0_4397_310" style="mask-type:luminance" maskUnits="userSpaceOnUse" x="2467" y="728" width="705" height="814">
<path d="M3171.36 1338.28V931.68L2819.19 728.36L2467.06 931.68V1338.28L2819.19 1541.6L3171.36 1338.28Z" fill="white"/>
</mask>
<g mask="url(#mask0_4397_310)">
<path d="M2533.97 680.999H2463.16V1570.51H2533.97V680.999Z" fill="#AA3F24"/>
<path d="M2604.78 680.999H2533.97V1570.51H2604.78V680.999Z" fill="#E67043"/>
<path d="M2675.63 680.999H2604.82V1570.51H2675.63V680.999Z" fill="#EBA24B"/>
<path d="M2746.45 680.999H2675.63V1570.51H2746.45V680.999Z" fill="#F3CA81"/>
<path d="M2817.26 680.999H2746.45V1570.51H2817.26V680.999Z" fill="#EEB64D"/>
<path d="M2888.07 680.999H2817.26V1570.51H2888.07V680.999Z" fill="#E98D48"/>
<path d="M2958.88 680.999H2888.07V1570.51H2958.88V680.999Z" fill="#885A47"/>
<path d="M3029.7 680.999H2958.88V1570.51H3029.7V680.999Z" fill="#6B4737"/>
<path d="M3100.51 680.999H3029.7V1570.51H3100.51V680.999Z" fill="#BFA584"/>
<path d="M3171.32 680.999H3100.51V1570.51H3171.32V680.999Z" fill="#261B1A"/>
<mask id="mask1_4397_310" style="mask-type:luminance" maskUnits="userSpaceOnUse" x="2678" y="435" width="626" height="1096">
<path d="M2861.41 476.693C2861.41 476.693 2773.84 598.988 2786.09 716.74C2798.38 834.492 2801.97 896.925 2788.7 921.926C2775.42 946.927 2749.4 988.584 2739.08 998.267C2728.73 1007.95 2683.62 1043.34 2678.59 1067.78C2675.6 1082.29 2687.04 1131.41 2739.05 1147.75C2739.05 1147.75 2728.91 1183.98 2708.03 1201.69C2687.14 1219.4 2701.93 1255.64 2705.07 1266.84C2708.2 1278.03 2750 1292.4 2750 1292.4C2750 1292.4 2718.87 1308.18 2720.49 1332.86C2722.11 1357.55 2732.01 1381.84 2752.29 1384.62C2752.29 1384.62 2775.53 1372.05 2786.06 1413.82C2791.02 1433.57 2784.51 1477.13 2820.07 1507.27C2855.64 1537.41 2895.46 1537.1 2990.43 1514.49C3085.4 1491.88 3160.9 1460.26 3160.9 1460.26C3160.9 1460.26 3263.16 1365.79 3303.51 1406.91L3174.21 435.071L2861.38 476.693H2861.41Z" fill="white"/>
</mask>
<g mask="url(#mask1_4397_310)">
<path d="M3100.55 1570.51H3186.01V680.999H3100.55V1570.51Z" fill="#261B1A"/>
<path d="M3029.73 1570.51H3100.55V680.999H3029.73V1570.51Z" fill="#3B1A42"/>
<path d="M2958.92 1570.51H3029.73V680.999H2958.92V1570.51Z" fill="#692365"/>
<path d="M2888.07 1570.51H2958.89V680.999H2888.07V1570.51Z" fill="#6B4737"/>
<path d="M2817.26 1570.51H2888.07V680.999H2817.26V1570.51Z" fill="#885A47"/>
<path d="M2746.44 1570.51H2817.26V680.999H2746.44V1570.51Z" fill="#4F261C"/>
<path d="M2675.63 1570.51H2746.45V680.999H2675.63V1570.51Z" fill="#371D17"/>
</g>
</g>
<mask id="mask2_4397_310" style="mask-type:luminance" maskUnits="userSpaceOnUse" x="2039" y="4" width="753" height="870">
<path d="M2791.16 656.053L2415.19 873.105L2039.26 656.053V221.947L2415.19 4.89453L2791.16 221.947V656.053Z" fill="white"/>
</mask>
<g mask="url(#mask2_4397_310)">
<path d="M1949.11 807.885L2248.11 -275.396L2199.7 -288.755L1900.71 794.526L1949.11 807.885Z" fill="#E3F4FC"/>
<path d="M1997.56 821.252L2296.55 -262.029L2248.15 -275.389L1949.16 807.892L1997.56 821.252Z" fill="#DAD3E8"/>
<path d="M2045.93 834.61L2344.93 -248.671L2296.53 -262.031L1997.53 821.25L2045.93 834.61Z" fill="#E3F4FC"/>
<path d="M2094.38 847.978L2393.38 -235.303L2344.98 -248.663L2045.98 834.618L2094.38 847.978Z" fill="#DAD3E8"/>
<path d="M2142.8 861.335L2441.79 -221.946L2393.39 -235.306L2094.39 847.975L2142.8 861.335Z" fill="#E3F4FC"/>
<path d="M2191.24 874.702L2490.24 -208.579L2441.83 -221.939L2142.84 861.342L2191.24 874.702Z" fill="#DAD3E8"/>
<path d="M2239.62 888.094L2538.62 -195.187L2490.21 -208.546L2191.22 874.735L2239.62 888.094Z" fill="#E3F4FC"/>
<path d="M2288.04 901.453L2587.03 -181.828L2538.63 -195.188L2239.63 888.093L2288.04 901.453Z" fill="#DAD3E8"/>
<path d="M2336.48 914.818L2635.48 -168.463L2587.07 -181.823L2288.08 901.458L2336.48 914.818Z" fill="#E3F4FC"/>
<path d="M2384.89 928.177L2683.89 -155.104L2635.49 -168.464L2336.49 914.817L2384.89 928.177Z" fill="#DAD3E8"/>
<path d="M2433.31 941.543L2732.3 -141.738L2683.9 -155.098L2384.9 928.183L2433.31 941.543Z" fill="#E3F4FC"/>
<path d="M2481.72 954.935L2780.71 -128.346L2732.31 -141.706L2433.32 941.575L2481.72 954.935Z" fill="#DAD3E8"/>
<path d="M2530.16 968.303L2829.16 -114.978L2780.76 -128.337L2481.76 954.944L2530.16 968.303Z" fill="#E3F4FC"/>
<path d="M2578.58 981.66L2877.57 -101.621L2829.17 -114.981L2530.17 968.3L2578.58 981.66Z" fill="#DAD3E8"/>
<path d="M2626.96 995.018L2925.95 -88.2627L2877.55 -101.623L2578.55 981.658L2626.96 995.018Z" fill="#E3F4FC"/>
<path d="M2675.4 1008.38L2974.4 -74.8965L2925.99 -88.2564L2627 995.025L2675.4 1008.38Z" fill="#DAD3E8"/>
<path d="M2519.42 440.971L2571.43 629.466L2623.55 440.654L2571.4 252.054L2519.42 440.971Z" fill="#7E2265"/>
<path d="M2415.19 440.654L2363.04 252.054L2311.06 440.584L2363 629.466L2415.19 440.654Z" fill="#7E2265"/>
<path d="M2415.22 440.971L2467.27 629.466H2571.46L2467.2 252.054H2363.04L2415.22 440.971Z" fill="#F17998"/>
<path d="M2362.97 629.466L2258.84 252.054H2154.61L2258.81 629.466H2362.97Z" fill="#F17998"/>
<path d="M2623.54 440.584L2571.54 252.054H2675.7L2623.54 440.584Z" fill="#F17998"/>
<path d="M2545.48 346.706L2597.52 535.201L2623.54 440.654L2571.39 252.054L2545.48 346.706Z" fill="#332059"/>
<path d="M2415.19 440.654L2363.04 252.054L2337.16 346.319L2389.1 535.201L2415.19 440.654Z" fill="#332059"/>
</g>
<path d="M2415.19 0L2035 219.518V658.518L2415.19 878L2795.39 658.518V219.518L2415.19 0ZM2767.32 642.32L2415.19 845.639L2063.06 642.32V235.68L2415.19 32.3607L2767.32 235.68V642.32Z" fill="#1B3139"/>
<path d="M3604.39 658.482V219.482L3224.19 0L2844 219.482V658.482L3224.19 878L3604.39 658.482Z" fill="#1B3139"/>
<mask id="mask3_4397_310" style="mask-type:luminance" maskUnits="userSpaceOnUse" x="2872" y="32" width="705" height="814">
<path d="M3576.36 642.284V235.68L3224.19 32.3604L2872.06 235.68V642.284L3224.19 845.604L3576.36 642.284Z" fill="white"/>
</mask>
<g mask="url(#mask3_4397_310)">
<path d="M3128.09 196.452L3472.09 167.613L3224.12 22.2188L3054.71 114.371C3051.89 115.92 3051.33 119.723 3053.62 121.977L3128.09 196.452Z" fill="#D02027"/>
<path d="M3125.98 681.476L3046.15 760.036L3223.56 855.991L3474.98 710.35L3125.98 681.476Z" fill="#742A85"/>
<path d="M3262.89 545.766L3125.98 681.441C3115.28 692.075 3122.78 710.351 3137.88 710.351H3475.01L3594.84 641.615V574.675L3262.89 545.766Z" fill="#2B348B"/>
<path d="M3358.14 439C3358.14 446.676 3355.15 454.353 3349.27 460.198L3262.89 545.801C3252.19 556.435 3259.69 574.711 3274.79 574.711H3594.84V439.035H3358.14V439Z" fill="#30B34A"/>
<path d="M3472.13 167.613H3140.07C3125.03 167.613 3117.5 185.818 3128.13 196.453L3263.81 332.128L3594.84 303.289V236.279L3472.13 167.613Z" fill="#ED9C21"/>
<path d="M3275.74 303.324C3260.71 303.324 3253.17 321.529 3263.81 332.164L3349.37 417.731C3355.25 423.612 3358.18 431.323 3358.14 439.035H3594.84V303.359H3275.74V303.324Z" fill="#F2E900"/>
<path d="M3048.76 117.118L2861 225.539L2870.02 643.482L3046.15 760.036L3349.27 460.198C3361.06 448.507 3361.1 429.457 3340.32 408.681L3048.76 117.118Z" fill="black"/>
<path d="M2983.79 154.62L2860.97 225.539L2861.04 649.926L2982.28 721.619L3246.76 460.198C3258.56 448.507 3258.59 429.457 3237.85 408.682L2983.79 154.62Z" fill="#603918"/>
<path d="M2861.08 649.925L2920.66 681.476L3144.36 460.198C3156.16 448.507 3156.2 429.457 3144.47 417.696L2921.5 194.727C2919.95 193.178 2917.59 192.861 2915.69 193.953L2863.47 224.095C2861.96 224.975 2861.04 226.595 2861.08 228.356V649.89V649.925Z" fill="#79CFE7"/>
<path d="M2861 235.575L2861.07 640.7L3051.51 450.691C3058.02 444.247 3058.06 433.719 3051.54 427.239L2861 235.575Z" fill="#F6ADC5"/>
<path d="M2863.36 339.312L2861.04 539.603L2949 450.69C2955.52 444.246 2955.55 433.717 2949.04 427.238L2863.33 339.312H2863.36Z" fill="white"/>
</g>
<path d="M1981.39 658.482V219.482L1601.19 0L1221 219.482V658.482L1601.19 878L1981.39 658.482Z" fill="#1B3139"/>
<mask id="mask4_4397_310" style="mask-type:luminance" maskUnits="userSpaceOnUse" x="1249" y="32" width="705" height="814">
<path d="M1953.36 642.285V235.681L1601.19 32.3613L1249.06 235.681V642.285L1601.19 845.605L1953.36 642.285Z" fill="white"/>
</mask>
<g mask="url(#mask4_4397_310)">
<path d="M1126.91 97.1875V21.3035H2054.88V97.1875H1126.91Z" fill="#C83027"/>
<path d="M1126.88 173.071V97.1873H2054.84V173.071H1126.88Z" fill="#E38839"/>
<path d="M1126.88 248.955V173.071H2054.84V248.955H1126.88Z" fill="#EEB64D"/>
<path d="M1126.88 324.839V248.955H2054.84V324.839H1126.88Z" fill="#FFF100"/>
<path d="M2054.84 362.798V347.833V324.839H1590.88H1126.88V347.833V370.827V400.723H2054.84V362.798Z" fill="#AFD136"/>
<path d="M2054.84 400.724V419.703V438.683H1590.88H1126.88V419.703V400.724H1590.88H2054.84Z" fill="#315E32"/>
<path d="M1126.88 438.683H2054.84V476.642H1126.88V438.683Z" fill="#23161A"/>
<path d="M2054.84 476.607V495.587V514.567H1590.88H1126.88V495.587V476.607H1590.88H2054.84Z" fill="#CD519C"/>
<path d="M1126.88 514.566H2054.84V552.526H1126.88V514.566Z" fill="#C3178C"/>
<path d="M2054.84 552.491V571.471V590.451H1590.88H1126.88V571.471V552.491H1590.88H2054.84Z" fill="#A2238D"/>
<path d="M1126.88 590.45H2054.84V628.41H1126.88V590.45Z" fill="#23161A"/>
<path d="M1126.91 704.294V628.41H2054.88V704.294H1126.91Z" fill="#5287C6"/>
<path d="M1126.88 780.178V704.294H2054.84V780.178H1126.88Z" fill="#4472B7"/>
<path d="M1126.88 856.062V780.178H2054.84V856.062H1126.88Z" fill="#21386D"/>
<path d="M1126.88 704.294H2054.84V742.254H1126.88V704.294Z" fill="#23161A"/>
<path d="M1231.35 628.41H1278.68V704.294H1231.35V628.41Z" fill="#6EC7DB"/>
<path d="M1278.68 628.41H1316.64V704.294H1278.68V628.41Z" fill="#4395A8"/>
<path d="M1316.6 628.41H1354.56V704.294H1316.6V628.41Z" fill="#316C81"/>
<path d="M1354.56 628.41H1392.52V704.294H1354.56V628.41Z" fill="#6EC7DB"/>
<path d="M1392.49 628.41H1430.45V704.294H1392.49V628.41Z" fill="#4395A8"/>
<path d="M1430.45 628.41H1468.4V704.294H1430.45V628.41Z" fill="#316C81"/>
<path d="M1468.37 628.41H1506.33V704.294H1468.37V628.41Z" fill="#6EC7DB"/>
<path d="M1506.33 628.41H1544.29V704.294H1506.33V628.41Z" fill="#4395A8"/>
<path d="M1544.25 628.41H1582.21V704.294H1544.25V628.41Z" fill="#316C81"/>
<path d="M1582.21 628.41H1620.17V704.294H1582.21V628.41Z" fill="#6EC7DB"/>
<path d="M1620.17 628.41H1658.13V704.294H1620.17V628.41Z" fill="#4395A8"/>
<path d="M1658.1 628.41H1696.06V704.294H1658.1V628.41Z" fill="#316C81"/>
<path d="M1696.06 628.41H1734.02V704.294H1696.06V628.41Z" fill="#6EC7DB"/>
<path d="M1733.98 628.41H1771.94V704.294H1733.98V628.41Z" fill="#4395A8"/>
<path d="M1771.94 628.41H1809.9V704.294H1771.94V628.41Z" fill="#316C81"/>
<path d="M1809.87 628.41H1847.83V704.294H1809.87V628.41Z" fill="#6EC7DB"/>
<path d="M1847.83 628.41H1885.79V704.294H1847.83V628.41Z" fill="#4395A8"/>
<path d="M1885.79 628.41H1923.74V704.294H1885.79V628.41Z" fill="#316C81"/>
<path d="M1923.71 628.41H1970.47V704.294H1923.71V628.41Z" fill="#6EC7DB"/>
</g>
<path d="M1151.58 650.553V227.483L785.191 15.9473L418.797 227.483V650.553L785.191 862.053L1151.58 650.553Z" fill="white"/>
<mask id="mask5_4397_310" style="mask-type:luminance" maskUnits="userSpaceOnUse" x="415" y="11" width="741" height="856">
<path d="M415.07 225.3V652.7L785.196 866.383L1155.29 652.7V225.3L785.196 11.6172L415.07 225.3Z" fill="white"/>
</mask>
<g mask="url(#mask5_4397_310)">
<path d="M785.195 96.0693C785.195 96.0693 794.383 139.404 813.886 164.997C833.705 191.047 845.357 224.314 842.576 254.941C839.795 285.568 785.23 302.078 785.23 302.078C785.23 302.078 730.666 285.568 727.885 254.941C725.104 224.314 738.023 191.998 756.575 164.997C775.479 137.468 785.266 96.0693 785.266 96.0693H785.195Z" fill="#EA2136"/>
<path d="M675.19 691.6C675.19 691.6 605.171 763.836 513.537 726.803C421.904 689.769 371.106 673.611 361.143 673.611C361.143 673.611 351.181 600.494 475.448 555.856C475.448 555.856 538.813 609.154 699.656 602.993C699.656 602.993 661.778 634.571 675.19 691.6Z" fill="#883A32"/>
<path d="M518.18 198.863C523.742 237.164 518.25 332.036 557.783 384.066C597.316 436.096 670.468 415.08 670.468 415.08C670.468 415.08 703.489 321.158 675.185 275.429C646.882 229.7 572.428 193.899 518.18 198.827V198.863Z" fill="#EA2136"/>
<path d="M686.523 606.655C686.523 606.655 554.371 620.419 475.445 555.857C396.52 491.294 349.348 383.045 278.59 402.019C278.59 402.019 293.094 353.439 366.598 340.308C403.772 333.655 489.949 378.292 489.949 378.292C489.949 378.292 512.62 478.938 573.416 535.932C634.176 592.89 686.523 606.655 686.523 606.655Z" fill="#C92B32"/>
<path d="M686.523 606.655C686.523 606.655 634.211 592.891 573.415 535.932C512.655 478.973 489.949 378.293 489.949 378.293C484.492 351.714 489.949 339.64 489.949 339.64C489.949 339.64 552.54 394.451 606.048 398.253C606.048 398.253 754.746 501.891 686.487 606.69L686.523 606.655Z" fill="#F05A2B"/>
<path d="M895.172 691.6C895.172 691.6 965.191 763.836 1056.82 726.803C1148.46 689.769 1199.26 673.611 1209.22 673.611C1209.22 673.611 1219.18 600.494 1094.91 555.856C1094.91 555.856 1038.31 609.506 877.465 603.345C877.465 603.345 908.584 634.571 895.172 691.6Z" fill="#883A32"/>
<path d="M1052.21 198.863C1046.65 237.164 1052.14 332.036 1012.61 384.066C973.078 436.096 899.926 415.08 899.926 415.08C899.926 415.08 866.906 321.158 895.209 275.429C923.512 229.7 997.967 193.899 1052.21 198.827V198.863Z" fill="#EA2136"/>
<path d="M883.871 606.655C883.871 606.655 1016.02 620.419 1094.95 555.857C1173.87 491.294 1221.05 383.045 1291.8 402.019C1291.8 402.019 1277.3 353.439 1203.8 340.308C1166.62 333.655 1080.45 378.292 1080.45 378.292C1080.45 378.292 1057.77 478.938 996.979 535.932C936.218 592.89 883.871 606.655 883.871 606.655Z" fill="#C92B32"/>
<path d="M883.871 606.655C883.871 606.655 936.182 592.891 996.978 535.932C1057.74 478.973 1080.44 378.293 1080.44 378.293C1085.9 351.714 1080.44 339.64 1080.44 339.64C1080.44 339.64 1017.85 394.451 964.345 398.253C964.345 398.253 837.579 528.856 883.906 606.69L883.871 606.655Z" fill="#F05A2B"/>
<path d="M706.481 179.923C706.481 179.923 671.56 258.707 675.186 302.113C678.812 345.518 712.325 370.019 712.325 370.019C712.325 370.019 756.857 304.295 758.969 278.491C761.081 252.688 706.481 179.958 706.481 179.958V179.923Z" fill="#F38035"/>
<path d="M597.319 266.805C597.319 290.285 586.618 385.369 633.297 473.13C633.297 473.13 664.804 486.19 696.486 501.328C696.486 501.328 690.96 400.576 712.328 359.741C712.328 359.741 681.772 314.998 654.313 302.641C626.855 290.285 597.355 266.805 597.355 266.805H597.319Z" fill="#F8BD5E"/>
<path d="M785.196 623.305C830.221 623.305 883.87 606.689 883.87 606.689C936.71 686.319 847.294 786.648 785.196 830.088C723.098 786.648 633.682 686.319 686.522 606.689C686.522 606.689 740.171 623.305 785.196 623.305Z" fill="#EA2136"/>
<path d="M863.876 179.923C863.876 179.923 898.797 258.707 895.171 302.113C891.545 345.518 858.032 370.019 858.032 370.019C858.032 370.019 813.5 304.295 811.388 278.491C809.276 252.688 863.876 179.958 863.876 179.958V179.923Z" fill="#F38035"/>
<path d="M785.198 239.628C805.439 270.536 871.551 359.494 873.909 415.115C876.268 470.736 873.909 501.363 873.909 501.363C873.909 501.363 785.198 544.839 785.198 623.306C785.198 544.803 696.486 501.363 696.486 501.363C696.486 501.363 694.127 470.736 696.486 415.115C698.844 359.494 764.956 270.536 785.198 239.628Z" fill="#FDFADC"/>
<path d="M973.075 266.805C973.075 290.285 983.777 385.369 937.097 473.13C937.097 473.13 905.591 486.19 873.908 501.328C873.908 501.328 879.435 400.576 858.066 359.741C858.066 359.741 888.623 314.998 916.081 302.641C943.54 290.285 973.04 266.805 973.04 266.805H973.075Z" fill="#F8BD5E"/>
<path d="M785.199 415.115C798.365 433.667 838.355 458.591 842.544 520.9C842.544 520.9 786.607 560.61 785.199 623.306C777.384 558.075 726.938 522.52 726.938 522.52C731.162 460.246 772.033 433.632 785.199 415.115Z" fill="#FCF072"/>
<path d="M937.097 473.165C937.097 473.165 968.85 458.063 983.354 434.336C983.354 434.336 993 530.229 883.87 606.69C883.87 606.69 836.487 623.306 785.196 623.306C785.196 623.306 783.788 566.347 831.875 528.821C879.962 491.33 924.811 480.1 937.097 473.165Z" fill="#F38035"/>
<path d="M633.295 473.165C633.295 473.165 601.542 458.063 587.038 434.336C587.038 434.336 577.392 530.229 686.522 606.69C686.522 606.69 733.905 623.306 785.196 623.306C785.196 623.306 786.604 566.347 738.517 528.821C690.429 491.33 645.581 480.1 633.295 473.165Z" fill="#F38035"/>
</g>
<path d="M785.193 31.718L1137.89 235.368V642.632L785.193 846.282L432.494 642.632V235.368L785.193 31.718ZM785.193 0L405 219.491V658.509L785.193 878L1165.39 658.509V219.491L785.193 0Z" fill="#1B3139"/>
</svg>
