<svg width="16" height="16" viewBox="0 0 16 16" fill="none" xmlns="http://www.w3.org/2000/svg">
<g clip-path="url(#clip0_2246_2596)">
<path d="M6.00018 5.25C5.58597 5.25 5.25018 5.58579 5.25018 6C5.25018 6.41421 5.58597 6.75 6.00018 6.75H6.00685C6.42106 6.75 6.75685 6.41421 6.75685 6C6.75685 5.58579 6.42106 5.25 6.00685 5.25H6.00018Z" fill="#FF3621"/>
<path d="M9.25018 6C9.25018 5.58579 9.58597 5.25 10.0002 5.25H10.0069C10.4211 5.25 10.7569 5.58579 10.7569 6C10.7569 6.41421 10.4211 6.75 10.0069 6.75H10.0002C9.58597 6.75 9.25018 6.41421 9.25018 6Z" fill="#FF3621"/>
<path d="M10.0694 11.1203C10.3186 11.4488 10.7866 11.5146 11.1169 11.2669C11.4483 11.0184 11.5154 10.5483 11.2669 10.2169L11.2661 10.2159L11.2653 10.2148L11.2633 10.2122L11.2582 10.2055L11.2433 10.1864C11.2313 10.1713 11.2152 10.1515 11.1951 10.1275C11.155 10.0797 11.0984 10.0152 11.0261 9.93969C10.882 9.78934 10.6717 9.59157 10.3997 9.39373C9.85852 9.00016 9.0402 8.58361 8.00022 8.58361C6.96024 8.58361 6.14192 9.00016 5.60076 9.39373C5.32873 9.59157 5.11844 9.78934 4.97435 9.93968C4.902 10.0152 4.84546 10.0797 4.8053 10.1275C4.78519 10.1515 4.76912 10.1713 4.75716 10.1864L4.74227 10.2055L4.73714 10.2122L4.73515 10.2148L4.7343 10.2159L4.70416 10.259L4.73355 10.2169C4.48503 10.5483 4.55218 11.0184 4.88355 11.2669C5.21477 11.5154 5.6846 11.4484 5.93321 11.1174C5.93671 11.113 5.94376 11.1043 5.95426 11.0918C5.9753 11.0667 6.00989 11.027 6.05734 10.9775C6.15284 10.8779 6.29671 10.7423 6.48302 10.6068C6.85852 10.3337 7.37354 10.0836 8.00022 10.0836C8.62691 10.0836 9.14192 10.3337 9.51742 10.6068C9.70373 10.7423 9.8476 10.8779 9.9431 10.9775C9.99055 11.027 10.0251 11.0667 10.0462 11.0918C10.0567 11.1043 10.0637 11.1131 10.0672 11.1175L10.0694 11.1203Z" fill="#FF3621"/>
<path fill-rule="evenodd" clip-rule="evenodd" d="M8.00016 0.583496C3.90405 0.583496 0.583496 3.90405 0.583496 8.00016C0.583496 12.0963 3.90405 15.4168 8.00016 15.4168C12.0963 15.4168 15.4168 12.0963 15.4168 8.00016C15.4168 3.90405 12.0963 0.583496 8.00016 0.583496ZM2.0835 8.00016C2.0835 4.73248 4.73248 2.0835 8.00016 2.0835C11.2678 2.0835 13.9168 4.73248 13.9168 8.00016C13.9168 11.2678 11.2678 13.9168 8.00016 13.9168C4.73248 13.9168 2.0835 11.2678 2.0835 8.00016Z" fill="#FF3621"/>
</g>
<defs>
<clipPath id="clip0_2246_2596">
<rect width="16" height="16" fill="white"/>
</clipPath>
</defs>
</svg>
