<svg width="16" height="16" viewBox="0 0 16 16" fill="none" xmlns="http://www.w3.org/2000/svg">
<g clip-path="url(#clip0_2246_2593)">
<path fill-rule="evenodd" clip-rule="evenodd" d="M8.00016 2.08337C4.73248 2.08337 2.0835 4.73236 2.0835 8.00004C2.0835 11.2677 4.73248 13.9167 8.00016 13.9167C11.2678 13.9167 13.9168 11.2677 13.9168 8.00004C13.9168 4.73236 11.2678 2.08337 8.00016 2.08337ZM0.583496 8.00004C0.583496 3.90393 3.90405 0.583374 8.00016 0.583374C12.0963 0.583374 15.4168 3.90393 15.4168 8.00004C15.4168 12.0962 12.0963 15.4167 8.00016 15.4167C3.90405 15.4167 0.583496 12.0962 0.583496 8.00004Z" fill="#FF3621"/>
<path fill-rule="evenodd" clip-rule="evenodd" d="M4.5835 10C4.5835 9.58583 4.91928 9.25004 5.3335 9.25004H10.6668C11.081 9.25004 11.4168 9.58583 11.4168 10C11.4168 10.4143 11.081 10.75 10.6668 10.75H5.3335C4.91928 10.75 4.5835 10.4143 4.5835 10Z" fill="#FF3621"/>
<path fill-rule="evenodd" clip-rule="evenodd" d="M5.25016 6.00004C5.25016 5.58583 5.58595 5.25004 6.00016 5.25004H6.00683C6.42104 5.25004 6.75683 5.58583 6.75683 6.00004C6.75683 6.41425 6.42104 6.75004 6.00683 6.75004H6.00016C5.58595 6.75004 5.25016 6.41425 5.25016 6.00004Z" fill="#FF3621"/>
<path fill-rule="evenodd" clip-rule="evenodd" d="M9.25016 6.00004C9.25016 5.58583 9.58595 5.25004 10.0002 5.25004H10.0068C10.421 5.25004 10.7568 5.58583 10.7568 6.00004C10.7568 6.41425 10.421 6.75004 10.0068 6.75004H10.0002C9.58595 6.75004 9.25016 6.41425 9.25016 6.00004Z" fill="#FF3621"/>
</g>
<defs>
<clipPath id="clip0_2246_2593">
<rect width="16" height="16" fill="white"/>
</clipPath>
</defs>
</svg>
