<svg width="16" height="16" viewBox="0 0 16 16" fill="none" xmlns="http://www.w3.org/2000/svg">
<g clip-path="url(#clip0_2246_2590)">
<path fill-rule="evenodd" clip-rule="evenodd" d="M8.00016 2.08337C4.73248 2.08337 2.0835 4.73236 2.0835 8.00004C2.0835 11.2677 4.73248 13.9167 8.00016 13.9167C11.2678 13.9167 13.9168 11.2677 13.9168 8.00004C13.9168 4.73236 11.2678 2.08337 8.00016 2.08337ZM0.583496 8.00004C0.583496 3.90393 3.90405 0.583374 8.00016 0.583374C12.0963 0.583374 15.4168 3.90393 15.4168 8.00004C15.4168 12.0962 12.0963 15.4167 8.00016 15.4167C3.90405 15.4167 0.583496 12.0962 0.583496 8.00004Z" fill="#FF3621"/>
<path d="M4.8835 8.73337C5.21374 8.48569 5.68177 8.55155 5.93095 8.88L5.93317 8.88282C5.93667 8.88724 5.94371 8.89601 5.9542 8.90851C5.97524 8.93358 6.00984 8.97327 6.05728 9.02278C6.15278 9.12243 6.29665 9.25799 6.48296 9.39349C6.85846 9.66658 7.37348 9.91671 8.00016 9.91671C8.62685 9.91671 9.14186 9.66658 9.51737 9.39349C9.70368 9.25799 9.84755 9.12243 9.94305 9.02278C9.99049 8.97327 10.0251 8.93358 10.0461 8.90851C10.0566 8.89601 10.0637 8.88734 10.0672 8.88292C10.3158 8.55194 10.7856 8.48496 11.1168 8.73337C11.4482 8.9819 11.5154 9.452 11.2668 9.78337L11.2962 9.74131L11.2661 9.78437L11.2652 9.7855L11.2632 9.78812L11.2581 9.79483L11.2432 9.81388C11.2313 9.82899 11.2152 9.84887 11.1951 9.87282C11.1549 9.92067 11.0984 9.98514 11.026 10.0606C10.8819 10.211 10.6717 10.4088 10.3996 10.6066C9.85846 11.0002 9.04014 11.4167 8.00016 11.4167C6.96018 11.4167 6.14186 11.0002 5.6007 10.6066C5.32867 10.4088 5.11838 10.211 4.9743 10.0606C4.90195 9.98514 4.8454 9.92067 4.80524 9.87282C4.78514 9.84887 4.76906 9.82899 4.7571 9.81388L4.74221 9.79483L4.73708 9.78812L4.7351 9.7855L4.73425 9.78437L4.7335 9.78337C4.48497 9.452 4.55213 8.9819 4.8835 8.73337Z" fill="#FF3621"/>
<path fill-rule="evenodd" clip-rule="evenodd" d="M5.25016 6.00004C5.25016 5.58583 5.58595 5.25004 6.00016 5.25004H6.00683C6.42104 5.25004 6.75683 5.58583 6.75683 6.00004C6.75683 6.41425 6.42104 6.75004 6.00683 6.75004H6.00016C5.58595 6.75004 5.25016 6.41425 5.25016 6.00004Z" fill="#FF3621"/>
<path fill-rule="evenodd" clip-rule="evenodd" d="M9.25016 6.00004C9.25016 5.58583 9.58595 5.25004 10.0002 5.25004H10.0068C10.421 5.25004 10.7568 5.58583 10.7568 6.00004C10.7568 6.41425 10.421 6.75004 10.0068 6.75004H10.0002C9.58595 6.75004 9.25016 6.41425 9.25016 6.00004Z" fill="#FF3621"/>
</g>
<defs>
<clipPath id="clip0_2246_2590">
<rect width="16" height="16" fill="white"/>
</clipPath>
</defs>
</svg>
