<svg width="16" height="16" viewBox="0 0 16 16" fill="none" xmlns="http://www.w3.org/2000/svg">
<path fill-rule="evenodd" clip-rule="evenodd" d="M2 0.75C2 0.335786 2.33579 0 2.75 0H8.75C8.94891 0 9.13968 0.0790176 9.28033 0.21967L13.7803 4.71967C13.921 4.86032 14 5.05109 14 5.25V8H12.5V6H8.75C8.33579 6 8 5.66421 8 5.25V1.5H3.5V13.5H9.5V15H2.75C2.33579 15 2 14.6642 2 14.25V0.75ZM9.5 2.56066L11.4393 4.5H9.5V2.56066Z" fill="#FF3621"/>
<path fill-rule="evenodd" clip-rule="evenodd" d="M9.25 8.5C8.83579 8.5 8.5 8.83579 8.5 9.25V11.75C8.5 12.1642 8.83579 12.5 9.25 12.5H10.0354C10.2781 14.1961 11.7368 15.5 13.5 15.5H14.75C15.1642 15.5 15.5 15.1642 15.5 14.75V12.25C15.5 11.8358 15.1642 11.5 14.75 11.5H13.9646C13.7219 9.80385 12.2632 8.5 10.5 8.5H9.25ZM10 11V10H10.5C11.6046 10 12.5 10.8954 12.5 12C12.5 12.5523 12.9477 13 13.5 13H14V14H13.5C12.3954 14 11.5 13.1046 11.5 12C11.5 11.4477 11.0523 11 10.5 11H10Z" fill="#FF3621"/>
</svg>
