<svg width="16" height="16" viewBox="0 0 16 16" fill="none" xmlns="http://www.w3.org/2000/svg">
<path fill-rule="evenodd" clip-rule="evenodd" d="M2 0.75C2 0.335786 2.33579 0 2.75 0H8.75C8.94891 0 9.13968 0.0790176 9.28033 0.21967L13.7803 4.71967C13.921 4.86032 14 5.05109 14 5.25V7.5H12.5V6H8.75C8.33579 6 8 5.66421 8 5.25V1.5H3.5V13.5H7.5V15H2.75C2.33579 15 2 14.6642 2 14.25V0.75ZM9.5 2.56066L11.4393 4.5H9.5V2.56066Z" fill="#FF3621"/>
<path d="M11.25 15V12.75H9V11.25H11.25V9H12.75V11.25H15V12.75H12.75V15H11.25Z" fill="#FF3621"/>
</svg>
