<svg width="16" height="16" viewBox="0 0 16 16" fill="none" xmlns="http://www.w3.org/2000/svg">
<path fill-rule="evenodd" clip-rule="evenodd" d="M12.3143 8.06903C12.1149 7.97699 11.8851 7.97699 11.6857 8.06903L8.43766 9.56813C8.43203 9.57071 8.42642 9.57336 8.42084 9.57609C8.16376 9.70162 8 9.96296 8 10.25L8.00002 10.2547V13.75C8.00002 14.0425 8.17011 14.3084 8.43572 14.431L11.6821 15.9293C11.718 15.9461 11.7551 15.96 11.7928 15.9708C11.9288 16.0099 12.0725 16.0095 12.2072 15.9708C12.2449 15.96 12.282 15.9461 12.3179 15.9293L15.5643 14.431C15.8299 14.3084 16 14.0425 16 13.75V10.2547L16 10.25C16 9.9666 15.8404 9.70826 15.5889 9.58094C15.5808 9.57683 15.5726 9.57286 15.5643 9.56903M13.4603 10.25L12 9.57603L10.5397 10.25L12 10.924L13.4603 10.25ZM14.5 11.4222L12.75 12.2299V14.0778L14.5 13.2701V11.4222ZM11.25 12.2299L9.50002 11.4222V13.2701L11.25 14.0778V12.2299Z" fill="#FF3621"/>
<path d="M12.3143 8.06903L15.5624 9.56815Z" fill="#FF3621"/>
<path fill-rule="evenodd" clip-rule="evenodd" d="M0.75 2C0.335786 2 0 2.33579 0 2.75V13.25C0 13.6642 0.335786 14 0.75 14H6.01779C6.00602 13.8945 6.00001 13.7877 6.00001 13.68L6.00001 12.5H1.5V3.5H4.67157C5.00309 3.5 5.32104 3.6317 5.55546 3.86612L6.96967 5.28033C7.11032 5.42098 7.30109 5.5 7.5 5.5H14.5V6.8619L16 7.55421V4.75C16 4.33579 15.6642 4 15.25 4H7.81066L6.61612 2.80546C6.10039 2.28973 5.40092 2 4.67157 2H0.75Z" fill="#FF3621"/>
</svg>
