<svg width="16" height="16" viewBox="0 0 16 16" fill="none" xmlns="http://www.w3.org/2000/svg">
<path d="M0 2.75C0 2.33579 0.335786 2 0.75 2H4.67157C5.40092 2 6.10039 2.28973 6.61612 2.80546L7.81066 4H15.25C15.6642 4 16 4.33579 16 4.75V10H14.5V5.5H7.5C7.30109 5.5 7.11032 5.42098 6.96967 5.28033L5.55546 3.86612C5.32104 3.6317 5.00309 3.5 4.67157 3.5H1.5V12.5H7.5V14H0.75C0.335786 14 0 13.6642 0 13.25V2.75Z" fill="#FF3621"/>
<path fill-rule="evenodd" clip-rule="evenodd" d="M9.25 8.5C8.83579 8.5 8.5 8.83579 8.5 9.25V11.75C8.5 12.1642 8.83579 12.5 9.25 12.5H10.0354C10.2781 14.1961 11.7368 15.5 13.5 15.5H14.75C15.1642 15.5 15.5 15.1642 15.5 14.75V12.25C15.5 11.8358 15.1642 11.5 14.75 11.5H13.9646C13.7219 9.80385 12.2632 8.5 10.5 8.5H9.25ZM10 11V10H10.5C11.6046 10 12.5 10.8954 12.5 12C12.5 12.5523 12.9477 13 13.5 13H14V14H13.5C12.3954 14 11.5 13.1046 11.5 12C11.5 11.4477 11.0523 11 10.5 11H10Z" fill="#FF3621"/>
</svg>
