<svg width="16" height="16" viewBox="0 0 16 16" fill="none" xmlns="http://www.w3.org/2000/svg">
<path fill-rule="evenodd" clip-rule="evenodd" d="M10 2.98804C9.22507 2.08395 7.74715 2.49574 7.55139 3.67029L7.16312 5.99994L9.16859 5.99994C10.325 5.99994 11.3578 6.72338 11.753 7.81015L11.8262 8.01146L14.0607 5.94884L15.0782 7.05104L12.382 9.53981L12.7956 10.6771C12.9752 11.1711 13.4447 11.4999 13.9703 11.4999H15.0694V12.9999H13.9703C12.8139 12.9999 11.7811 12.2765 11.3859 11.1897L11.187 10.6429L8.57815 13.051L7.56073 11.9488L10.6312 9.11452L10.3433 8.32276C10.1637 7.82878 9.69422 7.49994 9.16859 7.49994L6.91312 7.49994L6.06708 12.5762C5.66198 15.0068 2.60362 15.8589 1 13.988L2.13889 13.0119C2.91382 13.9159 4.39173 13.5041 4.58749 12.3296L5.39243 7.49994L3.06944 7.49994L3.06944 5.99994L5.64243 5.99994L6.0718 3.4237C6.4769 0.993112 9.53526 0.140955 11.1389 2.01185L10 2.98804Z" fill="#FF3621"/>
</svg>
