<svg width="98" height="98" viewBox="0 0 98 98" fill="none" xmlns="http://www.w3.org/2000/svg">
<path d="M79.8413 28.0588C82.2397 26.952 85.0992 27.9421 86.2858 30.3231C87.4782 32.7195 86.527 35.6198 84.1635 36.855C84.0488 36.5146 83.9398 36.1723 83.8134 35.8319C82.7766 33.0308 81.4305 30.4378 79.8413 28.0588Z" fill="#00A972"/>
<path d="M89.8567 40.7531C90.3663 43.383 88.674 45.9235 86.0655 46.4817C85.8671 43.2741 85.2427 40.0431 84.167 36.8627C86.8047 36.3842 89.3451 38.1135 89.8567 40.7531Z" fill="#00A972"/>
<path d="M86.0771 46.6355C88.6759 46.9642 90.5744 49.2849 90.3488 51.9187C90.129 54.4649 88.0029 56.3848 85.4974 56.4023C85.4488 56.379 85.3982 56.3595 85.3477 56.3401C86.0071 53.1811 86.2658 49.9229 86.0771 46.6355Z" fill="#00A972"/>
<path d="M85.3365 56.3946C85.3909 56.3965 85.4454 56.4004 85.4999 56.4004C87.7952 57.4567 88.9351 60.1119 88.0559 62.5278C87.1708 64.9593 84.5642 66.2626 82.1152 65.5681C83.578 62.6717 84.6634 59.5867 85.3365 56.3946Z" fill="#00A972"/>
<path d="M83.1425 72.2926C81.6622 74.4654 78.7483 75.0703 76.5308 73.7106C78.7347 71.2674 80.5962 68.5539 82.0765 65.6478C84.1209 67.2195 84.6131 70.1314 83.1425 72.2926Z" fill="#00A972"/>
<path d="M75.8402 80.3982C73.8463 82.1119 70.876 81.9388 69.0864 80.052C71.8486 78.2643 74.3521 76.1285 76.5346 73.7048C78.1024 75.755 77.8223 78.6942 75.8402 80.3982Z" fill="#00A972"/>
<path d="M18.8378 28.0587C16.4394 26.9519 13.5799 27.942 12.3933 30.3229C11.2009 32.7194 12.1521 35.6197 14.5156 36.8549C14.6303 36.5145 14.7393 36.1721 14.8657 35.8317C15.9025 33.0306 17.2486 30.4377 18.8378 28.0587Z" fill="#00A972"/>
<path d="M8.82201 40.7531C8.31237 43.383 10.0047 45.9235 12.6132 46.4817C12.8116 43.2741 13.436 40.0431 14.5117 36.8627C11.874 36.3842 9.33555 38.1135 8.82201 40.7531Z" fill="#00A972"/>
<path d="M12.6019 46.6355C10.0031 46.9642 8.10457 49.2849 8.33021 51.9187C8.55002 54.4649 10.6761 56.3848 13.1815 56.4023C13.2302 56.379 13.2807 56.3595 13.3313 56.3401C12.6719 53.1811 12.4132 49.9229 12.6019 46.6355Z" fill="#00A972"/>
<path d="M13.3443 56.3945C13.2898 56.3965 13.2353 56.4004 13.1809 56.4004C10.8855 57.4566 9.74564 60.1118 10.6249 62.5277C11.5099 64.9592 14.1165 66.2625 16.5655 65.5681C15.1008 62.6717 14.0154 59.5866 13.3443 56.3945Z" fill="#00A972"/>
<path d="M15.5368 72.2926C17.0171 74.4654 19.931 75.0703 22.1486 73.7106C19.9447 71.2674 18.0831 68.5539 16.6028 65.6478C14.5584 67.2195 14.0663 70.1314 15.5368 72.2926Z" fill="#00A972"/>
<path d="M22.8396 80.3982C24.8334 82.1119 27.8037 81.9388 29.5933 80.052C26.8311 78.2643 24.3277 76.1285 22.1452 73.7048C20.5773 75.755 20.8594 78.6942 22.8396 80.3982Z" fill="#00A972"/>
<path d="M25.6364 20.8499L19.6899 12.3903L23.0863 10.0035C23.9635 9.38689 24.7786 9.11845 25.5275 9.20015C26.2764 9.28185 26.8755 9.63977 27.3229 10.2778C27.6964 10.8088 27.852 11.336 27.7897 11.8553C27.7275 12.3747 27.531 12.8357 27.1984 13.2364C27.7489 12.9933 28.3169 12.9524 28.9005 13.1139C29.484 13.2753 29.9548 13.6099 30.3107 14.1176C30.7815 14.7868 30.9274 15.5084 30.7503 16.2826C30.5733 17.0568 30.0403 17.7571 29.1553 18.3795L25.6364 20.8499ZM23.734 14.8548L25.3544 13.7169C25.7901 13.4115 26.0527 13.075 26.1441 12.7093C26.2355 12.3436 26.1519 11.976 25.8912 11.6044C25.6422 11.2504 25.331 11.05 24.9556 11.0072C24.5802 10.9644 24.1658 11.1026 23.7048 11.4255L22.1098 12.5478L23.734 14.8548ZM26.3017 18.506L28.029 17.2902C28.4881 16.9673 28.7701 16.6094 28.8732 16.2184C28.9763 15.8274 28.8927 15.4365 28.6203 15.0513C28.3422 14.6564 27.992 14.4405 27.568 14.4016C27.1439 14.3627 26.7063 14.5028 26.255 14.8198L24.551 16.0181L26.3017 18.506Z" fill="#1B5162"/>
<path d="M34.1992 15.1718L34.7925 4.17758L36.8272 3.55511L43.4681 12.3396L41.5462 12.9271L40.0562 10.8807L36.1989 12.0595L36.0938 14.5941L34.1992 15.1718ZM36.2611 10.4936L39.1284 9.61635L36.4304 5.94576L36.2611 10.4936Z" fill="#1B5162"/>
<path d="M50.8675 12.3863C49.8929 12.3435 49.0526 12.0847 48.3445 11.6082C47.6365 11.1335 47.0977 10.4897 46.73 9.68048C46.3624 8.87128 46.2009 7.93953 46.2476 6.88718C46.2943 5.8251 46.5452 4.89724 47.0004 4.1036C47.4536 3.30996 48.078 2.70111 48.8697 2.279C49.6614 1.85689 50.5893 1.66821 51.6533 1.71489C52.8632 1.76936 53.8553 2.10393 54.6256 2.71862C55.3959 3.33524 55.8783 4.16001 56.0689 5.19291L53.9584 5.09954C53.8222 4.61129 53.5538 4.22225 53.1531 3.93242C52.7523 3.64259 52.2271 3.48502 51.5774 3.45585C50.5445 3.40916 49.7334 3.70094 49.1421 4.33119C48.5527 4.96143 48.2317 5.84649 48.1811 6.98833C48.1306 8.13016 48.3698 9.02495 48.897 9.67464C49.4241 10.3243 50.1672 10.6706 51.1203 10.7114C52.056 10.7523 52.7718 10.5305 53.2717 10.0462C53.7716 9.55988 54.0887 8.90629 54.2229 8.08542L51.6105 7.96871L51.6728 6.5526L56.1895 6.75296L55.9386 12.4349L54.1976 12.3571L54.1101 10.9935C53.7541 11.4701 53.3184 11.8299 52.8049 12.075C52.2894 12.3162 51.6436 12.4193 50.8675 12.3863Z" fill="#1B5162"/>
<path d="M59.2593 13.3784L62.9396 3.71466L69.2498 6.11698L68.7091 7.53892L64.167 5.80964L63.1575 8.46095L67.2852 10.0327L66.76 11.4138L62.6323 9.84204L61.5702 12.6315L66.1122 14.3607L65.5714 15.7827L59.2593 13.3784Z" fill="#1B5162"/>
<path d="M68.5903 17.51L74.7722 9.21954L76.2875 10.3497L70.9888 17.4555L74.6613 20.1924L73.7782 21.377L68.5903 17.51Z" fill="#1B5162"/>
<path d="M32.6196 92.8844L35.6289 83.174L39.527 84.3819C40.5346 84.6951 41.233 85.1658 41.6201 85.798C42.0072 86.4302 42.0869 87.111 41.8613 87.8424C41.6726 88.4532 41.3575 88.8889 40.9159 89.1535C40.4743 89.418 39.9978 89.5406 39.4862 89.5231C40.0075 89.8051 40.379 90.2234 40.6047 90.7738C40.8284 91.3243 40.8517 91.8923 40.6708 92.4739C40.4335 93.2423 39.9589 93.7889 39.2489 94.1157C38.5389 94.4425 37.6752 94.4483 36.6579 94.1332L32.6196 92.8844ZM34.841 91.9915L36.8251 92.6062C37.3523 92.7696 37.7997 92.7735 38.1673 92.6198C38.535 92.4662 38.7879 92.1647 38.924 91.7212C39.0641 91.2679 39.0213 90.8653 38.7976 90.5112C38.5719 90.1572 38.2004 89.9004 37.683 89.7409L35.7261 89.134L34.841 91.9915ZM36.1404 87.8016L38 88.3774C38.5 88.531 38.9182 88.5349 39.2586 88.3871C39.599 88.2392 39.8344 87.9514 39.9666 87.5273C40.0931 87.1208 40.06 86.7589 39.8694 86.4419C39.6788 86.1248 39.3208 85.8836 38.7937 85.7202L36.9633 85.1522L36.1404 87.8016Z" fill="#1B5162"/>
<path d="M45.0264 96.088L48.6386 85.8835L50.7297 85.8621L54.552 95.9888L52.5776 96.0082L51.7392 93.6662L47.7749 93.707L46.9716 96.0685L45.0264 96.088ZM48.269 92.2501L51.2179 92.219L49.6929 88.0076L48.269 92.2501Z" fill="#1B5162"/>
<path d="M59.8935 95.1194L57.0049 85.372L60.584 84.3118C61.3641 84.0804 62.0449 84.022 62.6304 84.1368C63.214 84.2515 63.6983 84.4966 64.0835 84.8721C64.4686 85.2475 64.7409 85.7104 64.9024 86.257C65.0794 86.8503 65.0833 87.4397 64.9199 88.0252C64.7546 88.6088 64.3752 89.1106 63.782 89.5289L67.011 93.0108L64.9646 93.6177L62.0157 90.3108L60.5393 90.7485L61.6792 94.5922L59.8935 95.1194ZM60.1483 89.4394L61.8329 88.9395C62.4262 88.7625 62.821 88.4901 63.0136 88.1205C63.2062 87.7509 63.2334 87.3288 63.0934 86.8542C62.9552 86.3893 62.7082 86.0586 62.3522 85.8622C61.9963 85.6657 61.5119 85.6579 60.8992 85.8388L59.2282 86.3348L60.1483 89.4394Z" fill="#1B5162"/>
<path d="M67.8898 30.675L65.4933 33.0715C74.2273 41.8054 74.2273 55.9665 65.4933 64.7004C56.7594 73.4343 42.5983 73.4343 33.8644 64.7004L31.6235 66.9413C41.6374 76.9551 57.874 76.9551 67.8898 66.9413C77.9037 56.9254 77.9037 40.6889 67.8898 30.675Z" fill="#7D5319"/>
<path d="M65.4937 33.0715L56.4096 42.1555L55.4817 43.0834C58.6855 46.2871 58.6855 51.4828 55.4817 54.6865C52.278 57.8903 47.0824 57.8903 43.8786 54.6865L43.1064 55.4588L33.8667 64.6984C42.6006 73.4324 56.7617 73.4324 65.4956 64.6984C74.2296 55.9645 74.2276 41.8054 65.4937 33.0715Z" fill="#BD802B"/>
<path d="M33.865 33.0715C42.599 24.3376 56.76 24.3376 65.494 33.0715L67.8905 30.675C57.8766 20.6611 41.64 20.6611 31.6242 30.675C21.6103 40.6889 21.6103 56.9255 31.6242 66.9413L33.865 64.7004C25.1311 55.9665 25.1331 41.8054 33.865 33.0715Z" fill="#7D5319"/>
<path d="M33.8649 33.0715C25.131 41.8055 25.131 55.9665 33.8649 64.7004L43.1046 55.4607L43.8768 54.6885C40.6731 51.4848 40.6731 46.2891 43.8768 43.0854C47.0806 39.8817 52.2762 39.8817 55.48 43.0854L56.4078 42.1575L65.4919 33.0735C56.7599 24.3376 42.5989 24.3376 33.8649 33.0715Z" fill="#FCBA33"/>
</svg>
