<svg width="95" height="96" viewBox="0 0 95 96" fill="none" xmlns="http://www.w3.org/2000/svg">
<path d="M29.5002 5.01703L28.8232 5.30492L32.5133 13.9397C32.737 13.8404 32.9607 13.7412 33.1883 13.6459L29.5002 5.01703Z" fill="#FBB931"/>
<path d="M8.23485 21.312C7.92751 21.738 8.02282 22.3333 8.44882 22.6406L15.4729 27.7137C15.8989 28.021 16.4942 27.9257 16.8015 27.4997C17.1088 27.0737 17.0135 26.4785 16.5875 26.1711L9.56342 21.0981C9.13742 20.7907 8.54219 20.886 8.23485 21.312Z" fill="#3BD4AE"/>
<path d="M9.90187 52.0325L1.30409 53.0615C0.782775 53.1238 0.409297 53.5984 0.473488 54.1197C0.535735 54.641 1.01036 55.0126 1.53168 54.9503L10.1295 53.9213C10.6527 53.8591 11.0242 53.3825 10.9601 52.8592C10.8959 52.3399 10.4232 51.9703 9.90187 52.0325Z" fill="#3BD4AE"/>
<path d="M10.9718 38.1263L2.55691 36.0644C2.04727 35.9399 1.53179 36.2511 1.4073 36.7608C1.2828 37.2704 1.59403 37.7859 2.10368 37.9104L10.5186 39.9723C11.0302 40.0968 11.5476 39.7836 11.6702 39.2701C11.7908 38.7643 11.4795 38.2527 10.9718 38.1263Z" fill="#3BD4AE"/>
<path d="M14.0804 65.6256L6.67309 70.1171C6.22375 70.3894 6.07981 70.9749 6.35213 71.4243C6.62446 71.8736 7.20997 72.0176 7.65931 71.7452L15.0666 67.2538C15.5179 66.9814 15.6599 66.394 15.3856 65.9427C15.1114 65.4953 14.5297 65.3533 14.0804 65.6256Z" fill="#3BD4AE"/>
<path d="M25.9848 18.3884C25.3779 18.8417 24.7652 19.1373 24.1447 19.2754C23.5242 19.4136 22.9348 19.3883 22.3745 19.1996C21.8143 19.009 21.3222 18.6394 20.8981 18.085L22.4932 16.8926C22.7967 17.2661 23.1799 17.4878 23.6409 17.5539C24.1019 17.6201 24.5648 17.48 25.0297 17.1338C25.4305 16.8342 25.6775 16.4996 25.7709 16.1301C25.8623 15.7605 25.7884 15.4142 25.5472 15.0913C25.2943 14.7529 24.9928 14.5661 24.6426 14.5331C24.2925 14.5 23.8996 14.5544 23.4658 14.6945C23.0301 14.8346 22.5671 14.9863 22.073 15.1458C21.2697 15.4026 20.5713 15.4823 19.9781 15.385C19.3848 15.2897 18.8732 14.9532 18.4433 14.3774C18.0698 13.895 17.8734 13.3893 17.852 12.8582C17.8306 12.3291 17.9551 11.8117 18.2293 11.306C18.5017 10.8002 18.9101 10.345 19.4548 9.93849C20.0053 9.52611 20.5655 9.26156 21.1335 9.1429C21.7015 9.02425 22.2384 9.05343 22.7441 9.22849C23.2499 9.40356 23.6914 9.72841 24.0727 10.205L22.4543 11.4149C22.2287 11.129 21.9233 10.9558 21.5401 10.8936C21.1549 10.8313 20.7698 10.9442 20.3846 11.232C20.0481 11.4713 19.8302 11.7592 19.733 12.0957C19.6357 12.4322 19.7077 12.7629 19.9489 13.0858C20.1551 13.362 20.4041 13.5157 20.6997 13.5468C20.9935 13.5799 21.3319 13.5391 21.7132 13.4243C22.0944 13.3115 22.5263 13.1734 23.0067 13.01C23.5222 12.8466 24.0202 12.7318 24.5006 12.6676C24.9811 12.6034 25.4382 12.6501 25.8759 12.8077C26.3136 12.9652 26.7143 13.2881 27.08 13.7764C27.4048 14.2101 27.5935 14.6945 27.6499 15.2294C27.7063 15.7644 27.6013 16.3071 27.3367 16.8537C27.0625 17.4081 26.6151 17.9177 25.9848 18.3884Z" fill="#1B5162"/>
<path d="M31.6461 14.4631L28.3159 4.69044L30.1036 4.08159L37.0421 9.39782L34.6962 2.51571L36.4838 1.90686L39.814 11.6795L38.0264 12.2884L31.0937 6.98577L33.4337 13.8543L31.6461 14.4631Z" fill="#1B5162"/>
<path d="M42.7119 11.0706L46.6548 0.809692L48.779 0.844706L52.3873 11.2282L50.3818 11.1951L49.594 8.79279L45.5675 8.72665L44.6882 11.1017L42.7119 11.0706ZM46.1082 7.25997L49.1019 7.3086L47.6663 2.9922L46.1082 7.25997Z" fill="#1B5162"/>
<path d="M59.6039 13.4496C58.6216 13.1033 57.8513 12.5937 57.2969 11.9226C56.7406 11.2515 56.406 10.4715 56.2932 9.5825C56.1804 8.69354 56.299 7.75206 56.6492 6.76001C56.9993 5.76796 57.4992 4.95876 58.147 4.33241C58.7947 3.70605 59.5475 3.30534 60.4034 3.12638C61.2593 2.94937 62.1774 3.03301 63.1597 3.3812C64.3288 3.79359 65.1827 4.42189 65.7255 5.26416C66.2662 6.10643 66.4452 7.08486 66.2604 8.19752L64.2996 7.50502C64.3658 6.93314 64.2549 6.42738 63.967 5.98777C63.6791 5.54815 63.2103 5.21164 62.5626 4.98405C61.6639 4.66698 60.8508 4.72339 60.1252 5.15522C59.3997 5.58706 58.8472 6.33596 58.4718 7.40193C58.0945 8.4679 58.0555 9.39576 58.3512 10.1816C58.6469 10.9694 59.2441 11.5219 60.1427 11.8389C60.7905 12.0685 61.3624 12.1113 61.8565 11.9673C62.3505 11.8234 62.7454 11.5219 63.043 11.0647L65.0038 11.7572C64.465 12.6929 63.7219 13.3114 62.7765 13.6149C61.8292 13.9164 60.771 13.8619 59.6039 13.4496Z" fill="#1B5162"/>
<path d="M66.7251 16.5209L73.0878 8.39001L74.574 9.55324L72.0024 12.8406L77.5832 11.9069L79.4175 13.3425L73.8951 14.2256L73.1384 21.5357L71.3138 20.1079L71.9363 14.5271L70.4949 14.7664L68.2132 17.6822L66.7251 16.5209Z" fill="#1B5162"/>
<path d="M12.0806 79.1312L21.7074 74.2195L23.2382 75.6395L19.0522 85.6028L17.6069 84.2607L18.6106 81.9867L15.7103 79.2926L13.5064 80.452L12.0806 79.1312ZM17.0661 78.5768L19.2233 80.5803L21.011 76.4818L17.0661 78.5768Z" fill="#1B5162"/>
<path d="M25.7788 89.5886L29.6284 81.835L26.979 80.5201L27.6423 79.1818L34.6158 82.6442L33.9525 83.9825L31.2896 82.6617L27.44 90.4153L25.7788 89.5886Z" fill="#1B5162"/>
<path d="M37.5881 93.8408L39.2221 85.3403L36.3179 84.782L36.5999 83.3153L44.2465 84.7859L43.9644 86.2526L41.0467 85.6904L39.4127 94.1909L37.5881 93.8408Z" fill="#1B5162"/>
<path d="M47.1973 95.0973L49.9205 84.6399L51.998 84.4396L56.6645 94.187L54.7018 94.3757L53.6689 92.1153L49.7299 92.4946L49.1327 94.9125L47.1973 95.0973ZM50.0956 91.0007L53.0251 90.7187L51.1499 86.661L50.0956 91.0007Z" fill="#1B5162"/>
<path d="M66.41 91.0242C65.4705 91.4346 64.5776 91.5864 63.7276 91.4774C62.8775 91.3685 62.115 91.0339 61.4361 90.4698C60.7572 89.9077 60.2106 89.151 59.7963 88.2037C59.382 87.2563 59.1972 86.3402 59.2439 85.4551C59.2886 84.57 59.559 83.7764 60.055 83.0761C60.5491 82.3739 61.2669 81.8176 62.2064 81.4071C63.323 80.9189 64.3578 80.7963 65.3129 81.0376C66.268 81.2788 67.0519 81.8623 67.6666 82.7843L65.7934 83.6033C65.4568 83.1481 65.0386 82.8602 64.5368 82.7357C64.0349 82.6132 63.4727 82.6871 62.8542 82.9575C61.9944 83.3329 61.4497 83.9203 61.2183 84.7179C60.9868 85.5154 61.0938 86.4238 61.5392 87.4411C61.9847 88.4604 62.5779 89.1529 63.3191 89.5186C64.0602 89.8863 64.8597 89.8824 65.7194 89.505C66.34 89.2346 66.7776 88.8806 67.0363 88.4468C67.2951 88.013 67.3768 87.5306 67.2834 87.0015L69.1566 86.1826C69.3978 87.2174 69.2792 88.1589 68.8026 89.0109C68.3221 89.8668 67.5265 90.536 66.41 91.0242Z" fill="#1B5162"/>
<path d="M75.3171 85.7915L68.6567 78.1333L70.0573 76.9156L72.7494 80.0124L72.8914 74.453L74.6207 72.9493L74.4418 78.4445L81.355 80.5414L79.6374 82.0354L74.3678 80.3936L74.3289 81.8292L76.7176 84.5758L75.3171 85.7915Z" fill="#1B5162"/>
<path d="M53.4569 48.9844C53.4899 51.2253 53.0775 53.4506 52.243 55.53C51.4086 57.6094 50.1695 59.5041 48.5958 61.1011C47.0221 62.6981 45.1489 63.9644 43.0812 64.83C41.0134 65.6956 38.7939 66.1411 36.5531 66.1411C34.3122 66.1411 32.0927 65.6956 30.025 64.83C27.9572 63.9644 26.0821 62.6961 24.5104 61.1011C22.9367 59.5041 21.6976 57.6114 20.8631 55.53C20.0286 53.4506 19.6162 51.2253 19.6493 48.9844H53.4569Z" fill="#FF9E94"/>
<path d="M36.8022 66.1391C34.5613 66.1722 32.336 65.7598 30.2566 64.9253C28.1771 64.0908 26.2825 62.8517 24.6855 61.2781C23.0885 59.7044 21.8222 57.8312 20.9566 55.7634C20.091 53.6957 19.6455 51.4762 19.6455 49.2353C19.6455 46.9945 20.091 44.775 20.9566 42.7072C21.8222 40.6395 23.0905 38.7643 24.6855 37.1926C26.2825 35.6189 28.1752 34.3798 30.2566 33.5454C32.336 32.7109 34.5613 32.2985 36.8022 32.3316V66.1391Z" fill="#BD2B26"/>
<path d="M41.5682 43.8063C41.5352 41.5654 41.9476 39.3401 42.7821 37.2607C43.6165 35.1813 44.8556 33.2867 46.4293 31.6897C48.003 30.0927 49.8762 28.8263 51.9439 27.9607C54.0117 27.0951 56.2312 26.6497 58.472 26.6497C60.7129 26.6497 62.9324 27.0951 65.0001 27.9607C67.0679 28.8263 68.943 30.0946 70.5147 31.6897C72.0884 33.2867 73.3275 35.1794 74.162 37.2607C74.9965 39.3401 75.4089 41.5654 75.3758 43.8063H41.5682Z" fill="#FF9E94"/>
<path d="M58.2231 26.6516C60.464 26.6185 62.6893 27.0309 64.7687 27.8654C66.8482 28.6999 68.7428 29.9389 70.3398 31.5126C71.9368 33.0863 73.2031 34.9595 74.0687 37.0272C74.9343 39.095 75.3798 41.3145 75.3798 43.5553C75.3798 45.7962 74.9343 48.0157 74.0687 50.0834C73.2031 52.1512 71.9348 54.0263 70.3398 55.5981C68.7428 57.1717 66.8501 58.4108 64.7687 59.2453C62.6893 60.0798 60.464 60.4922 58.2231 60.4591V26.6516Z" fill="#BD2B26"/>
<path d="M86.9646 21.312C87.2719 21.738 87.1766 22.3333 86.7506 22.6406L79.7265 27.7137C79.3005 28.021 78.7053 27.9257 78.3979 27.4997C78.0906 27.0737 78.1859 26.4785 78.6119 26.1711L85.636 21.0981C86.062 20.7907 86.6572 20.886 86.9646 21.312Z" fill="#3BD4AE"/>
<path d="M85.2978 52.0325L93.8956 53.0615C94.4169 53.1238 94.7904 53.5984 94.7262 54.1197C94.664 54.641 94.1893 55.0126 93.668 54.9503L85.0702 53.9213C84.547 53.8591 84.1754 53.3825 84.2396 52.8592C84.3058 52.3399 84.7785 51.9703 85.2978 52.0325Z" fill="#3BD4AE"/>
<path d="M84.2299 38.1264L92.6448 36.0645C93.1545 35.94 93.6699 36.2512 93.7944 36.7608C93.9189 37.2705 93.6077 37.786 93.098 37.9105L84.6831 39.9724C84.1715 40.0969 83.6541 39.7837 83.5316 39.2701C83.409 38.7644 83.7202 38.2528 84.2299 38.1264Z" fill="#3BD4AE"/>
<path d="M81.1197 65.6257L88.527 70.1172C88.9763 70.3895 89.1203 70.975 88.8479 71.4243C88.5756 71.8737 87.9901 72.0176 87.5408 71.7453L80.1334 67.2538C79.6822 66.9815 79.5402 66.394 79.8144 65.9428C80.0887 65.4954 80.6723 65.3534 81.1197 65.6257Z" fill="#3BD4AE"/>
</svg>
