<svg width="64" height="64" viewBox="0 0 64 64" fill="none" xmlns="http://www.w3.org/2000/svg">
<rect width="64" height="64" fill="#EEEDE9"/>
<path d="M63.9897 64V32.0117L0.0203018 32.0117V64H63.9897Z" fill="#00A972"/>
<path d="M32.0058 0.0131836H23.4722V32.0015H32.0058V0.0131836Z" fill="#143D4A"/>
<path d="M0.0205078 23.4781L0.0205078 32.0117H32.0052V23.4781H0.0205078Z" fill="#143D4A"/>
<path d="M6.03388 0.000300065L0 6.03418L25.1131 31.1473L31.147 25.1134L6.03388 0.000300065Z" fill="#143D4A"/>
<path d="M31.9937 63.9794H40.5273L40.5273 31.9911H31.9937L31.9937 63.9794Z" fill="#143D4A"/>
<path d="M63.9692 40.5248V31.9911L31.9845 31.9911V40.5248H63.9692Z" fill="#143D4A"/>
<path d="M57.9616 63.9924L63.9951 57.9583L38.8834 32.8437L32.8499 38.8779L57.9616 63.9924Z" fill="#143D4A"/>
<path d="M63.9795 32.0117V23.478L31.9948 23.478V32.0117H63.9795Z" fill="#9ED6C5"/>
<path d="M40.5282 0.0131836H31.9946V32.0015H40.5282V0.0131836Z" fill="#9ED6C5"/>
<path d="M63.9998 6.03441L57.9663 0.000244141L32.8546 25.1148L38.8881 31.1489L63.9998 6.03441Z" fill="#9ED6C5"/>
<path d="M0.0307617 31.9911L0.0307617 40.5248H32.0155V31.9911H0.0307617Z" fill="white"/>
<path d="M23.4712 63.9794H32.0049L32.0049 31.9911H23.4712L23.4712 63.9794Z" fill="white"/>
<path d="M0.00454166 57.9581L6.03809 63.9923L31.1498 38.8778L25.1163 32.8436L0.00454166 57.9581Z" fill="white"/>
</svg>
