<svg width="95" height="95" viewBox="0 0 95 95" fill="none" xmlns="http://www.w3.org/2000/svg">
<path d="M74.1072 47.317C74.1072 32.6443 62.2357 20.7475 47.5767 20.7008V73.935C62.2357 73.8845 74.1072 61.9876 74.1072 47.317Z" fill="#FFAB00"/>
<path d="M47.4872 20.697C32.7854 20.697 20.8691 32.6152 20.8691 47.317C20.8691 62.0188 32.7874 73.9351 47.4872 73.9351C47.5164 73.9351 47.5456 73.9332 47.5748 73.9332V20.6989C47.5456 20.6989 47.5164 20.697 47.4872 20.697Z" fill="#FFDB96"/>
<path d="M14.7114 30.6174L4.52637 27.3494L5.61568 25.6435L13.5521 28.5068L7.79625 22.2336L8.91863 20.479L16.997 23.1186L11.0661 17.1177L12.1652 15.4001L19.3663 23.3345L18.1564 25.2272L10.5896 22.8269L15.9116 28.7364L14.7114 30.6174Z" fill="#1B5162"/>
<path d="M23.3752 19.3021L17.2012 11.0059L22.6185 6.9754L23.527 8.19699L19.6268 11.0973L21.3211 13.3732L24.8653 10.7355L25.7464 11.9201L22.2023 14.5578L23.9841 16.9523L27.8842 14.0501L28.7926 15.2717L23.3752 19.3021Z" fill="#1B5162"/>
<path d="M31.8698 13.6474L28.1992 3.97981L29.9674 3.30872L33.1147 11.5953L37.3961 9.96908L37.9213 11.3502L31.8698 13.6474Z" fill="#1B5162"/>
<path d="M41.2188 10.6403L40.2832 0.340489L42.1662 0.169312L42.9676 8.99662L47.5291 8.58229L47.6633 10.0529L41.2188 10.6403Z" fill="#1B5162"/>
<path d="M50.9834 10.1111L53.1504 0L55.0002 0.39682L58.2273 8.53748L59.7524 1.4161L61.6003 1.81292L59.4333 11.9202L57.5854 11.5234L54.3544 3.39826L52.8313 10.506L50.9834 10.1111Z" fill="#1B5162"/>
<path d="M62.7676 13.3771L67.9185 4.40973L73.7716 7.77298L73.0129 9.09182L68.7977 6.67005L67.3855 9.12878L71.2156 11.3288L70.4803 12.6107L66.6502 10.4107L65.1641 12.9978L69.3793 15.4196L68.6207 16.7384L62.7676 13.3771Z" fill="#1B5162"/>
<path d="M73.6626 21.5548C73.1374 21.0082 72.7678 20.4344 72.5538 19.8352C72.3398 19.2361 72.2912 18.6448 72.4118 18.0671C72.5324 17.4874 72.8397 16.9525 73.3377 16.4603L74.7188 17.8978C74.3842 18.246 74.2131 18.6545 74.2033 19.1214C74.1936 19.5882 74.3901 20.0298 74.7927 20.4499C75.1409 20.8117 75.5047 21.016 75.882 21.0627C76.2614 21.1094 76.5959 20.9926 76.8877 20.7125C77.1931 20.4188 77.3409 20.0959 77.3312 19.7438C77.3215 19.3917 77.2184 19.0085 77.0258 18.5942C76.8313 18.1799 76.6251 17.7364 76.4053 17.2656C76.0513 16.4992 75.8859 15.8145 75.9093 15.2135C75.9326 14.6104 76.203 14.0619 76.7204 13.5639C77.1542 13.134 77.6327 12.8753 78.1579 12.7878C78.6812 12.7003 79.2122 12.7625 79.7471 12.9706C80.2821 13.1807 80.7859 13.5289 81.2566 14.0191C81.7351 14.5171 82.0658 15.0403 82.2545 15.5908C82.4412 16.1413 82.4802 16.6782 82.3693 17.2014C82.2584 17.7247 81.988 18.2052 81.562 18.6428L80.1595 17.1839C80.4144 16.9252 80.5505 16.6004 80.5661 16.2094C80.5816 15.8204 80.4202 15.4508 80.0876 15.1026C79.8074 14.7972 79.4943 14.6163 79.148 14.5618C78.7998 14.5054 78.4808 14.6182 78.191 14.8983C77.942 15.1376 77.8195 15.4041 77.8253 15.6998C77.8292 15.9954 77.9128 16.3261 78.0723 16.6918C78.2318 17.0575 78.4225 17.4679 78.6423 17.9251C78.8699 18.4172 79.0449 18.8977 79.1675 19.3665C79.29 19.8352 79.2998 20.2982 79.1967 20.7514C79.0936 21.2047 78.8212 21.6443 78.3816 22.0664C77.9906 22.4418 77.5335 22.6908 77.0083 22.8114C76.4831 22.9339 75.9326 22.895 75.3549 22.7005C74.7694 22.5041 74.2072 22.1228 73.6626 21.5548Z" fill="#1B5162"/>
<path d="M79.6676 30.0028C79.3194 29.3297 79.1268 28.6742 79.0918 28.0381C79.0568 27.402 79.1793 26.8224 79.4575 26.3011C79.7376 25.7797 80.185 25.3537 80.8016 25.0231L81.7178 26.7951C81.2976 27.0344 81.0175 27.3767 80.8755 27.8203C80.7335 28.2657 80.7958 28.7442 81.0642 29.2616C81.2957 29.7071 81.5855 30.0067 81.9357 30.1584C82.2858 30.3101 82.6398 30.2926 82.9977 30.1078C83.3732 29.9133 83.6066 29.6449 83.698 29.3044C83.7875 28.964 83.7992 28.5672 83.7311 28.114C83.663 27.6607 83.591 27.1783 83.5132 26.6629C83.3907 25.8284 83.4276 25.1242 83.6202 24.5543C83.8128 23.9824 84.229 23.533 84.8671 23.2024C85.4039 22.9125 85.9369 22.8016 86.4641 22.8658C86.9912 22.932 87.4814 23.1401 87.9366 23.4941C88.3898 23.8462 88.773 24.3247 89.0862 24.9297C89.4033 25.5424 89.5725 26.1396 89.5958 26.7193C89.6192 27.3009 89.5025 27.8261 89.2477 28.2968C88.9928 28.7676 88.598 29.1508 88.065 29.4503L87.1352 27.653C87.4542 27.476 87.6759 27.2036 87.8004 26.834C87.9249 26.4645 87.8763 26.0657 87.6545 25.6358C87.4736 25.2643 87.2247 25.0017 86.9076 24.8499C86.5905 24.6982 86.2521 24.7138 85.8941 24.9005C85.5868 25.0581 85.3942 25.2798 85.3145 25.5658C85.2347 25.8517 85.2192 26.1921 85.2697 26.587C85.3184 26.9819 85.3845 27.4312 85.4662 27.9331C85.544 28.47 85.5751 28.9796 85.5596 29.4639C85.544 29.9483 85.4215 30.3938 85.1939 30.8003C84.9663 31.2068 84.5811 31.5492 84.0384 31.8313C83.558 32.0802 83.0483 32.1892 82.5095 32.1561C81.9707 32.123 81.4532 31.9324 80.9553 31.5803C80.4612 31.2282 80.0294 30.7011 79.6676 30.0028Z" fill="#1B5162"/>
<path d="M24.1836 88.0416L25.9771 77.6795L27.7861 78.5082L26.0782 86.6235L31.4042 80.1655L33.2657 81.0194L31.7952 89.2437L36.8293 82.6534L38.652 83.4879L31.908 91.5799L29.9005 90.6598L31.2058 82.9666L26.1774 88.9539L24.1836 88.0416Z" fill="#1B5162"/>
<path d="M40.2856 93.6127L41.1629 83.484L47.7747 84.0559L47.6463 85.5459L42.8864 85.1335L42.6452 87.9113L46.9713 88.2848L46.8468 89.732L42.5207 89.3585L42.2678 92.2821L47.0277 92.6945L46.8993 94.1845L40.2856 93.6127Z" fill="#1B5162"/>
<path d="M52.6285 93.9064L50.8604 83.8945L57.3962 82.741L57.6569 84.2135L52.9514 85.0441L53.4358 87.7907L57.7113 87.036L57.9642 88.4657L53.6887 89.2204L54.1983 92.109L58.9037 91.2784L59.1644 92.751L52.6285 93.9064Z" fill="#1B5162"/>
<path d="M64.7353 90.9827L60.2964 81.8364L61.9693 81.0252L63.7647 84.7231L65.3539 79.3835L67.4178 78.3817L65.8091 83.6493L71.9481 87.4814L69.8959 88.4773L65.2275 85.5128L64.8151 86.892L66.4063 90.1716L64.7353 90.9827Z" fill="#1B5162"/>
<path d="M31.9956 49.1844C31.9956 57.7413 38.9322 64.6779 47.4891 64.6779C56.046 64.6779 62.9826 57.7413 62.9826 49.1844" fill="white"/>
<path d="M39.2184 41.2849C36.4621 41.2849 34.2212 39.0421 34.2212 36.2877H35.6879C35.6879 38.2348 37.2713 39.8182 39.2184 39.8182C41.1656 39.8182 42.7489 38.2348 42.7489 36.2877H44.2156C44.2156 39.0421 41.9728 41.2849 39.2184 41.2849Z" fill="#FFAB00"/>
<path d="M60.6331 40.5515H59.1664C59.1664 38.6043 57.583 37.0209 55.6359 37.0209C53.6887 37.0209 52.1054 38.6043 52.1054 40.5515H50.6387C50.6387 37.7951 52.8815 35.5543 55.6359 35.5543C58.3903 35.5543 60.6331 37.7951 60.6331 40.5515Z" fill="white"/>
<path d="M93.7328 44.9155L89.4634 40.6461L85.194 44.9155L89.4634 49.1849L93.7328 44.9155Z" fill="#FF6952"/>
<path d="M87.2895 45.7646C88.9536 45.7646 90.3026 44.4155 90.3026 42.7515C90.3026 41.0874 88.9536 39.7383 87.2895 39.7383C85.6254 39.7383 84.2764 41.0874 84.2764 42.7515C84.2764 44.4155 85.6254 45.7646 87.2895 45.7646Z" fill="#FF6952"/>
<path d="M91.643 45.7645C93.3071 45.7645 94.6561 44.4155 94.6561 42.7514C94.6561 41.0873 93.3071 39.7383 91.643 39.7383C89.9789 39.7383 88.6299 41.0873 88.6299 42.7514C88.6299 44.4155 89.9789 45.7645 91.643 45.7645Z" fill="#FF6952"/>
<path d="M88.9051 65.7827L87.2725 61.3759L82.8656 63.0086L84.4983 67.4154L88.9051 65.7827Z" fill="#FF6952"/>
<path d="M85.0471 64.5047C86.3427 64.5047 87.393 63.4544 87.393 62.1588C87.393 60.8632 86.3427 59.8129 85.0471 59.8129C83.7515 59.8129 82.7012 60.8632 82.7012 62.1588C82.7012 63.4544 83.7515 64.5047 85.0471 64.5047Z" fill="#FF6952"/>
<path d="M88.1247 65.919C89.4203 65.919 90.4706 64.8687 90.4706 63.5731C90.4706 62.2775 89.4203 61.2272 88.1247 61.2272C86.8291 61.2272 85.7788 62.2775 85.7788 63.5731C85.7788 64.8687 86.8291 65.919 88.1247 65.919Z" fill="#FF6952"/>
<path d="M78.71 78.188L78.7109 75.3655L75.8885 75.3646L75.8875 78.187L78.71 78.188Z" fill="#FF6952"/>
<path d="M77.2975 76.7497C78.0753 76.7497 78.7058 76.1192 78.7058 75.3414C78.7058 74.5636 78.0753 73.9331 77.2975 73.9331C76.5197 73.9331 75.8892 74.5636 75.8892 75.3414C75.8892 76.1192 76.5197 76.7497 77.2975 76.7497Z" fill="#FF6952"/>
<path d="M78.735 78.1891C79.5128 78.1891 80.1433 77.5586 80.1433 76.7808C80.1433 76.003 79.5128 75.3724 78.735 75.3724C77.9572 75.3724 77.3267 76.003 77.3267 76.7808C77.3267 77.5586 77.9572 78.1891 78.735 78.1891Z" fill="#FF6952"/>
<path d="M5.9142 49.1844L10.1836 44.915L5.9142 40.6456L1.6448 44.915L5.9142 49.1844Z" fill="#FF6952"/>
<path d="M8.08684 45.7647C9.75094 45.7647 11.1 44.4157 11.1 42.7516C11.1 41.0875 9.75094 39.7385 8.08684 39.7385C6.42275 39.7385 5.07373 41.0875 5.07373 42.7516C5.07373 44.4157 6.42275 45.7647 8.08684 45.7647Z" fill="#FF6952"/>
<path d="M3.73577 45.7647C5.39986 45.7647 6.74888 44.4157 6.74888 42.7516C6.74888 41.0875 5.39986 39.7385 3.73577 39.7385C2.07167 39.7385 0.722656 41.0875 0.722656 42.7516C0.722656 44.4157 2.07167 45.7647 3.73577 45.7647Z" fill="#FF6952"/>
<path d="M10.8879 67.4143L12.5205 63.0075L8.11369 61.3749L6.48105 65.7817L10.8879 67.4143Z" fill="#FF6952"/>
<path d="M10.3322 64.5049C11.6278 64.5049 12.6781 63.4546 12.6781 62.159C12.6781 60.8633 11.6278 59.813 10.3322 59.813C9.03663 59.813 7.98633 60.8633 7.98633 62.159C7.98633 63.4546 9.03663 64.5049 10.3322 64.5049Z" fill="#FF6952"/>
<path d="M7.2546 65.919C8.55021 65.919 9.60051 64.8687 9.60051 63.5731C9.60051 62.2775 8.55021 61.2272 7.2546 61.2272C5.95899 61.2272 4.90869 62.2775 4.90869 63.5731C4.90869 64.8687 5.95899 65.919 7.2546 65.919Z" fill="#FF6952"/>
<path d="M19.4907 78.1862L19.4897 75.3637L16.6673 75.3647L16.6682 78.1872L19.4907 78.1862Z" fill="#FF6952"/>
<path d="M18.0817 76.7499C18.8595 76.7499 19.49 76.1194 19.49 75.3416C19.49 74.5638 18.8595 73.9333 18.0817 73.9333C17.3039 73.9333 16.6733 74.5638 16.6733 75.3416C16.6733 76.1194 17.3039 76.7499 18.0817 76.7499Z" fill="#FF6952"/>
<path d="M16.6422 78.1893C17.42 78.1893 18.0505 77.5588 18.0505 76.781C18.0505 76.0032 17.42 75.3727 16.6422 75.3727C15.8644 75.3727 15.2339 76.0032 15.2339 76.781C15.2339 77.5588 15.8644 78.1893 16.6422 78.1893Z" fill="#FF6952"/>
</svg>
