<svg width="64" height="64" viewBox="0 0 64 64" fill="none" xmlns="http://www.w3.org/2000/svg">
<path d="M64 64V0L0 0L0 64H64Z" fill="#143D4A"/>
<path d="M32 44C38.6274 44 44 38.6274 44 32C44 25.3726 38.6274 20 32 20C25.3726 20 20 25.3726 20 32C20 38.6274 25.3726 44 32 44Z" fill="#FF5F46"/>
<path d="M12 17C14.7614 17 17 14.7614 17 12C17 9.23858 14.7614 7 12 7C9.23858 7 7 9.23858 7 12C7 14.7614 9.23858 17 12 17Z" fill="#FF5F46"/>
<path d="M52 57C54.7614 57 57 54.7614 57 52C57 49.2386 54.7614 47 52 47C49.2386 47 47 49.2386 47 52C47 54.7614 49.2386 57 52 57Z" fill="#FF5F46"/>
<path d="M52 17C54.7614 17 57 14.7614 57 12C57 9.23857 54.7614 7 52 7C49.2386 7 47 9.23857 47 12C47 14.7614 49.2386 17 52 17Z" fill="#FF5F46"/>
<path d="M12 57C14.7614 57 17 54.7614 17 52C17 49.2386 14.7614 47 12 47C9.23858 47 7 49.2386 7 52C7 54.7614 9.23858 57 12 57Z" fill="#FF5F46"/>
<path fill-rule="evenodd" clip-rule="evenodd" d="M12.3536 11.6465L52.3536 51.6465L51.6465 52.3536L11.6465 12.3536L12.3536 11.6465Z" fill="white"/>
<path fill-rule="evenodd" clip-rule="evenodd" d="M52.3536 12.3536L12.3536 52.3536L11.6465 51.6465L51.6465 11.6465L52.3536 12.3536Z" fill="white"/>
<path fill-rule="evenodd" clip-rule="evenodd" d="M11.5 11.5H52.5V52.5H11.5V11.5ZM12.5 12.5V51.5H51.5V12.5H12.5Z" fill="white"/>
</svg>
