<svg width="98" height="98" viewBox="0 0 98 98" fill="none" xmlns="http://www.w3.org/2000/svg">
<path d="M28.9865 17.6642L24.1138 8.54313L27.7746 6.58626C28.7219 6.08051 29.5623 5.91322 30.2956 6.0844C31.029 6.25558 31.5794 6.68547 31.9471 7.37212C32.2525 7.94595 32.3439 8.48672 32.2194 8.99442C32.0949 9.50211 31.842 9.93589 31.4647 10.2938C32.0424 10.1187 32.6104 10.1479 33.1687 10.3794C33.7289 10.6109 34.1529 10.9999 34.4467 11.5485C34.8318 12.2701 34.8902 13.0035 34.6178 13.7504C34.3475 14.4974 33.7347 15.1276 32.7777 15.6373L28.9865 17.6642ZM27.8291 11.4823L29.5759 10.5486C30.0447 10.2977 30.3481 9.99619 30.4843 9.64411C30.6205 9.29203 30.5816 8.91661 30.3676 8.51784C30.1633 8.13658 29.8774 7.89927 29.5117 7.80979C29.146 7.72031 28.7161 7.80785 28.2201 8.07239L26.5005 8.99053L27.8291 11.4823ZM29.9319 15.4175L31.7954 14.4215C32.2914 14.157 32.6143 13.836 32.7641 13.4606C32.9138 13.0852 32.8788 12.6883 32.6551 12.2701C32.4275 11.8441 32.1066 11.5874 31.6884 11.4959C31.2721 11.4065 30.8208 11.4901 30.3345 11.7508L28.4982 12.7331L29.9319 15.4175Z" fill="#1B5162"/>
<path d="M43.5891 12.3091C42.5678 12.4706 41.64 12.3889 40.8055 12.0601C39.971 11.7333 39.2746 11.2081 38.7163 10.4826C38.1581 9.75895 37.7963 8.87583 37.6329 7.83515C37.4675 6.79447 37.5395 5.84327 37.8468 4.98155C38.1542 4.11982 38.6541 3.40594 39.3485 2.83794C40.041 2.26994 40.8989 1.90424 41.9201 1.74279C42.9316 1.58329 43.8575 1.66693 44.6959 1.99178C45.5343 2.31857 46.2306 2.84377 46.785 3.56933C47.3375 4.29489 47.6973 5.17801 47.8627 6.21869C48.028 7.25937 47.958 8.21058 47.6545 9.07035C47.3511 9.93013 46.8512 10.646 46.1528 11.214C45.4565 11.7839 44.6006 12.1496 43.5891 12.3091ZM43.3245 10.6304C44.2971 10.4767 45.0227 10.0332 45.4992 9.29989C45.9758 8.56655 46.1275 7.64063 45.9505 6.52214C45.7735 5.40365 45.3456 4.56916 44.6648 4.01867C43.9839 3.46818 43.1572 3.26977 42.1846 3.42344C41.212 3.57711 40.4845 4.02062 40.0021 4.7559C39.5197 5.48924 39.368 6.4171 39.5431 7.53559C39.7201 8.65408 40.15 9.48857 40.8366 10.0391C41.5233 10.5896 42.3519 10.7841 43.3245 10.6304Z" fill="#1B5162"/>
<path d="M51.9336 11.6029L53.7154 1.41589L57.8042 2.13173C58.8624 2.31652 59.6269 2.70361 60.0976 3.29106C60.5703 3.87851 60.7395 4.55544 60.6053 5.32185C60.4925 5.96182 60.2318 6.44423 59.8194 6.76713C59.407 7.09004 58.9421 7.27678 58.4247 7.32541C58.9869 7.54327 59.4168 7.91675 59.7144 8.4439C60.012 8.97104 60.1073 9.54099 60.0003 10.1518C59.8603 10.9571 59.4518 11.5698 58.7787 11.9919C58.1057 12.414 57.2343 12.5308 56.1683 12.344L51.9336 11.6029ZM54.0597 10.4144L56.1411 10.7781C56.6935 10.8754 57.1467 10.8209 57.4969 10.6186C57.847 10.4144 58.0629 10.0798 58.1446 9.6149C58.2283 9.14028 58.1329 8.73762 57.8606 8.41083C57.5883 8.08403 57.1798 7.87201 56.6371 7.77669L54.5849 7.41683L54.0597 10.4144ZM54.83 6.02018L56.781 6.36059C57.3043 6.45201 57.7283 6.40144 58.0532 6.20886C58.3761 6.01629 58.5784 5.69533 58.6562 5.24988C58.7301 4.82388 58.6523 4.46207 58.4189 4.1664C58.1855 3.87073 57.7925 3.67427 57.2401 3.57701L55.3182 3.24049L54.83 6.02018Z" fill="#1B5162"/>
<path d="M62 13.6512L70.2048 6.30609L72.082 7.30787L70.5511 18.2127L68.779 17.2673L69.1758 14.7658L65.6181 12.8672L63.7487 14.5829L62 13.6512ZM66.7677 11.8091L69.4132 13.2213L70.1076 8.71814L66.7677 11.8091Z" fill="#1B5162"/>
<path d="M21.2295 86.0457L26.7694 77.5218L30.191 79.7452C31.0761 80.3209 31.6188 80.9648 31.8192 81.6787C32.0195 82.3926 31.9106 83.0695 31.4943 83.7114C31.1461 84.2463 30.724 84.5809 30.226 84.7151C29.73 84.8494 29.2379 84.8377 28.7496 84.6821C29.1737 85.0964 29.4188 85.5983 29.4849 86.1896C29.551 86.7809 29.4168 87.3314 29.0861 87.843C28.6485 88.5161 28.0435 88.9148 27.2713 89.0354C26.499 89.158 25.6665 88.9284 24.7736 88.3468L21.2295 86.0457ZM23.6124 85.7928L25.3533 86.9249C25.8163 87.2264 26.2442 87.3509 26.641 87.3022C27.0359 87.2536 27.3608 87.0338 27.6136 86.6448C27.8723 86.2479 27.9404 85.8472 27.8218 85.4465C27.7012 85.0458 27.4152 84.6957 26.96 84.402L25.2424 83.2854L23.6124 85.7928ZM26.003 82.1163L27.635 83.1765C28.0727 83.4624 28.4754 83.5791 28.843 83.5286C29.2106 83.478 29.516 83.2679 29.7572 82.8944C29.9887 82.5365 30.0568 82.1805 29.9595 81.8226C29.8623 81.4647 29.5822 81.136 29.1192 80.8345L27.5125 79.7899L26.003 82.1163Z" fill="#1B5162"/>
<path d="M32.7935 92.531L35.7327 82.7991L39.306 83.8787C40.0841 84.1141 40.6871 84.4389 41.1111 84.8572C41.5371 85.2734 41.8056 85.7442 41.9203 86.2694C42.0351 86.7946 42.0098 87.3314 41.8445 87.878C41.6655 88.4713 41.3465 88.9674 40.8874 89.3642C40.4284 89.761 39.837 89.973 39.1115 89.9964L39.8973 94.6785L37.8529 94.0618L37.2052 89.6793L35.7307 89.2338L34.5714 93.0717L32.7935 92.531ZM36.1275 87.9228L37.8101 88.4305C38.4034 88.6094 38.8819 88.5978 39.2476 88.3935C39.6114 88.1912 39.8662 87.8528 40.0082 87.3801C40.1483 86.9171 40.123 86.5047 39.9343 86.1449C39.7456 85.785 39.3449 85.5127 38.7321 85.3259L37.0632 84.8221L36.1275 87.9228Z" fill="#1B5162"/>
<path d="M45.5503 95.4682L45.7682 85.3046L52.4032 85.4466L52.3702 86.9424L47.5928 86.8393L47.5325 89.6268L51.8741 89.7202L51.843 91.1713L47.5013 91.0779L47.4391 94.0113L52.2165 94.1144L52.1834 95.6102L45.5503 95.4682Z" fill="#1B5162"/>
<path d="M57.3965 95.1745L58.338 84.3903L60.3571 83.8456L66.5953 92.6924L64.689 93.2079L63.2904 91.1479L59.4623 92.1808L59.2755 94.6687L57.3965 95.1745ZM59.5751 90.6441L62.4209 89.8758L59.8902 86.1818L59.5751 90.6441Z" fill="#1B5162"/>
<path d="M71.6078 90.3115L66.1865 81.7099L67.7582 80.7178L69.9505 84.1958L70.9406 78.7123L72.8819 77.4888L71.8646 82.9023L78.3888 86.036L76.4591 87.2517L71.493 84.8202L71.2343 86.2363L73.1776 89.3214L71.6078 90.3115Z" fill="#1B5162"/>
<path d="M83.501 28.569C85.6765 28.569 87.4401 26.8054 87.4401 24.6299C87.4401 22.4545 85.6765 20.6909 83.501 20.6909C81.3256 20.6909 79.562 22.4545 79.562 24.6299C79.562 26.8054 81.3256 28.569 83.501 28.569Z" fill="#7D5319"/>
<path d="M83.5279 20.6909C84.9148 20.6909 86.1305 21.4087 86.8328 22.4902C86.2161 22.0895 85.4808 21.8541 84.6892 21.8541C82.5125 21.8541 80.7462 23.6184 80.7462 25.7971C80.7462 26.5888 80.9816 27.324 81.3823 27.9407C80.3008 27.2385 79.583 26.0208 79.583 24.6358C79.585 22.4552 81.3512 20.6909 83.5279 20.6909Z" fill="#BD802B"/>
<path d="M91.0054 49.2523C93.1809 49.2523 94.9445 47.4888 94.9445 45.3133C94.9445 43.1378 93.1809 41.3743 91.0054 41.3743C88.83 41.3743 87.0664 43.1378 87.0664 45.3133C87.0664 47.4888 88.83 49.2523 91.0054 49.2523Z" fill="#7D5319"/>
<path d="M86.2886 71.6377C88.4641 71.6377 90.2277 69.8741 90.2277 67.6987C90.2277 65.5232 88.4641 63.7596 86.2886 63.7596C84.1132 63.7596 82.3496 65.5232 82.3496 67.6987C82.3496 69.8741 84.1132 71.6377 86.2886 71.6377Z" fill="#7D5319"/>
<path d="M93.6625 48.2001C92.6451 49.126 91.2757 49.4119 90.0366 49.0871C90.7563 48.9684 91.4527 48.6513 92.0343 48.1223C93.6313 46.6692 93.7481 44.1968 92.295 42.5998C91.7659 42.0202 91.1026 41.637 90.3965 41.4522C91.6589 41.246 92.9972 41.6603 93.9212 42.6757C95.3762 44.2747 95.2595 46.747 93.6625 48.2001Z" fill="#BD802B"/>
<path d="M84.5219 71.2272C83.277 70.6106 82.5028 69.4279 82.353 68.1441C82.7285 68.7782 83.2848 69.3171 83.9948 69.6691C85.9497 70.6359 88.3189 69.8364 89.2877 67.8796C89.6397 67.1696 89.7545 66.4031 89.6689 65.6718C90.3283 66.7844 90.4314 68.1947 89.8148 69.4396C88.848 71.3945 86.4788 72.196 84.5219 71.2272Z" fill="#BD802B"/>
<path d="M14.775 28.569C16.9504 28.569 18.714 26.8055 18.714 24.63C18.714 22.4545 16.9504 20.691 14.775 20.691C12.5995 20.691 10.8359 22.4545 10.8359 24.63C10.8359 26.8055 12.5995 28.569 14.775 28.569Z" fill="#7D5319"/>
<path d="M14.7473 20.6909C13.3603 20.6909 12.1446 21.4087 11.4424 22.4902C12.059 22.0895 12.7943 21.8541 13.586 21.8541C15.7627 21.8541 17.5289 23.6184 17.5289 25.7971C17.5289 26.5888 17.2935 27.324 16.8928 27.9407C17.9744 27.2385 18.6921 26.0208 18.6921 24.6358C18.6902 22.4552 16.924 20.6909 14.7473 20.6909Z" fill="#BD802B"/>
<path d="M7.27057 49.2523C9.44603 49.2523 11.2096 47.4888 11.2096 45.3133C11.2096 43.1378 9.44603 41.3743 7.27057 41.3743C5.09511 41.3743 3.33154 43.1378 3.33154 45.3133C3.33154 47.4888 5.09511 49.2523 7.27057 49.2523Z" fill="#7D5319"/>
<path d="M11.9874 71.6377C14.1628 71.6377 15.9264 69.8741 15.9264 67.6987C15.9264 65.5232 14.1628 63.7596 11.9874 63.7596C9.8119 63.7596 8.04834 65.5232 8.04834 67.6987C8.04834 69.8741 9.8119 71.6377 11.9874 71.6377Z" fill="#7D5319"/>
<path d="M4.61315 48.2001C5.63049 49.126 6.99991 49.4119 8.239 49.0871C7.51928 48.9684 6.8229 48.6513 6.24128 48.1223C4.64427 46.6692 4.52756 44.1968 5.98062 42.5998C6.50972 42.0202 7.17303 41.637 7.87914 41.4522C6.6167 41.246 5.27841 41.6603 4.35444 42.6757C2.89943 44.2747 3.01614 46.747 4.61315 48.2001Z" fill="#BD802B"/>
<path d="M13.7538 71.2272C14.9987 70.6106 15.7729 69.4279 15.9227 68.1441C15.5472 68.7782 14.9909 69.3171 14.2809 69.6691C12.326 70.6359 9.95675 69.8364 8.98804 67.8796C8.63596 67.1696 8.52119 66.4031 8.60678 65.6718C7.94736 66.7844 7.84426 68.1947 8.46089 69.4396C9.42765 71.3945 11.7969 72.196 13.7538 71.2272Z" fill="#BD802B"/>
<path d="M46.3671 31.6172H31.8403L32.4297 36.2021H46.3671V31.6172Z" fill="#FABFBA"/>
<path d="M52.4668 31.6172V36.2021H66.0404L66.6609 31.6172H52.4668Z" fill="#FABFBA"/>
<path d="M52.4672 68.3056H46.367V36.2021H32.4297L37.2051 73.3495H61.0008L66.0408 36.2021H52.4672V68.3056Z" fill="#FF9E94"/>
<path d="M52.4649 20.9478H46.3667V31.6192H52.4649V20.9478Z" fill="#BD2B26"/>
<path d="M52.4649 31.6172H46.3667V36.2001H52.4649V31.6172Z" fill="#BD2B26"/>
<path d="M52.4649 36.2021H46.3667V68.3056H52.4649V36.2021Z" fill="#FF5F46"/>
</svg>
