<svg width="94" height="95" viewBox="0 0 94 95" fill="none" xmlns="http://www.w3.org/2000/svg">
<path d="M73.6961 48.1265C73.6961 33.4539 61.8245 21.5571 47.1655 21.5104V74.7446C61.8245 74.694 73.6961 62.7972 73.6961 48.1265Z" fill="#FFAB00"/>
<path d="M47.0756 21.5064C32.3738 21.5064 20.4575 33.4246 20.4575 48.1264C20.4575 62.8283 32.3757 74.7445 47.0756 74.7445C47.1048 74.7445 47.134 74.7426 47.1631 74.7426V21.5084C47.134 21.5084 47.1048 21.5064 47.0756 21.5064Z" fill="#FFDB96"/>
<path d="M14.2998 31.4271L4.11475 28.1591L5.20406 26.4532L13.1405 29.3165L7.38462 23.0433L8.507 21.2887L16.5854 23.9283L10.6545 17.9274L11.7535 16.2098L18.9547 24.1442L17.7448 26.0369L10.1779 23.6365L15.5 29.5461L14.2998 31.4271Z" fill="#1B5162"/>
<path d="M22.9636 20.1118L16.7896 11.8155L22.2069 7.7851L23.1153 9.00668L19.2152 11.907L20.9095 14.1829L24.4536 11.5452L25.3348 12.7298L21.7907 15.3675L23.5725 17.762L27.4726 14.8598L28.381 16.0814L22.9636 20.1118Z" fill="#1B5162"/>
<path d="M31.4582 14.4571L27.7876 4.7895L29.5558 4.11841L32.7031 12.405L36.9845 10.7788L37.5097 12.1599L31.4582 14.4571Z" fill="#1B5162"/>
<path d="M40.8072 11.4499L39.8716 1.15006L41.7545 0.978882L42.556 9.80619L47.1174 9.39186L47.2517 10.8624L40.8072 11.4499Z" fill="#1B5162"/>
<path d="M50.5718 10.9208L52.7387 0.809631L54.5886 1.20645L57.8157 9.34711L59.3407 2.22574L61.1887 2.62256L59.0217 12.7298L57.1738 12.333L53.9428 4.20789L52.4197 11.3156L50.5718 10.9208Z" fill="#1B5162"/>
<path d="M62.356 14.1868L67.5068 5.21942L73.3599 8.58267L72.6013 9.90151L68.3861 7.47974L66.9739 9.93847L70.804 12.1385L70.0687 13.4204L66.2386 11.2204L64.7524 13.8075L68.9677 16.2292L68.2091 17.5481L62.356 14.1868Z" fill="#1B5162"/>
<path d="M73.2509 22.3645C72.7257 21.8179 72.3562 21.2441 72.1422 20.6449C71.9282 20.0458 71.8796 19.4545 72.0002 18.8768C72.1208 18.2971 72.4281 17.7622 72.9261 17.27L74.3072 18.7075C73.9726 19.0557 73.8014 19.4642 73.7917 19.9311C73.782 20.3979 73.9784 20.8395 74.3811 21.2596C74.7293 21.6214 75.093 21.8257 75.4704 21.8724C75.8497 21.919 76.1843 21.8023 76.4761 21.5222C76.7815 21.2285 76.9293 20.9056 76.9196 20.5535C76.9099 20.2014 76.8068 19.8182 76.6142 19.4039C76.4197 18.9896 76.2135 18.5461 75.9937 18.0753C75.6396 17.3089 75.4743 16.6242 75.4977 16.0231C75.521 15.4201 75.7914 14.8716 76.3088 14.3736C76.7426 13.9437 77.2211 13.685 77.7463 13.5975C78.2696 13.51 78.8006 13.5722 79.3355 13.7803C79.8705 13.9904 80.3743 14.3386 80.845 14.8288C81.3235 15.3268 81.6542 15.85 81.8429 16.4005C82.0296 16.951 82.0685 17.4879 81.9577 18.0111C81.8468 18.5344 81.5764 19.0149 81.1504 19.4525L79.7479 17.9936C80.0027 17.7349 80.1389 17.4101 80.1545 17.0191C80.17 16.6301 80.0086 16.2605 79.6759 15.9123C79.3958 15.6069 79.0827 15.426 78.7364 15.3715C78.3882 15.3151 78.0692 15.4279 77.7794 15.708C77.5304 15.9473 77.4078 16.2138 77.4137 16.5094C77.4176 16.8051 77.5012 17.1358 77.6607 17.5015C77.8202 17.8672 78.0108 18.2776 78.2307 18.7348C78.4582 19.2269 78.6333 19.7074 78.7559 20.1761C78.8784 20.6449 78.8881 21.1079 78.785 21.5611C78.6819 22.0144 78.4096 22.454 77.97 22.8761C77.579 23.2515 77.1219 23.5005 76.5967 23.6211C76.0715 23.7436 75.521 23.7047 74.9433 23.5102C74.3578 23.3138 73.7956 22.9325 73.2509 22.3645Z" fill="#1B5162"/>
<path d="M79.2559 30.8125C78.9077 30.1394 78.7152 29.4839 78.6802 28.8478C78.6451 28.2117 78.7677 27.6321 79.0459 27.1107C79.326 26.5894 79.7734 26.1634 80.39 25.8328L81.3062 27.6048C80.886 27.8441 80.6059 28.1864 80.4639 28.6299C80.3219 29.0754 80.3842 29.5539 80.6526 30.0713C80.8841 30.5168 81.1739 30.8164 81.524 30.9681C81.8742 31.1198 82.2282 31.1023 82.5861 30.9175C82.9615 30.723 83.195 30.4545 83.2864 30.1141C83.3759 29.7737 83.3875 29.3769 83.3195 28.9237C83.2514 28.4704 83.1794 27.988 83.1016 27.4726C82.979 26.6381 83.016 25.9339 83.2086 25.364C83.4012 24.7921 83.8174 24.3427 84.4554 24.012C84.9923 23.7222 85.5253 23.6113 86.0525 23.6755C86.5796 23.7417 87.0698 23.9498 87.525 24.3038C87.9782 24.6559 88.3614 25.1344 88.6746 25.7394C88.9917 26.3521 89.1609 26.9493 89.1842 27.529C89.2076 28.1106 89.0909 28.6358 88.836 29.1065C88.5812 29.5773 88.1863 29.9605 87.6534 30.26L86.7236 28.4627C87.0426 28.2856 87.2643 28.0133 87.3888 27.6437C87.5133 27.2741 87.4647 26.8754 87.2429 26.4455C87.062 26.074 86.813 25.8114 86.496 25.6596C86.1789 25.5079 85.8404 25.5235 85.4825 25.7102C85.1752 25.8678 84.9826 26.0895 84.9028 26.3755C84.8231 26.6614 84.8075 27.0018 84.8581 27.3967C84.9067 27.7916 84.9729 28.2409 85.0546 28.7428C85.1324 29.2796 85.1635 29.7893 85.1479 30.2736C85.1324 30.758 85.0098 31.2034 84.7822 31.61C84.5547 32.0165 84.1695 32.3589 83.6268 32.6409C83.1463 32.8899 82.6367 32.9989 82.0979 32.9658C81.559 32.9327 81.0416 32.7421 80.5437 32.39C80.0496 32.0379 79.6177 31.5108 79.2559 30.8125Z" fill="#1B5162"/>
<path d="M2.12842 61.6904L10.5336 55.3724L11.2825 57.2164L4.47822 61.9588L12.7823 60.9026L13.5545 62.7991L6.84941 67.7847L15.0329 66.4328L15.7876 68.2885L5.33021 69.5626L4.49767 67.5182L10.7204 62.8089L2.95513 63.7251L2.12842 61.6904Z" fill="#1B5162"/>
<path d="M10.0273 76.7735L17.6175 70.0101L22.0331 74.9664L20.9166 75.9624L17.7381 72.3949L15.6567 74.2506L18.5454 77.4932L17.4619 78.46L14.5733 75.2174L12.383 77.1684L15.5614 80.7359L14.4449 81.7318L10.0273 76.7735Z" fill="#1B5162"/>
<path d="M18.8916 85.6164L24.2642 76.9855L27.2112 78.8199C28.2227 79.4501 28.9424 80.1465 29.3743 80.9109C29.8061 81.6754 29.9773 82.4788 29.8936 83.321C29.8081 84.1633 29.4949 85.0192 28.9522 85.8907C28.4095 86.7621 27.7792 87.4215 27.0614 87.8689C26.3437 88.3163 25.5461 88.5167 24.6708 88.468C23.7954 88.4194 22.852 88.079 21.8405 87.4507L18.8916 85.6164ZM21.3134 85.2429L22.6089 86.0482C23.3325 86.4976 23.9764 86.7368 24.5405 86.764C25.1065 86.7913 25.6162 86.6415 26.0694 86.3128C26.5246 85.986 26.9447 85.5094 27.3338 84.885C27.717 84.2684 27.9582 83.6828 28.0535 83.1265C28.1488 82.5702 28.0613 82.043 27.7909 81.5431C27.5205 81.0432 27.0225 80.5686 26.2989 80.1192L25.0034 79.3139L21.3134 85.2429Z" fill="#1B5162"/>
<path d="M31.7964 92.5004L34.2298 82.6304L36.035 83.0759L38.9606 91.1718L40.6743 84.2197L42.4794 84.6651L40.046 94.537L38.2408 94.0915L35.3114 86.0092L33.6015 92.9478L31.7964 92.5004Z" fill="#1B5162"/>
<path d="M46.17 94.9728L45.6973 84.8169L52.3265 84.5076L52.3965 86.0015L47.623 86.2233L47.7533 89.0088L52.0911 88.8065L52.1592 90.2576L47.8214 90.4599L47.9576 93.3914L52.7311 93.1696L52.8011 94.6635L46.17 94.9728Z" fill="#1B5162"/>
<path d="M61.8425 92.7163C61.1325 92.9459 60.4672 93.0276 59.8448 92.9595C59.2223 92.8914 58.6796 92.6813 58.2186 92.3273C57.7576 91.9733 57.4152 91.4714 57.1954 90.8198L59.0609 90.2148C59.2262 90.6603 59.5121 90.9871 59.9206 91.1952C60.3291 91.4033 60.8057 91.4189 61.3484 91.2438C61.8172 91.0921 62.1537 90.8567 62.358 90.5416C62.5603 90.2265 62.6011 89.8802 62.4786 89.5029C62.3502 89.106 62.1284 88.8376 61.8114 88.6956C61.4962 88.5536 61.113 88.4797 60.6618 88.4739C60.2124 88.468 59.73 88.4602 59.2204 88.4544C58.3917 88.4388 57.7148 88.293 57.1915 88.0148C56.6683 87.7366 56.2987 87.262 56.0789 86.589C55.8843 86.021 55.861 85.486 56.0088 84.9861C56.1567 84.4862 56.4387 84.0427 56.8531 83.6575C57.2674 83.2743 57.7926 82.9787 58.4287 82.7725C59.0725 82.5624 59.6794 82.4943 60.2474 82.5643C60.8154 82.6344 61.3056 82.8308 61.7219 83.1537C62.1362 83.4766 62.4474 83.9202 62.6517 84.4862L60.759 85.1009C60.6384 84.7624 60.4108 84.5037 60.0724 84.3247C59.7339 84.1438 59.339 84.1283 58.8877 84.2742C58.4987 84.3909 58.205 84.5912 58.0066 84.8733C57.8082 85.1554 57.7712 85.486 57.8937 85.8634C57.9988 86.1863 58.1836 86.4081 58.4462 86.5306C58.7107 86.6532 59.0375 86.7232 59.4304 86.7387C59.8214 86.7543 60.2669 86.7621 60.7668 86.7621C61.2998 86.7718 61.7997 86.8243 62.2665 86.9158C62.7334 87.0091 63.1477 87.1978 63.5037 87.4838C63.8616 87.7697 64.132 88.1976 64.3187 88.7695C64.4841 89.2753 64.5074 89.7869 64.3907 90.3043C64.274 90.8217 64.0036 91.2925 63.5834 91.7204C63.1574 92.1445 62.5797 92.4771 61.8425 92.7163Z" fill="#1B5162"/>
<path d="M70.428 88.9213L64.6313 80.5686L67.483 78.5904C68.4614 77.9115 69.3874 77.5263 70.2588 77.433C71.1322 77.3396 71.9375 77.4991 72.6767 77.9115C73.4159 78.3239 74.0792 78.9502 74.6627 79.7944C75.2482 80.6367 75.6042 81.477 75.7306 82.3154C75.8571 83.1518 75.7248 83.963 75.3338 84.7489C74.9409 85.5328 74.2562 86.2661 73.2778 86.945L70.428 88.9213ZM71.0447 86.5501L72.2974 85.6806C72.9976 85.1943 73.4723 84.6983 73.7193 84.1886C73.9683 83.6809 74.0325 83.1518 73.9119 82.6052C73.7913 82.0586 73.5209 81.4829 73.1027 80.8779C72.6884 80.2807 72.2449 79.8294 71.7722 79.5202C71.2995 79.2128 70.7801 79.0844 70.2141 79.135C69.648 79.1856 69.0158 79.454 68.3156 79.9403L67.0628 80.8098L71.0447 86.5501Z" fill="#1B5162"/>
<path d="M81.4242 80.3468L75.6372 71.1985L76.9133 69.5412L87.2364 72.7975L86.0304 74.3633L83.6709 73.5717L81.251 76.7131L82.6107 78.8042L81.4242 80.3468ZM80.4127 75.4254L82.212 73.0892L77.9598 71.6848L80.4127 75.4254Z" fill="#1B5162"/>
<path d="M90.701 65.4369L87.3183 64.157L79.9849 65.0323L80.7299 63.0618L85.9138 62.6144L82.3172 58.8641L83.0524 56.9208L87.9777 62.416L91.3604 63.696L90.701 65.4369Z" fill="#1B5162"/>
<path d="M31.5845 49.9939C31.5845 58.5508 38.521 65.4874 47.078 65.4874C55.6349 65.4874 62.5715 58.5508 62.5715 49.9939" fill="white"/>
<path d="M38.8073 42.0944C36.0509 42.0944 33.8101 39.8516 33.8101 37.0972H35.2767C35.2767 39.0443 36.8601 40.6277 38.8073 40.6277C40.7544 40.6277 42.3378 39.0443 42.3378 37.0972H43.8045C43.8045 39.8516 41.5617 42.0944 38.8073 42.0944Z" fill="#FFAB00"/>
<path d="M60.222 41.361H58.7553C58.7553 39.4139 57.1719 37.8305 55.2248 37.8305C53.2776 37.8305 51.6942 39.4139 51.6942 41.361H50.2275C50.2275 38.6047 52.4704 36.3638 55.2248 36.3638C57.9792 36.3638 60.222 38.6047 60.222 41.361Z" fill="white"/>
<path d="M9.4569 45.1444L5.1875 40.875L0.918105 45.1444L5.1875 49.4138L9.4569 45.1444Z" fill="#FF6952"/>
<path d="M3.01311 45.9926C4.67721 45.9926 6.02622 44.6436 6.02622 42.9795C6.02622 41.3154 4.67721 39.9664 3.01311 39.9664C1.34902 39.9664 0 41.3154 0 42.9795C0 44.6436 1.34902 45.9926 3.01311 45.9926Z" fill="#FF6952"/>
<path d="M7.36663 45.9926C9.03072 45.9926 10.3797 44.6436 10.3797 42.9795C10.3797 41.3154 9.03072 39.9664 7.36663 39.9664C5.70253 39.9664 4.35352 41.3154 4.35352 42.9795C4.35352 44.6436 5.70253 45.9926 7.36663 45.9926Z" fill="#FF6952"/>
<path d="M92.9466 45.1441L88.6772 40.8747L84.4079 45.1441L88.6772 49.4135L92.9466 45.1441Z" fill="#FF6952"/>
<path d="M86.5038 45.9925C88.1679 45.9925 89.5169 44.6435 89.5169 42.9794C89.5169 41.3153 88.1679 39.9663 86.5038 39.9663C84.8397 39.9663 83.4907 41.3153 83.4907 42.9794C83.4907 44.6435 84.8397 45.9925 86.5038 45.9925Z" fill="#FF6952"/>
<path d="M90.8573 45.9926C92.5214 45.9926 93.8705 44.6436 93.8705 42.9795C93.8705 41.3154 92.5214 39.9664 90.8573 39.9664C89.1933 39.9664 87.8442 41.3154 87.8442 42.9795C87.8442 44.6436 89.1933 45.9926 90.8573 45.9926Z" fill="#FF6952"/>
</svg>
