<svg width="64" height="64" viewBox="0 0 64 64" fill="none" xmlns="http://www.w3.org/2000/svg">
<rect width="64" height="64" fill="#EEEDE9"/>
<path d="M64 64V31.6593L1.52588e-05 31.6593V64L64 64Z" fill="#FF5F46"/>
<path d="M32 50C41.9411 50 50 41.9411 50 32C50 22.0589 41.9411 14 32 14C22.0589 14 14 22.0589 14 32C14 41.9411 22.0589 50 32 50Z" fill="#FF5F46"/>
<path d="M24.19 0V5.71872C22.399 6.25871 20.6673 6.97807 19.0212 7.86582L14.9688 3.82968L3.83524 14.9574L7.87724 18.9936C6.98705 20.6367 6.26661 22.366 5.72703 24.1548H0V39.8348H5.72703C6.26548 41.6406 6.98589 43.3871 7.87724 45.0477L3.83524 49.0839L14.9275 60.1703L18.9798 56.1239C20.6218 57.0201 22.3545 57.7398 24.1486 58.271V64H39.8514V58.3122C41.6453 57.7805 43.3779 57.0608 45.0202 56.1651L49.0622 60.2116L60.1544 49.1252L56.1124 45.089C57.0084 43.4306 57.729 41.6836 58.2626 39.8761H64V24.1652H58.2626C57.7278 22.3747 57.0071 20.6449 56.1124 19.0039L60.1544 14.9677L49.0622 3.8813L45.0202 7.91742C43.3737 7.03056 41.642 6.31125 39.8514 5.77033V0.051616L24.19 0ZM32.0465 49.5484C28.5707 49.5484 25.173 48.5192 22.283 46.591C19.393 44.6627 17.1405 41.922 15.8104 38.7155C14.4802 35.5089 14.1322 31.9805 14.8103 28.5765C15.4884 25.1724 17.1622 22.0456 19.6199 19.5914C22.0777 17.1372 25.209 15.4659 28.618 14.7888C32.027 14.1117 35.5606 14.4592 38.7718 15.7874C41.983 17.1156 44.7276 19.3648 46.6587 22.2506C48.5897 25.1365 49.6204 28.5292 49.6204 32C49.6204 36.6541 47.7689 41.1176 44.4732 44.4086C41.1774 47.6995 36.7074 49.5484 32.0465 49.5484Z" fill="#143D4A"/>
<path d="M31.9895 14.4825V35.6025H14.854L31.9895 14.4825Z" fill="white"/>
<path d="M31.9897 49.5071V28.3871H49.1252L31.9897 49.5071Z" fill="white"/>
</svg>
