<svg width="90" height="95" viewBox="0 0 90 95" fill="none" xmlns="http://www.w3.org/2000/svg">
<path d="M27.2075 91.0306L30.6077 81.3961L34.2647 82.6877C35.2101 83.0222 35.85 83.5085 36.1866 84.1466C36.5211 84.7865 36.562 85.4674 36.3052 86.1929C36.0912 86.7979 35.7664 87.2278 35.3307 87.4826C34.8949 87.7355 34.432 87.8502 33.9457 87.8211C34.4281 88.1148 34.7607 88.5388 34.9455 89.0952C35.1303 89.6515 35.1206 90.2175 34.9163 90.7953C34.6479 91.5578 34.1655 92.0927 33.4691 92.4059C32.7727 92.7171 31.948 92.7054 30.9948 92.3689L27.2075 91.0306ZM29.3784 90.1864L31.2399 90.8439C31.734 91.019 32.1619 91.0326 32.5199 90.8847C32.8797 90.7389 33.1365 90.4451 33.2921 90.0036C33.4516 89.5542 33.4322 89.1496 33.2357 88.7917C33.0392 88.4338 32.6988 88.1692 32.2125 87.9981L30.3782 87.3503L29.3784 90.1864ZM30.845 86.0295L32.5899 86.6462C33.0587 86.8115 33.4594 86.8232 33.792 86.6831C34.1246 86.5431 34.3659 86.261 34.5137 85.8389C34.6557 85.4343 34.646 85.0725 34.4806 84.7515C34.3153 84.4306 33.9865 84.1816 33.4925 84.0085L31.7748 83.4016L30.845 86.0295Z" fill="#1B5162"/>
<path d="M39.0635 94.4678L42.8197 84.3314L44.8076 84.3742L48.1164 94.6662L46.2393 94.6253L45.5176 92.2444L41.7498 92.1627L40.9114 94.5086L39.0635 94.4678ZM42.2672 90.7136L45.0683 90.7739L43.7533 86.4964L42.2672 90.7136Z" fill="#1B5162"/>
<path d="M53.5398 93.75L50.5947 83.9676L53.991 82.9444C54.7302 82.7207 55.3819 82.6702 55.9421 82.7908C56.5023 82.9114 56.9691 83.1623 57.3426 83.5435C57.7161 83.9248 57.9865 84.3897 58.1518 84.9383C58.3308 85.5354 58.3483 86.1248 58.2005 86.7064C58.0546 87.29 57.7005 87.786 57.1442 88.1984L60.2935 91.7173L58.3502 92.3028L55.4713 88.9609L54.0708 89.383L55.2321 93.2404L53.5398 93.75ZM53.674 88.07L55.2729 87.5896C55.837 87.4203 56.2066 87.1499 56.3856 86.7823C56.5645 86.4147 56.5801 85.9926 56.4362 85.516C56.2961 85.0511 56.053 84.7165 55.7106 84.5161C55.3663 84.3158 54.9033 84.3022 54.3217 84.4772L52.7364 84.9538L53.674 88.07Z" fill="#1B5162"/>
<path d="M72.3553 83.4111C74.1682 82.0747 75.1466 80.1393 74.8159 78.7582L67.3911 84.2378C68.494 85.047 70.5423 84.7474 72.3553 83.4111Z" fill="#FFAB00"/>
<path d="M69.1303 78.4878C67.3173 79.8242 66.3389 81.7596 66.6696 83.1407L74.0944 77.6611C72.9915 76.8519 70.9432 77.1495 69.1303 78.4878Z" fill="#FFAB00"/>
<path d="M85.6844 66.7408C86.6725 64.6691 86.6472 62.4905 85.7233 61.4498L81.6792 69.9406C83.0253 70.0982 84.6962 68.8143 85.6844 66.7408Z" fill="#FFAB00"/>
<path d="M80.5783 64.0506C79.5901 66.1222 79.6154 68.3008 80.5394 69.3415L84.5835 60.8507C83.2393 60.6951 81.5665 61.979 80.5783 64.0506Z" fill="#FFAB00"/>
<path d="M89.8878 45.9095C89.9033 43.5967 88.9658 41.6729 87.6975 41.1885L87.6313 50.6617C88.9074 50.1598 89.8722 48.2224 89.8878 45.9095Z" fill="#FFAB00"/>
<path d="M84.1647 45.9526C84.1492 48.2655 85.0868 50.1893 86.355 50.6736L86.4212 41.2005C85.1432 41.7024 84.1803 43.6398 84.1647 45.9526Z" fill="#FFAB00"/>
<path d="M17.5341 83.4113C15.7212 82.0749 14.7427 80.1395 15.0734 78.7584L22.4982 84.238C21.3953 85.0472 19.3451 84.7476 17.5341 83.4113Z" fill="#FFAB00"/>
<path d="M20.7576 78.4879C22.5705 79.8243 23.549 81.7598 23.2183 83.1408L15.7935 77.6612C16.8964 76.852 18.9466 77.1496 20.7576 78.4879Z" fill="#FFAB00"/>
<path d="M4.20526 66.7408C3.2171 64.6692 3.24239 62.4906 4.16636 61.4499L8.21042 69.9407C6.86435 70.0982 5.19148 68.8144 4.20526 66.7408Z" fill="#FFAB00"/>
<path d="M9.30936 64.0506C10.2975 66.1222 10.2722 68.3008 9.34827 69.3415L5.3042 60.8507C6.65028 60.6951 8.32315 61.979 9.30936 64.0506Z" fill="#FFAB00"/>
<path d="M0.00019089 45.9096C-0.0153707 43.5968 0.922215 41.673 2.19048 41.1886L2.25662 50.6617C0.980571 50.1599 0.0176977 48.2224 0.00019089 45.9096Z" fill="#FFAB00"/>
<path d="M5.72469 45.9524C5.74025 48.2653 4.80267 50.1891 3.5344 50.6734L3.46826 41.2003C4.74431 41.7022 5.70913 43.6396 5.72469 45.9524Z" fill="#FFAB00"/>
<path d="M59.6088 46.5595C54.5104 46.5595 50.3613 42.2022 50.3613 36.8471C50.3613 31.4919 54.5104 27.1347 59.6088 27.1347C64.7072 27.1347 68.8563 31.4919 68.8563 36.8471C68.8563 42.2022 64.7091 46.5595 59.6088 46.5595ZM59.6088 29.4709C55.7962 29.4709 52.6956 32.7797 52.6956 36.849C52.6956 40.9184 55.7962 44.2272 59.6088 44.2272C63.4214 44.2272 66.522 40.9184 66.522 36.849C66.522 32.7797 63.4214 29.4709 59.6088 29.4709Z" fill="#42BA91"/>
<path d="M59.6088 55.9624C54.5104 55.9624 50.3613 51.6052 50.3613 46.25C50.3613 40.8949 54.5104 36.5377 59.6088 36.5377C64.7072 36.5377 68.8563 40.8949 68.8563 46.25C68.8563 51.6052 64.7091 55.9624 59.6088 55.9624ZM59.6088 38.8719C55.7962 38.8719 52.6956 42.1807 52.6956 46.25C52.6956 50.3194 55.7962 53.6282 59.6088 53.6282C63.4214 53.6282 66.522 50.3194 66.522 46.25C66.522 42.1807 63.4214 38.8719 59.6088 38.8719Z" fill="#095A35"/>
<path d="M43.2169 27.0978V61.415C34.1639 61.415 26.8247 53.6536 26.8247 44.0794V27.0978H43.2169Z" fill="#9ED6C4"/>
<path d="M59.6085 27.0978V44.0794C59.6085 53.6536 52.2693 61.415 43.2163 61.415V27.0978H59.6085Z" fill="#42BA91"/>
<path d="M43.2163 36.4366V70.7538C52.2693 70.7538 59.6085 62.9924 59.6085 53.4182V36.4366H43.2163Z" fill="#095A35"/>
<path d="M26.8247 36.4366V53.4182C26.8247 62.9924 34.1639 70.7538 43.2169 70.7538V36.4366H26.8247Z" fill="#00875C"/>
<path d="M30.9277 68.3633L30.9277 72.2673L55.5073 72.2673L55.5073 68.3633L30.9277 68.3633Z" fill="#095A35"/>
<path d="M10.0159 34.8455L0.618652 30.4066L2.30319 26.8391C2.73892 25.9171 3.29719 25.318 3.97995 25.0456C4.66272 24.7733 5.35716 24.8025 6.06326 25.1371C6.6546 25.4152 7.05531 25.7887 7.26734 26.2575C7.47937 26.7243 7.5455 27.2048 7.4677 27.695C7.81589 27.2379 8.27884 26.9441 8.86046 26.8158C9.44207 26.6874 10.014 26.7555 10.5781 27.022C11.3211 27.3721 11.8133 27.9167 12.0584 28.652C12.3015 29.3873 12.2043 30.2218 11.7646 31.1536L10.0159 34.8455ZM5.33187 30.6459L6.13523 28.9438C6.35115 28.4867 6.40562 28.0821 6.29669 27.732C6.1897 27.3818 5.92904 27.1075 5.51666 26.913C5.12373 26.7263 4.75414 26.701 4.41373 26.8333C4.07138 26.9675 3.78738 27.2748 3.55785 27.7572L2.76615 29.434L5.33187 30.6459ZM9.38566 32.5599L10.2435 30.7451C10.4711 30.2627 10.5294 29.8328 10.4186 29.4535C10.3077 29.0741 10.0373 28.7843 9.60741 28.582C9.16974 28.3758 8.75931 28.3525 8.3761 28.512C7.9929 28.6734 7.68945 28.9905 7.46575 29.4651L6.61959 31.2547L9.38566 32.5599Z" fill="#1B5162"/>
<path d="M14.9024 25.6739L7.1333 18.7704L9.52978 16.0724C10.0511 15.4849 10.588 15.094 11.1385 14.8994C11.689 14.7049 12.2258 14.6738 12.753 14.8041C13.2801 14.9344 13.7606 15.1932 14.1983 15.5803C14.6709 16.0004 14.9997 16.5023 15.1845 17.0858C15.3693 17.6694 15.3284 18.288 15.0639 18.9416L19.6682 20.309L18.2968 21.8516L14.0212 20.4938L13.0331 21.6065L16.0968 24.3278L14.9024 25.6739ZM11.9905 20.6806L13.1187 19.4103C13.5174 18.963 13.6945 18.5311 13.6517 18.1187C13.6089 17.7044 13.3988 17.3309 13.0214 16.9944C12.6518 16.6657 12.2628 16.5062 11.8582 16.5159C11.4536 16.5256 11.0451 16.761 10.6347 17.222L9.51617 18.4805L11.9905 20.6806Z" fill="#1B5162"/>
<path d="M22.129 18.325L16.5269 9.5716L21.9306 6.11304L22.7554 7.40076L18.865 9.89061L20.4017 12.291L23.9381 10.0287L24.7375 11.2795L21.2012 13.5417L22.8176 16.0686L26.708 13.5787L27.5328 14.8664L22.129 18.325Z" fill="#1B5162"/>
<path d="M29.8457 13.6176L30.4507 2.63696L32.3959 2.08258L38.7022 11.0908L36.8659 11.6141L35.4498 9.51713L31.7637 10.5695L31.6547 13.1021L29.8457 13.6176ZM31.8298 9.00554L34.5706 8.22357L32.0088 4.46156L31.8298 9.00554Z" fill="#1B5162"/>
<path d="M41.5112 10.9021L41.7505 0.512817L43.5479 0.553667L43.4506 4.75335L47.1815 0.635365L49.399 0.68594L45.6837 4.73001L49.259 11.0791L47.055 11.0286L44.359 6.15584L43.3942 7.21792L43.3086 10.943L41.5112 10.9021Z" fill="#1B5162"/>
<path d="M52.0132 11.6996L55.0555 1.76154L61.1225 3.6192L60.6752 5.08199L56.3257 3.74953L55.4737 6.53116L58.9906 7.6088L58.551 9.04241L55.0341 7.96477L53.7308 12.2228L52.0132 11.6996Z" fill="#1B5162"/>
<path d="M60.2529 14.3975L68.9771 7.7041L70.6636 8.8187L67.9384 19.4726L66.3453 18.4202L67.0144 15.979L63.8165 13.8684L61.8227 15.4343L60.2529 14.3975ZM65.0439 12.8997L67.4229 14.4695L68.6076 10.0753L65.0439 12.8997Z" fill="#1B5162"/>
<path d="M71.9184 24.1917C71.4574 23.6373 71.1501 23.0654 70.9983 22.4741C70.8466 21.8828 70.8563 21.307 71.0295 20.7487C71.2026 20.1904 71.5547 19.6828 72.0896 19.2256L73.3034 20.6806C72.9435 21.0055 72.7354 21.3945 72.6809 21.8478C72.6265 22.301 72.7762 22.7387 73.1303 23.1647C73.4357 23.5304 73.7722 23.7443 74.1379 23.8046C74.5036 23.8649 74.8421 23.7657 75.1552 23.5051C75.482 23.2327 75.6571 22.9254 75.6804 22.583C75.7038 22.2407 75.6415 21.8633 75.4917 21.4529C75.342 21.0405 75.1825 20.6028 75.0113 20.136C74.739 19.3754 74.6417 18.7043 74.7214 18.1188C74.8012 17.5353 75.1183 17.01 75.6727 16.549C76.1376 16.1483 76.6316 15.9168 77.1529 15.8546C77.6743 15.7924 78.1858 15.8741 78.6897 16.0997C79.1935 16.3253 79.6525 16.6871 80.0669 17.1832C80.487 17.687 80.7613 18.2102 80.8916 18.7529C81.0219 19.2957 81.0083 19.8189 80.8488 20.3247C80.6893 20.8285 80.38 21.2856 79.921 21.6921L78.6897 20.2157C78.9639 19.9745 79.1293 19.6633 79.1798 19.2859C79.2324 18.9066 79.1098 18.5429 78.8161 18.1908C78.571 17.8834 78.2831 17.6948 77.9485 17.6247C77.614 17.5566 77.2911 17.652 76.9798 17.9107C76.7133 18.1324 76.5694 18.3872 76.5441 18.6751C76.5208 18.963 76.5694 19.2879 76.69 19.6497C76.8106 20.0115 76.9584 20.42 77.1296 20.8732C77.3047 21.3615 77.4292 21.8361 77.505 22.2971C77.5809 22.7581 77.5459 23.2075 77.4019 23.6451C77.258 24.0828 76.9487 24.4971 76.478 24.89C76.0597 25.2382 75.5871 25.4619 75.0638 25.5573C74.5386 25.6545 74.0037 25.5942 73.4571 25.3802C72.9105 25.1624 72.3969 24.7675 71.9184 24.1917Z" fill="#1B5162"/>
<path d="M76.8335 31.5251L84.9216 27.8992L83.7506 25.2849L85.1453 24.6585L88.2285 31.5387L86.8338 32.165L85.6569 29.539L77.5688 33.1649L76.8335 31.5251Z" fill="#1B5162"/>
</svg>
