<svg width="91" height="95" viewBox="0 0 91 95" fill="none" xmlns="http://www.w3.org/2000/svg">
<path d="M21.7272 19.8444L15.8896 11.3186L17.4478 10.2507L19.8754 13.7948L23.6996 11.1766L21.274 7.63243L22.8321 6.56451L28.6696 15.0903L27.1115 16.1582L24.5672 12.4448L20.7429 15.0631L23.2872 18.7784L21.7272 19.8444Z" fill="#1B5162"/>
<path d="M31.29 13.7559L32.179 2.78883L34.2273 2.22278L40.6231 11.1746L38.6876 11.7095L37.254 9.62426L33.3695 10.698L33.1963 13.2268L31.29 13.7559ZM33.4745 9.1399L36.3631 8.34237L33.7663 4.60176L33.4745 9.1399Z" fill="#1B5162"/>
<path d="M43.5947 11.054L44.0032 0.728882L47.8236 0.880607C48.6503 0.913676 49.3272 1.07902 49.8583 1.37469C50.3874 1.6723 50.7764 2.06523 51.0234 2.55737C51.2705 3.0495 51.3814 3.5961 51.358 4.19523C51.3347 4.76517 51.1868 5.28454 50.9126 5.75138C50.6383 6.21823 50.224 6.58587 49.6715 6.85431C49.1191 7.12275 48.4208 7.24141 47.5746 7.20639L45.643 7.13053L45.4855 11.1279L43.5947 11.054ZM45.7014 5.59771L47.5162 5.66969C48.1757 5.69497 48.6561 5.57048 48.9576 5.29037C49.2591 5.01221 49.4206 4.62122 49.44 4.12131C49.4595 3.60972 49.3311 3.20317 49.053 2.90167C48.7748 2.60016 48.306 2.43677 47.6466 2.40953L45.8317 2.33756L45.7014 5.59771Z" fill="#1B5162"/>
<path d="M54.1421 12.0014L57.5151 2.23456L61.1292 3.48338C61.9112 3.75376 62.5123 4.10778 62.9344 4.54351C63.3565 4.98118 63.6133 5.47137 63.7066 6.01213C63.8 6.55484 63.7494 7.10923 63.553 7.67722C63.3662 8.21604 63.0744 8.67122 62.6776 9.03692C62.2808 9.40456 61.777 9.63798 61.172 9.73524C60.5651 9.8325 59.8629 9.74302 59.0634 9.46681L57.235 8.83462L55.9297 12.6161L54.1421 12.0014ZM57.7349 7.38739L59.4505 7.98067C60.073 8.19659 60.569 8.2141 60.9386 8.03514C61.3082 7.85618 61.5747 7.52939 61.7381 7.05476C61.9054 6.57041 61.8995 6.14441 61.7186 5.77482C61.5397 5.40523 61.137 5.11345 60.5146 4.89753L58.7989 4.30425L57.7349 7.38739Z" fill="#1B5162"/>
<path d="M66.123 17.52L68.2861 14.5477L69.3988 7.12286L71.13 8.38335L70.173 13.5848L74.8161 11.0677L76.5221 12.3107L69.8111 15.6603L67.6481 18.6326L66.123 17.52Z" fill="#1B5162"/>
<path d="M20.2104 87.687L24.9334 78.6924L26.5771 79.5561L24.6144 83.2948L28.6487 85.4131L30.6114 81.6744L32.2571 82.5381L27.5341 91.5327L25.8904 90.669L27.9484 86.7495L23.9141 84.6311L21.8561 88.5507L20.2104 87.687Z" fill="#1B5162"/>
<path d="M38.2484 94.5497C37.2446 94.3922 36.4024 94.0343 35.7215 93.476C35.0407 92.9177 34.5486 92.2175 34.2471 91.3713C33.9436 90.5251 33.8736 89.5914 34.0351 88.5683C34.1965 87.5451 34.5505 86.6795 35.0991 85.9656C35.6476 85.2536 36.3304 84.7362 37.1493 84.4153C37.9682 84.0943 38.8805 84.0126 39.8843 84.1702C40.8783 84.3258 41.7186 84.6837 42.4033 85.242C43.088 85.8002 43.5801 86.5025 43.8778 87.3467C44.1754 88.1909 44.2435 89.1265 44.082 90.1478C43.9206 91.1709 43.5685 92.0385 43.0258 92.7504C42.4831 93.4624 41.7983 93.9798 40.9755 94.3008C40.1508 94.6256 39.2424 94.7073 38.2484 94.5497ZM38.5071 92.9022C39.4622 93.0519 40.2753 92.8574 40.9425 92.3167C41.6097 91.7759 42.0318 90.955 42.2049 89.856C42.378 88.7569 42.2302 87.8466 41.7614 87.1269C41.2926 86.4071 40.5787 85.9714 39.6236 85.8197C38.6685 85.6699 37.8535 85.8644 37.1804 86.4052C36.5074 86.946 36.0853 87.7649 35.9122 88.8639C35.7391 89.963 35.8888 90.8733 36.3635 91.595C36.8361 92.3167 37.552 92.7524 38.5071 92.9022Z" fill="#1B5162"/>
<path d="M53.1931 94.5128C52.4578 94.6334 51.7711 94.5945 51.1312 94.4C50.4912 94.2054 49.9485 93.8397 49.505 93.3048C49.0595 92.7699 48.7638 92.0482 48.616 91.1418L47.6084 84.9541L49.4408 84.6545L50.4523 90.8558C50.5807 91.6397 50.8627 92.1902 51.3023 92.5112C51.7419 92.8321 52.2963 92.9372 52.9635 92.8282C53.623 92.7213 54.1112 92.445 54.4322 92.0015C54.7531 91.558 54.8484 90.9433 54.72 90.1614L53.7085 83.9601L55.5409 83.6605L56.5485 89.8482C56.6964 90.7547 56.638 91.5347 56.3715 92.1863C56.105 92.838 55.6926 93.3573 55.1344 93.7483C54.5742 94.1393 53.9264 94.3941 53.1931 94.5128Z" fill="#1B5162"/>
<path d="M62.956 91.7739L58.4995 82.6451L61.8511 81.0092C62.5805 80.6532 63.2439 80.4821 63.8391 80.4996C64.4343 80.5151 64.9517 80.6785 65.3913 80.9839C65.8329 81.2913 66.1772 81.7017 66.4281 82.2133C66.7005 82.7696 66.8016 83.3493 66.7355 83.9523C66.6693 84.5553 66.3776 85.1116 65.8621 85.6213L69.6183 88.5196L67.7003 89.4553L64.2476 86.6834L62.8645 87.3583L64.6211 90.957L62.956 91.7739ZM62.2693 86.1348L63.8469 85.3645C64.4032 85.0922 64.7455 84.7576 64.8759 84.3608C65.0062 83.964 64.9615 83.5438 64.7455 83.1003C64.5335 82.6665 64.2359 82.3806 63.8508 82.2444C63.4676 82.1083 62.989 82.1802 62.4152 82.4623L60.8513 83.2267L62.2693 86.1348Z" fill="#1B5162"/>
<path d="M49.2753 58.4039C49.1936 58.2094 49.0769 58.0324 48.9271 57.8826C48.7773 57.7328 48.6003 57.6161 48.4058 57.5344C48.2113 57.4527 48.0031 57.4119 47.7911 57.4119H40.73C40.5219 57.4119 40.3176 57.371 40.1251 57.2913C39.9344 57.2115 39.7594 57.0948 39.6135 56.9489C39.4676 56.803 39.3509 56.628 39.2711 56.4373C39.1914 56.2447 39.1505 56.0405 39.1505 55.8324V55.7759C39.1505 55.5678 39.1914 55.3636 39.2711 55.171C39.3509 54.9804 39.4676 54.8053 39.6135 54.6594C39.7594 54.5135 39.9344 54.3968 40.1251 54.3171C40.3157 54.2373 40.5219 54.1964 40.73 54.1964H47.7697C48.1957 54.1964 48.6042 54.0272 48.9057 53.7257C49.2072 53.4242 49.3764 53.0157 49.3764 52.5897C49.3764 52.1637 49.2072 51.7552 48.9057 51.4537C48.6042 51.1522 48.1957 50.983 47.7697 50.983H40.7086C40.2904 50.983 39.8897 50.8176 39.594 50.522C39.2984 50.2263 39.1311 49.8256 39.1291 49.4074V49.3237C39.1311 48.9055 39.2964 48.5048 39.594 48.2091C39.8897 47.9135 40.2904 47.7481 40.7086 47.7481H47.7697C47.9798 47.7481 48.1899 47.7073 48.3844 47.6256C48.5789 47.5439 48.7559 47.4272 48.9057 47.2774C49.0555 47.1276 49.1722 46.9506 49.2539 46.7561C49.3336 46.5616 49.3764 46.3534 49.3764 46.1414C49.3764 45.7154 49.2072 45.3069 48.9057 45.0054C48.6042 44.7039 48.1957 44.5347 47.7697 44.5347H40.7086C40.2904 44.5347 39.8878 44.3674 39.5921 44.0717C39.2964 43.776 39.1291 43.3734 39.1291 42.9552V42.8987C39.1291 42.4805 39.2964 42.0779 39.5921 41.7822C39.8878 41.4865 40.2904 41.3192 40.7086 41.3192H47.7697C47.9798 41.3192 48.1899 41.2784 48.3844 41.1967C48.5789 41.1169 48.7559 40.9983 48.9057 40.8485C49.0555 40.6987 49.1722 40.5217 49.2539 40.3272C49.3336 40.1327 49.3764 39.9245 49.3764 39.7125C49.3764 39.2865 49.2072 38.878 48.9057 38.5765C48.6042 38.275 48.1957 38.1058 47.7697 38.1058L35.9974 38.1194C35.5791 38.1194 35.1784 37.954 34.8847 37.6584C34.589 37.3627 34.4237 36.962 34.4237 36.5457V36.4835C34.4237 36.1547 34.5307 35.8377 34.7174 35.5731L41.8388 28.9108C42.5079 28.2864 42.541 27.236 41.9166 26.5688C41.2922 25.9016 40.2418 25.8666 39.5746 26.491L22.8342 42.1557H8.50781V60.6137H23.1454H47.793C48.0031 60.6137 48.2132 60.5728 48.4077 60.4911C48.6022 60.4114 48.7793 60.2927 48.929 60.1429C49.0788 59.9931 49.1955 59.8161 49.2772 59.6216C49.357 59.4271 49.3998 59.219 49.3998 59.0069C49.3978 58.8085 49.357 58.5984 49.2753 58.4039Z" fill="#00B2E2"/>
<path d="M38.7461 61.6231C38.8278 61.4286 38.9445 61.2516 39.0943 61.1018C39.244 60.952 39.4211 60.8353 39.6156 60.7536C39.8101 60.6719 40.0182 60.631 40.2303 60.631H47.2913C47.4995 60.631 47.7037 60.5902 47.8963 60.5104C48.0869 60.4307 48.262 60.314 48.4079 60.1681C48.5538 60.0222 48.6705 59.8471 48.7502 59.6565C48.83 59.4639 48.8708 59.2597 48.8708 59.0515V58.9951C48.8708 58.787 48.83 58.5827 48.7502 58.3902C48.6705 58.1995 48.5538 58.0245 48.4079 57.8786C48.262 57.7327 48.0869 57.616 47.8963 57.5362C47.7057 57.4565 47.4995 57.4156 47.2913 57.4156H40.2517C39.8257 57.4156 39.4172 57.2464 39.1157 56.9449C38.8142 56.6434 38.6449 56.2349 38.6449 55.8089C38.6449 55.3829 38.8142 54.9744 39.1157 54.6729C39.4172 54.3714 39.8257 54.2022 40.2517 54.2022H47.3127C47.7309 54.2022 48.1317 54.0368 48.4273 53.7411C48.723 53.4455 48.8903 53.0448 48.8922 52.6266V52.5429C48.8903 52.1247 48.7249 51.724 48.4273 51.4283C48.1317 51.1326 47.7309 50.9673 47.3127 50.9673H40.2517C40.0416 50.9673 39.8315 50.9265 39.637 50.8448C39.4425 50.7631 39.2654 50.6463 39.1157 50.4966C38.9659 50.3468 38.8492 50.1698 38.7675 49.9753C38.6877 49.7807 38.6449 49.5726 38.6449 49.3606C38.6449 48.9346 38.8142 48.5261 39.1157 48.2246C39.4172 47.9231 39.8257 47.7538 40.2517 47.7538H47.3127C47.7309 47.7538 48.1336 47.5865 48.4293 47.2909C48.7249 46.9952 48.8922 46.5925 48.8922 46.1743V46.1179C48.8922 45.6997 48.7249 45.297 48.4293 45.0014C48.1336 44.7057 47.7309 44.5384 47.3127 44.5384H40.2517C40.0416 44.5384 39.8315 44.4976 39.637 44.4159C39.4425 44.3361 39.2654 44.2175 39.1157 44.0677C38.9659 43.9179 38.8492 43.7409 38.7675 43.5464C38.6877 43.3518 38.6449 43.1437 38.6449 42.9317C38.6449 42.5057 38.8142 42.0972 39.1157 41.7957C39.4172 41.4942 39.8257 41.3249 40.2517 41.3249L52.024 41.3386C52.4422 41.3386 52.8429 41.1732 53.1367 40.8776C53.4323 40.5819 53.5977 40.1812 53.5977 39.7649V39.7124C53.5977 39.3836 53.4907 39.0666 53.3039 38.802L46.1826 32.1397C45.5134 31.5153 45.4804 30.4649 46.1048 29.7977C46.7292 29.1286 47.7796 29.0955 48.4468 29.7199L65.1872 45.3846H79.5116V63.8426H64.874H40.2283C40.0182 63.8426 39.8082 63.8017 39.6136 63.72C39.4191 63.6403 39.2421 63.5216 39.0923 63.3718C38.9425 63.222 38.8258 63.045 38.7441 62.8505C38.6644 62.656 38.6216 62.4479 38.6216 62.2358C38.6235 62.0277 38.6644 61.8196 38.7461 61.6231Z" fill="#143D4A"/>
<path d="M10.1882 21.7974C10.8908 21.7974 11.4603 21.2278 11.4603 20.5252C11.4603 19.8226 10.8908 19.2531 10.1882 19.2531C9.48558 19.2531 8.91602 19.8226 8.91602 20.5252C8.91602 21.2278 9.48558 21.7974 10.1882 21.7974Z" fill="#FBB931"/>
<path d="M1.60614 39.7515C2.30874 39.7515 2.8783 39.1819 2.8783 38.4793C2.8783 37.7767 2.30874 37.2072 1.60614 37.2072C0.903549 37.2072 0.333984 37.7767 0.333984 38.4793C0.333984 39.1819 0.903549 39.7515 1.60614 39.7515Z" fill="#FBB931"/>
<path d="M2.32978 62.4072C3.03237 62.4072 3.60194 61.8377 3.60194 61.1351C3.60194 60.4325 3.03237 59.8629 2.32978 59.8629C1.62718 59.8629 1.05762 60.4325 1.05762 61.1351C1.05762 61.8377 1.62718 62.4072 2.32978 62.4072Z" fill="#FBB931"/>
<path d="M14.0085 81.2465C14.7111 81.2465 15.2806 80.677 15.2806 79.9744C15.2806 79.2718 14.7111 78.7022 14.0085 78.7022C13.3059 78.7022 12.7363 79.2718 12.7363 79.9744C12.7363 80.677 13.3059 81.2465 14.0085 81.2465Z" fill="#FBB931"/>
<path d="M8.91589 33.3168C10.3222 33.3168 11.4622 32.1768 11.4622 30.7706C11.4622 29.3643 10.3222 28.2243 8.91589 28.2243C7.50963 28.2243 6.36963 29.3643 6.36963 30.7706C6.36963 32.1768 7.50963 33.3168 8.91589 33.3168Z" fill="#FBB931"/>
<path d="M11.0673 71.2191C12.4735 71.2191 13.6135 70.0791 13.6135 68.6728C13.6135 67.2665 12.4735 66.1265 11.0673 66.1265C9.661 66.1265 8.521 67.2665 8.521 68.6728C8.521 70.0791 9.661 71.2191 11.0673 71.2191Z" fill="#FBB931"/>
<path d="M5.33337 51.7651C6.73964 51.7651 7.87964 50.6251 7.87964 49.2188C7.87964 47.8125 6.73964 46.6725 5.33337 46.6725C3.92711 46.6725 2.78711 47.8125 2.78711 49.2188C2.78711 50.6251 3.92711 51.7651 5.33337 51.7651Z" fill="#FBB931"/>
<path d="M81.1105 21.7974C81.8131 21.7974 82.3827 21.2279 82.3827 20.5253C82.3827 19.8227 81.8131 19.2531 81.1105 19.2531C80.4079 19.2531 79.8384 19.8227 79.8384 20.5253C79.8384 21.2279 80.4079 21.7974 81.1105 21.7974Z" fill="#FBB931"/>
<path d="M89.6926 39.7515C90.3952 39.7515 90.9647 39.182 90.9647 38.4794C90.9647 37.7768 90.3952 37.2072 89.6926 37.2072C88.99 37.2072 88.4204 37.7768 88.4204 38.4794C88.4204 39.182 88.99 39.7515 89.6926 39.7515Z" fill="#FBB931"/>
<path d="M88.9689 62.4073C89.6715 62.4073 90.2411 61.8377 90.2411 61.1351C90.2411 60.4325 89.6715 59.863 88.9689 59.863C88.2663 59.863 87.6968 60.4325 87.6968 61.1351C87.6968 61.8377 88.2663 62.4073 88.9689 62.4073Z" fill="#FBB931"/>
<path d="M77.2897 81.2466C77.9923 81.2466 78.5619 80.677 78.5619 79.9744C78.5619 79.2718 77.9923 78.7023 77.2897 78.7023C76.5871 78.7023 76.0176 79.2718 76.0176 79.9744C76.0176 80.677 76.5871 81.2466 77.2897 81.2466Z" fill="#FBB931"/>
<path d="M82.3846 33.3169C83.7909 33.3169 84.9309 32.1769 84.9309 30.7706C84.9309 29.3644 83.7909 28.2244 82.3846 28.2244C80.9784 28.2244 79.8384 29.3644 79.8384 30.7706C79.8384 32.1769 80.9784 33.3169 82.3846 33.3169Z" fill="#FBB931"/>
<path d="M80.2308 71.2191C81.6371 71.2191 82.7771 70.0791 82.7771 68.6729C82.7771 67.2666 81.6371 66.1266 80.2308 66.1266C78.8246 66.1266 77.6846 67.2666 77.6846 68.6729C77.6846 70.0791 78.8246 71.2191 80.2308 71.2191Z" fill="#FBB931"/>
<path d="M85.9677 51.7651C87.3739 51.7651 88.5139 50.6251 88.5139 49.2188C88.5139 47.8125 87.3739 46.6725 85.9677 46.6725C84.5614 46.6725 83.4214 47.8125 83.4214 49.2188C83.4214 50.6251 84.5614 51.7651 85.9677 51.7651Z" fill="#FBB931"/>
</svg>
