<svg width="64" height="64" viewBox="0 0 64 64" fill="none" xmlns="http://www.w3.org/2000/svg">
<rect width="64" height="63.9691" fill="#EEEDE9"/>
<path d="M-0.000190735 63.9485L63.9482 63.9485L63.9482 12.6041L-0.000190735 12.6041L-0.000190735 63.9485Z" fill="#618794"/>
<path d="M25.9611 63.9691H38.0391L38.0391 32.6241H25.9611L25.9611 63.9691Z" fill="white"/>
<path d="M0 12C0 5.37258 5.37258 0 12 0H52V24H12C5.37258 24 0 18.6274 0 12Z" fill="#143D4A"/>
<path d="M52 24C58.6274 24 64 18.6274 64 12C64 5.37258 58.6274 0 52 0C45.3726 0 40 5.37258 40 12C40 18.6274 45.3726 24 52 24Z" fill="#FCBA33"/>
<path fill-rule="evenodd" clip-rule="evenodd" d="M31.9999 24.2217L63.889 56.1108L56.1108 63.8889L31.9999 39.778L7.88901 63.8889L0.11084 56.1108L31.9999 24.2217Z" fill="white"/>
</svg>
