<svg width="64" height="64" viewBox="0 0 64 64" fill="none" xmlns="http://www.w3.org/2000/svg">
<rect width="64" height="64" fill="#EEEDE9"/>
<path d="M0 64H64V32H0V64Z" fill="#143D4A"/>
<path d="M64.0001 11.3549C58.5247 11.3549 53.2736 13.53 49.4018 17.4017C45.5301 21.2734 43.355 26.5246 43.355 32C43.355 37.4755 45.5301 42.7266 49.4018 46.5984C53.2736 50.4701 58.5247 52.6452 64.0001 52.6452" fill="#FFDB96"/>
<path d="M40.774 32.2787C40.774 30.5903 40.2746 28.9398 39.3388 27.5359C38.403 26.1321 37.073 25.0379 35.5169 24.3918C33.9607 23.7456 32.2484 23.5766 30.5964 23.906C28.9444 24.2354 27.427 25.0484 26.236 26.2423C25.045 27.4362 24.2339 28.9573 23.9053 30.6133C23.5767 32.2692 23.7454 33.9857 24.39 35.5456C25.0346 37.1055 26.1261 38.4388 27.5265 39.3768C28.927 40.3148 30.5735 40.8155 32.2579 40.8155C34.5165 40.8155 36.6826 39.9161 38.2797 38.3151C39.8768 36.7142 40.774 34.5428 40.774 32.2787Z" fill="#FFAB00"/>
<path d="M0 52.6452C5.47544 52.6452 10.7267 50.4701 14.5984 46.5984C18.4701 42.7266 20.6452 37.4755 20.6452 32C20.6452 26.5246 18.4701 21.2734 14.5984 17.4017C10.7267 13.53 5.47544 11.3549 0 11.3549" fill="#FFDB96"/>
<path d="M52.6453 64C52.6453 58.5246 50.4702 53.2734 46.5984 49.4017C42.7267 45.53 37.4756 43.3549 32.0001 43.3549C26.5247 43.3549 21.2736 45.53 17.4018 49.4017C13.5301 53.2734 11.355 58.5246 11.355 64" fill="#FFAB00"/>
<path d="M11.355 0C11.355 5.47544 13.5301 10.7266 17.4018 14.5983C21.2736 18.4701 26.5247 20.6452 32.0001 20.6452C37.4756 20.6452 42.7268 18.4701 46.5985 14.5983C50.4702 10.7266 52.6453 5.47544 52.6453 0" fill="#FFDB96"/>
</svg>
