<svg width="16" height="16" viewBox="0 0 16 16" fill="none" xmlns="http://www.w3.org/2000/svg">
<path fill-rule="evenodd" clip-rule="evenodd" d="M10.6516 6.40901C11.5303 5.53033 12.9549 5.53033 13.8336 6.40901C14.7123 7.28769 14.7123 8.71231 13.8336 9.59099C12.9549 10.4697 11.5303 10.4697 10.6516 9.59099L10.6479 9.5873L10.6442 9.58359L10.6405 9.57986L10.6367 9.57611L10.633 9.57234L10.6292 9.56855L10.6254 9.56474L10.6215 9.56092L10.6177 9.55707L10.6138 9.55321L10.6099 9.54932L10.606 9.54542L10.6021 9.5415L10.5982 9.53756L10.5942 9.5336L10.5902 9.52963L10.5862 9.52564L10.5822 9.52162L10.5782 9.51759L10.5742 9.51355L10.5701 9.50948L10.566 9.5054L10.5619 9.5013L10.5578 9.49718L10.5537 9.49305L10.5495 9.4889L10.5453 9.48473L10.5412 9.48054L10.537 9.47634L10.5327 9.47212L10.5285 9.46789L10.5242 9.46363L10.52 9.45936L10.5157 9.45508L10.5114 9.45078L10.5071 9.44646L10.5027 9.44213L10.4984 9.43778L10.494 9.43341L10.4896 9.42903L10.4852 9.42463L10.4808 9.42022L10.4764 9.41579L10.472 9.41135L10.4675 9.40689L10.463 9.40242L10.4585 9.39793L10.454 9.39343L10.4495 9.38891L10.445 9.38438L10.4404 9.37984L10.4359 9.37528L10.4313 9.3707L10.4267 9.36611L10.4221 9.36151L10.4175 9.35689L10.4129 9.35226L10.4082 9.34761L10.4036 9.34296L10.3989 9.33828L10.3942 9.3336L10.3895 9.3289L10.3848 9.32419L10.3801 9.31946L10.3753 9.31472L10.3706 9.30997L10.3658 9.3052L10.361 9.30043L10.3562 9.29564L10.3514 9.29084L10.3466 9.28602L10.3418 9.28119L10.337 9.27635L10.3321 9.2715L10.3273 9.26664L10.3224 9.26176L10.3175 9.25688L10.3126 9.25198L10.3077 9.24707L10.3028 9.24215L10.2978 9.23721L10.2929 9.23227L10.2879 9.22731L10.283 9.22235L10.278 9.21737L10.273 9.21238L10.268 9.20738L10.263 9.20237L10.258 9.19735L10.2529 9.19232L10.2479 9.18728L10.2428 9.18223L10.2378 9.17717L10.2327 9.1721L10.2276 9.16702L10.2225 9.16193L10.2174 9.15683L10.2123 9.15172L10.2072 9.1466L10.2021 9.14147L10.1969 9.13633L10.1918 9.13118L10.1866 9.12602L10.1815 9.12086L10.1763 9.11569L10.1711 9.1105L10.1659 9.10531L10.1607 9.10011L10.1555 9.0949L10.1503 9.08969L10.1451 9.08446L10.1398 9.07923L10.1346 9.07399L10.1293 9.06874L10.1241 9.06348L10.1188 9.05822L10.1136 9.05295L10.1083 9.04767L10.103 9.04238L10.0977 9.03709L10.0924 9.03178L10.0871 9.02648L10.0818 9.02116L10.0765 9.01584L10.0711 9.01051L10.0658 9.00518L10.0604 8.99983L10.0551 8.99449L10.0497 8.98913L10.0444 8.98377L10.039 8.9784L10.0336 8.97303L10.0283 8.96765L10.0229 8.96227L10.0175 8.95688L10.0121 8.95148L10.0067 8.94608L10.0013 8.94067L9.99587 8.93526L9.99046 8.92985L9.98503 8.92442L9.97961 8.919L9.97418 8.91357L9.96874 8.90813L9.9633 8.90269L9.95785 8.89724L9.9524 8.89179L9.94695 8.88634L9.94149 8.88088L9.93603 8.87542L9.93056 8.86995L9.92509 8.86448L9.91962 8.85901L9.91414 8.85353L9.90866 8.84805L9.90317 8.84256L9.89769 8.83707L9.89219 8.83158L9.8867 8.82609L9.8812 8.82059L9.8757 8.81509L9.8702 8.80959L9.86469 8.80408L9.85918 8.79857L9.85367 8.79306L9.84816 8.78755L9.84264 8.78203L9.83713 8.77651L9.83161 8.77099L9.82608 8.76547L9.82056 8.75995L9.81503 8.75442L9.80951 8.7489L9.80398 8.74337L9.79845 8.73784L9.79292 8.7323L9.78738 8.72677L9.78185 8.72124L9.77631 8.7157L9.77078 8.71017L9.76524 8.70463L9.7597 8.69909L9.75416 8.69355L9.74863 8.68801L9.74309 8.68248L9.73755 8.67694L9.73201 8.6714L9.72647 8.66586L9.72093 8.66032L9.71539 8.65478L9.70985 8.64924L9.70431 8.6437L9.69877 8.63816L9.69323 8.63262L9.6877 8.62708L9.68216 8.62155L9.67662 8.61601L9.67109 8.61048L9.66556 8.60494L9.66002 8.59941L9.65449 8.59388L9.64896 8.58835L9.64343 8.58282L9.63791 8.5773L9.63238 8.57177L9.62686 8.56625L9.62134 8.56073L9.61582 8.55521L9.6103 8.54969L9.60479 8.54418L9.59927 8.53866L9.59376 8.53315L9.58826 8.52765L9.58275 8.52214L9.57725 8.51664L9.57175 8.51114L9.56625 8.50564L9.56076 8.50015L9.55527 8.49466L9.54978 8.48917L9.5443 8.48369L9.53882 8.47821L9.53334 8.47273L9.52787 8.46726L9.5224 8.46179L9.51694 8.45633L9.51148 8.45087L9.50602 8.44541L9.50057 8.43996L9.49512 8.43451L9.48968 8.42907L9.48424 8.42363L9.4788 8.41819L9.47337 8.41276L9.46795 8.40734L9.46253 8.40192L9.45712 8.3965L9.45171 8.39109L9.4463 8.38569L9.4409 8.38029L9.43551 8.3749L9.43012 8.36951L9.42474 8.36413L9.41936 8.35875L9.41399 8.35338L9.40863 8.34802L9.40327 8.34266L9.39792 8.33731L9.39257 8.33196L9.38724 8.32662L9.3819 8.32129L9.37658 8.31597L9.37126 8.31065L9.36595 8.30533L9.36064 8.30003L9.35534 8.29473L9.35005 8.28944L9.34477 8.28416L9.33949 8.27888L9.33422 8.27361L9.32896 8.26835L9.32371 8.2631L9.31846 8.25785L9.31323 8.25261L9.308 8.24738L9.30277 8.24216L9.29756 8.23695L9.29236 8.23175L9.28716 8.22655L9.28197 8.22136L9.27679 8.21618L9.27162 8.21101L9.26646 8.20585L9.26131 8.2007L9.25617 8.19555L9.25103 8.19042L9.24591 8.18529L9.24079 8.18018L9.23568 8.17507L9.23059 8.16998L9.2255 8.16489L9.22042 8.15981L9.21536 8.15475L9.2103 8.14969L9.20525 8.14464L9.20022 8.13961L9.19519 8.13458L9.19018 8.12956L9.18517 8.12456L9.18018 8.11956L9.17519 8.11458L9.17022 8.10961L9.16526 8.10465L9.16031 8.0997L9.15537 8.09476L9.15044 8.08983L9.14552 8.08491L9.14062 8.08001L9.13572 8.07511L9.13084 8.07023L9.12597 8.06536L9.12111 8.0605L9.11627 8.05566L9.11143 8.05082L9.10661 8.046L9.1018 8.04119L9.097 8.03639L9.09222 8.03161L9.08745 8.02684L9.08269 8.02208L9.07794 8.01733L9.07321 8.0126L9.06849 8.00788L9.06378 8.00317L9.06061 8L9.06301 7.9976L9.06782 7.9928L9.07263 7.98798L9.07746 7.98315L9.0823 7.97831L9.08716 7.97345L9.09203 7.96858L9.09691 7.9637L9.1018 7.95881L9.10671 7.9539L9.11163 7.94898L9.11656 7.94405L9.1215 7.93911L9.12646 7.93415L9.13143 7.92918L9.13641 7.9242L9.1414 7.91921L9.1464 7.91421L9.15142 7.90919L9.15645 7.90417L9.16148 7.89913L9.16653 7.89408L9.17159 7.88902L9.17666 7.88395L9.18175 7.87887L9.18684 7.87377L9.19194 7.86867L9.19706 7.86356L9.20218 7.85843L9.20732 7.8533L9.21246 7.84815L9.21762 7.843L9.22278 7.83783L9.22796 7.83266L9.23314 7.82747L9.23834 7.82228L9.24354 7.81707L9.24875 7.81186L9.25397 7.80664L9.25921 7.80141L9.26445 7.79616L9.2697 7.79092L9.27495 7.78566L9.28022 7.78039L9.2855 7.77512L9.29078 7.76983L9.29607 7.76454L9.30137 7.75924L9.30668 7.75393L9.312 7.74861L9.31732 7.74329L9.32266 7.73796L9.328 7.73262L9.33334 7.72727L9.3387 7.72192L9.34406 7.71655L9.34943 7.71118L9.3548 7.70581L9.36019 7.70043L9.36558 7.69504L9.37097 7.68964L9.37638 7.68424L9.38179 7.67883L9.3872 7.67341L9.39262 7.66799L9.39805 7.66256L9.40349 7.65713L9.40893 7.65169L9.41437 7.64624L9.41982 7.64079L9.42528 7.63533L9.43074 7.62987L9.43621 7.6244L9.44168 7.61893L9.44716 7.61345L9.45264 7.60797L9.45813 7.60248L9.46362 7.59699L9.46912 7.59149L9.47462 7.58599L9.48013 7.58049L9.48564 7.57498L9.49115 7.56946L9.49667 7.56394L9.50219 7.55842L9.50772 7.5529L9.51325 7.54737L9.51878 7.54183L9.52431 7.5363L9.52985 7.53076L9.5354 7.52522L9.54094 7.51967L9.54649 7.51412L9.55204 7.50857L9.5576 7.50302L9.56315 7.49746L9.56871 7.4919L9.57427 7.48634L9.57984 7.48077L9.5854 7.47521L9.59097 7.46964L9.59654 7.46407L9.60211 7.4585L9.60769 7.45292L9.61326 7.44735L9.61884 7.44177L9.62442 7.4362L9.63 7.43062L9.63558 7.42504L9.64116 7.41946L9.64674 7.41387L9.65232 7.40829L9.6579 7.40271L9.66349 7.39712L9.66907 7.39154L9.67466 7.38596L9.68024 7.38037L9.68582 7.37479L9.69141 7.3692L9.69699 7.36362L9.70258 7.35804L9.70816 7.35245L9.71374 7.34687L9.71933 7.34129L9.72491 7.33571L9.73049 7.33013L9.73607 7.32455L9.74164 7.31897L9.74722 7.31339L9.7528 7.30782L9.75837 7.30224L9.76394 7.29667L9.76952 7.2911L9.77508 7.28553L9.78065 7.27996L9.78622 7.2744L9.79178 7.26883L9.79734 7.26327L9.8029 7.25772L9.80845 7.25216L9.81401 7.24661L9.81956 7.24106L9.8251 7.23551L9.83065 7.22997L9.83619 7.22442L9.84173 7.21889L9.84726 7.21335L9.85279 7.20782L9.85832 7.20229L9.86384 7.19677L9.86936 7.19125L9.87488 7.18573L9.88039 7.18022L9.8859 7.17472L9.8914 7.16921L9.8969 7.16371L9.90239 7.15822L9.90788 7.15273L9.91337 7.14724L9.91885 7.14176L9.92432 7.13629L9.92979 7.13082L9.93526 7.12535L9.94072 7.11989L9.94617 7.11444L9.95162 7.10899L9.95706 7.10355L9.9625 7.09811L9.96793 7.09268L9.97336 7.08726L9.97878 7.08184L9.98419 7.07643L9.98959 7.07102L9.99499 7.06562L10.0004 7.06023L10.0058 7.05484L10.0112 7.04946L10.0165 7.04409L10.0219 7.03872L10.0272 7.03337L10.0326 7.02801L10.0379 7.02267L10.0433 7.01734L10.0486 7.01201L10.0539 7.00669L10.0592 7.00138L10.0645 6.99607L10.0698 6.99078L10.0751 6.98549L10.0804 6.98021L10.0857 6.97494L10.0909 6.96967L10.0962 6.96442L10.1014 6.95918L10.1067 6.95394L10.1119 6.94871L10.1171 6.9435L10.1223 6.93829L10.1275 6.93309L10.1327 6.9279L10.1379 6.92272L10.1431 6.91755L10.1482 6.91239L10.1534 6.90724L10.1585 6.9021L10.1636 6.89697L10.1688 6.89185L10.1739 6.88674L10.179 6.88165L10.1841 6.87656L10.1891 6.87148L10.1942 6.86642L10.1993 6.86136L10.2043 6.85632L10.2093 6.85129L10.2143 6.84627L10.2194 6.84126L10.2244 6.83626L10.2293 6.83127L10.2343 6.8263L10.2393 6.82134L10.2442 6.81639L10.2492 6.81145L10.2541 6.80653L10.259 6.80161L10.2639 6.79671L10.2688 6.79183L10.2737 6.78695L10.2785 6.78209L10.2834 6.77724L10.2882 6.77241L10.293 6.76759L10.2978 6.76278L10.3026 6.75798L10.3074 6.7532L10.3122 6.74843L10.3169 6.74368L10.3217 6.73894L10.3264 6.73421L10.3311 6.7295L10.3358 6.72481L10.3405 6.72012L10.3452 6.71546L10.3498 6.7108L10.3544 6.70616L10.3591 6.70154L10.3637 6.69693L10.3683 6.69234L10.3729 6.68776L10.3774 6.6832L10.382 6.67865L10.3865 6.67412L10.391 6.6696L10.3955 6.6651L10.4 6.66062L10.4045 6.65615L10.4089 6.6517L10.4134 6.64726L10.4178 6.64284L10.4222 6.63844L10.4266 6.63405L10.4309 6.62969L10.4353 6.62533L10.4396 6.621L10.4439 6.61668L10.4482 6.61238L10.4525 6.6081L10.4568 6.60383L10.461 6.59958L10.4653 6.59535L10.4695 6.59114L10.4737 6.58694L10.4778 6.58277L10.482 6.57861L10.4861 6.57447L10.4903 6.57035L10.4944 6.56625L10.4985 6.56216L10.5025 6.55809L10.5066 6.55405L10.5106 6.55002L10.5146 6.54601L10.5186 6.54202L10.5226 6.53805L10.5265 6.5341L10.5304 6.53017L10.5344 6.52626L10.5382 6.52237L10.5421 6.5185L10.546 6.51464L10.5498 6.51081L10.5536 6.507L10.5574 6.50321L10.5612 6.49944L10.5649 6.49569L10.5686 6.49196L10.5724 6.48826L10.576 6.48457L10.5797 6.4809L10.5834 6.47726L10.587 6.47364L10.5906 6.47004L10.5942 6.46645L10.5977 6.4629L10.6013 6.45936L10.6048 6.45585L10.6083 6.45235L10.6117 6.44888L10.6152 6.44543L10.6186 6.44201L10.622 6.43861L10.6254 6.43523L10.6287 6.43187L10.6321 6.42853L10.6354 6.42522L10.6387 6.42193L10.6419 6.41867L10.6452 6.41542L10.6484 6.41221L10.6516 6.40901ZM7.99996 6.93933L8.00235 6.93694L8.00716 6.93214L8.01197 6.92732L8.0168 6.92249L8.02164 6.91765L8.0265 6.91279L8.03137 6.90792L8.03625 6.90304L8.04114 6.89815L8.04605 6.89324L8.05097 6.88832L8.0559 6.88339L8.06084 6.87845L8.0658 6.87349L8.07077 6.86852L8.07575 6.86354L8.08074 6.85855L8.08574 6.85355L8.09076 6.84853L8.09579 6.84351L8.10082 6.83847L8.10587 6.83342L8.11093 6.82836L8.116 6.82329L8.12109 6.81821L8.12618 6.81311L8.13128 6.80801L8.1364 6.8029L8.14152 6.79777L8.14666 6.79264L8.1518 6.78749L8.15696 6.78234L8.16212 6.77717L8.1673 6.772L8.17248 6.76681L8.17768 6.76162L8.18288 6.75641L8.18809 6.7512L8.19332 6.74598L8.19855 6.74075L8.20379 6.7355L8.20904 6.73026L8.21429 6.725L8.21956 6.71973L8.22484 6.71445L8.23012 6.70917L8.23541 6.70388L8.24071 6.69858L8.24602 6.69327L8.25134 6.68795L8.25666 6.68263L8.262 6.6773L8.26733 6.67196L8.27268 6.66661L8.27804 6.66125L8.2834 6.65589L8.28877 6.65052L8.29414 6.64515L8.29953 6.63977L8.30492 6.63438L8.31031 6.62898L8.31572 6.62358L8.32113 6.61817L8.32654 6.61275L8.33196 6.60733L8.33739 6.6019L8.34283 6.59647L8.34827 6.59103L8.35371 6.58558L8.35916 6.58013L8.36462 6.57467L8.37008 6.56921L8.37555 6.56374L8.38102 6.55827L8.3865 6.55279L8.39198 6.54731L8.39747 6.54182L8.40296 6.53633L8.40846 6.53083L8.41396 6.52533L8.41947 6.51983L8.42498 6.51432L8.43049 6.5088L8.43601 6.50328L8.44153 6.49776L8.44706 6.49224L8.45259 6.48671L8.45812 6.48117L8.46365 6.47564L8.46919 6.4701L8.47474 6.46456L8.48028 6.45901L8.48583 6.45346L8.49138 6.44791L8.49694 6.44236L8.50249 6.4368L8.50805 6.43124L8.51361 6.42568L8.51918 6.42011L8.52474 6.41455L8.53031 6.40898L8.53588 6.40341L8.54145 6.39784L8.54703 6.39226L8.5526 6.38669L8.55818 6.38111L8.56376 6.37554L8.56934 6.36996L8.57492 6.36438L8.5805 6.3588L8.58608 6.35321L8.59166 6.34763L8.59724 6.34205L8.60283 6.33646L8.60841 6.33088L8.614 6.3253L8.61958 6.31971L8.62516 6.31413L8.63075 6.30854L8.63633 6.30296L8.64192 6.29738L8.6475 6.29179L8.65308 6.28621L8.65867 6.28063L8.66425 6.27505L8.66983 6.26946L8.67541 6.26389L8.68098 6.25831L8.68656 6.25273L8.69214 6.24715L8.69771 6.24158L8.70328 6.23601L8.70885 6.23044L8.71442 6.22487L8.71999 6.2193L8.72556 6.21374L8.73112 6.20817L8.73668 6.20261L8.74224 6.19705L8.74779 6.1915L8.75335 6.18595L8.7589 6.1804L8.76444 6.17485L8.76999 6.16931L8.77553 6.16376L8.78107 6.15823L8.7866 6.15269L8.79213 6.14716L8.79766 6.14163L8.80318 6.13611L8.8087 6.13059L8.81422 6.12507L8.81973 6.11956L8.82524 6.11406L8.83074 6.10855L8.83624 6.10305L8.84173 6.09756L8.84722 6.09207L8.85271 6.08658L8.85819 6.0811L8.86366 6.07563L8.86913 6.07016L8.8746 6.06469L8.88006 6.05923L8.88551 6.05378L8.89096 6.04833L8.8964 6.04289L8.90184 6.03745L8.90727 6.03202L8.9127 6.0266L8.91811 6.02118L8.92353 6.01577L8.92893 6.01036L8.93433 6.00496L8.93973 5.99957L8.94511 5.99418L8.95049 5.9888L8.95586 5.98343L8.96123 5.97806L8.96659 5.97271L8.97194 5.96735L8.97728 5.96201L8.98262 5.95668L8.98794 5.95135L8.99326 5.94603L8.99858 5.94072L9.00388 5.93541L9.00918 5.93011L9.01447 5.92483L9.01974 5.91955L9.02502 5.91428L9.03028 5.90901L9.03553 5.90376L9.04078 5.89852L9.04601 5.89328L9.05124 5.88805L9.05646 5.88284L9.06166 5.87763L9.06686 5.87243L9.07205 5.86724L9.07723 5.86206L9.0824 5.85689L9.08756 5.85173L9.09271 5.84658L9.09785 5.84144L9.10298 5.83631L9.1081 5.83119L9.11321 5.82608L9.11831 5.82099L9.12339 5.8159L9.12847 5.81082L9.13354 5.80576L9.13859 5.8007L9.14363 5.79566L9.14867 5.79063L9.15369 5.78561L9.1587 5.7806L9.16369 5.7756L9.16868 5.77061L9.17365 5.76564L9.17861 5.76068L9.18356 5.75573L9.1885 5.75079L9.19343 5.74587L9.19834 5.74095L9.20324 5.73605L9.20813 5.73117L9.213 5.72629L9.21786 5.72143L9.22271 5.71658L9.22754 5.71175L9.23237 5.70693L9.23717 5.70212L9.24197 5.69732L9.24675 5.69254L9.25152 5.68777L9.25627 5.68302L9.26101 5.67828L9.26574 5.67355L9.27045 5.66884L9.27515 5.66415L9.27983 5.65946L9.2845 5.65479L9.28915 5.65014L9.29379 5.6455L9.29841 5.64088L9.30302 5.63627L9.30762 5.63168L9.31219 5.6271L9.31676 5.62254L9.3213 5.61799L9.32584 5.61346L9.33035 5.60894L9.33485 5.60444L9.33934 5.59996L9.3438 5.59549L9.34826 5.59104L9.35269 5.5866L9.35711 5.58218L9.36151 5.57778L9.3659 5.57339L9.37027 5.56903L9.37462 5.56467L9.37895 5.56034L9.38327 5.55602L9.38757 5.55172L9.39186 5.54744L9.39612 5.54317L9.40037 5.53892L9.4046 5.53469L9.40881 5.53048L9.41301 5.52628L9.41718 5.52211L9.42134 5.51795L9.42548 5.51381L9.4296 5.50969L9.43371 5.50558L9.43779 5.5015L9.44186 5.49743L9.4459 5.49339L9.44993 5.48936L9.45394 5.48535L9.45793 5.48136L9.4619 5.47739L9.46585 5.47344L9.46978 5.46951L9.47369 5.4656L9.47758 5.46171L9.48146 5.45784L9.48531 5.45398L9.48914 5.45015L9.49295 5.44634L9.49674 5.44255L9.50051 5.43878L9.50426 5.43503L9.50799 5.4313L9.5117 5.4276L9.51538 5.42391L9.51905 5.42024L9.52269 5.4166L9.52632 5.41298L9.52992 5.40937L9.5335 5.40579L9.53706 5.40224L9.54059 5.3987L9.54411 5.39519L9.5476 5.39169L9.55107 5.38822L9.55452 5.38477L9.55794 5.38135L9.56135 5.37795L9.56473 5.37457L9.56808 5.37121L9.57142 5.36787L9.57473 5.36456L9.57802 5.36127L9.58129 5.35801L9.58453 5.35476L9.58775 5.35154L9.59094 5.34835C11.0554 3.88388 13.4298 3.88388 14.8942 5.34835C16.3587 6.81282 16.3587 9.18718 14.8942 10.6517C13.4298 12.1161 11.0554 12.1161 9.59094 10.6517L9.58725 10.648L9.58354 10.6442L9.57981 10.6405L9.57606 10.6368L9.57229 10.633L9.5685 10.6292L9.56469 10.6254L9.56087 10.6216L9.55702 10.6177L9.55316 10.6139L9.54927 10.61L9.54537 10.6061L9.54145 10.6022L9.53751 10.5982L9.53356 10.5943L9.52958 10.5903L9.52559 10.5863L9.52157 10.5823L9.51755 10.5783L9.5135 10.5742L9.50943 10.5701L9.50535 10.5661L9.50125 10.562L9.49713 10.5578L9.493 10.5537L9.48885 10.5496L9.48468 10.5454L9.48049 10.5412L9.47629 10.537L9.47207 10.5328L9.46784 10.5285L9.46358 10.5243L9.45931 10.52L9.45503 10.5157L9.45073 10.5114L9.44641 10.5071L9.44208 10.5028L9.43773 10.4984L9.43336 10.4941L9.42898 10.4897L9.42459 10.4853L9.42017 10.4809L9.41575 10.4765L9.4113 10.472L9.40685 10.4676L9.40237 10.4631L9.39789 10.4586L9.39338 10.4541L9.38887 10.4496L9.38433 10.445L9.37979 10.4405L9.37523 10.4359L9.37065 10.4314L9.36606 10.4268L9.36146 10.4222L9.35684 10.4176L9.35221 10.4129L9.34756 10.4083L9.34291 10.4036L9.33823 10.3989L9.33355 10.3943L9.32885 10.3896L9.32414 10.3848L9.31941 10.3801L9.31467 10.3754L9.30992 10.3706L9.30516 10.3659L9.30038 10.3611L9.29559 10.3563L9.29079 10.3515L9.28597 10.3467L9.28115 10.3419L9.27631 10.337L9.27145 10.3322L9.26659 10.3273L9.26172 10.3224L9.25683 10.3175L9.25193 10.3126L9.24702 10.3077L9.2421 10.3028L9.23716 10.2979L9.23222 10.2929L9.22727 10.288L9.2223 10.283L9.21732 10.278L9.21233 10.273L9.20733 10.268L9.20232 10.263L9.1973 10.258L9.19227 10.253L9.18723 10.2479L9.18218 10.2429L9.17712 10.2378L9.17205 10.2328L9.16697 10.2277L9.16188 10.2226L9.15678 10.2175L9.15167 10.2124L9.14655 10.2073L9.14142 10.2021L9.13628 10.197L9.13113 10.1918L9.12598 10.1867L9.12081 10.1815L9.11564 10.1763L9.11045 10.1712L9.10526 10.166L9.10006 10.1608L9.09485 10.1556L9.08964 10.1503L9.08441 10.1451L9.07918 10.1399L9.07394 10.1346L9.06869 10.1294L9.06343 10.1241L9.05817 10.1189L9.0529 10.1136L9.04762 10.1083L9.04233 10.103L9.03704 10.0977L9.03174 10.0924L9.02643 10.0871L9.02111 10.0818L9.01579 10.0765L9.01046 10.0712L9.00513 10.0658L8.99978 10.0605L8.99444 10.0551L8.98908 10.0498L8.98372 10.0444L8.97835 10.0391L8.97298 10.0337L8.9676 10.0283L8.96222 10.0229L8.95683 10.0175L8.95143 10.0121L8.94603 10.0067L8.94063 10.0013L8.93521 9.99592L8.9298 9.99051L8.92438 9.98508L8.91895 9.97966L8.91352 9.97423L8.90808 9.96879L8.90264 9.96335L8.89719 9.9579L8.89174 9.95245L8.88629 9.947L8.88083 9.94154L8.87537 9.93608L8.8699 9.93061L8.86443 9.92514L8.85896 9.91967L8.85348 9.91419L8.848 9.90871L8.84251 9.90322L8.83703 9.89774L8.83153 9.89224L8.82604 9.88675L8.82054 9.88125L8.81504 9.87575L8.80954 9.87025L8.80403 9.86474L8.79852 9.85923L8.79301 9.85372L8.7875 9.84821L8.78198 9.84269L8.77647 9.83717L8.77095 9.83165L8.76542 9.82613L8.7599 9.82061L8.75437 9.81508L8.74885 9.80956L8.74332 9.80403L8.73779 9.7985L8.73225 9.79296L8.72672 9.78743L8.72119 9.7819L8.71565 9.77636L8.71012 9.77083L8.70458 9.76529L8.69904 9.75975L8.6935 9.75421L8.68797 9.74867L8.68243 9.74314L8.67689 9.7376L8.67135 9.73206L8.66581 9.72652L8.66027 9.72098L8.65473 9.71544L8.64919 9.7099L8.64365 9.70436L8.63811 9.69882L8.63257 9.69328L8.62704 9.68775L8.6215 9.68221L8.61596 9.67667L8.61043 9.67114L8.6049 9.6656L8.59936 9.66007L8.59383 9.65454L8.5883 9.64901L8.58277 9.64348L8.57725 9.63796L8.57172 9.63243L8.5662 9.62691L8.56068 9.62139L8.55516 9.61587L8.54964 9.61035L8.54413 9.60484L8.53861 9.59932L8.5331 9.59381L8.5276 9.5883L8.52209 9.5828L8.51659 9.5773L8.51109 9.5718L8.50559 9.5663L8.5001 9.56081L8.49461 9.55532L8.48912 9.54983L8.48364 9.54435L8.47816 9.53887L8.47268 9.53339L8.46721 9.52792L8.46174 9.52245L8.45628 9.51699L8.45082 9.51153L8.44536 9.50607L8.43991 9.50062L8.43446 9.49517L8.42902 9.48973L8.42358 9.48429L8.41814 9.47885L8.41271 9.47342L8.40729 9.468L8.40187 9.46258L8.39646 9.45716L8.39105 9.45175L8.38564 9.44635L8.38024 9.44095L8.37485 9.43556L8.36946 9.43017L8.36408 9.42479L8.3587 9.41941L8.35333 9.41404L8.34797 9.40868L8.34261 9.40332L8.33726 9.39797L8.33191 9.39262L8.32658 9.38728L8.32124 9.38195L8.31592 9.37663L8.3106 9.37131L8.30529 9.36599L8.29998 9.36069L8.29468 9.35539L8.28939 9.3501L8.28411 9.34482L8.27883 9.33954L8.27356 9.33427L8.2683 9.32901L8.26305 9.32376L8.2578 9.31851L8.25257 9.31327L8.24734 9.30804L8.24212 9.30282L8.2369 9.29761L8.2317 9.29241L8.2265 9.28721L8.22131 9.28202L8.21613 9.27684L8.21096 9.27167L8.2058 9.26651L8.20065 9.26136L8.19551 9.25621L8.19037 9.25108L8.18525 9.24595L8.18013 9.24084L8.17502 9.23573L8.16993 9.23064L8.16484 9.22555L8.15976 9.22047L8.1547 9.21541L8.14964 9.21035L8.14459 9.2053L8.13956 9.20027L8.13453 9.19524L8.12952 9.19022L8.12451 9.18522L8.11952 9.18022L8.11453 9.17524L8.10956 9.17027L8.1046 9.16531L8.09965 9.16036L8.09471 9.15542L8.08978 9.15049L8.08486 9.14557L8.07996 9.14067L8.07506 9.13577L8.07018 9.13089L8.06531 9.12602L8.06045 9.12116L8.05561 9.11632L8.05077 9.11148L8.04595 9.10666L8.04114 9.10185L8.03634 9.09705L8.03156 9.09227L8.02679 9.0875L8.02203 9.08274L8.01728 9.07799L8.01255 9.07326L8.00783 9.06854L8.00312 9.06383L7.99996 9.06067L7.99756 9.06306L7.99276 9.06786L7.98794 9.07268L7.98312 9.07751L7.97827 9.08235L7.97342 9.08721L7.96855 9.09208L7.96367 9.09696L7.95877 9.10185L7.95387 9.10676L7.94895 9.11168L7.94402 9.11661L7.93907 9.12155L7.93412 9.12651L7.92915 9.13148L7.92417 9.13646L7.91918 9.14145L7.91417 9.14645L7.90916 9.15147L7.90413 9.15649L7.89909 9.16153L7.89404 9.16658L7.88898 9.17164L7.88391 9.17671L7.87883 9.18179L7.87374 9.18689L7.86863 9.19199L7.86352 9.1971L7.8584 9.20223L7.85326 9.20736L7.84812 9.21251L7.84296 9.21766L7.8378 9.22283L7.83262 9.228L7.82744 9.23319L7.82224 9.23838L7.81704 9.24359L7.81182 9.2488L7.8066 9.25402L7.80137 9.25925L7.79613 9.26449L7.79088 9.26974L7.78562 9.275L7.78035 9.28027L7.77508 9.28555L7.7698 9.29083L7.7645 9.29612L7.7592 9.30142L7.75389 9.30673L7.74858 9.31205L7.74325 9.31737L7.73792 9.3227L7.73258 9.32804L7.72723 9.33339L7.72188 9.33875L7.71652 9.34411L7.71115 9.34948L7.70577 9.35485L7.70039 9.36023L7.695 9.36562L7.6896 9.37102L7.6842 9.37642L7.67879 9.38183L7.67338 9.38725L7.66795 9.39267L7.66253 9.3981L7.65709 9.40353L7.65165 9.40897L7.64621 9.41442L7.64075 9.41987L7.6353 9.42533L7.62983 9.43079L7.62437 9.43626L7.61889 9.44173L7.61342 9.44721L7.60793 9.45269L7.60245 9.45818L7.59695 9.46367L7.59146 9.46917L7.58596 9.47467L7.58045 9.48017L7.57494 9.48568L7.56943 9.4912L7.56391 9.49672L7.55839 9.50224L7.55286 9.50776L7.54733 9.51329L7.5418 9.51883L7.53626 9.52436L7.53072 9.5299L7.52518 9.53544L7.51964 9.54099L7.51409 9.54654L7.50853 9.55209L7.50298 9.55764L7.49742 9.5632L7.49186 9.56876L7.4863 9.57432L7.48074 9.57989L7.47517 9.58545L7.4696 9.59102L7.46403 9.59659L7.45846 9.60216L7.45289 9.60774L7.44731 9.61331L7.44174 9.61889L7.43616 9.62446L7.43058 9.63004L7.425 9.63562L7.41942 9.6412L7.41384 9.64679L7.40826 9.65237L7.40267 9.65795L7.39709 9.66354L7.39151 9.66912L7.38592 9.6747L7.38034 9.68029L7.37475 9.68587L7.36917 9.69146L7.36358 9.69704L7.358 9.70262L7.35242 9.70821L7.34683 9.71379L7.34125 9.71937L7.33567 9.72495L7.33009 9.73054L7.32451 9.73611L7.31893 9.74169L7.31335 9.74727L7.30778 9.75285L7.30221 9.75842L7.29663 9.76399L7.29106 9.76956L7.28549 9.77513L7.27993 9.7807L7.27436 9.78626L7.2688 9.79183L7.26324 9.79739L7.25768 9.80295L7.25212 9.8085L7.24657 9.81405L7.24102 9.8196L7.23547 9.82515L7.22993 9.83069L7.22439 9.83624L7.21885 9.84177L7.21332 9.84731L7.20779 9.85284L7.20226 9.85837L7.19673 9.86389L7.19122 9.86941L7.1857 9.87493L7.18019 9.88044L7.17468 9.88594L7.16918 9.89145L7.16368 9.89695L7.15818 9.90244L7.15269 9.90793L7.14721 9.91342L7.14173 9.9189L7.13625 9.92437L7.13078 9.92984L7.12532 9.93531L7.11986 9.94077L7.11441 9.94622L7.10896 9.95167L7.10351 9.95711L7.09808 9.96255L7.09265 9.96798L7.08722 9.9734L7.0818 9.97882L7.07639 9.98423L7.07098 9.98964L7.06558 9.99504L7.06019 10.0004L7.05481 10.0058L7.04943 10.0112L7.04405 10.0166L7.03869 10.0219L7.03333 10.0273L7.02798 10.0326L7.02264 10.038L7.0173 10.0433L7.01197 10.0487L7.00665 10.054L7.00134 10.0593L6.99604 10.0646L6.99074 10.0699L6.98545 10.0752L6.98017 10.0805L6.9749 10.0857L6.96964 10.091L6.96439 10.0962L6.95914 10.1015L6.95391 10.1067L6.94868 10.1119L6.94346 10.1172L6.93825 10.1224L6.93305 10.1276L6.92786 10.1328L6.92269 10.1379L6.91752 10.1431L6.91236 10.1483L6.90721 10.1534L6.90207 10.1586L6.89694 10.1637L6.89182 10.1688L6.88671 10.1739L6.88161 10.179L6.87652 10.1841L6.87145 10.1892L6.86638 10.1942L6.86133 10.1993L6.85628 10.2043L6.85125 10.2094L6.84623 10.2144L6.84122 10.2194L6.83623 10.2244L6.83124 10.2294L6.82627 10.2344L6.8213 10.2393L6.81635 10.2443L6.81142 10.2492L6.80649 10.2541L6.80158 10.259L6.79668 10.2639L6.79179 10.2688L6.78692 10.2737L6.78206 10.2786L6.77721 10.2834L6.77237 10.2883L6.76755 10.2931L6.76274 10.2979L6.75795 10.3027L6.75317 10.3075L6.7484 10.3122L6.74364 10.317L6.7389 10.3217L6.73418 10.3264L6.72947 10.3312L6.72477 10.3359L6.72009 10.3405L6.71542 10.3452L6.71077 10.3499L6.70613 10.3545L6.7015 10.3591L6.6969 10.3637L6.6923 10.3683L6.68772 10.3729L6.68316 10.3775L6.67861 10.382L6.67408 10.3865L6.66957 10.3911L6.66507 10.3956L6.66058 10.4L6.65611 10.4045L6.65166 10.409L6.64723 10.4134L6.64281 10.4178L6.63841 10.4222L6.63402 10.4266L6.62965 10.431L6.6253 10.4353L6.62096 10.4397L6.61665 10.444L6.61234 10.4483L6.60806 10.4526L6.6038 10.4568L6.59955 10.4611L6.59532 10.4653L6.5911 10.4695L6.58691 10.4737L6.58273 10.4779L6.57857 10.4821L6.57443 10.4862L6.57031 10.4903L6.56621 10.4944L6.56213 10.4985L6.55806 10.5026L6.55401 10.5066L6.54998 10.5106L6.54598 10.5146L6.54199 10.5186L6.53802 10.5226L6.53407 10.5266L6.53014 10.5305L6.52622 10.5344L6.52233 10.5383L6.51846 10.5422L6.51461 10.546L6.51078 10.5498L6.50697 10.5537L6.50318 10.5574L6.49941 10.5612L6.49566 10.565L6.49193 10.5687L6.48822 10.5724L6.48453 10.5761L6.48087 10.5798L6.47722 10.5834L6.4736 10.587L6.47 10.5906L6.46642 10.5942L6.46286 10.5978L6.45932 10.6013L6.45581 10.6048L6.45232 10.6083L6.44885 10.6118L6.4454 10.6152L6.44197 10.6187L6.43857 10.6221L6.43519 10.6254L6.43183 10.6288L6.4285 10.6321L6.42519 10.6354L6.4219 10.6387L6.41863 10.642L6.41539 10.6452L6.41217 10.6485L6.40897 10.6517C4.94451 12.1161 2.57014 12.1161 1.10567 10.6517C-0.358792 9.18718 -0.358792 6.81282 1.10567 5.34835C2.57014 3.88388 4.94451 3.88388 6.40897 5.34835L6.41267 5.35204L6.41638 5.35575L6.42011 5.35948L6.42386 5.36323L6.42763 5.367L6.43141 5.37079L6.43522 5.3746L6.43905 5.37842L6.44289 5.38227L6.44676 5.38613L6.45064 5.39002L6.45454 5.39392L6.45846 5.39784L6.4624 5.40178L6.46636 5.40574L6.47034 5.40971L6.47433 5.4137L6.47834 5.41772L6.48237 5.42175L6.48642 5.42579L6.49048 5.42986L6.49456 5.43394L6.49866 5.43804L6.50278 5.44216L6.50692 5.44629L6.51107 5.45044L6.51524 5.45461L6.51942 5.4588L6.52362 5.463L6.52784 5.46722L6.53208 5.47146L6.53633 5.47571L6.5406 5.47998L6.54489 5.48426L6.54919 5.48856L6.55351 5.49288L6.55784 5.49721L6.56219 5.50156L6.56655 5.50593L6.57093 5.51031L6.57533 5.51471L6.57974 5.51912L6.58417 5.52355L6.58861 5.52799L6.59307 5.53245L6.59754 5.53692L6.60203 5.54141L6.60653 5.54591L6.61105 5.55043L6.61558 5.55496L6.62013 5.5595L6.62469 5.56406L6.62926 5.56864L6.63385 5.57323L6.63846 5.57783L6.64307 5.58245L6.64771 5.58708L6.65235 5.59173L6.65701 5.59639L6.66168 5.60106L6.66637 5.60574L6.67107 5.61044L6.67578 5.61515L6.68051 5.61988L6.68524 5.62462L6.69 5.62937L6.69476 5.63414L6.69954 5.63891L6.70433 5.6437L6.70913 5.6485L6.71394 5.65332L6.71877 5.65815L6.72361 5.66299L6.72846 5.66784L6.73333 5.6727L6.7382 5.67758L6.74309 5.68246L6.74799 5.68736L6.7529 5.69227L6.75782 5.69719L6.76275 5.70213L6.7677 5.70707L6.77265 5.71203L6.77762 5.71699L6.7826 5.72197L6.78758 5.72696L6.79258 5.73196L6.79759 5.73697L6.80261 5.74199L6.80764 5.74702L6.81268 5.75206L6.81773 5.75711L6.8228 5.76217L6.82787 5.76724L6.83295 5.77232L6.83804 5.77741L6.84314 5.78251L6.84825 5.78762L6.85337 5.79274L6.8585 5.79787L6.86364 5.80301L6.86878 5.80816L6.87394 5.81332L6.87911 5.81848L6.88428 5.82365L6.88946 5.82884L6.89465 5.83403L6.89985 5.83923L6.90506 5.84444L6.91028 5.84965L6.9155 5.85488L6.92074 5.86011L6.92598 5.86535L6.93123 5.8706L6.93648 5.87586L6.94175 5.88112L6.94702 5.88639L6.9523 5.89167L6.95759 5.89696L6.96288 5.90225L6.96818 5.90756L6.97349 5.91286L6.9788 5.91818L6.98413 5.9235L6.98945 5.92883L6.99479 5.93417L7.00013 5.93951L7.00548 5.94485L7.01083 5.95021L7.01619 5.95557L7.02156 5.96094L7.02693 5.96631L7.03231 5.97169L7.0377 5.97707L7.04309 5.98246L7.04848 5.98786L7.05388 5.99326L7.05929 5.99867L7.0647 6.00408L7.07012 6.00949L7.07554 6.01492L7.08097 6.02034L7.0864 6.02577L7.09184 6.03121L7.09728 6.03665L7.10272 6.0421L7.10817 6.04755L7.11363 6.053L7.11908 6.05846L7.12455 6.06392L7.13001 6.06939L7.13548 6.07486L7.14096 6.08033L7.14644 6.08581L7.15192 6.09129L7.1574 6.09678L7.16289 6.10227L7.16838 6.10776L7.17388 6.11325L7.17937 6.11875L7.18487 6.12425L7.19038 6.12975L7.19588 6.13526L7.20139 6.14077L7.2069 6.14628L7.21242 6.15179L7.21793 6.15731L7.22345 6.16283L7.22897 6.16835L7.23449 6.17387L7.24002 6.17939L7.24554 6.18492L7.25107 6.19044L7.2566 6.19597L7.26213 6.2015L7.26766 6.20704L7.27319 6.21257L7.27873 6.2181L7.28426 6.22364L7.2898 6.22917L7.29534 6.23471L7.30087 6.24025L7.30641 6.24579L7.31195 6.25133L7.31749 6.25687L7.32303 6.2624L7.32857 6.26794L7.33411 6.27348L7.33965 6.27902L7.34519 6.28456L7.35073 6.2901L7.35627 6.29564L7.3618 6.30118L7.36734 6.30672L7.37288 6.31226L7.37842 6.31779L7.38395 6.32333L7.38949 6.32886L7.39502 6.3344L7.40055 6.33993L7.40608 6.34546L7.41161 6.35099L7.41714 6.35652L7.42267 6.36204L7.42819 6.36757L7.43372 6.37309L7.43924 6.37861L7.44476 6.38413L7.45027 6.38965L7.45579 6.39516L7.4613 6.40068L7.46681 6.40619L7.47232 6.4117L7.47783 6.4172L7.48333 6.4227L7.48883 6.4282L7.49432 6.4337L7.49982 6.43919L7.50531 6.44468L7.51079 6.45017L7.51628 6.45565L7.52176 6.46113L7.52723 6.46661L7.5327 6.47208L7.53817 6.47755L7.54364 6.48301L7.5491 6.48847L7.55456 6.49393L7.56001 6.49938L7.56546 6.50483L7.5709 6.51027L7.57634 6.51571L7.58177 6.52115L7.5872 6.52658L7.59263 6.532L7.59805 6.53742L7.60346 6.54284L7.60887 6.54825L7.61427 6.55365L7.61967 6.55905L7.62507 6.56444L7.63045 6.56983L7.63584 6.57521L7.64121 6.58059L7.64658 6.58596L7.65195 6.59132L7.6573 6.59668L7.66266 6.60203L7.668 6.60738L7.67334 6.61272L7.67867 6.61805L7.684 6.62337L7.68932 6.62869L7.69463 6.63401L7.69994 6.63931L7.70523 6.64461L7.71053 6.6499L7.71581 6.65518L7.72108 6.66046L7.72635 6.66573L7.73161 6.67099L7.73687 6.67624L7.74211 6.68149L7.74735 6.68673L7.75258 6.69196L7.7578 6.69718L7.76301 6.70239L7.76822 6.70759L7.77342 6.71279L7.7786 6.71798L7.78378 6.72316L7.78895 6.72833L7.79412 6.73349L7.79927 6.73864L7.80441 6.74379L7.80955 6.74892L7.81467 6.75405L7.81979 6.75916L7.82489 6.76427L7.82999 6.76936L7.83507 6.77445L7.84015 6.77953L7.84522 6.78459L7.85028 6.78965L7.85532 6.7947L7.86036 6.79973L7.86539 6.80476L7.8704 6.80978L7.87541 6.81478L7.8804 6.81978L7.88538 6.82476L7.89036 6.82973L7.89532 6.83469L7.90027 6.83964L7.90521 6.84458L7.91014 6.84951L7.91505 6.85443L7.91996 6.85933L7.92485 6.86423L7.92974 6.86911L7.93461 6.87398L7.93946 6.87884L7.94431 6.88369L7.94914 6.88852L7.95397 6.89334L7.95878 6.89815L7.96357 6.90295L7.96836 6.90773L7.97313 6.9125L7.97789 6.91726L7.98263 6.92201L7.98737 6.92674L7.99209 6.93146L7.99679 6.93617L7.99996 6.93933ZM6.9393 7.99999L6.93613 7.99683L6.93143 7.99212L6.92671 7.9874L6.92197 7.98267L6.91723 7.97792L6.91247 7.97316L6.9077 7.96839L6.90291 7.96361L6.89812 7.95881L6.89331 7.954L6.88848 7.94918L6.88365 7.94435L6.8788 7.9395L6.87395 7.93464L6.86908 7.92977L6.86419 7.92489L6.8593 7.91999L6.85439 7.91509L6.84948 7.91017L6.84455 7.90524L6.83961 7.9003L6.83466 7.89535L6.8297 7.89039L6.82472 7.88542L6.81974 7.88044L6.81475 7.87544L6.80974 7.87044L6.80473 7.86542L6.7997 7.86039L6.79466 7.85536L6.78962 7.85031L6.78456 7.84525L6.77949 7.84019L6.77441 7.83511L6.76933 7.83002L6.76423 7.82493L6.75913 7.81982L6.75401 7.81471L6.74889 7.80958L6.74375 7.80445L6.73861 7.7993L6.73345 7.79415L6.72829 7.78899L6.72312 7.78382L6.71794 7.77864L6.71276 7.77345L6.70756 7.76825L6.70235 7.76305L6.69714 7.75784L6.69192 7.75262L6.68669 7.74739L6.68145 7.74215L6.67621 7.7369L6.67095 7.73165L6.66569 7.72639L6.66042 7.72112L6.65515 7.71584L6.64986 7.71056L6.64457 7.70527L6.63928 7.69997L6.63397 7.69467L6.62866 7.68935L6.62334 7.68403L6.61801 7.67871L6.61268 7.67338L6.60734 7.66804L6.602 7.66269L6.59664 7.65734L6.59129 7.65198L6.58592 7.64662L6.58055 7.64125L6.57518 7.63587L6.56979 7.63049L6.56441 7.6251L6.55901 7.61971L6.55361 7.61431L6.54821 7.60891L6.5428 7.6035L6.53739 7.59808L6.53197 7.59266L6.52654 7.58724L6.52111 7.58181L6.51568 7.57637L6.51024 7.57093L6.5048 7.56549L6.49935 7.56004L6.4939 7.55459L6.48844 7.54913L6.48298 7.54367L6.47751 7.53821L6.47204 7.53274L6.46657 7.52727L6.4611 7.52179L6.45562 7.51631L6.45013 7.51083L6.44465 7.50534L6.43916 7.49985L6.43366 7.49436L6.42817 7.48886L6.42267 7.48336L6.41716 7.47786L6.41166 7.47236L6.40615 7.46685L6.40064 7.46134L6.39513 7.45583L6.38962 7.45031L6.3841 7.44479L6.37858 7.43927L6.37306 7.43375L6.36753 7.42823L6.36201 7.4227L6.35648 7.41718L6.35095 7.41165L6.34542 7.40612L6.33989 7.40059L6.33436 7.39506L6.32883 7.38952L6.32329 7.38399L6.31776 7.37845L6.31222 7.37292L6.30668 7.36738L6.30114 7.36184L6.29561 7.3563L6.29007 7.35076L6.28453 7.34522L6.27899 7.33968L6.27345 7.33414L6.26791 7.3286L6.26237 7.32306L6.25683 7.31753L6.25129 7.31199L6.24575 7.30645L6.24021 7.30091L6.23468 7.29537L6.22914 7.28983L6.2236 7.2843L6.21807 7.27876L6.21253 7.27323L6.207 7.2677L6.20147 7.26216L6.19594 7.25663L6.19041 7.2511L6.18488 7.24558L6.17936 7.24005L6.17383 7.23453L6.16831 7.22901L6.16279 7.22349L6.15727 7.21797L6.15176 7.21245L6.14624 7.20694L6.14073 7.20143L6.13522 7.19592L6.12972 7.19041L6.12421 7.18491L6.11871 7.17941L6.11322 7.17391L6.10772 7.16842L6.10223 7.16293L6.09674 7.15744L6.09126 7.15195L6.08578 7.14647L6.0803 7.14099L6.07482 7.13552L6.06935 7.13005L6.06389 7.12458L6.05842 7.11912L6.05297 7.11366L6.04751 7.10821L6.04206 7.10276L6.03662 7.09731L6.03118 7.09187L6.02574 7.08643L6.02031 7.081L6.01488 7.07558L6.00946 7.07015L6.00404 7.06474L5.99863 7.05933L5.99322 7.05392L5.98782 7.04852L5.98243 7.04312L5.97704 7.03773L5.97165 7.03235L5.96627 7.02697L5.9609 7.0216L5.95553 7.01623L5.95017 7.01087L5.94482 7.00552L5.93947 7.00017L5.93413 6.99483L5.92879 6.98949L5.92347 6.98416L5.91814 6.97884L5.91283 6.97352L5.90752 6.96822L5.90222 6.96291L5.89693 6.95762L5.89164 6.95233L5.88636 6.94706L5.88109 6.94178L5.87582 6.93652L5.87057 6.93126L5.86532 6.92601L5.86008 6.92077L5.85484 6.91554L5.84962 6.91031L5.8444 6.9051L5.83919 6.89989L5.83399 6.89469L5.8288 6.8895L5.82362 6.88432L5.81845 6.87914L5.81328 6.87398L5.80812 6.86882L5.80298 6.86367L5.79784 6.85853L5.79271 6.8534L5.78759 6.84829L5.78248 6.84318L5.77738 6.83807L5.77229 6.83298L5.76721 6.8279L5.76214 6.82283L5.75707 6.81777L5.75202 6.81272L5.74698 6.80768L5.74195 6.80265L5.73693 6.79763L5.73192 6.79262L5.72692 6.78762L5.72193 6.78263L5.71696 6.77765L5.71199 6.77269L5.70704 6.76773L5.70209 6.76279L5.69716 6.75785L5.69224 6.75293L5.68733 6.74802L5.68243 6.74312L5.67754 6.73824L5.67267 6.73336L5.6678 6.7285L5.66295 6.72365L5.65811 6.71881L5.65328 6.71398L5.64847 6.70916L5.64367 6.70436L5.63888 6.69957L5.6341 6.6948L5.62934 6.69003L5.62458 6.68528L5.61985 6.68054L5.61512 6.67582L5.61041 6.6711L5.60571 6.6664L5.60102 6.66172L5.59635 6.65705L5.59169 6.65239L5.58705 6.64774L5.58241 6.64311L5.5778 6.63849L5.57319 6.63389L5.5686 6.6293L5.56403 6.62472L5.55947 6.62016L5.55492 6.61562L5.55039 6.61109L5.54587 6.60657L5.54137 6.60207L5.53688 6.59758L5.53241 6.59311L5.52795 6.58865L5.52351 6.58421L5.51908 6.57978L5.51467 6.57537L5.51027 6.57097L5.50589 6.56659L5.50153 6.56222L5.49718 6.55787L5.49285 6.55354L5.48853 6.54922L5.48423 6.54492L5.47994 6.54064L5.47567 6.53637L5.47142 6.53212L5.46718 6.52788L5.46297 6.52366L5.45876 6.51946L5.45458 6.51527L5.45041 6.5111L5.44626 6.50695L5.44212 6.50282L5.438 6.4987L5.4339 6.4946L5.42982 6.49052L5.42576 6.48645L5.42171 6.48241L5.41768 6.47838L5.41367 6.47436L5.40968 6.47037L5.4057 6.4664L5.40174 6.46244L5.3978 6.4585L5.39388 6.45458L5.38998 6.45068L5.3861 6.44679L5.38223 6.44293L5.37839 6.43908L5.37456 6.43526L5.37075 6.43145L5.36697 6.42766L5.3632 6.42389L5.35945 6.42014L5.35572 6.41641L5.35201 6.4127L5.34831 6.40901C4.46963 5.53033 3.04501 5.53033 2.16633 6.40901C1.28765 7.28769 1.28765 8.71231 2.16633 9.59099C3.04501 10.4697 4.46963 10.4697 5.34831 9.59099L5.35151 9.58779L5.35473 9.58458L5.35797 9.58133L5.36124 9.57807L5.36453 9.57478L5.36784 9.57147L5.37117 9.56813L5.37453 9.56477L5.37791 9.56139L5.38131 9.55799L5.38474 9.55457L5.38819 9.55112L5.39166 9.54765L5.39515 9.54415L5.39866 9.54064L5.4022 9.5371L5.40576 9.53355L5.40934 9.52996L5.41294 9.52636L5.41656 9.52274L5.42021 9.5191L5.42387 9.51543L5.42756 9.51174L5.43127 9.50804L5.435 9.50431L5.43875 9.50056L5.44252 9.49679L5.44631 9.493L5.45012 9.48919L5.45395 9.48536L5.4578 9.4815L5.46167 9.47763L5.46556 9.47374L5.46947 9.46983L5.47341 9.4659L5.47736 9.46195L5.48133 9.45798L5.48532 9.45399L5.48932 9.44998L5.49335 9.44595L5.4974 9.44191L5.50146 9.43784L5.50555 9.43376L5.50965 9.42965L5.51377 9.42553L5.51791 9.42139L5.52207 9.41723L5.52625 9.41306L5.53044 9.40886L5.53466 9.40465L5.53889 9.40042L5.54314 9.39617L5.5474 9.3919L5.55168 9.38762L5.55598 9.38332L5.5603 9.379L5.56464 9.37467L5.56899 9.37031L5.57336 9.36595L5.57774 9.36156L5.58215 9.35716L5.58657 9.35274L5.591 9.3483L5.59545 9.34385L5.59992 9.33938L5.60441 9.3349L5.60891 9.3304L5.61342 9.32588L5.61795 9.32135L5.6225 9.3168L5.62706 9.31224L5.63164 9.30766L5.63624 9.30307L5.64084 9.29846L5.64547 9.29384L5.65011 9.2892L5.65476 9.28454L5.65943 9.27988L5.66411 9.27519L5.66881 9.2705L5.67352 9.26579L5.67824 9.26106L5.68298 9.25632L5.68774 9.25157L5.69251 9.2468L5.69729 9.24202L5.70208 9.23722L5.70689 9.23241L5.71171 9.22759L5.71655 9.22276L5.7214 9.21791L5.72626 9.21305L5.73113 9.20817L5.73602 9.20329L5.74092 9.19839L5.74583 9.19347L5.75076 9.18855L5.75569 9.18361L5.76064 9.17866L5.76561 9.1737L5.77058 9.16873L5.77556 9.16374L5.78056 9.15874L5.78557 9.15373L5.79059 9.14871L5.79562 9.14368L5.80067 9.13864L5.80572 9.13358L5.81079 9.12852L5.81586 9.12344L5.82095 9.11835L5.82605 9.11326L5.83116 9.10815L5.83628 9.10303L5.84141 9.0979L5.84655 9.09276L5.8517 9.08761L5.85685 9.08245L5.86202 9.07728L5.8672 9.0721L5.87239 9.06691L5.87759 9.06171L5.8828 9.0565L5.88802 9.05129L5.89324 9.04606L5.89848 9.04082L5.90373 9.03558L5.90898 9.03033L5.91424 9.02506L5.91951 9.01979L5.92479 9.01451L5.93008 9.00922L5.93538 9.00393L5.94068 8.99862L5.94599 8.99331L5.95131 8.98799L5.95664 8.98266L5.96198 8.97733L5.96732 8.97199L5.97267 8.96663L5.97803 8.96128L5.98339 8.95591L5.98877 8.95054L5.99414 8.94516L5.99953 8.93977L6.00492 8.93438L6.01032 8.92898L6.01573 8.92357L6.02114 8.91816L6.02656 8.91274L6.03199 8.90732L6.03742 8.90189L6.04285 8.89645L6.0483 8.89101L6.05374 8.88556L6.0592 8.88011L6.06466 8.87465L6.07012 8.86918L6.07559 8.86371L6.08107 8.85824L6.08655 8.85276L6.09203 8.84727L6.09752 8.84178L6.10302 8.83629L6.10852 8.83079L6.11402 8.82528L6.11953 8.81978L6.12504 8.81427L6.13055 8.80875L6.13607 8.80323L6.1416 8.79771L6.14713 8.79218L6.15266 8.78665L6.15819 8.78111L6.16373 8.77558L6.16927 8.77003L6.17481 8.76449L6.18036 8.75894L6.18591 8.75339L6.19146 8.74784L6.19702 8.74228L6.20258 8.73673L6.20814 8.73117L6.2137 8.7256L6.21927 8.72004L6.22483 8.71447L6.2304 8.7089L6.23597 8.70333L6.24155 8.69776L6.24712 8.69218L6.2527 8.68661L6.25827 8.68103L6.26385 8.67545L6.26943 8.66988L6.27501 8.66429L6.28059 8.65871L6.28617 8.65313L6.29176 8.64755L6.29734 8.64196L6.30292 8.63638L6.30851 8.6308L6.31409 8.62521L6.31968 8.61963L6.32526 8.61404L6.33085 8.60846L6.33643 8.60288L6.34201 8.59729L6.3476 8.59171L6.35318 8.58613L6.35876 8.58054L6.36434 8.57496L6.36992 8.56938L6.3755 8.5638L6.38108 8.55823L6.38665 8.55265L6.39223 8.54708L6.3978 8.5415L6.40337 8.53593L6.40894 8.53036L6.41451 8.52479L6.42008 8.51923L6.42564 8.51366L6.4312 8.5081L6.43676 8.50254L6.44232 8.49698L6.44787 8.49143L6.45343 8.48588L6.45897 8.48033L6.46452 8.47478L6.47006 8.46924L6.4756 8.4637L6.48114 8.45817L6.48667 8.45263L6.4922 8.4471L6.49773 8.44158L6.50325 8.43606L6.50877 8.43054L6.51428 8.42502L6.51979 8.41951L6.5253 8.41401L6.5308 8.40851L6.53629 8.40301L6.54179 8.39752L6.54727 8.39203L6.55276 8.38655L6.55823 8.38107L6.56371 8.3756L6.56917 8.37013L6.57464 8.36467L6.58009 8.35921L6.58555 8.35376L6.59099 8.34831L6.59643 8.34287L6.60187 8.33744L6.60729 8.33201L6.61272 8.32659L6.61813 8.32117L6.62354 8.31576L6.62894 8.31036L6.63434 8.30496L6.63973 8.29957L6.64511 8.29419L6.65049 8.28882L6.65586 8.28345L6.66122 8.27808L6.66657 8.27273L6.67192 8.26738L6.67726 8.26204L6.68259 8.25671L6.68792 8.25139L6.69323 8.24607L6.69854 8.24076L6.70384 8.23546L6.70914 8.23017L6.71442 8.22489L6.7197 8.21961L6.72496 8.21434L6.73022 8.20908L6.73547 8.20384L6.74071 8.19859L6.74594 8.19336L6.75116 8.18814L6.75638 8.18293L6.76158 8.17772L6.76678 8.17253L6.77196 8.16734L6.77713 8.16217L6.7823 8.157L6.78746 8.15185L6.7926 8.1467L6.79774 8.14157L6.80286 8.13644L6.80797 8.13133L6.81308 8.12623L6.81817 8.12113L6.82325 8.11605L6.82832 8.11098L6.83338 8.10592L6.83843 8.10087L6.84347 8.09583L6.8485 8.09081L6.85351 8.08579L6.85852 8.08079L6.86351 8.0758L6.86849 8.07082L6.87346 8.06585L6.87841 8.06089L6.88336 8.05595L6.88829 8.05102L6.89321 8.0461L6.89811 8.04119L6.90301 8.0363L6.90789 8.03142L6.91276 8.02655L6.91761 8.02169L6.92246 8.01685L6.92728 8.01202L6.9321 8.0072L6.9369 8.0024L6.9393 7.99999Z" fill="#FF3621"/>
</svg>
