<svg width="896" height="735" viewBox="0 0 896 735" fill="none" xmlns="http://www.w3.org/2000/svg">
<g filter="url(#filter0_dddddd_1117_12211)">
<path d="M192 196.45C192 120.538 253.538 59 329.45 59H566.55C642.462 59 704 120.538 704 196.45V433.55C704 509.462 642.462 571 566.55 571H329.45C253.538 571 192 509.462 192 433.55V196.45Z" fill="white"/>
</g>
<path d="M420.932 427.013L528.007 318.642L420.932 210.271L420.932 167.296L480.475 167.296L480.475 227.87L491.609 232.569L533.652 189.736L576.084 232.966L534.04 275.799L538.653 287.141H598.112V348.275H538.653L534.04 359.617L576.084 402.449L533.652 445.679L491.608 402.847L480.475 407.545L480.475 468.119H420.932L420.932 427.013Z" fill="#FABFBA"/>
<path d="M372.932 201.127V200.93L487.392 317.709L372.932 434.487V434.279L361.747 445.676L319.315 402.446L361.359 359.614L356.746 348.272H297.287V287.138H356.746L361.359 275.796L319.315 232.964L361.747 189.733L372.932 201.127Z" fill="#FF5F46"/>
<defs>
<filter id="filter0_dddddd_1117_12211" x="0.639999" y="0.119995" width="894.72" height="894.72" filterUnits="userSpaceOnUse" color-interpolation-filters="sRGB">
<feFlood flood-opacity="0" result="BackgroundImageFix"/>
<feColorMatrix in="SourceAlpha" type="matrix" values="0 0 0 0 0 0 0 0 0 0 0 0 0 0 0 0 0 0 127 0" result="hardAlpha"/>
<feOffset dy="3.68"/>
<feGaussianBlur stdDeviation="2.76"/>
<feColorMatrix type="matrix" values="0 0 0 0 0.105882 0 0 0 0 0.192157 0 0 0 0 0.223529 0 0 0 0.0196802 0"/>
<feBlend mode="normal" in2="BackgroundImageFix" result="effect1_dropShadow_1117_12211"/>
<feColorMatrix in="SourceAlpha" type="matrix" values="0 0 0 0 0 0 0 0 0 0 0 0 0 0 0 0 0 0 127 0" result="hardAlpha"/>
<feOffset dy="7.36"/>
<feGaussianBlur stdDeviation="7.36"/>
<feColorMatrix type="matrix" values="0 0 0 0 0.105882 0 0 0 0 0.192157 0 0 0 0 0.223529 0 0 0 0.04 0"/>
<feBlend mode="normal" in2="effect1_dropShadow_1117_12211" result="effect2_dropShadow_1117_12211"/>
<feColorMatrix in="SourceAlpha" type="matrix" values="0 0 0 0 0 0 0 0 0 0 0 0 0 0 0 0 0 0 127 0" result="hardAlpha"/>
<feOffset dy="16.56"/>
<feGaussianBlur stdDeviation="11.96"/>
<feColorMatrix type="matrix" values="0 0 0 0 0.105882 0 0 0 0 0.192157 0 0 0 0 0.223529 0 0 0 0.035 0"/>
<feBlend mode="normal" in2="effect2_dropShadow_1117_12211" result="effect3_dropShadow_1117_12211"/>
<feColorMatrix in="SourceAlpha" type="matrix" values="0 0 0 0 0 0 0 0 0 0 0 0 0 0 0 0 0 0 127 0" result="hardAlpha"/>
<feOffset dy="29.44"/>
<feGaussianBlur stdDeviation="22.08"/>
<feColorMatrix type="matrix" values="0 0 0 0 0.105882 0 0 0 0 0.192157 0 0 0 0 0.223529 0 0 0 0.04 0"/>
<feBlend mode="normal" in2="effect3_dropShadow_1117_12211" result="effect4_dropShadow_1117_12211"/>
<feColorMatrix in="SourceAlpha" type="matrix" values="0 0 0 0 0 0 0 0 0 0 0 0 0 0 0 0 0 0 127 0" result="hardAlpha"/>
<feOffset dy="58.88"/>
<feGaussianBlur stdDeviation="36.8"/>
<feColorMatrix type="matrix" values="0 0 0 0 0.105882 0 0 0 0 0.192157 0 0 0 0 0.223529 0 0 0 0.0503198 0"/>
<feBlend mode="normal" in2="effect4_dropShadow_1117_12211" result="effect5_dropShadow_1117_12211"/>
<feColorMatrix in="SourceAlpha" type="matrix" values="0 0 0 0 0 0 0 0 0 0 0 0 0 0 0 0 0 0 127 0" result="hardAlpha"/>
<feOffset dy="132.48"/>
<feGaussianBlur stdDeviation="95.68"/>
<feColorMatrix type="matrix" values="0 0 0 0 0.105882 0 0 0 0 0.192157 0 0 0 0 0.223529 0 0 0 0.07 0"/>
<feBlend mode="normal" in2="effect5_dropShadow_1117_12211" result="effect6_dropShadow_1117_12211"/>
<feBlend mode="normal" in="SourceGraphic" in2="effect6_dropShadow_1117_12211" result="shape"/>
</filter>
</defs>
</svg>
