<svg width="16" height="16" viewBox="0 0 16 16" fill="none" xmlns="http://www.w3.org/2000/svg">
<path d="M7.25 0V2H8.75V0H7.25Z" fill="#FF3621"/>
<path d="M16 7.25H14V8.75H16V7.25Z" fill="#FF3621"/>
<path d="M0 7.25H2V8.75H0V7.25Z" fill="#FF3621"/>
<path d="M13.1265 1.81281L11.7123 3.22702L12.773 4.28768L14.1872 2.87347L13.1265 1.81281Z" fill="#FF3621"/>
<path d="M2.8735 1.81278L4.28772 3.22699L3.22706 4.28765L1.81284 2.87344L2.8735 1.81278Z" fill="#FF3621"/>
<path fill-rule="evenodd" clip-rule="evenodd" d="M3.25 8.22115C3.25 5.60862 5.38178 3.5 8 3.5C10.6182 3.5 12.75 5.60862 12.75 8.22115C12.75 9.30424 12.3822 10.3036 11.765 11.0999C11.0106 12.0734 10.4342 12.8756 10.4342 13.7437V15.25C10.4342 15.6642 10.0984 16 9.68421 16H6.31579C5.90158 16 5.56579 15.6642 5.56579 15.25V13.7437C5.56579 12.8756 4.9894 12.0734 4.23497 11.0999C3.61785 10.3036 3.25 9.30424 3.25 8.22115ZM8 5C6.19995 5 4.75 6.44727 4.75 8.22115C4.75 8.95911 4.99949 9.63768 5.42062 10.1811L5.46378 10.2368C5.74773 10.6029 6.07572 11.0258 6.36069 11.5H9.63931C9.92427 11.0258 10.2523 10.6029 10.5362 10.2368L10.5794 10.1811C11.0005 9.63768 11.25 8.95911 11.25 8.22115C11.25 6.44727 9.80005 5 8 5ZM7.06579 13.7437C7.06579 13.4879 7.03662 13.2398 6.98484 13H9.01515C8.96338 13.2398 8.93421 13.4879 8.93421 13.7437V14.5H7.06579V13.7437Z" fill="#FF3621"/>
</svg>
