<svg width="16" height="16" viewBox="0 0 16 16" fill="none" xmlns="http://www.w3.org/2000/svg">
<path fill-rule="evenodd" clip-rule="evenodd" d="M11.9048 7.5C12.4339 6.94864 13.1556 6.58348 13.9617 6.51262C13.8623 6.21475 13.5813 6 13.25 6H12V4C12 1.79086 10.2091 0 8 0C5.79086 0 4 1.79086 4 4V6H2.75C2.33579 6 2 6.33579 2 6.75V15.2002C2 15.6144 2.33579 15.9502 2.75 15.9502H8V14.4502H3.5V7.5H11.9048ZM10.5 6V4C10.5 2.61929 9.38071 1.5 8 1.5C6.61929 1.5 5.5 2.61929 5.5 4V6H10.5Z" fill="#FF3621"/>
<path d="M12.5004 14.2137L10.8289 13.378C10.5316 13.611 10.157 13.75 9.75 13.75C8.7835 13.75 8 12.9665 8 12C8 11.0335 8.7835 10.25 9.75 10.25C10.157 10.25 10.5316 10.389 10.8289 10.622L12.5004 9.78626C12.5001 9.7742 12.5 9.76212 12.5 9.75C12.5 8.7835 13.2835 8 14.25 8C15.2165 8 16 8.7835 16 9.75C16 10.7165 15.2165 11.5 14.25 11.5C13.843 11.5 13.4684 11.361 13.1711 11.1279L11.4996 11.9637C11.4999 11.9758 11.5 11.9879 11.5 12C11.5 12.0121 11.4999 12.0242 11.4996 12.0363L13.1711 12.8721C13.4684 12.639 13.843 12.5 14.25 12.5C15.2165 12.5 16 13.2835 16 14.25C16 15.2165 15.2165 16 14.25 16C13.2835 16 12.5 15.2165 12.5 14.25C12.5 14.2379 12.5001 14.2258 12.5004 14.2137Z" fill="#FF3621"/>
</svg>
