<svg width="16" height="16" viewBox="0 0 16 16" fill="none" xmlns="http://www.w3.org/2000/svg">
<path fill-rule="evenodd" clip-rule="evenodd" d="M12.1971 1.24321C12.3392 1.08823 12.5398 1 12.75 1H14.25C14.6642 1 15 1.33579 15 1.75V12.25C15 12.6642 14.6642 13 14.25 13H12.75C12.5398 13 12.3392 12.9118 12.1971 12.7568L11.3054 11.784C10.4339 10.8333 9.26224 10.225 8 10.0513V13C8 14.1046 7.10457 15 6 15C4.89543 15 4 14.1046 4 13L4 10C2.34315 10 1 8.65685 1 7C1 5.34315 2.34315 4 4 4H7.25C8.79208 4 10.2634 3.35278 11.3054 2.21603L12.1971 1.24321ZM6.5 8.5V5.5H4C3.17157 5.5 2.5 6.17157 2.5 7C2.5 7.82843 3.17157 8.5 4 8.5H6.5ZM5.5 10V13C5.5 13.2761 5.72386 13.5 6 13.5C6.27614 13.5 6.5 13.2761 6.5 13V10H5.5ZM12.4111 10.7704C11.2551 9.50931 9.68403 8.72162 8 8.54026V5.45974C9.68403 5.27838 11.2551 4.49069 12.4111 3.22962L13.0799 2.5H13.5V11.5H13.0799L12.4111 10.7704Z" fill="#FF3621"/>
</svg>
