<svg width="16" height="16" viewBox="0 0 16 16" fill="none" xmlns="http://www.w3.org/2000/svg">
<path fill-rule="evenodd" clip-rule="evenodd" d="M11.5357 2.34315C10.6571 1.46447 9.23244 1.46447 8.35376 2.34315L3.40401 7.2929C1.93955 8.75737 1.93955 11.1317 3.40401 12.5962C4.86848 14.0607 7.24285 14.0607 8.70731 12.5962L12.7732 8.53034L13.8338 9.591L9.76797 13.6569C7.71772 15.7071 4.39361 15.7071 2.34335 13.6569C0.293101 11.6066 0.293101 8.28249 2.34335 6.23224L7.2931 1.28249C8.75757 -0.181974 11.1319 -0.181973 12.5964 1.28249C14.0609 2.74696 14.0609 5.12133 12.5964 6.58579L7.64665 11.5355C6.76798 12.4142 5.34335 12.4142 4.46467 11.5355C3.58599 10.6569 3.58599 9.23224 4.46467 8.35356L9.94475 2.87348L11.0054 3.93414L5.52533 9.41422C5.23244 9.70711 5.23244 10.182 5.52533 10.4749C5.81823 10.7678 6.2931 10.7678 6.58599 10.4749L11.5357 5.52513C12.4144 4.64645 12.4144 3.22183 11.5357 2.34315Z" fill="#FF3621"/>
</svg>
