<svg width="16" height="16" viewBox="0 0 16 16" fill="none" xmlns="http://www.w3.org/2000/svg">
<path fill-rule="evenodd" clip-rule="evenodd" d="M13.42 1.51245C12.7366 0.829182 11.6287 0.829183 10.9453 1.51245L1.21972 11.2363C1.07904 11.377 1 11.5677 1 11.7667V14.2502C1 14.6644 1.33579 15.0002 1.75 15.0002H4.23396C4.43285 15.0002 4.6236 14.9212 4.76425 14.7806L14.4896 5.05698C15.1732 4.37353 15.1732 3.26532 14.4896 2.58188L13.42 1.51245ZM12.0059 2.57321C12.1035 2.4756 12.2618 2.4756 12.3594 2.57321L13.429 3.64264C13.5267 3.74027 13.5267 3.89859 13.429 3.99622L11.9343 5.49066L10.5111 4.06771L12.0059 2.57321ZM9.45036 5.12827L2.5 12.0774V13.5002H3.92334L10.8736 6.55122L9.45036 5.12827Z" fill="#FF3621"/>
<path d="M12.7392 9.62149C12.6767 9.26225 12.3649 9 12.0002 9C11.6356 9 11.3238 9.26225 11.2613 9.62149L11.1089 10.4982C11.0546 10.8101 10.8104 11.0544 10.4985 11.1086L9.62174 11.2611C9.2625 11.3236 9.00024 11.6354 9.00024 12C9.00024 12.3646 9.2625 12.6764 9.62174 12.7389L10.4985 12.8914C10.8104 12.9456 11.0546 13.1899 11.1089 13.5018L11.2613 14.3785C11.3238 14.7377 11.6356 15 12.0002 15C12.3649 15 12.6767 14.7377 12.7392 14.3785L12.8916 13.5018C12.9459 13.1899 13.1901 12.9456 13.502 12.8914L14.3787 12.7389C14.738 12.6764 15.0002 12.3646 15.0002 12C15.0002 11.6354 14.738 11.3236 14.3787 11.2611L13.502 11.1086C13.1901 11.0544 12.9459 10.8101 12.8916 10.4982L12.7392 9.62149Z" fill="#FF3621"/>
</svg>
