<svg width="16" height="16" viewBox="0 0 16 16" fill="none" xmlns="http://www.w3.org/2000/svg">
<path fill-rule="evenodd" clip-rule="evenodd" d="M10.75 6.75C10.75 3.57436 8.17564 1 5 1H1.75C1.33579 1 1 1.33579 1 1.75V6C1 6.41421 1.33579 6.75 1.75 6.75H5C5.13807 6.75 5.25 6.86193 5.25 7V9.25C5.25 10.588 5.70701 11.8193 6.47345 12.7962L7.54465 11.725C7.04448 11.028 6.75 10.1734 6.75 9.25V7C6.75 6.20724 6.22287 5.53761 5.5 5.32247V2.5291C7.61158 2.77657 9.25 4.57195 9.25 6.75V9C9.25 9.29526 9.32312 9.57345 9.45225 9.81743L10.75 8.51968V6.75ZM4 2.5V5.25H2.5V2.5H4Z" fill="#FF3621"/>
<path d="M13.3185 10.6606L15.9275 13.2696L13.3185 15.8787L12.2578 14.818L13.8062 13.2696L12.2578 11.7212L13.3185 10.6606Z" fill="#FF3621"/>
<path d="M10.6791 10.6606L8.07007 13.2697L10.6791 15.8787L11.7398 14.8181L10.1914 13.2697L11.7398 11.7213L10.6791 10.6606Z" fill="#FF3621"/>
</svg>
