<svg width="16" height="16" viewBox="0 0 16 16" fill="none" xmlns="http://www.w3.org/2000/svg">
<path fill-rule="evenodd" clip-rule="evenodd" d="M15.0607 2.06066L14.1679 2.95346C15.2282 4.51029 15.068 6.6495 13.6872 8.03033L12.8033 8.91422C12.5104 9.20711 12.0355 9.20711 11.7426 8.91422L7.14644 4.31802C7.00579 4.17737 6.92677 3.9866 6.92677 3.78769C6.92677 3.58878 7.00579 3.39801 7.14644 3.25736L8.03032 2.37348C9.41116 0.992644 11.5504 0.832416 13.1072 1.89279L14 1L15.0607 2.06066ZM12.273 7.32323L12.6265 6.96967C13.6028 5.99336 13.6028 4.41045 12.6265 3.43414C11.6502 2.45783 10.0673 2.45783 9.09098 3.43414L8.73743 3.78769L12.273 7.32323ZM5.90901 8.73741L7.32323 10.1516L8.73744 8.73741L9.7981 9.79807L8.38389 11.2123L8.91422 11.7426C9.20711 12.0355 9.20711 12.5104 8.91422 12.8033L8.03033 13.6872C6.6495 15.068 4.51028 15.2282 2.95345 14.1679L2.06066 15.0606L1 14L1.89279 13.1072C0.832416 11.5504 0.992646 9.41114 2.37348 8.03031L3.25736 7.14642C3.55026 6.85353 4.02513 6.85353 4.31802 7.14642L4.84835 7.67675L6.26257 6.26254L7.32323 7.3232L5.90901 8.73741ZM6.96967 12.6265C5.99336 13.6028 4.41045 13.6028 3.43414 12.6265C2.45783 11.6502 2.45783 10.0673 3.43414 9.09097L3.78769 8.73741L7.32323 12.2729L6.96967 12.6265Z" fill="#FF3621"/>
</svg>
