<svg width="150" height="151" viewBox="0 0 150 151" fill="none" xmlns="http://www.w3.org/2000/svg">
<g clip-path="url(#clip0_11904_953)">
<path d="M78.96 71.289H92.39V68.289H81.96V49.749H100.5V69.789H103.5V46.749H78.96V71.289Z" fill="#FF5F46"/>
<path d="M81.1399 95.6286L83.4199 99.5886H63.7599L73.5899 82.5586L76.8599 88.2286L79.4599 86.7286L73.5899 76.5586L58.5599 102.589H88.6199L83.7399 94.1286L81.1399 95.6286Z" fill="#FF5F46"/>
<path d="M70.7399 59.2095H67.7399C67.7399 64.3195 63.58 68.4795 58.47 68.4795C53.36 68.4795 49.2 64.3195 49.2 59.2095C49.2 54.0995 53.36 49.9395 58.47 49.9395V46.9395C51.71 46.9395 46.2 52.4395 46.2 59.2095C46.2 65.9795 51.7 71.4795 58.47 71.4795C65.24 71.4795 70.7399 65.9795 70.7399 59.2095Z" fill="#FF5F46"/>
<path d="M142.16 60.719C142.16 31.649 118.51 7.99902 89.44 7.99902C67.84 7.99902 48.75 20.859 40.62 40.809C21.41 48.689 7.83997 67.589 7.83997 89.599C7.83997 118.669 31.49 142.319 60.56 142.319C82.16 142.319 101.25 129.459 109.38 109.509C128.59 101.629 142.16 82.729 142.16 60.719ZM89.44 110.439H48.27L45.29 90.579C47.58 88.549 48.88 85.699 48.88 82.609C48.88 77.239 44.89 72.799 39.72 72.059V48.789H36.72V72.059C31.55 72.789 27.55 77.239 27.55 82.609C27.55 85.699 28.85 88.549 31.14 90.579L27.58 113.449H89.43C95.02 113.449 100.41 112.569 105.47 110.949C97.26 128.299 79.98 139.329 60.55 139.329C33.14 139.329 10.83 117.029 10.83 89.609C10.83 62.189 33.13 39.889 60.55 39.889H110.27V100.819H113.27V36.889H60.55C54.96 36.889 49.57 37.769 44.51 39.389C52.72 22.039 70 11.009 89.43 11.009C116.84 11.009 139.15 33.309 139.15 60.729C139.15 88.149 116.85 110.449 89.43 110.449L89.44 110.439ZM33.66 88.749C31.69 87.279 30.56 85.039 30.56 82.609C30.56 78.379 34 74.939 38.23 74.939C42.46 74.939 45.89 78.379 45.89 82.609C45.89 85.049 44.76 87.289 42.79 88.749L42.07 89.289L45.25 110.449H31.1L34.39 89.299L33.66 88.759V88.749Z" fill="#FF5F46"/>
</g>
<defs>
<clipPath id="clip0_11904_953">
<rect width="150" height="150" fill="white" transform="translate(0 0.15918)"/>
</clipPath>
</defs>
</svg>
