<svg width="150" height="150" viewBox="0 0 150 150" fill="none" xmlns="http://www.w3.org/2000/svg">
<path d="M105.684 82.6426C118.401 82.6426 128.711 92.9518 128.711 105.669C128.711 118.386 118.401 128.695 105.684 128.695C92.9674 128.695 82.6582 118.386 82.6582 105.669C82.6582 92.9518 92.9674 82.6426 105.684 82.6426ZM105.684 79.6426C91.3335 79.6426 79.6582 91.3179 79.6582 105.669C79.6582 120.02 91.3335 131.695 105.684 131.695C120.035 131.695 131.711 120.02 131.711 105.669C131.711 91.3179 120.035 79.6426 105.684 79.6426Z" fill="#FF5F46"/>
<path d="M105.684 18.3047C91.3336 18.3047 79.6583 29.98 79.6583 44.3309V51.1047C79.6583 66.8406 66.8561 79.6428 51.1202 79.6428H44.3155C29.9646 79.6428 18.2893 91.3181 18.2893 105.669C18.2893 120.02 29.9646 131.695 44.3155 131.695C58.6664 131.695 70.3417 120.02 70.3417 105.669V98.8952C70.3417 83.1592 83.1437 70.3571 98.8797 70.3571H105.684C120.035 70.3571 131.711 58.6818 131.711 44.3309C131.711 29.98 120.035 18.3047 105.684 18.3047ZM105.684 67.3571H98.9106H98.8797C81.4617 67.3571 67.3417 81.4772 67.3417 98.8951V105.669C67.3417 118.386 57.0325 128.695 44.3155 128.695C31.5984 128.695 21.2893 118.386 21.2893 105.669C21.2893 92.952 31.5984 82.6428 44.3155 82.6428H51.0892H51.1202C68.5382 82.6428 82.6583 68.5227 82.6583 51.1047V44.3309C82.6583 31.6139 92.9674 21.3047 105.684 21.3047C118.401 21.3047 128.711 31.6139 128.711 44.3309C128.711 57.048 118.401 67.3571 105.684 67.3571Z" fill="#FF5F46"/>
<path d="M44.3155 21.3047C57.0325 21.3047 67.3417 31.6139 67.3417 44.3309C67.3417 57.0479 57.0325 67.3571 44.3155 67.3571C31.5985 67.3571 21.2893 57.0479 21.2893 44.3309C21.2893 31.6139 31.5985 21.3047 44.3155 21.3047ZM44.3155 18.3047C29.9646 18.3047 18.2893 29.98 18.2893 44.3309C18.2893 58.6818 29.9646 70.3571 44.3155 70.3571C58.6664 70.3571 70.3417 58.6818 70.3417 44.3309C70.3417 29.98 58.6664 18.3047 44.3155 18.3047Z" fill="#FF5F46"/>
</svg>
