<svg width="16" height="16" viewBox="0 0 16 16" fill="none" xmlns="http://www.w3.org/2000/svg">
<path fill-rule="evenodd" clip-rule="evenodd" d="M1.75 1C1.33579 1 1 1.33579 1 1.75V14.25C1 14.6642 1.33579 15 1.75 15H14.25C14.6642 15 15 14.6642 15 14.25V1.75C15 1.33579 14.6642 1 14.25 1H1.75ZM2.5 4V2.5H13.5V4H2.5ZM2.5 5.5V13.5H13.5V5.5H2.5ZM12 12H8V10.5H12V12ZM5.53033 11.5303L7.03033 10.0303L7.56066 9.5L7.03033 8.96967L5.53033 7.46967L4.46967 8.53033L5.43934 9.5L4.46967 10.4697L5.53033 11.5303Z" fill="#FF3621"/>
</svg>
