<svg width="166" height="166" viewBox="0 0 166 166" fill="none" xmlns="http://www.w3.org/2000/svg">
<path d="M166 0H0V166H166V0Z" fill="#EEEDE9"/>
<path d="M166 0V166L0 0H166Z" fill="#1B3139"/>
<path d="M83 124.5C105.92 124.5 124.5 105.92 124.5 83C124.5 60.0802 105.92 41.5 83 41.5C60.0802 41.5 41.5 60.0802 41.5 83C41.5 105.92 60.0802 124.5 83 124.5Z" fill="#FF5F46"/>
<path d="M83 106.435C95.9429 106.435 106.435 95.9429 106.435 83C106.435 70.057 95.9429 59.5647 83 59.5647C70.057 59.5647 59.5647 70.057 59.5647 83C59.5647 95.9429 70.057 106.435 83 106.435Z" stroke="#EEEDE9" stroke-width="2" stroke-miterlimit="10"/>
</svg>
