<svg width="108" height="108" viewBox="0 0 108 108" fill="none" xmlns="http://www.w3.org/2000/svg">
<path d="M108 0H0V108H108V0Z" fill="#1B3139"/>
<path d="M88 22H66.01V75.18H88V22Z" fill="#FF5F46"/>
<path d="M88.0012 86.0112V64.0112L20.0012 64.0112V86.0112L88.0012 86.0112Z" fill="#FF5F46"/>
<path d="M52.01 54L52.01 21.99L20 21.99L20 54L52.01 54Z" fill="#FABFBA"/>
<path d="M52.01 54L88.35 86.39" stroke="white" stroke-width="2" stroke-miterlimit="10"/>
<path d="M20.01 25.01C21.67 25.01 23.01 23.67 23.01 22.01C23.01 20.35 21.67 19.01 20.01 19.01C18.35 19.01 17.01 20.35 17.01 22.01C17.01 23.67 18.36 25.01 20.01 25.01Z" fill="#C4CCD6"/>
<path d="M51.79 56.98C53.45 56.98 54.79 55.64 54.79 53.98C54.79 52.32 53.45 50.98 51.79 50.98C50.13 50.98 48.79 52.32 48.79 53.98C48.79 55.64 50.14 56.98 51.79 56.98Z" fill="#C4CCD6"/>
<path d="M88.01 89.01C89.67 89.01 91.01 87.67 91.01 86.01C91.01 84.35 89.67 83.01 88.01 83.01C86.35 83.01 85.01 84.35 85.01 86.01C85.01 87.67 86.36 89.01 88.01 89.01Z" fill="#C4CCD6"/>
</svg>
