<svg width="109" height="108" viewBox="0 0 109 108" fill="none" xmlns="http://www.w3.org/2000/svg">
<g clip-path="url(#clip0_210_3370)">
<path d="M108.02 0H0.0200195V108H108.02V0Z" fill="#C4CCD6"/>
<path d="M91.01 17L54.02 53.99L17.03 17H91.01Z" fill="#1B5162"/>
<path d="M17.03 90.99L54.02 54L91.01 90.99H17.03Z" fill="#618794"/>
<path d="M17.02 17V91" stroke="white" stroke-width="2" stroke-miterlimit="10"/>
<path d="M91.02 17V91" stroke="white" stroke-width="2" stroke-miterlimit="10"/>
<path d="M91.02 19.5C92.4 19.5 93.52 18.38 93.52 17C93.52 15.62 92.4 14.5 91.02 14.5C89.64 14.5 88.52 15.62 88.52 17C88.52 18.38 89.64 19.5 91.02 19.5Z" fill="#1B5162"/>
<path d="M17.02 19.5C18.4 19.5 19.52 18.38 19.52 17C19.52 15.62 18.4 14.5 17.02 14.5C15.64 14.5 14.52 15.62 14.52 17C14.52 18.38 15.64 19.5 17.02 19.5Z" fill="#1B5162"/>
<path d="M17.02 93.49C18.4 93.49 19.52 92.37 19.52 90.99C19.52 89.61 18.4 88.49 17.02 88.49C15.64 88.49 14.52 89.61 14.52 90.99C14.52 92.37 15.64 93.49 17.02 93.49Z" fill="#1B5162"/>
<path d="M91.02 93.49C92.4 93.49 93.52 92.37 93.52 90.99C93.52 89.61 92.4 88.49 91.02 88.49C89.64 88.49 88.52 89.61 88.52 90.99C88.52 92.37 89.64 93.49 91.02 93.49Z" fill="#1B5162"/>
</g>
<defs>
<clipPath id="clip0_210_3370">
<rect width="108" height="108" fill="white" transform="translate(0.0200195)"/>
</clipPath>
</defs>
</svg>
