<svg width="108" height="108" viewBox="0 0 108 108" fill="none" xmlns="http://www.w3.org/2000/svg">
<path d="M108 0H0V108H108V0Z" fill="#9ED6C4"/>
<path d="M98 62.03L72 86.03H10L36 62.03H98Z" fill="#095A35"/>
<path d="M98 62.03L72 86.03H31.65" stroke="white" stroke-width="2" stroke-miterlimit="10"/>
<path d="M98.01 41.9301L72.01 65.9301H10.01L36.01 41.9301H98.01Z" fill="#00A972"/>
<path d="M98.01 41.9301L72.01 65.9301H31.66" stroke="white" stroke-width="2" stroke-miterlimit="10"/>
<path d="M98.01 22.01L72.01 46.01H10.01L36.01 22.01H98.01Z" fill="#70C4AB"/>
<path d="M72.01 68.51C73.39 68.51 74.51 67.39 74.51 66.01C74.51 64.63 73.39 63.51 72.01 63.51C70.63 63.51 69.51 64.63 69.51 66.01C69.51 67.39 70.63 68.51 72.01 68.51Z" fill="#FF5F46"/>
<path d="M72.01 88.51C73.39 88.51 74.51 87.39 74.51 86.01C74.51 84.63 73.39 83.51 72.01 83.51C70.63 83.51 69.51 84.63 69.51 86.01C69.51 87.39 70.63 88.51 72.01 88.51Z" fill="#FF5F46"/>
<path d="M98 44.51C99.38 44.51 100.5 43.39 100.5 42.01C100.5 40.63 99.38 39.51 98 39.51C96.62 39.51 95.5 40.63 95.5 42.01C95.5 43.39 96.62 44.51 98 44.51Z" fill="#095A35"/>
<path d="M98 64.53C99.38 64.53 100.5 63.41 100.5 62.03C100.5 60.65 99.38 59.53 98 59.53C96.62 59.53 95.5 60.65 95.5 62.03C95.5 63.41 96.62 64.53 98 64.53Z" fill="#095A35"/>
<path d="M98.01 22.01L72.01 46.01H31.66" stroke="white" stroke-width="2" stroke-miterlimit="10"/>
<path d="M72.01 48.51C73.39 48.51 74.51 47.39 74.51 46.01C74.51 44.63 73.39 43.51 72.01 43.51C70.63 43.51 69.51 44.63 69.51 46.01C69.51 47.39 70.63 48.51 72.01 48.51Z" fill="#FF5F46"/>
<path d="M98.01 24.51C99.39 24.51 100.51 23.39 100.51 22.01C100.51 20.63 99.39 19.51 98.01 19.51C96.63 19.51 95.51 20.63 95.51 22.01C95.51 23.39 96.63 24.51 98.01 24.51Z" fill="#095A35"/>
</svg>
