<svg width="108" height="108" viewBox="0 0 108 108" fill="none" xmlns="http://www.w3.org/2000/svg">
<path d="M108 0H0V108H108V0Z" fill="#FF5F46"/>
<path d="M36 26.01L64.01 53.51L36.01 81.01L8.01001 53.52L36 26.01Z" fill="#143D4A"/>
<path d="M72 26.01L100.01 53.51L72.01 81.01L44.01 53.52L72 26.01Z" stroke="white" stroke-width="2" stroke-miterlimit="10"/>
<path d="M72.01 28.51C73.39 28.51 74.51 27.39 74.51 26.01C74.51 24.63 73.39 23.51 72.01 23.51C70.63 23.51 69.51 24.63 69.51 26.01C69.51 27.39 70.63 28.51 72.01 28.51Z" fill="#1B5162"/>
<path d="M100.01 56.01C101.39 56.01 102.51 54.89 102.51 53.51C102.51 52.13 101.39 51.01 100.01 51.01C98.63 51.01 97.51 52.13 97.51 53.51C97.51 54.89 98.63 56.01 100.01 56.01Z" fill="#1B5162"/>
<path d="M72.01 83.01C73.39 83.01 74.51 81.89 74.51 80.51C74.51 79.13 73.39 78.01 72.01 78.01C70.63 78.01 69.51 79.13 69.51 80.51C69.51 81.89 70.63 83.01 72.01 83.01Z" fill="#1B5162"/>
</svg>
