<svg width="166" height="167" viewBox="0 0 166 167" fill="none" xmlns="http://www.w3.org/2000/svg">
<path d="M166 0.600098H0V166.6H166V0.600098Z" fill="#1B3139"/>
<path d="M141.784 95.3176H118.348V142.188H141.784V95.3176Z" fill="#618794"/>
<path d="M36.3247 166.6V0.600098" stroke="#618794" stroke-width="2" stroke-miterlimit="10"/>
<path d="M59.76 166.6V0.600098" stroke="#618794" stroke-width="2" stroke-miterlimit="10"/>
<path d="M83.1953 166.6V0.600098" stroke="#618794" stroke-width="2" stroke-miterlimit="10"/>
<path d="M106.631 166.6V0.600098" stroke="#618794" stroke-width="2" stroke-miterlimit="10"/>
<path d="M130.066 166.6V0.600098" stroke="#618794" stroke-width="2" stroke-miterlimit="10"/>
<path d="M36.3247 117.777L43.453 129.982L50.4836 142.188H36.3247H22.2635L29.2941 129.982L36.3247 117.777Z" fill="#EEEDE9"/>
<path d="M130.066 50.1071C137.454 50.1071 143.444 44.1177 143.444 36.7295C143.444 29.3412 137.454 23.3518 130.066 23.3518C122.678 23.3518 116.688 29.3412 116.688 36.7295C116.688 44.1177 122.678 50.1071 130.066 50.1071Z" fill="#EEEDE9"/>
<path d="M94.913 71.8826H71.4777V95.3179H94.913V71.8826Z" fill="#EEEDE9"/>
<path d="M48.0423 25.012H24.6071V48.4473H48.0423V25.012Z" fill="#FF5F46"/>
</svg>
