<svg width="166" height="166" viewBox="0 0 166 166" fill="none" xmlns="http://www.w3.org/2000/svg">
<path d="M165.997 0H0V165.997H165.997V0Z" fill="#1B5162"/>
<path d="M75 96V29L18 64V131L75 96Z" fill="white"/>
<path d="M148 96V29L91 64V131L148 96Z" stroke="white" stroke-width="2"/>
<path d="M43 87C45.2091 87 47 85.2091 47 83C47 80.7909 45.2091 79 43 79C40.7909 79 39 80.7909 39 83C39 85.2091 40.7909 87 43 87Z" fill="#FF5F46"/>
<path d="M59 87C61.2091 87 63 85.2091 63 83C63 80.7909 61.2091 79 59 79C56.7909 79 55 80.7909 55 83C55 85.2091 56.7909 87 59 87Z" fill="#FF5F46"/>
<path d="M75 87C77.2091 87 79 85.2091 79 83C79 80.7909 77.2091 79 75 79C72.7909 79 71 80.7909 71 83C71 85.2091 72.7909 87 75 87Z" fill="#FF5F46"/>
<path d="M91 87C93.2091 87 95 85.2091 95 83C95 80.7909 93.2091 79 91 79C88.7909 79 87 80.7909 87 83C87 85.2091 88.7909 87 91 87Z" fill="#FF5F46"/>
<path d="M107 87C109.209 87 111 85.2091 111 83C111 80.7909 109.209 79 107 79C104.791 79 103 80.7909 103 83C103 85.2091 104.791 87 107 87Z" fill="#FF5F46"/>
<path d="M123 87C125.209 87 127 85.2091 127 83C127 80.7909 125.209 79 123 79C120.791 79 119 80.7909 119 83C119 85.2091 120.791 87 123 87Z" fill="#FF5F46"/>
<path d="M139 87C141.209 87 143 85.2091 143 83C143 80.7909 141.209 79 139 79C136.791 79 135 80.7909 135 83C135 85.2091 136.791 87 139 87Z" fill="#FF5F46"/>
<path d="M27 87C29.2091 87 31 85.2091 31 83C31 80.7909 29.2091 79 27 79C24.7909 79 23 80.7909 23 83C23 85.2091 24.7909 87 27 87Z" fill="#FF5F46"/>
</svg>
