<svg width="166" height="166" viewBox="0 0 166 166" fill="none" xmlns="http://www.w3.org/2000/svg">
<path d="M82.9975 83.0054L165.995 83.0054V0.0106812L82.9975 0.0106812L82.9975 83.0054Z" fill="#1B3139"/>
<path d="M6.10352e-05 166H82.9976L82.9976 83.0053L6.10352e-05 83.0053L6.10352e-05 166Z" fill="#FF3621"/>
<path d="M6.10352e-05 83.0054L82.9976 83.0054L82.9976 0.0106812L6.10352e-05 0.0106812L6.10352e-05 83.0054Z" fill="#618794"/>
<path d="M82.9975 166H165.995V83.0053L82.9975 83.0053L82.9975 166Z" fill="#618794"/>
<path d="M166 82.9947H83.0024V0C128.798 0 166 37.2011 166 82.9947Z" fill="#618794"/>
<path d="M83.0026 0V82.9947H0.00512695C0.00512695 37.2011 37.1099 0 83.0026 0Z" fill="#1B3139"/>
<path d="M83.0025 82.9946V165.989C37.2074 165.989 0.00500488 128.788 0.00500488 82.9946H83.0025Z" fill="#FF5F46"/>
<path d="M166 82.9946C166 128.788 128.798 165.989 83.0024 165.989V82.9946H166Z" fill="#1B3139"/>
<path d="M132.509 28.5112V47.063H113.956" stroke="#EEEDE9" stroke-width="2" stroke-miterlimit="10"/>
<path d="M22.5614 82.9946C22.5614 79.9678 22.7567 77.0385 23.2449 74.1093C27.5413 45.0123 52.6358 22.6526 83.0031 22.6526C91.3029 22.6526 99.3097 24.3125 106.535 27.437C113.761 30.4639 120.303 34.9553 125.771 40.4232L132.606 47.2581" stroke="#EEEDE9" stroke-width="2" stroke-miterlimit="10"/>
<path d="M33.4969 137.478V118.927H52.0499" stroke="#EEEDE9" stroke-width="2" stroke-miterlimit="10"/>
<path d="M83.0025 122.93C105.059 122.93 122.939 105.05 122.939 82.9947C122.939 60.9391 105.059 43.0596 83.0025 43.0596C60.9462 43.0596 43.066 60.9391 43.066 82.9947C43.066 105.05 60.9462 122.93 83.0025 122.93Z" fill="#EEEDE9"/>
<path d="M83.0024 104.769C95.0282 104.769 104.777 95.02 104.777 82.9946C104.777 70.9692 95.0282 61.2207 83.0024 61.2207C70.9766 61.2207 61.2278 70.9692 61.2278 82.9946C61.2278 95.02 70.9766 104.769 83.0024 104.769Z" stroke="#618794" stroke-width="2" stroke-miterlimit="10"/>
<path d="M143.444 82.9946C143.444 86.0215 143.249 88.9507 142.761 91.8799C138.464 120.977 113.37 143.337 83.0025 143.337C74.7027 143.337 66.6959 141.677 59.4703 138.552C52.2446 135.525 45.7025 131.034 40.2344 125.566L33.3993 118.731" stroke="#EEEDE9" stroke-width="2" stroke-miterlimit="10"/>
<path d="M22.5614 91.88C27.4689 91.88 31.4473 87.9019 31.4473 82.9947C31.4473 78.0875 27.4689 74.1094 22.5614 74.1094C17.6539 74.1094 13.6755 78.0875 13.6755 82.9947C13.6755 87.9019 17.6539 91.88 22.5614 91.88Z" fill="#EEEDE9"/>
<path d="M143.347 91.88C148.254 91.88 152.233 87.9019 152.233 82.9947C152.233 78.0875 148.254 74.1094 143.347 74.1094C138.439 74.1094 134.461 78.0875 134.461 82.9947C134.461 87.9019 138.439 91.88 143.347 91.88Z" fill="#EEEDE9"/>
</svg>
