<svg width="166" height="166" viewBox="0 0 166 166" fill="none" xmlns="http://www.w3.org/2000/svg">
<path d="M166 0H0V166H166V0Z" fill="#EEEDE9"/>
<path d="M47.847 24.4117H24.4117V47.847H47.847V24.4117Z" fill="#1B3139"/>
<path d="M94.7176 24.4117H71.2823V47.847H94.7176V24.4117Z" fill="#618794"/>
<path d="M71.2823 71.2823H24.4117V94.7176H71.2823V71.2823Z" fill="#1B3139"/>
<path d="M94.7176 71.2823H71.2823V94.7176H94.7176V71.2823Z" fill="#FF5F46"/>
<path d="M141.588 71.2823H118.153V94.7176H141.588V71.2823Z" fill="#618794"/>
<path d="M47.847 118.153H24.4117V141.588H47.847V118.153Z" fill="#FF5F46"/>
<path d="M141.588 118.153H118.153V141.588H141.588V118.153Z" fill="#618794"/>
<path d="M129.871 49.5071C137.259 49.5071 143.248 43.5178 143.248 36.1295C143.248 28.7412 137.259 22.7518 129.871 22.7518C122.482 22.7518 116.493 28.7412 116.493 36.1295C116.493 43.5178 122.482 49.5071 129.871 49.5071Z" fill="#FF5F46"/>
<path d="M82.9999 143.248C90.3881 143.248 96.3775 137.259 96.3775 129.871C96.3775 122.482 90.3881 116.493 82.9999 116.493C75.6116 116.493 69.6222 122.482 69.6222 129.871C69.6222 137.259 75.6116 143.248 82.9999 143.248Z" fill="#1B3139"/>
</svg>
