<svg width="166" height="166" viewBox="0 0 166 166" fill="none" xmlns="http://www.w3.org/2000/svg">
<path d="M166 83H83V166H166V83Z" fill="#1B3139"/>
<path d="M83 83H0V166H83V83Z" fill="#1B5162"/>
<path d="M166 0H83V83H166V0Z" fill="#1B5162"/>
<path d="M83 0H0V83H83V0Z" fill="#1B3139"/>
<path d="M38.02 121.26L83 147.21L127.98 121.26L83 95.31L38.02 121.26Z" stroke="white" stroke-width="2" stroke-miterlimit="10"/>
<path d="M19 96.64L83 133.65L147 96.64L83 59.65L19 96.64Z" fill="#FF5F46"/>
<path d="M27.29 73.88L83 106.09L138.71 73.88L83 41.67L27.29 73.88Z" fill="#FABFBA"/>
<path d="M35.5701 50.42L83.0001 77.84L130.43 50.42L83.0001 23L35.5701 50.42Z" fill="white"/>
<path d="M83 53.31C85.2091 53.31 87 51.5191 87 49.31C87 47.1009 85.2091 45.31 83 45.31C80.7909 45.31 79 47.1009 79 49.31C79 51.5191 80.7909 53.31 83 53.31Z" fill="#1B3139"/>
<path d="M38 125.31C40.2091 125.31 42 123.519 42 121.31C42 119.101 40.2091 117.31 38 117.31C35.7909 117.31 34 119.101 34 121.31C34 123.519 35.7909 125.31 38 125.31Z" fill="#FF5F46"/>
<path d="M128 125.31C130.209 125.31 132 123.519 132 121.31C132 119.101 130.209 117.31 128 117.31C125.791 117.31 124 119.101 124 121.31C124 123.519 125.791 125.31 128 125.31Z" fill="#FF5F46"/>
<path d="M83 151.31C85.2091 151.31 87 149.519 87 147.31C87 145.101 85.2091 143.31 83 143.31C80.7909 143.31 79 145.101 79 147.31C79 149.519 80.7909 151.31 83 151.31Z" fill="#FF5F46"/>
</svg>
