<svg width="166" height="166" viewBox="0 0 166 166" fill="none" xmlns="http://www.w3.org/2000/svg">
<g clip-path="url(#clip0_10589_473)">
<path d="M166 0L0 166H166V0Z" fill="#FF5F46"/>
<path d="M0 166L166 0H0V166Z" fill="#1B3139"/>
<path d="M73.8146 83.664C73.8146 88.2013 72.0439 92.5173 68.8346 95.7267L65.2932 99.1573L66.8426 100.707L70.2732 97.276C73.9252 93.624 75.9172 88.7547 75.9172 83.664C75.9172 78.4627 73.9252 73.704 70.2732 70.052L16.8212 16.6H147.629L93.0706 71.1587C89.4186 74.8107 87.4266 79.68 87.4266 84.8813C87.4266 90.0827 89.4186 94.8413 93.0706 98.4933L96.0586 101.481L97.6079 99.932L94.6199 96.944C87.9799 90.304 87.9799 79.4587 94.6199 72.708L151.171 16.1573L150.396 14.276H14.2759L13.5012 16.1573L68.8346 71.4907C72.0439 74.8107 73.8146 79.1267 73.8146 83.664Z" fill="white"/>
<path d="M64.5185 111.884L66.0678 110.335L22.5758 66.8427C22.1332 66.4 21.9118 65.8467 21.9118 65.1827C21.9118 64.5187 22.1332 63.9653 22.5758 63.5227L21.0265 61.9733C20.1412 62.8587 19.6985 63.9653 19.6985 65.1827C19.6985 66.4 20.1412 67.5067 21.0265 68.392L64.5185 111.884Z" fill="white"/>
<path d="M127.488 95.0627C127.488 93.8453 127.045 92.7387 126.16 91.8533L124.611 93.4027C125.053 93.8453 125.275 94.3987 125.275 95.0627C125.275 95.7267 125.053 96.28 124.611 96.7227L105.908 115.093L89.6399 112.659L81.4505 96.0587L73.2612 112.659L56.9932 115.093L38.5119 96.7227C37.6265 95.8373 37.6265 94.288 38.5119 93.4027L36.9625 91.8533C35.1919 93.624 35.1919 96.5013 36.9625 98.3827L56.2185 117.639L74.9212 114.872L81.6719 101.26L88.3119 114.872L106.793 117.639L126.16 98.3827C126.935 97.3867 127.488 96.28 127.488 95.0627Z" fill="white"/>
<path d="M18.1493 44.156C16.3786 45.9267 16.3786 48.804 18.1493 50.6853L57.436 89.972L58.9853 88.4227L19.6986 49.0253C18.8133 48.14 18.8133 46.5907 19.6986 45.7053L18.1493 44.156Z" fill="white"/>
<path d="M104.691 88.4227L106.24 89.972L145.527 50.6853C147.297 48.9147 147.297 46.0373 145.527 44.156L143.977 45.7053C144.863 46.5907 144.863 48.14 143.977 49.0253L104.691 88.4227Z" fill="white"/>
<path d="M99.1572 111.884L142.649 68.392C143.535 67.5067 143.977 66.4 143.977 65.1827C143.977 63.9653 143.535 62.8587 142.649 61.9733L141.1 63.5227C141.543 63.9653 141.764 64.5187 141.764 65.1827C141.764 65.8467 141.543 66.4 141.1 66.8427L97.6079 110.335L99.1572 111.884Z" fill="white"/>
<path d="M149.179 25.6747L147.629 27.224C148.515 28.1093 148.515 29.6587 147.629 30.544L97.2759 81.008L98.8253 82.5573L148.293 32.9787V137.227C148.293 143.977 142.76 149.511 136.009 149.511H93.1813C89.8613 149.511 86.7626 151.06 84.7706 153.605L81.8933 157.257L79.0159 153.495C77.0239 150.839 73.9253 149.4 70.6053 149.4H27.5559C20.8053 149.4 15.2719 143.867 15.2719 137.116V32.9787L64.8506 82.5573L66.3999 81.008L15.9359 30.544C15.0506 29.6587 15.0506 28.1093 15.9359 27.224L14.3866 25.6747C13.5013 26.56 13.0586 27.7773 13.0586 28.884V137.227C13.0586 145.195 19.5879 151.724 27.5559 151.724H70.4946C73.1506 151.724 75.5853 152.941 77.1346 154.933L81.7826 160.909L86.4306 154.933C87.9799 152.831 90.5253 151.613 93.1813 151.613H136.009C143.977 151.613 150.507 145.084 150.507 137.116V28.884C150.507 27.7773 150.064 26.56 149.179 25.6747Z" fill="white"/>
<path d="M100.707 119.188L92.4067 127.488L94.952 142.428L81.5614 135.345L68.1707 142.428L70.716 127.488L62.416 119.188L60.8667 120.737L68.392 128.263L65.1827 146.523L81.5614 137.891L97.94 146.523L94.7307 128.263L102.367 120.737L100.707 119.188Z" fill="white"/>
</g>
<defs>
<clipPath id="clip0_10589_473">
<rect width="166" height="166" fill="white"/>
</clipPath>
</defs>
</svg>
