<svg width="166" height="166" viewBox="0 0 166 166" fill="none" xmlns="http://www.w3.org/2000/svg">
<path d="M166 0H0V166H166V0Z" fill="#EEEDE9"/>
<path d="M47.8469 24.4119H24.4116V47.8472H47.8469V24.4119Z" fill="#1B3139"/>
<path d="M71.2822 71.2825H24.4116V94.7178H71.2822V71.2825Z" fill="#1B3139"/>
<path d="M94.7175 71.2825H71.2822V94.7178H94.7175V71.2825Z" fill="#FF5F46"/>
<path d="M141.588 71.2825H118.153V118.153H141.588V71.2825Z" fill="#618794"/>
<path d="M47.8469 118.153H24.4116V141.588H47.8469V118.153Z" fill="#FF5F46"/>
<path d="M141.588 118.153H118.153V141.588H141.588V118.153Z" fill="#1B3139"/>
<path d="M129.871 49.507C137.259 49.507 143.248 43.5176 143.248 36.1294C143.248 28.7411 137.259 22.7517 129.871 22.7517C122.482 22.7517 116.493 28.7411 116.493 36.1294C116.493 43.5176 122.482 49.507 129.871 49.507Z" fill="#FF5F46"/>
<path d="M83.0002 49.507C90.3885 49.507 96.3778 43.5176 96.3778 36.1294C96.3778 28.7411 90.3885 22.7517 83.0002 22.7517C75.6119 22.7517 69.6226 28.7411 69.6226 36.1294C69.6226 43.5176 75.6119 49.507 83.0002 49.507Z" fill="#618794"/>
<path d="M83.0002 143.248C90.3885 143.248 96.3778 137.259 96.3778 129.871C96.3778 122.482 90.3885 116.493 83.0002 116.493C75.6119 116.493 69.6226 122.482 69.6226 129.871C69.6226 137.259 75.6119 143.248 83.0002 143.248Z" fill="#1B3139"/>
</svg>
