<svg width="166" height="166" viewBox="0 0 166 166" fill="none" xmlns="http://www.w3.org/2000/svg">
<path d="M83 166H166L166 0H83L83 166Z" fill="#FF5F46"/>
<path d="M0 166H83L83 0H0L0 166Z" fill="#FABFBA"/>
<path d="M83 83L27 51" stroke="#1B3139" stroke-width="2" stroke-miterlimit="10"/>
<path d="M83 83L139 51" stroke="#1B3139" stroke-width="2" stroke-miterlimit="10"/>
<path d="M27 51L83 19L139 51V115L83 147L27 115V51Z" stroke="#1B3139" stroke-width="2" stroke-miterlimit="10"/>
<path d="M83 83V147" stroke="#1B3139" stroke-width="2" stroke-miterlimit="10"/>
<path d="M83 115C100.673 115 115 100.673 115 83C115 65.3269 100.673 51 83 51C65.3269 51 51 65.3269 51 83C51 100.673 65.3269 115 83 115Z" fill="white"/>
<path d="M27 55C29.2091 55 31 53.2091 31 51C31 48.7909 29.2091 47 27 47C24.7909 47 23 48.7909 23 51C23 53.2091 24.7909 55 27 55Z" fill="white"/>
<path d="M83 23C85.2091 23 87 21.2091 87 19C87 16.7909 85.2091 15 83 15C80.7909 15 79 16.7909 79 19C79 21.2091 80.7909 23 83 23Z" fill="white"/>
<path d="M139 55C141.209 55 143 53.2091 143 51C143 48.7909 141.209 47 139 47C136.791 47 135 48.7909 135 51C135 53.2091 136.791 55 139 55Z" fill="white"/>
<path d="M139 119C141.209 119 143 117.209 143 115C143 112.791 141.209 111 139 111C136.791 111 135 112.791 135 115C135 117.209 136.791 119 139 119Z" fill="white"/>
<path d="M83 151C85.2091 151 87 149.209 87 147C87 144.791 85.2091 143 83 143C80.7909 143 79 144.791 79 147C79 149.209 80.7909 151 83 151Z" fill="white"/>
<path d="M27 119C29.2091 119 31 117.209 31 115C31 112.791 29.2091 111 27 111C24.7909 111 23 112.791 23 115C23 117.209 24.7909 119 27 119Z" fill="white"/>
</svg>
