<svg width="109" height="108" viewBox="0 0 109 108" fill="none" xmlns="http://www.w3.org/2000/svg">
<g clip-path="url(#clip0_210_3369)">
<path d="M108.02 0H0.0200195V108H108.02V0Z" fill="#70C4AB"/>
<path d="M88.02 76.99L55.02 95.99V50.99L88.02 31.99V76.99Z" fill="#143D4A"/>
<path d="M51.02 75.99L18.02 56.99V11.99L51.02 30.99V75.99Z" fill="white"/>
<path d="M34.02 46.49C35.4 46.49 36.52 45.37 36.52 43.99C36.52 42.61 35.4 41.49 34.02 41.49C32.64 41.49 31.52 42.61 31.52 43.99C31.52 45.37 32.64 46.49 34.02 46.49Z" fill="#42BA91"/>
<path d="M71.52 66.49C72.9 66.49 74.02 65.37 74.02 63.99C74.02 62.61 72.9 61.49 71.52 61.49C70.14 61.49 69.02 62.61 69.02 63.99C69.02 65.37 70.14 66.49 71.52 66.49Z" fill="#42BA91"/>
</g>
<defs>
<clipPath id="clip0_210_3369">
<rect width="108" height="108" fill="white" transform="translate(0.0200195)"/>
</clipPath>
</defs>
</svg>
