<svg width="166" height="167" viewBox="0 0 166 167" fill="none" xmlns="http://www.w3.org/2000/svg">
<path d="M0 166.031L166 166.031L166 0.03125L0 0.03125L0 166.031Z" fill="#1B3139"/>
<path d="M140.659 38.2781C143.198 38.2781 145.151 40.3287 145.151 42.7699V130.262C145.151 132.8 143.101 134.753 140.659 134.753H25.3382C22.7994 134.753 20.8464 132.703 20.8464 130.262V27.9276C20.8464 25.3887 22.8971 23.4358 25.3382 23.4358H58.8312C60.0029 23.4358 61.0771 23.924 61.9559 24.7052C64.8853 27.537 72.0135 34.2746 74.9429 37.1064C75.8218 37.8876 76.8959 38.3758 78.0676 38.3758H140.659V38.2781Z" fill="#618794"/>
<path d="M74.2594 114.15C70.1582 112.783 66.35 110.537 63.1276 107.315C52.0935 96.2807 52.0935 78.509 63.1276 67.4749C74.1618 56.4407 91.9335 56.5384 102.968 67.4749C114.002 78.509 114.002 96.2807 102.968 107.315C97.4017 112.881 90.1759 115.615 82.95 115.517V136.511" stroke="#1B3139" stroke-width="2" stroke-miterlimit="10"/>
<path d="M83.0477 103.311V74.603" stroke="#EEEDE9" stroke-width="2" stroke-miterlimit="10"/>
<path d="M72.5994 85.1489L83.0476 74.603L93.5935 85.1489" stroke="#EEEDE9" stroke-width="2" stroke-miterlimit="10"/>
</svg>
