<svg width="166" height="167" viewBox="0 0 166 167" fill="none" xmlns="http://www.w3.org/2000/svg">
<path d="M166 0.600098V83.6001H83V166.6H0V0.600098H166Z" fill="#1B3139"/>
<path d="M166 83.6001H83V166.6H166V83.6001Z" fill="#EEEDE9"/>
<path d="M152.915 153.515C149.791 156.64 144.713 156.64 141.588 153.515L111.513 123.44L122.84 112.113L152.915 142.188C156.04 145.313 156.04 150.391 152.915 153.515Z" stroke="#1B3139" stroke-width="2" stroke-miterlimit="10"/>
<path d="M102.725 103.325L117.176 117.679" stroke="#1B3139" stroke-width="2" stroke-miterlimit="10"/>
<path d="M123.524 135.548L134.948 124.124" stroke="#1B3139" stroke-width="2" stroke-miterlimit="10"/>
<path d="M118.446 130.373L129.773 119.046" stroke="#1B3139" stroke-width="2" stroke-miterlimit="10"/>
<path d="M83 83.6001H0C0 37.8036 37.2035 0.600098 83 0.600098V83.6001Z" fill="#FF5F46"/>
<path d="M83 83.6001V166.6C37.2035 166.6 0 129.397 0 83.6001H83Z" fill="#618794"/>
<path d="M83 83.6001V0.600098C128.796 0.600098 166 37.8036 166 83.6001H83Z" fill="#618794"/>
<path d="M83.0001 121.39C103.871 121.39 120.789 104.471 120.789 83.6002C120.789 62.7297 103.871 45.8108 83.0001 45.8108C62.1295 45.8108 45.2107 62.7297 45.2107 83.6002C45.2107 104.471 62.1295 121.39 83.0001 121.39Z" stroke="#1B3139" stroke-width="2" stroke-miterlimit="10"/>
<path d="M83 111.527C98.4237 111.527 110.927 99.0239 110.927 83.6002C110.927 68.1765 98.4237 55.6731 83 55.6731C67.5763 55.6731 55.073 68.1765 55.073 83.6002C55.073 99.0239 67.5763 111.527 83 111.527Z" stroke="#1B3139" stroke-width="2" stroke-miterlimit="10"/>
</svg>
