<svg width="166" height="167" viewBox="0 0 166 167" fill="none" xmlns="http://www.w3.org/2000/svg">
<path d="M166 0.399902H0V166.4H166V0.399902Z" fill="#EEEDE9"/>
<path d="M166 83.3999H83V166.4H166V83.3999Z" fill="#FF3621"/>
<path d="M83 83.3999H0V166.4H83V83.3999Z" fill="#1B3139"/>
<path d="M82.9999 0.399902V27.7411C67.6693 27.7411 53.7058 33.9905 43.6481 44.0481L24.314 24.714C39.254 9.67637 60.0529 0.399902 82.9999 0.399902Z" fill="#1B3139"/>
<path d="M166 83.3999C166 129.294 128.796 166.4 83 166.4V139.059C113.759 139.059 138.659 114.159 138.659 83.3999H166Z" fill="#1B3139"/>
<path d="M166 83.3999H138.659C138.659 114.159 113.759 139.059 83 139.059V166.4C37.1059 166.4 0 129.196 0 83.3999C0 60.4528 9.27647 39.7517 24.3141 24.714L43.6482 44.0481C53.7059 33.9905 67.5718 27.7411 83 27.7411V0.399902C128.796 0.399902 166 37.6034 166 83.3999Z" fill="#618794"/>
<path d="M138.561 83.3999C138.561 114.159 113.661 139.059 82.9023 139.059V83.3999H138.561Z" fill="#FF5F46"/>
<path d="M43.6482 44.0481L83 83.3999V139.059C52.2412 139.059 27.3412 114.159 27.3412 83.3999C27.3412 68.0693 33.5906 54.1057 43.6482 44.0481Z" fill="#EEEDE9"/>
<path d="M138.561 83.3998H82.9023V27.741C113.759 27.741 138.561 52.641 138.561 83.3998Z" fill="#EEEDE9"/>
<path d="M83 126.657C106.891 126.657 126.258 107.29 126.258 83.3997C126.258 59.5092 106.891 40.1421 83 40.1421C59.1094 40.1421 39.7423 59.5092 39.7423 83.3997C39.7423 107.29 59.1094 126.657 83 126.657Z" fill="#1B3139"/>
<path d="M82.9998 153.12C121.505 153.12 152.72 121.905 152.72 83.3999C152.72 44.8946 121.505 13.6799 82.9998 13.6799C44.4945 13.6799 13.2798 44.8946 13.2798 83.3999C13.2798 121.905 44.4945 153.12 82.9998 153.12Z" stroke="#EEEDE9" stroke-width="2" stroke-miterlimit="10"/>
<path d="M83 113.671C99.718 113.671 113.271 100.118 113.271 83.4C113.271 66.682 99.718 53.1294 83 53.1294C66.282 53.1294 52.7294 66.682 52.7294 83.4C52.7294 100.118 66.282 113.671 83 113.671Z" stroke="#618794" stroke-width="2" stroke-miterlimit="10"/>
<path d="M82.9998 102.148C93.3542 102.148 101.748 93.7542 101.748 83.3998C101.748 73.0455 93.3542 64.6516 82.9998 64.6516C72.6455 64.6516 64.2516 73.0455 64.2516 83.3998C64.2516 93.7542 72.6455 102.148 82.9998 102.148Z" fill="#EEEDE9"/>
</svg>
