<svg width="108" height="108" viewBox="0 0 108 108" fill="none" xmlns="http://www.w3.org/2000/svg">
<path d="M108 0H0V108H108V0Z" fill="#FABFBA"/>
<path d="M54 13L18 34V75" stroke="white" stroke-width="2" stroke-miterlimit="10"/>
<path d="M18 36.5C19.3807 36.5 20.5 35.3807 20.5 34C20.5 32.6193 19.3807 31.5 18 31.5C16.6193 31.5 15.5 32.6193 15.5 34C15.5 35.3807 16.6193 36.5 18 36.5Z" fill="#BD2B26"/>
<path d="M54 15.5C55.3807 15.5 56.5 14.3807 56.5 13C56.5 11.6193 55.3807 10.5 54 10.5C52.6193 10.5 51.5 11.6193 51.5 13C51.5 14.3807 52.6193 15.5 54 15.5Z" fill="#BD2B26"/>
<path d="M18 77.5C19.3807 77.5 20.5 76.3807 20.5 75C20.5 73.6193 19.3807 72.5 18 72.5C16.6193 72.5 15.5 73.6193 15.5 75C15.5 76.3807 16.6193 77.5 18 77.5Z" fill="#BD2B26"/>
<path d="M72 23L36 44V85" stroke="white" stroke-width="2" stroke-miterlimit="10"/>
<path d="M36 46.5C37.3807 46.5 38.5 45.3807 38.5 44C38.5 42.6193 37.3807 41.5 36 41.5C34.6193 41.5 33.5 42.6193 33.5 44C33.5 45.3807 34.6193 46.5 36 46.5Z" fill="#BD2B26"/>
<path d="M72 25.5C73.3807 25.5 74.5 24.3807 74.5 23C74.5 21.6193 73.3807 20.5 72 20.5C70.6193 20.5 69.5 21.6193 69.5 23C69.5 24.3807 70.6193 25.5 72 25.5Z" fill="#BD2B26"/>
<path d="M36 87.5C37.3807 87.5 38.5 86.3807 38.5 85C38.5 83.6193 37.3807 82.5 36 82.5C34.6193 82.5 33.5 83.6193 33.5 85C33.5 86.3807 34.6193 87.5 36 87.5Z" fill="#BD2B26"/>
<path d="M90 33L54 54V95" stroke="white" stroke-width="2" stroke-miterlimit="10"/>
<path d="M54 56.5C55.3807 56.5 56.5 55.3807 56.5 54C56.5 52.6193 55.3807 51.5 54 51.5C52.6193 51.5 51.5 52.6193 51.5 54C51.5 55.3807 52.6193 56.5 54 56.5Z" fill="#BD2B26"/>
<path d="M90 35.5C91.3807 35.5 92.5 34.3807 92.5 33C92.5 31.6193 91.3807 30.5 90 30.5C88.6193 30.5 87.5 31.6193 87.5 33C87.5 34.3807 88.6193 35.5 90 35.5Z" fill="#BD2B26"/>
<path d="M54 97.5C55.3807 97.5 56.5 96.3807 56.5 95C56.5 93.6193 55.3807 92.5 54 92.5C52.6193 92.5 51.5 93.6193 51.5 95C51.5 96.3807 52.6193 97.5 54 97.5Z" fill="#BD2B26"/>
</svg>
