<svg width="166" height="166" viewBox="0 0 166 166" fill="none" xmlns="http://www.w3.org/2000/svg">
<path d="M166 0H0V166H166V0Z" fill="#EEEDE9"/>
<path d="M36.1294 96.3776C43.5176 96.3776 49.507 90.3882 49.507 83C49.507 75.6117 43.5176 69.6223 36.1294 69.6223C28.7411 69.6223 22.7517 75.6117 22.7517 83C22.7517 90.3882 28.7411 96.3776 36.1294 96.3776Z" fill="#1B3139"/>
<path d="M36.1294 49.507C43.5176 49.507 49.507 43.5176 49.507 36.1294C49.507 28.7411 43.5176 22.7517 36.1294 22.7517C28.7411 22.7517 22.7517 28.7411 22.7517 36.1294C22.7517 43.5176 28.7411 49.507 36.1294 49.507Z" fill="#1B3139"/>
<path d="M36.1294 143.248C43.5176 143.248 49.507 137.259 49.507 129.871C49.507 122.482 43.5176 116.493 36.1294 116.493C28.7411 116.493 22.7517 122.482 22.7517 129.871C22.7517 137.259 28.7411 143.248 36.1294 143.248Z" fill="#FF5F46"/>
<path d="M60.5411 36.1294H166" stroke="#618794" stroke-width="2" stroke-miterlimit="10"/>
<path d="M60.5411 24.4117H166" stroke="#618794" stroke-width="2" stroke-miterlimit="10"/>
<path d="M60.5411 47.847H166" stroke="#618794" stroke-width="2" stroke-miterlimit="10"/>
<path d="M60.5411 71.2823H166" stroke="#618794" stroke-width="2" stroke-miterlimit="10"/>
<path d="M60.5411 83H166" stroke="#618794" stroke-width="2" stroke-miterlimit="10"/>
<path d="M60.5411 94.7177H166" stroke="#618794" stroke-width="2" stroke-miterlimit="10"/>
<path d="M60.5411 118.153H166" stroke="#618794" stroke-width="2" stroke-miterlimit="10"/>
<path d="M60.5411 129.871H166" stroke="#618794" stroke-width="2" stroke-miterlimit="10"/>
<path d="M60.5411 141.588H166" stroke="#618794" stroke-width="2" stroke-miterlimit="10"/>
<path d="M28.4153 35.4458L34.2741 41.3047L47.4565 28.0247" stroke="#EEEDE9" stroke-width="2" stroke-miterlimit="10"/>
<path d="M28.4153 82.3164L34.2741 88.1753L47.4565 74.8953" stroke="#EEEDE9" stroke-width="2" stroke-miterlimit="10"/>
</svg>
