<svg width="108" height="108" viewBox="0 0 108 108" fill="none" xmlns="http://www.w3.org/2000/svg">
<rect width="108" height="108" fill="#FF5F46"/>
<path d="M52 67.0003L19 86.0004V41L52 21.9999V67.0003Z" fill="#1B3139"/>
<path d="M36 57C37.6569 57 39 55.6569 39 54C39 52.3431 37.6569 51 36 51C34.3431 51 33 52.3431 33 54C33 55.6569 34.3431 57 36 57Z" fill="#FF5F46"/>
<path d="M89 66.0003L56 85.0003V41L89 22V66.0003Z" fill="white"/>
<path d="M72.5 56C73.8807 56 75 54.8807 75 53.5C75 52.1193 73.8807 51 72.5 51C71.1193 51 70 52.1193 70 53.5C70 54.8807 71.1193 56 72.5 56Z" fill="#FF5F46"/>
</svg>
