<svg width="166" height="166" viewBox="0 0 166 166" fill="none" xmlns="http://www.w3.org/2000/svg">
<path d="M166 0H0V166H166V0Z" fill="#1B3139"/>
<path d="M166 36.1294H108.681" stroke="#618794" stroke-width="2" stroke-miterlimit="10"/>
<path d="M166 59.5647H132.116" stroke="#618794" stroke-width="2" stroke-miterlimit="10"/>
<path d="M166 83H155.552" stroke="#618794" stroke-width="2" stroke-miterlimit="10"/>
<path d="M166 106.435H132.116" stroke="#618794" stroke-width="2" stroke-miterlimit="10"/>
<path d="M166 129.871H108.681" stroke="#618794" stroke-width="2" stroke-miterlimit="10"/>
<path d="M166 47.8472H120.399" stroke="#618794" stroke-width="2" stroke-miterlimit="10"/>
<path d="M166 71.2822H143.834" stroke="#618794" stroke-width="2" stroke-miterlimit="10"/>
<path d="M166 94.7175H143.834" stroke="#618794" stroke-width="2" stroke-miterlimit="10"/>
<path d="M166 118.153H120.399" stroke="#618794" stroke-width="2" stroke-miterlimit="10"/>
<path d="M166 24.4119H96.9634L108.681 36.1295L120.399 47.8472L132.116 59.5648L143.834 71.2824L155.552 83.0001L143.834 94.7177L132.116 106.435L120.399 118.153L108.681 129.871L96.9634 141.588H166" stroke="#618794" stroke-width="2" stroke-miterlimit="10"/>
<path d="M0 36.1294H91.1047" stroke="#FF5F46" stroke-width="2" stroke-miterlimit="10"/>
<path d="M0 24.4119H81.5353" stroke="#FF5F46" stroke-width="2" stroke-miterlimit="10"/>
<path d="M0 59.5647H91.1047" stroke="#FF5F46" stroke-width="2" stroke-miterlimit="10"/>
<path d="M0 83H91.1047" stroke="#FF5F46" stroke-width="2" stroke-miterlimit="10"/>
<path d="M0 106.435H91.1047" stroke="#FF5F46" stroke-width="2" stroke-miterlimit="10"/>
<path d="M0 129.871H91.1047" stroke="#FF5F46" stroke-width="2" stroke-miterlimit="10"/>
<path d="M0 47.8472H91.1047" stroke="#FF5F46" stroke-width="2" stroke-miterlimit="10"/>
<path d="M0 71.2825H91.1047" stroke="#FF5F46" stroke-width="2" stroke-miterlimit="10"/>
<path d="M0 94.7178H91.1047" stroke="#FF5F46" stroke-width="2" stroke-miterlimit="10"/>
<path d="M0 118.153H91.1047" stroke="#FF5F46" stroke-width="2" stroke-miterlimit="10"/>
<path d="M0 141.588H79.5824" stroke="#FF5F46" stroke-width="2" stroke-miterlimit="10"/>
<path d="M23.4353 23.4353H83L142.565 83L83 142.565H23.4353L83 83L23.4353 23.4353Z" fill="#FF5F46"/>
</svg>
