<svg width="166" height="166" viewBox="0 0 166 166" fill="none" xmlns="http://www.w3.org/2000/svg">
<path d="M166 0H0V166H166V0Z" fill="#EEEDE9"/>
<path d="M47.8472 71.2825H24.4119V94.7178H47.8472V71.2825Z" fill="#FF5F46"/>
<path d="M94.7178 24.4119H71.2825V47.8472H94.7178V24.4119Z" fill="#618794"/>
<path d="M94.7178 118.153H71.2825V141.588H94.7178V118.153Z" fill="#618794"/>
<path d="M141.588 71.2825H118.153V94.7178H141.588V71.2825Z" fill="#1B3139"/>
<path d="M141.588 24.4119H118.153V47.8472H141.588V24.4119Z" fill="#1B3139"/>
<path d="M141.588 118.153H118.153V141.588H141.588V118.153Z" fill="#1B3139"/>
<path d="M83 96.3776C90.3882 96.3776 96.3776 90.3882 96.3776 82.9999C96.3776 75.6117 90.3882 69.6223 83 69.6223C75.6117 69.6223 69.6223 75.6117 69.6223 82.9999C69.6223 90.3882 75.6117 96.3776 83 96.3776Z" fill="#618794"/>
<path d="M36.1294 49.507C43.5176 49.507 49.507 43.5176 49.507 36.1293C49.507 28.7411 43.5176 22.7517 36.1294 22.7517C28.7411 22.7517 22.7517 28.7411 22.7517 36.1293C22.7517 43.5176 28.7411 49.507 36.1294 49.507Z" fill="#FF5F46"/>
<path d="M36.1294 143.248C43.5176 143.248 49.507 137.259 49.507 129.871C49.507 122.482 43.5176 116.493 36.1294 116.493C28.7411 116.493 22.7517 122.482 22.7517 129.871C22.7517 137.259 28.7411 143.248 36.1294 143.248Z" fill="#FF5F46"/>
</svg>
