<svg width="108" height="108" viewBox="0 0 108 108" fill="none" xmlns="http://www.w3.org/2000/svg">
<path d="M-7.62939e-06 108L108 108L108 7.62939e-06L1.81226e-06 -1.81227e-06L-7.62939e-06 108Z" fill="#FF5F46"/>
<path d="M91 76V32L54 11L17 32V76L54 97L91 76Z" fill="white"/>
<path d="M17 34.5C18.3807 34.5 19.5 33.3807 19.5 32C19.5 30.6193 18.3807 29.5 17 29.5C15.6193 29.5 14.5 30.6193 14.5 32C14.5 33.3807 15.6193 34.5 17 34.5Z" fill="#BD2B26"/>
<path d="M91 34.6C92.3807 34.6 93.5 33.4807 93.5 32.1C93.5 30.7193 92.3807 29.6 91 29.6C89.6193 29.6 88.5 30.7193 88.5 32.1C88.5 33.4807 89.6193 34.6 91 34.6Z" fill="#BD2B26"/>
<path d="M54 99.5C55.3807 99.5 56.5 98.3807 56.5 97C56.5 95.6193 55.3807 94.5 54 94.5C52.6193 94.5 51.5 95.6193 51.5 97C51.5 98.3807 52.6193 99.5 54 99.5Z" fill="#BD2B26"/>
<path d="M53.9999 82.0001V53.0001" stroke="#1B3139" stroke-width="2"/>
<path d="M29 39L54 53" stroke="#1B3139" stroke-width="2"/>
<path d="M79 39L54 53" stroke="#1B3139" stroke-width="2"/>
</svg>
