<svg width="166" height="167" viewBox="0 0 166 167" fill="none" xmlns="http://www.w3.org/2000/svg">
<path d="M0.0679169 166.016L166 166.016L166 0.015625L0.0679169 0.015625L0.0679169 166.016Z" fill="#1B3139"/>
<path d="M0 36.1299H165.932" stroke="#618794" stroke-width="2" stroke-miterlimit="10"/>
<path d="M0 59.5652H165.932" stroke="#618794" stroke-width="2" stroke-miterlimit="10"/>
<path d="M0 83.0005H165.932" stroke="#618794" stroke-width="2" stroke-miterlimit="10"/>
<path d="M0 106.436H165.932" stroke="#618794" stroke-width="2" stroke-miterlimit="10"/>
<path d="M0 129.871H165.932" stroke="#618794" stroke-width="2" stroke-miterlimit="10"/>
<path d="M0 139.636H5.46597C8.78462 139.636 11.6152 137.39 12.4937 134.265L40.3117 31.7356C41.1902 28.5132 44.0208 26.365 47.3394 26.365C49.3892 26.365 51.1461 27.1462 52.5126 28.5132C53.8791 29.8803 54.66 31.6379 54.66 33.6885V132.41C54.66 136.413 57.9786 139.733 61.9805 139.733C65.2992 139.733 68.1298 137.487 69.0082 134.363L96.8263 31.8332C97.7047 28.6109 100.633 26.4626 103.854 26.4626C107.856 26.4626 111.174 29.7826 111.174 33.7862V132.507C111.174 136.511 114.395 139.831 118.495 139.831C121.814 139.831 124.644 137.585 125.523 134.46L153.341 31.9309C154.219 28.7085 157.05 26.5603 160.368 26.5603H165.834" stroke="#EEEDE9" stroke-width="2" stroke-miterlimit="10"/>
<path d="M54.7576 69.4273C60.2022 69.4273 64.6159 65.0118 64.6159 59.565C64.6159 54.1182 60.2022 49.7026 54.7576 49.7026C49.313 49.7026 44.8993 54.1182 44.8993 59.565C44.8993 65.0118 49.313 69.4273 54.7576 69.4273Z" fill="#FF5F46"/>
<path d="M20.4975 116.298C25.9421 116.298 30.3558 111.882 30.3558 106.436C30.3558 100.989 25.9421 96.5732 20.4975 96.5732C15.0529 96.5732 10.6392 100.989 10.6392 106.436C10.6392 111.882 15.0529 116.298 20.4975 116.298Z" fill="#EEEDE9"/>
<path d="M111.37 45.992C116.814 45.992 121.228 41.5765 121.228 36.1297C121.228 30.6829 116.814 26.2673 111.37 26.2673C105.925 26.2673 101.511 30.6829 101.511 36.1297C101.511 41.5765 105.925 45.992 111.37 45.992Z" fill="#EEEDE9"/>
<path d="M133.331 116.298C138.776 116.298 143.19 111.882 143.19 106.436C143.19 100.989 138.776 96.5732 133.331 96.5732C127.887 96.5732 123.473 100.989 123.473 106.436C123.473 111.882 127.887 116.298 133.331 116.298Z" fill="#618794"/>
</svg>
