<svg width="166" height="166" viewBox="0 0 166 166" fill="none" xmlns="http://www.w3.org/2000/svg">
<path d="M0 166L165.975 166V83.0005L0 83.0005V166Z" fill="#EEEDE9"/>
<path d="M124.506 166C147.423 166 166 147.42 166 124.5C166 101.58 147.423 83 124.506 83C101.59 83 83.0127 101.58 83.0127 124.5C83.0127 147.42 101.59 166 124.506 166Z" fill="#FF3621"/>
<path d="M0.0167236 83.0005L165.991 83.0005V0.000488281L0.0167236 0.000488281V83.0005Z" fill="#1B3139"/>
<path d="M62.5099 18.1624H19.9423" stroke="#618794" stroke-width="2" stroke-miterlimit="10"/>
<path d="M43.1787 29.88H32.7321" stroke="#618794" stroke-width="2" stroke-miterlimit="10"/>
<path d="M124.506 53.3153H101.27" stroke="#618794" stroke-width="2" stroke-miterlimit="10"/>
<path d="M146.083 41.5977H112.888" stroke="#618794" stroke-width="2" stroke-miterlimit="10"/>
<path d="M97.3646 18.1624H71.3944" stroke="#618794" stroke-width="2" stroke-miterlimit="10"/>
<path d="M146.083 29.88H133.293" stroke="#618794" stroke-width="2" stroke-miterlimit="10"/>
<path d="M146.083 53.3153H133.293" stroke="#618794" stroke-width="2" stroke-miterlimit="10"/>
<path d="M84.1843 41.5977H71.3944" stroke="#618794" stroke-width="2" stroke-miterlimit="10"/>
<path d="M105.077 41.5977H92.3853" stroke="#618794" stroke-width="2" stroke-miterlimit="10"/>
<path d="M53.723 53.3153H32.7321" stroke="#618794" stroke-width="2" stroke-miterlimit="10"/>
<path d="M124.506 29.88H105.761" stroke="#618794" stroke-width="2" stroke-miterlimit="10"/>
<path d="M146.083 18.1624H105.761" stroke="#618794" stroke-width="2" stroke-miterlimit="10"/>
<path d="M103.515 65.033H133.293" stroke="#618794" stroke-width="2" stroke-miterlimit="10"/>
<path d="M41.1284 65.033H94.6309" stroke="#618794" stroke-width="2" stroke-miterlimit="10"/>
<path d="M19.9423 65.033H32.7321" stroke="#618794" stroke-width="2" stroke-miterlimit="10"/>
<path d="M97.3646 29.88H51.2822" stroke="#618794" stroke-width="2" stroke-miterlimit="10"/>
<path d="M62.5099 41.5977H19.9423" stroke="#618794" stroke-width="2" stroke-miterlimit="10"/>
<path d="M92.3853 53.3153H62.5099" stroke="#618794" stroke-width="2" stroke-miterlimit="10"/>
<path d="M65.4388 83V166" stroke="#1B3139" stroke-width="2" stroke-miterlimit="10"/>
<path d="M18.5754 83V166" stroke="#1B3139" stroke-width="2" stroke-miterlimit="10"/>
<path d="M30.2913 83V166" stroke="#1B3139" stroke-width="2" stroke-miterlimit="10"/>
<path d="M42.0072 83V166" stroke="#1B3139" stroke-width="2" stroke-miterlimit="10"/>
<path d="M53.723 83V166" stroke="#1B3139" stroke-width="2" stroke-miterlimit="10"/>
<path d="M106.054 135.339L118.258 123.133L106.054 110.927" stroke="#EEEDE9" stroke-width="2" stroke-miterlimit="10"/>
<path d="M121.968 136.999H142.959" stroke="#EEEDE9" stroke-width="2" stroke-miterlimit="10"/>
</svg>
