<svg width="166" height="166" viewBox="0 0 166 166" fill="none" xmlns="http://www.w3.org/2000/svg">
<path d="M83 0H0V166H83V0Z" fill="#1B3139"/>
<path d="M57.807 147.056C46.187 147.056 36.7153 137.585 36.7153 125.965V102.139C36.7153 96.3776 34.0788 90.9094 29.4894 87.2965L23.3376 82.5118L29.4894 77.727C34.0788 74.2118 36.7153 68.7435 36.7153 62.8847V39.1565C36.7153 27.5365 46.187 18.0647 57.807 18.0647" stroke="#EEEDE9" stroke-width="2" stroke-miterlimit="10"/>
<path d="M166 83H83V166H166V83Z" fill="#618794"/>
<path d="M166 0H83V83H166V0Z" fill="#EEEDE9"/>
<path d="M117.567 98.7212C122.254 98.7212 126.062 102.529 126.062 107.216V116.786C126.062 119.129 127.137 121.278 128.992 122.742L131.433 124.695L128.992 126.648C127.137 128.113 126.062 130.261 126.062 132.605V142.174C126.062 146.861 122.254 150.669 117.567 150.669" stroke="#1B3139" stroke-width="2" stroke-miterlimit="10"/>
<path d="M137.682 18.0647H95.1083" stroke="#618794" stroke-width="2" stroke-miterlimit="10"/>
<path d="M118.251 29.7823H107.802" stroke="#618794" stroke-width="2" stroke-miterlimit="10"/>
<path d="M153.892 18.0647H146.568" stroke="#618794" stroke-width="2" stroke-miterlimit="10"/>
<path d="M147.935 41.5H137.682" stroke="#618794" stroke-width="2" stroke-miterlimit="10"/>
<path d="M128.796 53.2177H107.802" stroke="#618794" stroke-width="2" stroke-miterlimit="10"/>
<path d="M116.298 64.9353H153.892" stroke="#618794" stroke-width="2" stroke-miterlimit="10"/>
<path d="M95.1083 64.9353H107.802" stroke="#618794" stroke-width="2" stroke-miterlimit="10"/>
<path d="M153.892 29.7823H126.355" stroke="#618794" stroke-width="2" stroke-miterlimit="10"/>
<path d="M128.797 41.5H95.1083" stroke="#618794" stroke-width="2" stroke-miterlimit="10"/>
<path d="M147.935 53.2177H137.682" stroke="#618794" stroke-width="2" stroke-miterlimit="10"/>
</svg>
