<svg width="108" height="108" viewBox="0 0 108 108" fill="none" xmlns="http://www.w3.org/2000/svg">
<rect width="108" height="108" fill="#618794"/>
<path d="M54 70L84 87L54 104L24 87L54 70Z" fill="#1B5162"/>
<path d="M54 23.0004L108 54.0004L54 85.0004L0 54.0004L54 23.0004Z" fill="white"/>
<path d="M54 56.5C55.3807 56.5 56.5 55.3807 56.5 54C56.5 52.6193 55.3807 51.5 54 51.5C52.6193 51.5 51.5 52.6193 51.5 54C51.5 55.3807 52.6193 56.5 54 56.5Z" fill="#FF5F46"/>
<path d="M85.5 41C86.8807 41 88 39.8807 88 38.5C88 37.1193 86.8807 36 85.5 36C84.1193 36 83 37.1193 83 38.5C83 39.8807 84.1193 41 85.5 41Z" fill="#1B5162"/>
<path d="M54 87.5C55.3807 87.5 56.5 86.3807 56.5 85C56.5 83.6193 55.3807 82.5 54 82.5C52.6193 82.5 51.5 83.6193 51.5 85C51.5 86.3807 52.6193 87.5 54 87.5Z" fill="#FF5F46"/>
<path d="M54 25.6C55.3807 25.6 56.5 24.4807 56.5 23.1C56.5 21.7193 55.3807 20.6 54 20.6C52.6193 20.6 51.5 21.7193 51.5 23.1C51.5 24.4807 52.6193 25.6 54 25.6Z" fill="#FF5F46"/>
<path d="M85.5 10C86.8807 10 88 8.88071 88 7.5C88 6.11929 86.8807 5 85.5 5C84.1193 5 83 6.11929 83 7.5C83 8.88071 84.1193 10 85.5 10Z" fill="#1B5162"/>
<path d="M85.5 72C86.8807 72 88 70.8807 88 69.5C88 68.1193 86.8807 67 85.5 67C84.1193 67 83 68.1193 83 69.5C83 70.8807 84.1193 72 85.5 72Z" fill="#1B5162"/>
<path d="M85.2 103.5C86.5807 103.5 87.7 102.381 87.7 101C87.7 99.6193 86.5807 98.5 85.2 98.5C83.8192 98.5 82.7 99.6193 82.7 101C82.7 102.381 83.8192 103.5 85.2 103.5Z" fill="#1B5162"/>
</svg>
