<svg width="166" height="166" viewBox="0 0 166 166" fill="none" xmlns="http://www.w3.org/2000/svg">
<path d="M166 0H0V166H166V0Z" fill="#EEEDE9"/>
<path d="M71.2823 71.2825H24.4117V94.7178H71.2823V71.2825Z" fill="#618794"/>
<path d="M94.7176 71.2825H71.2823V94.7178H94.7176V71.2825Z" fill="#618794"/>
<path d="M47.847 118.153H24.4117V141.588H47.847V118.153Z" fill="#618794"/>
<path d="M129.871 49.507C137.259 49.507 143.248 43.5176 143.248 36.1294C143.248 28.7411 137.259 22.7517 129.871 22.7517C122.482 22.7517 116.493 28.7411 116.493 36.1294C116.493 43.5176 122.482 49.507 129.871 49.507Z" fill="#FF5F46"/>
<path d="M83 143.248C90.3882 143.248 96.3776 137.259 96.3776 129.871C96.3776 122.482 90.3882 116.493 83 116.493C75.6117 116.493 69.6223 122.482 69.6223 129.871C69.6223 137.259 75.6117 143.248 83 143.248Z" fill="#618794"/>
<path d="M129.871 58.8812C142.436 58.8812 152.622 48.6949 152.622 36.1294C152.622 23.564 142.436 13.3777 129.871 13.3777C117.305 13.3777 107.119 23.564 107.119 36.1294C107.119 48.6949 117.305 58.8812 129.871 58.8812Z" stroke="#1B3139" stroke-width="2" stroke-miterlimit="10"/>
<path d="M129.871 13.3776V0" stroke="#1B3139" stroke-width="2" stroke-miterlimit="10"/>
<path d="M152.232 36.1294H166" stroke="#1B3139" stroke-width="2" stroke-miterlimit="10"/>
<path d="M47.847 24.4119H24.4117V47.8472H47.847V24.4119Z" fill="#618794"/>
<path d="M83 49.507C90.3882 49.507 96.3776 43.5176 96.3776 36.1294C96.3776 28.7411 90.3882 22.7517 83 22.7517C75.6117 22.7517 69.6223 28.7411 69.6223 36.1294C69.6223 43.5176 75.6117 49.507 83 49.507Z" fill="#618794"/>
<path d="M107.119 36.1294H0" stroke="#1B3139" stroke-width="2" stroke-miterlimit="10"/>
<path d="M141.588 71.2825H118.153V94.7178H141.588V71.2825Z" fill="#618794"/>
<path d="M141.588 118.153H118.153V141.588H141.588V118.153Z" fill="#618794"/>
<path d="M129.871 166V58.8813" stroke="#1B3139" stroke-width="2" stroke-miterlimit="10"/>
</svg>
