<svg width="166" height="167" viewBox="0 0 166 167" fill="none" xmlns="http://www.w3.org/2000/svg">
<path d="M166 0.600098H0V166.6H166V0.600098Z" fill="#EEEDE9"/>
<path d="M82.9999 0.600098H0V83.6H82.9999V0.600098Z" fill="#FF5F46"/>
<path d="M166 83.6001H83.0001V166.6H166V83.6001Z" fill="#1B3139"/>
<path d="M83.0001 0.600098L124.5 42.1001L83.0001 83.6V0.600098Z" fill="#FF5F46"/>
<path d="M83 166.6L41.5 125.1L83 83.6001V166.6Z" fill="#1B3139"/>
<path d="M22.4589 27.5507C26.2879 27.5507 29.3919 24.4467 29.3919 20.6178C29.3919 16.7888 26.2879 13.6848 22.4589 13.6848C18.63 13.6848 15.526 16.7888 15.526 20.6178C15.526 24.4467 18.63 27.5507 22.4589 27.5507Z" stroke="#1B3139" stroke-width="2" stroke-miterlimit="10"/>
<path d="M22.4589 49.0331C26.2879 49.0331 29.3919 45.9291 29.3919 42.1002C29.3919 38.2712 26.2879 35.1672 22.4589 35.1672C18.63 35.1672 15.526 38.2712 15.526 42.1002C15.526 45.9291 18.63 49.0331 22.4589 49.0331Z" stroke="#1B3139" stroke-width="2" stroke-miterlimit="10"/>
<path d="M22.4589 70.5153C26.2879 70.5153 29.3919 67.4113 29.3919 63.5824C29.3919 59.7534 26.2879 56.6494 22.4589 56.6494C18.63 56.6494 15.526 59.7534 15.526 63.5824C15.526 67.4113 18.63 70.5153 22.4589 70.5153Z" stroke="#1B3139" stroke-width="2" stroke-miterlimit="10"/>
<path d="M143.541 110.551C147.37 110.551 150.474 107.447 150.474 103.618C150.474 99.7888 147.37 96.6848 143.541 96.6848C139.712 96.6848 136.608 99.7888 136.608 103.618C136.608 107.447 139.712 110.551 143.541 110.551Z" stroke="#FF5F46" stroke-width="2" stroke-miterlimit="10"/>
<path d="M143.541 132.033C147.37 132.033 150.474 128.929 150.474 125.1C150.474 121.271 147.37 118.167 143.541 118.167C139.712 118.167 136.608 121.271 136.608 125.1C136.608 128.929 139.712 132.033 143.541 132.033Z" stroke="#FF5F46" stroke-width="2" stroke-miterlimit="10"/>
<path d="M143.541 153.515C147.37 153.515 150.474 150.411 150.474 146.582C150.474 142.753 147.37 139.649 143.541 139.649C139.712 139.649 136.608 142.753 136.608 146.582C136.608 150.411 139.712 153.515 143.541 153.515Z" stroke="#FF5F46" stroke-width="2" stroke-miterlimit="10"/>
<path d="M90.0306 49.0331C93.8596 49.0331 96.9635 45.9291 96.9635 42.1002C96.9635 38.2712 93.8596 35.1672 90.0306 35.1672C86.2016 35.1672 83.0977 38.2712 83.0977 42.1002C83.0977 45.9291 86.2016 49.0331 90.0306 49.0331Z" stroke="#1B3139" stroke-width="2" stroke-miterlimit="10"/>
<path d="M83.0001 42.1001H29.9778" stroke="#1B3139" stroke-width="2" stroke-miterlimit="10"/>
<path d="M29.4896 63.5823H47.9448C53.6084 63.5823 58.2954 58.9929 58.2954 53.2318V30.8706C58.2954 25.2071 53.706 20.52 47.9448 20.52H29.4896" stroke="#1B3139" stroke-width="2" stroke-miterlimit="10"/>
<path d="M76.067 132.033C79.896 132.033 82.9999 128.929 82.9999 125.1C82.9999 121.271 79.896 118.167 76.067 118.167C72.2381 118.167 69.1341 121.271 69.1341 125.1C69.1341 128.929 72.2381 132.033 76.067 132.033Z" stroke="#FF5F46" stroke-width="2" stroke-miterlimit="10"/>
<path d="M83.0001 125.1H136.12" stroke="#FF5F46" stroke-width="2" stroke-miterlimit="10"/>
<path d="M136.511 103.618H118.055C112.392 103.618 107.705 108.207 107.705 113.968V136.329C107.705 141.993 112.294 146.68 118.055 146.68H136.511" stroke="#FF5F46" stroke-width="2" stroke-miterlimit="10"/>
</svg>
