<svg width="166" height="166" viewBox="0 0 166 166" fill="none" xmlns="http://www.w3.org/2000/svg">
<path d="M83 166H166V83L83 83L83 166Z" fill="#1B5162"/>
<path d="M0 166H83L83 83L0 83L0 166Z" fill="#618794"/>
<path d="M166 0H83V83H166V0Z" fill="#618794"/>
<path d="M83 0H0V83H83V0Z" fill="#1B5162"/>
<path d="M31 117L83 147L135 117L83 87L31 117Z" fill="#1B3139"/>
<path d="M19 81L83 118L147 81L83 44L19 81Z" fill="white"/>
<path d="M145.002 64L83 99.8449L20.998 64L83 28.1551L145.002 64Z" stroke="#1B3139" stroke-width="2"/>
<path d="M19 73C23.9706 73 28 68.9706 28 64C28 59.0294 23.9706 55 19 55C14.0294 55 10 59.0294 10 64C10 68.9706 14.0294 73 19 73Z" fill="#FF5F46"/>
<path d="M83 36C87.9706 36 92 31.9706 92 27C92 22.0294 87.9706 18 83 18C78.0294 18 74 22.0294 74 27C74 31.9706 78.0294 36 83 36Z" fill="#1B3139"/>
<path d="M147 73C151.971 73 156 68.9706 156 64C156 59.0294 151.971 55 147 55C142.029 55 138 59.0294 138 64C138 68.9706 142.029 73 147 73Z" fill="#FF5F46"/>
<path d="M83 110C87.9706 110 92 105.971 92 101C92 96.0294 87.9706 92 83 92C78.0294 92 74 96.0294 74 101C74 105.971 78.0294 110 83 110Z" fill="#1B3139"/>
</svg>
