<svg width="166" height="166" viewBox="0 0 166 166" fill="none" xmlns="http://www.w3.org/2000/svg">
<path d="M166 83H83V166H166V83Z" fill="#1B3139"/>
<path d="M83 0H0V83H83V0Z" fill="#FF3621"/>
<path d="M166 0H83V83H166V0Z" fill="#EEEDE9"/>
<path d="M83 83H0V166H83V83Z" fill="#EEEDE9"/>
<path d="M50.2883 11.8152H13.4753V31.1493H50.2883V11.8152Z" fill="#1B3139"/>
<path d="M69.6223 11.8152H50.2882V31.1493H69.6223V11.8152Z" fill="#EEEDE9"/>
<path d="M32.8095 50.4834H13.4753V69.8175H32.8095V50.4834Z" fill="#EEEDE9"/>
<path d="M59.9552 71.1847C66.0492 71.1847 70.9894 66.2445 70.9894 60.1506C70.9894 54.0566 66.0492 49.1165 59.9552 49.1165C53.8613 49.1165 48.9211 54.0566 48.9211 60.1506C48.9211 66.2445 53.8613 71.1847 59.9552 71.1847Z" fill="#1B3139"/>
<path d="M116.102 94.8152H96.7682V114.149H116.102V94.8152Z" fill="#EEEDE9"/>
<path d="M116.102 133.483H96.7682V152.818H116.102V133.483Z" fill="#EEEDE9"/>
<path d="M143.248 154.185C149.342 154.185 154.282 149.245 154.282 143.151C154.282 137.057 149.342 132.116 143.248 132.116C137.154 132.116 132.214 137.057 132.214 143.151C132.214 149.245 137.154 154.185 143.248 154.185Z" fill="#618794"/>
<path d="M143.248 115.516C149.342 115.516 154.282 110.576 154.282 104.482C154.282 98.3884 149.342 93.4482 143.248 93.4482C137.154 93.4482 132.214 98.3884 132.214 104.482C132.214 110.576 137.154 115.516 143.248 115.516Z" fill="#618794"/>
<path d="M83 0H124.5L166 41.5L124.5 83H83L124.5 41.5L83 0Z" fill="#FF5F46"/>
<path d="M83 166H41.5L0 124.5L41.5 83H83L41.5 124.5L83 166Z" fill="#618794"/>
</svg>
