<svg width="166" height="166" viewBox="0 0 166 166" fill="none" xmlns="http://www.w3.org/2000/svg">
<path d="M166 0H0V166H166V0Z" fill="#EEEDE9"/>
<path d="M94.7176 24.4119H71.2823V47.8472H94.7176V24.4119Z" fill="#618794"/>
<path d="M94.7176 71.2825H71.2823V94.7178H94.7176V71.2825Z" fill="#618794"/>
<path d="M94.7176 118.153H71.2823V141.588H94.7176V118.153Z" fill="#618794"/>
<path d="M36.1295 49.507C43.5178 49.507 49.5071 43.5176 49.5071 36.1294C49.5071 28.7411 43.5178 22.7517 36.1295 22.7517C28.7412 22.7517 22.7518 28.7411 22.7518 36.1294C22.7518 43.5176 28.7412 49.507 36.1295 49.507Z" fill="#FF5F46"/>
<path d="M36.1295 143.248C43.5178 143.248 49.5071 137.259 49.5071 129.871C49.5071 122.482 43.5178 116.493 36.1295 116.493C28.7412 116.493 22.7518 122.482 22.7518 129.871C22.7518 137.259 28.7412 143.248 36.1295 143.248Z" fill="#FF5F46"/>
<path d="M36.1295 96.3776C43.5178 96.3776 49.5071 90.3882 49.5071 83C49.5071 75.6117 43.5178 69.6223 36.1295 69.6223C28.7412 69.6223 22.7518 75.6117 22.7518 83C22.7518 90.3882 28.7412 96.3776 36.1295 96.3776Z" fill="#FF5F46"/>
<path d="M129.871 22.947L137.096 35.4458L144.225 47.847H129.871H115.516L122.742 35.4458L129.871 22.947Z" fill="#1B3139"/>
<path d="M129.871 69.8176L137.096 82.3165L144.225 94.7176H129.871H115.516L122.742 82.3165L129.871 69.8176Z" fill="#1B3139"/>
<path d="M129.871 116.688L137.096 129.187L144.225 141.588H129.871H115.516L122.742 129.187L129.871 116.688Z" fill="#1B3139"/>
</svg>
