<svg width="166" height="166" viewBox="0 0 166 166" fill="none" xmlns="http://www.w3.org/2000/svg">
<path d="M82.9956 0H0V83H82.9956V0Z" fill="#1B3139"/>
<path d="M0.00880432 165.993H83.0044L83.0044 82.9933L0.00880432 82.9933L0.00880432 165.993Z" fill="#EEEDE9"/>
<path d="M83.0044 83.0029L166 83.0029V0.00292969L83.0044 0.00292969L83.0044 83.0029Z" fill="#EEEDE9"/>
<path d="M165.991 83H82.9956V166H165.991V83Z" fill="#618794"/>
<path d="M65.0295 83V147.935" stroke="#1B3139" stroke-width="2" stroke-miterlimit="10"/>
<path d="M18.1624 83V147.935" stroke="#1B3139" stroke-width="2" stroke-miterlimit="10"/>
<path d="M29.8784 83V147.935" stroke="#1B3139" stroke-width="2" stroke-miterlimit="10"/>
<path d="M41.5955 83V147.935" stroke="#1B3139" stroke-width="2" stroke-miterlimit="10"/>
<path d="M53.3125 83V147.935" stroke="#1B3139" stroke-width="2" stroke-miterlimit="10"/>
<path d="M83.0942 18.0647C47.2596 18.0647 18.1624 47.1635 18.1624 83" stroke="#EEEDE9" stroke-width="2" stroke-miterlimit="10"/>
<path d="M83.0942 64.9353C73.1342 64.9353 65.0295 73.04 65.0295 83" stroke="#EEEDE9" stroke-width="2" stroke-miterlimit="10"/>
<path d="M53.3125 83C53.3125 66.5953 66.6894 53.2177 83.0933 53.2177" stroke="#EEEDE9" stroke-width="2" stroke-miterlimit="10"/>
<path d="M41.5955 83C41.5955 60.0529 60.1474 41.5 83.0933 41.5" stroke="#EEEDE9" stroke-width="2" stroke-miterlimit="10"/>
<path d="M29.8784 83C29.8784 53.6082 53.703 29.7823 83.0932 29.7823" stroke="#EEEDE9" stroke-width="2" stroke-miterlimit="10"/>
<path d="M10.6436 147.935H72.4508" stroke="#1B3139" stroke-width="2" stroke-miterlimit="10"/>
<path d="M101.059 83V18.0647" stroke="#618794" stroke-width="2" stroke-miterlimit="10"/>
<path d="M147.927 83V18.0647" stroke="#618794" stroke-width="2" stroke-miterlimit="10"/>
<path d="M136.21 83V18.0647" stroke="#618794" stroke-width="2" stroke-miterlimit="10"/>
<path d="M124.493 83V18.0647" stroke="#618794" stroke-width="2" stroke-miterlimit="10"/>
<path d="M112.777 83V18.0647" stroke="#618794" stroke-width="2" stroke-miterlimit="10"/>
<path d="M82.9956 147.935C118.83 147.935 147.927 118.836 147.927 83" stroke="#1B3139" stroke-width="2" stroke-miterlimit="10"/>
<path d="M82.9956 101.065C92.9556 101.065 101.06 92.96 101.06 83" stroke="#1B3139" stroke-width="2" stroke-miterlimit="10"/>
<path d="M112.776 83C112.776 99.4047 99.3994 112.782 82.9956 112.782" stroke="#1B3139" stroke-width="2" stroke-miterlimit="10"/>
<path d="M124.493 83C124.493 105.947 105.941 124.5 82.9956 124.5" stroke="#1B3139" stroke-width="2" stroke-miterlimit="10"/>
<path d="M136.21 83C136.21 112.392 112.386 136.218 82.9956 136.218" stroke="#1B3139" stroke-width="2" stroke-miterlimit="10"/>
<path d="M155.446 18.0647H93.541" stroke="#618794" stroke-width="2" stroke-miterlimit="10"/>
</svg>
