<svg width="166" height="166" viewBox="0 0 166 166" fill="none" xmlns="http://www.w3.org/2000/svg">
<g clip-path="url(#clip0_989_1386)">
<path d="M0.509094 83.2175L0.509094 166.218H165.538V83.2175L0.509094 83.2175Z" fill="#1B3139"/>
<path d="M83.0971 83.1953L59.2164 124.695L35.4327 166.195H83.0971H130.664L106.881 124.695L83.0971 83.1953Z" fill="#EEEDE9"/>
<path d="M0.509094 0.217522L0.509094 83.2175L165.538 83.2175V0.217522L0.509094 0.217522Z" fill="#618794"/>
<path d="M83.0971 83.1953L59.2164 41.6953L35.4327 0.195312H83.0971H130.664L106.881 41.6953L83.0971 83.1953Z" fill="#1B3139"/>
<path d="M83.097 51.9482L34.8502 135.925L-13.2995 219.901H83.097H179.493L131.247 135.925L83.097 51.9482Z" stroke="#EEEDE9" stroke-width="2" stroke-miterlimit="10"/>
<path d="M83.097 22.5564L17.959 135.925L-47.179 249.391H83.097H213.276L148.138 135.925L83.097 22.5564Z" stroke="#EEEDE9" stroke-width="2" stroke-miterlimit="10"/>
<path d="M83.097 114.54L131.247 30.5636L179.493 -53.5105H83.097H-13.2995L34.8502 30.5636L83.097 114.54Z" stroke="#1B3139" stroke-width="2" stroke-miterlimit="10"/>
<path d="M83.097 143.932L148.138 30.5635L213.276 -82.9023H83.097H-47.179L17.959 30.5635L83.097 143.932Z" stroke="#1B3139" stroke-width="2" stroke-miterlimit="10"/>
<path d="M83.0972 120.594L69.9919 143.444L56.8867 166.195H83.0972H109.211L96.2024 143.444L83.0972 120.594Z" fill="#FF5F46"/>
<path d="M83.0972 45.7965L96.2024 23.0447L109.211 0.195312H83.0972H56.8867L69.9919 23.0447L83.0972 45.7965Z" fill="#FF5F46"/>
</g>
<defs>
<clipPath id="clip0_989_1386">
<rect width="166" height="166" fill="white"/>
</clipPath>
</defs>
</svg>
