<svg width="16" height="16" viewBox="0 0 16 16" fill="none" xmlns="http://www.w3.org/2000/svg">
<path d="M13.3775 11.8168C13.7805 11.0229 14 10.1339 14 9.21466V1.74994C14 1.33573 13.6642 0.999939 13.25 0.999939H2.75C2.69153 0.999939 2.63463 1.00663 2.58001 1.01929L4.06066 2.49994H12.5V9.21466C12.5 9.72189 12.4096 10.2167 12.2398 10.6791L13.3775 11.8168Z" fill="#FF3621"/>
<path fill-rule="evenodd" clip-rule="evenodd" d="M1.96973 2.53033L0.969727 3.53033L2 4.5606V9.21466C2 11.206 3.03031 13.0555 4.72346 14.1037L7.60523 15.8876C7.84711 16.0374 8.15289 16.0374 8.39477 15.8876L11.2765 14.1037C11.3313 14.0698 11.3854 14.035 11.4388 13.9994L12.9697 15.5303L13.9697 14.5303L1.96973 2.53033ZM3.5 9.21466V6.0606L10.3515 12.9121L8 14.3679L5.51299 12.8283C4.26153 12.0536 3.5 10.6865 3.5 9.21466Z" fill="#FF3621"/>
</svg>
