<svg width="16" height="16" viewBox="0 0 16 16" fill="none" xmlns="http://www.w3.org/2000/svg">
<path fill-rule="evenodd" clip-rule="evenodd" d="M1.75 1C1.33579 1 1 1.33579 1 1.75V14.25C1 14.6642 1.33579 15 1.75 15H14.25C14.6642 15 15 14.6642 15 14.25V1.75C15 1.33579 14.6642 1 14.25 1H1.75ZM2.5 13.5V2.5H13.5V13.5H2.5ZM6.5 6.5C6.5 6.41457 6.55195 6.24543 6.82504 6.06338C7.09287 5.88482 7.5061 5.75 8 5.75C8.4939 5.75 8.90713 5.88482 9.17496 6.06338C9.44805 6.24543 9.5 6.41457 9.5 6.5H11C11 5.757 10.5483 5.17614 10.007 4.8153C9.46052 4.45097 8.74874 4.25 8 4.25C7.25126 4.25 6.53948 4.45097 5.99298 4.8153C5.45173 5.17614 5 5.757 5 6.5C5 6.91828 5.10295 7.29898 5.322 7.62304C5.5374 7.94168 5.82932 8.1528 6.12245 8.2968C6.65087 8.55637 7.31264 8.65277 7.82937 8.72804L7.89146 8.7371C8.49059 8.82473 8.92094 8.89583 9.21406 9.04098C9.34243 9.10454 9.40258 9.16391 9.43395 9.21065C9.46188 9.25224 9.5 9.33198 9.5 9.5C9.5 9.66681 9.4241 9.82596 9.16452 9.97978C8.88741 10.144 8.46625 10.25 8 10.25C7.53375 10.25 7.11259 10.144 6.83548 9.97978C6.5759 9.82596 6.5 9.66681 6.5 9.5H5C5 10.3332 5.4866 10.924 6.07077 11.2702C6.63741 11.606 7.34125 11.75 8 11.75C8.65875 11.75 9.36259 11.606 9.92923 11.2702C10.5134 10.924 11 10.3332 11 9.5C11 9.0809 10.8975 8.69952 10.6793 8.37456C10.4646 8.05473 10.1732 7.84209 9.87969 7.69675C9.34835 7.43364 8.6829 7.33663 8.16442 7.26105L8.10854 7.25289C7.50851 7.16513 7.07772 7.09484 6.7838 6.95046C6.65506 6.88722 6.59542 6.82842 6.56472 6.783C6.53768 6.743 6.5 6.6655 6.5 6.5Z" fill="#FF3621"/>
</svg>
