<svg width="16" height="16" viewBox="0 0 16 16" fill="none" xmlns="http://www.w3.org/2000/svg">
<path fill-rule="evenodd" clip-rule="evenodd" d="M4 15L4 12.6465C2.84575 12.32 2 11.2588 2 10C2 8.74122 2.84575 7.67998 4 7.35352L4 1H5.5L5.5 7.35352C6.65425 7.67998 7.5 8.74122 7.5 10C7.5 11.2588 6.65425 12.32 5.5 12.6465L5.5 15H4ZM4.75 11.25C4.05964 11.25 3.5 10.6904 3.5 10C3.5 9.30964 4.05964 8.75 4.75 8.75C5.44036 8.75 6 9.30964 6 10C6 10.6904 5.44036 11.25 4.75 11.25Z" fill="#FF3621"/>
<path fill-rule="evenodd" clip-rule="evenodd" d="M10.5 1L10.5 3.35352C9.34575 3.67998 8.5 4.74122 8.5 6C8.5 7.25878 9.34575 8.32002 10.5 8.64648V15H12V8.64648C13.1543 8.32002 14 7.25878 14 6C14 4.74122 13.1543 3.67998 12 3.35352L12 1H10.5ZM11.25 4.75C10.5596 4.75 10 5.30964 10 6C10 6.69036 10.5596 7.25 11.25 7.25C11.9404 7.25 12.5 6.69036 12.5 6C12.5 5.30964 11.9404 4.75 11.25 4.75Z" fill="#FF3621"/>
</svg>
