<svg width="16" height="16" viewBox="0 0 16 16" fill="none" xmlns="http://www.w3.org/2000/svg">
<path fill-rule="evenodd" clip-rule="evenodd" d="M4.73891 9.62149C4.67643 9.26225 4.36463 9 4 9C3.63537 9 3.32357 9.26225 3.26109 9.62149L3.10862 10.4982C3.05437 10.8101 2.81012 11.0544 2.49822 11.1086L1.62149 11.2611C1.26225 11.3236 1 11.6354 1 12C1 12.3646 1.26225 12.6764 1.62149 12.7389L2.49821 12.8914C2.81012 12.9456 3.05437 13.1899 3.10862 13.5018L3.26109 14.3785C3.32357 14.7377 3.63537 15 4 15C4.36463 15 4.67643 14.7377 4.73891 14.3785L4.89138 13.5018C4.94563 13.1899 5.18988 12.9456 5.50178 12.8914L6.37851 12.7389C6.73775 12.6764 7 12.3646 7 12C7 11.6354 6.73775 11.3236 6.37851 11.2611L5.50179 11.1086C5.18988 11.0544 4.94563 10.8101 4.89138 10.4982L4.73891 9.62149Z" fill="#FF3621"/>
<path fill-rule="evenodd" clip-rule="evenodd" d="M10.737 0.610944C10.6701 0.256606 10.3606 0 10 0C9.63941 0 9.32986 0.256607 9.263 0.610944L8.99914 2.00944C8.71292 3.52637 7.52637 4.71292 6.00944 4.99914L4.61094 5.263C4.25661 5.32986 4 5.63941 4 6C4 6.36059 4.25661 6.67014 4.61094 6.737L6.00944 7.00086C7.52637 7.28708 8.71292 8.47363 8.99914 9.99056L9.263 11.3891C9.32986 11.7434 9.63941 12 10 12C10.3606 12 10.6701 11.7434 10.737 11.3891L11.0009 9.99056C11.2871 8.47363 12.4736 7.28708 13.9906 7.00086L15.3891 6.737C15.7434 6.67014 16 6.36059 16 6C16 5.63941 15.7434 5.32986 15.3891 5.263L13.9906 4.99914C12.4736 4.71292 11.2871 3.52637 11.0009 2.00944L10.737 0.610944Z" fill="#FF3621"/>
</svg>
