<svg width="16" height="16" viewBox="0 0 16 16" fill="none" xmlns="http://www.w3.org/2000/svg">
<path fill-rule="evenodd" clip-rule="evenodd" d="M13.6674 6.57511C15.0426 7.02737 15.0426 8.97268 13.6674 9.42494L11.1945 10.2382C10.742 10.3871 10.3871 10.742 10.2382 11.1945L9.42494 13.6674C8.97268 15.0426 7.02737 15.0426 6.57511 13.6674L5.76182 11.1945C5.61299 10.742 5.25806 10.3871 4.80553 10.2382L2.33264 9.42494C0.95748 8.97268 0.957478 7.02737 2.33264 6.57511L4.80553 5.76182C5.25806 5.61299 5.61299 5.25806 5.76182 4.80553L6.57511 2.33264C7.02737 0.957479 8.97267 0.957478 9.42494 2.33264L10.2382 4.80553C10.3871 5.25806 10.742 5.61299 11.1945 5.76182L13.6674 6.57511Z" fill="#FF3621"/>
</svg>
