<svg width="16" height="16" viewBox="0 0 16 16" fill="none" xmlns="http://www.w3.org/2000/svg">
<path d="M3.84753 10.6267L4 9.75L4.15247 10.6267C4.26096 11.2505 4.74947 11.739 5.37328 11.8475L6.25 12L5.37328 12.1525C4.74947 12.261 4.26096 12.7495 4.15247 13.3733L4 14.25L3.84753 13.3733C3.73904 12.7495 3.25053 12.261 2.62672 12.1525L1.75 12L2.62672 11.8475C3.25053 11.739 3.73904 11.2505 3.84753 10.6267Z" fill="#FF3621"/>
<path fill-rule="evenodd" clip-rule="evenodd" d="M4 9C4.36463 9 4.67643 9.26225 4.73891 9.62149L4.89138 10.4982C4.94563 10.8101 5.18988 11.0544 5.50179 11.1086L6.37851 11.2611C6.73775 11.3236 7 11.6354 7 12C7 12.3646 6.73775 12.6764 6.37851 12.7389L5.50178 12.8914C5.18988 12.9456 4.94563 13.1899 4.89138 13.5018L4.73891 14.3785C4.67643 14.7377 4.36463 15 4 15C3.63537 15 3.32357 14.7377 3.26109 14.3785L3.10862 13.5018C3.05437 13.1899 2.81012 12.9456 2.49821 12.8914L1.62149 12.7389C1.26225 12.6764 1 12.3646 1 12C1 11.6354 1.26225 11.3236 1.62149 11.2611L2.49822 11.1086C2.81012 11.0544 3.05437 10.8101 3.10862 10.4982L3.26109 9.62149C3.32357 9.26225 3.63537 9 4 9ZM4 11.9204C3.97413 11.9476 3.94759 11.9741 3.92041 12C3.94759 12.0259 3.97413 12.0524 4 12.0796C4.02587 12.0524 4.05241 12.0259 4.07959 12C4.05241 11.9741 4.02587 11.9476 4 11.9204Z" fill="#FF3621"/>
<path fill-rule="evenodd" clip-rule="evenodd" d="M10 0C10.3606 -5.96046e-08 10.6701 0.256607 10.737 0.610944L11.0009 2.00944C11.2871 3.52637 12.4736 4.71292 13.9906 4.99914L15.3891 5.263C15.7434 5.32986 16 5.63941 16 6C16 6.36059 15.7434 6.67014 15.3891 6.737L13.9906 7.00086C12.4736 7.28708 11.2871 8.47363 11.0009 9.99056L10.737 11.3891C10.6701 11.7434 10.3606 12 10 12C9.63941 12 9.32986 11.7434 9.263 11.3891L8.99914 9.99056C8.71292 8.47363 7.52637 7.28708 6.00944 7.00086L4.61094 6.737C4.25661 6.67014 4 6.36059 4 6C4 5.63941 4.25661 5.32986 4.61094 5.263L6.00944 4.99914C7.52637 4.71292 8.71292 3.52637 8.99914 2.00944L9.263 0.610944C9.32986 0.256607 9.63941 5.96047e-08 10 0ZM10 3.68233C9.49494 4.68153 8.68153 5.49494 7.68233 6C8.68153 6.50507 9.49494 7.31847 10 8.31767C10.5051 7.31847 11.3185 6.50507 12.3177 6C11.3185 5.49494 10.5051 4.68153 10 3.68233Z" fill="#FF3621"/>
</svg>
