<svg width="16" height="16" viewBox="0 0 16 16" fill="none" xmlns="http://www.w3.org/2000/svg">
<path fill-rule="evenodd" clip-rule="evenodd" d="M7.99482 0C8.31974 0 8.60771 0.20922 8.70811 0.518237L10.1675 5.00963L14.89 5.00963C15.2149 5.00963 15.5029 5.21885 15.6033 5.52786C15.7037 5.83688 15.5937 6.17541 15.3308 6.36639L11.5102 9.14222L12.9696 13.6336C13.07 13.9426 12.96 14.2812 12.6971 14.4721C12.4342 14.6631 12.0783 14.6631 11.8154 14.4721L7.99482 11.6963L4.17422 14.4721C3.91135 14.6631 3.5554 14.6631 3.29254 14.4721C3.02967 14.2812 2.91968 13.9426 3.02008 13.6336L4.47943 9.14222L0.658822 6.36639C0.395956 6.17541 0.285962 5.83688 0.386368 5.52786C0.486774 5.21885 0.774741 5.00963 1.09966 5.00963L5.82219 5.00963L7.28153 0.518237C7.38193 0.20922 7.6699 0 7.99482 0ZM7.99482 3.17705L7.08039 5.99139C6.97998 6.30041 6.69201 6.50963 6.36709 6.50963L3.40792 6.50963L5.80194 8.24898C6.06481 8.43997 6.1748 8.77849 6.0744 9.08751L5.15996 11.9018L7.55398 10.1625C7.81685 9.97151 8.17279 9.97151 8.43566 10.1625L10.8297 11.9018L9.91525 9.08751C9.81484 8.77849 9.92483 8.43997 10.1877 8.24898L12.5817 6.50963L9.62255 6.50963C9.29763 6.50963 9.00966 6.30041 8.90926 5.99139L7.99482 3.17705Z" fill="#FF3621"/>
</svg>
