<svg width="16" height="16" viewBox="0 0 16 16" fill="none" xmlns="http://www.w3.org/2000/svg">
<path fill-rule="evenodd" clip-rule="evenodd" d="M1 1.75C1 1.33579 1.33579 1 1.75 1H14.25C14.6642 1 15 1.33579 15 1.75V8.99999H13.5V7H2.5V13.5H8V15H1.75C1.33579 15 1 14.6642 1 14.25V1.75ZM13.5 2.5V5.5H2.5V2.5H13.5Z" fill="#FF3621"/>
<path d="M11.4306 8.01191L8.43056 11.5119C8.23994 11.7343 8.19623 12.0473 8.31862 12.3134C8.441 12.5795 8.7071 12.75 9 12.75H12.3693L10.4306 15.0119L11.5694 15.9881L14.5694 12.4881C14.7601 12.2657 14.8038 11.9527 14.6814 11.6866C14.559 11.4205 14.2929 11.25 14 11.25H10.6307L12.5694 8.98809L11.4306 8.01191Z" fill="#FF3621"/>
</svg>
