<svg width="16" height="16" viewBox="0 0 16 16" fill="none" xmlns="http://www.w3.org/2000/svg">
<g clip-path="url(#clip0_2246_2587)">
<path fill-rule="evenodd" clip-rule="evenodd" d="M13.6551 2.27368C13.5082 2.14759 13.3202 2.07983 13.1266 2.08325L13.1134 2.08349L12.0834 2.08337V7.9167H13.1266C13.3202 7.92013 13.5082 7.85248 13.6551 7.72639C13.7913 7.60949 13.8833 7.45 13.9167 7.27448V2.72559C13.8833 2.55008 13.7913 2.39058 13.6551 2.27368ZM10.5834 8.50754V2.08337H3.80487C3.6642 2.08178 3.52768 2.13104 3.42049 2.22215C3.31329 2.31327 3.24264 2.44006 3.22154 2.57916L3.22136 2.58038L2.30153 8.57925V8.57925C2.28893 8.66271 2.29452 8.74837 2.31805 8.82943C2.34163 8.91064 2.38258 8.98575 2.43807 9.04956C2.49356 9.11337 2.56225 9.16436 2.6394 9.19898C2.71655 9.23361 2.8003 9.25104 2.88486 9.25009L2.89335 9.24999L6.66669 9.25004C7.0809 9.25004 7.41669 9.58582 7.41669 10V12.6667C7.41669 12.9982 7.54838 13.3162 7.7828 13.5506C7.90732 13.6751 8.05539 13.7706 8.21655 13.8328L10.5834 8.50754ZM11.8208 9.4167L9.35205 14.9713C9.23167 15.2422 8.96308 15.4167 8.66669 15.4167C7.93734 15.4167 7.23787 15.127 6.72214 14.6112C6.20642 14.0955 5.91669 13.3961 5.91669 12.6667V10.75H2.89707C2.5967 10.7528 2.29928 10.6905 2.02521 10.5675C1.74968 10.4438 1.50433 10.2617 1.30616 10.0338C1.10799 9.80593 0.961737 9.53768 0.877534 9.24765C0.793332 8.95761 0.773193 8.65274 0.818513 8.35416L1.7385 2.35425V2.35425C1.81396 1.85774 2.06635 1.40451 2.44901 1.07925C2.83066 0.754847 3.31636 0.578841 3.81712 0.583371H13.1074C13.6659 0.57527 14.2082 0.771577 14.6321 1.13549C15.0579 1.50098 15.3347 2.01009 15.4099 2.56617C15.4144 2.59949 15.4167 2.63308 15.4167 2.6667V7.33337C15.4167 7.367 15.4144 7.40058 15.4099 7.4339C15.3347 7.98999 15.0579 8.4991 14.6321 8.86459C14.2082 9.2285 13.6659 9.42481 13.1074 9.4167H11.8208Z" fill="#FF3621"/>
</g>
<defs>
<clipPath id="clip0_2246_2587">
<rect width="16" height="16" fill="white"/>
</clipPath>
</defs>
</svg>
