<svg width="16" height="16" viewBox="0 0 16 16" fill="none" xmlns="http://www.w3.org/2000/svg">
<g clip-path="url(#clip0_2246_2584)">
<path fill-rule="evenodd" clip-rule="evenodd" d="M6.64814 1.02877C6.76851 0.757924 7.0371 0.583374 7.3335 0.583374C8.06284 0.583374 8.76231 0.873105 9.27804 1.38883C9.79376 1.90456 10.0835 2.60403 10.0835 3.33337V5.25004H13.1031C13.4034 5.24732 13.7009 5.30959 13.975 5.43261C14.2505 5.55627 14.4959 5.73835 14.694 5.96625C14.8922 6.19415 15.0384 6.4624 15.1226 6.75243C15.2069 7.04247 15.227 7.34734 15.1817 7.64592L14.2617 13.6458V13.6458C14.1862 14.1424 13.9339 14.5955 13.5512 14.9208C13.1695 15.2452 12.6838 15.4212 12.183 15.4167H2.66683C2.11429 15.4167 1.58439 15.1972 1.19369 14.8065C0.802989 14.4158 0.583496 13.8859 0.583496 13.3334V8.66671C0.583496 8.11417 0.802989 7.58427 1.19369 7.19357C1.58439 6.80287 2.11429 6.58337 2.66683 6.58337H4.17942L6.64814 1.02877ZM3.91683 8.08337H2.66683C2.51212 8.08337 2.36375 8.14483 2.25435 8.25423C2.14495 8.36363 2.0835 8.512 2.0835 8.66671V13.3334C2.0835 13.4881 2.14495 13.6365 2.25435 13.7459C2.36375 13.8552 2.51212 13.9167 2.66683 13.9167H3.91683V8.08337ZM5.41683 13.9167H12.1953C12.336 13.9183 12.4725 13.869 12.5797 13.7779C12.6869 13.6868 12.7575 13.56 12.7786 13.4209L13.6987 7.42083V7.42083C13.7112 7.33745 13.7056 7.25163 13.6821 7.17065C13.6586 7.08944 13.6176 7.01433 13.5621 6.95052C13.5066 6.88671 13.4379 6.83572 13.3608 6.8011C13.2836 6.76647 13.1999 6.74904 13.1153 6.74999L13.1068 6.75009L9.3335 6.75004C8.91928 6.75004 8.5835 6.41425 8.5835 6.00004V3.33337C8.5835 3.00185 8.4518 2.68391 8.21738 2.44949C8.09287 2.32498 7.94479 2.22944 7.78363 2.16723L5.41683 7.49253V13.9167Z" fill="#FF3621"/>
</g>
<defs>
<clipPath id="clip0_2246_2584">
<rect width="16" height="16" fill="white"/>
</clipPath>
</defs>
</svg>
