<svg width="16" height="16" viewBox="0 0 16 16" fill="none" xmlns="http://www.w3.org/2000/svg">
<path fill-rule="evenodd" clip-rule="evenodd" d="M4.75 4.25C4.75 2.45507 6.20507 1 8 1C9.79493 1 11.25 2.45507 11.25 4.25C11.25 6.04493 9.79493 7.5 8 7.5C6.20507 7.5 4.75 6.04493 4.75 4.25ZM8 2.5C7.0335 2.5 6.25 3.2835 6.25 4.25C6.25 5.2165 7.0335 6 8 6C8.9665 6 9.75 5.2165 9.75 4.25C9.75 3.2835 8.9665 2.5 8 2.5Z" fill="#FF3621"/>
<path fill-rule="evenodd" clip-rule="evenodd" d="M12.7499 12.372C13.6238 12.0631 14.2499 11.2297 14.2499 10.25C14.2499 9.00736 13.2426 8 11.9999 8C10.7573 8 9.74994 9.00736 9.74994 10.25C9.74994 11.2297 10.376 12.0631 11.2499 12.372V15.25C11.2499 15.6642 11.5857 16 11.9999 16H13.9999V13.25H12.7499V12.372ZM11.9999 9.5C11.5857 9.5 11.2499 9.83579 11.2499 10.25C11.2499 10.6642 11.5857 11 11.9999 11C12.4142 11 12.7499 10.6642 12.7499 10.25C12.7499 9.83579 12.4142 9.5 11.9999 9.5Z" fill="#FF3621"/>
<path d="M1.75 15H9.75V13.5H2.5V13.0262C3.83065 11.4784 5.80084 10.5 8 10.5C8.08653 10.5 8.1727 10.5015 8.2585 10.5045C8.25286 10.4204 8.25 10.3355 8.25 10.25C8.25 9.81613 8.32368 9.39947 8.45922 9.01185C8.30714 9.00398 8.15403 9 8 9C5.23352 9 2.7666 10.2847 1.16438 12.2872C1.05797 12.4202 1 12.5855 1 12.7558V14.25C1 14.6642 1.33579 15 1.75 15Z" fill="#FF3621"/>
</svg>
