<svg width="16" height="16" viewBox="0 0 16 16" fill="none" xmlns="http://www.w3.org/2000/svg">
<g clip-path="url(#clip0_2246_2486)">
<path fill-rule="evenodd" clip-rule="evenodd" d="M11.6338 13.1946L12.9695 14.5304L14.0302 13.4697L2.53021 1.96973L1.46955 3.03039L2.49724 4.05808C1.36787 5.0412 0.504312 6.32168 0.0283533 7.77726C-0.0211693 7.92871 -0.0211698 8.092 0.0283517 8.24345C1.12481 11.5967 4.27832 14.0207 7.99994 14.0207C9.30201 14.0207 10.5345 13.724 11.6338 13.1946ZM10.4942 12.055L9.19272 10.7536C8.82714 10.9121 8.42379 11.0001 7.99991 11.0001C6.34305 11.0001 4.99991 9.65691 4.99991 8.00006C4.99991 7.57617 5.08782 7.17282 5.24641 6.80724L3.5609 5.12174C2.65628 5.88533 1.95111 6.87792 1.53498 8.01036C2.50259 10.6436 5.03298 12.5207 7.99994 12.5207C8.8795 12.5207 9.72069 12.3557 10.4942 12.055ZM15.9715 8.24351C15.5721 9.46501 14.8997 10.5632 14.0263 11.4658L12.9657 10.4052C13.6186 9.72568 14.1334 8.91241 14.4649 8.01041C13.4973 5.37716 10.9669 3.50006 7.99993 3.50006C7.40531 3.50006 6.82822 3.57545 6.27773 3.71722L5.08213 2.52162C5.99073 2.18436 6.97373 2.00006 7.99993 2.00006C11.7215 2.00006 14.8751 4.42404 15.9715 7.77732C16.021 7.92877 16.021 8.09205 15.9715 8.24351ZM10.9999 8.00006C10.9999 8.13961 10.9904 8.27694 10.9719 8.41143L7.58854 5.02803C7.72303 5.00959 7.86035 5.00006 7.99991 5.00006C9.65676 5.00006 10.9999 6.3432 10.9999 8.00006Z" fill="#FF3621"/>
</g>
<defs>
<clipPath id="clip0_2246_2486">
<rect width="16" height="16" fill="white"/>
</clipPath>
</defs>
</svg>
