<svg width="16" height="16" viewBox="0 0 16 16" fill="none" xmlns="http://www.w3.org/2000/svg">
<path fill-rule="evenodd" clip-rule="evenodd" d="M14.3665 3.29033C14.6112 3.3379 14.8163 3.50397 14.9138 3.73346C15.6862 5.55294 15.3319 7.73922 13.8464 9.22472C12.4911 10.58 10.5526 10.9937 8.84139 10.4692L5.65527 13.6553C4.74105 14.5696 3.25882 14.5696 2.34461 13.6553C1.43039 12.7411 1.43039 11.2589 2.34461 10.3447L5.5308 7.1585C5.00639 5.44737 5.42013 3.50889 6.77536 2.15366C8.2608 0.668212 10.447 0.313875 12.2664 1.08623C12.4959 1.18366 12.662 1.38876 12.7096 1.63351C12.7571 1.87825 12.68 2.13063 12.5037 2.30693L10.4999 4.31067L10.4999 5.50001L11.6893 5.50001L13.6931 3.49623C13.8694 3.31993 14.1217 3.24277 14.3665 3.29033ZM13.8062 5.50443L12.5303 6.78035C12.3896 6.921 12.1988 7.00001 11.9999 7.00001H9.74993C9.55102 7.00001 9.36025 6.921 9.2196 6.78034C9.07895 6.63969 8.99993 6.44893 8.99993 6.25001L8.99993 4.00001C8.99993 3.8011 9.07895 3.61034 9.2196 3.46968L10.4954 2.19389C9.53869 2.14376 8.56592 2.48441 7.83602 3.21432C6.79763 4.25271 6.54704 5.78265 7.08868 7.05858C7.20815 7.34001 7.14483 7.66579 6.92864 7.88197L3.40527 11.4053C3.07684 11.7338 3.07684 12.2663 3.40527 12.5947C3.73369 12.9231 4.26618 12.9231 4.59461 12.5947L8.11792 9.07137C8.33412 8.85517 8.65992 8.79185 8.94135 8.91134C10.2173 9.45306 11.7473 9.2025 12.7858 8.16406C13.5157 7.4341 13.8564 6.46122 13.8062 5.50443Z" fill="#FF3621"/>
</svg>
