<svg width="16" height="16" viewBox="0 0 16 16" fill="none" xmlns="http://www.w3.org/2000/svg">
<path fill-rule="evenodd" clip-rule="evenodd" d="M7.99623 8C7.69094 8 7.41612 8.18505 7.3013 8.46792L4.6499 15H6.26876L6.67467 14H9.3178L9.7237 15H11.3426L8.69117 8.46792C8.57635 8.18505 8.30152 8 7.99623 8ZM8.70894 12.5H7.28352L7.99623 10.7441L8.70894 12.5Z" fill="#FF3621"/>
<path fill-rule="evenodd" clip-rule="evenodd" d="M8.66357 1.5H4.99625V0H10.2462C10.536 0 10.7999 0.166951 10.924 0.428827C11.0481 0.690704 11.0102 1.00064 10.8267 1.22493L7.32893 5.5H10.9962V7H5.74625C5.45646 7 5.19259 6.83305 5.0685 6.57117C4.9444 6.3093 4.98227 5.99936 5.16578 5.77507L8.66357 1.5Z" fill="#FF3621"/>
</svg>
