<svg width="16" height="16" viewBox="0 0 16 16" fill="none" xmlns="http://www.w3.org/2000/svg">
<path d="M2.5 3.56066L5.46967 6.53033L6.53033 5.46967L3.56066 2.5L6 2.5V1H1V6H2.5L2.5 3.56066Z" fill="#FF3621"/>
<path d="M10.5303 6.53033L13.5 3.56066V6H15V1H10V2.5L12.4393 2.5L9.46967 5.46967L10.5303 6.53033Z" fill="#FF3621"/>
<path d="M9.46967 10.5303L12.4393 13.5H10V15H15V10H13.5V12.4393L10.5303 9.46967L9.46967 10.5303Z" fill="#FF3621"/>
<path d="M5.46967 9.46967L2.5 12.4393L2.5 10H1V15H6V13.5H3.56066L6.53033 10.5303L5.46967 9.46967Z" fill="#FF3621"/>
</svg>
