<svg width="150" height="150" viewBox="0 0 150 150" fill="none" xmlns="http://www.w3.org/2000/svg">
<g clip-path="url(#clip0_214_418)">
<path d="M97.4 49.9H66.7V52.9H97.4V49.9Z" fill="#FF5F46"/>
<path d="M130.5 49.9H122.5V60.1H117.6V49.9H110.1V38.5C110.3 34.2 106.9 30.5 102.5 30.4C98.2 30.2 94.5 33.6 94.4 38C94.4 38.2 94.4 38.4 94.4 38.6V42.5H89.7V38.5C89.7 34.2 86.2001 30.7 81.9 30.7C77.6 30.7 74.1 34.2 74.1 38.5V42.5H69.4001V38.6C69.6001 34.3 66.2001 30.6 61.8 30.5C57.4 30.4 53.8 33.7 53.7001 38.1C53.7001 38.3 53.7001 38.5 53.7001 38.7V50.1H22.7V71.4H16.8V50.3H13.8V95H16.8V74.2H25.7V52.9H56.7001V38.5C56.6001 35.8 58.6 33.6 61.3 33.4C64 33.3 66.2001 35.3 66.4001 38C66.4001 38.1 66.4001 38.3 66.4001 38.4V45.3H77.1V38.3C77.1 35.6 79.3 33.5 81.9 33.5C83.2001 33.5 84.4 34 85.3 34.9C86.2001 35.8 86.7 37 86.7 38.3V45.3H97.4V38.4C97.3 35.7 99.3 33.5 102 33.3C104.7 33.2 106.9 35.2 107.1 37.9C107.1 38 107.1 38.2 107.1 38.3V52.7H114.6V62.9H125.5V52.9H130.5C132 52.9 133.2 54.1 133.2 55.6V89.8C133.2 91.3 132 92.5 130.5 92.5H125.5V82.3H114.6V105.6C114.6 111.5 109.8 116.3 103.9 116.3H64.9001L40.8 92.5H25.7V78.4H22.7V95.5H39.5L63.6 119.3H104C111.5 119.3 117.7 113.2 117.7 105.6V85.3H122.6V95.5H130.6C133.7 95.5 136.3 93 136.3 89.8V55.6C136.2 52.4 133.7 49.9 130.5 49.9Z" fill="#FF5F46"/>
<path d="M88.3001 94.9C84.8001 92.7 80.8001 91.5 76.7001 91.6C66.8001 91.6 62.3001 95.7 62.1001 95.9L64.2001 98.1C64.2001 98.1 68.1001 94.6 76.8001 94.6C80.4001 94.6 83.9001 95.6 86.9001 97.5C88.9001 98.6 90.8001 99.7 93.5001 99.7C96.5001 99.7 99.4001 98.9 101.8 97.2L102.9 96.4L83.6001 60.9L66.6001 89.6L70.4001 88.3C78.1001 85.7 85.5001 88.9 85.6001 88.9L86.8001 86.1C82.4001 84.4 77.7001 83.8 73.1001 84.5L83.4001 67L98.9001 95.5C97.2001 96.3 95.3001 96.8 93.5001 96.8C91.6001 96.8 90.1001 96 88.3001 94.9Z" fill="#FF5F46"/>
</g>
<defs>
<clipPath id="clip0_214_418">
<rect width="150" height="150" fill="white"/>
</clipPath>
</defs>
</svg>
