<svg width="150" height="150" viewBox="0 0 150 150" fill="none" xmlns="http://www.w3.org/2000/svg">
<g clip-path="url(#clip0_1_2004)">
<path d="M97.4 49.8999H66.7V52.8999H97.4V49.8999Z" fill="#1B3139"/>
<path d="M130.5 49.9H122.5V60.1H117.6V49.9H110.1V38.5C110.3 34.2 106.9 30.5 102.5 30.4C98.2 30.2 94.5 33.6 94.4 38C94.4 38.2 94.4 38.4 94.4 38.6V42.5H89.7V38.5C89.7 34.2 86.2 30.7 81.9 30.7C77.6 30.7 74.1 34.2 74.1 38.5V42.5H69.4001V38.6C69.6001 34.3 66.2 30.6 61.8 30.5C57.4 30.4 53.8001 33.7 53.7001 38.1C53.7001 38.3 53.7001 38.5 53.7001 38.7V50.1H22.7V71.4H16.8V50.3H13.8V95H16.8V74.2H25.7V52.9H56.7001V38.5C56.6001 35.8 58.6 33.6 61.3 33.4C64 33.3 66.2001 35.3 66.4001 38C66.4001 38.1 66.4001 38.3 66.4001 38.4V45.3H77.1V38.3C77.1 35.6 79.3 33.5 81.9 33.5C83.2 33.5 84.4 34 85.3 34.9C86.2 35.8 86.7 37 86.7 38.3V45.3H97.4V38.4C97.3 35.7 99.3 33.5 102 33.3C104.7 33.2 106.9 35.2 107.1 37.9C107.1 38 107.1 38.2 107.1 38.3V52.7H114.6V62.9H125.5V52.9H130.5C132 52.9 133.2 54.1 133.2 55.6V89.8C133.2 91.3 132 92.5 130.5 92.5H125.5V82.3H114.6V105.6C114.6 111.5 109.8 116.3 103.9 116.3H64.9001L40.8 92.5H25.7V78.4H22.7V95.5H39.5L63.6 119.3H104C111.5 119.3 117.7 113.2 117.7 105.6V85.3H122.6V95.5H130.6C133.7 95.5 136.3 93 136.3 89.8V55.6C136.2 52.4 133.7 49.9 130.5 49.9Z" fill="#1B3139"/>
<path d="M88.3001 94.8999C84.8001 92.6999 80.8001 91.4999 76.7001 91.5999C66.8001 91.5999 62.3001 95.6999 62.1001 95.8999L64.2001 98.0999C64.2001 98.0999 68.1001 94.5999 76.8001 94.5999C80.4001 94.5999 83.9001 95.5999 86.9001 97.4999C88.9001 98.5999 90.8001 99.6999 93.5001 99.6999C96.5001 99.6999 99.4001 98.8999 101.8 97.1999L102.9 96.3999L83.6001 60.8999L66.6001 89.5999L70.4001 88.2999C78.1001 85.6999 85.5001 88.8999 85.6001 88.8999L86.8001 86.0999C82.4001 84.3999 77.7001 83.7999 73.1001 84.4999L83.4001 66.9999L98.9001 95.4999C97.2001 96.2999 95.3001 96.7999 93.5001 96.7999C91.6001 96.7999 90.1001 95.9999 88.3001 94.8999Z" fill="#1B3139"/>
</g>
<defs>
<clipPath id="clip0_1_2004">
<rect width="150" height="150" fill="white"/>
</clipPath>
</defs>
</svg>
