<svg width="150" height="150" viewBox="0 0 150 150" fill="none" xmlns="http://www.w3.org/2000/svg">
<path d="M126.4 81.7001C122.7 81.7001 119.7 84.3001 119 87.8001H103.9L103.8 103.8H46.2V69.6001H43.2V87.8001H31C30.3 84.4001 27.2 81.7001 23.6 81.7001C19.4 81.7001 16 85.1001 16 89.3001C16 93.5001 19.4 96.9001 23.6 96.9001C27.3 96.9001 30.3 94.3001 31 90.8001H43.3V106.8H59.3V119C55.9 119.7 53.2 122.8 53.2 126.4C53.2 130.6 56.6 134 60.8 134C65 134 68.4 130.6 68.4 126.4C68.4 122.7 65.8 119.7 62.3 119V106.7H87.8V119C84.4 119.7 81.7 122.8 81.7 126.4C81.7 130.6 85.1 134 89.3 134C93.5 134 96.9 130.6 96.9 126.4C96.9 122.7 94.3 119.7 90.8 119V106.7H106.8L106.9 90.7001H119C119.7 94.1001 122.8 96.8001 126.4 96.8001C130.6 96.8001 134 93.4001 134 89.2001C134 85.0001 130.6 81.7001 126.4 81.7001ZM23.6 93.8001C21.1 93.8001 19 91.8001 19 89.2001C19 86.6001 21 84.6001 23.6 84.6001C26.2 84.6001 28.2 86.6001 28.2 89.2001C28.2 91.8001 26.1 93.8001 23.6 93.8001ZM65.3 126.4C65.3 128.9 63.3 131 60.7 131C58.1 131 56.1 129 56.1 126.4C56.1 123.8 58.1 121.8 60.7 121.8C63.3 121.8 65.3 123.9 65.3 126.4ZM93.8 126.4C93.8 128.9 91.8 131 89.2 131C86.6 131 84.6 129 84.6 126.4C84.6 123.8 86.6 121.8 89.2 121.8C91.8 121.8 93.8 123.9 93.8 126.4ZM126.4 93.8001C123.9 93.8001 121.8 91.8001 121.8 89.2001C121.8 86.6001 123.8 84.6001 126.4 84.6001C129 84.6001 131 86.6001 131 89.2001C131 91.8001 129 93.8001 126.4 93.8001Z" fill="white"/>
<path d="M23.6 68.3C27.3 68.3 30.3 65.7 31 62.2H46.3V46.2H103.8V75.3H106.8V62.2H119C119.7 65.6 122.8 68.3 126.4 68.3C130.6 68.3 134 64.9 134 60.7C134 56.5 130.6 53.1 126.4 53.1C122.7 53.1 119.7 55.7 119 59.2H106.7V43.2H90.7V31C94.1 30.3 96.8 27.2 96.8 23.6C96.8 19.4 93.4 16 89.2 16C85 16 81.6 19.4 81.6 23.6C81.6 27.3 84.2 30.3 87.7 31V43.3H62.2V31C65.6 30.3 68.3 27.2 68.3 23.6C68.3 19.4 64.9 16 60.7 16C56.5 16 53.1 19.4 53.1 23.6C53.1 27.3 55.7 30.3 59.2 31V43.3H43.2V59.3H31C30.3 55.9 27.2 53.2 23.6 53.2C19.4 53.2 16 56.6 16 60.8C16 65 19.4 68.3 23.6 68.3ZM126.4 56.2C128.9 56.2 131 58.2 131 60.8C131 63.4 129 65.4 126.4 65.4C123.8 65.4 121.8 63.4 121.8 60.8C121.8 58.2 123.9 56.2 126.4 56.2ZM84.7 23.6C84.7 21.1 86.7 19 89.3 19C91.9 19 93.9 21 93.9 23.6C93.9 26.2 91.9 28.2 89.3 28.2C86.7 28.2 84.7 26.1 84.7 23.6ZM56.2 23.6C56.2 21.1 58.2 19 60.8 19C63.4 19 65.4 21 65.4 23.6C65.4 26.2 63.4 28.2 60.8 28.2C58.2 28.2 56.2 26.1 56.2 23.6ZM23.6 56.2C26.1 56.2 28.2 58.2 28.2 60.8C28.2 63.4 26.2 65.4 23.6 65.4C21 65.4 19 63.4 19 60.8C19 58.2 21 56.2 23.6 56.2Z" fill="white"/>
<path d="M76.9 90.3V93.3H93.3V56.7H56.7V93.3H68.1V90.3H59.7V59.7H90.3V90.3H76.9Z" fill="white"/>
</svg>
