<svg width="150" height="150" viewBox="0 0 150 150" fill="none" xmlns="http://www.w3.org/2000/svg">
<path d="M81.17 107.61L122.76 65.9999L81.17 24.4299L68.06 37.5399L87.27 56.7499H58.74C50.3881 56.7579 42.3806 60.0792 36.4749 65.9848C30.5692 71.8905 27.2479 79.898 27.24 88.2499V125.57H45.76V122.57H30.24V88.2499C30.2479 80.6937 33.2532 73.4492 38.5962 68.1062C43.9393 62.7631 51.1838 59.7579 58.74 59.7499H94.51L72.3 37.5399L81.17 28.6699L118.52 65.9999L81.17 103.37L72.3 94.4999L94.51 72.2899H60.28C55.6403 72.2952 51.1922 74.1407 47.9115 77.4214C44.6307 80.7021 42.7853 85.1503 42.78 89.7899V114.15H45.78V89.7899C45.7853 85.9459 47.3147 82.2609 50.0328 79.5427C52.7509 76.8246 56.436 75.2952 60.28 75.2899H87.28L68.06 94.4999L81.17 107.61Z" fill="white"/>
</svg>
