<svg width="150" height="150" viewBox="0 0 150 150" fill="none" xmlns="http://www.w3.org/2000/svg">
<path d="M81.17 107.61L122.76 66.0001L81.17 24.4301L68.06 37.5401L87.27 56.7501H58.74C50.3881 56.758 42.3806 60.0793 36.4749 65.985C30.5692 71.8906 27.2479 79.8982 27.24 88.2501V125.57H45.76V122.57H30.24V88.2501C30.2479 80.6938 33.2532 73.4493 38.5962 68.1063C43.9393 62.7632 51.1838 59.758 58.74 59.7501H94.51L72.3 37.5401L81.17 28.6701L118.52 66.0001L81.17 103.37L72.3 94.5001L94.51 72.2901H60.28C55.6403 72.2953 51.1922 74.1408 47.9115 77.4215C44.6307 80.7023 42.7853 85.1504 42.78 89.7901V114.15H45.78V89.7901C45.7853 85.946 47.3147 82.261 50.0328 79.5428C52.7509 76.8247 56.436 75.2953 60.28 75.2901H87.28L68.06 94.5001L81.17 107.61Z" fill="#FF5F46"/>
</svg>
