<svg width="1381" height="558" viewBox="0 0 1381 558" fill="none" xmlns="http://www.w3.org/2000/svg">
<g filter="url(#filter0_dddddd_1117_12224)">
<path d="M148 116.336C148 77.4903 179.49 46 218.336 46H339.664C378.51 46 410 77.4903 410 116.336V237.664C410 276.51 378.51 308 339.664 308H218.336C179.49 308 148 276.51 148 237.664V116.336Z" fill="white"/>
</g>
<path d="M211.502 244.864L211.502 180.777L240.448 180.777L240.448 215.585L274.968 215.585L274.968 244.864L211.502 244.864Z" fill="#FABFBA"/>
<path d="M346.5 109.5L346.499 173.587L317.554 173.587L317.554 138.779L283.034 138.779L283.034 109.5L346.5 109.5Z" fill="#FABFBA"/>
<rect width="48.3062" height="48.3077" transform="matrix(1 0 5.39465e-06 1 211.502 109.5)" fill="#FF5F46"/>
<rect width="48.3064" height="48.3077" transform="matrix(1 0 5.39465e-06 1 298.6 196.57)" fill="#FF5F46"/>
<path d="M481.838 214.5V137.22H495.086V204.122H529.531V214.5H481.838ZM557.223 215.825C552.659 215.825 548.869 215.052 545.851 213.506C542.834 211.961 540.589 209.9 539.117 207.324C537.645 204.748 536.909 201.951 536.909 198.934C536.909 195.401 537.792 192.346 539.559 189.77C541.399 187.194 544.085 185.207 547.618 183.809C551.151 182.337 555.493 181.601 560.645 181.601H574.666C574.666 178.657 574.261 176.228 573.451 174.314C572.642 172.327 571.391 170.855 569.698 169.898C568.005 168.942 565.834 168.463 563.184 168.463C560.167 168.463 557.591 169.162 555.456 170.561C553.322 171.886 551.997 173.946 551.482 176.743H538.455C538.896 172.769 540.221 169.383 542.429 166.586C544.637 163.716 547.544 161.508 551.151 159.962C554.831 158.343 558.842 157.534 563.184 157.534C568.41 157.534 572.863 158.454 576.543 160.294C580.223 162.06 583.019 164.636 584.933 168.022C586.92 171.334 587.914 175.345 587.914 180.055V214.5H576.653L575.328 205.558C574.592 207.03 573.635 208.391 572.458 209.642C571.354 210.894 570.066 211.998 568.594 212.954C567.122 213.838 565.429 214.537 563.515 215.052C561.675 215.567 559.578 215.825 557.223 215.825ZM560.203 205.337C562.338 205.337 564.215 204.969 565.834 204.233C567.527 203.423 568.962 202.319 570.139 200.921C571.391 199.449 572.347 197.83 573.01 196.063C573.672 194.297 574.114 192.42 574.335 190.433V190.212H562.08C559.504 190.212 557.37 190.543 555.677 191.206C553.984 191.794 552.77 192.678 552.034 193.855C551.298 195.033 550.93 196.394 550.93 197.94C550.93 199.486 551.298 200.81 552.034 201.914C552.77 203.018 553.837 203.865 555.235 204.454C556.634 205.042 558.29 205.337 560.203 205.337ZM634.637 214.5L610.018 184.03L632.098 158.858H647.885L620.396 189.439V179.172L651.197 214.5H634.637ZM598.757 214.5V135.012H612.005V214.5H598.757ZM678.425 215.825C672.905 215.825 668.047 214.647 663.852 212.292C659.657 209.863 656.381 206.478 654.026 202.135C651.671 197.793 650.493 192.788 650.493 187.121C650.493 181.233 651.634 176.081 653.916 171.665C656.271 167.249 659.546 163.79 663.741 161.287C668.01 158.785 672.941 157.534 678.535 157.534C683.981 157.534 688.729 158.748 692.777 161.177C696.825 163.606 699.953 166.881 702.161 171.002C704.369 175.05 705.473 179.614 705.473 184.692C705.473 185.428 705.473 186.238 705.473 187.121C705.473 188.004 705.399 188.924 705.252 189.881H659.988V181.38H692.114C691.967 177.332 690.605 174.167 688.029 171.886C685.453 169.53 682.252 168.353 678.425 168.353C675.701 168.353 673.199 168.978 670.917 170.23C668.636 171.481 666.833 173.358 665.508 175.86C664.183 178.289 663.521 181.38 663.521 185.134V188.335C663.521 191.794 664.146 194.775 665.397 197.278C666.722 199.78 668.489 201.694 670.697 203.018C672.978 204.27 675.517 204.895 678.314 204.895C681.405 204.895 683.945 204.233 685.932 202.908C687.993 201.583 689.501 199.817 690.458 197.609H703.927C702.897 201.068 701.204 204.196 698.849 206.993C696.493 209.716 693.586 211.887 690.127 213.506C686.668 215.052 682.767 215.825 678.425 215.825ZM717.153 214.5V152.786C717.153 148.518 717.852 145.095 719.25 142.519C720.722 139.87 722.82 137.956 725.543 136.778C728.266 135.601 731.505 135.012 735.258 135.012H741.882V146.273H737.245C734.817 146.273 733.05 146.788 731.946 147.818C730.916 148.775 730.401 150.468 730.401 152.897V214.5H717.153ZM709.204 170.009V158.858H742.986V170.009H709.204ZM754.357 214.5V135.012H767.605V214.5H754.357ZM805.054 215.825C799.755 215.825 794.971 214.61 790.702 212.182C786.507 209.679 783.195 206.257 780.766 201.914C778.411 197.498 777.233 192.457 777.233 186.79C777.233 180.975 778.448 175.897 780.877 171.554C783.305 167.138 786.617 163.716 790.813 161.287C795.081 158.785 799.865 157.534 805.165 157.534C810.464 157.534 815.211 158.785 819.406 161.287C823.675 163.716 826.987 167.102 829.342 171.444C831.771 175.786 832.985 180.865 832.985 186.679C832.985 192.494 831.771 197.572 829.342 201.914C826.913 206.257 823.565 209.679 819.296 212.182C815.101 214.61 810.353 215.825 805.054 215.825ZM805.054 204.454C807.704 204.454 810.096 203.791 812.23 202.466C814.438 201.142 816.205 199.154 817.529 196.505C818.854 193.855 819.517 190.58 819.517 186.679C819.517 182.778 818.854 179.54 817.529 176.964C816.278 174.314 814.549 172.327 812.341 171.002C810.206 169.678 807.814 169.015 805.165 169.015C802.589 169.015 800.197 169.678 797.989 171.002C795.781 172.327 794.014 174.314 792.689 176.964C791.365 179.54 790.702 182.778 790.702 186.679C790.702 190.58 791.365 193.855 792.689 196.505C794.014 199.154 795.744 201.142 797.878 202.466C800.086 203.791 802.478 204.454 805.054 204.454ZM851.741 214.5L835.402 158.858H848.54L859.911 204.564L857.482 204.454L870.178 158.858H884.972L897.778 204.454H895.349L906.721 158.858H919.858L903.519 214.5H889.829L876.25 167.359H879.01L865.431 214.5H851.741ZM984.428 215.825C976.774 215.825 970.15 214.169 964.556 210.857C959.036 207.471 954.768 202.798 951.75 196.836C948.806 190.801 947.334 183.846 947.334 175.97C947.334 168.022 948.806 161.066 951.75 155.105C954.768 149.07 959.036 144.359 964.556 140.974C970.15 137.588 976.774 135.895 984.428 135.895C993.628 135.895 1001.14 138.177 1006.95 142.74C1012.76 147.23 1016.44 153.596 1017.99 161.839H1003.42C1002.39 157.497 1000.29 154.074 997.124 151.572C993.96 149.07 989.691 147.818 984.318 147.818C979.46 147.818 975.265 148.959 971.732 151.241C968.273 153.449 965.587 156.687 963.673 160.956C961.833 165.151 960.913 170.156 960.913 175.97C960.913 181.785 961.833 186.79 963.673 190.985C965.587 195.106 968.273 198.308 971.732 200.59C975.265 202.798 979.46 203.902 984.318 203.902C989.691 203.902 993.96 202.761 997.124 200.479C1000.29 198.124 1002.39 194.886 1003.42 190.764H1017.99C1016.52 198.566 1012.84 204.711 1006.95 209.201C1001.14 213.617 993.628 215.825 984.428 215.825ZM1053.14 215.825C1047.84 215.825 1043.06 214.61 1038.79 212.182C1034.6 209.679 1031.28 206.257 1028.86 201.914C1026.5 197.498 1025.32 192.457 1025.32 186.79C1025.32 180.975 1026.54 175.897 1028.97 171.554C1031.39 167.138 1034.71 163.716 1038.9 161.287C1043.17 158.785 1047.95 157.534 1053.25 157.534C1058.55 157.534 1063.3 158.785 1067.5 161.287C1071.76 163.716 1075.08 167.102 1077.43 171.444C1079.86 175.786 1081.07 180.865 1081.07 186.679C1081.07 192.494 1079.86 197.572 1077.43 201.914C1075 206.257 1071.65 209.679 1067.39 212.182C1063.19 214.61 1058.44 215.825 1053.14 215.825ZM1053.14 204.454C1055.79 204.454 1058.19 203.791 1060.32 202.466C1062.53 201.142 1064.29 199.154 1065.62 196.505C1066.94 193.855 1067.61 190.58 1067.61 186.679C1067.61 182.778 1066.94 179.54 1065.62 176.964C1064.37 174.314 1062.64 172.327 1060.43 171.002C1058.3 169.678 1055.9 169.015 1053.25 169.015C1050.68 169.015 1048.29 169.678 1046.08 171.002C1043.87 172.327 1042.1 174.314 1040.78 176.964C1039.45 179.54 1038.79 182.778 1038.79 186.679C1038.79 190.58 1039.45 193.855 1040.78 196.505C1042.1 199.154 1043.83 201.142 1045.97 202.466C1048.18 203.791 1050.57 204.454 1053.14 204.454ZM1090.73 214.5V158.858H1102.43L1103.43 168.132C1105.12 164.894 1107.55 162.318 1110.71 160.404C1113.88 158.49 1117.63 157.534 1121.97 157.534C1126.46 157.534 1130.29 158.49 1133.46 160.404C1136.62 162.244 1139.05 164.967 1140.74 168.574C1142.51 172.18 1143.39 176.67 1143.39 182.042V214.5H1130.14V183.257C1130.14 178.62 1129.11 175.05 1127.05 172.548C1124.99 170.046 1121.94 168.794 1117.89 168.794C1115.24 168.794 1112.85 169.42 1110.71 170.671C1108.65 171.922 1107 173.762 1105.75 176.191C1104.57 178.546 1103.98 181.417 1103.98 184.802V214.5H1090.73ZM1154.05 214.5V158.858H1165.75L1166.74 168.132C1168.44 164.894 1170.87 162.318 1174.03 160.404C1177.19 158.49 1180.95 157.534 1185.29 157.534C1189.78 157.534 1193.61 158.49 1196.77 160.404C1199.94 162.244 1202.37 164.967 1204.06 168.574C1205.83 172.18 1206.71 176.67 1206.71 182.042V214.5H1193.46V183.257C1193.46 178.62 1192.43 175.05 1190.37 172.548C1188.31 170.046 1185.25 168.794 1181.21 168.794C1178.56 168.794 1176.16 169.42 1174.03 170.671C1171.97 171.922 1170.31 173.762 1169.06 176.191C1167.88 178.546 1167.3 181.417 1167.3 184.802V214.5H1154.05ZM1243.42 215.825C1237.9 215.825 1233.04 214.647 1228.85 212.292C1224.65 209.863 1221.37 206.478 1219.02 202.135C1216.66 197.793 1215.49 192.788 1215.49 187.121C1215.49 181.233 1216.63 176.081 1218.91 171.665C1221.26 167.249 1224.54 163.79 1228.73 161.287C1233 158.785 1237.93 157.534 1243.53 157.534C1248.97 157.534 1253.72 158.748 1257.77 161.177C1261.82 163.606 1264.95 166.881 1267.15 171.002C1269.36 175.05 1270.47 179.614 1270.47 184.692C1270.47 185.428 1270.47 186.238 1270.47 187.121C1270.47 188.004 1270.39 188.924 1270.25 189.881H1224.98V181.38H1257.11C1256.96 177.332 1255.6 174.167 1253.02 171.886C1250.45 169.53 1247.25 168.353 1243.42 168.353C1240.69 168.353 1238.19 168.978 1235.91 170.23C1233.63 171.481 1231.83 173.358 1230.5 175.86C1229.18 178.289 1228.51 181.38 1228.51 185.134V188.335C1228.51 191.794 1229.14 194.775 1230.39 197.278C1231.72 199.78 1233.48 201.694 1235.69 203.018C1237.97 204.27 1240.51 204.895 1243.31 204.895C1246.4 204.895 1248.94 204.233 1250.93 202.908C1252.99 201.583 1254.49 199.817 1255.45 197.609H1268.92C1267.89 201.068 1266.2 204.196 1263.84 206.993C1261.49 209.716 1258.58 211.887 1255.12 213.506C1251.66 215.052 1247.76 215.825 1243.42 215.825ZM1305.77 215.825C1300.33 215.825 1295.43 214.61 1291.09 212.182C1286.82 209.679 1283.47 206.257 1281.04 201.914C1278.69 197.498 1277.51 192.494 1277.51 186.9C1277.51 181.086 1278.69 176.007 1281.04 171.665C1283.47 167.249 1286.82 163.79 1291.09 161.287C1295.43 158.785 1300.36 157.534 1305.88 157.534C1312.8 157.534 1318.61 159.374 1323.33 163.054C1328.04 166.66 1331.05 171.628 1332.38 177.958H1318.47C1317.73 175.161 1316.19 172.953 1313.83 171.334C1311.55 169.714 1308.83 168.905 1305.66 168.905C1302.94 168.905 1300.44 169.604 1298.15 171.002C1295.95 172.401 1294.18 174.425 1292.85 177.074C1291.6 179.724 1290.98 182.926 1290.98 186.679C1290.98 189.55 1291.35 192.089 1292.08 194.297C1292.82 196.505 1293.85 198.382 1295.17 199.927C1296.57 201.399 1298.15 202.54 1299.92 203.35C1301.69 204.159 1303.6 204.564 1305.66 204.564C1307.8 204.564 1309.71 204.233 1311.4 203.57C1313.17 202.834 1314.64 201.767 1315.82 200.369C1317.07 198.97 1317.95 197.314 1318.47 195.401H1332.38C1331.05 201.583 1328.04 206.551 1323.33 210.305C1318.61 213.985 1312.76 215.825 1305.77 215.825ZM1365.15 214.5C1361.4 214.5 1358.13 213.911 1355.33 212.734C1352.61 211.556 1350.47 209.606 1348.93 206.882C1347.38 204.159 1346.61 200.479 1346.61 195.842V170.009H1337.11V158.858H1346.61L1348.15 144.175H1359.86V158.858H1374.98V170.009H1359.86V195.842C1359.86 198.639 1360.44 200.59 1361.62 201.694C1362.87 202.724 1364.93 203.239 1367.8 203.239H1374.65V214.5H1365.15Z" fill="white"/>
<defs>
<filter id="filter0_dddddd_1117_12224" x="0.713516" y="0.681084" width="556.573" height="556.573" filterUnits="userSpaceOnUse" color-interpolation-filters="sRGB">
<feFlood flood-opacity="0" result="BackgroundImageFix"/>
<feColorMatrix in="SourceAlpha" type="matrix" values="0 0 0 0 0 0 0 0 0 0 0 0 0 0 0 0 0 0 127 0" result="hardAlpha"/>
<feOffset dy="2.83243"/>
<feGaussianBlur stdDeviation="2.12432"/>
<feColorMatrix type="matrix" values="0 0 0 0 0.105882 0 0 0 0 0.192157 0 0 0 0 0.223529 0 0 0 0.0196802 0"/>
<feBlend mode="normal" in2="BackgroundImageFix" result="effect1_dropShadow_1117_12224"/>
<feColorMatrix in="SourceAlpha" type="matrix" values="0 0 0 0 0 0 0 0 0 0 0 0 0 0 0 0 0 0 127 0" result="hardAlpha"/>
<feOffset dy="5.66487"/>
<feGaussianBlur stdDeviation="5.66487"/>
<feColorMatrix type="matrix" values="0 0 0 0 0.105882 0 0 0 0 0.192157 0 0 0 0 0.223529 0 0 0 0.04 0"/>
<feBlend mode="normal" in2="effect1_dropShadow_1117_12224" result="effect2_dropShadow_1117_12224"/>
<feColorMatrix in="SourceAlpha" type="matrix" values="0 0 0 0 0 0 0 0 0 0 0 0 0 0 0 0 0 0 127 0" result="hardAlpha"/>
<feOffset dy="12.7459"/>
<feGaussianBlur stdDeviation="9.20541"/>
<feColorMatrix type="matrix" values="0 0 0 0 0.105882 0 0 0 0 0.192157 0 0 0 0 0.223529 0 0 0 0.035 0"/>
<feBlend mode="normal" in2="effect2_dropShadow_1117_12224" result="effect3_dropShadow_1117_12224"/>
<feColorMatrix in="SourceAlpha" type="matrix" values="0 0 0 0 0 0 0 0 0 0 0 0 0 0 0 0 0 0 127 0" result="hardAlpha"/>
<feOffset dy="22.6595"/>
<feGaussianBlur stdDeviation="16.9946"/>
<feColorMatrix type="matrix" values="0 0 0 0 0.105882 0 0 0 0 0.192157 0 0 0 0 0.223529 0 0 0 0.04 0"/>
<feBlend mode="normal" in2="effect3_dropShadow_1117_12224" result="effect4_dropShadow_1117_12224"/>
<feColorMatrix in="SourceAlpha" type="matrix" values="0 0 0 0 0 0 0 0 0 0 0 0 0 0 0 0 0 0 127 0" result="hardAlpha"/>
<feOffset dy="45.3189"/>
<feGaussianBlur stdDeviation="28.3243"/>
<feColorMatrix type="matrix" values="0 0 0 0 0.105882 0 0 0 0 0.192157 0 0 0 0 0.223529 0 0 0 0.0503198 0"/>
<feBlend mode="normal" in2="effect4_dropShadow_1117_12224" result="effect5_dropShadow_1117_12224"/>
<feColorMatrix in="SourceAlpha" type="matrix" values="0 0 0 0 0 0 0 0 0 0 0 0 0 0 0 0 0 0 127 0" result="hardAlpha"/>
<feOffset dy="101.968"/>
<feGaussianBlur stdDeviation="73.6432"/>
<feColorMatrix type="matrix" values="0 0 0 0 0.105882 0 0 0 0 0.192157 0 0 0 0 0.223529 0 0 0 0.07 0"/>
<feBlend mode="normal" in2="effect5_dropShadow_1117_12224" result="effect6_dropShadow_1117_12224"/>
<feBlend mode="normal" in="SourceGraphic" in2="effect6_dropShadow_1117_12224" result="shape"/>
</filter>
</defs>
</svg>
