<svg width="150" height="150" viewBox="0 0 150 150" fill="none" xmlns="http://www.w3.org/2000/svg">
<path d="M17.94 109.2H93.65L122.06 137.61C123.964 139.514 126.547 140.584 129.24 140.584C131.933 140.584 134.516 139.514 136.42 137.61C138.324 135.706 139.394 133.123 139.394 130.43C139.394 127.737 138.324 125.154 136.42 123.25L128.81 115.64V16.7499C128.807 14.8067 128.034 12.9438 126.66 11.5698C125.286 10.1957 123.423 9.42257 121.48 9.41992H17.94C15.9968 9.42257 14.1339 10.1957 12.7598 11.5698C11.3857 12.9438 10.6126 14.8067 10.61 16.7499V31.3299H117.16V28.3299H13.61V16.7499C13.61 15.6015 14.0662 14.5002 14.8782 13.6881C15.6902 12.8761 16.7916 12.4199 17.94 12.4199H121.48C122.628 12.4199 123.73 12.8761 124.542 13.6881C125.354 14.5002 125.81 15.6015 125.81 16.7499V116.88L134.3 125.37C135.639 126.714 136.39 128.533 136.39 130.43C136.39 132.327 135.639 134.146 134.3 135.49C132.957 136.831 131.138 137.584 129.24 137.584C127.342 137.584 125.523 136.831 124.18 135.49L95.32 106.64L105.45 96.5099L116.1 107.16L109.37 113.89L111.49 116.02L120.34 107.16L105.45 92.2699L99.23 98.4799L91.47 90.7299C96.5788 85.179 99.4038 77.904 99.38 70.3599C99.38 64.3845 97.6079 58.5433 94.288 53.5751C90.968 48.6069 86.2493 44.7348 80.7285 42.4486C75.2078 40.1623 69.1331 39.5647 63.2726 40.7311C57.4122 41.8976 52.0293 44.7758 47.8048 49.0018C43.5802 53.2277 40.7038 58.6115 39.5392 64.4724C38.3747 70.3332 38.9744 76.4077 41.2625 81.9277C43.5505 87.4477 47.4242 92.1652 52.3935 95.4835C57.3628 98.8018 63.2046 100.572 69.18 100.57C73.9244 100.584 78.6039 99.4663 82.83 97.3099L81.46 94.6399C77.6547 96.5803 73.4414 97.5847 69.17 97.5699C62.8642 97.5742 56.7523 95.3899 51.8777 91.3898C47.0031 87.3896 43.6679 81.8216 42.4414 75.6363C41.2149 69.4509 42.1731 63.0316 45.1525 57.474C48.132 51.9165 52.9479 47.5653 58.7782 45.1631C64.6086 42.761 71.0919 42.4568 77.1215 44.3025C83.1512 46.1482 88.3533 50.0294 91.84 55.2835C95.3267 60.5376 96.8818 66.839 96.2398 73.1121C95.5979 79.3851 92.7987 85.2409 88.32 89.6799L87.32 90.6799L88.23 91.7399L97.09 100.61L92.09 105.61L91.47 106.23H17.94C16.7916 106.23 15.6902 105.774 14.8782 104.962C14.0662 104.15 13.61 103.048 13.61 101.9V42.5699H10.61V101.87C10.6126 103.813 11.3857 105.676 12.7598 107.05C14.1339 108.424 15.9968 109.197 17.94 109.2V109.2Z" fill="#1B3139"/>
<path d="M20.31 20.4899C20.31 20.9468 20.4455 21.3934 20.6993 21.7733C20.9531 22.1532 21.3139 22.4493 21.736 22.6241C22.1581 22.7989 22.6226 22.8447 23.0707 22.7555C23.5188 22.6664 23.9304 22.4464 24.2534 22.1233C24.5765 21.8003 24.7965 21.3887 24.8856 20.9406C24.9747 20.4925 24.929 20.028 24.7542 19.6059C24.5793 19.1838 24.2832 18.8231 23.9034 18.5692C23.5235 18.3154 23.0769 18.1799 22.62 18.1799C22.0073 18.1799 21.4198 18.4233 20.9866 18.8565C20.5534 19.2897 20.31 19.8773 20.31 20.4899V20.4899Z" fill="#1B3139"/>
<path d="M29.23 20.4899C29.23 20.9468 29.3655 21.3934 29.6193 21.7733C29.8731 22.1532 30.2339 22.4493 30.656 22.6241C31.0781 22.7989 31.5426 22.8447 31.9907 22.7555C32.4388 22.6664 32.8504 22.4464 33.1734 22.1233C33.4965 21.8003 33.7165 21.3887 33.8056 20.9406C33.8948 20.4925 33.849 20.028 33.6742 19.6059C33.4993 19.1838 33.2033 18.8231 32.8234 18.5692C32.4435 18.3154 31.9969 18.1799 31.54 18.1799C30.9274 18.1799 30.3398 18.4233 29.9066 18.8565C29.4734 19.2897 29.23 19.8773 29.23 20.4899V20.4899Z" fill="#1B3139"/>
<path d="M38.14 20.4899C38.138 20.9492 38.2724 21.3987 38.5261 21.7816C38.7798 22.1644 39.1415 22.4633 39.5652 22.6404C39.989 22.8176 40.4558 22.865 40.9065 22.7766C41.3571 22.6882 41.7715 22.468 42.0969 22.144C42.4224 21.8199 42.6443 21.4065 42.7347 20.9562C42.825 20.5059 42.7796 20.0389 42.6043 19.6144C42.429 19.1899 42.1317 18.827 41.75 18.5716C41.3682 18.3163 40.9193 18.1799 40.46 18.1799C39.8464 18.1799 39.2578 18.423 38.823 18.8559C38.3882 19.2888 38.1427 19.8764 38.14 20.4899Z" fill="#1B3139"/>
<path d="M42.77 45.4399V42.4399H21.79V98.2799H42.77V95.2799H24.79V80.6799H36.43V77.6799H24.79V63.0499H36.34V60.0499H24.79V45.4399H42.77Z" fill="#1B3139"/>
<path d="M117.64 89.4499V42.4399H96.66V45.4399H114.64V60.0499H103.09V63.0499H114.64V77.6799H103.18V80.6799H114.64V89.4499H117.64Z" fill="#1B3139"/>
<path d="M80.19 91.6501V80.6501H89.08V77.6501H80.19V63.05H89.08V60.05H80.19V49.05H77.19V60.05H61.62V49.05H58.62V60.05H49.25V63.05H58.62V77.67H49.25V80.67H58.62V91.67H61.62V80.67H77.19V91.67L80.19 91.6501ZM61.62 77.6501V63.05H77.19V77.67L61.62 77.6501Z" fill="#1B3139"/>
</svg>
