<svg width="150" height="150" viewBox="0 0 150 150" fill="none" xmlns="http://www.w3.org/2000/svg">
<path d="M17.94 109.2H93.65L122.06 137.61C123.964 139.514 126.547 140.584 129.24 140.584C131.933 140.584 134.516 139.514 136.42 137.61C138.324 135.706 139.394 133.123 139.394 130.43C139.394 127.737 138.324 125.154 136.42 123.25L128.81 115.64V16.75C128.807 14.8068 128.034 12.9439 126.66 11.5699C125.286 10.1958 123.423 9.42269 121.48 9.42004H17.94C15.9968 9.42269 14.1339 10.1958 12.7598 11.5699C11.3857 12.9439 10.6126 14.8068 10.61 16.75V31.33H117.16V28.33H13.61V16.75C13.61 15.6017 14.0662 14.5003 14.8782 13.6883C15.6902 12.8762 16.7916 12.42 17.94 12.42H121.48C122.628 12.42 123.73 12.8762 124.542 13.6883C125.354 14.5003 125.81 15.6017 125.81 16.75V116.88L134.3 125.37C135.639 126.714 136.39 128.533 136.39 130.43C136.39 132.327 135.639 134.146 134.3 135.49C132.957 136.831 131.138 137.584 129.24 137.584C127.342 137.584 125.523 136.831 124.18 135.49L95.32 106.64L105.45 96.51L116.1 107.16L109.37 113.89L111.49 116.02L120.34 107.16L105.45 92.27L99.23 98.48L91.47 90.73C96.5788 85.1791 99.4038 77.9041 99.38 70.36C99.38 64.3846 97.6079 58.5434 94.288 53.5752C90.968 48.607 86.2493 44.7349 80.7285 42.4487C75.2078 40.1625 69.1331 39.5648 63.2726 40.7313C57.4122 41.8977 52.0293 44.7759 47.8048 49.0019C43.5802 53.2278 40.7038 58.6117 39.5392 64.4725C38.3747 70.3333 38.9744 76.4079 41.2625 81.9278C43.5505 87.4478 47.4242 92.1653 52.3935 95.4836C57.3628 98.8019 63.2046 100.572 69.18 100.57C73.9244 100.584 78.6039 99.4664 82.83 97.31L81.46 94.64C77.6547 96.5804 73.4414 97.5849 69.17 97.57C62.8642 97.5744 56.7523 95.39 51.8777 91.3899C47.0031 87.3897 43.6679 81.8218 42.4414 75.6364C41.2149 69.451 42.1731 63.0317 45.1525 57.4741C48.132 51.9166 52.9479 47.5654 58.7782 45.1632C64.6086 42.7611 71.0919 42.4569 77.1215 44.3026C83.1512 46.1483 88.3533 50.0295 91.84 55.2836C95.3267 60.5378 96.8818 66.8392 96.2398 73.1122C95.5979 79.3853 92.7987 85.2411 88.32 89.68L87.32 90.68L88.23 91.74L97.09 100.61L92.09 105.61L91.47 106.23H17.94C16.7916 106.23 15.6902 105.774 14.8782 104.962C14.0662 104.15 13.61 103.048 13.61 101.9V42.57H10.61V101.87C10.6126 103.813 11.3857 105.676 12.7598 107.05C14.1339 108.424 15.9968 109.197 17.94 109.2Z" fill="#FF5F46"/>
<path d="M20.3101 20.4901C20.3101 20.9469 20.4455 21.3935 20.6994 21.7734C20.9532 22.1533 21.314 22.4494 21.7361 22.6242C22.1582 22.7991 22.6226 22.8448 23.0707 22.7557C23.5188 22.6665 23.9304 22.4465 24.2535 22.1235C24.5765 21.8004 24.7965 21.3888 24.8857 20.9407C24.9748 20.4926 24.9291 20.0282 24.7542 19.6061C24.5794 19.184 24.2833 18.8232 23.9034 18.5694C23.5235 18.3155 23.0769 18.1801 22.6201 18.1801C22.0074 18.1801 21.4199 18.4234 20.9866 18.8566C20.5534 19.2898 20.3101 19.8774 20.3101 20.4901Z" fill="#FF5F46"/>
<path d="M29.23 20.4901C29.23 20.9469 29.3655 21.3935 29.6193 21.7734C29.8731 22.1533 30.2339 22.4494 30.656 22.6242C31.0781 22.7991 31.5425 22.8448 31.9906 22.7557C32.4387 22.6665 32.8503 22.4465 33.1734 22.1235C33.4965 21.8004 33.7165 21.3888 33.8056 20.9407C33.8947 20.4926 33.849 20.0282 33.6741 19.6061C33.4993 19.184 33.2032 18.8232 32.8233 18.5694C32.4435 18.3155 31.9969 18.1801 31.54 18.1801C30.9273 18.1801 30.3398 18.4234 29.9066 18.8566C29.4734 19.2898 29.23 19.8774 29.23 20.4901Z" fill="#FF5F46"/>
<path d="M38.14 20.4901C38.1381 20.9493 38.2724 21.3989 38.5262 21.7817C38.7799 22.1645 39.1415 22.4634 39.5653 22.6406C39.989 22.8177 40.4558 22.8651 40.9065 22.7767C41.3572 22.6883 41.7715 22.4681 42.097 22.1441C42.4224 21.82 42.6444 21.4067 42.7347 20.9564C42.825 20.506 42.7797 20.0391 42.6044 19.6146C42.4291 19.19 42.1317 18.8271 41.75 18.5717C41.3683 18.3164 40.9193 18.1801 40.46 18.1801C39.8465 18.18 39.2579 18.4231 38.8231 18.856C38.3883 19.2889 38.1427 19.8765 38.14 20.4901Z" fill="#FF5F46"/>
<path d="M42.77 45.4399V42.4399H21.79V98.2799H42.77V95.2799H24.79V80.6799H36.43V77.6799H24.79V63.0499H36.34V60.0499H24.79V45.4399H42.77Z" fill="#FF5F46"/>
<path d="M117.64 89.4499V42.4399H96.66V45.4399H114.64V60.0499H103.09V63.0499H114.64V77.6799H103.18V80.6799H114.64V89.4499H117.64Z" fill="#FF5F46"/>
<path d="M80.19 91.6501V80.6501H89.08V77.6501H80.19V63.05H89.08V60.05H80.19V49.05H77.19V60.05H61.62V49.05H58.62V60.05H49.25V63.05H58.62V77.67H49.25V80.67H58.62V91.67H61.62V80.67H77.19V91.67L80.19 91.6501ZM61.62 77.6501V63.05H77.19V77.67L61.62 77.6501Z" fill="#FF5F46"/>
</svg>
