<svg width="150" height="150" viewBox="0 0 150 150" fill="none" xmlns="http://www.w3.org/2000/svg">
<path d="M122.5 37.1L122.4 36.2L85.2 20.9V24.1L119.5 38.1C119.7 42.1 120.2 58.3 115.9 76.1C109.6 102.4 96.3 119.9 76.5 128.3V96.8C82.4 96.5 87.7 94.1 91.8 90.4L96 94.6L98.1 92.5L94 88.3C97.7 84.2 100 78.8 100.4 73H106.3V70H100.4C100.1 64.1 97.7 58.8 94 54.7L98.2 50.5L96.1 48.4L91.9 52.6C87.8 48.9 82.4 46.6 76.6 46.2V17.2L27.6 36.1L27.5 37C27.5 37.2 26.3 53.1 30 71.9C34.9 96.6 46.1 115.2 62.3 125.9V122.3C28.7 98.6 30 45.9 30.4 38.3L73.4 21.6V46.1C67.5 46.4 62.2 48.8 58 52.5L53.8 48.3L51.7 50.4L55.9 54.6C52.2 58.7 49.9 64.1 49.5 69.9H43.6V72.9H49.5C49.8 78.8 52.2 84.1 55.9 88.2L51.7 92.4L53.8 94.5L58 90.3C62.1 94 67.5 96.3 73.4 96.7V132.7L75.4 131.9C97 123.6 112 104.5 118.7 76.7C123.9 55.9 122.5 37.2 122.5 37.1ZM52.6 71.4C52.6 59.1 62.6 49 75 49C87.3 49 97.4 59 97.4 71.4C97.4 83.8 87.4 93.8 75 93.8C62.7 93.8 52.6 83.8 52.6 71.4Z" fill="white"/>
<path d="M88.1 71.4C88.1 64.2 82.2 58.3 75 58.3C67.8 58.3 61.8 64.2 61.8 71.4C61.8 78.6 67.8 84.6 75 84.6C82.2 84.6 88.1 78.7 88.1 71.4ZM83.2 77.5L77.2 71.5L83.2 65.5C84.4 67.2 85.2 69.3 85.2 71.5C85.1 73.7 84.4 75.8 83.2 77.5ZM81 63.3L75 69.3L69 63.3C70.7 62.1 72.8 61.3 75 61.3C77.3 61.3 79.3 62 81 63.3ZM66.8 65.4L72.8 71.4L66.8 77.4C65.6 75.7 64.8 73.6 64.8 71.4C64.9 69.2 65.6 67.1 66.8 65.4ZM69 79.6L75 73.6L81 79.6C79.3 80.8 77.2 81.6 75 81.6C72.8 81.6 70.7 80.9 69 79.6Z" fill="white"/>
</svg>
