<svg width="150" height="150" viewBox="0 0 150 150" fill="none" xmlns="http://www.w3.org/2000/svg">
<path d="M122.5 37.1002L122.4 36.2002L85.2 20.9002V24.1002L119.5 38.1002C119.7 42.1002 120.2 58.3002 115.9 76.1002C109.6 102.4 96.3 119.9 76.5 128.3V96.8002C82.4 96.5002 87.7 94.1002 91.8 90.4002L96 94.6002L98.1 92.5002L94 88.3002C97.7 84.2002 100 78.8002 100.4 73.0002H106.3V70.0002H100.4C100.1 64.1002 97.7 58.8002 94 54.7002L98.2 50.5002L96.1 48.4002L91.9 52.6002C87.8 48.9002 82.4 46.6002 76.6 46.2002V17.2002L27.6 36.1002L27.5 37.0002C27.5 37.2002 26.3 53.1002 30 71.9002C34.9 96.6002 46.1 115.2 62.3 125.9V122.3C28.7 98.6002 30 45.9002 30.4 38.3002L73.4 21.6002V46.1002C67.5 46.4002 62.2 48.8002 58 52.5002L53.8 48.3002L51.7 50.4002L55.9 54.6002C52.2 58.7002 49.9 64.1002 49.5 69.9002H43.6V72.9002H49.5C49.8 78.8002 52.2 84.1002 55.9 88.2002L51.7 92.4002L53.8 94.5002L58 90.3002C62.1 94.0002 67.5 96.3002 73.4 96.7002V132.7L75.4 131.9C97 123.6 112 104.5 118.7 76.7002C123.9 55.9002 122.5 37.2002 122.5 37.1002ZM52.6 71.4002C52.6 59.1002 62.6 49.0002 75 49.0002C87.3 49.0002 97.4 59.0002 97.4 71.4002C97.4 83.8002 87.4 93.8002 75 93.8002C62.7 93.8002 52.6 83.8002 52.6 71.4002Z" fill="#FF5F46"/>
<path d="M88.0999 71.4003C88.0999 64.2003 82.1999 58.3003 74.9999 58.3003C67.7999 58.3003 61.7999 64.2003 61.7999 71.4003C61.7999 78.6003 67.7999 84.6003 74.9999 84.6003C82.1999 84.6003 88.0999 78.7003 88.0999 71.4003ZM83.1999 77.5003L77.1999 71.5003L83.1999 65.5003C84.3999 67.2003 85.1999 69.3003 85.1999 71.5003C85.0999 73.7003 84.3999 75.8003 83.1999 77.5003ZM80.9999 63.3003L74.9999 69.3003L68.9999 63.3003C70.6999 62.1003 72.7999 61.3003 74.9999 61.3003C77.2999 61.3003 79.2999 62.0003 80.9999 63.3003ZM66.7999 65.4003L72.7999 71.4003L66.7999 77.4003C65.5999 75.7003 64.7999 73.6003 64.7999 71.4003C64.8999 69.2003 65.5999 67.1003 66.7999 65.4003ZM68.9999 79.6003L74.9999 73.6003L80.9999 79.6003C79.2999 80.8003 77.1999 81.6003 74.9999 81.6003C72.7999 81.6003 70.6999 80.9003 68.9999 79.6003Z" fill="#FF5F46"/>
</svg>
