<svg width="150" height="150" viewBox="0 0 150 150" fill="none" xmlns="http://www.w3.org/2000/svg">
<g clip-path="url(#clip0_1_2006)">
<path fill-rule="evenodd" clip-rule="evenodd" d="M44.6999 102.4H58.5999V105.4H47.6999V116.2H44.6999V102.4Z" fill="white"/>
<path fill-rule="evenodd" clip-rule="evenodd" d="M119.4 20.3999V34.1999H105.6V31.1999H116.4V20.3999H119.4Z" fill="white"/>
<path fill-rule="evenodd" clip-rule="evenodd" d="M51.6999 75.0001C51.6999 61.7717 62.3715 51.1001 75.5999 51.1001C88.8283 51.1001 99.4999 61.7717 99.4999 75.0001H96.4999C96.4999 63.4285 87.1715 54.1001 75.5999 54.1001C64.0283 54.1001 54.6999 63.4285 54.6999 75.0001C54.6999 80.295 56.6914 85.1637 59.9951 88.8614C61.5384 85.838 64.1695 82.9195 67.8778 81.2954C67.2465 80.5426 66.699 79.6281 66.2468 78.6333C65.2151 76.3635 64.5918 73.4816 64.701 70.6424C64.8125 67.7422 65.7967 65.1095 67.6976 63.1936C69.6092 61.2669 72.3147 60.2001 75.5999 60.2001C78.8878 60.2001 81.57 61.2688 83.4689 63.1978C85.3526 65.1115 86.3313 67.7345 86.4974 70.6137L86.4988 70.6424C86.608 73.4816 85.9847 76.3635 84.9529 78.6333C84.5049 79.6189 83.9633 80.5258 83.3394 81.2746C85.3695 82.1606 87.0419 83.4467 88.3888 84.8685L86.211 86.9317C84.5818 85.212 82.4495 83.802 79.7149 83.2728L79.7268 80.3252C79.9726 80.2797 80.3646 80.0871 80.8492 79.5653C81.3231 79.0551 81.8009 78.3181 82.2219 77.3919C83.0634 75.5405 83.5897 73.1284 83.5016 70.7722C83.3653 68.4579 82.5946 66.5861 81.3309 65.3024C80.0798 64.0314 78.212 63.2001 75.5999 63.2001C72.9851 63.2001 71.0906 64.0333 69.8272 65.3066C68.5531 66.5907 67.7872 68.458 67.6988 70.7577C67.608 73.1186 68.1347 75.5367 68.9779 77.3919C69.3989 78.3181 69.8767 79.0551 70.3506 79.5653C70.8352 80.0871 71.2272 80.2797 71.473 80.3252L71.5089 83.2679C66.4417 84.3347 63.1903 88.2629 61.9194 91.9848L59.4897 92.6089C54.6902 88.236 51.6999 81.9387 51.6999 75.0001Z" fill="white"/>
<path fill-rule="evenodd" clip-rule="evenodd" d="M91.7145 92.6048C96.5114 88.2321 99.4999 81.9366 99.4999 75H96.4999C96.4999 81.0614 93.8902 86.5641 89.6897 90.3912L89.6897 90.3912L89.6814 90.3989C85.9511 93.8494 81.0122 95.9 75.5999 95.9V98.9C81.7858 98.9 87.4453 96.5521 91.7145 92.6048Z" fill="white"/>
<path fill-rule="evenodd" clip-rule="evenodd" d="M16.1187 73.5001C16.9146 41.717 42.9329 16.1001 74.9999 16.1001C91.3872 16.1001 106.204 22.7309 116.83 33.5511L118.97 31.4491C107.795 20.0693 92.2127 13.1001 74.9999 13.1001C40.7699 13.1001 13.0999 40.8733 13.0999 75.0001V76.5001H35.5999V75.0001C35.5999 53.2285 53.2284 35.6001 74.9999 35.6001C92.7167 35.6001 107.655 47.3472 112.668 63.446L115.532 62.5542C110.145 45.253 94.0832 32.6001 74.9999 32.6001C52.0736 32.6001 33.4151 50.7672 32.6259 73.5001H16.1187Z" fill="white"/>
<path fill-rule="evenodd" clip-rule="evenodd" d="M114.4 73.3999H136.9V74.8999C136.9 109.027 109.23 136.8 75 136.8C45.0708 136.8 20.0686 115.482 14.3299 87.1982L17.27 86.6016C22.7313 113.518 46.5292 133.8 75 133.8C107.067 133.8 133.085 108.183 133.881 76.3999H117.374C116.585 99.1328 97.9263 117.3 75 117.3C63.2896 117.3 52.8156 112.633 45.1466 105.068L47.2534 102.932C54.3843 109.967 64.1103 114.3 75 114.3C96.7715 114.3 114.4 96.6715 114.4 74.8999V73.3999Z" fill="white"/>
</g>
<defs>
<clipPath id="clip0_1_2006">
<rect width="150" height="150" fill="white"/>
</clipPath>
</defs>
</svg>
