<svg width="150" height="150" viewBox="0 0 150 150" fill="none" xmlns="http://www.w3.org/2000/svg">
<g clip-path="url(#clip0_214_407)">
<path fill-rule="evenodd" clip-rule="evenodd" d="M44.7 102.4H58.5999V105.4H47.7V116.2H44.7V102.4Z" fill="#FF5F46"/>
<path fill-rule="evenodd" clip-rule="evenodd" d="M119.4 20.4V34.2H105.6V31.2H116.4V20.4H119.4Z" fill="#FF5F46"/>
<path fill-rule="evenodd" clip-rule="evenodd" d="M51.7 75C51.7 61.7716 62.3715 51.1 75.6 51.1C88.8284 51.1 99.5 61.7716 99.5 75H96.5C96.5 63.4284 87.1715 54.1 75.6 54.1C64.0284 54.1 54.7 63.4284 54.7 75C54.7 80.2949 56.6914 85.1635 59.9951 88.8613C61.5385 85.8379 64.1696 82.9194 67.8778 81.2953C67.2466 80.5425 66.6991 79.6279 66.2469 78.6332C65.2152 76.3633 64.5919 73.4815 64.7011 70.6423C64.8126 67.7421 65.7967 65.1094 67.6976 63.1935C69.6093 61.2668 72.3148 60.2 75.6 60.2C78.8879 60.2 81.5701 61.2687 83.4689 63.1977C85.3527 65.1114 86.3314 67.7344 86.4975 70.6136L86.4989 70.6423C86.6081 73.4815 85.9848 76.3633 84.953 78.6332C84.505 79.6188 83.9634 80.5257 83.3395 81.2745C85.3696 82.1605 87.042 83.4466 88.3889 84.8684L86.211 86.9316C84.5819 85.2119 82.4495 83.8019 79.7149 83.2727L79.7268 80.3251C79.9726 80.2795 80.3647 80.087 80.8493 79.5651C81.3231 79.055 81.8009 78.3179 82.2219 77.3918C83.0634 75.5404 83.5897 73.1283 83.5016 70.7721C83.3654 68.4578 82.5946 66.5859 81.331 65.3023C80.0799 64.0313 78.212 63.2 75.6 63.2C72.9851 63.2 71.0906 64.0332 69.8273 65.3065C68.5532 66.5906 67.7873 68.4579 67.6988 70.7576C67.608 73.1185 68.1347 75.5366 68.978 77.3918C69.399 78.3179 69.8768 79.055 70.3506 79.5651C70.8352 80.087 71.2273 80.2795 71.4731 80.3251L71.509 83.2678C66.4418 84.3346 63.1904 88.2628 61.9195 91.9847L59.4897 92.6088C54.6902 88.2359 51.7 81.9386 51.7 75Z" fill="#FF5F46"/>
<path fill-rule="evenodd" clip-rule="evenodd" d="M91.7145 92.6049C96.5115 88.2322 99.5 81.9366 99.5 75.0001H96.5C96.5 81.0614 93.8902 86.5641 89.6897 90.3913L89.6897 90.3912L89.6814 90.3989C85.9511 93.8494 81.0122 95.9001 75.6 95.9001V98.9001C81.7858 98.9001 87.4453 96.5521 91.7145 92.6049Z" fill="#FF5F46"/>
<path fill-rule="evenodd" clip-rule="evenodd" d="M16.1187 73.5C16.9147 41.7169 42.933 16.1 75 16.1C91.3872 16.1 106.205 22.7308 116.83 33.5509L118.97 31.449C107.795 20.0691 92.2127 13.1 75 13.1C40.7699 13.1 13.1 40.8732 13.1 75V76.5H35.6V75C35.6 53.2284 53.2284 35.6 75 35.6C92.7167 35.6 107.655 47.3471 112.668 63.4459L115.532 62.554C110.145 45.2528 94.0832 32.6 75 32.6C52.0736 32.6 33.4152 50.7671 32.626 73.5H16.1187Z" fill="#FF5F46"/>
<path fill-rule="evenodd" clip-rule="evenodd" d="M114.4 73.4H136.9V74.9C136.9 109.027 109.23 136.8 75 136.8C45.0708 136.8 20.0687 115.482 14.33 87.1982L17.27 86.6017C22.7313 113.518 46.5292 133.8 75 133.8C107.067 133.8 133.085 108.183 133.881 76.4H117.374C116.585 99.1328 97.9263 117.3 75 117.3C63.2896 117.3 52.8156 112.633 45.1466 105.068L47.2534 102.932C54.3844 109.967 64.1104 114.3 75 114.3C96.7716 114.3 114.4 96.6715 114.4 74.9V73.4Z" fill="#FF5F46"/>
</g>
<defs>
<clipPath id="clip0_214_407">
<rect width="150" height="150" fill="white"/>
</clipPath>
</defs>
</svg>
