<svg width="150" height="150" viewBox="0 0 150 150" fill="none" xmlns="http://www.w3.org/2000/svg">
<path d="M34.6 115.6V118.6H128.4V126.6H21.6V118.6H29.6V107.6H35.4H53.2H66H83.8H96.6H114.4H120.3V111.9H123.3V104.6H114.3L112.6 64H123.3V42.3L74.9 20.3L26.4 42.3V56.7001H114.1V53.7001H29.5V44.2001L75 23.6L120.4 44.2001V61H109.6L111.5 104.6H99.8L101.7 61H78.9L80.8 104.6H69.1L71 61.1H48.2L50.1 104.7H38.5L40.4 61.1H31.3V64.1H37.2L35.5 104.7H26.6V115.7H18.6V129.7H131.4V115.7H34.6V115.6ZM82 64.1H98.6L96.9 104.7H83.7L82 64.1ZM51.3 64.1H67.9L66.2 104.7H53L51.3 64.1Z" fill="white"/>
<path d="M65.8 39.4C65.8 44.3 69.8 48.3 74.7 48.3C79.6 48.3 83.6 44.3 83.6 39.4C83.6 34.5 79.6 30.5 74.7 30.5C69.8 30.5 65.8 34.6 65.8 39.4ZM80.5 39.4C80.5 42.6 77.9 45.3 74.6 45.3C71.3 45.3 68.7 42.7 68.7 39.4C68.7 36.1 71.3 33.5 74.6 33.5C77.9 33.5 80.5 36.2 80.5 39.4Z" fill="white"/>
</svg>
