<svg width="150" height="150" viewBox="0 0 150 150" fill="none" xmlns="http://www.w3.org/2000/svg">
<path d="M34.6 115.6V118.6H128.4V126.6H21.6V118.6H29.6V107.6H35.4H53.2H66H83.8H96.6H114.4H120.3V111.9H123.3V104.6H114.3L112.6 64H123.3V42.3L74.9 20.3L26.4 42.3V56.7001H114.1V53.7001H29.5V44.2001L75 23.6L120.4 44.2001V61H109.6L111.5 104.6H99.8L101.7 61H78.9L80.8 104.6H69.1L71 61.1H48.2L50.1 104.7H38.5L40.4 61.1H31.3V64.1H37.2L35.5 104.7H26.6V115.7H18.6V129.7H131.4V115.7H34.6V115.6ZM82 64.1H98.6L96.9 104.7H83.7L82 64.1ZM51.3 64.1H67.9L66.2 104.7H53L51.3 64.1Z" fill="#FF5F46"/>
<path d="M65.7999 39.4C65.7999 44.3 69.7999 48.3 74.6999 48.3C79.5999 48.3 83.5999 44.3 83.5999 39.4C83.5999 34.5 79.5999 30.5 74.6999 30.5C69.7999 30.5 65.7999 34.6 65.7999 39.4ZM80.4999 39.4C80.4999 42.6 77.8999 45.3 74.5999 45.3C71.2999 45.3 68.6999 42.7 68.6999 39.4C68.6999 36.1 71.2999 33.5 74.5999 33.5C77.8999 33.5 80.4999 36.2 80.4999 39.4Z" fill="#FF5F46"/>
</svg>
