<svg width="512" height="512" viewBox="0 0 512 512" fill="none" xmlns="http://www.w3.org/2000/svg">
<path d="M220.408 401.342L362.785 257.242L220.408 113.143L220.408 56L299.582 56L299.582 136.544L314.387 142.792L370.291 85.8379L426.713 143.32L370.807 200.274L376.941 215.356H456.002V296.644H376.941L370.807 311.726L426.713 368.68L370.291 426.162L314.385 369.208L299.582 375.456L299.582 456H220.408L220.408 401.342Z" fill="#618794"/>
<path d="M156.584 100.984V100.722L308.78 256.001L156.584 411.281V411.004L141.711 426.159L85.2895 368.676L141.196 311.722L135.061 296.641H56V215.352H135.061L141.196 200.271L85.2895 143.317L141.711 85.8345L156.584 100.984Z" fill="#C4CCD6"/>
</svg>
