<svg width="150" height="150" viewBox="0 0 150 150" fill="none" xmlns="http://www.w3.org/2000/svg">
<path d="M28.92 69.25H21.96V76.21H28.92V69.25Z" stroke="#FF5F46" stroke-width="3" stroke-miterlimit="3" stroke-linecap="square"/>
<path d="M36.91 69.25L40.39 76.21H33.4301L36.91 69.25Z" stroke="#FF5F46" stroke-width="3" stroke-miterlimit="3" stroke-linecap="square"/>
<path d="M40.39 80.75H33.4301V87.71H40.39V80.75Z" stroke="#FF5F46" stroke-width="3" stroke-miterlimit="3" stroke-linecap="square"/>
<path d="M54.03 40.3702C59.8842 40.3702 64.63 39.1569 64.63 37.6602C64.63 36.1635 59.8842 34.9502 54.03 34.9502C48.1758 34.9502 43.4301 36.1635 43.4301 37.6602C43.4301 39.1569 48.1758 40.3702 54.03 40.3702Z" stroke="#FF5F46" stroke-width="3" stroke-miterlimit="3" stroke-linecap="square"/>
<path d="M64.62 42.8301C64.62 44.3201 59.88 45.5601 54.03 45.5601C48.18 45.5601 43.4301 44.3501 43.4301 42.8301" stroke="#FF5F46" stroke-width="3" stroke-miterlimit="3" stroke-linecap="square"/>
<path d="M43.4301 38.7202V48.0202C43.4301 49.5102 48.18 50.7502 54.03 50.7502C59.88 50.7502 64.62 49.5402 64.62 48.0202V38.9102" stroke="#FF5F46" stroke-width="3" stroke-miterlimit="3" stroke-linecap="square"/>
<path d="M41.3299 93.54C49.6499 87.94 51.85 76.65 46.25 68.33C40.65 60.01 29.36 57.81 21.04 63.41C12.72 69.01 10.5199 80.3 16.1199 88.62C19.4899 93.63 25.14 96.63 31.18 96.64" stroke="#FF5F46" stroke-width="3" stroke-miterlimit="3" stroke-linecap="square"/>
<path d="M99.8001 25.0099C89.9501 23.0899 80.42 29.5199 78.5 39.3599C76.58 49.2099 83.01 58.7399 92.85 60.6599C102.7 62.5799 112.23 56.1499 114.15 46.3099C115.31 40.3799 113.44 34.2599 109.17 29.9899" stroke="#FF5F46" stroke-width="3" stroke-miterlimit="3" stroke-linecap="square"/>
<path d="M69.0799 32.6801C63.4799 24.3601 52.1899 22.1601 43.8699 27.7601C35.5499 33.3601 33.3499 44.6501 38.9499 52.9701C44.5499 61.2901 55.84 63.4901 64.16 57.8901C69.17 54.5201 72.17 48.8701 72.18 42.8301H64.6199" stroke="#FF5F46" stroke-width="3" stroke-miterlimit="3" stroke-linecap="square"/>
<path d="M25.4399 87.71C27.3619 87.71 28.92 86.152 28.92 84.23C28.92 82.3081 27.3619 80.75 25.4399 80.75C23.518 80.75 21.96 82.3081 21.96 84.23C21.96 86.152 23.518 87.71 25.4399 87.71Z" stroke="#FF5F46" stroke-width="3" stroke-miterlimit="3" stroke-linecap="square"/>
<path d="M105.24 50.19C107.162 50.19 108.72 48.6319 108.72 46.71C108.72 44.788 107.162 43.23 105.24 43.23C103.318 43.23 101.76 44.788 101.76 46.71C101.76 48.6319 103.318 50.19 105.24 50.19Z" stroke="#FF5F46" stroke-width="3" stroke-miterlimit="3" stroke-linecap="square"/>
<path d="M87.9301 51.6802C89.852 51.6802 91.41 50.1222 91.41 48.2002C91.41 46.2783 89.852 44.7202 87.9301 44.7202C86.0081 44.7202 84.45 46.2783 84.45 48.2002C84.45 50.1222 86.0081 51.6802 87.9301 51.6802Z" stroke="#FF5F46" stroke-width="3" stroke-miterlimit="3" stroke-linecap="square"/>
<path d="M99.09 38.4703C101.012 38.4703 102.57 36.9122 102.57 34.9903C102.57 33.0683 101.012 31.5103 99.09 31.5103C97.168 31.5103 95.61 33.0683 95.61 34.9903C95.61 36.9122 97.168 38.4703 99.09 38.4703Z" stroke="#FF5F46" stroke-width="3" stroke-miterlimit="3" stroke-linecap="square"/>
<path d="M103.72 42.8301L100.7 38.0801" stroke="#FF5F46" stroke-width="3" stroke-miterlimit="3" stroke-linecap="square"/>
<path d="M95.75 37.6602L90.34 45.2002" stroke="#FF5F46" stroke-width="3" stroke-miterlimit="3" stroke-linecap="square"/>
<path d="M91.41 48.2L101.76 46.71" stroke="#FF5F46" stroke-width="3" stroke-miterlimit="3" stroke-linecap="square"/>
<path d="M116.85 85.84C121.765 85.84 125.75 81.8554 125.75 76.94C125.75 72.0247 121.765 68.04 116.85 68.04C111.935 68.04 107.95 72.0247 107.95 76.94C107.95 81.8554 111.935 85.84 116.85 85.84Z" stroke="#FF5F46" stroke-width="3" stroke-miterlimit="3" stroke-linecap="square"/>
<path d="M116.85 71.77C113.99 71.77 111.67 74.09 111.67 76.95" stroke="#FF5F46" stroke-width="3" stroke-miterlimit="3" stroke-linecap="square"/>
<path d="M123.37 83L131.69 91.32" stroke="#FF5F46" stroke-width="3" stroke-miterlimit="3" stroke-linecap="square"/>
<path d="M118.85 96.6399C108.82 96.6499 100.69 88.5299 100.68 78.5099C100.67 68.4799 108.79 60.3499 118.81 60.3399C128.84 60.3299 136.97 68.4499 136.98 78.4699C136.98 83.2799 135.08 87.8899 131.69 91.2999" stroke="#FF5F46" stroke-width="3" stroke-miterlimit="3" stroke-linecap="square"/>
<path d="M101.43 108.92V122.95C111.05 122.95 118.85 115.15 118.85 105.53V96.6401" stroke="#FF5F46" stroke-width="3" stroke-miterlimit="3" stroke-linecap="square"/>
<path d="M75.02 122.95V106.93L71.77 97.57L64.76 92.77" stroke="#FF5F46" stroke-width="3" stroke-miterlimit="3" stroke-linecap="square"/>
<path d="M48.61 108.92C48.61 99.9999 55.84 92.7699 64.76 92.7699C58.18 87.0999 57.45 77.1799 63.11 70.5999C68.78 64.0199 78.7 63.2899 85.28 68.9499C91.86 74.6199 92.5901 84.5399 86.9301 91.1199C86.4201 91.7099 85.87 92.2599 85.28 92.7699C94.2 92.7699 101.43 99.9999 101.43 108.92" stroke="#FF5F46" stroke-width="3" stroke-miterlimit="3" stroke-linecap="square"/>
<path d="M75.42 105.76L78.26 97.57L85.28 92.77" stroke="#FF5F46" stroke-width="3" stroke-miterlimit="3" stroke-linecap="square"/>
<path d="M85.28 92.77V107.23L78.26 97.57" stroke="#FF5F46" stroke-width="3" stroke-miterlimit="3" stroke-linecap="round"/>
<path d="M64.76 92.77V107.23L71.77 97.57" stroke="#FF5F46" stroke-width="3" stroke-miterlimit="3" stroke-linecap="round"/>
<path d="M48.61 108.92V122.95C38.98 122.95 31.1801 115.14 31.1801 105.52V96.6299" stroke="#FF5F46" stroke-width="3" stroke-miterlimit="3" stroke-linecap="square"/>
<path d="M80.89 113.01C81.3815 113.01 81.78 112.612 81.78 112.12C81.78 111.628 81.3815 111.23 80.89 111.23C80.3985 111.23 80 111.628 80 112.12C80 112.612 80.3985 113.01 80.89 113.01Z" stroke="#FF5F46" stroke-width="3" stroke-miterlimit="3" stroke-linecap="square"/>
<path d="M80.89 120.21C81.3815 120.21 81.78 119.812 81.78 119.32C81.78 118.829 81.3815 118.43 80.89 118.43C80.3985 118.43 80 118.829 80 119.32C80 119.812 80.3985 120.21 80.89 120.21Z" stroke="#FF5F46" stroke-width="3" stroke-miterlimit="3" stroke-linecap="square"/>
</svg>
