<svg width="150" height="150" viewBox="0 0 150 150" fill="none" xmlns="http://www.w3.org/2000/svg">
<g clip-path="url(#clip0_1_1997)">
<path fill-rule="evenodd" clip-rule="evenodd" d="M114.036 93.7471C110.049 93.7471 106.998 96.8459 106.998 101.723C106.998 104.589 108.658 107.635 110.716 109.593L110.429 111.981L104.656 115.297C103.746 115.818 103.164 116.818 103.164 117.88V128.314H100.164V117.88C100.164 115.746 101.319 113.751 103.165 112.694C103.165 112.694 103.165 112.694 103.165 112.694L107.31 110.313C105.439 108 103.998 104.901 103.998 101.723C103.998 95.4768 108.118 90.7471 114.036 90.7471C119.947 90.7471 124.053 95.4805 124.053 101.723C124.053 104.901 122.612 108 120.747 110.312L124.884 112.692C126.758 113.752 127.898 115.752 127.898 117.88V128.614H124.898V117.88C124.898 116.814 124.323 115.82 123.404 115.302L123.393 115.295L117.631 111.98L117.343 109.596C119.393 107.637 121.053 104.59 121.053 101.723C121.053 96.8422 118.01 93.7471 114.036 93.7471Z" fill="#1B3139"/>
<path fill-rule="evenodd" clip-rule="evenodd" d="M67.9629 19.4062C37.2772 19.4062 12.4063 44.2775 12.4063 74.9529C12.4063 105.628 37.2772 130.5 67.9629 130.5C74.5973 130.5 80.9548 129.342 86.8535 127.204L87.8757 130.025C81.6521 132.28 74.9487 133.5 67.9629 133.5C35.6207 133.5 9.40628 107.286 9.40628 74.9529C9.40628 42.6203 35.6207 16.4062 67.9629 16.4062C100.295 16.4062 126.51 42.6205 126.51 74.9529H123.51C123.51 44.2774 98.6385 19.4062 67.9629 19.4062Z" fill="#1B3139"/>
<path fill-rule="evenodd" clip-rule="evenodd" d="M42.6524 49.7832C39.24 49.7832 36.4736 52.5495 36.4736 55.962C36.4736 59.3744 39.24 62.1408 42.6524 62.1408C46.0649 62.1408 48.8312 59.3744 48.8312 55.962C48.8312 52.5495 46.0649 49.7832 42.6524 49.7832ZM33.4736 55.962C33.4736 50.8927 37.5831 46.7832 42.6524 46.7832C47.7217 46.7832 51.8312 50.8927 51.8312 55.962C51.8312 61.0313 47.7217 65.1408 42.6524 65.1408C37.5831 65.1408 33.4736 61.0313 33.4736 55.962Z" fill="#1B3139"/>
<path fill-rule="evenodd" clip-rule="evenodd" d="M28.9219 81.0864C25.5094 81.0864 22.7431 83.8528 22.7431 87.2652C22.7431 90.6777 25.5094 93.444 28.9219 93.444C32.3343 93.444 35.1007 90.6777 35.1007 87.2652C35.1007 83.8528 32.3343 81.0864 28.9219 81.0864ZM19.7431 87.2652C19.7431 82.1959 23.8526 78.0864 28.9219 78.0864C33.9912 78.0864 38.1007 82.1959 38.1007 87.2652C38.1007 92.3345 33.9912 96.444 28.9219 96.444C23.8526 96.444 19.7431 92.3345 19.7431 87.2652Z" fill="#1B3139"/>
<path fill-rule="evenodd" clip-rule="evenodd" d="M96.0634 37.9531C92.6509 37.9531 89.8846 40.7195 89.8846 44.1319C89.8846 47.5444 92.6509 50.3107 96.0634 50.3107C99.4758 50.3107 102.242 47.5444 102.242 44.1319C102.242 40.7195 99.4758 37.9531 96.0634 37.9531ZM86.8846 44.1319C86.8846 39.0626 90.9941 34.9531 96.0634 34.9531C101.133 34.9531 105.242 39.0626 105.242 44.1319C105.242 49.2012 101.133 53.3107 96.0634 53.3107C90.9941 53.3107 86.8846 49.2012 86.8846 44.1319Z" fill="#1B3139"/>
<path fill-rule="evenodd" clip-rule="evenodd" d="M81.5623 72.708C78.1499 72.708 75.3836 75.4743 75.3836 78.8868C75.3836 82.2992 78.1499 85.0656 81.5623 85.0656C84.9748 85.0656 87.7411 82.2992 87.7411 78.8868C87.7411 75.4743 84.9748 72.708 81.5623 72.708ZM72.3836 78.8868C72.3836 73.8175 76.493 69.708 81.5623 69.708C86.6317 69.708 90.7411 73.8175 90.7411 78.8868C90.7411 83.9561 86.6317 88.0656 81.5623 88.0656C76.493 88.0656 72.3836 83.9561 72.3836 78.8868Z" fill="#1B3139"/>
<path fill-rule="evenodd" clip-rule="evenodd" d="M56.9995 96.0781C53.5871 96.0781 50.8207 98.8445 50.8207 102.257C50.8207 105.669 53.5871 108.436 56.9995 108.436C60.412 108.436 63.1783 105.669 63.1783 102.257C63.1783 98.8445 60.412 96.0781 56.9995 96.0781ZM47.8207 102.257C47.8207 97.1876 51.9302 93.0781 56.9995 93.0781C62.0688 93.0781 66.1783 97.1876 66.1783 102.257C66.1783 107.326 62.0688 111.436 56.9995 111.436C51.9302 111.436 47.8207 107.326 47.8207 102.257Z" fill="#1B3139"/>
<path fill-rule="evenodd" clip-rule="evenodd" d="M45.9235 62.3882L56.2983 93.9121L53.4487 94.85L43.0738 63.326L45.9235 62.3882Z" fill="#1B3139"/>
<path fill-rule="evenodd" clip-rule="evenodd" d="M88.6976 46.6351L50.4235 56.4707L49.6768 53.5651L87.9509 43.7295L88.6976 46.6351Z" fill="#1B3139"/>
<path fill-rule="evenodd" clip-rule="evenodd" d="M84.125 71.7478L92.363 51.2378L95.1468 52.3559L86.9088 72.866L84.125 71.7478Z" fill="#1B3139"/>
<path fill-rule="evenodd" clip-rule="evenodd" d="M48.8456 58.3804L75.3469 72.9291L73.9032 75.5589L47.4019 61.0101L48.8456 58.3804Z" fill="#1B3139"/>
<path fill-rule="evenodd" clip-rule="evenodd" d="M62.7537 97.6706L76.3139 84.2402L78.425 86.3717L64.8648 99.8021L62.7537 97.6706Z" fill="#1B3139"/>
<path fill-rule="evenodd" clip-rule="evenodd" d="M35.9321 111.456L49.4923 104.446L50.8699 107.111L37.3098 114.121L35.9321 111.456Z" fill="#1B3139"/>
<path fill-rule="evenodd" clip-rule="evenodd" d="M53.0904 31.0787L46.7996 48.7928L43.9726 47.7888L50.2634 30.0747L53.0904 31.0787Z" fill="#1B3139"/>
<path fill-rule="evenodd" clip-rule="evenodd" d="M82.4003 120.596L62.3496 108.114L63.9351 105.567L83.9858 118.049L82.4003 120.596Z" fill="#1B3139"/>
<path fill-rule="evenodd" clip-rule="evenodd" d="M40.0245 64.2065L33.1944 80.7224L30.4221 79.5759L37.2522 63.0601L40.0245 64.2065Z" fill="#1B3139"/>
<path fill-rule="evenodd" clip-rule="evenodd" d="M81.8761 31.0381L90.5235 37.4487L88.7369 39.8587L80.0895 33.4481L81.8761 31.0381Z" fill="#1B3139"/>
<path fill-rule="evenodd" clip-rule="evenodd" d="M110.167 63.6633C109.064 58.5313 106.744 52.8782 101.924 48.7304L103.881 46.4565C109.376 51.1858 111.919 57.5402 113.1 63.0327C114.176 68.0386 114.145 72.4536 114.131 74.4421C114.129 74.6363 114.128 74.8073 114.128 74.9535V83.6265L112.728 83.7196C100.59 84.5263 91.002 94.6208 91.002 106.967C91.002 119.838 101.434 130.271 114.306 130.271C127.177 130.271 137.61 119.838 137.61 106.967C137.61 97.7003 132.199 89.6966 124.362 85.9422L123.51 85.5341V74.9535H126.51V83.664C134.887 88.0585 140.61 96.8417 140.61 106.967C140.61 121.495 128.834 133.271 114.306 133.271C99.7773 133.271 88.002 121.495 88.002 106.967C88.002 93.5094 98.0945 82.4221 111.128 80.8567V74.9535C111.128 74.8003 111.129 74.6248 111.131 74.4284C111.144 72.4435 111.17 68.3312 110.167 63.6633Z" fill="#1B3139"/>
</g>
<defs>
<clipPath id="clip0_1_1997">
<rect width="150" height="150" fill="white"/>
</clipPath>
</defs>
</svg>
