<svg width="150" height="150" viewBox="0 0 150 150" fill="none" xmlns="http://www.w3.org/2000/svg">
<g clip-path="url(#clip0_214_427)">
<path fill-rule="evenodd" clip-rule="evenodd" d="M114.036 93.7471C110.048 93.7471 106.998 96.8459 106.998 101.723C106.998 104.589 108.658 107.635 110.716 109.593L110.429 111.981L104.656 115.297C103.746 115.818 103.164 116.818 103.164 117.88V128.314H100.164V117.88C100.164 115.746 101.319 113.751 103.165 112.694C103.165 112.694 103.165 112.694 103.165 112.694L107.31 110.313C105.439 108 103.998 104.901 103.998 101.723C103.998 95.4768 108.118 90.7471 114.036 90.7471C119.947 90.7471 124.053 95.4805 124.053 101.723C124.053 104.901 122.612 108 120.747 110.312L124.884 112.692C126.758 113.752 127.898 115.752 127.898 117.88V128.614H124.898V117.88C124.898 116.814 124.323 115.82 123.404 115.302L123.393 115.295L117.631 111.98L117.343 109.596C119.393 107.637 121.053 104.59 121.053 101.723C121.053 96.8422 118.01 93.7471 114.036 93.7471Z" fill="#FF5F46"/>
<path fill-rule="evenodd" clip-rule="evenodd" d="M67.9629 19.4062C37.2772 19.4062 12.4062 44.2775 12.4062 74.9529C12.4062 105.628 37.2772 130.5 67.9629 130.5C74.5972 130.5 80.9548 129.342 86.8534 127.204L87.8757 130.025C81.652 132.28 74.9487 133.5 67.9629 133.5C35.6207 133.5 9.40625 107.285 9.40625 74.9529C9.40625 42.6203 35.6207 16.4062 67.9629 16.4062C100.295 16.4062 126.51 42.6205 126.51 74.9529H123.51C123.51 44.2774 98.6385 19.4062 67.9629 19.4062Z" fill="#FF5F46"/>
<path fill-rule="evenodd" clip-rule="evenodd" d="M42.6524 49.783C39.24 49.783 36.4736 52.5493 36.4736 55.9617C36.4736 59.3742 39.24 62.1405 42.6524 62.1405C46.0649 62.1405 48.8312 59.3742 48.8312 55.9617C48.8312 52.5493 46.0649 49.783 42.6524 49.783ZM33.4736 55.9617C33.4736 50.8924 37.5831 46.783 42.6524 46.783C47.7217 46.783 51.8312 50.8924 51.8312 55.9617C51.8312 61.031 47.7217 65.1405 42.6524 65.1405C37.5831 65.1405 33.4736 61.031 33.4736 55.9617Z" fill="#FF5F46"/>
<path fill-rule="evenodd" clip-rule="evenodd" d="M28.9218 81.0864C25.5094 81.0864 22.743 83.8528 22.743 87.2652C22.743 90.6777 25.5094 93.444 28.9218 93.444C32.3343 93.444 35.1006 90.6777 35.1006 87.2652C35.1006 83.8528 32.3343 81.0864 28.9218 81.0864ZM19.743 87.2652C19.743 82.1959 23.8525 78.0864 28.9218 78.0864C33.9911 78.0864 38.1006 82.1959 38.1006 87.2652C38.1006 92.3345 33.9911 96.444 28.9218 96.444C23.8525 96.444 19.743 92.3345 19.743 87.2652Z" fill="#FF5F46"/>
<path fill-rule="evenodd" clip-rule="evenodd" d="M96.0633 37.9532C92.6509 37.9532 89.8845 40.7195 89.8845 44.132C89.8845 47.5444 92.6509 50.3108 96.0633 50.3108C99.4758 50.3108 102.242 47.5444 102.242 44.132C102.242 40.7195 99.4758 37.9532 96.0633 37.9532ZM86.8845 44.132C86.8845 39.0627 90.994 34.9532 96.0633 34.9532C101.133 34.9532 105.242 39.0627 105.242 44.132C105.242 49.2013 101.133 53.3108 96.0633 53.3108C90.994 53.3108 86.8845 49.2013 86.8845 44.132Z" fill="#FF5F46"/>
<path fill-rule="evenodd" clip-rule="evenodd" d="M81.5623 72.7078C78.1499 72.7078 75.3835 75.4741 75.3835 78.8865C75.3835 82.299 78.1499 85.0653 81.5623 85.0653C84.9748 85.0653 87.7411 82.299 87.7411 78.8865C87.7411 75.4741 84.9748 72.7078 81.5623 72.7078ZM72.3835 78.8865C72.3835 73.8172 76.493 69.7078 81.5623 69.7078C86.6316 69.7078 90.7411 73.8172 90.7411 78.8865C90.7411 83.9559 86.6316 88.0653 81.5623 88.0653C76.493 88.0653 72.3835 83.9559 72.3835 78.8865Z" fill="#FF5F46"/>
<path fill-rule="evenodd" clip-rule="evenodd" d="M56.9995 96.0781C53.587 96.0781 50.8207 98.8445 50.8207 102.257C50.8207 105.669 53.587 108.436 56.9995 108.436C60.4119 108.436 63.1782 105.669 63.1782 102.257C63.1782 98.8445 60.4119 96.0781 56.9995 96.0781ZM47.8207 102.257C47.8207 97.1876 51.9302 93.0781 56.9995 93.0781C62.0688 93.0781 66.1782 97.1876 66.1782 102.257C66.1782 107.326 62.0688 111.436 56.9995 111.436C51.9302 111.436 47.8207 107.326 47.8207 102.257Z" fill="#FF5F46"/>
<path fill-rule="evenodd" clip-rule="evenodd" d="M45.9235 62.3881L56.2983 93.9121L53.4487 94.8499L43.0739 63.326L45.9235 62.3881Z" fill="#FF5F46"/>
<path fill-rule="evenodd" clip-rule="evenodd" d="M88.6975 46.6352L50.4234 56.4708L49.6768 53.5652L87.9508 43.7296L88.6975 46.6352Z" fill="#FF5F46"/>
<path fill-rule="evenodd" clip-rule="evenodd" d="M84.1249 71.748L92.3628 51.238L95.1467 52.3561L86.9087 72.8662L84.1249 71.748Z" fill="#FF5F46"/>
<path fill-rule="evenodd" clip-rule="evenodd" d="M48.8456 58.3802L75.3468 72.9289L73.9031 75.5587L47.4019 61.01L48.8456 58.3802Z" fill="#FF5F46"/>
<path fill-rule="evenodd" clip-rule="evenodd" d="M62.7537 97.6709L76.3139 84.2405L78.4249 86.372L64.8648 99.8024L62.7537 97.6709Z" fill="#FF5F46"/>
<path fill-rule="evenodd" clip-rule="evenodd" d="M35.9321 111.455L49.4923 104.446L50.8699 107.111L37.3098 114.12L35.9321 111.455Z" fill="#FF5F46"/>
<path fill-rule="evenodd" clip-rule="evenodd" d="M53.0904 31.0787L46.7996 48.7928L43.9725 47.7888L50.2633 30.0747L53.0904 31.0787Z" fill="#FF5F46"/>
<path fill-rule="evenodd" clip-rule="evenodd" d="M82.4003 120.595L62.3496 108.114L63.935 105.567L83.9858 118.048L82.4003 120.595Z" fill="#FF5F46"/>
<path fill-rule="evenodd" clip-rule="evenodd" d="M40.0244 64.2065L33.1944 80.7224L30.4221 79.5759L37.2521 63.0601L40.0244 64.2065Z" fill="#FF5F46"/>
<path fill-rule="evenodd" clip-rule="evenodd" d="M81.8761 31.038L90.5235 37.4486L88.7368 39.8586L80.0895 33.4479L81.8761 31.038Z" fill="#FF5F46"/>
<path fill-rule="evenodd" clip-rule="evenodd" d="M110.167 63.6635C109.064 58.5315 106.744 52.8785 101.924 48.7307L103.881 46.4568C109.376 51.186 111.919 57.5404 113.1 63.0329C114.176 68.0389 114.145 72.4539 114.131 74.4424C114.129 74.6365 114.128 74.8076 114.128 74.9538V83.6268L112.728 83.7198C100.59 84.5266 91.002 94.6211 91.002 106.967C91.002 119.839 101.434 130.271 114.306 130.271C127.177 130.271 137.61 119.839 137.61 106.967C137.61 97.7006 132.199 89.6968 124.362 85.9425L123.51 85.5344V74.9538H126.51V83.6642C134.887 88.0587 140.61 96.8419 140.61 106.967C140.61 121.495 128.834 133.271 114.306 133.271C99.7773 133.271 88.002 121.495 88.002 106.967C88.002 93.5096 98.0944 82.4223 111.128 80.857V74.9538C111.128 74.8006 111.129 74.625 111.131 74.4286C111.144 72.4437 111.17 68.3315 110.167 63.6635Z" fill="#FF5F46"/>
</g>
<defs>
<clipPath id="clip0_214_427">
<rect width="150" height="150" fill="white"/>
</clipPath>
</defs>
</svg>
