<svg width="150" height="150" viewBox="0 0 150 150" fill="none" xmlns="http://www.w3.org/2000/svg">
<path d="M107.7 68.23H81.7V71.23H107.7C110.5 71.2291 113.267 70.628 115.815 69.4673C118.363 68.3067 120.632 66.6133 122.47 64.5015C124.308 62.3896 125.672 59.9083 126.471 57.2247C127.269 54.5411 127.482 51.7176 127.097 48.9445C126.712 46.1713 125.737 43.513 124.237 41.1486C122.738 38.7842 120.749 36.7686 118.405 35.2378C116.061 33.7069 113.416 32.6963 110.648 32.2741C107.88 31.8518 105.054 32.0278 102.36 32.79C100.276 26.3969 96.0591 20.9137 90.4154 17.2581C84.7717 13.6026 78.0435 11.9965 71.3572 12.7087C64.6708 13.4209 58.432 16.4082 53.6849 21.1706C48.9379 25.9329 45.9707 32.1814 45.28 38.87C43.0178 38.2643 40.6524 38.1484 38.3418 38.5299C36.0312 38.9114 33.8286 39.7815 31.8811 41.0822C29.9337 42.3829 28.2862 44.0842 27.0487 46.0725C25.8112 48.0607 25.0123 50.2901 24.7052 52.6118C24.3982 54.9334 24.59 57.2939 25.2681 59.5355C25.9461 61.7771 27.0946 63.8482 28.637 65.6104C30.1793 67.3727 32.08 68.7856 34.2119 69.7547C36.3439 70.7237 38.6581 71.2267 41 71.23H73.17V81.23C73.17 83.2191 73.9602 85.1268 75.3667 86.5333C76.7732 87.9398 78.6809 88.73 80.67 88.73H106.87C108.063 88.73 109.208 89.2041 110.052 90.048C110.896 90.8919 111.37 92.0365 111.37 93.23V106.92H99.83V137.48H126.62V106.91H114.37V93.22C114.367 91.2317 113.576 89.3256 112.17 87.9196C110.764 86.5137 108.858 85.7226 106.87 85.72H80.67C79.4773 85.7174 78.3343 85.2424 77.4909 84.3991C76.6476 83.5557 76.1726 82.4127 76.17 81.22V68.22H41C39.0435 68.2202 37.1105 67.7939 35.3356 66.9708C33.5606 66.1476 31.9865 64.9474 30.7228 63.4538C29.4591 61.9601 28.5362 60.209 28.0184 58.3222C27.5006 56.4355 27.4004 54.4585 27.7247 52.5291C28.0489 50.5997 28.7899 48.7641 29.8961 47.1503C31.0022 45.5365 32.4468 44.1832 34.1294 43.1847C35.8119 42.1863 37.6919 41.5666 39.6384 41.3689C41.5849 41.1712 43.5511 41.4002 45.4 42.04L46.09 42.3L48.09 43.11V40.71C48.3668 34.5389 50.8037 28.6613 54.9748 24.1049C59.1458 19.5484 64.7857 16.6028 70.9084 15.7831C77.0311 14.9634 83.2471 16.3217 88.4698 19.6206C93.6926 22.9195 97.5897 27.949 99.48 33.83C96.0897 35.4132 93.2202 37.9288 91.2068 41.0826C89.1933 44.2365 88.1192 47.8983 88.11 51.64H91.11C91.11 48.3588 92.083 45.1513 93.9059 42.4231C95.7289 39.6949 98.3199 37.5685 101.351 36.3128C104.383 35.0572 107.718 34.7286 110.937 35.3688C114.155 36.0089 117.111 37.5889 119.431 39.9091C121.751 42.2292 123.331 45.1853 123.971 48.4034C124.611 51.6216 124.283 54.9573 123.027 57.9887C121.771 61.0201 119.645 63.6111 116.917 65.4341C114.189 67.257 110.981 68.23 107.7 68.23ZM123.62 134.47H102.83V109.91H123.62V134.47Z" fill="#FF5F46"/>
<path d="M35 93.22V100.91H22.71V137.47H49.51V100.91H38V93.22C38 92.0265 38.4741 90.8819 39.318 90.038C40.1619 89.1941 41.3065 88.72 42.5 88.72H68.7V85.72H42.47C40.4869 85.7306 38.5884 86.5251 37.189 87.9302C35.7895 89.3353 35.0026 91.2369 35 93.22ZM46.54 134.47H25.71V103.91H46.51L46.54 134.47Z" fill="#FF5F46"/>
<path d="M73.17 94.71V117.91H61.27V137.47H88.07V117.91H76.17V94.71H73.17ZM85.07 134.47H64.27V120.91H85.07V134.47Z" fill="#FF5F46"/>
</svg>
