<svg width="150" height="150" viewBox="0 0 150 150" fill="none" xmlns="http://www.w3.org/2000/svg">
<path d="M107.7 68.2301H81.7V71.2301H107.7C110.5 71.2292 113.267 70.6281 115.815 69.4674C118.363 68.3068 120.632 66.6134 122.47 64.5016C124.308 62.3897 125.672 59.9084 126.471 57.2248C127.269 54.5412 127.482 51.7177 127.097 48.9446C126.712 46.1714 125.737 43.5131 124.237 41.1487C122.738 38.7843 120.749 36.7687 118.405 35.2379C116.061 33.707 113.416 32.6964 110.648 32.2742C107.88 31.8519 105.054 32.0279 102.36 32.7901C100.276 26.397 96.0591 20.9138 90.4154 17.2582C84.7717 13.6027 78.0435 11.9966 71.3572 12.7088C64.6708 13.421 58.432 16.4083 53.6849 21.1707C48.9379 25.933 45.9707 32.1815 45.28 38.8701C43.0178 38.2644 40.6524 38.1485 38.3418 38.53C36.0312 38.9115 33.8286 39.7816 31.8811 41.0823C29.9337 42.383 28.2862 44.0843 27.0487 46.0726C25.8112 48.0608 25.0123 50.2902 24.7052 52.6119C24.3982 54.9335 24.59 57.294 25.2681 59.5356C25.9461 61.7772 27.0946 63.8483 28.637 65.6106C30.1793 67.3728 32.08 68.7857 34.2119 69.7548C36.3439 70.7238 38.6581 71.2268 41 71.2301H73.17V81.2301C73.17 83.2192 73.9602 85.1269 75.3667 86.5334C76.7732 87.9399 78.6809 88.7301 80.67 88.7301H106.87C108.063 88.7301 109.208 89.2042 110.052 90.0481C110.896 90.892 111.37 92.0366 111.37 93.2301V106.92H99.83V137.48H126.62V106.91H114.37V93.2201C114.367 91.2318 113.576 89.3257 112.17 87.9197C110.764 86.5138 108.858 85.7228 106.87 85.7201H80.67C79.4773 85.7175 78.3343 85.2425 77.4909 84.3992C76.6476 83.5558 76.1726 82.4128 76.17 81.2201V68.2201H41C39.0435 68.2203 37.1105 67.794 35.3356 66.9709C33.5606 66.1477 31.9865 64.9475 30.7228 63.4539C29.4591 61.9602 28.5362 60.2091 28.0184 58.3223C27.5006 56.4356 27.4004 54.4586 27.7247 52.5292C28.0489 50.5998 28.7899 48.7642 29.8961 47.1504C31.0022 45.5366 32.4468 44.1833 34.1294 43.1848C35.8119 42.1864 37.6919 41.5667 39.6384 41.369C41.5849 41.1713 43.5511 41.4003 45.4 42.0401L46.09 42.3001L48.09 43.1101V40.7101C48.3668 34.539 50.8037 28.6615 54.9748 24.105C59.1458 19.5485 64.7857 16.6029 70.9084 15.7832C77.0311 14.9635 83.2471 16.3219 88.4698 19.6207C93.6925 22.9196 97.5897 27.9491 99.48 33.8301C96.0897 35.4134 93.2202 37.9289 91.2068 41.0828C89.1933 44.2366 88.1192 47.8984 88.11 51.6401H91.11C91.11 48.3589 92.083 45.1514 93.9059 42.4232C95.7289 39.695 98.3199 37.5686 101.351 36.3129C104.383 35.0573 107.718 34.7287 110.937 35.3689C114.155 36.009 117.111 37.589 119.431 39.9092C121.751 42.2294 123.331 45.1854 123.971 48.4036C124.611 51.6217 124.283 54.9574 123.027 57.9888C121.772 61.0202 119.645 63.6113 116.917 65.4342C114.189 67.2571 110.981 68.2301 107.7 68.2301V68.2301ZM123.62 134.47H102.83V109.91H123.62V134.47Z" fill="#1B3139"/>
<path d="M35 93.22V100.91H22.71V137.47H49.51V100.91H38V93.22C38 92.0265 38.4741 90.8819 39.318 90.038C40.1619 89.1941 41.3065 88.72 42.5 88.72H68.7V85.72H42.47C40.4869 85.7305 38.5885 86.5251 37.189 87.9301C35.7895 89.3352 35.0026 91.2368 35 93.22V93.22ZM46.54 134.47H25.71V103.91H46.51L46.54 134.47Z" fill="#1B3139"/>
<path d="M73.17 94.71V117.91H61.27V137.47H88.07V117.91H76.17V94.71H73.17ZM85.07 134.47H64.27V120.91H85.07V134.47Z" fill="#1B3139"/>
</svg>
