<svg width="150" height="150" viewBox="0 0 150 150" fill="none" xmlns="http://www.w3.org/2000/svg">
<path d="M93.8 72.4L82.3 60.9L80.2 63L93.8 76.6V78.1C93.8 81.9 92.5 85.3 90.2 88L66.7 64.6L64.6 66.7L88.1 90.2C85.4 92.4 81.9 93.8 78.2 93.8H76.7L63 80.2L60.9 82.3L72.4 93.8H62V96.8H78.2C88.5 96.8 96.8 88.4 96.8 78.2V61.9H93.8V72.4V72.4Z" fill="white"/>
<path d="M53.2 118.8C53.2 122.5 51.9 125.9 49.6 128.7L21.2 100.3C23.9 98.0999 27.3 96.7999 30.8 96.6999L45.7 111.6L47.8 109.5L35.1 96.7999H47.5V93.7999H31.2C26.2 93.7999 21.5 95.6999 18 99.2999L16.9 100.4L11 106.3L13.1 108.4L19 102.5L47.4 130.9L41.5 136.8L43.6 138.9L49.5 133L50.6 131.9C54.1 128.4 56.1 123.7 56.1 118.7V95.2999H53.1V118.8H53.2Z" fill="white"/>
<path d="M139 43.7L136.9 41.6L131 47.5L102.6 19.1L108.5 13.2L106.4 11.1L100.5 17L99.3 18C95.8 21.5 93.8 26.2 93.8 31.2V47.5H96.8V35.1L108 46.3L110.1 44.2L96.8 30.9C96.9 27.3 98.1 24 100.4 21.3L128.8 49.7C126 52 122.5 53.3 118.9 53.3H71.9C61.6 53.3 53.3 61.7 53.3 71.9V95.4H56.3V71.8C56.3 63.2 63.3 56.2 71.9 56.2H118.9C123.9 56.2 128.6 54.3 132.1 50.7L133.2 49.6L139 43.7Z" fill="white"/>
</svg>
