<svg width="150" height="150" viewBox="0 0 150 150" fill="none" xmlns="http://www.w3.org/2000/svg">
<path d="M93.8 72.4001L82.3 60.9001L80.2 63.0001L93.8 76.6001V78.1001C93.8 81.9001 92.5 85.3001 90.2 88.0001L66.7 64.6001L64.6 66.7001L88.1 90.2001C85.4 92.4001 81.9 93.8001 78.2 93.8001H76.7L63 80.2001L60.9 82.3001L72.4 93.8001H62V96.8001H78.2C88.5 96.8001 96.8 88.4001 96.8 78.2001V61.9001H93.8V72.4001Z" fill="#FF5F46"/>
<path d="M53.2 118.8C53.2 122.5 51.9 125.9 49.6 128.7L21.2 100.3C23.9 98.1 27.3 96.8 30.8 96.7L45.7 111.6L47.8 109.5L35.1 96.8H47.5V93.8H31.2C26.2 93.8 21.5 95.7 18 99.3L16.9 100.4L11 106.3L13.1 108.4L19 102.5L47.4 130.9L41.5 136.8L43.6 138.9L49.5 133L50.6 131.9C54.1 128.4 56.1 123.7 56.1 118.7V95.3H53.1V118.8H53.2Z" fill="#FF5F46"/>
<path d="M139 43.7001L136.9 41.6001L131 47.5001L102.6 19.1001L108.5 13.2001L106.4 11.1001L100.5 17.0001L99.3001 18.0001C95.8001 21.5001 93.8001 26.2001 93.8001 31.2001V47.5001H96.8001V35.1001L108 46.3001L110.1 44.2001L96.8001 30.9001C96.9001 27.3001 98.1001 24.0001 100.4 21.3001L128.8 49.7001C126 52.0001 122.5 53.3001 118.9 53.3001H71.9001C61.6001 53.3001 53.3 61.7001 53.3 71.9001V95.4001H56.3V71.8001C56.3 63.2001 63.3001 56.2001 71.9001 56.2001H118.9C123.9 56.2001 128.6 54.3001 132.1 50.7001L133.2 49.6001L139 43.7001Z" fill="#FF5F46"/>
</svg>
