<svg width="150" height="150" viewBox="0 0 150 150" fill="none" xmlns="http://www.w3.org/2000/svg">
<path d="M128 73.5H108L112.9 68.6L110.8 66.5L102.3 75L110.8 83.5L112.9 81.4001L108 76.5H128C133.6 76.5 138.2 81.1 138.2 86.7V86.9001C138.2 92.5001 133.6 97.1001 128 97.1001H118.4C120 94.0001 121.3 90.7 122.2 87.2L119.3 86.4001C118.3 90.2001 116.9 93.8001 115 97.1001H96.2C97.8 90.5001 98.7 83 98.7 75C98.7 67.1 97.8 59.6001 96.1 52.9001H115C116.8 56.2001 118.3 59.8 119.3 63.6L122.2 62.9001C117.5 44.7001 102.5 30.7001 84 27.2001L82.2 26.9V32.4001L82.7 32.8C86.7 36.4 90 42.5 92.2 50H76.5V27.8V26.3H75C75 26.3 74.5 26.3 74.4 26.3C57.2 26.5 41.8 35.7001 33.2 49.9001H22C14.7 49.9001 8.8 55.8 8.8 63.1V63.3C8.8 70.6 14.7 76.5 22 76.5H42L37.1 81.4001L39.2 83.5L47.7 75L39.2 66.5L37.1 68.6L42 73.5H22C16.4 73.5 11.8 68.9 11.8 63.3V63.1C11.8 57.5 16.4 52.9001 22 52.9001H31.6C30 56.0001 28.7 59.3 27.8 62.8L30.7 63.5C31.7 59.7 33.1 56.1 35 52.8H53.9C52.2 59.5 51.3 67 51.3 75C51.3 82.9 52.2 90.4001 53.9 97.1001H35C33.2 93.8001 31.7 90.2001 30.7 86.4001L27.8 87.1C32.5 105.3 47.5 119.3 66 122.8L67.8 123.1V117.6L67.3 117.2C63.3 113.6 60 107.5 57.8 100H73.6V112.6H76.6V100H92.4C88.8 112.1 82.6 120.2 75.6 120.6C75.4 120.6 75.3 120.6 75.1 120.6C74.9 120.6 74.8 120.6 74.6 120.6L74.4 123.6C74.6 123.6 74.9 123.6 75.1 123.6C75.3 123.6 75.6 123.6 75.7 123.6C92.9 123.4 108.3 114.2 116.9 100H128C135.3 100 141.2 94.1001 141.2 86.8001V86.6C141.2 79.4 135.3 73.5 128 73.5ZM85.3 30.9V30.4C96.9 33.1 106.8 40.2001 113.2 49.9001H95.3C93 41.8001 89.5 35.1 85.3 30.9ZM93.1 52.9001C94.7 59.1001 95.6 66.1 95.7 73.5H76.5V52.9001H93.1ZM73.5 29.4V49.9001H57.7C61.2 38.4001 66.9 30.5 73.5 29.4ZM36.8 49.9001C43.4 39.9001 53.7 32.8 65.5 30.3C60.9 34.4 57.2 41.2001 54.7 49.9001H36.8ZM73.5 52.9001V73.5H54.3C54.4 66.1 55.3 59.1001 56.9 52.9001H73.5ZM64.7 119.1V119.6C53.1 116.9 43.2 109.8 36.8 100.1H54.7C57 108.2 60.5 114.9 64.7 119.1ZM56.9 97.1001C55.3 90.9001 54.4 83.9 54.3 76.5H73.5V97.1001H56.9ZM76.5 97.1001V76.5H95.7C95.6 83.9 94.7 90.9001 93.1 97.1001H76.5ZM84.5 119.7C89.1 115.6 92.8 108.8 95.3 100.1H113.2C106.7 110.1 96.3 117.2 84.5 119.7Z" fill="white"/>
</svg>
