<svg width="150" height="150" viewBox="0 0 150 150" fill="none" xmlns="http://www.w3.org/2000/svg">
<path d="M126.3 116.721L124.1 118.821L133.6 128.821H23.9004V131.821H135.6V135.421C135.6 137.621 133.8 139.421 131.6 139.421H18.4004C16.2004 139.421 14.4004 137.621 14.4004 135.421V130.921L29.5004 114.921H122.6V53.9207C122.6 50.2207 119.6 47.2207 115.9 47.2207H34.0004C30.3004 47.2207 27.3004 50.2207 27.3004 53.9207V106.521H30.3004V53.9207C30.3004 51.9207 31.9004 50.2207 34.0004 50.2207H116C118 50.2207 119.7 51.8207 119.7 53.9207V112.021H28.2004L11.4004 129.821V135.521C11.4004 139.421 14.5004 142.521 18.4004 142.521H131.6C135.5 142.521 138.6 139.421 138.6 135.521V129.821L126.3 116.721Z" fill="#1B3139"/>
<path d="M120.345 16.7603C120.308 14.4771 119.421 12.2897 117.857 10.6253C116.294 8.96087 114.166 7.93894 111.89 7.75902C109.613 7.5791 107.352 8.25411 105.546 9.65225C103.74 11.0504 102.521 13.0713 102.125 15.3203C99.3198 15.6533 96.734 17.0038 94.8577 19.116C92.9815 21.2281 91.9452 23.9552 91.9453 26.7803V39.5703H94.9453V26.7803C94.9459 24.7525 95.6689 22.7911 96.9847 21.2481C98.3005 19.7051 100.123 18.6813 102.125 18.3603C102.525 20.6215 103.757 22.6508 105.579 24.048C107.401 25.4453 109.681 26.1089 111.968 25.908C114.256 25.7072 116.385 24.6564 117.936 22.963C119.486 21.2696 120.346 19.0565 120.345 16.7603V16.7603ZM104.985 16.7603C104.985 15.5363 105.349 14.3399 106.03 13.3228C106.711 12.3056 107.678 11.5136 108.81 11.047C109.941 10.5805 111.186 10.4604 112.386 10.7022C113.586 10.9439 114.687 11.5365 115.549 12.4048C116.412 13.273 116.997 14.378 117.231 15.5794C117.465 16.7808 117.337 18.0246 116.863 19.1532C116.389 20.2817 115.591 21.2441 114.57 21.9183C113.548 22.5925 112.349 22.9483 111.125 22.9403C109.494 22.9272 107.934 22.2706 106.784 21.1133C105.634 19.956 104.988 18.3917 104.985 16.7603V16.7603Z" fill="#1B3139"/>
<path d="M29.885 16.7598C29.8845 19.0584 30.7455 21.2738 32.2981 22.9689C33.8506 24.664 35.9821 25.7157 38.272 25.9166C40.5618 26.1175 42.8439 25.4529 44.6678 24.054C46.4918 22.6551 47.7253 20.6234 48.125 18.3598C50.1283 18.6805 51.952 19.7039 53.2694 21.2467C54.5869 22.7895 55.312 24.751 55.315 26.7798V39.5698H58.315V26.7798C58.3102 23.9554 57.2707 21.2307 55.3931 19.1209C53.5154 17.011 50.9297 15.6623 48.125 15.3298C47.768 13.0438 46.5609 10.9769 44.7453 9.54272C42.9297 8.10856 40.6394 7.41287 38.3329 7.59487C36.0264 7.77686 33.8736 8.82312 32.3054 10.5243C30.7372 12.2254 29.8692 14.456 29.875 16.7698L29.885 16.7598ZM45.255 16.7598C45.255 17.984 44.892 19.1808 44.2118 20.1987C43.5317 21.2167 42.5649 22.0101 41.4338 22.4786C40.3028 22.9471 39.0582 23.0697 37.8574 22.8308C36.6567 22.592 35.5537 22.0024 34.688 21.1367C33.8223 20.2711 33.2328 19.1681 32.994 17.9674C32.7551 16.7666 32.8777 15.522 33.3462 14.3909C33.8147 13.2599 34.6081 12.2931 35.626 11.613C36.644 10.9328 37.8408 10.5698 39.065 10.5698C40.7067 10.5698 42.2812 11.2219 43.442 12.3828C44.6029 13.5436 45.255 15.1181 45.255 16.7598V16.7598Z" fill="#1B3139"/>
<path d="M75.1245 7.57034C72.8165 7.56514 70.5913 8.42951 68.8919 9.9913C67.1926 11.5531 66.1439 13.6977 65.9547 15.9979C65.7656 18.2982 66.4498 20.5853 67.8712 22.4037C69.2925 24.2221 71.3467 25.4384 73.6245 25.8103V25.8103V39.5703H76.6245V25.8103C78.9024 25.4384 80.9565 24.2221 82.3779 22.4037C83.7993 20.5853 84.4835 18.2982 84.2943 15.9979C84.1052 13.6977 83.0565 11.5531 81.3571 9.9913C79.6578 8.42951 77.4325 7.56514 75.1245 7.57034V7.57034ZM75.1245 22.9403C73.8998 22.9403 72.7027 22.577 71.6845 21.8964C70.6664 21.2158 69.873 20.2485 69.4048 19.1168C68.9366 17.9852 68.8146 16.7401 69.0542 15.539C69.2939 14.338 69.8844 13.2351 70.7511 12.3698C71.6178 11.5045 72.7217 10.9158 73.9231 10.6781C75.1245 10.4403 76.3694 10.5644 77.5003 11.0344C78.6312 11.5044 79.5972 12.2994 80.2762 13.3186C80.9552 14.3379 81.3165 15.5356 81.3145 16.7603C81.3145 17.5727 81.1544 18.3772 80.8432 19.1276C80.532 19.8781 80.0758 20.5598 79.5009 21.1338C78.926 21.7078 78.2435 22.1628 77.4926 22.4728C76.7416 22.7828 75.9369 22.9417 75.1245 22.9403V22.9403Z" fill="#1B3139"/>
<path d="M56.1201 106.426V99.5614C56.1201 97.1214 57.4501 94.8314 59.5501 93.6314L68.3601 88.5714C64.9001 85.2814 61.9701 80.0614 61.9701 74.9014C61.9701 66.4114 67.4401 60.4414 75.0001 60.4414" stroke="#1B3139" stroke-width="3" stroke-miterlimit="10"/>
<path d="M93.8799 106.426C93.8799 103.578 93.8799 102.409 93.8799 99.5614C93.8799 97.1214 92.5499 94.8314 90.4499 93.6314L81.6399 88.5714C85.0999 85.2814 88.0299 80.0614 88.0299 74.9014C88.0299 66.4114 82.5599 60.4414 74.9999 60.4414" stroke="#1B3139" stroke-width="3" stroke-miterlimit="10"/>
</svg>
