<svg width="1248" height="300" viewBox="0 0 1248 300" fill="none" xmlns="http://www.w3.org/2000/svg">
<path d="M187.244 187.766L112.234 187.766L112.234 113.549L187.244 38.5487L224.743 76.049L262.242 113.549L187.244 187.766Z" fill="#FF5F46"/>
<path d="M262.5 262.501L187.5 262.501L187.5 187.503L262.5 187.503L262.5 262.501Z" fill="#FABFBA"/>
<path d="M112.5 262.501L37.5 262.501L37.5 187.503L112.5 187.503L112.5 262.501Z" fill="#FABFBA"/>
<path d="M112.5 112.499L37.5 112.499L37.5 37.5001L112.5 37.5001L112.5 112.499Z" fill="#FABFBA"/>
<path d="M340.501 138V60.72H360.373C369.352 60.72 376.749 62.3024 382.563 65.4672C388.451 68.5584 392.794 73.0112 395.59 78.8256C398.461 84.5664 399.896 91.4848 399.896 99.5808C399.896 107.53 398.461 114.374 395.59 120.115C392.794 125.856 388.451 130.272 382.563 133.363C376.749 136.454 369.352 138 360.373 138H340.501ZM349.774 130.272H360.152C367.586 130.272 373.51 129.058 377.926 126.629C382.342 124.126 385.507 120.594 387.421 116.03C389.334 111.394 390.291 105.91 390.291 99.5808C390.291 93.104 389.334 87.5472 387.421 82.9104C385.507 78.2736 382.342 74.704 377.926 72.2016C373.51 69.6992 367.586 68.448 360.152 68.448H349.774V130.272ZM427.945 139.325C423.529 139.325 419.849 138.515 416.905 136.896C413.961 135.203 411.753 132.995 410.281 130.272C408.809 127.475 408.073 124.494 408.073 121.33C408.073 117.502 409.029 114.264 410.943 111.614C412.93 108.891 415.69 106.83 419.223 105.432C422.756 104.034 426.877 103.334 431.588 103.334H446.05C446.05 99.5808 445.609 96.4528 444.725 93.9504C443.842 91.448 442.407 89.5712 440.42 88.32C438.433 87.0688 435.783 86.4432 432.471 86.4432C429.159 86.4432 426.325 87.2896 423.97 88.9824C421.615 90.6016 420.143 93.0304 419.554 96.2688H410.06C410.501 92.4416 411.789 89.24 413.924 86.664C416.058 84.0144 418.745 82.0272 421.983 80.7024C425.295 79.304 428.791 78.6048 432.471 78.6048C437.697 78.6048 442.002 79.5616 445.388 81.4752C448.773 83.3152 451.276 85.928 452.895 89.3136C454.514 92.6256 455.324 96.5632 455.324 101.126V138H447.044L446.492 128.064C445.756 129.61 444.799 131.082 443.621 132.48C442.517 133.805 441.193 134.982 439.647 136.013C438.101 137.043 436.335 137.853 434.348 138.442C432.434 139.03 430.3 139.325 427.945 139.325ZM429.269 131.486C431.698 131.486 433.943 130.934 436.004 129.83C438.065 128.726 439.831 127.254 441.303 125.414C442.849 123.501 444.026 121.366 444.836 119.011C445.645 116.656 446.05 114.19 446.05 111.614V110.51H432.361C428.901 110.51 426.068 110.952 423.86 111.835C421.725 112.718 420.18 113.97 419.223 115.589C418.266 117.134 417.788 118.901 417.788 120.888C417.788 123.022 418.229 124.899 419.113 126.518C419.996 128.064 421.284 129.278 422.977 130.162C424.743 131.045 426.841 131.486 429.269 131.486ZM488.345 138C485.033 138 482.163 137.485 479.734 136.454C477.305 135.424 475.429 133.694 474.104 131.266C472.853 128.763 472.227 125.414 472.227 121.219V87.768H462.07V79.9296H472.227L473.441 65.4672H481.501V79.9296H497.95V87.768H481.501V121.219C481.501 124.678 482.2 127.034 483.598 128.285C484.997 129.462 487.462 130.051 490.995 130.051H497.729V138H488.345ZM525.467 139.325C521.051 139.325 517.371 138.515 514.427 136.896C511.483 135.203 509.275 132.995 507.803 130.272C506.331 127.475 505.595 124.494 505.595 121.33C505.595 117.502 506.552 114.264 508.466 111.614C510.453 108.891 513.213 106.83 516.746 105.432C520.279 104.034 524.4 103.334 529.111 103.334H543.573C543.573 99.5808 543.131 96.4528 542.248 93.9504C541.365 91.448 539.93 89.5712 537.943 88.32C535.955 87.0688 533.306 86.4432 529.994 86.4432C526.682 86.4432 523.848 87.2896 521.493 88.9824C519.138 90.6016 517.666 93.0304 517.077 96.2688H507.583C508.024 92.4416 509.312 89.24 511.447 86.664C513.581 84.0144 516.267 82.0272 519.506 80.7024C522.818 79.304 526.314 78.6048 529.994 78.6048C535.219 78.6048 539.525 79.5616 542.911 81.4752C546.296 83.3152 548.799 85.928 550.418 89.3136C552.037 92.6256 552.847 96.5632 552.847 101.126V138H544.567L544.015 128.064C543.279 129.61 542.322 131.082 541.144 132.48C540.04 133.805 538.715 134.982 537.17 136.013C535.624 137.043 533.858 137.853 531.871 138.442C529.957 139.03 527.823 139.325 525.467 139.325ZM526.792 131.486C529.221 131.486 531.466 130.934 533.527 129.83C535.587 128.726 537.354 127.254 538.826 125.414C540.371 123.501 541.549 121.366 542.359 119.011C543.168 116.656 543.573 114.19 543.573 111.614V110.51H529.883C526.424 110.51 523.591 110.952 521.383 111.835C519.248 112.718 517.703 113.97 516.746 115.589C515.789 117.134 515.311 118.901 515.311 120.888C515.311 123.022 515.752 124.899 516.635 126.518C517.519 128.064 518.807 129.278 520.499 130.162C522.266 131.045 524.363 131.486 526.792 131.486ZM593.781 139.325C590.248 139.325 587.194 138.81 584.618 137.779C582.115 136.675 579.981 135.314 578.214 133.694C576.522 132.075 575.123 130.493 574.019 128.947L573.246 138H564.856V58.512H574.13V89.0928C575.896 85.6336 578.509 83.0208 581.968 81.2544C585.427 79.488 589.291 78.6048 593.56 78.6048C598.859 78.6048 603.496 79.8928 607.47 82.4688C611.445 85.0448 614.536 88.6144 616.744 93.1776C618.952 97.6672 620.056 102.856 620.056 108.744C620.056 114.558 618.952 119.784 616.744 124.421C614.536 129.058 611.445 132.701 607.47 135.35C603.57 138 599.006 139.325 593.781 139.325ZM592.566 131.266C596.026 131.266 599.08 130.382 601.73 128.616C604.453 126.776 606.587 124.2 608.133 120.888C609.752 117.502 610.562 113.528 610.562 108.965C610.562 104.402 609.752 100.464 608.133 97.152C606.587 93.7664 604.453 91.1904 601.73 89.424C599.08 87.584 596.026 86.664 592.566 86.664C588.886 86.664 585.685 87.584 582.962 89.424C580.238 91.1904 578.141 93.7664 576.669 97.152C575.197 100.464 574.461 104.402 574.461 108.965C574.461 113.528 575.197 117.502 576.669 120.888C578.141 124.2 580.238 126.776 582.962 128.616C585.685 130.382 588.886 131.266 592.566 131.266ZM630.221 138V79.9296H638.611L639.273 90.528C640.598 87.8784 642.328 85.6704 644.462 83.904C646.597 82.1376 649.173 80.8128 652.19 79.9296C655.281 79.0464 658.741 78.6048 662.568 78.6048V88.32H656.827C654.619 88.32 652.485 88.6144 650.424 89.2032C648.363 89.792 646.486 90.7488 644.793 92.0736C643.174 93.3984 641.886 95.2016 640.929 97.4832C639.973 99.7648 639.494 102.635 639.494 106.094V138H630.221ZM670.809 138V79.9296H680.083V138H670.809ZM675.446 68.8896C673.606 68.8896 672.06 68.3008 670.809 67.1232C669.631 65.872 669.043 64.3264 669.043 62.4864C669.043 60.6464 669.631 59.1744 670.809 58.0704C672.06 56.8928 673.606 56.304 675.446 56.304C677.212 56.304 678.721 56.8928 679.972 58.0704C681.223 59.1744 681.849 60.6464 681.849 62.4864C681.849 64.3264 681.223 65.872 679.972 67.1232C678.721 68.3008 677.212 68.8896 675.446 68.8896ZM718.304 139.325C713.005 139.325 708.295 138.074 704.173 135.571C700.051 132.995 696.813 129.426 694.458 124.862C692.103 120.299 690.925 115 690.925 108.965C690.925 102.856 692.103 97.5568 694.458 93.0672C696.813 88.504 700.051 84.9712 704.173 82.4688C708.295 79.8928 713.005 78.6048 718.304 78.6048C724.928 78.6048 730.448 80.3712 734.864 83.904C739.354 87.4368 742.224 92.184 743.475 98.1456H733.981C733.171 94.4656 731.295 91.632 728.351 89.6448C725.48 87.584 722.095 86.5536 718.194 86.5536C714.808 86.5536 711.754 87.4 709.031 89.0928C706.381 90.7856 704.283 93.288 702.738 96.6C701.192 99.912 700.419 104.034 700.419 108.965C700.419 112.645 700.861 115.92 701.744 118.79C702.627 121.587 703.842 123.942 705.387 125.856C707.007 127.696 708.883 129.094 711.018 130.051C713.226 131.008 715.618 131.486 718.194 131.486C720.843 131.486 723.235 131.045 725.37 130.162C727.578 129.205 729.418 127.843 730.89 126.077C732.435 124.31 733.466 122.213 733.981 119.784H743.475C742.298 125.598 739.427 130.309 734.864 133.915C730.375 137.522 724.855 139.325 718.304 139.325ZM787.762 138L761.377 106.646L786.217 79.9296H797.588L769.215 109.958L769.325 103.334L799.575 138H787.762ZM753.649 138V58.512H762.922V138H753.649ZM823.817 139.325C818.592 139.325 814.249 138.552 810.79 137.006C807.405 135.387 804.829 133.179 803.062 130.382C801.296 127.512 800.229 124.2 799.861 120.446H809.355C809.649 122.434 810.312 124.274 811.342 125.966C812.446 127.586 814.029 128.91 816.089 129.941C818.15 130.971 820.763 131.486 823.928 131.486C826.43 131.486 828.565 131.118 830.331 130.382C832.097 129.573 833.422 128.469 834.305 127.07C835.262 125.672 835.741 124.053 835.741 122.213C835.741 119.784 835.189 117.907 834.085 116.582C833.054 115.184 831.509 114.154 829.448 113.491C827.461 112.755 824.958 112.203 821.941 111.835C818.702 111.394 815.832 110.768 813.329 109.958C810.827 109.149 808.693 108.082 806.926 106.757C805.233 105.432 803.945 103.776 803.062 101.789C802.179 99.8016 801.737 97.4464 801.737 94.7232C801.737 91.5584 802.584 88.7616 804.277 86.3328C805.969 83.904 808.361 82.0272 811.453 80.7024C814.617 79.304 818.334 78.6048 822.603 78.6048C828.859 78.6048 833.79 80.04 837.397 82.9104C841.077 85.7808 843.248 89.8656 843.91 95.1648H834.747C834.379 92.4416 833.128 90.3072 830.993 88.7616C828.859 87.216 826.025 86.4432 822.493 86.4432C818.739 86.4432 815.905 87.1424 813.992 88.5408C812.078 89.9392 811.121 91.7792 811.121 94.0608C811.121 95.7536 811.526 97.2992 812.336 98.6976C813.219 100.022 814.691 101.163 816.752 102.12C818.813 103.003 821.573 103.666 825.032 104.107C829.374 104.622 833.054 105.469 836.072 106.646C839.089 107.75 841.371 109.48 842.917 111.835C844.536 114.19 845.309 117.392 845.235 121.44C845.235 125.267 844.315 128.506 842.475 131.155C840.709 133.805 838.206 135.829 834.968 137.227C831.803 138.626 828.086 139.325 823.817 139.325ZM339.838 237V159.72H353.086V226.622H387.531V237H339.838ZM415.223 238.325C410.659 238.325 406.869 237.552 403.851 236.006C400.834 234.461 398.589 232.4 397.117 229.824C395.645 227.248 394.909 224.451 394.909 221.434C394.909 217.901 395.792 214.846 397.559 212.27C399.399 209.694 402.085 207.707 405.618 206.309C409.151 204.837 413.493 204.101 418.645 204.101H432.666C432.666 201.157 432.261 198.728 431.451 196.814C430.642 194.827 429.391 193.355 427.698 192.398C426.005 191.442 423.834 190.963 421.184 190.963C418.167 190.963 415.591 191.662 413.456 193.061C411.322 194.386 409.997 196.446 409.482 199.243H396.455C396.896 195.269 398.221 191.883 400.429 189.086C402.637 186.216 405.544 184.008 409.151 182.462C412.831 180.843 416.842 180.034 421.184 180.034C426.41 180.034 430.863 180.954 434.543 182.794C438.223 184.56 441.019 187.136 442.933 190.522C444.92 193.834 445.914 197.845 445.914 202.555V237H434.653L433.328 228.058C432.592 229.53 431.635 230.891 430.458 232.142C429.354 233.394 428.066 234.498 426.594 235.454C425.122 236.338 423.429 237.037 421.515 237.552C419.675 238.067 417.578 238.325 415.223 238.325ZM418.203 227.837C420.338 227.837 422.215 227.469 423.834 226.733C425.527 225.923 426.962 224.819 428.139 223.421C429.391 221.949 430.347 220.33 431.01 218.563C431.672 216.797 432.114 214.92 432.335 212.933V212.712H420.08C417.504 212.712 415.37 213.043 413.677 213.706C411.984 214.294 410.77 215.178 410.034 216.355C409.298 217.533 408.93 218.894 408.93 220.44C408.93 221.986 409.298 223.31 410.034 224.414C410.77 225.518 411.837 226.365 413.235 226.954C414.634 227.542 416.29 227.837 418.203 227.837ZM492.637 237L468.018 206.53L490.098 181.358H505.885L478.396 211.939V201.672L509.197 237H492.637ZM456.757 237V157.512H470.005V237H456.757ZM536.425 238.325C530.905 238.325 526.047 237.147 521.852 234.792C517.657 232.363 514.381 228.978 512.026 224.635C509.671 220.293 508.493 215.288 508.493 209.621C508.493 203.733 509.634 198.581 511.916 194.165C514.271 189.749 517.546 186.29 521.741 183.787C526.01 181.285 530.941 180.034 536.535 180.034C541.981 180.034 546.729 181.248 550.777 183.677C554.825 186.106 557.953 189.381 560.161 193.502C562.369 197.55 563.473 202.114 563.473 207.192C563.473 207.928 563.473 208.738 563.473 209.621C563.473 210.504 563.399 211.424 563.252 212.381H517.988V203.88H550.114C549.967 199.832 548.605 196.667 546.029 194.386C543.453 192.03 540.252 190.853 536.425 190.853C533.701 190.853 531.199 191.478 528.917 192.73C526.636 193.981 524.833 195.858 523.508 198.36C522.183 200.789 521.521 203.88 521.521 207.634V210.835C521.521 214.294 522.146 217.275 523.397 219.778C524.722 222.28 526.489 224.194 528.697 225.518C530.978 226.77 533.517 227.395 536.314 227.395C539.405 227.395 541.945 226.733 543.932 225.408C545.993 224.083 547.501 222.317 548.458 220.109H561.927C560.897 223.568 559.204 226.696 556.849 229.493C554.493 232.216 551.586 234.387 548.127 236.006C544.668 237.552 540.767 238.325 536.425 238.325ZM575.153 237V175.286C575.153 171.018 575.852 167.595 577.25 165.019C578.722 162.37 580.82 160.456 583.543 159.278C586.266 158.101 589.505 157.512 593.258 157.512H599.882V168.773H595.245C592.817 168.773 591.05 169.288 589.946 170.318C588.916 171.275 588.401 172.968 588.401 175.397V237H575.153ZM567.204 192.509V181.358H600.986V192.509H567.204ZM612.357 237V157.512H625.605V237H612.357ZM663.054 238.325C657.755 238.325 652.971 237.11 648.702 234.682C644.507 232.179 641.195 228.757 638.766 224.414C636.411 219.998 635.233 214.957 635.233 209.29C635.233 203.475 636.448 198.397 638.877 194.054C641.305 189.638 644.617 186.216 648.813 183.787C653.081 181.285 657.865 180.034 663.165 180.034C668.464 180.034 673.211 181.285 677.406 183.787C681.675 186.216 684.987 189.602 687.342 193.944C689.771 198.286 690.985 203.365 690.985 209.179C690.985 214.994 689.771 220.072 687.342 224.414C684.913 228.757 681.565 232.179 677.296 234.682C673.101 237.11 668.353 238.325 663.054 238.325ZM663.054 226.954C665.704 226.954 668.096 226.291 670.23 224.966C672.438 223.642 674.205 221.654 675.529 219.005C676.854 216.355 677.517 213.08 677.517 209.179C677.517 205.278 676.854 202.04 675.529 199.464C674.278 196.814 672.549 194.827 670.341 193.502C668.206 192.178 665.814 191.515 663.165 191.515C660.589 191.515 658.197 192.178 655.989 193.502C653.781 194.827 652.014 196.814 650.689 199.464C649.365 202.04 648.702 205.278 648.702 209.179C648.702 213.08 649.365 216.355 650.689 219.005C652.014 221.654 653.744 223.642 655.878 224.966C658.086 226.291 660.478 226.954 663.054 226.954ZM709.741 237L693.402 181.358H706.54L717.911 227.064L715.482 226.954L728.178 181.358H742.972L755.778 226.954H753.349L764.721 181.358H777.858L761.519 237H747.829L734.25 189.859H737.01L723.431 237H709.741ZM808.094 237V159.72H833.044C842.024 159.72 849.42 161.302 855.235 164.467C861.123 167.632 865.465 172.122 868.262 177.936C871.132 183.677 872.568 190.522 872.568 198.47C872.568 206.272 871.132 213.08 868.262 218.894C865.465 224.635 861.123 229.088 855.235 232.253C849.42 235.418 842.024 237 833.044 237H808.094ZM821.342 225.739H832.382C839.08 225.739 844.342 224.672 848.169 222.538C852.07 220.33 854.83 217.202 856.449 213.154C858.142 209.032 858.988 204.138 858.988 198.47C858.988 192.73 858.142 187.835 856.449 183.787C854.83 179.666 852.07 176.501 848.169 174.293C844.342 172.011 839.08 170.87 832.382 170.87H821.342V225.739ZM907.804 238.325C902.284 238.325 897.427 237.147 893.231 234.792C889.036 232.363 885.761 228.978 883.406 224.635C881.051 220.293 879.873 215.288 879.873 209.621C879.873 203.733 881.014 198.581 883.295 194.165C885.651 189.749 888.926 186.29 893.121 183.787C897.39 181.285 902.321 180.034 907.915 180.034C913.361 180.034 918.108 181.248 922.156 183.677C926.204 186.106 929.332 189.381 931.54 193.502C933.748 197.55 934.852 202.114 934.852 207.192C934.852 207.928 934.852 208.738 934.852 209.621C934.852 210.504 934.779 211.424 934.631 212.381H889.367V203.88H921.494C921.347 199.832 919.985 196.667 917.409 194.386C914.833 192.03 911.631 190.853 907.804 190.853C905.081 190.853 902.579 191.478 900.297 192.73C898.015 193.981 896.212 195.858 894.887 198.36C893.563 200.789 892.9 203.88 892.9 207.634V210.835C892.9 214.294 893.526 217.275 894.777 219.778C896.102 222.28 897.868 224.194 900.076 225.518C902.358 226.77 904.897 227.395 907.694 227.395C910.785 227.395 913.324 226.733 915.311 225.408C917.372 224.083 918.881 222.317 919.838 220.109H933.307C932.276 223.568 930.583 226.696 928.228 229.493C925.873 232.216 922.966 234.387 919.507 236.006C916.047 237.552 912.147 238.325 907.804 238.325ZM965.963 238.325C961.031 238.325 956.726 237.552 953.046 236.006C949.439 234.387 946.569 232.179 944.435 229.382C942.374 226.512 941.159 223.237 940.791 219.557H954.039C954.407 221.102 955.07 222.538 956.027 223.862C956.983 225.114 958.271 226.107 959.891 226.843C961.583 227.579 963.571 227.947 965.852 227.947C968.06 227.947 969.863 227.653 971.262 227.064C972.66 226.402 973.691 225.555 974.353 224.525C975.015 223.494 975.347 222.39 975.347 221.213C975.347 219.446 974.868 218.085 973.911 217.128C972.955 216.171 971.556 215.435 969.716 214.92C967.95 214.331 965.815 213.779 963.313 213.264C960.663 212.749 958.087 212.123 955.585 211.387C953.156 210.578 950.948 209.584 948.961 208.406C947.047 207.229 945.502 205.72 944.324 203.88C943.22 202.04 942.668 199.795 942.668 197.146C942.668 193.907 943.515 191 945.207 188.424C946.974 185.848 949.476 183.824 952.715 182.352C956.027 180.806 959.964 180.034 964.527 180.034C971.004 180.034 976.156 181.542 979.983 184.56C983.884 187.504 986.166 191.662 986.828 197.035H974.243C973.875 194.974 972.844 193.392 971.151 192.288C969.459 191.11 967.214 190.522 964.417 190.522C961.547 190.522 959.339 191.074 957.793 192.178C956.321 193.208 955.585 194.606 955.585 196.373C955.585 197.477 956.027 198.507 956.91 199.464C957.867 200.347 959.228 201.12 960.995 201.782C962.761 202.371 964.932 202.96 967.508 203.549C971.63 204.358 975.273 205.315 978.438 206.419C981.603 207.523 984.105 209.142 985.945 211.277C987.785 213.411 988.705 216.429 988.705 220.33C988.779 223.862 987.859 226.99 985.945 229.714C984.105 232.437 981.492 234.571 978.107 236.117C974.721 237.589 970.673 238.325 965.963 238.325ZM998.8 237V181.358H1012.05V237H998.8ZM1005.42 172.526C1002.99 172.526 1000.97 171.79 999.352 170.318C997.806 168.773 997.033 166.896 997.033 164.688C997.033 162.406 997.806 160.566 999.352 159.168C1000.97 157.696 1002.99 156.96 1005.42 156.96C1007.85 156.96 1009.84 157.696 1011.39 159.168C1013 160.566 1013.81 162.406 1013.81 164.688C1013.81 166.896 1013 168.773 1011.39 170.318C1009.84 171.79 1007.85 172.526 1005.42 172.526ZM1047.45 262.613C1042.22 262.613 1037.62 261.95 1033.65 260.626C1029.75 259.374 1026.69 257.424 1024.49 254.774C1022.35 252.198 1021.28 248.96 1021.28 245.059C1021.28 242.778 1021.84 240.533 1022.94 238.325C1024.12 236.19 1025.85 234.203 1028.13 232.363C1030.48 230.45 1033.47 228.794 1037.07 227.395L1042.92 233.798C1039.39 235.05 1036.92 236.558 1035.53 238.325C1034.13 240.091 1033.43 241.894 1033.43 243.734C1033.43 245.648 1034.02 247.23 1035.2 248.482C1036.45 249.806 1038.1 250.8 1040.16 251.462C1042.3 252.125 1044.69 252.456 1047.34 252.456C1049.92 252.456 1052.16 252.088 1054.07 251.352C1055.99 250.69 1057.46 249.733 1058.49 248.482C1059.59 247.23 1060.15 245.722 1060.15 243.955C1060.15 241.747 1059.37 239.944 1057.83 238.546C1056.28 237.221 1053.23 236.411 1048.66 236.117C1044.76 235.822 1041.34 235.418 1038.4 234.902C1035.45 234.314 1032.91 233.651 1030.78 232.915C1028.72 232.179 1026.95 231.37 1025.48 230.486C1024.01 229.53 1022.79 228.573 1021.84 227.616V225.077L1033.43 212.933L1043.25 216.134L1030.23 228.83L1033.65 222.427C1034.39 222.942 1035.12 223.421 1035.86 223.862C1036.67 224.304 1037.66 224.709 1038.84 225.077C1040.09 225.371 1041.71 225.666 1043.7 225.96C1045.68 226.254 1048.26 226.549 1051.42 226.843C1056.36 227.211 1060.37 228.094 1063.46 229.493C1066.55 230.891 1068.83 232.768 1070.3 235.123C1071.77 237.478 1072.51 240.312 1072.51 243.624C1072.51 246.862 1071.59 249.917 1069.75 252.787C1067.98 255.658 1065.26 258.013 1061.58 259.853C1057.9 261.693 1053.19 262.613 1047.45 262.613ZM1047.45 220.33C1042.81 220.33 1038.8 219.446 1035.42 217.68C1032.1 215.84 1029.56 213.411 1027.8 210.394C1026.03 207.302 1025.15 203.917 1025.15 200.237C1025.15 196.483 1026.03 193.098 1027.8 190.08C1029.56 187.062 1032.1 184.634 1035.42 182.794C1038.8 180.954 1042.81 180.034 1047.45 180.034C1052.09 180.034 1056.06 180.954 1059.37 182.794C1062.68 184.634 1065.22 187.062 1066.99 190.08C1068.76 193.098 1069.64 196.483 1069.64 200.237C1069.64 203.917 1068.76 207.302 1066.99 210.394C1065.22 213.411 1062.68 215.84 1059.37 217.68C1056.06 219.446 1052.09 220.33 1047.45 220.33ZM1047.45 210.062C1050.61 210.062 1053.15 209.216 1055.07 207.523C1056.98 205.83 1057.94 203.402 1057.94 200.237C1057.94 197.072 1056.98 194.68 1055.07 193.061C1053.15 191.368 1050.61 190.522 1047.45 190.522C1044.28 190.522 1041.71 191.368 1039.72 193.061C1037.73 194.68 1036.74 197.072 1036.74 200.237C1036.74 203.402 1037.73 205.83 1039.72 207.523C1041.71 209.216 1044.28 210.062 1047.45 210.062ZM1056.61 191.074L1054.07 181.358H1076.93V189.638L1056.61 191.074ZM1085.31 237V181.358H1097.02L1098.01 190.632C1099.7 187.394 1102.13 184.818 1105.3 182.904C1108.46 180.99 1112.21 180.034 1116.56 180.034C1121.05 180.034 1124.87 180.99 1128.04 182.904C1131.2 184.744 1133.63 187.467 1135.32 191.074C1137.09 194.68 1137.97 199.17 1137.97 204.542V237H1124.73V205.757C1124.73 201.12 1123.7 197.55 1121.63 195.048C1119.57 192.546 1116.52 191.294 1112.47 191.294C1109.82 191.294 1107.43 191.92 1105.3 193.171C1103.23 194.422 1101.58 196.262 1100.33 198.691C1099.15 201.046 1098.56 203.917 1098.56 207.302V237H1085.31ZM1174.68 238.325C1169.16 238.325 1164.31 237.147 1160.11 234.792C1155.92 232.363 1152.64 228.978 1150.28 224.635C1147.93 220.293 1146.75 215.288 1146.75 209.621C1146.75 203.733 1147.89 198.581 1150.17 194.165C1152.53 189.749 1155.8 186.29 1160 183.787C1164.27 181.285 1169.2 180.034 1174.79 180.034C1180.24 180.034 1184.99 181.248 1189.04 183.677C1193.08 186.106 1196.21 189.381 1198.42 193.502C1200.63 197.55 1201.73 202.114 1201.73 207.192C1201.73 207.928 1201.73 208.738 1201.73 209.621C1201.73 210.504 1201.66 211.424 1201.51 212.381H1156.25V203.88H1188.37C1188.23 199.832 1186.86 196.667 1184.29 194.386C1181.71 192.03 1178.51 190.853 1174.68 190.853C1171.96 190.853 1169.46 191.478 1167.18 192.73C1164.89 193.981 1163.09 195.858 1161.77 198.36C1160.44 200.789 1159.78 203.88 1159.78 207.634V210.835C1159.78 214.294 1160.4 217.275 1161.66 219.778C1162.98 222.28 1164.75 224.194 1166.96 225.518C1169.24 226.77 1171.78 227.395 1174.57 227.395C1177.66 227.395 1180.2 226.733 1182.19 225.408C1184.25 224.083 1185.76 222.317 1186.72 220.109H1200.19C1199.16 223.568 1197.46 226.696 1195.11 229.493C1192.75 232.216 1189.84 234.387 1186.39 236.006C1182.93 237.552 1179.03 238.325 1174.68 238.325ZM1210.65 237V181.358H1222.46L1223.68 191.736C1225 189.307 1226.66 187.246 1228.65 185.554C1230.63 183.787 1232.95 182.426 1235.6 181.469C1238.32 180.512 1241.31 180.034 1244.54 180.034V194.054H1239.91C1237.7 194.054 1235.6 194.349 1233.61 194.938C1231.63 195.453 1229.9 196.336 1228.43 197.587C1227.03 198.765 1225.92 200.421 1225.11 202.555C1224.3 204.616 1223.9 207.229 1223.9 210.394V237H1210.65Z" fill="#1B3139"/>
</svg>
