<svg width="150" height="150" viewBox="0 0 150 150" fill="none" xmlns="http://www.w3.org/2000/svg">
<path d="M125.56 48.1001C125.56 40.7501 119.56 34.5401 112.36 34.5401H91.9399V18.5901H88.9399V53.5001H91.9399V37.5001H112.36C115.1 37.586 117.699 38.7373 119.604 40.7093C121.509 42.6813 122.569 45.3184 122.56 48.0601V57.0601C122.555 59.7628 121.478 62.3531 119.566 64.2632C117.654 66.1733 115.063 67.2474 112.36 67.2501H37.6399C34.1416 67.2527 30.7872 68.6429 28.3126 71.1157C25.838 73.5884 24.4452 76.9418 24.4399 80.4401V95.4401C24.4399 102.79 30.4399 109 37.6399 109H50.6399L45.7399 113.91L47.8599 116L56.3899 107.47L47.8599 99.0001L45.7399 101.12L50.6399 106.03H37.6399C34.8996 105.944 32.3008 104.793 30.3961 102.821C28.4913 100.849 27.4308 98.2118 27.4399 95.4701V80.4701C27.4452 77.7674 28.5219 75.1771 30.4339 73.267C32.3459 71.3568 34.9373 70.2827 37.6399 70.2801H112.36C115.858 70.2774 119.213 68.8873 121.687 66.4145C124.162 63.9418 125.555 60.5884 125.56 57.0901V48.1001Z" fill="#FF5F46"/>
<path d="M24.45 25.5701C24.448 27.2481 24.9439 28.889 25.8749 30.2851C26.806 31.6812 28.1303 32.7696 29.6802 33.4127C31.2301 34.0558 32.936 34.2245 34.5819 33.8976C36.2278 33.5708 37.7397 32.7629 38.9262 31.5764C40.1128 30.3898 40.9206 28.8779 41.2475 27.232C41.5744 25.5861 41.4056 23.8803 40.7625 22.3303C40.1195 20.7804 39.031 19.4561 37.635 18.5251C36.2389 17.594 34.598 17.0981 32.92 17.1001C30.6744 17.1028 28.5215 17.996 26.9337 19.5838C25.3458 21.1717 24.4526 23.3245 24.45 25.5701ZM32.92 20.1001C34.0046 20.0981 35.0655 20.4181 35.9682 21.0195C36.8709 21.6209 37.5749 22.4766 37.9909 23.4784C38.4069 24.4801 38.5163 25.5828 38.3051 26.6467C38.094 27.7107 37.5719 28.688 36.8049 29.455C36.0379 30.222 35.0605 30.7442 33.9966 30.9553C32.9326 31.1664 31.83 31.057 30.8282 30.641C29.8265 30.225 28.9707 29.5211 28.3693 28.6184C27.7679 27.7157 27.448 26.6548 27.45 25.5701C27.4526 24.1202 28.0298 22.7304 29.055 21.7051C30.0803 20.6799 31.47 20.1027 32.92 20.1001Z" fill="#FF5F46"/>
<path d="M59.31 18.21L54.07 23.45L48.84 18.21L46.72 20.34L51.95 25.57L46.72 30.8L48.84 32.93L54.07 27.69L59.31 32.93L61.43 30.8L56.19 25.57L61.43 20.34L59.31 18.21Z" fill="#FF5F46"/>
<path d="M82.79 18.1499H68V32.9999H82.79V18.1499ZM79.79 29.9999H71V21.1499H79.84L79.79 29.9999Z" fill="#FF5F46"/>
<path d="M54.07 38.05C52.3928 38.05 50.7533 38.5474 49.3587 39.4792C47.9642 40.411 46.8773 41.7354 46.2355 43.2849C45.5936 44.8344 45.4257 46.5395 45.7529 48.1844C46.0801 49.8294 46.8878 51.3404 48.0737 52.5263C49.2597 53.7123 50.7706 54.5199 52.4156 54.8471C54.0606 55.1743 55.7656 55.0064 57.3151 54.3645C58.8646 53.7227 60.189 52.6358 61.1208 51.2413C62.0526 49.8468 62.55 48.2072 62.55 46.53C62.5473 44.2818 61.653 42.1264 60.0633 40.5367C58.4736 38.947 56.3182 38.0527 54.07 38.05ZM54.07 52.05C52.9861 52.05 51.9266 51.7287 51.0254 51.1265C50.1243 50.5244 49.4219 49.6685 49.0071 48.6672C48.5923 47.6658 48.4838 46.564 48.6953 45.501C48.9067 44.4379 49.4286 43.4615 50.195 42.6951C50.9614 41.9287 51.9379 41.4068 53.0009 41.1953C54.0639 40.9839 55.1657 41.0924 56.1671 41.5072C57.1684 41.922 58.0243 42.6243 58.6264 43.5255C59.2286 44.4267 59.55 45.4862 59.55 46.57C59.5368 48.0148 58.9536 49.3958 57.9273 50.4127C56.9011 51.4296 55.5147 52.0001 54.07 52V52.05Z" fill="#FF5F46"/>
<path d="M80.6 39.1699L75.37 44.4099L70.14 39.1699L68.01 41.2899L73.25 46.5299L68.01 51.7599L70.14 53.8799L75.37 48.6499L80.6 53.8799L82.72 51.7599L77.49 46.5299L82.72 41.2899L80.6 39.1699Z" fill="#FF5F46"/>
<path d="M25.5 54.0001H40.34V39.1101H25.5V54.0001ZM28.5 42.1601H37.34V51.0001H28.5V42.1601Z" fill="#FF5F46"/>
<path d="M125.56 87.0001C125.56 85.6926 125.041 84.4386 124.116 83.514C123.192 82.5895 121.938 82.0701 120.63 82.0701H73.19C71.8843 82.0727 70.6329 82.5933 69.7105 83.5176C68.7881 84.4418 68.27 85.6943 68.27 87.0001V96.1001C68.2666 97.3832 68.7697 98.6158 69.67 99.5301C68.7716 100.446 68.2688 101.677 68.27 102.96V112C68.2688 113.283 68.7716 114.515 69.67 115.43C68.7722 116.342 68.2693 117.57 68.27 118.85V128C68.2727 129.304 68.7919 130.554 69.714 131.476C70.6361 132.398 71.886 132.917 73.19 132.92V129.92C72.6808 129.92 72.1925 129.718 71.8324 129.358C71.4723 128.998 71.27 128.509 71.27 128V118.91C71.2727 118.403 71.4761 117.917 71.8359 117.559C72.1957 117.201 72.6826 117 73.19 117V114C72.9314 113.999 72.6757 113.946 72.438 113.844C72.2003 113.742 71.9856 113.593 71.8065 113.407C71.6274 113.22 71.4876 112.999 71.3955 112.758C71.3033 112.516 71.2607 112.259 71.27 112V103C71.2607 102.742 71.3033 102.484 71.3955 102.242C71.4876 102.001 71.6274 101.78 71.8065 101.593C71.9856 101.407 72.2003 101.258 72.438 101.156C72.6757 101.054 72.9314 101.001 73.19 101V98.0001C72.9371 98.0001 72.6866 97.9501 72.453 97.853C72.2194 97.7559 72.0073 97.6135 71.8288 97.4342C71.6504 97.2548 71.5092 97.042 71.4133 96.8079C71.3174 96.5738 71.2687 96.323 71.27 96.0701V87.0001C71.27 86.4899 71.472 86.0005 71.8318 85.6389C72.1916 85.2772 72.6799 85.0727 73.19 85.0701H120.63C121.141 85.0727 121.63 85.2769 121.992 85.6383C122.353 85.9996 122.557 86.489 122.56 87.0001V96.1001C122.552 96.6067 122.345 97.09 121.984 97.4454C121.623 97.8009 121.137 98.0001 120.63 98.0001H79V101H120.6C121.111 101.003 121.6 101.207 121.962 101.568C122.323 101.93 122.527 102.419 122.53 102.93V112C122.527 112.511 122.323 113.001 121.962 113.362C121.6 113.723 121.111 113.927 120.6 113.93H79V116.93H120.6C121.11 116.93 121.6 117.132 121.961 117.492C122.323 117.852 122.527 118.34 122.53 118.85V128C122.527 128.51 122.323 128.999 121.961 129.358C121.6 129.718 121.11 129.92 120.6 129.92H78V132.92H120.6C121.906 132.92 123.158 132.402 124.083 131.48C125.007 130.557 125.527 129.306 125.53 128V118.91C125.527 117.631 125.024 116.404 124.13 115.49C125.025 114.572 125.527 113.342 125.53 112.06V103C125.527 101.718 125.025 100.488 124.13 99.5701C125.027 98.6534 125.529 97.4223 125.53 96.1401L125.56 87.0001Z" fill="#FF5F46"/>
</svg>
