<svg width="150" height="150" viewBox="0 0 150 150" fill="none" xmlns="http://www.w3.org/2000/svg">
<path d="M125.56 48.1C125.56 40.75 119.56 34.54 112.36 34.54H91.94V18.59H88.94V53.5H91.94V37.5H112.36C115.1 37.5859 117.699 38.7372 119.604 40.7092C121.509 42.6812 122.569 45.3183 122.56 48.06V57.06C122.555 59.7626 121.478 62.3529 119.566 64.2631C117.654 66.1732 115.063 67.2473 112.36 67.25H37.64C34.1417 67.2526 30.7873 68.6428 28.3126 71.1155C25.838 73.5883 24.4453 76.9417 24.44 80.44V95.44C24.44 102.79 30.44 109 37.64 109H50.64L45.74 113.91L47.86 116L56.39 107.47L47.86 99L45.74 101.12L50.64 106.03H37.64C34.8997 105.944 32.3009 104.793 30.3961 102.821C28.4914 100.849 27.4308 98.2116 27.44 95.47V80.47C27.4453 77.7673 28.522 75.177 30.434 73.2669C32.346 71.3567 34.9373 70.2826 37.64 70.28H112.36C115.858 70.2773 119.213 68.8871 121.687 66.4144C124.162 63.9416 125.555 60.5883 125.56 57.09V48.1Z" fill="#1B3139"/>
<path d="M24.45 25.57C24.448 27.248 24.9439 28.8889 25.875 30.285C26.806 31.681 28.1303 32.7695 29.6802 33.4126C31.2301 34.0556 32.936 34.2244 34.5819 33.8975C36.2278 33.5706 37.7397 32.7628 38.9263 31.5762C40.1128 30.3897 40.9207 28.8778 41.2475 27.2319C41.5744 25.586 41.4056 23.8801 40.7626 22.3302C40.1195 20.7803 39.0311 19.456 37.635 18.525C36.2389 17.5939 34.598 17.098 32.92 17.1C30.6744 17.1026 28.5216 17.9959 26.9337 19.5837C25.3459 21.1716 24.4526 23.3244 24.45 25.57V25.57ZM32.92 20.1C34.0047 20.098 35.0656 20.418 35.9683 21.0194C36.871 21.6207 37.5749 22.4765 37.9909 23.4783C38.4069 24.48 38.5163 25.5827 38.3052 26.6466C38.0941 27.7106 37.5719 28.6879 36.8049 29.4549C36.0379 30.2219 35.0606 30.744 33.9966 30.9552C32.9327 31.1663 31.83 31.0569 30.8283 30.6409C29.8265 30.2249 28.9708 29.521 28.3694 28.6183C27.768 27.7156 27.448 26.6547 27.45 25.57C27.4526 24.1201 28.0298 22.7303 29.055 21.705C30.0803 20.6798 31.4701 20.1026 32.92 20.1V20.1Z" fill="#1B3139"/>
<path d="M59.31 18.21L54.07 23.45L48.84 18.21L46.72 20.34L51.95 25.57L46.72 30.8L48.84 32.93L54.07 27.69L59.31 32.93L61.43 30.8L56.19 25.57L61.43 20.34L59.31 18.21Z" fill="#1B3139"/>
<path d="M82.79 18.15H68V33H82.79V18.15ZM79.79 30H71V21.15H79.84L79.79 30Z" fill="#1B3139"/>
<path d="M54.07 38.05C52.3928 38.05 50.7533 38.5474 49.3588 39.4792C47.9642 40.411 46.8773 41.7354 46.2355 43.2849C45.5937 44.8344 45.4257 46.5395 45.7529 48.1844C46.0801 49.8294 46.8878 51.3404 48.0737 52.5263C49.2597 53.7123 50.7707 54.5199 52.4156 54.8471C54.0606 55.1743 55.7656 55.0064 57.3152 54.3645C58.8647 53.7227 60.1891 52.6358 61.1209 51.2413C62.0527 49.8468 62.55 48.2072 62.55 46.53C62.5474 44.2818 61.6531 42.1264 60.0633 40.5367C58.4736 38.947 56.3182 38.0527 54.07 38.05V38.05ZM54.07 52.05C52.9862 52.05 51.9267 51.7287 51.0255 51.1265C50.1243 50.5244 49.4219 49.6685 49.0071 48.6672C48.5924 47.6658 48.4839 46.564 48.6953 45.501C48.9067 44.4379 49.4287 43.4615 50.1951 42.6951C50.9614 41.9287 51.9379 41.4068 53.0009 41.1953C54.0639 40.9839 55.1658 41.0924 56.1671 41.5072C57.1684 41.922 58.0243 42.6243 58.6265 43.5255C59.2286 44.4267 59.55 45.4862 59.55 46.57C59.5368 48.0148 58.9536 49.3958 57.9274 50.4127C56.9011 51.4296 55.5148 52.0001 54.07 52V52.05Z" fill="#1B3139"/>
<path d="M80.6 39.17L75.37 44.41L70.14 39.17L68.01 41.29L73.25 46.53L68.01 51.76L70.14 53.88L75.37 48.65L80.6 53.88L82.72 51.76L77.49 46.53L82.72 41.29L80.6 39.17Z" fill="#1B3139"/>
<path d="M25.5 54H40.34V39.11H25.5V54ZM28.5 42.16H37.34V51H28.5V42.16Z" fill="#1B3139"/>
<path d="M125.56 86.9999C125.56 85.6924 125.041 84.4385 124.116 83.5139C123.191 82.5894 121.938 82.0699 120.63 82.0699H73.19C71.8842 82.0726 70.6328 82.5932 69.7104 83.5174C68.788 84.4417 68.27 85.6942 68.27 86.9999V96.0999C68.2666 97.3831 68.7697 98.6157 69.67 99.5299C68.7715 100.445 68.2687 101.677 68.27 102.96V112C68.2687 113.283 68.7715 114.514 69.67 115.43C68.7721 116.342 68.2692 117.57 68.27 118.85V128C68.2726 129.304 68.7918 130.554 69.714 131.476C70.6361 132.398 71.886 132.917 73.19 132.92V129.92C72.6808 129.92 72.1924 129.718 71.8324 129.358C71.4723 128.998 71.27 128.509 71.27 128V118.91C71.2726 118.402 71.4761 117.917 71.8359 117.559C72.1957 117.201 72.6825 117 73.19 117V114C72.9314 113.999 72.6757 113.946 72.438 113.844C72.2003 113.742 71.9855 113.593 71.8065 113.407C71.6274 113.22 71.4876 112.999 71.3954 112.758C71.3033 112.516 71.2606 112.258 71.27 112V103C71.2606 102.742 71.3033 102.484 71.3954 102.242C71.4876 102.001 71.6274 101.78 71.8065 101.593C71.9855 101.407 72.2003 101.258 72.438 101.156C72.6757 101.054 72.9314 101.001 73.19 101V97.9999C72.937 98 72.6865 97.95 72.4529 97.8528C72.2193 97.7557 72.0072 97.6134 71.8288 97.4341C71.6504 97.2547 71.5092 97.0419 71.4133 96.8078C71.3174 96.5737 71.2687 96.3229 71.27 96.0699V86.9999C71.27 86.4898 71.472 86.0004 71.8317 85.6388C72.1915 85.2771 72.6799 85.0726 73.19 85.0699H120.63C121.141 85.0726 121.63 85.2768 121.992 85.6381C122.353 85.9995 122.557 86.4889 122.56 86.9999V96.0999C122.552 96.6066 122.345 97.0898 121.984 97.4453C121.623 97.8008 121.137 98 120.63 97.9999H79V101H120.6C121.111 101.003 121.6 101.207 121.962 101.568C122.323 101.93 122.527 102.419 122.53 102.93V112C122.527 112.511 122.323 113 121.962 113.362C121.6 113.723 121.111 113.927 120.6 113.93H79V116.93H120.6C121.11 116.93 121.6 117.132 121.961 117.492C122.323 117.851 122.527 118.34 122.53 118.85V128C122.527 128.51 122.323 128.998 121.961 129.358C121.6 129.718 121.11 129.92 120.6 129.92H78V132.92H120.6C121.906 132.92 123.158 132.402 124.083 131.48C125.007 130.557 125.527 129.306 125.53 128V118.91C125.527 117.631 125.024 116.404 124.13 115.49C125.025 114.572 125.527 113.342 125.53 112.06V103C125.527 101.718 125.025 100.488 124.13 99.5699C125.027 98.6533 125.529 97.4222 125.53 96.1399L125.56 86.9999Z" fill="#1B3139"/>
</svg>
