<svg width="150" height="150" viewBox="0 0 150 150" fill="none" xmlns="http://www.w3.org/2000/svg">
<path d="M55.0899 34.0599C59.496 30.47 64.7907 28.1382 70.4136 27.3113C76.0365 26.4844 81.7784 27.1932 87.0314 29.3627C92.2844 31.5321 96.8532 35.0815 100.254 39.6351C103.655 44.1888 105.761 49.5772 106.35 55.2299L109.35 54.9199C108.707 48.7258 106.4 42.821 102.674 37.8312C98.9478 32.8414 93.9413 28.9525 88.1849 26.5765C82.4285 24.2006 76.1366 23.4261 69.9758 24.3351C63.815 25.2441 58.0149 27.8027 53.1899 31.7399L55.0899 34.0599Z" fill="#FF5F46"/>
<path d="M50.53 38.64L48.2 36.75C43.2197 42.8973 40.5015 50.5684 40.5 58.48V64.26H33V67.26H117V64.26H98.47V58.16C98.439 52.6373 96.4473 47.3052 92.8501 43.1146C89.253 38.924 84.2842 36.1474 78.83 35.28L78.38 38.28C83.1207 39.0349 87.4398 41.4471 90.5691 45.0873C93.6985 48.7275 95.4351 53.3597 95.47 58.16V64.26H87.47V58.17C87.473 56.3375 87.0484 54.5296 86.23 52.89L83.5 54.25C84.1079 55.4671 84.423 56.8095 84.42 58.17V64.26H76.51V57.5H73.51V64.26H54.51V58.17C54.5201 53.3232 56.2734 48.6418 59.4497 44.9809C62.6259 41.3199 67.0131 38.9237 71.81 38.23L71.4 35.23C65.886 36.0301 60.8444 38.7887 57.1975 43.0011C53.5506 47.2136 51.5423 52.5982 51.54 58.17V64.26H43.54V58.48C43.5294 51.2613 45.9969 44.2578 50.53 38.64Z" fill="#FF5F46"/>
<path d="M43.5 69.98H40.5V87.64H43.5V69.98Z" fill="#FF5F46"/>
<path d="M75 126C82.9452 125.993 90.6462 123.253 96.81 118.24L94.91 115.92C90.5053 119.509 85.2122 121.841 79.5909 122.669C73.9695 123.497 68.2288 122.79 62.9763 120.623C57.7239 118.456 53.1549 114.909 49.7528 110.358C46.3507 105.807 44.2421 100.421 43.65 94.77L40.65 95.08C41.5164 103.578 45.5126 111.45 51.8615 117.165C58.2103 122.88 66.4579 126.029 75 126Z" fill="#FF5F46"/>
<path d="M99.47 111.36L101.8 113.25C106.779 107.098 109.497 99.4243 109.5 91.51V70H106.5V91.51C106.497 98.7362 104.016 105.743 99.47 111.36Z" fill="#FF5F46"/>
<path d="M51.54 70V91.84C51.5655 97.391 53.5738 102.75 57.2025 106.951C60.8313 111.152 65.8417 113.918 71.33 114.75L71.76 111.75C66.9872 111.03 62.6288 108.628 59.4712 104.977C56.3136 101.326 54.5647 96.6668 54.54 91.84V70H51.54Z" fill="#FF5F46"/>
<path d="M98.47 70H95.47V91.84C95.439 96.6651 93.6911 101.322 90.5395 104.975C87.3878 108.629 83.0383 111.041 78.27 111.78L78.72 114.78C84.2019 113.929 89.201 111.152 92.8205 106.948C96.44 102.744 98.443 97.3875 98.47 91.84V70Z" fill="#FF5F46"/>
<path d="M62.58 70V91.84C62.5742 93.6673 62.9918 95.4711 63.8 97.11L66.48 95.76C65.8807 94.5406 65.5727 93.1987 65.58 91.84V70H62.58Z" fill="#FF5F46"/>
<path d="M69.4 102.73C71.0448 103.53 72.8508 103.944 74.68 103.94H75.32C78.4024 103.938 81.3681 102.761 83.6126 100.648C85.8572 98.5356 87.2117 95.6465 87.4 92.5699L84.4 92.3899C84.2623 94.7042 83.2455 96.8784 81.5576 98.4677C79.8698 100.057 77.6384 100.941 75.32 100.94H74.68C73.2947 100.956 71.9248 100.648 70.68 100.04L69.4 102.73Z" fill="#FF5F46"/>
<path d="M76.51 69.99H73.51V91.52H76.51V69.99Z" fill="#FF5F46"/>
<path d="M126.3 16.8999H109.14V19.8999H123.3V130.11H109.14V133.11H126.3V16.8999Z" fill="#FF5F46"/>
<path d="M23.7 133.1H40.86V130.1H26.7V19.8899H40.86V16.8899H23.7V133.1Z" fill="#FF5F46"/>
<path d="M62.6 57.4401L65.6 57.6101C65.7425 55.2984 66.7611 53.1281 68.4482 51.5413C70.1353 49.9546 72.3639 49.0708 74.68 49.0701H75.32C76.6766 49.0626 78.016 49.3743 79.23 49.9801L80.59 47.3101C78.9543 46.4908 77.1494 46.0661 75.32 46.0701H74.68C71.5976 46.072 68.6319 47.2492 66.3874 49.3618C64.1428 51.4744 62.7883 54.3635 62.6 57.4401Z" fill="#FF5F46"/>
<path d="M87.42 69.99H84.42V85.51H87.42V69.99Z" fill="#FF5F46"/>
</svg>
