<svg width="150" height="150" viewBox="0 0 150 150" fill="none" xmlns="http://www.w3.org/2000/svg">
<path d="M70.44 133.63C77.2387 133.641 83.987 132.464 90.38 130.15L89.38 127.33C78.2585 131.359 66.1426 131.738 54.7908 128.413C43.439 125.089 33.4422 118.233 26.2515 108.841C19.0608 99.4485 15.0503 88.0093 14.8022 76.1832C14.5542 64.3572 18.0815 52.7598 24.8721 43.0745C31.6627 33.3893 41.3632 26.1201 52.5656 22.3223C63.768 18.5245 75.8892 18.3956 87.1698 21.9543C98.4504 25.5131 108.303 32.5743 115.298 42.113C122.293 51.6516 126.067 63.1714 126.07 75H129.07C129.072 63.4013 125.634 52.0624 119.192 42.4176C112.749 32.7728 103.591 25.2552 92.8752 20.8156C82.1597 16.3761 70.3683 15.2139 58.9924 17.4763C47.6164 19.7386 37.1668 25.3237 28.9653 33.5253C20.7637 41.7268 15.1786 52.1764 12.9163 63.5524C10.6539 74.9283 11.8161 86.7197 16.2556 97.4352C20.6952 108.151 28.2128 117.309 37.8576 123.752C47.5024 130.194 58.8413 133.632 70.44 133.63V133.63Z" fill="#1B3139"/>
<path d="M117.75 82.13L116.85 81.45L115.95 82.13C113.125 84.1753 110.111 85.9466 106.95 87.42C103.749 89.0184 100.328 90.1338 96.8 90.73L95.5 90.9V92.22C95.5 106.99 97.09 123.56 116.17 133.22L116.85 133.56L117.53 133.22C136.6 123.54 138.2 106.97 138.2 92.22V90.9L136.89 90.73C133.375 90.1307 129.969 89.0153 126.78 87.42C123.608 85.9483 120.585 84.1769 117.75 82.13ZM98.5 93.5C101.85 92.7622 105.102 91.6345 108.19 90.14C110.662 88.9653 113.054 87.6291 115.35 86.14V129.33C100.32 120.65 98.6 107 98.5 93.5ZM118.35 129.38V86.19C120.645 87.6812 123.037 89.0175 125.51 90.19C128.598 91.6845 131.85 92.8122 135.2 93.55C135.1 107 133.38 120.65 118.35 129.38Z" fill="#1B3139"/>
<path d="M76.52 79.75L89.62 87.29L91.11 84.69L81.43 79.11C85.17 74.98 88.73 68.65 88.73 61.8C88.73 50.11 81.04 41.62 70.45 41.62C59.86 41.62 52.12 50.11 52.12 61.8C52.12 68.66 55.69 74.98 59.44 79.12L49.74 84.69C48.1603 85.6009 46.8492 86.9129 45.9396 88.4934C45.03 90.0738 44.5541 91.8665 44.56 93.69V106.93H47.56V93.64C47.5612 92.3515 47.9019 91.0861 48.548 89.9712C49.1941 88.8564 50.1226 87.9316 51.24 87.29L64.35 79.75L62.9 78.37C58.17 73.87 55.12 67.37 55.12 61.8C55.12 51.68 61.42 44.62 70.45 44.62C79.48 44.62 85.73 51.68 85.73 61.8C85.73 67.36 82.73 73.86 77.97 78.37L76.52 79.75Z" fill="#1B3139"/>
</svg>
