<svg width="150" height="150" viewBox="0 0 150 150" fill="none" xmlns="http://www.w3.org/2000/svg">
<path d="M70.44 133.63C77.2387 133.641 83.987 132.464 90.38 130.15L89.38 127.33C78.2585 131.359 66.1426 131.738 54.7908 128.413C43.439 125.089 33.4422 118.233 26.2515 108.841C19.0608 99.4486 15.0503 88.0094 14.8022 76.1833C14.5542 64.3573 18.0815 52.7599 24.8721 43.0747C31.6627 33.3894 41.3632 26.1203 52.5656 22.3224C63.768 18.5246 75.8892 18.3957 87.1698 21.9545C98.4504 25.5132 108.303 32.5744 115.298 42.1131C122.293 51.6517 126.067 63.1715 126.07 75.0001H129.07C129.072 63.4014 125.634 52.0626 119.192 42.4177C112.749 32.7729 103.591 25.2553 92.8752 20.8157C82.1597 16.3762 70.3683 15.2141 58.9924 17.4764C47.6164 19.7387 37.1668 25.3238 28.9653 33.5254C20.7637 41.7269 15.1786 52.1765 12.9163 63.5525C10.6539 74.9285 11.8161 86.7198 16.2556 97.4353C20.6952 108.151 28.2128 117.309 37.8576 123.752C47.5024 130.194 58.8413 133.632 70.44 133.63Z" fill="#FF5F46"/>
<path d="M117.75 82.1302L116.85 81.4502L115.95 82.1302C113.125 84.1755 110.111 85.9468 106.95 87.4202C103.749 89.0186 100.328 90.134 96.8 90.7302L95.5 90.9002V92.2202C95.5 106.99 97.09 123.56 116.17 133.22L116.85 133.56L117.53 133.22C136.6 123.54 138.2 106.97 138.2 92.2202V90.9002L136.89 90.7302C133.375 90.1309 129.969 89.0155 126.78 87.4202C123.608 85.9485 120.585 84.1771 117.75 82.1302ZM98.5 93.5002C101.85 92.7624 105.102 91.6347 108.19 90.1402C110.662 88.9655 113.054 87.6293 115.35 86.1402V129.33C100.32 120.65 98.6 107 98.5 93.5002ZM118.35 129.38V86.1902C120.645 87.6813 123.037 89.0176 125.51 90.1902C128.598 91.6847 131.85 92.8124 135.2 93.5502C135.1 107 133.38 120.65 118.35 129.38Z" fill="#FF5F46"/>
<path d="M76.52 79.7501L89.62 87.2901L91.11 84.6901L81.43 79.1101C85.17 74.9801 88.73 68.6501 88.73 61.8001C88.73 50.1101 81.04 41.6201 70.45 41.6201C59.86 41.6201 52.12 50.1101 52.12 61.8001C52.12 68.6601 55.69 74.9801 59.44 79.1201L49.74 84.6901C48.1603 85.601 46.8492 86.913 45.9396 88.4935C45.03 90.0739 44.5541 91.8666 44.56 93.6901V106.93H47.56V93.6401C47.5612 92.3516 47.9019 91.0862 48.548 89.9714C49.1941 88.8565 50.1226 87.9317 51.24 87.2901L64.35 79.7501L62.9 78.3701C58.17 73.8701 55.12 67.3701 55.12 61.8001C55.12 51.6801 61.42 44.6201 70.45 44.6201C79.48 44.6201 85.73 51.6801 85.73 61.8001C85.73 67.3601 82.73 73.8601 77.97 78.3701L76.52 79.7501Z" fill="#FF5F46"/>
</svg>
