<svg width="150" height="150" viewBox="0 0 150 150" fill="none" xmlns="http://www.w3.org/2000/svg">
<path d="M66.1 95.4001C66.1 100.3 70.1 104.3 75 104.3C79.9 104.3 83.9 100.3 83.9 95.4001C83.9 92.0001 81.9 88.9001 78.9 87.4001L77.6 90.1C79.6 91.1 80.9 93.1001 80.9 95.4001C80.9 98.6001 78.3 101.3 75 101.3C71.8 101.3 69.1 98.7001 69.1 95.4001C69.1 93.1001 70.4 91.1 72.4 90.1L73.3 89.6L70 53.3H80L77.3 81.6L80.3 81.9001L83.3 50.3H66.7L70.2 88C67.7 89.6 66.1 92.4001 66.1 95.4001Z" fill="white"/>
<path d="M44.2 42.7001L25.6 26.7001L23.7 29.0001L42.7 45.3001L44.2 42.7001Z" fill="white"/>
<path d="M36.2 56.7001L37.7 54.1001L25.3 48.2001L24 50.9001L36.2 56.7001Z" fill="white"/>
<path d="M51.4 30.4L44.2 21.8L41.9 23.7001L49.8 33.1L51.4 30.4Z" fill="white"/>
<path d="M107.3 45.3001L126.3 29.0001L124.4 26.7001L105.8 42.7001L107.3 45.3001Z" fill="white"/>
<path d="M113.8 56.7001L126 50.9001L124.7 48.2001L112.3 54.1001L113.8 56.7001Z" fill="white"/>
<path d="M108.1 23.7001L105.8 21.8L98.6 30.4L100.2 33.1L108.1 23.7001Z" fill="white"/>
<path d="M125.3 99.1L85 29.3C82.9 25.7 79.2 23.5 75 23.5C70.8 23.5 67.1 25.7 65 29.3L24.7 99.1C22.6 102.7 22.6 107 24.7 110.7C26.8 114.3 30.5 116.5 34.7 116.5H67.4V128.3H70.4V113.5H34.7C31.6 113.5 28.8 111.9 27.3 109.2C25.8 106.5 25.8 103.3 27.3 100.6L67.6 30.9C69.1 28.2 71.9 26.6 75 26.6C78.1 26.6 80.9 28.2 82.4 30.9L122.7 100.6C124.2 103.3 124.2 106.5 122.7 109.2C121.2 111.9 118.4 113.5 115.3 113.5H75.1V116.5H79.6V128.3H82.6V116.5H115.3C119.5 116.5 123.2 114.3 125.3 110.7C127.4 107 127.4 102.7 125.3 99.1Z" fill="white"/>
</svg>
