<svg width="150" height="150" viewBox="0 0 150 150" fill="none" xmlns="http://www.w3.org/2000/svg">
<path d="M38.36 44.6499H27.28V47.6499H35.36V102.35H27.28V105.35H38.36V44.6499Z" fill="#1B3139"/>
<path d="M122.72 71.39V28.67C122.72 24.31 119.17 20.76 114.8 20.76H34.87V34.44H27.29V37.44H37.87V23.76H114.8C117.51 23.76 119.72 25.96 119.72 28.67V68.39H112.38H106.4C103.38 55.85 92.07 46.87 79.04 46.87C63.53 46.87 50.91 59.49 50.91 75C50.91 82.17 53.6 88.98 58.49 94.19L61.08 93.16V83.39C61.08 82.58 61.53 81.8 62.23 81.4L67.11 78.6L67.4 76.21C65.53 74.44 64.33 71.9 64.33 69.73C64.33 65.9 66.68 63.22 70.05 63.22C73.41 63.22 75.75 65.9 75.75 69.73C75.75 71.9 74.55 74.44 72.68 76.21L72.97 78.6L77.85 81.4C78.56 81.8 79 82.56 79 83.39V100.13C74.38 100.12 69.87 98.85 65.96 96.45L64.39 99.01C68.78 101.71 73.85 103.13 79.05 103.13C84.23 103.13 89.3 101.71 93.71 99.01L92.15 96.45C89.05 98.34 85.59 99.52 81.99 99.95V84.52C81.99 83.89 82.33 83.3 82.88 82.99L87.07 80.58L87.36 78.2C85.79 76.7 84.78 74.56 84.78 72.75C84.78 69.57 86.72 67.35 89.5 67.35C92.27 67.35 94.21 69.57 94.21 72.75C94.21 74.56 93.2 76.7 91.63 78.19L91.92 80.58L96.13 82.99C96.66 83.3 97 83.89 97 84.52V93.17L99.59 94.2C102.93 90.64 105.26 86.31 106.39 81.61H112.21H119.71V121.33C119.71 124.04 117.5 126.24 114.79 126.24H38.36V112.56H27.29V115.56H35.36V129.24H114.8C119.17 129.24 122.72 125.69 122.72 121.33V78.61H112.22H105.19L103.72 79.82C103.09 83.06 101.82 86.13 100 88.86V84.51C100 82.8 99.08 81.22 97.61 80.38L95 78.88C96.21 77.25 97.21 75.08 97.21 72.74C97.21 67.87 93.97 64.34 89.5 64.34C85.03 64.34 81.78 67.87 81.78 72.74C81.78 75.08 82.78 77.25 83.99 78.88L81.39 80.38C81.31 80.43 81.23 80.49 81.15 80.54C80.7 79.83 80.08 79.22 79.33 78.79L76.06 76.91C77.51 75.04 78.74 72.48 78.74 69.72C78.74 64.21 75.08 60.21 70.04 60.21C64.99 60.21 61.32 64.21 61.32 69.72C61.32 72.48 62.55 75.04 64 76.91L60.73 78.79C59.09 79.73 58.07 81.49 58.07 83.38V88.85C55.36 84.78 53.9 79.98 53.9 74.99C53.9 61.13 65.17 49.86 79.03 49.86C91.05 49.86 101.42 58.4 103.71 70.17L105.18 71.38H112.37H122.72V71.39Z" fill="#1B3139"/>
</svg>
