<svg width="150" height="150" viewBox="0 0 150 150" fill="none" xmlns="http://www.w3.org/2000/svg">
<path d="M133.3 43.8V28.4H117.9V31.4H128.2L106.3 53.3L97.8 44.8L89.7 52.9L89.2 53.3V54C89.2 61.3 86.3 68.2 81.1 73.3L80 74.4L89.9 84.3L84.9 89.3L83.8 90.4L102.9 109.5L114.8 121.4C116.8 123.4 119.4 124.4 122 124.4C124.6 124.4 127.2 123.4 129.2 121.4C131.1 119.5 132.2 116.9 132.2 114.2C132.2 111.5 131.1 108.9 129.2 107L111.9 89.7L109.8 91.8L127 109C128.3 110.3 129.1 112.1 129.1 114.1C129.1 116 128.4 117.8 127 119.2C124.2 122 119.7 122 116.9 119.2L105 107.3L88 90.3L98.1 80.2L104.5 86.6L97.2 93.9L99.3 96L108.8 86.5L98.2 75.9L92 82.1L84.3 74.4C89.3 69 92 62 92.2 54.7L97.8 49.1L106.3 57.6L130.4 33.5V43.8H133.3V43.8Z" fill="#1B3139"/>
<path d="M61.9 84.2C66.7 84.2 71.3 83.1001 75.6 80.9001L74.2 78.2C70.4 80.1 66.2 81.1 61.9 81.1C46.9 81.1 34.7 68.9001 34.7 53.9001C34.7 38.9001 46.9 26.7001 61.9 26.7001C72.2 26.7001 81.6 32.5001 86.2 41.7001L74.5 53.4001L67.6 46.5L54.7 59.4001L47.7 52.4001L40.8 59.3L42.9 61.4001L47.7 56.6L54.7 63.6L67.6 50.7001L74.5 57.6L89.8 42.3L89.4 41.4001C84.5 30.7001 73.7 23.8 61.9 23.8C45.2 23.8 31.7 37.4 31.7 54C31.7 70.6 45.3 84.2 61.9 84.2Z" fill="#1B3139"/>
<path d="M19.7 112.1H83V109.1H19.7V98H68.8V95H19.7V25.3H16.7V126.2H97.1V123.2H19.7V112.1Z" fill="#1B3139"/>
</svg>
