<svg width="150" height="150" viewBox="0 0 150 150" fill="none" xmlns="http://www.w3.org/2000/svg">
<path d="M133.3 43.7999V28.3999H117.9V31.3999H128.2L106.3 53.2999L97.8 44.7999L89.7 52.8999L89.2 53.2999V53.9999C89.2 61.2999 86.3 68.1999 81.1 73.2999L80 74.3999L89.9 84.2999L84.9 89.2999L83.8 90.3999L102.9 109.5L114.8 121.4C116.8 123.4 119.4 124.4 122 124.4C124.6 124.4 127.2 123.4 129.2 121.4C131.1 119.5 132.2 116.9 132.2 114.2C132.2 111.5 131.1 108.9 129.2 107L111.9 89.6999L109.8 91.7999L127 109C128.3 110.3 129.1 112.1 129.1 114.1C129.1 116 128.4 117.8 127 119.2C124.2 122 119.7 122 116.9 119.2L105 107.3L88 90.2999L98.1 80.1999L104.5 86.5999L97.2 93.8999L99.3 95.9999L108.8 86.4999L98.2 75.8999L92 82.0999L84.3 74.3999C89.3 68.9999 92 61.9999 92.2 54.6999L97.8 49.0999L106.3 57.5999L130.4 33.4999V43.7999H133.3Z" fill="#FF5F46"/>
<path d="M61.9 84.1998C66.7 84.1998 71.2999 83.0998 75.5999 80.8998L74.1999 78.1998C70.3999 80.0998 66.2 81.0998 61.9 81.0998C46.9 81.0998 34.7 68.8998 34.7 53.8998C34.7 38.8998 46.9 26.6998 61.9 26.6998C72.2 26.6998 81.5999 32.4998 86.1999 41.6998L74.5 53.3998L67.5999 46.4998L54.7 59.3998L47.7 52.3998L40.7999 59.2998L42.9 61.3998L47.7 56.5998L54.7 63.5998L67.5999 50.6998L74.5 57.5998L89.8 42.2998L89.4 41.3998C84.5 30.6998 73.7 23.7998 61.9 23.7998C45.2 23.7998 31.7 37.3998 31.7 53.9998C31.7 70.5998 45.3 84.1998 61.9 84.1998Z" fill="#FF5F46"/>
<path d="M19.7 112.1H83V109.1H19.7V97.9998H68.8V94.9998H19.7V25.2998H16.7V126.2H97.0999V123.2H19.7V112.1Z" fill="#FF5F46"/>
</svg>
