<svg width="150" height="150" viewBox="0 0 150 150" fill="none" xmlns="http://www.w3.org/2000/svg">
<g clip-path="url(#clip0_10589_459)">
<path d="M13.8 137.6V120C13.8 107.8 23.8 97.7998 36 97.7998H41.4001V94.7998H36C22.1 94.7998 10.8 106.1 10.8 120V140.6H139.5V137.6H13.8Z" fill="#FF5F46"/>
<path d="M61.8 34.7002H58.9C58.2 38.2002 55.4 41.0002 51.9 41.7002V44.6002C55.4 45.3002 58.2 48.1002 59 51.6002H61.9C62.6 48.1002 65.4 45.3002 68.9 44.5002V41.6002C65.4 41.0002 62.6 38.2002 61.8 34.7002ZM60.4 47.3002C59.4 45.6002 58 44.2002 56.3 43.2002C58 42.2002 59.4 40.8002 60.4 39.1002C61.4 40.8002 62.8 42.2002 64.5 43.2002C62.8 44.2002 61.4 45.6002 60.4 47.3002Z" fill="#FF5F46"/>
<path d="M82.8 121C82.8 125.4 86.4 129 90.8 129C95.2 129 98.8 125.4 98.8 121C98.8 116.6 95.2 113 90.8 113C86.4 113 82.8 116.6 82.8 121ZM95.8 121C95.8 123.8 93.6 126 90.8 126C88 126 85.8 123.8 85.8 121C85.8 118.2 88 116 90.8 116C93.6 116 95.8 118.2 95.8 121Z" fill="#FF5F46"/>
<path d="M119.1 126H100.9V129H119.1V126Z" fill="#FF5F46"/>
<path d="M119.1 119.5H100.9V122.5H119.1V119.5Z" fill="#FF5F46"/>
<path d="M119.1 113H100.9V116H119.1V113Z" fill="#FF5F46"/>
<path d="M49 110L45.6 112.3C43.9 111.2 42 110.6 39.9 110.6C34.2 110.6 29.5 115.2 29.5 121C29.5 121.7 29.6 122.3 29.7 123L26.4 125.2L28.1 127.7L43.1 117.7L32.6 131.4L35 133.2L36.7 130.9C37.7 131.2 38.8 131.4 39.9 131.4C45.6 131.4 50.3 126.8 50.3 121H47.3C47.3 125.1 44 128.4 39.9 128.4C39.5 128.4 39.1 128.4 38.7 128.3L51 112.3L49 110ZM32.5 120.9C32.5 116.8 35.8 113.5 39.9 113.5C40.9 113.5 41.9 113.7 42.8 114.1L32.5 120.9Z" fill="#FF5F46"/>
<path d="M26.4 90.7998C26.4 84.6998 29.7 79.0998 35 76.1998C39.5 93.5998 55.3 106.8 74.1 107.2C74.4 107.2 74.6 107.2 74.9 107.2C84.3 107.2 93.4 103.9 100.7 97.7998H113.8C126 97.7998 136 107.8 136 120V133.5H139V120C139 106.1 127.7 94.7998 113.8 94.7998H103.9C109 89.4998 112.7 82.9998 114.6 75.9998C120.1 78.8998 123.6 84.4998 123.6 90.7998V94.4998H126.6V90.7998C126.6 83.0998 122.2 76.1998 115.3 72.9998C115.7 70.9998 115.9 69.0998 116 67.0998H120.2C122.7 67.0998 124.7 65.0998 124.7 62.5998V49.8998C124.7 47.3998 122.7 45.3998 120.2 45.3998H115.9C113.8 24.9998 96.2 8.6998 74.9 8.2998H73.4V22.7998C54.8 23.5998 39.9 38.9998 39.9 57.7998C39.9 77.0998 55.6 92.7998 74.9 92.7998C94.2 92.7998 109.9 77.0998 109.9 57.7998C109.9 38.9998 95 23.5998 76.4 22.7998V11.3998C96.7 12.5998 113.1 29.3998 113.1 49.4998V65.2998C113.1 75.6998 108.8 85.9998 101.3 93.2998C93.9 100.5 84.3 104.4 74.2 104.2C53.5 103.8 36.8 86.6998 36.8 65.9998V50.2998C36.8 31.3998 50.6 14.8998 68.9 11.8998L68.4 8.8998C50.3 11.8998 36.3 27.1998 34.1 45.3998H29.7C27.2 45.3998 25.2 47.3998 25.2 49.8998V62.4998C25.2 64.9998 27.2 66.9998 29.7 66.9998H33.9C34 69.0998 34.2 71.0998 34.5 73.0998C27.8 76.3998 23.5 83.1998 23.5 90.7998V94.5998H26.5V90.7998H26.4ZM106 65.4998L92 71.9998H82.7V68.6998H71.9C69.2 68.6998 67.1 70.8998 67.1 73.4998C67.1 76.0998 69.3 78.2998 71.9 78.2998H82.7V74.9998H92.6L104.7 69.2998C100 81.1998 88.4 89.6998 74.9 89.6998C64.6 89.6998 55.4 84.7998 49.5 77.1998C60.4 57.4998 80.5 44.8998 103.5 43.2998C105.7 47.5998 106.9 52.4998 106.9 57.6998C106.9 60.3998 106.6 62.9998 106 65.4998ZM79.7 71.6998V75.3998H71.9C70.9 75.3998 70.1 74.5998 70.1 73.5998C70.1 72.5998 70.9 71.7998 71.9 71.7998H79.7V71.6998ZM101.8 40.4998C78.9 42.4998 59 55.0998 47.6 74.4998C44.6 69.5998 42.9 63.8998 42.9 57.7998C42.9 40.0998 57.3 25.7998 74.9 25.7998C86.2 25.6998 96.1 31.5998 101.8 40.4998ZM116.1 48.3998H120.2C121 48.3998 121.7 49.0998 121.7 49.8998V62.4998C121.7 63.2998 121 63.9998 120.2 63.9998H116.1V48.3998ZM28.1 62.4998V49.8998C28.1 49.0998 28.8 48.3998 29.6 48.3998H33.7V64.0998H29.6C28.8 64.0998 28.1 63.3998 28.1 62.4998Z" fill="#FF5F46"/>
</g>
<defs>
<clipPath id="clip0_10589_459">
<rect width="150" height="150" fill="white"/>
</clipPath>
</defs>
</svg>
