<svg width="150" height="150" viewBox="0 0 150 150" fill="none" xmlns="http://www.w3.org/2000/svg">
<g clip-path="url(#clip0_2919_1887)">
<path d="M112.72 93.31V35.77L127.83 44.5V78.45H130.83V42.76L109.72 30.57V51.48L75 31.43L59.89 22.71L75 13.99L103.54 30.47L105.04 27.87L75 10.53L53.89 22.72L72 33.18L37.28 53.23L22.17 61.95V44.5L51.58 27.52L50.08 24.92L19.17 42.76V67.14L37.28 56.68V114.22L22.17 105.5V71.55H19.17V107.24L40.28 119.43V98.52L75 118.57L90.11 127.29L75 136.01L46.46 119.53L44.96 122.13L75 139.47L96.11 127.28L78 116.82L112.72 96.77L127.83 88.05V105.5L98.42 122.48L99.92 125.08L130.83 107.24V82.86L112.72 93.32V93.31ZM109.72 74.13L94.61 82.85V46.22L109.72 54.94V74.12V74.13ZM58.39 88.05L74.25 97.21L90.11 106.37L75 115.09L58.39 105.5V88.05ZM75 94.18L58.39 84.59V65.41L75 55.82L91.61 65.41V84.59L75 94.18ZM75.75 52.79L59.89 43.63L75 34.91L91.61 44.5V61.95L75.75 52.79ZM56.89 45.36L72 54.08L56.14 63.24L40.28 72.4V54.95L56.89 45.36ZM40.28 75.86L55.39 67.14V103.77L40.28 95.05V75.87V75.86ZM93.11 104.63L78 95.91L93.86 86.75L109.72 77.59V95.04L93.11 104.63Z" fill="#FF5F46"/>
</g>
<defs>
<clipPath id="clip0_2919_1887">
<rect width="150" height="150" fill="white"/>
</clipPath>
</defs>
</svg>
