<svg width="150" height="150" viewBox="0 0 150 150" fill="none" xmlns="http://www.w3.org/2000/svg">
<g clip-path="url(#clip0_8407_580)">
<mask id="mask0_8407_580" style="mask-type:luminance" maskUnits="userSpaceOnUse" x="0" y="0" width="150" height="150">
<path d="M150 0H0V150H150V0Z" fill="white"/>
</mask>
<g mask="url(#mask0_8407_580)">
<path d="M112.72 93.3103V35.7703L127.83 44.5003V78.4503H130.83V42.7603L109.72 30.5703V51.4803L75 31.4303L59.89 22.7103L75 13.9903L103.54 30.4703L105.04 27.8703L75 10.5303L53.89 22.7203L72 33.1803L37.28 53.2303L22.17 61.9503V44.5003L51.58 27.5203L50.08 24.9203L19.17 42.7603V67.1403L37.28 56.6803V114.22L22.17 105.5V71.5503H19.17V107.24L40.28 119.43V98.5203L75 118.57L90.11 127.29L75 136.01L46.46 119.53L44.96 122.13L75 139.47L96.11 127.28L78 116.82L112.72 96.7703L127.83 88.0503V105.5L98.42 122.48L99.92 125.08L130.83 107.24V82.8603L112.72 93.3203V93.3103ZM109.72 74.1303L94.61 82.8503V46.2203L109.72 54.9403V74.1203V74.1303ZM58.39 88.0503L74.25 97.2103L90.11 106.37L75 115.09L58.39 105.5V88.0503ZM75 94.1803L58.39 84.5903V65.4103L75 55.8203L91.61 65.4103V84.5903L75 94.1803ZM75.75 52.7903L59.89 43.6303L75 34.9103L91.61 44.5003V61.9503L75.75 52.7903ZM56.89 45.3603L72 54.0803L56.14 63.2403L40.28 72.4003V54.9503L56.89 45.3603ZM40.28 75.8603L55.39 67.1403V103.77L40.28 95.0503V75.8703V75.8603ZM93.11 104.63L78 95.9103L93.86 86.7503L109.72 77.5903V95.0403L93.11 104.63Z" fill="#1B3139"/>
</g>
</g>
<defs>
<clipPath id="clip0_8407_580">
<rect width="150" height="150" fill="white"/>
</clipPath>
</defs>
</svg>
