<svg width="150" height="150" viewBox="0 0 150 150" fill="none" xmlns="http://www.w3.org/2000/svg">
<path d="M36.07 35.2899C36.07 34.7294 36.292 34.1917 36.6874 33.7944C37.0828 33.3971 37.6195 33.1726 38.18 33.1699H56.24V29.1699C56.2374 28.7537 56.3172 28.3412 56.475 27.956C56.6327 27.5709 56.8652 27.2208 57.159 26.926C57.4529 26.6313 57.8022 26.3977 58.1868 26.2387C58.5715 26.0798 58.9838 25.9986 59.4 25.9999H69.57V24.4999C69.57 23.0598 70.1421 21.6787 71.1604 20.6603C72.1787 19.642 73.5599 19.0699 75 19.0699C76.4401 19.0699 77.8213 19.642 78.8396 20.6603C79.8579 21.6787 80.43 23.0598 80.43 24.4999V25.9999H90.61C91.4446 26.0026 92.2443 26.3353 92.8345 26.9255C93.4246 27.5156 93.7574 28.3153 93.76 29.1499V33.1499H111.82C112.381 33.1526 112.917 33.3771 113.313 33.7744C113.708 34.1717 113.93 34.7094 113.93 35.2699V130.9H42.37V133.9H116.93V35.2899C116.93 33.9337 116.392 32.633 115.434 31.6731C114.476 30.7132 113.176 30.1726 111.82 30.1699H96.76V29.1699C96.7613 28.361 96.6033 27.5597 96.2949 26.8118C95.9866 26.064 95.5339 25.3842 94.9629 24.8112C94.3918 24.2383 93.7134 23.7834 92.9666 23.4727C92.2197 23.1619 91.419 23.0012 90.61 22.9999H83.3C82.9536 21.0504 81.9321 19.2851 80.4145 18.0134C78.8969 16.7416 76.98 16.0447 75 16.0447C73.02 16.0447 71.1032 16.7416 69.5855 18.0134C68.0679 19.2851 67.0464 21.0504 66.7 22.9999H59.4C57.768 22.9999 56.2027 23.6475 55.0478 24.8006C53.8928 25.9537 53.2427 27.5179 53.24 29.1499V30.1499H38.18C36.8238 30.1526 35.5241 30.6932 34.5661 31.6531C33.6081 32.613 33.07 33.9137 33.07 35.2699V133.92H36.07V35.2899Z" fill="white"/>
<path d="M42.55 39.6599V124.44H107.45V80.5499H91.12V82.0499C91.1052 85.8578 89.742 89.5374 87.2723 92.4358C84.8026 95.3342 81.386 97.2641 77.6287 97.8831C73.8714 98.5021 70.0164 97.7701 66.7474 95.817C63.4785 93.864 61.0071 90.8161 59.7716 87.2142C58.5361 83.6122 58.6165 79.6891 59.9985 76.1408C61.3804 72.5925 63.9746 69.6484 67.3208 67.8308C70.667 66.0133 74.5488 65.4399 78.2776 66.2122C82.0064 66.9845 85.3411 69.0528 87.69 72.0499L72.9 86.8999L67.62 81.6299L65.5 83.7499L72.9 91.1399L91.59 72.4499L90.9 71.4499C88.3897 67.6906 84.6287 64.9422 80.2844 63.6927C75.9401 62.4431 71.2936 62.7731 67.1696 64.6242C63.0456 66.4753 59.7108 69.7277 57.7571 73.8041C55.8034 77.8805 55.3571 82.5173 56.4976 86.8915C57.6381 91.2656 60.2914 95.0943 63.9868 97.6978C67.6821 100.301 72.1804 101.511 76.6833 101.113C81.1861 100.715 85.4022 98.7345 88.5834 95.5228C91.7645 92.3112 93.7048 88.0763 94.06 83.5699H104.45V121.46H45.55V42.6599H53.24V46.6599H96.76V42.6599H104.45V75.8599H107.45V39.6599H93.76V43.6599H56.24V39.6599H42.55Z" fill="white"/>
</svg>
