<svg width="150" height="150" viewBox="0 0 150 150" fill="none" xmlns="http://www.w3.org/2000/svg">
<path d="M36.0699 35.29C36.0699 34.7295 36.2919 34.1917 36.6873 33.7944C37.0828 33.3972 37.6194 33.1726 38.1799 33.17H56.2399V29.17C56.2373 28.7538 56.3172 28.3412 56.4749 27.9561C56.6326 27.5709 56.8652 27.2209 57.159 26.9261C57.4528 26.6313 57.8021 26.3977 58.1868 26.2388C58.5714 26.0798 58.9838 25.9987 59.3999 26H69.5699V24.5C69.5699 23.0599 70.142 21.6787 71.1604 20.6604C72.1787 19.6421 73.5598 19.07 74.9999 19.07C76.4401 19.07 77.8212 19.6421 78.8395 20.6604C79.8579 21.6787 80.4299 23.0599 80.4299 24.5V26H90.6099C91.4446 26.0026 92.2443 26.3353 92.8344 26.9255C93.4246 27.5157 93.7573 28.3154 93.7599 29.15V33.15H111.82C112.38 33.1526 112.917 33.3772 113.313 33.7744C113.708 34.1717 113.93 34.7095 113.93 35.27V130.9H42.3699V133.9H116.93V35.29C116.93 33.9338 116.392 32.633 115.434 31.6731C114.476 30.7132 113.176 30.1726 111.82 30.17H96.7599V29.17C96.7613 28.361 96.6032 27.5598 96.2949 26.8119C95.9865 26.064 95.5339 25.3842 94.9628 24.8113C94.3917 24.2383 93.7134 23.7835 92.9665 23.4727C92.2197 23.1619 91.4189 23.0013 90.6099 23H83.2999C82.9536 21.0505 81.932 19.2852 80.4144 18.0134C78.8968 16.7417 76.98 16.0447 74.9999 16.0447C73.0199 16.0447 71.1031 16.7417 69.5855 18.0134C68.0679 19.2852 67.0463 21.0505 66.6999 23H59.3999C57.7679 23 56.2026 23.6476 55.0477 24.8007C53.8928 25.9537 53.2426 27.518 53.2399 29.15V30.15H38.1799C36.8238 30.1526 35.524 30.6932 34.566 31.6531C33.608 32.613 33.0699 33.9138 33.0699 35.27V133.92H36.0699V35.29Z" fill="#FF5F46"/>
<path d="M42.55 39.66V124.44H107.45V80.55H91.1201V82.05C91.1053 85.8579 89.7421 89.5374 87.2724 92.4359C84.8027 95.3343 81.3861 97.2642 77.6288 97.8832C73.8715 98.5021 70.0164 97.7702 66.7475 95.8171C63.4786 93.864 61.0071 90.8162 59.7716 87.2142C58.5362 83.6123 58.6166 79.6892 59.9985 76.1408C61.3805 72.5925 63.9747 69.6484 67.3209 67.8309C70.6671 66.0134 74.5489 65.4399 78.2777 66.2123C82.0065 66.9846 85.3411 69.0528 87.6901 72.05L72.9001 86.9L67.6201 81.63L65.5 83.75L72.9001 91.14L91.59 72.45L90.9001 71.45C88.3898 67.6906 84.6287 64.9423 80.2845 63.6927C75.9402 62.4431 71.2937 62.7732 67.1697 64.6243C63.0456 66.4753 59.7108 69.7277 57.7571 73.8041C55.8034 77.8806 55.3572 82.5173 56.4977 86.8915C57.6381 91.2657 60.2915 95.0943 63.9868 97.6979C67.6822 100.301 72.1805 101.512 76.6833 101.113C81.1862 100.715 85.4023 98.7345 88.5834 95.5229C91.7645 92.3113 93.7049 88.0764 94.06 83.57H104.45V121.46H45.55V42.66H53.2401V46.66H96.7601V42.66H104.45V75.86H107.45V39.66H93.7601V43.66H56.2401V39.66H42.55Z" fill="#FF5F46"/>
</svg>
