<svg width="1045" height="300" viewBox="0 0 1045 300" fill="none" xmlns="http://www.w3.org/2000/svg">
<path d="M129.146 235.161L212.571 150.728L129.147 66.2946L129.147 32.8125L175.537 32.8125L175.537 80.0062L184.212 83.6669L216.969 50.2957L250.028 83.9768L217.271 117.348L220.865 126.185H267.19V173.815H220.865L217.271 182.652L250.028 216.023L216.969 249.704L184.211 216.333L175.537 219.994L175.537 267.187H129.146L129.146 235.161Z" fill="#FABFBA"/>
<path d="M91.7482 59.1703V59.0168L180.926 150.001L91.7482 240.985V240.823L83.0339 249.702L49.9743 216.021L82.7319 182.65L79.1374 173.813H32.8125V126.183H79.1374L82.7319 117.346L49.9743 83.9749L83.0339 50.2937L91.7482 59.1703Z" fill="#FF5F46"/>
<path d="M340.501 138V60.72H360.373C369.352 60.72 376.749 62.3024 382.563 65.4672C388.451 68.5584 392.794 73.0112 395.59 78.8256C398.461 84.5664 399.896 91.4848 399.896 99.5808C399.896 107.53 398.461 114.374 395.59 120.115C392.794 125.856 388.451 130.272 382.563 133.363C376.749 136.454 369.352 138 360.373 138H340.501ZM349.774 130.272H360.152C367.586 130.272 373.51 129.058 377.926 126.629C382.342 124.126 385.507 120.594 387.421 116.03C389.334 111.394 390.291 105.91 390.291 99.5808C390.291 93.104 389.334 87.5472 387.421 82.9104C385.507 78.2736 382.342 74.704 377.926 72.2016C373.51 69.6992 367.586 68.448 360.152 68.448H349.774V130.272ZM427.945 139.325C423.529 139.325 419.849 138.515 416.905 136.896C413.961 135.203 411.753 132.995 410.281 130.272C408.809 127.475 408.073 124.494 408.073 121.33C408.073 117.502 409.029 114.264 410.943 111.614C412.93 108.891 415.69 106.83 419.223 105.432C422.756 104.034 426.877 103.334 431.588 103.334H446.05C446.05 99.5808 445.609 96.4528 444.725 93.9504C443.842 91.448 442.407 89.5712 440.42 88.32C438.433 87.0688 435.783 86.4432 432.471 86.4432C429.159 86.4432 426.325 87.2896 423.97 88.9824C421.615 90.6016 420.143 93.0304 419.554 96.2688H410.06C410.501 92.4416 411.789 89.24 413.924 86.664C416.058 84.0144 418.745 82.0272 421.983 80.7024C425.295 79.304 428.791 78.6048 432.471 78.6048C437.697 78.6048 442.002 79.5616 445.388 81.4752C448.773 83.3152 451.276 85.928 452.895 89.3136C454.514 92.6256 455.324 96.5632 455.324 101.126V138H447.044L446.492 128.064C445.756 129.61 444.799 131.082 443.621 132.48C442.517 133.805 441.193 134.982 439.647 136.013C438.101 137.043 436.335 137.853 434.348 138.442C432.434 139.03 430.3 139.325 427.945 139.325ZM429.269 131.486C431.698 131.486 433.943 130.934 436.004 129.83C438.065 128.726 439.831 127.254 441.303 125.414C442.849 123.501 444.026 121.366 444.836 119.011C445.645 116.656 446.05 114.19 446.05 111.614V110.51H432.361C428.901 110.51 426.068 110.952 423.86 111.835C421.725 112.718 420.18 113.97 419.223 115.589C418.266 117.134 417.788 118.901 417.788 120.888C417.788 123.022 418.229 124.899 419.113 126.518C419.996 128.064 421.284 129.278 422.977 130.162C424.743 131.045 426.841 131.486 429.269 131.486ZM488.345 138C485.033 138 482.163 137.485 479.734 136.454C477.305 135.424 475.429 133.694 474.104 131.266C472.853 128.763 472.227 125.414 472.227 121.219V87.768H462.07V79.9296H472.227L473.441 65.4672H481.501V79.9296H497.95V87.768H481.501V121.219C481.501 124.678 482.2 127.034 483.598 128.285C484.997 129.462 487.462 130.051 490.995 130.051H497.729V138H488.345ZM525.467 139.325C521.051 139.325 517.371 138.515 514.427 136.896C511.483 135.203 509.275 132.995 507.803 130.272C506.331 127.475 505.595 124.494 505.595 121.33C505.595 117.502 506.552 114.264 508.466 111.614C510.453 108.891 513.213 106.83 516.746 105.432C520.279 104.034 524.4 103.334 529.111 103.334H543.573C543.573 99.5808 543.131 96.4528 542.248 93.9504C541.365 91.448 539.93 89.5712 537.943 88.32C535.955 87.0688 533.306 86.4432 529.994 86.4432C526.682 86.4432 523.848 87.2896 521.493 88.9824C519.138 90.6016 517.666 93.0304 517.077 96.2688H507.583C508.024 92.4416 509.312 89.24 511.447 86.664C513.581 84.0144 516.267 82.0272 519.506 80.7024C522.818 79.304 526.314 78.6048 529.994 78.6048C535.219 78.6048 539.525 79.5616 542.911 81.4752C546.296 83.3152 548.799 85.928 550.418 89.3136C552.037 92.6256 552.847 96.5632 552.847 101.126V138H544.567L544.015 128.064C543.279 129.61 542.322 131.082 541.144 132.48C540.04 133.805 538.715 134.982 537.17 136.013C535.624 137.043 533.858 137.853 531.871 138.442C529.957 139.03 527.823 139.325 525.467 139.325ZM526.792 131.486C529.221 131.486 531.466 130.934 533.527 129.83C535.587 128.726 537.354 127.254 538.826 125.414C540.371 123.501 541.549 121.366 542.359 119.011C543.168 116.656 543.573 114.19 543.573 111.614V110.51H529.883C526.424 110.51 523.591 110.952 521.383 111.835C519.248 112.718 517.703 113.97 516.746 115.589C515.789 117.134 515.311 118.901 515.311 120.888C515.311 123.022 515.752 124.899 516.635 126.518C517.519 128.064 518.807 129.278 520.499 130.162C522.266 131.045 524.363 131.486 526.792 131.486ZM593.781 139.325C590.248 139.325 587.194 138.81 584.618 137.779C582.115 136.675 579.981 135.314 578.214 133.694C576.522 132.075 575.123 130.493 574.019 128.947L573.246 138H564.856V58.512H574.13V89.0928C575.896 85.6336 578.509 83.0208 581.968 81.2544C585.427 79.488 589.291 78.6048 593.56 78.6048C598.859 78.6048 603.496 79.8928 607.47 82.4688C611.445 85.0448 614.536 88.6144 616.744 93.1776C618.952 97.6672 620.056 102.856 620.056 108.744C620.056 114.558 618.952 119.784 616.744 124.421C614.536 129.058 611.445 132.701 607.47 135.35C603.57 138 599.006 139.325 593.781 139.325ZM592.566 131.266C596.026 131.266 599.08 130.382 601.73 128.616C604.453 126.776 606.587 124.2 608.133 120.888C609.752 117.502 610.562 113.528 610.562 108.965C610.562 104.402 609.752 100.464 608.133 97.152C606.587 93.7664 604.453 91.1904 601.73 89.424C599.08 87.584 596.026 86.664 592.566 86.664C588.886 86.664 585.685 87.584 582.962 89.424C580.238 91.1904 578.141 93.7664 576.669 97.152C575.197 100.464 574.461 104.402 574.461 108.965C574.461 113.528 575.197 117.502 576.669 120.888C578.141 124.2 580.238 126.776 582.962 128.616C585.685 130.382 588.886 131.266 592.566 131.266ZM630.221 138V79.9296H638.611L639.273 90.528C640.598 87.8784 642.328 85.6704 644.462 83.904C646.597 82.1376 649.173 80.8128 652.19 79.9296C655.281 79.0464 658.741 78.6048 662.568 78.6048V88.32H656.827C654.619 88.32 652.485 88.6144 650.424 89.2032C648.363 89.792 646.486 90.7488 644.793 92.0736C643.174 93.3984 641.886 95.2016 640.929 97.4832C639.973 99.7648 639.494 102.635 639.494 106.094V138H630.221ZM670.809 138V79.9296H680.083V138H670.809ZM675.446 68.8896C673.606 68.8896 672.06 68.3008 670.809 67.1232C669.631 65.872 669.043 64.3264 669.043 62.4864C669.043 60.6464 669.631 59.1744 670.809 58.0704C672.06 56.8928 673.606 56.304 675.446 56.304C677.212 56.304 678.721 56.8928 679.972 58.0704C681.223 59.1744 681.849 60.6464 681.849 62.4864C681.849 64.3264 681.223 65.872 679.972 67.1232C678.721 68.3008 677.212 68.8896 675.446 68.8896ZM718.304 139.325C713.005 139.325 708.295 138.074 704.173 135.571C700.051 132.995 696.813 129.426 694.458 124.862C692.103 120.299 690.925 115 690.925 108.965C690.925 102.856 692.103 97.5568 694.458 93.0672C696.813 88.504 700.051 84.9712 704.173 82.4688C708.295 79.8928 713.005 78.6048 718.304 78.6048C724.928 78.6048 730.448 80.3712 734.864 83.904C739.354 87.4368 742.224 92.184 743.475 98.1456H733.981C733.171 94.4656 731.295 91.632 728.351 89.6448C725.48 87.584 722.095 86.5536 718.194 86.5536C714.808 86.5536 711.754 87.4 709.031 89.0928C706.381 90.7856 704.283 93.288 702.738 96.6C701.192 99.912 700.419 104.034 700.419 108.965C700.419 112.645 700.861 115.92 701.744 118.79C702.627 121.587 703.842 123.942 705.387 125.856C707.007 127.696 708.883 129.094 711.018 130.051C713.226 131.008 715.618 131.486 718.194 131.486C720.843 131.486 723.235 131.045 725.37 130.162C727.578 129.205 729.418 127.843 730.89 126.077C732.435 124.31 733.466 122.213 733.981 119.784H743.475C742.298 125.598 739.427 130.309 734.864 133.915C730.375 137.522 724.855 139.325 718.304 139.325ZM787.762 138L761.377 106.646L786.217 79.9296H797.588L769.215 109.958L769.325 103.334L799.575 138H787.762ZM753.649 138V58.512H762.922V138H753.649ZM823.817 139.325C818.592 139.325 814.249 138.552 810.79 137.006C807.405 135.387 804.829 133.179 803.062 130.382C801.296 127.512 800.229 124.2 799.861 120.446H809.355C809.649 122.434 810.312 124.274 811.342 125.966C812.446 127.586 814.029 128.91 816.089 129.941C818.15 130.971 820.763 131.486 823.928 131.486C826.43 131.486 828.565 131.118 830.331 130.382C832.097 129.573 833.422 128.469 834.305 127.07C835.262 125.672 835.741 124.053 835.741 122.213C835.741 119.784 835.189 117.907 834.085 116.582C833.054 115.184 831.509 114.154 829.448 113.491C827.461 112.755 824.958 112.203 821.941 111.835C818.702 111.394 815.832 110.768 813.329 109.958C810.827 109.149 808.693 108.082 806.926 106.757C805.233 105.432 803.945 103.776 803.062 101.789C802.179 99.8016 801.737 97.4464 801.737 94.7232C801.737 91.5584 802.584 88.7616 804.277 86.3328C805.969 83.904 808.361 82.0272 811.453 80.7024C814.617 79.304 818.334 78.6048 822.603 78.6048C828.859 78.6048 833.79 80.04 837.397 82.9104C841.077 85.7808 843.248 89.8656 843.91 95.1648H834.747C834.379 92.4416 833.128 90.3072 830.993 88.7616C828.859 87.216 826.025 86.4432 822.493 86.4432C818.739 86.4432 815.905 87.1424 813.992 88.5408C812.078 89.9392 811.121 91.7792 811.121 94.0608C811.121 95.7536 811.526 97.2992 812.336 98.6976C813.219 100.022 814.691 101.163 816.752 102.12C818.813 103.003 821.573 103.666 825.032 104.107C829.374 104.622 833.054 105.469 836.072 106.646C839.089 107.75 841.371 109.48 842.917 111.835C844.536 114.19 845.309 117.392 845.235 121.44C845.235 125.267 844.315 128.506 842.475 131.155C840.709 133.805 838.206 135.829 834.968 137.227C831.803 138.626 828.086 139.325 823.817 139.325ZM339.838 237V159.72H353.086V226.622H387.531V237H339.838ZM415.223 238.325C410.659 238.325 406.869 237.552 403.851 236.006C400.834 234.461 398.589 232.4 397.117 229.824C395.645 227.248 394.909 224.451 394.909 221.434C394.909 217.901 395.792 214.846 397.559 212.27C399.399 209.694 402.085 207.707 405.618 206.309C409.151 204.837 413.493 204.101 418.645 204.101H432.666C432.666 201.157 432.261 198.728 431.451 196.814C430.642 194.827 429.391 193.355 427.698 192.398C426.005 191.442 423.834 190.963 421.184 190.963C418.167 190.963 415.591 191.662 413.456 193.061C411.322 194.386 409.997 196.446 409.482 199.243H396.455C396.896 195.269 398.221 191.883 400.429 189.086C402.637 186.216 405.544 184.008 409.151 182.462C412.831 180.843 416.842 180.034 421.184 180.034C426.41 180.034 430.863 180.954 434.543 182.794C438.223 184.56 441.019 187.136 442.933 190.522C444.92 193.834 445.914 197.845 445.914 202.555V237H434.653L433.328 228.058C432.592 229.53 431.635 230.891 430.458 232.142C429.354 233.394 428.066 234.498 426.594 235.454C425.122 236.338 423.429 237.037 421.515 237.552C419.675 238.067 417.578 238.325 415.223 238.325ZM418.203 227.837C420.338 227.837 422.215 227.469 423.834 226.733C425.527 225.923 426.962 224.819 428.139 223.421C429.391 221.949 430.347 220.33 431.01 218.563C431.672 216.797 432.114 214.92 432.335 212.933V212.712H420.08C417.504 212.712 415.37 213.043 413.677 213.706C411.984 214.294 410.77 215.178 410.034 216.355C409.298 217.533 408.93 218.894 408.93 220.44C408.93 221.986 409.298 223.31 410.034 224.414C410.77 225.518 411.837 226.365 413.235 226.954C414.634 227.542 416.29 227.837 418.203 227.837ZM492.637 237L468.018 206.53L490.098 181.358H505.885L478.396 211.939V201.672L509.197 237H492.637ZM456.757 237V157.512H470.005V237H456.757ZM536.425 238.325C530.905 238.325 526.047 237.147 521.852 234.792C517.657 232.363 514.381 228.978 512.026 224.635C509.671 220.293 508.493 215.288 508.493 209.621C508.493 203.733 509.634 198.581 511.916 194.165C514.271 189.749 517.546 186.29 521.741 183.787C526.01 181.285 530.941 180.034 536.535 180.034C541.981 180.034 546.729 181.248 550.777 183.677C554.825 186.106 557.953 189.381 560.161 193.502C562.369 197.55 563.473 202.114 563.473 207.192C563.473 207.928 563.473 208.738 563.473 209.621C563.473 210.504 563.399 211.424 563.252 212.381H517.988V203.88H550.114C549.967 199.832 548.605 196.667 546.029 194.386C543.453 192.03 540.252 190.853 536.425 190.853C533.701 190.853 531.199 191.478 528.917 192.73C526.636 193.981 524.833 195.858 523.508 198.36C522.183 200.789 521.521 203.88 521.521 207.634V210.835C521.521 214.294 522.146 217.275 523.397 219.778C524.722 222.28 526.489 224.194 528.697 225.518C530.978 226.77 533.517 227.395 536.314 227.395C539.405 227.395 541.945 226.733 543.932 225.408C545.993 224.083 547.501 222.317 548.458 220.109H561.927C560.897 223.568 559.204 226.696 556.849 229.493C554.493 232.216 551.586 234.387 548.127 236.006C544.668 237.552 540.767 238.325 536.425 238.325ZM575.153 237V175.286C575.153 171.018 575.852 167.595 577.25 165.019C578.722 162.37 580.82 160.456 583.543 159.278C586.266 158.101 589.505 157.512 593.258 157.512H599.882V168.773H595.245C592.817 168.773 591.05 169.288 589.946 170.318C588.916 171.275 588.401 172.968 588.401 175.397V237H575.153ZM567.204 192.509V181.358H600.986V192.509H567.204ZM612.357 237V157.512H625.605V237H612.357ZM663.054 238.325C657.755 238.325 652.971 237.11 648.702 234.682C644.507 232.179 641.195 228.757 638.766 224.414C636.411 219.998 635.233 214.957 635.233 209.29C635.233 203.475 636.448 198.397 638.877 194.054C641.305 189.638 644.617 186.216 648.813 183.787C653.081 181.285 657.865 180.034 663.165 180.034C668.464 180.034 673.211 181.285 677.406 183.787C681.675 186.216 684.987 189.602 687.342 193.944C689.771 198.286 690.985 203.365 690.985 209.179C690.985 214.994 689.771 220.072 687.342 224.414C684.913 228.757 681.565 232.179 677.296 234.682C673.101 237.11 668.353 238.325 663.054 238.325ZM663.054 226.954C665.704 226.954 668.096 226.291 670.23 224.966C672.438 223.642 674.205 221.654 675.529 219.005C676.854 216.355 677.517 213.08 677.517 209.179C677.517 205.278 676.854 202.04 675.529 199.464C674.278 196.814 672.549 194.827 670.341 193.502C668.206 192.178 665.814 191.515 663.165 191.515C660.589 191.515 658.197 192.178 655.989 193.502C653.781 194.827 652.014 196.814 650.689 199.464C649.365 202.04 648.702 205.278 648.702 209.179C648.702 213.08 649.365 216.355 650.689 219.005C652.014 221.654 653.744 223.642 655.878 224.966C658.086 226.291 660.478 226.954 663.054 226.954ZM709.741 237L693.402 181.358H706.54L717.911 227.064L715.482 226.954L728.178 181.358H742.972L755.778 226.954H753.349L764.721 181.358H777.858L761.519 237H747.829L734.25 189.859H737.01L723.431 237H709.741ZM827.745 238.325C822.814 238.325 818.508 237.405 814.828 235.565C811.222 233.651 808.425 230.928 806.438 227.395C804.451 223.789 803.457 219.446 803.457 214.368H816.705C816.705 216.797 817.073 218.931 817.809 220.771C818.545 222.611 819.686 224.046 821.232 225.077C822.851 226.034 824.912 226.512 827.414 226.512C829.916 226.512 831.904 226.034 833.376 225.077C834.848 224.12 835.915 222.795 836.577 221.102C837.313 219.336 837.681 217.312 837.681 215.03V159.72H850.929V215.03C850.929 222.538 848.832 228.315 844.636 232.363C840.515 236.338 834.884 238.325 827.745 238.325ZM888.719 238.325C883.42 238.325 878.636 237.11 874.367 234.682C870.172 232.179 866.86 228.757 864.431 224.414C862.076 219.998 860.898 214.957 860.898 209.29C860.898 203.475 862.112 198.397 864.541 194.054C866.97 189.638 870.282 186.216 874.477 183.787C878.746 181.285 883.53 180.034 888.829 180.034C894.128 180.034 898.876 181.285 903.071 183.787C907.34 186.216 910.652 189.602 913.007 193.944C915.436 198.286 916.65 203.365 916.65 209.179C916.65 214.994 915.436 220.072 913.007 224.414C910.578 228.757 907.229 232.179 902.96 234.682C898.765 237.11 894.018 238.325 888.719 238.325ZM888.719 226.954C891.368 226.954 893.76 226.291 895.895 224.966C898.103 223.642 899.869 221.654 901.194 219.005C902.519 216.355 903.181 213.08 903.181 209.179C903.181 205.278 902.519 202.04 901.194 199.464C899.943 196.814 898.213 194.827 896.005 193.502C893.871 192.178 891.479 191.515 888.829 191.515C886.253 191.515 883.861 192.178 881.653 193.502C879.445 194.827 877.679 196.814 876.354 199.464C875.029 202.04 874.367 205.278 874.367 209.179C874.367 213.08 875.029 216.355 876.354 219.005C877.679 221.654 879.408 223.642 881.543 224.966C883.751 226.291 886.143 226.954 888.719 226.954ZM958.102 238.325C955.158 238.325 952.508 237.92 950.153 237.11C947.798 236.374 945.737 235.344 943.97 234.019C942.204 232.621 940.732 231.038 939.554 229.272L938.119 237H926.306V157.512H939.554V189.528C941.321 186.805 943.713 184.56 946.73 182.794C949.748 180.954 953.502 180.034 957.991 180.034C963.217 180.034 967.817 181.322 971.791 183.898C975.839 186.4 979.004 189.859 981.286 194.275C983.641 198.618 984.818 203.622 984.818 209.29C984.818 214.81 983.678 219.778 981.396 224.194C979.114 228.61 975.95 232.069 971.902 234.571C967.927 237.074 963.327 238.325 958.102 238.325ZM955.342 226.843C958.433 226.843 961.193 226.107 963.622 224.635C966.05 223.09 967.927 221.029 969.252 218.453C970.65 215.803 971.35 212.712 971.35 209.179C971.35 205.72 970.65 202.666 969.252 200.016C967.927 197.366 966.05 195.306 963.622 193.834C961.193 192.362 958.433 191.626 955.342 191.626C952.177 191.626 949.38 192.362 946.951 193.834C944.596 195.306 942.719 197.366 941.321 200.016C939.996 202.666 939.334 205.72 939.334 209.179C939.334 212.712 939.996 215.803 941.321 218.453C942.719 221.029 944.596 223.09 946.951 224.635C949.38 226.107 952.177 226.843 955.342 226.843ZM1016.56 238.325C1011.63 238.325 1007.32 237.552 1003.64 236.006C1000.03 234.387 997.163 232.179 995.029 229.382C992.968 226.512 991.754 223.237 991.386 219.557H1004.63C1005 221.102 1005.66 222.538 1006.62 223.862C1007.58 225.114 1008.87 226.107 1010.48 226.843C1012.18 227.579 1014.16 227.947 1016.45 227.947C1018.65 227.947 1020.46 227.653 1021.86 227.064C1023.25 226.402 1024.28 225.555 1024.95 224.525C1025.61 223.494 1025.94 222.39 1025.94 221.213C1025.94 219.446 1025.46 218.085 1024.51 217.128C1023.55 216.171 1022.15 215.435 1020.31 214.92C1018.54 214.331 1016.41 213.779 1013.91 213.264C1011.26 212.749 1008.68 212.123 1006.18 211.387C1003.75 210.578 1001.54 209.584 999.555 208.406C997.642 207.229 996.096 205.72 994.918 203.88C993.814 202.04 993.262 199.795 993.262 197.146C993.262 193.907 994.109 191 995.802 188.424C997.568 185.848 1000.07 183.824 1003.31 182.352C1006.62 180.806 1010.56 180.034 1015.12 180.034C1021.6 180.034 1026.75 181.542 1030.58 184.56C1034.48 187.504 1036.76 191.662 1037.42 197.035H1024.84C1024.47 194.974 1023.44 193.392 1021.75 192.288C1020.05 191.11 1017.81 190.522 1015.01 190.522C1012.14 190.522 1009.93 191.074 1008.39 192.178C1006.92 193.208 1006.18 194.606 1006.18 196.373C1006.18 197.477 1006.62 198.507 1007.5 199.464C1008.46 200.347 1009.82 201.12 1011.59 201.782C1013.36 202.371 1015.53 202.96 1018.1 203.549C1022.22 204.358 1025.87 205.315 1029.03 206.419C1032.2 207.523 1034.7 209.142 1036.54 211.277C1038.38 213.411 1039.3 216.429 1039.3 220.33C1039.37 223.862 1038.45 226.99 1036.54 229.714C1034.7 232.437 1032.09 234.571 1028.7 236.117C1025.32 237.589 1021.27 238.325 1016.56 238.325Z" fill="white"/>
</svg>
