<svg width="150" height="150" viewBox="0 0 150 150" fill="none" xmlns="http://www.w3.org/2000/svg">
<path d="M114.7 129.2H42.7C38.3 129.2 34.8 125.7 34.8 121.3V112.5H37.8V121.3C37.8 124 40 126.2 42.7 126.2H114.7C117.4 126.2 119.6 124 119.6 121.3V48.0999L96.3 24.7999V44.7C96.3 47.4 98.5 49.5999 101.2 49.5999H113.5V52.5999H101.2C96.8 52.5999 93.3 49.1 93.3 44.7V20.7H96.5L122.7 46.7999V121.3C122.6 125.7 119.1 129.2 114.7 129.2Z" fill="#1B3139"/>
<path d="M96.3 108.3H27.4V67.9001H30.4V105.3H93.3V70.4001H34.8V28.7001C34.8 24.3001 38.3 20.8 42.7 20.8H87.5V23.8H42.7C40 23.8 37.8 26.0001 37.8 28.7001V67.4001H96.3V108.3V108.3Z" fill="#1B3139"/>
<path d="M70.8 97.8C67.1 97.8 64.1 94.8 64.1 91.1V84.7C64.1 81 67.1 78 70.8 78C74.5 78 77.5 81 77.5 84.7V91.1C77.5 94.8 74.5 97.8 70.8 97.8ZM70.8 81C68.8 81 67.1 82.7 67.1 84.7V91.1C67.1 93.1 68.8 94.8 70.8 94.8C72.8 94.8 74.5 93.1 74.5 91.1V84.7C74.5 82.7 72.8 81 70.8 81Z" fill="#1B3139"/>
<path d="M42.8 97.8C39.1 97.8 36.1 94.8 36.1 91.1V84.7C36.1 81 39.1 78 42.8 78C46.5 78 49.5 81 49.5 84.7V91.1C49.6 94.8 46.5 97.8 42.8 97.8ZM42.8 81C40.8 81 39.1 82.7 39.1 84.7V91.1C39.1 93.1 40.8 94.8 42.8 94.8C44.8 94.8 46.5 93.1 46.5 91.1V84.7C46.6 82.7 44.9 81 42.8 81Z" fill="#1B3139"/>
<path d="M59.1 97.2H56.1V81H52.6V78H59.1V97.2Z" fill="#1B3139"/>
<path d="M87.7 97.2H84.7V81H81.1V78H87.7V97.2Z" fill="#1B3139"/>
</svg>
