<svg width="150" height="150" viewBox="0 0 150 150" fill="none" xmlns="http://www.w3.org/2000/svg">
<path d="M44.5601 84.4039L91.7782 113.506C94.2837 109.073 99.1019 106.182 104.691 106.182C112.785 106.182 119.531 112.735 119.531 121.022C119.531 129.117 112.978 135.862 104.691 135.862C99.2946 135.862 94.4764 132.971 91.7782 128.538" stroke="white" stroke-width="3" stroke-miterlimit="10"/>
<path d="M45.1382 70.5264L95.2472 39.6901" stroke="white" stroke-width="3" stroke-miterlimit="10"/>
<path d="M108.16 47.2069C116.356 47.2069 123 40.5629 123 32.367C123 24.1711 116.356 17.527 108.16 17.527C99.9642 17.527 93.3201 24.1711 93.3201 32.367C93.3201 40.5629 99.9642 47.2069 108.16 47.2069Z" stroke="white" stroke-width="3" stroke-miterlimit="10"/>
<path d="M31.84 91.7265C40.0359 91.7265 46.68 85.0824 46.68 76.8865C46.68 68.6906 40.0359 62.0465 31.84 62.0465C23.6441 62.0465 17 68.6906 17 76.8865C17 85.0824 23.6441 91.7265 31.84 91.7265Z" stroke="white" stroke-width="3" stroke-miterlimit="10"/>
</svg>
