<svg width="150" height="150" viewBox="0 0 150 150" fill="none" xmlns="http://www.w3.org/2000/svg">
<path d="M44.5601 84.4038L91.7782 113.506C94.2836 109.073 99.1018 106.182 104.691 106.182C112.785 106.182 119.531 112.735 119.531 121.022C119.531 129.116 112.978 135.862 104.691 135.862C99.2945 135.862 94.4764 132.971 91.7782 128.538" stroke="#FF5F46" stroke-width="3" stroke-miterlimit="10"/>
<path d="M45.1382 70.5263L95.2472 39.6899" stroke="#FF5F46" stroke-width="3" stroke-miterlimit="10"/>
<path d="M108.16 47.2068C116.356 47.2068 123 40.5627 123 32.3668C123 24.1709 116.356 17.5269 108.16 17.5269C99.9642 17.5269 93.3201 24.1709 93.3201 32.3668C93.3201 40.5627 99.9642 47.2068 108.16 47.2068Z" stroke="#FF5F46" stroke-width="3" stroke-miterlimit="10"/>
<path d="M31.84 91.7263C40.0359 91.7263 46.68 85.0823 46.68 76.8864C46.68 68.6905 40.0359 62.0464 31.84 62.0464C23.6441 62.0464 17 68.6905 17 76.8864C17 85.0823 23.6441 91.7263 31.84 91.7263Z" stroke="#FF5F46" stroke-width="3" stroke-miterlimit="10"/>
</svg>
