<svg width="150" height="150" viewBox="0 0 150 150" fill="none" xmlns="http://www.w3.org/2000/svg">
<g clip-path="url(#clip0_1_1994)">
<path d="M119.2 98.5996C119.2 92.4996 114.3 87.5996 108.2 87.5996C102.1 87.5996 97.2 92.4996 97.2 98.5996C97.2 104.7 102.1 109.6 108.2 109.6C114.3 109.6 119.2 104.7 119.2 98.5996ZM100.2 98.5996C100.2 94.1996 103.8 90.5996 108.2 90.5996C112.6 90.5996 116.2 94.1996 116.2 98.5996C116.2 103 112.6 106.6 108.2 106.6C103.8 106.6 100.2 103 100.2 98.5996Z" fill="#1B3139"/>
<path d="M130.5 88.1997L134 82.0997L124.7 72.7997L118.6 76.2997C117.9 75.9997 117.3 75.6997 116.6 75.4997L114.8 68.6997H101.6L99.8 75.4997C99.1 75.7997 98.4 75.9997 97.8 76.2997L91.7 72.7997L82.4 82.0997L85.9 88.1997L85.8 88.2997C85.5 88.8997 85.2 89.4997 85 90.1997L78.2 91.9997V98.5997V105.2L85 107C85.2 107.7 85.5 108.4 85.8 109L83.6 112.8L86.2 114.3L89.2 109.1L88.8 108.4C88.3 107.4 87.9 106.4 87.5 105.3L87.3 104.5L81.2 102.9V94.2997L87.3 92.6997L87.5 91.8997C87.6 91.6997 87.6 91.5997 87.7 91.3997C88 90.4997 88.4 89.5997 88.8 88.7997L89.2 88.0997L86.1 82.5997L92.2 76.4997L97.7 79.6997L98.4 79.2997C99.4 78.7997 100.4 78.3997 101.5 77.9997L102.3 77.7997L102.5 76.9997L103.9 71.6997H112.5L114.1 77.7997L114.9 77.9997C116 78.2997 117 78.7997 118 79.2997L118.7 79.6997L124.2 76.4997L130.3 82.5997L127.1 88.0997L127.5 88.7997C128 89.7997 128.4 90.7997 128.8 91.8997L129 92.6997L135.1 94.2997V102.9L128.9 104.5L128.7 105.3C128.4 106.4 127.9 107.4 127.4 108.4L127 109.1L130.2 114.6L124.1 120.7L118.6 117.5L117.9 117.9C116.9 118.4 115.9 118.9 114.8 119.2L114 119.5L112.4 125.6H103.8L102.1 119.1H81.1L81 119C78.8 117.3 76.3 115.5 71.5 115.5C66.7 115.5 64.2 117.4 62 119C59.8 120.6 58.1 121.9 54.3 121.9C50.5 121.9 48.7 120.6 46.6 119C44.5 117.4 41.9 115.5 37.1 115.5C32.3 115.5 29.8 117.4 27.6 119C25.4 120.6 23.7 121.9 19.9 121.9C18.2 122 16.4 121.6 14.9 120.8V110C16.5 110.6 18.2 110.9 19.9 110.8C24.7 110.8 27.2 108.9 29.4 107.3C31.6 105.7 33.3 104.4 37.1 104.4C40.9 104.4 42.7 105.8 44.8 107.3C46.9 108.8 49.5 110.8 54.3 110.8C59.1 110.8 61.6 108.9 63.8 107.3C66 105.7 67.7 104.4 71.5 104.4C71.9 104.4 72.4 104.4 72.8 104.5L73.1 101.5C72.6 101.5 72.1 101.4 71.5 101.4C66.7 101.4 64.2 103.3 62 104.9C59.8 106.5 58.1 107.8 54.3 107.8C50.5 107.8 48.7 106.5 46.6 104.9C44.5 103.3 41.9 101.4 37.1 101.4C32.3 101.4 29.8 103.3 27.6 104.9C25.4 106.5 23.7 107.8 19.9 107.8C18.2 107.9 16.4 107.5 14.9 106.7V95.9997C16.5 96.5997 18.2 96.8997 19.9 96.7997C24.7 96.7997 27.2 94.8997 29.4 93.2997C31.6 91.6997 33.3 90.3997 37.1 90.3997C40.9 90.3997 42.7 91.7997 44.8 93.2997C46.9 94.7997 49.5 96.7997 54.3 96.7997C59.1 96.7997 61.6 94.8997 63.8 93.2997C66 91.6997 67.7 90.3997 71.5 90.3997C71.9 90.3997 72.4 90.3997 72.8 90.4997L73.1 87.4997C72.6 87.4997 72.1 87.3997 71.5 87.3997C66.7 87.3997 64.2 89.2997 62 90.8997C59.8 92.4997 58.1 93.7997 54.3 93.7997C50.5 93.7997 48.7 92.4997 46.6 90.8997C44.5 89.2997 41.9 87.3997 37.1 87.3997C32.3 87.3997 29.8 89.2997 27.6 90.8997C25.4 92.4997 23.7 93.7997 19.9 93.7997C18.2 93.8997 16.4 93.4997 14.9 92.6997V79.4997H11.9V122.5L12.6 122.9C14.8 124.3 17.3 125 19.9 124.9C24.7 124.9 27.2 123 29.4 121.4C31.6 119.8 33.3 118.5 37.1 118.5C40.9 118.5 42.7 119.9 44.8 121.4C46.9 122.9 49.5 124.9 54.3 124.9C59.1 124.9 61.6 123 63.8 121.4C66 119.8 67.7 118.5 71.5 118.5C75.3 118.5 77.1 119.9 79.2 121.4L80.1 122.1H99.9L101.6 128.6H114.8L116.6 121.8C117.3 121.5 118 121.3 118.6 121L124.7 124.5L134 115.2L130.5 109.1C130.8 108.4 131.1 107.8 131.3 107.1L138.1 105.3V91.9997L131.3 90.1997C131.1 89.4997 130.8 88.7997 130.5 88.1997Z" fill="#1B3139"/>
<path d="M30.8 51.3999C30.8 57.4999 35.7 62.3999 41.8 62.3999C47.9 62.3999 52.8 57.4999 52.8 51.3999C52.8 45.2999 47.9 40.3999 41.8 40.3999C35.7 40.3999 30.8 45.2999 30.8 51.3999ZM49.8 51.3999C49.8 55.7999 46.2 59.3999 41.8 59.3999C37.4 59.3999 33.8 55.7999 33.8 51.3999C33.8 46.9999 37.4 43.3999 41.8 43.3999C46.2 43.3999 49.8 46.8999 49.8 51.3999Z" fill="#1B3139"/>
<path d="M130.2 25.0999C125.4 25.0999 122.9 26.9999 120.7 28.5999C118.5 30.1999 116.8 31.4999 113 31.4999C109.2 31.4999 107.4 30.0999 105.3 28.5999C103.2 27.0999 100.6 25.0999 95.8 25.0999C91 25.0999 88.5 26.9999 86.3 28.5999C84.1 30.1999 82.4 31.4999 78.6 31.4999C74.8 31.4999 73 30.0999 70.9 28.5999L70 27.8999H50.1L48.4 21.3999H35.2L33.4 28.1999C32.7 28.4999 32 28.6999 31.4 29.0999L25.3 25.5999L16 34.8999L19.5 40.9999C19.2 41.6999 18.9 42.2999 18.7 42.9999L11.9 44.7999V57.9999L18.7 59.7999C19 60.4999 19.2 61.0999 19.5 61.7999L16 67.8999L25.3 77.1999L31.4 73.6999C32 73.9999 32.7 74.2999 33.4 74.4999L35.2 81.2999H48.4L50.2 74.4999C50.9 74.1999 51.6 73.9999 52.2 73.6999L58.3 77.1999L67.6 67.8999L64.1 61.7999C64.1 61.7999 64.1 61.6999 64.2 61.6999C64.5 61.0999 64.8 60.3999 65 59.7999L71.8 57.9999V51.3999V44.7999L65 42.9999C64.8 42.2999 64.5 41.5999 64.2 40.9999L66.4 37.1999L63.8 35.6999L60.8 40.8999L61.2 41.5999C61.7 42.5999 62.1 43.5999 62.5 44.6999L62.7 45.4999L68.8 47.0999V55.6999L62.7 57.2999L62.5 58.0999C62.5 58.1999 62.4 58.3999 62.3 58.4999C62 59.3999 61.6 60.2999 61.2 61.1999L60.8 61.9999L64 67.4999L57.9 73.5999L52.4 70.3999L51.7 70.7999C50.7 71.2999 49.6 71.6999 48.5 72.0999L47.7 72.2999L47.5 72.9999L46.1 78.2999H37.5L35.9 72.1999L35.1 71.9999C34 71.6999 33 71.1999 32 70.6999L31.3 70.2999L25.8 73.4999L19.7 67.3999L22.9 61.8999L22.5 61.1999C22 60.1999 21.6 59.1999 21.2 58.0999L21 57.2999L14.9 55.6999V47.0999L21 45.4999L21.2 44.6999C21.5 43.5999 22 42.5999 22.5 41.5999L22.9 40.8999L19.7 35.3999L25.8 29.2999L31.3 32.4999L32 32.0999C33 31.5999 34 31.0999 35.1 30.7999L35.9 30.4999L37.5 24.3999H46.1L47.8 30.8999H68.9L69 30.9999C71.2 32.6999 73.7 34.4999 78.5 34.4999C83.3 34.4999 85.8 32.5999 88 30.9999C90.2 29.3999 91.9 28.0999 95.7 28.0999C99.5 28.0999 101.3 29.4999 103.4 30.9999C105.5 32.4999 108.1 34.4999 112.9 34.4999C117.7 34.4999 120.2 32.5999 122.4 30.9999C124.6 29.3999 126.3 28.0999 130.1 28.0999C131.8 27.9999 133.6 28.3999 135.1 29.1999V39.9999C133.5 39.3999 131.8 39.0999 130.1 39.1999C125.3 39.1999 122.8 41.0999 120.6 42.6999C118.4 44.2999 116.7 45.5999 112.9 45.5999C109.1 45.5999 107.3 44.1999 105.2 42.6999C103.1 41.1999 100.5 39.1999 95.7 39.1999C90.9 39.1999 88.4 40.9999 86.2 42.6999C84 44.3999 82.3 45.5999 78.5 45.5999C78.1 45.5999 77.6 45.5999 77.2 45.4999L76.9 48.4999C77.4 48.4999 77.9 48.5999 78.5 48.5999C83.3 48.5999 85.8 46.6999 88 45.0999C90.2 43.4999 91.9 42.1999 95.7 42.1999C99.5 42.1999 101.3 43.4999 103.4 45.0999C105.5 46.6999 108.1 48.5999 112.9 48.5999C117.7 48.5999 120.2 46.6999 122.4 45.0999C124.6 43.4999 126.3 42.1999 130.1 42.1999C131.8 42.0999 133.6 42.4999 135.1 43.2999V53.9999C133.5 53.3999 131.8 53.0999 130.1 53.1999C125.3 53.1999 122.8 55.0999 120.6 56.6999C118.4 58.2999 116.7 59.5999 112.9 59.5999C109.1 59.5999 107.3 58.1999 105.2 56.6999C103.1 55.1999 100.5 53.1999 95.7 53.1999C90.9 53.1999 88.4 55.0999 86.2 56.6999C84 58.2999 82.3 59.5999 78.5 59.5999C78.1 59.5999 77.6 59.5999 77.2 59.4999L76.9 62.4999C77.4 62.4999 77.9 62.5999 78.5 62.5999C83.3 62.5999 85.8 60.6999 88 59.0999C90.2 57.4999 91.9 56.1999 95.7 56.1999C99.5 56.1999 101.3 57.4999 103.4 59.0999C105.5 60.6999 108.1 62.5999 112.9 62.5999C117.7 62.5999 120.2 60.6999 122.4 59.0999C124.6 57.4999 126.3 56.1999 130.1 56.1999C131.8 56.0999 133.6 56.4999 135.1 57.2999V70.4999H138.1V27.4999L137.4 27.0999C135.3 25.6999 132.7 24.9999 130.2 25.0999Z" fill="#1B3139"/>
</g>
<defs>
<clipPath id="clip0_1_1994">
<rect width="150" height="150" fill="white"/>
</clipPath>
</defs>
</svg>
