<svg width="150" height="150" viewBox="0 0 150 150" fill="none" xmlns="http://www.w3.org/2000/svg">
<g clip-path="url(#clip0_214_430)">
<path d="M119.2 98.6C119.2 92.5 114.3 87.6 108.2 87.6C102.1 87.6 97.2 92.5 97.2 98.6C97.2 104.7 102.1 109.6 108.2 109.6C114.3 109.6 119.2 104.7 119.2 98.6ZM100.2 98.6C100.2 94.2 103.8 90.6 108.2 90.6C112.6 90.6 116.2 94.2 116.2 98.6C116.2 103 112.6 106.6 108.2 106.6C103.8 106.6 100.2 103 100.2 98.6Z" fill="#FF5F46"/>
<path d="M130.5 88.2L134 82.1L124.7 72.8L118.6 76.3C117.9 76 117.3 75.7 116.6 75.5L114.8 68.7H101.6L99.8 75.5C99.1 75.8 98.4 76 97.8 76.3L91.7 72.8L82.4 82.1L85.9 88.2L85.8 88.3C85.5 88.9 85.2 89.5 85 90.2L78.2 92V98.6V105.2L85 107C85.2 107.7 85.5 108.4 85.8 109L83.6 112.8L86.2 114.3L89.2 109.1L88.8 108.4C88.3 107.4 87.9 106.4 87.5 105.3L87.3 104.5L81.2 102.9V94.3L87.3 92.7L87.5 91.9C87.6 91.7 87.6 91.6 87.7 91.4C88 90.5 88.4 89.6 88.8 88.8L89.2 88.1L86.1 82.6L92.2 76.5L97.7 79.7L98.4 79.3C99.4 78.8 100.4 78.4 101.5 78L102.3 77.8L102.5 77L103.9 71.7H112.5L114.1 77.8L114.9 78C116 78.3 117 78.8 118 79.3L118.7 79.7L124.2 76.5L130.3 82.6L127.1 88.1L127.5 88.8C128 89.8 128.4 90.8 128.8 91.9L129 92.7L135.1 94.3V102.9L128.9 104.5L128.7 105.3C128.4 106.4 127.9 107.4 127.4 108.4L127 109.1L130.2 114.6L124.1 120.7L118.6 117.5L117.9 117.9C116.9 118.4 115.9 118.9 114.8 119.2L114 119.5L112.4 125.6H103.8L102.1 119.1H81.1L81 119C78.8 117.3 76.3 115.5 71.5 115.5C66.7 115.5 64.2 117.4 62 119C59.8 120.6 58.1 121.9 54.3 121.9C50.5 121.9 48.7 120.6 46.6 119C44.5 117.4 41.9 115.5 37.1 115.5C32.3 115.5 29.8 117.4 27.6 119C25.4 120.6 23.7 121.9 19.9 121.9C18.2 122 16.4 121.6 14.9 120.8V110C16.5 110.6 18.2 110.9 19.9 110.8C24.7 110.8 27.2 108.9 29.4 107.3C31.6 105.7 33.3 104.4 37.1 104.4C40.9 104.4 42.7 105.8 44.8 107.3C46.9 108.8 49.5 110.8 54.3 110.8C59.1 110.8 61.6 108.9 63.8 107.3C66 105.7 67.7 104.4 71.5 104.4C71.9 104.4 72.4 104.4 72.8 104.5L73.1 101.5C72.6 101.5 72.1 101.4 71.5 101.4C66.7 101.4 64.2 103.3 62 104.9C59.8 106.5 58.1 107.8 54.3 107.8C50.5 107.8 48.7 106.5 46.6 104.9C44.5 103.3 41.9 101.4 37.1 101.4C32.3 101.4 29.8 103.3 27.6 104.9C25.4 106.5 23.7 107.8 19.9 107.8C18.2 107.9 16.4 107.5 14.9 106.7V96C16.5 96.6 18.2 96.9 19.9 96.8C24.7 96.8 27.2 94.9 29.4 93.3C31.6 91.7 33.3 90.4 37.1 90.4C40.9 90.4 42.7 91.8 44.8 93.3C46.9 94.8 49.5 96.8 54.3 96.8C59.1 96.8 61.6 94.9 63.8 93.3C66 91.7 67.7 90.4 71.5 90.4C71.9 90.4 72.4 90.4 72.8 90.5L73.1 87.5C72.6 87.5 72.1 87.4 71.5 87.4C66.7 87.4 64.2 89.3 62 90.9C59.8 92.5 58.1 93.8 54.3 93.8C50.5 93.8 48.7 92.5 46.6 90.9C44.5 89.3 41.9 87.4 37.1 87.4C32.3 87.4 29.8 89.3 27.6 90.9C25.4 92.5 23.7 93.8 19.9 93.8C18.2 93.9 16.4 93.5 14.9 92.7V79.5H11.9V122.5L12.6 122.9C14.8 124.3 17.3 125 19.9 124.9C24.7 124.9 27.2 123 29.4 121.4C31.6 119.8 33.3 118.5 37.1 118.5C40.9 118.5 42.7 119.9 44.8 121.4C46.9 122.9 49.5 124.9 54.3 124.9C59.1 124.9 61.6 123 63.8 121.4C66 119.8 67.7 118.5 71.5 118.5C75.3 118.5 77.1 119.9 79.2 121.4L80.1 122.1H99.9L101.6 128.6H114.8L116.6 121.8C117.3 121.5 118 121.3 118.6 121L124.7 124.5L134 115.2L130.5 109.1C130.8 108.4 131.1 107.8 131.3 107.1L138.1 105.3V92L131.3 90.2C131.1 89.5 130.8 88.8 130.5 88.2Z" fill="#FF5F46"/>
<path d="M30.8 51.4C30.8 57.5 35.7 62.4 41.8 62.4C47.9 62.4 52.8 57.5 52.8 51.4C52.8 45.3 47.9 40.4 41.8 40.4C35.7 40.4 30.8 45.3 30.8 51.4ZM49.8 51.4C49.8 55.8 46.2 59.4 41.8 59.4C37.4 59.4 33.8 55.8 33.8 51.4C33.8 47 37.4 43.4 41.8 43.4C46.2 43.4 49.8 46.9 49.8 51.4Z" fill="#FF5F46"/>
<path d="M130.2 25.1C125.4 25.1 122.9 27 120.7 28.6C118.5 30.2 116.8 31.5 113 31.5C109.2 31.5 107.4 30.1 105.3 28.6C103.2 27.1 100.6 25.1 95.8 25.1C91 25.1 88.5 27 86.3 28.6C84.1 30.2 82.4 31.5 78.6 31.5C74.8 31.5 73 30.1 70.9 28.6L70 27.9H50.1L48.4 21.4H35.2L33.4 28.2C32.7 28.5 32 28.7 31.4 29.1L25.3 25.6L16 34.9L19.5 41C19.2 41.7 18.9 42.3 18.7 43L11.9 44.8V58L18.7 59.8C19 60.5 19.2 61.1 19.5 61.8L16 67.9L25.3 77.2L31.4 73.7C32 74 32.7 74.3 33.4 74.5L35.2 81.3H48.4L50.2 74.5C50.9 74.2 51.6 74 52.2 73.7L58.3 77.2L67.6 67.9L64.1 61.8C64.1 61.8 64.1 61.7 64.2 61.7C64.5 61.1 64.8 60.4 65 59.8L71.8 58V51.4V44.8L65 43C64.8 42.3 64.5 41.6 64.2 41L66.4 37.2L63.8 35.7L60.8 40.9L61.2 41.6C61.7 42.6 62.1 43.6 62.5 44.7L62.7 45.5L68.8 47.1V55.7L62.7 57.3L62.5 58.1C62.5 58.2 62.4 58.4 62.3 58.5C62 59.4 61.6 60.3 61.2 61.2L60.8 62L64 67.5L57.9 73.6L52.4 70.4L51.7 70.8C50.7 71.3 49.6 71.7 48.5 72.1L47.7 72.3L47.5 73L46.1 78.3H37.5L35.9 72.2L35.1 72C34 71.7 33 71.2 32 70.7L31.3 70.3L25.8 73.5L19.7 67.4L22.9 61.9L22.5 61.2C22 60.2 21.6 59.2 21.2 58.1L21 57.3L14.9 55.7V47.1L21 45.5L21.2 44.7C21.5 43.6 22 42.6 22.5 41.6L22.9 40.9L19.7 35.4L25.8 29.3L31.3 32.5L32 32.1C33 31.6 34 31.1 35.1 30.8L35.9 30.5L37.5 24.4H46.1L47.8 30.9H68.9L69 31C71.2 32.7 73.7 34.5 78.5 34.5C83.3 34.5 85.8 32.6 88 31C90.2 29.4 91.9 28.1 95.7 28.1C99.5 28.1 101.3 29.5 103.4 31C105.5 32.5 108.1 34.5 112.9 34.5C117.7 34.5 120.2 32.6 122.4 31C124.6 29.4 126.3 28.1 130.1 28.1C131.8 28 133.6 28.4 135.1 29.2V40C133.5 39.4 131.8 39.1 130.1 39.2C125.3 39.2 122.8 41.1 120.6 42.7C118.4 44.3 116.7 45.6 112.9 45.6C109.1 45.6 107.3 44.2 105.2 42.7C103.1 41.2 100.5 39.2 95.7 39.2C90.9 39.2 88.4 41 86.2 42.7C84 44.4 82.3 45.6 78.5 45.6C78.1 45.6 77.6 45.6 77.2 45.5L76.9 48.5C77.4 48.5 77.9 48.6 78.5 48.6C83.3 48.6 85.8 46.7 88 45.1C90.2 43.5 91.9 42.2 95.7 42.2C99.5 42.2 101.3 43.5 103.4 45.1C105.5 46.7 108.1 48.6 112.9 48.6C117.7 48.6 120.2 46.7 122.4 45.1C124.6 43.5 126.3 42.2 130.1 42.2C131.8 42.1 133.6 42.5 135.1 43.3V54C133.5 53.4 131.8 53.1 130.1 53.2C125.3 53.2 122.8 55.1 120.6 56.7C118.4 58.3 116.7 59.6 112.9 59.6C109.1 59.6 107.3 58.2 105.2 56.7C103.1 55.2 100.5 53.2 95.7 53.2C90.9 53.2 88.4 55.1 86.2 56.7C84 58.3 82.3 59.6 78.5 59.6C78.1 59.6 77.6 59.6 77.2 59.5L76.9 62.5C77.4 62.5 77.9 62.6 78.5 62.6C83.3 62.6 85.8 60.7 88 59.1C90.2 57.5 91.9 56.2 95.7 56.2C99.5 56.2 101.3 57.5 103.4 59.1C105.5 60.7 108.1 62.6 112.9 62.6C117.7 62.6 120.2 60.7 122.4 59.1C124.6 57.5 126.3 56.2 130.1 56.2C131.8 56.1 133.6 56.5 135.1 57.3V70.5H138.1V27.5L137.4 27.1C135.3 25.7 132.7 25 130.2 25.1Z" fill="#FF5F46"/>
</g>
<defs>
<clipPath id="clip0_214_430">
<rect width="150" height="150" fill="white"/>
</clipPath>
</defs>
</svg>
