<svg width="150" height="150" viewBox="0 0 150 150" fill="none" xmlns="http://www.w3.org/2000/svg">
<path d="M109 80.6101H96.61V96.9101H109V80.6101ZM106 93.9101H99.61V83.6101H106V93.9101Z" fill="#FF5F46"/>
<path d="M90 80.6101H77.6V96.9101H90V80.6101ZM87 93.9101H80.6V83.6101H87V93.9101Z" fill="#FF5F46"/>
<path d="M96.61 119.77H109V103.46H96.61V119.77ZM99.61 106.46H106V116.77H99.61V106.46Z" fill="#FF5F46"/>
<path d="M77.6 119.77H90V103.46H77.6V119.77ZM80.6 106.46H87V116.77H80.6V106.46Z" fill="#FF5F46"/>
<path d="M77.6 34.8101V51.1201H90V34.8101H77.6ZM87 48.1201H80.6V37.8101H87V48.1201Z" fill="#FF5F46"/>
<path d="M80.59 60.6699H87V66.9999H90V57.6699H77.59V73.9999H116V126.27H77.52V129.27H130.91V70.9999H80.59V60.6699ZM127.91 126.24H119V73.9999H127.88L127.91 126.24Z" fill="#FF5F46"/>
<path d="M60.53 80.53H48.14V96.83H60.53V80.53ZM57.53 93.83H51.14V83.53H57.53V93.83Z" fill="#FF5F46"/>
<path d="M29.13 96.83H41.52V80.53H29.13V96.83ZM32.13 83.53H38.52V93.83H32.13V83.53Z" fill="#FF5F46"/>
<path d="M48.14 119.69H60.53V103.38H48.14V119.69ZM51.14 106.38H57.53V116.69H51.14V106.38Z" fill="#FF5F46"/>
<path d="M29.13 129.24H70.56V23.76H96.61V66.33H99.61V20.76H67.61V126.24H41.61V103.38H29.13V126.24H22.13V23.76H61.13V20.76H19.13V129.24H29.13ZM32.13 106.38H38.52V126.24H32.13V106.38Z" fill="#FF5F46"/>
<path d="M41.52 57.6699H29.13V73.9999H41.52V57.6699ZM38.52 70.9699H32.13V60.6699H38.52V70.9699Z" fill="#FF5F46"/>
<path d="M41.52 34.8101H29.13V51.1201H41.52V34.8101ZM38.52 48.1201H32.13V37.8101H38.52V48.1201Z" fill="#FF5F46"/>
<path d="M60.53 57.6699H48.14V73.9999H60.53V57.6699ZM57.53 70.9699H51.14V60.6699H57.53V70.9699Z" fill="#FF5F46"/>
<path d="M60.53 34.8101H48.14V51.1201H60.53V34.8101ZM57.53 48.1201H51.14V37.8101H57.53V48.1201Z" fill="#FF5F46"/>
</svg>
