<svg width="150" height="150" viewBox="0 0 150 150" fill="none" xmlns="http://www.w3.org/2000/svg">
<path d="M109 80.61H96.61V96.91H109V80.61ZM106 93.91H99.61V83.61H106V93.91Z" fill="#1B3139"/>
<path d="M90 80.61H77.6V96.91H90V80.61ZM87 93.91H80.6V83.61H87V93.91Z" fill="#1B3139"/>
<path d="M96.61 119.77H109V103.46H96.61V119.77ZM99.61 106.46H106V116.77H99.61V106.46Z" fill="#1B3139"/>
<path d="M77.6 119.77H90V103.46H77.6V119.77ZM80.6 106.46H87V116.77H80.6V106.46Z" fill="#1B3139"/>
<path d="M77.6 34.81V51.12H90V34.81H77.6ZM87 48.12H80.6V37.81H87V48.12Z" fill="#1B3139"/>
<path d="M80.59 60.67H87V67H90V57.67H77.59V74H116V126.27H77.52V129.27H130.91V71H80.59V60.67ZM127.91 126.24H119V74H127.88L127.91 126.24Z" fill="#1B3139"/>
<path d="M60.53 80.53H48.14V96.83H60.53V80.53ZM57.53 93.83H51.14V83.53H57.53V93.83Z" fill="#1B3139"/>
<path d="M29.13 96.83H41.52V80.53H29.13V96.83ZM32.13 83.53H38.52V93.83H32.13V83.53Z" fill="#1B3139"/>
<path d="M48.14 119.69H60.53V103.38H48.14V119.69ZM51.14 106.38H57.53V116.69H51.14V106.38Z" fill="#1B3139"/>
<path d="M29.13 129.24H70.56V23.76H96.61V66.33H99.61V20.76H67.61V126.24H41.61V103.38H29.13V126.24H22.13V23.76H61.13V20.76H19.13V129.24H29.13ZM32.13 106.38H38.52V126.24H32.13V106.38Z" fill="#1B3139"/>
<path d="M41.52 57.67H29.13V74H41.52V57.67ZM38.52 70.97H32.13V60.67H38.52V70.97Z" fill="#1B3139"/>
<path d="M41.52 34.81H29.13V51.12H41.52V34.81ZM38.52 48.12H32.13V37.81H38.52V48.12Z" fill="#1B3139"/>
<path d="M60.53 57.67H48.14V74H60.53V57.67ZM57.53 70.97H51.14V60.67H57.53V70.97Z" fill="#1B3139"/>
<path d="M60.53 34.81H48.14V51.12H60.53V34.81ZM57.53 48.12H51.14V37.81H57.53V48.12Z" fill="#1B3139"/>
</svg>
