<svg width="512" height="512" viewBox="0 0 512 512" fill="none" xmlns="http://www.w3.org/2000/svg">
<path d="M256 448C149.961 448 64 362.039 64 256L64.7324 256C170.771 256 256.735 341.962 256.735 448C256.736 342.207 342.3 256.399 448 256.003C447.862 256.002 447.725 256.001 447.587 256L448 256L448 448L256 448Z" fill="#C4CCD6"/>
<path d="M256.733 64.0019C256.732 170.04 170.77 256 64.7324 256L64 256L64 64L256 64C256.245 64 256.489 64.001 256.733 64.0019ZM447.61 256C342.09 255.395 256.735 169.665 256.734 64.0019C362.435 64.398 448 150.206 448 256L447.61 256Z" fill="#618794"/>
</svg>
