<svg width="150" height="150" viewBox="0 0 150 150" fill="none" xmlns="http://www.w3.org/2000/svg">
<path d="M84.97 100.06C84.97 94.5601 80.5 90.0901 75 90.0901C69.5 90.0901 65.03 94.5601 65.03 100.06C65.03 105.56 69.5 110.03 75 110.03C80.5 110.03 84.97 105.56 84.97 100.06ZM75 107.04C71.16 107.04 68.03 103.91 68.03 100.07C68.03 96.2301 71.16 93.1001 75 93.1001C78.84 93.1001 81.97 96.2301 81.97 100.07C81.97 103.91 78.84 107.04 75 107.04Z" fill="#FF5F46"/>
<path d="M108.7 64.7301H94.3501L92.9201 64.7401L63.5701 64.7301V42.6301C63.5701 36.4601 68.5901 31.4401 74.7601 31.4401H75.2401C81.4101 31.4401 86.4301 36.4601 86.4301 42.6301V57.2201H89.4301V42.6301C89.4301 34.8101 83.0601 28.4401 75.2401 28.4401H74.7601C66.9401 28.4401 60.5701 34.8101 60.5701 42.6301V67.7301H108.71C111.19 67.7301 113.21 69.7501 113.21 72.2301V127.89C113.21 130.37 111.19 132.39 108.71 132.39L82.0901 132.4V121.49C91.2601 118.47 97.5601 109.82 97.5601 100.06C97.5601 94.0801 95.2501 88.4401 91.0501 84.2001C89.4901 82.6301 87.7701 81.3301 85.9301 80.3301C81.5801 77.9001 76.6301 77.0001 71.6201 77.7301C61.5701 79.2001 53.7401 87.3001 52.5901 97.4101C51.3601 108.22 57.7501 118.16 67.9001 121.49V132.41H41.3001C38.8201 132.41 36.8001 130.39 36.8001 127.91V72.2401C36.8001 69.7601 38.8201 67.7401 41.3001 67.7401L50.3601 67.7301V41.9601C50.3601 28.5201 61.3001 17.5901 74.7401 17.5901H75.2601C88.7001 17.5901 99.6401 28.5201 99.6401 41.9601V57.2901H102.64V41.9601C102.64 26.8701 90.3601 14.5901 75.2601 14.5901H74.7401C59.6401 14.5901 47.3601 26.8701 47.3601 41.9601V64.7301L41.3001 64.7401C37.1701 64.7401 33.8101 68.1101 33.8101 72.2401V127.91C33.8101 132.05 37.1701 135.41 41.3101 135.41H70.9101V119.23L69.8101 118.93C60.4601 116.37 54.4801 107.47 55.5801 97.7501C56.5801 88.9901 63.3601 81.9801 72.0801 80.7001C76.4301 80.0601 80.7201 80.8401 84.5101 82.9601C86.1001 83.8301 87.6001 84.9601 88.9401 86.3101C92.5801 89.9901 94.5801 94.8801 94.5801 100.06C94.5801 108.86 88.6701 116.61 80.2101 118.93L79.7301 119.06L79.4801 119.38L79.1101 119.75V133.89V135.39L108.73 135.38C112.86 135.38 116.23 132.01 116.23 127.88V72.2301C116.2 68.1001 112.84 64.7301 108.7 64.7301Z" fill="#FF5F46"/>
</svg>
