<svg width="150" height="150" viewBox="0 0 150 150" fill="none" xmlns="http://www.w3.org/2000/svg">
<path d="M84.97 100.06C84.97 94.56 80.5 90.09 75 90.09C69.5 90.09 65.03 94.56 65.03 100.06C65.03 105.56 69.5 110.03 75 110.03C80.5 110.03 84.97 105.56 84.97 100.06ZM75 107.04C71.16 107.04 68.03 103.91 68.03 100.07C68.03 96.23 71.16 93.1 75 93.1C78.84 93.1 81.97 96.23 81.97 100.07C81.97 103.91 78.84 107.04 75 107.04Z" fill="white"/>
<path d="M108.7 64.73H94.35L92.92 64.74L63.57 64.73V42.63C63.57 36.46 68.59 31.44 74.76 31.44H75.24C81.41 31.44 86.43 36.46 86.43 42.63V57.22H89.43V42.63C89.43 34.81 83.06 28.44 75.24 28.44H74.76C66.94 28.44 60.57 34.81 60.57 42.63V67.73H108.71C111.19 67.73 113.21 69.75 113.21 72.23V127.89C113.21 130.37 111.19 132.39 108.71 132.39L82.09 132.4V121.49C91.26 118.47 97.56 109.82 97.56 100.06C97.56 94.08 95.25 88.44 91.05 84.2C89.49 82.63 87.77 81.33 85.93 80.33C81.58 77.9 76.63 77 71.62 77.73C61.57 79.2 53.74 87.3 52.59 97.41C51.36 108.22 57.75 118.16 67.9 121.49V132.41H41.3C38.82 132.41 36.8 130.39 36.8 127.91V72.24C36.8 69.76 38.82 67.74 41.3 67.74L50.36 67.73V41.96C50.36 28.52 61.3 17.59 74.74 17.59H75.26C88.7 17.59 99.64 28.52 99.64 41.96V57.29H102.64V41.96C102.64 26.87 90.36 14.59 75.26 14.59H74.74C59.64 14.59 47.36 26.87 47.36 41.96V64.73L41.3 64.74C37.17 64.74 33.81 68.11 33.81 72.24V127.91C33.81 132.05 37.17 135.41 41.31 135.41H70.91V119.23L69.81 118.93C60.46 116.37 54.48 107.47 55.58 97.75C56.58 88.99 63.36 81.98 72.08 80.7C76.43 80.06 80.72 80.84 84.51 82.96C86.1 83.83 87.6 84.96 88.94 86.31C92.58 89.99 94.58 94.88 94.58 100.06C94.58 108.86 88.67 116.61 80.21 118.93L79.73 119.06L79.48 119.38L79.11 119.75V133.89V135.39L108.73 135.38C112.86 135.38 116.23 132.01 116.23 127.88V72.23C116.2 68.1 112.84 64.73 108.7 64.73Z" fill="white"/>
</svg>
