<svg width="150" height="150" viewBox="0 0 150 150" fill="none" xmlns="http://www.w3.org/2000/svg">
<path d="M112.1 23.2002H37.9C28 23.2002 20 31.2002 20 41.1002V81.9002H23V41.2002C23 33.0002 29.7 26.3002 37.9 26.3002H112C120.2 26.3002 126.9 33.0002 126.9 41.2002V82.0002H129.9V41.2002C130 31.3002 122 23.2002 112.1 23.2002Z" fill="#FF5F46"/>
<path d="M104.7 77.8003H75.4001V73.5003C75.4001 70.3003 78 67.7003 81.2 67.7003H94.6001C99.4001 67.7003 103.4 63.8003 103.4 58.9003C103.4 54.0003 99.5001 50.1003 94.6001 50.1003H50.7001C47.5 50.1003 44.9001 47.5003 44.9001 44.3003V37.3003H41.9001V44.3003C41.9001 49.1003 45.8001 53.1003 50.7001 53.1003H94.6001C97.8 53.1003 100.4 55.7003 100.4 58.9003C100.4 62.1003 97.8 64.7003 94.6001 64.7003H81.1C76.3 64.7003 72.3001 68.6003 72.3001 73.5003V77.8003H44.5C31.2 78.2003 20.8 89.0003 20.8 102.3C20.8 115.8 31.8 126.8 45.3 126.8C56 126.8 65.4 119.8 68.6 109.7H81.3001C84.5001 119.8 93.9001 126.8 104.6 126.8C118.1 126.8 129.1 115.8 129.1 102.3C129.1 88.8003 118.2 77.8003 104.7 77.8003ZM104.7 123.8C95 123.8 86.4001 117.2 83.9001 107.8L83.6 106.7H66.4001L66.1 107.8C63.6 117.2 55.1 123.8 45.3 123.8C33.4 123.8 23.8 114.2 23.8 102.3C23.8 90.6003 32.9 81.2003 44.6 80.8003H104.7C116.6 80.8003 126.2 90.4003 126.2 102.3C126.2 114.2 116.5 123.8 104.7 123.8Z" fill="#FF5F46"/>
<path d="M51.7 87.4004H39.7V95.2004H32V107.1H39.7V114.9H50.2V111.9H42.7V104.1H35V98.2004H42.7V90.4004H48.7V98.2004H56.4V104.1H50.2V107.1H59.4V95.2004H51.7V87.4004Z" fill="#FF5F46"/>
<path d="M96.8 94.8003C93.5 94.8003 90.8 97.5003 90.8 100.8C90.8 104.1 93.5 106.8 96.8 106.8C100.1 106.8 102.8 104.1 102.8 100.8C102.7 97.5003 100 94.8003 96.8 94.8003ZM96.8 103.7C95.2 103.7 93.8 102.4 93.8 100.7C93.8 99.1003 95.1 97.7003 96.8 97.7003C98.4 97.7003 99.8 99.0003 99.8 100.7C99.7 102.4 98.4 103.7 96.8 103.7Z" fill="#FF5F46"/>
<path d="M112.1 94.8003C108.8 94.8003 106.1 97.5003 106.1 100.8C106.1 104.1 108.8 106.8 112.1 106.8C115.4 106.8 118.1 104.1 118.1 100.8C118 97.5003 115.4 94.8003 112.1 94.8003ZM112.1 103.7C110.5 103.7 109.1 102.4 109.1 100.7C109.1 99.1003 110.4 97.7003 112.1 97.7003C113.7 97.7003 115.1 99.0003 115.1 100.7C115 102.4 113.7 103.7 112.1 103.7Z" fill="#FF5F46"/>
</svg>
