<svg width="150" height="150" viewBox="0 0 150 150" fill="none" xmlns="http://www.w3.org/2000/svg">
<path d="M112.1 23.2H37.9C28 23.2 20 31.1999 20 41.0999V81.9H23V41.2C23 33 29.7 26.2999 37.9 26.2999H112C120.2 26.2999 126.9 33 126.9 41.2V82H129.9V41.2C130 31.3 122 23.2 112.1 23.2Z" fill="#1B3139"/>
<path d="M104.7 77.7999H75.4V73.4999C75.4 70.2999 78 67.6999 81.2 67.6999H94.6C99.4 67.6999 103.4 63.7999 103.4 58.8999C103.4 53.9999 99.5 50.0999 94.6 50.0999H50.7C47.5 50.0999 44.9 47.4999 44.9 44.2999V37.2999H41.9V44.2999C41.9 49.0999 45.8 53.0999 50.7 53.0999H94.6C97.8 53.0999 100.4 55.6999 100.4 58.8999C100.4 62.0999 97.8 64.6999 94.6 64.6999H81.1C76.3 64.6999 72.3 68.5999 72.3 73.4999V77.7999H44.5C31.2 78.1999 20.8 88.9999 20.8 102.3C20.8 115.8 31.8 126.8 45.3 126.8C56 126.8 65.4 119.8 68.6 109.7H81.3C84.5 119.8 93.9 126.8 104.6 126.8C118.1 126.8 129.1 115.8 129.1 102.3C129.1 88.7999 118.2 77.7999 104.7 77.7999ZM104.7 123.8C95 123.8 86.4 117.2 83.9 107.8L83.6 106.7H66.4L66.1 107.8C63.6 117.2 55.1 123.8 45.3 123.8C33.4 123.8 23.8 114.2 23.8 102.3C23.8 90.5999 32.9 81.1999 44.6 80.7999H104.7C116.6 80.7999 126.2 90.3999 126.2 102.3C126.2 114.2 116.5 123.8 104.7 123.8Z" fill="#1B3139"/>
<path d="M51.7 87.3999H39.7V95.1999H32V107.1H39.7V114.9H50.2V111.9H42.7V104.1H35V98.1999H42.7V90.3999H48.7V98.1999H56.4V104.1H50.2V107.1H59.4V95.1999H51.7V87.3999Z" fill="#1B3139"/>
<path d="M96.8 94.7999C93.5 94.7999 90.8 97.4999 90.8 100.8C90.8 104.1 93.5 106.8 96.8 106.8C100.1 106.8 102.8 104.1 102.8 100.8C102.7 97.4999 100 94.7999 96.8 94.7999ZM96.8 103.7C95.2 103.7 93.8 102.4 93.8 100.7C93.8 99.0999 95.1 97.6999 96.8 97.6999C98.4 97.6999 99.8 98.9999 99.8 100.7C99.7 102.4 98.4 103.7 96.8 103.7Z" fill="#1B3139"/>
<path d="M112.1 94.7999C108.8 94.7999 106.1 97.4999 106.1 100.8C106.1 104.1 108.8 106.8 112.1 106.8C115.4 106.8 118.1 104.1 118.1 100.8C118 97.4999 115.4 94.7999 112.1 94.7999ZM112.1 103.7C110.5 103.7 109.1 102.4 109.1 100.7C109.1 99.0999 110.4 97.6999 112.1 97.6999C113.7 97.6999 115.1 98.9999 115.1 100.7C115 102.4 113.7 103.7 112.1 103.7Z" fill="#1B3139"/>
</svg>
