<svg width="150" height="150" viewBox="0 0 150 150" fill="none" xmlns="http://www.w3.org/2000/svg">
<g clip-path="url(#clip0_1_2006)">
<path fill-rule="evenodd" clip-rule="evenodd" d="M98.6607 54.8394L108.421 64.6L98.6607 74.3607L96.5394 72.2394L104.179 64.6L96.5394 56.9607L98.6607 54.8394Z" fill="#1B3139"/>
<path fill-rule="evenodd" clip-rule="evenodd" d="M58.2768 82.106L60.5233 84.0942L53.7586 91.7374L61.4607 99.4394L59.3393 101.561L49.6414 91.8628L58.2768 82.106Z" fill="#1B3139"/>
<path fill-rule="evenodd" clip-rule="evenodd" d="M26.4 20.2002C22.9758 20.2002 20.2 22.976 20.2 26.4002C20.2 29.8244 22.9758 32.6002 26.4 32.6002C29.8242 32.6002 32.6 29.8244 32.6 26.4002C32.6 22.976 29.8242 20.2002 26.4 20.2002ZM17.2 26.4002C17.2 21.3192 21.319 17.2002 26.4 17.2002C31.481 17.2002 35.6 21.3192 35.6 26.4002C35.6 31.4812 31.481 35.6002 26.4 35.6002C21.319 35.6002 17.2 31.4812 17.2 26.4002Z" fill="#1B3139"/>
<path fill-rule="evenodd" clip-rule="evenodd" d="M83.7 116.3C80.2758 116.3 77.5 119.076 77.5 122.5C77.5 125.924 80.2758 128.7 83.7 128.7C87.1242 128.7 89.9 125.924 89.9 122.5C89.9 119.076 87.1242 116.3 83.7 116.3ZM74.5 122.5C74.5 117.419 78.619 113.3 83.7 113.3C88.781 113.3 92.9 117.419 92.9 122.5C92.9 127.581 88.781 131.7 83.7 131.7C78.619 131.7 74.5 127.581 74.5 122.5Z" fill="#1B3139"/>
<path fill-rule="evenodd" clip-rule="evenodd" d="M122.6 20.2002C119.176 20.2002 116.4 22.976 116.4 26.4002C116.4 29.8244 119.176 32.6002 122.6 32.6002C126.024 32.6002 128.8 29.8244 128.8 26.4002C128.8 22.976 126.024 20.2002 122.6 20.2002ZM113.4 26.4002C113.4 21.3192 117.519 17.2002 122.6 17.2002C127.681 17.2002 131.8 21.3192 131.8 26.4002C131.8 31.4812 127.681 35.6002 122.6 35.6002C117.519 35.6002 113.4 31.4812 113.4 26.4002Z" fill="#1B3139"/>
<path fill-rule="evenodd" clip-rule="evenodd" d="M121 87.5001V34.1001H124V87.5001C124 90.7285 121.428 93.3001 118.2 93.3001H51.7V90.3001H118.2C119.772 90.3001 121 89.0717 121 87.5001Z" fill="#1B3139"/>
<path fill-rule="evenodd" clip-rule="evenodd" d="M34.1 24.9004H60.3C64.4284 24.9004 67.8 28.272 67.8 32.4004V58.6004C67.8 61.072 69.8284 63.1004 72.3 63.1004H106.3V66.1004H72.3C68.1716 66.1004 64.8 62.7288 64.8 58.6004V32.4004C64.8 29.9288 62.7716 27.9004 60.3 27.9004H34.1V24.9004Z" fill="#1B3139"/>
<path fill-rule="evenodd" clip-rule="evenodd" d="M89.7 27.9004C87.2284 27.9004 85.2 29.9288 85.2 32.4004V55.9004H82.2V32.4004C82.2 28.272 85.5716 24.9004 89.7 24.9004H114.9V27.9004H89.7Z" fill="#1B3139"/>
<path fill-rule="evenodd" clip-rule="evenodd" d="M58.7726 122.506L51.0454 114.867L53.1546 112.733L63.0274 122.494L53.1607 132.361L51.0393 130.239L58.7726 122.506Z" fill="#1B3139"/>
<path fill-rule="evenodd" clip-rule="evenodd" d="M122.5 102.379L132.261 112.14L130.139 114.261L122.5 106.622L114.861 114.261L112.739 112.14L122.5 102.379Z" fill="#1B3139"/>
<path fill-rule="evenodd" clip-rule="evenodd" d="M121.1 116.6V104.5H124.1V116.6C124.1 120.728 120.728 124.1 116.6 124.1H91.4V121.1H116.6C119.072 121.1 121.1 119.072 121.1 116.6Z" fill="#1B3139"/>
<path fill-rule="evenodd" clip-rule="evenodd" d="M35.5 42.6865L41.0008 53.9326L53.3191 55.762L44.4164 64.4208L46.6153 76.7593L34.8002 70.5271L36.1998 67.8736L42.5847 71.2415L41.1836 63.38L46.881 57.8388L38.9992 56.6682L35.5 49.5142L31.9967 56.6766L24.1458 57.7648L29.8141 63.2778L27.9 74.2305V116.5C27.9 118.972 29.9284 121 32.4 121H60.9V124H32.4C28.2716 124 24.9 120.629 24.9 116.5V73.9703L26.586 64.323L17.6542 55.636L30.0033 53.9242L35.5 42.6865Z" fill="#1B3139"/>
<path fill-rule="evenodd" clip-rule="evenodd" d="M82.2 83.1001V64.6001H85.2V83.1001H82.2Z" fill="#1B3139"/>
<path fill-rule="evenodd" clip-rule="evenodd" d="M82.2 114.9V91.8003H85.2V114.9H82.2Z" fill="#1B3139"/>
</g>
<defs>
<clipPath id="clip0_1_2006">
<rect width="150" height="150" fill="white"/>
</clipPath>
</defs>
</svg>
