<svg width="150" height="150" viewBox="0 0 150 150" fill="none" xmlns="http://www.w3.org/2000/svg">
<g clip-path="url(#clip0_214_411)">
<path fill-rule="evenodd" clip-rule="evenodd" d="M98.6606 54.8393L108.421 64.6L98.6606 74.3606L96.5393 72.2393L104.179 64.6L96.5393 56.9606L98.6606 54.8393Z" fill="#FF5F46"/>
<path fill-rule="evenodd" clip-rule="evenodd" d="M58.2767 82.1058L60.5232 84.0941L53.7586 91.7373L61.4606 99.4393L59.3393 101.561L49.6414 91.8627L58.2767 82.1058Z" fill="#FF5F46"/>
<path fill-rule="evenodd" clip-rule="evenodd" d="M26.4 20.2C22.9758 20.2 20.2 22.9758 20.2 26.4C20.2 29.8241 22.9758 32.5999 26.4 32.5999C29.8241 32.5999 32.5999 29.8241 32.5999 26.4C32.5999 22.9758 29.8241 20.2 26.4 20.2ZM17.2 26.4C17.2 21.3189 21.3189 17.2 26.4 17.2C31.481 17.2 35.5999 21.3189 35.5999 26.4C35.5999 31.481 31.481 35.5999 26.4 35.5999C21.3189 35.5999 17.2 31.481 17.2 26.4Z" fill="#FF5F46"/>
<path fill-rule="evenodd" clip-rule="evenodd" d="M83.7 116.3C80.2758 116.3 77.5 119.076 77.5 122.5C77.5 125.924 80.2758 128.7 83.7 128.7C87.1242 128.7 89.9 125.924 89.9 122.5C89.9 119.076 87.1242 116.3 83.7 116.3ZM74.5 122.5C74.5 117.419 78.619 113.3 83.7 113.3C88.781 113.3 92.9 117.419 92.9 122.5C92.9 127.581 88.781 131.7 83.7 131.7C78.619 131.7 74.5 127.581 74.5 122.5Z" fill="#FF5F46"/>
<path fill-rule="evenodd" clip-rule="evenodd" d="M122.6 20.2C119.176 20.2 116.4 22.9758 116.4 26.4C116.4 29.8241 119.176 32.5999 122.6 32.5999C126.024 32.5999 128.8 29.8241 128.8 26.4C128.8 22.9758 126.024 20.2 122.6 20.2ZM113.4 26.4C113.4 21.3189 117.519 17.2 122.6 17.2C127.681 17.2 131.8 21.3189 131.8 26.4C131.8 31.481 127.681 35.5999 122.6 35.5999C117.519 35.5999 113.4 31.481 113.4 26.4Z" fill="#FF5F46"/>
<path fill-rule="evenodd" clip-rule="evenodd" d="M121 87.5V34.1H124V87.5C124 90.7284 121.428 93.3 118.2 93.3H51.7V90.3H118.2C119.772 90.3 121 89.0715 121 87.5Z" fill="#FF5F46"/>
<path fill-rule="evenodd" clip-rule="evenodd" d="M34.1 24.9H60.3C64.4284 24.9 67.8 28.2715 67.8 32.4V58.6C67.8 61.0715 69.8284 63.1 72.3 63.1H106.3V66.1H72.3C68.1716 66.1 64.8 62.7284 64.8 58.6V32.4C64.8 29.9284 62.7715 27.9 60.3 27.9H34.1V24.9Z" fill="#FF5F46"/>
<path fill-rule="evenodd" clip-rule="evenodd" d="M89.7 27.9C87.2284 27.9 85.2 29.9284 85.2 32.4V55.9H82.2V32.4C82.2 28.2715 85.5715 24.9 89.7 24.9H114.9V27.9H89.7Z" fill="#FF5F46"/>
<path fill-rule="evenodd" clip-rule="evenodd" d="M58.7726 122.506L51.0454 114.867L53.1545 112.733L63.0274 122.494L53.1606 132.361L51.0393 130.239L58.7726 122.506Z" fill="#FF5F46"/>
<path fill-rule="evenodd" clip-rule="evenodd" d="M122.5 102.379L132.261 112.139L130.139 114.261L122.5 106.621L114.861 114.261L112.739 112.139L122.5 102.379Z" fill="#FF5F46"/>
<path fill-rule="evenodd" clip-rule="evenodd" d="M121.1 116.6V104.5H124.1V116.6C124.1 120.728 120.728 124.1 116.6 124.1H91.3999V121.1H116.6C119.071 121.1 121.1 119.072 121.1 116.6Z" fill="#FF5F46"/>
<path fill-rule="evenodd" clip-rule="evenodd" d="M35.5 42.6861L41.0008 53.9321L53.319 55.7616L44.4164 64.4203L46.6153 76.7589L34.8002 70.5267L36.1998 67.8732L42.5847 71.241L41.1836 63.3796L46.881 57.8383L38.9992 56.6678L35.5 49.5138L31.9967 56.6761L24.1458 57.7644L29.8141 63.2773L27.9 74.23V116.5C27.9 118.972 29.9284 121 32.4 121H60.9V124H32.4C28.2716 124 24.9 120.628 24.9 116.5V73.9699L26.5859 64.3226L17.6542 55.6355L30.0033 53.9238L35.5 42.6861Z" fill="#FF5F46"/>
<path fill-rule="evenodd" clip-rule="evenodd" d="M82.2 83.1V64.6H85.2V83.1H82.2Z" fill="#FF5F46"/>
<path fill-rule="evenodd" clip-rule="evenodd" d="M82.2 114.9V91.7999H85.2V114.9H82.2Z" fill="#FF5F46"/>
</g>
<defs>
<clipPath id="clip0_214_411">
<rect width="150" height="150" fill="white"/>
</clipPath>
</defs>
</svg>
