<svg width="1988" height="558" viewBox="0 0 1988 558" fill="none" xmlns="http://www.w3.org/2000/svg">
<g filter="url(#filter0_dddddd_1117_13462)">
<path d="M148 116.336C148 77.4903 179.49 46 218.336 46H339.664C378.51 46 410 77.4903 410 116.336V237.664C410 276.51 378.51 308 339.664 308H218.336C179.49 308 148 276.51 148 237.664V116.336Z" fill="white"/>
</g>
<path d="M346.921 157.263L323.616 157.263L257.256 238.172L211.502 238.172L211.502 195.959L241.022 195.959L307.382 115.125L346.952 115.125L346.921 157.263Z" fill="#FF5F46"/>
<path d="M317.432 195.959L346.952 195.959L346.952 238.172L301.198 238.172L288.091 222.19L313.517 191.19L317.432 195.959ZM251.071 115.125L270.359 138.62L244.941 169.581L234.838 157.263L211.533 157.263L211.502 115.125L251.071 115.125Z" fill="#FABFBA"/>
<path d="M481.838 214.5V137.22H495.086V204.122H529.531V214.5H481.838ZM557.223 215.825C552.659 215.825 548.869 215.052 545.851 213.506C542.834 211.961 540.589 209.9 539.117 207.324C537.645 204.748 536.909 201.951 536.909 198.934C536.909 195.401 537.792 192.346 539.559 189.77C541.399 187.194 544.085 185.207 547.618 183.809C551.151 182.337 555.493 181.601 560.645 181.601H574.666C574.666 178.657 574.261 176.228 573.451 174.314C572.642 172.327 571.391 170.855 569.698 169.898C568.005 168.942 565.834 168.463 563.184 168.463C560.167 168.463 557.591 169.162 555.456 170.561C553.322 171.886 551.997 173.946 551.482 176.743H538.455C538.896 172.769 540.221 169.383 542.429 166.586C544.637 163.716 547.544 161.508 551.151 159.962C554.831 158.343 558.842 157.534 563.184 157.534C568.41 157.534 572.863 158.454 576.543 160.294C580.223 162.06 583.019 164.636 584.933 168.022C586.92 171.334 587.914 175.345 587.914 180.055V214.5H576.653L575.328 205.558C574.592 207.03 573.635 208.391 572.458 209.642C571.354 210.894 570.066 211.998 568.594 212.954C567.122 213.838 565.429 214.537 563.515 215.052C561.675 215.567 559.578 215.825 557.223 215.825ZM560.203 205.337C562.338 205.337 564.215 204.969 565.834 204.233C567.527 203.423 568.962 202.319 570.139 200.921C571.391 199.449 572.347 197.83 573.01 196.063C573.672 194.297 574.114 192.42 574.335 190.433V190.212H562.08C559.504 190.212 557.37 190.543 555.677 191.206C553.984 191.794 552.77 192.678 552.034 193.855C551.298 195.033 550.93 196.394 550.93 197.94C550.93 199.486 551.298 200.81 552.034 201.914C552.77 203.018 553.837 203.865 555.235 204.454C556.634 205.042 558.29 205.337 560.203 205.337ZM634.637 214.5L610.018 184.03L632.098 158.858H647.885L620.396 189.439V179.172L651.197 214.5H634.637ZM598.757 214.5V135.012H612.005V214.5H598.757ZM678.425 215.825C672.905 215.825 668.047 214.647 663.852 212.292C659.657 209.863 656.381 206.478 654.026 202.135C651.671 197.793 650.493 192.788 650.493 187.121C650.493 181.233 651.634 176.081 653.916 171.665C656.271 167.249 659.546 163.79 663.741 161.287C668.01 158.785 672.941 157.534 678.535 157.534C683.981 157.534 688.729 158.748 692.777 161.177C696.825 163.606 699.953 166.881 702.161 171.002C704.369 175.05 705.473 179.614 705.473 184.692C705.473 185.428 705.473 186.238 705.473 187.121C705.473 188.004 705.399 188.924 705.252 189.881H659.988V181.38H692.114C691.967 177.332 690.605 174.167 688.029 171.886C685.453 169.53 682.252 168.353 678.425 168.353C675.701 168.353 673.199 168.978 670.917 170.23C668.636 171.481 666.833 173.358 665.508 175.86C664.183 178.289 663.521 181.38 663.521 185.134V188.335C663.521 191.794 664.146 194.775 665.397 197.278C666.722 199.78 668.489 201.694 670.697 203.018C672.978 204.27 675.517 204.895 678.314 204.895C681.405 204.895 683.945 204.233 685.932 202.908C687.993 201.583 689.501 199.817 690.458 197.609H703.927C702.897 201.068 701.204 204.196 698.849 206.993C696.493 209.716 693.586 211.887 690.127 213.506C686.668 215.052 682.767 215.825 678.425 215.825ZM717.153 214.5V152.786C717.153 148.518 717.852 145.095 719.25 142.519C720.722 139.87 722.82 137.956 725.543 136.778C728.266 135.601 731.505 135.012 735.258 135.012H741.882V146.273H737.245C734.817 146.273 733.05 146.788 731.946 147.818C730.916 148.775 730.401 150.468 730.401 152.897V214.5H717.153ZM709.204 170.009V158.858H742.986V170.009H709.204ZM754.357 214.5V135.012H767.605V214.5H754.357ZM805.054 215.825C799.755 215.825 794.971 214.61 790.702 212.182C786.507 209.679 783.195 206.257 780.766 201.914C778.411 197.498 777.233 192.457 777.233 186.79C777.233 180.975 778.448 175.897 780.877 171.554C783.305 167.138 786.617 163.716 790.813 161.287C795.081 158.785 799.865 157.534 805.165 157.534C810.464 157.534 815.211 158.785 819.406 161.287C823.675 163.716 826.987 167.102 829.342 171.444C831.771 175.786 832.985 180.865 832.985 186.679C832.985 192.494 831.771 197.572 829.342 201.914C826.913 206.257 823.565 209.679 819.296 212.182C815.101 214.61 810.353 215.825 805.054 215.825ZM805.054 204.454C807.704 204.454 810.096 203.791 812.23 202.466C814.438 201.142 816.205 199.154 817.529 196.505C818.854 193.855 819.517 190.58 819.517 186.679C819.517 182.778 818.854 179.54 817.529 176.964C816.278 174.314 814.549 172.327 812.341 171.002C810.206 169.678 807.814 169.015 805.165 169.015C802.589 169.015 800.197 169.678 797.989 171.002C795.781 172.327 794.014 174.314 792.689 176.964C791.365 179.54 790.702 182.778 790.702 186.679C790.702 190.58 791.365 193.855 792.689 196.505C794.014 199.154 795.744 201.142 797.878 202.466C800.086 203.791 802.478 204.454 805.054 204.454ZM851.741 214.5L835.402 158.858H848.54L859.911 204.564L857.482 204.454L870.178 158.858H884.972L897.778 204.454H895.349L906.721 158.858H919.858L903.519 214.5H889.829L876.25 167.359H879.01L865.431 214.5H851.741ZM950.094 214.5V137.22H975.044C984.024 137.22 991.42 138.802 997.235 141.967C1003.12 145.132 1007.47 149.622 1010.26 155.436C1013.13 161.177 1014.57 168.022 1014.57 175.97C1014.57 183.772 1013.13 190.58 1010.26 196.394C1007.47 202.135 1003.12 206.588 997.235 209.753C991.42 212.918 984.024 214.5 975.044 214.5H950.094ZM963.342 203.239H974.382C981.08 203.239 986.342 202.172 990.169 200.038C994.07 197.83 996.83 194.702 998.449 190.654C1000.14 186.532 1000.99 181.638 1000.99 175.97C1000.99 170.23 1000.14 165.335 998.449 161.287C996.83 157.166 994.07 154.001 990.169 151.793C986.342 149.511 981.08 148.37 974.382 148.37H963.342V203.239ZM1049.8 215.825C1044.28 215.825 1039.43 214.647 1035.23 212.292C1031.04 209.863 1027.76 206.478 1025.41 202.135C1023.05 197.793 1021.87 192.788 1021.87 187.121C1021.87 181.233 1023.01 176.081 1025.3 171.665C1027.65 167.249 1030.93 163.79 1035.12 161.287C1039.39 158.785 1044.32 157.534 1049.91 157.534C1055.36 157.534 1060.11 158.748 1064.16 161.177C1068.2 163.606 1071.33 166.881 1073.54 171.002C1075.75 175.05 1076.85 179.614 1076.85 184.692C1076.85 185.428 1076.85 186.238 1076.85 187.121C1076.85 188.004 1076.78 188.924 1076.63 189.881H1031.37V181.38H1063.49C1063.35 177.332 1061.98 174.167 1059.41 171.886C1056.83 169.53 1053.63 168.353 1049.8 168.353C1047.08 168.353 1044.58 168.978 1042.3 170.23C1040.02 171.481 1038.21 173.358 1036.89 175.86C1035.56 178.289 1034.9 181.38 1034.9 185.134V188.335C1034.9 191.794 1035.53 194.775 1036.78 197.278C1038.1 199.78 1039.87 201.694 1042.08 203.018C1044.36 204.27 1046.9 204.895 1049.69 204.895C1052.78 204.895 1055.32 204.233 1057.31 202.908C1059.37 201.583 1060.88 199.817 1061.84 197.609H1075.31C1074.28 201.068 1072.58 204.196 1070.23 206.993C1067.87 209.716 1064.97 211.887 1061.51 213.506C1058.05 215.052 1054.15 215.825 1049.8 215.825ZM1112.16 215.825C1106.71 215.825 1101.82 214.61 1097.47 212.182C1093.21 209.679 1089.86 206.257 1087.43 201.914C1085.07 197.498 1083.9 192.494 1083.9 186.9C1083.9 181.086 1085.07 176.007 1087.43 171.665C1089.86 167.249 1093.21 163.79 1097.47 161.287C1101.82 158.785 1106.75 157.534 1112.27 157.534C1119.19 157.534 1125 159.374 1129.71 163.054C1134.42 166.66 1137.44 171.628 1138.76 177.958H1124.85C1124.12 175.161 1122.57 172.953 1120.22 171.334C1117.94 169.714 1115.21 168.905 1112.05 168.905C1109.32 168.905 1106.82 169.604 1104.54 171.002C1102.33 172.401 1100.57 174.425 1099.24 177.074C1097.99 179.724 1097.36 182.926 1097.36 186.679C1097.36 189.55 1097.73 192.089 1098.47 194.297C1099.2 196.505 1100.23 198.382 1101.56 199.927C1102.96 201.399 1104.54 202.54 1106.31 203.35C1108.07 204.159 1109.99 204.564 1112.05 204.564C1114.18 204.564 1116.1 204.233 1117.79 203.57C1119.55 202.834 1121.03 201.767 1122.2 200.369C1123.46 198.97 1124.34 197.314 1124.85 195.401H1138.76C1137.44 201.583 1134.42 206.551 1129.71 210.305C1125 213.985 1119.15 215.825 1112.16 215.825ZM1148.23 214.5V135.012H1161.47V214.5H1148.23ZM1191.49 215.825C1186.93 215.825 1183.14 215.052 1180.12 213.506C1177.1 211.961 1174.86 209.9 1173.39 207.324C1171.91 204.748 1171.18 201.951 1171.18 198.934C1171.18 195.401 1172.06 192.346 1173.83 189.77C1175.67 187.194 1178.35 185.207 1181.89 183.809C1185.42 182.337 1189.76 181.601 1194.91 181.601H1208.94C1208.94 178.657 1208.53 176.228 1207.72 174.314C1206.91 172.327 1205.66 170.855 1203.97 169.898C1202.27 168.942 1200.1 168.463 1197.45 168.463C1194.44 168.463 1191.86 169.162 1189.73 170.561C1187.59 171.886 1186.27 173.946 1185.75 176.743H1172.72C1173.17 172.769 1174.49 169.383 1176.7 166.586C1178.91 163.716 1181.81 161.508 1185.42 159.962C1189.1 158.343 1193.11 157.534 1197.45 157.534C1202.68 157.534 1207.13 158.454 1210.81 160.294C1214.49 162.06 1217.29 164.636 1219.2 168.022C1221.19 171.334 1222.18 175.345 1222.18 180.055V214.5H1210.92L1209.6 205.558C1208.86 207.03 1207.91 208.391 1206.73 209.642C1205.62 210.894 1204.34 211.998 1202.86 212.954C1201.39 213.838 1199.7 214.537 1197.79 215.052C1195.95 215.567 1193.85 215.825 1191.49 215.825ZM1194.47 205.337C1196.61 205.337 1198.48 204.969 1200.1 204.233C1201.8 203.423 1203.23 202.319 1204.41 200.921C1205.66 199.449 1206.62 197.83 1207.28 196.063C1207.94 194.297 1208.38 192.42 1208.6 190.433V190.212H1196.35C1193.77 190.212 1191.64 190.543 1189.95 191.206C1188.25 191.794 1187.04 192.678 1186.3 193.855C1185.57 195.033 1185.2 196.394 1185.2 197.94C1185.2 199.486 1185.57 200.81 1186.3 201.914C1187.04 203.018 1188.11 203.865 1189.51 204.454C1190.9 205.042 1192.56 205.337 1194.47 205.337ZM1233.03 214.5V158.858H1244.84L1246.05 169.236C1247.38 166.807 1249.03 164.746 1251.02 163.054C1253.01 161.287 1255.33 159.926 1257.98 158.969C1260.7 158.012 1263.68 157.534 1266.92 157.534V171.554H1262.28C1260.07 171.554 1257.98 171.849 1255.99 172.438C1254 172.953 1252.27 173.836 1250.8 175.087C1249.4 176.265 1248.3 177.921 1247.49 180.055C1246.68 182.116 1246.27 184.729 1246.27 187.894V214.5H1233.03ZM1292.14 215.825C1287.58 215.825 1283.79 215.052 1280.77 213.506C1277.75 211.961 1275.51 209.9 1274.04 207.324C1272.56 204.748 1271.83 201.951 1271.83 198.934C1271.83 195.401 1272.71 192.346 1274.48 189.77C1276.32 187.194 1279 185.207 1282.54 183.809C1286.07 182.337 1290.41 181.601 1295.56 181.601H1309.58C1309.58 178.657 1309.18 176.228 1308.37 174.314C1307.56 172.327 1306.31 170.855 1304.62 169.898C1302.92 168.942 1300.75 168.463 1298.1 168.463C1295.09 168.463 1292.51 169.162 1290.38 170.561C1288.24 171.886 1286.92 173.946 1286.4 176.743H1273.37C1273.82 172.769 1275.14 169.383 1277.35 166.586C1279.56 163.716 1282.46 161.508 1286.07 159.962C1289.75 158.343 1293.76 157.534 1298.1 157.534C1303.33 157.534 1307.78 158.454 1311.46 160.294C1315.14 162.06 1317.94 164.636 1319.85 168.022C1321.84 171.334 1322.83 175.345 1322.83 180.055V214.5H1311.57L1310.25 205.558C1309.51 207.03 1308.55 208.391 1307.38 209.642C1306.27 210.894 1304.98 211.998 1303.51 212.954C1302.04 213.838 1300.35 214.537 1298.43 215.052C1296.59 215.567 1294.5 215.825 1292.14 215.825ZM1295.12 205.337C1297.26 205.337 1299.13 204.969 1300.75 204.233C1302.45 203.423 1303.88 202.319 1305.06 200.921C1306.31 199.449 1307.27 197.83 1307.93 196.063C1308.59 194.297 1309.03 192.42 1309.25 190.433V190.212H1297C1294.42 190.212 1292.29 190.543 1290.6 191.206C1288.9 191.794 1287.69 192.678 1286.95 193.855C1286.22 195.033 1285.85 196.394 1285.85 197.94C1285.85 199.486 1286.22 200.81 1286.95 201.914C1287.69 203.018 1288.76 203.865 1290.15 204.454C1291.55 205.042 1293.21 205.337 1295.12 205.337ZM1356.99 214.5C1353.24 214.5 1349.96 213.911 1347.17 212.734C1344.44 211.556 1342.31 209.606 1340.76 206.882C1339.22 204.159 1338.44 200.479 1338.44 195.842V170.009H1328.95V158.858H1338.44L1339.99 144.175H1351.69V158.858H1366.82V170.009H1351.69V195.842C1351.69 198.639 1352.28 200.59 1353.46 201.694C1354.71 202.724 1356.77 203.239 1359.64 203.239H1366.49V214.5H1356.99ZM1376.52 214.5V158.858H1389.77V214.5H1376.52ZM1383.14 150.026C1380.72 150.026 1378.69 149.29 1377.07 147.818C1375.53 146.273 1374.75 144.396 1374.75 142.188C1374.75 139.906 1375.53 138.066 1377.07 136.668C1378.69 135.196 1380.72 134.46 1383.14 134.46C1385.57 134.46 1387.56 135.196 1389.11 136.668C1390.73 138.066 1391.54 139.906 1391.54 142.188C1391.54 144.396 1390.73 146.273 1389.11 147.818C1387.56 149.29 1385.57 150.026 1383.14 150.026ZM1417 214.5L1396.47 158.858H1410.38L1425.06 201.914L1439.74 158.858H1453.43L1432.9 214.5H1417ZM1482.94 215.825C1477.42 215.825 1472.57 214.647 1468.37 212.292C1464.18 209.863 1460.9 206.478 1458.54 202.135C1456.19 197.793 1455.01 192.788 1455.01 187.121C1455.01 181.233 1456.15 176.081 1458.43 171.665C1460.79 167.249 1464.06 163.79 1468.26 161.287C1472.53 158.785 1477.46 157.534 1483.05 157.534C1488.5 157.534 1493.25 158.748 1497.3 161.177C1501.34 163.606 1504.47 166.881 1506.68 171.002C1508.89 175.05 1509.99 179.614 1509.99 184.692C1509.99 185.428 1509.99 186.238 1509.99 187.121C1509.99 188.004 1509.92 188.924 1509.77 189.881H1464.51V181.38H1496.63C1496.49 177.332 1495.12 174.167 1492.55 171.886C1489.97 169.53 1486.77 168.353 1482.94 168.353C1480.22 168.353 1477.72 168.978 1475.44 170.23C1473.15 171.481 1471.35 173.358 1470.03 175.86C1468.7 178.289 1468.04 181.38 1468.04 185.134V188.335C1468.04 191.794 1468.66 194.775 1469.92 197.278C1471.24 199.78 1473.01 201.694 1475.22 203.018C1477.5 204.27 1480.04 204.895 1482.83 204.895C1485.92 204.895 1488.46 204.233 1490.45 202.908C1492.51 201.583 1494.02 199.817 1494.98 197.609H1508.45C1507.42 201.068 1505.72 204.196 1503.37 206.993C1501.01 209.716 1498.1 211.887 1494.65 213.506C1491.19 215.052 1487.29 215.825 1482.94 215.825ZM1542.99 214.5V137.22H1570.81C1577 137.22 1582.11 138.287 1586.16 140.422C1590.21 142.482 1593.23 145.279 1595.21 148.812C1597.2 152.345 1598.19 156.393 1598.19 160.956C1598.19 165.225 1597.24 169.162 1595.32 172.769C1593.41 176.302 1590.43 179.172 1586.38 181.38C1582.33 183.514 1577.14 184.582 1570.81 184.582H1556.24V214.5H1542.99ZM1556.24 173.762H1570.04C1575.27 173.762 1579.02 172.622 1581.3 170.34C1583.58 167.985 1584.72 164.857 1584.72 160.956C1584.72 156.908 1583.58 153.743 1581.3 151.462C1579.02 149.18 1575.27 148.039 1570.04 148.039H1556.24V173.762ZM1606.42 214.5V158.858H1619.67V214.5H1606.42ZM1613.04 150.026C1610.62 150.026 1608.59 149.29 1606.97 147.818C1605.43 146.273 1604.65 144.396 1604.65 142.188C1604.65 139.906 1605.43 138.066 1606.97 136.668C1608.59 135.196 1610.62 134.46 1613.04 134.46C1615.47 134.46 1617.46 135.196 1619.01 136.668C1620.63 138.066 1621.43 139.906 1621.43 142.188C1621.43 144.396 1620.63 146.273 1619.01 147.818C1617.46 149.29 1615.47 150.026 1613.04 150.026ZM1631.67 238.788V158.858H1643.48L1644.91 166.918C1646.09 165.298 1647.49 163.79 1649.11 162.391C1650.8 160.919 1652.83 159.742 1655.18 158.858C1657.61 157.975 1660.37 157.534 1663.46 157.534C1668.69 157.534 1673.29 158.822 1677.26 161.398C1681.31 163.974 1684.47 167.47 1686.76 171.886C1689.04 176.228 1690.18 181.196 1690.18 186.79C1690.18 192.383 1689 197.388 1686.64 201.804C1684.36 206.146 1681.2 209.569 1677.15 212.071C1673.18 214.574 1668.61 215.825 1663.46 215.825C1659.27 215.825 1655.59 215.052 1652.42 213.506C1649.33 211.887 1646.83 209.606 1644.91 206.662V238.788H1631.67ZM1660.7 204.343C1663.79 204.343 1666.55 203.607 1668.98 202.135C1671.41 200.663 1673.29 198.602 1674.61 195.953C1676.01 193.303 1676.71 190.249 1676.71 186.79C1676.71 183.257 1676.01 180.166 1674.61 177.516C1673.29 174.866 1671.41 172.806 1668.98 171.334C1666.55 169.862 1663.79 169.126 1660.7 169.126C1657.54 169.126 1654.74 169.862 1652.31 171.334C1649.96 172.806 1648.08 174.866 1646.68 177.516C1645.36 180.166 1644.69 183.22 1644.69 186.679C1644.69 190.212 1645.36 193.303 1646.68 195.953C1648.08 198.529 1649.96 200.59 1652.31 202.135C1654.74 203.607 1657.54 204.343 1660.7 204.343ZM1725.78 215.825C1720.26 215.825 1715.4 214.647 1711.21 212.292C1707.01 209.863 1703.74 206.478 1701.38 202.135C1699.03 197.793 1697.85 192.788 1697.85 187.121C1697.85 181.233 1698.99 176.081 1701.27 171.665C1703.63 167.249 1706.9 163.79 1711.1 161.287C1715.37 158.785 1720.3 157.534 1725.89 157.534C1731.34 157.534 1736.08 158.748 1740.13 161.177C1744.18 163.606 1747.31 166.881 1749.52 171.002C1751.72 175.05 1752.83 179.614 1752.83 184.692C1752.83 185.428 1752.83 186.238 1752.83 187.121C1752.83 188.004 1752.75 188.924 1752.61 189.881H1707.34V181.38H1739.47C1739.32 177.332 1737.96 174.167 1735.38 171.886C1732.81 169.53 1729.61 168.353 1725.78 168.353C1723.06 168.353 1720.55 168.978 1718.27 170.23C1715.99 171.481 1714.19 173.358 1712.86 175.86C1711.54 178.289 1710.88 181.38 1710.88 185.134V188.335C1710.88 191.794 1711.5 194.775 1712.75 197.278C1714.08 199.78 1715.84 201.694 1718.05 203.018C1720.33 204.27 1722.87 204.895 1725.67 204.895C1728.76 204.895 1731.3 204.233 1733.29 202.908C1735.35 201.583 1736.86 199.817 1737.81 197.609H1751.28C1750.25 201.068 1748.56 204.196 1746.2 206.993C1743.85 209.716 1740.94 211.887 1737.48 213.506C1734.02 215.052 1730.12 215.825 1725.78 215.825ZM1761.75 214.5V135.012H1775V214.5H1761.75ZM1787.02 214.5V158.858H1800.27V214.5H1787.02ZM1793.64 150.026C1791.21 150.026 1789.19 149.29 1787.57 147.818C1786.03 146.273 1785.25 144.396 1785.25 142.188C1785.25 139.906 1786.03 138.066 1787.57 136.668C1789.19 135.196 1791.21 134.46 1793.64 134.46C1796.07 134.46 1798.06 135.196 1799.6 136.668C1801.22 138.066 1802.03 139.906 1802.03 142.188C1802.03 144.396 1801.22 146.273 1799.6 147.818C1798.06 149.29 1796.07 150.026 1793.64 150.026ZM1812.26 214.5V158.858H1823.97L1824.96 168.132C1826.65 164.894 1829.08 162.318 1832.25 160.404C1835.41 158.49 1839.17 157.534 1843.51 157.534C1848 157.534 1851.82 158.49 1854.99 160.404C1858.15 162.244 1860.58 164.967 1862.28 168.574C1864.04 172.18 1864.93 176.67 1864.93 182.042V214.5H1851.68V183.257C1851.68 178.62 1850.65 175.05 1848.59 172.548C1846.53 170.046 1843.47 168.794 1839.42 168.794C1836.77 168.794 1834.38 169.42 1832.25 170.671C1830.19 171.922 1828.53 173.762 1827.28 176.191C1826.1 178.546 1825.51 181.417 1825.51 184.802V214.5H1812.26ZM1901.64 215.825C1896.12 215.825 1891.26 214.647 1887.06 212.292C1882.87 209.863 1879.59 206.478 1877.24 202.135C1874.88 197.793 1873.7 192.788 1873.7 187.121C1873.7 181.233 1874.84 176.081 1877.13 171.665C1879.48 167.249 1882.76 163.79 1886.95 161.287C1891.22 158.785 1896.15 157.534 1901.75 157.534C1907.19 157.534 1911.94 158.748 1915.99 161.177C1920.04 163.606 1923.16 166.881 1925.37 171.002C1927.58 175.05 1928.68 179.614 1928.68 184.692C1928.68 185.428 1928.68 186.238 1928.68 187.121C1928.68 188.004 1928.61 188.924 1928.46 189.881H1883.2V181.38H1915.32C1915.18 177.332 1913.82 174.167 1911.24 171.886C1908.66 169.53 1905.46 168.353 1901.64 168.353C1898.91 168.353 1896.41 168.978 1894.13 170.23C1891.85 171.481 1890.04 173.358 1888.72 175.86C1887.39 178.289 1886.73 181.38 1886.73 185.134V188.335C1886.73 191.794 1887.36 194.775 1888.61 197.278C1889.93 199.78 1891.7 201.694 1893.91 203.018C1896.19 204.27 1898.73 204.895 1901.52 204.895C1904.62 204.895 1907.16 204.233 1909.14 202.908C1911.2 201.583 1912.71 199.817 1913.67 197.609H1927.14C1926.11 201.068 1924.41 204.196 1922.06 206.993C1919.7 209.716 1916.8 211.887 1913.34 213.506C1909.88 215.052 1905.98 215.825 1901.64 215.825ZM1959.79 215.825C1954.86 215.825 1950.56 215.052 1946.88 213.506C1943.27 211.887 1940.4 209.679 1938.27 206.882C1936.2 204.012 1934.99 200.737 1934.62 197.057H1947.87C1948.24 198.602 1948.9 200.038 1949.86 201.362C1950.81 202.614 1952.1 203.607 1953.72 204.343C1955.41 205.079 1957.4 205.447 1959.68 205.447C1961.89 205.447 1963.69 205.153 1965.09 204.564C1966.49 203.902 1967.52 203.055 1968.18 202.025C1968.85 200.994 1969.18 199.89 1969.18 198.713C1969.18 196.946 1968.7 195.585 1967.74 194.628C1966.79 193.671 1965.39 192.935 1963.55 192.42C1961.78 191.831 1959.65 191.279 1957.14 190.764C1954.49 190.249 1951.92 189.623 1949.42 188.887C1946.99 188.078 1944.78 187.084 1942.79 185.906C1940.88 184.729 1939.33 183.22 1938.15 181.38C1937.05 179.54 1936.5 177.295 1936.5 174.646C1936.5 171.407 1937.35 168.5 1939.04 165.924C1940.8 163.348 1943.31 161.324 1946.55 159.852C1949.86 158.306 1953.79 157.534 1958.36 157.534C1964.83 157.534 1969.99 159.042 1973.81 162.06C1977.71 165.004 1980 169.162 1980.66 174.535H1968.07C1967.71 172.474 1966.67 170.892 1964.98 169.788C1963.29 168.61 1961.04 168.022 1958.25 168.022C1955.38 168.022 1953.17 168.574 1951.62 169.678C1950.15 170.708 1949.42 172.106 1949.42 173.873C1949.42 174.977 1949.86 176.007 1950.74 176.964C1951.7 177.847 1953.06 178.62 1954.83 179.282C1956.59 179.871 1958.76 180.46 1961.34 181.049C1965.46 181.858 1969.1 182.815 1972.27 183.919C1975.43 185.023 1977.94 186.642 1979.78 188.777C1981.62 190.911 1982.54 193.929 1982.54 197.83C1982.61 201.362 1981.69 204.49 1979.78 207.214C1977.94 209.937 1975.32 212.071 1971.94 213.617C1968.55 215.089 1964.5 215.825 1959.79 215.825Z" fill="white"/>
<defs>
<filter id="filter0_dddddd_1117_13462" x="0.713516" y="0.681084" width="556.573" height="556.573" filterUnits="userSpaceOnUse" color-interpolation-filters="sRGB">
<feFlood flood-opacity="0" result="BackgroundImageFix"/>
<feColorMatrix in="SourceAlpha" type="matrix" values="0 0 0 0 0 0 0 0 0 0 0 0 0 0 0 0 0 0 127 0" result="hardAlpha"/>
<feOffset dy="2.83243"/>
<feGaussianBlur stdDeviation="2.12432"/>
<feColorMatrix type="matrix" values="0 0 0 0 0.105882 0 0 0 0 0.192157 0 0 0 0 0.223529 0 0 0 0.0196802 0"/>
<feBlend mode="normal" in2="BackgroundImageFix" result="effect1_dropShadow_1117_13462"/>
<feColorMatrix in="SourceAlpha" type="matrix" values="0 0 0 0 0 0 0 0 0 0 0 0 0 0 0 0 0 0 127 0" result="hardAlpha"/>
<feOffset dy="5.66487"/>
<feGaussianBlur stdDeviation="5.66487"/>
<feColorMatrix type="matrix" values="0 0 0 0 0.105882 0 0 0 0 0.192157 0 0 0 0 0.223529 0 0 0 0.04 0"/>
<feBlend mode="normal" in2="effect1_dropShadow_1117_13462" result="effect2_dropShadow_1117_13462"/>
<feColorMatrix in="SourceAlpha" type="matrix" values="0 0 0 0 0 0 0 0 0 0 0 0 0 0 0 0 0 0 127 0" result="hardAlpha"/>
<feOffset dy="12.7459"/>
<feGaussianBlur stdDeviation="9.20541"/>
<feColorMatrix type="matrix" values="0 0 0 0 0.105882 0 0 0 0 0.192157 0 0 0 0 0.223529 0 0 0 0.035 0"/>
<feBlend mode="normal" in2="effect2_dropShadow_1117_13462" result="effect3_dropShadow_1117_13462"/>
<feColorMatrix in="SourceAlpha" type="matrix" values="0 0 0 0 0 0 0 0 0 0 0 0 0 0 0 0 0 0 127 0" result="hardAlpha"/>
<feOffset dy="22.6595"/>
<feGaussianBlur stdDeviation="16.9946"/>
<feColorMatrix type="matrix" values="0 0 0 0 0.105882 0 0 0 0 0.192157 0 0 0 0 0.223529 0 0 0 0.04 0"/>
<feBlend mode="normal" in2="effect3_dropShadow_1117_13462" result="effect4_dropShadow_1117_13462"/>
<feColorMatrix in="SourceAlpha" type="matrix" values="0 0 0 0 0 0 0 0 0 0 0 0 0 0 0 0 0 0 127 0" result="hardAlpha"/>
<feOffset dy="45.3189"/>
<feGaussianBlur stdDeviation="28.3243"/>
<feColorMatrix type="matrix" values="0 0 0 0 0.105882 0 0 0 0 0.192157 0 0 0 0 0.223529 0 0 0 0.0503198 0"/>
<feBlend mode="normal" in2="effect4_dropShadow_1117_13462" result="effect5_dropShadow_1117_13462"/>
<feColorMatrix in="SourceAlpha" type="matrix" values="0 0 0 0 0 0 0 0 0 0 0 0 0 0 0 0 0 0 127 0" result="hardAlpha"/>
<feOffset dy="101.968"/>
<feGaussianBlur stdDeviation="73.6432"/>
<feColorMatrix type="matrix" values="0 0 0 0 0.105882 0 0 0 0 0.192157 0 0 0 0 0.223529 0 0 0 0.07 0"/>
<feBlend mode="normal" in2="effect5_dropShadow_1117_13462" result="effect6_dropShadow_1117_13462"/>
<feBlend mode="normal" in="SourceGraphic" in2="effect6_dropShadow_1117_13462" result="shape"/>
</filter>
</defs>
</svg>
