<svg width="150" height="150" viewBox="0 0 150 150" fill="none" xmlns="http://www.w3.org/2000/svg">
<g clip-path="url(#clip0_8407_581)">
<mask id="mask0_8407_581" style="mask-type:luminance" maskUnits="userSpaceOnUse" x="0" y="0" width="150" height="150">
<path d="M150 0H0V150H150V0Z" fill="white"/>
</mask>
<g mask="url(#mask0_8407_581)">
<path d="M58.01 130.231V114.771H28.54V130.231H58.01ZM31.54 117.771H55.01V127.231H31.54V117.771Z" fill="white"/>
<path d="M75.3101 74.81C75.3101 70.78 72.0301 67.5 68.0001 67.5C63.9701 67.5 60.6901 70.78 60.6901 74.81C60.6901 78.84 63.9701 82.12 68.0001 82.12C72.0301 82.12 75.3101 78.84 75.3101 74.81ZM63.6901 74.81C63.6901 72.43 65.6201 70.5 68.0001 70.5C70.3801 70.5 72.3101 72.43 72.3101 74.81C72.3101 77.19 70.3801 79.12 68.0001 79.12C65.6201 79.12 63.6901 77.19 63.6901 74.81Z" fill="white"/>
<path d="M122.46 121H62.52V124H122.46V121Z" fill="white"/>
<path d="M88.24 72.5V86.75H103.7V72.5H88.24ZM100.7 83.75H91.24V75.5H100.7V83.75Z" fill="white"/>
<path d="M122.46 72.2803H109.74V75.2803H122.46V72.2803Z" fill="white"/>
<path d="M122.46 95.21H88.01V98.21H122.46V95.21Z" fill="white"/>
<path d="M122.46 83.75H109.74V86.75H122.46V83.75Z" fill="white"/>
<path d="M130.53 49.6007L92.39 11.4707L89.83 12.5307V42.6707C89.83 47.9107 94.09 52.1707 99.33 52.1707H119.46V49.1707H99.33C95.75 49.1707 92.83 46.2507 92.83 42.6707V16.1507L127.97 51.2907V106.671H88.01V109.671H130.97V50.6707L130.53 49.6107V49.6007Z" fill="white"/>
<path d="M127.97 129.47C127.97 133.05 125.05 135.97 121.47 135.97H28.53C24.95 135.97 22.03 133.05 22.03 129.47V92.9203L32.48 76.3803L47.38 95.7003L54.62 84.2703L71.9 106.67H28.54V109.67H83.5V63.8303H122.46V60.8303H22.03V20.5303C22.03 16.9503 24.95 14.0303 28.53 14.0303H83.32V11.0303H28.53C23.29 11.0303 19.03 15.2903 19.03 20.5303V63.8303H80.5V106.67H75.69L54.38 79.0403L47.14 90.4703L32.23 71.1503L22.03 87.3103V71.3303H19.03V129.47C19.03 134.71 23.29 138.97 28.53 138.97H121.46C126.7 138.97 130.96 134.71 130.96 129.47V115.24H127.96V129.47H127.97Z" fill="white"/>
<path d="M44.6801 30.7404L45.3001 32.1104L45.9201 33.4804C46.1301 33.3904 51.0801 31.1104 51.4901 27.0104C51.7501 24.4604 50.4801 22.6504 49.6601 21.9404C49.1701 21.4904 46.2101 19.0404 41.5801 21.0704C37.2801 22.9604 31.8801 28.6204 30.2801 34.8304C29.0401 39.6204 29.3701 43.6404 31.2501 46.7904C33.0701 49.8304 35.9501 50.5404 36.6001 50.6704C36.9201 50.7604 37.8401 50.9704 39.2201 50.9704C41.0701 50.9704 43.7501 50.5804 46.8601 48.9704C50.0501 47.3204 51.5101 44.7304 51.5701 44.6204L48.9501 43.1604C48.9501 43.1604 47.8401 45.0804 45.4801 46.3004C40.7801 48.7404 37.5201 47.8104 37.4001 47.7704L37.1701 47.7204C37.0901 47.7104 35.0901 47.3604 33.8301 45.2504C32.3701 42.8104 32.1601 39.5604 33.1901 35.5804C34.5501 30.3204 39.2301 25.3804 42.8001 23.8104C45.7801 22.5004 47.4501 23.9604 47.6101 24.1104L47.7001 24.1904C47.7001 24.1904 48.6801 25.0804 48.5201 26.6904C48.3201 28.6604 45.6901 30.2704 44.6901 30.7304L44.6801 30.7404Z" fill="white"/>
</g>
</g>
<defs>
<clipPath id="clip0_8407_581">
<rect width="150" height="150" fill="white"/>
</clipPath>
</defs>
</svg>
