<svg width="150" height="150" viewBox="0 0 150 150" fill="none" xmlns="http://www.w3.org/2000/svg">
<g clip-path="url(#clip0_2919_1999)">
<path d="M58.01 130.23V114.77H28.54V130.23H58.01ZM31.54 117.77H55.01V127.23H31.54V117.77Z" fill="#FF5F46"/>
<path d="M75.3101 74.81C75.3101 70.78 72.0301 67.5 68.0001 67.5C63.9701 67.5 60.6901 70.78 60.6901 74.81C60.6901 78.84 63.9701 82.12 68.0001 82.12C72.0301 82.12 75.3101 78.84 75.3101 74.81ZM63.6901 74.81C63.6901 72.43 65.6201 70.5 68.0001 70.5C70.3801 70.5 72.3101 72.43 72.3101 74.81C72.3101 77.19 70.3801 79.12 68.0001 79.12C65.6201 79.12 63.6901 77.19 63.6901 74.81Z" fill="#FF5F46"/>
<path d="M122.46 121H62.52V124H122.46V121Z" fill="#FF5F46"/>
<path d="M88.24 72.5V86.75H103.7V72.5H88.24ZM100.7 83.75H91.24V75.5H100.7V83.75Z" fill="#FF5F46"/>
<path d="M122.46 72.28H109.74V75.28H122.46V72.28Z" fill="#FF5F46"/>
<path d="M122.46 95.21H88.01V98.21H122.46V95.21Z" fill="#FF5F46"/>
<path d="M122.46 83.75H109.74V86.75H122.46V83.75Z" fill="#FF5F46"/>
<path d="M130.53 49.6L92.39 11.47L89.83 12.53V42.67C89.83 47.91 94.09 52.17 99.33 52.17H119.46V49.17H99.33C95.75 49.17 92.83 46.25 92.83 42.67V16.15L127.97 51.29V106.67H88.01V109.67H130.97V50.67L130.53 49.61V49.6Z" fill="#FF5F46"/>
<path d="M127.97 129.47C127.97 133.05 125.05 135.97 121.47 135.97H28.53C24.95 135.97 22.03 133.05 22.03 129.47V92.92L32.48 76.38L47.38 95.7L54.62 84.27L71.9 106.67H28.54V109.67H83.5V63.83H122.46V60.83H22.03V20.53C22.03 16.95 24.95 14.03 28.53 14.03H83.32V11.03H28.53C23.29 11.03 19.03 15.29 19.03 20.53V63.83H80.5V106.67H75.69L54.38 79.04L47.14 90.47L32.23 71.15L22.03 87.31V71.33H19.03V129.47C19.03 134.71 23.29 138.97 28.53 138.97H121.46C126.7 138.97 130.96 134.71 130.96 129.47V115.24H127.96V129.47H127.97Z" fill="#FF5F46"/>
<path d="M44.6801 30.74L45.3001 32.11L45.9201 33.48C46.1301 33.39 51.0801 31.11 51.4901 27.01C51.7501 24.46 50.4801 22.65 49.6601 21.94C49.1701 21.49 46.2101 19.04 41.5801 21.07C37.2801 22.96 31.8801 28.62 30.2801 34.83C29.0401 39.62 29.3701 43.64 31.2501 46.79C33.0701 49.83 35.9501 50.54 36.6001 50.67C36.9201 50.76 37.8401 50.97 39.2201 50.97C41.0701 50.97 43.7501 50.58 46.8601 48.97C50.0501 47.32 51.5101 44.73 51.5701 44.62L48.9501 43.16C48.9501 43.16 47.8401 45.08 45.4801 46.3C40.7801 48.74 37.5201 47.81 37.4001 47.77L37.1701 47.72C37.0901 47.71 35.0901 47.36 33.8301 45.25C32.3701 42.81 32.1601 39.56 33.1901 35.58C34.5501 30.32 39.2301 25.38 42.8001 23.81C45.7801 22.5 47.4501 23.96 47.6101 24.11L47.7001 24.19C47.7001 24.19 48.6801 25.08 48.5201 26.69C48.3201 28.66 45.6901 30.27 44.6901 30.73L44.6801 30.74Z" fill="#FF5F46"/>
</g>
<defs>
<clipPath id="clip0_2919_1999">
<rect width="150" height="150" fill="white"/>
</clipPath>
</defs>
</svg>
