<svg width="150" height="150" viewBox="0 0 150 150" fill="none" xmlns="http://www.w3.org/2000/svg">
<path d="M137.6 74.3H116.6V33H13V97.9H73.5V94.9H16V36H113.6V74.4H104.6V54.4H103.1C98.1 54.4 94.1 50.4 94.1 45.4V43.9H35.5V45.4C35.5 50.4 31.5 54.4 26.5 54.4H25V76.7H26.5C31.5 76.7 35.5 80.7 35.5 85.7V87H79V114.2C79 118.3 82.3 121.6 86.4 121.6H137.6C141.7 121.6 145 118.3 145 114.2V81.7C145 77.6 141.7 74.3 137.6 74.3ZM38.4 84C37.7 78.6 33.4 74.3 28 73.6V57.2C33.4 56.5 37.7 52.2 38.4 46.8H91.2C91.9 52.2 96.2 56.5 101.6 57.2V74.3H86.4C82.3 74.3 79 77.6 79 81.7V84H38.4ZM142 114.2C142 116.6 140 118.6 137.6 118.6H86.4C84 118.6 82 116.6 82 114.2V87H133.6V107C133.6 107.6 133.1 108 132.6 108H123.9C123.3 108 122.9 107.5 122.9 107V100.4C122.9 99.8 123.4 99.4 123.9 99.4H130V96.4H123.9C121.7 96.4 119.9 98.2 119.9 100.4V107C119.9 109.2 121.7 111 123.9 111H132.6C134.8 111 136.6 109.2 136.6 107V84H82V81.6C82 79.2 84 77.2 86.4 77.2H137.6C140 77.2 142 79.2 142 81.6V114.2Z" fill="#FF5F46"/>
<path d="M106.7 99.6H88.3V102.6H106.7V99.6Z" fill="#FF5F46"/>
<path d="M106.7 106.5H88.3V109.5H106.7V106.5Z" fill="#FF5F46"/>
<path d="M69.5 63.5H66.4V57.4H74V54.4H66.3V51.2H63.3V54.4H60.2C56.9 54.4 54.2 57.1 54.2 60.4C54.2 63.7 56.9 66.4 60.2 66.4H63.3V72.5H55.6V75.5H63.3V78.8H66.3V75.5H69.4C72.7 75.5 75.4 72.8 75.4 69.5C75.4 66.2 72.8 63.5 69.5 63.5ZM60.2 63.5C58.5 63.5 57.2 62.1 57.2 60.5C57.2 58.9 58.6 57.5 60.2 57.5H63.3V63.6H60.2V63.5ZM69.5 72.6H66.4V66.5H69.5C71.2 66.5 72.5 67.9 72.5 69.5C72.5 71.1 71.1 72.6 69.5 72.6Z" fill="#FF5F46"/>
</svg>
