<svg width="150" height="150" viewBox="0 0 150 150" fill="none" xmlns="http://www.w3.org/2000/svg">
<path d="M45.6 120.4L42.6 132.5H45.7L47.9 123.4H102.1L104.3 132.5H107.3L104.4 120.4H45.6Z" fill="white"/>
<path d="M58.1 109V91.6H55.1V97.7H43.2V91.6H40.2V109H32.7V132.5H35.7V112H43.2V100.7H55.1V112H114.3V132.5H117.3V109H58.1Z" fill="white"/>
<path d="M43.2 91.6C43.2 81.9 46.5 72.4 52.5 64.8C53.9 65.5 55.4 65.9 57.1 65.9C62.4 65.9 66.7 61.6 66.7 56.3C66.7 51 62.4 46.7 57.1 46.7C51.8 46.7 47.5 51 47.5 56.3C47.5 58.9 48.5 61.2 50.2 63C43.8 71.1 40.3 81.3 40.3 91.6H43.2ZM57 49.7C60.7 49.7 63.6 52.7 63.6 56.3C63.6 60 60.6 62.9 57 62.9C53.3 62.9 50.4 59.9 50.4 56.3C50.4 52.7 53.4 49.7 57 49.7Z" fill="white"/>
<path d="M66.3 37.5L73.8 53.4L87.5 46.9L86.2 44.2L75.2 49.4L70.3 38.9L73.5 37.4L68 25.5L76.6 21.4L82.2 33.3L85.4 31.8L106.3 76.1L91.2 83.2L80.5 60.5L79.3 60.8C65.1 64.3 55.1 77 55.1 91.6H58.1C58.1 78.7 66.6 67.6 78.8 64L89.7 87.2L92.9 85.7L96.3 92.8L110.4 86.2L107 79.1L110.2 77.6L86.9 27.8L83.7 29.3L78 17.5L64 24.1L69.6 36L66.3 37.5ZM106.5 84.8L97.9 88.9L95.8 84.5L104.4 80.4L106.5 84.8Z" fill="white"/>
</svg>
