<svg width="150" height="150" viewBox="0 0 150 150" fill="none" xmlns="http://www.w3.org/2000/svg">
<path d="M23.3302 78.86L29.4902 85.01L46.2002 68.32C40.5902 60.01 29.3002 57.82 20.9802 63.43C12.6702 69.04 10.4802 80.33 16.0902 88.65C21.7002 96.96 32.9902 99.15 41.3102 93.54C46.3102 90.16 49.3102 84.52 49.3102 78.48" stroke="#FF5F46" stroke-width="3" stroke-miterlimit="3" stroke-linecap="square"/>
<path d="M130.81 90.3997L106.9 66.4897" stroke="#FF5F46" stroke-width="3" stroke-miterlimit="3" stroke-linecap="square"/>
<path d="M88.5201 43.1901L94.6801 49.3501L111.39 32.6301C105.78 24.3201 94.4901 22.1301 86.1701 27.7401C77.8601 33.3501 75.6701 44.6401 81.2801 52.9601C86.8901 61.2701 98.1801 63.4601 106.5 57.8501C111.5 54.4701 114.5 48.8301 114.5 42.7901" stroke="#FF5F46" stroke-width="3" stroke-miterlimit="3" stroke-linecap="square"/>
<path d="M65.9402 54.7298L42.0402 30.8198" stroke="#FF5F46" stroke-width="3" stroke-miterlimit="3" stroke-linecap="square"/>
<path d="M54.0402 24.6299C44.0002 24.6399 35.8802 32.7899 35.8902 42.8199C35.8902 47.6199 37.8002 52.2299 41.1902 55.6299L66.8602 29.9499C73.9502 37.0499 73.9402 48.5599 66.8402 55.6499C63.4402 59.0399 58.8402 60.9499 54.0402 60.9599" stroke="#FF5F46" stroke-width="3" stroke-miterlimit="3" stroke-linecap="square"/>
<path d="M118.87 96.5901V105.48C118.89 115.12 111.08 122.94 101.45 122.96V108.92C101.45 108.92 101.45 108.91 101.45 108.9C101.44 99.9801 94.2002 92.7501 85.2802 92.7601C88.7002 89.8701 90.7202 85.6601 90.8302 81.1801C90.9802 72.5401 84.2002 65.3601 75.5602 65.0101C70.7602 64.8701 66.1602 66.9301 63.0602 70.6101C57.4702 77.2601 58.3302 87.1701 64.9802 92.7601C56.0102 92.7601 48.7102 99.9501 48.5702 108.92V122.96C38.9402 122.96 31.1302 115.15 31.1302 105.52V96.5901" stroke="#FF5F46" stroke-width="3" stroke-miterlimit="1" stroke-linecap="square"/>
<path d="M87.7702 93.2698C86.5102 100.25 79.8402 104.9 72.8502 103.64C67.5002 102.68 63.3302 98.4498 62.4502 93.0898" stroke="#FF5F46" stroke-width="3" stroke-miterlimit="1" stroke-linecap="square"/>
<path d="M92.8302 112.26H83.1702" stroke="#FF5F46" stroke-width="3" stroke-miterlimit="3" stroke-linecap="square"/>
<path d="M118.83 60.23C108.79 60.24 100.67 68.39 100.68 78.42C100.68 83.25 102.59 87.88 106 91.29L131.7 65.58C138.79 72.69 138.77 84.19 131.66 91.28C128.26 94.67 123.66 96.57 118.86 96.58" stroke="#FF5F46" stroke-width="3" stroke-miterlimit="3" stroke-linecap="square"/>
</svg>
