<svg width="150" height="150" viewBox="0 0 150 150" fill="none" xmlns="http://www.w3.org/2000/svg">
<path d="M23.76 83.11L19.75 79.1L23.76 75" stroke="white" stroke-width="3" stroke-miterlimit="3" stroke-linecap="square"/>
<path d="M38.44 75L42.54 79.1L38.44 83.11" stroke="white" stroke-width="3" stroke-miterlimit="3" stroke-linecap="square"/>
<path d="M33.33 73.54L29.23 84.39" stroke="white" stroke-width="3" stroke-miterlimit="3" stroke-linecap="square"/>
<path d="M101.71 37.3501H90.8598V48.2001H101.71V37.3501Z" stroke="white" stroke-width="3" stroke-miterlimit="3" stroke-linecap="square"/>
<path d="M93.7798 37.35V32.52" stroke="white" stroke-width="3" stroke-miterlimit="3" stroke-linecap="square"/>
<path d="M98.8798 37.35V32.52" stroke="white" stroke-width="3" stroke-miterlimit="3" stroke-linecap="square"/>
<path d="M93.7798 53.12V48.29" stroke="white" stroke-width="3" stroke-miterlimit="3" stroke-linecap="square"/>
<path d="M98.8798 53.12V48.29" stroke="white" stroke-width="3" stroke-miterlimit="3" stroke-linecap="square"/>
<path d="M101.8 40.26H106.63" stroke="white" stroke-width="3" stroke-miterlimit="3" stroke-linecap="square"/>
<path d="M86.0298 40.26H90.8598" stroke="white" stroke-width="3" stroke-miterlimit="3" stroke-linecap="square"/>
<path d="M86.0298 45.3701H90.8598" stroke="white" stroke-width="3" stroke-miterlimit="3" stroke-linecap="square"/>
<path d="M41.26 93.5999C46.09 90.3199 49.28 84.8499 49.28 78.5599C49.28 68.5299 41.17 60.4199 31.14 60.4199C21.11 60.4199 13 68.4399 13 78.4699C13 88.4999 21.11 96.6099 31.14 96.6099" stroke="white" stroke-width="3" stroke-miterlimit="3" stroke-linecap="square"/>
<path d="M117.84 96.6101C112.01 96.2501 106.44 93.1501 103.25 87.7701C98.1398 79.2001 100.88 67.9901 109.54 62.8801C118.2 57.7701 129.32 60.5101 134.43 69.1701C139.54 77.7401 136.8 88.9501 128.14 94.0601L122.76 88.6801C119.2 90.0501 115.1 89.3201 112.28 86.4901C109.46 83.6601 108.72 79.5601 110.09 76.0101L116.38 82.3001L116.74 81.9401L121.66 77.0201L122.02 76.6601L115.73 70.3701C119.29 69.0001 123.39 69.7301 126.21 72.5601C129.03 75.3901 129.77 79.4901 128.4 83.0401L133.14 87.7801" stroke="white" stroke-width="3" stroke-miterlimit="3" stroke-linecap="square"/>
<path d="M101.8 45.3701L114.38 45.2801C115.2 39.5401 113.19 33.4301 108.45 29.2301C100.97 22.5701 89.4902 23.2101 82.8302 30.6901C76.1702 38.1701 76.8102 49.6501 84.2902 56.3101C91.7702 62.9701 103.25 62.3301 109.91 54.8501" stroke="white" stroke-width="3" stroke-miterlimit="3" stroke-linecap="square"/>
<path d="M60.4102 34.7899H51.3802L45.0902 39.3499H36.1602C35.0702 45.0899 36.7102 51.1999 41.1702 55.6699C48.2802 62.7799 59.7702 62.7799 66.8802 55.6699C73.9902 48.5599 73.9902 37.0699 66.8802 29.9599C59.7702 22.8499 48.2802 22.8499 41.1702 29.9599" stroke="white" stroke-width="3" stroke-miterlimit="3" stroke-linecap="square"/>
<path d="M36.4302 44.8198H48.2802L50.5602 47.0998H65.2402" stroke="white" stroke-width="3" stroke-miterlimit="3" stroke-linecap="square"/>
<path d="M38.4402 50.6599H43.8102L46.9102 53.7599H57.4002" stroke="white" stroke-width="3" stroke-miterlimit="3" stroke-linecap="square"/>
<path d="M74.9899 122.95V107L71.7099 97.6103L64.6899 92.7803" stroke="white" stroke-width="3" stroke-miterlimit="3" stroke-linecap="square"/>
<path d="M80.89 113.01C81.3815 113.01 81.78 112.612 81.78 112.12C81.78 111.628 81.3815 111.23 80.89 111.23C80.3985 111.23 80 111.628 80 112.12C80 112.612 80.3985 113.01 80.89 113.01Z" stroke="white" stroke-width="2.1" stroke-miterlimit="3" stroke-linecap="square"/>
<path d="M80.89 120.21C81.3815 120.21 81.78 119.812 81.78 119.32C81.78 118.829 81.3815 118.43 80.89 118.43C80.3985 118.43 80 118.829 80 119.32C80 119.812 80.3985 120.21 80.89 120.21Z" stroke="white" stroke-width="2.1" stroke-miterlimit="3" stroke-linecap="square"/>
<path d="M75.3599 105.81L78.2799 97.6103L85.2999 92.7803" stroke="white" stroke-width="3" stroke-miterlimit="3" stroke-linecap="square"/>
<path d="M85.2998 92.7803V107.27L78.2798 97.6103" stroke="white" stroke-width="3" stroke-miterlimit="3" stroke-linecap="round"/>
<path d="M64.6899 92.7803V107.27L71.7099 97.6103" stroke="white" stroke-width="3" stroke-miterlimit="3" stroke-linecap="round"/>
<path d="M31.1401 96.6102V105.54C31.1401 115.11 38.8901 122.95 48.5501 122.95V108.91C48.5501 99.9802 55.7501 92.7702 64.6901 92.7702C61.3201 89.8502 59.2201 85.6602 59.2201 80.9202C59.2201 72.2602 66.2401 65.2402 74.9001 65.2402C83.5601 65.2402 90.5801 72.2602 90.5801 80.9202C90.5801 85.6602 88.4801 89.8502 85.1101 92.7702C94.0401 92.7702 101.25 99.9702 101.25 108.91V122.95C110.82 122.95 118.85 115.29 118.85 105.63V96.7002" stroke="white" stroke-width="3" stroke-miterlimit="3" stroke-linecap="square"/>
</svg>
