<svg width="150" height="150" viewBox="0 0 150 150" fill="none" xmlns="http://www.w3.org/2000/svg">
<path d="M74.4402 57.8102C80.3441 57.8102 85.1302 53.0241 85.1302 47.1202C85.1302 41.2163 80.3441 36.4302 74.4402 36.4302C68.5362 36.4302 63.7502 41.2163 63.7502 47.1202C63.7502 53.0241 68.5362 57.8102 74.4402 57.8102Z" stroke="#1B3139" stroke-width="3" stroke-miterlimit="3" stroke-linecap="square"/>
<path d="M107.68 115.38C113.584 115.38 118.37 110.594 118.37 104.69C118.37 98.7861 113.584 94 107.68 94C101.776 94 96.9901 98.7861 96.9901 104.69C96.9901 110.594 101.776 115.38 107.68 115.38Z" stroke="#1B3139" stroke-width="3" stroke-miterlimit="3" stroke-linecap="square"/>
<path d="M41.2002 115.38C47.1041 115.38 51.8902 110.594 51.8902 104.69C51.8902 98.7861 47.1041 94 41.2002 94C35.2962 94 30.5102 98.7861 30.5102 104.69C30.5102 110.594 35.2962 115.38 41.2002 115.38Z" stroke="#1B3139" stroke-width="3" stroke-miterlimit="3" stroke-linecap="square"/>
<path d="M94.6801 104.69H68.9701C68.9701 120.03 56.5302 132.47 41.1902 132.47C25.8502 132.47 13.4102 120.03 13.4102 104.69C13.4102 89.3502 25.8502 76.9102 41.1902 76.9102" stroke="#1B3139" stroke-width="3" stroke-miterlimit="3" stroke-linecap="square"/>
<path d="M81.1101 58.6702L93.8001 80.6402C107.08 72.9702 124.07 77.5202 131.74 90.8102C139.41 104.09 134.86 121.08 121.57 128.75C108.29 136.42 91.3002 131.87 83.6302 118.58" stroke="#1B3139" stroke-width="3" stroke-miterlimit="3" stroke-linecap="square"/>
<path d="M47.6901 93.4501L60.5501 71.1801C47.2701 63.5101 42.7101 46.5201 50.3801 33.2401C58.0501 19.9601 75.0401 15.4001 88.3201 23.0701C101.6 30.7401 106.16 47.7301 98.4901 61.0101" stroke="#1B3139" stroke-width="3" stroke-miterlimit="3" stroke-linecap="square"/>
</svg>
