<svg width="1187" height="558" viewBox="0 0 1187 558" fill="none" xmlns="http://www.w3.org/2000/svg">
<g filter="url(#filter0_dddddd_1117_12230)">
<path d="M148 116.336C148 77.4903 179.49 46 218.336 46H339.664C378.51 46 410 77.4903 410 116.336V237.664C410 276.51 378.51 308 339.664 308H218.336C179.49 308 148 276.51 148 237.664V116.336Z" fill="white"/>
</g>
<path d="M266.49 228.097L316.545 177.437L266.49 126.777L266.49 106.688L294.325 106.688L294.325 135.004L299.53 137.2L319.183 117.177L339.019 137.386L319.365 157.409L321.521 162.711H349.316V191.289H321.521L319.365 196.591L339.019 216.614L319.183 236.823L299.529 216.8L294.325 218.996L294.325 247.312H266.49L266.49 228.097Z" fill="#FABFBA"/>
<path d="M244.051 122.502V122.41L297.557 177.001L244.051 231.591V231.494L238.822 236.821L218.987 216.613L238.641 196.59L236.484 191.288H208.689V162.71H236.484L238.641 157.408L218.987 137.385L238.822 117.176L244.051 122.502Z" fill="#FF5F46"/>
<path d="M481.838 214.5V137.22H495.086V204.122H529.531V214.5H481.838ZM557.223 215.825C552.659 215.825 548.869 215.052 545.851 213.506C542.834 211.961 540.589 209.9 539.117 207.324C537.645 204.748 536.909 201.951 536.909 198.934C536.909 195.401 537.792 192.346 539.559 189.77C541.399 187.194 544.085 185.207 547.618 183.809C551.151 182.337 555.493 181.601 560.645 181.601H574.666C574.666 178.657 574.261 176.228 573.451 174.314C572.642 172.327 571.391 170.855 569.698 169.898C568.005 168.942 565.834 168.463 563.184 168.463C560.167 168.463 557.591 169.162 555.456 170.561C553.322 171.886 551.997 173.946 551.482 176.743H538.455C538.896 172.769 540.221 169.383 542.429 166.586C544.637 163.716 547.544 161.508 551.151 159.962C554.831 158.343 558.842 157.534 563.184 157.534C568.41 157.534 572.863 158.454 576.543 160.294C580.223 162.06 583.019 164.636 584.933 168.022C586.92 171.334 587.914 175.345 587.914 180.055V214.5H576.653L575.328 205.558C574.592 207.03 573.635 208.391 572.458 209.642C571.354 210.894 570.066 211.998 568.594 212.954C567.122 213.838 565.429 214.537 563.515 215.052C561.675 215.567 559.578 215.825 557.223 215.825ZM560.203 205.337C562.338 205.337 564.215 204.969 565.834 204.233C567.527 203.423 568.962 202.319 570.139 200.921C571.391 199.449 572.347 197.83 573.01 196.063C573.672 194.297 574.114 192.42 574.335 190.433V190.212H562.08C559.504 190.212 557.37 190.543 555.677 191.206C553.984 191.794 552.77 192.678 552.034 193.855C551.298 195.033 550.93 196.394 550.93 197.94C550.93 199.486 551.298 200.81 552.034 201.914C552.77 203.018 553.837 203.865 555.235 204.454C556.634 205.042 558.29 205.337 560.203 205.337ZM634.637 214.5L610.018 184.03L632.098 158.858H647.885L620.396 189.439V179.172L651.197 214.5H634.637ZM598.757 214.5V135.012H612.005V214.5H598.757ZM678.425 215.825C672.905 215.825 668.047 214.647 663.852 212.292C659.657 209.863 656.381 206.478 654.026 202.135C651.671 197.793 650.493 192.788 650.493 187.121C650.493 181.233 651.634 176.081 653.916 171.665C656.271 167.249 659.546 163.79 663.741 161.287C668.01 158.785 672.941 157.534 678.535 157.534C683.981 157.534 688.729 158.748 692.777 161.177C696.825 163.606 699.953 166.881 702.161 171.002C704.369 175.05 705.473 179.614 705.473 184.692C705.473 185.428 705.473 186.238 705.473 187.121C705.473 188.004 705.399 188.924 705.252 189.881H659.988V181.38H692.114C691.967 177.332 690.605 174.167 688.029 171.886C685.453 169.53 682.252 168.353 678.425 168.353C675.701 168.353 673.199 168.978 670.917 170.23C668.636 171.481 666.833 173.358 665.508 175.86C664.183 178.289 663.521 181.38 663.521 185.134V188.335C663.521 191.794 664.146 194.775 665.397 197.278C666.722 199.78 668.489 201.694 670.697 203.018C672.978 204.27 675.517 204.895 678.314 204.895C681.405 204.895 683.945 204.233 685.932 202.908C687.993 201.583 689.501 199.817 690.458 197.609H703.927C702.897 201.068 701.204 204.196 698.849 206.993C696.493 209.716 693.586 211.887 690.127 213.506C686.668 215.052 682.767 215.825 678.425 215.825ZM717.153 214.5V152.786C717.153 148.518 717.852 145.095 719.25 142.519C720.722 139.87 722.82 137.956 725.543 136.778C728.266 135.601 731.505 135.012 735.258 135.012H741.882V146.273H737.245C734.817 146.273 733.05 146.788 731.946 147.818C730.916 148.775 730.401 150.468 730.401 152.897V214.5H717.153ZM709.204 170.009V158.858H742.986V170.009H709.204ZM754.357 214.5V135.012H767.605V214.5H754.357ZM805.054 215.825C799.755 215.825 794.971 214.61 790.702 212.182C786.507 209.679 783.195 206.257 780.766 201.914C778.411 197.498 777.233 192.457 777.233 186.79C777.233 180.975 778.448 175.897 780.877 171.554C783.305 167.138 786.617 163.716 790.813 161.287C795.081 158.785 799.865 157.534 805.165 157.534C810.464 157.534 815.211 158.785 819.406 161.287C823.675 163.716 826.987 167.102 829.342 171.444C831.771 175.786 832.985 180.865 832.985 186.679C832.985 192.494 831.771 197.572 829.342 201.914C826.913 206.257 823.565 209.679 819.296 212.182C815.101 214.61 810.353 215.825 805.054 215.825ZM805.054 204.454C807.704 204.454 810.096 203.791 812.23 202.466C814.438 201.142 816.205 199.154 817.529 196.505C818.854 193.855 819.517 190.58 819.517 186.679C819.517 182.778 818.854 179.54 817.529 176.964C816.278 174.314 814.549 172.327 812.341 171.002C810.206 169.678 807.814 169.015 805.165 169.015C802.589 169.015 800.197 169.678 797.989 171.002C795.781 172.327 794.014 174.314 792.689 176.964C791.365 179.54 790.702 182.778 790.702 186.679C790.702 190.58 791.365 193.855 792.689 196.505C794.014 199.154 795.744 201.142 797.878 202.466C800.086 203.791 802.478 204.454 805.054 204.454ZM851.741 214.5L835.402 158.858H848.54L859.911 204.564L857.482 204.454L870.178 158.858H884.972L897.778 204.454H895.349L906.721 158.858H919.858L903.519 214.5H889.829L876.25 167.359H879.01L865.431 214.5H851.741ZM969.745 215.825C964.814 215.825 960.508 214.905 956.828 213.065C953.222 211.151 950.425 208.428 948.438 204.895C946.451 201.289 945.457 196.946 945.457 191.868H958.705C958.705 194.297 959.073 196.431 959.809 198.271C960.545 200.111 961.686 201.546 963.232 202.577C964.851 203.534 966.912 204.012 969.414 204.012C971.916 204.012 973.904 203.534 975.376 202.577C976.848 201.62 977.915 200.295 978.577 198.602C979.313 196.836 979.681 194.812 979.681 192.53V137.22H992.929V192.53C992.929 200.038 990.832 205.815 986.636 209.863C982.515 213.838 976.884 215.825 969.745 215.825ZM1030.72 215.825C1025.42 215.825 1020.64 214.61 1016.37 212.182C1012.17 209.679 1008.86 206.257 1006.43 201.914C1004.08 197.498 1002.9 192.457 1002.9 186.79C1002.9 180.975 1004.11 175.897 1006.54 171.554C1008.97 167.138 1012.28 163.716 1016.48 161.287C1020.75 158.785 1025.53 157.534 1030.83 157.534C1036.13 157.534 1040.88 158.785 1045.07 161.287C1049.34 163.716 1052.65 167.102 1055.01 171.444C1057.44 175.786 1058.65 180.865 1058.65 186.679C1058.65 192.494 1057.44 197.572 1055.01 201.914C1052.58 206.257 1049.23 209.679 1044.96 212.182C1040.77 214.61 1036.02 215.825 1030.72 215.825ZM1030.72 204.454C1033.37 204.454 1035.76 203.791 1037.89 202.466C1040.1 201.142 1041.87 199.154 1043.19 196.505C1044.52 193.855 1045.18 190.58 1045.18 186.679C1045.18 182.778 1044.52 179.54 1043.19 176.964C1041.94 174.314 1040.21 172.327 1038.01 171.002C1035.87 169.678 1033.48 169.015 1030.83 169.015C1028.25 169.015 1025.86 169.678 1023.65 171.002C1021.45 172.327 1019.68 174.314 1018.35 176.964C1017.03 179.54 1016.37 182.778 1016.37 186.679C1016.37 190.58 1017.03 193.855 1018.35 196.505C1019.68 199.154 1021.41 201.142 1023.54 202.466C1025.75 203.791 1028.14 204.454 1030.72 204.454ZM1100.1 215.825C1097.16 215.825 1094.51 215.42 1092.15 214.61C1089.8 213.874 1087.74 212.844 1085.97 211.519C1084.2 210.121 1082.73 208.538 1081.55 206.772L1080.12 214.5H1068.31V135.012H1081.55V167.028C1083.32 164.305 1085.71 162.06 1088.73 160.294C1091.75 158.454 1095.5 157.534 1099.99 157.534C1105.22 157.534 1109.82 158.822 1113.79 161.398C1117.84 163.9 1121 167.359 1123.29 171.775C1125.64 176.118 1126.82 181.122 1126.82 186.79C1126.82 192.31 1125.68 197.278 1123.4 201.694C1121.11 206.11 1117.95 209.569 1113.9 212.071C1109.93 214.574 1105.33 215.825 1100.1 215.825ZM1097.34 204.343C1100.43 204.343 1103.19 203.607 1105.62 202.135C1108.05 200.59 1109.93 198.529 1111.25 195.953C1112.65 193.303 1113.35 190.212 1113.35 186.679C1113.35 183.22 1112.65 180.166 1111.25 177.516C1109.93 174.866 1108.05 172.806 1105.62 171.334C1103.19 169.862 1100.43 169.126 1097.34 169.126C1094.18 169.126 1091.38 169.862 1088.95 171.334C1086.6 172.806 1084.72 174.866 1083.32 177.516C1082 180.166 1081.33 183.22 1081.33 186.679C1081.33 190.212 1082 193.303 1083.32 195.953C1084.72 198.529 1086.6 200.59 1088.95 202.135C1091.38 203.607 1094.18 204.343 1097.34 204.343ZM1158.56 215.825C1153.63 215.825 1149.32 215.052 1145.64 213.506C1142.03 211.887 1139.16 209.679 1137.03 206.882C1134.97 204.012 1133.75 200.737 1133.39 197.057H1146.63C1147 198.602 1147.66 200.038 1148.62 201.362C1149.58 202.614 1150.87 203.607 1152.48 204.343C1154.18 205.079 1156.16 205.447 1158.45 205.447C1160.65 205.447 1162.46 205.153 1163.86 204.564C1165.25 203.902 1166.28 203.055 1166.95 202.025C1167.61 200.994 1167.94 199.89 1167.94 198.713C1167.94 196.946 1167.46 195.585 1166.51 194.628C1165.55 193.671 1164.15 192.935 1162.31 192.42C1160.54 191.831 1158.41 191.279 1155.91 190.764C1153.26 190.249 1150.68 189.623 1148.18 188.887C1145.75 188.078 1143.54 187.084 1141.56 185.906C1139.64 184.729 1138.1 183.22 1136.92 181.38C1135.81 179.54 1135.26 177.295 1135.26 174.646C1135.26 171.407 1136.11 168.5 1137.8 165.924C1139.57 163.348 1142.07 161.324 1145.31 159.852C1148.62 158.306 1152.56 157.534 1157.12 157.534C1163.6 157.534 1168.75 159.042 1172.58 162.06C1176.48 165.004 1178.76 169.162 1179.42 174.535H1166.84C1166.47 172.474 1165.44 170.892 1163.75 169.788C1162.05 168.61 1159.81 168.022 1157.01 168.022C1154.14 168.022 1151.93 168.574 1150.39 169.678C1148.92 170.708 1148.18 172.106 1148.18 173.873C1148.18 174.977 1148.62 176.007 1149.5 176.964C1150.46 177.847 1151.82 178.62 1153.59 179.282C1155.36 179.871 1157.53 180.46 1160.1 181.049C1164.22 181.858 1167.87 182.815 1171.03 183.919C1174.2 185.023 1176.7 186.642 1178.54 188.777C1180.38 190.911 1181.3 193.929 1181.3 197.83C1181.37 201.362 1180.45 204.49 1178.54 207.214C1176.7 209.937 1174.09 212.071 1170.7 213.617C1167.32 215.089 1163.27 215.825 1158.56 215.825Z" fill="#1B3139"/>
<defs>
<filter id="filter0_dddddd_1117_12230" x="0.713516" y="0.681084" width="556.573" height="556.573" filterUnits="userSpaceOnUse" color-interpolation-filters="sRGB">
<feFlood flood-opacity="0" result="BackgroundImageFix"/>
<feColorMatrix in="SourceAlpha" type="matrix" values="0 0 0 0 0 0 0 0 0 0 0 0 0 0 0 0 0 0 127 0" result="hardAlpha"/>
<feOffset dy="2.83243"/>
<feGaussianBlur stdDeviation="2.12432"/>
<feColorMatrix type="matrix" values="0 0 0 0 0.105882 0 0 0 0 0.192157 0 0 0 0 0.223529 0 0 0 0.0196802 0"/>
<feBlend mode="normal" in2="BackgroundImageFix" result="effect1_dropShadow_1117_12230"/>
<feColorMatrix in="SourceAlpha" type="matrix" values="0 0 0 0 0 0 0 0 0 0 0 0 0 0 0 0 0 0 127 0" result="hardAlpha"/>
<feOffset dy="5.66487"/>
<feGaussianBlur stdDeviation="5.66487"/>
<feColorMatrix type="matrix" values="0 0 0 0 0.105882 0 0 0 0 0.192157 0 0 0 0 0.223529 0 0 0 0.04 0"/>
<feBlend mode="normal" in2="effect1_dropShadow_1117_12230" result="effect2_dropShadow_1117_12230"/>
<feColorMatrix in="SourceAlpha" type="matrix" values="0 0 0 0 0 0 0 0 0 0 0 0 0 0 0 0 0 0 127 0" result="hardAlpha"/>
<feOffset dy="12.7459"/>
<feGaussianBlur stdDeviation="9.20541"/>
<feColorMatrix type="matrix" values="0 0 0 0 0.105882 0 0 0 0 0.192157 0 0 0 0 0.223529 0 0 0 0.035 0"/>
<feBlend mode="normal" in2="effect2_dropShadow_1117_12230" result="effect3_dropShadow_1117_12230"/>
<feColorMatrix in="SourceAlpha" type="matrix" values="0 0 0 0 0 0 0 0 0 0 0 0 0 0 0 0 0 0 127 0" result="hardAlpha"/>
<feOffset dy="22.6595"/>
<feGaussianBlur stdDeviation="16.9946"/>
<feColorMatrix type="matrix" values="0 0 0 0 0.105882 0 0 0 0 0.192157 0 0 0 0 0.223529 0 0 0 0.04 0"/>
<feBlend mode="normal" in2="effect3_dropShadow_1117_12230" result="effect4_dropShadow_1117_12230"/>
<feColorMatrix in="SourceAlpha" type="matrix" values="0 0 0 0 0 0 0 0 0 0 0 0 0 0 0 0 0 0 127 0" result="hardAlpha"/>
<feOffset dy="45.3189"/>
<feGaussianBlur stdDeviation="28.3243"/>
<feColorMatrix type="matrix" values="0 0 0 0 0.105882 0 0 0 0 0.192157 0 0 0 0 0.223529 0 0 0 0.0503198 0"/>
<feBlend mode="normal" in2="effect4_dropShadow_1117_12230" result="effect5_dropShadow_1117_12230"/>
<feColorMatrix in="SourceAlpha" type="matrix" values="0 0 0 0 0 0 0 0 0 0 0 0 0 0 0 0 0 0 127 0" result="hardAlpha"/>
<feOffset dy="101.968"/>
<feGaussianBlur stdDeviation="73.6432"/>
<feColorMatrix type="matrix" values="0 0 0 0 0.105882 0 0 0 0 0.192157 0 0 0 0 0.223529 0 0 0 0.07 0"/>
<feBlend mode="normal" in2="effect5_dropShadow_1117_12230" result="effect6_dropShadow_1117_12230"/>
<feBlend mode="normal" in="SourceGraphic" in2="effect6_dropShadow_1117_12230" result="shape"/>
</filter>
</defs>
</svg>
