<svg width="1112" height="300" viewBox="0 0 1112 300" fill="none" xmlns="http://www.w3.org/2000/svg">
<path d="M106.163 26.9531C119.673 26.9532 130.887 37.3928 131.852 50.8682L139.453 157.031H73.8281L80.459 51.0986C81.3085 37.5263 92.5642 26.9531 106.163 26.9531ZM237.46 66.7969C251.055 66.7969 262.45 77.0754 263.846 90.5986L270.703 157.031H205.078L211.042 90.9385C212.276 77.2683 223.734 66.7971 237.46 66.7969Z" fill="#FF5F46"/>
<path d="M198.631 248.9C197.676 262.501 186.364 273.047 172.73 273.047C159.197 273.047 147.933 262.651 146.85 249.161L139.453 157.031H205.078L198.631 248.9ZM75 157.031L70.3896 222.987C69.7105 232.701 61.6322 240.234 51.8945 240.234C42.2283 240.234 34.1845 232.807 33.4141 223.172L28.125 157.031H75Z" fill="#FABFBA"/>
<path d="M340.501 138V60.72H360.373C369.352 60.72 376.749 62.3024 382.563 65.4672C388.451 68.5584 392.794 73.0112 395.59 78.8256C398.461 84.5664 399.896 91.4848 399.896 99.5808C399.896 107.53 398.461 114.374 395.59 120.115C392.794 125.856 388.451 130.272 382.563 133.363C376.749 136.454 369.352 138 360.373 138H340.501ZM349.774 130.272H360.152C367.586 130.272 373.51 129.058 377.926 126.629C382.342 124.126 385.507 120.594 387.421 116.03C389.334 111.394 390.291 105.91 390.291 99.5808C390.291 93.104 389.334 87.5472 387.421 82.9104C385.507 78.2736 382.342 74.704 377.926 72.2016C373.51 69.6992 367.586 68.448 360.152 68.448H349.774V130.272ZM427.945 139.325C423.529 139.325 419.849 138.515 416.905 136.896C413.961 135.203 411.753 132.995 410.281 130.272C408.809 127.475 408.073 124.494 408.073 121.33C408.073 117.502 409.029 114.264 410.943 111.614C412.93 108.891 415.69 106.83 419.223 105.432C422.756 104.034 426.877 103.334 431.588 103.334H446.05C446.05 99.5808 445.609 96.4528 444.725 93.9504C443.842 91.448 442.407 89.5712 440.42 88.32C438.433 87.0688 435.783 86.4432 432.471 86.4432C429.159 86.4432 426.325 87.2896 423.97 88.9824C421.615 90.6016 420.143 93.0304 419.554 96.2688H410.06C410.501 92.4416 411.789 89.24 413.924 86.664C416.058 84.0144 418.745 82.0272 421.983 80.7024C425.295 79.304 428.791 78.6048 432.471 78.6048C437.697 78.6048 442.002 79.5616 445.388 81.4752C448.773 83.3152 451.276 85.928 452.895 89.3136C454.514 92.6256 455.324 96.5632 455.324 101.126V138H447.044L446.492 128.064C445.756 129.61 444.799 131.082 443.621 132.48C442.517 133.805 441.193 134.982 439.647 136.013C438.101 137.043 436.335 137.853 434.348 138.442C432.434 139.03 430.3 139.325 427.945 139.325ZM429.269 131.486C431.698 131.486 433.943 130.934 436.004 129.83C438.065 128.726 439.831 127.254 441.303 125.414C442.849 123.501 444.026 121.366 444.836 119.011C445.645 116.656 446.05 114.19 446.05 111.614V110.51H432.361C428.901 110.51 426.068 110.952 423.86 111.835C421.725 112.718 420.18 113.97 419.223 115.589C418.266 117.134 417.788 118.901 417.788 120.888C417.788 123.022 418.229 124.899 419.113 126.518C419.996 128.064 421.284 129.278 422.977 130.162C424.743 131.045 426.841 131.486 429.269 131.486ZM488.345 138C485.033 138 482.163 137.485 479.734 136.454C477.305 135.424 475.429 133.694 474.104 131.266C472.853 128.763 472.227 125.414 472.227 121.219V87.768H462.07V79.9296H472.227L473.441 65.4672H481.501V79.9296H497.95V87.768H481.501V121.219C481.501 124.678 482.2 127.034 483.598 128.285C484.997 129.462 487.462 130.051 490.995 130.051H497.729V138H488.345ZM525.467 139.325C521.051 139.325 517.371 138.515 514.427 136.896C511.483 135.203 509.275 132.995 507.803 130.272C506.331 127.475 505.595 124.494 505.595 121.33C505.595 117.502 506.552 114.264 508.466 111.614C510.453 108.891 513.213 106.83 516.746 105.432C520.279 104.034 524.4 103.334 529.111 103.334H543.573C543.573 99.5808 543.131 96.4528 542.248 93.9504C541.365 91.448 539.93 89.5712 537.943 88.32C535.955 87.0688 533.306 86.4432 529.994 86.4432C526.682 86.4432 523.848 87.2896 521.493 88.9824C519.138 90.6016 517.666 93.0304 517.077 96.2688H507.583C508.024 92.4416 509.312 89.24 511.447 86.664C513.581 84.0144 516.267 82.0272 519.506 80.7024C522.818 79.304 526.314 78.6048 529.994 78.6048C535.219 78.6048 539.525 79.5616 542.911 81.4752C546.296 83.3152 548.799 85.928 550.418 89.3136C552.037 92.6256 552.847 96.5632 552.847 101.126V138H544.567L544.015 128.064C543.279 129.61 542.322 131.082 541.144 132.48C540.04 133.805 538.715 134.982 537.17 136.013C535.624 137.043 533.858 137.853 531.871 138.442C529.957 139.03 527.823 139.325 525.467 139.325ZM526.792 131.486C529.221 131.486 531.466 130.934 533.527 129.83C535.587 128.726 537.354 127.254 538.826 125.414C540.371 123.501 541.549 121.366 542.359 119.011C543.168 116.656 543.573 114.19 543.573 111.614V110.51H529.883C526.424 110.51 523.591 110.952 521.383 111.835C519.248 112.718 517.703 113.97 516.746 115.589C515.789 117.134 515.311 118.901 515.311 120.888C515.311 123.022 515.752 124.899 516.635 126.518C517.519 128.064 518.807 129.278 520.499 130.162C522.266 131.045 524.363 131.486 526.792 131.486ZM593.781 139.325C590.248 139.325 587.194 138.81 584.618 137.779C582.115 136.675 579.981 135.314 578.214 133.694C576.522 132.075 575.123 130.493 574.019 128.947L573.246 138H564.856V58.512H574.13V89.0928C575.896 85.6336 578.509 83.0208 581.968 81.2544C585.427 79.488 589.291 78.6048 593.56 78.6048C598.859 78.6048 603.496 79.8928 607.47 82.4688C611.445 85.0448 614.536 88.6144 616.744 93.1776C618.952 97.6672 620.056 102.856 620.056 108.744C620.056 114.558 618.952 119.784 616.744 124.421C614.536 129.058 611.445 132.701 607.47 135.35C603.57 138 599.006 139.325 593.781 139.325ZM592.566 131.266C596.026 131.266 599.08 130.382 601.73 128.616C604.453 126.776 606.587 124.2 608.133 120.888C609.752 117.502 610.562 113.528 610.562 108.965C610.562 104.402 609.752 100.464 608.133 97.152C606.587 93.7664 604.453 91.1904 601.73 89.424C599.08 87.584 596.026 86.664 592.566 86.664C588.886 86.664 585.685 87.584 582.962 89.424C580.238 91.1904 578.141 93.7664 576.669 97.152C575.197 100.464 574.461 104.402 574.461 108.965C574.461 113.528 575.197 117.502 576.669 120.888C578.141 124.2 580.238 126.776 582.962 128.616C585.685 130.382 588.886 131.266 592.566 131.266ZM630.221 138V79.9296H638.611L639.273 90.528C640.598 87.8784 642.328 85.6704 644.462 83.904C646.597 82.1376 649.173 80.8128 652.19 79.9296C655.281 79.0464 658.741 78.6048 662.568 78.6048V88.32H656.827C654.619 88.32 652.485 88.6144 650.424 89.2032C648.363 89.792 646.486 90.7488 644.793 92.0736C643.174 93.3984 641.886 95.2016 640.929 97.4832C639.973 99.7648 639.494 102.635 639.494 106.094V138H630.221ZM670.809 138V79.9296H680.083V138H670.809ZM675.446 68.8896C673.606 68.8896 672.06 68.3008 670.809 67.1232C669.631 65.872 669.043 64.3264 669.043 62.4864C669.043 60.6464 669.631 59.1744 670.809 58.0704C672.06 56.8928 673.606 56.304 675.446 56.304C677.212 56.304 678.721 56.8928 679.972 58.0704C681.223 59.1744 681.849 60.6464 681.849 62.4864C681.849 64.3264 681.223 65.872 679.972 67.1232C678.721 68.3008 677.212 68.8896 675.446 68.8896ZM718.304 139.325C713.005 139.325 708.295 138.074 704.173 135.571C700.051 132.995 696.813 129.426 694.458 124.862C692.103 120.299 690.925 115 690.925 108.965C690.925 102.856 692.103 97.5568 694.458 93.0672C696.813 88.504 700.051 84.9712 704.173 82.4688C708.295 79.8928 713.005 78.6048 718.304 78.6048C724.928 78.6048 730.448 80.3712 734.864 83.904C739.354 87.4368 742.224 92.184 743.475 98.1456H733.981C733.171 94.4656 731.295 91.632 728.351 89.6448C725.48 87.584 722.095 86.5536 718.194 86.5536C714.808 86.5536 711.754 87.4 709.031 89.0928C706.381 90.7856 704.283 93.288 702.738 96.6C701.192 99.912 700.419 104.034 700.419 108.965C700.419 112.645 700.861 115.92 701.744 118.79C702.627 121.587 703.842 123.942 705.387 125.856C707.007 127.696 708.883 129.094 711.018 130.051C713.226 131.008 715.618 131.486 718.194 131.486C720.843 131.486 723.235 131.045 725.37 130.162C727.578 129.205 729.418 127.843 730.89 126.077C732.435 124.31 733.466 122.213 733.981 119.784H743.475C742.298 125.598 739.427 130.309 734.864 133.915C730.375 137.522 724.855 139.325 718.304 139.325ZM787.762 138L761.377 106.646L786.217 79.9296H797.588L769.215 109.958L769.325 103.334L799.575 138H787.762ZM753.649 138V58.512H762.922V138H753.649ZM823.817 139.325C818.592 139.325 814.249 138.552 810.79 137.006C807.405 135.387 804.829 133.179 803.062 130.382C801.296 127.512 800.229 124.2 799.861 120.446H809.355C809.649 122.434 810.312 124.274 811.342 125.966C812.446 127.586 814.029 128.91 816.089 129.941C818.15 130.971 820.763 131.486 823.928 131.486C826.43 131.486 828.565 131.118 830.331 130.382C832.097 129.573 833.422 128.469 834.305 127.07C835.262 125.672 835.741 124.053 835.741 122.213C835.741 119.784 835.189 117.907 834.085 116.582C833.054 115.184 831.509 114.154 829.448 113.491C827.461 112.755 824.958 112.203 821.941 111.835C818.702 111.394 815.832 110.768 813.329 109.958C810.827 109.149 808.693 108.082 806.926 106.757C805.233 105.432 803.945 103.776 803.062 101.789C802.179 99.8016 801.737 97.4464 801.737 94.7232C801.737 91.5584 802.584 88.7616 804.277 86.3328C805.969 83.904 808.361 82.0272 811.453 80.7024C814.617 79.304 818.334 78.6048 822.603 78.6048C828.859 78.6048 833.79 80.04 837.397 82.9104C841.077 85.7808 843.248 89.8656 843.91 95.1648H834.747C834.379 92.4416 833.128 90.3072 830.993 88.7616C828.859 87.216 826.025 86.4432 822.493 86.4432C818.739 86.4432 815.905 87.1424 813.992 88.5408C812.078 89.9392 811.121 91.7792 811.121 94.0608C811.121 95.7536 811.526 97.2992 812.336 98.6976C813.219 100.022 814.691 101.163 816.752 102.12C818.813 103.003 821.573 103.666 825.032 104.107C829.374 104.622 833.054 105.469 836.072 106.646C839.089 107.75 841.371 109.48 842.917 111.835C844.536 114.19 845.309 117.392 845.235 121.44C845.235 125.267 844.315 128.506 842.475 131.155C840.709 133.805 838.206 135.829 834.968 137.227C831.803 138.626 828.086 139.325 823.817 139.325ZM339.838 237V159.72H364.789C373.768 159.72 381.165 161.302 386.979 164.467C392.867 167.632 397.21 172.122 400.006 177.936C402.877 183.677 404.312 190.522 404.312 198.47C404.312 206.272 402.877 213.08 400.006 218.894C397.21 224.635 392.867 229.088 386.979 232.253C381.165 235.418 373.768 237 364.789 237H339.838ZM353.086 225.739H364.126C370.824 225.739 376.086 224.672 379.914 222.538C383.814 220.33 386.574 217.202 388.194 213.154C389.886 209.032 390.733 204.138 390.733 198.47C390.733 192.73 389.886 187.835 388.194 183.787C386.574 179.666 383.814 176.501 379.914 174.293C376.086 172.011 370.824 170.87 364.126 170.87H353.086V225.739ZM432.041 238.325C427.478 238.325 423.688 237.552 420.67 236.006C417.653 234.461 415.408 232.4 413.936 229.824C412.464 227.248 411.728 224.451 411.728 221.434C411.728 217.901 412.611 214.846 414.377 212.27C416.217 209.694 418.904 207.707 422.437 206.309C425.969 204.837 430.312 204.101 435.464 204.101H449.485C449.485 201.157 449.08 198.728 448.27 196.814C447.461 194.827 446.209 193.355 444.517 192.398C442.824 191.442 440.653 190.963 438.003 190.963C434.985 190.963 432.409 191.662 430.275 193.061C428.141 194.386 426.816 196.446 426.301 199.243H413.273C413.715 195.269 415.04 191.883 417.248 189.086C419.456 186.216 422.363 184.008 425.969 182.462C429.649 180.843 433.661 180.034 438.003 180.034C443.229 180.034 447.681 180.954 451.361 182.794C455.041 184.56 457.838 187.136 459.752 190.522C461.739 193.834 462.733 197.845 462.733 202.555V237H451.472L450.147 228.058C449.411 229.53 448.454 230.891 447.277 232.142C446.173 233.394 444.885 234.498 443.413 235.454C441.941 236.338 440.248 237.037 438.334 237.552C436.494 238.067 434.397 238.325 432.041 238.325ZM435.022 227.837C437.157 227.837 439.033 227.469 440.653 226.733C442.345 225.923 443.781 224.819 444.958 223.421C446.209 221.949 447.166 220.33 447.829 218.563C448.491 216.797 448.933 214.92 449.153 212.933V212.712H436.899C434.323 212.712 432.189 213.043 430.496 213.706C428.803 214.294 427.589 215.178 426.853 216.355C426.117 217.533 425.749 218.894 425.749 220.44C425.749 221.986 426.117 223.31 426.853 224.414C427.589 225.518 428.656 226.365 430.054 226.954C431.453 227.542 433.109 227.837 435.022 227.837ZM496.891 237C493.137 237 489.862 236.411 487.065 235.234C484.342 234.056 482.208 232.106 480.662 229.382C479.117 226.659 478.344 222.979 478.344 218.342V192.509H468.849V181.358H478.344L479.889 166.675H491.592V181.358H506.717V192.509H491.592V218.342C491.592 221.139 492.181 223.09 493.358 224.194C494.609 225.224 496.67 225.739 499.541 225.739H506.385V237H496.891ZM534.416 238.325C529.853 238.325 526.062 237.552 523.045 236.006C520.027 234.461 517.782 232.4 516.31 229.824C514.838 227.248 514.102 224.451 514.102 221.434C514.102 217.901 514.985 214.846 516.752 212.27C518.592 209.694 521.278 207.707 524.811 206.309C528.344 204.837 532.686 204.101 537.838 204.101H551.859C551.859 201.157 551.454 198.728 550.645 196.814C549.835 194.827 548.584 193.355 546.891 192.398C545.198 191.442 543.027 190.963 540.377 190.963C537.36 190.963 534.784 191.662 532.649 193.061C530.515 194.386 529.19 196.446 528.675 199.243H515.648C516.089 195.269 517.414 191.883 519.622 189.086C521.83 186.216 524.737 184.008 528.344 182.462C532.024 180.843 536.035 180.034 540.377 180.034C545.603 180.034 550.056 180.954 553.736 182.794C557.416 184.56 560.213 187.136 562.126 190.522C564.113 193.834 565.107 197.845 565.107 202.555V237H553.846L552.521 228.058C551.785 229.53 550.829 230.891 549.651 232.142C548.547 233.394 547.259 234.498 545.787 235.454C544.315 236.338 542.622 237.037 540.709 237.552C538.869 238.067 536.771 238.325 534.416 238.325ZM537.397 227.837C539.531 227.837 541.408 227.469 543.027 226.733C544.72 225.923 546.155 224.819 547.333 223.421C548.584 221.949 549.541 220.33 550.203 218.563C550.865 216.797 551.307 214.92 551.528 212.933V212.712H539.273C536.697 212.712 534.563 213.043 532.87 213.706C531.177 214.294 529.963 215.178 529.227 216.355C528.491 217.533 528.123 218.894 528.123 220.44C528.123 221.986 528.491 223.31 529.227 224.414C529.963 225.518 531.03 226.365 532.429 226.954C533.827 227.542 535.483 227.837 537.397 227.837ZM625.977 238.325C620.384 238.325 615.416 237.331 611.073 235.344C606.731 233.357 603.345 230.523 600.916 226.843C598.488 223.163 597.236 218.784 597.163 213.706H611.184C611.184 216.282 611.772 218.6 612.95 220.661C614.201 222.648 615.894 224.23 618.028 225.408C620.236 226.586 622.886 227.174 625.977 227.174C628.627 227.174 630.908 226.77 632.822 225.96C634.809 225.077 636.318 223.862 637.348 222.317C638.452 220.698 639.004 218.821 639.004 216.686C639.004 214.258 638.416 212.27 637.238 210.725C636.134 209.106 634.588 207.744 632.601 206.64C630.614 205.536 628.332 204.579 625.756 203.77C623.18 202.886 620.457 201.966 617.587 201.01C611.478 198.949 606.878 196.336 603.787 193.171C600.696 189.933 599.15 185.627 599.15 180.254C599.15 175.765 600.217 171.901 602.352 168.662C604.486 165.424 607.467 162.922 611.294 161.155C615.195 159.315 619.684 158.395 624.763 158.395C629.915 158.395 634.404 159.315 638.232 161.155C642.132 162.995 645.187 165.571 647.395 168.883C649.676 172.122 650.854 176.022 650.928 180.586H636.796C636.723 178.672 636.208 176.906 635.251 175.286C634.294 173.594 632.896 172.232 631.056 171.202C629.289 170.098 627.118 169.546 624.542 169.546C622.334 169.472 620.347 169.84 618.58 170.65C616.888 171.386 615.526 172.49 614.496 173.962C613.539 175.36 613.06 177.126 613.06 179.261C613.06 181.322 613.502 183.051 614.385 184.45C615.342 185.774 616.704 186.915 618.47 187.872C620.236 188.755 622.297 189.602 624.652 190.411C627.008 191.221 629.584 192.104 632.38 193.061C636.208 194.312 639.667 195.858 642.758 197.698C645.923 199.464 648.425 201.782 650.265 204.653C652.105 207.523 653.025 211.24 653.025 215.803C653.025 219.778 651.995 223.494 649.934 226.954C647.873 230.339 644.856 233.099 640.881 235.234C636.907 237.294 631.939 238.325 625.977 238.325ZM686.331 237C682.577 237 679.302 236.411 676.505 235.234C673.782 234.056 671.647 232.106 670.102 229.382C668.556 226.659 667.783 222.979 667.783 218.342V192.509H658.289V181.358H667.783L669.329 166.675H681.031V181.358H696.156V192.509H681.031V218.342C681.031 221.139 681.62 223.09 682.798 224.194C684.049 225.224 686.11 225.739 688.98 225.739H695.825V237H686.331ZM705.308 237V181.358H717.121L718.335 191.736C719.66 189.307 721.316 187.246 723.303 185.554C725.291 183.787 727.609 182.426 730.259 181.469C732.982 180.512 735.963 180.034 739.201 180.034V194.054H734.564C732.356 194.054 730.259 194.349 728.271 194.938C726.284 195.453 724.555 196.336 723.083 197.587C721.684 198.765 720.58 200.421 719.771 202.555C718.961 204.616 718.556 207.229 718.556 210.394V237H705.308ZM770.744 238.325C765.224 238.325 760.367 237.147 756.171 234.792C751.976 232.363 748.701 228.978 746.346 224.635C743.991 220.293 742.813 215.288 742.813 209.621C742.813 203.733 743.954 198.581 746.235 194.165C748.591 189.749 751.866 186.29 756.061 183.787C760.33 181.285 765.261 180.034 770.855 180.034C776.301 180.034 781.048 181.248 785.096 183.677C789.144 186.106 792.272 189.381 794.48 193.502C796.688 197.55 797.792 202.114 797.792 207.192C797.792 207.928 797.792 208.738 797.792 209.621C797.792 210.504 797.719 211.424 797.571 212.381H752.307V203.88H784.434C784.287 199.832 782.925 196.667 780.349 194.386C777.773 192.03 774.571 190.853 770.744 190.853C768.021 190.853 765.519 191.478 763.237 192.73C760.955 193.981 759.152 195.858 757.827 198.36C756.503 200.789 755.84 203.88 755.84 207.634V210.835C755.84 214.294 756.466 217.275 757.717 219.778C759.042 222.28 760.808 224.194 763.016 225.518C765.298 226.77 767.837 227.395 770.634 227.395C773.725 227.395 776.264 226.733 778.251 225.408C780.312 224.083 781.821 222.317 782.778 220.109H796.247C795.216 223.568 793.523 226.696 791.168 229.493C788.813 232.216 785.906 234.387 782.447 236.006C778.987 237.552 775.087 238.325 770.744 238.325ZM825.259 238.325C820.696 238.325 816.906 237.552 813.888 236.006C810.871 234.461 808.626 232.4 807.154 229.824C805.682 227.248 804.946 224.451 804.946 221.434C804.946 217.901 805.829 214.846 807.595 212.27C809.435 209.694 812.122 207.707 815.655 206.309C819.187 204.837 823.53 204.101 828.682 204.101H842.703C842.703 201.157 842.298 198.728 841.488 196.814C840.679 194.827 839.427 193.355 837.735 192.398C836.042 191.442 833.871 190.963 831.221 190.963C828.203 190.963 825.627 191.662 823.493 193.061C821.359 194.386 820.034 196.446 819.519 199.243H806.491C806.933 195.269 808.258 191.883 810.466 189.086C812.674 186.216 815.581 184.008 819.187 182.462C822.867 180.843 826.879 180.034 831.221 180.034C836.447 180.034 840.899 180.954 844.579 182.794C848.259 184.56 851.056 187.136 852.97 190.522C854.957 193.834 855.951 197.845 855.951 202.555V237H844.69L843.365 228.058C842.629 229.53 841.672 230.891 840.495 232.142C839.391 233.394 838.103 234.498 836.631 235.454C835.159 236.338 833.466 237.037 831.552 237.552C829.712 238.067 827.615 238.325 825.259 238.325ZM828.24 227.837C830.375 227.837 832.251 227.469 833.871 226.733C835.563 225.923 836.999 224.819 838.176 223.421C839.427 221.949 840.384 220.33 841.047 218.563C841.709 216.797 842.151 214.92 842.371 212.933V212.712H830.117C827.541 212.712 825.407 213.043 823.714 213.706C822.021 214.294 820.807 215.178 820.071 216.355C819.335 217.533 818.967 218.894 818.967 220.44C818.967 221.986 819.335 223.31 820.071 224.414C820.807 225.518 821.874 226.365 823.272 226.954C824.671 227.542 826.327 227.837 828.24 227.837ZM866.794 237V181.358H878.496L879.6 188.976C881.367 186.179 883.685 184.008 886.556 182.462C889.5 180.843 892.848 180.034 896.602 180.034C899.399 180.034 901.901 180.402 904.109 181.138C906.391 181.874 908.378 182.978 910.071 184.45C911.837 185.922 913.272 187.762 914.376 189.97C916.437 186.878 919.124 184.45 922.436 182.683C925.748 180.917 929.354 180.034 933.255 180.034C937.892 180.034 941.829 180.99 945.068 182.904C948.306 184.744 950.772 187.504 952.464 191.184C954.157 194.79 955.004 199.243 955.004 204.542V237H941.866V205.867C941.866 201.157 940.909 197.55 938.996 195.048C937.082 192.546 934.248 191.294 930.495 191.294C927.919 191.294 925.637 191.92 923.65 193.171C921.736 194.422 920.228 196.262 919.124 198.691C918.02 201.046 917.468 203.954 917.468 207.413V237H904.33V205.867C904.33 201.157 903.373 197.55 901.46 195.048C899.546 192.546 896.676 191.294 892.848 191.294C890.42 191.294 888.212 191.92 886.224 193.171C884.311 194.422 882.802 196.262 881.698 198.691C880.594 201.046 880.042 203.954 880.042 207.413V237H866.794ZM966.24 237V181.358H979.488V237H966.24ZM972.864 172.526C970.435 172.526 968.411 171.79 966.792 170.318C965.247 168.773 964.474 166.896 964.474 164.688C964.474 162.406 965.247 160.566 966.792 159.168C968.411 157.696 970.435 156.96 972.864 156.96C975.293 156.96 977.28 157.696 978.826 159.168C980.445 160.566 981.255 162.406 981.255 164.688C981.255 166.896 980.445 168.773 978.826 170.318C977.28 171.79 975.293 172.526 972.864 172.526ZM991.486 237V181.358H1003.19L1004.18 190.632C1005.87 187.394 1008.3 184.818 1011.47 182.904C1014.63 180.99 1018.39 180.034 1022.73 180.034C1027.22 180.034 1031.05 180.99 1034.21 182.904C1037.38 184.744 1039.8 187.467 1041.5 191.074C1043.26 194.68 1044.15 199.17 1044.15 204.542V237H1030.9V205.757C1030.9 201.12 1029.87 197.55 1027.81 195.048C1025.75 192.546 1022.69 191.294 1018.64 191.294C1015.99 191.294 1013.6 191.92 1011.47 193.171C1009.41 194.422 1007.75 196.262 1006.5 198.691C1005.32 201.046 1004.73 203.917 1004.73 207.302V237H991.486ZM1078.21 262.613C1072.98 262.613 1068.38 261.95 1064.41 260.626C1060.51 259.374 1057.45 257.424 1055.24 254.774C1053.11 252.198 1052.04 248.96 1052.04 245.059C1052.04 242.778 1052.59 240.533 1053.7 238.325C1054.88 236.19 1056.6 234.203 1058.89 232.363C1061.24 230.45 1064.22 228.794 1067.83 227.395L1073.68 233.798C1070.15 235.05 1067.68 236.558 1066.28 238.325C1064.88 240.091 1064.19 241.894 1064.19 243.734C1064.19 245.648 1064.77 247.23 1065.95 248.482C1067.2 249.806 1068.86 250.8 1070.92 251.462C1073.05 252.125 1075.45 252.456 1078.1 252.456C1080.67 252.456 1082.92 252.088 1084.83 251.352C1086.74 250.69 1088.22 249.733 1089.25 248.482C1090.35 247.23 1090.9 245.722 1090.9 243.955C1090.9 241.747 1090.13 239.944 1088.58 238.546C1087.04 237.221 1083.98 236.411 1079.42 236.117C1075.52 235.822 1072.1 235.418 1069.15 234.902C1066.21 234.314 1063.67 233.651 1061.54 232.915C1059.48 232.179 1057.71 231.37 1056.24 230.486C1054.76 229.53 1053.55 228.573 1052.59 227.616V225.077L1064.19 212.933L1074.01 216.134L1060.98 228.83L1064.41 222.427C1065.14 222.942 1065.88 223.421 1066.61 223.862C1067.42 224.304 1068.42 224.709 1069.6 225.077C1070.85 225.371 1072.47 225.666 1074.45 225.96C1076.44 226.254 1079.02 226.549 1082.18 226.843C1087.11 227.211 1091.12 228.094 1094.21 229.493C1097.31 230.891 1099.59 232.768 1101.06 235.123C1102.53 237.478 1103.27 240.312 1103.27 243.624C1103.27 246.862 1102.35 249.917 1100.51 252.787C1098.74 255.658 1096.02 258.013 1092.34 259.853C1088.66 261.693 1083.95 262.613 1078.21 262.613ZM1078.21 220.33C1073.57 220.33 1069.56 219.446 1066.17 217.68C1062.86 215.84 1060.32 213.411 1058.56 210.394C1056.79 207.302 1055.91 203.917 1055.91 200.237C1055.91 196.483 1056.79 193.098 1058.56 190.08C1060.32 187.062 1062.86 184.634 1066.17 182.794C1069.56 180.954 1073.57 180.034 1078.21 180.034C1082.84 180.034 1086.82 180.954 1090.13 182.794C1093.44 184.634 1095.98 187.062 1097.75 190.08C1099.51 193.098 1100.4 196.483 1100.4 200.237C1100.4 203.917 1099.51 207.302 1097.75 210.394C1095.98 213.411 1093.44 215.84 1090.13 217.68C1086.82 219.446 1082.84 220.33 1078.21 220.33ZM1078.21 210.062C1081.37 210.062 1083.91 209.216 1085.82 207.523C1087.74 205.83 1088.69 203.402 1088.69 200.237C1088.69 197.072 1087.74 194.68 1085.82 193.061C1083.91 191.368 1081.37 190.522 1078.21 190.522C1075.04 190.522 1072.47 191.368 1070.48 193.061C1068.49 194.68 1067.5 197.072 1067.5 200.237C1067.5 203.402 1068.49 205.83 1070.48 207.523C1072.47 209.216 1075.04 210.062 1078.21 210.062ZM1087.37 191.074L1084.83 181.358H1107.68V189.638L1087.37 191.074Z" fill="#1B3139"/>
</svg>
