<svg width="1080" height="1080" viewBox="0 0 1080 1080" fill="none" xmlns="http://www.w3.org/2000/svg">
<path d="M920.389 759.482V320.482L540.194 101L160 320.482V759.482L540.194 979L920.389 759.482Z" fill="#1B3139"/>
<mask id="mask0_4201_1809" style="mask-type:luminance" maskUnits="userSpaceOnUse" x="188" y="133" width="705" height="814">
<path d="M892.359 743.284V336.68L540.194 133.361L188.065 336.68V743.284L540.194 946.604L892.359 743.284Z" fill="white"/>
</mask>
<g mask="url(#mask0_4201_1809)">
<path d="M444.098 297.453L788.094 268.614L540.124 123.219L370.714 215.372C367.897 216.921 367.334 220.724 369.623 222.978L444.098 297.453Z" fill="#D02027"/>
<path d="M441.985 782.477L362.158 861.037L539.561 956.992L790.981 811.351L441.985 782.477Z" fill="#742A85"/>
<path d="M578.893 646.766L441.985 782.441C431.281 793.076 438.781 811.351 453.887 811.351H791.016L910.846 742.615V675.676L578.893 646.766Z" fill="#2B348B"/>
<path d="M674.145 540.001C674.145 547.677 671.151 555.354 665.271 561.199L578.893 646.802C568.189 657.436 575.689 675.712 590.795 675.712H910.846V540.036H674.145V540.001Z" fill="#30B34A"/>
<path d="M788.129 268.614H456.071C441.035 268.614 433.499 286.819 444.133 297.453L579.809 433.129L910.846 404.289V337.279L788.129 268.614Z" fill="#ED9C21"/>
<path d="M591.746 404.324C576.71 404.324 569.175 422.53 579.809 433.164L665.376 518.731C671.257 524.612 674.18 532.324 674.144 540.035H910.846V404.36H591.746V404.324Z" fill="#F2E900"/>
<path d="M364.763 218.118L177.008 326.539L186.022 744.482L362.158 861.036L665.271 561.198C677.067 549.507 677.102 530.457 656.327 509.682L364.763 218.118Z" fill="black"/>
<path d="M299.795 255.621L176.973 326.54L177.043 750.926L298.281 822.62L562.766 561.199C574.562 549.508 574.597 530.458 553.857 509.682L299.795 255.621Z" fill="#603918"/>
<path d="M177.078 750.926L236.659 782.476L460.367 561.198C472.163 549.507 472.198 530.457 460.472 518.696L237.504 295.728C235.954 294.178 233.595 293.861 231.694 294.953L179.473 325.095C177.959 325.976 177.043 327.595 177.078 329.356V750.89V750.926Z" fill="#79CFE7"/>
<path d="M177.008 336.576L177.078 741.701L367.51 551.692C374.024 545.248 374.06 534.719 367.545 528.24L177.008 336.576Z" fill="#F6ADC5"/>
<path d="M179.367 440.312L177.043 640.603L265.005 551.691C271.519 545.247 271.555 534.718 265.04 528.239L179.332 440.312H179.367Z" fill="white"/>
</g>
</svg>
