<svg width="1080" height="1080" viewBox="0 0 1080 1080" fill="none" xmlns="http://www.w3.org/2000/svg">
<path d="M920.389 759.482V320.482L540.194 101L160 320.482V759.482L540.194 979L920.389 759.482Z" fill="#1B3139"/>
<mask id="mask0_4257_161" style="mask-type:luminance" maskUnits="userSpaceOnUse" x="188" y="133" width="705" height="814">
<path d="M892.359 743.285V336.68L540.194 133.361L188.065 336.68V743.285L540.194 946.604L892.359 743.285Z" fill="white"/>
</mask>
<g mask="url(#mask0_4257_161)">
<path d="M444.098 297.453L788.094 268.614L540.124 123.22L370.714 215.372C367.897 216.921 367.334 220.724 369.623 222.978L444.098 297.453Z" fill="#D02027"/>
<path d="M441.985 782.477L362.158 861.037L539.561 956.992L790.981 811.351L441.985 782.477Z" fill="#742A85"/>
<path d="M578.893 646.766L441.985 782.441C431.281 793.075 438.781 811.351 453.887 811.351H791.016L910.846 742.615V675.675L578.893 646.766Z" fill="#2B348B"/>
<path d="M674.145 540.001C674.145 547.677 671.151 555.354 665.271 561.199L578.893 646.802C568.189 657.436 575.689 675.712 590.795 675.712H910.846V540.036H674.145V540.001Z" fill="#30B34A"/>
<path d="M788.129 268.614H456.071C441.035 268.614 433.499 286.819 444.133 297.454L579.809 433.129L910.846 404.29V337.28L788.129 268.614Z" fill="#ED9C21"/>
<path d="M591.746 404.325C576.71 404.325 569.175 422.53 579.809 433.165L665.376 518.732C671.257 524.613 674.18 532.324 674.144 540.036H910.846V404.36H591.746V404.325Z" fill="#F2E900"/>
<path d="M364.763 218.119L177.008 326.539L186.022 744.482L362.158 861.037L665.271 561.199C677.067 549.508 677.102 530.458 656.327 509.682L364.763 218.119Z" fill="black"/>
<path d="M299.795 255.621L176.973 326.54L177.043 750.927L298.281 822.62L562.766 561.199C574.562 549.508 574.597 530.458 553.857 509.683L299.795 255.621Z" fill="#603918"/>
<path d="M177.078 750.926L236.659 782.477L460.367 561.198C472.163 549.508 472.198 530.458 460.472 518.696L237.504 295.728C235.954 294.179 233.595 293.862 231.694 294.953L179.473 325.096C177.959 325.976 177.043 327.596 177.078 329.356V750.891V750.926Z" fill="#79CFE7"/>
<path d="M177.008 336.576L177.078 741.701L367.51 551.692C374.024 545.248 374.06 534.719 367.545 528.24L177.008 336.576Z" fill="#F6ADC5"/>
<path d="M179.367 440.312L177.043 640.604L265.005 551.691C271.519 545.247 271.555 534.718 265.04 528.239L179.332 440.312H179.367Z" fill="white"/>
</g>
<path d="M860.735 834.887L851.375 818.675L853.266 817.583L858.895 827.333L860.749 819.988L863.068 818.649L861.027 826.552L870.147 829.453L867.738 830.844L859.285 828.008L862.626 833.795L860.735 834.887Z" fill="#1B3139"/>
<path d="M852.555 839.61L846.107 828.442L847.818 827.454L849.211 829.502C849.132 828.567 849.319 827.679 849.773 826.836C850.227 825.993 850.972 825.273 852.008 824.675L853.152 826.656L852.634 826.955C851.974 827.337 851.435 827.808 851.018 828.369C850.593 828.914 850.375 829.56 850.366 830.306C850.356 831.053 850.633 831.913 851.197 832.889L854.447 838.518L852.555 839.61Z" fill="#1B3139"/>
<path d="M844.474 844.635C843.424 845.242 842.339 845.548 841.221 845.553C840.103 845.558 839.045 845.268 838.047 844.683C837.056 844.075 836.217 843.178 835.533 841.992C834.848 840.806 834.502 839.635 834.495 838.478C834.479 837.307 834.753 836.238 835.316 835.272C835.894 834.298 836.709 833.507 837.76 832.901C838.81 832.294 839.895 831.988 841.013 831.983C842.131 831.978 843.185 832.28 844.177 832.888C845.175 833.473 846.016 834.358 846.701 835.544C847.386 836.73 847.736 837.909 847.752 839.08C847.759 840.237 847.474 841.302 846.896 842.277C846.332 843.243 845.525 844.029 844.474 844.635ZM843.538 843.014C844.184 842.641 844.693 842.137 845.067 841.501C845.44 840.865 845.618 840.133 845.599 839.303C845.58 838.473 845.302 837.593 844.765 836.662C844.227 835.731 843.604 835.05 842.895 834.619C842.201 834.179 841.485 833.962 840.747 833.968C840.01 833.973 839.326 834.158 838.696 834.522C838.05 834.895 837.541 835.399 837.167 836.035C836.794 836.671 836.616 837.403 836.635 838.233C836.654 839.063 836.932 839.943 837.469 840.874C838.007 841.805 838.63 842.486 839.339 842.917C840.048 843.348 840.764 843.565 841.487 843.568C842.224 843.563 842.908 843.378 843.538 843.014Z" fill="#1B3139"/>
<path d="M824.924 855.563L815.211 846.279L817.102 845.187L824.524 852.581L822.079 842.314L824.218 841.079L831.909 848.317L829.194 838.206L831.108 837.101L834.291 850.155L832.354 851.273L824.29 843.649L826.86 854.445L824.924 855.563Z" fill="#1B3139"/>
<path d="M818.378 859.342C817.357 859.932 816.411 860.148 815.54 859.99C814.668 859.833 813.86 859.109 813.114 857.818L809.565 851.671L807.629 852.789L806.706 851.19L808.642 850.072L807.343 847.25L808.987 846.301L810.534 848.98L813.821 847.082L814.744 848.681L811.457 850.579L815.006 856.726C815.413 857.431 815.833 857.829 816.266 857.92C816.689 857.996 817.262 857.825 817.982 857.409L819.153 856.733L820.089 858.354L818.378 859.342Z" fill="#1B3139"/>
<path d="M806.696 866.447C805.63 867.062 804.546 867.368 803.443 867.364C802.331 867.346 801.284 867.04 800.301 866.446C799.333 865.844 798.507 864.95 797.822 863.764C797.146 862.594 796.789 861.439 796.752 860.299C796.706 859.145 796.957 858.089 797.505 857.132C798.06 856.151 798.885 855.345 799.981 854.712C801.062 854.088 802.136 853.798 803.202 853.843C804.275 853.864 805.251 854.151 806.131 854.704C807.011 855.257 807.715 855.991 808.243 856.907C808.339 857.072 808.427 857.242 808.507 857.415C808.602 857.581 808.711 857.768 808.832 857.978L799.938 863.113C800.477 863.943 801.084 864.543 801.758 864.914C802.439 865.262 803.125 865.426 803.815 865.408C804.52 865.382 805.173 865.195 805.773 864.848C806.554 864.397 807.103 863.84 807.42 863.177C807.737 862.513 807.838 861.804 807.723 861.05L809.592 859.971C809.89 861.18 809.81 862.377 809.353 863.562C808.903 864.722 808.017 865.684 806.696 866.447ZM800.859 856.337C799.958 856.857 799.316 857.598 798.931 858.561C798.552 859.5 798.614 860.525 799.115 861.637L806.141 857.581C805.515 856.601 804.715 856.012 803.74 855.814C802.765 855.617 801.805 855.791 800.859 856.337Z" fill="#1B3139"/>
<path d="M786.107 877.974L777.007 862.212L778.899 861.12L794.59 868.903L787.297 856.271L789.189 855.179L798.289 870.941L796.397 872.033L780.706 864.25L787.999 876.882L786.107 877.974Z" fill="#1B3139"/>
<path d="M773.212 885.779C771.876 886.551 770.57 886.854 769.294 886.69C768.018 886.526 766.972 885.909 766.154 884.84L768.091 883.722C768.549 884.238 769.151 884.571 769.898 884.72C770.651 884.846 771.455 884.662 772.311 884.168C773.107 883.708 773.597 883.205 773.781 882.658C773.957 882.096 773.911 881.583 773.642 881.117C773.252 880.442 772.745 880.134 772.119 880.195C771.509 880.247 770.709 880.439 769.719 880.77C769.049 880.997 768.349 881.171 767.619 881.292C766.888 881.414 766.204 881.389 765.564 881.218C764.916 881.031 764.397 880.601 764.007 879.925C763.444 878.949 763.345 877.946 763.71 876.914C764.082 875.859 764.89 874.972 766.136 874.253C767.322 873.568 768.464 873.309 769.561 873.476C770.665 873.62 771.593 874.205 772.345 875.231L770.477 876.31C770.072 875.783 769.569 875.483 768.967 875.411C768.371 875.314 767.727 875.466 767.037 875.864C766.361 876.254 765.918 876.7 765.708 877.202C765.512 877.695 765.549 878.175 765.817 878.64C766.077 879.09 766.514 879.309 767.126 879.295C767.754 879.273 768.525 879.118 769.44 878.83C770.217 878.582 770.978 878.392 771.724 878.262C772.475 878.108 773.172 878.136 773.814 878.346C774.462 878.533 775.02 879.031 775.488 879.842C776.083 880.839 776.182 881.893 775.782 883.004C775.389 884.092 774.533 885.017 773.212 885.779Z" fill="#1B3139"/>
<path d="M761.135 892.752C760.069 893.367 758.985 893.673 757.882 893.669C756.77 893.65 755.723 893.344 754.74 892.751C753.772 892.149 752.946 891.255 752.261 890.069C751.585 888.898 751.228 887.743 751.191 886.604C751.145 885.45 751.396 884.394 751.944 883.437C752.499 882.456 753.324 881.65 754.42 881.017C755.501 880.393 756.574 880.103 757.641 880.148C758.714 880.169 759.69 880.456 760.57 881.009C761.45 881.562 762.154 882.296 762.682 883.212C762.778 883.377 762.865 883.546 762.946 883.72C763.041 883.885 763.149 884.073 763.271 884.283L754.377 889.418C754.916 890.248 755.523 890.848 756.197 891.219C756.878 891.566 757.564 891.731 758.254 891.713C758.959 891.686 759.611 891.499 760.212 891.153C760.992 890.702 761.541 890.145 761.859 889.481C762.176 888.818 762.277 888.109 762.162 887.355L764.031 886.276C764.329 887.485 764.249 888.682 763.792 889.866C763.342 891.027 762.456 891.989 761.135 892.752ZM755.298 882.642C754.397 883.162 753.754 883.903 753.37 884.866C752.991 885.805 753.053 886.83 753.554 887.941L760.579 883.885C759.954 882.906 759.154 882.317 758.179 882.119C757.204 881.921 756.244 882.096 755.298 882.642Z" fill="#1B3139"/>
<path d="M743.841 884.183C743.465 884.4 743.081 884.462 742.687 884.369C742.299 884.252 741.997 884.006 741.781 883.631C741.573 883.271 741.519 882.901 741.621 882.522C741.738 882.135 741.983 881.833 742.359 881.616C742.719 881.408 743.096 881.351 743.49 881.443C743.884 881.536 744.185 881.763 744.393 882.123C744.609 882.498 744.664 882.887 744.556 883.29C744.439 883.677 744.201 883.975 743.841 884.183ZM750.773 898.374L744.325 887.206L746.216 886.114L752.664 897.282L750.773 898.374Z" fill="#1B3139"/>
<path d="M742.391 903.214L735.943 892.046L737.654 891.058L739.046 893.106C738.967 892.171 739.154 891.282 739.609 890.439C740.063 889.597 740.808 888.876 741.844 888.278L742.988 890.26L742.47 890.559C741.809 890.94 741.271 891.411 740.854 891.972C740.428 892.518 740.211 893.164 740.201 893.91C740.192 894.656 740.469 895.517 741.032 896.493L744.282 902.122L742.391 903.214Z" fill="#1B3139"/>
<path d="M734.748 907.986C733.682 908.601 732.598 908.907 731.495 908.903C730.383 908.885 729.336 908.579 728.353 907.985C727.385 907.383 726.559 906.489 725.874 905.304C725.198 904.133 724.841 902.978 724.804 901.838C724.758 900.684 725.009 899.628 725.558 898.671C726.112 897.691 726.937 896.884 728.033 896.251C729.114 895.627 730.188 895.338 731.254 895.382C732.327 895.403 733.304 895.69 734.183 896.243C735.063 896.796 735.767 897.53 736.296 898.446C736.391 898.611 736.479 898.781 736.559 898.954C736.654 899.12 736.763 899.307 736.884 899.517L727.99 904.652C728.529 905.482 729.136 906.082 729.81 906.453C730.491 906.801 731.177 906.966 731.867 906.947C732.572 906.921 733.225 906.734 733.825 906.387C734.606 905.937 735.155 905.379 735.472 904.716C735.79 904.052 735.891 903.343 735.775 902.589L737.644 901.51C737.942 902.719 737.863 903.916 737.406 905.101C736.955 906.261 736.069 907.223 734.748 907.986ZM728.911 897.876C728.011 898.396 727.368 899.137 726.983 900.1C726.604 901.039 726.666 902.064 727.168 903.176L734.193 899.12C733.567 898.14 732.767 897.551 731.792 897.354C730.817 897.156 729.857 897.33 728.911 897.876Z" fill="#1B3139"/>
<path d="M721.929 915.387C720.863 916.003 719.778 916.308 718.676 916.305C717.564 916.286 716.517 915.98 715.534 915.387C714.566 914.785 713.739 913.891 713.055 912.705C712.379 911.534 712.022 910.379 711.985 909.24C711.939 908.085 712.19 907.03 712.738 906.073C713.293 905.092 714.118 904.285 715.214 903.653C716.294 903.029 717.368 902.739 718.435 902.784C719.508 902.805 720.484 903.092 721.364 903.645C722.243 904.197 722.947 904.932 723.476 905.847C723.571 906.013 723.659 906.182 723.74 906.356C723.835 906.521 723.943 906.709 724.065 906.919L715.17 912.054C715.709 912.883 716.316 913.484 716.991 913.855C717.672 914.202 718.357 914.367 719.047 914.349C719.752 914.322 720.405 914.135 721.006 913.789C721.786 913.338 722.335 912.781 722.653 912.117C722.97 911.454 723.071 910.745 722.956 909.991L724.825 908.912C725.123 910.121 725.043 911.317 724.586 912.502C724.135 913.663 723.25 914.625 721.929 915.387ZM716.092 905.277C715.191 905.797 714.548 906.539 714.163 907.501C713.785 908.44 713.846 909.466 714.348 910.577L721.373 906.521C720.747 905.541 719.947 904.953 718.972 904.755C717.998 904.557 717.037 904.731 716.092 905.277Z" fill="#1B3139"/>
<path d="M708.098 923.373C706.777 924.136 705.496 924.345 704.256 924C703.008 923.64 701.902 922.627 700.94 920.96L697.17 914.431L699.062 913.339L702.715 919.666C704.058 921.993 705.683 922.606 707.589 921.505C708.565 920.942 709.169 920.133 709.401 919.078C709.639 918 709.385 916.815 708.64 915.524L705.299 909.738L707.19 908.646L713.638 919.814L711.927 920.802L710.635 918.876C710.697 919.781 710.5 920.635 710.043 921.439C709.602 922.234 708.953 922.879 708.098 923.373Z" fill="#1B3139"/>
<path d="M693.462 931.823C691.916 932.716 690.362 933.162 688.801 933.163C687.247 933.139 685.784 932.703 684.413 931.854C683.057 930.995 681.915 929.763 680.988 928.157C680.06 926.551 679.568 924.953 679.512 923.365C679.462 921.753 679.815 920.267 680.572 918.91C681.345 917.543 682.504 916.414 684.05 915.521C685.611 914.62 687.169 914.18 688.723 914.204C690.293 914.218 691.756 914.655 693.112 915.513C694.46 916.356 695.597 917.581 696.524 919.187C697.452 920.793 697.948 922.398 698.013 924.002C698.07 925.59 697.73 927.047 696.994 928.373L703.19 929.899L700.735 931.316L695.744 930.055C695.108 930.722 694.348 931.312 693.462 931.823ZM692.5 930.157C693.656 929.489 694.522 928.649 695.098 927.636C695.68 926.599 695.934 925.462 695.86 924.224C695.792 922.962 695.368 921.656 694.588 920.305C693.808 918.954 692.893 917.941 691.843 917.266C690.808 916.583 689.7 916.242 688.52 916.243C687.346 916.22 686.181 916.542 685.025 917.21C683.869 917.877 683 918.729 682.418 919.766C681.842 920.779 681.583 921.909 681.643 923.155C681.717 924.393 682.144 925.688 682.924 927.039C683.704 928.39 684.616 929.415 685.66 930.113C686.71 930.788 687.822 931.136 688.996 931.159C690.176 931.158 691.344 930.824 692.5 930.157Z" fill="#1B3139"/>
<path d="M672.926 943.679C671.935 944.251 670.973 944.596 670.041 944.714C669.1 944.817 668.239 944.714 667.459 944.403C666.68 944.093 666.028 943.588 665.505 942.89L668.41 941.213C668.751 941.596 669.208 941.833 669.78 941.923C670.359 941.989 670.963 941.84 671.594 941.476C672.224 941.112 672.608 940.72 672.746 940.3C672.899 939.872 672.88 939.492 672.69 939.162C672.412 938.682 672.016 938.48 671.5 938.558C670.976 938.62 670.291 938.786 669.445 939.054C668.904 939.226 668.342 939.38 667.76 939.516C667.178 939.652 666.612 939.729 666.062 939.746C665.518 939.74 665.014 939.63 664.551 939.417C664.079 939.189 663.687 938.805 663.375 938.265C662.803 937.274 662.712 936.216 663.103 935.09C663.509 933.955 664.424 932.976 665.851 932.152C667.172 931.39 668.4 931.091 669.536 931.256C670.687 931.412 671.649 931.987 672.423 932.981L669.699 934.554C669.057 933.824 668.196 933.77 667.115 934.394C666.575 934.706 666.215 935.054 666.036 935.438C665.872 935.813 665.881 936.158 666.063 936.473C666.254 936.803 666.623 936.94 667.171 936.884C667.719 936.828 668.401 936.674 669.217 936.423C670.102 936.153 670.932 935.944 671.707 935.796C672.489 935.625 673.201 935.644 673.842 935.854C674.475 936.049 675.021 936.545 675.481 937.34C675.894 938.022 676.074 938.749 676.019 939.521C675.965 940.293 675.676 941.041 675.152 941.763C674.629 942.486 673.886 943.124 672.926 943.679Z" fill="#1B3139"/>
<path d="M655.906 953.146L646.546 936.934L649.428 935.27L654.953 944.839L656.303 938.025L659.726 936.049L658.093 943.777L666.917 946.789L663.314 948.869L655.551 945.875L658.788 951.482L655.906 953.146Z" fill="#1B3139"/>
<path d="M648.032 958.052C646.892 958.71 645.743 959.043 644.586 959.051C643.429 959.058 642.34 958.766 641.319 958.175C640.312 957.575 639.479 956.705 638.821 955.564C638.162 954.423 637.825 953.267 637.809 952.096C637.808 950.915 638.099 949.826 638.684 948.828C639.269 947.83 640.132 947.002 641.272 946.343C642.698 945.52 644.116 945.202 645.525 945.389C646.925 945.561 648.138 946.222 649.162 947.372L646.122 949.127C645.66 948.673 645.117 948.426 644.493 948.386C643.876 948.322 643.267 948.464 642.667 948.81C641.871 949.27 641.369 949.96 641.16 950.881C640.952 951.802 641.155 952.796 641.77 953.861C642.386 954.927 643.144 955.6 644.046 955.88C644.948 956.159 645.797 956.07 646.593 955.61C647.193 955.264 647.625 954.815 647.886 954.263C648.163 953.703 648.217 953.102 648.046 952.46L651.086 950.705C651.544 952.121 651.506 953.494 650.972 954.823C650.438 956.152 649.458 957.228 648.032 958.052Z" fill="#1B3139"/>
<path d="M630.507 950.607C629.981 950.91 629.455 951.004 628.928 950.888C628.415 950.763 628.021 950.461 627.743 949.981C627.466 949.5 627.406 949.015 627.563 948.524C627.726 948.009 628.07 947.6 628.596 947.297C629.121 946.994 629.64 946.904 630.152 947.029C630.671 947.13 631.069 947.42 631.346 947.901C631.623 948.381 631.68 948.878 631.517 949.393C631.369 949.899 631.032 950.304 630.507 950.607ZM636.514 964.341L630.066 953.173L632.949 951.509L639.397 962.677L636.514 964.341Z" fill="#1B3139"/>
<path d="M627.474 969.561L621.026 958.392L623.593 956.91L625.072 958.848C625.062 957.894 625.28 957.007 625.728 956.188C626.182 955.345 626.882 954.651 627.828 954.105L629.583 957.145L628.772 957.613C628.142 957.977 627.635 958.399 627.253 958.881C626.87 959.362 626.675 959.925 626.667 960.57C626.674 961.206 626.924 961.952 627.418 962.808L630.356 967.897L627.474 969.561Z" fill="#1B3139"/>
<path d="M619.562 974.489C618.721 974.975 617.895 975.242 617.082 975.29C616.27 975.339 615.504 975.191 614.784 974.846L615.353 976.559L612.786 978.041L603.426 961.829L606.308 960.165L610.143 966.808C610.217 966.104 610.439 965.396 610.807 964.683C611.191 963.961 611.856 963.327 612.802 962.781C613.852 962.174 614.938 961.887 616.058 961.921C617.179 961.955 618.235 962.276 619.226 962.884C620.218 963.493 621.039 964.36 621.689 965.485C622.339 966.611 622.679 967.756 622.71 968.919C622.733 970.067 622.478 971.134 621.947 972.121C621.408 973.093 620.612 973.883 619.562 974.489ZM617.498 972.318C618.413 971.79 618.994 971.044 619.239 970.082C619.484 969.12 619.325 968.151 618.762 967.175C618.198 966.2 617.434 965.57 616.47 965.286C615.505 965.002 614.565 965.125 613.65 965.653C612.719 966.191 612.135 966.948 611.899 967.925C611.669 968.879 611.836 969.843 612.399 970.819C612.962 971.795 613.719 972.429 614.668 972.721C615.624 972.99 616.567 972.856 617.498 972.318Z" fill="#1B3139"/>
<path d="M603.797 983.59C602.836 984.145 601.961 984.45 601.172 984.505C600.375 984.545 599.679 984.397 599.084 984.06C598.489 983.723 598.014 983.246 597.659 982.631C597.061 981.595 596.98 980.521 597.418 979.407C597.856 978.294 598.886 977.269 600.507 976.333L603.344 974.695L603.188 974.425C602.746 973.659 602.204 973.222 601.56 973.113C600.917 973.004 600.273 973.136 599.627 973.509C599.042 973.847 598.614 974.284 598.343 974.82C598.064 975.342 598.027 975.903 598.234 976.504L595.42 978.129C595.027 977.275 594.89 976.414 595.008 975.545C595.142 974.667 595.493 973.854 596.062 973.105C596.622 972.342 597.367 971.691 598.298 971.154C599.889 970.235 601.372 969.909 602.747 970.176C604.122 970.443 605.23 971.305 606.07 972.761L610.035 979.628L607.581 981.045L606.271 979.4C606.287 980.191 606.108 980.955 605.733 981.692C605.373 982.42 604.727 983.053 603.797 983.59ZM603.15 980.962C603.975 980.485 604.457 979.847 604.596 979.046C604.749 978.237 604.656 977.4 604.317 976.535L601.862 977.952C601.097 978.394 600.631 978.853 600.466 979.329C600.291 979.79 600.321 980.223 600.555 980.628C600.807 981.064 601.167 981.306 601.636 981.356C602.105 981.405 602.609 981.274 603.15 980.962Z" fill="#1B3139"/>
<path d="M595.289 988.142C594.118 988.818 593.015 989.075 591.981 988.912C590.946 988.749 590.008 987.939 589.167 986.483L586.359 981.619L584.445 982.724L583.054 980.315L584.968 979.21L583.577 976.02L586.121 974.551L587.85 977.546L590.868 975.804L592.259 978.213L589.241 979.955L592.062 984.841C592.374 985.382 592.704 985.692 593.05 985.772C593.403 985.829 593.865 985.692 594.435 985.363L595.831 984.557L597.248 987.011L595.289 988.142Z" fill="#1B3139"/>
<path d="M581.478 996.476C580.517 997.031 579.642 997.336 578.854 997.391C578.056 997.431 577.36 997.283 576.765 996.945C576.17 996.608 575.695 996.132 575.34 995.517C574.742 994.481 574.662 993.406 575.1 992.293C575.538 991.179 576.567 990.155 578.188 989.219L581.025 987.581L580.869 987.31C580.427 986.545 579.885 986.108 579.242 985.999C578.598 985.89 577.954 986.022 577.308 986.394C576.723 986.732 576.295 987.17 576.024 987.706C575.745 988.228 575.709 988.789 575.916 989.39L573.101 991.015C572.708 990.161 572.571 989.3 572.69 988.43C572.823 987.553 573.174 986.739 573.743 985.991C574.303 985.227 575.048 984.577 575.979 984.04C577.57 983.121 579.053 982.795 580.428 983.062C581.803 983.329 582.911 984.19 583.752 985.646L587.717 992.514L585.262 993.931L583.952 992.286C583.969 993.077 583.789 993.841 583.414 994.578C583.054 995.306 582.409 995.939 581.478 996.476ZM580.831 993.848C581.656 993.371 582.138 992.732 582.277 991.932C582.43 991.123 582.337 990.286 581.998 989.421L579.544 990.838C578.778 991.28 578.312 991.739 578.147 992.215C577.973 992.676 578.003 993.109 578.237 993.514C578.488 993.949 578.848 994.192 579.317 994.241C579.786 994.291 580.29 994.16 580.831 993.848Z" fill="#1B3139"/>
<path d="M561.531 1007.63L552.431 991.871L557.813 988.764C559.659 987.698 561.366 987.153 562.933 987.129C564.507 987.081 565.921 987.485 567.176 988.342C568.437 989.175 569.527 990.387 570.446 991.978C571.365 993.569 571.874 995.127 571.973 996.651C572.079 998.151 571.722 999.578 570.902 1000.93C570.089 1002.26 568.759 1003.46 566.913 1004.53L561.531 1007.63ZM562.983 1003.49L565.348 1002.13C566.669 1001.36 567.59 1000.55 568.113 999.689C568.628 998.812 568.82 997.88 568.691 996.894C568.553 995.893 568.155 994.822 567.496 993.681C566.846 992.555 566.122 991.682 565.324 991.062C564.526 990.442 563.618 990.136 562.601 990.142C561.584 990.149 560.416 990.534 559.095 991.296L556.73 992.661L562.983 1003.49Z" fill="#1B3139"/>
</svg>
