<svg width="1746" height="200" viewBox="0 0 1746 200" fill="none" xmlns="http://www.w3.org/2000/svg">
<path d="M175.466 78.0699L149.571 78.0699L75.8379 167.969L25 167.969L25 121.066L57.8006 121.066L131.534 31.25L175.5 31.25L175.466 78.0699Z" fill="#FF5F46"/>
<path d="M142.7 121.065L175.5 121.065L175.5 167.969L124.662 167.969L110.099 150.213L138.351 115.767L142.7 121.065ZM68.9668 31.25L90.3975 57.3545L62.1543 91.7578L50.9287 78.0703L25.0342 78.0703L25 31.25L68.9668 31.25Z" fill="#FABFBA"/>
<path d="M239.838 137.5V60.22H253.086V127.122H287.531V137.5H239.838ZM315.223 138.825C310.659 138.825 306.869 138.052 303.851 136.506C300.834 134.961 298.589 132.9 297.117 130.324C295.645 127.748 294.909 124.951 294.909 121.934C294.909 118.401 295.792 115.346 297.559 112.77C299.399 110.194 302.085 108.207 305.618 106.809C309.151 105.337 313.493 104.601 318.645 104.601H332.666C332.666 101.657 332.261 99.228 331.451 97.3144C330.642 95.3272 329.391 93.8552 327.698 92.8984C326.005 91.9416 323.834 91.4632 321.184 91.4632C318.167 91.4632 315.591 92.1624 313.456 93.5608C311.322 94.8856 309.997 96.9464 309.482 99.7432H296.455C296.896 95.7688 298.221 92.3832 300.429 89.5864C302.637 86.716 305.544 84.508 309.151 82.9624C312.831 81.3432 316.842 80.5336 321.184 80.5336C326.41 80.5336 330.863 81.4536 334.543 83.2936C338.223 85.06 341.019 87.636 342.933 91.0216C344.92 94.3336 345.914 98.3448 345.914 103.055V137.5H334.653L333.328 128.558C332.592 130.03 331.635 131.391 330.458 132.642C329.354 133.894 328.066 134.998 326.594 135.954C325.122 136.838 323.429 137.537 321.515 138.052C319.675 138.567 317.578 138.825 315.223 138.825ZM318.203 128.337C320.338 128.337 322.215 127.969 323.834 127.233C325.527 126.423 326.962 125.319 328.139 123.921C329.391 122.449 330.347 120.83 331.01 119.063C331.672 117.297 332.114 115.42 332.335 113.433V113.212H320.08C317.504 113.212 315.37 113.543 313.677 114.206C311.984 114.794 310.77 115.678 310.034 116.855C309.298 118.033 308.93 119.394 308.93 120.94C308.93 122.486 309.298 123.81 310.034 124.914C310.77 126.018 311.837 126.865 313.235 127.454C314.634 128.042 316.29 128.337 318.203 128.337ZM392.637 137.5L368.018 107.03L390.098 81.8584H405.885L378.396 112.439V102.172L409.197 137.5H392.637ZM356.757 137.5V58.012H370.005V137.5H356.757ZM436.425 138.825C430.905 138.825 426.047 137.647 421.852 135.292C417.657 132.863 414.381 129.478 412.026 125.135C409.671 120.793 408.493 115.788 408.493 110.121C408.493 104.233 409.634 99.0808 411.916 94.6648C414.271 90.2488 417.546 86.7896 421.741 84.2872C426.01 81.7848 430.941 80.5336 436.535 80.5336C441.981 80.5336 446.729 81.748 450.777 84.1768C454.825 86.6056 457.953 89.8808 460.161 94.0024C462.369 98.0504 463.473 102.614 463.473 107.692C463.473 108.428 463.473 109.238 463.473 110.121C463.473 111.004 463.399 111.924 463.252 112.881H417.988V104.38H450.114C449.967 100.332 448.605 97.1672 446.029 94.8856C443.453 92.5304 440.252 91.3528 436.425 91.3528C433.701 91.3528 431.199 91.9784 428.917 93.2296C426.636 94.4808 424.833 96.3576 423.508 98.86C422.183 101.289 421.521 104.38 421.521 108.134V111.335C421.521 114.794 422.146 117.775 423.397 120.278C424.722 122.78 426.489 124.694 428.697 126.018C430.978 127.27 433.517 127.895 436.314 127.895C439.405 127.895 441.945 127.233 443.932 125.908C445.993 124.583 447.501 122.817 448.458 120.609H461.927C460.897 124.068 459.204 127.196 456.849 129.993C454.493 132.716 451.586 134.887 448.127 136.506C444.668 138.052 440.767 138.825 436.425 138.825ZM475.153 137.5V75.7864C475.153 71.5176 475.852 68.0952 477.25 65.5192C478.722 62.8696 480.82 60.956 483.543 59.7784C486.266 58.6008 489.505 58.012 493.258 58.012H499.882V69.2728H495.245C492.817 69.2728 491.05 69.788 489.946 70.8184C488.916 71.7752 488.401 73.468 488.401 75.8968V137.5H475.153ZM467.204 93.0088V81.8584H500.986V93.0088H467.204ZM512.357 137.5V58.012H525.605V137.5H512.357ZM563.054 138.825C557.755 138.825 552.971 137.61 548.702 135.182C544.507 132.679 541.195 129.257 538.766 124.914C536.411 120.498 535.233 115.457 535.233 109.79C535.233 103.975 536.448 98.8968 538.877 94.5544C541.305 90.1384 544.617 86.716 548.813 84.2872C553.081 81.7848 557.865 80.5336 563.165 80.5336C568.464 80.5336 573.211 81.7848 577.406 84.2872C581.675 86.716 584.987 90.1016 587.342 94.444C589.771 98.7864 590.985 103.865 590.985 109.679C590.985 115.494 589.771 120.572 587.342 124.914C584.913 129.257 581.565 132.679 577.296 135.182C573.101 137.61 568.353 138.825 563.054 138.825ZM563.054 127.454C565.704 127.454 568.096 126.791 570.23 125.466C572.438 124.142 574.205 122.154 575.529 119.505C576.854 116.855 577.517 113.58 577.517 109.679C577.517 105.778 576.854 102.54 575.529 99.964C574.278 97.3144 572.549 95.3272 570.341 94.0024C568.206 92.6776 565.814 92.0152 563.165 92.0152C560.589 92.0152 558.197 92.6776 555.989 94.0024C553.781 95.3272 552.014 97.3144 550.689 99.964C549.365 102.54 548.702 105.778 548.702 109.679C548.702 113.58 549.365 116.855 550.689 119.505C552.014 122.154 553.744 124.142 555.878 125.466C558.086 126.791 560.478 127.454 563.054 127.454ZM609.741 137.5L593.402 81.8584H606.54L617.911 127.564L615.482 127.454L628.178 81.8584H642.972L655.778 127.454H653.349L664.721 81.8584H677.858L661.519 137.5H647.829L634.25 90.3592H637.01L623.431 137.5H609.741ZM708.094 137.5V60.22H733.044C742.024 60.22 749.42 61.8024 755.235 64.9672C761.123 68.132 765.465 72.6216 768.262 78.436C771.132 84.1768 772.568 91.0216 772.568 98.9704C772.568 106.772 771.132 113.58 768.262 119.394C765.465 125.135 761.123 129.588 755.235 132.753C749.42 135.918 742.024 137.5 733.044 137.5H708.094ZM721.342 126.239H732.382C739.08 126.239 744.342 125.172 748.169 123.038C752.07 120.83 754.83 117.702 756.449 113.654C758.142 109.532 758.988 104.638 758.988 98.9704C758.988 93.2296 758.142 88.3352 756.449 84.2872C754.83 80.1656 752.07 77.0008 748.169 74.7928C744.342 72.5112 739.08 71.3704 732.382 71.3704H721.342V126.239ZM807.804 138.825C802.284 138.825 797.427 137.647 793.231 135.292C789.036 132.863 785.761 129.478 783.406 125.135C781.051 120.793 779.873 115.788 779.873 110.121C779.873 104.233 781.014 99.0808 783.295 94.6648C785.651 90.2488 788.926 86.7896 793.121 84.2872C797.39 81.7848 802.321 80.5336 807.915 80.5336C813.361 80.5336 818.108 81.748 822.156 84.1768C826.204 86.6056 829.332 89.8808 831.54 94.0024C833.748 98.0504 834.852 102.614 834.852 107.692C834.852 108.428 834.852 109.238 834.852 110.121C834.852 111.004 834.779 111.924 834.631 112.881H789.367V104.38H821.494C821.347 100.332 819.985 97.1672 817.409 94.8856C814.833 92.5304 811.631 91.3528 807.804 91.3528C805.081 91.3528 802.579 91.9784 800.297 93.2296C798.015 94.4808 796.212 96.3576 794.887 98.86C793.563 101.289 792.9 104.38 792.9 108.134V111.335C792.9 114.794 793.526 117.775 794.777 120.278C796.102 122.78 797.868 124.694 800.076 126.018C802.358 127.27 804.897 127.895 807.694 127.895C810.785 127.895 813.324 127.233 815.311 125.908C817.372 124.583 818.881 122.817 819.838 120.609H833.307C832.276 124.068 830.583 127.196 828.228 129.993C825.873 132.716 822.966 134.887 819.507 136.506C816.047 138.052 812.147 138.825 807.804 138.825ZM870.158 138.825C864.711 138.825 859.817 137.61 855.475 135.182C851.206 132.679 847.857 129.257 845.428 124.914C843.073 120.498 841.895 115.494 841.895 109.9C841.895 104.086 843.073 99.0072 845.428 94.6648C847.857 90.2488 851.206 86.7896 855.475 84.2872C859.817 81.7848 864.748 80.5336 870.268 80.5336C877.187 80.5336 883.001 82.3736 887.711 86.0536C892.422 89.66 895.439 94.628 896.764 100.958H882.854C882.118 98.1608 880.572 95.9528 878.217 94.3336C875.935 92.7144 873.212 91.9048 870.047 91.9048C867.324 91.9048 864.822 92.604 862.54 94.0024C860.332 95.4008 858.566 97.4248 857.241 100.074C855.99 102.724 855.364 105.926 855.364 109.679C855.364 112.55 855.732 115.089 856.468 117.297C857.204 119.505 858.235 121.382 859.559 122.927C860.958 124.399 862.54 125.54 864.307 126.35C866.073 127.159 867.987 127.564 870.047 127.564C872.182 127.564 874.095 127.233 875.788 126.57C877.555 125.834 879.027 124.767 880.204 123.369C881.455 121.97 882.339 120.314 882.854 118.401H896.764C895.439 124.583 892.422 129.551 887.711 133.305C883.001 136.985 877.15 138.825 870.158 138.825ZM906.226 137.5V58.012H919.474V137.5H906.226ZM949.492 138.825C944.929 138.825 941.139 138.052 938.121 136.506C935.103 134.961 932.859 132.9 931.387 130.324C929.915 127.748 929.179 124.951 929.179 121.934C929.179 118.401 930.062 115.346 931.828 112.77C933.668 110.194 936.355 108.207 939.887 106.809C943.42 105.337 947.763 104.601 952.915 104.601H966.935C966.935 101.657 966.531 99.228 965.721 97.3144C964.911 95.3272 963.66 93.8552 961.967 92.8984C960.275 91.9416 958.103 91.4632 955.454 91.4632C952.436 91.4632 949.86 92.1624 947.726 93.5608C945.591 94.8856 944.267 96.9464 943.751 99.7432H930.724C931.166 95.7688 932.491 92.3832 934.699 89.5864C936.907 86.716 939.814 84.508 943.42 82.9624C947.1 81.3432 951.111 80.5336 955.454 80.5336C960.679 80.5336 965.132 81.4536 968.812 83.2936C972.492 85.06 975.289 87.636 977.203 91.0216C979.19 94.3336 980.183 98.3448 980.183 103.055V137.5H968.923L967.598 128.558C966.862 130.03 965.905 131.391 964.727 132.642C963.623 133.894 962.335 134.998 960.863 135.954C959.391 136.838 957.699 137.537 955.785 138.052C953.945 138.567 951.847 138.825 949.492 138.825ZM952.473 128.337C954.607 128.337 956.484 127.969 958.103 127.233C959.796 126.423 961.231 125.319 962.409 123.921C963.66 122.449 964.617 120.83 965.279 119.063C965.942 117.297 966.383 115.42 966.604 113.433V113.212H954.35C951.774 113.212 949.639 113.543 947.947 114.206C946.254 114.794 945.039 115.678 944.303 116.855C943.567 118.033 943.199 119.394 943.199 120.94C943.199 122.486 943.567 123.81 944.303 124.914C945.039 126.018 946.107 126.865 947.505 127.454C948.903 128.042 950.559 128.337 952.473 128.337ZM991.027 137.5V81.8584H1002.84L1004.05 92.236C1005.38 89.8072 1007.03 87.7464 1009.02 86.0536C1011.01 84.2872 1013.33 82.9256 1015.98 81.9688C1018.7 81.012 1021.68 80.5336 1024.92 80.5336V94.5544H1020.28C1018.07 94.5544 1015.98 94.8488 1013.99 95.4376C1012 95.9528 1010.27 96.836 1008.8 98.0872C1007.4 99.2648 1006.3 100.921 1005.49 103.055C1004.68 105.116 1004.27 107.729 1004.27 110.894V137.5H991.027ZM1050.14 138.825C1045.58 138.825 1041.79 138.052 1038.77 136.506C1035.75 134.961 1033.51 132.9 1032.04 130.324C1030.56 127.748 1029.83 124.951 1029.83 121.934C1029.83 118.401 1030.71 115.346 1032.48 112.77C1034.32 110.194 1037 108.207 1040.54 106.809C1044.07 105.337 1048.41 104.601 1053.56 104.601H1067.58C1067.58 101.657 1067.18 99.228 1066.37 97.3144C1065.56 95.3272 1064.31 93.8552 1062.62 92.8984C1060.92 91.9416 1058.75 91.4632 1056.1 91.4632C1053.09 91.4632 1050.51 92.1624 1048.38 93.5608C1046.24 94.8856 1044.92 96.9464 1044.4 99.7432H1031.37C1031.82 95.7688 1033.14 92.3832 1035.35 89.5864C1037.56 86.716 1040.46 84.508 1044.07 82.9624C1047.75 81.3432 1051.76 80.5336 1056.1 80.5336C1061.33 80.5336 1065.78 81.4536 1069.46 83.2936C1073.14 85.06 1075.94 87.636 1077.85 91.0216C1079.84 94.3336 1080.83 98.3448 1080.83 103.055V137.5H1069.57L1068.25 128.558C1067.51 130.03 1066.55 131.391 1065.38 132.642C1064.27 133.894 1062.98 134.998 1061.51 135.954C1060.04 136.838 1058.35 137.537 1056.43 138.052C1054.59 138.567 1052.5 138.825 1050.14 138.825ZM1053.12 128.337C1055.26 128.337 1057.13 127.969 1058.75 127.233C1060.45 126.423 1061.88 125.319 1063.06 123.921C1064.31 122.449 1065.27 120.83 1065.93 119.063C1066.59 117.297 1067.03 115.42 1067.25 113.433V113.212H1055C1052.42 113.212 1050.29 113.543 1048.6 114.206C1046.9 114.794 1045.69 115.678 1044.95 116.855C1044.22 118.033 1043.85 119.394 1043.85 120.94C1043.85 122.486 1044.22 123.81 1044.95 124.914C1045.69 126.018 1046.76 126.865 1048.15 127.454C1049.55 128.042 1051.21 128.337 1053.12 128.337ZM1114.99 137.5C1111.24 137.5 1107.96 136.911 1105.17 135.734C1102.44 134.556 1100.31 132.606 1098.76 129.882C1097.22 127.159 1096.44 123.479 1096.44 118.842V93.0088H1086.95V81.8584H1096.44L1097.99 67.1752H1109.69V81.8584H1124.82V93.0088H1109.69V118.842C1109.69 121.639 1110.28 123.59 1111.46 124.694C1112.71 125.724 1114.77 126.239 1117.64 126.239H1124.49V137.5H1114.99ZM1134.52 137.5V81.8584H1147.77V137.5H1134.52ZM1141.14 73.0264C1138.72 73.0264 1136.69 72.2904 1135.07 70.8184C1133.53 69.2728 1132.75 67.396 1132.75 65.188C1132.75 62.9064 1133.53 61.0664 1135.07 59.668C1136.69 58.196 1138.72 57.46 1141.14 57.46C1143.57 57.46 1145.56 58.196 1147.11 59.668C1148.73 61.0664 1149.54 62.9064 1149.54 65.188C1149.54 67.396 1148.73 69.2728 1147.11 70.8184C1145.56 72.2904 1143.57 73.0264 1141.14 73.0264ZM1175 137.5L1154.47 81.8584H1168.38L1183.06 124.914L1197.74 81.8584H1211.43L1190.9 137.5H1175ZM1240.94 138.825C1235.42 138.825 1230.57 137.647 1226.37 135.292C1222.18 132.863 1218.9 129.478 1216.54 125.135C1214.19 120.793 1213.01 115.788 1213.01 110.121C1213.01 104.233 1214.15 99.0808 1216.43 94.6648C1218.79 90.2488 1222.06 86.7896 1226.26 84.2872C1230.53 81.7848 1235.46 80.5336 1241.05 80.5336C1246.5 80.5336 1251.25 81.748 1255.3 84.1768C1259.34 86.6056 1262.47 89.8808 1264.68 94.0024C1266.89 98.0504 1267.99 102.614 1267.99 107.692C1267.99 108.428 1267.99 109.238 1267.99 110.121C1267.99 111.004 1267.92 111.924 1267.77 112.881H1222.51V104.38H1254.63C1254.49 100.332 1253.12 97.1672 1250.55 94.8856C1247.97 92.5304 1244.77 91.3528 1240.94 91.3528C1238.22 91.3528 1235.72 91.9784 1233.44 93.2296C1231.15 94.4808 1229.35 96.3576 1228.03 98.86C1226.7 101.289 1226.04 104.38 1226.04 108.134V111.335C1226.04 114.794 1226.66 117.775 1227.92 120.278C1229.24 122.78 1231.01 124.694 1233.22 126.018C1235.5 127.27 1238.04 127.895 1240.83 127.895C1243.92 127.895 1246.46 127.233 1248.45 125.908C1250.51 124.583 1252.02 122.817 1252.98 120.609H1266.45C1265.42 124.068 1263.72 127.196 1261.37 129.993C1259.01 132.716 1256.1 134.887 1252.65 136.506C1249.19 138.052 1245.29 138.825 1240.94 138.825ZM1300.99 137.5V60.22H1328.81C1335 60.22 1340.11 61.2872 1344.16 63.4216C1348.21 65.4824 1351.23 68.2792 1353.21 71.812C1355.2 75.3448 1356.19 79.3928 1356.19 83.956C1356.19 88.2248 1355.24 92.1624 1353.32 95.7688C1351.41 99.3016 1348.43 102.172 1344.38 104.38C1340.33 106.514 1335.14 107.582 1328.81 107.582H1314.24V137.5H1300.99ZM1314.24 96.7624H1328.04C1333.27 96.7624 1337.02 95.6216 1339.3 93.34C1341.58 90.9848 1342.72 87.8568 1342.72 83.956C1342.72 79.908 1341.58 76.7432 1339.3 74.4616C1337.02 72.18 1333.27 71.0392 1328.04 71.0392H1314.24V96.7624ZM1364.42 137.5V81.8584H1377.67V137.5H1364.42ZM1371.04 73.0264C1368.62 73.0264 1366.59 72.2904 1364.97 70.8184C1363.43 69.2728 1362.65 67.396 1362.65 65.188C1362.65 62.9064 1363.43 61.0664 1364.97 59.668C1366.59 58.196 1368.62 57.46 1371.04 57.46C1373.47 57.46 1375.46 58.196 1377.01 59.668C1378.63 61.0664 1379.43 62.9064 1379.43 65.188C1379.43 67.396 1378.63 69.2728 1377.01 70.8184C1375.46 72.2904 1373.47 73.0264 1371.04 73.0264ZM1389.67 161.788V81.8584H1401.48L1402.91 89.9176C1404.09 88.2984 1405.49 86.7896 1407.11 85.3912C1408.8 83.9192 1410.83 82.7416 1413.18 81.8584C1415.61 80.9752 1418.37 80.5336 1421.46 80.5336C1426.69 80.5336 1431.29 81.8216 1435.26 84.3976C1439.31 86.9736 1442.47 90.4696 1444.76 94.8856C1447.04 99.228 1448.18 104.196 1448.18 109.79C1448.18 115.383 1447 120.388 1444.64 124.804C1442.36 129.146 1439.2 132.569 1435.15 135.071C1431.18 137.574 1426.61 138.825 1421.46 138.825C1417.27 138.825 1413.59 138.052 1410.42 136.506C1407.33 134.887 1404.83 132.606 1402.91 129.662V161.788H1389.67ZM1418.7 127.343C1421.79 127.343 1424.55 126.607 1426.98 125.135C1429.41 123.663 1431.29 121.602 1432.61 118.953C1434.01 116.303 1434.71 113.249 1434.71 109.79C1434.71 106.257 1434.01 103.166 1432.61 100.516C1431.29 97.8664 1429.41 95.8056 1426.98 94.3336C1424.55 92.8616 1421.79 92.1256 1418.7 92.1256C1415.54 92.1256 1412.74 92.8616 1410.31 94.3336C1407.96 95.8056 1406.08 97.8664 1404.68 100.516C1403.36 103.166 1402.69 106.22 1402.69 109.679C1402.69 113.212 1403.36 116.303 1404.68 118.953C1406.08 121.529 1407.96 123.59 1410.31 125.135C1412.74 126.607 1415.54 127.343 1418.7 127.343ZM1483.78 138.825C1478.26 138.825 1473.4 137.647 1469.21 135.292C1465.01 132.863 1461.74 129.478 1459.38 125.135C1457.03 120.793 1455.85 115.788 1455.85 110.121C1455.85 104.233 1456.99 99.0808 1459.27 94.6648C1461.63 90.2488 1464.9 86.7896 1469.1 84.2872C1473.37 81.7848 1478.3 80.5336 1483.89 80.5336C1489.34 80.5336 1494.08 81.748 1498.13 84.1768C1502.18 86.6056 1505.31 89.8808 1507.52 94.0024C1509.72 98.0504 1510.83 102.614 1510.83 107.692C1510.83 108.428 1510.83 109.238 1510.83 110.121C1510.83 111.004 1510.75 111.924 1510.61 112.881H1465.34V104.38H1497.47C1497.32 100.332 1495.96 97.1672 1493.38 94.8856C1490.81 92.5304 1487.61 91.3528 1483.78 91.3528C1481.06 91.3528 1478.55 91.9784 1476.27 93.2296C1473.99 94.4808 1472.19 96.3576 1470.86 98.86C1469.54 101.289 1468.88 104.38 1468.88 108.134V111.335C1468.88 114.794 1469.5 117.775 1470.75 120.278C1472.08 122.78 1473.84 124.694 1476.05 126.018C1478.33 127.27 1480.87 127.895 1483.67 127.895C1486.76 127.895 1489.3 127.233 1491.29 125.908C1493.35 124.583 1494.86 122.817 1495.81 120.609H1509.28C1508.25 124.068 1506.56 127.196 1504.2 129.993C1501.85 132.716 1498.94 134.887 1495.48 136.506C1492.02 138.052 1488.12 138.825 1483.78 138.825ZM1519.75 137.5V58.012H1533V137.5H1519.75ZM1545.02 137.5V81.8584H1558.27V137.5H1545.02ZM1551.64 73.0264C1549.21 73.0264 1547.19 72.2904 1545.57 70.8184C1544.03 69.2728 1543.25 67.396 1543.25 65.188C1543.25 62.9064 1544.03 61.0664 1545.57 59.668C1547.19 58.196 1549.21 57.46 1551.64 57.46C1554.07 57.46 1556.06 58.196 1557.6 59.668C1559.22 61.0664 1560.03 62.9064 1560.03 65.188C1560.03 67.396 1559.22 69.2728 1557.6 70.8184C1556.06 72.2904 1554.07 73.0264 1551.64 73.0264ZM1570.26 137.5V81.8584H1581.97L1582.96 91.132C1584.65 87.8936 1587.08 85.3176 1590.25 83.404C1593.41 81.4904 1597.17 80.5336 1601.51 80.5336C1606 80.5336 1609.82 81.4904 1612.99 83.404C1616.15 85.244 1618.58 87.9672 1620.28 91.5736C1622.04 95.18 1622.93 99.6696 1622.93 105.042V137.5H1609.68V106.257C1609.68 101.62 1608.65 98.0504 1606.59 95.548C1604.53 93.0456 1601.47 91.7944 1597.42 91.7944C1594.77 91.7944 1592.38 92.42 1590.25 93.6712C1588.19 94.9224 1586.53 96.7624 1585.28 99.1912C1584.1 101.546 1583.51 104.417 1583.51 107.802V137.5H1570.26ZM1659.64 138.825C1654.12 138.825 1649.26 137.647 1645.06 135.292C1640.87 132.863 1637.59 129.478 1635.24 125.135C1632.88 120.793 1631.7 115.788 1631.7 110.121C1631.7 104.233 1632.84 99.0808 1635.13 94.6648C1637.48 90.2488 1640.76 86.7896 1644.95 84.2872C1649.22 81.7848 1654.15 80.5336 1659.75 80.5336C1665.19 80.5336 1669.94 81.748 1673.99 84.1768C1678.04 86.6056 1681.16 89.8808 1683.37 94.0024C1685.58 98.0504 1686.68 102.614 1686.68 107.692C1686.68 108.428 1686.68 109.238 1686.68 110.121C1686.68 111.004 1686.61 111.924 1686.46 112.881H1641.2V104.38H1673.32C1673.18 100.332 1671.82 97.1672 1669.24 94.8856C1666.66 92.5304 1663.46 91.3528 1659.64 91.3528C1656.91 91.3528 1654.41 91.9784 1652.13 93.2296C1649.85 94.4808 1648.04 96.3576 1646.72 98.86C1645.39 101.289 1644.73 104.38 1644.73 108.134V111.335C1644.73 114.794 1645.36 117.775 1646.61 120.278C1647.93 122.78 1649.7 124.694 1651.91 126.018C1654.19 127.27 1656.73 127.895 1659.52 127.895C1662.62 127.895 1665.16 127.233 1667.14 125.908C1669.2 124.583 1670.71 122.817 1671.67 120.609H1685.14C1684.11 124.068 1682.41 127.196 1680.06 129.993C1677.7 132.716 1674.8 134.887 1671.34 136.506C1667.88 138.052 1663.98 138.825 1659.64 138.825ZM1717.79 138.825C1712.86 138.825 1708.56 138.052 1704.88 136.506C1701.27 134.887 1698.4 132.679 1696.27 129.882C1694.2 127.012 1692.99 123.737 1692.62 120.057H1705.87C1706.24 121.602 1706.9 123.038 1707.86 124.362C1708.81 125.614 1710.1 126.607 1711.72 127.343C1713.41 128.079 1715.4 128.447 1717.68 128.447C1719.89 128.447 1721.69 128.153 1723.09 127.564C1724.49 126.902 1725.52 126.055 1726.18 125.025C1726.85 123.994 1727.18 122.89 1727.18 121.713C1727.18 119.946 1726.7 118.585 1725.74 117.628C1724.79 116.671 1723.39 115.935 1721.55 115.42C1719.78 114.831 1717.65 114.279 1715.14 113.764C1712.49 113.249 1709.92 112.623 1707.42 111.887C1704.99 111.078 1702.78 110.084 1700.79 108.906C1698.88 107.729 1697.33 106.22 1696.15 104.38C1695.05 102.54 1694.5 100.295 1694.5 97.6456C1694.5 94.4072 1695.35 91.5 1697.04 88.924C1698.8 86.348 1701.31 84.324 1704.55 82.852C1707.86 81.3064 1711.79 80.5336 1716.36 80.5336C1722.83 80.5336 1727.99 82.0424 1731.81 85.06C1735.71 88.004 1738 92.1624 1738.66 97.5352H1726.07C1725.71 95.4744 1724.67 93.892 1722.98 92.788C1721.29 91.6104 1719.04 91.0216 1716.25 91.0216C1713.38 91.0216 1711.17 91.5736 1709.62 92.6776C1708.15 93.708 1707.42 95.1064 1707.42 96.8728C1707.42 97.9768 1707.86 99.0072 1708.74 99.964C1709.7 100.847 1711.06 101.62 1712.83 102.282C1714.59 102.871 1716.76 103.46 1719.34 104.049C1723.46 104.858 1727.1 105.815 1730.27 106.919C1733.43 108.023 1735.94 109.642 1737.78 111.777C1739.62 113.911 1740.54 116.929 1740.54 120.83C1740.61 124.362 1739.69 127.49 1737.78 130.214C1735.94 132.937 1733.32 135.071 1729.94 136.617C1726.55 138.089 1722.5 138.825 1717.79 138.825Z" fill="#1B3139"/>
</svg>
