<svg width="1346" height="558" viewBox="0 0 1346 558" fill="none" xmlns="http://www.w3.org/2000/svg">
<g filter="url(#filter0_dddddd_1112_12019)">
<path d="M148 116.336C148 77.4903 179.49 46 218.336 46H339.664C378.51 46 410 77.4903 410 116.336V237.664C410 276.51 378.51 308 339.664 308H218.336C179.49 308 148 276.51 148 237.664V116.336Z" fill="white"/>
</g>
<path d="M346.479 109.5L286.01 109.5L286.01 160.125L346.479 160.125L346.479 109.5Z" fill="#FABFBA"/>
<path d="M286.031 244.5L346.5 244.5L346.5 171.375L286.031 171.375L286.031 244.5Z" fill="#FF5F46"/>
<path d="M271.969 109.5L211.5 109.5L211.5 193.875L271.969 193.875L271.969 109.5Z" fill="#FF5F46"/>
<path d="M211.525 244.5L271.994 244.5L271.994 205.828L211.525 205.828L211.525 244.5Z" fill="#FABFBA"/>
<path d="M476.76 214.5L505.022 137.22H519.816L548.078 214.5H534.058L512.309 152.676L490.56 214.5H476.76ZM489.346 196.284L492.878 185.796H530.966L534.499 196.284H489.346ZM555.397 214.5V137.22H568.645V214.5H555.397ZM575.682 226.423L603.392 128.94H616.309L588.599 226.423H575.682ZM629.093 214.5V137.22H659.343C664.789 137.22 669.315 138.066 672.922 139.759C676.602 141.452 679.362 143.807 681.202 146.825C683.042 149.769 683.962 153.191 683.962 157.092C683.962 160.993 683.115 164.268 681.423 166.918C679.73 169.567 677.485 171.591 674.688 172.99C671.965 174.388 668.984 175.234 665.746 175.529L667.402 174.314C670.861 174.388 673.952 175.308 676.675 177.074C679.472 178.841 681.68 181.159 683.299 184.03C684.919 186.826 685.728 189.954 685.728 193.414C685.728 197.462 684.735 201.105 682.747 204.343C680.834 207.508 678 210.01 674.247 211.85C670.493 213.617 665.893 214.5 660.447 214.5H629.093ZM642.341 203.681H658.459C662.802 203.681 666.187 202.65 668.616 200.59C671.045 198.529 672.259 195.658 672.259 191.978C672.259 188.298 671.008 185.391 668.506 183.257C666.003 181.049 662.581 179.945 658.239 179.945H642.341V203.681ZM642.341 169.898H657.466C661.735 169.898 664.973 168.942 667.181 167.028C669.389 165.041 670.493 162.318 670.493 158.858C670.493 155.473 669.389 152.823 667.181 150.91C664.973 148.922 661.698 147.929 657.355 147.929H642.341V169.898ZM695.104 214.5V137.22H708.352V214.5H695.104ZM744.22 214.5V137.22H769.17C778.149 137.22 785.546 138.802 791.36 141.967C797.248 145.132 801.591 149.622 804.388 155.436C807.258 161.177 808.693 168.022 808.693 175.97C808.693 183.772 807.258 190.58 804.388 196.394C801.591 202.135 797.248 206.588 791.36 209.753C785.546 212.918 778.149 214.5 769.17 214.5H744.22ZM757.468 203.239H768.508C775.205 203.239 780.468 202.172 784.295 200.038C788.196 197.83 790.956 194.702 792.575 190.654C794.268 186.532 795.114 181.638 795.114 175.97C795.114 170.23 794.268 165.335 792.575 161.287C790.956 157.166 788.196 154.001 784.295 151.793C780.468 149.511 775.205 148.37 768.508 148.37H757.468V203.239ZM836.423 215.825C831.859 215.825 828.069 215.052 825.051 213.506C822.034 211.961 819.789 209.9 818.317 207.324C816.845 204.748 816.109 201.951 816.109 198.934C816.109 195.401 816.992 192.346 818.759 189.77C820.599 187.194 823.285 185.207 826.818 183.809C830.351 182.337 834.693 181.601 839.845 181.601H853.866C853.866 178.657 853.461 176.228 852.651 174.314C851.842 172.327 850.591 170.855 848.898 169.898C847.205 168.942 845.034 168.463 842.384 168.463C839.367 168.463 836.791 169.162 834.656 170.561C832.522 171.886 831.197 173.946 830.682 176.743H817.655C818.096 172.769 819.421 169.383 821.629 166.586C823.837 163.716 826.744 161.508 830.351 159.962C834.031 158.343 838.042 157.534 842.384 157.534C847.61 157.534 852.063 158.454 855.743 160.294C859.423 162.06 862.219 164.636 864.133 168.022C866.12 171.334 867.114 175.345 867.114 180.055V214.5H855.853L854.528 205.558C853.792 207.03 852.835 208.391 851.658 209.642C850.554 210.894 849.266 211.998 847.794 212.954C846.322 213.838 844.629 214.537 842.715 215.052C840.875 215.567 838.778 215.825 836.423 215.825ZM839.403 205.337C841.538 205.337 843.415 204.969 845.034 204.233C846.727 203.423 848.162 202.319 849.339 200.921C850.591 199.449 851.547 197.83 852.21 196.063C852.872 194.297 853.314 192.42 853.535 190.433V190.212H841.28C838.704 190.212 836.57 190.543 834.877 191.206C833.184 191.794 831.97 192.678 831.234 193.855C830.498 195.033 830.13 196.394 830.13 197.94C830.13 199.486 830.498 200.81 831.234 201.914C831.97 203.018 833.037 203.865 834.435 204.454C835.834 205.042 837.49 205.337 839.403 205.337ZM900.147 215.825C895.216 215.825 890.911 215.052 887.231 213.506C883.624 211.887 880.754 209.679 878.619 206.882C876.559 204.012 875.344 200.737 874.976 197.057H888.224C888.592 198.602 889.255 200.038 890.211 201.362C891.168 202.614 892.456 203.607 894.075 204.343C895.768 205.079 897.755 205.447 900.037 205.447C902.245 205.447 904.048 205.153 905.447 204.564C906.845 203.902 907.875 203.055 908.538 202.025C909.2 200.994 909.531 199.89 909.531 198.713C909.531 196.946 909.053 195.585 908.096 194.628C907.139 193.671 905.741 192.935 903.901 192.42C902.135 191.831 900 191.279 897.498 190.764C894.848 190.249 892.272 189.623 889.77 188.887C887.341 188.078 885.133 187.084 883.146 185.906C881.232 184.729 879.687 183.22 878.509 181.38C877.405 179.54 876.853 177.295 876.853 174.646C876.853 171.407 877.699 168.5 879.392 165.924C881.159 163.348 883.661 161.324 886.899 159.852C890.211 158.306 894.149 157.534 898.712 157.534C905.189 157.534 910.341 159.042 914.168 162.06C918.069 165.004 920.351 169.162 921.013 174.535H908.427C908.059 172.474 907.029 170.892 905.336 169.788C903.643 168.61 901.399 168.022 898.602 168.022C895.731 168.022 893.523 168.574 891.978 169.678C890.506 170.708 889.77 172.106 889.77 173.873C889.77 174.977 890.211 176.007 891.095 176.964C892.051 177.847 893.413 178.62 895.179 179.282C896.946 179.871 899.117 180.46 901.693 181.049C905.815 181.858 909.458 182.815 912.623 183.919C915.787 185.023 918.29 186.642 920.13 188.777C921.97 190.911 922.89 193.929 922.89 197.83C922.963 201.362 922.043 204.49 920.13 207.214C918.29 209.937 915.677 212.071 912.291 213.617C908.906 215.089 904.858 215.825 900.147 215.825ZM932.433 214.5V135.012H945.681V167.47C947.521 164.452 950.023 162.06 953.188 160.294C956.353 158.454 959.922 157.534 963.897 157.534C968.46 157.534 972.324 158.49 975.489 160.404C978.653 162.244 981.045 165.004 982.665 168.684C984.357 172.29 985.204 176.817 985.204 182.263V214.5H972.066V183.478C972.066 178.694 971.036 175.05 968.975 172.548C966.988 170.046 963.933 168.794 959.812 168.794C957.162 168.794 954.77 169.457 952.636 170.782C950.501 172.033 948.809 173.873 947.557 176.302C946.306 178.657 945.681 181.564 945.681 185.023V214.5H932.433ZM1027.76 215.825C1024.82 215.825 1022.17 215.42 1019.81 214.61C1017.46 213.874 1015.39 212.844 1013.63 211.519C1011.86 210.121 1010.39 208.538 1009.21 206.772L1007.78 214.5H995.964V135.012H1009.21V167.028C1010.98 164.305 1013.37 162.06 1016.39 160.294C1019.41 158.454 1023.16 157.534 1027.65 157.534C1032.87 157.534 1037.47 158.822 1041.45 161.398C1045.5 163.9 1048.66 167.359 1050.94 171.775C1053.3 176.118 1054.48 181.122 1054.48 186.79C1054.48 192.31 1053.34 197.278 1051.05 201.694C1048.77 206.11 1045.61 209.569 1041.56 212.071C1037.59 214.574 1032.99 215.825 1027.76 215.825ZM1025 204.343C1028.09 204.343 1030.85 203.607 1033.28 202.135C1035.71 200.59 1037.59 198.529 1038.91 195.953C1040.31 193.303 1041.01 190.212 1041.01 186.679C1041.01 183.22 1040.31 180.166 1038.91 177.516C1037.59 174.866 1035.71 172.806 1033.28 171.334C1030.85 169.862 1028.09 169.126 1025 169.126C1021.83 169.126 1019.04 169.862 1016.61 171.334C1014.25 172.806 1012.38 174.866 1010.98 177.516C1009.65 180.166 1008.99 183.22 1008.99 186.679C1008.99 190.212 1009.65 193.303 1010.98 195.953C1012.38 198.529 1014.25 200.59 1016.61 202.135C1019.04 203.607 1021.83 204.343 1025 204.343ZM1089.97 215.825C1084.67 215.825 1079.88 214.61 1075.62 212.182C1071.42 209.679 1068.11 206.257 1065.68 201.914C1063.32 197.498 1062.15 192.457 1062.15 186.79C1062.15 180.975 1063.36 175.897 1065.79 171.554C1068.22 167.138 1071.53 163.716 1075.73 161.287C1080 158.785 1084.78 157.534 1090.08 157.534C1095.38 157.534 1100.12 158.785 1104.32 161.287C1108.59 163.716 1111.9 167.102 1114.26 171.444C1116.68 175.786 1117.9 180.865 1117.9 186.679C1117.9 192.494 1116.68 197.572 1114.26 201.914C1111.83 206.257 1108.48 209.679 1104.21 212.182C1100.01 214.61 1095.27 215.825 1089.97 215.825ZM1089.97 204.454C1092.62 204.454 1095.01 203.791 1097.14 202.466C1099.35 201.142 1101.12 199.154 1102.44 196.505C1103.77 193.855 1104.43 190.58 1104.43 186.679C1104.43 182.778 1103.77 179.54 1102.44 176.964C1101.19 174.314 1099.46 172.327 1097.25 171.002C1095.12 169.678 1092.73 169.015 1090.08 169.015C1087.5 169.015 1085.11 169.678 1082.9 171.002C1080.69 172.327 1078.93 174.314 1077.6 176.964C1076.28 179.54 1075.62 182.778 1075.62 186.679C1075.62 190.58 1076.28 193.855 1077.6 196.505C1078.93 199.154 1080.66 201.142 1082.79 202.466C1085 203.791 1087.39 204.454 1089.97 204.454ZM1146.1 215.825C1141.54 215.825 1137.75 215.052 1134.73 213.506C1131.71 211.961 1129.47 209.9 1128 207.324C1126.53 204.748 1125.79 201.951 1125.79 198.934C1125.79 195.401 1126.67 192.346 1128.44 189.77C1130.28 187.194 1132.97 185.207 1136.5 183.809C1140.03 182.337 1144.37 181.601 1149.53 181.601H1163.55C1163.55 178.657 1163.14 176.228 1162.33 174.314C1161.52 172.327 1160.27 170.855 1158.58 169.898C1156.89 168.942 1154.71 168.463 1152.06 168.463C1149.05 168.463 1146.47 169.162 1144.34 170.561C1142.2 171.886 1140.88 173.946 1140.36 176.743H1127.34C1127.78 172.769 1129.1 169.383 1131.31 166.586C1133.52 163.716 1136.42 161.508 1140.03 159.962C1143.71 158.343 1147.72 157.534 1152.06 157.534C1157.29 157.534 1161.74 158.454 1165.42 160.294C1169.1 162.06 1171.9 164.636 1173.81 168.022C1175.8 171.334 1176.79 175.345 1176.79 180.055V214.5H1165.53L1164.21 205.558C1163.47 207.03 1162.52 208.391 1161.34 209.642C1160.23 210.894 1158.95 211.998 1157.47 212.954C1156 213.838 1154.31 214.537 1152.4 215.052C1150.56 215.567 1148.46 215.825 1146.1 215.825ZM1149.08 205.337C1151.22 205.337 1153.1 204.969 1154.71 204.233C1156.41 203.423 1157.84 202.319 1159.02 200.921C1160.27 199.449 1161.23 197.83 1161.89 196.063C1162.55 194.297 1162.99 192.42 1163.22 190.433V190.212H1150.96C1148.38 190.212 1146.25 190.543 1144.56 191.206C1142.86 191.794 1141.65 192.678 1140.91 193.855C1140.18 195.033 1139.81 196.394 1139.81 197.94C1139.81 199.486 1140.18 200.81 1140.91 201.914C1141.65 203.018 1142.72 203.865 1144.12 204.454C1145.51 205.042 1147.17 205.337 1149.08 205.337ZM1187.64 214.5V158.858H1199.45L1200.66 169.236C1201.99 166.807 1203.65 164.746 1205.63 163.054C1207.62 161.287 1209.94 159.926 1212.59 158.969C1215.31 158.012 1218.29 157.534 1221.53 157.534V171.554H1216.89C1214.69 171.554 1212.59 171.849 1210.6 172.438C1208.61 172.953 1206.88 173.836 1205.41 175.087C1204.01 176.265 1202.91 177.921 1202.1 180.055C1201.29 182.116 1200.89 184.729 1200.89 187.894V214.5H1187.64ZM1251.75 215.825C1246.6 215.825 1242 214.574 1237.95 212.071C1233.9 209.569 1230.74 206.11 1228.45 201.694C1226.25 197.278 1225.14 192.273 1225.14 186.679C1225.14 181.086 1226.28 176.118 1228.57 171.775C1230.85 167.359 1234.01 163.9 1238.06 161.398C1242.18 158.822 1246.82 157.534 1251.97 157.534C1256.17 157.534 1259.81 158.343 1262.9 159.962C1266.06 161.508 1268.57 163.716 1270.41 166.586V135.012H1283.65V214.5H1271.73L1270.41 206.441C1269.23 208.06 1267.79 209.606 1266.1 211.078C1264.41 212.476 1262.38 213.617 1260.03 214.5C1257.67 215.383 1254.91 215.825 1251.75 215.825ZM1254.51 204.343C1257.67 204.343 1260.47 203.607 1262.9 202.135C1265.33 200.59 1267.21 198.492 1268.53 195.842C1269.85 193.193 1270.52 190.138 1270.52 186.679C1270.52 183.22 1269.85 180.166 1268.53 177.516C1267.21 174.866 1265.33 172.806 1262.9 171.334C1260.47 169.862 1257.67 169.126 1254.51 169.126C1251.49 169.126 1248.77 169.862 1246.34 171.334C1243.91 172.806 1242 174.866 1240.6 177.516C1239.27 180.166 1238.61 183.22 1238.61 186.679C1238.61 190.138 1239.27 193.193 1240.6 195.842C1242 198.492 1243.91 200.59 1246.34 202.135C1248.77 203.607 1251.49 204.343 1254.51 204.343ZM1317.27 215.825C1312.34 215.825 1308.03 215.052 1304.35 213.506C1300.75 211.887 1297.88 209.679 1295.74 206.882C1293.68 204.012 1292.47 200.737 1292.1 197.057H1305.35C1305.71 198.602 1306.38 200.038 1307.33 201.362C1308.29 202.614 1309.58 203.607 1311.2 204.343C1312.89 205.079 1314.88 205.447 1317.16 205.447C1319.37 205.447 1321.17 205.153 1322.57 204.564C1323.97 203.902 1325 203.055 1325.66 202.025C1326.32 200.994 1326.65 199.89 1326.65 198.713C1326.65 196.946 1326.18 195.585 1325.22 194.628C1324.26 193.671 1322.86 192.935 1321.02 192.42C1319.26 191.831 1317.12 191.279 1314.62 190.764C1311.97 190.249 1309.39 189.623 1306.89 188.887C1304.46 188.078 1302.26 187.084 1300.27 185.906C1298.35 184.729 1296.81 183.22 1295.63 181.38C1294.53 179.54 1293.98 177.295 1293.98 174.646C1293.98 171.407 1294.82 168.5 1296.51 165.924C1298.28 163.348 1300.78 161.324 1304.02 159.852C1307.33 158.306 1311.27 157.534 1315.83 157.534C1322.31 157.534 1327.46 159.042 1331.29 162.06C1335.19 165.004 1337.47 169.162 1338.14 174.535H1325.55C1325.18 172.474 1324.15 170.892 1322.46 169.788C1320.77 168.61 1318.52 168.022 1315.72 168.022C1312.85 168.022 1310.65 168.574 1309.1 169.678C1307.63 170.708 1306.89 172.106 1306.89 173.873C1306.89 174.977 1307.33 176.007 1308.22 176.964C1309.17 177.847 1310.54 178.62 1312.3 179.282C1314.07 179.871 1316.24 180.46 1318.82 181.049C1322.94 181.858 1326.58 182.815 1329.74 183.919C1332.91 185.023 1335.41 186.642 1337.25 188.777C1339.09 190.911 1340.01 193.929 1340.01 197.83C1340.09 201.362 1339.17 204.49 1337.25 207.214C1335.41 209.937 1332.8 212.071 1329.41 213.617C1326.03 215.089 1321.98 215.825 1317.27 215.825Z" fill="#1B3139"/>
<defs>
<filter id="filter0_dddddd_1112_12019" x="0.713516" y="0.681084" width="556.573" height="556.573" filterUnits="userSpaceOnUse" color-interpolation-filters="sRGB">
<feFlood flood-opacity="0" result="BackgroundImageFix"/>
<feColorMatrix in="SourceAlpha" type="matrix" values="0 0 0 0 0 0 0 0 0 0 0 0 0 0 0 0 0 0 127 0" result="hardAlpha"/>
<feOffset dy="2.83243"/>
<feGaussianBlur stdDeviation="2.12432"/>
<feColorMatrix type="matrix" values="0 0 0 0 0.105882 0 0 0 0 0.192157 0 0 0 0 0.223529 0 0 0 0.0196802 0"/>
<feBlend mode="normal" in2="BackgroundImageFix" result="effect1_dropShadow_1112_12019"/>
<feColorMatrix in="SourceAlpha" type="matrix" values="0 0 0 0 0 0 0 0 0 0 0 0 0 0 0 0 0 0 127 0" result="hardAlpha"/>
<feOffset dy="5.66487"/>
<feGaussianBlur stdDeviation="5.66487"/>
<feColorMatrix type="matrix" values="0 0 0 0 0.105882 0 0 0 0 0.192157 0 0 0 0 0.223529 0 0 0 0.04 0"/>
<feBlend mode="normal" in2="effect1_dropShadow_1112_12019" result="effect2_dropShadow_1112_12019"/>
<feColorMatrix in="SourceAlpha" type="matrix" values="0 0 0 0 0 0 0 0 0 0 0 0 0 0 0 0 0 0 127 0" result="hardAlpha"/>
<feOffset dy="12.7459"/>
<feGaussianBlur stdDeviation="9.20541"/>
<feColorMatrix type="matrix" values="0 0 0 0 0.105882 0 0 0 0 0.192157 0 0 0 0 0.223529 0 0 0 0.035 0"/>
<feBlend mode="normal" in2="effect2_dropShadow_1112_12019" result="effect3_dropShadow_1112_12019"/>
<feColorMatrix in="SourceAlpha" type="matrix" values="0 0 0 0 0 0 0 0 0 0 0 0 0 0 0 0 0 0 127 0" result="hardAlpha"/>
<feOffset dy="22.6595"/>
<feGaussianBlur stdDeviation="16.9946"/>
<feColorMatrix type="matrix" values="0 0 0 0 0.105882 0 0 0 0 0.192157 0 0 0 0 0.223529 0 0 0 0.04 0"/>
<feBlend mode="normal" in2="effect3_dropShadow_1112_12019" result="effect4_dropShadow_1112_12019"/>
<feColorMatrix in="SourceAlpha" type="matrix" values="0 0 0 0 0 0 0 0 0 0 0 0 0 0 0 0 0 0 127 0" result="hardAlpha"/>
<feOffset dy="45.3189"/>
<feGaussianBlur stdDeviation="28.3243"/>
<feColorMatrix type="matrix" values="0 0 0 0 0.105882 0 0 0 0 0.192157 0 0 0 0 0.223529 0 0 0 0.0503198 0"/>
<feBlend mode="normal" in2="effect4_dropShadow_1112_12019" result="effect5_dropShadow_1112_12019"/>
<feColorMatrix in="SourceAlpha" type="matrix" values="0 0 0 0 0 0 0 0 0 0 0 0 0 0 0 0 0 0 127 0" result="hardAlpha"/>
<feOffset dy="101.968"/>
<feGaussianBlur stdDeviation="73.6432"/>
<feColorMatrix type="matrix" values="0 0 0 0 0.105882 0 0 0 0 0.192157 0 0 0 0 0.223529 0 0 0 0.07 0"/>
<feBlend mode="normal" in2="effect5_dropShadow_1112_12019" result="effect6_dropShadow_1112_12019"/>
<feBlend mode="normal" in="SourceGraphic" in2="effect6_dropShadow_1112_12019" result="shape"/>
</filter>
</defs>
</svg>
