<svg width="1265" height="724" viewBox="0 0 1265 724" fill="none" xmlns="http://www.w3.org/2000/svg">
<g filter="url(#filter0_dddddd_1119_14644)">
<path d="M192 150.383C192 99.9134 232.913 59 283.383 59H441.017C491.487 59 532.4 99.9134 532.4 150.383V308.017C532.4 358.487 491.487 399.4 441.017 399.4H283.383C232.913 399.4 192 358.487 192 308.017V150.383Z" fill="white"/>
</g>
<path d="M424.699 311.282C425.208 311.016 425.548 310.507 425.645 309.925C425.742 309.343 425.548 308.761 425.136 308.348C420.868 303.475 407.362 291.714 407.362 291.714C406.101 290.841 404.306 291.714 402.9 292.054C398.22 293.606 393.298 294.43 388.375 294.43C384.762 294.43 381.174 294.018 377.658 293.169C369.074 291.375 360.878 288.077 353.434 283.445C332.362 269.672 305.35 268.994 283.623 281.7C273.318 288.635 264.588 297.703 258.041 308.3C257.726 308.761 257.75 309.391 258.138 309.828C258.526 310.24 259.157 310.337 259.642 310.046C269.875 304.493 297.372 291.52 322.129 296.2C332.047 298.746 341.601 302.529 350.572 307.476C357.313 310.725 364.176 314.095 371.159 316.714C393.734 324.886 415.97 315.793 424.699 311.258V311.282Z" fill="#FF5F46"/>
<path d="M353.873 145.376L396.84 219.625C397.083 220.085 397.034 220.667 396.695 221.079C396.38 221.492 395.846 221.686 395.337 221.564C393.13 221.055 390.875 220.788 388.596 220.788C382.898 220.788 377.321 222.486 372.568 225.662C371.962 226.075 371.234 226.196 370.531 226.05C369.828 225.905 369.222 225.468 368.834 224.862L351.739 195.303C351.351 194.528 350.575 194.043 349.702 194.043C348.829 194.043 348.053 194.528 347.665 195.303L319.998 243.242C319.755 243.582 319.707 244.018 319.852 244.382C320.022 244.77 320.362 245.037 320.774 245.085C335.347 248.189 348.732 255.488 359.231 266.084C360.08 266.957 360.177 268.339 359.474 269.333C358.746 270.328 357.437 270.667 356.346 270.134C348.853 266.278 340.779 263.684 332.461 262.447C320.847 260.992 309.086 261.719 297.738 264.532C294.149 265.405 290.27 266.424 286.681 267.539C283.092 268.654 281.443 269.382 281.443 269.382C280.425 269.721 279.455 270.158 278.63 270.497H278.291C277.321 270.982 276.133 270.74 275.405 269.94C274.678 269.139 274.557 267.927 275.114 267.006L345.531 145.376C346.404 143.897 347.98 143 349.702 143C351.424 143 353 143.897 353.873 145.376Z" fill="#FF5F46"/>
<path fill-rule="evenodd" clip-rule="evenodd" d="M446.742 230.512C457.435 230.512 466.116 221.807 466.116 211.065C466.116 200.323 457.435 191.618 446.742 191.618C436.048 191.618 427.368 200.323 427.368 211.065C427.368 213.248 427.731 215.406 428.434 217.491L401.543 235.386C393.76 228.5 381.926 228.985 374.749 236.502C367.547 244.019 367.547 255.9 374.749 263.417C381.951 270.934 393.76 271.443 401.543 264.533L428.434 282.525C427.756 284.562 427.392 286.696 427.368 288.854C427.416 298.02 433.842 305.9 442.789 307.792C451.737 309.659 460.757 305.027 464.467 296.637C468.177 288.247 465.534 278.427 458.138 273.02C450.743 267.636 440.607 268.146 433.818 274.28L406.926 256.288C408.357 252.118 408.357 247.607 406.926 243.461L433.818 225.663C437.382 228.815 441.989 230.561 446.742 230.537V230.512Z" fill="#FABFBA"/>
<path d="M603.899 217.2V139.92H623.771C632.75 139.92 640.147 141.503 645.962 144.667C651.85 147.759 656.192 152.211 658.989 158.026C661.859 163.767 663.294 170.685 663.294 178.781C663.294 186.73 661.859 193.575 658.989 199.315C656.192 205.056 651.85 209.472 645.962 212.563C640.147 215.655 632.75 217.2 623.771 217.2H603.899ZM613.173 209.472H623.55C630.984 209.472 636.909 208.258 641.325 205.829C645.741 203.327 648.906 199.794 650.819 195.231C652.733 190.594 653.69 185.111 653.69 178.781C653.69 172.304 652.733 166.747 650.819 162.111C648.906 157.474 645.741 153.904 641.325 151.402C636.909 148.899 630.984 147.648 623.55 147.648H613.173V209.472ZM691.343 218.525C686.927 218.525 683.247 217.715 680.303 216.096C677.359 214.403 675.151 212.195 673.679 209.472C672.207 206.675 671.471 203.695 671.471 200.53C671.471 196.703 672.428 193.464 674.341 190.815C676.329 188.091 679.089 186.031 682.621 184.632C686.154 183.234 690.276 182.535 694.986 182.535H709.449C709.449 178.781 709.007 175.653 708.124 173.151C707.241 170.648 705.805 168.771 703.818 167.52C701.831 166.269 699.181 165.643 695.869 165.643C692.557 165.643 689.724 166.49 687.369 168.183C685.013 169.802 683.541 172.231 682.953 175.469H673.458C673.9 171.642 675.188 168.44 677.322 165.864C679.457 163.215 682.143 161.227 685.381 159.903C688.693 158.504 692.189 157.805 695.869 157.805C701.095 157.805 705.401 158.762 708.786 160.675C712.172 162.515 714.674 165.128 716.293 168.514C717.913 171.826 718.722 175.763 718.722 180.327V217.2H710.442L709.89 207.264C709.154 208.81 708.197 210.282 707.02 211.68C705.916 213.005 704.591 214.183 703.045 215.213C701.5 216.243 699.733 217.053 697.746 217.642C695.833 218.231 693.698 218.525 691.343 218.525ZM692.668 210.687C695.097 210.687 697.341 210.135 699.402 209.031C701.463 207.927 703.229 206.455 704.701 204.615C706.247 202.701 707.425 200.567 708.234 198.211C709.044 195.856 709.449 193.391 709.449 190.815V189.711H695.759C692.3 189.711 689.466 190.152 687.258 191.035C685.124 191.919 683.578 193.17 682.621 194.789C681.665 196.335 681.186 198.101 681.186 200.088C681.186 202.223 681.628 204.099 682.511 205.719C683.394 207.264 684.682 208.479 686.375 209.362C688.141 210.245 690.239 210.687 692.668 210.687ZM751.744 217.2C748.432 217.2 745.561 216.685 743.133 215.655C740.704 214.624 738.827 212.895 737.502 210.466C736.251 207.963 735.625 204.615 735.625 200.419V166.968H725.469V159.13H735.625L736.84 144.667H744.899V159.13H761.349V166.968H744.899V200.419C744.899 203.879 745.598 206.234 746.997 207.485C748.395 208.663 750.861 209.251 754.393 209.251H761.128V217.2H751.744ZM788.866 218.525C784.45 218.525 780.77 217.715 777.826 216.096C774.882 214.403 772.674 212.195 771.202 209.472C769.73 206.675 768.994 203.695 768.994 200.53C768.994 196.703 769.951 193.464 771.864 190.815C773.851 188.091 776.611 186.031 780.144 184.632C783.677 183.234 787.799 182.535 792.509 182.535H806.971C806.971 178.781 806.53 175.653 805.647 173.151C804.763 170.648 803.328 168.771 801.341 167.52C799.354 166.269 796.704 165.643 793.392 165.643C790.08 165.643 787.247 166.49 784.891 168.183C782.536 169.802 781.064 172.231 780.475 175.469H770.981C771.423 171.642 772.711 168.44 774.845 165.864C776.979 163.215 779.666 161.227 782.904 159.903C786.216 158.504 789.712 157.805 793.392 157.805C798.618 157.805 802.923 158.762 806.309 160.675C809.695 162.515 812.197 165.128 813.816 168.514C815.435 171.826 816.245 175.763 816.245 180.327V217.2H807.965L807.413 207.264C806.677 208.81 805.72 210.282 804.543 211.68C803.439 213.005 802.114 214.183 800.568 215.213C799.023 216.243 797.256 217.053 795.269 217.642C793.355 218.231 791.221 218.525 788.866 218.525ZM790.191 210.687C792.619 210.687 794.864 210.135 796.925 209.031C798.986 207.927 800.752 206.455 802.224 204.615C803.77 202.701 804.947 200.567 805.757 198.211C806.567 195.856 806.971 193.391 806.971 190.815V189.711H793.282C789.823 189.711 786.989 190.152 784.781 191.035C782.647 191.919 781.101 193.17 780.144 194.789C779.187 196.335 778.709 198.101 778.709 200.088C778.709 202.223 779.151 204.099 780.034 205.719C780.917 207.264 782.205 208.479 783.898 209.362C785.664 210.245 787.762 210.687 790.191 210.687ZM857.179 218.525C853.646 218.525 850.592 218.01 848.016 216.979C845.514 215.875 843.379 214.514 841.613 212.895C839.92 211.275 838.522 209.693 837.418 208.147L836.645 217.2H828.254V137.712H837.528V168.293C839.294 164.834 841.907 162.221 845.366 160.455C848.826 158.688 852.69 157.805 856.958 157.805C862.258 157.805 866.894 159.093 870.869 161.669C874.843 164.245 877.934 167.815 880.142 172.378C882.35 176.867 883.454 182.056 883.454 187.944C883.454 193.759 882.35 198.984 880.142 203.621C877.934 208.258 874.843 211.901 870.869 214.551C866.968 217.2 862.405 218.525 857.179 218.525ZM855.965 210.466C859.424 210.466 862.478 209.583 865.128 207.816C867.851 205.976 869.986 203.4 871.531 200.088C873.15 196.703 873.96 192.728 873.96 188.165C873.96 183.602 873.15 179.664 871.531 176.352C869.986 172.967 867.851 170.391 865.128 168.624C862.478 166.784 859.424 165.864 855.965 165.864C852.285 165.864 849.083 166.784 846.36 168.624C843.637 170.391 841.539 172.967 840.067 176.352C838.595 179.664 837.859 183.602 837.859 188.165C837.859 192.728 838.595 196.703 840.067 200.088C841.539 203.4 843.637 205.976 846.36 207.816C849.083 209.583 852.285 210.466 855.965 210.466ZM893.619 217.2V159.13H902.009L902.672 169.728C903.997 167.079 905.726 164.871 907.861 163.104C909.995 161.338 912.571 160.013 915.589 159.13C918.68 158.247 922.139 157.805 925.966 157.805V167.52H920.225C918.017 167.52 915.883 167.815 913.822 168.403C911.761 168.992 909.885 169.949 908.192 171.274C906.573 172.599 905.285 174.402 904.328 176.683C903.371 178.965 902.893 181.835 902.893 185.295V217.2H893.619ZM934.207 217.2V159.13H943.481V217.2H934.207ZM938.844 148.09C937.004 148.09 935.459 147.501 934.207 146.323C933.03 145.072 932.441 143.527 932.441 141.687C932.441 139.847 933.03 138.375 934.207 137.271C935.459 136.093 937.004 135.504 938.844 135.504C940.611 135.504 942.119 136.093 943.371 137.271C944.622 138.375 945.247 139.847 945.247 141.687C945.247 143.527 944.622 145.072 943.371 146.323C942.119 147.501 940.611 148.09 938.844 148.09ZM981.703 218.525C976.403 218.525 971.693 217.274 967.571 214.771C963.45 212.195 960.211 208.626 957.856 204.063C955.501 199.499 954.323 194.2 954.323 188.165C954.323 182.056 955.501 176.757 957.856 172.267C960.211 167.704 963.45 164.171 967.571 161.669C971.693 159.093 976.403 157.805 981.703 157.805C988.327 157.805 993.847 159.571 998.263 163.104C1002.75 166.637 1005.62 171.384 1006.87 177.346H997.38C996.57 173.666 994.693 170.832 991.749 168.845C988.879 166.784 985.493 165.754 981.592 165.754C978.207 165.754 975.152 166.6 972.429 168.293C969.779 169.986 967.682 172.488 966.136 175.8C964.591 179.112 963.818 183.234 963.818 188.165C963.818 191.845 964.259 195.12 965.143 197.991C966.026 200.787 967.24 203.143 968.786 205.056C970.405 206.896 972.282 208.295 974.416 209.251C976.624 210.208 979.016 210.687 981.592 210.687C984.242 210.687 986.634 210.245 988.768 209.362C990.976 208.405 992.816 207.043 994.288 205.277C995.834 203.511 996.864 201.413 997.38 198.984H1006.87C1005.7 204.799 1002.83 209.509 998.263 213.115C993.773 216.722 988.253 218.525 981.703 218.525ZM1051.16 217.2L1024.78 185.847L1049.62 159.13H1060.99L1032.61 189.159L1032.72 182.535L1062.97 217.2H1051.16ZM1017.05 217.2V137.712H1026.32V217.2H1017.05ZM1087.22 218.525C1081.99 218.525 1077.65 217.752 1074.19 216.207C1070.8 214.587 1068.23 212.379 1066.46 209.583C1064.69 206.712 1063.63 203.4 1063.26 199.647H1072.75C1073.05 201.634 1073.71 203.474 1074.74 205.167C1075.84 206.786 1077.43 208.111 1079.49 209.141C1081.55 210.171 1084.16 210.687 1087.33 210.687C1089.83 210.687 1091.96 210.319 1093.73 209.583C1095.5 208.773 1096.82 207.669 1097.7 206.271C1098.66 204.872 1099.14 203.253 1099.14 201.413C1099.14 198.984 1098.59 197.107 1097.48 195.783C1096.45 194.384 1094.91 193.354 1092.85 192.691C1090.86 191.955 1088.36 191.403 1085.34 191.035C1082.1 190.594 1079.23 189.968 1076.73 189.159C1074.23 188.349 1072.09 187.282 1070.32 185.957C1068.63 184.632 1067.34 182.976 1066.46 180.989C1065.58 179.002 1065.14 176.647 1065.14 173.923C1065.14 170.759 1065.98 167.962 1067.67 165.533C1069.37 163.104 1071.76 161.227 1074.85 159.903C1078.02 158.504 1081.73 157.805 1086 157.805C1092.26 157.805 1097.19 159.24 1100.79 162.111C1104.47 164.981 1106.65 169.066 1107.31 174.365H1098.15C1097.78 171.642 1096.53 169.507 1094.39 167.962C1092.26 166.416 1089.42 165.643 1085.89 165.643C1082.14 165.643 1079.3 166.343 1077.39 167.741C1075.48 169.139 1074.52 170.979 1074.52 173.261C1074.52 174.954 1074.92 176.499 1075.73 177.898C1076.62 179.223 1078.09 180.363 1080.15 181.32C1082.21 182.203 1084.97 182.866 1088.43 183.307C1092.77 183.823 1096.45 184.669 1099.47 185.847C1102.49 186.951 1104.77 188.68 1106.32 191.035C1107.93 193.391 1108.71 196.592 1108.63 200.64C1108.63 204.467 1107.71 207.706 1105.87 210.355C1104.11 213.005 1101.6 215.029 1098.37 216.427C1095.2 217.826 1091.48 218.525 1087.22 218.525ZM603.237 316.2V238.92H628.187C637.166 238.92 644.563 240.503 650.378 243.667C656.266 246.832 660.608 251.322 663.405 257.136C666.275 262.877 667.71 269.722 667.71 277.671C667.71 285.472 666.275 292.28 663.405 298.095C660.608 303.835 656.266 308.288 650.378 311.453C644.563 314.618 637.166 316.2 628.187 316.2H603.237ZM616.485 304.939H627.525C634.222 304.939 639.485 303.872 643.312 301.738C647.213 299.53 649.973 296.402 651.592 292.354C653.285 288.232 654.131 283.338 654.131 277.671C654.131 271.93 653.285 267.035 651.592 262.987C649.973 258.866 647.213 255.701 643.312 253.493C639.485 251.211 634.222 250.071 627.525 250.071H616.485V304.939ZM702.947 317.525C697.427 317.525 692.569 316.347 688.374 313.992C684.179 311.563 680.904 308.178 678.549 303.835C676.193 299.493 675.016 294.488 675.016 288.821C675.016 282.933 676.157 277.781 678.438 273.365C680.793 268.949 684.069 265.49 688.264 262.987C692.533 260.485 697.464 259.234 703.057 259.234C708.504 259.234 713.251 260.448 717.299 262.877C721.347 265.306 724.475 268.581 726.683 272.703C728.891 276.751 729.995 281.314 729.995 286.392C729.995 287.128 729.995 287.938 729.995 288.821C729.995 289.704 729.921 290.624 729.774 291.581H684.51V283.08H716.637C716.489 279.032 715.128 275.867 712.552 273.586C709.976 271.231 706.774 270.053 702.947 270.053C700.224 270.053 697.721 270.679 695.44 271.93C693.158 273.181 691.355 275.058 690.03 277.56C688.705 279.989 688.043 283.08 688.043 286.834V290.035C688.043 293.495 688.669 296.475 689.92 298.978C691.245 301.48 693.011 303.394 695.219 304.719C697.501 305.97 700.04 306.595 702.837 306.595C705.928 306.595 708.467 305.933 710.454 304.608C712.515 303.283 714.024 301.517 714.981 299.309H728.449C727.419 302.768 725.726 305.896 723.371 308.693C721.016 311.416 718.109 313.587 714.649 315.207C711.19 316.752 707.289 317.525 702.947 317.525ZM738.915 316.2V236.712H752.163V316.2H738.915ZM787.812 316.2C784.058 316.2 780.783 315.611 777.986 314.434C775.263 313.256 773.129 311.306 771.583 308.583C770.037 305.859 769.265 302.179 769.265 297.543V271.709H759.77V260.559H769.265L770.81 245.875H782.513V260.559H797.637V271.709H782.513V297.543C782.513 300.339 783.101 302.29 784.279 303.394C785.53 304.424 787.591 304.939 790.461 304.939H797.306V316.2H787.812ZM825.337 317.525C820.773 317.525 816.983 316.752 813.965 315.207C810.948 313.661 808.703 311.6 807.231 309.024C805.759 306.448 805.023 303.651 805.023 300.634C805.023 297.101 805.906 294.047 807.673 291.471C809.513 288.895 812.199 286.907 815.732 285.509C819.265 284.037 823.607 283.301 828.759 283.301H842.78C842.78 280.357 842.375 277.928 841.565 276.015C840.756 274.027 839.505 272.555 837.812 271.599C836.119 270.642 833.948 270.163 831.298 270.163C828.281 270.163 825.705 270.863 823.57 272.261C821.436 273.586 820.111 275.647 819.596 278.443H806.569C807.01 274.469 808.335 271.083 810.543 268.287C812.751 265.416 815.658 263.208 819.265 261.663C822.945 260.043 826.956 259.234 831.298 259.234C836.524 259.234 840.977 260.154 844.657 261.994C848.337 263.76 851.133 266.336 853.047 269.722C855.034 273.034 856.028 277.045 856.028 281.755V316.2H844.767L843.442 307.258C842.706 308.73 841.749 310.091 840.572 311.343C839.468 312.594 838.18 313.698 836.708 314.655C835.236 315.538 833.543 316.237 831.629 316.752C829.789 317.267 827.692 317.525 825.337 317.525ZM828.317 307.037C830.452 307.037 832.329 306.669 833.948 305.933C835.641 305.123 837.076 304.019 838.253 302.621C839.505 301.149 840.461 299.53 841.124 297.763C841.786 295.997 842.228 294.12 842.449 292.133V291.912H830.194C827.618 291.912 825.484 292.243 823.791 292.906C822.098 293.495 820.884 294.378 820.148 295.555C819.412 296.733 819.044 298.095 819.044 299.64C819.044 301.186 819.412 302.511 820.148 303.615C820.884 304.719 821.951 305.565 823.349 306.154C824.748 306.743 826.404 307.037 828.317 307.037ZM916.898 317.525C911.304 317.525 906.336 316.531 901.994 314.544C897.652 312.557 894.266 309.723 891.837 306.043C889.408 302.363 888.157 297.984 888.084 292.906H902.104C902.104 295.482 902.693 297.8 903.871 299.861C905.122 301.848 906.815 303.431 908.949 304.608C911.157 305.786 913.807 306.375 916.898 306.375C919.548 306.375 921.829 305.97 923.743 305.16C925.73 304.277 927.239 303.063 928.269 301.517C929.373 299.898 929.925 298.021 929.925 295.887C929.925 293.458 929.336 291.471 928.159 289.925C927.055 288.306 925.509 286.944 923.522 285.84C921.535 284.736 919.253 283.779 916.677 282.97C914.101 282.087 911.378 281.167 908.508 280.21C902.399 278.149 897.799 275.536 894.708 272.371C891.616 269.133 890.071 264.827 890.071 259.455C890.071 254.965 891.138 251.101 893.272 247.863C895.407 244.624 898.388 242.122 902.215 240.355C906.116 238.515 910.605 237.595 915.684 237.595C920.836 237.595 925.325 238.515 929.152 240.355C933.053 242.195 936.108 244.771 938.316 248.083C940.597 251.322 941.775 255.223 941.848 259.786H927.717C927.644 257.872 927.128 256.106 926.172 254.487C925.215 252.794 923.816 251.432 921.976 250.402C920.21 249.298 918.039 248.746 915.463 248.746C913.255 248.672 911.268 249.04 909.501 249.85C907.808 250.586 906.447 251.69 905.416 253.162C904.46 254.56 903.981 256.327 903.981 258.461C903.981 260.522 904.423 262.251 905.306 263.65C906.263 264.975 907.624 266.115 909.391 267.072C911.157 267.955 913.218 268.802 915.573 269.611C917.928 270.421 920.504 271.304 923.301 272.261C927.128 273.512 930.588 275.058 933.679 276.898C936.844 278.664 939.346 280.983 941.186 283.853C943.026 286.723 943.946 290.44 943.946 295.003C943.946 298.978 942.916 302.695 940.855 306.154C938.794 309.539 935.776 312.299 931.802 314.434C927.828 316.495 922.86 317.525 916.898 317.525ZM953.074 316.2V236.712H966.322V269.17C968.162 266.152 970.664 263.76 973.829 261.994C976.994 260.154 980.563 259.234 984.538 259.234C989.101 259.234 992.965 260.191 996.13 262.104C999.295 263.944 1001.69 266.704 1003.31 270.384C1005 273.991 1005.84 278.517 1005.84 283.963V316.2H992.707V285.178C992.707 280.394 991.677 276.751 989.616 274.248C987.629 271.746 984.575 270.495 980.453 270.495C977.803 270.495 975.411 271.157 973.277 272.482C971.143 273.733 969.45 275.573 968.199 278.002C966.947 280.357 966.322 283.264 966.322 286.723V316.2H953.074ZM1035.15 317.525C1030.59 317.525 1026.8 316.752 1023.78 315.207C1020.76 313.661 1018.52 311.6 1017.05 309.024C1015.58 306.448 1014.84 303.651 1014.84 300.634C1014.84 297.101 1015.72 294.047 1017.49 291.471C1019.33 288.895 1022.02 286.907 1025.55 285.509C1029.08 284.037 1033.42 283.301 1038.58 283.301H1052.6C1052.6 280.357 1052.19 277.928 1051.38 276.015C1050.57 274.027 1049.32 272.555 1047.63 271.599C1045.94 270.642 1043.76 270.163 1041.11 270.163C1038.1 270.163 1035.52 270.863 1033.39 272.261C1031.25 273.586 1029.93 275.647 1029.41 278.443H1016.38C1016.83 274.469 1018.15 271.083 1020.36 268.287C1022.57 265.416 1025.47 263.208 1029.08 261.663C1032.76 260.043 1036.77 259.234 1041.11 259.234C1046.34 259.234 1050.79 260.154 1054.47 261.994C1058.15 263.76 1060.95 266.336 1062.86 269.722C1064.85 273.034 1065.84 277.045 1065.84 281.755V316.2H1054.58L1053.26 307.258C1052.52 308.73 1051.57 310.091 1050.39 311.343C1049.28 312.594 1048 313.698 1046.52 314.655C1045.05 315.538 1043.36 316.237 1041.45 316.752C1039.61 317.267 1037.51 317.525 1035.15 317.525ZM1038.13 307.037C1040.27 307.037 1042.14 306.669 1043.76 305.933C1045.46 305.123 1046.89 304.019 1048.07 302.621C1049.32 301.149 1050.28 299.53 1050.94 297.763C1051.6 295.997 1052.04 294.12 1052.26 292.133V291.912H1040.01C1037.43 291.912 1035.3 292.243 1033.61 292.906C1031.91 293.495 1030.7 294.378 1029.96 295.555C1029.23 296.733 1028.86 298.095 1028.86 299.64C1028.86 301.186 1029.23 302.511 1029.96 303.615C1030.7 304.719 1031.77 305.565 1033.17 306.154C1034.56 306.743 1036.22 307.037 1038.13 307.037ZM1076.69 316.2V260.559H1088.5L1089.71 270.936C1091.04 268.507 1092.7 266.447 1094.68 264.754C1096.67 262.987 1098.99 261.626 1101.64 260.669C1104.36 259.712 1107.34 259.234 1110.58 259.234V273.255H1105.94C1103.74 273.255 1101.64 273.549 1099.65 274.138C1097.66 274.653 1095.93 275.536 1094.46 276.787C1093.06 277.965 1091.96 279.621 1091.15 281.755C1090.34 283.816 1089.94 286.429 1089.94 289.594V316.2H1076.69ZM1117.81 316.2V260.559H1131.05V316.2H1117.81ZM1124.43 251.727C1122 251.727 1119.98 250.991 1118.36 249.519C1116.81 247.973 1116.04 246.096 1116.04 243.888C1116.04 241.607 1116.81 239.767 1118.36 238.368C1119.98 236.896 1122 236.16 1124.43 236.16C1126.86 236.16 1128.85 236.896 1130.39 238.368C1132.01 239.767 1132.82 241.607 1132.82 243.888C1132.82 246.096 1132.01 247.973 1130.39 249.519C1128.85 250.991 1126.86 251.727 1124.43 251.727ZM1143.05 316.2V260.559H1154.75L1155.75 269.832C1157.44 266.594 1159.87 264.018 1163.03 262.104C1166.2 260.191 1169.95 259.234 1174.3 259.234C1178.79 259.234 1182.61 260.191 1185.78 262.104C1188.94 263.944 1191.37 266.667 1193.06 270.274C1194.83 273.88 1195.71 278.37 1195.71 283.743V316.2H1182.47V284.957C1182.47 280.32 1181.43 276.751 1179.37 274.248C1177.31 271.746 1174.26 270.495 1170.21 270.495C1167.56 270.495 1165.17 271.12 1163.03 272.371C1160.97 273.623 1159.32 275.463 1158.07 277.891C1156.89 280.247 1156.3 283.117 1156.3 286.503V316.2H1143.05ZM1229.77 341.813C1224.55 341.813 1219.95 341.151 1215.97 339.826C1212.07 338.575 1209.02 336.624 1206.81 333.975C1204.68 331.399 1203.61 328.16 1203.61 324.259C1203.61 321.978 1204.16 319.733 1205.26 317.525C1206.44 315.391 1208.17 313.403 1210.45 311.563C1212.81 309.65 1215.79 307.994 1219.4 306.595L1225.25 312.999C1221.71 314.25 1219.25 315.759 1217.85 317.525C1216.45 319.291 1215.75 321.095 1215.75 322.935C1215.75 324.848 1216.34 326.431 1217.52 327.682C1218.77 329.007 1220.43 330 1222.49 330.663C1224.62 331.325 1227.01 331.656 1229.66 331.656C1232.24 331.656 1234.48 331.288 1236.4 330.552C1238.31 329.89 1239.78 328.933 1240.81 327.682C1241.92 326.431 1242.47 324.922 1242.47 323.155C1242.47 320.947 1241.7 319.144 1240.15 317.746C1238.61 316.421 1235.55 315.611 1230.99 315.317C1227.09 315.023 1223.66 314.618 1220.72 314.103C1217.78 313.514 1215.24 312.851 1213.1 312.115C1211.04 311.379 1209.28 310.57 1207.8 309.687C1206.33 308.73 1205.12 307.773 1204.16 306.816V304.277L1215.75 292.133L1225.58 295.335L1212.55 308.031L1215.97 301.627C1216.71 302.143 1217.45 302.621 1218.18 303.063C1218.99 303.504 1219.98 303.909 1221.16 304.277C1222.41 304.571 1224.03 304.866 1226.02 305.16C1228.01 305.455 1230.58 305.749 1233.75 306.043C1238.68 306.411 1242.69 307.295 1245.78 308.693C1248.87 310.091 1251.15 311.968 1252.63 314.323C1254.1 316.679 1254.83 319.512 1254.83 322.824C1254.83 326.063 1253.91 329.117 1252.07 331.987C1250.31 334.858 1247.58 337.213 1243.9 339.053C1240.22 340.893 1235.51 341.813 1229.77 341.813ZM1229.77 299.53C1225.14 299.53 1221.13 298.647 1217.74 296.88C1214.43 295.04 1211.89 292.611 1210.12 289.594C1208.36 286.503 1207.47 283.117 1207.47 279.437C1207.47 275.683 1208.36 272.298 1210.12 269.28C1211.89 266.263 1214.43 263.834 1217.74 261.994C1221.13 260.154 1225.14 259.234 1229.77 259.234C1234.41 259.234 1238.38 260.154 1241.7 261.994C1245.01 263.834 1247.55 266.263 1249.31 269.28C1251.08 272.298 1251.96 275.683 1251.96 279.437C1251.96 283.117 1251.08 286.503 1249.31 289.594C1247.55 292.611 1245.01 295.04 1241.7 296.88C1238.38 298.647 1234.41 299.53 1229.77 299.53ZM1229.77 289.263C1232.94 289.263 1235.48 288.416 1237.39 286.723C1239.3 285.031 1240.26 282.602 1240.26 279.437C1240.26 276.272 1239.3 273.88 1237.39 272.261C1235.48 270.568 1232.94 269.722 1229.77 269.722C1226.61 269.722 1224.03 270.568 1222.05 272.261C1220.06 273.88 1219.06 276.272 1219.06 279.437C1219.06 282.602 1220.06 285.031 1222.05 286.723C1224.03 288.416 1226.61 289.263 1229.77 289.263ZM1238.94 270.274L1236.4 260.559H1259.25V268.839L1238.94 270.274Z" fill="white"/>
<defs>
<filter id="filter0_dddddd_1119_14644" x="0.639999" y="0.119995" width="723.118" height="723.12" filterUnits="userSpaceOnUse" color-interpolation-filters="sRGB">
<feFlood flood-opacity="0" result="BackgroundImageFix"/>
<feColorMatrix in="SourceAlpha" type="matrix" values="0 0 0 0 0 0 0 0 0 0 0 0 0 0 0 0 0 0 127 0" result="hardAlpha"/>
<feOffset dy="3.68"/>
<feGaussianBlur stdDeviation="2.76"/>
<feColorMatrix type="matrix" values="0 0 0 0 0.105882 0 0 0 0 0.192157 0 0 0 0 0.223529 0 0 0 0.0196802 0"/>
<feBlend mode="normal" in2="BackgroundImageFix" result="effect1_dropShadow_1119_14644"/>
<feColorMatrix in="SourceAlpha" type="matrix" values="0 0 0 0 0 0 0 0 0 0 0 0 0 0 0 0 0 0 127 0" result="hardAlpha"/>
<feOffset dy="7.36"/>
<feGaussianBlur stdDeviation="7.36"/>
<feColorMatrix type="matrix" values="0 0 0 0 0.105882 0 0 0 0 0.192157 0 0 0 0 0.223529 0 0 0 0.04 0"/>
<feBlend mode="normal" in2="effect1_dropShadow_1119_14644" result="effect2_dropShadow_1119_14644"/>
<feColorMatrix in="SourceAlpha" type="matrix" values="0 0 0 0 0 0 0 0 0 0 0 0 0 0 0 0 0 0 127 0" result="hardAlpha"/>
<feOffset dy="16.56"/>
<feGaussianBlur stdDeviation="11.96"/>
<feColorMatrix type="matrix" values="0 0 0 0 0.105882 0 0 0 0 0.192157 0 0 0 0 0.223529 0 0 0 0.035 0"/>
<feBlend mode="normal" in2="effect2_dropShadow_1119_14644" result="effect3_dropShadow_1119_14644"/>
<feColorMatrix in="SourceAlpha" type="matrix" values="0 0 0 0 0 0 0 0 0 0 0 0 0 0 0 0 0 0 127 0" result="hardAlpha"/>
<feOffset dy="29.44"/>
<feGaussianBlur stdDeviation="22.08"/>
<feColorMatrix type="matrix" values="0 0 0 0 0.105882 0 0 0 0 0.192157 0 0 0 0 0.223529 0 0 0 0.04 0"/>
<feBlend mode="normal" in2="effect3_dropShadow_1119_14644" result="effect4_dropShadow_1119_14644"/>
<feColorMatrix in="SourceAlpha" type="matrix" values="0 0 0 0 0 0 0 0 0 0 0 0 0 0 0 0 0 0 127 0" result="hardAlpha"/>
<feOffset dy="58.88"/>
<feGaussianBlur stdDeviation="36.8"/>
<feColorMatrix type="matrix" values="0 0 0 0 0.105882 0 0 0 0 0.192157 0 0 0 0 0.223529 0 0 0 0.0503198 0"/>
<feBlend mode="normal" in2="effect4_dropShadow_1119_14644" result="effect5_dropShadow_1119_14644"/>
<feColorMatrix in="SourceAlpha" type="matrix" values="0 0 0 0 0 0 0 0 0 0 0 0 0 0 0 0 0 0 127 0" result="hardAlpha"/>
<feOffset dy="132.48"/>
<feGaussianBlur stdDeviation="95.68"/>
<feColorMatrix type="matrix" values="0 0 0 0 0.105882 0 0 0 0 0.192157 0 0 0 0 0.223529 0 0 0 0.07 0"/>
<feBlend mode="normal" in2="effect5_dropShadow_1119_14644" result="effect6_dropShadow_1119_14644"/>
<feBlend mode="normal" in="SourceGraphic" in2="effect6_dropShadow_1119_14644" result="shape"/>
</filter>
</defs>
</svg>
