<svg width="1116" height="724" viewBox="0 0 1116 724" fill="none" xmlns="http://www.w3.org/2000/svg">
<g filter="url(#filter0_dddddd_1117_14146)">
<path d="M192 150.383C192 99.9134 232.913 59 283.383 59H441.017C491.487 59 532.4 99.9134 532.4 150.383V308.017C532.4 358.487 491.487 399.4 441.017 399.4H283.383C232.913 399.4 192 358.487 192 308.017V150.383Z" fill="white"/>
</g>
<path fill-rule="evenodd" clip-rule="evenodd" d="M310 327L458 327V239L310 239C285.699 239 266 258.699 266 283C266 307.301 285.699 327 310 327ZM310 303C321.046 303 330 294.046 330 283C330 271.954 321.046 263 310 263C298.954 263 290 271.954 290 283C290 294.046 298.954 303 310 303Z" fill="#FF5F46"/>
<path fill-rule="evenodd" clip-rule="evenodd" d="M414 223C438.301 223 458 203.301 458 179C458 154.699 438.301 135 414 135L266 135V223L414 223ZM414 199C425.046 199 434 190.046 434 179C434 167.954 425.046 159 414 159C402.954 159 394 167.954 394 179C394 190.046 402.954 199 414 199Z" fill="#FABFBA"/>
<path d="M603.899 217.2V139.92H623.771C632.75 139.92 640.147 141.503 645.962 144.667C651.85 147.759 656.192 152.211 658.989 158.026C661.859 163.767 663.294 170.685 663.294 178.781C663.294 186.73 661.859 193.575 658.989 199.315C656.192 205.056 651.85 209.472 645.962 212.563C640.147 215.655 632.75 217.2 623.771 217.2H603.899ZM613.173 209.472H623.55C630.984 209.472 636.909 208.258 641.325 205.829C645.741 203.327 648.906 199.794 650.819 195.231C652.733 190.594 653.69 185.111 653.69 178.781C653.69 172.304 652.733 166.747 650.819 162.111C648.906 157.474 645.741 153.904 641.325 151.402C636.909 148.899 630.984 147.648 623.55 147.648H613.173V209.472ZM691.343 218.525C686.927 218.525 683.247 217.715 680.303 216.096C677.359 214.403 675.151 212.195 673.679 209.472C672.207 206.675 671.471 203.695 671.471 200.53C671.471 196.703 672.428 193.464 674.341 190.815C676.329 188.091 679.089 186.031 682.621 184.632C686.154 183.234 690.276 182.535 694.986 182.535H709.449C709.449 178.781 709.007 175.653 708.124 173.151C707.241 170.648 705.805 168.771 703.818 167.52C701.831 166.269 699.181 165.643 695.869 165.643C692.557 165.643 689.724 166.49 687.369 168.183C685.013 169.802 683.541 172.231 682.953 175.469H673.458C673.9 171.642 675.188 168.44 677.322 165.864C679.457 163.215 682.143 161.227 685.381 159.903C688.693 158.504 692.189 157.805 695.869 157.805C701.095 157.805 705.401 158.762 708.786 160.675C712.172 162.515 714.674 165.128 716.293 168.514C717.913 171.826 718.722 175.763 718.722 180.327V217.2H710.442L709.89 207.264C709.154 208.81 708.197 210.282 707.02 211.68C705.916 213.005 704.591 214.183 703.045 215.213C701.5 216.243 699.733 217.053 697.746 217.642C695.833 218.231 693.698 218.525 691.343 218.525ZM692.668 210.687C695.097 210.687 697.341 210.135 699.402 209.031C701.463 207.927 703.229 206.455 704.701 204.615C706.247 202.701 707.425 200.567 708.234 198.211C709.044 195.856 709.449 193.391 709.449 190.815V189.711H695.759C692.3 189.711 689.466 190.152 687.258 191.035C685.124 191.919 683.578 193.17 682.621 194.789C681.665 196.335 681.186 198.101 681.186 200.088C681.186 202.223 681.628 204.099 682.511 205.719C683.394 207.264 684.682 208.479 686.375 209.362C688.141 210.245 690.239 210.687 692.668 210.687ZM751.744 217.2C748.432 217.2 745.561 216.685 743.133 215.655C740.704 214.624 738.827 212.895 737.502 210.466C736.251 207.963 735.625 204.615 735.625 200.419V166.968H725.469V159.13H735.625L736.84 144.667H744.899V159.13H761.349V166.968H744.899V200.419C744.899 203.879 745.598 206.234 746.997 207.485C748.395 208.663 750.861 209.251 754.393 209.251H761.128V217.2H751.744ZM788.866 218.525C784.45 218.525 780.77 217.715 777.826 216.096C774.882 214.403 772.674 212.195 771.202 209.472C769.73 206.675 768.994 203.695 768.994 200.53C768.994 196.703 769.951 193.464 771.864 190.815C773.851 188.091 776.611 186.031 780.144 184.632C783.677 183.234 787.799 182.535 792.509 182.535H806.971C806.971 178.781 806.53 175.653 805.647 173.151C804.763 170.648 803.328 168.771 801.341 167.52C799.354 166.269 796.704 165.643 793.392 165.643C790.08 165.643 787.247 166.49 784.891 168.183C782.536 169.802 781.064 172.231 780.475 175.469H770.981C771.423 171.642 772.711 168.44 774.845 165.864C776.979 163.215 779.666 161.227 782.904 159.903C786.216 158.504 789.712 157.805 793.392 157.805C798.618 157.805 802.923 158.762 806.309 160.675C809.695 162.515 812.197 165.128 813.816 168.514C815.435 171.826 816.245 175.763 816.245 180.327V217.2H807.965L807.413 207.264C806.677 208.81 805.72 210.282 804.543 211.68C803.439 213.005 802.114 214.183 800.568 215.213C799.023 216.243 797.256 217.053 795.269 217.642C793.355 218.231 791.221 218.525 788.866 218.525ZM790.191 210.687C792.619 210.687 794.864 210.135 796.925 209.031C798.986 207.927 800.752 206.455 802.224 204.615C803.77 202.701 804.947 200.567 805.757 198.211C806.567 195.856 806.971 193.391 806.971 190.815V189.711H793.282C789.823 189.711 786.989 190.152 784.781 191.035C782.647 191.919 781.101 193.17 780.144 194.789C779.187 196.335 778.709 198.101 778.709 200.088C778.709 202.223 779.151 204.099 780.034 205.719C780.917 207.264 782.205 208.479 783.898 209.362C785.664 210.245 787.762 210.687 790.191 210.687ZM857.179 218.525C853.646 218.525 850.592 218.01 848.016 216.979C845.514 215.875 843.379 214.514 841.613 212.895C839.92 211.275 838.522 209.693 837.418 208.147L836.645 217.2H828.254V137.712H837.528V168.293C839.294 164.834 841.907 162.221 845.366 160.455C848.826 158.688 852.69 157.805 856.958 157.805C862.258 157.805 866.894 159.093 870.869 161.669C874.843 164.245 877.934 167.815 880.142 172.378C882.35 176.867 883.454 182.056 883.454 187.944C883.454 193.759 882.35 198.984 880.142 203.621C877.934 208.258 874.843 211.901 870.869 214.551C866.968 217.2 862.405 218.525 857.179 218.525ZM855.965 210.466C859.424 210.466 862.478 209.583 865.128 207.816C867.851 205.976 869.986 203.4 871.531 200.088C873.15 196.703 873.96 192.728 873.96 188.165C873.96 183.602 873.15 179.664 871.531 176.352C869.986 172.967 867.851 170.391 865.128 168.624C862.478 166.784 859.424 165.864 855.965 165.864C852.285 165.864 849.083 166.784 846.36 168.624C843.637 170.391 841.539 172.967 840.067 176.352C838.595 179.664 837.859 183.602 837.859 188.165C837.859 192.728 838.595 196.703 840.067 200.088C841.539 203.4 843.637 205.976 846.36 207.816C849.083 209.583 852.285 210.466 855.965 210.466ZM893.619 217.2V159.13H902.009L902.672 169.728C903.997 167.079 905.726 164.871 907.861 163.104C909.995 161.338 912.571 160.013 915.589 159.13C918.68 158.247 922.139 157.805 925.966 157.805V167.52H920.225C918.017 167.52 915.883 167.815 913.822 168.403C911.761 168.992 909.885 169.949 908.192 171.274C906.573 172.599 905.285 174.402 904.328 176.683C903.371 178.965 902.893 181.835 902.893 185.295V217.2H893.619ZM934.207 217.2V159.13H943.481V217.2H934.207ZM938.844 148.09C937.004 148.09 935.459 147.501 934.207 146.323C933.03 145.072 932.441 143.527 932.441 141.687C932.441 139.847 933.03 138.375 934.207 137.271C935.459 136.093 937.004 135.504 938.844 135.504C940.611 135.504 942.119 136.093 943.371 137.271C944.622 138.375 945.247 139.847 945.247 141.687C945.247 143.527 944.622 145.072 943.371 146.323C942.119 147.501 940.611 148.09 938.844 148.09ZM981.703 218.525C976.403 218.525 971.693 217.274 967.571 214.771C963.45 212.195 960.211 208.626 957.856 204.063C955.501 199.499 954.323 194.2 954.323 188.165C954.323 182.056 955.501 176.757 957.856 172.267C960.211 167.704 963.45 164.171 967.571 161.669C971.693 159.093 976.403 157.805 981.703 157.805C988.327 157.805 993.847 159.571 998.263 163.104C1002.75 166.637 1005.62 171.384 1006.87 177.346H997.38C996.57 173.666 994.693 170.832 991.749 168.845C988.879 166.784 985.493 165.754 981.592 165.754C978.207 165.754 975.152 166.6 972.429 168.293C969.779 169.986 967.682 172.488 966.136 175.8C964.591 179.112 963.818 183.234 963.818 188.165C963.818 191.845 964.259 195.12 965.143 197.991C966.026 200.787 967.24 203.143 968.786 205.056C970.405 206.896 972.282 208.295 974.416 209.251C976.624 210.208 979.016 210.687 981.592 210.687C984.242 210.687 986.634 210.245 988.768 209.362C990.976 208.405 992.816 207.043 994.288 205.277C995.834 203.511 996.864 201.413 997.38 198.984H1006.87C1005.7 204.799 1002.83 209.509 998.263 213.115C993.773 216.722 988.253 218.525 981.703 218.525ZM1051.16 217.2L1024.78 185.847L1049.62 159.13H1060.99L1032.61 189.159L1032.72 182.535L1062.97 217.2H1051.16ZM1017.05 217.2V137.712H1026.32V217.2H1017.05ZM1087.22 218.525C1081.99 218.525 1077.65 217.752 1074.19 216.207C1070.8 214.587 1068.23 212.379 1066.46 209.583C1064.69 206.712 1063.63 203.4 1063.26 199.647H1072.75C1073.05 201.634 1073.71 203.474 1074.74 205.167C1075.84 206.786 1077.43 208.111 1079.49 209.141C1081.55 210.171 1084.16 210.687 1087.33 210.687C1089.83 210.687 1091.96 210.319 1093.73 209.583C1095.5 208.773 1096.82 207.669 1097.7 206.271C1098.66 204.872 1099.14 203.253 1099.14 201.413C1099.14 198.984 1098.59 197.107 1097.48 195.783C1096.45 194.384 1094.91 193.354 1092.85 192.691C1090.86 191.955 1088.36 191.403 1085.34 191.035C1082.1 190.594 1079.23 189.968 1076.73 189.159C1074.23 188.349 1072.09 187.282 1070.32 185.957C1068.63 184.632 1067.34 182.976 1066.46 180.989C1065.58 179.002 1065.14 176.647 1065.14 173.923C1065.14 170.759 1065.98 167.962 1067.67 165.533C1069.37 163.104 1071.76 161.227 1074.85 159.903C1078.02 158.504 1081.73 157.805 1086 157.805C1092.26 157.805 1097.19 159.24 1100.79 162.111C1104.47 164.981 1106.65 169.066 1107.31 174.365H1098.15C1097.78 171.642 1096.53 169.507 1094.39 167.962C1092.26 166.416 1089.42 165.643 1085.89 165.643C1082.14 165.643 1079.3 166.343 1077.39 167.741C1075.48 169.139 1074.52 170.979 1074.52 173.261C1074.52 174.954 1074.92 176.499 1075.73 177.898C1076.62 179.223 1078.09 180.363 1080.15 181.32C1082.21 182.203 1084.97 182.866 1088.43 183.307C1092.77 183.823 1096.45 184.669 1099.47 185.847C1102.49 186.951 1104.77 188.68 1106.32 191.035C1107.93 193.391 1108.71 196.592 1108.63 200.64C1108.63 204.467 1107.71 207.706 1105.87 210.355C1104.11 213.005 1101.6 215.029 1098.37 216.427C1095.2 217.826 1091.48 218.525 1087.22 218.525ZM629.181 317.525C623.587 317.525 618.619 316.531 614.277 314.544C609.934 312.557 606.549 309.723 604.12 306.043C601.691 302.363 600.44 297.984 600.366 292.906H614.387C614.387 295.482 614.976 297.8 616.154 299.861C617.405 301.848 619.098 303.431 621.232 304.608C623.44 305.786 626.09 306.375 629.181 306.375C631.83 306.375 634.112 305.97 636.026 305.16C638.013 304.277 639.522 303.063 640.552 301.517C641.656 299.898 642.208 298.021 642.208 295.887C642.208 293.458 641.619 291.471 640.442 289.925C639.338 288.306 637.792 286.944 635.805 285.84C633.818 284.736 631.536 283.779 628.96 282.97C626.384 282.087 623.661 281.167 620.79 280.21C614.682 278.149 610.082 275.536 606.99 272.371C603.899 269.133 602.354 264.827 602.354 259.455C602.354 254.965 603.421 251.101 605.555 247.863C607.69 244.624 610.67 242.122 614.498 240.355C618.398 238.515 622.888 237.595 627.966 237.595C633.118 237.595 637.608 238.515 641.435 240.355C645.336 242.195 648.39 244.771 650.598 248.083C652.88 251.322 654.058 255.223 654.131 259.786H640C639.926 257.872 639.411 256.106 638.454 254.487C637.498 252.794 636.099 251.432 634.259 250.402C632.493 249.298 630.322 248.746 627.746 248.746C625.538 248.672 623.55 249.04 621.784 249.85C620.091 250.586 618.73 251.69 617.699 253.162C616.742 254.56 616.264 256.327 616.264 258.461C616.264 260.522 616.706 262.251 617.589 263.65C618.546 264.975 619.907 266.115 621.674 267.072C623.44 267.955 625.501 268.802 627.856 269.611C630.211 270.421 632.787 271.304 635.584 272.261C639.411 273.512 642.87 275.058 645.962 276.898C649.126 278.664 651.629 280.983 653.469 283.853C655.309 286.723 656.229 290.44 656.229 295.003C656.229 298.978 655.198 302.695 653.138 306.154C651.077 309.539 648.059 312.299 644.085 314.434C640.11 316.495 635.142 317.525 629.181 317.525ZM720.005 327.792L692.515 284.736H707.75L735.681 327.792H720.005ZM701.016 317.525C693.582 317.525 686.995 315.869 681.254 312.557C675.587 309.171 671.134 304.498 667.896 298.536C664.657 292.501 663.038 285.509 663.038 277.56C663.038 269.685 664.657 262.767 667.896 256.805C671.134 250.77 675.587 246.059 681.254 242.674C686.995 239.288 693.582 237.595 701.016 237.595C708.597 237.595 715.257 239.288 720.998 242.674C726.739 246.059 731.192 250.77 734.357 256.805C737.521 262.767 739.104 269.685 739.104 277.56C739.104 285.509 737.521 292.501 734.357 298.536C731.192 304.498 726.739 309.171 720.998 312.557C715.257 315.869 708.597 317.525 701.016 317.525ZM701.126 305.602C706.057 305.602 710.363 304.498 714.043 302.29C717.723 300.008 720.557 296.77 722.544 292.575C724.531 288.379 725.525 283.375 725.525 277.56C725.525 271.746 724.531 266.741 722.544 262.546C720.557 258.351 717.723 255.149 714.043 252.941C710.363 250.659 706.057 249.519 701.126 249.519C696.195 249.519 691.889 250.659 688.209 252.941C684.529 255.149 681.659 258.351 679.598 262.546C677.611 266.741 676.617 271.746 676.617 277.56C676.617 283.375 677.611 288.379 679.598 292.575C681.659 296.77 684.529 300.008 688.209 302.29C691.889 304.498 696.195 305.602 701.126 305.602ZM748.736 316.2V238.92H761.984V305.823H796.429V316.2H748.736Z" fill="#1B3139"/>
<defs>
<filter id="filter0_dddddd_1117_14146" x="0.639999" y="0.119995" width="723.118" height="723.12" filterUnits="userSpaceOnUse" color-interpolation-filters="sRGB">
<feFlood flood-opacity="0" result="BackgroundImageFix"/>
<feColorMatrix in="SourceAlpha" type="matrix" values="0 0 0 0 0 0 0 0 0 0 0 0 0 0 0 0 0 0 127 0" result="hardAlpha"/>
<feOffset dy="3.68"/>
<feGaussianBlur stdDeviation="2.76"/>
<feColorMatrix type="matrix" values="0 0 0 0 0.105882 0 0 0 0 0.192157 0 0 0 0 0.223529 0 0 0 0.0196802 0"/>
<feBlend mode="normal" in2="BackgroundImageFix" result="effect1_dropShadow_1117_14146"/>
<feColorMatrix in="SourceAlpha" type="matrix" values="0 0 0 0 0 0 0 0 0 0 0 0 0 0 0 0 0 0 127 0" result="hardAlpha"/>
<feOffset dy="7.36"/>
<feGaussianBlur stdDeviation="7.36"/>
<feColorMatrix type="matrix" values="0 0 0 0 0.105882 0 0 0 0 0.192157 0 0 0 0 0.223529 0 0 0 0.04 0"/>
<feBlend mode="normal" in2="effect1_dropShadow_1117_14146" result="effect2_dropShadow_1117_14146"/>
<feColorMatrix in="SourceAlpha" type="matrix" values="0 0 0 0 0 0 0 0 0 0 0 0 0 0 0 0 0 0 127 0" result="hardAlpha"/>
<feOffset dy="16.56"/>
<feGaussianBlur stdDeviation="11.96"/>
<feColorMatrix type="matrix" values="0 0 0 0 0.105882 0 0 0 0 0.192157 0 0 0 0 0.223529 0 0 0 0.035 0"/>
<feBlend mode="normal" in2="effect2_dropShadow_1117_14146" result="effect3_dropShadow_1117_14146"/>
<feColorMatrix in="SourceAlpha" type="matrix" values="0 0 0 0 0 0 0 0 0 0 0 0 0 0 0 0 0 0 127 0" result="hardAlpha"/>
<feOffset dy="29.44"/>
<feGaussianBlur stdDeviation="22.08"/>
<feColorMatrix type="matrix" values="0 0 0 0 0.105882 0 0 0 0 0.192157 0 0 0 0 0.223529 0 0 0 0.04 0"/>
<feBlend mode="normal" in2="effect3_dropShadow_1117_14146" result="effect4_dropShadow_1117_14146"/>
<feColorMatrix in="SourceAlpha" type="matrix" values="0 0 0 0 0 0 0 0 0 0 0 0 0 0 0 0 0 0 127 0" result="hardAlpha"/>
<feOffset dy="58.88"/>
<feGaussianBlur stdDeviation="36.8"/>
<feColorMatrix type="matrix" values="0 0 0 0 0.105882 0 0 0 0 0.192157 0 0 0 0 0.223529 0 0 0 0.0503198 0"/>
<feBlend mode="normal" in2="effect4_dropShadow_1117_14146" result="effect5_dropShadow_1117_14146"/>
<feColorMatrix in="SourceAlpha" type="matrix" values="0 0 0 0 0 0 0 0 0 0 0 0 0 0 0 0 0 0 127 0" result="hardAlpha"/>
<feOffset dy="132.48"/>
<feGaussianBlur stdDeviation="95.68"/>
<feColorMatrix type="matrix" values="0 0 0 0 0.105882 0 0 0 0 0.192157 0 0 0 0 0.223529 0 0 0 0.07 0"/>
<feBlend mode="normal" in2="effect5_dropShadow_1117_14146" result="effect6_dropShadow_1117_14146"/>
<feBlend mode="normal" in="SourceGraphic" in2="effect6_dropShadow_1117_14146" result="shape"/>
</filter>
</defs>
</svg>
