<svg width="150" height="150" viewBox="0 0 150 150" fill="none" xmlns="http://www.w3.org/2000/svg">
<g clip-path="url(#clip0_2919_1900)">
<g clip-path="url(#clip1_2919_1900)">
<path d="M105.66 69.91H21.95V20.53C21.95 16.9 24.9 13.95 28.53 13.95H83.32V11.11H28.53C23.34 11.11 19.11 15.34 19.11 20.53V72.76H105.66V69.92V69.91Z" fill="#FF5F46"/>
<path d="M130.47 49.66L92.33 11.52L89.9 12.52V42.66C89.9 47.85 94.13 52.08 99.32 52.08H119.45V49.24H99.32C95.69 49.24 92.74 46.29 92.74 42.66V15.96L128.03 51.26V129.48C128.03 133.11 125.08 136.06 121.45 136.06H28.53C24.9 136.06 21.95 133.11 21.95 129.48V83.67H19.11V129.48C19.11 134.67 23.34 138.9 28.53 138.9H121.46C126.65 138.9 130.88 134.67 130.88 129.48V50.66L130.46 49.66H130.47Z" fill="#FF5F46"/>
<path d="M105.67 85.25H44.34V88.09H105.67V85.25Z" fill="#FF5F46"/>
<path d="M105.67 100.59H44.34V103.43H105.67V100.59Z" fill="#FF5F46"/>
<path d="M71 115.92H44.34V118.76H71V115.92Z" fill="#FF5F46"/>
<path d="M45.88 24.5C49.02 24.5 52.05 25.65 54.4 27.73L56.39 25.48C53.49 22.91 49.76 21.5 45.88 21.5C37.14 21.5 30.03 28.61 30.03 37.35C30.03 46.09 37.14 53.2 45.88 53.2C54.62 53.2 61.73 46.09 61.73 37.35V35.85H45.88V38.85H58.64C57.89 45.23 52.46 50.2 45.88 50.2C38.8 50.2 33.03 44.44 33.03 37.35C33.03 30.26 38.79 24.5 45.88 24.5Z" fill="#FF5F46"/>
</g>
</g>
<defs>
<clipPath id="clip0_2919_1900">
<rect width="150" height="150" fill="white"/>
</clipPath>
<clipPath id="clip1_2919_1900">
<rect width="150" height="150" fill="white"/>
</clipPath>
</defs>
</svg>
