<svg width="150" height="150" viewBox="0 0 150 150" fill="none" xmlns="http://www.w3.org/2000/svg">
<g clip-path="url(#clip0_8407_585)">
<mask id="mask0_8407_585" style="mask-type:luminance" maskUnits="userSpaceOnUse" x="0" y="0" width="150" height="150">
<path d="M150 0H0V150H150V0Z" fill="white"/>
</mask>
<g mask="url(#mask0_8407_585)">
<mask id="mask1_8407_585" style="mask-type:luminance" maskUnits="userSpaceOnUse" x="0" y="0" width="150" height="150">
<path d="M150 0H0V150H150V0Z" fill="white"/>
</mask>
<g mask="url(#mask1_8407_585)">
<path d="M105.66 69.9104H21.95V20.5304C21.95 16.9004 24.9 13.9504 28.53 13.9504H83.32V11.1104H28.53C23.34 11.1104 19.11 15.3404 19.11 20.5304V72.7604H105.66V69.9203V69.9104Z" fill="#1B3139"/>
<path d="M130.47 49.6605L92.33 11.5205L89.9 12.5205V42.6605C89.9 47.8505 94.13 52.0805 99.32 52.0805H119.45V49.2405H99.32C95.69 49.2405 92.74 46.2905 92.74 42.6605V15.9605L128.03 51.2605V129.48C128.03 133.11 125.08 136.061 121.45 136.061H28.53C24.9 136.061 21.95 133.11 21.95 129.48V83.6705H19.11V129.48C19.11 134.67 23.34 138.9 28.53 138.9H121.46C126.65 138.9 130.88 134.67 130.88 129.48V50.6605L130.46 49.6605H130.47Z" fill="#1B3139"/>
<path d="M105.67 85.25H44.34V88.09H105.67V85.25Z" fill="#1B3139"/>
<path d="M105.67 100.591H44.34V103.431H105.67V100.591Z" fill="#1B3139"/>
<path d="M71 115.92H44.34V118.76H71V115.92Z" fill="#1B3139"/>
<path d="M45.88 24.5C49.02 24.5 52.05 25.65 54.4 27.73L56.39 25.48C53.49 22.91 49.76 21.5 45.88 21.5C37.14 21.5 30.03 28.61 30.03 37.35C30.03 46.09 37.14 53.2 45.88 53.2C54.62 53.2 61.73 46.09 61.73 37.35V35.85H45.88V38.85H58.64C57.89 45.23 52.46 50.2 45.88 50.2C38.8 50.2 33.03 44.44 33.03 37.35C33.03 30.26 38.79 24.5 45.88 24.5Z" fill="#1B3139"/>
</g>
</g>
</g>
<defs>
<clipPath id="clip0_8407_585">
<rect width="150" height="150" fill="white"/>
</clipPath>
</defs>
</svg>
