<svg width="151" height="150" viewBox="0 0 151 150" fill="none" xmlns="http://www.w3.org/2000/svg">
<path d="M75.5 19.6689C51.6 19.6689 32.3 38.9405 32.3 62.6822C32.3 67.2517 33 71.8213 34.5 76.1921H37.7001C30.2001 55.3312 41.1 32.4835 62 25.0332C82.9 17.5829 105.9 28.4107 113.4 49.1723C117.3 60.0001 116.3 72.0199 110.7 82.053H106.2V44.3047H93.7V82.053H89.3001V64.7683H76.8001V82.053H72.4001V54.7352H60.3V82.053H56V72.5166H43.8V82.053H36.8L38.1 84.3378C50.1 104.801 76.6 111.656 97.2 99.7352C101.2 97.3511 104.8 94.4703 107.9 90.8941H103.8C96.3 98.3444 86.1001 102.517 75.4001 102.517C62.1001 102.517 49.6 95.9603 42.1 85.0332H46.7001V75.4968H53V85.0332H63.3V57.7153H69.5V85.0332H79.9001V67.7484H86.3001V85.0332H96.7V47.2848H103.1V85.0332H112.4L112.8 84.3378C124.9 63.8742 117.9 37.5497 97.4001 25.6292C90.7001 21.755 83.2 19.6689 75.5 19.6689Z" fill="white"/>
<path d="M75.5 10.3311C46.4 10.5297 23 34.0728 23.2 62.9801C23.4 89.5032 43.5 111.755 70.1 114.636V139.669L72.6 137.285C74.2 135.795 112.5 99.8344 114.8 97.3509C134.1 75.7946 132.2 42.7152 110.4 23.543C100.8 14.9999 88.4 10.3311 75.5 10.3311ZM112.7 95.3642C111.3 96.9536 87.5 119.305 73.1 132.814V111.954L71.7 111.854C44.3 109.768 23.9 86.0264 26 58.9072C28.1 31.788 52 11.4238 79.3 13.5099C106.6 15.596 127.1 39.3377 125 66.4569C124.2 77.086 119.9 87.3178 112.7 95.3642Z" fill="white"/>
</svg>
