<svg width="151" height="150" viewBox="0 0 151 150" fill="none" xmlns="http://www.w3.org/2000/svg">
<path d="M75.5 19.6689C51.6 19.6689 32.3 38.9404 32.3 62.6822C32.3 67.2517 33 71.8212 34.5 76.1921H37.7001C30.2001 55.3312 41.1 32.4835 62 25.0332C82.9 17.5828 105.9 28.4106 113.4 49.1722C117.3 60 116.3 72.0199 110.7 82.053H106.2V44.3047H93.7V82.053H89.3001V64.7683H76.8001V82.053H72.4001V54.7351H60.3V82.053H56V72.5166H43.8V82.053H36.8L38.1 84.3378C50.1 104.801 76.6 111.656 97.2 99.7352C101.2 97.351 104.8 94.4702 107.9 90.8941H103.8C96.3 98.3444 86.1001 102.517 75.4001 102.517C62.1001 102.517 49.6 95.9603 42.1 85.0332H46.7001V75.4967H53V85.0332H63.3V57.7153H69.5V85.0332H79.9001V67.7484H86.3001V85.0332H96.7V47.2848H103.1V85.0332H112.4L112.8 84.3378C124.9 63.8742 117.9 37.5497 97.4001 25.6292C90.7001 21.755 83.2001 19.6689 75.5 19.6689Z" fill="#FF5F46"/>
<path d="M75.5 10.3312C46.4 10.5298 23 34.0729 23.2 62.9802C23.4 89.5033 43.5 111.755 70.1 114.636V139.669L72.6 137.285C74.2 135.795 112.5 99.8345 114.8 97.351C134.1 75.7947 132.2 42.7153 110.4 23.5431C100.8 15 88.4 10.3312 75.5 10.3312ZM112.7 95.3643C111.3 96.9537 87.5 119.305 73.1 132.815V111.954L71.7 111.854C44.3 109.768 23.9 86.0265 26 58.9073C28.1 31.7881 52 11.4239 79.3 13.51C106.6 15.5961 127.1 39.3378 125 66.457C124.2 77.0861 119.9 87.3179 112.7 95.3643Z" fill="#FF5F46"/>
</svg>
