<svg width="150" height="150" viewBox="0 0 150 150" fill="none" xmlns="http://www.w3.org/2000/svg">
<g clip-path="url(#clip0_1_2205)">
<path d="M66.8647 97.8476H31.1654C28.3499 97.8476 26.0618 95.5595 26.0618 92.7441V81.6949H125.598V30.753C125.598 27.9375 123.31 25.6494 120.495 25.6494H31.1654C28.3499 25.6494 26.0618 27.9375 26.0618 30.753V74.0481" stroke="white" stroke-width="3" stroke-miterlimit="3" stroke-linecap="square"/>
<path d="M83.5023 111.006H95.6998C99.9357 111.006 103.364 114.443 103.364 118.67V123H48.2878V118.67C48.2878 114.434 51.7242 111.006 55.9516 111.006H75.8215V97.8477H120.486C123.301 97.8477 125.59 95.5596 125.59 92.7442V88.6528" stroke="white" stroke-width="3" stroke-miterlimit="3" stroke-linecap="square"/>
<path d="M72.66 92H78.99" stroke="white" stroke-width="3" stroke-miterlimit="3" stroke-linecap="square"/>
</g>
<defs>
<clipPath id="clip0_1_2205">
<rect width="150" height="150" fill="white"/>
</clipPath>
</defs>
</svg>
