<svg width="150" height="150" viewBox="0 0 150 150" fill="none" xmlns="http://www.w3.org/2000/svg">
<g clip-path="url(#clip0_1_2245)">
<path d="M66.8647 97.8476H31.1654C28.3499 97.8476 26.0618 95.5595 26.0618 92.7441V81.6949H125.598V30.753C125.598 27.9375 123.31 25.6494 120.495 25.6494H31.1654C28.3499 25.6494 26.0618 27.9375 26.0618 30.753V74.0481" stroke="#1B3139" stroke-width="3" stroke-miterlimit="3" stroke-linecap="square"/>
<path d="M83.5023 111.007H95.6998C99.9357 111.007 103.364 114.443 103.364 118.67V123H48.2878V118.67C48.2878 114.435 51.7242 111.007 55.9516 111.007H75.8215V97.848H120.486C123.301 97.848 125.59 95.5599 125.59 92.7444V88.6531" stroke="#1B3139" stroke-width="3" stroke-miterlimit="3" stroke-linecap="square"/>
<path d="M72.66 92H78.99" stroke="#1B3139" stroke-width="3" stroke-miterlimit="3" stroke-linecap="square"/>
</g>
<defs>
<clipPath id="clip0_1_2245">
<rect width="150" height="150" fill="white"/>
</clipPath>
</defs>
</svg>
