<svg width="150" height="150" viewBox="0 0 150 150" fill="none" xmlns="http://www.w3.org/2000/svg">
<path d="M130.4 43.5C128.6 41.3 125.9 40.1 123.1 40.1H44.1L52.7 86L47.1 86.4L39.2 44.3L37.6 35.4C36.6 30 31.9 26.1 26.4 26.1H18V29.1H26.4C30.4 29.1 33.9 32 34.6 36L36.2 44.9L44.6 89.6L56.2 88.9L53.9 76.5H68.6L70.6 92L45.4 93.6L46.8 101C47.6 105.5 51.6 108.8 56.2 108.8H65.6C69.2 108.8 72.1 111.8 72.1 115.4C72.1 119 69.2 122 65.5 122C61.9 122 58.9 119.1 58.9 115.4C58.9 114.6 59 113.9 59.3 113.2H56.2C56 113.9 55.9 114.7 55.9 115.4C55.9 120.7 60.2 125 65.5 125C70.8 125 75.1 120.7 75.1 115.4C75.1 112.9 74.1 110.6 72.5 108.8H115.4C119 108.8 122 111.7 122 115.4C122 119 119.1 122 115.4 122C111.8 122 108.8 119.1 108.8 115.4C108.8 114.6 108.9 113.9 109.2 113.2H106C105.8 113.9 105.7 114.7 105.7 115.4C105.7 120.7 110 125 115.3 125C120.6 125 124.9 120.7 124.9 115.4C124.9 110.1 120.6 105.8 115.3 105.8H65.5H65.4H56.1C53 105.8 50.3 103.6 49.7 100.5L49 96.4L117 92C121.6 92 125.5 88.7 126.4 84.2L132.5 51.3C133 48.6 132.3 45.7 130.4 43.5ZM128.1 45.4C129.3 46.9 129.9 48.9 129.5 50.8L128.6 55.7H111L112.6 43.1H123.1C125.1 43.1 126.9 44 128.1 45.4ZM90.1 73.4V58.7H107.7L105.9 73.4H90.1ZM105.4 76.4L103.7 89.8L90 90.7V76.4H105.4ZM87.1 55.7H69.1L67.5 43.1H87V55.7H87.1ZM90.1 43.1H109.6L108 55.7H90.1V43.1ZM87.1 58.7V73.4H71.3L69.5 58.7H87.1ZM110.6 58.7H128L125.3 73.4H108.8L110.6 58.7ZM64.5 43.1L66.1 55.7H50.1L47.8 43.1H64.5ZM53.4 73.4L50.7 58.7H66.5L68.3 73.4H53.4ZM71.7 76.4H87.1V90.9L73.6 91.8L71.7 76.4ZM123.4 83.7C122.8 86.8 120.1 89 116.9 89L106.8 89.6L108.4 76.4H124.7L123.4 83.7Z" fill="white"/>
</svg>
