<svg width="150" height="150" viewBox="0 0 150 150" fill="none" xmlns="http://www.w3.org/2000/svg">
<path d="M130.4 43.5001C128.6 41.3001 125.9 40.1001 123.1 40.1001H44.1L52.7 86.0001L47.1 86.4001L39.2 44.3001L37.6 35.4001C36.6 30.0001 31.9 26.1001 26.4 26.1001H18V29.1001H26.4C30.4 29.1001 33.9 32.0001 34.6 36.0001L36.2 44.9001L44.6 89.6001L56.2 88.9001L53.9 76.5001H68.6L70.6 92.0001L45.4 93.6001L46.8 101C47.6 105.5 51.6 108.8 56.2 108.8H65.6C69.2 108.8 72.1 111.8 72.1 115.4C72.1 119 69.2 122 65.5 122C61.9 122 58.9 119.1 58.9 115.4C58.9 114.6 59 113.9 59.3 113.2H56.2C56 113.9 55.9 114.7 55.9 115.4C55.9 120.7 60.2 125 65.5 125C70.8 125 75.1 120.7 75.1 115.4C75.1 112.9 74.1 110.6 72.5 108.8H115.4C119 108.8 122 111.7 122 115.4C122 119 119.1 122 115.4 122C111.8 122 108.8 119.1 108.8 115.4C108.8 114.6 108.9 113.9 109.2 113.2H106C105.8 113.9 105.7 114.7 105.7 115.4C105.7 120.7 110 125 115.3 125C120.6 125 124.9 120.7 124.9 115.4C124.9 110.1 120.6 105.8 115.3 105.8H65.5H65.4H56.1C53 105.8 50.3 103.6 49.7 100.5L49 96.4001L117 92.0001C121.6 92.0001 125.5 88.7001 126.4 84.2001L132.5 51.3001C133 48.6001 132.3 45.7001 130.4 43.5001ZM128.1 45.4001C129.3 46.9001 129.9 48.9001 129.5 50.8001L128.6 55.7001H111L112.6 43.1001H123.1C125.1 43.1001 126.9 44.0001 128.1 45.4001ZM90.1 73.4001V58.7001H107.7L105.9 73.4001H90.1ZM105.4 76.4001L103.7 89.8001L90 90.7001V76.4001H105.4ZM87.1 55.7001H69.1L67.5 43.1001H87V55.7001H87.1ZM90.1 43.1001H109.6L108 55.7001H90.1V43.1001ZM87.1 58.7001V73.4001H71.3L69.5 58.7001H87.1ZM110.6 58.7001H128L125.3 73.4001H108.8L110.6 58.7001ZM64.5 43.1001L66.1 55.7001H50.1L47.8 43.1001H64.5ZM53.4 73.4001L50.7 58.7001H66.5L68.3 73.4001H53.4ZM71.7 76.4001H87.1V90.9001L73.6 91.8001L71.7 76.4001ZM123.4 83.7001C122.8 86.8001 120.1 89.0001 116.9 89.0001L106.8 89.6001L108.4 76.4001H124.7L123.4 83.7001Z" fill="#FF5F46"/>
</svg>
