<svg width="150" height="150" viewBox="0 0 150 150" fill="none" xmlns="http://www.w3.org/2000/svg">
<path d="M104.8 121.2C104.8 124 102.6 126.2 99.8 126.2H27.9C25.2 126.2 23 124 23 121.3V28.7001C23 26.0001 25.2 23.8 27.9 23.8H72.7V20.8H27.9C23.5 20.8 20 24.3001 20 28.7001V121.4C20 125.8 23.5 129.3 27.9 129.3H99.8C104.2 129.3 107.8 125.7 107.8 121.3V116H104.8V121.2V121.2Z" fill="#1B3139"/>
<path d="M107.8 63.4001V46.8L81.6 20.8H78.4V44.8C78.4 49.2 81.9 52.7001 86.3 52.7001H98.6V49.7001H86.4C83.7 49.7001 81.5 47.5 81.5 44.8V24.8L104.9 48.1V63.4001C92.5 64.2001 82.7 74.5001 82.7 87.1001C82.7 95.0001 86.6 102.2 92.9 106.6H36.2V87.2L46.4 77L58.2 88.8L82.2 64.8001L80.1 62.7001L58.2 84.5L46.4 72.7L36.1 82.9001V50H33.1V109.6H99V108.1L99.5 106.7C91.2 103.8 85.6 96 85.6 87.2C85.6 76.3 94.1 67.3 104.8 66.6V87.2V110.9H106.3C119.4 110.9 130 100.3 130 87.2C130 74.5 120.2 64.2001 107.8 63.4001ZM126.9 85.6001H109.9L121.9 73.6C124.8 76.8 126.6 81.0001 126.9 85.6001ZM119.8 71.4001L107.8 83.4001V66.4001C112.4 66.8001 116.6 68.6001 119.8 71.4001ZM107.8 107.7V88.6001H126.9C126.2 98.8001 118 107 107.8 107.7Z" fill="#1B3139"/>
</svg>
