<svg width="150" height="150" viewBox="0 0 150 150" fill="none" xmlns="http://www.w3.org/2000/svg">
<g clip-path="url(#clip0_214_436)">
<path fill-rule="evenodd" clip-rule="evenodd" d="M49.6 42.4C46.5625 42.4 44.1 44.8624 44.1 47.9C44.1 50.9376 46.5625 53.4 49.6 53.4C52.6376 53.4 55.1 50.9376 55.1 47.9C55.1 44.8624 52.6376 42.4 49.6 42.4ZM41.1 47.9C41.1 43.2056 44.9056 39.4 49.6 39.4C54.2945 39.4 58.1 43.2056 58.1 47.9C58.1 52.5944 54.2945 56.4 49.6 56.4C44.9056 56.4 41.1 52.5944 41.1 47.9Z" fill="#FF5F46"/>
<path fill-rule="evenodd" clip-rule="evenodd" d="M106.5 53.7C103.462 53.7 101 56.1624 101 59.2C101 62.2376 103.462 64.7 106.5 64.7C109.538 64.7 112 62.2376 112 59.2C112 56.1624 109.538 53.7 106.5 53.7ZM98 59.2C98 54.5056 101.806 50.7 106.5 50.7C111.194 50.7 115 54.5056 115 59.2C115 63.8944 111.194 67.7 106.5 67.7C101.806 67.7 98 63.8944 98 59.2Z" fill="#FF5F46"/>
<path fill-rule="evenodd" clip-rule="evenodd" d="M85.8 107.5C82.7625 107.5 80.3 109.962 80.3 113C80.3 116.038 82.7625 118.5 85.8 118.5C88.8376 118.5 91.3 116.038 91.3 113C91.3 109.962 88.8376 107.5 85.8 107.5ZM77.3 113C77.3 108.306 81.1056 104.5 85.8 104.5C90.4945 104.5 94.3 108.306 94.3 113C94.3 117.694 90.4945 121.5 85.8 121.5C81.1056 121.5 77.3 117.694 77.3 113Z" fill="#FF5F46"/>
<path fill-rule="evenodd" clip-rule="evenodd" d="M72 80.3H86.8V95.1H72V80.3ZM75 83.3V92.1H83.8V83.3H75Z" fill="#FF5F46"/>
<path fill-rule="evenodd" clip-rule="evenodd" d="M27.8 63.5H42.6V78.3H27.8V63.5ZM30.8 66.5V75.3H39.6V66.5H30.8Z" fill="#FF5F46"/>
<path fill-rule="evenodd" clip-rule="evenodd" d="M75.0291 83.3201H60.2291V68.5201H75.0291V83.3201ZM72.0291 80.3201V71.5201H63.2291V80.3201H72.0291Z" fill="#FF5F46"/>
<path fill-rule="evenodd" clip-rule="evenodd" d="M73.5 32.203L78.5036 40.8579L83.4799 49.6H63.3856L68.5032 40.8461L73.5 32.203ZM73.5 38.197L71.095 42.3571L68.6145 46.6H78.3202L75.8989 42.3464L73.5 38.197Z" fill="#FF5F46"/>
<path fill-rule="evenodd" clip-rule="evenodd" d="M103.383 74.4329L108.497 83.046L113.48 91.8H93.4202L98.4014 83.0492L103.383 74.4329ZM103.417 80.3671L101.001 84.5464L98.5798 88.8H108.32L105.903 84.554L103.417 80.3671Z" fill="#FF5F46"/>
<path fill-rule="evenodd" clip-rule="evenodd" d="M53.4827 90.0983L58.5986 98.8492L63.5998 107.5H43.5002L48.4989 98.8536L53.4827 90.0983ZM53.5173 96.1017L51.0986 100.351L48.6998 104.5H58.4002L56.0033 100.354L53.5173 96.1017Z" fill="#FF5F46"/>
<path fill-rule="evenodd" clip-rule="evenodd" d="M75 19.4C44.293 19.4 19.4 44.293 19.4 75C19.4 105.707 44.293 130.6 75 130.6C105.707 130.6 130.6 105.707 130.6 75C130.6 44.293 105.707 19.4 75 19.4ZM16.4 75C16.4 42.6361 42.6361 16.4 75 16.4C107.364 16.4 133.6 42.6361 133.6 75C133.6 107.364 107.364 133.6 75 133.6C42.6361 133.6 16.4 107.364 16.4 75Z" fill="#FF5F46"/>
</g>
<defs>
<clipPath id="clip0_214_436">
<rect width="150" height="150" fill="white"/>
</clipPath>
</defs>
</svg>
