<svg width="150" height="150" viewBox="0 0 150 150" fill="none" xmlns="http://www.w3.org/2000/svg">
<g clip-path="url(#clip0_1_1989)">
<path fill-rule="evenodd" clip-rule="evenodd" d="M49.6 42.3999C46.5625 42.3999 44.1 44.8623 44.1 47.8999C44.1 50.9375 46.5625 53.3999 49.6 53.3999C52.6376 53.3999 55.1 50.9375 55.1 47.8999C55.1 44.8623 52.6376 42.3999 49.6 42.3999ZM41.1 47.8999C41.1 43.2055 44.9056 39.3999 49.6 39.3999C54.2945 39.3999 58.1 43.2055 58.1 47.8999C58.1 52.5943 54.2945 56.3999 49.6 56.3999C44.9056 56.3999 41.1 52.5943 41.1 47.8999Z" fill="#1B3139"/>
<path fill-rule="evenodd" clip-rule="evenodd" d="M106.5 53.7C103.462 53.7 101 56.1624 101 59.2C101 62.2375 103.462 64.6999 106.5 64.6999C109.538 64.6999 112 62.2375 112 59.2C112 56.1624 109.538 53.7 106.5 53.7ZM98 59.2C98 54.5055 101.806 50.7 106.5 50.7C111.194 50.7 115 54.5055 115 59.2C115 63.8944 111.194 67.6999 106.5 67.6999C101.806 67.6999 98 63.8944 98 59.2Z" fill="#1B3139"/>
<path fill-rule="evenodd" clip-rule="evenodd" d="M85.8 107.5C82.7625 107.5 80.3 109.962 80.3 113C80.3 116.038 82.7625 118.5 85.8 118.5C88.8376 118.5 91.3 116.038 91.3 113C91.3 109.962 88.8376 107.5 85.8 107.5ZM77.3 113C77.3 108.306 81.1056 104.5 85.8 104.5C90.4944 104.5 94.3 108.306 94.3 113C94.3 117.694 90.4944 121.5 85.8 121.5C81.1056 121.5 77.3 117.694 77.3 113Z" fill="#1B3139"/>
<path fill-rule="evenodd" clip-rule="evenodd" d="M72 80.2998H86.8V95.0998H72V80.2998ZM75 83.2998V92.0998H83.8V83.2998H75Z" fill="#1B3139"/>
<path fill-rule="evenodd" clip-rule="evenodd" d="M27.8 63.5H42.6V78.3H27.8V63.5ZM30.8 66.5V75.3H39.6V66.5H30.8Z" fill="#1B3139"/>
<path fill-rule="evenodd" clip-rule="evenodd" d="M75.0291 83.3201H60.2291V68.5201H75.0291V83.3201ZM72.0291 80.3201V71.5201H63.2291V80.3201H72.0291Z" fill="#1B3139"/>
<path fill-rule="evenodd" clip-rule="evenodd" d="M73.5 32.2029L78.5036 40.8578L83.4799 49.5999H63.3856L68.5032 40.846L73.5 32.2029ZM73.5 38.1969L71.095 42.3569L68.6145 46.5999H78.3202L75.8989 42.3463L73.5 38.1969Z" fill="#1B3139"/>
<path fill-rule="evenodd" clip-rule="evenodd" d="M103.383 74.4329L108.497 83.046L113.48 91.8H93.4202L98.4014 83.0492L103.383 74.4329ZM103.417 80.3671L101.001 84.5464L98.5798 88.8H108.32L105.903 84.554L103.417 80.3671Z" fill="#1B3139"/>
<path fill-rule="evenodd" clip-rule="evenodd" d="M53.4827 90.0981L58.5986 98.8491L63.5998 107.5H43.5002L48.4989 98.8534L53.4827 90.0981ZM53.5173 96.1016L51.0986 100.351L48.6998 104.5H58.4002L56.0033 100.354L53.5173 96.1016Z" fill="#1B3139"/>
<path fill-rule="evenodd" clip-rule="evenodd" d="M75 19.3999C44.293 19.3999 19.4 44.2929 19.4 74.9999C19.4 105.707 44.293 130.6 75 130.6C105.707 130.6 130.6 105.707 130.6 74.9999C130.6 44.2929 105.707 19.3999 75 19.3999ZM16.4 74.9999C16.4 42.636 42.6361 16.3999 75 16.3999C107.364 16.3999 133.6 42.636 133.6 74.9999C133.6 107.364 107.364 133.6 75 133.6C42.6361 133.6 16.4 107.364 16.4 74.9999Z" fill="#1B3139"/>
</g>
<defs>
<clipPath id="clip0_1_1989">
<rect width="150" height="150" fill="white"/>
</clipPath>
</defs>
</svg>
