<svg width="150" height="150" viewBox="0 0 150 150" fill="none" xmlns="http://www.w3.org/2000/svg">
<g clip-path="url(#clip0_1_2240)">
<path d="M31.75 38.55C34.4507 38.55 36.64 36.3607 36.64 33.66C36.64 30.9593 34.4507 28.77 31.75 28.77C29.0493 28.77 26.86 30.9593 26.86 33.66C26.86 36.3607 29.0493 38.55 31.75 38.55Z" stroke="#1B3139" stroke-width="3" stroke-miterlimit="3"/>
<path d="M48.49 38.55C51.1907 38.55 53.38 36.3607 53.38 33.66C53.38 30.9593 51.1907 28.77 48.49 28.77C45.7893 28.77 43.6 30.9593 43.6 33.66C43.6 36.3607 45.7893 38.55 48.49 38.55Z" stroke="#1B3139" stroke-width="3" stroke-miterlimit="3"/>
<path d="M31.75 79.8901C34.4507 79.8901 36.64 77.7008 36.64 75.0001C36.64 72.2994 34.4507 70.1101 31.75 70.1101C29.0493 70.1101 26.86 72.2994 26.86 75.0001C26.86 77.7008 29.0493 79.8901 31.75 79.8901Z" stroke="#1B3139" stroke-width="3" stroke-miterlimit="3"/>
<path d="M48.49 79.8901C51.1907 79.8901 53.38 77.7008 53.38 75.0001C53.38 72.2994 51.1907 70.1101 48.49 70.1101C45.7893 70.1101 43.6 72.2994 43.6 75.0001C43.6 77.7008 45.7893 79.8901 48.49 79.8901Z" stroke="#1B3139" stroke-width="3" stroke-miterlimit="3"/>
<path d="M31.75 121.23C34.4507 121.23 36.64 119.041 36.64 116.34C36.64 113.639 34.4507 111.45 31.75 111.45C29.0493 111.45 26.86 113.639 26.86 116.34C26.86 119.041 29.0493 121.23 31.75 121.23Z" stroke="#1B3139" stroke-width="3" stroke-miterlimit="3"/>
<path d="M48.49 121.23C51.1907 121.23 53.38 119.041 53.38 116.34C53.38 113.639 51.1907 111.45 48.49 111.45C45.7893 111.45 43.6 113.639 43.6 116.34C43.6 119.041 45.7893 121.23 48.49 121.23Z" stroke="#1B3139" stroke-width="3" stroke-miterlimit="3"/>
<path d="M123.14 33.6599H75" stroke="#1B3139" stroke-width="3" stroke-miterlimit="3"/>
<path d="M22.67 91.5601C18.8 91.5601 15.67 88.4301 15.67 84.5601V65.4401C15.67 61.5701 18.8 58.4401 22.67 58.4401H70.89C73.16 58.4401 75 56.6001 75 54.3301C75 52.0601 76.84 50.2201 79.11 50.2201H127.33C131.2 50.2201 134.33 47.0901 134.33 43.2201V24.1001C134.33 20.2301 131.2 17.1001 127.33 17.1001H22.67C18.8 17.1001 15.67 20.2301 15.67 24.1001V43.2201C15.67 47.0901 18.8 50.2201 22.67 50.2201H66.5" stroke="#1B3139" stroke-width="3" stroke-miterlimit="3"/>
<path d="M127.33 58.4399C131.2 58.4399 134.33 61.5699 134.33 65.4399V84.5599C134.33 88.4299 131.2 91.5599 127.33 91.5599" stroke="#1B3139" stroke-width="3" stroke-miterlimit="3"/>
<path d="M123.14 75H75" stroke="#1B3139" stroke-width="3" stroke-miterlimit="3"/>
<path d="M127.33 99.78C131.2 99.78 134.33 102.91 134.33 106.78V125.9C134.33 129.77 131.2 132.9 127.33 132.9H22.67C18.8 132.9 15.67 129.77 15.67 125.9V106.78C15.67 102.91 18.8 99.78 22.67 99.78" stroke="#1B3139" stroke-width="3" stroke-miterlimit="3"/>
<path d="M123.14 116.34H75" stroke="#1B3139" stroke-width="3" stroke-miterlimit="3"/>
<path d="M83.5 58.4399H127.33" stroke="#1B3139" stroke-width="3" stroke-miterlimit="3"/>
<path d="M127.33 99.7801H79.11C76.84 99.7801 75 97.9401 75 95.6701C75 93.4001 73.16 91.5601 70.89 91.5601H22.67" stroke="#1B3139" stroke-width="3" stroke-miterlimit="3"/>
<path d="M83.5 91.5601H127.33" stroke="#1B3139" stroke-width="3" stroke-miterlimit="3"/>
<path d="M66.5 99.78H22.67" stroke="#1B3139" stroke-width="3" stroke-miterlimit="3"/>
</g>
<defs>
<clipPath id="clip0_1_2240">
<rect width="150" height="150" fill="white"/>
</clipPath>
</defs>
</svg>
