<svg width="150" height="150" viewBox="0 0 150 150" fill="none" xmlns="http://www.w3.org/2000/svg">
<path d="M42.07 32.35C40.8645 31.1444 39.3286 30.3233 37.6564 29.9906C35.9843 29.658 34.2511 29.8286 32.6759 30.481C31.1008 31.1334 29.7545 32.2383 28.8073 33.6559C27.8601 35.0734 27.3545 36.74 27.3545 38.445C27.3545 40.1499 27.8601 41.8165 28.8073 43.234C29.7545 44.6516 31.1008 45.7565 32.6759 46.4089C34.2511 47.0613 35.9843 47.2319 37.6564 46.8993C39.3286 46.5666 40.8645 45.7456 42.07 44.54C43.684 42.9221 44.5904 40.7302 44.5904 38.445C44.5904 36.1597 43.684 33.9678 42.07 32.35ZM40 42.42C39.2111 43.1985 38.2096 43.7264 37.1215 43.9373C36.0334 44.1482 34.9072 44.0326 33.8846 43.6051C32.8619 43.1775 31.9886 42.4572 31.3743 41.5346C30.76 40.612 30.4323 39.5283 30.4323 38.42C30.4323 37.3116 30.76 36.2279 31.3743 35.3053C31.9886 34.3827 32.8619 33.6624 33.8846 33.2349C34.9072 32.8073 36.0334 32.6917 37.1215 32.9026C38.2096 33.1135 39.2111 33.6414 40 34.42C40.5297 34.9427 40.9503 35.5655 41.2374 36.2522C41.5245 36.9389 41.6723 37.6757 41.6723 38.42C41.6723 39.1642 41.5245 39.901 41.2374 40.5877C40.9503 41.2744 40.5297 41.8972 40 42.42V42.42Z" fill="white"/>
<path d="M124.93 37.31C126.371 38.7636 128.26 39.6901 130.292 39.9402C132.323 40.1904 134.38 39.7497 136.131 38.6892C137.882 37.6286 139.225 36.0098 139.944 34.0933C140.664 32.1768 140.717 30.074 140.097 28.1233C139.476 26.1727 138.217 24.4875 136.523 23.339C134.828 22.1906 132.796 21.6456 130.755 21.7919C128.713 21.9381 126.779 22.767 125.266 24.1452C123.752 25.5234 122.746 27.3708 122.41 29.39H104.47L80.06 53.8L82.18 55.92L105.71 32.39H122.41C122.718 34.2521 123.599 35.9718 124.93 37.31V37.31ZM127.06 26.59C127.91 25.74 128.994 25.1611 130.173 24.9267C131.352 24.6923 132.575 24.8128 133.686 25.2731C134.796 25.7333 135.746 26.5126 136.414 27.5124C137.082 28.5122 137.438 29.6876 137.438 30.89C137.438 32.0924 137.082 33.2679 136.414 34.2677C135.746 35.2675 134.796 36.0468 133.686 36.507C132.575 36.9673 131.352 37.0878 130.173 36.8534C128.994 36.619 127.91 36.0401 127.06 35.19C126.493 34.6268 126.043 33.9568 125.735 33.2189C125.428 32.4809 125.27 31.6894 125.27 30.89C125.27 30.0907 125.428 29.2992 125.735 28.5612C126.043 27.8232 126.493 27.1533 127.06 26.59Z" fill="white"/>
<path d="M124.93 49.74C123.6 51.0748 122.719 52.7911 122.41 54.65H112.47L96.69 70.43L98.81 72.55L113.71 57.65H122.41C122.748 59.6559 123.75 61.4899 125.256 62.8574C126.762 64.2249 128.684 65.0465 130.713 65.1903C132.742 65.3341 134.76 64.7917 136.444 63.6502C138.127 62.5087 139.379 60.8343 139.996 58.8962C140.613 56.9581 140.561 54.8687 139.848 52.9637C139.135 51.0586 137.803 49.4486 136.064 48.3921C134.326 47.3357 132.283 46.8943 130.264 47.1387C128.245 47.3832 126.366 48.2994 124.93 49.74V49.74ZM135.65 60.45C134.8 61.3015 133.717 61.8818 132.537 62.1173C131.357 62.3529 130.134 62.2332 129.023 61.7734C127.911 61.3135 126.961 60.5342 126.292 59.5341C125.623 58.534 125.267 57.3581 125.267 56.155C125.267 54.952 125.623 53.776 126.292 52.7759C126.961 51.7758 127.911 50.9965 129.023 50.5367C130.134 50.0769 131.357 49.9572 132.537 50.1927C133.717 50.4283 134.8 51.0085 135.65 51.86C136.788 52.9999 137.427 54.5446 137.427 56.155C137.427 57.7655 136.788 59.3102 135.65 60.45Z" fill="white"/>
<path d="M58.6516 43.3405L40.882 61.1101L43.0034 63.2314L60.773 45.4618L58.6516 43.3405Z" fill="white"/>
<path d="M83.55 66.47L73.67 56.6C75.8442 50.0264 75.737 42.9115 73.3658 36.4064C70.9946 29.9013 66.498 24.3864 60.6036 20.7539C54.7091 17.1215 47.7615 15.5839 40.8848 16.39C34.008 17.1961 27.6044 20.2987 22.7097 25.1958C17.8151 30.0929 14.7158 36.4982 13.9133 43.3753C13.1107 50.2525 14.6518 57.1993 18.2873 63.0919C21.9227 68.9845 27.4399 73.4782 33.9463 75.8461C40.4526 78.214 47.5675 78.3175 54.14 76.14L63.21 85.21L69.56 86.01L74.08 90.54V96.08L81.6 103.6L84.37 100.83L88.37 104.83V110.38L95.03 117.04H100.58L105.52 122.04H121.63L65.43 65.77L63.31 67.89L114.43 119H106.81L101.81 114H96.31L91.41 109.1V103.55L84.41 96.55L81.6 99.36L77.08 94.84V89.29L71 83.17L64.65 82.36L54.95 72.67L54 73C48.0568 75.1729 41.5499 75.2517 35.5559 73.2232C29.5618 71.1948 24.4399 67.1808 21.0377 61.8453C17.6354 56.5098 16.1567 50.1726 16.8461 43.8823C17.5356 37.5921 20.352 31.7257 24.8292 27.2538C29.3064 22.782 35.1762 19.9728 41.4673 19.2909C47.7585 18.609 54.0938 20.0954 59.4252 23.5042C64.7566 26.9129 68.7644 32.0396 70.7856 38.0361C72.8068 44.0326 72.7201 50.5394 70.54 56.48L70.21 57.38L80.7 67.86L81.5 74.23L126.06 118.78L128.18 116.66L84.35 72.83L83.55 66.47Z" fill="white"/>
<path d="M107.527 43.4141L88.598 62.3434L90.7193 64.4647L109.649 45.5355L107.527 43.4141Z" fill="white"/>
<path d="M25.07 131.18C26.409 129.846 27.2941 128.125 27.6 126.26H45.54L70 101.85L67.88 99.73L44.29 123.26H27.6C27.2621 121.255 26.2602 119.421 24.7551 118.054C23.25 116.686 21.3291 115.864 19.3007 115.72C17.2724 115.575 15.2543 116.117 13.5705 117.257C11.8868 118.397 10.635 120.07 10.0162 122.007C9.39741 123.944 9.44752 126.033 10.1585 127.938C10.8694 129.843 12.2 131.454 13.9365 132.512C15.673 133.57 17.7147 134.014 19.7338 133.773C21.7529 133.531 23.6322 132.618 25.07 131.18ZM12.57 124.76C12.5704 123.353 13.0584 121.99 13.9511 120.903C14.8437 119.816 16.0856 119.072 17.4653 118.798C18.8449 118.524 20.277 118.737 21.5173 119.4C22.7577 120.064 23.7297 121.136 24.2677 122.436C24.8057 123.736 24.8764 125.182 24.4678 126.528C24.0592 127.874 23.1966 129.036 22.0268 129.818C20.8571 130.599 19.4527 130.95 18.0529 130.812C16.6531 130.674 15.3445 130.055 14.35 129.06C13.7819 128.498 13.3318 127.828 13.0261 127.09C12.7204 126.351 12.5654 125.559 12.57 124.76V124.76Z" fill="white"/>
<path d="M18.65 108.57C20.806 108.587 22.8972 107.834 24.5472 106.446C26.1972 105.058 27.2975 103.127 27.65 101H37.59L53.32 85.22L51.2 83.1L36.29 98H27.6C27.3237 96.3564 26.6003 94.8205 25.5092 93.5607C24.418 92.3009 23.0012 91.3657 21.4138 90.8576C19.8265 90.3495 18.13 90.2881 16.5101 90.6801C14.8902 91.0721 13.4094 91.9024 12.23 93.08C10.9589 94.3485 10.0929 95.9658 9.74189 97.7269C9.39084 99.488 9.57048 101.314 10.258 102.973C10.9456 104.632 12.1102 106.049 13.6041 107.046C15.0981 108.042 16.8542 108.573 18.65 108.57V108.57ZM14.35 95.2C15.2004 94.3499 16.2837 93.7711 17.4631 93.5366C18.6424 93.3022 19.8648 93.4228 20.9756 93.883C22.0865 94.3432 23.0359 95.1225 23.7039 96.1223C24.3719 97.1221 24.7284 98.2976 24.7284 99.5C24.7284 100.702 24.3719 101.878 23.7039 102.878C23.0359 103.877 22.0865 104.657 20.9756 105.117C19.8648 105.577 18.6424 105.698 17.4631 105.463C16.2837 105.229 15.2004 104.65 14.35 103.8C13.2142 102.657 12.5767 101.111 12.5767 99.5C12.5767 97.8887 13.2142 96.3428 14.35 95.2V95.2Z" fill="white"/>
<path d="M59.2849 91.1834L40.3557 110.113L42.477 112.234L61.4062 93.3047L59.2849 91.1834Z" fill="white"/>
<path d="M114.173 68.9909L104.712 78.452L106.833 80.5733L116.294 71.1123L114.173 68.9909Z" fill="white"/>
<path d="M75.3832 107.295L65.9221 116.756L68.0434 118.877L77.5045 109.416L75.3832 107.295Z" fill="white"/>
</svg>
