<svg width="713" height="200" viewBox="0 0 713 200" fill="none" xmlns="http://www.w3.org/2000/svg">
<path d="M100 119.513C88.875 115.609 76.111 113.379 62.5 113.379C48.889 113.379 36.1388 115.609 25 119.513V79.6436H175V119.513C163.861 123.259 151.111 125.399 137.5 125.399C124.314 125.399 111.924 123.391 101.048 119.859L100 119.513Z" fill="#FABFBA"/>
<path d="M62.6758 128.042C75.7994 128.042 88.1324 129.947 98.957 133.298L101.043 133.956C111.868 137.306 124.2 139.212 137.324 139.212C150.448 139.212 162.767 137.306 173.604 133.956L174.647 133.627H175V175H25V133.627H25.3525C36.4389 130.073 49.1289 128.042 62.6758 128.042Z" fill="#FF5F46"/>
<rect x="25" y="25" width="150" height="41.3728" fill="#FABFBA"/>
<path d="M239.838 137.5V60.22H253.086V127.122H287.531V137.5H239.838ZM315.223 138.825C310.659 138.825 306.869 138.052 303.851 136.506C300.834 134.961 298.589 132.9 297.117 130.324C295.645 127.748 294.909 124.951 294.909 121.934C294.909 118.401 295.792 115.346 297.559 112.77C299.399 110.194 302.085 108.207 305.618 106.809C309.151 105.337 313.493 104.601 318.645 104.601H332.666C332.666 101.657 332.261 99.228 331.451 97.3144C330.642 95.3272 329.391 93.8552 327.698 92.8984C326.005 91.9416 323.834 91.4632 321.184 91.4632C318.167 91.4632 315.591 92.1624 313.456 93.5608C311.322 94.8856 309.997 96.9464 309.482 99.7432H296.455C296.896 95.7688 298.221 92.3832 300.429 89.5864C302.637 86.716 305.544 84.508 309.151 82.9624C312.831 81.3432 316.842 80.5336 321.184 80.5336C326.41 80.5336 330.863 81.4536 334.543 83.2936C338.223 85.06 341.019 87.636 342.933 91.0216C344.92 94.3336 345.914 98.3448 345.914 103.055V137.5H334.653L333.328 128.558C332.592 130.03 331.635 131.391 330.458 132.642C329.354 133.894 328.066 134.998 326.594 135.954C325.122 136.838 323.429 137.537 321.515 138.052C319.675 138.567 317.578 138.825 315.223 138.825ZM318.203 128.337C320.338 128.337 322.215 127.969 323.834 127.233C325.527 126.423 326.962 125.319 328.139 123.921C329.391 122.449 330.347 120.83 331.01 119.063C331.672 117.297 332.114 115.42 332.335 113.433V113.212H320.08C317.504 113.212 315.37 113.543 313.677 114.206C311.984 114.794 310.77 115.678 310.034 116.855C309.298 118.033 308.93 119.394 308.93 120.94C308.93 122.486 309.298 123.81 310.034 124.914C310.77 126.018 311.837 126.865 313.235 127.454C314.634 128.042 316.29 128.337 318.203 128.337ZM392.637 137.5L368.018 107.03L390.098 81.8584H405.885L378.396 112.439V102.172L409.197 137.5H392.637ZM356.757 137.5V58.012H370.005V137.5H356.757ZM436.425 138.825C430.905 138.825 426.047 137.647 421.852 135.292C417.657 132.863 414.381 129.478 412.026 125.135C409.671 120.793 408.493 115.788 408.493 110.121C408.493 104.233 409.634 99.0808 411.916 94.6648C414.271 90.2488 417.546 86.7896 421.741 84.2872C426.01 81.7848 430.941 80.5336 436.535 80.5336C441.981 80.5336 446.729 81.748 450.777 84.1768C454.825 86.6056 457.953 89.8808 460.161 94.0024C462.369 98.0504 463.473 102.614 463.473 107.692C463.473 108.428 463.473 109.238 463.473 110.121C463.473 111.004 463.399 111.924 463.252 112.881H417.988V104.38H450.114C449.967 100.332 448.605 97.1672 446.029 94.8856C443.453 92.5304 440.252 91.3528 436.425 91.3528C433.701 91.3528 431.199 91.9784 428.917 93.2296C426.636 94.4808 424.833 96.3576 423.508 98.86C422.183 101.289 421.521 104.38 421.521 108.134V111.335C421.521 114.794 422.146 117.775 423.397 120.278C424.722 122.78 426.489 124.694 428.697 126.018C430.978 127.27 433.517 127.895 436.314 127.895C439.405 127.895 441.945 127.233 443.932 125.908C445.993 124.583 447.501 122.817 448.458 120.609H461.927C460.897 124.068 459.204 127.196 456.849 129.993C454.493 132.716 451.586 134.887 448.127 136.506C444.668 138.052 440.767 138.825 436.425 138.825ZM504.188 138.825C501.244 138.825 498.594 138.42 496.239 137.61C493.884 136.874 491.823 135.844 490.057 134.519C488.29 133.121 486.818 131.538 485.641 129.772L484.205 137.5H472.393V58.012H485.641V90.028C487.407 87.3048 489.799 85.06 492.817 83.2936C495.834 81.4536 499.588 80.5336 504.077 80.5336C509.303 80.5336 513.903 81.8216 517.877 84.3976C521.925 86.9 525.09 90.3592 527.372 94.7752C529.727 99.1176 530.905 104.122 530.905 109.79C530.905 115.31 529.764 120.278 527.482 124.694C525.201 129.11 522.036 132.569 517.988 135.071C514.013 137.574 509.413 138.825 504.188 138.825ZM501.428 127.343C504.519 127.343 507.279 126.607 509.708 125.135C512.137 123.59 514.013 121.529 515.338 118.953C516.737 116.303 517.436 113.212 517.436 109.679C517.436 106.22 516.737 103.166 515.338 100.516C514.013 97.8664 512.137 95.8056 509.708 94.3336C507.279 92.8616 504.519 92.1256 501.428 92.1256C498.263 92.1256 495.466 92.8616 493.037 94.3336C490.682 95.8056 488.805 97.8664 487.407 100.516C486.082 103.166 485.42 106.22 485.42 109.679C485.42 113.212 486.082 116.303 487.407 118.953C488.805 121.529 490.682 123.59 493.037 125.135C495.466 126.607 498.263 127.343 501.428 127.343ZM559 138.825C554.436 138.825 550.646 138.052 547.628 136.506C544.611 134.961 542.366 132.9 540.894 130.324C539.422 127.748 538.686 124.951 538.686 121.934C538.686 118.401 539.569 115.346 541.336 112.77C543.176 110.194 545.862 108.207 549.395 106.809C552.928 105.337 557.27 104.601 562.422 104.601H576.443C576.443 101.657 576.038 99.228 575.228 97.3144C574.419 95.3272 573.168 93.8552 571.475 92.8984C569.782 91.9416 567.611 91.4632 564.961 91.4632C561.944 91.4632 559.368 92.1624 557.233 93.5608C555.099 94.8856 553.774 96.9464 553.259 99.7432H540.232C540.673 95.7688 541.998 92.3832 544.206 89.5864C546.414 86.716 549.321 84.508 552.928 82.9624C556.608 81.3432 560.619 80.5336 564.961 80.5336C570.187 80.5336 574.64 81.4536 578.32 83.2936C582 85.06 584.796 87.636 586.71 91.0216C588.697 94.3336 589.691 98.3448 589.691 103.055V137.5H578.43L577.105 128.558C576.369 130.03 575.412 131.391 574.235 132.642C573.131 133.894 571.843 134.998 570.371 135.954C568.899 136.838 567.206 137.537 565.292 138.052C563.452 138.567 561.355 138.825 559 138.825ZM561.98 128.337C564.115 128.337 565.992 127.969 567.611 127.233C569.304 126.423 570.739 125.319 571.916 123.921C573.168 122.449 574.124 120.83 574.787 119.063C575.449 117.297 575.891 115.42 576.112 113.433V113.212H563.857C561.281 113.212 559.147 113.543 557.454 114.206C555.761 114.794 554.547 115.678 553.811 116.855C553.075 118.033 552.707 119.394 552.707 120.94C552.707 122.486 553.075 123.81 553.811 124.914C554.547 126.018 555.614 126.865 557.012 127.454C558.411 128.042 560.067 128.337 561.98 128.337ZM622.725 138.825C617.793 138.825 613.488 138.052 609.808 136.506C606.201 134.887 603.331 132.679 601.197 129.882C599.136 127.012 597.921 123.737 597.553 120.057H610.801C611.169 121.602 611.832 123.038 612.789 124.362C613.745 125.614 615.033 126.607 616.653 127.343C618.345 128.079 620.333 128.447 622.614 128.447C624.822 128.447 626.625 128.153 628.024 127.564C629.422 126.902 630.453 126.055 631.115 125.025C631.777 123.994 632.109 122.89 632.109 121.713C632.109 119.946 631.63 118.585 630.673 117.628C629.717 116.671 628.318 115.935 626.478 115.42C624.712 114.831 622.577 114.279 620.075 113.764C617.425 113.249 614.849 112.623 612.347 111.887C609.918 111.078 607.71 110.084 605.723 108.906C603.809 107.729 602.264 106.22 601.086 104.38C599.982 102.54 599.43 100.295 599.43 97.6456C599.43 94.4072 600.277 91.5 601.969 88.924C603.736 86.348 606.238 84.324 609.477 82.852C612.789 81.3064 616.726 80.5336 621.289 80.5336C627.766 80.5336 632.918 82.0424 636.745 85.06C640.646 88.004 642.928 92.1624 643.59 97.5352H631.005C630.637 95.4744 629.606 93.892 627.913 92.788C626.221 91.6104 623.976 91.0216 621.179 91.0216C618.309 91.0216 616.101 91.5736 614.555 92.6776C613.083 93.708 612.347 95.1064 612.347 96.8728C612.347 97.9768 612.789 99.0072 613.672 99.964C614.629 100.847 615.99 101.62 617.757 102.282C619.523 102.871 621.694 103.46 624.27 104.049C628.392 104.858 632.035 105.815 635.2 106.919C638.365 108.023 640.867 109.642 642.707 111.777C644.547 113.911 645.467 116.929 645.467 120.83C645.541 124.362 644.621 127.49 642.707 130.214C640.867 132.937 638.254 135.071 634.869 136.617C631.483 138.089 627.435 138.825 622.725 138.825ZM681.064 138.825C675.544 138.825 670.686 137.647 666.491 135.292C662.296 132.863 659.021 129.478 656.666 125.135C654.31 120.793 653.133 115.788 653.133 110.121C653.133 104.233 654.274 99.0808 656.555 94.6648C658.91 90.2488 662.186 86.7896 666.381 84.2872C670.65 81.7848 675.581 80.5336 681.174 80.5336C686.621 80.5336 691.368 81.748 695.416 84.1768C699.464 86.6056 702.592 89.8808 704.8 94.0024C707.008 98.0504 708.112 102.614 708.112 107.692C708.112 108.428 708.112 109.238 708.112 110.121C708.112 111.004 708.038 111.924 707.891 112.881H662.627V104.38H694.754C694.606 100.332 693.245 97.1672 690.669 94.8856C688.093 92.5304 684.891 91.3528 681.064 91.3528C678.341 91.3528 675.838 91.9784 673.557 93.2296C671.275 94.4808 669.472 96.3576 668.147 98.86C666.822 101.289 666.16 104.38 666.16 108.134V111.335C666.16 114.794 666.786 117.775 668.037 120.278C669.362 122.78 671.128 124.694 673.336 126.018C675.618 127.27 678.157 127.895 680.954 127.895C684.045 127.895 686.584 127.233 688.571 125.908C690.632 124.583 692.141 122.817 693.098 120.609H706.566C705.536 124.068 703.843 127.196 701.488 129.993C699.133 132.716 696.226 134.887 692.766 136.506C689.307 138.052 685.406 138.825 681.064 138.825Z" fill="#1B3139"/>
</svg>
