<svg width="945" height="200" viewBox="0 0 945 200" fill="none" xmlns="http://www.w3.org/2000/svg">
<path d="M86.0967 156.774L141.713 100.485L86.0967 44.1964L86.0967 21.875L117.024 21.875L117.024 53.3375L122.807 55.7779L144.645 33.5304L166.684 55.9846L144.846 78.2321L147.242 84.1233H178.126V115.877H147.242L144.846 121.768L166.684 144.015L144.645 166.47L122.806 144.222L117.024 146.663L117.024 178.125H86.0967L86.0967 156.774Z" fill="#618794"/>
<path d="M61.1655 39.4468V39.3445L120.617 100.001L61.1655 160.657V160.549L55.3559 166.468L33.3162 144.014L55.1546 121.767L52.7583 115.875H21.875V84.1219H52.7583L55.1546 78.2307L33.3162 55.9832L55.3559 33.5291L61.1655 39.4468Z" fill="#C4CCD6"/>
<path d="M239.838 137.5V60.22H253.086V127.122H287.531V137.5H239.838ZM315.223 138.825C310.659 138.825 306.869 138.052 303.851 136.506C300.834 134.961 298.589 132.9 297.117 130.324C295.645 127.748 294.909 124.951 294.909 121.934C294.909 118.401 295.792 115.346 297.559 112.77C299.399 110.194 302.085 108.207 305.618 106.809C309.151 105.337 313.493 104.601 318.645 104.601H332.666C332.666 101.657 332.261 99.228 331.451 97.3144C330.642 95.3272 329.391 93.8552 327.698 92.8984C326.005 91.9416 323.834 91.4632 321.184 91.4632C318.167 91.4632 315.591 92.1624 313.456 93.5608C311.322 94.8856 309.997 96.9464 309.482 99.7432H296.455C296.896 95.7688 298.221 92.3832 300.429 89.5864C302.637 86.716 305.544 84.508 309.151 82.9624C312.831 81.3432 316.842 80.5336 321.184 80.5336C326.41 80.5336 330.863 81.4536 334.543 83.2936C338.223 85.06 341.019 87.636 342.933 91.0216C344.92 94.3336 345.914 98.3448 345.914 103.055V137.5H334.653L333.328 128.558C332.592 130.03 331.635 131.391 330.458 132.642C329.354 133.894 328.066 134.998 326.594 135.954C325.122 136.838 323.429 137.537 321.515 138.052C319.675 138.567 317.578 138.825 315.223 138.825ZM318.203 128.337C320.338 128.337 322.215 127.969 323.834 127.233C325.527 126.423 326.962 125.319 328.139 123.921C329.391 122.449 330.347 120.83 331.01 119.063C331.672 117.297 332.114 115.42 332.335 113.433V113.212H320.08C317.504 113.212 315.37 113.543 313.677 114.206C311.984 114.794 310.77 115.678 310.034 116.855C309.298 118.033 308.93 119.394 308.93 120.94C308.93 122.486 309.298 123.81 310.034 124.914C310.77 126.018 311.837 126.865 313.235 127.454C314.634 128.042 316.29 128.337 318.203 128.337ZM392.637 137.5L368.018 107.03L390.098 81.8584H405.885L378.396 112.439V102.172L409.197 137.5H392.637ZM356.757 137.5V58.012H370.005V137.5H356.757ZM436.425 138.825C430.905 138.825 426.047 137.647 421.852 135.292C417.657 132.863 414.381 129.478 412.026 125.135C409.671 120.793 408.493 115.788 408.493 110.121C408.493 104.233 409.634 99.0808 411.916 94.6648C414.271 90.2488 417.546 86.7896 421.741 84.2872C426.01 81.7848 430.941 80.5336 436.535 80.5336C441.981 80.5336 446.729 81.748 450.777 84.1768C454.825 86.6056 457.953 89.8808 460.161 94.0024C462.369 98.0504 463.473 102.614 463.473 107.692C463.473 108.428 463.473 109.238 463.473 110.121C463.473 111.004 463.399 111.924 463.252 112.881H417.988V104.38H450.114C449.967 100.332 448.605 97.1672 446.029 94.8856C443.453 92.5304 440.252 91.3528 436.425 91.3528C433.701 91.3528 431.199 91.9784 428.917 93.2296C426.636 94.4808 424.833 96.3576 423.508 98.86C422.183 101.289 421.521 104.38 421.521 108.134V111.335C421.521 114.794 422.146 117.775 423.397 120.278C424.722 122.78 426.489 124.694 428.697 126.018C430.978 127.27 433.517 127.895 436.314 127.895C439.405 127.895 441.945 127.233 443.932 125.908C445.993 124.583 447.501 122.817 448.458 120.609H461.927C460.897 124.068 459.204 127.196 456.849 129.993C454.493 132.716 451.586 134.887 448.127 136.506C444.668 138.052 440.767 138.825 436.425 138.825ZM475.153 137.5V75.7864C475.153 71.5176 475.852 68.0952 477.25 65.5192C478.722 62.8696 480.82 60.956 483.543 59.7784C486.266 58.6008 489.505 58.012 493.258 58.012H499.882V69.2728H495.245C492.817 69.2728 491.05 69.788 489.946 70.8184C488.916 71.7752 488.401 73.468 488.401 75.8968V137.5H475.153ZM467.204 93.0088V81.8584H500.986V93.0088H467.204ZM512.357 137.5V58.012H525.605V137.5H512.357ZM563.054 138.825C557.755 138.825 552.971 137.61 548.702 135.182C544.507 132.679 541.195 129.257 538.766 124.914C536.411 120.498 535.233 115.457 535.233 109.79C535.233 103.975 536.448 98.8968 538.877 94.5544C541.305 90.1384 544.617 86.716 548.813 84.2872C553.081 81.7848 557.865 80.5336 563.165 80.5336C568.464 80.5336 573.211 81.7848 577.406 84.2872C581.675 86.716 584.987 90.1016 587.342 94.444C589.771 98.7864 590.985 103.865 590.985 109.679C590.985 115.494 589.771 120.572 587.342 124.914C584.913 129.257 581.565 132.679 577.296 135.182C573.101 137.61 568.353 138.825 563.054 138.825ZM563.054 127.454C565.704 127.454 568.096 126.791 570.23 125.466C572.438 124.142 574.205 122.154 575.529 119.505C576.854 116.855 577.517 113.58 577.517 109.679C577.517 105.778 576.854 102.54 575.529 99.964C574.278 97.3144 572.549 95.3272 570.341 94.0024C568.206 92.6776 565.814 92.0152 563.165 92.0152C560.589 92.0152 558.197 92.6776 555.989 94.0024C553.781 95.3272 552.014 97.3144 550.689 99.964C549.365 102.54 548.702 105.778 548.702 109.679C548.702 113.58 549.365 116.855 550.689 119.505C552.014 122.154 553.744 124.142 555.878 125.466C558.086 126.791 560.478 127.454 563.054 127.454ZM609.741 137.5L593.402 81.8584H606.54L617.911 127.564L615.482 127.454L628.178 81.8584H642.972L655.778 127.454H653.349L664.721 81.8584H677.858L661.519 137.5H647.829L634.25 90.3592H637.01L623.431 137.5H609.741ZM727.745 138.825C722.814 138.825 718.508 137.905 714.828 136.065C711.222 134.151 708.425 131.428 706.438 127.895C704.451 124.289 703.457 119.946 703.457 114.868H716.705C716.705 117.297 717.073 119.431 717.809 121.271C718.545 123.111 719.686 124.546 721.232 125.577C722.851 126.534 724.912 127.012 727.414 127.012C729.916 127.012 731.904 126.534 733.376 125.577C734.848 124.62 735.915 123.295 736.577 121.602C737.313 119.836 737.681 117.812 737.681 115.53V60.22H750.929V115.53C750.929 123.038 748.832 128.815 744.636 132.863C740.515 136.838 734.884 138.825 727.745 138.825ZM788.719 138.825C783.42 138.825 778.636 137.61 774.367 135.182C770.172 132.679 766.86 129.257 764.431 124.914C762.076 120.498 760.898 115.457 760.898 109.79C760.898 103.975 762.112 98.8968 764.541 94.5544C766.97 90.1384 770.282 86.716 774.477 84.2872C778.746 81.7848 783.53 80.5336 788.829 80.5336C794.128 80.5336 798.876 81.7848 803.071 84.2872C807.34 86.716 810.652 90.1016 813.007 94.444C815.436 98.7864 816.65 103.865 816.65 109.679C816.65 115.494 815.436 120.572 813.007 124.914C810.578 129.257 807.229 132.679 802.96 135.182C798.765 137.61 794.018 138.825 788.719 138.825ZM788.719 127.454C791.368 127.454 793.76 126.791 795.895 125.466C798.103 124.142 799.869 122.154 801.194 119.505C802.519 116.855 803.181 113.58 803.181 109.679C803.181 105.778 802.519 102.54 801.194 99.964C799.943 97.3144 798.213 95.3272 796.005 94.0024C793.871 92.6776 791.479 92.0152 788.829 92.0152C786.253 92.0152 783.861 92.6776 781.653 94.0024C779.445 95.3272 777.679 97.3144 776.354 99.964C775.029 102.54 774.367 105.778 774.367 109.679C774.367 113.58 775.029 116.855 776.354 119.505C777.679 122.154 779.408 124.142 781.543 125.466C783.751 126.791 786.143 127.454 788.719 127.454ZM858.102 138.825C855.158 138.825 852.508 138.42 850.153 137.61C847.798 136.874 845.737 135.844 843.97 134.519C842.204 133.121 840.732 131.538 839.554 129.772L838.119 137.5H826.306V58.012H839.554V90.028C841.321 87.3048 843.713 85.06 846.73 83.2936C849.748 81.4536 853.502 80.5336 857.991 80.5336C863.217 80.5336 867.817 81.8216 871.791 84.3976C875.839 86.9 879.004 90.3592 881.286 94.7752C883.641 99.1176 884.818 104.122 884.818 109.79C884.818 115.31 883.678 120.278 881.396 124.694C879.114 129.11 875.95 132.569 871.902 135.071C867.927 137.574 863.327 138.825 858.102 138.825ZM855.342 127.343C858.433 127.343 861.193 126.607 863.622 125.135C866.05 123.59 867.927 121.529 869.252 118.953C870.65 116.303 871.35 113.212 871.35 109.679C871.35 106.22 870.65 103.166 869.252 100.516C867.927 97.8664 866.05 95.8056 863.622 94.3336C861.193 92.8616 858.433 92.1256 855.342 92.1256C852.177 92.1256 849.38 92.8616 846.951 94.3336C844.596 95.8056 842.719 97.8664 841.321 100.516C839.996 103.166 839.334 106.22 839.334 109.679C839.334 113.212 839.996 116.303 841.321 118.953C842.719 121.529 844.596 123.59 846.951 125.135C849.38 126.607 852.177 127.343 855.342 127.343ZM916.557 138.825C911.626 138.825 907.32 138.052 903.64 136.506C900.034 134.887 897.163 132.679 895.029 129.882C892.968 127.012 891.754 123.737 891.386 120.057H904.634C905.002 121.602 905.664 123.038 906.621 124.362C907.578 125.614 908.866 126.607 910.485 127.343C912.178 128.079 914.165 128.447 916.446 128.447C918.654 128.447 920.458 128.153 921.856 127.564C923.254 126.902 924.285 126.055 924.947 125.025C925.61 123.994 925.941 122.89 925.941 121.713C925.941 119.946 925.462 118.585 924.506 117.628C923.549 116.671 922.15 115.935 920.31 115.42C918.544 114.831 916.41 114.279 913.907 113.764C911.258 113.249 908.682 112.623 906.179 111.887C903.75 111.078 901.542 110.084 899.555 108.906C897.642 107.729 896.096 106.22 894.918 104.38C893.814 102.54 893.262 100.295 893.262 97.6456C893.262 94.4072 894.109 91.5 895.802 88.924C897.568 86.348 900.07 84.324 903.309 82.852C906.621 81.3064 910.558 80.5336 915.122 80.5336C921.598 80.5336 926.75 82.0424 930.578 85.06C934.478 88.004 936.76 92.1624 937.422 97.5352H924.837C924.469 95.4744 923.438 93.892 921.746 92.788C920.053 91.6104 917.808 91.0216 915.011 91.0216C912.141 91.0216 909.933 91.5736 908.387 92.6776C906.915 93.708 906.179 95.1064 906.179 96.8728C906.179 97.9768 906.621 99.0072 907.504 99.964C908.461 100.847 909.822 101.62 911.589 102.282C913.355 102.871 915.526 103.46 918.102 104.049C922.224 104.858 925.867 105.815 929.032 106.919C932.197 108.023 934.699 109.642 936.539 111.777C938.379 113.911 939.299 116.929 939.299 120.83C939.373 124.362 938.453 127.49 936.539 130.214C934.699 132.937 932.086 135.071 928.701 136.617C925.315 138.089 921.267 138.825 916.557 138.825Z" fill="#1B3139"/>
</svg>
