<svg width="136" height="136" viewBox="0 0 136 136" fill="none" xmlns="http://www.w3.org/2000/svg">
<rect width="136" height="136" fill="#7D5319"/>
<circle cx="68" cy="68" r="47" fill="#FCBA33"/>
<path d="M21 68C21 93.9574 42.0426 115 68 115V21C42.0426 21 21 42.0426 21 68Z" fill="#FFCC66"/>
<path d="M68.1481 24.2963C69.8868 24.2963 71.2963 22.8868 71.2963 21.1481C71.2963 19.4095 69.8868 18 68.1481 18C66.4095 18 65 19.4095 65 21.1481C65 22.8868 66.4095 24.2963 68.1481 24.2963Z" fill="white"/>
<path d="M115.148 71.2963C116.887 71.2963 118.296 69.8868 118.296 68.1481C118.296 66.4095 116.887 65 115.148 65C113.409 65 112 66.4095 112 68.1481C112 69.8868 113.409 71.2963 115.148 71.2963Z" fill="white"/>
<path d="M21.1481 71.2963C22.8868 71.2963 24.2963 69.8868 24.2963 68.1481C24.2963 66.4095 22.8868 65 21.1481 65C19.4095 65 18 66.4095 18 68.1481C18 69.8868 19.4095 71.2963 21.1481 71.2963Z" fill="white"/>
<path d="M68.1481 118.296C69.8868 118.296 71.2963 116.887 71.2963 115.148C71.2963 113.409 69.8868 112 68.1481 112C66.4095 112 65 113.409 65 115.148C65 116.887 66.4095 118.296 68.1481 118.296Z" fill="white"/>
<circle cx="68" cy="68" r="30" stroke="white" stroke-width="2"/>
</svg>
