<svg width="150" height="150" viewBox="0 0 150 150" fill="none" xmlns="http://www.w3.org/2000/svg">
<path d="M113 74.2595L114.248 75.2209L114.211 73.2524L113 74.2595ZM88.2111 41.9928L87.2039 40.782L84.7821 42.7963L85.7893 44.0072L88.2111 41.9928ZM85.7524 107.039L84.7911 108.286L87.2862 110.209L88.2476 108.961L85.7524 107.039ZM12 16V14.425H10.425V16H12ZM31.02 16H32.595V14.425H31.02V16ZM31.02 35.02V36.595H32.595V35.02H31.02ZM12 35.02H10.425V36.595H12V35.02ZM12 49V47.425H10.425V49H12ZM31.02 49H32.595V47.425H31.02V49ZM31.02 68.02V69.595H32.595V68.02H31.02ZM12 68.02H10.425V69.595H12V68.02ZM12 82V80.425H10.425V82H12ZM31.02 82H32.595V80.425H31.02V82ZM31.02 101.02V102.595H32.595V101.02H31.02ZM12 101.02H10.425V102.595H12V101.02ZM12 115V113.425H10.425V115H12ZM31.02 115H32.595V113.425H31.02V115ZM31.02 134.02V135.595H32.595V134.02H31.02ZM12 134.02H10.425V135.595H12V134.02ZM118.5 65V63.425H116.925V65H118.5ZM137.52 65H139.095V63.425H137.52V65ZM137.52 84.02V85.595H139.095V84.02H137.52ZM118.5 84.02H116.925V85.595H118.5V84.02ZM62 99V97.425H60.425V99H62ZM81 99H82.575V97.425H81V99ZM81 118V119.575H82.575V118H81ZM62 118H60.425V119.575H62V118ZM57 108.5L57.9805 109.733L57.945 107.24L57 108.5ZM62 32V30.425H60.425V32H62ZM81 32H82.575V30.425H81V32ZM81 51V52.575H82.575V51H81ZM62 51H60.425V52.575H62V51ZM57 41.5L57.9805 42.7326L57.945 40.24L57 41.5ZM114.211 73.2524L88.2111 41.9928L85.7893 44.0072L111.789 75.2667L114.211 73.2524ZM111.752 73.2982L85.7524 107.039L88.2476 108.961L114.248 75.2209L111.752 73.2982ZM12 17.575H31.02V14.425H12V17.575ZM29.445 16V35.02H32.595V16H29.445ZM31.02 33.445H12V36.595H31.02V33.445ZM13.575 35.02V16H10.425V35.02H13.575ZM12 50.575H31.02V47.425H12V50.575ZM29.445 49V68.02H32.595V49H29.445ZM31.02 66.445H12V69.595H31.02V66.445ZM13.575 68.02V49H10.425V68.02H13.575ZM12 83.575H31.02V80.425H12V83.575ZM29.445 82V101.02H32.595V82H29.445ZM31.02 99.445H12V102.595H31.02V99.445ZM13.575 101.02V82H10.425V101.02H13.575ZM12 116.575H31.02V113.425H12V116.575ZM29.445 115V134.02H32.595V115H29.445ZM31.02 132.445H12V135.595H31.02V132.445ZM13.575 134.02V115H10.425V134.02H13.575ZM118.5 66.575H137.52V63.425H118.5V66.575ZM135.945 65V84.02H139.095V65H135.945ZM137.52 82.445H118.5V85.595H137.52V82.445ZM120.075 84.02V65H116.925V84.02H120.075ZM62 100.575H81V97.425H62V100.575ZM79.425 99V118H82.575V99H79.425ZM81 116.425H62V119.575H81V116.425ZM63.575 118V99H60.425V118H63.575ZM34.055 93.26L56.055 109.76L57.945 107.24L35.945 90.74L34.055 93.26ZM56.0195 107.267L34.0195 124.767L35.9805 127.233L57.9805 109.733L56.0195 107.267ZM62 33.575H81V30.425H62V33.575ZM79.425 32V51H82.575V32H79.425ZM81 49.425H62V52.575H81V49.425ZM63.575 51V32H60.425V51H63.575ZM34.055 26.26L56.055 42.76L57.945 40.24L35.945 23.74L34.055 26.26ZM56.0195 40.2674L34.0195 57.7674L35.9805 60.2326L57.9805 42.7326L56.0195 40.2674Z" fill="#1B3139"/>
</svg>
