<svg width="512" height="512" viewBox="0 0 512 512" fill="none" xmlns="http://www.w3.org/2000/svg">
<path d="M241.006 257.014V48C125.575 48 31.999 141.576 31.999 257.007C31.999 257.01 31.999 257.005 31.999 257.007L241.006 257.014Z" fill="#FABFBA"/>
<path d="M159.618 289.833C167.05 330.29 199.9 361.853 241 367.354V463.675C147.077 458.198 71.7445 383.49 65.29 289.833H159.618Z" fill="#FABFBA"/>
<path d="M273.84 89.9906C371.149 96.6969 448.006 177.758 448.006 276.771C448.006 376.068 370.707 457.31 273 463.607V367.193C319.276 360.424 354.809 320.571 354.809 272.416C354.808 224.554 319.705 184.89 273.84 177.765V89.9906Z" fill="#FF5F46"/>
</svg>
