<svg width="150" height="150" viewBox="0 0 150 150" fill="none" xmlns="http://www.w3.org/2000/svg">
<g clip-path="url(#clip0_214_421)">
<path d="M67.0001 77.89H60.8001C60.342 77.924 59.9137 78.13 59.6011 78.4667C59.2886 78.8033 59.1149 79.2457 59.1149 79.705C59.1149 80.1644 59.2886 80.6067 59.6011 80.9434C59.9137 81.28 60.342 81.486 60.8001 81.52H67.0001C67.2497 81.5386 67.5005 81.5054 67.7368 81.4226C67.9731 81.3398 68.1897 81.2091 68.3732 81.0388C68.5567 80.8684 68.703 80.662 68.8031 80.4325C68.9032 80.203 68.9549 79.9554 68.9549 79.705C68.9549 79.4546 68.9032 79.207 68.8031 78.9775C68.703 78.748 68.5567 78.5416 68.3732 78.3713C68.1897 78.2009 67.9731 78.0702 67.7368 77.9874C67.5005 77.9046 67.2497 77.8715 67.0001 77.89Z" fill="#FF5F46"/>
<path d="M39.1 54C39.5819 53.9974 40.0433 53.8048 40.3841 53.464C40.7248 53.1233 40.9174 52.6619 40.92 52.18V46.68C40.886 46.2219 40.68 45.7936 40.3434 45.4811C40.0068 45.1685 39.5644 44.9948 39.105 44.9948C38.6457 44.9948 38.2033 45.1685 37.8667 45.4811C37.5301 45.7936 37.3241 46.2219 37.29 46.68V55.82C37.29 56.83 38.09 54 39.1 54Z" fill="#FF5F46"/>
<path d="M104.22 28.43H77.35V25C77.3535 24.713 77.2897 24.4291 77.1638 24.1711C77.038 23.9131 76.8535 23.6881 76.6251 23.5141C76.3967 23.3402 76.1308 23.2221 75.8486 23.1693C75.5665 23.1165 75.2758 23.1304 75 23.21L38.59 32.91C38.1997 33.0066 37.8533 33.2317 37.6066 33.5492C37.3599 33.8667 37.2272 34.258 37.23 34.66V46.66C37.264 46.2019 37.47 45.7736 37.8067 45.4611C38.1433 45.1485 38.5857 44.9748 39.045 44.9748C39.5044 44.9748 39.9467 45.1485 40.2834 45.4611C40.62 45.7736 40.826 46.2019 40.86 46.66V36.06L73.63 27.32V124.7L40.9 118.14V115.29L37.25 114.67V119.67C37.2538 120.091 37.4002 120.498 37.6654 120.825C37.9306 121.152 38.2989 121.379 38.71 121.47L75.12 128.75C75.2365 128.759 75.3535 128.759 75.47 128.75C75.8883 128.745 76.293 128.601 76.62 128.34C76.8264 128.168 76.9925 127.952 77.1065 127.708C77.2205 127.465 77.2798 127.199 77.28 126.93V123.47H84.44V119.82H77.28V114.62H95.28C95.7619 114.617 96.2233 114.425 96.5641 114.084C96.9048 113.743 97.0974 113.282 97.1 112.8V39.09C97.0974 38.609 96.9045 38.1487 96.5634 37.8095C96.2224 37.4704 95.761 37.28 95.28 37.28H77.28V32.06H102.35V119.81H87.41C87.2802 119.8 87.1498 119.8 87.02 119.81V123.38C87.1498 123.391 87.2803 123.391 87.41 123.38H104.2C104.682 123.377 105.143 123.185 105.484 122.844C105.825 122.503 106.017 122.042 106.02 121.56V30.27C106.028 30.0296 105.987 29.79 105.9 29.5657C105.813 29.3414 105.682 29.1371 105.513 28.9651C105.345 28.7932 105.144 28.6571 104.922 28.5651C104.699 28.4731 104.461 28.4272 104.22 28.43ZM77.35 40.91H93.56V111H77.35V40.91Z" fill="#FF5F46"/>
<path d="M40.92 52.15C40.9227 52.3912 40.8776 52.6305 40.7875 52.8542C40.6973 53.0779 40.5638 53.2815 40.3947 53.4534C40.2256 53.6254 40.0241 53.7622 39.8019 53.856C39.5797 53.9498 39.3412 53.9987 39.1 54C38.1 54 37.29 56.86 37.29 55.85V112.74L40.94 113.36V52.15H40.92Z" fill="#FF5F46"/>
</g>
<defs>
<clipPath id="clip0_214_421">
<rect width="150" height="150" fill="white"/>
</clipPath>
</defs>
</svg>
