<svg width="150" height="150" viewBox="0 0 150 150" fill="none" xmlns="http://www.w3.org/2000/svg">
<g clip-path="url(#clip0_1_1997)">
<path d="M67 77.89H60.8C60.3419 77.924 59.9136 78.13 59.6011 78.4667C59.2885 78.8033 59.1148 79.2457 59.1148 79.705C59.1148 80.1644 59.2885 80.6067 59.6011 80.9434C59.9136 81.28 60.3419 81.486 60.8 81.52H67C67.2497 81.5386 67.5005 81.5054 67.7368 81.4226C67.973 81.3398 68.1897 81.2091 68.3732 81.0388C68.5566 80.8684 68.703 80.662 68.8031 80.4325C68.9032 80.203 68.9548 79.9554 68.9548 79.705C68.9548 79.4546 68.9032 79.207 68.8031 78.9775C68.703 78.748 68.5566 78.5416 68.3732 78.3713C68.1897 78.2009 67.973 78.0702 67.7368 77.9874C67.5005 77.9046 67.2497 77.8715 67 77.89V77.89Z" fill="white"/>
<path d="M39.1 54.0001C39.5819 53.9974 40.0433 53.8048 40.384 53.4641C40.7248 53.1233 40.9174 52.6619 40.92 52.1801V46.6801C40.886 46.222 40.68 45.7937 40.3434 45.4811C40.0067 45.1686 39.5644 44.9949 39.105 44.9949C38.6457 44.9949 38.2033 45.1686 37.8667 45.4811C37.53 45.7937 37.324 46.222 37.29 46.6801V55.8201C37.29 56.8301 38.09 54.0001 39.1 54.0001Z" fill="white"/>
<path d="M104.22 28.4301H77.35V25.0001C77.3534 24.713 77.2897 24.4291 77.1638 24.1711C77.0379 23.9131 76.8534 23.6882 76.6251 23.5142C76.3967 23.3403 76.1308 23.2222 75.8486 23.1693C75.5664 23.1165 75.2758 23.1305 75 23.2101L38.59 32.9101C38.1997 33.0066 37.8533 33.2318 37.6066 33.5493C37.3599 33.8667 37.2272 34.258 37.23 34.6601V46.6601C37.264 46.202 37.47 45.7737 37.8066 45.4611C38.1433 45.1486 38.5856 44.9749 39.045 44.9749C39.5043 44.9749 39.9467 45.1486 40.2833 45.4611C40.62 45.7737 40.826 46.202 40.86 46.6601V36.0601L73.63 27.3201V124.7L40.9 118.14V115.29L37.25 114.67V119.67C37.2537 120.091 37.4002 120.498 37.6654 120.825C37.9306 121.152 38.2988 121.38 38.71 121.47L75.12 128.75C75.2365 128.759 75.3535 128.759 75.47 128.75C75.8883 128.745 76.2929 128.601 76.62 128.34C76.8264 128.168 76.9924 127.952 77.1065 127.708C77.2205 127.465 77.2797 127.199 77.28 126.93V123.47H84.44V119.82H77.28V114.62H95.28C95.7619 114.617 96.2233 114.425 96.564 114.084C96.9048 113.743 97.0974 113.282 97.1 112.8V39.0901C97.0973 38.6091 96.9044 38.1488 96.5634 37.8096C96.2224 37.4704 95.761 37.2801 95.28 37.2801H77.28V32.0601H102.35V119.81H87.41C87.2802 119.8 87.1498 119.8 87.02 119.81V123.38C87.1498 123.391 87.2802 123.391 87.41 123.38H104.2C104.682 123.377 105.143 123.185 105.484 122.844C105.825 122.503 106.017 122.042 106.02 121.56V30.2701C106.028 30.0296 105.987 29.79 105.9 29.5658C105.813 29.3415 105.682 29.1372 105.513 28.9652C105.345 28.7932 105.144 28.6571 104.922 28.5652C104.699 28.4732 104.461 28.4272 104.22 28.4301V28.4301ZM77.35 40.9101H93.56V111H77.35V40.9101Z" fill="white"/>
<path d="M40.92 52.1501C40.9226 52.3913 40.8776 52.6306 40.7874 52.8543C40.6973 53.078 40.5638 53.2816 40.3947 53.4536C40.2255 53.6255 40.0241 53.7623 39.8019 53.8561C39.5797 53.9499 39.3412 53.9988 39.1 54.0001C38.1 54.0001 37.29 56.8601 37.29 55.8501V112.74L40.94 113.36V52.1501H40.92Z" fill="white"/>
</g>
<defs>
<clipPath id="clip0_1_1997">
<rect width="150" height="150" fill="white"/>
</clipPath>
</defs>
</svg>
