<svg width="150" height="150" viewBox="0 0 150 150" fill="none" xmlns="http://www.w3.org/2000/svg">
<g clip-path="url(#clip0_1_2001)">
<path d="M67 77.8898H60.8C60.3419 77.9238 59.9136 78.1298 59.6011 78.4664C59.2885 78.803 59.1148 79.2454 59.1148 79.7048C59.1148 80.1641 59.2885 80.6065 59.6011 80.9431C59.9136 81.2797 60.3419 81.4857 60.8 81.5198H67C67.2497 81.5383 67.5005 81.5051 67.7368 81.4223C67.973 81.3395 68.1897 81.2089 68.3732 81.0385C68.5566 80.8682 68.703 80.6618 68.8031 80.4323C68.9032 80.2028 68.9548 79.9551 68.9548 79.7048C68.9548 79.4544 68.9032 79.2067 68.8031 78.9772C68.703 78.7477 68.5566 78.5414 68.3732 78.371C68.1897 78.2007 67.973 78.07 67.7368 77.9872C67.5005 77.9044 67.2497 77.8712 67 77.8898V77.8898Z" fill="#1B3139"/>
<path d="M39.1 53.9998C39.5819 53.9972 40.0433 53.8046 40.384 53.4638C40.7248 53.1231 40.9174 52.6617 40.92 52.1798V46.6798C40.886 46.2217 40.68 45.7934 40.3434 45.4809C40.0067 45.1683 39.5644 44.9946 39.105 44.9946C38.6457 44.9946 38.2033 45.1683 37.8667 45.4809C37.53 45.7934 37.324 46.2217 37.29 46.6798V55.8198C37.29 56.8298 38.09 53.9998 39.1 53.9998Z" fill="#1B3139"/>
<path d="M104.22 28.4298H77.35V24.9998C77.3534 24.7128 77.2897 24.4289 77.1638 24.1709C77.0379 23.9129 76.8534 23.6879 76.6251 23.514C76.3967 23.34 76.1308 23.2219 75.8486 23.1691C75.5664 23.1163 75.2758 23.1302 75 23.2098L38.59 32.9098C38.1997 33.0064 37.8533 33.2316 37.6066 33.549C37.3599 33.8665 37.2272 34.2578 37.23 34.6598V46.6598C37.264 46.2017 37.47 45.7734 37.8066 45.4609C38.1433 45.1483 38.5856 44.9746 39.045 44.9746C39.5043 44.9746 39.9467 45.1483 40.2833 45.4609C40.62 45.7734 40.826 46.2017 40.86 46.6598V36.0598L73.63 27.3198V124.7L40.9 118.14V115.29L37.25 114.67V119.67C37.2537 120.091 37.4002 120.498 37.6654 120.825C37.9306 121.152 38.2988 121.379 38.71 121.47L75.12 128.75C75.2365 128.759 75.3535 128.759 75.47 128.75C75.8883 128.745 76.2929 128.601 76.62 128.34C76.8264 128.167 76.9924 127.952 77.1065 127.708C77.2205 127.464 77.2797 127.199 77.28 126.93V123.47H84.44V119.82H77.28V114.62H95.28C95.7619 114.617 96.2233 114.425 96.564 114.084C96.9048 113.743 97.0974 113.282 97.1 112.8V39.0898C97.0973 38.6089 96.9044 38.1485 96.5634 37.8094C96.2224 37.4702 95.761 37.2798 95.28 37.2798H77.28V32.0598H102.35V119.81H87.41C87.2802 119.8 87.1498 119.8 87.02 119.81V123.38C87.1498 123.391 87.2802 123.391 87.41 123.38H104.2C104.682 123.377 105.143 123.185 105.484 122.844C105.825 122.503 106.017 122.042 106.02 121.56V30.2698C106.028 30.0294 105.987 29.7898 105.9 29.5655C105.813 29.3412 105.682 29.1369 105.513 28.965C105.345 28.793 105.144 28.6569 104.922 28.5649C104.699 28.4729 104.461 28.427 104.22 28.4298V28.4298ZM77.35 40.9098H93.56V111H77.35V40.9098Z" fill="#1B3139"/>
<path d="M40.92 52.1499C40.9226 52.3911 40.8776 52.6304 40.7874 52.854C40.6973 53.0777 40.5638 53.2814 40.3947 53.4533C40.2255 53.6252 40.0241 53.762 39.8019 53.8558C39.5797 53.9496 39.3412 53.9986 39.1 53.9999C38.1 53.9999 37.29 56.8599 37.29 55.8499V112.74L40.94 113.36V52.1499H40.92Z" fill="#1B3139"/>
</g>
<defs>
<clipPath id="clip0_1_2001">
<rect width="150" height="150" fill="white"/>
</clipPath>
</defs>
</svg>
