<svg width="151" height="150" viewBox="0 0 151 150" fill="none" xmlns="http://www.w3.org/2000/svg">
<path d="M137.613 55.5591V90.5785C131.896 90.5785 127.269 95.2052 127.269 100.922C127.269 106.639 131.896 111.266 137.613 111.266C143.33 111.266 147.957 106.639 147.957 100.922C147.957 98.4143 147.069 96.1243 145.589 94.3484M103.762 74.2839L74.4754 90.4695L4.40552 51.727L74.4754 13L144.545 51.727L115.819 67.009V100.876C115.819 114.164 97.3128 124.944 74.4754 124.944C51.6381 124.944 33.1314 114.164 33.1314 100.876V78.2875M84.5077 51.7269C84.5077 54.9446 80.0161 57.5531 74.4754 57.5531C68.9348 57.5531 64.4432 54.9446 64.4432 51.7269C64.4432 48.5092 68.9348 45.9008 74.4754 45.9008C80.0161 45.9008 84.5077 48.5092 84.5077 51.7269Z" stroke="#FF5F46" stroke-width="3.36" stroke-miterlimit="3"/>
</svg>
