<svg width="323" height="98" viewBox="0 0 323 98" fill="none" xmlns="http://www.w3.org/2000/svg">
<path d="M101.173 45.198V24.1983H108.343C110.803 24.1983 112.823 24.6383 114.403 25.5183C116.003 26.3782 117.183 27.5982 117.943 29.1782C118.723 30.7382 119.113 32.5782 119.113 34.6981C119.113 36.8181 118.723 38.6681 117.943 40.2481C117.183 41.808 116.003 43.028 114.403 43.908C112.823 44.768 110.803 45.198 108.343 45.198H101.173ZM105.013 41.898H108.163C109.923 41.898 111.313 41.618 112.333 41.0581C113.353 40.4781 114.083 39.6581 114.523 38.5981C114.963 37.5181 115.183 36.2181 115.183 34.6981C115.183 33.1982 114.963 31.9082 114.523 30.8282C114.083 29.7482 113.353 28.9182 112.333 28.3382C111.313 27.7582 109.923 27.4682 108.163 27.4682H105.013V41.898ZM126.641 45.558C125.361 45.558 124.311 45.358 123.491 44.958C122.671 44.538 122.061 43.988 121.661 43.308C121.261 42.628 121.061 41.878 121.061 41.0581C121.061 39.6781 121.601 38.5581 122.681 37.6981C123.761 36.8381 125.381 36.4081 127.541 36.4081H131.321V36.0481C131.321 35.0281 131.031 34.2781 130.451 33.7981C129.871 33.3182 129.151 33.0782 128.291 33.0782C127.511 33.0782 126.831 33.2682 126.251 33.6481C125.671 34.0081 125.311 34.5481 125.171 35.2681H121.421C121.521 34.1881 121.881 33.2482 122.501 32.4482C123.141 31.6482 123.961 31.0382 124.961 30.6182C125.961 30.1782 127.081 29.9582 128.321 29.9582C130.441 29.9582 132.111 30.4882 133.331 31.5482C134.551 32.6082 135.161 34.1081 135.161 36.0481V45.198H131.891L131.531 42.798C131.091 43.598 130.471 44.258 129.671 44.778C128.891 45.298 127.881 45.558 126.641 45.558ZM127.511 42.558C128.611 42.558 129.461 42.198 130.061 41.478C130.681 40.7581 131.071 39.8681 131.231 38.8081H127.961C126.941 38.8081 126.211 38.9981 125.771 39.3781C125.331 39.7381 125.111 40.1881 125.111 40.7281C125.111 41.308 125.331 41.758 125.771 42.078C126.211 42.398 126.791 42.558 127.511 42.558ZM144.35 45.198C142.79 45.198 141.54 44.818 140.6 44.058C139.66 43.298 139.19 41.948 139.19 40.0081V33.5281H136.64V30.3182H139.19L139.64 26.3282H143.03V30.3182H147.05V33.5281H143.03V40.0381C143.03 40.7581 143.18 41.258 143.48 41.538C143.8 41.798 144.34 41.928 145.1 41.928H146.96V45.198H144.35ZM154.577 45.558C153.297 45.558 152.247 45.358 151.427 44.958C150.607 44.538 149.997 43.988 149.597 43.308C149.197 42.628 148.997 41.878 148.997 41.0581C148.997 39.6781 149.537 38.5581 150.617 37.6981C151.697 36.8381 153.317 36.4081 155.477 36.4081H159.257V36.0481C159.257 35.0281 158.967 34.2781 158.387 33.7981C157.807 33.3182 157.087 33.0782 156.227 33.0782C155.447 33.0782 154.767 33.2682 154.187 33.6481C153.607 34.0081 153.247 34.5481 153.107 35.2681H149.357C149.457 34.1881 149.817 33.2482 150.437 32.4482C151.077 31.6482 151.897 31.0382 152.897 30.6182C153.897 30.1782 155.017 29.9582 156.257 29.9582C158.377 29.9582 160.047 30.4882 161.267 31.5482C162.487 32.6082 163.097 34.1081 163.097 36.0481V45.198H159.827L159.467 42.798C159.027 43.598 158.407 44.258 157.607 44.778C156.827 45.298 155.817 45.558 154.577 45.558ZM155.447 42.558C156.547 42.558 157.397 42.198 157.997 41.478C158.617 40.7581 159.007 39.8681 159.167 38.8081H155.897C154.877 38.8081 154.147 38.9981 153.707 39.3781C153.267 39.7381 153.047 40.1881 153.047 40.7281C153.047 41.308 153.267 41.758 153.707 42.078C154.147 42.398 154.727 42.558 155.447 42.558ZM174.681 45.558C173.561 45.558 172.581 45.348 171.741 44.928C170.901 44.508 170.221 43.918 169.701 43.158L169.281 45.198H165.861V23.5983H169.701V32.4482C170.181 31.7882 170.811 31.2082 171.591 30.7082C172.391 30.2082 173.421 29.9582 174.681 29.9582C176.081 29.9582 177.331 30.2982 178.431 30.9782C179.531 31.6582 180.401 32.5882 181.041 33.7681C181.681 34.9481 182.001 36.2881 182.001 37.7881C182.001 39.2881 181.681 40.6281 181.041 41.808C180.401 42.968 179.531 43.888 178.431 44.568C177.331 45.228 176.081 45.558 174.681 45.558ZM173.871 42.198C175.091 42.198 176.101 41.788 176.901 40.9681C177.701 40.1481 178.101 39.0881 178.101 37.7881C178.101 36.4881 177.701 35.4181 176.901 34.5781C176.101 33.7381 175.091 33.3181 173.871 33.3181C172.631 33.3181 171.611 33.7381 170.811 34.5781C170.031 35.3981 169.641 36.4581 169.641 37.7581C169.641 39.0581 170.031 40.1281 170.811 40.9681C171.611 41.788 172.631 42.198 173.871 42.198ZM184.532 45.198V30.3182H187.951L188.311 33.1082C188.851 32.1482 189.581 31.3882 190.501 30.8282C191.441 30.2482 192.541 29.9582 193.801 29.9582V34.0081H192.721C191.881 34.0081 191.131 34.1381 190.471 34.3981C189.811 34.6581 189.291 35.1081 188.911 35.7481C188.551 36.3881 188.371 37.2781 188.371 38.4181V45.198H184.532ZM197.596 28.0082C196.896 28.0082 196.316 27.7982 195.856 27.3782C195.416 26.9582 195.196 26.4282 195.196 25.7882C195.196 25.1483 195.416 24.6283 195.856 24.2283C196.316 23.8083 196.896 23.5983 197.596 23.5983C198.296 23.5983 198.866 23.8083 199.306 24.2283C199.766 24.6283 199.996 25.1483 199.996 25.7882C199.996 26.4282 199.766 26.9582 199.306 27.3782C198.866 27.7982 198.296 28.0082 197.596 28.0082ZM195.676 45.198V30.3182H199.516V45.198H195.676ZM209.914 45.558C208.394 45.558 207.054 45.228 205.894 44.568C204.734 43.908 203.814 42.988 203.134 41.808C202.474 40.6281 202.144 39.2781 202.144 37.7581C202.144 36.2381 202.474 34.8881 203.134 33.7081C203.814 32.5282 204.734 31.6082 205.894 30.9482C207.054 30.2882 208.394 29.9582 209.914 29.9582C211.814 29.9582 213.414 30.4582 214.714 31.4582C216.014 32.4382 216.844 33.7981 217.204 35.5381H213.154C212.954 34.8181 212.554 34.2581 211.954 33.8581C211.374 33.4381 210.684 33.2282 209.884 33.2282C208.824 33.2282 207.924 33.6281 207.184 34.4281C206.444 35.2281 206.074 36.3381 206.074 37.7581C206.074 39.1781 206.444 40.2881 207.184 41.0881C207.924 41.888 208.824 42.288 209.884 42.288C210.684 42.288 211.374 42.088 211.954 41.688C212.554 41.288 212.954 40.7181 213.154 39.9781H217.204C216.844 41.658 216.014 43.008 214.714 44.028C213.414 45.048 211.814 45.558 209.914 45.558ZM219.712 45.198V23.5983H223.552V36.3481L228.832 30.3182H233.392L227.302 37.0981L234.382 45.198H229.582L223.552 37.7281V45.198H219.712ZM241.28 45.558C239.96 45.558 238.8 45.348 237.8 44.928C236.8 44.488 236 43.888 235.4 43.128C234.8 42.368 234.44 41.488 234.32 40.4881H238.19C238.31 41.0681 238.63 41.568 239.15 41.988C239.69 42.388 240.38 42.588 241.22 42.588C242.06 42.588 242.67 42.418 243.05 42.078C243.45 41.738 243.65 41.348 243.65 40.9081C243.65 40.2681 243.37 39.8381 242.81 39.6181C242.25 39.3781 241.47 39.1481 240.47 38.9281C239.83 38.7881 239.18 38.6181 238.52 38.4181C237.86 38.2181 237.25 37.9681 236.69 37.6681C236.15 37.3481 235.71 36.9481 235.37 36.4681C235.03 35.9681 234.86 35.3581 234.86 34.6381C234.86 33.3182 235.38 32.2082 236.42 31.3082C237.48 30.4082 238.96 29.9582 240.86 29.9582C242.62 29.9582 244.02 30.3682 245.06 31.1882C246.12 32.0082 246.75 33.1382 246.95 34.5781H243.32C243.1 33.4781 242.27 32.9282 240.83 32.9282C240.11 32.9282 239.55 33.0682 239.15 33.3481C238.77 33.6281 238.58 33.9781 238.58 34.3981C238.58 34.8381 238.87 35.1881 239.45 35.4481C240.03 35.7081 240.8 35.9481 241.76 36.1681C242.8 36.4081 243.75 36.6781 244.61 36.9781C245.49 37.2581 246.19 37.6881 246.71 38.2681C247.23 38.8281 247.49 39.6381 247.49 40.6981C247.51 41.618 247.27 42.448 246.77 43.188C246.27 43.928 245.55 44.508 244.61 44.928C243.67 45.348 242.56 45.558 241.28 45.558ZM101.173 73.198V52.1983H105.013L114.883 66.9881V52.1983H118.723V73.198H114.883L105.013 58.4382V73.198H101.173ZM129.034 73.558C127.534 73.558 126.204 73.238 125.044 72.598C123.884 71.958 122.974 71.058 122.314 69.898C121.654 68.7381 121.324 67.3981 121.324 65.8781C121.324 64.3381 121.644 62.9681 122.284 61.7681C122.944 60.5682 123.844 59.6382 124.984 58.9782C126.144 58.2982 127.504 57.9582 129.064 57.9582C130.524 57.9582 131.814 58.2782 132.934 58.9182C134.054 59.5582 134.924 60.4382 135.544 61.5581C136.184 62.6581 136.504 63.8881 136.504 65.2481C136.504 65.4681 136.494 65.6981 136.474 65.9381C136.474 66.1781 136.464 66.4281 136.444 66.6881H125.134C125.214 67.8481 125.614 68.7581 126.334 69.418C127.074 70.078 127.964 70.408 129.004 70.408C129.784 70.408 130.434 70.238 130.954 69.898C131.494 69.538 131.894 69.0781 132.154 68.5181H136.054C135.774 69.458 135.304 70.318 134.644 71.098C134.004 71.858 133.204 72.458 132.244 72.898C131.304 73.338 130.234 73.558 129.034 73.558ZM129.064 61.0782C128.124 61.0782 127.294 61.3481 126.574 61.8881C125.854 62.4081 125.394 63.2081 125.194 64.2881H132.604C132.544 63.3081 132.184 62.5281 131.524 61.9481C130.864 61.3681 130.044 61.0782 129.064 61.0782ZM141.158 73.198L136.808 58.3182H140.618L143.198 69.0281L146.198 58.3182H150.458L153.458 69.0281L156.068 58.3182H159.877L155.498 73.198H151.508L148.328 62.0681L145.148 73.198H141.158ZM167.739 73.198V52.1983H171.579V60.9282H180.998V52.1983H184.838V73.198H180.998V64.0481H171.579V73.198H167.739ZM190 56.0082C189.3 56.0082 188.72 55.7982 188.26 55.3782C187.82 54.9582 187.6 54.4282 187.6 53.7882C187.6 53.1483 187.82 52.6283 188.26 52.2283C188.72 51.8083 189.3 51.5983 190 51.5983C190.7 51.5983 191.27 51.8083 191.71 52.2283C192.17 52.6283 192.4 53.1483 192.4 53.7882C192.4 54.4282 192.17 54.9582 191.71 55.3782C191.27 55.7982 190.7 56.0082 190 56.0082ZM188.08 73.198V58.3182H191.92V73.198H188.08ZM195.028 73.198V58.3182H198.448L198.808 61.1082C199.348 60.1482 200.078 59.3882 200.998 58.8282C201.938 58.2482 203.038 57.9582 204.298 57.9582V62.0081H203.218C202.378 62.0081 201.628 62.1381 200.968 62.3981C200.308 62.6581 199.788 63.1081 199.408 63.7481C199.048 64.3881 198.868 65.2781 198.868 66.4181V73.198H195.028ZM212.989 73.558C211.489 73.558 210.159 73.238 208.999 72.598C207.839 71.958 206.929 71.058 206.269 69.898C205.609 68.7381 205.279 67.3981 205.279 65.8781C205.279 64.3381 205.599 62.9681 206.239 61.7681C206.899 60.5682 207.799 59.6382 208.939 58.9782C210.099 58.2982 211.459 57.9582 213.019 57.9582C214.479 57.9582 215.768 58.2782 216.888 58.9182C218.008 59.5582 218.878 60.4382 219.498 61.5581C220.138 62.6581 220.458 63.8881 220.458 65.2481C220.458 65.4681 220.448 65.6981 220.428 65.9381C220.428 66.1781 220.418 66.4281 220.398 66.6881H209.089C209.169 67.8481 209.569 68.7581 210.289 69.418C211.029 70.078 211.919 70.408 212.959 70.408C213.739 70.408 214.389 70.238 214.908 69.898C215.448 69.538 215.848 69.0781 216.108 68.5181H220.008C219.728 69.458 219.258 70.318 218.598 71.098C217.958 71.858 217.158 72.458 216.198 72.898C215.258 73.338 214.189 73.558 212.989 73.558ZM213.019 61.0782C212.079 61.0782 211.249 61.3481 210.529 61.8881C209.809 62.4081 209.349 63.2081 209.149 64.2881H216.558C216.498 63.3081 216.138 62.5281 215.478 61.9481C214.818 61.3681 213.999 61.0782 213.019 61.0782ZM238.636 73.558C236.516 73.558 234.696 73.108 233.176 72.208C231.656 71.288 230.486 70.018 229.666 68.3981C228.846 66.7581 228.436 64.8681 228.436 62.7281C228.436 60.5882 228.846 58.6982 229.666 57.0582C230.486 55.4182 231.656 54.1382 233.176 53.2183C234.696 52.2983 236.516 51.8383 238.636 51.8383C241.156 51.8383 243.216 52.4683 244.816 53.7282C246.436 54.9682 247.446 56.7182 247.846 58.9782H243.616C243.356 57.8382 242.796 56.9482 241.936 56.3082C241.096 55.6482 239.976 55.3182 238.576 55.3182C236.636 55.3182 235.116 55.9782 234.016 57.2982C232.916 58.6182 232.366 60.4282 232.366 62.7281C232.366 65.0281 232.916 66.8381 234.016 68.1581C235.116 69.458 236.636 70.108 238.576 70.108C239.976 70.108 241.096 69.808 241.936 69.208C242.796 68.5881 243.356 67.7381 243.616 66.6581H247.846C247.446 68.8181 246.436 70.508 244.816 71.728C243.216 72.948 241.156 73.558 238.636 73.558ZM257.395 73.558C255.955 73.558 254.655 73.228 253.495 72.568C252.355 71.908 251.445 70.998 250.765 69.838C250.105 68.6581 249.775 67.2981 249.775 65.7581C249.775 64.2181 250.115 62.8681 250.795 61.7081C251.475 60.5282 252.385 59.6082 253.525 58.9482C254.685 58.2882 255.985 57.9582 257.425 57.9582C258.845 57.9582 260.125 58.2882 261.265 58.9482C262.425 59.6082 263.335 60.5282 263.995 61.7081C264.675 62.8681 265.015 64.2181 265.015 65.7581C265.015 67.2981 264.675 68.6581 263.995 69.838C263.335 70.998 262.425 71.908 261.265 72.568C260.105 73.228 258.815 73.558 257.395 73.558ZM257.395 70.228C258.395 70.228 259.265 69.858 260.005 69.1181C260.745 68.3581 261.115 67.2381 261.115 65.7581C261.115 64.2781 260.745 63.1681 260.005 62.4281C259.265 61.6681 258.405 61.2882 257.425 61.2882C256.405 61.2882 255.525 61.6681 254.785 62.4281C254.065 63.1681 253.705 64.2781 253.705 65.7581C253.705 67.2381 254.065 68.3581 254.785 69.1181C255.525 69.858 256.395 70.228 257.395 70.228ZM267.548 73.198V51.5983H271.388V60.5982C271.888 59.7782 272.558 59.1382 273.398 58.6782C274.258 58.1982 275.238 57.9582 276.338 57.9582C278.178 57.9582 279.598 58.5382 280.598 59.6982C281.618 60.8582 282.128 62.5581 282.128 64.7981V73.198H278.318V65.1581C278.318 63.8781 278.058 62.8981 277.538 62.2181C277.038 61.5381 276.238 61.1982 275.138 61.1982C274.058 61.1982 273.158 61.5781 272.438 62.3381C271.738 63.0981 271.388 64.1581 271.388 65.5181V73.198H267.548ZM292.04 73.558C290.6 73.558 289.3 73.228 288.14 72.568C287 71.908 286.09 70.998 285.41 69.838C284.75 68.6581 284.42 67.2981 284.42 65.7581C284.42 64.2181 284.76 62.8681 285.44 61.7081C286.12 60.5282 287.03 59.6082 288.17 58.9482C289.33 58.2882 290.63 57.9582 292.07 57.9582C293.49 57.9582 294.77 58.2882 295.91 58.9482C297.07 59.6082 297.98 60.5282 298.64 61.7081C299.32 62.8681 299.66 64.2181 299.66 65.7581C299.66 67.2981 299.32 68.6581 298.64 69.838C297.98 70.998 297.07 71.908 295.91 72.568C294.75 73.228 293.46 73.558 292.04 73.558ZM292.04 70.228C293.04 70.228 293.91 69.858 294.65 69.1181C295.39 68.3581 295.76 67.2381 295.76 65.7581C295.76 64.2781 295.39 63.1681 294.65 62.4281C293.91 61.6681 293.05 61.2882 292.07 61.2882C291.05 61.2882 290.17 61.6681 289.43 62.4281C288.71 63.1681 288.35 64.2781 288.35 65.7581C288.35 67.2381 288.71 68.3581 289.43 69.1181C290.17 69.858 291.04 70.228 292.04 70.228ZM302.193 73.198V58.3182H305.613L305.973 61.1082C306.513 60.1482 307.243 59.3882 308.163 58.8282C309.103 58.2482 310.203 57.9582 311.463 57.9582V62.0081H310.383C309.543 62.0081 308.793 62.1381 308.133 62.3981C307.473 62.6581 306.953 63.1081 306.573 63.7481C306.213 64.3881 306.033 65.2781 306.033 66.4181V73.198H302.193ZM319.818 73.198C318.258 73.198 317.008 72.818 316.068 72.058C315.128 71.298 314.658 69.948 314.658 68.0081V61.5281H312.108V58.3182H314.658L315.108 54.3282H318.498V58.3182H322.518V61.5281H318.498V68.0381C318.498 68.7581 318.648 69.258 318.948 69.538C319.268 69.798 319.808 69.928 320.568 69.928H322.428V73.198H319.818Z" fill="#EEEDE9"/>
<path d="M42.0016 0.486666L83.7532 24.5894V72.7988L42.0016 96.9055L0.25 72.7988V24.5894L42.0016 0.486666Z" fill="#1B3139" stroke="#DCE0E2" stroke-width="0.5"/>
<g clip-path="url(#clip0_9342_535)">
<path d="M35.6648 32.4844C37.7716 33.4889 40.1273 34.0528 42.6126 34.0528C45.0978 34.0528 47.244 33.5346 49.2785 32.6114C47.9603 28.8879 48.0403 24.7759 49.5236 21.102C48.3019 23.6952 45.6642 25.4934 42.6126 25.4934C39.5609 25.4934 36.7861 23.5987 35.6089 20.8962C37.0477 24.6133 37.0668 28.7559 35.6648 32.4844Z" fill="#618794"/>
<path d="M45.4077 21.1419C47.6878 19.5982 48.2847 16.4983 46.741 14.2182C45.1972 11.9381 42.0973 11.3411 39.8172 12.8849C37.5371 14.4287 36.9402 17.5285 38.4839 19.8086C40.0277 22.0887 43.1275 22.6857 45.4077 21.1419Z" fill="#618794"/>
<path d="M25.9484 42.0204C28.1479 41.2406 30.2128 39.9745 31.9704 38.2169C33.6505 36.5368 34.8785 34.5748 35.6646 32.4844C32.0999 30.784 29.2489 27.82 27.6996 24.1727C28.6686 26.8701 28.0755 30.0081 25.9179 32.1657C23.7044 34.3792 20.4584 34.9456 17.7141 33.8674C21.3601 35.4777 24.3025 38.3947 25.9484 42.0217V42.0204Z" fill="#FF5F46"/>
<path d="M35.6647 32.4845C37.0655 28.7559 37.0477 24.6134 35.6088 20.8963C35.5479 20.7566 35.4895 20.6144 35.4374 20.4696C34.6488 18.5939 33.4957 16.8376 31.9718 15.3124C31.0752 14.4159 29.6225 13.7595 28.4733 14.2192C26.7139 14.923 26.4183 16.2128 26.4183 17.8561C26.4183 19.9274 26.8133 21.9072 27.5257 23.7295C27.5892 23.8756 27.6476 24.0229 27.701 24.1715C29.2516 27.8187 32.1013 30.7828 35.666 32.4832L35.6647 32.4845Z" fill="#E5DCC5"/>
<path d="M19.9213 31.1548C22.6749 31.1548 24.9071 28.9226 24.9071 26.1691C24.9071 23.4155 22.6749 21.1833 19.9213 21.1833C17.1677 21.1833 14.9355 23.4155 14.9355 26.1691C14.9355 28.9226 17.1677 31.1548 19.9213 31.1548Z" fill="#FF5F46"/>
<path d="M25.8214 55.6342C26.8259 53.5274 27.3898 51.1716 27.3898 48.6864C27.3898 46.2011 26.8717 44.0549 25.9484 42.0205C22.225 43.3387 18.1129 43.2587 14.439 41.7754C17.0322 42.9971 18.8304 45.6347 18.8304 48.6864C18.8304 51.738 16.9357 54.5128 14.2333 55.6901C17.9504 54.2512 22.0929 54.2322 25.8214 55.6342Z" fill="#618794"/>
<path d="M25.9484 42.0204C24.3025 38.3934 21.3601 35.4764 17.7141 33.8661C17.5719 33.8102 17.4309 33.7506 17.2912 33.6858C15.4079 32.9175 13.3506 32.4908 11.193 32.4908C9.92432 32.4908 8.47552 32.8376 8.00545 33.922C7.42392 35.2635 7.90259 37.0549 9.06458 38.2169C10.5288 39.6812 12.2077 40.8012 13.9995 41.5873C14.1481 41.6457 14.2942 41.708 14.4364 41.7765C18.1116 43.2586 22.2236 43.3398 25.9458 42.0216L25.9484 42.0204Z" fill="#E5DCC5"/>
<path d="M11.4952 53.5404C14.1751 52.9078 15.8348 50.2226 15.2023 47.5427C14.5698 44.8627 11.8845 43.203 9.20461 43.8355C6.52468 44.468 4.86493 47.1533 5.49745 49.8332C6.12997 52.5131 8.81524 54.1729 11.4952 53.5404Z" fill="#618794"/>
<path d="M35.3574 65.3516C34.5777 63.1521 33.3116 61.0872 31.554 59.3296C29.8738 57.6495 27.9118 56.4215 25.8215 55.6354C24.121 59.2001 21.157 62.0511 17.5098 63.6004C20.2071 62.6314 23.3451 63.2245 25.5015 65.3821C27.715 67.5956 28.2813 70.8416 27.2032 73.5859C28.8135 69.9399 31.7305 66.9975 35.3574 65.3529V65.3516Z" fill="#FF5F46"/>
<path d="M25.8214 55.6341C22.0928 54.2333 17.9503 54.2511 14.2332 55.6899C14.0935 55.7509 13.9513 55.8093 13.8065 55.8614C11.9308 56.65 10.1745 57.8031 8.64931 59.327C7.75274 60.2236 7.18397 61.6957 7.55609 62.949C7.93471 64.2242 9.54969 64.8805 11.193 64.8805C13.2643 64.8805 15.2441 64.4855 17.0664 63.7731C17.2125 63.7096 17.3598 63.6512 17.5084 63.5978C21.1544 62.0472 24.1197 59.1975 25.8201 55.6328L25.8214 55.6341Z" fill="#E5DCC5"/>
<path d="M19.506 76.3632C22.2596 76.3632 24.4918 74.131 24.4918 71.3774C24.4918 68.6239 22.2596 66.3917 19.506 66.3917C16.7525 66.3917 14.5203 68.6239 14.5203 71.3774C14.5203 74.131 16.7525 76.3632 19.506 76.3632Z" fill="#FF5F46"/>
<path d="M48.971 65.4786C46.8642 64.4741 44.5084 63.9103 42.0232 63.9103C39.5379 63.9103 37.3917 64.4284 35.3573 65.3517C36.6755 69.0751 36.5955 73.1871 35.1122 76.8611C36.3339 74.2679 38.9715 72.4696 42.0232 72.4696C45.0748 72.4696 47.8496 74.3644 49.0269 77.0668C47.588 73.3497 47.569 69.2072 48.971 65.4786Z" fill="#618794"/>
<path d="M35.3572 65.3516C31.7303 66.9974 28.8145 69.9386 27.203 73.5846C27.1471 73.7268 27.0874 73.8678 27.0226 74.0075C26.2543 75.8908 25.8276 77.9481 25.8276 80.1044C25.8276 81.3731 26.4693 82.6013 27.5536 83.1765C28.4269 83.6397 30.3918 83.3948 31.5538 82.2328C33.018 80.7686 34.1394 79.0885 34.9242 77.2966C34.9826 77.1493 35.0448 77.0033 35.1121 76.8598C36.5941 73.1846 36.6754 69.0725 35.3572 65.3503V65.3516Z" fill="#E5DCC5"/>
<path d="M44.9379 84.997C47.1717 83.387 47.6775 80.271 46.0676 78.0371C44.4577 75.8033 41.3417 75.2975 39.1078 76.9074C36.8739 78.5173 36.3681 81.6334 37.978 83.8672C39.588 86.1011 42.704 86.6069 44.9379 84.997Z" fill="#618794"/>
<path d="M58.6886 55.9414C56.489 56.7211 54.4241 57.9873 52.6665 59.7449C50.9864 61.425 49.7584 63.387 48.9723 65.4773C52.537 67.1778 55.388 70.1418 56.9373 73.7891C55.9684 71.0917 56.5614 67.9537 58.719 65.7974C60.9325 63.5839 64.1785 63.0175 66.9228 64.0957C63.2768 62.4854 60.3344 59.5683 58.6898 55.9414H58.6886Z" fill="#FF5F46"/>
<path d="M48.971 65.4786C47.5703 69.2072 47.5881 73.3497 49.0269 77.0668C49.0879 77.2065 49.1463 77.3487 49.1984 77.4935C49.987 79.3692 51.1401 81.1255 52.664 82.6507C53.5606 83.5473 55.3666 83.8661 56.5159 83.4064C57.6652 82.9467 58.2174 81.7503 58.2174 80.107C58.2174 78.0357 57.8225 76.0559 57.11 74.2336C57.0466 74.0875 56.9881 73.9402 56.9348 73.7916C55.3842 70.1456 52.5345 67.1803 48.9698 65.4799L48.971 65.4786Z" fill="#E5DCC5"/>
<path d="M64.7144 76.7798C67.468 76.7798 69.7002 74.5476 69.7002 71.7941C69.7002 69.0405 67.468 66.8083 64.7144 66.8083C61.9608 66.8083 59.7286 69.0405 59.7286 71.7941C59.7286 74.5476 61.9608 76.7798 64.7144 76.7798Z" fill="#FF5F46"/>
<path d="M58.8156 42.3277C57.811 44.4345 57.2472 46.7903 57.2472 49.2755C57.2472 51.7608 57.7653 53.907 58.6886 55.9414C62.412 54.6232 66.5241 54.7032 70.198 56.1865C67.6048 54.9648 65.8065 52.3272 65.8065 49.2755C65.8065 46.2239 67.7013 43.4491 70.4037 42.2719C66.6866 43.7107 62.5441 43.7297 58.8156 42.3277Z" fill="#618794"/>
<path d="M75.5699 59.7449C74.1056 58.2807 72.4255 57.1593 70.6337 56.3745C70.4863 56.3161 70.3403 56.2539 70.1968 56.1866C66.5216 54.7046 62.4096 54.6233 58.6874 55.9415C60.3332 59.5684 63.2744 62.4842 66.9204 64.0957C67.0626 64.1516 67.2036 64.2113 67.3432 64.276C69.2266 65.0444 71.2839 65.4711 73.4402 65.4711C74.7089 65.4711 76.4108 64.9427 76.7434 63.8685C77.1981 62.4005 76.7306 60.9069 75.5686 59.7449H75.5699Z" fill="#E5DCC5"/>
<path d="M79.1363 50.4191C79.7688 47.7391 78.1091 45.0539 75.4291 44.4214C72.7492 43.7888 70.0639 45.4486 69.4314 48.1285C68.7989 50.8084 70.4586 53.4937 73.1386 54.1262C75.8185 54.7588 78.5038 53.099 79.1363 50.4191Z" fill="#618794"/>
<path d="M49.2784 32.6115C50.0582 34.811 51.3243 36.876 53.0819 38.6335C54.762 40.3137 56.7241 41.5417 58.8144 42.3278C60.5148 38.7631 63.4788 35.9121 67.1261 34.3628C64.4288 35.3317 61.2907 34.7387 59.1344 32.581C56.9209 30.3675 56.3545 27.1216 57.4327 24.3773C55.8224 28.0232 52.9054 30.9657 49.2784 32.6115Z" fill="#FF5F46"/>
<path d="M49.2784 32.6115C52.9054 30.9656 55.8224 28.0232 57.4327 24.3772C57.4886 24.235 57.5482 24.094 57.613 23.9543C58.3813 22.071 58.808 20.0137 58.808 17.8561C58.808 16.5874 58.3007 15.044 57.2055 14.6789C55.8264 14.2192 54.2439 14.5657 53.0819 15.7277C51.6177 17.1919 50.4976 18.8708 49.7115 20.6627C49.6531 20.8112 49.5908 20.9573 49.5223 21.0995C48.0402 24.7747 47.959 28.8868 49.2772 32.6089L49.2784 32.6115Z" fill="#E5DCC5"/>
<path d="M58.8156 42.3278C62.5441 43.7285 66.6866 43.7107 70.4037 42.2719C70.5434 42.2109 70.6856 42.1525 70.8304 42.1004C72.7061 41.3118 74.4624 40.1587 75.9876 38.6348C76.8842 37.7382 77.4064 36.0533 76.9732 34.9064C76.3953 33.3763 75.0872 33.0814 73.4439 33.0814C71.3727 33.0814 69.3928 33.4763 67.5705 34.1887C67.4244 34.2522 67.2771 34.3107 67.1285 34.364C63.4826 35.9146 60.5173 38.7643 58.8168 42.329L58.8156 42.3278Z" fill="#E5DCC5"/>
<path d="M65.1309 31.5701C67.8845 31.5701 70.1167 29.3379 70.1167 26.5843C70.1167 23.8308 67.8845 21.5986 65.1309 21.5986C62.3773 21.5986 60.1451 23.8308 60.1451 26.5843C60.1451 29.3379 62.3773 31.5701 65.1309 31.5701Z" fill="#FF5F46"/>
</g>
<defs>
<clipPath id="clip0_9342_535">
<rect width="73.9064" height="73.9064" fill="white" transform="translate(5.36536 12.0284)"/>
</clipPath>
</defs>
</svg>
