<svg width="144" height="167" viewBox="0 0 144 167" fill="none" xmlns="http://www.w3.org/2000/svg">
<path d="M71.879 0.864567L143.258 42.0709V124.49L71.879 165.703L0.5 124.49V42.0709L71.879 0.864567Z" fill="#1B3139" stroke="#DCE0E2"/>
<g clip-path="url(#clip0_9325_1847)">
<path d="M61.0341 55.5405C64.6396 57.2596 68.671 58.2245 72.9242 58.2245C77.1773 58.2245 80.8502 57.3378 84.3318 55.7578C82.0759 49.3857 82.2128 42.3486 84.7512 36.0613C82.6605 40.4992 78.1466 43.5765 72.9242 43.5765C67.7018 43.5765 62.9531 40.334 60.9385 35.7092C63.4008 42.0704 63.4334 49.1597 61.0341 55.5405Z" fill="#618794"/>
<path d="M77.7078 36.1297C81.6099 33.4878 82.6315 28.1829 79.9896 24.2808C77.3477 20.3788 72.0428 19.3572 68.1407 21.9991C64.2387 24.641 63.2171 29.9459 65.859 33.8479C68.5009 37.75 73.8058 38.7716 77.7078 36.1297Z" fill="#618794"/>
<path d="M44.4063 71.8598C48.1704 70.5254 51.7042 68.3586 54.712 65.3508C57.5873 62.4755 59.6889 59.1178 61.0341 55.5405C54.9337 52.6305 50.0547 47.558 47.4033 41.3163C49.0615 45.9324 48.0466 51.3026 44.3541 54.995C40.5661 58.7831 35.0112 59.7524 30.3147 57.9072C36.5542 60.663 41.5897 65.655 44.4063 71.8619V71.8598Z" fill="#FF5F46"/>
<path d="M61.0342 55.5405C63.4313 49.1597 63.4009 42.0704 60.9385 35.7092C60.8342 35.4702 60.7343 35.2267 60.6452 34.979C59.2955 31.769 57.3222 28.7634 54.7142 26.1533C53.1799 24.6189 50.6939 23.4957 48.7271 24.2824C45.7162 25.4867 45.2104 27.6941 45.2104 30.5064C45.2104 34.051 45.8863 37.4392 47.1056 40.5578C47.2142 40.8078 47.3142 41.0599 47.4055 41.3141C50.0591 47.5558 54.9359 52.6283 61.0363 55.5383L61.0342 55.5405Z" fill="#E5DCC5"/>
<path d="M34.0919 53.265C38.8042 53.265 42.6242 49.445 42.6242 44.7327C42.6242 40.0204 38.8042 36.2004 34.0919 36.2004C29.3796 36.2004 25.5596 40.0204 25.5596 44.7327C25.5596 49.445 29.3796 53.265 34.0919 53.265Z" fill="#FF5F46"/>
<path d="M44.1889 95.1575C45.908 91.552 46.8729 87.5206 46.8729 83.2675C46.8729 79.0143 45.9862 75.3415 44.4063 71.8599C38.0342 74.1157 30.9971 73.9788 24.7097 71.4404C29.1476 73.5311 32.225 78.0451 32.225 83.2675C32.225 88.4899 28.9824 93.2385 24.3577 95.2532C30.7189 92.7908 37.8082 92.7582 44.1889 95.1575Z" fill="#618794"/>
<path d="M44.4063 71.8598C41.5898 65.6528 36.5542 60.6608 30.3147 57.9051C30.0713 57.8094 29.8301 57.7073 29.591 57.5965C26.368 56.2816 22.8473 55.5514 19.1549 55.5514C16.9838 55.5514 14.5044 56.145 13.6999 58.0007C12.7047 60.2964 13.5239 63.3622 15.5124 65.3508C18.0182 67.8566 20.8913 69.7734 23.9578 71.1187C24.2121 71.2186 24.4621 71.3251 24.7055 71.4425C30.995 73.9787 38.0321 74.1178 44.402 71.8619L44.4063 71.8598Z" fill="#E5DCC5"/>
<path d="M19.6719 91.5743C24.2581 90.4918 27.0985 85.8964 26.0161 81.3102C24.9336 76.7239 20.3382 73.8835 15.7519 74.9659C11.1657 76.0484 8.32526 80.6438 9.40772 85.2301C10.4902 89.8163 15.0856 92.6567 19.6719 91.5743Z" fill="#618794"/>
<path d="M60.5083 111.788C59.1739 108.023 57.0071 104.49 53.9993 101.482C51.124 98.6065 47.7663 96.5049 44.189 95.1597C41.279 101.26 36.2065 106.139 29.9648 108.791C34.5809 107.132 39.9511 108.147 43.6414 111.84C47.4294 115.628 48.3987 121.183 46.5536 125.879C49.3093 119.64 54.3013 114.604 60.5083 111.79V111.788Z" fill="#FF5F46"/>
<path d="M44.1892 95.1574C37.8084 92.7602 30.7191 92.7907 24.3579 95.253C24.1189 95.3573 23.8754 95.4573 23.6277 95.5464C20.4177 96.896 17.4121 98.8693 14.802 101.477C13.2676 103.012 12.2943 105.531 12.9311 107.676C13.579 109.858 16.3428 110.981 19.1551 110.981C22.6997 110.981 26.0879 110.305 29.2065 109.086C29.4565 108.977 29.7086 108.877 29.9628 108.786C36.2023 106.132 41.277 101.256 44.187 95.1552L44.1892 95.1574Z" fill="#E5DCC5"/>
<path d="M33.3812 130.632C38.0935 130.632 41.9135 126.812 41.9135 122.1C41.9135 117.387 38.0935 113.567 33.3812 113.567C28.6689 113.567 24.8489 117.387 24.8489 122.1C24.8489 126.812 28.6689 130.632 33.3812 130.632Z" fill="#FF5F46"/>
<path d="M83.806 112.005C80.2005 110.286 76.169 109.321 71.9159 109.321C67.6628 109.321 63.9899 110.207 60.5083 111.787C62.7642 118.16 62.6273 125.197 60.0889 131.484C62.1796 127.046 66.6935 123.969 71.9159 123.969C77.1383 123.969 81.887 127.211 83.9016 131.836C81.4393 125.475 81.4067 118.386 83.806 112.005Z" fill="#618794"/>
<path d="M60.5083 111.787C54.3014 114.604 49.3115 119.637 46.5536 125.877C46.458 126.12 46.3559 126.362 46.245 126.601C44.9302 129.824 44.2 133.344 44.2 137.035C44.2 139.206 45.298 141.308 47.1537 142.292C48.6482 143.085 52.0108 142.666 53.9993 140.677C56.5051 138.171 58.4241 135.296 59.7672 132.229C59.8672 131.977 59.9737 131.727 60.0889 131.482C62.6251 125.192 62.7642 118.155 60.5083 111.785V111.787Z" fill="#E5DCC5"/>
<path d="M76.9039 145.407C80.7268 142.652 81.5924 137.32 78.8373 133.497C76.0821 129.674 70.7496 128.808 66.9267 131.563C63.1037 134.318 62.2381 139.651 64.9933 143.474C67.7484 147.297 73.081 148.162 76.9039 145.407Z" fill="#618794"/>
<path d="M100.436 95.6833C96.6718 97.0177 93.138 99.1845 90.1302 102.192C87.2549 105.068 85.1534 108.425 83.8081 112.003C89.9085 114.913 94.7876 119.985 97.439 126.227C95.7808 121.611 96.7957 116.24 100.488 112.55C104.276 108.762 109.831 107.793 114.528 109.638C108.288 106.882 103.253 101.89 100.438 95.6833H100.436Z" fill="#FF5F46"/>
<path d="M83.806 112.005C81.4089 118.386 81.4393 125.475 83.9017 131.836C84.006 132.075 84.106 132.318 84.1951 132.566C85.5447 135.776 87.518 138.782 90.126 141.392C91.6603 142.926 94.751 143.472 96.7178 142.685C98.6846 141.899 99.6298 139.851 99.6298 137.039C99.6298 133.494 98.9539 130.106 97.7347 126.987C97.626 126.737 97.526 126.485 97.4347 126.231C94.7812 119.992 89.9043 114.917 83.8039 112.007L83.806 112.005Z" fill="#E5DCC5"/>
<path d="M110.748 131.345C115.46 131.345 119.28 127.525 119.28 122.813C119.28 118.1 115.46 114.28 110.748 114.28C106.036 114.28 102.216 118.1 102.216 122.813C102.216 127.525 106.036 131.345 110.748 131.345Z" fill="#FF5F46"/>
<path d="M100.653 72.3857C98.9342 75.9912 97.9692 80.0227 97.9692 84.2758C97.9692 88.5289 98.8559 92.2018 100.436 95.6834C106.808 93.4275 113.845 93.5644 120.132 96.1028C115.695 94.0121 112.617 89.4982 112.617 84.2758C112.617 79.0534 115.86 74.3047 120.485 72.2901C114.123 74.7524 107.034 74.785 100.653 72.3857Z" fill="#618794"/>
<path d="M129.326 102.192C126.82 99.6866 123.944 97.7676 120.878 96.4245C120.626 96.3245 120.376 96.218 120.13 96.1028C113.841 93.5666 106.804 93.4275 100.434 95.6834C103.25 101.89 108.284 106.88 114.523 109.638C114.767 109.734 115.008 109.836 115.247 109.947C118.47 111.262 121.991 111.992 125.681 111.992C127.852 111.992 130.765 111.088 131.334 109.249C132.112 106.737 131.312 104.181 129.323 102.192H129.326Z" fill="#E5DCC5"/>
<path d="M135.429 86.2328C136.511 81.6465 133.671 77.0511 129.084 75.9687C124.498 74.8862 119.903 77.7266 118.82 82.3129C117.738 86.8992 120.578 91.4946 125.165 92.577C129.751 93.6595 134.346 90.8191 135.429 86.2328Z" fill="#618794"/>
<path d="M84.3318 55.7579C85.6662 59.5221 87.833 63.0558 90.8408 66.0637C93.716 68.9389 97.0738 71.0405 100.651 72.3858C103.561 66.2853 108.634 61.4063 114.875 58.7549C110.259 60.4131 104.889 59.3982 101.199 55.7058C97.4106 51.9177 96.4414 46.3628 98.2865 41.6663C95.5307 47.9058 90.5387 52.9413 84.3318 55.7579Z" fill="#FF5F46"/>
<path d="M84.3317 55.7579C90.5386 52.9413 95.5306 47.9058 98.2864 41.6662C98.382 41.4228 98.4841 41.1816 98.595 40.9425C99.9098 37.7196 100.64 34.1988 100.64 30.5064C100.64 28.3353 99.7718 25.6939 97.8976 25.0692C95.5374 24.2824 92.8292 24.8754 90.8407 26.864C88.3349 29.3698 86.418 32.2429 85.0728 35.3094C84.9728 35.5637 84.8663 35.8136 84.7489 36.057C82.2127 42.3465 82.0736 49.3836 84.3295 55.7535L84.3317 55.7579Z" fill="#E5DCC5"/>
<path d="M100.653 72.3858C107.034 74.7829 114.123 74.7525 120.485 72.2902C120.724 72.1859 120.967 72.0859 121.215 71.9968C124.425 70.6472 127.43 68.6738 130.041 66.0659C131.575 64.5315 132.469 61.6481 131.727 59.6854C130.738 57.0667 128.5 56.5621 125.687 56.5621C122.143 56.5621 118.755 57.238 115.636 58.4572C115.386 58.5658 115.134 58.6658 114.88 58.7571C108.64 61.4107 103.566 66.2875 100.655 72.388L100.653 72.3858Z" fill="#E5DCC5"/>
<path d="M111.461 53.9757C116.173 53.9757 119.993 50.1557 119.993 45.4434C119.993 40.7311 116.173 36.9111 111.461 36.9111C106.749 36.9111 102.929 40.7311 102.929 45.4434C102.929 50.1557 106.749 53.9757 111.461 53.9757Z" fill="#FF5F46"/>
</g>
<defs>
<clipPath id="clip0_9325_1847">
<rect width="126.479" height="126.479" fill="white" transform="translate(9.18164 20.5332)"/>
</clipPath>
</defs>
</svg>
