<svg width="323" height="98" viewBox="0 0 323 98" fill="none" xmlns="http://www.w3.org/2000/svg">
<path d="M101.173 45.802V24.8023H108.343C110.803 24.8023 112.823 25.2423 114.403 26.1223C116.003 26.9822 117.183 28.2022 117.943 29.7822C118.723 31.3422 119.113 33.1822 119.113 35.3021C119.113 37.4221 118.723 39.2721 117.943 40.8521C117.183 42.412 116.003 43.632 114.403 44.512C112.823 45.372 110.803 45.802 108.343 45.802H101.173ZM105.013 42.502H108.163C109.923 42.502 111.313 42.222 112.333 41.6621C113.353 41.0821 114.083 40.2621 114.523 39.2021C114.963 38.1221 115.183 36.8221 115.183 35.3021C115.183 33.8022 114.963 32.5122 114.523 31.4322C114.083 30.3522 113.353 29.5222 112.333 28.9422C111.313 28.3622 109.923 28.0722 108.163 28.0722H105.013V42.502ZM126.641 46.162C125.361 46.162 124.311 45.962 123.491 45.562C122.671 45.142 122.061 44.592 121.661 43.912C121.261 43.232 121.061 42.482 121.061 41.6621C121.061 40.2821 121.601 39.1621 122.681 38.3021C123.761 37.4421 125.381 37.0121 127.541 37.0121H131.321V36.6521C131.321 35.6321 131.031 34.8821 130.451 34.4021C129.871 33.9222 129.151 33.6822 128.291 33.6822C127.511 33.6822 126.831 33.8722 126.251 34.2521C125.671 34.6121 125.311 35.1521 125.171 35.8721H121.421C121.521 34.7921 121.881 33.8522 122.501 33.0522C123.141 32.2522 123.961 31.6422 124.961 31.2222C125.961 30.7822 127.081 30.5622 128.321 30.5622C130.441 30.5622 132.111 31.0922 133.331 32.1522C134.551 33.2122 135.161 34.7121 135.161 36.6521V45.802H131.891L131.531 43.402C131.091 44.202 130.471 44.862 129.671 45.382C128.891 45.902 127.881 46.162 126.641 46.162ZM127.511 43.162C128.611 43.162 129.461 42.802 130.061 42.082C130.681 41.3621 131.071 40.4721 131.231 39.4121H127.961C126.941 39.4121 126.211 39.6021 125.771 39.9821C125.331 40.3421 125.111 40.7921 125.111 41.3321C125.111 41.9121 125.331 42.362 125.771 42.682C126.211 43.002 126.791 43.162 127.511 43.162ZM144.35 45.802C142.79 45.802 141.54 45.422 140.6 44.662C139.66 43.902 139.19 42.552 139.19 40.6121V34.1322H136.64V30.9222H139.19L139.64 26.9322H143.03V30.9222H147.05V34.1322H143.03V40.6421C143.03 41.3621 143.18 41.8621 143.48 42.142C143.8 42.402 144.34 42.532 145.1 42.532H146.96V45.802H144.35ZM154.577 46.162C153.297 46.162 152.247 45.962 151.427 45.562C150.607 45.142 149.997 44.592 149.597 43.912C149.197 43.232 148.997 42.482 148.997 41.6621C148.997 40.2821 149.537 39.1621 150.617 38.3021C151.697 37.4421 153.317 37.0121 155.477 37.0121H159.257V36.6521C159.257 35.6321 158.967 34.8821 158.387 34.4021C157.807 33.9222 157.087 33.6822 156.227 33.6822C155.447 33.6822 154.767 33.8722 154.187 34.2521C153.607 34.6121 153.247 35.1521 153.107 35.8721H149.357C149.457 34.7921 149.817 33.8522 150.437 33.0522C151.077 32.2522 151.897 31.6422 152.897 31.2222C153.897 30.7822 155.017 30.5622 156.257 30.5622C158.377 30.5622 160.047 31.0922 161.267 32.1522C162.487 33.2122 163.097 34.7121 163.097 36.6521V45.802H159.827L159.467 43.402C159.027 44.202 158.407 44.862 157.607 45.382C156.827 45.902 155.817 46.162 154.577 46.162ZM155.447 43.162C156.547 43.162 157.397 42.802 157.997 42.082C158.617 41.3621 159.007 40.4721 159.167 39.4121H155.897C154.877 39.4121 154.147 39.6021 153.707 39.9821C153.267 40.3421 153.047 40.7921 153.047 41.3321C153.047 41.9121 153.267 42.362 153.707 42.682C154.147 43.002 154.727 43.162 155.447 43.162ZM174.681 46.162C173.561 46.162 172.581 45.952 171.741 45.532C170.901 45.112 170.221 44.522 169.701 43.762L169.281 45.802H165.861V24.2023H169.701V33.0522C170.181 32.3922 170.811 31.8122 171.591 31.3122C172.391 30.8122 173.421 30.5622 174.681 30.5622C176.081 30.5622 177.331 30.9022 178.431 31.5822C179.531 32.2622 180.401 33.1922 181.041 34.3721C181.681 35.5521 182.001 36.8921 182.001 38.3921C182.001 39.8921 181.681 41.2321 181.041 42.412C180.401 43.572 179.531 44.492 178.431 45.172C177.331 45.832 176.081 46.162 174.681 46.162ZM173.871 42.802C175.091 42.802 176.101 42.392 176.901 41.5721C177.701 40.7521 178.101 39.6921 178.101 38.3921C178.101 37.0921 177.701 36.0221 176.901 35.1821C176.101 34.3421 175.091 33.9222 173.871 33.9222C172.631 33.9222 171.611 34.3421 170.811 35.1821C170.031 36.0021 169.641 37.0621 169.641 38.3621C169.641 39.6621 170.031 40.7321 170.811 41.5721C171.611 42.392 172.631 42.802 173.871 42.802ZM184.532 45.802V30.9222H187.951L188.311 33.7122C188.851 32.7522 189.581 31.9922 190.501 31.4322C191.441 30.8522 192.541 30.5622 193.801 30.5622V34.6121H192.721C191.881 34.6121 191.131 34.7421 190.471 35.0021C189.811 35.2621 189.291 35.7121 188.911 36.3521C188.551 36.9921 188.371 37.8821 188.371 39.0221V45.802H184.532ZM197.596 28.6122C196.896 28.6122 196.316 28.4022 195.856 27.9822C195.416 27.5622 195.196 27.0322 195.196 26.3923C195.196 25.7523 195.416 25.2323 195.856 24.8323C196.316 24.4123 196.896 24.2023 197.596 24.2023C198.296 24.2023 198.866 24.4123 199.306 24.8323C199.766 25.2323 199.996 25.7523 199.996 26.3923C199.996 27.0322 199.766 27.5622 199.306 27.9822C198.866 28.4022 198.296 28.6122 197.596 28.6122ZM195.676 45.802V30.9222H199.516V45.802H195.676ZM209.914 46.162C208.394 46.162 207.054 45.832 205.894 45.172C204.734 44.512 203.814 43.592 203.134 42.412C202.474 41.2321 202.144 39.8821 202.144 38.3621C202.144 36.8421 202.474 35.4921 203.134 34.3121C203.814 33.1322 204.734 32.2122 205.894 31.5522C207.054 30.8922 208.394 30.5622 209.914 30.5622C211.814 30.5622 213.414 31.0622 214.714 32.0622C216.014 33.0422 216.844 34.4021 217.204 36.1421H213.154C212.954 35.4221 212.554 34.8621 211.954 34.4621C211.374 34.0422 210.684 33.8322 209.884 33.8322C208.824 33.8322 207.924 34.2321 207.184 35.0321C206.444 35.8321 206.074 36.9421 206.074 38.3621C206.074 39.7821 206.444 40.8921 207.184 41.6921C207.924 42.492 208.824 42.892 209.884 42.892C210.684 42.892 211.374 42.692 211.954 42.292C212.554 41.8921 212.954 41.3221 213.154 40.5821H217.204C216.844 42.262 216.014 43.612 214.714 44.632C213.414 45.652 211.814 46.162 209.914 46.162ZM219.712 45.802V24.2023H223.552V36.9521L228.832 30.9222H233.392L227.302 37.7021L234.382 45.802H229.582L223.552 38.3321V45.802H219.712ZM241.28 46.162C239.96 46.162 238.8 45.952 237.8 45.532C236.8 45.092 236 44.492 235.4 43.732C234.8 42.972 234.44 42.092 234.32 41.0921H238.19C238.31 41.6721 238.63 42.172 239.15 42.592C239.69 42.992 240.38 43.192 241.22 43.192C242.06 43.192 242.67 43.022 243.05 42.682C243.45 42.342 243.65 41.9521 243.65 41.5121C243.65 40.8721 243.37 40.4421 242.81 40.2221C242.25 39.9821 241.47 39.7521 240.47 39.5321C239.83 39.3921 239.18 39.2221 238.52 39.0221C237.86 38.8221 237.25 38.5721 236.69 38.2721C236.15 37.9521 235.71 37.5521 235.37 37.0721C235.03 36.5721 234.86 35.9621 234.86 35.2421C234.86 33.9222 235.38 32.8122 236.42 31.9122C237.48 31.0122 238.96 30.5622 240.86 30.5622C242.62 30.5622 244.02 30.9722 245.06 31.7922C246.12 32.6122 246.75 33.7422 246.95 35.1821H243.32C243.1 34.0822 242.27 33.5322 240.83 33.5322C240.11 33.5322 239.55 33.6722 239.15 33.9522C238.77 34.2322 238.58 34.5821 238.58 35.0021C238.58 35.4421 238.87 35.7921 239.45 36.0521C240.03 36.3121 240.8 36.5521 241.76 36.7721C242.8 37.0121 243.75 37.2821 244.61 37.5821C245.49 37.8621 246.19 38.2921 246.71 38.8721C247.23 39.4321 247.49 40.2421 247.49 41.3021C247.51 42.222 247.27 43.052 246.77 43.792C246.27 44.532 245.55 45.112 244.61 45.532C243.67 45.952 242.56 46.162 241.28 46.162ZM101.173 73.802V52.8023H105.013L114.883 67.5921V52.8023H118.723V73.802H114.883L105.013 59.0422V73.802H101.173ZM129.034 74.162C127.534 74.162 126.204 73.842 125.044 73.202C123.884 72.562 122.974 71.662 122.314 70.502C121.654 69.3421 121.324 68.0021 121.324 66.4821C121.324 64.9421 121.644 63.5721 122.284 62.3721C122.944 61.1722 123.844 60.2422 124.984 59.5822C126.144 58.9022 127.504 58.5622 129.064 58.5622C130.524 58.5622 131.814 58.8822 132.934 59.5222C134.054 60.1622 134.924 61.0422 135.544 62.1622C136.184 63.2621 136.504 64.4921 136.504 65.8521C136.504 66.0721 136.494 66.3021 136.474 66.5421C136.474 66.7821 136.464 67.0321 136.444 67.2921H125.134C125.214 68.4521 125.614 69.3621 126.334 70.0221C127.074 70.682 127.964 71.012 129.004 71.012C129.784 71.012 130.434 70.842 130.954 70.502C131.494 70.142 131.894 69.6821 132.154 69.1221H136.054C135.774 70.062 135.304 70.922 134.644 71.702C134.004 72.462 133.204 73.062 132.244 73.502C131.304 73.942 130.234 74.162 129.034 74.162ZM129.064 61.6822C128.124 61.6822 127.294 61.9522 126.574 62.4921C125.854 63.0121 125.394 63.8121 125.194 64.8921H132.604C132.544 63.9121 132.184 63.1321 131.524 62.5521C130.864 61.9722 130.044 61.6822 129.064 61.6822ZM141.158 73.802L136.808 58.9222H140.618L143.198 69.6321L146.198 58.9222H150.458L153.458 69.6321L156.068 58.9222H159.877L155.498 73.802H151.508L148.328 62.6721L145.148 73.802H141.158ZM167.739 73.802V52.8023H171.579V61.5322H180.998V52.8023H184.838V73.802H180.998V64.6521H171.579V73.802H167.739ZM190 56.6122C189.3 56.6122 188.72 56.4022 188.26 55.9822C187.82 55.5622 187.6 55.0322 187.6 54.3923C187.6 53.7523 187.82 53.2323 188.26 52.8323C188.72 52.4123 189.3 52.2023 190 52.2023C190.7 52.2023 191.27 52.4123 191.71 52.8323C192.17 53.2323 192.4 53.7523 192.4 54.3923C192.4 55.0322 192.17 55.5622 191.71 55.9822C191.27 56.4022 190.7 56.6122 190 56.6122ZM188.08 73.802V58.9222H191.92V73.802H188.08ZM195.028 73.802V58.9222H198.448L198.808 61.7122C199.348 60.7522 200.078 59.9922 200.998 59.4322C201.938 58.8522 203.038 58.5622 204.298 58.5622V62.6121H203.218C202.378 62.6121 201.628 62.7421 200.968 63.0021C200.308 63.2621 199.788 63.7121 199.408 64.3521C199.048 64.9921 198.868 65.8821 198.868 67.0221V73.802H195.028ZM212.989 74.162C211.489 74.162 210.159 73.842 208.999 73.202C207.839 72.562 206.929 71.662 206.269 70.502C205.609 69.3421 205.279 68.0021 205.279 66.4821C205.279 64.9421 205.599 63.5721 206.239 62.3721C206.899 61.1722 207.799 60.2422 208.939 59.5822C210.099 58.9022 211.459 58.5622 213.019 58.5622C214.479 58.5622 215.768 58.8822 216.888 59.5222C218.008 60.1622 218.878 61.0422 219.498 62.1622C220.138 63.2621 220.458 64.4921 220.458 65.8521C220.458 66.0721 220.448 66.3021 220.428 66.5421C220.428 66.7821 220.418 67.0321 220.398 67.2921H209.089C209.169 68.4521 209.569 69.3621 210.289 70.0221C211.029 70.682 211.919 71.012 212.959 71.012C213.739 71.012 214.389 70.842 214.908 70.502C215.448 70.142 215.848 69.6821 216.108 69.1221H220.008C219.728 70.062 219.258 70.922 218.598 71.702C217.958 72.462 217.158 73.062 216.198 73.502C215.258 73.942 214.189 74.162 212.989 74.162ZM213.019 61.6822C212.079 61.6822 211.249 61.9522 210.529 62.4921C209.809 63.0121 209.349 63.8121 209.149 64.8921H216.558C216.498 63.9121 216.138 63.1321 215.478 62.5521C214.818 61.9722 213.999 61.6822 213.019 61.6822ZM238.636 74.162C236.516 74.162 234.696 73.712 233.176 72.812C231.656 71.892 230.486 70.622 229.666 69.0021C228.846 67.3621 228.436 65.4721 228.436 63.3321C228.436 61.1922 228.846 59.3022 229.666 57.6622C230.486 56.0222 231.656 54.7422 233.176 53.8223C234.696 52.9023 236.516 52.4423 238.636 52.4423C241.156 52.4423 243.216 53.0723 244.816 54.3323C246.436 55.5722 247.446 57.3222 247.846 59.5822H243.616C243.356 58.4422 242.796 57.5522 241.936 56.9122C241.096 56.2522 239.976 55.9222 238.576 55.9222C236.636 55.9222 235.116 56.5822 234.016 57.9022C232.916 59.2222 232.366 61.0322 232.366 63.3321C232.366 65.6321 232.916 67.4421 234.016 68.7621C235.116 70.062 236.636 70.712 238.576 70.712C239.976 70.712 241.096 70.412 241.936 69.8121C242.796 69.1921 243.356 68.3421 243.616 67.2621H247.846C247.446 69.4221 246.436 71.112 244.816 72.332C243.216 73.552 241.156 74.162 238.636 74.162ZM257.395 74.162C255.955 74.162 254.655 73.832 253.495 73.172C252.355 72.512 251.445 71.602 250.765 70.442C250.105 69.2621 249.775 67.9021 249.775 66.3621C249.775 64.8221 250.115 63.4721 250.795 62.3121C251.475 61.1322 252.385 60.2122 253.525 59.5522C254.685 58.8922 255.985 58.5622 257.425 58.5622C258.845 58.5622 260.125 58.8922 261.265 59.5522C262.425 60.2122 263.335 61.1322 263.995 62.3121C264.675 63.4721 265.015 64.8221 265.015 66.3621C265.015 67.9021 264.675 69.2621 263.995 70.442C263.335 71.602 262.425 72.512 261.265 73.172C260.105 73.832 258.815 74.162 257.395 74.162ZM257.395 70.832C258.395 70.832 259.265 70.462 260.005 69.7221C260.745 68.9621 261.115 67.8421 261.115 66.3621C261.115 64.8821 260.745 63.7721 260.005 63.0321C259.265 62.2721 258.405 61.8922 257.425 61.8922C256.405 61.8922 255.525 62.2721 254.785 63.0321C254.065 63.7721 253.705 64.8821 253.705 66.3621C253.705 67.8421 254.065 68.9621 254.785 69.7221C255.525 70.462 256.395 70.832 257.395 70.832ZM267.548 73.802V52.2023H271.388V61.2022C271.888 60.3822 272.558 59.7422 273.398 59.2822C274.258 58.8022 275.238 58.5622 276.338 58.5622C278.178 58.5622 279.598 59.1422 280.598 60.3022C281.618 61.4622 282.128 63.1621 282.128 65.4021V73.802H278.318V65.7621C278.318 64.4821 278.058 63.5021 277.538 62.8221C277.038 62.1422 276.238 61.8022 275.138 61.8022C274.058 61.8022 273.158 62.1822 272.438 62.9421C271.738 63.7021 271.388 64.7621 271.388 66.1221V73.802H267.548ZM292.04 74.162C290.6 74.162 289.3 73.832 288.14 73.172C287 72.512 286.09 71.602 285.41 70.442C284.75 69.2621 284.42 67.9021 284.42 66.3621C284.42 64.8221 284.76 63.4721 285.44 62.3121C286.12 61.1322 287.03 60.2122 288.17 59.5522C289.33 58.8922 290.63 58.5622 292.07 58.5622C293.49 58.5622 294.77 58.8922 295.91 59.5522C297.07 60.2122 297.98 61.1322 298.64 62.3121C299.32 63.4721 299.66 64.8221 299.66 66.3621C299.66 67.9021 299.32 69.2621 298.64 70.442C297.98 71.602 297.07 72.512 295.91 73.172C294.75 73.832 293.46 74.162 292.04 74.162ZM292.04 70.832C293.04 70.832 293.91 70.462 294.65 69.7221C295.39 68.9621 295.76 67.8421 295.76 66.3621C295.76 64.8821 295.39 63.7721 294.65 63.0321C293.91 62.2721 293.05 61.8922 292.07 61.8922C291.05 61.8922 290.17 62.2721 289.43 63.0321C288.71 63.7721 288.35 64.8821 288.35 66.3621C288.35 67.8421 288.71 68.9621 289.43 69.7221C290.17 70.462 291.04 70.832 292.04 70.832ZM302.193 73.802V58.9222H305.613L305.973 61.7122C306.513 60.7522 307.243 59.9922 308.163 59.4322C309.103 58.8522 310.203 58.5622 311.463 58.5622V62.6121H310.383C309.543 62.6121 308.793 62.7421 308.133 63.0021C307.473 63.2621 306.953 63.7121 306.573 64.3521C306.213 64.9921 306.033 65.8821 306.033 67.0221V73.802H302.193ZM319.818 73.802C318.258 73.802 317.008 73.422 316.068 72.662C315.128 71.902 314.658 70.552 314.658 68.6121V62.1322H312.108V58.9222H314.658L315.108 54.9322H318.498V58.9222H322.518V62.1322H318.498V68.6421C318.498 69.3621 318.648 69.8621 318.948 70.142C319.268 70.402 319.808 70.532 320.568 70.532H322.428V73.802H319.818Z" fill="#1B3139"/>
<path d="M42.0016 1.09067L83.7532 25.1934V73.4028L42.0016 97.5095L0.25 73.4028V25.1934L42.0016 1.09067Z" fill="#1B3139" stroke="#DCE0E2" stroke-width="0.5"/>
<g clip-path="url(#clip0_9325_1848)">
<path d="M35.6648 33.0884C37.7716 34.0929 40.1273 34.6568 42.6126 34.6568C45.0978 34.6568 47.244 34.1386 49.2785 33.2154C47.9603 29.4919 48.0403 25.3799 49.5236 21.706C48.3019 24.2992 45.6642 26.0974 42.6126 26.0974C39.5609 26.0974 36.7861 24.2027 35.6089 21.5002C37.0477 25.2173 37.0668 29.3599 35.6648 33.0884Z" fill="#618794"/>
<path d="M45.4077 21.7459C47.6878 20.2022 48.2847 17.1023 46.741 14.8222C45.1972 12.5421 42.0973 11.9452 39.8172 13.4889C37.5371 15.0327 36.9402 18.1325 38.4839 20.4126C40.0277 22.6927 43.1275 23.2897 45.4077 21.7459Z" fill="#618794"/>
<path d="M25.9484 42.6244C28.1479 41.8446 30.2128 40.5785 31.9704 38.8209C33.6505 37.1408 34.8785 35.1788 35.6646 33.0885C32.0999 31.388 29.2489 28.424 27.6996 24.7767C28.6686 27.4741 28.0755 30.6121 25.9179 32.7697C23.7044 34.9832 20.4584 35.5496 17.7141 34.4714C21.3601 36.0817 24.3025 38.9987 25.9484 42.6257V42.6244Z" fill="#FF5F46"/>
<path d="M35.6647 33.0885C37.0655 29.36 37.0477 25.2174 35.6088 21.5003C35.5479 21.3606 35.4895 21.2184 35.4374 21.0736C34.6488 19.1979 33.4957 17.4416 31.9718 15.9164C31.0752 15.0199 29.6225 14.3635 28.4733 14.8232C26.7139 15.527 26.4183 16.8168 26.4183 18.4601C26.4183 20.5314 26.8133 22.5112 27.5257 24.3335C27.5892 24.4796 27.6476 24.6269 27.701 24.7755C29.2516 28.4227 32.1013 31.3868 35.666 33.0872L35.6647 33.0885Z" fill="#E5DCC5"/>
<path d="M19.9213 31.7588C22.6749 31.7588 24.9071 29.5266 24.9071 26.7731C24.9071 24.0195 22.6749 21.7873 19.9213 21.7873C17.1677 21.7873 14.9355 24.0195 14.9355 26.7731C14.9355 29.5266 17.1677 31.7588 19.9213 31.7588Z" fill="#FF5F46"/>
<path d="M25.8214 56.2382C26.8259 54.1314 27.3898 51.7756 27.3898 49.2904C27.3898 46.8051 26.8717 44.6589 25.9484 42.6245C22.225 43.9427 18.1129 43.8627 14.439 42.3794C17.0322 43.6011 18.8304 46.2387 18.8304 49.2904C18.8304 52.342 16.9357 55.1168 14.2333 56.2941C17.9504 54.8552 22.0929 54.8362 25.8214 56.2382Z" fill="#618794"/>
<path d="M25.9484 42.6244C24.3025 38.9974 21.3601 36.0804 17.7141 34.4701C17.5719 34.4142 17.4309 34.3546 17.2912 34.2898C15.4079 33.5215 13.3506 33.0948 11.193 33.0948C9.92432 33.0948 8.47552 33.4417 8.00545 34.526C7.42392 35.8675 7.90259 37.6589 9.06458 38.8209C10.5288 40.2852 12.2077 41.4052 13.9995 42.1913C14.1481 42.2497 14.2942 42.312 14.4364 42.3805C18.1116 43.8626 22.2236 43.9438 25.9458 42.6256L25.9484 42.6244Z" fill="#E5DCC5"/>
<path d="M11.4952 54.1444C14.1751 53.5119 15.8348 50.8266 15.2023 48.1467C14.5698 45.4667 11.8845 43.807 9.20461 44.4395C6.52468 45.072 4.86493 47.7573 5.49745 50.4372C6.12997 53.1171 8.81524 54.7769 11.4952 54.1444Z" fill="#618794"/>
<path d="M35.3574 65.9556C34.5777 63.7561 33.3116 61.6912 31.554 59.9336C29.8738 58.2535 27.9118 57.0255 25.8215 56.2394C24.121 59.8041 21.157 62.6551 17.5098 64.2044C20.2071 63.2354 23.3451 63.8285 25.5015 65.9861C27.715 68.1996 28.2813 71.4456 27.2032 74.1899C28.8135 70.5439 31.7305 67.6015 35.3574 65.9569V65.9556Z" fill="#FF5F46"/>
<path d="M25.8214 56.2381C22.0928 54.8373 17.9503 54.8551 14.2332 56.2939C14.0935 56.3549 13.9513 56.4133 13.8065 56.4654C11.9308 57.254 10.1745 58.4071 8.64931 59.931C7.75274 60.8276 7.18397 62.2997 7.55609 63.553C7.93471 64.8282 9.54969 65.4845 11.193 65.4845C13.2643 65.4845 15.2441 65.0895 17.0664 64.3771C17.2125 64.3136 17.3598 64.2552 17.5084 64.2018C21.1544 62.6512 24.1196 59.8015 25.8201 56.2368L25.8214 56.2381Z" fill="#E5DCC5"/>
<path d="M19.506 76.9672C22.2596 76.9672 24.4918 74.735 24.4918 71.9814C24.4918 69.2279 22.2596 66.9957 19.506 66.9957C16.7525 66.9957 14.5203 69.2279 14.5203 71.9814C14.5203 74.735 16.7525 76.9672 19.506 76.9672Z" fill="#FF5F46"/>
<path d="M48.971 66.0827C46.8642 65.0781 44.5084 64.5143 42.0232 64.5143C39.5379 64.5143 37.3917 65.0324 35.3573 65.9557C36.6755 69.6791 36.5955 73.7911 35.1122 77.4651C36.3339 74.8719 38.9715 73.0736 42.0232 73.0736C45.0748 73.0736 47.8496 74.9684 49.0269 77.6708C47.588 73.9537 47.569 69.8112 48.971 66.0827Z" fill="#618794"/>
<path d="M35.3572 65.9556C31.7303 67.6015 28.8145 70.5426 27.203 74.1886C27.1471 74.3308 27.0874 74.4718 27.0226 74.6115C26.2543 76.4948 25.8276 78.5521 25.8276 80.7084C25.8276 81.9771 26.4693 83.2053 27.5536 83.7805C28.4269 84.2437 30.3918 83.9988 31.5538 82.8369C33.018 81.3726 34.1394 79.6925 34.9242 77.9006C34.9826 77.7533 35.0448 77.6073 35.1121 77.4638C36.5941 73.7886 36.6754 69.6765 35.3572 65.9543V65.9556Z" fill="#E5DCC5"/>
<path d="M44.9379 85.601C47.1717 83.991 47.6775 80.875 46.0676 78.6411C44.4577 76.4073 41.3417 75.9015 39.1078 77.5114C36.8739 79.1213 36.3681 82.2374 37.978 84.4712C39.588 86.7051 42.704 87.2109 44.9379 85.601Z" fill="#618794"/>
<path d="M58.6886 56.5454C56.489 57.3251 54.4241 58.5913 52.6665 60.3489C50.9864 62.029 49.7584 63.991 48.9723 66.0813C52.537 67.7818 55.388 70.7458 56.9373 74.3931C55.9684 71.6957 56.5614 68.5577 58.719 66.4014C60.9325 64.1879 64.1785 63.6215 66.9228 64.6997C63.2768 63.0894 60.3344 60.1723 58.6898 56.5454H58.6886Z" fill="#FF5F46"/>
<path d="M48.971 66.0826C47.5703 69.8112 47.5881 73.9537 49.0269 77.6708C49.0879 77.8105 49.1463 77.9527 49.1984 78.0975C49.987 79.9732 51.1401 81.7295 52.664 83.2547C53.5606 84.1513 55.3666 84.4701 56.5159 84.0104C57.6651 83.5507 58.2174 82.3543 58.2174 80.711C58.2174 78.6398 57.8225 76.6599 57.11 74.8376C57.0466 74.6915 56.9881 74.5442 56.9348 74.3956C55.3842 70.7496 52.5345 67.7844 48.9698 66.0839L48.971 66.0826Z" fill="#E5DCC5"/>
<path d="M64.7144 77.3838C67.468 77.3838 69.7002 75.1516 69.7002 72.3981C69.7002 69.6445 67.468 67.4123 64.7144 67.4123C61.9608 67.4123 59.7286 69.6445 59.7286 72.3981C59.7286 75.1516 61.9608 77.3838 64.7144 77.3838Z" fill="#FF5F46"/>
<path d="M58.8156 42.9317C57.811 45.0386 57.2472 47.3943 57.2472 49.8795C57.2472 52.3648 57.7653 54.511 58.6886 56.5454C62.412 55.2272 66.5241 55.3072 70.198 56.7905C67.6048 55.5688 65.8065 52.9312 65.8065 49.8795C65.8065 46.8279 67.7013 44.0531 70.4037 42.8759C66.6866 44.3147 62.5441 44.3337 58.8156 42.9317Z" fill="#618794"/>
<path d="M75.5699 60.3489C74.1056 58.8847 72.4255 57.7633 70.6336 56.9785C70.4863 56.9201 70.3403 56.8579 70.1968 56.7906C66.5216 55.3086 62.4096 55.2273 58.6874 56.5455C60.3332 60.1724 63.2744 63.0882 66.9204 64.6997C67.0626 64.7556 67.2036 64.8153 67.3433 64.8801C69.2266 65.6484 71.2839 66.0751 73.4402 66.0751C74.7089 66.0751 76.4108 65.5467 76.7434 64.4725C77.1981 63.0045 76.7306 61.5109 75.5686 60.3489H75.5699Z" fill="#E5DCC5"/>
<path d="M79.1363 51.0231C79.7688 48.3432 78.1091 45.6579 75.4291 45.0254C72.7492 44.3928 70.0639 46.0526 69.4314 48.7325C68.7989 51.4124 70.4586 54.0977 73.1386 54.7302C75.8185 55.3628 78.5038 53.703 79.1363 51.0231Z" fill="#618794"/>
<path d="M49.2784 33.2155C50.0582 35.415 51.3243 37.48 53.0819 39.2375C54.762 40.9177 56.7241 42.1457 58.8144 42.9318C60.5148 39.3671 63.4788 36.5161 67.1261 34.9668C64.4288 35.9357 61.2907 35.3427 59.1344 33.185C56.9209 30.9715 56.3545 27.7256 57.4327 24.9813C55.8224 28.6272 52.9054 31.5697 49.2784 33.2155Z" fill="#FF5F46"/>
<path d="M49.2784 33.2155C52.9054 31.5696 55.8224 28.6272 57.4327 24.9812C57.4886 24.839 57.5482 24.698 57.613 24.5583C58.3813 22.675 58.808 20.6177 58.808 18.4601C58.808 17.1914 58.3007 15.648 57.2055 15.2829C55.8264 14.8232 54.2439 15.1697 53.0819 16.3317C51.6177 17.7959 50.4976 19.4748 49.7115 21.2667C49.6531 21.4152 49.5908 21.5613 49.5223 21.7035C48.0402 25.3787 47.959 29.4908 49.2772 33.2129L49.2784 33.2155Z" fill="#E5DCC5"/>
<path d="M58.8156 42.9318C62.5441 44.3325 66.6866 44.3147 70.4037 42.8759C70.5434 42.8149 70.6856 42.7565 70.8304 42.7044C72.7061 41.9158 74.4624 40.7627 75.9876 39.2388C76.8842 38.3422 77.4064 36.6573 76.9732 35.5104C76.3953 33.9803 75.0872 33.6854 73.4439 33.6854C71.3727 33.6854 69.3928 34.0803 67.5705 34.7927C67.4244 34.8562 67.2771 34.9147 67.1285 34.968C63.4826 36.5186 60.5173 39.3683 58.8168 42.933L58.8156 42.9318Z" fill="#E5DCC5"/>
<path d="M65.1309 32.1741C67.8845 32.1741 70.1167 29.9419 70.1167 27.1883C70.1167 24.4348 67.8845 22.2026 65.1309 22.2026C62.3773 22.2026 60.1451 24.4348 60.1451 27.1883C60.1451 29.9419 62.3773 32.1741 65.1309 32.1741Z" fill="#FF5F46"/>
</g>
<defs>
<clipPath id="clip0_9325_1848">
<rect width="73.9064" height="73.9064" fill="white" transform="translate(5.36536 12.6324)"/>
</clipPath>
</defs>
</svg>
