<?xml version="1.0" encoding="UTF-8"?>
<svg xmlns="http://www.w3.org/2000/svg" version="1.1" viewBox="0 0 3007.9995117 2051.8779297">
  <!-- Generator: Adobe Illustrator 28.7.1, SVG Export Plug-In . SVG Version: 1.2.0 Build 142)  -->
  <g>
    <g id="Databricks_Mosaic_Research_Logo">
      <g id="Stacked_Logo">
        <g id="Mosaic_Research">
          <g>
            <g>
              <path d="M965.3601255,1852.7916045c0,1.6846904-1.0121156,3.0333891-2.696806,3.7059639-1.6846904.6740536-3.3676061,0-4.3803133-1.3469241-15.499388-18.5324814-39.7582195-28.9775025-67.3876149-28.9775025-57.9514559,0-102.7643381,48.5188461-102.7643381,110.8523898,0,62.333248,45.1488738,110.5158067,102.7643381,110.5158067,26.6190543,0,51.2162436-11.1190748,67.3876149-30.6607141,1.0127071-1.348403,3.0333891-1.6846904,4.3803133-1.348403,1.6846904.6740536,2.696806,2.0209778,2.696806,3.7059639v22.9124989h46.1598063v-210.5851134h-46.1598063v21.2260339ZM901.3418914,2005.4234874c-37.0631882,0-66.0406907-29.9863647-66.0406907-68.3979559,0-38.4104081,28.9775025-68.3982516,66.0406907-68.3982516,37.0620051,0,66.0389161,29.9878435,66.0389161,68.3982516,0,38.4115912-28.976911,68.3979559-66.0389161,68.3979559Z" fill="#ff3621"/>
              <rect x="1046.8985601" y="1831.5608383" width="47.1802034" height="210.9228796" fill="#ff3621"/>
              <path d="M1070.4966476,1739.916758c-15.8483934,0-28.6509755,12.8040609-28.6509755,28.6394405,0,15.8356754,12.8025821,28.6397363,28.6509755,28.6397363,15.8318304,0,28.6344125-12.8040609,28.6344125-28.6397363,0-15.8353797-12.8025821-28.6394405-28.6344125-28.6394405Z" fill="#ff3621"/>
            </g>
            <g>
              <path d="M706.9379316,1919.1639337l-25.2709471-8.4222688c-17.1965006-5.7284205-25.2715386-13.8144019-25.2715386-24.9334767,0-12.8040609,11.4538833-21.5640959,27.6193392-21.5640959,15.499388,0,29.3164518,10.1069592,38.0735292,27.6288038l37.4074613-20.2171718c-13.8170638-28.3016743-42.4520678-45.823519-75.4809904-45.823519-41.77062,0-72.1021451,26.956229-72.1021451,63.6819467,0,29.3134942,17.5295346,48.8551335,53.5729172,60.3119745l25.953578,8.4225646c18.1802226,5.7284205,25.9381981,13.1418271,25.9381981,24.9334767,0,17.858132-16.5150528,24.259423-30.6657421,24.259423-18.8622619,0-35.7103487-12.1297115-43.8007666-32.0091171l-38.0741207,20.2171718c12.4695481,32.0091171,43.1346987,51.8885226,80.5267801,51.8885226,38.0735292,0,76.8296892-23.2487863,76.8296892-67.3876149,0-28.9775025-18.196194-48.8566123-55.2552414-60.9866196Z"/>
              <path d="M473.2883063,1826.509642c-64.6773839,0-112.6876279,45.8845611-112.6876279,110.516424s48.010244,110.5120187,112.6876279,110.5120187c64.6750345,0,112.6864532-45.8801558,112.6864532-110.5120187s-48.0114187-110.516424-112.6864532-110.516424ZM473.2894811,2005.3877125c-36.5765484,0-64.1146859-26.3962951-64.1146859-68.3616465,0-41.9700504,27.1081845-68.3616465,64.1146859-68.3616465,36.5741989,0,64.1123364,26.3915961,64.1123364,68.3616465,0,41.9653515-27.5381375,68.3616465-64.1123364,68.3616465Z"/>
              <path d="M259.5547454,1826.1731417c-33.480855,0-54.0059205,19.031145-62.1619987,32.9123903-1.4179083,2.4140525-4.9807208,2.3223646-6.2820968-.1570524-7.3622389-14.030312-25.5667144-32.7553379-57.0866324-32.7553379-28.0422864,0-44.3461614,15.7333399-53.2582208,28.6580739-2.0153582,2.9224764-6.6216376,1.4167252-6.6216376-2.1330736l.0005915-21.8841161H27.9808035v211.6696919h46.1598063v-117.3850015c0-12.1149232,1.9224873-22.365921,5.771011-30.7482612,3.8461576-8.3781995,9.1664192-14.7608572,15.9643342-19.1485646,6.7908165-4.3788344,14.4239782-6.5749064,22.8876544-6.5749064,13.3308224,0,23.3324884,4.3877075,30.003815,13.1498128,6.6665943,8.7709784,10.0022575,21.4100012,10.0022575,37.908491v122.7984299h45.7759004v-117.3850015c0-12.1149232,1.9224873-22.365921,5.7686448-30.7482612,3.8485237-8.3781995,9.1664192-14.7608572,15.9661088-19.1485646,6.7914081-4.3788344,14.6753804-6.5749064,23.6560578-6.5749064,13.0800118,0,22.949174,4.3877075,29.6205006,13.1498128,6.6665943,8.7709784,10.001666,21.4100012,10.001666,37.908491v122.7984299h45.7753089v-130.4392815c0-64.1229357-36.0599456-85.8712946-75.7791239-85.8712946Z"/>
              <path d="M1236.6017015,2005.0872c-39.089194,0-68.4062373-29.3137899-68.4062373-68.0616685,0-38.7466955,29.3170434-68.0604854,68.4062373-68.0604854,18.5292279,0,35.7097571,6.0650036,52.8908779,18.5310026l29.6500773-27.9653869c-34.6946839-29.6500773-66.0418738-33.35752-86.9194939-33.35752-64.6937666,0-111.5243731,46.4978683-111.5243731,110.8523898,0,31.3362465,11.1042864,59.3016335,30.9981845,79.5173264,20.2109606,20.2171718,48.5123392,31.3347677,80.1771832,31.3347677,26.2866119,0,46.4981641-5.052888,84.9206986-33.3560412l-26.6202374-27.9650912c-18.8782333,12.4659989-36.392388,18.5307068-53.5729172,18.5307068Z"/>
            </g>
          </g>
          <g>
            <path d="M2411.3095589,2042.150717v-210.5851957h-46.1598242v21.2262208c0,1.6847585-1.0122047,3.033225-2.6968724,3.7058394-1.6847888.6742484-3.3680042,0-4.3800878-1.3468628-15.4993308-18.532465-39.7587161-28.9773991-67.387679-28.9773991-57.9516514,0-102.7646128,48.5188311-102.7646128,110.8521437,0,62.3333731,45.149314,110.5158516,102.7646128,110.5158516,26.6184527,0,51.2157641-11.119122,67.387679-30.660554,1.0120836-1.3484967,3.033104-1.6847888,4.3800878-1.3484967,1.6846678.6742181,2.6968724,2.0211414,2.6968724,3.7058697v22.9125831h46.1598242ZM2301.1316333,2005.4236525c-37.0634171,0-66.0408162-29.9863359-66.0408162-68.3981892,0-38.4101891,28.9773991-68.3981589,66.0408162-68.3981589,37.0617226,0,66.0391217,29.9879698,66.0391217,68.3981589,0,38.4118533-28.9773991,68.3981892-66.0391217,68.3981892Z"/>
            <path d="M1538.4863637,1874.6890039c4.3943698,0,8.423944.337926,11.1208164,1.0121441v-47.8462167c-1.6816419-.3363223-4.7117201-.6742181-7.7416772-.6742181-24.2562384,0-46.4977503,12.4676187-58.3007125,32.3469465-.9993751,1.6847888-2.681017,2.3590069-4.3785143,1.6847888-1.6815209-.337926-3.0299571-2.0226846-3.0299571-3.7058697v-25.9442044h-46.1646656v210.9214878h46.4977503v-92.9939271c0-46.1614279,23.589948-74.8009313,61.99696-74.8009313Z"/>
            <path d="M2555.1828975,1874.6890039c4.3943698,0,8.423944.337926,11.1208164,1.0121441v-47.8462167c-1.6816419-.3363223-4.7117201-.6742181-7.7416772-.6742181-24.2562384,0-46.4977503,12.4676187-58.3007125,32.3469465-.9993751,1.6847888-2.681017,2.3590069-4.3785143,1.6847888-1.6815209-.337926-3.0299571-2.0226846-3.0299571-3.7058697v-25.9442044h-46.1646656v210.9214878h46.4977503v-92.9939271c0-46.1614279,23.589948-74.8009313,61.99696-74.8009313Z"/>
            <path d="M1859.611917,2047.5381681c38.0740483,0,76.8300004-23.2488751,76.8300004-67.3876185,0-28.9774596-18.1959611-48.8567572-55.2547789-60.9865103l-25.2713479-8.4222495c-17.1967071-5.728524-25.27159-13.8144815-25.27159-24.9336337,0-12.803941,11.4539011-21.5641166,27.6194012-21.5641166,15.4993308,0,29.3167776,10.1070383,38.0738062,27.6289629l37.4076369-20.2172236c-13.8176888-28.3016076-42.4523206-45.8235321-75.4814431-45.8235321-41.7701748,0-72.1024249,26.9563182-72.1024249,63.681779,0,29.3137215,17.5297918,48.8551535,53.573137,60.3122014l25.9537358,8.4223101c18.1802267,5.728524,25.9377593,13.1418368,25.9377593,24.9336034,0,17.8582772-16.5145613,24.2594458-30.6653348,24.2594458-18.8623726,0-35.7102606-12.1296927-43.8008778-32.0090507l-38.0738062,20.2172236c12.4691316,32.0090507,43.1344664,51.8884087,80.5261268,51.8884087Z"/>
            <path d="M2684.9024366,1826.1733197c-64.6939534,0-111.5249094,46.4977503-111.5249094,110.8521437,0,31.336406,11.104961,59.3017215,30.9985405,79.5173716,20.2109298,20.2172236,48.5124769,31.3348326,80.1773078,31.3348326,26.2868205,0,46.4977503-5.0527325,84.9206176-33.3559135l-26.6199051-27.9653155c-18.878349,12.4660452-36.3924064,18.5309218-53.5733791,18.5309218-39.0890367,0-68.4060564-29.3137517-68.4060564-68.0618971,0-38.7465114,29.3170196-68.0602631,68.4060564-68.0602631,18.5295299,0,35.7102606,6.0648766,52.8909912,18.5308916l29.6501043-27.9652852c-34.694788-29.6500438-66.0422686-33.3574869-86.9193678-33.3574869Z"/>
            <path d="M2910.2054248,1827.1807132c-30.4915424,0-50.2681867,15.6881187-58.6023613,27.1305618-2.0838883,2.861084-6.5752806,1.420339-6.5752806-2.1192079v-112.6130793h-52.6300111v302.5719919h52.6300111v-107.5097357c0-37.0395268,17.8122881-58.6139746,48.174573-58.6139746,29.5530656,0,42.1030625,16.2813967,42.1030625,54.1372412v111.9864691h52.627645v-119.7213747c0-61.8697807-27.3616166-95.2488917-77.7276386-95.2488917Z"/>
            <path d="M2065.7587402,1825.8319725c-59.7372986,0-103.0778514,47.5537575-103.3653372,111.1934095h-.0136053c0,.0692095.008873.1354614.008873.204671,0,.1437429-.008873.2845281-.008873.4285668l.0289852.0109434c.1526159,31.0721263,11.2143118,58.7982376,30.9697909,78.8731453,20.2109606,20.2174675,48.5123392,31.3350634,80.1771832,31.3350634,26.2866119,0,46.4981641-5.052888,84.9206986-33.3560412l-26.6202374-27.9653869c-18.8782333,12.4659989-36.392388,18.5310026-53.5729172,18.5310026-29.9118659,0-54.050095-17.190275-63.7516978-42.6168866-1.2079196-3.1657968,1.1762719-6.5763088,4.5646843-6.5763088h145.1162785l.0023661.0002958c1.1085357-6.9475732,1.7071687-14.428119,1.7071687-22.2588532,0-63.9573061-37.8138455-107.8036208-100.1633607-107.8036208ZM2017.8404305,1917.8150162c-2.9872156-.0000078-5.2616227-2.6904584-4.8084362-5.6430977,4.7315785-30.8275795,28.8923328-47.9277633,55.9210324-47.9277633,31.806671,0,53.3838616,18.214781,56.6490284,48.0650492.3190436,2.916708-1.8859108,5.5060875-4.8200162,5.5060798l-102.9416084-.000268Z"/>
            <path d="M1660.0599359,1825.8319725c-59.7372986,0-103.0778514,47.5537575-103.3653372,111.1934095h-.0136053c0,.0692095.008873.1354614.008873.204671,0,.1437429-.008873.2845281-.008873.4285668l.0289852.0109434c.1526159,31.0721263,11.2143118,58.7982376,30.9697909,78.8731453,20.2109606,20.2174675,48.5123392,31.3350634,80.1771832,31.3350634,26.2866119,0,46.4981641-5.052888,84.9206986-33.3560412l-26.6202374-27.9653869c-18.8782333,12.4659989-36.392388,18.5310026-53.5729172,18.5310026-29.9118659,0-54.050095-17.190275-63.7516978-42.6168866-1.2079196-3.1657968,1.1762719-6.5763088,4.5646843-6.5763088h145.1162785l.0023661.0002958c1.1085357-6.9475732,1.7071687-14.428119,1.7071687-22.2588532,0-63.9573061-37.8138455-107.8036208-100.1633607-107.8036208ZM1612.1416262,1917.8150162c-2.9872156-.0000078-5.2616227-2.6904584-4.8084362-5.6430977,4.7315785-30.8275795,28.8923328-47.9277633,55.9210324-47.9277633,31.806671,0,53.3838616,18.214781,56.6490284,48.0650492.3190436,2.916708-1.8859108,5.5060875-4.8200162,5.5060798l-102.9416084-.000268Z"/>
          </g>
        </g>
        <g id="Databricks">
          <path id="Wordmark" d="M349.4259241,1667.9668126v-466.8038426h-72.0938432v174.7929902c0,2.5922551-1.5513664,4.6681147-4.1436215,5.7051102-2.5922551,1.0368397-5.1845101,0-6.7358765-1.5554153-24.3920519-28.527264-62.2555453-45.1260435-104.2626603-45.1260435-88.6885737,0-158.1901618,74.6903029-158.1901618,170.6432954,0,46.6814588,16.0842528,90.248038,45.6402587,121.8881571,29.576562,31.6379389,69.5018996,48.7551383,113.0806256,48.7551383,40.9662262,0,78.8297197-17.1171993,104.2421041-46.6814588,1.5513664-2.0736795,4.6743439-2.5922551,6.7358765-2.0736795,2.6128112,1.0368397,4.1641776,3.1106749,4.1641776,5.7049545v34.7507941h71.5631208ZM178.7846532,1610.9143091c-57.0504791,0-102.1805714-46.1630389-102.1805714-105.2914021s45.1300924-105.2893776,102.1805714-105.2893776c57.0707237,0,102.1805714,46.1610145,102.1805714,105.2893776s-45.1098477,105.2914021-102.1805714,105.2914021ZM733.7770257,1667.4483927v-324.6878113h-71.0735107v32.6769589c0,2.5922551-1.5510549,4.6681147-4.1436215,5.7049545-2.5922551,1.0369955-5.1845101,0-6.7355651-2.0758597-24.3920519-29.0456839-61.2146567-44.6054434-104.2626603-44.6054434-88.6885737,0-158.7006395,75.2087228-158.7006395,170.6432954s69.5015881,170.6432954,158.7006395,170.6432954c40.9864709,0,79.3604421-17.1171993,104.2626603-47.1998787,1.5510549-2.0738352,4.6537877-2.5922551,6.7355651-2.0738352,2.5925665,1.0369955,4.1436215,3.1106749,4.1436215,5.7051102v35.2692139h71.0735107ZM563.645921,1610.9143091c-57.0504791,0-102.1805714-46.1630389-102.1805714-105.2914021s45.1300924-105.2893776,102.1805714-105.2893776,102.1805714,46.1610145,102.1805714,105.2893776-45.1300924,105.2914021-102.1805714,105.2914021ZM1343.2070659,1667.4483927v-324.6878113h-71.0529545v32.6769589c0,2.5922551-1.5513664,4.6681147-4.1638662,5.7049545-2.5922551,1.0369955-5.1845101,0-6.7358765-2.0758597-24.3714957-29.0456839-61.1941005-44.6054434-104.2421041-44.6054434-88.7091299,0-158.7208842,75.2087228-158.7208842,170.6432954s69.5015881,170.6432954,158.7208842,170.6432954c40.9659148,0,79.339886-17.1171993,104.2421041-47.1998787,1.5513664-2.0738352,4.6743439-2.5922551,6.7358765-2.0738352,2.6124998,1.0369955,4.1638662,3.1106749,4.1638662,5.7051102v35.2692139h71.0529545ZM1173.0759613,1610.9143091c-57.0504791,0-102.1805714-46.1630389-102.1805714-105.2914021s45.1300924-105.2893776,102.1805714-105.2893776c57.0710352,0,102.1808829,46.1610145,102.1808829,105.2893776s-45.1098477,105.2914021-102.1808829,105.2914021ZM1473.9027546,1629.5847435c.5307224,0,1.5716111-.5184199,2.0820888-.5184199,1.5510549,0,3.6331437,1.0369955,4.6740324,2.0758597,24.3714957,28.5252395,62.2353006,45.124019,104.2424156,45.124019,88.7088184,0,158.7208842-75.2087228,158.7208842-170.6432954,0-46.6794343-16.0845643-90.248038-45.6405701-121.8880014-29.5762505-31.6380947-69.5015881-48.755294-113.0803141-48.755294-40.9662262,0-78.8297197,17.1171993-104.2424156,46.6814588-1.5510549,2.0738352-4.14331,2.5922551-6.7561212,2.0738352-2.5922551-1.0369955-4.1436215-3.1108307-4.1436215-5.7051102v-176.3483277h-72.0938432v467.3223404h72.0938432v-32.6749344c0-3.631275,1.5513664-5.7071347,4.1436215-6.7441301ZM1466.6567118,1505.622907c0-59.1283632,45.1095362-105.2893776,102.1805714-105.2893776,57.0504791,0,102.1603268,46.1610145,102.1603268,105.2893776s-45.1098477,105.2914021-102.1603268,105.2914021c-57.5812015,0-102.1805714-46.1630389-102.1805714-105.2914021ZM1855.1308786,1525.3323614v143.1528711h-72.0938432v-325.724651h71.0529545v39.9373287c0,2.5942795,2.0817773,5.1866903,4.6743439,5.7051102,2.5919436.5184199,5.7152325-.5184199,6.7355651-2.5922551,18.1666531-30.6032794,52.9071691-49.7921337,89.7294624-49.7921337,4.6743439,0,9.858854.5184199,11.9406313,1.0368397v73.651283c-4.1429985-1.0368397-10.8997427-1.5574398-17.6353077-1.5574398-58.0916792.5206001-94.4038063,44.6076236-94.4038063,116.1830469ZM2085.4351283,1342.7605815v325.2062311h-72.6242541v-325.2062311h72.6242541ZM2092.1713163,1245.7684912c0,24.377647-19.717708,44.0871014-44.0892037,44.0871014s-44.0892037-19.7094544-44.0892037-44.0871014c0-24.3775691,19.717708-44.0870235,44.0892037-44.0870235s44.0892037,19.7094544,44.0892037,44.0870235ZM2432.4123465,1386.3291851l-45.6402587,43.0501838c-25.9225507-19.1910345-52.9065461-28.527264-81.4216633-28.527264-60.1734565,0-105.3035489,45.1238633-105.3035489,104.770802s45.1300924,104.7709578,105.3035489,104.7709578c26.4532731,0,53.4173353-9.3363852,82.9733412-28.5253953l40.9864709,43.0481593c-59.1325679,43.5686037-90.770974,51.3495735-131.2267225,51.3495735-48.7629247,0-92.8521284-17.1171993-123.4496458-48.2367184-30.5968945-31.1196748-47.722036-74.1698586-47.722036-122.406577,0-99.0658476,72.6242541-170.6432954,172.2125705-170.6432954,31.6384061,0,80.3813976,5.1865346,133.2879437,51.3495735ZM2542.3703061,1536.742426c-1.0408887,1.0390199-2.0618441,2.5944353-2.0618441,4.6682705v126.5561161h-72.0935317v-467.3222625h72.0935317v255.704643c0,2.5942795,1.5516778,4.6681147,3.612899,5.7051102,2.5925665,1.0368397,5.2050663.5184199,6.7561212-1.5554153l117.7344133-118.2568821h87.647685l-136.9213989,136.9294968c-2.0817773,2.0738352-2.5919436,5.7049545-.5101663,8.2973653l148.8414741,179.9795248h-88.6885737l-115.1418468-142.6344512c-1.0408887-1.5554153-2.5925665-2.0738352-4.6743439-2.0738352h-.5101663c-1.5510549,0-3.1232889.5184199-4.1436215,1.5554153l-11.9406313,12.4469044ZM2760.7339244,1595.870945l58.0916792-30.6010992c12.4507976,30.6010992,38.3733483,49.2735581,67.4191879,49.2735581,21.7994853,0,47.2124927-9.8546493,47.2124927-37.3430491,0-18.6724589-11.4105318-29.5641037-39.9455823-38.3820691l-39.925649-12.9675045c-55.4991127-17.6335947-82.4831081-48.2367184-82.4831081-93.3607374,0-57.0525035,46.6811473-98.547272,111.5289477-98.547272,50.8253917,0,95.4247617,26.9718487,116.6935246,71.0590279l-57.5815129,31.1195191c-13.4711301-27.4904243-34.740516-43.0501838-58.6018454-43.0501838-24.9015952,0-42.5375259,13.4859243-42.5375259,33.1953787,0,17.1151749,12.98152,29.5642595,38.9046936,38.3820691l39.4148599,12.96548c57.0501676,18.6726147,85.0756747,49.2737139,85.0756747,93.879313,0,67.9461728-59.6632903,103.7359868-118.775302,103.7359868-57.5815129,1.0368397-104.7728265-29.5642595-124.4905345-79.3584176ZM828.6909982,1559.0463157v-151.4522608c0-3.631275-2.5922551-6.2235301-6.2253988-6.2235301h-50.314914v-58.6099433h50.314914c3.6331437,0,6.2253988-2.5944353,6.2253988-6.2235301v-94.3977328h71.5631208v94.3977328c0,3.6290948,2.5922551,6.2235301,6.2257103,6.2235301h70.0323105v58.6099433h-70.0323105c-3.6334552,0-6.2257103,2.5922551-6.2257103,6.2235301v133.8166416c0,62.7596382,22.3099631,67.9461728,51.3558027,67.9461728,10.3690203,0,26.4532731-1.0368397,36.3121271-2.5922551v62.2391939c-11.4099089,1.5572841-32.1685056,3.6311193-54.458224,3.6311193-29.0455281.5185756-104.7728265.5185756-104.7728265-113.5886116Z"/>
          <path id="Logomark" d="M1868.1123986,395.1504208l-391.0866666,219.9149458-418.5608951-235.4747053-19.717708,11.4101036v171.1617542l438.2786031,246.3684135,391.0866666-220.435468v91.2849166l-391.0866666,219.9170092-418.5608951-234.9583489-19.717708,10.8936693v29.0457617l438.2786031,246.3684135,438.2786031-246.3684135v-171.1617152l-20.2278743-10.8916448-418.0507288,234.9562465-391.5971443-219.9149458v-90.7684823l391.5971443,219.9169703,438.2786031-246.3684135v-168.5694602l-22.3096516-12.4470212-415.9689515,233.9213923-370.8591038-208.5068667,370.8591038-208.5054457,304.9701033,171.6808164,27.4944732-15.0413202v-20.7476178L1477.025732,4.5907409l-438.2786031,246.8862865v26.4534677l438.2786031,246.3684135,391.0866666-220.4354291v91.2869411Z" fill="#ff3621"/>
        </g>
      </g>
    </g>
  </g>
</svg>