<svg width="1212" height="192" viewBox="0 0 1212 192" fill="none" xmlns="http://www.w3.org/2000/svg">
<mask id="mask0_1253_13998" style="mask-type:luminance" maskUnits="userSpaceOnUse" x="0" y="0" width="1212" height="192">
<path d="M1212 0H0V192H1212V0Z" fill="white"/>
</mask>
<g mask="url(#mask0_1253_13998)">
<path d="M302.735 109.525C302.735 114.033 301.673 118.011 299.816 121.458C297.959 125.171 295.04 127.823 291.856 129.945C288.407 132.066 284.427 132.862 280.182 132.862C275.671 132.862 271.957 131.801 268.508 129.945C265.059 127.823 262.405 125.171 260.283 121.458C258.425 118.011 257.364 114.033 257.364 109.525V39.7788H234.016V111.116C234.016 119.337 236.138 126.762 239.853 133.127C243.833 139.757 249.404 144.795 256.303 148.508C263.201 152.221 271.161 154.077 280.182 154.077C288.938 154.077 296.897 152.221 303.796 148.508C310.694 144.795 316.266 139.757 320.246 133.127C324.226 126.762 326.083 119.337 326.083 111.116V39.7788H302.735V109.525Z" fill="#163357"/>
<path d="M403.027 71.8675C398.251 69.2156 392.945 67.8896 386.577 67.8896C380.74 67.8896 375.699 69.2156 371.454 71.3372C368.004 73.1935 365.351 76.1106 363.494 79.8234V69.746H342.268V152.221H365.086V104.221C365.086 101.039 365.617 98.1217 366.943 96.0001C368.27 93.6134 369.862 91.757 372.25 90.4311C374.638 89.1051 377.291 88.5747 380.209 88.5747C383.128 88.5747 385.781 89.1051 388.169 90.4311C390.557 91.757 392.149 93.6134 393.476 96.0001C394.802 98.3869 395.333 101.039 395.333 104.221V152.486H418.151V99.4477C418.151 93.3482 416.824 87.7791 414.171 83.0057C411.252 78.2322 407.538 74.5195 403.027 71.8675Z" fill="#163357"/>
<path d="M454.765 39.7788H431.947V62.3202H454.765V39.7788Z" fill="#163357"/>
<path d="M454.765 69.7461H431.947V152.221H454.765V69.7461Z" fill="#163357"/>
<path d="M500.932 51.1821H478.379V57.2816C478.379 61.5247 477.318 64.707 474.93 66.8285C472.542 68.9501 469.358 70.0109 465.113 70.0109H464.317V89.6352H478.114V122.784C478.114 132.597 480.767 140.022 486.339 145.326C491.911 150.63 499.605 153.282 509.687 153.282C511.279 153.282 513.137 153.282 514.994 153.016C516.851 152.751 518.708 152.751 520.035 152.486V133.392C518.974 133.392 518.178 133.657 517.116 133.657C516.32 133.657 515.524 133.922 514.728 133.922C511.545 133.922 508.891 133.392 506.769 132.597C504.646 131.801 503.054 130.21 501.993 128.353C500.932 126.497 500.401 124.11 500.401 121.193V89.37H519.77V69.7457H500.401V51.1821H500.932Z" fill="#163357"/>
<path d="M572.304 123.05L552.67 70.0113H528.26L560.895 152.486L559.303 155.934C557.977 158.586 556.385 160.973 554.527 162.829C552.67 164.951 549.486 166.011 544.976 166.011C543.384 166.011 541.526 165.746 539.669 165.481C537.812 165.216 535.955 164.951 534.628 164.42V182.984C536.485 183.779 538.343 184.575 540.465 184.84C542.853 185.37 544.976 185.37 547.629 185.37C552.67 185.37 557.181 184.575 561.426 182.718C565.406 180.862 569.12 177.945 572.304 174.232C575.488 170.52 578.141 165.746 580.529 159.912L615.817 69.7461H591.407L572.304 123.05Z" fill="#163357"/>
<path d="M685.067 63.9118C690.108 60.7295 695.945 59.1383 702.578 59.1383C709.211 59.1383 715.313 60.9947 720.089 64.4422C724.865 68.1549 728.314 72.398 730.172 77.967L750.867 67.8897C749.01 62.3206 745.826 57.282 741.05 52.7737C736.539 48.2654 730.968 44.5527 724.6 41.9008C718.232 39.2488 710.803 37.9229 702.578 37.9229C694.353 37.9229 686.924 39.2488 680.025 42.1659C673.127 45.0831 667.025 49.061 661.983 54.3648C656.942 59.6687 652.962 65.7682 650.044 72.6632C647.125 79.8234 645.799 87.514 645.799 96.0002C645.799 104.486 647.125 112.177 650.044 119.072C652.962 126.232 656.942 132.332 661.983 137.636C667.025 142.939 673.127 146.917 680.025 149.834C686.924 152.752 694.353 154.343 702.578 154.343C710.538 154.343 717.967 153.017 724.6 150.365C731.233 147.713 736.539 144 741.05 139.492C745.56 134.984 748.744 129.945 750.867 124.376L730.172 114.299C728.314 119.602 724.865 124.376 720.089 127.823C715.313 131.271 709.476 133.127 702.578 133.127C695.679 133.127 690.108 131.536 685.067 128.354C680.025 125.171 676.046 120.928 673.392 115.359C670.739 109.79 669.147 103.426 669.147 96.0002C669.147 88.5748 670.474 82.2101 673.392 76.6411C676.046 71.072 680.025 66.8289 685.067 63.9118Z" fill="#163357"/>
<path d="M817.198 71.8675C811.891 69.2156 805.789 68.1548 798.625 68.1548C792.788 68.1548 787.482 68.9504 782.44 70.8067C777.399 72.6631 773.154 75.315 769.705 78.4973C766.256 81.6796 763.603 85.9227 762.011 90.431L780.053 98.9172C781.379 95.2045 783.767 92.2874 786.686 90.1658C789.87 88.0443 793.319 86.9835 797.299 86.9835C801.544 86.9835 804.993 88.0443 807.381 90.1658C809.769 92.2874 811.096 94.9393 811.096 98.1216V100.243L788.278 103.956C781.645 105.017 776.338 106.608 771.828 108.995C767.317 111.381 764.133 114.298 762.011 118.011C759.888 121.459 758.827 125.702 758.827 130.21C758.827 135.249 759.888 139.492 762.276 142.939C764.664 146.387 767.848 149.304 772.358 151.16C776.603 153.017 781.91 154.077 787.747 154.077C792.257 154.077 796.237 153.547 799.952 152.221C803.666 151.16 806.85 149.304 809.769 146.917C810.83 146.122 811.626 145.326 812.687 144.265V152.221H833.913V98.1216C833.913 92.2874 832.321 86.9835 829.403 82.4752C826.75 77.9669 822.504 74.2542 817.198 71.8675ZM809.238 128.619C807.646 131.271 805.524 133.658 802.605 135.249C799.687 136.84 796.503 137.635 792.788 137.635C789.87 137.635 787.482 136.84 785.624 135.514C783.767 134.188 782.706 132.066 782.706 129.68C782.706 127.028 783.502 124.906 785.359 123.315C786.951 121.989 789.604 120.928 792.788 120.133L811.626 116.685V119.337C811.361 122.785 810.565 125.702 809.238 128.619Z" fill="#163357"/>
<path d="M878.753 51.1821H856.201V57.2816C856.201 61.5247 855.139 64.707 852.751 66.8285C850.363 68.9501 847.18 70.0109 842.934 70.0109H842.138V89.6352H855.935V122.784C855.935 132.597 858.589 140.022 864.16 145.326C869.732 150.63 877.427 153.282 887.509 153.282C889.366 153.282 890.958 153.282 893.081 153.016C894.938 152.751 896.795 152.751 898.122 152.486V133.392C897.061 133.392 896.265 133.657 895.203 133.657C894.407 133.657 893.611 133.922 892.815 133.922C889.631 133.922 886.978 133.392 884.856 132.597C882.733 131.801 881.141 130.21 880.08 128.353C879.019 126.497 878.488 124.11 878.488 121.458V89.6352H897.856V70.0109H878.488V51.1821H878.753Z" fill="#163357"/>
<path d="M966.045 71.8675C960.738 69.2156 954.636 68.1548 947.737 68.1548C941.9 68.1548 936.594 68.9504 931.553 70.8067C926.511 72.6631 922.266 75.315 918.817 78.4973C915.368 81.6796 912.715 85.9227 911.123 90.431L929.165 98.9172C930.491 95.2045 932.879 92.2874 935.798 90.1658C938.982 88.0443 942.431 86.9835 946.411 86.9835C950.656 86.9835 954.105 88.0443 956.493 90.1658C958.881 92.2874 960.207 94.9393 960.207 98.1216V100.243L937.39 103.956C930.757 105.017 925.45 106.608 920.94 108.995C916.429 111.381 913.245 114.298 911.123 118.011C909 121.459 907.939 125.702 907.939 130.21C907.939 135.249 909 139.492 911.388 142.939C913.776 146.387 916.96 149.304 921.47 151.16C925.715 153.017 931.022 154.077 936.859 154.077C941.37 154.077 945.349 153.547 949.064 152.221C952.778 151.16 955.962 149.304 958.881 146.917C959.942 146.122 960.738 145.326 961.799 144.265V152.221H983.025V98.1216C983.025 92.2874 981.433 86.9835 978.515 82.4752C975.596 77.9669 971.351 74.2542 966.045 71.8675ZM957.82 128.619C956.228 131.271 954.105 133.658 951.186 135.249C948.268 136.84 945.084 137.635 941.369 137.635C938.451 137.635 936.063 136.84 934.206 135.514C932.348 134.188 931.287 132.066 931.287 129.68C931.287 127.028 932.083 124.906 933.94 123.315C935.532 121.989 938.186 120.928 941.369 120.133L960.207 116.685V119.337C960.207 122.785 959.412 125.702 957.82 128.619Z" fill="#163357"/>
<path d="M996.292 152.486H1018.84V41.105L996.292 53.3039V152.486Z" fill="#163357"/>
<path d="M1096.85 73.7238C1090.22 70.0111 1082.79 68.1548 1074.56 68.1548C1066.34 68.1548 1058.91 70.0111 1052.28 73.7238C1045.64 77.4365 1040.34 82.4752 1036.36 89.1051C1032.38 95.7349 1030.52 102.895 1030.52 111.381C1030.52 119.867 1032.64 127.028 1036.36 133.658C1040.07 140.287 1045.64 145.326 1052.28 149.039C1058.91 152.751 1066.34 154.608 1074.56 154.608C1082.79 154.608 1090.22 152.751 1096.85 149.039C1103.48 145.326 1108.79 140.287 1112.77 133.658C1116.75 127.028 1118.61 119.867 1118.61 111.381C1118.61 103.16 1116.48 95.7349 1112.77 89.1051C1109.05 82.4752 1103.48 77.4365 1096.85 73.7238ZM1092.6 122.785C1090.75 126.232 1088.36 128.884 1085.44 130.74C1082.26 132.597 1078.81 133.658 1074.56 133.658C1070.32 133.658 1066.87 132.597 1063.68 130.74C1060.5 128.884 1058.11 126.232 1056.25 122.785C1054.4 119.337 1053.6 115.359 1053.6 110.851C1053.6 106.343 1054.4 102.63 1056.25 99.1824C1058.11 95.7349 1060.5 93.083 1063.68 91.2266C1066.87 89.3703 1070.32 88.3095 1074.56 88.3095C1078.81 88.3095 1082.26 89.3703 1085.44 91.2266C1088.62 93.083 1091.01 96.0001 1092.6 99.1824C1094.46 102.63 1095.26 106.608 1095.26 110.851C1095.26 115.094 1094.46 119.337 1092.6 122.785Z" fill="#163357"/>
<path d="M1190.77 69.7459V78.4973C1188.39 75.5802 1185.47 73.1935 1182.28 71.6023C1177.77 69.2156 1172.73 68.1548 1166.63 68.1548C1158.94 68.1548 1152.3 69.7459 1146.47 73.1935C1140.63 76.641 1135.85 81.4145 1132.4 87.2487C1128.95 93.3482 1127.36 100.243 1127.36 107.934C1127.36 115.624 1128.95 122.519 1132.4 128.619C1135.85 134.718 1140.63 139.492 1146.73 142.939C1152.83 146.387 1159.73 148.243 1167.43 148.243C1173.26 148.243 1178.57 147.182 1183.08 144.796C1185.47 143.47 1187.59 141.879 1189.45 140.022V147.978C1189.45 151.426 1188.65 154.608 1187.33 157.26C1185.73 159.912 1183.88 161.768 1180.96 163.094C1178.04 164.42 1175.12 165.216 1171.41 165.216C1166.63 165.216 1162.65 164.155 1159.2 162.033C1155.75 159.912 1153.63 156.729 1152.3 153.017L1131.34 160.442C1132.93 165.481 1135.85 169.989 1139.83 173.702C1143.81 177.414 1148.32 180.332 1153.89 182.453C1159.47 184.575 1165.3 185.635 1171.67 185.635C1179.63 185.635 1186.53 184.044 1192.63 180.862C1198.73 177.68 1203.51 173.171 1206.96 167.602C1210.41 162.033 1212.27 155.403 1212.27 148.243V70.0111L1190.77 69.7459ZM1187.06 118.542C1185.47 121.459 1183.35 123.845 1180.43 125.437C1177.51 127.028 1174.32 127.823 1170.34 127.823C1166.36 127.823 1163.18 127.028 1160 125.437C1157.08 123.845 1154.69 121.459 1153.1 118.542C1151.51 115.624 1150.71 112.177 1150.71 108.464C1150.71 104.751 1151.51 101.039 1153.1 98.1216C1154.69 95.2045 1157.08 92.8178 1160 91.2266C1162.92 89.6355 1166.36 88.8399 1170.34 88.8399C1174.32 88.8399 1177.24 89.6355 1180.16 91.2266C1183.08 92.8178 1185.2 95.2045 1186.79 98.1216C1188.39 101.039 1189.18 104.486 1189.18 108.464C1189.18 112.442 1188.65 115.624 1187.06 118.542Z" fill="#163357"/>
<path d="M93.6593 63.6465L65.8003 79.8233V112.177L93.6593 128.354L121.518 112.177V79.8233L93.6593 63.6465Z" fill="#163357"/>
<path d="M152.827 61.7901H184.931L168.746 33.9448L152.827 61.7901Z" fill="#FFBC00"/>
<path d="M152.827 129.945L169.011 157.79L184.931 129.945H152.827Z" fill="#FFBC00"/>
<path d="M77.7397 192H109.844L93.6592 164.155L77.7397 192Z" fill="#FFBC00"/>
<path d="M2.65332 129.945L18.5728 157.79L34.7575 129.945H2.65332Z" fill="#FFBC00"/>
<path d="M2.65332 61.7901H34.7575L18.5728 33.9448L2.65332 61.7901Z" fill="#FFBC00"/>
<path d="M77.7397 0L93.9245 27.8453L109.844 0H77.7397Z" fill="#FFBC00"/>
<path d="M124.437 5.30371L105.864 37.6573L138.234 56.2208L156.806 23.8672L124.437 5.30371Z" fill="#F43BA6"/>
<path d="M187.584 77.1714H150.173V114.564H187.584V77.1714Z" fill="#F43BA6"/>
<path d="M138.234 135.514L105.864 154.077L124.437 186.431L156.806 167.867L138.234 135.514Z" fill="#F43BA6"/>
<path d="M49.35 135.514L30.7773 167.867L63.1469 186.431L81.7195 154.077L49.35 135.514Z" fill="#F43BA6"/>
<path d="M37.4107 77.1714H0V114.564H37.4107V77.1714Z" fill="#F43BA6"/>
<path d="M63.1469 5.56885L30.7773 24.1324L49.35 56.486L81.7195 37.9224L63.1469 5.56885Z" fill="#F43BA6"/>
</g>
</svg>
