<svg width="194" height="100" viewBox="0 0 194 100" fill="none" xmlns="http://www.w3.org/2000/svg">
<g clip-path="url(#clip0_1527_702)">
<path d="M43.4295 61.3529L26.3179 31.8768C25.9325 31.2299 24.9818 31.2299 24.5964 31.8768L10.0541 56.9276C9.79712 57.3676 10.2596 57.8851 10.7221 57.6522C10.9019 57.5746 11.1332 57.4711 11.3644 57.3934C11.3644 57.3934 11.7498 57.2382 12.4435 57.0311C13.1886 56.7982 13.9851 56.5912 14.7302 56.41C16.7857 55.9442 19.4835 55.556 21.8986 55.9442C24.1339 56.3065 25.7012 56.9276 26.8317 57.5228C27.3456 57.8075 27.8338 57.1088 27.4227 56.6947C25.804 55.1161 23.2861 53.1752 19.4835 52.3729C19.3293 52.347 19.2265 52.14 19.3293 52.0106L25.0332 42.1508C25.213 41.8143 25.6755 41.8143 25.8811 42.1508L36.8264 60.9906C37.0576 61.3788 36.8521 61.8964 36.441 62.0516C35.5931 62.3363 34.5654 62.5433 33.4092 62.5433C32.6898 62.5433 31.9447 62.4657 31.1996 62.2845C31.1996 62.2845 29.0927 61.9481 26.2408 60.2401C23.4145 58.5321 17.9419 56.3583 11.8269 59.8778C9.20618 61.5599 7.45904 63.889 6.53408 65.3383C6.37992 65.5712 6.63686 65.83 6.8681 65.7006C8.97494 64.5619 14.6531 61.8964 19.7661 62.8539C22.7979 63.4232 26.2922 65.7264 29.8892 67.0721C35.8757 69.2977 41.7338 65.5712 41.7338 65.5453C42.3504 65.1312 42.7101 64.8207 42.7872 64.7689L42.8643 64.6913C43.8406 63.8632 44.0719 62.4657 43.4295 61.3529Z" fill="#00ADD4"/>
<path d="M49.1079 56.876V42.2803C49.1079 42.1509 49.1593 42.0215 49.2621 41.918C49.3648 41.8145 49.4933 41.7627 49.6218 41.7627H55.4028C57.6124 41.7627 59.4366 42.4097 60.8497 43.7295C61.6205 44.4282 62.1858 45.2822 62.5969 46.2656C62.9823 47.249 63.1878 48.3618 63.1878 49.5781C63.1878 50.7944 62.9823 51.9072 62.5969 52.8906C62.2115 53.874 61.6205 54.728 60.8497 55.4268C60.156 56.0737 59.3338 56.5395 58.4346 56.876C57.5353 57.2124 56.5076 57.3677 55.4284 57.3677H49.6475C49.519 57.3677 49.3905 57.3159 49.2878 57.2124C49.1593 57.1348 49.1079 57.0054 49.1079 56.876ZM53.8098 53.46H55.4028C55.7882 53.46 56.1992 53.4082 56.636 53.3047C57.0471 53.2012 57.4325 53.02 57.7665 52.7354C58.1005 52.4507 58.3832 52.0625 58.6144 51.5708C58.82 51.0532 58.9484 50.4063 58.9484 49.604C58.9484 48.8018 58.8456 48.1289 58.6144 47.6372C58.3832 47.1196 58.1005 46.7314 57.7665 46.4727C57.4325 46.188 57.0471 46.0068 56.636 45.9033C56.2249 45.7998 55.8138 45.748 55.4284 45.748H53.8098C53.6813 45.748 53.5528 45.7998 53.4501 45.9033C53.3473 46.0068 53.2959 46.1362 53.2959 46.2656V52.9683C53.2959 53.1235 53.3473 53.227 53.4501 53.3306C53.5271 53.4082 53.6556 53.46 53.8098 53.46Z" fill="#302D2D"/>
<path d="M69.2256 46.2139V47.1196C69.2256 47.249 69.277 47.3784 69.3797 47.4819C69.4825 47.5854 69.611 47.6372 69.7394 47.6372H75.469C75.5975 47.6372 75.726 47.689 75.8287 47.7925C75.9315 47.896 75.9829 48.0254 75.9829 48.1548V51.105C75.9829 51.2344 75.9315 51.3638 75.8287 51.4673C75.726 51.5708 75.5975 51.6226 75.469 51.6226H69.7394C69.611 51.6226 69.4825 51.6743 69.3797 51.7778C69.277 51.8813 69.2256 52.0107 69.2256 52.1401V52.9424C69.2256 53.0977 69.277 53.2012 69.3797 53.3047C69.4825 53.4082 69.611 53.46 69.7394 53.46H76.3169C76.4454 53.46 76.5738 53.5117 76.6766 53.6152C76.7794 53.7187 76.8308 53.8481 76.8308 53.9775V56.9277C76.8308 57.083 76.7794 57.1865 76.6766 57.29C76.5738 57.3936 76.4454 57.4453 76.3169 57.4453H65.5515C65.423 57.4453 65.2945 57.3936 65.1918 57.29C65.089 57.1865 65.0376 57.0571 65.0376 56.9277V42.2803C65.0376 42.1509 65.089 42.0215 65.1918 41.918C65.2945 41.8145 65.423 41.7627 65.5515 41.7627H76.3169C76.4454 41.7627 76.5738 41.8145 76.6766 41.918C76.7794 42.0215 76.8308 42.1509 76.8308 42.2803V45.1787C76.8308 45.334 76.7794 45.4375 76.6766 45.541C76.5738 45.6445 76.4454 45.6963 76.3169 45.6963H69.7394C69.611 45.6963 69.4825 45.748 69.3797 45.8516C69.2513 45.9551 69.2256 46.0586 69.2256 46.2139Z" fill="#302D2D"/>
<path d="M91.0649 53.9775V56.876C91.0649 57.0312 91.0135 57.1348 90.9107 57.2383C90.8079 57.3418 90.6795 57.3936 90.551 57.3936H79.9911C79.8369 57.3936 79.7085 57.3418 79.6314 57.2383C79.5286 57.1348 79.5029 57.0054 79.5029 56.876V42.2803C79.5029 42.1509 79.5543 42.0215 79.6314 41.918C79.7342 41.8145 79.8369 41.7627 79.9911 41.7627H83.1771C83.3055 41.7627 83.434 41.8145 83.5368 41.918C83.6395 42.0215 83.6909 42.1509 83.6909 42.2803V52.9424C83.6909 53.0977 83.7423 53.2012 83.8194 53.3047C83.9222 53.4082 84.0249 53.46 84.1791 53.46H90.551C90.6795 53.46 90.8079 53.5117 90.9107 53.6152C91.0135 53.7187 91.0649 53.8223 91.0649 53.9775Z" fill="#302D2D"/>
<path d="M100.905 45.6963H97.9507C97.8222 45.6963 97.6938 45.748 97.591 45.8516C97.4882 45.9551 97.4369 46.0845 97.4369 46.2139V56.876C97.4369 57.0312 97.3855 57.1348 97.3084 57.2383C97.2056 57.3418 97.1028 57.3936 96.9487 57.3936H93.7627C93.6343 57.3936 93.5058 57.3418 93.403 57.2383C93.3003 57.1348 93.2489 57.0054 93.2489 56.876V46.2139C93.2489 46.0845 93.1975 45.9551 93.1204 45.8516C93.0176 45.748 92.9149 45.6963 92.7607 45.6963H89.7546C89.6004 45.6963 89.4977 45.6445 89.3949 45.541C89.2921 45.4375 89.2407 45.3081 89.2407 45.1787V42.2803C89.2407 42.1509 89.2921 42.0215 89.3949 41.918C89.4977 41.8145 89.6004 41.7627 89.7546 41.7627H100.931C101.085 41.7627 101.214 41.8145 101.291 41.918C101.394 42.0215 101.419 42.1509 101.419 42.2803V45.1787C101.419 45.334 101.368 45.4375 101.291 45.541C101.188 45.6445 101.06 45.6963 100.905 45.6963Z" fill="#302D2D"/>
<path d="M105.967 42.2539C106.018 42.1245 106.121 42.021 106.25 41.9175C106.378 41.814 106.532 41.7881 106.687 41.7881H109.641C109.77 41.7881 109.924 41.8398 110.052 41.9175C110.181 42.021 110.284 42.1245 110.335 42.2539L116.527 56.7461C116.578 56.8755 116.578 57.0049 116.501 57.1602C116.424 57.2896 116.27 57.3672 116.039 57.3672H112.416C112.262 57.3672 112.108 57.3154 111.979 57.2378C111.851 57.1343 111.748 57.0308 111.671 56.9014L111.106 55.6333C111.029 55.5039 110.926 55.4004 110.797 55.2969C110.669 55.1934 110.515 55.1675 110.386 55.1675H105.916C105.762 55.1675 105.607 55.2192 105.479 55.2969C105.35 55.4004 105.248 55.5039 105.196 55.6333L104.605 56.9014C104.554 57.0308 104.451 57.1343 104.323 57.2378C104.194 57.3413 104.04 57.3672 103.912 57.3672H100.263C100.186 57.3672 100.109 57.3413 100.032 57.3154C99.9549 57.2896 99.9035 57.2378 99.8521 57.186C99.8007 57.1343 99.775 57.0566 99.7493 56.979C99.7236 56.9014 99.7493 56.7979 99.8007 56.6685L105.967 42.2539ZM107.226 51.5444H109.102C109.23 51.5444 109.333 51.4927 109.41 51.415C109.461 51.3115 109.461 51.208 109.41 51.0786C109.282 50.7163 109.102 50.3022 108.896 49.8364C108.691 49.3706 108.511 48.9048 108.357 48.4907C108.305 48.3613 108.228 48.3096 108.177 48.3096C108.1 48.3096 108.048 48.3613 107.997 48.4907L106.943 51.0786C106.892 51.208 106.892 51.3115 106.943 51.415C106.969 51.4927 107.072 51.5444 107.226 51.5444Z" fill="#302D2D"/>
<path d="M136.825 53.9775V56.876C136.825 57.0312 136.773 57.1348 136.671 57.2383C136.568 57.3418 136.439 57.3936 136.311 57.3936H125.751C125.597 57.3936 125.468 57.3418 125.391 57.2383C125.288 57.1348 125.263 57.0054 125.263 56.876V42.2803C125.263 42.1509 125.314 42.0215 125.391 41.918C125.494 41.8145 125.597 41.7627 125.751 41.7627H128.937C129.065 41.7627 129.194 41.8145 129.297 41.918C129.399 42.0215 129.451 42.1509 129.451 42.2803V52.9424C129.451 53.0977 129.502 53.2012 129.579 53.3047C129.682 53.4082 129.785 53.46 129.939 53.46H136.311C136.439 53.46 136.568 53.5117 136.671 53.6152C136.773 53.7187 136.825 53.8223 136.825 53.9775Z" fill="#302D2D"/>
<path d="M143.351 42.2539C143.402 42.1245 143.505 42.021 143.633 41.9175C143.762 41.814 143.916 41.7881 144.07 41.7881H147.025C147.153 41.7881 147.308 41.8398 147.436 41.9175C147.565 42.021 147.667 42.1245 147.719 42.2539L153.911 56.7461C153.962 56.8755 153.962 57.0049 153.885 57.1602C153.808 57.2896 153.654 57.3672 153.423 57.3672H149.8C149.646 57.3672 149.492 57.3154 149.363 57.2378C149.235 57.1343 149.132 57.0308 149.055 56.9014L148.49 55.6333C148.412 55.5039 148.31 55.4004 148.181 55.2969C148.053 55.1934 147.899 55.1675 147.77 55.1675H143.299C143.145 55.1675 142.991 55.2192 142.863 55.2969C142.734 55.4004 142.631 55.5039 142.58 55.6333L141.989 56.9014C141.938 57.0308 141.835 57.1343 141.707 57.2378C141.578 57.3413 141.424 57.3672 141.295 57.3672H137.647C137.57 57.3672 137.493 57.3413 137.416 57.3154C137.339 57.2896 137.287 57.2378 137.236 57.186C137.185 57.1343 137.159 57.0566 137.133 56.979C137.107 56.9014 137.133 56.7979 137.185 56.6685L143.351 42.2539ZM144.584 51.5444H146.46C146.588 51.5444 146.691 51.4927 146.768 51.415C146.819 51.3115 146.819 51.208 146.768 51.0786C146.64 50.7163 146.46 50.3022 146.254 49.8364C146.049 49.3706 145.869 48.9048 145.715 48.4907C145.663 48.3613 145.586 48.3096 145.535 48.3096C145.483 48.3096 145.406 48.3613 145.355 48.4907L144.302 51.0786C144.25 51.208 144.25 51.3115 144.302 51.415C144.327 51.4927 144.43 51.5444 144.584 51.5444Z" fill="#302D2D"/>
<path d="M164.085 57.0054L159.974 52.373C159.871 52.2695 159.794 52.2178 159.743 52.2437C159.692 52.2695 159.64 52.3472 159.64 52.5024V56.876C159.64 57.0312 159.589 57.1348 159.486 57.2383C159.383 57.3418 159.255 57.3936 159.126 57.3936H155.94C155.786 57.3936 155.658 57.3418 155.581 57.2383C155.478 57.1348 155.452 57.0054 155.452 56.876V42.2803C155.452 42.1509 155.504 42.0215 155.581 41.918C155.683 41.8145 155.786 41.7627 155.94 41.7627H159.126C159.255 41.7627 159.383 41.8145 159.486 41.918C159.589 42.0215 159.64 42.1509 159.64 42.2803V47.1973C159.64 47.3525 159.666 47.4302 159.717 47.4302C159.769 47.4561 159.846 47.4043 159.923 47.3008L163.725 42.2026C163.802 42.0991 163.931 41.9956 164.085 41.918C164.239 41.8403 164.393 41.7886 164.548 41.7886H168.581C168.736 41.7886 168.838 41.8662 168.89 41.9956C168.941 42.125 168.915 42.2544 168.838 42.3579L163.289 49.397C163.211 49.5005 163.16 49.6299 163.16 49.7852C163.16 49.9404 163.212 50.0698 163.314 50.1475C163.802 50.665 164.291 51.2085 164.83 51.7778C165.37 52.3472 165.909 52.9165 166.423 53.4858C166.963 54.0552 167.477 54.6245 167.99 55.1938C168.504 55.7632 168.992 56.2808 169.455 56.7725C169.558 56.876 169.583 57.0054 169.558 57.1606C169.532 57.29 169.429 57.3677 169.275 57.3677H164.882C164.727 57.3677 164.573 57.3418 164.393 57.2642C164.291 57.2124 164.188 57.1089 164.085 57.0054Z" fill="#302D2D"/>
<path d="M175.133 46.2139V47.1196C175.133 47.249 175.184 47.3784 175.287 47.4819C175.39 47.5854 175.493 47.6372 175.647 47.6372H181.376C181.505 47.6372 181.633 47.689 181.736 47.7925C181.839 47.896 181.89 48.0254 181.89 48.1548V51.105C181.89 51.2344 181.839 51.3638 181.736 51.4673C181.633 51.5708 181.505 51.6226 181.376 51.6226H175.647C175.493 51.6226 175.39 51.6743 175.287 51.7778C175.184 51.8813 175.133 52.0107 175.133 52.1401V52.9424C175.133 53.0977 175.184 53.2012 175.287 53.3047C175.39 53.4082 175.493 53.46 175.647 53.46H182.224C182.353 53.46 182.481 53.5117 182.584 53.6152C182.687 53.7187 182.738 53.8481 182.738 53.9775V56.9277C182.738 57.083 182.687 57.1865 182.584 57.29C182.481 57.3936 182.353 57.4453 182.224 57.4453H171.459C171.33 57.4453 171.202 57.3936 171.099 57.29C170.996 57.1865 170.945 57.0571 170.945 56.9277V42.2803C170.945 42.1509 170.996 42.0215 171.099 41.918C171.202 41.8145 171.33 41.7627 171.459 41.7627H182.224C182.353 41.7627 182.481 41.8145 182.584 41.918C182.687 42.0215 182.738 42.1509 182.738 42.2803V45.1787C182.738 45.334 182.687 45.4375 182.584 45.541C182.481 45.6445 182.353 45.6963 182.224 45.6963H175.647C175.493 45.6963 175.39 45.748 175.287 45.8516C175.184 45.9551 175.133 46.0586 175.133 46.2139Z" fill="#302D2D"/>
</g>
<defs>
<clipPath id="clip0_1527_702">
<rect width="194" height="100" fill="white"/>
</clipPath>
</defs>
</svg>
