<svg width="1105" height="376" viewBox="0 0 1105 376" fill="none" xmlns="http://www.w3.org/2000/svg">
<mask id="mask0_1253_14029" style="mask-type:luminance" maskUnits="userSpaceOnUse" x="0" y="0" width="1105" height="376">
<path d="M1105 0H0V376H1105V0Z" fill="white"/>
</mask>
<g mask="url(#mask0_1253_14029)">
<path d="M479.675 168.763C468.994 168.763 459.284 166.5 450.868 161.974C442.453 157.448 435.656 151.305 431.125 143.546C426.27 135.787 424.004 126.734 424.004 116.712V30.3901H452.487V115.095C452.487 120.591 453.781 125.441 456.047 129.644C458.313 133.847 461.549 137.403 465.757 139.666C469.965 141.929 474.496 143.222 479.998 143.222C485.501 143.222 490.032 141.929 494.24 139.666C498.447 137.403 501.684 133.847 503.95 129.644C506.215 125.441 507.51 120.591 507.51 115.095V30.3901H535.993V116.712C535.993 126.734 533.727 135.787 528.872 143.546C524.017 151.305 517.544 157.771 509.129 161.974C500.066 166.5 490.356 168.763 479.675 168.763Z" fill="#163357"/>
<path d="M641.832 82.4418C638.596 76.6224 634.388 72.4195 628.562 69.1864C622.736 65.9534 616.263 64.3369 608.818 64.3369C601.697 64.3369 595.871 65.6301 590.693 68.5398C586.485 70.803 583.248 74.3593 580.983 78.8855V66.6H555.413V166.824H582.925V108.306C582.925 104.426 583.572 101.193 585.191 98.2836C586.809 95.3739 588.751 93.4341 591.664 91.8176C594.577 90.2011 597.49 89.5545 601.05 89.5545C604.61 89.5545 607.847 90.2011 610.76 91.8176C613.673 93.4341 615.615 95.6972 617.233 98.2836C618.852 100.87 619.499 104.426 619.499 108.306V166.824H647.011V102.487C646.687 94.7273 645.069 88.2613 641.832 82.4418Z" fill="#163357"/>
<path d="M664.165 57.8708V30.3901H691.677V57.8708H664.165ZM664.165 166.824V66.5999H691.677V166.824H664.165Z" fill="#163357"/>
<path d="M758.029 167.794C746.053 167.794 736.667 164.561 729.87 158.095C723.073 151.629 719.836 142.576 719.836 130.614V90.5247H703.005V66.6004H703.976C709.155 66.6004 713.039 65.3072 715.952 62.7207C718.541 60.1343 720.16 56.2547 720.16 51.0819V43.9692H747.671V66.6004H771.299V90.5247H747.671V128.674C747.671 132.231 748.319 134.817 749.614 137.08C750.908 139.343 752.85 140.96 755.439 142.253C758.029 143.546 761.266 143.87 764.826 143.87C765.797 143.87 766.768 143.869 767.739 143.546C768.71 143.546 770.005 143.223 771.299 143.223V166.824C769.357 167.147 767.415 167.147 765.15 167.471C762.236 167.794 759.971 167.794 758.029 167.794Z" fill="#163357"/>
<path d="M857.718 66.6001L834.091 130.937L810.463 66.6001H781.009L820.173 166.5L818.231 170.703C816.613 173.936 814.994 176.846 812.405 179.109C810.139 181.696 806.255 182.989 800.753 182.989C798.811 182.989 796.545 182.665 794.28 182.342C792.014 182.019 790.072 181.696 788.13 181.049V203.68C790.072 204.65 792.661 205.62 795.251 205.943C798.164 206.59 800.753 206.59 803.666 206.59C809.816 206.59 815.318 205.62 820.173 203.357C825.028 201.094 829.559 197.537 833.443 193.011C837.327 188.485 840.564 182.665 843.477 175.876L887.172 66.6001H857.718Z" fill="#163357"/>
<path d="M487.443 338.174C477.733 338.174 468.67 336.557 460.255 333.001C451.84 329.445 444.719 324.595 438.246 318.129C432.096 311.663 427.241 304.227 423.681 295.821C420.12 287.416 418.502 278.04 418.502 267.694C418.502 257.348 420.12 248.296 423.681 239.567C427.241 230.838 431.772 223.402 438.246 217.259C444.395 211.116 451.84 205.943 460.255 202.71C468.67 199.154 477.733 197.538 487.767 197.538C497.8 197.538 506.539 199.154 514.307 202.387C522.075 205.62 528.872 210.146 534.375 215.642C539.877 221.139 543.761 227.281 546.027 234.071L520.781 246.033C518.515 239.567 514.307 234.071 508.481 229.544C502.655 225.342 495.535 223.078 487.443 223.078C479.351 223.078 472.231 225.018 466.081 228.898C459.931 232.777 455.076 237.95 451.84 244.416C448.603 251.206 446.661 258.965 446.661 267.694C446.661 276.423 448.279 284.506 451.84 290.972C455.076 297.761 459.931 302.934 466.081 306.814C472.231 310.693 479.351 312.633 487.443 312.633C495.535 312.633 502.655 310.37 508.481 306.167C514.307 301.964 518.191 296.468 520.781 289.679L546.027 301.641C543.761 308.43 539.877 314.573 534.375 320.069C528.872 325.565 522.075 330.091 514.307 333.324C506.216 336.557 497.477 338.174 487.443 338.174Z" fill="#163357"/>
<path d="M711.744 337.204C699.768 337.204 690.382 333.971 683.585 327.504C676.788 321.038 673.551 311.986 673.551 300.024V259.934H656.721V236.01H657.692C662.87 236.01 666.754 234.717 669.667 232.13C672.257 229.544 673.875 225.664 673.875 220.492V213.056H701.387V235.687H725.014V259.611H701.387V297.761C701.387 301.317 702.034 303.903 703.329 306.167C704.624 308.43 706.566 310.046 709.155 311.339C711.744 312.309 714.981 312.956 718.541 312.956C719.512 312.956 720.483 312.956 721.454 312.633C722.425 312.633 723.72 312.309 725.014 312.309V335.587C723.072 335.91 721.131 335.91 718.865 336.234C715.952 336.88 713.686 337.204 711.744 337.204Z" fill="#163357"/>
<path d="M626.62 238.273C620.147 235.364 612.702 233.747 604.287 233.747C597.166 233.747 590.693 234.717 584.543 236.98C578.394 239.243 573.539 242.153 569.007 246.356C564.8 250.235 561.563 255.085 559.621 260.904L581.63 271.25C583.248 266.724 586.161 263.168 589.722 260.581C593.606 257.995 597.814 256.702 602.669 256.702C607.847 256.702 611.731 257.995 614.968 260.581C617.881 263.168 619.499 266.401 619.499 269.957V272.543L591.664 277.07C583.572 278.363 577.099 280.303 571.92 283.212C566.741 286.122 562.534 289.678 559.944 294.205C557.355 298.407 556.061 303.58 556.061 309.076C556.061 315.219 557.355 320.069 560.268 324.595C563.181 328.798 567.065 332.354 572.244 334.617C577.423 336.88 583.572 338.174 591.017 338.174C596.519 338.174 601.374 337.527 605.582 335.91C610.113 334.617 613.997 332.354 617.557 329.444C618.852 328.475 619.823 327.505 621.118 326.211V335.587H646.687V269.957C646.687 262.844 644.745 256.378 641.185 250.882C637.948 245.709 633.093 241.506 626.62 238.273ZM616.586 307.137C614.644 310.37 612.055 313.279 608.494 315.219C604.934 317.159 601.05 318.129 596.519 318.129C592.959 318.129 590.369 317.159 587.78 315.542C585.514 313.926 584.219 311.34 584.219 308.43C584.219 305.197 585.19 302.61 587.456 300.671C589.398 299.054 592.635 297.761 596.519 296.791L619.176 292.588V295.821C619.499 300.024 618.528 303.904 616.586 307.137Z" fill="#163357"/>
<path d="M822.115 251.205C818.554 245.709 813.376 241.506 806.902 238.597C800.429 235.687 792.985 234.07 784.569 234.07C777.449 234.07 770.975 235.04 764.826 237.303C758.676 239.566 753.821 242.476 749.289 246.679C745.082 250.559 741.845 255.408 739.903 261.228L761.913 271.573C763.531 267.047 766.444 263.491 770.004 260.904C773.888 258.318 778.096 257.025 782.951 257.025C788.13 257.025 792.014 258.318 795.25 260.904C798.163 263.491 799.782 266.724 799.782 270.28V272.867L771.946 277.393C763.854 278.686 757.381 280.626 752.203 283.535C747.024 286.445 742.816 290.002 740.227 294.528C737.637 298.731 736.343 303.903 736.343 309.4C736.343 315.542 737.638 320.392 740.551 324.918C743.464 329.121 747.347 332.677 752.526 334.94C757.705 337.204 763.855 338.497 771.299 338.497C776.801 338.497 781.656 337.85 785.864 336.234C790.395 334.94 794.279 332.677 797.84 329.768C799.134 328.798 800.105 327.828 801.4 326.535V335.91H826.97V269.957C827.293 262.844 825.675 256.378 822.115 251.205ZM797.192 307.137C795.25 310.37 792.661 313.279 789.101 315.219C785.54 317.159 781.656 318.129 777.125 318.129C773.565 318.129 770.975 317.159 768.386 315.542C766.12 313.926 764.826 311.339 764.826 308.43C764.826 305.197 765.797 302.61 768.062 300.67C770.004 299.054 773.241 297.761 777.125 296.791L799.782 292.588V295.821C800.105 300.024 799.134 303.903 797.192 307.137Z" fill="#163357"/>
<path d="M843.8 335.911V215.642L871.312 201.094V336.234H843.8V335.911Z" fill="#163357"/>
<path d="M938.635 338.173C928.601 338.173 919.862 335.91 911.447 331.384C903.355 326.858 896.882 320.715 892.027 312.956C887.172 305.197 884.906 296.144 884.906 286.122C884.906 276.1 887.172 267.047 892.027 259.288C896.882 251.529 903.355 245.386 911.447 240.86C919.539 236.333 928.601 234.07 938.635 234.07C948.669 234.07 957.408 236.333 965.499 240.86C973.591 245.386 980.065 251.529 984.92 259.288C989.775 267.047 992.04 276.1 992.04 286.122C992.04 296.144 989.775 305.197 984.92 312.956C980.065 320.715 973.591 327.181 965.499 331.384C957.408 335.91 948.345 338.173 938.635 338.173ZM938.635 313.279C943.49 313.279 948.021 311.986 951.582 309.723C955.466 307.46 958.379 304.227 960.321 300.024C962.586 295.821 963.557 290.971 963.557 285.799C963.557 280.302 962.586 275.776 960.321 271.573C958.055 267.37 955.142 264.137 951.582 261.874C947.698 259.611 943.49 258.318 938.635 258.318C933.78 258.318 929.249 259.611 925.365 261.874C921.481 264.137 918.568 267.37 916.626 271.573C914.36 275.776 913.389 280.302 913.389 285.799C913.389 291.295 914.36 295.821 916.626 300.024C918.891 304.227 921.804 307.46 925.365 309.723C929.249 312.309 933.456 313.279 938.635 313.279Z" fill="#163357"/>
<path d="M1079.43 236.01V246.679C1076.52 243.123 1072.96 240.213 1069.07 238.273C1063.57 235.364 1057.42 234.07 1050.3 234.07C1041.24 234.07 1032.82 236.01 1025.7 240.213C1018.58 244.416 1012.75 249.912 1008.55 257.348C1004.34 264.461 1002.4 272.867 1002.4 282.242C1002.4 291.618 1004.34 300.024 1008.55 307.46C1012.75 314.896 1018.58 320.715 1025.7 324.918C1033.15 329.121 1041.24 331.384 1050.62 331.384C1057.74 331.384 1064.22 330.091 1069.4 327.181C1072.31 325.565 1074.9 323.625 1077.16 321.362V331.061C1077.16 335.264 1076.19 339.143 1074.58 342.376C1072.96 345.609 1070.37 347.873 1066.81 349.489C1063.57 351.106 1059.69 352.075 1055.16 352.075C1049.33 352.075 1044.47 350.782 1040.27 348.196C1036.06 345.609 1033.47 341.73 1032.17 337.204L1006.61 346.256C1008.55 352.399 1012.11 357.895 1016.64 362.421C1021.49 366.947 1027 370.504 1033.47 373.09C1039.94 375.676 1047.06 376.97 1054.83 376.97C1064.54 376.97 1072.96 375.03 1080.4 371.15C1087.85 367.271 1093.67 361.775 1097.88 354.985C1102.09 348.196 1104.35 340.113 1104.35 331.384V236.01H1079.43ZM1074.58 294.851C1072.63 298.407 1070.04 300.994 1066.48 302.934C1062.92 304.873 1059.04 305.843 1054.51 305.843C1049.98 305.843 1045.77 304.873 1042.21 302.934C1038.65 300.994 1035.74 298.084 1033.79 294.528C1031.85 290.971 1030.88 286.768 1030.88 282.242C1030.88 277.716 1031.85 273.19 1033.79 269.634C1035.74 266.077 1038.65 263.167 1042.21 261.228C1045.77 259.288 1049.98 258.318 1054.51 258.318C1059.04 258.318 1062.92 259.288 1066.48 261.228C1070.04 263.167 1072.63 266.077 1074.58 269.634C1076.52 273.19 1077.49 277.393 1077.49 282.242C1077.49 287.092 1076.52 291.295 1074.58 294.851Z" fill="#163357"/>
<path d="M180.282 122.208L126.554 153.245V215.319L180.282 246.356L234.011 215.319V153.245L180.282 122.208Z" fill="#163357"/>
<path d="M293.566 118.975H355.387L324.314 65.3071L293.566 118.975Z" fill="#FFBC00"/>
<path d="M293.566 249.912L324.638 303.58L355.71 249.912H293.566Z" fill="#FFBC00"/>
<path d="M149.21 368.564H211.031L179.959 314.896L149.21 368.564Z" fill="#FFBC00"/>
<path d="M4.85498 249.912L35.9271 303.58L66.999 249.912H4.85498Z" fill="#FFBC00"/>
<path d="M4.85498 118.975H66.6754L35.6034 65.3071L4.85498 118.975Z" fill="#FFBC00"/>
<path d="M149.21 0L180.282 53.6681L211.355 0H149.21Z" fill="#FFBC00"/>
<path d="M239.19 10.6689L203.263 72.7429L265.407 108.629L301.334 46.5554L239.19 10.6689Z" fill="#F43BA6"/>
<path d="M360.242 148.396H288.388V220.169H360.242V148.396Z" fill="#F43BA6"/>
<path d="M265.407 260.258L203.263 296.144L239.19 358.218L301.334 322.332L265.407 260.258Z" fill="#F43BA6"/>
<path d="M94.8344 260.258L58.9072 322.332L121.051 358.218L156.978 296.144L94.8344 260.258Z" fill="#F43BA6"/>
<path d="M71.8541 148.396H0V220.169H71.8541V148.396Z" fill="#F43BA6"/>
<path d="M121.051 10.6689L58.9072 46.5554L94.8344 108.629L156.978 72.7429L121.051 10.6689Z" fill="#F43BA6"/>
</g>
</svg>
