<svg width="150" height="150" viewBox="0 0 150 150" fill="none" xmlns="http://www.w3.org/2000/svg">
<g clip-path="url(#clip0_3305_2125)">
<path d="M68.37 74.16C68.37 95.05 85.3 111.98 106.19 111.98V126.76C77.14 126.76 53.6 103.21 53.6 74.17" stroke="#FF5F46" stroke-width="3" stroke-miterlimit="3"/>
<path d="M68.37 74.16C68.37 53.27 51.44 36.34 30.55 36.34V21.56C59.6 21.56 83.14 45.11 83.14 74.15" stroke="#FF5F46" stroke-width="3" stroke-miterlimit="3"/>
<path d="M53.59 74.16H44.22" stroke="#FF5F46" stroke-width="3" stroke-miterlimit="3"/>
<path d="M92.49 74.16H83.12" stroke="#FF5F46" stroke-width="3" stroke-miterlimit="3"/>
<path d="M53.59 74.16C53.59 61.42 43.29 51.1 30.55 51.1V57.85H18.82V47.14" stroke="#FF5F46" stroke-width="3" stroke-miterlimit="3"/>
<path d="M30.55 21.56V15.67H18.82V25.27" stroke="#FF5F46" stroke-width="3" stroke-miterlimit="3"/>
<path d="M126.94 128.97H139.18V116.73H126.94V122.85H117.92V132.66H106.18V126.75" stroke="#FF5F46" stroke-width="3" stroke-miterlimit="3"/>
<path d="M117.92 99.98V121.87" stroke="#FF5F46" stroke-width="3" stroke-miterlimit="3"/>
<path d="M83.14 74.16C83.14 86.9 93.44 97.22 106.18 97.22V91.39H117.91V107.88H125.76L132.47 95.3L139.18 107.88H130.56" stroke="#FF5F46" stroke-width="3" stroke-miterlimit="3"/>
<path d="M21.92 32.01C20.61 30.28 18.53 29.16 16.19 29.16C12.23 29.16 9.01 32.37 9.01 36.34C9.01 40.31 12.22 43.52 16.19 43.52C20.16 43.52 23.37 40.31 23.37 36.34H30.55" stroke="#FF5F46" stroke-width="3" stroke-miterlimit="3"/>
</g>
<defs>
<clipPath id="clip0_3305_2125">
<rect width="150" height="150" fill="white"/>
</clipPath>
</defs>
</svg>
