<svg width="150" height="150" viewBox="0 0 150 150" fill="none" xmlns="http://www.w3.org/2000/svg">
<path fill-rule="evenodd" clip-rule="evenodd" d="M76.5717 78.39C76.7315 79.3159 76.8134 80.2597 76.8134 81.2119H51.1957C46.796 81.2119 42.5764 79.4641 39.4654 76.353C37.0276 73.9152 35.4268 70.7968 34.8481 67.4445C34.6883 66.5186 34.6064 65.5748 34.6064 64.6226H60.2241C64.6239 64.6226 68.8434 66.3704 71.9545 69.4815C74.3923 71.9193 75.993 75.0376 76.5717 78.39ZM37.7206 67.4445C38.265 70.0436 39.5545 72.4513 41.4608 74.3576C44.0426 76.9395 47.5444 78.39 51.1957 78.39H73.6992C73.1548 75.7908 71.8653 73.3831 69.9591 71.4769C67.3772 68.895 63.8754 67.4445 60.2241 67.4445H37.7206Z" fill="#FF5F46"/>
<path fill-rule="evenodd" clip-rule="evenodd" d="M43.1011 91.3441C42.8955 90.4249 42.7894 89.479 42.7894 88.5222H62.7577C66.1871 88.5222 69.4761 89.8846 71.9011 92.3096C73.6496 94.058 74.8456 96.2556 75.3769 98.6312C75.5824 99.5504 75.6885 100.496 75.6885 101.453H55.7203C52.2908 101.453 49.0018 100.091 46.5768 97.6657C44.8284 95.9173 43.6324 93.7197 43.1011 91.3441ZM46.0132 91.3441C46.4842 92.9643 47.3578 94.4559 48.5722 95.6704C50.468 97.5662 53.0393 98.6312 55.7203 98.6312H72.4647C71.9937 97.0111 71.1202 95.5194 69.9057 94.305C68.0099 92.4092 65.4387 91.3441 62.7577 91.3441H46.0132Z" fill="#FF5F46"/>
<path fill-rule="evenodd" clip-rule="evenodd" d="M93.4066 101.45C95.1048 101.451 96.7865 101.117 98.3555 100.467C99.9245 99.8173 101.35 98.8649 102.551 97.664C103.752 96.4632 104.704 95.0375 105.354 93.4685C105.64 92.7785 105.864 92.0668 106.026 91.3415C106.232 90.4194 106.337 89.4753 106.337 88.5261C106.337 88.5239 106.337 88.5217 106.337 88.5195H86.3727L86.3695 88.5228C82.9409 88.5228 79.6527 89.8848 77.2283 92.3092C75.4805 94.057 74.2848 96.2538 73.7536 98.6285C73.548 99.5477 73.4419 100.494 73.4419 101.45H93.4066ZM76.6658 98.6285H93.4066C94.7341 98.6288 96.0494 98.3676 97.2759 97.8598C98.5024 97.3519 99.6169 96.6073 100.556 95.6686C101.494 94.7299 102.239 93.6155 102.747 92.3889C102.889 92.0461 103.011 91.6964 103.114 91.3415H87.5421L87.5388 91.3447H86.3695C83.6893 91.3447 81.1189 92.4094 79.2237 94.3046C78.0099 95.5184 77.1367 97.0093 76.6658 98.6285Z" fill="#FF5F46"/>
<path fill-rule="evenodd" clip-rule="evenodd" d="M98.4078 81.2144C100.587 81.2149 102.744 80.7862 104.757 79.9527C106.77 79.1192 108.599 77.8973 110.139 76.3567C111.68 74.8161 112.902 72.9871 113.735 70.9741C114.206 69.8371 114.548 68.654 114.756 67.4469C114.916 66.5198 114.997 65.5786 114.997 64.6334C114.997 64.6306 114.997 64.6278 114.997 64.625H89.3839L89.3797 64.6292C84.9811 64.6292 80.7626 66.3766 77.6523 69.4869C75.2153 71.9239 73.6151 75.0412 73.0364 78.3924C72.8766 79.3184 72.7947 80.2621 72.7947 81.2144H98.4078ZM75.9089 78.3924H98.4078C100.216 78.3929 102.007 78.0371 103.677 77.3454C105.348 76.6538 106.866 75.6397 108.144 74.3613C109.422 73.0828 110.436 71.565 111.128 69.8946C111.456 69.102 111.709 68.2825 111.884 67.4469H90.5533L90.5491 67.4511H89.3797C85.7295 67.4511 82.2288 68.9012 79.6477 71.4823C77.7423 73.3878 76.4532 75.7944 75.9089 78.3924Z" fill="#FF5F46"/>
<path fill-rule="evenodd" clip-rule="evenodd" d="M138.545 54.8814L131.927 66.1976L120.61 59.5787L122.051 57.1151L130.904 62.293L136.082 53.4404L138.545 54.8814Z" fill="#FF5F46"/>
<path fill-rule="evenodd" clip-rule="evenodd" d="M17.6173 63.8945L17.4713 63.8648C22.9321 37.0483 46.7213 16.8672 75.1899 16.8672C103.663 16.8672 127.449 37.1483 132.909 64.056L130.112 64.6236C129.171 59.9885 127.659 55.5602 125.653 51.4157L125.355 51.5639C113.709 28.1742 86.8461 15.3961 60.6832 22.4064C34.5157 29.4179 17.6207 53.8274 19.2053 79.8107L16.3565 79.9844C16.0226 74.5096 16.4689 69.1017 17.6173 63.8945Z" fill="#FF5F46"/>
<path fill-rule="evenodd" clip-rule="evenodd" d="M18.0737 85.124L29.3899 91.7429L27.9489 94.2065L19.0963 89.0286L13.9184 97.8812L11.4548 96.4402L18.0737 85.124Z" fill="#FF5F46"/>
<path fill-rule="evenodd" clip-rule="evenodd" d="M74.8578 26.1973C75.6664 27.0059 76.4088 27.8564 77.0851 28.742C83.9952 37.7912 83.9952 50.5009 77.0851 59.5501C76.4088 60.4357 75.6664 61.2862 74.8578 62.0948C74.0492 61.2862 73.3068 60.4357 72.6305 59.5501C65.7204 50.5009 65.7204 37.7912 72.6305 28.742C73.3068 27.8564 74.0492 27.0059 74.8578 26.1973ZM74.8578 56.8858C69.4756 49.2963 69.4755 38.9958 74.8578 31.4063C80.24 38.9958 80.24 49.2963 74.8578 56.8858Z" fill="#FF5F46"/>
<path fill-rule="evenodd" clip-rule="evenodd" d="M73.0837 117.443V80.6758H76.4568V117.443C76.4568 122.31 74.5329 126.781 71.3392 129.707C68.1122 132.663 63.6251 133.993 58.7742 132.545C52.1891 130.579 44.7645 127.225 37.9755 121.888C24.8065 111.536 18.589 95.993 17.1536 88.8955L20.4598 88.2269C21.7804 94.7567 27.6758 109.501 40.0602 119.236C46.456 124.264 53.4807 127.444 59.7393 129.313C63.3855 130.402 66.6551 129.423 69.0606 127.219C71.4994 124.985 73.0837 121.445 73.0837 117.443Z" fill="#FF5F46"/>
<path fill-rule="evenodd" clip-rule="evenodd" d="M76.4572 117.442V57.1709H73.0841V117.442C73.0841 122.308 75.0057 126.759 78.2011 129.662C81.4297 132.596 85.9129 133.893 90.7547 132.44C97.4605 130.428 104.986 127.059 111.565 121.886C124.726 111.54 130.385 97.8456 132.503 89.4889C134.004 83.5715 134.137 77.8097 134.136 72.5247L130.763 72.5249C130.763 77.7811 130.623 83.1801 129.234 88.66C127.231 96.558 121.873 109.492 109.481 119.235C103.308 124.087 96.1893 127.287 89.7853 129.209C86.1334 130.305 82.8669 129.344 80.4693 127.166C78.0385 124.957 76.4572 121.443 76.4572 117.442Z" fill="#FF5F46"/>
</svg>
