<svg width="150" height="150" viewBox="0 0 150 150" fill="none" xmlns="http://www.w3.org/2000/svg">
<path d="M122 28.8202C122 23.0802 117.35 18.4302 111.61 18.4302H31.15V34.0202H22.9199" stroke="#FF5F46" stroke-width="3" stroke-miterlimit="3" stroke-linecap="square"/>
<path d="M22.9199 115.98H31.15V131.57H111.61C117.35 131.57 122 126.92 122 121.18" stroke="#FF5F46" stroke-width="3" stroke-miterlimit="3" stroke-linecap="square"/>
<path d="M22.9199 47.46H31.15V102.54H22.9199" stroke="#FF5F46" stroke-width="3" stroke-miterlimit="3" stroke-linecap="square"/>
<path d="M22.9199 34.0202H31.15V18.4302H111.61C117.35 18.4302 122 23.0802 122 28.8202V75.0002H107.13" stroke="#FF5F46" stroke-width="3" stroke-miterlimit="3" stroke-linecap="square"/>
<path d="M22.9199 115.98H31.15V131.57H111.61C117.35 131.57 122 126.92 122 121.18V85.4399" stroke="#FF5F46" stroke-width="3" stroke-miterlimit="3" stroke-linecap="square"/>
<path d="M63.3501 75H88.1001" stroke="#FF5F46" stroke-width="3" stroke-miterlimit="3" stroke-linecap="square"/>
<path d="M49.4798 83.4602C46.4198 81.8802 44.3198 78.6802 44.3198 75.0002C44.3198 69.7502 48.5798 65.4902 53.8298 65.4902C59.0798 65.4902 63.3398 69.7502 63.3398 75.0002C63.3398 78.5202 61.4298 81.6002 58.5798 83.2402L70.9498 99.0402C68.1098 100.69 66.1898 103.76 66.1898 107.28C66.1898 112.53 70.4498 116.79 75.6998 116.79C80.9498 116.79 85.2098 112.53 85.2098 107.28C85.2098 103.76 83.2998 100.68 80.4498 99.0402L92.8198 83.2302" stroke="#FF5F46" stroke-width="3" stroke-miterlimit="3" stroke-linecap="square"/>
<path d="M101.97 66.54C105.03 68.12 107.13 71.32 107.13 75C107.13 80.25 102.87 84.51 97.6199 84.51C92.3699 84.51 88.1099 80.25 88.1099 75C88.1099 71.48 90.0199 68.4 92.8699 66.76L80.4999 50.96C83.3399 49.31 85.2599 46.24 85.2599 42.72C85.2599 37.47 80.9999 33.21 75.7499 33.21C70.4999 33.21 66.2399 37.47 66.2399 42.72C66.2399 46.24 68.1499 49.32 70.9999 50.96L58.6299 66.77" stroke="#FF5F46" stroke-width="3" stroke-miterlimit="3" stroke-linecap="square"/>
</svg>
