<svg width="512" height="512" viewBox="0 0 512 512" fill="none" xmlns="http://www.w3.org/2000/svg">
<path d="M146.229 228.459C191.643 228.459 228.458 191.644 228.458 146.23C228.458 100.815 191.643 64 146.229 64C100.815 64 64 100.815 64 146.23C64 191.644 100.815 228.459 146.229 228.459Z" fill="#618794"/>
<path d="M365.772 448.346C411.186 448.346 448.001 411.53 448.001 366.116C448.001 320.702 411.186 283.887 365.772 283.887C320.358 283.887 283.543 320.702 283.543 366.116C283.543 411.53 320.358 448.346 365.772 448.346Z" fill="#618794"/>
<path d="M228.458 366.133C228.458 411.538 191.634 448.362 146.229 448.362C100.824 448.362 64 411.538 64 366.133C64 320.728 100.824 283.903 146.229 283.903H170.54C232.748 283.903 283.158 233.493 283.158 171.284V146.616C283.158 101.211 319.982 64.3861 365.387 64.3861C410.792 64.3861 447.616 101.211 447.616 146.616C447.616 192.021 410.792 228.845 365.387 228.845H341.076C278.868 228.845 228.458 279.255 228.458 341.464V366.133Z" fill="#C4CCD6"/>
</svg>
