<svg width="1254" height="558" viewBox="0 0 1254 558" fill="none" xmlns="http://www.w3.org/2000/svg">
<g filter="url(#filter0_dddddd_1117_13006)">
<path d="M148 116.336C148 77.4903 179.49 46 218.336 46H339.664C378.51 46 410 77.4903 410 116.336V237.664C410 276.51 378.51 308 339.664 308H218.336C179.49 308 148 276.51 148 237.664V116.336Z" fill="white"/>
</g>
<path d="M252.7 103.172C260.806 103.172 267.534 109.436 268.113 117.521L272.674 181.219H233.299L237.277 117.659C237.787 109.516 244.541 103.172 252.7 103.172ZM331.479 127.078C339.636 127.078 346.472 133.245 347.31 141.359L351.424 181.219H312.049L315.627 141.563C316.367 133.361 323.243 127.078 331.479 127.078Z" fill="#FF5F46"/>
<path d="M308.181 236.341C307.608 244.501 300.82 250.828 292.64 250.828C284.52 250.828 277.761 244.59 277.111 236.496L272.674 181.219H312.049L308.181 236.341ZM234.002 181.219L231.235 220.792C230.828 226.62 225.98 231.14 220.138 231.14C214.338 231.139 209.512 226.684 209.05 220.903L205.877 181.219H234.002Z" fill="#FABFBA"/>
<path d="M481.838 214.5V137.22H506.789C515.768 137.22 523.165 138.802 528.979 141.967C534.867 145.132 539.21 149.622 542.006 155.436C544.877 161.177 546.312 168.022 546.312 175.97C546.312 183.772 544.877 190.58 542.006 196.394C539.21 202.135 534.867 206.588 528.979 209.753C523.165 212.918 515.768 214.5 506.789 214.5H481.838ZM495.086 203.239H506.126C512.824 203.239 518.086 202.172 521.914 200.038C525.814 197.83 528.574 194.702 530.194 190.654C531.886 186.532 532.733 181.638 532.733 175.97C532.733 170.23 531.886 165.335 530.194 161.287C528.574 157.166 525.814 154.001 521.914 151.793C518.086 149.511 512.824 148.37 506.126 148.37H495.086V203.239ZM574.041 215.825C569.478 215.825 565.688 215.052 562.67 213.506C559.653 211.961 557.408 209.9 555.936 207.324C554.464 204.748 553.728 201.951 553.728 198.934C553.728 195.401 554.611 192.346 556.377 189.77C558.217 187.194 560.904 185.207 564.437 183.809C567.969 182.337 572.312 181.601 577.464 181.601H591.485C591.485 178.657 591.08 176.228 590.27 174.314C589.461 172.327 588.209 170.855 586.517 169.898C584.824 168.942 582.653 168.463 580.003 168.463C576.985 168.463 574.409 169.162 572.275 170.561C570.141 171.886 568.816 173.946 568.301 176.743H555.273C555.715 172.769 557.04 169.383 559.248 166.586C561.456 163.716 564.363 161.508 567.969 159.962C571.649 158.343 575.661 157.534 580.003 157.534C585.229 157.534 589.681 158.454 593.361 160.294C597.041 162.06 599.838 164.636 601.752 168.022C603.739 171.334 604.733 175.345 604.733 180.055V214.5H593.472L592.147 205.558C591.411 207.03 590.454 208.391 589.277 209.642C588.173 210.894 586.885 211.998 585.413 212.954C583.941 213.838 582.248 214.537 580.334 215.052C578.494 215.567 576.397 215.825 574.041 215.825ZM577.022 205.337C579.157 205.337 581.033 204.969 582.653 204.233C584.345 203.423 585.781 202.319 586.958 200.921C588.209 199.449 589.166 197.83 589.829 196.063C590.491 194.297 590.933 192.42 591.153 190.433V190.212H578.899C576.323 190.212 574.189 190.543 572.496 191.206C570.803 191.794 569.589 192.678 568.853 193.855C568.117 195.033 567.749 196.394 567.749 197.94C567.749 199.486 568.117 200.81 568.853 201.914C569.589 203.018 570.656 203.865 572.054 204.454C573.453 205.042 575.109 205.337 577.022 205.337ZM638.891 214.5C635.137 214.5 631.862 213.911 629.065 212.734C626.342 211.556 624.208 209.606 622.662 206.882C621.117 204.159 620.344 200.479 620.344 195.842V170.009H610.849V158.858H620.344L621.889 144.175H633.592V158.858H648.717V170.009H633.592V195.842C633.592 198.639 634.181 200.59 635.358 201.694C636.609 202.724 638.67 203.239 641.541 203.239H648.385V214.5H638.891ZM676.416 215.825C671.853 215.825 668.062 215.052 665.045 213.506C662.027 211.961 659.782 209.9 658.31 207.324C656.838 204.748 656.102 201.951 656.102 198.934C656.102 195.401 656.985 192.346 658.752 189.77C660.592 187.194 663.278 185.207 666.811 183.809C670.344 182.337 674.686 181.601 679.838 181.601H693.859C693.859 178.657 693.454 176.228 692.645 174.314C691.835 172.327 690.584 170.855 688.891 169.898C687.198 168.942 685.027 168.463 682.377 168.463C679.36 168.463 676.784 169.162 674.649 170.561C672.515 171.886 671.19 173.946 670.675 176.743H657.648C658.089 172.769 659.414 169.383 661.622 166.586C663.83 163.716 666.737 161.508 670.344 159.962C674.024 158.343 678.035 157.534 682.377 157.534C687.603 157.534 692.056 158.454 695.736 160.294C699.416 162.06 702.213 164.636 704.126 168.022C706.113 171.334 707.107 175.345 707.107 180.055V214.5H695.846L694.521 205.558C693.785 207.03 692.829 208.391 691.651 209.642C690.547 210.894 689.259 211.998 687.787 212.954C686.315 213.838 684.622 214.537 682.709 215.052C680.869 215.567 678.771 215.825 676.416 215.825ZM679.397 205.337C681.531 205.337 683.408 204.969 685.027 204.233C686.72 203.423 688.155 202.319 689.333 200.921C690.584 199.449 691.541 197.83 692.203 196.063C692.865 194.297 693.307 192.42 693.528 190.433V190.212H681.273C678.697 190.212 676.563 190.543 674.87 191.206C673.177 191.794 671.963 192.678 671.227 193.855C670.491 195.033 670.123 196.394 670.123 197.94C670.123 199.486 670.491 200.81 671.227 201.914C671.963 203.018 673.03 203.865 674.429 204.454C675.827 205.042 677.483 205.337 679.397 205.337ZM767.977 215.825C762.384 215.825 757.416 214.831 753.073 212.844C748.731 210.857 745.345 208.023 742.916 204.343C740.488 200.663 739.236 196.284 739.163 191.206H753.184C753.184 193.782 753.772 196.1 754.95 198.161C756.201 200.148 757.894 201.73 760.028 202.908C762.236 204.086 764.886 204.674 767.977 204.674C770.627 204.674 772.908 204.27 774.822 203.46C776.809 202.577 778.318 201.362 779.348 199.817C780.452 198.198 781.004 196.321 781.004 194.186C781.004 191.758 780.416 189.77 779.238 188.225C778.134 186.606 776.588 185.244 774.601 184.14C772.614 183.036 770.332 182.079 767.756 181.27C765.18 180.386 762.457 179.466 759.587 178.51C753.478 176.449 748.878 173.836 745.787 170.671C742.696 167.433 741.15 163.127 741.15 157.754C741.15 153.265 742.217 149.401 744.352 146.162C746.486 142.924 749.467 140.422 753.294 138.655C757.195 136.815 761.684 135.895 766.763 135.895C771.915 135.895 776.404 136.815 780.232 138.655C784.132 140.495 787.187 143.071 789.395 146.383C791.676 149.622 792.854 153.522 792.928 158.086H778.796C778.723 156.172 778.208 154.406 777.251 152.786C776.294 151.094 774.896 149.732 773.056 148.702C771.289 147.598 769.118 147.046 766.542 147.046C764.334 146.972 762.347 147.34 760.58 148.15C758.888 148.886 757.526 149.99 756.496 151.462C755.539 152.86 755.06 154.626 755.06 156.761C755.06 158.822 755.502 160.551 756.385 161.95C757.342 163.274 758.704 164.415 760.47 165.372C762.236 166.255 764.297 167.102 766.652 167.911C769.008 168.721 771.584 169.604 774.38 170.561C778.208 171.812 781.667 173.358 784.758 175.198C787.923 176.964 790.425 179.282 792.265 182.153C794.105 185.023 795.025 188.74 795.025 193.303C795.025 197.278 793.995 200.994 791.934 204.454C789.873 207.839 786.856 210.599 782.881 212.734C778.907 214.794 773.939 215.825 767.977 215.825ZM828.331 214.5C824.577 214.5 821.302 213.911 818.505 212.734C815.782 211.556 813.647 209.606 812.102 206.882C810.556 204.159 809.783 200.479 809.783 195.842V170.009H800.289V158.858H809.783L811.329 144.175H823.031V158.858H838.156V170.009H823.031V195.842C823.031 198.639 823.62 200.59 824.798 201.694C826.049 202.724 828.11 203.239 830.98 203.239H837.825V214.5H828.331ZM847.308 214.5V158.858H859.121L860.335 169.236C861.66 166.807 863.316 164.746 865.303 163.054C867.291 161.287 869.609 159.926 872.259 158.969C874.982 158.012 877.963 157.534 881.201 157.534V171.554H876.564C874.356 171.554 872.259 171.849 870.271 172.438C868.284 172.953 866.555 173.836 865.083 175.087C863.684 176.265 862.58 177.921 861.771 180.055C860.961 182.116 860.556 184.729 860.556 187.894V214.5H847.308ZM912.744 215.825C907.224 215.825 902.367 214.647 898.171 212.292C893.976 209.863 890.701 206.478 888.346 202.135C885.991 197.793 884.813 192.788 884.813 187.121C884.813 181.233 885.954 176.081 888.235 171.665C890.591 167.249 893.866 163.79 898.061 161.287C902.33 158.785 907.261 157.534 912.855 157.534C918.301 157.534 923.048 158.748 927.096 161.177C931.144 163.606 934.272 166.881 936.48 171.002C938.688 175.05 939.792 179.614 939.792 184.692C939.792 185.428 939.792 186.238 939.792 187.121C939.792 188.004 939.719 188.924 939.571 189.881H894.307V181.38H926.434C926.287 177.332 924.925 174.167 922.349 171.886C919.773 169.53 916.571 168.353 912.744 168.353C910.021 168.353 907.519 168.978 905.237 170.23C902.955 171.481 901.152 173.358 899.827 175.86C898.503 178.289 897.84 181.38 897.84 185.134V188.335C897.84 191.794 898.466 194.775 899.717 197.278C901.042 199.78 902.808 201.694 905.016 203.018C907.298 204.27 909.837 204.895 912.634 204.895C915.725 204.895 918.264 204.233 920.251 202.908C922.312 201.583 923.821 199.817 924.778 197.609H938.247C937.216 201.068 935.523 204.196 933.168 206.993C930.813 209.716 927.906 211.887 924.447 213.506C920.987 215.052 917.087 215.825 912.744 215.825ZM967.259 215.825C962.696 215.825 958.906 215.052 955.888 213.506C952.871 211.961 950.626 209.9 949.154 207.324C947.682 204.748 946.946 201.951 946.946 198.934C946.946 195.401 947.829 192.346 949.595 189.77C951.435 187.194 954.122 185.207 957.655 183.809C961.187 182.337 965.53 181.601 970.682 181.601H984.703C984.703 178.657 984.298 176.228 983.488 174.314C982.679 172.327 981.427 170.855 979.735 169.898C978.042 168.942 975.871 168.463 973.221 168.463C970.203 168.463 967.627 169.162 965.493 170.561C963.359 171.886 962.034 173.946 961.519 176.743H948.491C948.933 172.769 950.258 169.383 952.466 166.586C954.674 163.716 957.581 161.508 961.187 159.962C964.867 158.343 968.879 157.534 973.221 157.534C978.447 157.534 982.899 158.454 986.579 160.294C990.259 162.06 993.056 164.636 994.97 168.022C996.957 171.334 997.951 175.345 997.951 180.055V214.5H986.69L985.365 205.558C984.629 207.03 983.672 208.391 982.495 209.642C981.391 210.894 980.103 211.998 978.631 212.954C977.159 213.838 975.466 214.537 973.552 215.052C971.712 215.567 969.615 215.825 967.259 215.825ZM970.24 205.337C972.375 205.337 974.251 204.969 975.871 204.233C977.563 203.423 978.999 202.319 980.176 200.921C981.427 199.449 982.384 197.83 983.047 196.063C983.709 194.297 984.151 192.42 984.371 190.433V190.212H972.117C969.541 190.212 967.407 190.543 965.714 191.206C964.021 191.794 962.807 192.678 962.071 193.855C961.335 195.033 960.967 196.394 960.967 197.94C960.967 199.486 961.335 200.81 962.071 201.914C962.807 203.018 963.874 203.865 965.272 204.454C966.671 205.042 968.327 205.337 970.24 205.337ZM1008.79 214.5V158.858H1020.5L1021.6 166.476C1023.37 163.679 1025.69 161.508 1028.56 159.962C1031.5 158.343 1034.85 157.534 1038.6 157.534C1041.4 157.534 1043.9 157.902 1046.11 158.638C1048.39 159.374 1050.38 160.478 1052.07 161.95C1053.84 163.422 1055.27 165.262 1056.38 167.47C1058.44 164.378 1061.12 161.95 1064.44 160.183C1067.75 158.417 1071.35 157.534 1075.25 157.534C1079.89 157.534 1083.83 158.49 1087.07 160.404C1090.31 162.244 1092.77 165.004 1094.46 168.684C1096.16 172.29 1097 176.743 1097 182.042V214.5H1083.87V183.367C1083.87 178.657 1082.91 175.05 1081 172.548C1079.08 170.046 1076.25 168.794 1072.49 168.794C1069.92 168.794 1067.64 169.42 1065.65 170.671C1063.74 171.922 1062.23 173.762 1061.12 176.191C1060.02 178.546 1059.47 181.454 1059.47 184.913V214.5H1046.33V183.367C1046.33 178.657 1045.37 175.05 1043.46 172.548C1041.55 170.046 1038.68 168.794 1034.85 168.794C1032.42 168.794 1030.21 169.42 1028.22 170.671C1026.31 171.922 1024.8 173.762 1023.7 176.191C1022.59 178.546 1022.04 181.454 1022.04 184.913V214.5H1008.79ZM1108.24 214.5V158.858H1121.49V214.5H1108.24ZM1114.86 150.026C1112.44 150.026 1110.41 149.29 1108.79 147.818C1107.25 146.273 1106.47 144.396 1106.47 142.188C1106.47 139.906 1107.25 138.066 1108.79 136.668C1110.41 135.196 1112.44 134.46 1114.86 134.46C1117.29 134.46 1119.28 135.196 1120.83 136.668C1122.45 138.066 1123.25 139.906 1123.25 142.188C1123.25 144.396 1122.45 146.273 1120.83 147.818C1119.28 149.29 1117.29 150.026 1114.86 150.026ZM1133.49 214.5V158.858H1145.19L1146.18 168.132C1147.87 164.894 1150.3 162.318 1153.47 160.404C1156.63 158.49 1160.39 157.534 1164.73 157.534C1169.22 157.534 1173.05 158.49 1176.21 160.404C1179.38 162.244 1181.8 164.967 1183.5 168.574C1185.26 172.18 1186.15 176.67 1186.15 182.042V214.5H1172.9V183.257C1172.9 178.62 1171.87 175.05 1169.81 172.548C1167.75 170.046 1164.69 168.794 1160.64 168.794C1157.99 168.794 1155.6 169.42 1153.47 170.671C1151.41 171.922 1149.75 173.762 1148.5 176.191C1147.32 178.546 1146.73 181.417 1146.73 184.802V214.5H1133.49ZM1220.21 240.113C1214.98 240.113 1210.38 239.45 1206.41 238.126C1202.51 236.874 1199.45 234.924 1197.24 232.274C1195.11 229.698 1194.04 226.46 1194.04 222.559C1194.04 220.278 1194.59 218.033 1195.7 215.825C1196.88 213.69 1198.6 211.703 1200.89 209.863C1203.24 207.95 1206.22 206.294 1209.83 204.895L1215.68 211.298C1212.15 212.55 1209.68 214.058 1208.28 215.825C1206.88 217.591 1206.19 219.394 1206.19 221.234C1206.19 223.148 1206.77 224.73 1207.95 225.982C1209.2 227.306 1210.86 228.3 1212.92 228.962C1215.05 229.625 1217.45 229.956 1220.1 229.956C1222.67 229.956 1224.92 229.588 1226.83 228.852C1228.74 228.19 1230.22 227.233 1231.25 225.982C1232.35 224.73 1232.9 223.222 1232.9 221.455C1232.9 219.247 1232.13 217.444 1230.58 216.046C1229.04 214.721 1225.98 213.911 1221.42 213.617C1217.52 213.322 1214.1 212.918 1211.15 212.402C1208.21 211.814 1205.67 211.151 1203.54 210.415C1201.48 209.679 1199.71 208.87 1198.24 207.986C1196.76 207.03 1195.55 206.073 1194.59 205.116V202.577L1206.19 190.433L1216.01 193.634L1202.98 206.33L1206.41 199.927C1207.14 200.442 1207.88 200.921 1208.61 201.362C1209.42 201.804 1210.42 202.209 1211.6 202.577C1212.85 202.871 1214.47 203.166 1216.45 203.46C1218.44 203.754 1221.02 204.049 1224.18 204.343C1229.11 204.711 1233.12 205.594 1236.21 206.993C1239.31 208.391 1241.59 210.268 1243.06 212.623C1244.53 214.978 1245.27 217.812 1245.27 221.124C1245.27 224.362 1244.35 227.417 1242.51 230.287C1240.74 233.158 1238.02 235.513 1234.34 237.353C1230.66 239.193 1225.95 240.113 1220.21 240.113ZM1220.21 197.83C1215.57 197.83 1211.56 196.946 1208.17 195.18C1204.86 193.34 1202.32 190.911 1200.56 187.894C1198.79 184.802 1197.91 181.417 1197.91 177.737C1197.91 173.983 1198.79 170.598 1200.56 167.58C1202.32 164.562 1204.86 162.134 1208.17 160.294C1211.56 158.454 1215.57 157.534 1220.21 157.534C1224.84 157.534 1228.82 158.454 1232.13 160.294C1235.44 162.134 1237.98 164.562 1239.75 167.58C1241.51 170.598 1242.4 173.983 1242.4 177.737C1242.4 181.417 1241.51 184.802 1239.75 187.894C1237.98 190.911 1235.44 193.34 1232.13 195.18C1228.82 196.946 1224.84 197.83 1220.21 197.83ZM1220.21 187.562C1223.37 187.562 1225.91 186.716 1227.82 185.023C1229.74 183.33 1230.69 180.902 1230.69 177.737C1230.69 174.572 1229.74 172.18 1227.82 170.561C1225.91 168.868 1223.37 168.022 1220.21 168.022C1217.04 168.022 1214.47 168.868 1212.48 170.561C1210.49 172.18 1209.5 174.572 1209.5 177.737C1209.5 180.902 1210.49 183.33 1212.48 185.023C1214.47 186.716 1217.04 187.562 1220.21 187.562ZM1229.37 168.574L1226.83 158.858H1249.68V167.138L1229.37 168.574Z" fill="#1B3139"/>
<defs>
<filter id="filter0_dddddd_1117_13006" x="0.713516" y="0.681084" width="556.573" height="556.573" filterUnits="userSpaceOnUse" color-interpolation-filters="sRGB">
<feFlood flood-opacity="0" result="BackgroundImageFix"/>
<feColorMatrix in="SourceAlpha" type="matrix" values="0 0 0 0 0 0 0 0 0 0 0 0 0 0 0 0 0 0 127 0" result="hardAlpha"/>
<feOffset dy="2.83243"/>
<feGaussianBlur stdDeviation="2.12432"/>
<feColorMatrix type="matrix" values="0 0 0 0 0.105882 0 0 0 0 0.192157 0 0 0 0 0.223529 0 0 0 0.0196802 0"/>
<feBlend mode="normal" in2="BackgroundImageFix" result="effect1_dropShadow_1117_13006"/>
<feColorMatrix in="SourceAlpha" type="matrix" values="0 0 0 0 0 0 0 0 0 0 0 0 0 0 0 0 0 0 127 0" result="hardAlpha"/>
<feOffset dy="5.66487"/>
<feGaussianBlur stdDeviation="5.66487"/>
<feColorMatrix type="matrix" values="0 0 0 0 0.105882 0 0 0 0 0.192157 0 0 0 0 0.223529 0 0 0 0.04 0"/>
<feBlend mode="normal" in2="effect1_dropShadow_1117_13006" result="effect2_dropShadow_1117_13006"/>
<feColorMatrix in="SourceAlpha" type="matrix" values="0 0 0 0 0 0 0 0 0 0 0 0 0 0 0 0 0 0 127 0" result="hardAlpha"/>
<feOffset dy="12.7459"/>
<feGaussianBlur stdDeviation="9.20541"/>
<feColorMatrix type="matrix" values="0 0 0 0 0.105882 0 0 0 0 0.192157 0 0 0 0 0.223529 0 0 0 0.035 0"/>
<feBlend mode="normal" in2="effect2_dropShadow_1117_13006" result="effect3_dropShadow_1117_13006"/>
<feColorMatrix in="SourceAlpha" type="matrix" values="0 0 0 0 0 0 0 0 0 0 0 0 0 0 0 0 0 0 127 0" result="hardAlpha"/>
<feOffset dy="22.6595"/>
<feGaussianBlur stdDeviation="16.9946"/>
<feColorMatrix type="matrix" values="0 0 0 0 0.105882 0 0 0 0 0.192157 0 0 0 0 0.223529 0 0 0 0.04 0"/>
<feBlend mode="normal" in2="effect3_dropShadow_1117_13006" result="effect4_dropShadow_1117_13006"/>
<feColorMatrix in="SourceAlpha" type="matrix" values="0 0 0 0 0 0 0 0 0 0 0 0 0 0 0 0 0 0 127 0" result="hardAlpha"/>
<feOffset dy="45.3189"/>
<feGaussianBlur stdDeviation="28.3243"/>
<feColorMatrix type="matrix" values="0 0 0 0 0.105882 0 0 0 0 0.192157 0 0 0 0 0.223529 0 0 0 0.0503198 0"/>
<feBlend mode="normal" in2="effect4_dropShadow_1117_13006" result="effect5_dropShadow_1117_13006"/>
<feColorMatrix in="SourceAlpha" type="matrix" values="0 0 0 0 0 0 0 0 0 0 0 0 0 0 0 0 0 0 127 0" result="hardAlpha"/>
<feOffset dy="101.968"/>
<feGaussianBlur stdDeviation="73.6432"/>
<feColorMatrix type="matrix" values="0 0 0 0 0.105882 0 0 0 0 0.192157 0 0 0 0 0.223529 0 0 0 0.07 0"/>
<feBlend mode="normal" in2="effect5_dropShadow_1117_13006" result="effect6_dropShadow_1117_13006"/>
<feBlend mode="normal" in="SourceGraphic" in2="effect6_dropShadow_1117_13006" result="shape"/>
</filter>
</defs>
</svg>
