<svg width="1116" height="724" viewBox="0 0 1116 724" fill="none" xmlns="http://www.w3.org/2000/svg">
<g filter="url(#filter0_dddddd_1104_10761)">
<path d="M192 150.383C192 99.9134 232.913 59 283.383 59H441.017C491.487 59 532.4 99.9134 532.4 150.383V308.017C532.4 358.487 491.487 399.4 441.017 399.4H283.383C232.913 399.4 192 358.487 192 308.017V150.383Z" fill="white"/>
</g>
<path d="M362 255.977C347.76 250.98 331.422 248.125 314 248.125C297.122 248.125 281.279 250.805 267.343 255.515L266 255.977V204.943H458V255.977C443.742 260.771 427.422 263.511 410 263.511C393.122 263.511 377.262 260.94 363.341 256.42L362 255.977Z" fill="#FABFBA"/>
<path d="M314.226 266.894C331.566 266.894 347.827 269.494 362 274.043C376.173 278.592 392.434 281.191 409.774 281.191C426.573 281.191 442.342 278.752 456.213 274.463L457.549 274.043H458V327H266V274.043H266.451C280.642 269.494 296.885 266.894 314.226 266.894Z" fill="#FF5F46"/>
<rect x="266" y="135" width="192" height="52.9572" fill="#FABFBA"/>
<path d="M603.901 217.2V139.92H623.773C632.752 139.92 640.149 141.503 645.963 144.667C651.851 147.759 656.194 152.211 658.99 158.026C661.861 163.767 663.296 170.685 663.296 178.781C663.296 186.73 661.861 193.575 658.99 199.315C656.194 205.056 651.851 209.472 645.963 212.563C640.149 215.655 632.752 217.2 623.773 217.2H603.901ZM613.174 209.472H623.552C630.986 209.472 636.91 208.258 641.326 205.829C645.742 203.327 648.907 199.794 650.821 195.231C652.734 190.594 653.691 185.111 653.691 178.781C653.691 172.304 652.734 166.747 650.821 162.111C648.907 157.474 645.742 153.904 641.326 151.402C636.91 148.899 630.986 147.648 623.552 147.648H613.174V209.472ZM691.344 218.525C686.928 218.525 683.248 217.715 680.304 216.096C677.36 214.403 675.152 212.195 673.68 209.472C672.208 206.675 671.472 203.695 671.472 200.53C671.472 196.703 672.429 193.464 674.343 190.815C676.33 188.091 679.09 186.031 682.623 184.632C686.156 183.234 690.277 182.535 694.988 182.535H709.45C709.45 178.781 709.008 175.653 708.125 173.151C707.242 170.648 705.807 168.771 703.82 167.52C701.832 166.269 699.183 165.643 695.871 165.643C692.559 165.643 689.725 166.49 687.37 168.183C685.015 169.802 683.543 172.231 682.954 175.469H673.46C673.901 171.642 675.189 168.44 677.324 165.864C679.458 163.215 682.144 161.227 685.383 159.903C688.695 158.504 692.191 157.805 695.871 157.805C701.096 157.805 705.402 158.762 708.788 160.675C712.173 162.515 714.676 165.128 716.295 168.514C717.914 171.826 718.724 175.763 718.724 180.327V217.2H710.444L709.892 207.264C709.156 208.81 708.199 210.282 707.021 211.68C705.917 213.005 704.592 214.183 703.047 215.213C701.501 216.243 699.735 217.053 697.748 217.642C695.834 218.231 693.7 218.525 691.344 218.525ZM692.669 210.687C695.098 210.687 697.343 210.135 699.404 209.031C701.464 207.927 703.231 206.455 704.703 204.615C706.248 202.701 707.426 200.567 708.236 198.211C709.045 195.856 709.45 193.391 709.45 190.815V189.711H695.76C692.301 189.711 689.468 190.152 687.26 191.035C685.125 191.919 683.58 193.17 682.623 194.789C681.666 196.335 681.188 198.101 681.188 200.088C681.188 202.223 681.629 204.099 682.512 205.719C683.396 207.264 684.684 208.479 686.376 209.362C688.143 210.245 690.24 210.687 692.669 210.687ZM751.745 217.2C748.433 217.2 745.563 216.685 743.134 215.655C740.705 214.624 738.828 212.895 737.504 210.466C736.252 207.963 735.627 204.615 735.627 200.419V166.968H725.47V159.13H735.627L736.841 144.667H744.9V159.13H761.35V166.968H744.9V200.419C744.9 203.879 745.6 206.234 746.998 207.485C748.396 208.663 750.862 209.251 754.395 209.251H761.129V217.2H751.745ZM788.867 218.525C784.451 218.525 780.771 217.715 777.827 216.096C774.883 214.403 772.675 212.195 771.203 209.472C769.731 206.675 768.995 203.695 768.995 200.53C768.995 196.703 769.952 193.464 771.866 190.815C773.853 188.091 776.613 186.031 780.146 184.632C783.678 183.234 787.8 182.535 792.51 182.535H806.973C806.973 178.781 806.531 175.653 805.648 173.151C804.765 170.648 803.33 168.771 801.342 167.52C799.355 166.269 796.706 165.643 793.394 165.643C790.082 165.643 787.248 166.49 784.893 168.183C782.538 169.802 781.066 172.231 780.477 175.469H770.982C771.424 171.642 772.712 168.44 774.846 165.864C776.981 163.215 779.667 161.227 782.906 159.903C786.218 158.504 789.714 157.805 793.394 157.805C798.619 157.805 802.925 158.762 806.31 160.675C809.696 162.515 812.198 165.128 813.818 168.514C815.437 171.826 816.246 175.763 816.246 180.327V217.2H807.966L807.414 207.264C806.678 208.81 805.722 210.282 804.544 211.68C803.44 213.005 802.115 214.183 800.57 215.213C799.024 216.243 797.258 217.053 795.27 217.642C793.357 218.231 791.222 218.525 788.867 218.525ZM790.192 210.687C792.621 210.687 794.866 210.135 796.926 209.031C798.987 207.927 800.754 206.455 802.226 204.615C803.771 202.701 804.949 200.567 805.758 198.211C806.568 195.856 806.973 193.391 806.973 190.815V189.711H793.283C789.824 189.711 786.99 190.152 784.782 191.035C782.648 191.919 781.102 193.17 780.146 194.789C779.189 196.335 778.71 198.101 778.71 200.088C778.71 202.223 779.152 204.099 780.035 205.719C780.918 207.264 782.206 208.479 783.899 209.362C785.666 210.245 787.763 210.687 790.192 210.687ZM857.181 218.525C853.648 218.525 850.594 218.01 848.018 216.979C845.515 215.875 843.381 214.514 841.614 212.895C839.922 211.275 838.523 209.693 837.419 208.147L836.646 217.2H828.256V137.712H837.53V168.293C839.296 164.834 841.909 162.221 845.368 160.455C848.827 158.688 852.691 157.805 856.96 157.805C862.259 157.805 866.896 159.093 870.87 161.669C874.845 164.245 877.936 167.815 880.144 172.378C882.352 176.867 883.456 182.056 883.456 187.944C883.456 193.759 882.352 198.984 880.144 203.621C877.936 208.258 874.845 211.901 870.87 214.551C866.97 217.2 862.406 218.525 857.181 218.525ZM855.966 210.466C859.426 210.466 862.48 209.583 865.13 207.816C867.853 205.976 869.987 203.4 871.533 200.088C873.152 196.703 873.962 192.728 873.962 188.165C873.962 183.602 873.152 179.664 871.533 176.352C869.987 172.967 867.853 170.391 865.13 168.624C862.48 166.784 859.426 165.864 855.966 165.864C852.286 165.864 849.085 166.784 846.362 168.624C843.638 170.391 841.541 172.967 840.069 176.352C838.597 179.664 837.861 183.602 837.861 188.165C837.861 192.728 838.597 196.703 840.069 200.088C841.541 203.4 843.638 205.976 846.362 207.816C849.085 209.583 852.286 210.466 855.966 210.466ZM893.621 217.2V159.13H902.011L902.673 169.728C903.998 167.079 905.728 164.871 907.862 163.104C909.997 161.338 912.573 160.013 915.59 159.13C918.681 158.247 922.141 157.805 925.968 157.805V167.52H920.227C918.019 167.52 915.885 167.815 913.824 168.403C911.763 168.992 909.886 169.949 908.193 171.274C906.574 172.599 905.286 174.402 904.329 176.683C903.373 178.965 902.894 181.835 902.894 185.295V217.2H893.621ZM934.209 217.2V159.13H943.482V217.2H934.209ZM938.846 148.09C937.006 148.09 935.46 147.501 934.209 146.323C933.031 145.072 932.442 143.527 932.442 141.687C932.442 139.847 933.031 138.375 934.209 137.271C935.46 136.093 937.006 135.504 938.846 135.504C940.612 135.504 942.121 136.093 943.372 137.271C944.623 138.375 945.249 139.847 945.249 141.687C945.249 143.527 944.623 145.072 943.372 146.323C942.121 147.501 940.612 148.09 938.846 148.09ZM981.704 218.525C976.405 218.525 971.695 217.274 967.573 214.771C963.451 212.195 960.213 208.626 957.858 204.063C955.503 199.499 954.325 194.2 954.325 188.165C954.325 182.056 955.503 176.757 957.858 172.267C960.213 167.704 963.451 164.171 967.573 161.669C971.695 159.093 976.405 157.805 981.704 157.805C988.328 157.805 993.848 159.571 998.264 163.104C1002.75 166.637 1005.62 171.384 1006.88 177.346H997.381C996.571 173.666 994.695 170.832 991.751 168.845C988.88 166.784 985.495 165.754 981.594 165.754C978.208 165.754 975.154 166.6 972.431 168.293C969.781 169.986 967.683 172.488 966.138 175.8C964.592 179.112 963.819 183.234 963.819 188.165C963.819 191.845 964.261 195.12 965.144 197.991C966.027 200.787 967.242 203.143 968.787 205.056C970.407 206.896 972.283 208.295 974.418 209.251C976.626 210.208 979.018 210.687 981.594 210.687C984.243 210.687 986.635 210.245 988.77 209.362C990.978 208.405 992.818 207.043 994.29 205.277C995.835 203.511 996.866 201.413 997.381 198.984H1006.88C1005.7 204.799 1002.83 209.509 998.264 213.115C993.775 216.722 988.255 218.525 981.704 218.525ZM1051.16 217.2L1024.78 185.847L1049.62 159.13H1060.99L1032.61 189.159L1032.73 182.535L1062.97 217.2H1051.16ZM1017.05 217.2V137.712H1026.32V217.2H1017.05ZM1087.22 218.525C1081.99 218.525 1077.65 217.752 1074.19 216.207C1070.8 214.587 1068.23 212.379 1066.46 209.583C1064.7 206.712 1063.63 203.4 1063.26 199.647H1072.75C1073.05 201.634 1073.71 203.474 1074.74 205.167C1075.85 206.786 1077.43 208.111 1079.49 209.141C1081.55 210.171 1084.16 210.687 1087.33 210.687C1089.83 210.687 1091.96 210.319 1093.73 209.583C1095.5 208.773 1096.82 207.669 1097.71 206.271C1098.66 204.872 1099.14 203.253 1099.14 201.413C1099.14 198.984 1098.59 197.107 1097.48 195.783C1096.45 194.384 1094.91 193.354 1092.85 192.691C1090.86 191.955 1088.36 191.403 1085.34 191.035C1082.1 190.594 1079.23 189.968 1076.73 189.159C1074.23 188.349 1072.09 187.282 1070.33 185.957C1068.63 184.632 1067.35 182.976 1066.46 180.989C1065.58 179.002 1065.14 176.647 1065.14 173.923C1065.14 170.759 1065.98 167.962 1067.68 165.533C1069.37 163.104 1071.76 161.227 1074.85 159.903C1078.02 158.504 1081.73 157.805 1086 157.805C1092.26 157.805 1097.19 159.24 1100.8 162.111C1104.48 164.981 1106.65 169.066 1107.31 174.365H1098.15C1097.78 171.642 1096.53 169.507 1094.39 167.962C1092.26 166.416 1089.43 165.643 1085.89 165.643C1082.14 165.643 1079.31 166.343 1077.39 167.741C1075.48 169.139 1074.52 170.979 1074.52 173.261C1074.52 174.954 1074.93 176.499 1075.74 177.898C1076.62 179.223 1078.09 180.363 1080.15 181.32C1082.21 182.203 1084.97 182.866 1088.43 183.307C1092.77 183.823 1096.45 184.669 1099.47 185.847C1102.49 186.951 1104.77 188.68 1106.32 191.035C1107.94 193.391 1108.71 196.592 1108.63 200.64C1108.63 204.467 1107.71 207.706 1105.87 210.355C1104.11 213.005 1101.61 215.029 1098.37 216.427C1095.2 217.826 1091.49 218.525 1087.22 218.525ZM603.238 316.2V238.92H616.486V305.823H650.931V316.2H603.238ZM678.623 317.525C674.059 317.525 670.269 316.752 667.251 315.207C664.234 313.661 661.989 311.6 660.517 309.024C659.045 306.448 658.309 303.651 658.309 300.634C658.309 297.101 659.192 294.047 660.959 291.471C662.799 288.895 665.485 286.907 669.018 285.509C672.551 284.037 676.893 283.301 682.045 283.301H696.066C696.066 280.357 695.661 277.928 694.851 276.015C694.042 274.027 692.791 272.555 691.098 271.599C689.405 270.642 687.234 270.163 684.584 270.163C681.567 270.163 678.991 270.863 676.856 272.261C674.722 273.586 673.397 275.647 672.882 278.443H659.855C660.296 274.469 661.621 271.083 663.829 268.287C666.037 265.416 668.944 263.208 672.551 261.663C676.231 260.043 680.242 259.234 684.584 259.234C689.81 259.234 694.263 260.154 697.943 261.994C701.623 263.76 704.419 266.336 706.333 269.722C708.32 273.034 709.314 277.045 709.314 281.755V316.2H698.053L696.728 307.258C695.992 308.73 695.035 310.091 693.858 311.343C692.754 312.594 691.466 313.698 689.994 314.655C688.522 315.538 686.829 316.237 684.915 316.752C683.075 317.267 680.978 317.525 678.623 317.525ZM681.603 307.037C683.738 307.037 685.615 306.669 687.234 305.933C688.927 305.123 690.362 304.019 691.539 302.621C692.791 301.149 693.747 299.53 694.41 297.763C695.072 295.997 695.514 294.12 695.735 292.133V291.912H683.48C680.904 291.912 678.77 292.243 677.077 292.906C675.384 293.495 674.17 294.378 673.434 295.555C672.698 296.733 672.33 298.095 672.33 299.64C672.33 301.186 672.698 302.511 673.434 303.615C674.17 304.719 675.237 305.565 676.635 306.154C678.034 306.743 679.69 307.037 681.603 307.037ZM756.037 316.2L731.418 285.73L753.498 260.559H769.285L741.795 291.139V280.872L772.597 316.2H756.037ZM720.157 316.2V236.712H733.405V316.2H720.157ZM799.824 317.525C794.304 317.525 789.447 316.347 785.252 313.992C781.056 311.563 777.781 308.178 775.426 303.835C773.071 299.493 771.893 294.488 771.893 288.821C771.893 282.933 773.034 277.781 775.316 273.365C777.671 268.949 780.946 265.49 785.141 262.987C789.41 260.485 794.341 259.234 799.935 259.234C805.381 259.234 810.128 260.448 814.176 262.877C818.224 265.306 821.352 268.581 823.56 272.703C825.768 276.751 826.872 281.314 826.872 286.392C826.872 287.128 826.872 287.938 826.872 288.821C826.872 289.704 826.799 290.624 826.652 291.581H781.388V283.08H813.514C813.367 279.032 812.005 275.867 809.429 273.586C806.853 271.231 803.652 270.053 799.824 270.053C797.101 270.053 794.599 270.679 792.317 271.93C790.036 273.181 788.232 275.058 786.908 277.56C785.583 279.989 784.92 283.08 784.92 286.834V290.035C784.92 293.495 785.546 296.475 786.797 298.978C788.122 301.48 789.888 303.394 792.096 304.719C794.378 305.97 796.917 306.595 799.714 306.595C802.805 306.595 805.344 305.933 807.332 304.608C809.392 303.283 810.901 301.517 811.858 299.309H825.327C824.296 302.768 822.604 305.896 820.248 308.693C817.893 311.416 814.986 313.587 811.527 315.207C808.068 316.752 804.167 317.525 799.824 317.525ZM867.588 317.525C864.644 317.525 861.994 317.12 859.639 316.311C857.284 315.575 855.223 314.544 853.456 313.219C851.69 311.821 850.218 310.239 849.04 308.472L847.605 316.2H835.792V236.712H849.04V268.728C850.807 266.005 853.199 263.76 856.216 261.994C859.234 260.154 862.988 259.234 867.477 259.234C872.703 259.234 877.303 260.522 881.277 263.098C885.325 265.6 888.49 269.059 890.772 273.475C893.127 277.818 894.304 282.823 894.304 288.49C894.304 294.01 893.164 298.978 890.882 303.394C888.6 307.81 885.436 311.269 881.388 313.771C877.413 316.274 872.813 317.525 867.588 317.525ZM864.828 306.043C867.919 306.043 870.679 305.307 873.108 303.835C875.536 302.29 877.413 300.229 878.738 297.653C880.136 295.003 880.836 291.912 880.836 288.379C880.836 284.92 880.136 281.866 878.738 279.216C877.413 276.567 875.536 274.506 873.108 273.034C870.679 271.562 867.919 270.826 864.828 270.826C861.663 270.826 858.866 271.562 856.437 273.034C854.082 274.506 852.205 276.567 850.807 279.216C849.482 281.866 848.82 284.92 848.82 288.379C848.82 291.912 849.482 295.003 850.807 297.653C852.205 300.229 854.082 302.29 856.437 303.835C858.866 305.307 861.663 306.043 864.828 306.043ZM922.4 317.525C917.836 317.525 914.046 316.752 911.028 315.207C908.011 313.661 905.766 311.6 904.294 309.024C902.822 306.448 902.086 303.651 902.086 300.634C902.086 297.101 902.969 294.047 904.736 291.471C906.576 288.895 909.262 286.907 912.795 285.509C916.328 284.037 920.67 283.301 925.822 283.301H939.843C939.843 280.357 939.438 277.928 938.628 276.015C937.819 274.027 936.568 272.555 934.875 271.599C933.182 270.642 931.011 270.163 928.361 270.163C925.344 270.163 922.768 270.863 920.633 272.261C918.499 273.586 917.174 275.647 916.659 278.443H903.632C904.073 274.469 905.398 271.083 907.606 268.287C909.814 265.416 912.721 263.208 916.328 261.663C920.008 260.043 924.019 259.234 928.361 259.234C933.587 259.234 938.04 260.154 941.72 261.994C945.4 263.76 948.196 266.336 950.11 269.722C952.097 273.034 953.091 277.045 953.091 281.755V316.2H941.83L940.505 307.258C939.769 308.73 938.812 310.091 937.635 311.343C936.531 312.594 935.243 313.698 933.771 314.655C932.299 315.538 930.606 316.237 928.692 316.752C926.852 317.267 924.755 317.525 922.4 317.525ZM925.38 307.037C927.515 307.037 929.392 306.669 931.011 305.933C932.704 305.123 934.139 304.019 935.316 302.621C936.568 301.149 937.524 299.53 938.187 297.763C938.849 295.997 939.291 294.12 939.512 292.133V291.912H927.257C924.681 291.912 922.547 292.243 920.854 292.906C919.161 293.495 917.947 294.378 917.211 295.555C916.475 296.733 916.107 298.095 916.107 299.64C916.107 301.186 916.475 302.511 917.211 303.615C917.947 304.719 919.014 305.565 920.412 306.154C921.811 306.743 923.467 307.037 925.38 307.037ZM986.124 317.525C981.193 317.525 976.888 316.752 973.208 315.207C969.601 313.587 966.731 311.379 964.596 308.583C962.536 305.712 961.321 302.437 960.953 298.757H974.201C974.569 300.303 975.232 301.738 976.188 303.063C977.145 304.314 978.433 305.307 980.052 306.043C981.745 306.779 983.732 307.147 986.014 307.147C988.222 307.147 990.025 306.853 991.424 306.264C992.822 305.602 993.852 304.755 994.515 303.725C995.177 302.695 995.508 301.591 995.508 300.413C995.508 298.647 995.03 297.285 994.073 296.328C993.116 295.371 991.718 294.635 989.878 294.12C988.112 293.531 985.977 292.979 983.475 292.464C980.825 291.949 978.249 291.323 975.747 290.587C973.318 289.778 971.11 288.784 969.123 287.607C967.209 286.429 965.664 284.92 964.486 283.08C963.382 281.24 962.83 278.995 962.83 276.346C962.83 273.107 963.676 270.2 965.369 267.624C967.136 265.048 969.638 263.024 972.876 261.552C976.188 260.007 980.126 259.234 984.689 259.234C991.166 259.234 996.318 260.743 1000.15 263.76C1004.05 266.704 1006.33 270.863 1006.99 276.235H994.404C994.036 274.175 993.006 272.592 991.313 271.488C989.62 270.311 987.376 269.722 984.579 269.722C981.708 269.722 979.5 270.274 977.955 271.378C976.483 272.408 975.747 273.807 975.747 275.573C975.747 276.677 976.188 277.707 977.072 278.664C978.028 279.547 979.39 280.32 981.156 280.983C982.923 281.571 985.094 282.16 987.67 282.749C991.792 283.559 995.435 284.515 998.6 285.619C1001.76 286.723 1004.27 288.343 1006.11 290.477C1007.95 292.611 1008.87 295.629 1008.87 299.53C1008.94 303.063 1008.02 306.191 1006.11 308.914C1004.27 311.637 1001.65 313.771 998.268 315.317C994.883 316.789 990.835 317.525 986.124 317.525ZM1044.46 317.525C1038.94 317.525 1034.09 316.347 1029.89 313.992C1025.7 311.563 1022.42 308.178 1020.07 303.835C1017.71 299.493 1016.53 294.488 1016.53 288.821C1016.53 282.933 1017.67 277.781 1019.96 273.365C1022.31 268.949 1025.59 265.49 1029.78 262.987C1034.05 260.485 1038.98 259.234 1044.57 259.234C1050.02 259.234 1054.77 260.448 1058.82 262.877C1062.86 265.306 1065.99 268.581 1068.2 272.703C1070.41 276.751 1071.51 281.314 1071.51 286.392C1071.51 287.128 1071.51 287.938 1071.51 288.821C1071.51 289.704 1071.44 290.624 1071.29 291.581H1026.03V283.08H1058.15C1058.01 279.032 1056.64 275.867 1054.07 273.586C1051.49 271.231 1048.29 270.053 1044.46 270.053C1041.74 270.053 1039.24 270.679 1036.96 271.93C1034.68 273.181 1032.87 275.058 1031.55 277.56C1030.22 279.989 1029.56 283.08 1029.56 286.834V290.035C1029.56 293.495 1030.19 296.475 1031.44 298.978C1032.76 301.48 1034.53 303.394 1036.74 304.719C1039.02 305.97 1041.56 306.595 1044.35 306.595C1047.44 306.595 1049.98 305.933 1051.97 304.608C1054.03 303.283 1055.54 301.517 1056.5 299.309H1069.97C1068.94 302.768 1067.24 305.896 1064.89 308.693C1062.53 311.416 1059.63 313.587 1056.17 315.207C1052.71 316.752 1048.81 317.525 1044.46 317.525Z" fill="white"/>
<defs>
<filter id="filter0_dddddd_1104_10761" x="0.639999" y="0.119995" width="723.12" height="723.12" filterUnits="userSpaceOnUse" color-interpolation-filters="sRGB">
<feFlood flood-opacity="0" result="BackgroundImageFix"/>
<feColorMatrix in="SourceAlpha" type="matrix" values="0 0 0 0 0 0 0 0 0 0 0 0 0 0 0 0 0 0 127 0" result="hardAlpha"/>
<feOffset dy="3.68"/>
<feGaussianBlur stdDeviation="2.76"/>
<feColorMatrix type="matrix" values="0 0 0 0 0.105882 0 0 0 0 0.192157 0 0 0 0 0.223529 0 0 0 0.0196802 0"/>
<feBlend mode="normal" in2="BackgroundImageFix" result="effect1_dropShadow_1104_10761"/>
<feColorMatrix in="SourceAlpha" type="matrix" values="0 0 0 0 0 0 0 0 0 0 0 0 0 0 0 0 0 0 127 0" result="hardAlpha"/>
<feOffset dy="7.36"/>
<feGaussianBlur stdDeviation="7.36"/>
<feColorMatrix type="matrix" values="0 0 0 0 0.105882 0 0 0 0 0.192157 0 0 0 0 0.223529 0 0 0 0.04 0"/>
<feBlend mode="normal" in2="effect1_dropShadow_1104_10761" result="effect2_dropShadow_1104_10761"/>
<feColorMatrix in="SourceAlpha" type="matrix" values="0 0 0 0 0 0 0 0 0 0 0 0 0 0 0 0 0 0 127 0" result="hardAlpha"/>
<feOffset dy="16.56"/>
<feGaussianBlur stdDeviation="11.96"/>
<feColorMatrix type="matrix" values="0 0 0 0 0.105882 0 0 0 0 0.192157 0 0 0 0 0.223529 0 0 0 0.035 0"/>
<feBlend mode="normal" in2="effect2_dropShadow_1104_10761" result="effect3_dropShadow_1104_10761"/>
<feColorMatrix in="SourceAlpha" type="matrix" values="0 0 0 0 0 0 0 0 0 0 0 0 0 0 0 0 0 0 127 0" result="hardAlpha"/>
<feOffset dy="29.44"/>
<feGaussianBlur stdDeviation="22.08"/>
<feColorMatrix type="matrix" values="0 0 0 0 0.105882 0 0 0 0 0.192157 0 0 0 0 0.223529 0 0 0 0.04 0"/>
<feBlend mode="normal" in2="effect3_dropShadow_1104_10761" result="effect4_dropShadow_1104_10761"/>
<feColorMatrix in="SourceAlpha" type="matrix" values="0 0 0 0 0 0 0 0 0 0 0 0 0 0 0 0 0 0 127 0" result="hardAlpha"/>
<feOffset dy="58.88"/>
<feGaussianBlur stdDeviation="36.8"/>
<feColorMatrix type="matrix" values="0 0 0 0 0.105882 0 0 0 0 0.192157 0 0 0 0 0.223529 0 0 0 0.0503198 0"/>
<feBlend mode="normal" in2="effect4_dropShadow_1104_10761" result="effect5_dropShadow_1104_10761"/>
<feColorMatrix in="SourceAlpha" type="matrix" values="0 0 0 0 0 0 0 0 0 0 0 0 0 0 0 0 0 0 127 0" result="hardAlpha"/>
<feOffset dy="132.48"/>
<feGaussianBlur stdDeviation="95.68"/>
<feColorMatrix type="matrix" values="0 0 0 0 0.105882 0 0 0 0 0.192157 0 0 0 0 0.223529 0 0 0 0.07 0"/>
<feBlend mode="normal" in2="effect5_dropShadow_1104_10761" result="effect6_dropShadow_1104_10761"/>
<feBlend mode="normal" in="SourceGraphic" in2="effect6_dropShadow_1104_10761" result="shape"/>
</filter>
</defs>
</svg>
