<svg width="150" height="150" viewBox="0 0 150 150" fill="none" xmlns="http://www.w3.org/2000/svg">
<path d="M53.52 75.0701C37.74 75.0701 24.95 87.8601 24.95 103.64V126.51" stroke="#1B3139" stroke-width="3" stroke-miterlimit="3" stroke-linecap="square"/>
<path d="M61.47 126.5H121.18" stroke="#1B3139" stroke-width="3" stroke-miterlimit="3" stroke-linecap="square"/>
<path d="M61.47 23.5H121.18" stroke="#1B3139" stroke-width="3" stroke-miterlimit="3" stroke-linecap="square"/>
<path d="M53.52 75.0699C37.74 75.0699 24.95 62.2799 24.95 46.4999V23.6299" stroke="#1B3139" stroke-width="3" stroke-miterlimit="3" stroke-linecap="square"/>
<path d="M65.6899 75.0701C49.9099 75.0701 37.1201 87.8601 37.1201 103.64V126.44" stroke="#1B3139" stroke-width="3" stroke-miterlimit="3" stroke-linecap="square"/>
<path d="M65.6899 75.0699C49.9099 75.0699 37.1201 62.2799 37.1201 46.4999V23.6299" stroke="#1B3139" stroke-width="3" stroke-miterlimit="3" stroke-linecap="square"/>
<path d="M77.8601 75.0701C62.0801 75.0701 49.29 87.8601 49.29 103.64V126.51" stroke="#1B3139" stroke-width="3" stroke-miterlimit="3" stroke-linecap="square"/>
<path d="M77.8601 75.0699C62.0801 75.0699 49.29 62.2799 49.29 46.4999V23.6299" stroke="#1B3139" stroke-width="3" stroke-miterlimit="3" stroke-linecap="square"/>
<path d="M90.03 75.0701C74.25 75.0701 61.46 87.8601 61.46 103.64V126.44" stroke="#1B3139" stroke-width="3" stroke-miterlimit="3" stroke-linecap="square"/>
<path d="M90.03 75.0699C74.25 75.0699 61.46 62.2799 61.46 46.4999V23.6299" stroke="#1B3139" stroke-width="3" stroke-miterlimit="3" stroke-linecap="square"/>
<path d="M116.05 66.0701L125.05 75.0701L116.05 84.0601" stroke="#1B3139" stroke-width="3" stroke-miterlimit="3" stroke-linecap="square"/>
<path d="M123.62 75.0701H53.52" stroke="#1B3139" stroke-width="3" stroke-miterlimit="3" stroke-linecap="square"/>
</svg>
