<svg width="593" height="200" viewBox="0 0 593 200" fill="none" xmlns="http://www.w3.org/2000/svg">
<path d="M114.532 85.8525V114.323H85.6006V185.938L185.938 85.8525H114.532ZM14.0624 114.323H85.6006V85.8525H114.532V14.0625L14.0624 114.323Z" fill="#FF5F46"/>
<path d="M14.0625 114.323H85.6007V85.8525H114.533V14.0625L14.0625 114.323Z" fill="#FABFBA"/>
<path d="M239.838 137.5V60.22H267.659C273.842 60.22 278.957 61.2872 283.005 63.4216C287.053 65.4824 290.07 68.2792 292.058 71.812C294.045 75.3448 295.038 79.3928 295.038 83.956C295.038 88.2248 294.082 92.1624 292.168 95.7688C290.254 99.3016 287.274 102.172 283.226 104.38C279.178 106.514 273.989 107.582 267.659 107.582H253.086V137.5H239.838ZM253.086 96.7624H266.886C272.112 96.7624 275.866 95.6216 278.147 93.34C280.429 90.9848 281.57 87.8568 281.57 83.956C281.57 79.908 280.429 76.7432 278.147 74.4616C275.866 72.18 272.112 71.0392 266.886 71.0392H253.086V96.7624ZM302.713 137.5V58.012H315.961V90.4696C317.801 87.452 320.303 85.06 323.468 83.2936C326.633 81.4536 330.203 80.5336 334.177 80.5336C338.74 80.5336 342.604 81.4904 345.769 83.404C348.934 85.244 351.326 88.004 352.945 91.684C354.638 95.2904 355.484 99.8168 355.484 105.263V137.5H342.347V106.478C342.347 101.694 341.316 98.0504 339.255 95.548C337.268 93.0456 334.214 91.7944 330.092 91.7944C327.443 91.7944 325.051 92.4568 322.916 93.7816C320.782 95.0328 319.089 96.8728 317.838 99.3016C316.587 101.657 315.961 104.564 315.961 108.023V137.5H302.713ZM392.189 138.825C386.889 138.825 382.105 137.61 377.837 135.182C373.641 132.679 370.329 129.257 367.901 124.914C365.545 120.498 364.368 115.457 364.368 109.79C364.368 103.975 365.582 98.8968 368.011 94.5544C370.44 90.1384 373.752 86.716 377.947 84.2872C382.216 81.7848 387 80.5336 392.299 80.5336C397.598 80.5336 402.345 81.7848 406.541 84.2872C410.809 86.716 414.121 90.1016 416.477 94.444C418.905 98.7864 420.12 103.865 420.12 109.679C420.12 115.494 418.905 120.572 416.477 124.914C414.048 129.257 410.699 132.679 406.43 135.182C402.235 137.61 397.488 138.825 392.189 138.825ZM392.189 127.454C394.838 127.454 397.23 126.791 399.365 125.466C401.573 124.142 403.339 122.154 404.664 119.505C405.989 116.855 406.651 113.58 406.651 109.679C406.651 105.778 405.989 102.54 404.664 99.964C403.413 97.3144 401.683 95.3272 399.475 94.0024C397.341 92.6776 394.949 92.0152 392.299 92.0152C389.723 92.0152 387.331 92.6776 385.123 94.0024C382.915 95.3272 381.149 97.3144 379.824 99.964C378.499 102.54 377.837 105.778 377.837 109.679C377.837 113.58 378.499 116.855 379.824 119.505C381.149 122.154 382.878 124.142 385.013 125.466C387.221 126.791 389.613 127.454 392.189 127.454ZM451.798 137.5C448.044 137.5 444.769 136.911 441.972 135.734C439.249 134.556 437.115 132.606 435.569 129.882C434.023 127.159 433.251 123.479 433.251 118.842V93.0088H423.756V81.8584H433.251L434.796 67.1752H446.499V81.8584H461.623V93.0088H446.499V118.842C446.499 121.639 447.087 123.59 448.265 124.694C449.516 125.724 451.577 126.239 454.447 126.239H461.292V137.5H451.798ZM495.318 138.825C490.019 138.825 485.235 137.61 480.966 135.182C476.771 132.679 473.459 129.257 471.03 124.914C468.675 120.498 467.497 115.457 467.497 109.79C467.497 103.975 468.711 98.8968 471.14 94.5544C473.569 90.1384 476.881 86.716 481.076 84.2872C485.345 81.7848 490.129 80.5336 495.428 80.5336C500.727 80.5336 505.475 81.7848 509.67 84.2872C513.939 86.716 517.251 90.1016 519.606 94.444C522.035 98.7864 523.249 103.865 523.249 109.679C523.249 115.494 522.035 120.572 519.606 124.914C517.177 129.257 513.828 132.679 509.559 135.182C505.364 137.61 500.617 138.825 495.318 138.825ZM495.318 127.454C497.967 127.454 500.359 126.791 502.494 125.466C504.702 124.142 506.468 122.154 507.793 119.505C509.118 116.855 509.78 113.58 509.78 109.679C509.78 105.778 509.118 102.54 507.793 99.964C506.542 97.3144 504.812 95.3272 502.604 94.0024C500.47 92.6776 498.078 92.0152 495.428 92.0152C492.852 92.0152 490.46 92.6776 488.252 94.0024C486.044 95.3272 484.278 97.3144 482.953 99.964C481.628 102.54 480.966 105.778 480.966 109.679C480.966 113.58 481.628 116.855 482.953 119.505C484.278 122.154 486.007 124.142 488.142 125.466C490.35 126.791 492.742 127.454 495.318 127.454ZM532.906 137.5V81.8584H544.608L545.602 91.132C547.294 87.8936 549.723 85.3176 552.888 83.404C556.053 81.4904 559.806 80.5336 564.149 80.5336C568.638 80.5336 572.466 81.4904 575.63 83.404C578.795 85.244 581.224 87.9672 582.917 91.5736C584.683 95.18 585.566 99.6696 585.566 105.042V137.5H572.318V106.257C572.318 101.62 571.288 98.0504 569.227 95.548C567.166 93.0456 564.112 91.7944 560.064 91.7944C557.414 91.7944 555.022 92.42 552.888 93.6712C550.827 94.9224 549.171 96.7624 547.92 99.1912C546.742 101.546 546.154 104.417 546.154 107.802V137.5H532.906Z" fill="#1B3139"/>
</svg>
