<svg width="150" height="150" viewBox="0 0 150 150" fill="none" xmlns="http://www.w3.org/2000/svg">
<g clip-path="url(#clip0_5483_2106)">
<path d="M26.01 132.85C17.65 132.85 10.84 126.05 10.84 117.68C10.84 109.31 17.64 102.51 26.01 102.51C34.38 102.51 41.18 109.31 41.18 117.68C41.18 126.05 34.38 132.85 26.01 132.85ZM26.01 105.52C19.3 105.52 13.84 110.98 13.84 117.69C13.84 124.4 19.3 129.86 26.01 129.86C32.72 129.86 38.18 124.4 38.18 117.69C38.18 110.98 32.72 105.52 26.01 105.52Z" fill="#FF5F46"/>
<path d="M58.67 48.2799C50.31 48.2799 43.5 41.4799 43.5 33.1099C43.5 24.7399 50.3 17.9399 58.67 17.9399C67.04 17.9399 73.84 24.7399 73.84 33.1099C73.84 41.4799 67.04 48.2799 58.67 48.2799ZM58.67 20.9499C51.96 20.9499 46.5 26.4099 46.5 33.1199C46.5 39.8299 51.96 45.2899 58.67 45.2899C65.38 45.2899 70.84 39.8299 70.84 33.1199C70.84 26.4099 65.38 20.9499 58.67 20.9499Z" fill="#FF5F46"/>
<path d="M91.33 132.85C82.97 132.85 76.16 126.05 76.16 117.68C76.16 109.31 82.96 102.51 91.33 102.51C99.7 102.51 106.5 109.31 106.5 117.68C106.5 126.05 99.7 132.85 91.33 132.85ZM91.33 105.52C84.62 105.52 79.16 110.98 79.16 117.69C79.16 124.4 84.62 129.86 91.33 129.86C98.04 129.86 103.5 124.4 103.5 117.69C103.5 110.98 98.04 105.52 91.33 105.52Z" fill="#FF5F46"/>
<path d="M125.47 48.2102L125.18 45.2202C127.42 45.0002 129.55 44.1702 131.35 42.8002L133.17 45.1902C130.93 46.8902 128.27 47.9402 125.47 48.2102ZM120.29 47.7802C117.43 47.0802 115 45.7202 113.08 43.7402L115.23 41.6502C116.76 43.2202 118.7 44.3102 121.01 44.8702L120.29 47.7802ZM136.71 41.3802L134.2 39.7402C135.43 37.8602 136.1 35.6702 136.16 33.4102L137.66 33.3902L139.16 33.4302V33.4902C139.09 36.3102 138.24 39.0402 136.71 41.3902V41.3802ZM110.17 39.3802C109.33 37.4502 108.89 35.2902 108.89 33.1402C108.89 32.5002 108.93 31.8602 109 31.2202L111.98 31.5802C111.92 32.1002 111.89 32.6202 111.89 33.1402C111.89 34.8902 112.25 36.6302 112.92 38.1902L110.17 39.3802ZM135.52 29.2302C134.8 27.1002 133.5 25.2102 131.77 23.7602L133.69 21.4502C135.85 23.2502 137.47 25.6102 138.37 28.2702L135.53 29.2302H135.52ZM113.16 27.5502L110.46 26.2402C111.71 23.6702 113.65 21.5502 116.08 20.1302L117.6 22.7102C115.69 23.8402 114.15 25.5102 113.16 27.5502ZM128.15 21.6802C126.91 21.2302 125.61 20.9902 124.29 20.9502C123.37 20.9602 122.42 21.0602 121.53 21.2402L120.95 18.3002C122.02 18.0902 123.15 17.9702 124.31 17.9502C126.02 17.9902 127.64 18.3002 129.19 18.8602L128.16 21.6802H128.15Z" fill="#FF5F46"/>
<path d="M57.3258 46.1173L29.291 104.162L31.9924 105.466L60.0272 47.422L57.3258 46.1173Z" fill="#FF5F46"/>
<path d="M59.9723 46.0356L57.3667 47.5225L90.0274 104.76L92.633 103.273L59.9723 46.0356Z" fill="#FF5F46"/>
<path d="M118.561 43.8953L116.828 47.5005L119.532 48.8L121.265 45.1948L118.561 43.8953Z" fill="#FF5F46"/>
<path d="M97.19 95.2997L94.49 93.9997L97.93 86.8497L100.63 88.1497L97.19 95.2997ZM102.78 83.6797L100.08 82.3797L103.52 75.2297L106.22 76.5297L102.78 83.6797ZM108.37 72.0597L105.67 70.7597L109.11 63.6097L111.81 64.9097L108.37 72.0597ZM113.96 60.4397L111.26 59.1397L114.7 51.9897L117.4 53.2897L113.96 60.4397Z" fill="#FF5F46"/>
<path d="M92.3325 98.4558L90.5997 102.061L93.3036 103.361L95.0364 99.7554L92.3325 98.4558Z" fill="#FF5F46"/>
</g>
<defs>
<clipPath id="clip0_5483_2106">
<rect width="150" height="150" fill="white"/>
</clipPath>
</defs>
</svg>
