<svg width="150" height="150" viewBox="0 0 150 150" fill="none" xmlns="http://www.w3.org/2000/svg">
<g clip-path="url(#clip0_1_2251)">
<path d="M26.01 132.85C17.65 132.85 10.84 126.05 10.84 117.68C10.84 109.31 17.64 102.51 26.01 102.51C34.38 102.51 41.18 109.31 41.18 117.68C41.18 126.05 34.38 132.85 26.01 132.85V132.85ZM26.01 105.52C19.3 105.52 13.84 110.98 13.84 117.69C13.84 124.4 19.3 129.86 26.01 129.86C32.72 129.86 38.18 124.4 38.18 117.69C38.18 110.98 32.72 105.52 26.01 105.52V105.52Z" fill="#1B3139"/>
<path d="M58.67 48.2799C50.31 48.2799 43.5 41.4799 43.5 33.1099C43.5 24.7399 50.3 17.9399 58.67 17.9399C67.04 17.9399 73.84 24.7399 73.84 33.1099C73.84 41.4799 67.04 48.2799 58.67 48.2799ZM58.67 20.9499C51.96 20.9499 46.5 26.4099 46.5 33.1199C46.5 39.8299 51.96 45.2899 58.67 45.2899C65.38 45.2899 70.84 39.8299 70.84 33.1199C70.84 26.4099 65.38 20.9499 58.67 20.9499Z" fill="#1B3139"/>
<path d="M91.33 132.85C82.97 132.85 76.16 126.05 76.16 117.68C76.16 109.31 82.96 102.51 91.33 102.51C99.7 102.51 106.5 109.31 106.5 117.68C106.5 126.05 99.7 132.85 91.33 132.85ZM91.33 105.52C84.62 105.52 79.16 110.98 79.16 117.69C79.16 124.4 84.62 129.86 91.33 129.86C98.04 129.86 103.5 124.4 103.5 117.69C103.5 110.98 98.04 105.52 91.33 105.52V105.52Z" fill="#1B3139"/>
<path d="M125.47 48.2099L125.18 45.22C127.42 45 129.55 44.1699 131.35 42.7999L133.17 45.1899C130.93 46.8899 128.27 47.9399 125.47 48.2099V48.2099ZM120.29 47.7799C117.43 47.0799 115 45.72 113.08 43.74L115.23 41.65C116.76 43.22 118.7 44.3099 121.01 44.8699L120.29 47.7799V47.7799ZM136.71 41.38L134.2 39.74C135.43 37.86 136.1 35.67 136.16 33.41L137.66 33.3899L139.16 33.43V33.49C139.09 36.31 138.24 39.0399 136.71 41.3899V41.38ZM110.17 39.38C109.33 37.45 108.89 35.2899 108.89 33.1399C108.89 32.4999 108.93 31.8599 109 31.2199L111.98 31.58C111.92 32.1 111.89 32.6199 111.89 33.1399C111.89 34.8899 112.25 36.6299 112.92 38.1899L110.17 39.38V39.38ZM135.52 29.2299C134.8 27.0999 133.5 25.21 131.77 23.76L133.69 21.45C135.85 23.25 137.47 25.61 138.37 28.27L135.53 29.2299H135.52ZM113.16 27.5499L110.46 26.24C111.71 23.67 113.65 21.5499 116.08 20.1299L117.6 22.7099C115.69 23.8399 114.15 25.5099 113.16 27.5499V27.5499ZM128.15 21.68C126.91 21.23 125.61 20.99 124.29 20.95C123.37 20.96 122.42 21.06 121.53 21.24L120.95 18.2999C122.02 18.0899 123.15 17.97 124.31 17.95C126.02 17.99 127.64 18.3 129.19 18.86L128.16 21.68H128.15Z" fill="#1B3139"/>
<path d="M57.3257 46.117L29.291 104.161L31.9924 105.466L60.0271 47.4218L57.3257 46.117Z" fill="#1B3139"/>
<path d="M59.9723 46.0356L57.3667 47.5225L90.0274 104.76L92.633 103.273L59.9723 46.0356Z" fill="#1B3139"/>
<path d="M118.561 43.8955L116.828 47.5007L119.532 48.8003L121.265 45.1951L118.561 43.8955Z" fill="#1B3139"/>
<path d="M97.19 95.3L94.49 94L97.93 86.85L100.63 88.15L97.19 95.3ZM102.78 83.68L100.08 82.38L103.52 75.23L106.22 76.53L102.78 83.68ZM108.37 72.06L105.67 70.76L109.11 63.61L111.81 64.91L108.37 72.06V72.06ZM113.96 60.44L111.26 59.14L114.7 51.99L117.4 53.29L113.96 60.44Z" fill="#1B3139"/>
<path d="M92.3324 98.4558L90.5997 102.061L93.3036 103.361L95.0364 99.7554L92.3324 98.4558Z" fill="#1B3139"/>
</g>
<defs>
<clipPath id="clip0_1_2251">
<rect width="150" height="150" fill="white"/>
</clipPath>
</defs>
</svg>
