<svg width="150" height="150" viewBox="0 0 150 150" fill="none" xmlns="http://www.w3.org/2000/svg">
<path d="M90.5317 102.047C101.296 96.5494 108.657 85.3609 108.657 72.4512C108.657 53.4012 92.6127 38.0893 73.293 39.2968C56.3497 40.363 42.7463 54.4417 42.2325 71.4235C41.8985 82.5606 47.0496 92.5159 55.1808 98.7845C58.3922 101.251 60.3447 105.015 60.3447 109.074V113.416H90.5189V122.652C90.5189 124.488 89.0288 125.979 87.1919 125.979H63.6845C61.8476 125.979 60.3576 124.488 60.3576 122.652V120.378" stroke="#FF5F46" stroke-width="3.2" stroke-miterlimit="3"/>
<path d="M65.9069 125.966V131.181C65.9069 134.855 68.887 137.848 72.5737 137.848H78.3028C81.9766 137.848 84.9697 134.868 84.9697 131.181V125.966" stroke="#FF5F46" stroke-width="3.2" stroke-miterlimit="3"/>
<path d="M82.0152 77.8721C83.2355 76.3949 83.9677 74.5066 83.9677 72.4513C83.9677 67.737 80.1526 63.9219 75.4383 63.9219C70.7239 63.9219 66.9088 67.737 66.9088 72.4513C66.9088 77.1656 70.7239 80.9808 75.4383 80.9808V113.146" stroke="#FF5F46" stroke-width="3.2" stroke-miterlimit="3"/>
<path d="M82.0152 25.9503C83.2355 24.473 83.9677 22.5847 83.9677 20.5294C83.9677 15.8151 80.1526 12 75.4383 12C70.7239 12 66.9088 15.8151 66.9088 20.5294C66.9088 25.2438 70.7239 29.0589 75.4383 29.0589V39.2326" stroke="#FF5F46" stroke-width="3.2" stroke-miterlimit="3"/>
<path d="M28.9503 65.8617C27.473 64.6414 25.5847 63.9092 23.5294 63.9092C18.8151 63.9092 15 67.7243 15 72.4386C15 77.1529 18.8151 80.9681 23.5294 80.9681C28.2438 80.9681 32.0589 77.1529 32.0589 72.4386H42.2326" stroke="#FF5F46" stroke-width="3.2" stroke-miterlimit="3"/>
<path d="M121.926 79.0155C123.404 80.2359 125.292 80.9681 127.347 80.9681C132.061 80.9681 135.877 77.1529 135.877 72.4386C135.877 67.7243 132.061 63.9092 127.347 63.9092C122.633 63.9092 118.818 67.7243 118.818 72.4386H108.644" stroke="#FF5F46" stroke-width="3.2" stroke-miterlimit="3"/>
<path d="M82.0152 25.9503C83.2355 24.473 83.9677 22.5847 83.9677 20.5294C83.9677 15.8151 80.1526 12 75.4383 12C70.7239 12 66.9088 15.8151 66.9088 20.5294C66.9088 25.2438 70.7239 29.0589 75.4383 29.0589" stroke="#FF5F46" stroke-width="3.2" stroke-miterlimit="3"/>
<path d="M112.96 44.2167C114.861 44.0369 116.724 43.2148 118.175 41.7632C121.502 38.4362 121.502 33.0411 118.175 29.7012C114.848 26.3614 109.453 26.3742 106.113 29.7012C102.774 33.0282 102.786 38.4234 106.113 41.7632L98.9199 48.9567" stroke="#FF5F46" stroke-width="3.2" stroke-miterlimit="3"/>
<path d="M47.2166 34.9166C47.0367 33.0155 46.2146 31.1528 44.7631 29.7013C41.4361 26.3743 36.041 26.3743 32.7011 29.7013C29.3613 33.0283 29.3741 38.4234 32.7011 41.7633C36.0281 45.1031 41.4232 45.0903 44.7631 41.7633L51.9566 48.9568" stroke="#FF5F46" stroke-width="3.2" stroke-miterlimit="3"/>
</svg>
