<svg width="960" height="558" viewBox="0 0 960 558" fill="none" xmlns="http://www.w3.org/2000/svg">
<g filter="url(#filter0_dddddd_1117_13819)">
<path d="M148 116.336C148 77.4903 179.49 46 218.336 46H339.664C378.51 46 410 77.4903 410 116.336V237.664C410 276.51 378.51 308 339.664 308H218.336C179.49 308 148 276.51 148 237.664V116.336Z" fill="white"/>
</g>
<path d="M240.409 167.318C256.374 167.318 269.317 154.375 269.317 138.409C269.317 122.443 256.374 109.5 240.409 109.5C224.443 109.5 211.5 122.443 211.5 138.409C211.5 154.375 224.443 167.318 240.409 167.318Z" fill="#FABFBA"/>
<path d="M317.592 244.622C333.558 244.622 346.501 231.679 346.501 215.713C346.501 199.747 333.558 186.804 317.592 186.804C301.626 186.804 288.684 199.747 288.684 215.713C288.684 231.679 301.626 244.622 317.592 244.622Z" fill="#FABFBA"/>
<path d="M269.317 215.719C269.317 231.681 256.371 244.627 240.409 244.627C224.446 244.627 211.5 231.681 211.5 215.719C211.5 199.756 224.446 186.81 240.409 186.81H248.956C270.826 186.81 288.548 169.087 288.548 147.217V138.545C288.548 122.582 301.494 109.636 317.456 109.636C333.419 109.636 346.365 122.582 346.365 138.545C346.365 154.507 333.419 167.453 317.456 167.453H308.909C287.039 167.453 269.317 185.176 269.317 207.046V215.719Z" fill="#FF5F46"/>
<path d="M481.838 214.5V137.22H497.515L522.245 187.121L546.754 137.22H562.541V214.5H549.293V159.962L527.434 203.681H517.056L495.086 160.073V214.5H481.838ZM600.413 215.825C595.114 215.825 590.33 214.61 586.061 212.182C581.866 209.679 578.554 206.257 576.125 201.914C573.77 197.498 572.592 192.457 572.592 186.79C572.592 180.975 573.807 175.897 576.236 171.554C578.664 167.138 581.976 163.716 586.172 161.287C590.44 158.785 595.224 157.534 600.524 157.534C605.823 157.534 610.57 158.785 614.765 161.287C619.034 163.716 622.346 167.102 624.701 171.444C627.13 175.786 628.344 180.865 628.344 186.679C628.344 192.494 627.13 197.572 624.701 201.914C622.272 206.257 618.924 209.679 614.655 212.182C610.46 214.61 605.712 215.825 600.413 215.825ZM600.413 204.454C603.063 204.454 605.455 203.791 607.589 202.466C609.797 201.142 611.564 199.154 612.888 196.505C614.213 193.855 614.876 190.58 614.876 186.679C614.876 182.778 614.213 179.54 612.888 176.964C611.637 174.314 609.908 172.327 607.7 171.002C605.565 169.678 603.173 169.015 600.524 169.015C597.948 169.015 595.556 169.678 593.348 171.002C591.14 172.327 589.373 174.314 588.048 176.964C586.724 179.54 586.061 182.778 586.061 186.679C586.061 190.58 586.724 193.855 588.048 196.505C589.373 199.154 591.103 201.142 593.237 202.466C595.445 203.791 597.837 204.454 600.413 204.454ZM660.191 215.825C655.26 215.825 650.955 215.052 647.275 213.506C643.668 211.887 640.798 209.679 638.663 206.882C636.603 204.012 635.388 200.737 635.02 197.057H648.268C648.636 198.602 649.299 200.038 650.255 201.362C651.212 202.614 652.5 203.607 654.119 204.343C655.812 205.079 657.799 205.447 660.081 205.447C662.289 205.447 664.092 205.153 665.491 204.564C666.889 203.902 667.919 203.055 668.582 202.025C669.244 200.994 669.575 199.89 669.575 198.713C669.575 196.946 669.097 195.585 668.14 194.628C667.183 193.671 665.785 192.935 663.945 192.42C662.179 191.831 660.044 191.279 657.542 190.764C654.892 190.249 652.316 189.623 649.814 188.887C647.385 188.078 645.177 187.084 643.19 185.906C641.276 184.729 639.731 183.22 638.553 181.38C637.449 179.54 636.897 177.295 636.897 174.646C636.897 171.407 637.743 168.5 639.436 165.924C641.203 163.348 643.705 161.324 646.943 159.852C650.255 158.306 654.193 157.534 658.756 157.534C665.233 157.534 670.385 159.042 674.212 162.06C678.113 165.004 680.395 169.162 681.057 174.535H668.471C668.103 172.474 667.073 170.892 665.38 169.788C663.687 168.61 661.443 168.022 658.646 168.022C655.775 168.022 653.567 168.574 652.022 169.678C650.55 170.708 649.814 172.106 649.814 173.873C649.814 174.977 650.255 176.007 651.139 176.964C652.095 177.847 653.457 178.62 655.223 179.282C656.99 179.871 659.161 180.46 661.737 181.049C665.859 181.858 669.502 182.815 672.667 183.919C675.831 185.023 678.334 186.642 680.174 188.777C682.014 190.911 682.934 193.929 682.934 197.83C683.007 201.362 682.087 204.49 680.174 207.214C678.334 209.937 675.721 212.071 672.335 213.617C668.95 215.089 664.902 215.825 660.191 215.825ZM711.024 215.825C706.46 215.825 702.67 215.052 699.652 213.506C696.635 211.961 694.39 209.9 692.918 207.324C691.446 204.748 690.71 201.951 690.71 198.934C690.71 195.401 691.593 192.346 693.36 189.77C695.2 187.194 697.886 185.207 701.419 183.809C704.952 182.337 709.294 181.601 714.446 181.601H728.467C728.467 178.657 728.062 176.228 727.252 174.314C726.443 172.327 725.192 170.855 723.499 169.898C721.806 168.942 719.635 168.463 716.985 168.463C713.968 168.463 711.392 169.162 709.257 170.561C707.123 171.886 705.798 173.946 705.283 176.743H692.256C692.697 172.769 694.022 169.383 696.23 166.586C698.438 163.716 701.345 161.508 704.952 159.962C708.632 158.343 712.643 157.534 716.985 157.534C722.211 157.534 726.664 158.454 730.344 160.294C734.024 162.06 736.82 164.636 738.734 168.022C740.721 171.334 741.715 175.345 741.715 180.055V214.5H730.454L729.129 205.558C728.393 207.03 727.436 208.391 726.259 209.642C725.155 210.894 723.867 211.998 722.395 212.954C720.923 213.838 719.23 214.537 717.316 215.052C715.476 215.567 713.379 215.825 711.024 215.825ZM714.004 205.337C716.139 205.337 718.016 204.969 719.635 204.233C721.328 203.423 722.763 202.319 723.94 200.921C725.192 199.449 726.148 197.83 726.811 196.063C727.473 194.297 727.915 192.42 728.136 190.433V190.212H715.881C713.305 190.212 711.171 190.543 709.478 191.206C707.785 191.794 706.571 192.678 705.835 193.855C705.099 195.033 704.731 196.394 704.731 197.94C704.731 199.486 705.099 200.81 705.835 201.914C706.571 203.018 707.638 203.865 709.036 204.454C710.435 205.042 712.091 205.337 714.004 205.337ZM753.11 214.5V158.858H766.358V214.5H753.11ZM759.734 150.026C757.305 150.026 755.281 149.29 753.662 147.818C752.117 146.273 751.344 144.396 751.344 142.188C751.344 139.906 752.117 138.066 753.662 136.668C755.281 135.196 757.305 134.46 759.734 134.46C762.163 134.46 764.15 135.196 765.696 136.668C767.315 138.066 768.125 139.906 768.125 142.188C768.125 144.396 767.315 146.273 765.696 147.818C764.15 149.29 762.163 150.026 759.734 150.026ZM804.741 215.825C799.295 215.825 794.4 214.61 790.058 212.182C785.789 209.679 782.44 206.257 780.012 201.914C777.656 197.498 776.479 192.494 776.479 186.9C776.479 181.086 777.656 176.007 780.012 171.665C782.44 167.249 785.789 163.79 790.058 161.287C794.4 158.785 799.332 157.534 804.852 157.534C811.77 157.534 817.584 159.374 822.295 163.054C827.005 166.66 830.023 171.628 831.348 177.958H817.437C816.701 175.161 815.156 172.953 812.8 171.334C810.519 169.714 807.796 168.905 804.631 168.905C801.908 168.905 799.405 169.604 797.124 171.002C794.916 172.401 793.149 174.425 791.824 177.074C790.573 179.724 789.948 182.926 789.948 186.679C789.948 189.55 790.316 192.089 791.052 194.297C791.788 196.505 792.818 198.382 794.143 199.927C795.541 201.399 797.124 202.54 798.89 203.35C800.656 204.159 802.57 204.564 804.631 204.564C806.765 204.564 808.679 204.233 810.372 203.57C812.138 202.834 813.61 201.767 814.788 200.369C816.039 198.97 816.922 197.314 817.437 195.401H831.348C830.023 201.583 827.005 206.551 822.295 210.305C817.584 213.985 811.733 215.825 804.741 215.825ZM859.813 214.5L888.076 137.22H902.87L931.132 214.5H917.111L895.362 152.676L873.613 214.5H859.813ZM872.399 196.284L875.932 185.796H914.02L917.553 196.284H872.399ZM938.45 214.5V137.22H951.698V214.5H938.45Z" fill="white"/>
<defs>
<filter id="filter0_dddddd_1117_13819" x="0.713516" y="0.681084" width="556.573" height="556.573" filterUnits="userSpaceOnUse" color-interpolation-filters="sRGB">
<feFlood flood-opacity="0" result="BackgroundImageFix"/>
<feColorMatrix in="SourceAlpha" type="matrix" values="0 0 0 0 0 0 0 0 0 0 0 0 0 0 0 0 0 0 127 0" result="hardAlpha"/>
<feOffset dy="2.83243"/>
<feGaussianBlur stdDeviation="2.12432"/>
<feColorMatrix type="matrix" values="0 0 0 0 0.105882 0 0 0 0 0.192157 0 0 0 0 0.223529 0 0 0 0.0196802 0"/>
<feBlend mode="normal" in2="BackgroundImageFix" result="effect1_dropShadow_1117_13819"/>
<feColorMatrix in="SourceAlpha" type="matrix" values="0 0 0 0 0 0 0 0 0 0 0 0 0 0 0 0 0 0 127 0" result="hardAlpha"/>
<feOffset dy="5.66487"/>
<feGaussianBlur stdDeviation="5.66487"/>
<feColorMatrix type="matrix" values="0 0 0 0 0.105882 0 0 0 0 0.192157 0 0 0 0 0.223529 0 0 0 0.04 0"/>
<feBlend mode="normal" in2="effect1_dropShadow_1117_13819" result="effect2_dropShadow_1117_13819"/>
<feColorMatrix in="SourceAlpha" type="matrix" values="0 0 0 0 0 0 0 0 0 0 0 0 0 0 0 0 0 0 127 0" result="hardAlpha"/>
<feOffset dy="12.7459"/>
<feGaussianBlur stdDeviation="9.20541"/>
<feColorMatrix type="matrix" values="0 0 0 0 0.105882 0 0 0 0 0.192157 0 0 0 0 0.223529 0 0 0 0.035 0"/>
<feBlend mode="normal" in2="effect2_dropShadow_1117_13819" result="effect3_dropShadow_1117_13819"/>
<feColorMatrix in="SourceAlpha" type="matrix" values="0 0 0 0 0 0 0 0 0 0 0 0 0 0 0 0 0 0 127 0" result="hardAlpha"/>
<feOffset dy="22.6595"/>
<feGaussianBlur stdDeviation="16.9946"/>
<feColorMatrix type="matrix" values="0 0 0 0 0.105882 0 0 0 0 0.192157 0 0 0 0 0.223529 0 0 0 0.04 0"/>
<feBlend mode="normal" in2="effect3_dropShadow_1117_13819" result="effect4_dropShadow_1117_13819"/>
<feColorMatrix in="SourceAlpha" type="matrix" values="0 0 0 0 0 0 0 0 0 0 0 0 0 0 0 0 0 0 127 0" result="hardAlpha"/>
<feOffset dy="45.3189"/>
<feGaussianBlur stdDeviation="28.3243"/>
<feColorMatrix type="matrix" values="0 0 0 0 0.105882 0 0 0 0 0.192157 0 0 0 0 0.223529 0 0 0 0.0503198 0"/>
<feBlend mode="normal" in2="effect4_dropShadow_1117_13819" result="effect5_dropShadow_1117_13819"/>
<feColorMatrix in="SourceAlpha" type="matrix" values="0 0 0 0 0 0 0 0 0 0 0 0 0 0 0 0 0 0 127 0" result="hardAlpha"/>
<feOffset dy="101.968"/>
<feGaussianBlur stdDeviation="73.6432"/>
<feColorMatrix type="matrix" values="0 0 0 0 0.105882 0 0 0 0 0.192157 0 0 0 0 0.223529 0 0 0 0.07 0"/>
<feBlend mode="normal" in2="effect5_dropShadow_1117_13819" result="effect6_dropShadow_1117_13819"/>
<feBlend mode="normal" in="SourceGraphic" in2="effect6_dropShadow_1117_13819" result="shape"/>
</filter>
</defs>
</svg>
