<svg width="150" height="150" viewBox="0 0 150 150" fill="none" xmlns="http://www.w3.org/2000/svg">
<mask id="mask0_14057_491" style="mask-type:luminance" maskUnits="userSpaceOnUse" x="16" y="15" width="118" height="118">
<path d="M16 15.6667H133.333V133H16V15.6667Z" fill="white"/>
</mask>
<g mask="url(#mask0_14057_491)">
<path d="M30.238 52.9678C30.238 53.917 31.0075 54.6865 31.9568 54.6865C32.906 54.6865 33.6755 53.917 33.6755 52.9678V19.1035H115.658V27.8789C115.658 28.828 116.428 29.5977 117.377 29.5977C118.326 29.5975 119.095 28.8279 119.095 27.8789V17.3848C119.095 16.4358 118.326 15.6662 117.377 15.666H31.9568C31.0076 15.666 30.2382 16.4357 30.238 17.3848V52.9678Z" fill="#FF5F46"/>
</g>
<path d="M115.658 35.3691V122.445H110.259C109.309 122.445 108.54 123.215 108.54 124.164C108.54 125.113 109.309 125.883 110.259 125.883H117.377C118.326 125.883 119.095 125.113 119.095 124.164V35.3691C119.095 34.42 118.326 33.6505 117.377 33.6504C116.427 33.6504 115.658 34.4199 115.658 35.3691Z" fill="#FF5F46"/>
<mask id="mask1_14057_491" style="mask-type:luminance" maskUnits="userSpaceOnUse" x="16" y="15" width="118" height="118">
<path d="M16 15.6667H133.333V133H16V15.6667Z" fill="white"/>
</mask>
<g mask="url(#mask1_14057_491)">
<path d="M108.759 124.153C108.759 126.301 109.548 128.264 110.845 129.771H31.9548C28.8531 129.771 26.3367 127.255 26.3367 124.153V54.4678H45.571L52.2498 61.1484C52.531 61.4297 52.9125 61.5878 53.3103 61.5879H63.8015C64.6299 61.5879 65.3014 60.9163 65.3015 60.0879C65.3015 59.2595 64.6299 58.5879 63.8015 58.5879H53.9324L47.2537 51.9072C46.9724 51.6259 46.5909 51.4679 46.1931 51.4678H24.8367C24.0082 51.4678 23.3367 52.1393 23.3367 52.9678V124.153C23.3367 128.912 27.1962 132.771 31.9548 132.771H117.377C118.205 132.771 118.877 132.1 118.877 131.271C118.877 130.443 118.205 129.772 117.377 129.771C115.827 129.771 114.423 129.143 113.405 128.125C112.386 127.106 111.759 125.705 111.759 124.153V60.0879C111.759 59.2595 111.087 58.5879 110.259 58.5879H71.2937C70.4653 58.5879 69.7937 59.2595 69.7937 60.0879C69.7938 60.9163 70.4653 61.5879 71.2937 61.5879H108.759V124.153Z" fill="#FF5F46"/>
<path d="M122.996 124.158C122.995 127.261 120.48 129.776 117.377 129.776C116.549 129.776 115.877 130.448 115.877 131.276C115.877 132.105 116.549 132.776 117.377 132.776C122.137 132.776 125.995 128.918 125.996 124.158V45.8594C125.995 45.0311 125.324 44.3594 124.496 44.3594H117.377C116.549 44.3594 115.878 45.0311 115.877 45.8594C115.877 46.6878 116.549 47.3594 117.377 47.3594H122.996V124.158Z" fill="#FF5F46"/>
<path d="M55.3704 35.1816C55.3704 36.3188 54.4488 37.241 53.3118 37.2412C52.1746 37.2412 51.2522 36.3189 51.2522 35.1816C51.2524 34.0445 52.1747 33.123 53.3118 33.123C54.4487 33.1233 55.3702 34.0446 55.3704 35.1816ZM58.3704 35.1816C58.3702 32.3877 56.1054 30.1233 53.3118 30.123C50.518 30.123 48.2524 32.3875 48.2522 35.1816C48.2522 37.9759 50.5178 40.2412 53.3118 40.2412C56.1055 40.241 58.3704 37.9758 58.3704 35.1816Z" fill="#FF5F46"/>
<path d="M60.4302 47.3594C61.2585 47.3592 61.9302 46.6877 61.9302 45.8594V44.8164C61.9302 40.6329 58.5385 37.2414 54.355 37.2412H52.2681C48.0847 37.2412 44.6929 40.6327 44.6929 44.8164V45.8594C44.6929 46.6878 45.3644 47.3594 46.1929 47.3594H60.4302ZM47.7153 44.3594C47.9446 42.0471 49.8956 40.2412 52.2681 40.2412H54.355C56.7274 40.2414 58.6775 42.0472 58.9067 44.3594H47.7153Z" fill="#FF5F46"/>
<path d="M67.5483 54.4785C68.3768 54.4785 69.0483 53.8069 69.0483 52.9785V24.5049C69.0483 23.6765 68.3768 23.0049 67.5483 23.0049H39.0747C38.2463 23.0049 37.5747 23.6765 37.5747 24.5049V52.9785C37.5747 53.8069 38.2463 54.4785 39.0747 54.4785H67.5483ZM40.5747 26.0049H66.0483V51.4785H40.5747V26.0049Z" fill="#FF5F46"/>
<path d="M74.6667 33.3408C73.7175 33.3408 72.948 32.5713 72.948 31.6221C72.948 30.6729 73.7175 29.9033 74.6667 29.9033C75.616 29.9033 76.3855 30.6729 76.3855 31.6221C76.3855 32.5713 75.616 33.3408 74.6667 33.3408Z" fill="#FF5F46"/>
<path d="M74.6667 40.46C73.7175 40.46 72.948 39.6904 72.948 38.7412C72.948 37.7918 73.7175 37.0225 74.6667 37.0225C75.616 37.0225 76.3855 37.7918 76.3855 38.7412C76.3855 39.6904 75.616 40.46 74.6667 40.46Z" fill="#FF5F46"/>
<path d="M74.6667 47.5781C73.7175 47.5781 72.948 46.8086 72.948 45.8594C72.948 44.9102 73.7175 44.1406 74.6667 44.1406C75.616 44.1406 76.3855 44.9102 76.3855 45.8594C76.3855 46.8086 75.616 47.5781 74.6667 47.5781Z" fill="#FF5F46"/>
<path d="M110.259 33.1221C111.087 33.1221 111.759 32.4505 111.759 31.6221C111.759 30.7936 111.087 30.1221 110.259 30.1221H81.7852C80.9567 30.1221 80.2852 30.7936 80.2852 31.6221C80.2852 32.4505 80.9567 33.1221 81.7852 33.1221H110.259Z" fill="#FF5F46"/>
<path d="M110.259 40.2412C111.087 40.2412 111.759 39.5696 111.759 38.7412C111.759 37.9128 111.087 37.2412 110.259 37.2412H81.7852C80.9567 37.2412 80.2852 37.9128 80.2852 38.7412C80.2852 39.5696 80.9567 40.2412 81.7852 40.2412H110.259Z" fill="#FF5F46"/>
<path d="M110.259 47.3574C111.087 47.3574 111.759 46.6858 111.759 45.8574C111.759 45.029 111.087 44.3574 110.259 44.3574H81.7852C80.9567 44.3574 80.2852 45.029 80.2852 45.8574C80.2852 46.6858 80.9567 47.3574 81.7852 47.3574H110.259Z" fill="#FF5F46"/>
<path d="M85.6245 102.445V111.996H56.5913V90.0674H85.6245V94.9541C85.6245 95.7825 86.2961 96.4541 87.1245 96.4541C87.9528 96.4539 88.6245 95.7824 88.6245 94.9541V88.5674C88.6245 87.7391 87.9528 87.0675 87.1245 87.0674H55.0913C54.2629 87.0674 53.5913 87.739 53.5913 88.5674V113.496C53.5913 114.325 54.2629 114.996 55.0913 114.996H87.1245C87.9528 114.996 88.6245 114.324 88.6245 113.496V102.445C88.6243 101.617 87.9527 100.945 87.1245 100.945C86.2962 100.945 85.6247 101.617 85.6245 102.445Z" fill="#FF5F46"/>
<path d="M73.1665 98.7002C73.1665 99.8374 72.2449 100.76 71.1079 100.76C69.9705 100.76 69.0483 99.8376 69.0483 98.7002C69.0485 97.563 69.9707 96.6416 71.1079 96.6416C72.2448 96.6418 73.1663 97.5632 73.1665 98.7002ZM76.1665 98.7002C76.1663 95.9062 73.9015 93.6418 71.1079 93.6416C68.3138 93.6416 66.0485 95.9062 66.0483 98.7002C66.0483 101.494 68.3137 103.76 71.1079 103.76C73.9017 103.76 76.1665 101.494 76.1665 98.7002Z" fill="#FF5F46"/>
<path d="M69.6074 102.259V105.818C69.6074 106.647 70.279 107.318 71.1074 107.318C71.9358 107.318 72.6074 106.647 72.6074 105.818V102.259C72.6072 101.431 71.9357 100.759 71.1074 100.759C70.2791 100.759 69.6076 101.431 69.6074 102.259Z" fill="#FF5F46"/>
<path d="M66.0754 81.4209V87.0664H61.9026V81.4209C61.9026 76.3467 66.0334 72.2158 71.1077 72.2158C76.1818 72.216 80.3118 76.3468 80.3118 81.4209V87.0664H76.1389V81.4209C76.1389 78.6451 73.8834 76.3888 71.1077 76.3887C68.3318 76.3887 66.0754 78.645 66.0754 81.4209ZM83.3118 81.4209C83.3118 74.6899 77.8386 69.216 71.1077 69.2158C64.3766 69.2158 58.9026 74.6898 58.9026 81.4209V88.5664C58.9026 89.3948 59.5742 90.0664 60.4026 90.0664H67.5754C68.4039 90.0664 69.0754 89.3948 69.0754 88.5664V81.4209C69.0754 80.3019 69.9886 79.3887 71.1077 79.3887C72.2266 79.3888 73.1389 80.302 73.1389 81.4209V88.5664C73.1389 89.3947 73.8107 90.0662 74.6389 90.0664H81.8118C82.6402 90.0664 83.3118 89.3948 83.3118 88.5664V81.4209Z" fill="#FF5F46"/>
</g>
</svg>
