<svg width="901" height="200" viewBox="0 0 901 200" fill="none" xmlns="http://www.w3.org/2000/svg">
<path d="M148.984 162.721C149.382 162.512 149.647 162.114 149.723 161.66C149.799 161.205 149.647 160.75 149.325 160.428C145.991 156.621 135.439 147.433 135.439 147.433C134.454 146.751 133.053 147.433 131.954 147.698C128.298 148.91 124.452 149.554 120.606 149.554C117.784 149.554 114.98 149.232 112.233 148.569C105.527 147.168 99.124 144.591 93.3083 140.973C76.846 130.213 55.7425 129.682 38.7688 139.609C30.7176 145.027 23.8978 152.112 18.7829 160.39C18.5367 160.75 18.5556 161.243 18.8587 161.584C19.1618 161.906 19.6544 161.982 20.0332 161.754C28.0276 157.416 49.51 147.281 68.8517 150.937C76.5997 152.927 84.0636 155.882 91.0729 159.746C96.3393 162.285 101.7 164.918 107.156 166.964C124.793 173.348 142.165 166.244 148.984 162.702V162.721Z" fill="#FF5F46"/>
<path d="M93.65 33.1065L127.219 91.1129C127.408 91.4728 127.37 91.9275 127.105 92.2495C126.859 92.5716 126.442 92.7231 126.044 92.6284C124.32 92.2306 122.558 92.0222 120.778 92.0222C116.326 92.0222 111.969 93.3483 108.256 95.8299C107.782 96.152 107.214 96.2467 106.664 96.133C106.115 96.0194 105.641 95.6784 105.338 95.2048L91.9829 72.1121C91.6798 71.5059 91.0736 71.127 90.3916 71.127C89.7096 71.127 89.1034 71.5059 88.8003 72.1121L67.1853 109.564C66.9959 109.83 66.958 110.171 67.0717 110.455C67.2043 110.758 67.4695 110.966 67.7915 111.004C79.1768 113.429 89.6338 119.131 97.8366 127.41C98.4996 128.091 98.5754 129.171 98.026 129.948C97.4577 130.725 96.4347 130.99 95.5822 130.573C89.7286 127.561 83.4202 125.534 76.9225 124.568C67.8484 123.431 58.6606 124 49.7948 126.197C46.9911 126.879 43.9601 127.675 41.1564 128.546C38.3527 129.418 37.0645 129.986 37.0645 129.986C36.2689 130.251 35.5111 130.592 34.867 130.857H34.6018C33.8441 131.236 32.9158 131.047 32.3475 130.422C31.7792 129.796 31.6844 128.849 32.1202 128.129L87.1332 33.1065C87.8152 31.9509 89.0466 31.25 90.3916 31.25C91.7366 31.25 92.968 31.9509 93.65 33.1065Z" fill="#FF5F46"/>
<path fill-rule="evenodd" clip-rule="evenodd" d="M166.206 99.619C174.561 99.619 181.343 92.8181 181.343 84.426C181.343 76.0338 174.561 69.2329 166.206 69.2329C157.852 69.2329 151.07 76.0338 151.07 84.426C151.07 86.1309 151.354 87.8169 151.904 89.4461L130.895 103.427C124.814 98.0467 115.569 98.4255 109.962 104.298C104.336 110.171 104.336 119.453 109.962 125.326C115.588 131.199 124.814 131.596 130.895 126.197L151.904 140.254C151.373 141.845 151.089 143.512 151.07 145.198C151.108 152.359 156.128 158.516 163.119 159.993C170.109 161.452 177.156 157.834 180.054 151.279C182.953 144.725 180.888 137.052 175.11 132.828C169.332 128.622 161.414 129.02 156.109 133.813L135.101 119.756C136.218 116.498 136.218 112.974 135.101 109.735L156.109 95.8302C158.894 98.2929 162.493 99.6569 166.206 99.638V99.619Z" fill="#FABFBA"/>
<path d="M239.838 137.5V60.22H264.789C273.768 60.22 281.165 61.8024 286.979 64.9672C292.867 68.132 297.21 72.6216 300.006 78.436C302.877 84.1768 304.312 91.0216 304.312 98.9704C304.312 106.772 302.877 113.58 300.006 119.394C297.21 125.135 292.867 129.588 286.979 132.753C281.165 135.918 273.768 137.5 264.789 137.5H239.838ZM253.086 126.239H264.126C270.824 126.239 276.086 125.172 279.914 123.038C283.814 120.83 286.574 117.702 288.194 113.654C289.886 109.532 290.733 104.638 290.733 98.9704C290.733 93.2296 289.886 88.3352 288.194 84.2872C286.574 80.1656 283.814 77.0008 279.914 74.7928C276.086 72.5112 270.824 71.3704 264.126 71.3704H253.086V126.239ZM339.549 138.825C334.029 138.825 329.171 137.647 324.976 135.292C320.781 132.863 317.505 129.478 315.15 125.135C312.795 120.793 311.617 115.788 311.617 110.121C311.617 104.233 312.758 99.0808 315.04 94.6648C317.395 90.2488 320.67 86.7896 324.865 84.2872C329.134 81.7848 334.065 80.5336 339.659 80.5336C345.105 80.5336 349.853 81.748 353.901 84.1768C357.949 86.6056 361.077 89.8808 363.285 94.0024C365.493 98.0504 366.597 102.614 366.597 107.692C366.597 108.428 366.597 109.238 366.597 110.121C366.597 111.004 366.523 111.924 366.376 112.881H321.112V104.38H353.238C353.091 100.332 351.729 97.1672 349.153 94.8856C346.577 92.5304 343.376 91.3528 339.549 91.3528C336.825 91.3528 334.323 91.9784 332.041 93.2296C329.76 94.4808 327.957 96.3576 326.632 98.86C325.307 101.289 324.645 104.38 324.645 108.134V111.335C324.645 114.794 325.27 117.775 326.521 120.278C327.846 122.78 329.613 124.694 331.821 126.018C334.102 127.27 336.641 127.895 339.438 127.895C342.529 127.895 345.069 127.233 347.056 125.908C349.117 124.583 350.625 122.817 351.582 120.609H365.051C364.021 124.068 362.328 127.196 359.973 129.993C357.617 132.716 354.71 134.887 351.251 136.506C347.792 138.052 343.891 138.825 339.549 138.825ZM375.517 137.5V58.012H388.765V137.5H375.517ZM424.413 137.5C420.66 137.5 417.385 136.911 414.588 135.734C411.865 134.556 409.73 132.606 408.185 129.882C406.639 127.159 405.866 123.479 405.866 118.842V93.0088H396.372V81.8584H405.866L407.412 67.1752H419.114V81.8584H434.239V93.0088H419.114V118.842C419.114 121.639 419.703 123.59 420.881 124.694C422.132 125.724 424.193 126.239 427.063 126.239H433.908V137.5H424.413ZM461.938 138.825C457.375 138.825 453.585 138.052 450.567 136.506C447.549 134.961 445.305 132.9 443.833 130.324C442.361 127.748 441.625 124.951 441.625 121.934C441.625 118.401 442.508 115.346 444.274 112.77C446.114 110.194 448.801 108.207 452.333 106.809C455.866 105.337 460.209 104.601 465.361 104.601H479.381C479.381 101.657 478.977 99.228 478.167 97.3144C477.357 95.3272 476.106 93.8552 474.413 92.8984C472.721 91.9416 470.549 91.4632 467.9 91.4632C464.882 91.4632 462.306 92.1624 460.172 93.5608C458.037 94.8856 456.713 96.9464 456.197 99.7432H443.17C443.612 95.7688 444.937 92.3832 447.145 89.5864C449.353 86.716 452.26 84.508 455.866 82.9624C459.546 81.3432 463.557 80.5336 467.9 80.5336C473.125 80.5336 477.578 81.4536 481.258 83.2936C484.938 85.06 487.735 87.636 489.649 91.0216C491.636 94.3336 492.629 98.3448 492.629 103.055V137.5H481.369L480.044 128.558C479.308 130.03 478.351 131.391 477.173 132.642C476.069 133.894 474.781 134.998 473.309 135.954C471.837 136.838 470.145 137.537 468.231 138.052C466.391 138.567 464.293 138.825 461.938 138.825ZM464.919 128.337C467.053 128.337 468.93 127.969 470.549 127.233C472.242 126.423 473.677 125.319 474.855 123.921C476.106 122.449 477.063 120.83 477.725 119.063C478.388 117.297 478.829 115.42 479.05 113.433V113.212H466.796C464.22 113.212 462.085 113.543 460.393 114.206C458.7 114.794 457.485 115.678 456.749 116.855C456.013 118.033 455.645 119.394 455.645 120.94C455.645 122.486 456.013 123.81 456.749 124.914C457.485 126.018 458.553 126.865 459.951 127.454C461.349 128.042 463.005 128.337 464.919 128.337ZM553.499 138.825C547.906 138.825 542.938 137.831 538.595 135.844C534.253 133.857 530.867 131.023 528.439 127.343C526.01 123.663 524.759 119.284 524.685 114.206H538.706C538.706 116.782 539.295 119.1 540.472 121.161C541.723 123.148 543.416 124.73 545.551 125.908C547.759 127.086 550.408 127.674 553.499 127.674C556.149 127.674 558.431 127.27 560.344 126.46C562.331 125.577 563.84 124.362 564.871 122.817C565.975 121.198 566.527 119.321 566.527 117.186C566.527 114.758 565.938 112.77 564.76 111.225C563.656 109.606 562.111 108.244 560.123 107.14C558.136 106.036 555.855 105.079 553.279 104.27C550.703 103.386 547.979 102.466 545.109 101.51C539 99.4488 534.4 96.836 531.309 93.6712C528.218 90.4328 526.672 86.1272 526.672 80.7544C526.672 76.2648 527.739 72.4008 529.874 69.1624C532.008 65.924 534.989 63.4216 538.816 61.6552C542.717 59.8152 547.207 58.8952 552.285 58.8952C557.437 58.8952 561.927 59.8152 565.754 61.6552C569.655 63.4952 572.709 66.0712 574.917 69.3832C577.199 72.6216 578.376 76.5224 578.45 81.0856H564.319C564.245 79.172 563.73 77.4056 562.773 75.7864C561.816 74.0936 560.418 72.732 558.578 71.7016C556.811 70.5976 554.64 70.0456 552.064 70.0456C549.856 69.972 547.869 70.34 546.103 71.1496C544.41 71.8856 543.048 72.9896 542.018 74.4616C541.061 75.86 540.583 77.6264 540.583 79.7608C540.583 81.8216 541.024 83.5512 541.907 84.9496C542.864 86.2744 544.226 87.4152 545.992 88.372C547.759 89.2552 549.819 90.1016 552.175 90.9112C554.53 91.7208 557.106 92.604 559.903 93.5608C563.73 94.812 567.189 96.3576 570.28 98.1976C573.445 99.964 575.947 102.282 577.787 105.153C579.627 108.023 580.547 111.74 580.547 116.303C580.547 120.278 579.517 123.994 577.456 127.454C575.395 130.839 572.378 133.599 568.403 135.734C564.429 137.794 559.461 138.825 553.499 138.825ZM589.675 137.5V58.012H602.923V90.4696C604.763 87.452 607.266 85.06 610.431 83.2936C613.595 81.4536 617.165 80.5336 621.139 80.5336C625.703 80.5336 629.567 81.4904 632.731 83.404C635.896 85.244 638.288 88.004 639.907 91.684C641.6 95.2904 642.447 99.8168 642.447 105.263V137.5H629.309V106.478C629.309 101.694 628.279 98.0504 626.218 95.548C624.231 93.0456 621.176 91.7944 617.055 91.7944C614.405 91.7944 612.013 92.4568 609.879 93.7816C607.744 95.0328 606.051 96.8728 604.8 99.3016C603.549 101.657 602.923 104.564 602.923 108.023V137.5H589.675ZM671.754 138.825C667.191 138.825 663.401 138.052 660.383 136.506C657.365 134.961 655.121 132.9 653.649 130.324C652.177 127.748 651.441 124.951 651.441 121.934C651.441 118.401 652.324 115.346 654.09 112.77C655.93 110.194 658.617 108.207 662.149 106.809C665.682 105.337 670.025 104.601 675.177 104.601H689.197C689.197 101.657 688.793 99.228 687.983 97.3144C687.173 95.3272 685.922 93.8552 684.229 92.8984C682.537 91.9416 680.365 91.4632 677.716 91.4632C674.698 91.4632 672.122 92.1624 669.988 93.5608C667.853 94.8856 666.529 96.9464 666.013 99.7432H652.986C653.428 95.7688 654.753 92.3832 656.961 89.5864C659.169 86.716 662.076 84.508 665.682 82.9624C669.362 81.3432 673.373 80.5336 677.716 80.5336C682.941 80.5336 687.394 81.4536 691.074 83.2936C694.754 85.06 697.551 87.636 699.465 91.0216C701.452 94.3336 702.445 98.3448 702.445 103.055V137.5H691.185L689.86 128.558C689.124 130.03 688.167 131.391 686.989 132.642C685.885 133.894 684.597 134.998 683.125 135.954C681.653 136.838 679.961 137.537 678.047 138.052C676.207 138.567 674.109 138.825 671.754 138.825ZM674.735 128.337C676.869 128.337 678.746 127.969 680.365 127.233C682.058 126.423 683.493 125.319 684.671 123.921C685.922 122.449 686.879 120.83 687.541 119.063C688.204 117.297 688.645 115.42 688.866 113.433V113.212H676.612C674.036 113.212 671.901 113.543 670.209 114.206C668.516 114.794 667.301 115.678 666.565 116.855C665.829 118.033 665.461 119.394 665.461 120.94C665.461 122.486 665.829 123.81 666.565 124.914C667.301 126.018 668.369 126.865 669.767 127.454C671.165 128.042 672.821 128.337 674.735 128.337ZM713.289 137.5V81.8584H725.102L726.316 92.236C727.641 89.8072 729.297 87.7464 731.284 86.0536C733.271 84.2872 735.59 82.9256 738.239 81.9688C740.962 81.012 743.943 80.5336 747.182 80.5336V94.5544H742.545C740.337 94.5544 738.239 94.8488 736.252 95.4376C734.265 95.9528 732.535 96.836 731.063 98.0872C729.665 99.2648 728.561 100.921 727.751 103.055C726.942 105.116 726.537 107.729 726.537 110.894V137.5H713.289ZM754.409 137.5V81.8584H767.657V137.5H754.409ZM761.033 73.0264C758.604 73.0264 756.58 72.2904 754.961 70.8184C753.415 69.2728 752.642 67.396 752.642 65.188C752.642 62.9064 753.415 61.0664 754.961 59.668C756.58 58.196 758.604 57.46 761.033 57.46C763.461 57.46 765.449 58.196 766.994 59.668C768.613 61.0664 769.423 62.9064 769.423 65.188C769.423 67.396 768.613 69.2728 766.994 70.8184C765.449 72.2904 763.461 73.0264 761.033 73.0264ZM779.654 137.5V81.8584H791.356L792.35 91.132C794.043 87.8936 796.471 85.3176 799.636 83.404C802.801 81.4904 806.555 80.5336 810.897 80.5336C815.387 80.5336 819.214 81.4904 822.379 83.404C825.543 85.244 827.972 87.9672 829.665 91.5736C831.431 95.18 832.315 99.6696 832.315 105.042V137.5H819.067V106.257C819.067 101.62 818.036 98.0504 815.975 95.548C813.915 93.0456 810.86 91.7944 806.812 91.7944C804.163 91.7944 801.771 92.42 799.636 93.6712C797.575 94.9224 795.919 96.7624 794.668 99.1912C793.491 101.546 792.902 104.417 792.902 107.802V137.5H779.654ZM866.375 163.113C861.149 163.113 856.549 162.45 852.575 161.126C848.674 159.874 845.62 157.924 843.412 155.274C841.277 152.698 840.21 149.46 840.21 145.559C840.21 143.278 840.762 141.033 841.866 138.825C843.044 136.69 844.773 134.703 847.055 132.863C849.41 130.95 852.391 129.294 855.997 127.895L861.848 134.298C858.316 135.55 855.85 137.058 854.452 138.825C853.053 140.591 852.354 142.394 852.354 144.234C852.354 146.148 852.943 147.73 854.12 148.982C855.372 150.306 857.028 151.3 859.088 151.962C861.223 152.625 863.615 152.956 866.264 152.956C868.84 152.956 871.085 152.588 872.999 151.852C874.912 151.19 876.384 150.233 877.415 148.982C878.519 147.73 879.071 146.222 879.071 144.455C879.071 142.247 878.298 140.444 876.752 139.046C875.207 137.721 872.152 136.911 867.589 136.617C863.688 136.322 860.266 135.918 857.322 135.402C854.378 134.814 851.839 134.151 849.704 133.415C847.644 132.679 845.877 131.87 844.405 130.986C842.933 130.03 841.719 129.073 840.762 128.116V125.577L852.354 113.433L862.18 116.634L849.152 129.33L852.575 122.927C853.311 123.442 854.047 123.921 854.783 124.362C855.592 124.804 856.586 125.209 857.764 125.577C859.015 125.871 860.634 126.166 862.621 126.46C864.608 126.754 867.184 127.049 870.349 127.343C875.28 127.711 879.292 128.594 882.383 129.993C885.474 131.391 887.756 133.268 889.228 135.623C890.7 137.978 891.436 140.812 891.436 144.124C891.436 147.362 890.516 150.417 888.676 153.287C886.909 156.158 884.186 158.513 880.506 160.353C876.826 162.193 872.116 163.113 866.375 163.113ZM866.375 120.83C861.738 120.83 857.727 119.946 854.341 118.18C851.029 116.34 848.49 113.911 846.724 110.894C844.957 107.802 844.074 104.417 844.074 100.737C844.074 96.9832 844.957 93.5976 846.724 90.58C848.49 87.5624 851.029 85.1336 854.341 83.2936C857.727 81.4536 861.738 80.5336 866.375 80.5336C871.012 80.5336 874.986 81.4536 878.298 83.2936C881.61 85.1336 884.149 87.5624 885.916 90.58C887.682 93.5976 888.565 96.9832 888.565 100.737C888.565 104.417 887.682 107.802 885.916 110.894C884.149 113.911 881.61 116.34 878.298 118.18C874.986 119.946 871.012 120.83 866.375 120.83ZM866.375 110.562C869.54 110.562 872.079 109.716 873.992 108.023C875.906 106.33 876.863 103.902 876.863 100.737C876.863 97.572 875.906 95.18 873.992 93.5608C872.079 91.868 869.54 91.0216 866.375 91.0216C863.21 91.0216 860.634 91.868 858.647 93.5608C856.66 95.18 855.666 97.572 855.666 100.737C855.666 103.902 856.66 106.33 858.647 108.023C860.634 109.716 863.21 110.562 866.375 110.562ZM875.538 91.5736L872.999 81.8584H895.852V90.1384L875.538 91.5736Z" fill="white"/>
</svg>
