<svg width="150" height="150" viewBox="0 0 150 150" fill="none" xmlns="http://www.w3.org/2000/svg">
<path d="M44.7 88.76L42.25 90.5C43.8832 92.8146 46.0478 94.7038 48.5621 96.0088C51.0764 97.3138 53.8672 97.9967 56.7 98H59.86C60.6657 98.0012 61.4604 97.8126 62.1797 97.4495C62.8989 97.0864 63.5225 96.559 64 95.91L70.93 86.52C72.1865 87.0781 73.543 87.3765 74.9177 87.3971C76.2925 87.4177 77.6573 87.1602 78.93 86.64L85.76 95.91C86.2253 96.5429 86.8298 97.0604 87.5268 97.4228C88.2237 97.7852 88.9946 97.9826 89.78 98H94.61C96.9249 97.999 99.2058 97.4438 101.262 96.3808C103.319 95.3178 105.091 93.7779 106.43 91.89L107.85 89.89L105.4 88.16L103.98 90.16C102.918 91.6562 101.513 92.8764 99.8831 93.7185C98.2529 94.5605 96.4448 94.9999 94.61 95H89.78C89.4538 95.0007 89.132 94.9252 88.8403 94.7793C88.5486 94.6335 88.2951 94.4213 88.1 94.16L81.44 85.16C81.7 84.94 81.96 84.71 82.21 84.46C83.1728 83.5077 83.9345 82.3717 84.4498 81.1194C84.9651 79.8671 85.2237 78.5241 85.21 77.17L83.3 46.27C85.01 44.27 93.11 35.38 105.05 35.38C107.7 35.5126 110.279 36.2809 112.57 37.62L114.05 35C111.308 33.406 108.219 32.5065 105.05 32.38C90.05 32.38 80.95 44.38 80.57 44.88L80.24 45.32L82.24 77.2C82.2404 78.6241 81.8178 80.0162 81.0259 81.1999C80.234 82.3835 79.1084 83.3054 77.7919 83.8484C76.4754 84.3915 75.0273 84.5315 73.6312 84.2504C72.2351 83.9694 70.9538 83.2801 69.95 82.27C69.2832 81.6189 68.7531 80.8414 68.3907 79.9828C68.0284 79.1242 67.8412 78.2019 67.84 77.27L69.84 45.27L69.51 44.83C69.13 44.32 59.98 32.33 45.03 32.33C41.8467 32.4669 38.7459 33.3838 36 35L37.48 37.62C39.7707 36.2809 42.3499 35.5126 45 35.38C56.94 35.38 65 44.24 66.75 46.27L64.8 77.2C64.7956 78.5394 65.0586 79.8662 65.5738 81.1025C66.0889 82.3389 66.8458 83.46 67.8 84.4C67.98 84.58 68.17 84.74 68.36 84.9L61.55 94.13C61.3549 94.3913 61.1014 94.6035 60.8097 94.7493C60.518 94.8952 60.1961 94.9707 59.87 94.97H56.7C54.3491 94.9691 52.0327 94.4047 49.9448 93.3243C47.8569 92.2438 46.0584 90.6786 44.7 88.76Z" fill="#FF5F46"/>
<path d="M67.55 111C67.6476 119.92 69.4994 128.735 73 136.94C73.1685 137.33 73.4478 137.662 73.8034 137.895C74.1589 138.128 74.575 138.252 75 138.25C75.4251 138.252 75.8412 138.128 76.1967 137.895C76.5523 137.662 76.8316 137.33 77 136.94C80.5007 128.735 82.3525 119.92 82.45 111L79.45 111.06C79.333 118.909 77.8264 126.676 75 134C72.183 126.701 70.6765 118.963 70.55 111.14L67.55 111Z" fill="#FF5F46"/>
<path d="M61.91 56.51L62.82 55.51L61.82 54.51C61.6399 54.31 57.1 49.64 48.63 49.64C39.63 49.64 38.3999 55.02 38.3499 55.25L38.2 55.99L38.7 56.54C38.86 56.73 42.7599 61.01 50.2799 61.01C57.7999 61.01 61.75 56.7 61.91 56.51ZM50.33 58C47.2075 58.0756 44.1539 57.0766 41.68 55.17C42.31 54.17 44.07 52.63 48.68 52.63C52.1684 52.5664 55.59 53.5905 58.47 55.56C56.0787 57.205 53.2317 58.0584 50.33 58Z" fill="#FF5F46"/>
<path d="M101.33 49.61C92.8501 49.61 88.3301 54.28 88.1301 54.48L87.1801 55.48L88.09 56.48C88.26 56.67 92.1501 60.95 99.6701 60.95C107.19 60.95 111.09 56.67 111.25 56.48L111.75 55.93L111.6 55.19C111.56 55 110.38 49.61 101.33 49.61ZM99.6701 58C96.7716 58.0569 93.9282 57.2036 91.5401 55.56C94.4194 53.5892 97.8415 52.565 101.33 52.63C105.95 52.63 107.7 54.22 108.33 55.16C105.856 57.0745 102.797 58.0775 99.6701 58Z" fill="#FF5F46"/>
<path d="M68.2 98.46L70.61 100.24L75 94.29L79.39 100.24L81.8 98.46L75 89.24L68.2 98.46Z" fill="#FF5F46"/>
<path d="M65.59 132.07L67 129.44C48.58 119.44 30.59 107.22 29 79.14C30.9511 81.9094 33.6939 84.0242 36.8683 85.2069C40.0428 86.3896 43.5007 86.5851 46.7882 85.7675C50.0757 84.95 53.0393 83.1576 55.29 80.6257C57.5407 78.0938 58.9734 74.9407 59.4 71.58L56.4 71.2C55.9575 74.6864 54.2034 77.8732 51.4945 80.1122C48.7857 82.3511 45.3256 83.474 41.8183 83.2523C38.3109 83.0306 35.0198 81.481 32.6144 78.9189C30.209 76.3567 28.8701 72.9743 28.87 69.46C28.9573 53.6346 30.0025 37.829 32 22.13C34.86 20.67 48.14 14.75 75 14.75C101.86 14.75 115.13 20.67 118 22.13C120.02 38.0079 121.069 53.9943 121.14 70C121.006 73.4606 119.575 76.7441 117.132 79.1988C114.689 81.6536 111.412 83.1 107.952 83.2511C104.493 83.4022 101.102 82.2469 98.4547 80.0144C95.8071 77.782 94.0956 74.6357 93.66 71.2L90.66 71.58C91.0864 74.9322 92.5144 78.0777 94.7572 80.6052C97.0001 83.1328 99.9534 84.9248 103.231 85.7469C106.509 86.569 109.958 86.383 113.128 85.2131C116.299 84.0433 119.042 81.9441 121 79.19C119.34 107.19 101.36 119.41 83 129.44L84.44 132.07C103.67 121.59 124.19 107.67 124.19 74.9C124.19 73.23 124.19 71.6 124.19 69.99C124.19 69.8 124.19 69.62 124.19 69.44C123.85 40.36 120.93 21.14 120.9 20.94L120.79 20.25L120.2 19.89C119.65 19.56 106.49 11.75 75.05 11.75C43.61 11.75 30.45 19.56 29.9 19.89L29.31 20.25L29.2 20.94C29.2 21.14 26.25 40.36 25.91 69.44C25.91 71.2133 25.91 73.0233 25.91 74.87C25.83 107.67 46.35 121.59 65.59 132.07Z" fill="#FF5F46"/>
<path d="M93.71 101.12C81.5003 104.747 68.4998 104.747 56.29 101.12L55.29 103.96C68.1359 107.8 81.8242 107.8 94.67 103.96L93.71 101.12Z" fill="#FF5F46"/>
</svg>
