<svg width="150" height="150" viewBox="0 0 150 150" fill="none" xmlns="http://www.w3.org/2000/svg">
<path d="M44.7 88.7601L42.25 90.5001C43.8832 92.8148 46.0478 94.7039 48.5621 96.0089C51.0764 97.3139 53.8672 97.9968 56.7 98.0001H59.86C60.6657 98.0013 61.4604 97.8127 62.1797 97.4496C62.8989 97.0865 63.5225 96.5591 64 95.9101L70.93 86.5201C72.1865 87.0782 73.543 87.3766 74.9177 87.3972C76.2925 87.4178 77.6573 87.1603 78.93 86.6401L85.76 95.9101C86.2253 96.543 86.8298 97.0606 87.5268 97.4229C88.2237 97.7853 88.9946 97.9828 89.78 98.0001H94.61C96.9249 97.9991 99.2058 97.4439 101.262 96.3809C103.319 95.3179 105.091 93.7781 106.43 91.8901L107.85 89.8901L105.4 88.1601L103.98 90.1601C102.918 91.6564 101.513 92.8766 99.8831 93.7186C98.2529 94.5607 96.4448 95.0001 94.61 95.0001H89.78C89.4538 95.0009 89.132 94.9253 88.8403 94.7794C88.5486 94.6336 88.2951 94.4215 88.1 94.1601L81.44 85.1601C81.7 84.9401 81.96 84.7101 82.21 84.4601C83.1728 83.5078 83.9345 82.3718 84.4498 81.1195C84.9651 79.8672 85.2237 78.5242 85.21 77.1701L83.3 46.2701C85.01 44.2701 93.11 35.3801 105.05 35.3801C107.7 35.5128 110.279 36.281 112.57 37.6201L114.05 35.0001C111.308 33.4061 108.219 32.5066 105.05 32.3801C90.05 32.3801 80.95 44.3801 80.57 44.8801L80.24 45.3201L82.24 77.2001C82.2404 78.6242 81.8178 80.0164 81.0259 81.2C80.234 82.3837 79.1084 83.3055 77.7919 83.8486C76.4754 84.3917 75.0273 84.5316 73.6312 84.2506C72.2351 83.9695 70.9538 83.2802 69.95 82.2701C69.2832 81.6191 68.7531 80.8415 68.3907 79.9829C68.0284 79.1243 67.8412 78.202 67.84 77.2701L69.84 45.2701L69.51 44.8301C69.13 44.3201 59.98 32.3301 45.03 32.3301C41.8467 32.467 38.7459 33.3839 36 35.0001L37.48 37.6201C39.7707 36.281 42.3499 35.5128 45 35.3801C56.94 35.3801 65 44.2401 66.75 46.2701L64.8 77.2001C64.7956 78.5395 65.0586 79.8663 65.5738 81.1027C66.0889 82.339 66.8458 83.4601 67.8 84.4001C67.98 84.5801 68.17 84.7401 68.36 84.9001L61.55 94.1301C61.3549 94.3915 61.1014 94.6036 60.8097 94.7494C60.518 94.8953 60.1962 94.9709 59.87 94.9701H56.7C54.3491 94.9692 52.0327 94.4049 49.9448 93.3244C47.8569 92.2439 46.0584 90.6788 44.7 88.7601V88.7601Z" fill="#1B3139"/>
<path d="M67.55 111C67.6475 119.92 69.4994 128.735 73 136.94C73.1684 137.33 73.4478 137.662 73.8033 137.895C74.1589 138.128 74.575 138.252 75 138.25C75.425 138.252 75.8411 138.128 76.1967 137.895C76.5522 137.662 76.8316 137.33 77 136.94C80.5006 128.735 82.3525 119.92 82.45 111L79.45 111.06C79.3329 118.909 77.8263 126.676 75 134C72.1829 126.701 70.6765 118.963 70.55 111.14L67.55 111Z" fill="#1B3139"/>
<path d="M61.91 56.5099L62.82 55.5099L61.82 54.5099C61.64 54.3099 57.1 49.6399 48.63 49.6399C39.63 49.6399 38.4 55.0199 38.35 55.2499L38.2 55.9899L38.7 56.5399C38.86 56.7299 42.76 61.0099 50.28 61.0099C57.8 61.0099 61.75 56.6999 61.91 56.5099ZM50.33 57.9999C47.2076 58.0755 44.1539 57.0764 41.68 55.1699C42.31 54.1699 44.07 52.6299 48.68 52.6299C52.1684 52.5663 55.5901 53.5903 58.47 55.5599C56.0788 57.2049 53.2318 58.0583 50.33 57.9999V57.9999Z" fill="#1B3139"/>
<path d="M101.33 49.6101C92.85 49.6101 88.33 54.2801 88.13 54.4801L87.18 55.4801L88.09 56.4801C88.26 56.6701 92.15 60.9501 99.67 60.9501C107.19 60.9501 111.09 56.6701 111.25 56.4801L111.75 55.9301L111.6 55.1901C111.56 55.0001 110.38 49.6101 101.33 49.6101ZM99.67 58.0001C96.7715 58.0571 93.9281 57.2037 91.54 55.5601C94.4193 53.5893 97.8414 52.5652 101.33 52.6301C105.95 52.6301 107.7 54.2201 108.33 55.1601C105.856 57.0746 102.797 58.0776 99.67 58.0001V58.0001Z" fill="#1B3139"/>
<path d="M68.2 98.46L70.61 100.24L75 94.29L79.39 100.24L81.8 98.46L75 89.24L68.2 98.46Z" fill="#1B3139"/>
<path d="M65.59 132.07L67 129.44C48.58 119.44 30.59 107.22 29 79.14C30.9511 81.9094 33.6938 84.0242 36.8683 85.2069C40.0428 86.3897 43.5007 86.5851 46.7882 85.7675C50.0757 84.95 53.0392 83.1576 55.2899 80.6257C57.5406 78.0938 58.9733 74.9407 59.4 71.58L56.4 71.2C55.9575 74.6864 54.2034 77.8732 51.4945 80.1122C48.7857 82.3511 45.3256 83.474 41.8183 83.2523C38.3109 83.0306 35.0197 81.481 32.6144 78.9189C30.209 76.3567 28.87 72.9744 28.87 69.46C28.9573 53.6346 30.0025 37.829 32 22.13C34.86 20.67 48.14 14.75 75 14.75C101.86 14.75 115.13 20.67 118 22.13C120.02 38.0079 121.069 53.9943 121.14 70C121.006 73.4606 119.575 76.7441 117.132 79.1988C114.689 81.6536 111.412 83.1 107.952 83.2511C104.493 83.4022 101.102 82.2469 98.4547 80.0144C95.8071 77.782 94.0956 74.6357 93.66 71.2L90.66 71.58C91.0864 74.9322 92.5144 78.0777 94.7572 80.6052C97 83.1328 99.9533 84.9248 103.231 85.7469C106.509 86.569 109.958 86.383 113.128 85.2131C116.299 84.0433 119.042 81.9441 121 79.19C119.34 107.19 101.36 119.41 83 129.44L84.44 132.07C103.67 121.59 124.19 107.67 124.19 74.9C124.19 73.23 124.19 71.6 124.19 69.99C124.19 69.8 124.19 69.62 124.19 69.44C123.85 40.36 120.93 21.14 120.9 20.94L120.79 20.25L120.2 19.89C119.65 19.56 106.49 11.75 75.05 11.75C43.61 11.75 30.45 19.56 29.9 19.89L29.31 20.25L29.2 20.94C29.2 21.14 26.25 40.36 25.91 69.44C25.91 71.2133 25.91 73.0233 25.91 74.87C25.83 107.67 46.35 121.59 65.59 132.07Z" fill="#1B3139"/>
<path d="M93.71 101.12C81.5003 104.747 68.4997 104.747 56.29 101.12L55.29 103.96C68.1358 107.8 81.8242 107.8 94.67 103.96L93.71 101.12Z" fill="#1B3139"/>
</svg>
