<svg width="150" height="150" viewBox="0 0 150 150" fill="none" xmlns="http://www.w3.org/2000/svg">
<path d="M118.85 114.99C113.92 116.18 108.77 116.82 103.48 116.82C93.27 116.82 83.61 114.47 75 110.28C66.4 106.09 56.73 103.74 46.52 103.74C36.31 103.74 26.65 106.09 18.04 110.28V55.2901L75 18.0801L131.95 55.2901V95.1701C123.35 99.3601 113.68 101.71 103.47 101.71C93.26 101.71 83.6 99.3601 74.99 95.1701C66.39 90.9801 56.72 88.6301 46.51 88.6301C41.21 88.6301 36.07 89.2601 31.14 90.4601" stroke="#FF5F46" stroke-width="3" stroke-miterlimit="3" stroke-linecap="square"/>
<path d="M92.8401 51.8096L111.41 62.5396L92.8401 73.2596" stroke="#FF5F46" stroke-width="3" stroke-miterlimit="3" stroke-linecap="square"/>
<path d="M57.1601 73.2596L38.5901 62.5396L57.1601 51.8096" stroke="#FF5F46" stroke-width="3" stroke-miterlimit="3" stroke-linecap="square"/>
<path d="M65.78 77.2698L84.22 47.7998" stroke="#FF5F46" stroke-width="3" stroke-miterlimit="3" stroke-linecap="square"/>
<path d="M18.05 125.38C26.65 121.19 36.32 118.84 46.53 118.84C56.74 118.84 66.4001 121.19 75.0101 125.38C83.6101 129.57 93.2801 131.92 103.49 131.92C113.7 131.92 123.36 129.57 131.97 125.38V88.1899" stroke="#FF5F46" stroke-width="3" stroke-miterlimit="3" stroke-linecap="square"/>
</svg>
