<svg width="150" height="150" viewBox="0 0 150 150" fill="none" xmlns="http://www.w3.org/2000/svg">
<path d="M118.85 114.99C113.92 116.18 108.77 116.82 103.48 116.82C93.27 116.82 83.61 114.47 75 110.28C66.4 106.09 56.73 103.74 46.52 103.74C36.31 103.74 26.65 106.09 18.04 110.28V55.29L75 18.08L131.95 55.29V95.17C123.35 99.36 113.68 101.71 103.47 101.71C93.26 101.71 83.6 99.36 74.99 95.17C66.39 90.98 56.72 88.63 46.51 88.63C41.21 88.63 36.07 89.26 31.14 90.46" stroke="#1B3139" stroke-width="3" stroke-miterlimit="3" stroke-linecap="square"/>
<path d="M92.8401 51.8098L111.41 62.5398L92.8401 73.2598" stroke="#1B3139" stroke-width="3" stroke-miterlimit="3" stroke-linecap="square"/>
<path d="M57.1601 73.2598L38.5901 62.5398L57.1601 51.8098" stroke="#1B3139" stroke-width="3" stroke-miterlimit="3" stroke-linecap="square"/>
<path d="M65.7801 77.2698L84.2201 47.7998" stroke="#1B3139" stroke-width="3" stroke-miterlimit="3" stroke-linecap="square"/>
<path d="M18.05 125.38C26.65 121.19 36.32 118.84 46.53 118.84C56.74 118.84 66.4001 121.19 75.0101 125.38C83.6101 129.57 93.2801 131.92 103.49 131.92C113.7 131.92 123.36 129.57 131.97 125.38V88.1899" stroke="#1B3139" stroke-width="3" stroke-miterlimit="3" stroke-linecap="square"/>
</svg>
