<svg width="1139" height="200" viewBox="0 0 1139 200" fill="none" xmlns="http://www.w3.org/2000/svg">
<path d="M25 175.404L25.0006 104.197L57.1626 104.197L57.1625 142.872L95.5182 142.872L95.5182 175.404L25 175.404Z" fill="#618794"/>
<path d="M174.997 25.0005L174.996 96.2082L142.834 96.2082L142.835 57.5327L104.479 57.5327L104.479 25.0005L174.997 25.0005Z" fill="#618794"/>
<rect width="53.6735" height="53.6752" transform="matrix(1 0 5.39465e-06 1 25 25.0005)" fill="#C4CCD6"/>
<rect width="53.6737" height="53.6752" transform="matrix(1 0 5.39465e-06 1 121.775 121.744)" fill="#C4CCD6"/>
<path d="M239.838 137.5V60.22H253.086V127.122H287.531V137.5H239.838ZM315.223 138.825C310.659 138.825 306.869 138.052 303.851 136.506C300.834 134.961 298.589 132.9 297.117 130.324C295.645 127.748 294.909 124.951 294.909 121.934C294.909 118.401 295.792 115.346 297.559 112.77C299.399 110.194 302.085 108.207 305.618 106.809C309.151 105.337 313.493 104.601 318.645 104.601H332.666C332.666 101.657 332.261 99.228 331.451 97.3144C330.642 95.3272 329.391 93.8552 327.698 92.8984C326.005 91.9416 323.834 91.4632 321.184 91.4632C318.167 91.4632 315.591 92.1624 313.456 93.5608C311.322 94.8856 309.997 96.9464 309.482 99.7432H296.455C296.896 95.7688 298.221 92.3832 300.429 89.5864C302.637 86.716 305.544 84.508 309.151 82.9624C312.831 81.3432 316.842 80.5336 321.184 80.5336C326.41 80.5336 330.863 81.4536 334.543 83.2936C338.223 85.06 341.019 87.636 342.933 91.0216C344.92 94.3336 345.914 98.3448 345.914 103.055V137.5H334.653L333.328 128.558C332.592 130.03 331.635 131.391 330.458 132.642C329.354 133.894 328.066 134.998 326.594 135.954C325.122 136.838 323.429 137.537 321.515 138.052C319.675 138.567 317.578 138.825 315.223 138.825ZM318.203 128.337C320.338 128.337 322.215 127.969 323.834 127.233C325.527 126.423 326.962 125.319 328.139 123.921C329.391 122.449 330.347 120.83 331.01 119.063C331.672 117.297 332.114 115.42 332.335 113.433V113.212H320.08C317.504 113.212 315.37 113.543 313.677 114.206C311.984 114.794 310.77 115.678 310.034 116.855C309.298 118.033 308.93 119.394 308.93 120.94C308.93 122.486 309.298 123.81 310.034 124.914C310.77 126.018 311.837 126.865 313.235 127.454C314.634 128.042 316.29 128.337 318.203 128.337ZM392.637 137.5L368.018 107.03L390.098 81.8584H405.885L378.396 112.439V102.172L409.197 137.5H392.637ZM356.757 137.5V58.012H370.005V137.5H356.757ZM436.425 138.825C430.905 138.825 426.047 137.647 421.852 135.292C417.657 132.863 414.381 129.478 412.026 125.135C409.671 120.793 408.493 115.788 408.493 110.121C408.493 104.233 409.634 99.0808 411.916 94.6648C414.271 90.2488 417.546 86.7896 421.741 84.2872C426.01 81.7848 430.941 80.5336 436.535 80.5336C441.981 80.5336 446.729 81.748 450.777 84.1768C454.825 86.6056 457.953 89.8808 460.161 94.0024C462.369 98.0504 463.473 102.614 463.473 107.692C463.473 108.428 463.473 109.238 463.473 110.121C463.473 111.004 463.399 111.924 463.252 112.881H417.988V104.38H450.114C449.967 100.332 448.605 97.1672 446.029 94.8856C443.453 92.5304 440.252 91.3528 436.425 91.3528C433.701 91.3528 431.199 91.9784 428.917 93.2296C426.636 94.4808 424.833 96.3576 423.508 98.86C422.183 101.289 421.521 104.38 421.521 108.134V111.335C421.521 114.794 422.146 117.775 423.397 120.278C424.722 122.78 426.489 124.694 428.697 126.018C430.978 127.27 433.517 127.895 436.314 127.895C439.405 127.895 441.945 127.233 443.932 125.908C445.993 124.583 447.501 122.817 448.458 120.609H461.927C460.897 124.068 459.204 127.196 456.849 129.993C454.493 132.716 451.586 134.887 448.127 136.506C444.668 138.052 440.767 138.825 436.425 138.825ZM475.153 137.5V75.7864C475.153 71.5176 475.852 68.0952 477.25 65.5192C478.722 62.8696 480.82 60.956 483.543 59.7784C486.266 58.6008 489.505 58.012 493.258 58.012H499.882V69.2728H495.245C492.817 69.2728 491.05 69.788 489.946 70.8184C488.916 71.7752 488.401 73.468 488.401 75.8968V137.5H475.153ZM467.204 93.0088V81.8584H500.986V93.0088H467.204ZM512.357 137.5V58.012H525.605V137.5H512.357ZM563.054 138.825C557.755 138.825 552.971 137.61 548.702 135.182C544.507 132.679 541.195 129.257 538.766 124.914C536.411 120.498 535.233 115.457 535.233 109.79C535.233 103.975 536.448 98.8968 538.877 94.5544C541.305 90.1384 544.617 86.716 548.813 84.2872C553.081 81.7848 557.865 80.5336 563.165 80.5336C568.464 80.5336 573.211 81.7848 577.406 84.2872C581.675 86.716 584.987 90.1016 587.342 94.444C589.771 98.7864 590.985 103.865 590.985 109.679C590.985 115.494 589.771 120.572 587.342 124.914C584.913 129.257 581.565 132.679 577.296 135.182C573.101 137.61 568.353 138.825 563.054 138.825ZM563.054 127.454C565.704 127.454 568.096 126.791 570.23 125.466C572.438 124.142 574.205 122.154 575.529 119.505C576.854 116.855 577.517 113.58 577.517 109.679C577.517 105.778 576.854 102.54 575.529 99.964C574.278 97.3144 572.549 95.3272 570.341 94.0024C568.206 92.6776 565.814 92.0152 563.165 92.0152C560.589 92.0152 558.197 92.6776 555.989 94.0024C553.781 95.3272 552.014 97.3144 550.689 99.964C549.365 102.54 548.702 105.778 548.702 109.679C548.702 113.58 549.365 116.855 550.689 119.505C552.014 122.154 553.744 124.142 555.878 125.466C558.086 126.791 560.478 127.454 563.054 127.454ZM609.741 137.5L593.402 81.8584H606.54L617.911 127.564L615.482 127.454L628.178 81.8584H642.972L655.778 127.454H653.349L664.721 81.8584H677.858L661.519 137.5H647.829L634.25 90.3592H637.01L623.431 137.5H609.741ZM742.428 138.825C734.774 138.825 728.15 137.169 722.556 133.857C717.036 130.471 712.768 125.798 709.75 119.836C706.806 113.801 705.334 106.846 705.334 98.9704C705.334 91.0216 706.806 84.0664 709.75 78.1048C712.768 72.0696 717.036 67.3592 722.556 63.9736C728.15 60.588 734.774 58.8952 742.428 58.8952C751.628 58.8952 759.136 61.1768 764.95 65.74C770.764 70.2296 774.444 76.596 775.99 84.8392H761.417C760.387 80.4968 758.289 77.0744 755.124 74.572C751.96 72.0696 747.691 70.8184 742.318 70.8184C737.46 70.8184 733.265 71.9592 729.732 74.2408C726.273 76.4488 723.587 79.6872 721.673 83.956C719.833 88.1512 718.913 93.156 718.913 98.9704C718.913 104.785 719.833 109.79 721.673 113.985C723.587 118.106 726.273 121.308 729.732 123.59C733.265 125.798 737.46 126.902 742.318 126.902C747.691 126.902 751.96 125.761 755.124 123.479C758.289 121.124 760.387 117.886 761.417 113.764H775.99C774.518 121.566 770.838 127.711 764.95 132.201C759.136 136.617 751.628 138.825 742.428 138.825ZM811.144 138.825C805.845 138.825 801.061 137.61 796.792 135.182C792.597 132.679 789.285 129.257 786.856 124.914C784.501 120.498 783.323 115.457 783.323 109.79C783.323 103.975 784.537 98.8968 786.966 94.5544C789.395 90.1384 792.707 86.716 796.902 84.2872C801.171 81.7848 805.955 80.5336 811.254 80.5336C816.553 80.5336 821.301 81.7848 825.496 84.2872C829.765 86.716 833.077 90.1016 835.432 94.444C837.861 98.7864 839.075 103.865 839.075 109.679C839.075 115.494 837.861 120.572 835.432 124.914C833.003 129.257 829.654 132.679 825.385 135.182C821.19 137.61 816.443 138.825 811.144 138.825ZM811.144 127.454C813.793 127.454 816.185 126.791 818.32 125.466C820.528 124.142 822.294 122.154 823.619 119.505C824.944 116.855 825.606 113.58 825.606 109.679C825.606 105.778 824.944 102.54 823.619 99.964C822.368 97.3144 820.638 95.3272 818.43 94.0024C816.296 92.6776 813.904 92.0152 811.254 92.0152C808.678 92.0152 806.286 92.6776 804.078 94.0024C801.87 95.3272 800.104 97.3144 798.779 99.964C797.454 102.54 796.792 105.778 796.792 109.679C796.792 113.58 797.454 116.855 798.779 119.505C800.104 122.154 801.833 124.142 803.968 125.466C806.176 126.791 808.568 127.454 811.144 127.454ZM848.732 137.5V81.8584H860.434L861.428 91.132C863.12 87.8936 865.549 85.3176 868.714 83.404C871.879 81.4904 875.632 80.5336 879.975 80.5336C884.464 80.5336 888.292 81.4904 891.456 83.404C894.621 85.244 897.05 87.9672 898.743 91.5736C900.509 95.18 901.392 99.6696 901.392 105.042V137.5H888.144V106.257C888.144 101.62 887.114 98.0504 885.053 95.548C882.992 93.0456 879.938 91.7944 875.89 91.7944C873.24 91.7944 870.848 92.42 868.714 93.6712C866.653 94.9224 864.997 96.7624 863.746 99.1912C862.568 101.546 861.98 104.417 861.98 107.802V137.5H848.732ZM912.048 137.5V81.8584H923.75L924.744 91.132C926.436 87.8936 928.865 85.3176 932.03 83.404C935.195 81.4904 938.948 80.5336 943.291 80.5336C947.78 80.5336 951.608 81.4904 954.772 83.404C957.937 85.244 960.366 87.9672 962.059 91.5736C963.825 95.18 964.708 99.6696 964.708 105.042V137.5H951.46V106.257C951.46 101.62 950.43 98.0504 948.369 95.548C946.308 93.0456 943.254 91.7944 939.206 91.7944C936.556 91.7944 934.164 92.42 932.03 93.6712C929.969 94.9224 928.313 96.7624 927.062 99.1912C925.884 101.546 925.296 104.417 925.296 107.802V137.5H912.048ZM1001.42 138.825C995.898 138.825 991.041 137.647 986.845 135.292C982.65 132.863 979.375 129.478 977.02 125.135C974.665 120.793 973.487 115.788 973.487 110.121C973.487 104.233 974.628 99.0808 976.909 94.6648C979.265 90.2488 982.54 86.7896 986.735 84.2872C991.004 81.7848 995.935 80.5336 1001.53 80.5336C1006.97 80.5336 1011.72 81.748 1015.77 84.1768C1019.82 86.6056 1022.95 89.8808 1025.15 94.0024C1027.36 98.0504 1028.47 102.614 1028.47 107.692C1028.47 108.428 1028.47 109.238 1028.47 110.121C1028.47 111.004 1028.39 111.924 1028.25 112.881H982.981V104.38H1015.11C1014.96 100.332 1013.6 97.1672 1011.02 94.8856C1008.45 92.5304 1005.25 91.3528 1001.42 91.3528C998.695 91.3528 996.193 91.9784 993.911 93.2296C991.629 94.4808 989.826 96.3576 988.501 98.86C987.177 101.289 986.514 104.38 986.514 108.134V111.335C986.514 114.794 987.14 117.775 988.391 120.278C989.716 122.78 991.482 124.694 993.69 126.018C995.972 127.27 998.511 127.895 1001.31 127.895C1004.4 127.895 1006.94 127.233 1008.93 125.908C1010.99 124.583 1012.49 122.817 1013.45 120.609H1026.92C1025.89 124.068 1024.2 127.196 1021.84 129.993C1019.49 132.716 1016.58 134.887 1013.12 136.506C1009.66 138.052 1005.76 138.825 1001.42 138.825ZM1063.77 138.825C1058.33 138.825 1053.43 137.61 1049.09 135.182C1044.82 132.679 1041.47 129.257 1039.04 124.914C1036.69 120.498 1035.51 115.494 1035.51 109.9C1035.51 104.086 1036.69 99.0072 1039.04 94.6648C1041.47 90.2488 1044.82 86.7896 1049.09 84.2872C1053.43 81.7848 1058.36 80.5336 1063.88 80.5336C1070.8 80.5336 1076.61 82.3736 1081.33 86.0536C1086.04 89.66 1089.05 94.628 1090.38 100.958H1076.47C1075.73 98.1608 1074.19 95.9528 1071.83 94.3336C1069.55 92.7144 1066.83 91.9048 1063.66 91.9048C1060.94 91.9048 1058.44 92.604 1056.15 94.0024C1053.95 95.4008 1052.18 97.4248 1050.85 100.074C1049.6 102.724 1048.98 105.926 1048.98 109.679C1048.98 112.55 1049.35 115.089 1050.08 117.297C1050.82 119.505 1051.85 121.382 1053.17 122.927C1054.57 124.399 1056.15 125.54 1057.92 126.35C1059.69 127.159 1061.6 127.564 1063.66 127.564C1065.8 127.564 1067.71 127.233 1069.4 126.57C1071.17 125.834 1072.64 124.767 1073.82 123.369C1075.07 121.97 1075.95 120.314 1076.47 118.401H1090.38C1089.05 124.583 1086.04 129.551 1081.33 133.305C1076.61 136.985 1070.76 138.825 1063.77 138.825ZM1123.15 137.5C1119.4 137.5 1116.13 136.911 1113.33 135.734C1110.61 134.556 1108.47 132.606 1106.93 129.882C1105.38 127.159 1104.61 123.479 1104.61 118.842V93.0088H1095.11V81.8584H1104.61L1106.15 67.1752H1117.86V81.8584H1132.98V93.0088H1117.86V118.842C1117.86 121.639 1118.44 123.59 1119.62 124.694C1120.87 125.724 1122.93 126.239 1125.8 126.239H1132.65V137.5H1123.15Z" fill="#1B3139"/>
</svg>
