<svg width="1116" height="724" viewBox="0 0 1116 724" fill="none" xmlns="http://www.w3.org/2000/svg">
<g filter="url(#filter0_dddddd_1117_13836)">
<path d="M192 150.383C192 99.9135 232.913 59.0001 283.383 59.0001H441.017C491.487 59.0001 532.4 99.9135 532.4 150.383V308.018C532.4 358.487 491.487 399.4 441.017 399.4H283.383C232.913 399.4 192 358.487 192 308.018V150.383Z" fill="white"/>
</g>
<path d="M307.114 217.23C329.821 217.23 348.229 198.822 348.229 176.115C348.229 153.408 329.821 135 307.114 135C284.408 135 266 153.408 266 176.115C266 198.822 284.408 217.23 307.114 217.23Z" fill="#FABFBA"/>
<path d="M416.884 327.173C439.591 327.173 457.999 308.765 457.999 286.058C457.999 263.351 439.591 244.943 416.884 244.943C394.177 244.943 375.77 263.351 375.77 286.058C375.77 308.765 394.177 327.173 416.884 327.173Z" fill="#FABFBA"/>
<path d="M348.229 286.066C348.229 308.769 329.817 327.181 307.114 327.181C284.412 327.181 266 308.769 266 286.066C266 263.364 284.412 244.952 307.114 244.952H319.27C350.374 244.952 375.579 219.746 375.579 188.642V176.308C375.579 153.605 393.991 135.193 416.694 135.193C439.396 135.193 457.808 153.605 457.808 176.308C457.808 199.01 439.396 217.423 416.694 217.423H404.538C373.434 217.423 348.229 242.628 348.229 273.732V286.066Z" fill="#FF5F46"/>
<path d="M603.899 217.2V139.92H623.771C632.75 139.92 640.147 141.503 645.962 144.667C651.85 147.759 656.192 152.211 658.989 158.026C661.859 163.767 663.294 170.685 663.294 178.781C663.294 186.73 661.859 193.575 658.989 199.315C656.192 205.056 651.85 209.472 645.962 212.563C640.147 215.655 632.75 217.2 623.771 217.2H603.899ZM613.173 209.472H623.55C630.984 209.472 636.909 208.258 641.325 205.829C645.741 203.327 648.906 199.794 650.819 195.231C652.733 190.594 653.69 185.111 653.69 178.781C653.69 172.304 652.733 166.747 650.819 162.111C648.906 157.474 645.741 153.904 641.325 151.402C636.909 148.899 630.984 147.648 623.55 147.648H613.173V209.472ZM691.343 218.525C686.927 218.525 683.247 217.715 680.303 216.096C677.359 214.403 675.151 212.195 673.679 209.472C672.207 206.675 671.471 203.695 671.471 200.53C671.471 196.703 672.428 193.464 674.341 190.815C676.329 188.091 679.089 186.031 682.621 184.632C686.154 183.234 690.276 182.535 694.986 182.535H709.449C709.449 178.781 709.007 175.653 708.124 173.151C707.241 170.648 705.805 168.771 703.818 167.52C701.831 166.269 699.181 165.643 695.869 165.643C692.557 165.643 689.724 166.49 687.369 168.183C685.013 169.802 683.541 172.231 682.953 175.469H673.458C673.9 171.642 675.188 168.44 677.322 165.864C679.457 163.215 682.143 161.227 685.381 159.903C688.693 158.504 692.189 157.805 695.869 157.805C701.095 157.805 705.401 158.762 708.786 160.675C712.172 162.515 714.674 165.128 716.293 168.514C717.913 171.826 718.722 175.763 718.722 180.327V217.2H710.442L709.89 207.264C709.154 208.81 708.197 210.282 707.02 211.68C705.916 213.005 704.591 214.183 703.045 215.213C701.5 216.243 699.733 217.053 697.746 217.642C695.833 218.231 693.698 218.525 691.343 218.525ZM692.668 210.687C695.097 210.687 697.341 210.135 699.402 209.031C701.463 207.927 703.229 206.455 704.701 204.615C706.247 202.701 707.425 200.567 708.234 198.211C709.044 195.856 709.449 193.391 709.449 190.815V189.711H695.759C692.3 189.711 689.466 190.152 687.258 191.035C685.124 191.919 683.578 193.17 682.621 194.789C681.665 196.335 681.186 198.101 681.186 200.088C681.186 202.223 681.628 204.099 682.511 205.719C683.394 207.264 684.682 208.479 686.375 209.362C688.141 210.245 690.239 210.687 692.668 210.687ZM751.744 217.2C748.432 217.2 745.561 216.685 743.133 215.655C740.704 214.624 738.827 212.895 737.502 210.466C736.251 207.963 735.625 204.615 735.625 200.419V166.968H725.469V159.13H735.625L736.84 144.667H744.899V159.13H761.349V166.968H744.899V200.419C744.899 203.879 745.598 206.234 746.997 207.485C748.395 208.663 750.861 209.251 754.393 209.251H761.128V217.2H751.744ZM788.866 218.525C784.45 218.525 780.77 217.715 777.826 216.096C774.882 214.403 772.674 212.195 771.202 209.472C769.73 206.675 768.994 203.695 768.994 200.53C768.994 196.703 769.951 193.464 771.864 190.815C773.851 188.091 776.611 186.031 780.144 184.632C783.677 183.234 787.799 182.535 792.509 182.535H806.971C806.971 178.781 806.53 175.653 805.647 173.151C804.763 170.648 803.328 168.771 801.341 167.52C799.354 166.269 796.704 165.643 793.392 165.643C790.08 165.643 787.247 166.49 784.891 168.183C782.536 169.802 781.064 172.231 780.475 175.469H770.981C771.423 171.642 772.711 168.44 774.845 165.864C776.979 163.215 779.666 161.227 782.904 159.903C786.216 158.504 789.712 157.805 793.392 157.805C798.618 157.805 802.923 158.762 806.309 160.675C809.695 162.515 812.197 165.128 813.816 168.514C815.435 171.826 816.245 175.763 816.245 180.327V217.2H807.965L807.413 207.264C806.677 208.81 805.72 210.282 804.543 211.68C803.439 213.005 802.114 214.183 800.568 215.213C799.023 216.243 797.256 217.053 795.269 217.642C793.355 218.231 791.221 218.525 788.866 218.525ZM790.191 210.687C792.619 210.687 794.864 210.135 796.925 209.031C798.986 207.927 800.752 206.455 802.224 204.615C803.77 202.701 804.947 200.567 805.757 198.211C806.567 195.856 806.971 193.391 806.971 190.815V189.711H793.282C789.823 189.711 786.989 190.152 784.781 191.035C782.647 191.919 781.101 193.17 780.144 194.789C779.187 196.335 778.709 198.101 778.709 200.088C778.709 202.223 779.151 204.099 780.034 205.719C780.917 207.264 782.205 208.479 783.898 209.362C785.664 210.245 787.762 210.687 790.191 210.687ZM857.179 218.525C853.646 218.525 850.592 218.01 848.016 216.979C845.514 215.875 843.379 214.514 841.613 212.895C839.92 211.275 838.522 209.693 837.418 208.147L836.645 217.2H828.254V137.712H837.528V168.293C839.294 164.834 841.907 162.221 845.366 160.455C848.826 158.688 852.69 157.805 856.958 157.805C862.258 157.805 866.894 159.093 870.869 161.669C874.843 164.245 877.934 167.815 880.142 172.378C882.35 176.867 883.454 182.056 883.454 187.944C883.454 193.759 882.35 198.984 880.142 203.621C877.934 208.258 874.843 211.901 870.869 214.551C866.968 217.2 862.405 218.525 857.179 218.525ZM855.965 210.466C859.424 210.466 862.478 209.583 865.128 207.816C867.851 205.976 869.986 203.4 871.531 200.088C873.15 196.703 873.96 192.728 873.96 188.165C873.96 183.602 873.15 179.664 871.531 176.352C869.986 172.967 867.851 170.391 865.128 168.624C862.478 166.784 859.424 165.864 855.965 165.864C852.285 165.864 849.083 166.784 846.36 168.624C843.637 170.391 841.539 172.967 840.067 176.352C838.595 179.664 837.859 183.602 837.859 188.165C837.859 192.728 838.595 196.703 840.067 200.088C841.539 203.4 843.637 205.976 846.36 207.816C849.083 209.583 852.285 210.466 855.965 210.466ZM893.619 217.2V159.13H902.009L902.672 169.728C903.997 167.079 905.726 164.871 907.861 163.104C909.995 161.338 912.571 160.013 915.589 159.13C918.68 158.247 922.139 157.805 925.966 157.805V167.52H920.225C918.017 167.52 915.883 167.815 913.822 168.403C911.761 168.992 909.885 169.949 908.192 171.274C906.573 172.599 905.285 174.402 904.328 176.683C903.371 178.965 902.893 181.835 902.893 185.295V217.2H893.619ZM934.207 217.2V159.13H943.481V217.2H934.207ZM938.844 148.09C937.004 148.09 935.459 147.501 934.207 146.323C933.03 145.072 932.441 143.527 932.441 141.687C932.441 139.847 933.03 138.375 934.207 137.271C935.459 136.093 937.004 135.504 938.844 135.504C940.611 135.504 942.119 136.093 943.371 137.271C944.622 138.375 945.247 139.847 945.247 141.687C945.247 143.527 944.622 145.072 943.371 146.323C942.119 147.501 940.611 148.09 938.844 148.09ZM981.703 218.525C976.403 218.525 971.693 217.274 967.571 214.771C963.45 212.195 960.211 208.626 957.856 204.063C955.501 199.499 954.323 194.2 954.323 188.165C954.323 182.056 955.501 176.757 957.856 172.267C960.211 167.704 963.45 164.171 967.571 161.669C971.693 159.093 976.403 157.805 981.703 157.805C988.327 157.805 993.847 159.571 998.263 163.104C1002.75 166.637 1005.62 171.384 1006.87 177.346H997.38C996.57 173.666 994.693 170.832 991.749 168.845C988.879 166.784 985.493 165.754 981.592 165.754C978.207 165.754 975.152 166.6 972.429 168.293C969.779 169.986 967.682 172.488 966.136 175.8C964.591 179.112 963.818 183.234 963.818 188.165C963.818 191.845 964.259 195.12 965.143 197.991C966.026 200.787 967.24 203.143 968.786 205.056C970.405 206.896 972.282 208.295 974.416 209.251C976.624 210.208 979.016 210.687 981.592 210.687C984.242 210.687 986.634 210.245 988.768 209.362C990.976 208.405 992.816 207.043 994.288 205.277C995.834 203.511 996.864 201.413 997.38 198.984H1006.87C1005.7 204.799 1002.83 209.509 998.263 213.115C993.773 216.722 988.253 218.525 981.703 218.525ZM1051.16 217.2L1024.78 185.847L1049.62 159.13H1060.99L1032.61 189.159L1032.72 182.535L1062.97 217.2H1051.16ZM1017.05 217.2V137.712H1026.32V217.2H1017.05ZM1087.22 218.525C1081.99 218.525 1077.65 217.752 1074.19 216.207C1070.8 214.587 1068.23 212.379 1066.46 209.583C1064.69 206.712 1063.63 203.4 1063.26 199.647H1072.75C1073.05 201.634 1073.71 203.474 1074.74 205.167C1075.84 206.786 1077.43 208.111 1079.49 209.141C1081.55 210.171 1084.16 210.687 1087.33 210.687C1089.83 210.687 1091.96 210.319 1093.73 209.583C1095.5 208.773 1096.82 207.669 1097.7 206.271C1098.66 204.872 1099.14 203.253 1099.14 201.413C1099.14 198.984 1098.59 197.107 1097.48 195.783C1096.45 194.384 1094.91 193.354 1092.85 192.691C1090.86 191.955 1088.36 191.403 1085.34 191.035C1082.1 190.594 1079.23 189.968 1076.73 189.159C1074.23 188.349 1072.09 187.282 1070.32 185.957C1068.63 184.632 1067.34 182.976 1066.46 180.989C1065.58 179.002 1065.14 176.647 1065.14 173.923C1065.14 170.759 1065.98 167.962 1067.67 165.533C1069.37 163.104 1071.76 161.227 1074.85 159.903C1078.02 158.504 1081.73 157.805 1086 157.805C1092.26 157.805 1097.19 159.24 1100.79 162.111C1104.47 164.981 1106.65 169.066 1107.31 174.365H1098.15C1097.78 171.642 1096.53 169.507 1094.39 167.962C1092.26 166.416 1089.42 165.643 1085.89 165.643C1082.14 165.643 1079.3 166.343 1077.39 167.741C1075.48 169.139 1074.52 170.979 1074.52 173.261C1074.52 174.954 1074.92 176.499 1075.73 177.898C1076.62 179.223 1078.09 180.363 1080.15 181.32C1082.21 182.203 1084.97 182.866 1088.43 183.307C1092.77 183.823 1096.45 184.669 1099.47 185.847C1102.49 186.951 1104.77 188.68 1106.32 191.035C1107.93 193.391 1108.71 196.592 1108.63 200.64C1108.63 204.467 1107.71 207.706 1105.87 210.355C1104.11 213.005 1101.6 215.029 1098.37 216.427C1095.2 217.826 1091.48 218.525 1087.22 218.525ZM603.237 316.2V238.92H618.914L643.643 288.821L668.152 238.92H683.939V316.2H670.691V261.663L648.832 305.381H638.454L616.485 261.773V316.2H603.237ZM721.812 317.525C716.512 317.525 711.728 316.311 707.46 313.882C703.264 311.379 699.952 307.957 697.524 303.615C695.168 299.199 693.991 294.157 693.991 288.49C693.991 282.675 695.205 277.597 697.634 273.255C700.063 268.839 703.375 265.416 707.57 262.987C711.839 260.485 716.623 259.234 721.922 259.234C727.221 259.234 731.968 260.485 736.164 262.987C740.432 265.416 743.744 268.802 746.1 273.144C748.528 277.487 749.743 282.565 749.743 288.379C749.743 294.194 748.528 299.272 746.1 303.615C743.671 307.957 740.322 311.379 736.053 313.882C731.858 316.311 727.111 317.525 721.812 317.525ZM721.812 306.154C724.461 306.154 726.853 305.491 728.988 304.167C731.196 302.842 732.962 300.855 734.287 298.205C735.612 295.555 736.274 292.28 736.274 288.379C736.274 284.479 735.612 281.24 734.287 278.664C733.036 276.015 731.306 274.027 729.098 272.703C726.964 271.378 724.572 270.715 721.922 270.715C719.346 270.715 716.954 271.378 714.746 272.703C712.538 274.027 710.772 276.015 709.447 278.664C708.122 281.24 707.46 284.479 707.46 288.379C707.46 292.28 708.122 295.555 709.447 298.205C710.772 300.855 712.501 302.842 714.636 304.167C716.844 305.491 719.236 306.154 721.812 306.154ZM781.59 317.525C776.659 317.525 772.353 316.752 768.673 315.207C765.067 313.587 762.196 311.379 760.062 308.583C758.001 305.712 756.787 302.437 756.419 298.757H769.667C770.035 300.303 770.697 301.738 771.654 303.063C772.611 304.314 773.899 305.307 775.518 306.043C777.211 306.779 779.198 307.147 781.479 307.147C783.687 307.147 785.491 306.853 786.889 306.264C788.287 305.602 789.318 304.755 789.98 303.725C790.643 302.695 790.974 301.591 790.974 300.413C790.974 298.647 790.495 297.285 789.539 296.328C788.582 295.371 787.183 294.635 785.343 294.12C783.577 293.531 781.443 292.979 778.94 292.464C776.291 291.949 773.715 291.323 771.212 290.587C768.783 289.778 766.575 288.784 764.588 287.607C762.675 286.429 761.129 284.92 759.951 283.08C758.847 281.24 758.295 278.995 758.295 276.346C758.295 273.107 759.142 270.2 760.835 267.624C762.601 265.048 765.103 263.024 768.342 261.552C771.654 260.007 775.591 259.234 780.155 259.234C786.631 259.234 791.783 260.743 795.611 263.76C799.511 266.704 801.793 270.863 802.455 276.235H789.87C789.502 274.175 788.471 272.592 786.779 271.488C785.086 270.311 782.841 269.722 780.044 269.722C777.174 269.722 774.966 270.274 773.42 271.378C771.948 272.408 771.212 273.807 771.212 275.573C771.212 276.677 771.654 277.707 772.537 278.664C773.494 279.547 774.855 280.32 776.622 280.983C778.388 281.571 780.559 282.16 783.135 282.749C787.257 283.559 790.9 284.515 794.065 285.619C797.23 286.723 799.732 288.343 801.572 290.477C803.412 292.611 804.332 295.629 804.332 299.53C804.406 303.063 803.486 306.191 801.572 308.914C799.732 311.637 797.119 313.771 793.734 315.317C790.348 316.789 786.3 317.525 781.59 317.525ZM832.422 317.525C827.859 317.525 824.068 316.752 821.051 315.207C818.033 313.661 815.788 311.6 814.316 309.024C812.844 306.448 812.108 303.651 812.108 300.634C812.108 297.101 812.992 294.047 814.758 291.471C816.598 288.895 819.284 286.907 822.817 285.509C826.35 284.037 830.692 283.301 835.844 283.301H849.865C849.865 280.357 849.46 277.928 848.651 276.015C847.841 274.027 846.59 272.555 844.897 271.599C843.204 270.642 841.033 270.163 838.384 270.163C835.366 270.163 832.79 270.863 830.656 272.261C828.521 273.586 827.196 275.647 826.681 278.443H813.654C814.096 274.469 815.42 271.083 817.628 268.287C819.836 265.416 822.744 263.208 826.35 261.663C830.03 260.043 834.041 259.234 838.384 259.234C843.609 259.234 848.062 260.154 851.742 261.994C855.422 263.76 858.219 266.336 860.132 269.722C862.12 273.034 863.113 277.045 863.113 281.755V316.2H851.852L850.528 307.258C849.792 308.73 848.835 310.091 847.657 311.343C846.553 312.594 845.265 313.698 843.793 314.655C842.321 315.538 840.628 316.237 838.715 316.752C836.875 317.267 834.777 317.525 832.422 317.525ZM835.403 307.037C837.537 307.037 839.414 306.669 841.033 305.933C842.726 305.123 844.161 304.019 845.339 302.621C846.59 301.149 847.547 299.53 848.209 297.763C848.872 295.997 849.313 294.12 849.534 292.133V291.912H837.28C834.704 291.912 832.569 292.243 830.876 292.906C829.184 293.495 827.969 294.378 827.233 295.555C826.497 296.733 826.129 298.095 826.129 299.64C826.129 301.186 826.497 302.511 827.233 303.615C827.969 304.719 829.036 305.565 830.435 306.154C831.833 306.743 833.489 307.037 835.403 307.037ZM874.509 316.2V260.559H887.757V316.2H874.509ZM881.133 251.727C878.704 251.727 876.68 250.991 875.061 249.519C873.515 247.973 872.742 246.096 872.742 243.888C872.742 241.607 873.515 239.767 875.061 238.368C876.68 236.896 878.704 236.16 881.133 236.16C883.561 236.16 885.549 236.896 887.094 238.368C888.713 239.767 889.523 241.607 889.523 243.888C889.523 246.096 888.713 247.973 887.094 249.519C885.549 250.991 883.561 251.727 881.133 251.727ZM926.14 317.525C920.693 317.525 915.799 316.311 911.456 313.882C907.188 311.379 903.839 307.957 901.41 303.615C899.055 299.199 897.877 294.194 897.877 288.6C897.877 282.786 899.055 277.707 901.41 273.365C903.839 268.949 907.188 265.49 911.456 262.987C915.799 260.485 920.73 259.234 926.25 259.234C933.168 259.234 938.983 261.074 943.693 264.754C948.404 268.36 951.421 273.328 952.746 279.658H938.836C938.1 276.861 936.554 274.653 934.199 273.034C931.917 271.415 929.194 270.605 926.029 270.605C923.306 270.605 920.804 271.304 918.522 272.703C916.314 274.101 914.548 276.125 913.223 278.775C911.972 281.424 911.346 284.626 911.346 288.379C911.346 291.25 911.714 293.789 912.45 295.997C913.186 298.205 914.216 300.082 915.541 301.627C916.94 303.099 918.522 304.24 920.288 305.05C922.055 305.859 923.968 306.264 926.029 306.264C928.164 306.264 930.077 305.933 931.77 305.271C933.536 304.535 935.008 303.467 936.186 302.069C937.437 300.671 938.32 299.015 938.836 297.101H952.746C951.421 303.283 948.404 308.251 943.693 312.005C938.983 315.685 933.132 317.525 926.14 317.525ZM981.212 316.2L1009.47 238.92H1024.27L1052.53 316.2H1038.51L1016.76 254.376L995.012 316.2H981.212ZM993.798 297.984L997.33 287.496H1035.42L1038.95 297.984H993.798ZM1059.85 316.2V238.92H1073.1V316.2H1059.85Z" fill="white"/>
<defs>
<filter id="filter0_dddddd_1117_13836" x="0.639999" y="0.120117" width="723.118" height="723.12" filterUnits="userSpaceOnUse" color-interpolation-filters="sRGB">
<feFlood flood-opacity="0" result="BackgroundImageFix"/>
<feColorMatrix in="SourceAlpha" type="matrix" values="0 0 0 0 0 0 0 0 0 0 0 0 0 0 0 0 0 0 127 0" result="hardAlpha"/>
<feOffset dy="3.68"/>
<feGaussianBlur stdDeviation="2.76"/>
<feColorMatrix type="matrix" values="0 0 0 0 0.105882 0 0 0 0 0.192157 0 0 0 0 0.223529 0 0 0 0.0196802 0"/>
<feBlend mode="normal" in2="BackgroundImageFix" result="effect1_dropShadow_1117_13836"/>
<feColorMatrix in="SourceAlpha" type="matrix" values="0 0 0 0 0 0 0 0 0 0 0 0 0 0 0 0 0 0 127 0" result="hardAlpha"/>
<feOffset dy="7.36"/>
<feGaussianBlur stdDeviation="7.36"/>
<feColorMatrix type="matrix" values="0 0 0 0 0.105882 0 0 0 0 0.192157 0 0 0 0 0.223529 0 0 0 0.04 0"/>
<feBlend mode="normal" in2="effect1_dropShadow_1117_13836" result="effect2_dropShadow_1117_13836"/>
<feColorMatrix in="SourceAlpha" type="matrix" values="0 0 0 0 0 0 0 0 0 0 0 0 0 0 0 0 0 0 127 0" result="hardAlpha"/>
<feOffset dy="16.56"/>
<feGaussianBlur stdDeviation="11.96"/>
<feColorMatrix type="matrix" values="0 0 0 0 0.105882 0 0 0 0 0.192157 0 0 0 0 0.223529 0 0 0 0.035 0"/>
<feBlend mode="normal" in2="effect2_dropShadow_1117_13836" result="effect3_dropShadow_1117_13836"/>
<feColorMatrix in="SourceAlpha" type="matrix" values="0 0 0 0 0 0 0 0 0 0 0 0 0 0 0 0 0 0 127 0" result="hardAlpha"/>
<feOffset dy="29.44"/>
<feGaussianBlur stdDeviation="22.08"/>
<feColorMatrix type="matrix" values="0 0 0 0 0.105882 0 0 0 0 0.192157 0 0 0 0 0.223529 0 0 0 0.04 0"/>
<feBlend mode="normal" in2="effect3_dropShadow_1117_13836" result="effect4_dropShadow_1117_13836"/>
<feColorMatrix in="SourceAlpha" type="matrix" values="0 0 0 0 0 0 0 0 0 0 0 0 0 0 0 0 0 0 127 0" result="hardAlpha"/>
<feOffset dy="58.88"/>
<feGaussianBlur stdDeviation="36.8"/>
<feColorMatrix type="matrix" values="0 0 0 0 0.105882 0 0 0 0 0.192157 0 0 0 0 0.223529 0 0 0 0.0503198 0"/>
<feBlend mode="normal" in2="effect4_dropShadow_1117_13836" result="effect5_dropShadow_1117_13836"/>
<feColorMatrix in="SourceAlpha" type="matrix" values="0 0 0 0 0 0 0 0 0 0 0 0 0 0 0 0 0 0 127 0" result="hardAlpha"/>
<feOffset dy="132.48"/>
<feGaussianBlur stdDeviation="95.68"/>
<feColorMatrix type="matrix" values="0 0 0 0 0.105882 0 0 0 0 0.192157 0 0 0 0 0.223529 0 0 0 0.07 0"/>
<feBlend mode="normal" in2="effect5_dropShadow_1117_13836" result="effect6_dropShadow_1117_13836"/>
<feBlend mode="normal" in="SourceGraphic" in2="effect6_dropShadow_1117_13836" result="shape"/>
</filter>
</defs>
</svg>
