<svg xmlns="http://www.w3.org/2000/svg" viewBox="0 0 122.92 75.01"><defs><style>.cls-1{fill:#fff;}.cls-2{fill:#00add4;}.cls-3{fill:#99deee;fill-rule:evenodd;}</style></defs><g id="Layer_2" data-name="Layer 2"><g id="Layer_1-2" data-name="Layer 1"><path class="cls-1" d="M0,74.51V64.07a.4.4,0,0,1,.11-.26.38.38,0,0,1,.26-.11H4.5a5.44,5.44,0,0,1,3.89,1.41,4.87,4.87,0,0,1,1.25,1.81,6.37,6.37,0,0,1,.43,2.37,6.41,6.41,0,0,1-.43,2.37,4.64,4.64,0,0,1-1.25,1.81,5.11,5.11,0,0,1-1.72,1,6.22,6.22,0,0,1-2.15.35H.39a.36.36,0,0,1-.26-.11A.28.28,0,0,1,0,74.51Zm3.36-2.45H4.5A3.48,3.48,0,0,0,5.38,72a1.93,1.93,0,0,0,.81-.4,2.61,2.61,0,0,0,.61-.84A3.93,3.93,0,0,0,7,69.31,3.49,3.49,0,0,0,6.8,67.9a2.11,2.11,0,0,0-.61-.83,2.07,2.07,0,0,0-.81-.41,3.76,3.76,0,0,0-.86-.11H3.36a.38.38,0,0,0-.37.37v4.79A.35.35,0,0,0,3.1,72,.36.36,0,0,0,3.36,72.06Z"/><path class="cls-1" d="M14.38,66.88v.65a.38.38,0,0,0,.11.26.4.4,0,0,0,.26.11h4.1a.38.38,0,0,1,.36.37v2.11a.34.34,0,0,1-.11.26.36.36,0,0,1-.25.11h-4.1a.38.38,0,0,0-.37.37v.57a.35.35,0,0,0,.11.26.36.36,0,0,0,.26.11h4.7a.35.35,0,0,1,.26.12.36.36,0,0,1,.11.25v2.11a.35.35,0,0,1-.11.26.34.34,0,0,1-.26.11H11.76a.38.38,0,0,1-.37-.37V64.07a.36.36,0,0,1,.11-.26.36.36,0,0,1,.26-.11h7.69a.38.38,0,0,1,.26.11.4.4,0,0,1,.11.26v2.07a.35.35,0,0,1-.11.26.34.34,0,0,1-.26.11h-4.7a.4.4,0,0,0-.26.11A.3.3,0,0,0,14.38,66.88Z"/><path class="cls-1" d="M30,72.43v2.08a.33.33,0,0,1-.11.26.36.36,0,0,1-.25.11H22.08a.33.33,0,0,1-.26-.11.38.38,0,0,1-.09-.26V64.07a.51.51,0,0,1,.09-.26.35.35,0,0,1,.26-.11h2.28a.38.38,0,0,1,.36.37v7.62a.43.43,0,0,0,.09.26.33.33,0,0,0,.26.11h4.56a.33.33,0,0,1,.25.12A.3.3,0,0,1,30,72.43Z"/><path class="cls-1" d="M37,66.51H34.92a.38.38,0,0,0-.26.11.4.4,0,0,0-.11.26v7.63a.45.45,0,0,1-.09.26.36.36,0,0,1-.26.11H31.92a.38.38,0,0,1-.36-.37V66.88a.44.44,0,0,0-.1-.26.33.33,0,0,0-.25-.11H29.06a.31.31,0,0,1-.26-.11.36.36,0,0,1-.11-.26V64.07a.4.4,0,0,1,.11-.26.35.35,0,0,1,.26-.11h8a.3.3,0,0,1,.25.11.34.34,0,0,1,.1.26v2.07a.38.38,0,0,1-.1.26A.33.33,0,0,1,37,66.51Z"/><path class="cls-1" d="M40.65,64.05a.63.63,0,0,1,.2-.24.49.49,0,0,1,.31-.09h2.11a.65.65,0,0,1,.3.09.73.73,0,0,1,.2.24L48.2,74.41a.4.4,0,0,1,0,.3.37.37,0,0,1-.33.15H45.26a.66.66,0,0,1-.31-.09.74.74,0,0,1-.22-.25l-.41-.9a.83.83,0,0,0-.22-.24.42.42,0,0,0-.29-.09h-3.2a.54.54,0,0,0-.51.33l-.43.9a.59.59,0,0,1-.2.25.47.47,0,0,1-.29.09H36.57a.59.59,0,0,1-.17,0,.27.27,0,0,1-.12-.09.36.36,0,0,1-.08-.15.32.32,0,0,1,0-.22Zm.9,6.64h1.34a.29.29,0,0,0,.22-.09.25.25,0,0,0,0-.24c-.09-.26-.22-.55-.37-.89s-.27-.66-.38-1c0-.09-.1-.13-.13-.13s-.09,0-.13.13l-.75,1.85a.25.25,0,0,0,0,.24C41.36,70.66,41.44,70.69,41.55,70.69Z"/><path class="cls-1" d="M77.26,64.05a.73.73,0,0,1,.2-.24.49.49,0,0,1,.31-.09h2.12a.65.65,0,0,1,.29.09.73.73,0,0,1,.2.24l4.43,10.36a.4.4,0,0,1,0,.3.37.37,0,0,1-.33.15H81.87a.66.66,0,0,1-.31-.09.86.86,0,0,1-.22-.25l-.41-.9a.83.83,0,0,0-.22-.24.42.42,0,0,0-.29-.09h-3.2a.54.54,0,0,0-.51.33l-.42.9a.61.61,0,0,1-.21.25.47.47,0,0,1-.29.09H73.18a.47.47,0,0,1-.16,0,.25.25,0,0,1-.13-.09.36.36,0,0,1-.08-.15.38.38,0,0,1,0-.22Zm.88,6.64h1.34a.28.28,0,0,0,.22-.09.25.25,0,0,0,0-.24c-.09-.26-.22-.55-.37-.89s-.27-.66-.38-1c0-.09-.09-.13-.13-.13s-.09,0-.13.13l-.75,1.85a.25.25,0,0,0,0,.24C78,70.66,78,70.69,78.14,70.69Z"/><rect class="cls-1" x="96.62" y="63.7" width="2.99" height="11.16" rx="0.5"/><path class="cls-1" d="M71.79,63.7H69.51a.35.35,0,0,0-.35.36v3.49a.36.36,0,0,1-.36.36H66.06a.36.36,0,0,1-.36-.36V64.06a.36.36,0,0,0-.35-.36H63.06a.36.36,0,0,0-.35.36V74.5a.36.36,0,0,0,.35.36h2.29a.36.36,0,0,0,.35-.36V71.06a.36.36,0,0,1,.36-.36H68.8a.36.36,0,0,1,.36.36V74.5a.35.35,0,0,0,.35.36h2.28a.36.36,0,0,0,.36-.36V64.06A.36.36,0,0,0,71.79,63.7Z"/><path class="cls-1" d="M110.39,63.7h-2.28a.36.36,0,0,0-.35.36v4.83a.1.1,0,0,1-.17.06L104.17,64a.72.72,0,0,0-.59-.31h-2.26a.36.36,0,0,0-.36.36V74.5a.36.36,0,0,0,.36.36h2.28a.36.36,0,0,0,.36-.36V69.67a.09.09,0,0,1,.16,0l3.42,4.93a.74.74,0,0,0,.59.31h2.26a.36.36,0,0,0,.36-.36V64.06A.36.36,0,0,0,110.39,63.7Z"/><path class="cls-1" d="M112.1,69.29v0a5.74,5.74,0,0,1,6-5.75,6.47,6.47,0,0,1,4.21,1.38.36.36,0,0,1,0,.51L121,67a.37.37,0,0,1-.5,0,3.75,3.75,0,0,0-2.39-.83,2.91,2.91,0,0,0-2.83,3v0a2.92,2.92,0,0,0,3,3.06,3.14,3.14,0,0,0,1.77-.46v-1a.36.36,0,0,0-.36-.36h-1.46a.36.36,0,0,1-.36-.36V68.69a.36.36,0,0,1,.36-.36h4.37a.36.36,0,0,1,.36.36V73a.71.71,0,0,1-.28.57A7.43,7.43,0,0,1,118.12,75,5.68,5.68,0,0,1,112.1,69.29Z"/><path class="cls-1" d="M85.49,64.05a.36.36,0,0,1,.36-.36h4.92a4.87,4.87,0,0,1,3.64,1.22,3.44,3.44,0,0,1,1,2.59v0A3.54,3.54,0,0,1,93.1,71l2.28,3.33a.36.36,0,0,1-.3.56H92.57a.7.7,0,0,1-.59-.32l-1.93-2.9a.37.37,0,0,0-.3-.16h-.81a.36.36,0,0,0-.36.35V74.5a.36.36,0,0,1-.35.36H85.85a.36.36,0,0,1-.36-.36Zm5.14,5c1.05,0,1.66-.51,1.66-1.32v0c0-.88-.64-1.33-1.68-1.33H88.94a.36.36,0,0,0-.36.36v2a.36.36,0,0,0,.36.36Z"/><path class="cls-1" d="M52.44,72.84l1.26-1.51a.36.36,0,0,1,.48,0A5.58,5.58,0,0,0,57.5,72.4c.82,0,1.26-.28,1.26-.75v0c0-.45-.36-.71-1.86-1-2.36-.54-4.17-1.21-4.17-3.48v0c0-2,1.63-3.54,4.28-3.54a7,7,0,0,1,4.27,1.26.35.35,0,0,1,.08.49l-1.14,1.6a.35.35,0,0,1-.48.09,5.37,5.37,0,0,0-2.81-.9c-.74,0-1.11.32-1.11.71v0c0,.5.38.72,1.92,1.07,2.54.55,4.12,1.37,4.12,3.44v0c0,2.25-1.79,3.6-4.47,3.6a7.86,7.86,0,0,1-4.91-1.6A.36.36,0,0,1,52.44,72.84Z"/><path class="cls-2" d="M86.22,55.89a.62.62,0,0,0,.15-1c-1.42-1.57-5.93-5.53-5.93-5.53-.42-.28-1-.06-1.47.12a15.66,15.66,0,0,1-8.47.38,25.21,25.21,0,0,1-8-3.31c-4.56-2.75-13.4-6.26-23.27-.58a29.47,29.47,0,0,0-8.55,8.82.41.41,0,0,0,.54.58c3.4-1.84,12.57-6.14,20.83-4.59,2.94.55,6.14,2.1,9.49,3.73,2.23,1.09,4.53,2.21,6.86,3.08C75.91,60.42,83.32,57.39,86.22,55.89Z"/><path class="cls-2" d="M62.62.78,76.94,25.45a.46.46,0,0,1-.51.65,9.73,9.73,0,0,0-7.58,1.34.87.87,0,0,1-1.24-.25l-5.7-9.82a.78.78,0,0,0-1.37,0L51.33,33.3a.38.38,0,0,0,.25.58,25.61,25.61,0,0,1,12.82,7,.83.83,0,0,1-1,1.34,25.47,25.47,0,0,0-8-2.55,31.91,31.91,0,0,0-11.57.75c-1.21.29-2.49.63-3.7,1s-1.74.59-1.74.59c-.33.11-.65.25-.93.37l-.1,0a.83.83,0,0,1-1.08-1.17L59.84.78A1.63,1.63,0,0,1,62.62.78Z"/><path class="cls-3" d="M93.57,29.07a6.47,6.47,0,1,0-6.1-4.34l-9,6a6.46,6.46,0,1,0,0,9.63l9,6a6.49,6.49,0,1,0,1.8-2.69l-9-6a6.45,6.45,0,0,0,0-4.25l9-6A6.44,6.44,0,0,0,93.57,29.07Z"/></g></g></svg>