<svg width="1104" height="200" viewBox="0 0 1104 200" fill="none" xmlns="http://www.w3.org/2000/svg">
<path d="M174.977 25.0002L107.789 25.0002L107.789 81.25L174.977 81.25L174.977 25.0002Z" fill="#618794"/>
<path d="M107.812 175L175 175L175 93.75L107.812 93.7499L107.812 175Z" fill="#C4CCD6"/>
<path d="M92.1875 25L25 25L25 118.75L92.1875 118.75L92.1875 25Z" fill="#C4CCD6"/>
<path d="M25.0273 175L92.2148 175L92.2148 132.031L25.0273 132.031L25.0273 175Z" fill="#618794"/>
<path d="M234.76 137.5L263.022 60.22H277.816L306.078 137.5H292.058L270.309 75.676L248.56 137.5H234.76ZM247.346 119.284L250.878 108.796H288.966L292.499 119.284H247.346ZM313.397 137.5V60.22H326.645V137.5H313.397ZM333.682 149.423L361.392 51.94H374.309L346.599 149.423H333.682ZM387.093 137.5V60.22H417.343C422.789 60.22 427.315 61.0664 430.922 62.7592C434.602 64.452 437.362 66.8072 439.202 69.8248C441.042 72.7688 441.962 76.1912 441.962 80.092C441.962 83.9928 441.115 87.268 439.423 89.9176C437.73 92.5672 435.485 94.5912 432.688 95.9896C429.965 97.388 426.984 98.2344 423.746 98.5288L425.402 97.3144C428.861 97.388 431.952 98.308 434.675 100.074C437.472 101.841 439.68 104.159 441.299 107.03C442.919 109.826 443.728 112.954 443.728 116.414C443.728 120.462 442.735 124.105 440.747 127.343C438.834 130.508 436 133.01 432.247 134.85C428.493 136.617 423.893 137.5 418.447 137.5H387.093ZM400.341 126.681H416.459C420.802 126.681 424.187 125.65 426.616 123.59C429.045 121.529 430.259 118.658 430.259 114.978C430.259 111.298 429.008 108.391 426.506 106.257C424.003 104.049 420.581 102.945 416.239 102.945H400.341V126.681ZM400.341 92.8984H415.466C419.735 92.8984 422.973 91.9416 425.181 90.028C427.389 88.0408 428.493 85.3176 428.493 81.8584C428.493 78.4728 427.389 75.8232 425.181 73.9096C422.973 71.9224 419.698 70.9288 415.355 70.9288H400.341V92.8984ZM453.104 137.5V60.22H466.352V137.5H453.104ZM502.22 137.5V60.22H527.17C536.149 60.22 543.546 61.8024 549.36 64.9672C555.248 68.132 559.591 72.6216 562.388 78.436C565.258 84.1768 566.693 91.0216 566.693 98.9704C566.693 106.772 565.258 113.58 562.388 119.394C559.591 125.135 555.248 129.588 549.36 132.753C543.546 135.918 536.149 137.5 527.17 137.5H502.22ZM515.468 126.239H526.508C533.205 126.239 538.468 125.172 542.295 123.038C546.196 120.83 548.956 117.702 550.575 113.654C552.268 109.532 553.114 104.638 553.114 98.9704C553.114 93.2296 552.268 88.3352 550.575 84.2872C548.956 80.1656 546.196 77.0008 542.295 74.7928C538.468 72.5112 533.205 71.3704 526.508 71.3704H515.468V126.239ZM594.423 138.825C589.859 138.825 586.069 138.052 583.051 136.506C580.034 134.961 577.789 132.9 576.317 130.324C574.845 127.748 574.109 124.951 574.109 121.934C574.109 118.401 574.992 115.346 576.759 112.77C578.599 110.194 581.285 108.207 584.818 106.809C588.351 105.337 592.693 104.601 597.845 104.601H611.866C611.866 101.657 611.461 99.228 610.651 97.3144C609.842 95.3272 608.591 93.8552 606.898 92.8984C605.205 91.9416 603.034 91.4632 600.384 91.4632C597.367 91.4632 594.791 92.1624 592.656 93.5608C590.522 94.8856 589.197 96.9464 588.682 99.7432H575.655C576.096 95.7688 577.421 92.3832 579.629 89.5864C581.837 86.716 584.744 84.508 588.351 82.9624C592.031 81.3432 596.042 80.5336 600.384 80.5336C605.61 80.5336 610.063 81.4536 613.743 83.2936C617.423 85.06 620.219 87.636 622.133 91.0216C624.12 94.3336 625.114 98.3448 625.114 103.055V137.5H613.853L612.528 128.558C611.792 130.03 610.835 131.391 609.658 132.642C608.554 133.894 607.266 134.998 605.794 135.954C604.322 136.838 602.629 137.537 600.715 138.052C598.875 138.567 596.778 138.825 594.423 138.825ZM597.403 128.337C599.538 128.337 601.415 127.969 603.034 127.233C604.727 126.423 606.162 125.319 607.339 123.921C608.591 122.449 609.547 120.83 610.21 119.063C610.872 117.297 611.314 115.42 611.535 113.433V113.212H599.28C596.704 113.212 594.57 113.543 592.877 114.206C591.184 114.794 589.97 115.678 589.234 116.855C588.498 118.033 588.13 119.394 588.13 120.94C588.13 122.486 588.498 123.81 589.234 124.914C589.97 126.018 591.037 126.865 592.435 127.454C593.834 128.042 595.49 128.337 597.403 128.337ZM658.147 138.825C653.216 138.825 648.911 138.052 645.231 136.506C641.624 134.887 638.754 132.679 636.619 129.882C634.559 127.012 633.344 123.737 632.976 120.057H646.224C646.592 121.602 647.255 123.038 648.211 124.362C649.168 125.614 650.456 126.607 652.075 127.343C653.768 128.079 655.755 128.447 658.037 128.447C660.245 128.447 662.048 128.153 663.447 127.564C664.845 126.902 665.875 126.055 666.538 125.025C667.2 123.994 667.531 122.89 667.531 121.713C667.531 119.946 667.053 118.585 666.096 117.628C665.139 116.671 663.741 115.935 661.901 115.42C660.135 114.831 658 114.279 655.498 113.764C652.848 113.249 650.272 112.623 647.77 111.887C645.341 111.078 643.133 110.084 641.146 108.906C639.232 107.729 637.687 106.22 636.509 104.38C635.405 102.54 634.853 100.295 634.853 97.6456C634.853 94.4072 635.699 91.5 637.392 88.924C639.159 86.348 641.661 84.324 644.899 82.852C648.211 81.3064 652.149 80.5336 656.712 80.5336C663.189 80.5336 668.341 82.0424 672.168 85.06C676.069 88.004 678.351 92.1624 679.013 97.5352H666.427C666.059 95.4744 665.029 93.892 663.336 92.788C661.643 91.6104 659.399 91.0216 656.602 91.0216C653.731 91.0216 651.523 91.5736 649.978 92.6776C648.506 93.708 647.77 95.1064 647.77 96.8728C647.77 97.9768 648.211 99.0072 649.095 99.964C650.051 100.847 651.413 101.62 653.179 102.282C654.946 102.871 657.117 103.46 659.693 104.049C663.815 104.858 667.458 105.815 670.623 106.919C673.787 108.023 676.29 109.642 678.13 111.777C679.97 113.911 680.89 116.929 680.89 120.83C680.963 124.362 680.043 127.49 678.13 130.214C676.29 132.937 673.677 135.071 670.291 136.617C666.906 138.089 662.858 138.825 658.147 138.825ZM690.433 137.5V58.012H703.681V90.4696C705.521 87.452 708.023 85.06 711.188 83.2936C714.353 81.4536 717.922 80.5336 721.897 80.5336C726.46 80.5336 730.324 81.4904 733.489 83.404C736.653 85.244 739.045 88.004 740.665 91.684C742.357 95.2904 743.204 99.8168 743.204 105.263V137.5H730.066V106.478C730.066 101.694 729.036 98.0504 726.975 95.548C724.988 93.0456 721.933 91.7944 717.812 91.7944C715.162 91.7944 712.77 92.4568 710.636 93.7816C708.501 95.0328 706.809 96.8728 705.557 99.3016C704.306 101.657 703.681 104.564 703.681 108.023V137.5H690.433ZM785.76 138.825C782.816 138.825 780.166 138.42 777.811 137.61C775.456 136.874 773.395 135.844 771.628 134.519C769.862 133.121 768.39 131.538 767.212 129.772L765.777 137.5H753.964V58.012H767.212V90.028C768.979 87.3048 771.371 85.06 774.388 83.2936C777.406 81.4536 781.16 80.5336 785.649 80.5336C790.875 80.5336 795.475 81.8216 799.449 84.3976C803.497 86.9 806.662 90.3592 808.944 94.7752C811.299 99.1176 812.476 104.122 812.476 109.79C812.476 115.31 811.336 120.278 809.054 124.694C806.772 129.11 803.608 132.569 799.56 135.071C795.585 137.574 790.985 138.825 785.76 138.825ZM783 127.343C786.091 127.343 788.851 126.607 791.28 125.135C793.708 123.59 795.585 121.529 796.91 118.953C798.308 116.303 799.008 113.212 799.008 109.679C799.008 106.22 798.308 103.166 796.91 100.516C795.585 97.8664 793.708 95.8056 791.28 94.3336C788.851 92.8616 786.091 92.1256 783 92.1256C779.835 92.1256 777.038 92.8616 774.609 94.3336C772.254 95.8056 770.377 97.8664 768.979 100.516C767.654 103.166 766.992 106.22 766.992 109.679C766.992 113.212 767.654 116.303 768.979 118.953C770.377 121.529 772.254 123.59 774.609 125.135C777.038 126.607 779.835 127.343 783 127.343ZM847.968 138.825C842.669 138.825 837.885 137.61 833.616 135.182C829.421 132.679 826.109 129.257 823.68 124.914C821.325 120.498 820.147 115.457 820.147 109.79C820.147 103.975 821.362 98.8968 823.791 94.5544C826.219 90.1384 829.531 86.716 833.727 84.2872C837.995 81.7848 842.779 80.5336 848.079 80.5336C853.378 80.5336 858.125 81.7848 862.32 84.2872C866.589 86.716 869.901 90.1016 872.256 94.444C874.685 98.7864 875.899 103.865 875.899 109.679C875.899 115.494 874.685 120.572 872.256 124.914C869.827 129.257 866.479 132.679 862.21 135.182C858.015 137.61 853.267 138.825 847.968 138.825ZM847.968 127.454C850.618 127.454 853.01 126.791 855.144 125.466C857.352 124.142 859.119 122.154 860.443 119.505C861.768 116.855 862.431 113.58 862.431 109.679C862.431 105.778 861.768 102.54 860.443 99.964C859.192 97.3144 857.463 95.3272 855.255 94.0024C853.12 92.6776 850.728 92.0152 848.079 92.0152C845.503 92.0152 843.111 92.6776 840.903 94.0024C838.695 95.3272 836.928 97.3144 835.603 99.964C834.279 102.54 833.616 105.778 833.616 109.679C833.616 113.58 834.279 116.855 835.603 119.505C836.928 122.154 838.658 124.142 840.792 125.466C843 126.791 845.392 127.454 847.968 127.454ZM904.103 138.825C899.54 138.825 895.75 138.052 892.732 136.506C889.714 134.961 887.47 132.9 885.998 130.324C884.526 127.748 883.79 124.951 883.79 121.934C883.79 118.401 884.673 115.346 886.439 112.77C888.279 110.194 890.966 108.207 894.498 106.809C898.031 105.337 902.374 104.601 907.526 104.601H921.546C921.546 101.657 921.142 99.228 920.332 97.3144C919.522 95.3272 918.271 93.8552 916.578 92.8984C914.886 91.9416 912.714 91.4632 910.065 91.4632C907.047 91.4632 904.471 92.1624 902.337 93.5608C900.202 94.8856 898.878 96.9464 898.362 99.7432H885.335C885.777 95.7688 887.102 92.3832 889.31 89.5864C891.518 86.716 894.425 84.508 898.031 82.9624C901.711 81.3432 905.722 80.5336 910.065 80.5336C915.29 80.5336 919.743 81.4536 923.423 83.2936C927.103 85.06 929.9 87.636 931.814 91.0216C933.801 94.3336 934.794 98.3448 934.794 103.055V137.5H923.534L922.209 128.558C921.473 130.03 920.516 131.391 919.338 132.642C918.234 133.894 916.946 134.998 915.474 135.954C914.002 136.838 912.31 137.537 910.396 138.052C908.556 138.567 906.458 138.825 904.103 138.825ZM907.084 128.337C909.218 128.337 911.095 127.969 912.714 127.233C914.407 126.423 915.842 125.319 917.02 123.921C918.271 122.449 919.228 120.83 919.89 119.063C920.553 117.297 920.994 115.42 921.215 113.433V113.212H908.961C906.385 113.212 904.25 113.543 902.558 114.206C900.865 114.794 899.65 115.678 898.914 116.855C898.178 118.033 897.81 119.394 897.81 120.94C897.81 122.486 898.178 123.81 898.914 124.914C899.65 126.018 900.718 126.865 902.116 127.454C903.514 128.042 905.17 128.337 907.084 128.337ZM945.638 137.5V81.8584H957.451L958.665 92.236C959.99 89.8072 961.646 87.7464 963.633 86.0536C965.62 84.2872 967.939 82.9256 970.588 81.9688C973.311 81.012 976.292 80.5336 979.531 80.5336V94.5544H974.894C972.686 94.5544 970.588 94.8488 968.601 95.4376C966.614 95.9528 964.884 96.836 963.412 98.0872C962.014 99.2648 960.91 100.921 960.1 103.055C959.291 105.116 958.886 107.729 958.886 110.894V137.5H945.638ZM1009.75 138.825C1004.6 138.825 999.997 137.574 995.949 135.071C991.901 132.569 988.736 129.11 986.455 124.694C984.247 120.278 983.143 115.273 983.143 109.679C983.143 104.086 984.283 99.1176 986.565 94.7752C988.847 90.3592 992.011 86.9 996.059 84.3976C1000.18 81.8216 1004.82 80.5336 1009.97 80.5336C1014.17 80.5336 1017.81 81.3432 1020.9 82.9624C1024.06 84.508 1026.57 86.716 1028.41 89.5864V58.012H1041.65V137.5H1029.73L1028.41 129.441C1027.23 131.06 1025.79 132.606 1024.1 134.078C1022.41 135.476 1020.38 136.617 1018.03 137.5C1015.67 138.383 1012.91 138.825 1009.75 138.825ZM1012.51 127.343C1015.67 127.343 1018.47 126.607 1020.9 125.135C1023.33 123.59 1025.21 121.492 1026.53 118.842C1027.85 116.193 1028.52 113.138 1028.52 109.679C1028.52 106.22 1027.85 103.166 1026.53 100.516C1025.21 97.8664 1023.33 95.8056 1020.9 94.3336C1018.47 92.8616 1015.67 92.1256 1012.51 92.1256C1009.49 92.1256 1006.77 92.8616 1004.34 94.3336C1001.91 95.8056 999.997 97.8664 998.599 100.516C997.274 103.166 996.611 106.22 996.611 109.679C996.611 113.138 997.274 116.193 998.599 118.842C999.997 121.492 1001.91 123.59 1004.34 125.135C1006.77 126.607 1009.49 127.343 1012.51 127.343ZM1075.27 138.825C1070.34 138.825 1066.03 138.052 1062.35 136.506C1058.75 134.887 1055.88 132.679 1053.74 129.882C1051.68 127.012 1050.47 123.737 1050.1 120.057H1063.35C1063.71 121.602 1064.38 123.038 1065.33 124.362C1066.29 125.614 1067.58 126.607 1069.2 127.343C1070.89 128.079 1072.88 128.447 1075.16 128.447C1077.37 128.447 1079.17 128.153 1080.57 127.564C1081.97 126.902 1083 126.055 1083.66 125.025C1084.32 123.994 1084.65 122.89 1084.65 121.713C1084.65 119.946 1084.18 118.585 1083.22 117.628C1082.26 116.671 1080.86 115.935 1079.02 115.42C1077.26 114.831 1075.12 114.279 1072.62 113.764C1069.97 113.249 1067.39 112.623 1064.89 111.887C1062.46 111.078 1060.26 110.084 1058.27 108.906C1056.35 107.729 1054.81 106.22 1053.63 104.38C1052.53 102.54 1051.98 100.295 1051.98 97.6456C1051.98 94.4072 1052.82 91.5 1054.51 88.924C1056.28 86.348 1058.78 84.324 1062.02 82.852C1065.33 81.3064 1069.27 80.5336 1073.83 80.5336C1080.31 80.5336 1085.46 82.0424 1089.29 85.06C1093.19 88.004 1095.47 92.1624 1096.14 97.5352H1083.55C1083.18 95.4744 1082.15 93.892 1080.46 92.788C1078.77 91.6104 1076.52 91.0216 1073.72 91.0216C1070.85 91.0216 1068.65 91.5736 1067.1 92.6776C1065.63 93.708 1064.89 95.1064 1064.89 96.8728C1064.89 97.9768 1065.33 99.0072 1066.22 99.964C1067.17 100.847 1068.54 101.62 1070.3 102.282C1072.07 102.871 1074.24 103.46 1076.82 104.049C1080.94 104.858 1084.58 105.815 1087.74 106.919C1090.91 108.023 1093.41 109.642 1095.25 111.777C1097.09 113.911 1098.01 116.929 1098.01 120.83C1098.09 124.362 1097.17 127.49 1095.25 130.214C1093.41 132.937 1090.8 135.071 1087.41 136.617C1084.03 138.089 1079.98 138.825 1075.27 138.825Z" fill="white"/>
</svg>
