<svg width="150" height="150" viewBox="0 0 150 150" fill="none" xmlns="http://www.w3.org/2000/svg">
<g clip-path="url(#clip0_5483_1940)">
<path d="M118.5 113.91C113.61 115.09 108.5 115.72 103.25 115.72C93.12 115.72 83.54 113.39 75 109.24C66.46 105.09 56.88 102.76 46.75 102.76C36.62 102.76 27.04 105.09 18.5 109.24L18.52 60.1301H28.8C29.67 57.3401 30.8 54.6601 32.14 52.1101L24.86 44.8301L45.27 24.4201L52.55 31.7001C55.1 30.3601 57.78 29.2301 60.57 28.3601V18.0801H89.43V28.3601C92.22 29.2301 94.9 30.3601 97.45 31.7001L104.73 24.4201L125.14 44.8301L117.86 52.1101C119.2 54.6601 120.33 57.3401 121.2 60.1301H131.48L131.5 121.97C122.96 126.12 113.38 128.45 103.25 128.45C93.12 128.45 83.54 126.12 75 121.97C66.46 117.82 56.88 115.49 46.75 115.49C36.62 115.49 27.04 117.82 18.5 121.97" stroke="#FF5F46" stroke-width="3" stroke-miterlimit="3" stroke-linecap="square"/>
<path d="M99.2 74.5599C99.2 61.1899 88.37 50.3599 75 50.3599C61.63 50.3599 50.8 61.1899 50.8 74.5599V92.2499" stroke="#FF5F46" stroke-width="3" stroke-miterlimit="3" stroke-linecap="square"/>
<path d="M115.36 72.4302V103.96" stroke="#FF5F46" stroke-width="3" stroke-miterlimit="3" stroke-linecap="square"/>
<path d="M34.66 72.4302V93.2502" stroke="#FF5F46" stroke-width="3" stroke-miterlimit="3" stroke-linecap="square"/>
<path d="M83.08 72.4302V101.88" stroke="#FF5F46" stroke-width="3" stroke-miterlimit="3" stroke-linecap="square"/>
<path d="M66.9399 72.4302V95.3402" stroke="#FF5F46" stroke-width="3" stroke-miterlimit="3" stroke-linecap="square"/>
<path d="M99.2 74.5601V104.96" stroke="#FF5F46" stroke-width="3" stroke-miterlimit="3" stroke-linecap="square"/>
<path d="M18.51 72.4302H131.49" stroke="#FF5F46" stroke-width="3" stroke-miterlimit="3" stroke-linecap="square"/>
<path d="M18.51 87.1602H130.92" stroke="#FF5F46" stroke-width="3" stroke-miterlimit="3" stroke-linecap="square"/>
</g>
<defs>
<clipPath id="clip0_5483_1940">
<rect width="150" height="150" fill="white"/>
</clipPath>
</defs>
</svg>
