<svg width="150" height="150" viewBox="0 0 150 150" fill="none" xmlns="http://www.w3.org/2000/svg">
<path d="M118.5 113.91C113.61 115.09 108.5 115.72 103.25 115.72C93.12 115.72 83.54 113.39 75 109.24C66.46 105.09 56.88 102.76 46.75 102.76C36.62 102.76 27.04 105.09 18.5 109.24L18.52 60.13H28.8C29.67 57.34 30.8 54.66 32.14 52.11L24.86 44.83L45.27 24.42L52.55 31.7C55.1 30.36 57.78 29.23 60.57 28.36V18.08H89.43V28.36C92.22 29.23 94.9 30.36 97.45 31.7L104.73 24.42L125.14 44.83L117.86 52.11C119.2 54.66 120.33 57.34 121.2 60.13H131.48L131.5 121.97C122.96 126.12 113.38 128.45 103.25 128.45C93.12 128.45 83.54 126.12 75 121.97C66.46 117.82 56.88 115.49 46.75 115.49C36.62 115.49 27.04 117.82 18.5 121.97" stroke="#1B3139" stroke-width="3" stroke-miterlimit="3" stroke-linecap="square"/>
<path d="M99.2 74.56C99.2 61.19 88.37 50.36 75 50.36C61.63 50.36 50.8 61.19 50.8 74.56V92.25" stroke="#1B3139" stroke-width="3" stroke-miterlimit="3" stroke-linecap="square"/>
<path d="M115.36 72.4299V103.96" stroke="#1B3139" stroke-width="3" stroke-miterlimit="3" stroke-linecap="square"/>
<path d="M34.66 72.4299V93.2499" stroke="#1B3139" stroke-width="3" stroke-miterlimit="3" stroke-linecap="square"/>
<path d="M83.08 72.4299V101.88" stroke="#1B3139" stroke-width="3" stroke-miterlimit="3" stroke-linecap="square"/>
<path d="M66.94 72.4299V95.3399" stroke="#1B3139" stroke-width="3" stroke-miterlimit="3" stroke-linecap="square"/>
<path d="M99.2 74.5599V104.96" stroke="#1B3139" stroke-width="3" stroke-miterlimit="3" stroke-linecap="square"/>
<path d="M18.51 72.4301H131.49" stroke="#1B3139" stroke-width="3" stroke-miterlimit="3" stroke-linecap="square"/>
<path d="M18.51 87.16H130.92" stroke="#1B3139" stroke-width="3" stroke-miterlimit="3" stroke-linecap="square"/>
</svg>
