<svg width="792" height="200" viewBox="0 0 792 200" fill="none" xmlns="http://www.w3.org/2000/svg">
<path d="M175 47.4459C166.032 52.1294 159.266 60.4784 159.265 70.2569V123.218H132.266V75.622C132.265 57.8318 117.843 43.4105 100.053 43.409C83.407 43.4097 68.0138 56.2505 68.0138 72.2326V87.2256H41.0156V72.6082H40.8699C40.8699 62.1504 34.2174 52.8599 25 47.7013V25H175V47.4459Z" fill="#FF5F46"/>
<path d="M25 103.125H63.2812C83.129 103.125 99.2188 119.215 99.2188 139.062H25V103.125Z" fill="#FABFBA"/>
<path d="M174.219 175L135.156 175C115.309 175 99.2187 158.91 99.2188 139.062L174.219 139.063V175Z" fill="#FABFBA"/>
<path d="M239.838 137.5V60.22H253.086V127.122H287.531V137.5H239.838ZM315.223 138.825C310.659 138.825 306.869 138.052 303.851 136.506C300.834 134.961 298.589 132.9 297.117 130.324C295.645 127.748 294.909 124.951 294.909 121.934C294.909 118.401 295.792 115.346 297.559 112.77C299.399 110.194 302.085 108.207 305.618 106.809C309.151 105.337 313.493 104.601 318.645 104.601H332.666C332.666 101.657 332.261 99.228 331.451 97.3144C330.642 95.3272 329.391 93.8552 327.698 92.8984C326.005 91.9416 323.834 91.4632 321.184 91.4632C318.167 91.4632 315.591 92.1624 313.456 93.5608C311.322 94.8856 309.997 96.9464 309.482 99.7432H296.455C296.896 95.7688 298.221 92.3832 300.429 89.5864C302.637 86.716 305.544 84.508 309.151 82.9624C312.831 81.3432 316.842 80.5336 321.184 80.5336C326.41 80.5336 330.863 81.4536 334.543 83.2936C338.223 85.06 341.019 87.636 342.933 91.0216C344.92 94.3336 345.914 98.3448 345.914 103.055V137.5H334.653L333.328 128.558C332.592 130.03 331.635 131.391 330.458 132.642C329.354 133.894 328.066 134.998 326.594 135.954C325.122 136.838 323.429 137.537 321.515 138.052C319.675 138.567 317.578 138.825 315.223 138.825ZM318.203 128.337C320.338 128.337 322.215 127.969 323.834 127.233C325.527 126.423 326.962 125.319 328.139 123.921C329.391 122.449 330.347 120.83 331.01 119.063C331.672 117.297 332.114 115.42 332.335 113.433V113.212H320.08C317.504 113.212 315.37 113.543 313.677 114.206C311.984 114.794 310.77 115.678 310.034 116.855C309.298 118.033 308.93 119.394 308.93 120.94C308.93 122.486 309.298 123.81 310.034 124.914C310.77 126.018 311.837 126.865 313.235 127.454C314.634 128.042 316.29 128.337 318.203 128.337ZM392.637 137.5L368.018 107.03L390.098 81.8584H405.885L378.396 112.439V102.172L409.197 137.5H392.637ZM356.757 137.5V58.012H370.005V137.5H356.757ZM436.425 138.825C430.905 138.825 426.047 137.647 421.852 135.292C417.657 132.863 414.381 129.478 412.026 125.135C409.671 120.793 408.493 115.788 408.493 110.121C408.493 104.233 409.634 99.0808 411.916 94.6648C414.271 90.2488 417.546 86.7896 421.741 84.2872C426.01 81.7848 430.941 80.5336 436.535 80.5336C441.981 80.5336 446.729 81.748 450.777 84.1768C454.825 86.6056 457.953 89.8808 460.161 94.0024C462.369 98.0504 463.473 102.614 463.473 107.692C463.473 108.428 463.473 109.238 463.473 110.121C463.473 111.004 463.399 111.924 463.252 112.881H417.988V104.38H450.114C449.967 100.332 448.605 97.1672 446.029 94.8856C443.453 92.5304 440.252 91.3528 436.425 91.3528C433.701 91.3528 431.199 91.9784 428.917 93.2296C426.636 94.4808 424.833 96.3576 423.508 98.86C422.183 101.289 421.521 104.38 421.521 108.134V111.335C421.521 114.794 422.146 117.775 423.397 120.278C424.722 122.78 426.489 124.694 428.697 126.018C430.978 127.27 433.517 127.895 436.314 127.895C439.405 127.895 441.945 127.233 443.932 125.908C445.993 124.583 447.501 122.817 448.458 120.609H461.927C460.897 124.068 459.204 127.196 456.849 129.993C454.493 132.716 451.586 134.887 448.127 136.506C444.668 138.052 440.767 138.825 436.425 138.825ZM504.188 138.825C501.244 138.825 498.594 138.42 496.239 137.61C493.884 136.874 491.823 135.844 490.057 134.519C488.29 133.121 486.818 131.538 485.641 129.772L484.205 137.5H472.393V58.012H485.641V90.028C487.407 87.3048 489.799 85.06 492.817 83.2936C495.834 81.4536 499.588 80.5336 504.077 80.5336C509.303 80.5336 513.903 81.8216 517.877 84.3976C521.925 86.9 525.09 90.3592 527.372 94.7752C529.727 99.1176 530.905 104.122 530.905 109.79C530.905 115.31 529.764 120.278 527.482 124.694C525.201 129.11 522.036 132.569 517.988 135.071C514.013 137.574 509.413 138.825 504.188 138.825ZM501.428 127.343C504.519 127.343 507.279 126.607 509.708 125.135C512.137 123.59 514.013 121.529 515.338 118.953C516.737 116.303 517.436 113.212 517.436 109.679C517.436 106.22 516.737 103.166 515.338 100.516C514.013 97.8664 512.137 95.8056 509.708 94.3336C507.279 92.8616 504.519 92.1256 501.428 92.1256C498.263 92.1256 495.466 92.8616 493.037 94.3336C490.682 95.8056 488.805 97.8664 487.407 100.516C486.082 103.166 485.42 106.22 485.42 109.679C485.42 113.212 486.082 116.303 487.407 118.953C488.805 121.529 490.682 123.59 493.037 125.135C495.466 126.607 498.263 127.343 501.428 127.343ZM540.452 137.5V81.8584H552.265L553.48 92.236C554.804 89.8072 556.46 87.7464 558.448 86.0536C560.435 84.2872 562.753 82.9256 565.403 81.9688C568.126 81.012 571.107 80.5336 574.345 80.5336V94.5544H569.708C567.5 94.5544 565.403 94.8488 563.416 95.4376C561.428 95.9528 559.699 96.836 558.227 98.0872C556.828 99.2648 555.724 100.921 554.915 103.055C554.105 105.116 553.7 107.729 553.7 110.894V137.5H540.452ZM581.572 137.5V81.8584H594.82V137.5H581.572ZM588.196 73.0264C585.767 73.0264 583.743 72.2904 582.124 70.8184C580.579 69.2728 579.806 67.396 579.806 65.188C579.806 62.9064 580.579 61.0664 582.124 59.668C583.743 58.196 585.767 57.46 588.196 57.46C590.625 57.46 592.612 58.196 594.158 59.668C595.777 61.0664 596.587 62.9064 596.587 65.188C596.587 67.396 595.777 69.2728 594.158 70.8184C592.612 72.2904 590.625 73.0264 588.196 73.0264ZM631.547 138.825C626.395 138.825 621.795 137.574 617.747 135.071C613.699 132.569 610.534 129.11 608.253 124.694C606.045 120.278 604.941 115.273 604.941 109.679C604.941 104.086 606.081 99.1176 608.363 94.7752C610.645 90.3592 613.809 86.9 617.857 84.3976C621.979 81.8216 626.616 80.5336 631.768 80.5336C635.963 80.5336 639.606 81.3432 642.697 82.9624C645.862 84.508 648.365 86.716 650.205 89.5864V58.012H663.453V137.5H651.529L650.205 129.441C649.027 131.06 647.592 132.606 645.899 134.078C644.206 135.476 642.182 136.617 639.827 137.5C637.472 138.383 634.712 138.825 631.547 138.825ZM634.307 127.343C637.472 127.343 640.269 126.607 642.697 125.135C645.126 123.59 647.003 121.492 648.328 118.842C649.653 116.193 650.315 113.138 650.315 109.679C650.315 106.22 649.653 103.166 648.328 100.516C647.003 97.8664 645.126 95.8056 642.697 94.3336C640.269 92.8616 637.472 92.1256 634.307 92.1256C631.289 92.1256 628.566 92.8616 626.137 94.3336C623.709 95.8056 621.795 97.8664 620.397 100.516C619.072 103.166 618.409 106.22 618.409 109.679C618.409 113.138 619.072 116.193 620.397 118.842C621.795 121.492 623.709 123.59 626.137 125.135C628.566 126.607 631.289 127.343 634.307 127.343ZM698.282 163.113C693.057 163.113 688.457 162.45 684.482 161.126C680.581 159.874 677.527 157.924 675.319 155.274C673.185 152.698 672.117 149.46 672.117 145.559C672.117 143.278 672.669 141.033 673.773 138.825C674.951 136.69 676.681 134.703 678.962 132.863C681.317 130.95 684.298 129.294 687.905 127.895L693.756 134.298C690.223 135.55 687.757 137.058 686.359 138.825C684.961 140.591 684.261 142.394 684.261 144.234C684.261 146.148 684.85 147.73 686.028 148.982C687.279 150.306 688.935 151.3 690.996 151.962C693.13 152.625 695.522 152.956 698.172 152.956C700.748 152.956 702.993 152.588 704.906 151.852C706.82 151.19 708.292 150.233 709.322 148.982C710.426 147.73 710.978 146.222 710.978 144.455C710.978 142.247 710.205 140.444 708.66 139.046C707.114 137.721 704.06 136.911 699.497 136.617C695.596 136.322 692.173 135.918 689.229 135.402C686.285 134.814 683.746 134.151 681.612 133.415C679.551 132.679 677.785 131.87 676.313 130.986C674.841 130.03 673.626 129.073 672.669 128.116V125.577L684.261 113.433L694.087 116.634L681.06 129.33L684.482 122.927C685.218 123.442 685.954 123.921 686.69 124.362C687.5 124.804 688.493 125.209 689.671 125.577C690.922 125.871 692.541 126.166 694.529 126.46C696.516 126.754 699.092 127.049 702.257 127.343C707.188 127.711 711.199 128.594 714.29 129.993C717.381 131.391 719.663 133.268 721.135 135.623C722.607 137.978 723.343 140.812 723.343 144.124C723.343 147.362 722.423 150.417 720.583 153.287C718.817 156.158 716.093 158.513 712.413 160.353C708.733 162.193 704.023 163.113 698.282 163.113ZM698.282 120.83C693.645 120.83 689.634 119.946 686.249 118.18C682.937 116.34 680.397 113.911 678.631 110.894C676.865 107.802 675.981 104.417 675.981 100.737C675.981 96.9832 676.865 93.5976 678.631 90.58C680.397 87.5624 682.937 85.1336 686.249 83.2936C689.634 81.4536 693.645 80.5336 698.282 80.5336C702.919 80.5336 706.893 81.4536 710.205 83.2936C713.517 85.1336 716.057 87.5624 717.823 90.58C719.589 93.5976 720.473 96.9832 720.473 100.737C720.473 104.417 719.589 107.802 717.823 110.894C716.057 113.911 713.517 116.34 710.205 118.18C706.893 119.946 702.919 120.83 698.282 120.83ZM698.282 110.562C701.447 110.562 703.986 109.716 705.9 108.023C707.813 106.33 708.77 103.902 708.77 100.737C708.77 97.572 707.813 95.18 705.9 93.5608C703.986 91.868 701.447 91.0216 698.282 91.0216C695.117 91.0216 692.541 91.868 690.554 93.5608C688.567 95.18 687.573 97.572 687.573 100.737C687.573 103.902 688.567 106.33 690.554 108.023C692.541 109.716 695.117 110.562 698.282 110.562ZM707.445 91.5736L704.906 81.8584H727.759V90.1384L707.445 91.5736ZM760.043 138.825C754.523 138.825 749.666 137.647 745.47 135.292C741.275 132.863 738 129.478 735.645 125.135C733.29 120.793 732.112 115.788 732.112 110.121C732.112 104.233 733.253 99.0808 735.534 94.6648C737.89 90.2488 741.165 86.7896 745.36 84.2872C749.629 81.7848 754.56 80.5336 760.154 80.5336C765.6 80.5336 770.347 81.748 774.395 84.1768C778.443 86.6056 781.571 89.8808 783.779 94.0024C785.987 98.0504 787.091 102.614 787.091 107.692C787.091 108.428 787.091 109.238 787.091 110.121C787.091 111.004 787.018 111.924 786.87 112.881H741.606V104.38H773.733C773.586 100.332 772.224 97.1672 769.648 94.8856C767.072 92.5304 763.87 91.3528 760.043 91.3528C757.32 91.3528 754.818 91.9784 752.536 93.2296C750.254 94.4808 748.451 96.3576 747.126 98.86C745.802 101.289 745.139 104.38 745.139 108.134V111.335C745.139 114.794 745.765 117.775 747.016 120.278C748.341 122.78 750.107 124.694 752.315 126.018C754.597 127.27 757.136 127.895 759.933 127.895C763.024 127.895 765.563 127.233 767.55 125.908C769.611 124.583 771.12 122.817 772.077 120.609H785.546C784.515 124.068 782.822 127.196 780.467 129.993C778.112 132.716 775.205 134.887 771.746 136.506C768.286 138.052 764.386 138.825 760.043 138.825Z" fill="#1B3139"/>
</svg>
