<svg width="512" height="512" viewBox="0 0 512 512" fill="none" xmlns="http://www.w3.org/2000/svg">
<path d="M448.002 121.462C425.044 133.451 407.722 154.825 407.721 179.858V315.438H338.602V193.592C338.601 148.049 301.679 111.131 256.137 111.127C213.524 111.129 174.117 144.001 174.117 184.915V223.298H105.002V185.877H104.629C104.629 159.105 87.5986 135.321 64.002 122.115V64H448.002V121.462Z" fill="#FF5F46"/>
<path d="M64 264H162C212.81 264 254 305.19 254 356H64V264Z" fill="#FABFBA"/>
<path d="M446 448L346 448C295.19 448 254 406.81 254 356L446 356V448Z" fill="#FABFBA"/>
</svg>
