<svg width="512" height="512" viewBox="0 0 512 512" fill="none" xmlns="http://www.w3.org/2000/svg">
<path d="M448 121.462C425.042 133.451 407.72 154.825 407.719 179.858V315.438H338.6V193.592C338.599 148.049 301.677 111.131 256.135 111.127C213.522 111.129 174.115 144.001 174.115 184.915V223.298H105V185.877H104.627C104.627 159.105 87.5966 135.321 64 122.115V64H448V121.462Z" fill="#C4CCD6"/>
<path d="M64 264H162C212.81 264 254 305.19 254 356H64V264Z" fill="#618794"/>
<path d="M446 448L346 448C295.19 448 254 406.81 254 356L446 356V448Z" fill="#618794"/>
</svg>
