<svg width="150" height="150" viewBox="0 0 150 150" fill="none" xmlns="http://www.w3.org/2000/svg">
<g clip-path="url(#clip0_2919_2028)">
<path d="M66 73.42H127.97V130.97H22.03V122H19.03V133.97H130.97V70.42H66V73.42Z" fill="#FF5F46"/>
<path d="M121 98.58H66V101.58H121V98.58Z" fill="#FF5F46"/>
<path d="M121 84.5H66V87.5H121V84.5Z" fill="#FF5F46"/>
<path d="M65.25 116.25C65.25 111.7 61.55 108 57 108C52.45 108 48.75 111.7 48.75 116.25C48.75 120.8 52.45 124.5 57 124.5C61.55 124.5 65.25 120.8 65.25 116.25ZM51.75 116.25C51.75 113.36 54.11 111 57 111C59.89 111 62.25 113.36 62.25 116.25C62.25 119.14 59.89 121.5 57 121.5C54.11 121.5 51.75 119.14 51.75 116.25Z" fill="#FF5F46"/>
<path d="M68.16 116.25C68.16 120.8 71.86 124.5 76.41 124.5C80.96 124.5 84.66 120.8 84.66 116.25C84.66 111.7 80.96 108 76.41 108C71.86 108 68.16 111.7 68.16 116.25ZM81.66 116.25C81.66 119.14 79.3 121.5 76.41 121.5C73.52 121.5 71.16 119.14 71.16 116.25C71.16 113.36 73.52 111 76.41 111C79.3 111 81.66 113.36 81.66 116.25Z" fill="#FF5F46"/>
<path d="M128.63 16.28L87.19 43.92L49.87 19.03H116.98V16.03H43.42V57.03H19.03V117.75H29.48C30.19 121.59 33.56 124.5 37.59 124.5C42.14 124.5 45.84 120.8 45.84 116.25C45.84 111.7 42.14 108 37.59 108V111C40.48 111 42.84 113.36 42.84 116.25C42.84 119.14 40.48 121.5 37.59 121.5C34.7 121.5 32.34 119.14 32.34 116.25V114.75H22.03V60.03H45.53L70.06 36.1L86.36 46.97H88.02L104.32 36.1L125.78 57.03H57.5V70.42H29.34V101.58H60.5V60.03H130.97V17.53L128.64 16.28H128.63ZM46.42 54.97V20.33L67.51 34.4L46.42 54.97ZM57.5 98.57H32.34V73.41H57.5V98.57ZM127.97 54.97L106.88 34.4L127.97 20.33V54.97Z" fill="#FF5F46"/>
</g>
<defs>
<clipPath id="clip0_2919_2028">
<rect width="150" height="150" fill="white"/>
</clipPath>
</defs>
</svg>
