<svg width="150" height="150" viewBox="0 0 150 150" fill="none" xmlns="http://www.w3.org/2000/svg">
<g clip-path="url(#clip0_5742_1804)">
<path d="M123.509 45.9656C103.936 77.4228 77.3969 103.962 45.9396 123.535L47.3573 125.809C79.1431 106.017 105.964 79.1959 125.756 47.4101L123.509 45.9656ZM61.9884 93.2026C73.9682 84.5113 84.4987 73.9808 93.1899 62.001L91.0233 60.4363C82.4993 72.1847 72.172 82.5121 60.4237 91.0362L61.9884 93.2026ZM93.1899 62.001L97.6969 55.7956L95.5304 54.2309L91.0233 60.4363L93.1899 62.001ZM55.7428 97.7098L61.9483 93.2026L60.3835 91.0362L54.178 95.543L55.7428 97.7098ZM45.9129 123.508L43.8533 124.845L45.1907 127.119L47.2637 125.782L45.9129 123.508ZM124.819 43.9063L123.482 45.9656L125.756 47.3833L127.093 45.3103L124.819 43.9063ZM85.754 44.1335L105.601 24.273L103.715 22.3874L83.8549 42.2476L85.754 44.1335ZM97.5766 54.0703L85.754 42.2476L83.8682 44.1335L95.6908 55.9559L97.5766 54.0703ZM42.2618 85.7398L54.0844 97.5625L55.9701 95.6769L44.1475 83.8542L42.2618 85.7398ZM24.2738 105.6L44.0806 85.7398L42.1949 83.8542L22.3346 103.715L24.2738 105.6ZM45.5518 124.993L24.2738 103.715L22.388 105.6L43.6661 126.878L45.5518 124.993ZM103.715 24.273L124.993 45.5512L126.879 43.6653L105.601 22.3874L103.715 24.273ZM92.12 61.2121L91.0367 60.4363L92.12 61.2121ZM84.8044 43.184L83.8549 42.2476C83.6058 42.4982 83.466 42.8372 83.466 43.1906C83.466 43.5439 83.6058 43.8829 83.8549 44.1335L84.8044 43.184ZM96.627 55.0064L97.7103 55.7956C97.8944 55.5373 97.9806 55.2219 97.9537 54.9058C97.9267 54.5898 97.7883 54.2937 97.5632 54.0703L96.627 55.0064ZM55.0072 96.6264L54.071 97.5625C54.2944 97.7876 54.5906 97.9261 54.9066 97.953C55.2226 97.98 55.5379 97.8938 55.7962 97.7098L55.0072 96.6264ZM43.1846 84.8037L44.1341 83.8542C43.8836 83.6051 43.5446 83.4653 43.1913 83.4653C42.838 83.4653 42.499 83.6051 42.2484 83.8542L43.1846 84.8037ZM23.3376 104.664L22.388 103.715C22.139 103.965 21.9991 104.304 21.9991 104.657C21.9991 105.011 22.139 105.35 22.388 105.6L23.3376 104.664ZM44.6156 125.942L43.6661 126.878C43.8778 127.092 44.1553 127.228 44.4537 127.264C44.7522 127.301 45.0542 127.235 45.3111 127.079L44.6156 125.942ZM125.943 44.6148L127.08 45.3103C127.236 45.0534 127.301 44.7516 127.265 44.4532C127.228 44.1547 127.092 43.877 126.879 43.6653L125.943 44.6148ZM104.665 23.3369L105.601 22.3874C105.35 22.1383 105.011 21.9985 104.658 21.9985C104.305 21.9985 103.966 22.1383 103.715 22.3874L104.665 23.3369Z" fill="#FF5F46"/>
<path d="M42.2483 41.7662C43.4271 40.5858 44.827 39.6493 46.368 39.0104C47.909 38.3715 49.5608 38.0426 51.2289 38.0426C52.8971 38.0426 54.5489 38.3715 56.0899 39.0104C57.6309 39.6493 59.0308 40.5858 60.2096 41.7662L62.1087 39.8806C59.2223 36.9968 55.3091 35.377 51.2289 35.377C47.1488 35.377 43.2356 36.9968 40.3492 39.8806L42.2483 41.7662ZM42.2483 59.7407C39.8669 57.356 38.5292 54.1236 38.5292 50.7534C38.5292 47.3832 39.8669 44.1509 42.2483 41.7662L40.3492 39.8806C37.4663 42.7647 35.8468 46.6755 35.8468 50.7534C35.8468 54.8314 37.4663 58.7425 40.3492 61.6267L42.2483 59.7407Z" fill="#FF5F46"/>
<path d="M37.0458 37.0456C40.8087 33.4107 45.8606 31.4182 51.0917 31.506C56.3228 31.5938 61.3051 33.7547 64.9439 37.5139L66.8296 35.6279C62.6909 31.3648 57.0288 28.9195 51.0878 28.8293C45.1468 28.739 39.4131 31.0113 35.1467 35.1466L37.0458 37.0456ZM37.5139 64.9439C33.7548 61.3051 31.594 56.3227 31.5062 51.0916C31.4184 45.8605 33.4109 40.8085 37.0458 37.0456L35.1467 35.1466C31.0113 39.413 28.7391 45.1467 28.8294 51.0877C28.9197 57.0286 31.365 62.6907 35.6281 66.8295L37.5139 64.9439Z" fill="#FF5F46"/>
<path d="M32.3114 32.3108C34.7956 29.8895 37.7324 27.9813 40.9541 26.6951C44.1757 25.4089 47.6192 24.77 51.0879 24.8147C54.5565 24.8594 57.9824 25.5872 61.1699 26.956C64.3574 28.3248 67.244 30.3079 69.6649 32.7924L71.564 30.8931C66.1694 25.3783 58.8058 22.2313 51.0917 22.1435C43.3777 22.0557 35.9444 25.0346 30.4257 30.4252L32.3114 32.3108ZM32.7929 69.6642C30.3084 67.2433 28.3251 64.3568 26.9564 61.1693C25.5876 57.9819 24.86 54.5559 24.8153 51.0873C24.7706 47.6186 25.4096 44.1753 26.6958 40.9536C27.982 37.7319 29.8902 34.795 32.3114 32.3108L30.4257 30.4252C25.0351 35.9439 22.0563 43.3771 22.1441 51.0912C22.2319 58.8052 25.379 66.1689 30.8938 71.5636L32.7929 69.6642Z" fill="#FF5F46"/>
</g>
<defs>
<clipPath id="clip0_5742_1804">
<rect width="105.28" height="105.28" fill="white" transform="translate(22 22)"/>
</clipPath>
</defs>
</svg>
