<svg width="150" height="150" viewBox="0 0 150 150" fill="none" xmlns="http://www.w3.org/2000/svg">
<g clip-path="url(#clip0_1_2256)">
<path d="M123.509 45.9657C103.936 77.423 77.397 103.962 45.9397 123.535L47.3573 125.809C79.1432 106.017 105.964 79.1961 125.756 47.4102L123.509 45.9657ZM61.9885 93.2027C73.9682 84.5115 84.4987 73.9809 93.19 62.0011L91.0234 60.4365C82.4994 72.1848 72.1721 82.5122 60.4237 91.0363L61.9885 93.2027ZM93.19 62.0011L97.697 55.7957L95.5304 54.2311L91.0234 60.4365L93.19 62.0011ZM55.7428 97.7099L61.9484 93.2027L60.3836 91.0363L54.1781 95.5432L55.7428 97.7099ZM45.9129 123.508L43.8534 124.845L45.1908 127.119L47.2637 125.782L45.9129 123.508ZM124.819 43.9064L123.482 45.9657L125.756 47.3834L127.093 45.3104L124.819 43.9064ZM85.754 44.1336L105.601 24.2731L103.715 22.3875L83.8549 42.2477L85.754 44.1336ZM97.5766 54.0704L85.754 42.2477L83.8683 44.1336L95.6909 55.956L97.5766 54.0704ZM42.2618 85.7399L54.0844 97.5626L55.9702 95.677L44.1476 83.8543L42.2618 85.7399ZM24.2738 105.6L44.0807 85.7399L42.195 83.8543L22.3346 103.715L24.2738 105.6ZM45.5519 124.993L24.2738 103.715L22.3881 105.6L43.6661 126.878L45.5519 124.993ZM103.715 24.2731L124.993 45.5514L126.879 43.6654L105.601 22.3875L103.715 24.2731ZM92.1201 61.2122L91.0367 60.4365L92.1201 61.2122ZM84.8045 43.1841L83.8549 42.2477C83.6058 42.4983 83.466 42.8374 83.466 43.1907C83.466 43.544 83.6058 43.8831 83.8549 44.1336L84.8045 43.1841ZM96.6271 55.0065L97.7104 55.7957C97.8944 55.5374 97.9807 55.222 97.9537 54.906C97.9268 54.59 97.7884 54.2938 97.5633 54.0704L96.6271 55.0065ZM55.0073 96.6265L54.0711 97.5626C54.2945 97.7878 54.5907 97.9262 54.9067 97.9532C55.2227 97.9801 55.538 97.8939 55.7963 97.7099L55.0073 96.6265ZM43.1847 84.8038L44.1342 83.8543C43.8836 83.6052 43.5447 83.4654 43.1913 83.4654C42.838 83.4654 42.4991 83.6052 42.2485 83.8543L43.1847 84.8038ZM23.3377 104.664L22.3881 103.715C22.139 103.965 21.9992 104.304 21.9992 104.657C21.9992 105.011 22.139 105.35 22.3881 105.6L23.3377 104.664ZM44.6157 125.942L43.6661 126.878C43.8778 127.092 44.1553 127.228 44.4538 127.264C44.7523 127.301 45.0543 127.235 45.3111 127.079L44.6157 125.942ZM125.943 44.6149L127.08 45.3104C127.236 45.0536 127.301 44.7518 127.265 44.4533C127.228 44.1548 127.093 43.8772 126.879 43.6654L125.943 44.6149ZM104.665 23.337L105.601 22.3875C105.35 22.1384 105.012 21.9987 104.658 21.9987C104.305 21.9987 103.966 22.1384 103.715 22.3875L104.665 23.337Z" fill="#1B3139"/>
<path d="M42.2483 41.7663C43.4271 40.5859 44.827 39.6494 46.368 39.0105C47.909 38.3716 49.5608 38.0427 51.2289 38.0427C52.8971 38.0427 54.5489 38.3716 56.0899 39.0105C57.6309 39.6494 59.0308 40.5859 60.2096 41.7663L62.1087 39.8807C59.2223 36.9969 55.3091 35.3771 51.2289 35.3771C47.1488 35.3771 43.2356 36.9969 40.3492 39.8807L42.2483 41.7663ZM42.2483 59.7408C39.8669 57.3561 38.5292 54.1238 38.5292 50.7536C38.5292 47.3834 39.8669 44.151 42.2483 41.7663L40.3492 39.8807C37.4663 42.7648 35.8468 46.6756 35.8468 50.7536C35.8468 54.8315 37.4663 58.7426 40.3492 61.6268L42.2483 59.7408Z" fill="#1B3139"/>
<path d="M37.0458 37.0455C40.8087 33.4106 45.8606 31.4181 51.0917 31.5059C56.3228 31.5937 61.3051 33.7546 64.9439 37.5137L66.8296 35.6278C62.6909 31.3647 57.0288 28.9194 51.0878 28.8291C45.1468 28.7388 39.4131 31.0111 35.1467 35.1465L37.0458 37.0455ZM37.5139 64.9438C33.7548 61.305 31.594 56.3225 31.5062 51.0915C31.4184 45.8604 33.4109 40.8084 37.0458 37.0455L35.1467 35.1465C31.0113 39.4129 28.7391 45.1466 28.8294 51.0875C28.9197 57.0285 31.365 62.6906 35.6281 66.8294L37.5139 64.9438Z" fill="#1B3139"/>
<path d="M32.3114 32.3107C34.7956 29.8894 37.7324 27.9811 40.9541 26.695C44.1757 25.4088 47.6192 24.7699 51.0879 24.8146C54.5565 24.8593 57.9824 25.5871 61.1699 26.9558C64.3574 28.3246 67.244 30.3078 69.6649 32.7923L71.564 30.8929C66.1694 25.3782 58.8058 22.2311 51.0917 22.1434C43.3777 22.0556 35.9444 25.0345 30.4257 30.425L32.3114 32.3107ZM32.7929 69.6641C30.3084 67.2432 28.3251 64.3567 26.9564 61.1692C25.5876 57.9817 24.86 54.5558 24.8153 51.0871C24.7706 47.6185 25.4096 44.1752 26.6958 40.9535C27.982 37.7318 29.8902 34.7948 32.3114 32.3107L30.4257 30.425C25.0351 35.9438 22.0563 43.377 22.1441 51.0911C22.2319 58.8051 25.379 66.1688 30.8938 71.5634L32.7929 69.6641Z" fill="#1B3139"/>
</g>
<defs>
<clipPath id="clip0_1_2256">
<rect width="105.28" height="105.28" fill="white" transform="translate(22 22)"/>
</clipPath>
</defs>
</svg>
