<svg width="150" height="150" viewBox="0 0 150 150" fill="none" xmlns="http://www.w3.org/2000/svg">
<path d="M114.5 97.3998V81.1998H106.9V70.7998C106.9 55.0998 95.5 42.0998 80.6 39.3998V30.3998C80.6 28.5998 79.7 26.8998 78.3 25.8998C77.7 25.4998 77.1 25.1998 76.5 24.9998V16.7998H73.5V24.9998C72.9 25.1998 72.3 25.4998 71.7 25.8998C70.3 26.9998 69.4 28.5998 69.4 30.3998V39.3998C54.5 42.0998 43.1 55.0998 43.1 70.7998V76.4998H92.6V69.1998C92.6 58.2998 89.5 48.8998 84.6 43.5998C95.8 47.4998 103.9 58.2998 103.9 70.8998V75.9998V81.1998H35.5V92.7998L106.9 92.6998V91.1998V84.1998H111.5V97.3998H18.5V124.9H33.5V112.4C33.5 111.4 33.9 110.5 34.6 109.8C35.3 109.1 36.2 108.7 37.2 108.7C39.2 108.7 40.9 110.4 40.9 112.4V124.9H52.4V112.4C52.4 110.4 54.1 108.7 56.1 108.7C58.1 108.7 59.8 110.4 59.8 112.4V124.9H71.3V112.4C71.3 110.4 73 108.7 75 108.7C77 108.7 78.7 110.4 78.7 112.4V124.9H90.2V112.4C90.2 110.4 91.9 108.7 93.9 108.7C94.9 108.7 95.8 109.1 96.5 109.8C97.2 110.5 97.6 111.4 97.6 112.4V124.9H109.1V112.4C109.1 111.4 109.5 110.5 110.2 109.8C110.9 109.1 111.8 108.7 112.8 108.7C114.8 108.7 116.5 110.4 116.5 112.4V124.9H124.5V121.9H119.5V112.4C119.5 108.7 116.5 105.7 112.8 105.7C111 105.7 109.3 106.4 108.1 107.7C106.8 109 106.1 110.7 106.1 112.4V121.9H100.6V112.4C100.6 110.6 99.9 108.9 98.6 107.7C97.3 106.4 95.6 105.7 93.9 105.7C90.2 105.7 87.2 108.7 87.2 112.4V121.9H81.7V112.4C81.7 108.7 78.7 105.7 75 105.7C71.3 105.7 68.3 108.7 68.3 112.4V121.9H62.8V112.4C62.8 108.7 59.8 105.7 56.1 105.7C52.4 105.7 49.4 108.7 49.4 112.4V121.9H43.9V112.4C43.9 108.7 40.9 105.7 37.2 105.7C35.4 105.7 33.7 106.4 32.5 107.7C31.2 109 30.5 110.7 30.5 112.4V121.9H21.5V100.4H128.6V130.2H18.4V133.2H131.5V97.3998H114.5ZM72.4 30.3998C72.4 29.5998 72.8 28.7998 73.5 28.2998C74.4 27.5998 75.6 27.5998 76.6 28.2998C77.3 28.7998 77.7 29.5998 77.7 30.3998V39.0998C76.9 38.9998 76.2 38.9998 75.5 38.9998C75.2 38.9998 74.8 38.9998 74.5 38.9998C73.8 38.9998 73.1 38.9998 72.5 39.0998V30.3998H72.4ZM89.6 73.4998H46.1V70.8998C46.1 58.2998 54.2 47.5998 65.4 43.6998C60.5 48.9998 57.4 58.2998 57.4 69.1998H60.4C60.4 55.0998 66.1 43.5998 73.5 42.1998V69.1998H76.5V42.1998C83.9 43.5998 89.6 55.0998 89.6 69.1998V73.4998ZM103.9 89.6998L38.5 89.7998V84.1998H103.9V89.6998Z" fill="#FF5F46"/>
</svg>
