<svg width="150" height="150" viewBox="0 0 150 150" fill="none" xmlns="http://www.w3.org/2000/svg">
<path d="M114.5 97.4V81.2H106.9V70.8C106.9 55.1 95.5 42.1 80.6 39.4V30.4C80.6 28.6 79.7 26.9 78.3 25.9C77.7 25.5 77.1 25.2 76.5 25V16.8H73.5V25C72.9 25.2 72.3 25.5 71.7 25.9C70.3 27 69.4 28.6 69.4 30.4V39.4C54.5 42.1 43.1 55.1 43.1 70.8V76.5H92.6V69.2C92.6 58.3 89.5 48.9 84.6 43.6C95.8 47.5 103.9 58.3 103.9 70.9V76V81.2H35.5V92.8L106.9 92.7V91.2V84.2H111.5V97.4H18.5V124.9H33.5V112.4C33.5 111.4 33.9 110.5 34.6 109.8C35.3 109.1 36.2 108.7 37.2 108.7C39.2 108.7 40.9 110.4 40.9 112.4V124.9H52.4V112.4C52.4 110.4 54.1 108.7 56.1 108.7C58.1 108.7 59.8 110.4 59.8 112.4V124.9H71.3V112.4C71.3 110.4 73 108.7 75 108.7C77 108.7 78.7 110.4 78.7 112.4V124.9H90.2V112.4C90.2 110.4 91.9 108.7 93.9 108.7C94.9 108.7 95.8 109.1 96.5 109.8C97.2 110.5 97.6 111.4 97.6 112.4V124.9H109.1V112.4C109.1 111.4 109.5 110.5 110.2 109.8C110.9 109.1 111.8 108.7 112.8 108.7C114.8 108.7 116.5 110.4 116.5 112.4V124.9H124.5V121.9H119.5V112.4C119.5 108.7 116.5 105.7 112.8 105.7C111 105.7 109.3 106.4 108.1 107.7C106.8 109 106.1 110.7 106.1 112.4V121.9H100.6V112.4C100.6 110.6 99.9 108.9 98.6 107.7C97.3 106.4 95.6 105.7 93.9 105.7C90.2 105.7 87.2 108.7 87.2 112.4V121.9H81.7V112.4C81.7 108.7 78.7 105.7 75 105.7C71.3 105.7 68.3 108.7 68.3 112.4V121.9H62.8V112.4C62.8 108.7 59.8 105.7 56.1 105.7C52.4 105.7 49.4 108.7 49.4 112.4V121.9H43.9V112.4C43.9 108.7 40.9 105.7 37.2 105.7C35.4 105.7 33.7 106.4 32.5 107.7C31.2 109 30.5 110.7 30.5 112.4V121.9H21.5V100.4H128.6V130.2H18.4V133.2H131.5V97.4H114.5ZM72.4 30.4C72.4 29.6 72.8 28.8 73.5 28.3C74.4 27.6 75.6 27.6 76.6 28.3C77.3 28.8 77.7 29.6 77.7 30.4V39.1C76.9 39 76.2 39 75.5 39C75.2 39 74.8 39 74.5 39C73.8 39 73.1 39 72.5 39.1V30.4H72.4ZM89.6 73.5H46.1V70.9C46.1 58.3 54.2 47.6 65.4 43.7C60.5 49 57.4 58.3 57.4 69.2H60.4C60.4 55.1 66.1 43.6 73.5 42.2V69.2H76.5V42.2C83.9 43.6 89.6 55.1 89.6 69.2V73.5ZM103.9 89.7L38.5 89.8V84.2H103.9V89.7Z" fill="#1B3139"/>
</svg>
