<svg width="150" height="150" viewBox="0 0 150 150" fill="none" xmlns="http://www.w3.org/2000/svg">
<g clip-path="url(#clip0_3305_2152)">
<path d="M30.73 68.44L23.06 82.82H38.4L30.73 68.44Z" stroke="#1B3139" stroke-width="3" stroke-miterlimit="3"/>
<path d="M116.26 68.44L108.59 82.82H123.93L116.26 68.44Z" stroke="#1B3139" stroke-width="3" stroke-miterlimit="3"/>
<path d="M30.73 37.04C35.0047 37.04 38.47 33.5747 38.47 29.3C38.47 25.0253 35.0047 21.56 30.73 21.56C26.4553 21.56 22.99 25.0253 22.99 29.3C22.99 33.5747 26.4553 37.04 30.73 37.04Z" stroke="#1B3139" stroke-width="3" stroke-miterlimit="3"/>
<path d="M116.26 37.04C120.535 37.04 124 33.5747 124 29.3C124 25.0253 120.535 21.56 116.26 21.56C111.985 21.56 108.52 25.0253 108.52 29.3C108.52 33.5747 111.985 37.04 116.26 37.04Z" stroke="#1B3139" stroke-width="3" stroke-miterlimit="3"/>
<path d="M116.26 106.54C120.535 106.54 124 103.075 124 98.8C124 94.5253 120.535 91.06 116.26 91.06C111.985 91.06 108.52 94.5253 108.52 98.8C108.52 103.075 111.985 106.54 116.26 106.54Z" stroke="#1B3139" stroke-width="3" stroke-miterlimit="3"/>
<path d="M38.47 114.23H22.99V129.71H38.47V114.23Z" stroke="#1B3139" stroke-width="3" stroke-miterlimit="3"/>
<path d="M124 114.23H108.52V129.71H124V114.23Z" stroke="#1B3139" stroke-width="3" stroke-miterlimit="3"/>
<path d="M124 44.73H108.52V60.21H124V44.73Z" stroke="#1B3139" stroke-width="3" stroke-miterlimit="3"/>
<path d="M96.66 67.86L104.43 75.63L96.66 83.41" stroke="#1B3139" stroke-width="3" stroke-miterlimit="3"/>
<path d="M137.81 137.34H101.17C98.41 137.34 96.17 135.1 96.17 132.34V89.17" stroke="#1B3139" stroke-width="3" stroke-miterlimit="3"/>
<path d="M96.17 61.8V18.93C96.17 16.17 98.41 13.93 101.17 13.93H131.35C134.11 13.93 136.35 16.17 136.35 18.93V129.7H124" stroke="#1B3139" stroke-width="3" stroke-miterlimit="3"/>
<path fill-rule="evenodd" clip-rule="evenodd" d="M20.3496 12.42C16.7612 12.42 13.8496 15.3316 13.8496 18.92V39.67C13.8496 43.2584 16.7612 46.17 20.3496 46.17H41.0996C44.688 46.17 47.5996 43.2584 47.5996 39.67V34.34H44.5996V39.67C44.5996 41.6016 43.0312 43.17 41.0996 43.17H20.3496C18.418 43.17 16.8496 41.6016 16.8496 39.67V18.92C16.8496 16.9884 18.418 15.42 20.3496 15.42H41.0996C43.0312 15.42 44.5996 16.9884 44.5996 18.92V29.3V30.8H46.0996H60.8096C66.8812 30.8 71.8096 35.7284 71.8096 41.8V60.3222C72.3032 60.2744 72.8036 60.25 73.3097 60.25C73.8157 60.25 74.3161 60.2744 74.8096 60.3222V41.8C74.8096 34.0716 68.538 27.8 60.8096 27.8H47.5996V18.92C47.5996 15.3316 44.688 12.42 41.0996 12.42H20.3496ZM74.8096 90.9378C74.3161 90.9856 73.8157 91.01 73.3097 91.01C72.8036 91.01 72.3032 90.9856 71.8096 90.9378V109.47C71.8096 115.542 66.8812 120.47 60.8096 120.47H47.5996V111.59C47.5996 108.002 44.688 105.09 41.0996 105.09H20.3496C16.7612 105.09 13.8496 108.002 13.8496 111.59V132.34C13.8496 135.928 16.7612 138.84 20.3496 138.84H41.0996C44.688 138.84 47.5996 135.928 47.5996 132.34V127.01H44.5996V132.34C44.5996 134.272 43.0312 135.84 41.0996 135.84H20.3496C18.418 135.84 16.8496 134.272 16.8496 132.34V111.59C16.8496 109.658 18.418 108.09 20.3496 108.09H41.0996C43.0312 108.09 44.5996 109.658 44.5996 111.59V121.97V123.47H46.0996H60.8096C68.538 123.47 74.8096 117.198 74.8096 109.47V90.9378Z" fill="#1B3139"/>
<path fill-rule="evenodd" clip-rule="evenodd" d="M20.3496 58.75C16.7612 58.75 13.8496 61.6616 13.8496 65.25V86C13.8496 89.5884 16.7612 92.5 20.3496 92.5H41.0996C44.688 92.5 47.5996 89.5884 47.5996 86V80.67H44.5996V86C44.5996 87.9316 43.0312 89.5 41.0996 89.5H20.3496C18.418 89.5 16.8496 87.9316 16.8496 86V65.25C16.8496 63.3184 18.418 61.75 20.3496 61.75H41.0996C43.0312 61.75 44.5996 63.3184 44.5996 65.25V75.63V77.13H46.0996H58.0019C57.9541 76.6364 57.9297 76.1361 57.9297 75.63C57.9297 75.1239 57.9541 74.6235 58.0019 74.13H47.5996V65.25C47.5996 61.6616 44.688 58.75 41.0996 58.75H20.3496ZM88.6175 74.13C88.6652 74.6235 88.6897 75.1239 88.6897 75.63C88.6897 76.1361 88.6652 76.6364 88.6175 77.13H103.18V74.13H88.6175Z" fill="#1B3139"/>
<path d="M73.3097 91.01C81.8038 91.01 88.6897 84.1241 88.6897 75.63C88.6897 67.1359 81.8038 60.25 73.3097 60.25C64.8155 60.25 57.9297 67.1359 57.9297 75.63C57.9297 84.1241 64.8155 91.01 73.3097 91.01Z" stroke="#1B3139" stroke-width="3" stroke-miterlimit="3"/>
</g>
<defs>
<clipPath id="clip0_3305_2152">
<rect width="150" height="150" fill="white"/>
</clipPath>
</defs>
</svg>
