<svg width="852" height="300" viewBox="0 0 852 300" fill="none" xmlns="http://www.w3.org/2000/svg">
<path d="M171.799 128.779V171.484H128.401V278.906L278.906 128.779H171.799ZM21.0937 171.484H128.401V128.779H171.799V21.0938L21.0937 171.484Z" fill="#FF5F46"/>
<path d="M21.0938 171.484H128.401V128.779H171.799V21.0938L21.0938 171.484Z" fill="#FABFBA"/>
<path d="M340.501 138V60.72H360.373C369.352 60.72 376.749 62.3024 382.563 65.4672C388.451 68.5584 392.794 73.0112 395.59 78.8256C398.461 84.5664 399.896 91.4848 399.896 99.5808C399.896 107.53 398.461 114.374 395.59 120.115C392.794 125.856 388.451 130.272 382.563 133.363C376.749 136.454 369.352 138 360.373 138H340.501ZM349.774 130.272H360.152C367.586 130.272 373.51 129.058 377.926 126.629C382.342 124.126 385.507 120.594 387.421 116.03C389.334 111.394 390.291 105.91 390.291 99.5808C390.291 93.104 389.334 87.5472 387.421 82.9104C385.507 78.2736 382.342 74.704 377.926 72.2016C373.51 69.6992 367.586 68.448 360.152 68.448H349.774V130.272ZM427.945 139.325C423.529 139.325 419.849 138.515 416.905 136.896C413.961 135.203 411.753 132.995 410.281 130.272C408.809 127.475 408.073 124.494 408.073 121.33C408.073 117.502 409.029 114.264 410.943 111.614C412.93 108.891 415.69 106.83 419.223 105.432C422.756 104.034 426.877 103.334 431.588 103.334H446.05C446.05 99.5808 445.609 96.4528 444.725 93.9504C443.842 91.448 442.407 89.5712 440.42 88.32C438.433 87.0688 435.783 86.4432 432.471 86.4432C429.159 86.4432 426.325 87.2896 423.97 88.9824C421.615 90.6016 420.143 93.0304 419.554 96.2688H410.06C410.501 92.4416 411.789 89.24 413.924 86.664C416.058 84.0144 418.745 82.0272 421.983 80.7024C425.295 79.304 428.791 78.6048 432.471 78.6048C437.697 78.6048 442.002 79.5616 445.388 81.4752C448.773 83.3152 451.276 85.928 452.895 89.3136C454.514 92.6256 455.324 96.5632 455.324 101.126V138H447.044L446.492 128.064C445.756 129.61 444.799 131.082 443.621 132.48C442.517 133.805 441.193 134.982 439.647 136.013C438.101 137.043 436.335 137.853 434.348 138.442C432.434 139.03 430.3 139.325 427.945 139.325ZM429.269 131.486C431.698 131.486 433.943 130.934 436.004 129.83C438.065 128.726 439.831 127.254 441.303 125.414C442.849 123.501 444.026 121.366 444.836 119.011C445.645 116.656 446.05 114.19 446.05 111.614V110.51H432.361C428.901 110.51 426.068 110.952 423.86 111.835C421.725 112.718 420.18 113.97 419.223 115.589C418.266 117.134 417.788 118.901 417.788 120.888C417.788 123.022 418.229 124.899 419.113 126.518C419.996 128.064 421.284 129.278 422.977 130.162C424.743 131.045 426.841 131.486 429.269 131.486ZM488.345 138C485.033 138 482.163 137.485 479.734 136.454C477.305 135.424 475.429 133.694 474.104 131.266C472.853 128.763 472.227 125.414 472.227 121.219V87.768H462.07V79.9296H472.227L473.441 65.4672H481.501V79.9296H497.95V87.768H481.501V121.219C481.501 124.678 482.2 127.034 483.598 128.285C484.997 129.462 487.462 130.051 490.995 130.051H497.729V138H488.345ZM525.467 139.325C521.051 139.325 517.371 138.515 514.427 136.896C511.483 135.203 509.275 132.995 507.803 130.272C506.331 127.475 505.595 124.494 505.595 121.33C505.595 117.502 506.552 114.264 508.466 111.614C510.453 108.891 513.213 106.83 516.746 105.432C520.279 104.034 524.4 103.334 529.111 103.334H543.573C543.573 99.5808 543.131 96.4528 542.248 93.9504C541.365 91.448 539.93 89.5712 537.943 88.32C535.955 87.0688 533.306 86.4432 529.994 86.4432C526.682 86.4432 523.848 87.2896 521.493 88.9824C519.138 90.6016 517.666 93.0304 517.077 96.2688H507.583C508.024 92.4416 509.312 89.24 511.447 86.664C513.581 84.0144 516.267 82.0272 519.506 80.7024C522.818 79.304 526.314 78.6048 529.994 78.6048C535.219 78.6048 539.525 79.5616 542.911 81.4752C546.296 83.3152 548.799 85.928 550.418 89.3136C552.037 92.6256 552.847 96.5632 552.847 101.126V138H544.567L544.015 128.064C543.279 129.61 542.322 131.082 541.144 132.48C540.04 133.805 538.715 134.982 537.17 136.013C535.624 137.043 533.858 137.853 531.871 138.442C529.957 139.03 527.823 139.325 525.467 139.325ZM526.792 131.486C529.221 131.486 531.466 130.934 533.527 129.83C535.587 128.726 537.354 127.254 538.826 125.414C540.371 123.501 541.549 121.366 542.359 119.011C543.168 116.656 543.573 114.19 543.573 111.614V110.51H529.883C526.424 110.51 523.591 110.952 521.383 111.835C519.248 112.718 517.703 113.97 516.746 115.589C515.789 117.134 515.311 118.901 515.311 120.888C515.311 123.022 515.752 124.899 516.635 126.518C517.519 128.064 518.807 129.278 520.499 130.162C522.266 131.045 524.363 131.486 526.792 131.486ZM593.781 139.325C590.248 139.325 587.194 138.81 584.618 137.779C582.115 136.675 579.981 135.314 578.214 133.694C576.522 132.075 575.123 130.493 574.019 128.947L573.246 138H564.856V58.512H574.13V89.0928C575.896 85.6336 578.509 83.0208 581.968 81.2544C585.427 79.488 589.291 78.6048 593.56 78.6048C598.859 78.6048 603.496 79.8928 607.47 82.4688C611.445 85.0448 614.536 88.6144 616.744 93.1776C618.952 97.6672 620.056 102.856 620.056 108.744C620.056 114.558 618.952 119.784 616.744 124.421C614.536 129.058 611.445 132.701 607.47 135.35C603.57 138 599.006 139.325 593.781 139.325ZM592.566 131.266C596.026 131.266 599.08 130.382 601.73 128.616C604.453 126.776 606.587 124.2 608.133 120.888C609.752 117.502 610.562 113.528 610.562 108.965C610.562 104.402 609.752 100.464 608.133 97.152C606.587 93.7664 604.453 91.1904 601.73 89.424C599.08 87.584 596.026 86.664 592.566 86.664C588.886 86.664 585.685 87.584 582.962 89.424C580.238 91.1904 578.141 93.7664 576.669 97.152C575.197 100.464 574.461 104.402 574.461 108.965C574.461 113.528 575.197 117.502 576.669 120.888C578.141 124.2 580.238 126.776 582.962 128.616C585.685 130.382 588.886 131.266 592.566 131.266ZM630.221 138V79.9296H638.611L639.273 90.528C640.598 87.8784 642.328 85.6704 644.462 83.904C646.597 82.1376 649.173 80.8128 652.19 79.9296C655.281 79.0464 658.741 78.6048 662.568 78.6048V88.32H656.827C654.619 88.32 652.485 88.6144 650.424 89.2032C648.363 89.792 646.486 90.7488 644.793 92.0736C643.174 93.3984 641.886 95.2016 640.929 97.4832C639.973 99.7648 639.494 102.635 639.494 106.094V138H630.221ZM670.809 138V79.9296H680.083V138H670.809ZM675.446 68.8896C673.606 68.8896 672.06 68.3008 670.809 67.1232C669.631 65.872 669.043 64.3264 669.043 62.4864C669.043 60.6464 669.631 59.1744 670.809 58.0704C672.06 56.8928 673.606 56.304 675.446 56.304C677.212 56.304 678.721 56.8928 679.972 58.0704C681.223 59.1744 681.849 60.6464 681.849 62.4864C681.849 64.3264 681.223 65.872 679.972 67.1232C678.721 68.3008 677.212 68.8896 675.446 68.8896ZM718.304 139.325C713.005 139.325 708.295 138.074 704.173 135.571C700.051 132.995 696.813 129.426 694.458 124.862C692.103 120.299 690.925 115 690.925 108.965C690.925 102.856 692.103 97.5568 694.458 93.0672C696.813 88.504 700.051 84.9712 704.173 82.4688C708.295 79.8928 713.005 78.6048 718.304 78.6048C724.928 78.6048 730.448 80.3712 734.864 83.904C739.354 87.4368 742.224 92.184 743.475 98.1456H733.981C733.171 94.4656 731.295 91.632 728.351 89.6448C725.48 87.584 722.095 86.5536 718.194 86.5536C714.808 86.5536 711.754 87.4 709.031 89.0928C706.381 90.7856 704.283 93.288 702.738 96.6C701.192 99.912 700.419 104.034 700.419 108.965C700.419 112.645 700.861 115.92 701.744 118.79C702.627 121.587 703.842 123.942 705.387 125.856C707.007 127.696 708.883 129.094 711.018 130.051C713.226 131.008 715.618 131.486 718.194 131.486C720.843 131.486 723.235 131.045 725.37 130.162C727.578 129.205 729.418 127.843 730.89 126.077C732.435 124.31 733.466 122.213 733.981 119.784H743.475C742.298 125.598 739.427 130.309 734.864 133.915C730.375 137.522 724.855 139.325 718.304 139.325ZM787.762 138L761.377 106.646L786.217 79.9296H797.588L769.215 109.958L769.325 103.334L799.575 138H787.762ZM753.649 138V58.512H762.922V138H753.649ZM823.817 139.325C818.592 139.325 814.249 138.552 810.79 137.006C807.405 135.387 804.829 133.179 803.062 130.382C801.296 127.512 800.229 124.2 799.861 120.446H809.355C809.649 122.434 810.312 124.274 811.342 125.966C812.446 127.586 814.029 128.91 816.089 129.941C818.15 130.971 820.763 131.486 823.928 131.486C826.43 131.486 828.565 131.118 830.331 130.382C832.097 129.573 833.422 128.469 834.305 127.07C835.262 125.672 835.741 124.053 835.741 122.213C835.741 119.784 835.189 117.907 834.085 116.582C833.054 115.184 831.509 114.154 829.448 113.491C827.461 112.755 824.958 112.203 821.941 111.835C818.702 111.394 815.832 110.768 813.329 109.958C810.827 109.149 808.693 108.082 806.926 106.757C805.233 105.432 803.945 103.776 803.062 101.789C802.179 99.8016 801.737 97.4464 801.737 94.7232C801.737 91.5584 802.584 88.7616 804.277 86.3328C805.969 83.904 808.361 82.0272 811.453 80.7024C814.617 79.304 818.334 78.6048 822.603 78.6048C828.859 78.6048 833.79 80.04 837.397 82.9104C841.077 85.7808 843.248 89.8656 843.91 95.1648H834.747C834.379 92.4416 833.128 90.3072 830.993 88.7616C828.859 87.216 826.025 86.4432 822.493 86.4432C818.739 86.4432 815.905 87.1424 813.992 88.5408C812.078 89.9392 811.121 91.7792 811.121 94.0608C811.121 95.7536 811.526 97.2992 812.336 98.6976C813.219 100.022 814.691 101.163 816.752 102.12C818.813 103.003 821.573 103.666 825.032 104.107C829.374 104.622 833.054 105.469 836.072 106.646C839.089 107.75 841.371 109.48 842.917 111.835C844.536 114.19 845.309 117.392 845.235 121.44C845.235 125.267 844.315 128.506 842.475 131.155C840.709 133.805 838.206 135.829 834.968 137.227C831.803 138.626 828.086 139.325 823.817 139.325ZM339.838 237V159.72H367.659C373.842 159.72 378.957 160.787 383.005 162.922C387.053 164.982 390.07 167.779 392.058 171.312C394.045 174.845 395.038 178.893 395.038 183.456C395.038 187.725 394.082 191.662 392.168 195.269C390.254 198.802 387.274 201.672 383.226 203.88C379.178 206.014 373.989 207.082 367.659 207.082H353.086V237H339.838ZM353.086 196.262H366.886C372.112 196.262 375.866 195.122 378.147 192.84C380.429 190.485 381.57 187.357 381.57 183.456C381.57 179.408 380.429 176.243 378.147 173.962C375.866 171.68 372.112 170.539 366.886 170.539H353.086V196.262ZM402.713 237V157.512H415.961V189.97C417.801 186.952 420.303 184.56 423.468 182.794C426.633 180.954 430.203 180.034 434.177 180.034C438.74 180.034 442.604 180.99 445.769 182.904C448.934 184.744 451.326 187.504 452.945 191.184C454.638 194.79 455.484 199.317 455.484 204.763V237H442.347V205.978C442.347 201.194 441.316 197.55 439.255 195.048C437.268 192.546 434.214 191.294 430.092 191.294C427.443 191.294 425.051 191.957 422.916 193.282C420.782 194.533 419.089 196.373 417.838 198.802C416.587 201.157 415.961 204.064 415.961 207.523V237H402.713ZM492.189 238.325C486.889 238.325 482.105 237.11 477.837 234.682C473.641 232.179 470.329 228.757 467.901 224.414C465.545 219.998 464.368 214.957 464.368 209.29C464.368 203.475 465.582 198.397 468.011 194.054C470.44 189.638 473.752 186.216 477.947 183.787C482.216 181.285 487 180.034 492.299 180.034C497.598 180.034 502.345 181.285 506.541 183.787C510.809 186.216 514.121 189.602 516.477 193.944C518.905 198.286 520.12 203.365 520.12 209.179C520.12 214.994 518.905 220.072 516.477 224.414C514.048 228.757 510.699 232.179 506.43 234.682C502.235 237.11 497.488 238.325 492.189 238.325ZM492.189 226.954C494.838 226.954 497.23 226.291 499.365 224.966C501.573 223.642 503.339 221.654 504.664 219.005C505.989 216.355 506.651 213.08 506.651 209.179C506.651 205.278 505.989 202.04 504.664 199.464C503.413 196.814 501.683 194.827 499.475 193.502C497.341 192.178 494.949 191.515 492.299 191.515C489.723 191.515 487.331 192.178 485.123 193.502C482.915 194.827 481.149 196.814 479.824 199.464C478.499 202.04 477.837 205.278 477.837 209.179C477.837 213.08 478.499 216.355 479.824 219.005C481.149 221.654 482.878 223.642 485.013 224.966C487.221 226.291 489.613 226.954 492.189 226.954ZM551.798 237C548.044 237 544.769 236.411 541.972 235.234C539.249 234.056 537.115 232.106 535.569 229.382C534.023 226.659 533.251 222.979 533.251 218.342V192.509H523.756V181.358H533.251L534.796 166.675H546.499V181.358H561.623V192.509H546.499V218.342C546.499 221.139 547.087 223.09 548.265 224.194C549.516 225.224 551.577 225.739 554.447 225.739H561.292V237H551.798ZM595.318 238.325C590.019 238.325 585.235 237.11 580.966 234.682C576.771 232.179 573.459 228.757 571.03 224.414C568.675 219.998 567.497 214.957 567.497 209.29C567.497 203.475 568.711 198.397 571.14 194.054C573.569 189.638 576.881 186.216 581.076 183.787C585.345 181.285 590.129 180.034 595.428 180.034C600.727 180.034 605.475 181.285 609.67 183.787C613.939 186.216 617.251 189.602 619.606 193.944C622.035 198.286 623.249 203.365 623.249 209.179C623.249 214.994 622.035 220.072 619.606 224.414C617.177 228.757 613.828 232.179 609.559 234.682C605.364 237.11 600.617 238.325 595.318 238.325ZM595.318 226.954C597.967 226.954 600.359 226.291 602.494 224.966C604.702 223.642 606.468 221.654 607.793 219.005C609.118 216.355 609.78 213.08 609.78 209.179C609.78 205.278 609.118 202.04 607.793 199.464C606.542 196.814 604.812 194.827 602.604 193.502C600.47 192.178 598.078 191.515 595.428 191.515C592.852 191.515 590.46 192.178 588.252 193.502C586.044 194.827 584.278 196.814 582.953 199.464C581.628 202.04 580.966 205.278 580.966 209.179C580.966 213.08 581.628 216.355 582.953 219.005C584.278 221.654 586.007 223.642 588.142 224.966C590.35 226.291 592.742 226.954 595.318 226.954ZM632.906 237V181.358H644.608L645.602 190.632C647.294 187.394 649.723 184.818 652.888 182.904C656.053 180.99 659.806 180.034 664.149 180.034C668.638 180.034 672.466 180.99 675.63 182.904C678.795 184.744 681.224 187.467 682.917 191.074C684.683 194.68 685.566 199.17 685.566 204.542V237H672.318V205.757C672.318 201.12 671.288 197.55 669.227 195.048C667.166 192.546 664.112 191.294 660.064 191.294C657.414 191.294 655.022 191.92 652.888 193.171C650.827 194.422 649.171 196.262 647.92 198.691C646.742 201.046 646.154 203.917 646.154 207.302V237H632.906Z" fill="#1B3139"/>
</svg>
