<svg width="742" height="558" viewBox="0 0 742 558" fill="none" xmlns="http://www.w3.org/2000/svg">
<g filter="url(#filter0_dddddd_1110_11565)">
<path d="M148 116.336C148 77.4903 179.49 46 218.336 46H339.664C378.51 46 410 77.4903 410 116.336V237.664C410 276.51 378.51 308 339.664 308H218.336C179.49 308 148 276.51 148 237.664V116.336Z" fill="white"/>
</g>
<path d="M211.502 109.5H267.752V165.75H211.502V109.5Z" fill="#FABFBA"/>
<path d="M343.689 244.5L287.439 244.5L287.439 210.75C287.439 198.324 297.513 188.25 309.939 188.25L321.189 188.25C333.616 188.25 343.689 198.324 343.689 210.75L343.689 244.5Z" fill="#FABFBA"/>
<path d="M242.439 188.25L273.377 244.5H211.502L242.439 188.25Z" fill="#FF5F46"/>
<path d="M287.439 139.031C287.439 122.722 300.661 109.5 316.971 109.5V109.5C333.28 109.5 346.502 122.722 346.502 139.031V139.031C346.502 155.341 333.28 168.562 316.971 168.562V168.562C300.661 168.562 287.439 155.341 287.439 139.031V139.031Z" fill="#FF5F46"/>
<path d="M476.76 214.5L505.022 137.22H519.816L548.078 214.5H534.058L512.309 152.676L490.56 214.5H476.76ZM489.346 196.284L492.878 185.796H530.966L534.499 196.284H489.346ZM554.955 238.788V158.858H566.768L568.203 166.918C569.381 165.298 570.779 163.79 572.398 162.391C574.091 160.919 576.115 159.742 578.47 158.858C580.899 157.975 583.659 157.534 586.75 157.534C591.976 157.534 596.576 158.822 600.55 161.398C604.598 163.974 607.763 167.47 610.045 171.886C612.326 176.228 613.467 181.196 613.467 186.79C613.467 192.383 612.29 197.388 609.934 201.804C607.653 206.146 604.488 209.569 600.44 212.071C596.466 214.574 591.902 215.825 586.75 215.825C582.555 215.825 578.875 215.052 575.71 213.506C572.619 211.887 570.117 209.606 568.203 206.662V238.788H554.955ZM583.99 204.343C587.082 204.343 589.842 203.607 592.27 202.135C594.699 200.663 596.576 198.602 597.901 195.953C599.299 193.303 599.998 190.249 599.998 186.79C599.998 183.257 599.299 180.166 597.901 177.516C596.576 174.866 594.699 172.806 592.27 171.334C589.842 169.862 587.082 169.126 583.99 169.126C580.826 169.126 578.029 169.862 575.6 171.334C573.245 172.806 571.368 174.866 569.97 177.516C568.645 180.166 567.982 183.22 567.982 186.679C567.982 190.212 568.645 193.303 569.97 195.953C571.368 198.529 573.245 200.59 575.6 202.135C578.029 203.607 580.826 204.343 583.99 204.343ZM623.015 238.788V158.858H634.828L636.263 166.918C637.441 165.298 638.839 163.79 640.458 162.391C642.151 160.919 644.175 159.742 646.53 158.858C648.959 157.975 651.719 157.534 654.81 157.534C660.036 157.534 664.636 158.822 668.61 161.398C672.658 163.974 675.823 167.47 678.105 171.886C680.386 176.228 681.527 181.196 681.527 186.79C681.527 192.383 680.349 197.388 677.994 201.804C675.713 206.146 672.548 209.569 668.5 212.071C664.525 214.574 659.962 215.825 654.81 215.825C650.615 215.825 646.935 215.052 643.77 213.506C640.679 211.887 638.177 209.606 636.263 206.662V238.788H623.015ZM652.05 204.343C655.141 204.343 657.901 203.607 660.33 202.135C662.759 200.663 664.636 198.602 665.961 195.953C667.359 193.303 668.058 190.249 668.058 186.79C668.058 183.257 667.359 180.166 665.961 177.516C664.636 174.866 662.759 172.806 660.33 171.334C657.901 169.862 655.141 169.126 652.05 169.126C648.885 169.126 646.089 169.862 643.66 171.334C641.305 172.806 639.428 174.866 638.029 177.516C636.705 180.166 636.042 183.22 636.042 186.679C636.042 190.212 636.705 193.303 638.029 195.953C639.428 198.529 641.305 200.59 643.66 202.135C646.089 203.607 648.885 204.343 652.05 204.343ZM713.265 215.825C708.334 215.825 704.028 215.052 700.348 213.506C696.742 211.887 693.872 209.679 691.737 206.882C689.676 204.012 688.462 200.737 688.094 197.057H701.342C701.71 198.602 702.372 200.038 703.329 201.362C704.286 202.614 705.574 203.607 707.193 204.343C708.886 205.079 710.873 205.447 713.155 205.447C715.363 205.447 717.166 205.153 718.564 204.564C719.963 203.902 720.993 203.055 721.656 202.025C722.318 200.994 722.649 199.89 722.649 198.713C722.649 196.946 722.171 195.585 721.214 194.628C720.257 193.671 718.859 192.935 717.019 192.42C715.252 191.831 713.118 191.279 710.616 190.764C707.966 190.249 705.39 189.623 702.888 188.887C700.459 188.078 698.251 187.084 696.264 185.906C694.35 184.729 692.804 183.22 691.627 181.38C690.523 179.54 689.971 177.295 689.971 174.646C689.971 171.407 690.817 168.5 692.51 165.924C694.276 163.348 696.779 161.324 700.017 159.852C703.329 158.306 707.267 157.534 711.83 157.534C718.307 157.534 723.459 159.042 727.286 162.06C731.187 165.004 733.468 169.162 734.131 174.535H721.545C721.177 172.474 720.147 170.892 718.454 169.788C716.761 168.61 714.516 168.022 711.72 168.022C708.849 168.022 706.641 168.574 705.096 169.678C703.624 170.708 702.888 172.106 702.888 173.873C702.888 174.977 703.329 176.007 704.212 176.964C705.169 177.847 706.531 178.62 708.297 179.282C710.064 179.871 712.235 180.46 714.811 181.049C718.932 181.858 722.576 182.815 725.74 183.919C728.905 185.023 731.408 186.642 733.248 188.777C735.088 190.911 736.008 193.929 736.008 197.83C736.081 201.362 735.161 204.49 733.248 207.214C731.408 209.937 728.795 212.071 725.409 213.617C722.024 215.089 717.976 215.825 713.265 215.825Z" fill="white"/>
<defs>
<filter id="filter0_dddddd_1110_11565" x="0.713516" y="0.681084" width="556.573" height="556.573" filterUnits="userSpaceOnUse" color-interpolation-filters="sRGB">
<feFlood flood-opacity="0" result="BackgroundImageFix"/>
<feColorMatrix in="SourceAlpha" type="matrix" values="0 0 0 0 0 0 0 0 0 0 0 0 0 0 0 0 0 0 127 0" result="hardAlpha"/>
<feOffset dy="2.83243"/>
<feGaussianBlur stdDeviation="2.12432"/>
<feColorMatrix type="matrix" values="0 0 0 0 0.105882 0 0 0 0 0.192157 0 0 0 0 0.223529 0 0 0 0.0196802 0"/>
<feBlend mode="normal" in2="BackgroundImageFix" result="effect1_dropShadow_1110_11565"/>
<feColorMatrix in="SourceAlpha" type="matrix" values="0 0 0 0 0 0 0 0 0 0 0 0 0 0 0 0 0 0 127 0" result="hardAlpha"/>
<feOffset dy="5.66487"/>
<feGaussianBlur stdDeviation="5.66487"/>
<feColorMatrix type="matrix" values="0 0 0 0 0.105882 0 0 0 0 0.192157 0 0 0 0 0.223529 0 0 0 0.04 0"/>
<feBlend mode="normal" in2="effect1_dropShadow_1110_11565" result="effect2_dropShadow_1110_11565"/>
<feColorMatrix in="SourceAlpha" type="matrix" values="0 0 0 0 0 0 0 0 0 0 0 0 0 0 0 0 0 0 127 0" result="hardAlpha"/>
<feOffset dy="12.7459"/>
<feGaussianBlur stdDeviation="9.20541"/>
<feColorMatrix type="matrix" values="0 0 0 0 0.105882 0 0 0 0 0.192157 0 0 0 0 0.223529 0 0 0 0.035 0"/>
<feBlend mode="normal" in2="effect2_dropShadow_1110_11565" result="effect3_dropShadow_1110_11565"/>
<feColorMatrix in="SourceAlpha" type="matrix" values="0 0 0 0 0 0 0 0 0 0 0 0 0 0 0 0 0 0 127 0" result="hardAlpha"/>
<feOffset dy="22.6595"/>
<feGaussianBlur stdDeviation="16.9946"/>
<feColorMatrix type="matrix" values="0 0 0 0 0.105882 0 0 0 0 0.192157 0 0 0 0 0.223529 0 0 0 0.04 0"/>
<feBlend mode="normal" in2="effect3_dropShadow_1110_11565" result="effect4_dropShadow_1110_11565"/>
<feColorMatrix in="SourceAlpha" type="matrix" values="0 0 0 0 0 0 0 0 0 0 0 0 0 0 0 0 0 0 127 0" result="hardAlpha"/>
<feOffset dy="45.3189"/>
<feGaussianBlur stdDeviation="28.3243"/>
<feColorMatrix type="matrix" values="0 0 0 0 0.105882 0 0 0 0 0.192157 0 0 0 0 0.223529 0 0 0 0.0503198 0"/>
<feBlend mode="normal" in2="effect4_dropShadow_1110_11565" result="effect5_dropShadow_1110_11565"/>
<feColorMatrix in="SourceAlpha" type="matrix" values="0 0 0 0 0 0 0 0 0 0 0 0 0 0 0 0 0 0 127 0" result="hardAlpha"/>
<feOffset dy="101.968"/>
<feGaussianBlur stdDeviation="73.6432"/>
<feColorMatrix type="matrix" values="0 0 0 0 0.105882 0 0 0 0 0.192157 0 0 0 0 0.223529 0 0 0 0.07 0"/>
<feBlend mode="normal" in2="effect5_dropShadow_1110_11565" result="effect6_dropShadow_1110_11565"/>
<feBlend mode="normal" in="SourceGraphic" in2="effect6_dropShadow_1110_11565" result="shape"/>
</filter>
</defs>
</svg>
