<svg width="150" height="150" viewBox="0 0 150 150" fill="none" xmlns="http://www.w3.org/2000/svg">
<path d="M119.2 81.7C119.2 84.5 116.9 86.8 114.1 86.8C111.3 86.8 109 84.5 109 81.7V73.1H106V81.7C106 84.5 103.7 86.8 100.9 86.8C98.1 86.8 95.8 84.5 95.8 81.7V73.1H92.8V81.7C92.8 84.5 90.5 86.8 87.7 86.8C84.9 86.8 82.6 84.5 82.6 81.7V73.1H79.6V81.7C79.6 84.5 77.3 86.8 74.5 86.8C71.7 86.8 69.4 84.5 69.4 81.7V73.1H66.4V81.7C66.4 85.7 69.3 89 73 89.7V106.6H115.7V89.7C119.5 89 122.3 85.7 122.3 81.7V65.1H67.7H29.7V115.7H21.3V53.5H122.8V50.5H18.3V118.6H32.7V68.1H119.1V81.7H119.2ZM75.9 103.6V89.7C78 89.3 79.8 88.1 81 86.4C82.5 88.5 84.9 89.8 87.6 89.8C90.3 89.8 92.8 88.4 94.2 86.4C95.7 88.5 98.1 89.8 100.8 89.8C103.5 89.8 106 88.4 107.4 86.4C108.6 88.1 110.4 89.3 112.5 89.7V103.6H75.9V103.6Z" fill="white"/>
<path d="M12.9 31.4V44.6H122.7V41.6H15.9V34.4H134.1V41.6H129.7V115.6H58.4V73.1H55.4V118.6H132.7V44.6H137.1V31.4H12.9Z" fill="white"/>
</svg>
