<svg width="150" height="150" viewBox="0 0 150 150" fill="none" xmlns="http://www.w3.org/2000/svg">
<g clip-path="url(#clip0_1_2009)">
<path fill-rule="evenodd" clip-rule="evenodd" d="M44.7 102.4H58.6V105.4H47.7V116.2H44.7V102.4Z" fill="#1B3139"/>
<path fill-rule="evenodd" clip-rule="evenodd" d="M119.4 20.3999V34.1999H105.6V31.1999H116.4V20.3999H119.4Z" fill="#1B3139"/>
<path fill-rule="evenodd" clip-rule="evenodd" d="M114.4 73.3999H136.9V74.8999C136.9 109.027 109.23 136.8 75 136.8C45.0708 136.8 20.0687 115.482 14.33 87.1982L13.9651 85.3999H78.6V88.3999H17.6644C23.7996 114.416 47.1668 133.8 75 133.8C107.067 133.8 133.085 108.183 133.881 76.3999H117.374C116.585 99.1328 97.9263 117.3 75 117.3C63.2896 117.3 52.8156 112.633 45.1466 105.068L47.2534 102.932C54.3844 109.967 64.1104 114.3 75 114.3C96.7716 114.3 114.4 96.6715 114.4 74.8999V73.3999Z" fill="#1B3139"/>
<path fill-rule="evenodd" clip-rule="evenodd" d="M16.1188 73.5001C16.9147 41.717 42.933 16.1001 75 16.1001C91.3872 16.1001 106.205 22.7309 116.83 33.5511L118.97 31.4491C107.795 20.0693 92.2128 13.1001 75 13.1001C40.77 13.1001 13.1 40.8733 13.1 75.0001V76.5001H35.6V75.0001C35.6 53.2285 53.2284 35.6001 75 35.6001C91.9948 35.6001 106.433 46.4093 112.006 61.5001H71.4V64.5001H116.138L115.532 62.5542C110.145 45.253 94.0832 32.6001 75 32.6001C52.0737 32.6001 33.4152 50.7672 32.626 73.5001H16.1188Z" fill="#1B3139"/>
<path fill-rule="evenodd" clip-rule="evenodd" d="M63.7 56.8003C60.2758 56.8003 57.5 59.5761 57.5 63.0003C57.5 66.4245 60.2758 69.2003 63.7 69.2003C67.1242 69.2003 69.9 66.4245 69.9 63.0003C69.9 59.5761 67.1242 56.8003 63.7 56.8003ZM54.5 63.0003C54.5 57.9193 58.619 53.8003 63.7 53.8003C68.781 53.8003 72.9 57.9193 72.9 63.0003C72.9 68.0813 68.781 72.2003 63.7 72.2003C58.619 72.2003 54.5 68.0813 54.5 63.0003Z" fill="#1B3139"/>
<path fill-rule="evenodd" clip-rule="evenodd" d="M86.3 80.8003C82.8758 80.8003 80.1 83.5761 80.1 87.0003C80.1 90.4245 82.8758 93.2003 86.3 93.2003C89.7242 93.2003 92.5 90.4245 92.5 87.0003C92.5 83.5761 89.7242 80.8003 86.3 80.8003ZM77.1 87.0003C77.1 81.9193 81.219 77.8003 86.3 77.8003C91.381 77.8003 95.5 81.9193 95.5 87.0003C95.5 92.0813 91.381 96.2003 86.3 96.2003C81.219 96.2003 77.1 92.0813 77.1 87.0003Z" fill="#1B3139"/>
</g>
<defs>
<clipPath id="clip0_1_2009">
<rect width="150" height="150" fill="white"/>
</clipPath>
</defs>
</svg>
