<svg width="150" height="150" viewBox="0 0 150 150" fill="none" xmlns="http://www.w3.org/2000/svg">
<g clip-path="url(#clip0_214_408)">
<path fill-rule="evenodd" clip-rule="evenodd" d="M44.7 102.4H58.5999V105.4H47.7V116.2H44.7V102.4Z" fill="#FF5F46"/>
<path fill-rule="evenodd" clip-rule="evenodd" d="M119.4 20.4V34.2H105.6V31.2H116.4V20.4H119.4Z" fill="#FF5F46"/>
<path fill-rule="evenodd" clip-rule="evenodd" d="M114.4 73.4H136.9V74.9C136.9 109.027 109.23 136.8 75 136.8C45.0708 136.8 20.0687 115.482 14.33 87.1982L13.9651 85.4H78.6V88.4H17.6644C23.7996 114.416 47.1668 133.8 75 133.8C107.067 133.8 133.085 108.183 133.881 76.4H117.374C116.585 99.1328 97.9263 117.3 75 117.3C63.2896 117.3 52.8156 112.633 45.1466 105.068L47.2534 102.932C54.3844 109.967 64.1104 114.3 75 114.3C96.7716 114.3 114.4 96.6715 114.4 74.9V73.4Z" fill="#FF5F46"/>
<path fill-rule="evenodd" clip-rule="evenodd" d="M16.1187 73.5C16.9147 41.7169 42.933 16.1 75 16.1C91.3872 16.1 106.205 22.7308 116.83 33.551L118.97 31.449C107.795 20.0691 92.2127 13.1 75 13.1C40.7699 13.1 13.1 40.8732 13.1 75V76.5H35.6V75C35.6 53.2284 53.2284 35.6 75 35.6C91.9948 35.6 106.433 46.4092 112.006 61.5H71.4V64.5H116.138L115.532 62.554C110.145 45.2528 94.0832 32.6 75 32.6C52.0736 32.6 33.4152 50.7671 32.626 73.5H16.1187Z" fill="#FF5F46"/>
<path fill-rule="evenodd" clip-rule="evenodd" d="M63.7 56.8C60.2758 56.8 57.5 59.5758 57.5 63C57.5 66.4242 60.2758 69.2 63.7 69.2C67.1242 69.2 69.9 66.4242 69.9 63C69.9 59.5758 67.1242 56.8 63.7 56.8ZM54.5 63C54.5 57.919 58.619 53.8 63.7 53.8C68.781 53.8 72.9 57.919 72.9 63C72.9 68.081 68.781 72.2 63.7 72.2C58.619 72.2 54.5 68.081 54.5 63Z" fill="#FF5F46"/>
<path fill-rule="evenodd" clip-rule="evenodd" d="M86.3 80.8C82.8758 80.8 80.1 83.5758 80.1 87C80.1 90.4241 82.8758 93.2 86.3 93.2C89.7241 93.2 92.5 90.4242 92.5 87C92.5 83.5758 89.7241 80.8 86.3 80.8ZM77.1 87C77.1 81.919 81.219 77.8 86.3 77.8C91.381 77.8 95.5 81.919 95.5 87C95.5 92.081 91.381 96.2 86.3 96.2C81.219 96.2 77.1 92.081 77.1 87Z" fill="#FF5F46"/>
</g>
<defs>
<clipPath id="clip0_214_408">
<rect width="150" height="150" fill="white"/>
</clipPath>
</defs>
</svg>
