<svg width="150" height="150" viewBox="0 0 150 150" fill="none" xmlns="http://www.w3.org/2000/svg">
<path d="M16.6 105.8V47C16.6 44.2 18.9 41.9 21.7 41.9H62.1L39.8 19.6L37.7 21.7L54.8 38.8H21.7C17.2 38.8 13.6 42.4 13.6 46.9V105.7C13.6 110.2 17.2 113.8 21.7 113.8H74.4V110.8H21.7C18.9 110.9 16.6 108.6 16.6 105.8Z" fill="#FF5F46"/>
<path d="M88.2 110.9H74.4V113.9H88.2V110.9Z" fill="#FF5F46"/>
<path d="M79.8999 76.3L52.0999 90.8L53.4999 93.5L81.2999 79C82.3999 78.4 83.0999 77.2 83.0999 76C83.0999 74.7 82.3999 73.6 81.2999 73L56.2999 60C55.1999 59.4 53.9999 59.5 52.8999 60.1C51.8999 60.7 51.2999 61.8 51.2999 63V84.4H54.2999V63C54.2999 62.8 54.3999 62.7 54.4999 62.6C54.5999 62.6 54.6999 62.5 54.8999 62.6L79.7999 75.6C79.9999 75.7 79.9999 75.9 79.9999 76C80.0999 76.1 80.0999 76.2 79.8999 76.3Z" fill="#FF5F46"/>
<path d="M91 127.3C91 127.3 90.9 127.2 90.9 127.1C90.9 123.5 93.9 120.5 97.5 120.5H109L82.2 93.8C81.6 93.2 81.2 92.3 81.2 91.4C81.2 90.5 81.5 89.7 82.1 89C82.7 88.4 83.6 88 84.5 88C85.5 88 86.5 88.3999 87.2 89.0999L103.2 105.1L111.3 97L109.2 94.9L103.2 100.9L89.3 86.9C88 85.6 86.3 84.9 84.4 84.9C82.6 84.9 81 85.6 79.9 86.8C78.8 88 78.1 89.5999 78.1 91.1999C78.1 92.8999 78.8 94.5 80 95.8L84.1 99.9C77.6 100.5 71.4 100.9 65 100.9C54.7 100.9 44.4 100.1 33.5 98.4C29.5 97.8 26.6 94.4 26.6 90.3V61.5999C26.6 59.7 27.3 57.8 28.6 56.3C29.9 54.8 31.6 53.8 33.6 53.5C55.1 50.2 75.1 50.2 96.6 53.5C100.6 54.1 103.5 57.5 103.5 61.5999V90.3H106.5V61.5999C106.5 56.0999 102.5 51.4 97 50.5C75.2 47.1 54.9 47.1 33.1 50.5C30.5 50.9 28.1 52.3 26.3 54.3C24.6 56.3 23.6 58.9 23.6 61.5999V90.3C23.6 95.9 27.6 100.5 33.1 101.4C44.2 103.1 54.6 104 65 104C72.2 104 79.4 103.6 86.8 102.8L101.6 117.6H97.4C92.1 117.6 87.8 121.9 87.8 127.2C87.8 128.1 88.1 128.9 88.7 129.5C89.3 130.1 90.1 130.5 91 130.5H123.8V127.5H91.1C91 127.4 91 127.4 91 127.3Z" fill="#FF5F46"/>
<path d="M135.5 105.1C133.5 100.1 130.6 95.5999 126.8 91.8999L126.2 91.3C123.7 88.8 119.9 87.9 116.6 89V47C116.6 42.5 113 38.9 108.5 38.9H75.3L92.4 21.7999L90.3 19.7L68.1 41.7999H108.5C111.3 41.7999 113.6 44.1 113.6 46.9V94L115.9 92.5C118.4 90.8 121.9 91.2 124 93.3L124.6 93.8999C128.1 97.3999 130.8 101.5 132.6 106.1L133.5 108.5L136.3 107.4L135.5 105.1Z" fill="#FF5F46"/>
</svg>
