<svg width="150" height="150" viewBox="0 0 150 150" fill="none" xmlns="http://www.w3.org/2000/svg">
<path d="M16.6 105.8V47.0001C16.6 44.2001 18.9 41.9001 21.7 41.9001H62.1L39.8 19.6001L37.7 21.7001L54.8 38.8001H21.7C17.2 38.8001 13.6 42.4001 13.6 46.9001V105.7C13.6 110.2 17.2 113.8 21.7 113.8H74.4V110.8H21.7C18.9 110.9 16.6 108.6 16.6 105.8Z" fill="white"/>
<path d="M88.2 110.9H74.4V113.9H88.2V110.9Z" fill="white"/>
<path d="M79.9 76.3L52.1 90.8L53.5 93.5L81.3 79C82.4 78.4 83.1 77.2 83.1 76C83.1 74.7 82.4 73.6 81.3 73L56.3 60C55.2 59.4 54 59.5 52.9 60.1C51.9 60.7 51.3 61.8 51.3 63V84.4H54.3V63C54.3 62.8 54.4 62.7 54.5 62.6C54.6 62.6 54.7 62.5 54.9 62.6L79.8 75.6C80 75.7 80 75.9 80 76C80.1 76.1 80.1 76.2 79.9 76.3Z" fill="white"/>
<path d="M91 127.3C91 127.3 90.9 127.2 90.9 127.1C90.9 123.5 93.9 120.5 97.5 120.5H109L82.2 93.8002C81.6 93.2002 81.2 92.3002 81.2 91.4002C81.2 90.5002 81.5 89.7002 82.1 89.0002C82.7 88.4002 83.6 88.0002 84.5 88.0002C85.5 88.0002 86.5 88.4002 87.2 89.1002L103.2 105.1L111.3 97.0002L109.2 94.9002L103.2 100.9L89.3 86.9002C88 85.6002 86.3 84.9002 84.4 84.9002C82.6 84.9002 81 85.6002 79.9 86.8002C78.8 88.0002 78.1 89.6002 78.1 91.2002C78.1 92.9002 78.8 94.5002 80 95.8002L84.1 99.9002C77.6 100.5 71.4 100.9 65 100.9C54.7 100.9 44.4 100.1 33.5 98.4002C29.5 97.8002 26.6 94.4002 26.6 90.3002V61.6002C26.6 59.7002 27.3 57.8002 28.6 56.3002C29.9 54.8002 31.6 53.8002 33.6 53.5002C55.1 50.2002 75.1 50.2002 96.6 53.5002C100.6 54.1002 103.5 57.5002 103.5 61.6002V90.3002H106.5V61.6002C106.5 56.1002 102.5 51.4002 97 50.5002C75.2 47.1002 54.9 47.1002 33.1 50.5002C30.5 50.9002 28.1 52.3002 26.3 54.3002C24.6 56.3002 23.6 58.9002 23.6 61.6002V90.3002C23.6 95.9002 27.6 100.5 33.1 101.4C44.2 103.1 54.6 104 65 104C72.2 104 79.4 103.6 86.8 102.8L101.6 117.6H97.4C92.1 117.6 87.8 121.9 87.8 127.2C87.8 128.1 88.1 128.9 88.7 129.5C89.3 130.1 90.1 130.5 91 130.5H123.8V127.5H91.1C91 127.4 91 127.4 91 127.3Z" fill="white"/>
<path d="M135.5 105.1C133.5 100.1 130.6 95.6002 126.8 91.9002L126.2 91.3002C123.7 88.8002 119.9 87.9002 116.6 89.0002V47.0002C116.6 42.5002 113 38.9002 108.5 38.9002H75.3L92.4 21.8002L90.3 19.7002L68.1 41.8002H108.5C111.3 41.8002 113.6 44.1002 113.6 46.9002V94.0002L115.9 92.5002C118.4 90.8002 121.9 91.2002 124 93.3002L124.6 93.9002C128.1 97.4002 130.8 101.5 132.6 106.1L133.5 108.5L136.3 107.4L135.5 105.1Z" fill="white"/>
</svg>
