<svg width="150" height="150" viewBox="0 0 150 150" fill="none" xmlns="http://www.w3.org/2000/svg">
<path d="M92.8 20.8H89.6V44.8C89.6 49.2 93.1 52.7001 97.5 52.7001H109.8V49.7001H97.5C94.8 49.7001 92.6 47.5 92.6 44.8V24.8L115.9 48.1V121.3C115.9 124 113.7 126.2 111 126.2H82.6V129.2H111C115.4 129.2 118.9 125.7 118.9 121.3V46.8L92.8 20.8Z" fill="#FF5F46"/>
<path d="M91.8 101.7C101.1 92.4 101.1 77.3 91.8 68C87.3 63.5 81.3 61 74.9 61C68.5 61 62.5 63.5 58 68C48.7 77.3 48.7 92.4 58 101.7C60.7 104.4 63.9 106.3 67.4 107.5L68.3 104.6C65.2 103.6 62.4 101.9 60.1 99.5C52 91.4 52 78.1001 60.1 70C68.2 61.9 81.4 61.9 89.6 70C97.7 78.1001 97.7 91.4 89.6 99.5C85.6 103.5 80.4 105.6 74.8 105.6H73.3V126.1H39C36.3 126.1 34.1 123.9 34.1 121.2V28.7001C34.1 26.0001 36.3 23.8 39 23.8H83.8V20.8H39C34.6 20.8 31.1 24.3001 31.1 28.7001V121.4C31.1 125.8 34.6 129.3 39 129.3H76.3V108.7C82.2 108.3 87.6 105.9 91.8 101.7Z" fill="#FF5F46"/>
<path d="M73.5 72.4V91.5L67.7 85.7L65.6 87.8L75 97.3L84.4 87.8L82.3 85.7L76.5 91.5V72.4H73.5Z" fill="#FF5F46"/>
</svg>
