<svg width="150" height="150" viewBox="0 0 150 150" fill="none" xmlns="http://www.w3.org/2000/svg">
<path d="M71.37 133.57L81.14 123.8L71.37 114L69.24 116.12L75.39 122.27H25.6C24.4073 122.267 23.2642 121.792 22.4209 120.949C21.5776 120.106 21.1026 118.963 21.1 117.77V101C21.1026 99.8073 21.5776 98.6643 22.4209 97.8209C23.2642 96.9776 24.4073 96.5026 25.6 96.5H43.38V93.5H25.59C23.6017 93.5026 21.6955 94.2937 20.2896 95.6996C18.8836 97.1056 18.0926 99.0117 18.09 101V117.8C18.0926 119.788 18.8836 121.694 20.2896 123.1C21.6955 124.506 23.6017 125.297 25.59 125.3H75.39L69.24 131.45L71.37 133.57Z" fill="#FF5F46"/>
<path d="M18 19.13V35.72C18.0026 37.1345 18.5664 38.4902 19.5676 39.4895C20.5687 40.4888 21.9255 41.05 23.34 41.05H39.93C41.3445 41.05 42.7013 40.4888 43.7024 39.4895C44.7036 38.4902 45.2674 37.1345 45.27 35.72V31.18H56.1C57.2927 31.1826 58.4357 31.6576 59.2791 32.5009C60.1224 33.3443 60.5974 34.4873 60.6 35.68V57.89C60.6026 59.8783 61.3937 61.7844 62.7996 63.1904C64.2056 64.5963 66.1117 65.3873 68.1 65.39H91.48L85.33 71.54L87.46 73.66L97.23 63.89L87.46 54.12L85.33 56.24L91.48 62.39H68.1C66.9073 62.3874 65.7643 61.9124 64.9209 61.0691C64.0776 60.2257 63.6026 59.0827 63.6 57.89V35.68C63.5974 33.6917 62.8063 31.7856 61.4004 30.3796C59.9944 28.9737 58.0883 28.1826 56.1 28.18H43.77H42.27V35.68C42.27 35.9868 42.2094 36.2906 42.0917 36.574C41.974 36.8573 41.8014 37.1146 41.584 37.3311C41.3666 37.5476 41.1086 37.719 40.8247 37.8355C40.5409 37.952 40.2368 38.0113 39.93 38.01H23.35C22.7355 38.0154 22.1437 37.7777 21.7035 37.3488C21.2634 36.9199 21.0105 36.3345 21 35.72V19.13C21.0026 18.5111 21.2503 17.9185 21.6889 17.4818C22.1274 17.0452 22.7211 16.8 23.34 16.8H39.93C40.5489 16.8 41.1426 17.0452 41.5811 17.4818C42.0197 17.9185 42.2674 18.5111 42.27 19.13V20L32.21 30L27.74 25.53L25.62 27.65L32.21 34.25L44.73 21.75L45.27 21.39V19.13C45.2674 17.7155 44.7036 16.3598 43.7024 15.3605C42.7013 14.3612 41.3445 13.8 39.93 13.8H23.35C22.6487 13.7987 21.9541 13.9355 21.3057 14.2027C20.6573 14.4698 20.0679 14.862 19.5711 15.357C19.0743 15.8519 18.6799 16.4399 18.4103 17.0872C18.1407 17.7346 18.0013 18.4287 18 19.13Z" fill="#FF5F46"/>
<path d="M118.92 66.49L114.45 62L112.33 64.13L118.92 70.72L131.44 58.2L131.99 57.84V55.6C131.987 54.1855 131.424 52.8298 130.422 51.8305C129.421 50.8312 128.065 50.27 126.65 50.27H110.06C108.646 50.27 107.291 50.8315 106.291 51.8311C105.292 52.8307 104.73 54.1864 104.73 55.6V72.19C104.733 73.6028 105.295 74.957 106.294 75.956C107.293 76.9549 108.647 77.5173 110.06 77.52H116.83V90.77C116.827 91.5012 116.536 92.2017 116.019 92.7187C115.502 93.2357 114.801 93.5274 114.07 93.53H55.87L61.37 87.31L59.12 85.31L50.48 95.07L60.19 104.78L62.31 102.66L56.16 96.51H114.07C114.826 96.51 115.575 96.361 116.274 96.0715C116.973 95.7821 117.608 95.3578 118.143 94.8229C118.678 94.2881 119.102 93.6531 119.392 92.9542C119.681 92.2554 119.83 91.5064 119.83 90.75V77.52H126.65C128.065 77.52 129.423 76.9591 130.426 75.9601C131.429 74.9611 131.995 73.6054 132 72.19V66.19H129V72.19C128.997 72.8089 128.75 73.4015 128.311 73.8382C127.873 74.2748 127.279 74.52 126.66 74.52H110.06C109.442 74.52 108.849 74.2745 108.412 73.8376C107.975 73.4006 107.73 72.8079 107.73 72.19V55.6C107.73 54.982 107.975 54.3894 108.412 53.9524C108.849 53.5155 109.442 53.27 110.06 53.27H126.65C126.958 53.2673 127.263 53.3257 127.548 53.4416C127.833 53.5575 128.092 53.7287 128.31 53.9453C128.529 54.1619 128.702 54.4197 128.821 54.7037C128.939 54.9877 129 55.2923 129 55.6V56.42L118.92 66.49Z" fill="#FF5F46"/>
<path d="M103.06 126.4L98.59 121.92L96.47 124L103.06 130.6L115.43 118.23L116.12 118V115.47C116.117 114.055 115.554 112.7 114.552 111.701C113.551 110.701 112.195 110.14 110.78 110.14H94.2C92.7855 110.14 91.4287 110.701 90.4276 111.701C89.4264 112.7 88.8626 114.055 88.86 115.47V132.1C88.8653 133.514 89.4299 134.868 90.4305 135.867C91.4311 136.865 92.7863 137.427 94.2 137.43H110.78C112.195 137.43 113.551 136.869 114.552 135.87C115.554 134.87 116.117 133.515 116.12 132.1V126.1H113.12V132.1C113.117 132.719 112.87 133.312 112.431 133.748C111.993 134.185 111.399 134.43 110.78 134.43H94.2C93.5811 134.43 92.9874 134.185 92.5489 133.748C92.1103 133.312 91.8626 132.719 91.86 132.1V115.51C91.86 115.203 91.9206 114.899 92.0383 114.616C92.156 114.333 92.3285 114.075 92.546 113.859C92.7634 113.642 93.0214 113.471 93.3053 113.354C93.5891 113.238 93.8932 113.179 94.2 113.18H110.78C111.087 113.179 111.391 113.238 111.675 113.354C111.959 113.471 112.217 113.642 112.434 113.859C112.651 114.075 112.824 114.333 112.942 114.616C113.059 114.899 113.12 115.203 113.12 115.51V116.33L103.06 126.4Z" fill="#FF5F46"/>
<path d="M29.12 65L27 67.13L33.59 73.72L46.78 60.53L46.17 59.53C44.3012 56.4615 41.3846 54.1734 37.9594 53.0887C34.5343 52.004 30.8323 52.196 27.5378 53.6293C24.2433 55.0626 21.5791 57.6403 20.0378 60.8856C18.4965 64.131 18.1824 67.8247 19.1534 71.2838C20.1245 74.7429 22.315 77.7334 25.3202 79.7025C28.3253 81.6716 31.9417 82.4861 35.5008 81.9954C39.0599 81.5048 42.3211 79.7421 44.6813 77.0333C47.0415 74.3245 48.3411 70.8528 48.34 67.26H45.34C45.3226 70.0778 44.3034 72.7974 42.4646 74.9326C40.6258 77.0678 38.0874 78.4792 35.3034 78.9143C32.5194 79.3495 29.6713 78.7801 27.2687 77.3079C24.866 75.8357 23.0655 73.5568 22.189 70.8788C21.3125 68.2007 21.4174 65.2982 22.4848 62.6904C23.5522 60.0826 25.5125 57.9395 28.0151 56.6445C30.5177 55.3495 33.3994 54.9871 36.1447 55.622C38.8901 56.2569 41.32 57.8477 43 60.11L33.64 69.48L29.12 65Z" fill="#FF5F46"/>
<path d="M87.05 25.2L84.93 27.33L91.52 33.92L104.71 20.72L104.1 19.72C102.231 16.6515 99.3146 14.3634 95.8895 13.2787C92.4644 12.194 88.7623 12.386 85.4678 13.8193C82.1733 15.2526 79.5091 17.8303 77.9679 21.0756C76.4266 24.321 76.1124 28.0147 77.0835 31.4738C78.0545 34.9329 80.2451 37.9234 83.2502 39.8925C86.2553 41.8616 89.8718 42.6761 93.4309 42.1855C96.99 41.6948 100.251 39.9321 102.611 37.2233C104.972 34.5145 106.271 31.0428 106.27 27.45H103.27C103.275 30.2733 102.275 33.0061 100.449 35.1595C98.623 37.3129 96.0904 38.7463 93.3044 39.2032C90.5183 39.6602 87.6605 39.1108 85.2425 37.6534C82.8244 36.1961 81.0039 33.9258 80.1066 31.2489C79.2093 28.572 79.2938 25.6632 80.345 23.0429C81.3962 20.4226 83.3455 18.2619 85.8441 16.9474C88.3427 15.6329 91.2275 15.2503 93.9824 15.8683C96.7372 16.4862 99.1823 18.0642 100.88 20.32L91.52 29.68L87.05 25.2Z" fill="#FF5F46"/>
</svg>
