<svg width="150" height="150" viewBox="0 0 150 150" fill="none" xmlns="http://www.w3.org/2000/svg">
<path d="M121 50.3C118.4 50.3 116.2 48.2 116.2 45.5V45.4C116.2 44.1 116.7 42.9 117.6 42C118.5 41.1 119.7 40.6 121 40.6H136.3L135.6 38.6C134.3 34.9 131.9 31.7 128.8 29.3C121.4 23.6 110.8 23.8 103.7 29.7C97.8 34.5 95.2 42.1 96.7 49.5C97.2 52 96.4 54.7 94.4 56.6L85.3 65.3L87.4 67.5L96.5 58.8C99.2 56.2 100.4 52.5 99.6 49C98.3 42.7 100.6 36.2 105.6 32.1C111.7 27.1 120.7 26.9 127 31.7C129.1 33.3 130.8 35.3 131.9 37.6H121C118.9 37.6 117 38.4 115.5 39.8C114 41.3 113.2 43.2 113.2 45.3V45.4C113.2 49.7 116.7 53.1 121 53.2H131.9C131.1 54.8 130 56.3 128.7 57.6C124.6 61.7 118.7 63.5 113 62.3C109.5 61.6 105.7 62.8 103.2 65.4L89.5 79.4L91.6 81.5L105.3 67.5C107.2 65.6 109.9 64.7 112.4 65.2C119.1 66.6 126 64.5 130.9 59.7C133 57.6 134.7 55 135.7 52.2L136.4 50.2L121 50.3Z" fill="#1B3139"/>
<path d="M46.7 123.7C45.6 124.8 44.1 125.5 42.6 125.5C41 125.5 39.5 124.9 38.4 123.8L38.3 123.7C37.2 122.6 36.6 121.1 36.6 119.5C36.6 117.9 37.2 116.5 38.4 115.4L60.2 94.2L58 92L36.2 113.2C34.5 114.9 33.5 117.1 33.5 119.5C33.5 121.9 34.4 124.1 36.1 125.8L36.2 125.9C37.9 127.6 40.1 128.5 42.5 128.5H42.6C45 128.5 47.2 127.5 48.9 125.8L75 98.9L72.8 96.8L46.7 123.7Z" fill="#1B3139"/>
<path d="M113.4 106.5L112.9 106.3H112.8C109 105.5 105.6 103.6 102.8 100.8L80.6 78.7L78.5 80.8L100.6 102.9C103.6 105.9 107.4 108.1 111.5 109.1L118.6 120.5L113.5 125.6L102.1 118.5C101.1 114.4 99 110.6 95.9 107.6L69.1 80.8L63.4 86.5L60.8 83.9C62.6 79.9 61.9 74.6 59 71L63.8 66.2C67.5 69 72.8 69.7 76.7 68L79.3 70.6L74 75.9L76.1 78L83.7 70.4L77.4 64.1L76.4 64.7C73.5 66.5 69.1 66 66.1 63.9L72.7 57.3L37.6 22.2C36.6 21.2 35.2 20.6 33.7 20.6C32.2 20.6 30.9 21.2 29.8 22.2L15.2 36.9C14.2 37.9 13.6 39.3 13.6 40.8C13.6 42.3 14.2 43.6 15.2 44.7L50.3 79.8L56.9 73.2C59 76.2 59.4 80.6 57.7 83.5L57.1 84.5L63.4 90.8L69.1 85.1L93.8 109.8C96.5 112.5 98.4 116 99.3 119.8L99.4 120.5L113.9 129.5L122.4 121L113.7 107.1L113.4 106.5ZM17.4 42.4C16.9 41.9 16.7 41.3 16.7 40.7C16.7 40.1 17 39.4 17.4 39L32 24.3C32.5 23.8 33.1 23.6 33.7 23.6C34.3 23.6 35 23.8 35.4 24.3L68.4 57.3L63.8 61.9L34.6 32.7L32.5 34.8L61.8 64.1L57.1 68.8L27.8 39.5L25.7 41.6L55 70.9L50.4 75.5L17.4 42.4Z" fill="#1B3139"/>
</svg>
