<svg width="150" height="150" viewBox="0 0 150 150" fill="none" xmlns="http://www.w3.org/2000/svg">
<path d="M121 50.2999C118.4 50.2999 116.2 48.1999 116.2 45.4999V45.3999C116.2 44.0999 116.7 42.8999 117.6 41.9999C118.5 41.0999 119.7 40.5999 121 40.5999H136.3L135.6 38.5999C134.3 34.8999 131.9 31.6999 128.8 29.2999C121.4 23.5999 110.8 23.7999 103.7 29.6999C97.7999 34.4999 95.1999 42.0999 96.6999 49.4999C97.1999 51.9999 96.3999 54.6999 94.3999 56.5999L85.2999 65.2999L87.3999 67.4999L96.4999 58.7999C99.1999 56.1999 100.4 52.4999 99.5999 48.9999C98.2999 42.6999 100.6 36.1999 105.6 32.0999C111.7 27.0999 120.7 26.8999 127 31.6999C129.1 33.2999 130.8 35.2999 131.9 37.5999H121C118.9 37.5999 117 38.3999 115.5 39.7999C114 41.2999 113.2 43.1999 113.2 45.2999V45.3999C113.2 49.6999 116.7 53.0999 121 53.1999H131.9C131.1 54.7999 130 56.2999 128.7 57.5999C124.6 61.6999 118.7 63.4999 113 62.2999C109.5 61.5999 105.7 62.7999 103.2 65.3999L89.4999 79.3999L91.5999 81.4999L105.3 67.4999C107.2 65.5999 109.9 64.6999 112.4 65.1999C119.1 66.5999 126 64.4999 130.9 59.6999C133 57.5999 134.7 54.9999 135.7 52.1999L136.4 50.1999L121 50.2999Z" fill="#FF5F46"/>
<path d="M46.7 123.7C45.6 124.8 44.1 125.5 42.6 125.5C41 125.5 39.5 124.9 38.4 123.8L38.3 123.7C37.2 122.6 36.6 121.1 36.6 119.5C36.6 117.9 37.2 116.5 38.4 115.4L60.2 94.2L58 92L36.2 113.2C34.5 114.9 33.5 117.1 33.5 119.5C33.5 121.9 34.4 124.1 36.1 125.8L36.2 125.9C37.9 127.6 40.1 128.5 42.5 128.5H42.6C45 128.5 47.2 127.5 48.9 125.8L75 98.9L72.8 96.8L46.7 123.7Z" fill="#FF5F46"/>
<path d="M113.4 106.5L112.9 106.3H112.8C109 105.5 105.6 103.6 102.8 100.8L80.6 78.7001L78.5 80.8001L100.6 102.9C103.6 105.9 107.4 108.1 111.5 109.1L118.6 120.5L113.5 125.6L102.1 118.5C101.1 114.4 99 110.6 95.9 107.6L69.1 80.8001L63.4 86.5001L60.8 83.9001C62.6 79.9001 61.9 74.6001 59 71.0001L63.8 66.2001C67.5 69.0001 72.8 69.7001 76.7 68.0001L79.3 70.6001L74 75.9001L76.1 78.0001L83.7 70.4001L77.4 64.1001L76.4 64.7001C73.5 66.5001 69.1 66.0001 66.1 63.9001L72.7 57.3001L37.6 22.2001C36.6 21.2001 35.2 20.6001 33.7 20.6001C32.2 20.6001 30.9 21.2001 29.8 22.2001L15.2 36.9001C14.2 37.9001 13.6 39.3001 13.6 40.8001C13.6 42.3001 14.2 43.6001 15.2 44.7001L50.3 79.8001L56.9 73.2001C59 76.2001 59.4 80.6001 57.7 83.5001L57.1 84.5001L63.4 90.8001L69.1 85.1001L93.8 109.8C96.5 112.5 98.4 116 99.3 119.8L99.4 120.5L113.9 129.5L122.4 121L113.7 107.1L113.4 106.5ZM17.4 42.4001C16.9 41.9001 16.7 41.3001 16.7 40.7001C16.7 40.1001 17 39.4001 17.4 39.0001L32 24.3001C32.5 23.8001 33.1 23.6001 33.7 23.6001C34.3 23.6001 35 23.8001 35.4 24.3001L68.4 57.3001L63.8 61.9001L34.6 32.7001L32.5 34.8001L61.8 64.1001L57.1 68.8001L27.8 39.5001L25.7 41.6001L55 70.9001L50.4 75.5001L17.4 42.4001Z" fill="#FF5F46"/>
</svg>
