<svg width="852" height="300" viewBox="0 0 852 300" fill="none" xmlns="http://www.w3.org/2000/svg">
<path d="M85.681 133.863C112.291 133.863 133.862 112.291 133.862 85.6813C133.862 59.0715 112.291 37.5 85.681 37.5C59.0714 37.5 37.5 59.0715 37.5 85.6813C37.5 112.291 59.0714 133.863 85.681 133.863Z" fill="#FABFBA"/>
<path d="M214.318 262.703C240.927 262.703 262.499 241.131 262.499 214.521C262.499 187.911 240.927 166.34 214.318 166.34C187.708 166.34 166.137 187.911 166.137 214.521C166.137 241.131 187.708 262.703 214.318 262.703Z" fill="#FABFBA"/>
<path d="M133.862 214.531C133.862 241.135 112.285 262.712 85.6811 262.712C59.0767 262.712 37.5 241.135 37.5 214.531C37.5 187.926 59.0767 166.349 85.6811 166.349H99.9259C136.376 166.349 165.913 136.812 165.913 100.362V85.9076C165.913 59.3031 187.49 37.7262 214.094 37.7262C240.698 37.7262 262.275 59.3031 262.275 85.9076C262.275 112.512 240.698 134.089 214.094 134.089H199.849C163.399 134.089 133.862 163.626 133.862 200.076V214.531Z" fill="#FF5F46"/>
<path d="M340.501 138V60.72H360.373C369.352 60.72 376.749 62.3024 382.563 65.4672C388.451 68.5584 392.794 73.0112 395.59 78.8256C398.461 84.5664 399.896 91.4848 399.896 99.5808C399.896 107.53 398.461 114.374 395.59 120.115C392.794 125.856 388.451 130.272 382.563 133.363C376.749 136.454 369.352 138 360.373 138H340.501ZM349.774 130.272H360.152C367.586 130.272 373.51 129.058 377.926 126.629C382.342 124.126 385.507 120.594 387.421 116.03C389.334 111.394 390.291 105.91 390.291 99.5808C390.291 93.104 389.334 87.5472 387.421 82.9104C385.507 78.2736 382.342 74.704 377.926 72.2016C373.51 69.6992 367.586 68.448 360.152 68.448H349.774V130.272ZM427.945 139.325C423.529 139.325 419.849 138.515 416.905 136.896C413.961 135.203 411.753 132.995 410.281 130.272C408.809 127.475 408.073 124.494 408.073 121.33C408.073 117.502 409.029 114.264 410.943 111.614C412.93 108.891 415.69 106.83 419.223 105.432C422.756 104.034 426.877 103.334 431.588 103.334H446.05C446.05 99.5808 445.609 96.4528 444.725 93.9504C443.842 91.448 442.407 89.5712 440.42 88.32C438.433 87.0688 435.783 86.4432 432.471 86.4432C429.159 86.4432 426.325 87.2896 423.97 88.9824C421.615 90.6016 420.143 93.0304 419.554 96.2688H410.06C410.501 92.4416 411.789 89.24 413.924 86.664C416.058 84.0144 418.745 82.0272 421.983 80.7024C425.295 79.304 428.791 78.6048 432.471 78.6048C437.697 78.6048 442.002 79.5616 445.388 81.4752C448.773 83.3152 451.276 85.928 452.895 89.3136C454.514 92.6256 455.324 96.5632 455.324 101.126V138H447.044L446.492 128.064C445.756 129.61 444.799 131.082 443.621 132.48C442.517 133.805 441.193 134.982 439.647 136.013C438.101 137.043 436.335 137.853 434.348 138.442C432.434 139.03 430.3 139.325 427.945 139.325ZM429.269 131.486C431.698 131.486 433.943 130.934 436.004 129.83C438.065 128.726 439.831 127.254 441.303 125.414C442.849 123.501 444.026 121.366 444.836 119.011C445.645 116.656 446.05 114.19 446.05 111.614V110.51H432.361C428.901 110.51 426.068 110.952 423.86 111.835C421.725 112.718 420.18 113.97 419.223 115.589C418.266 117.134 417.788 118.901 417.788 120.888C417.788 123.022 418.229 124.899 419.113 126.518C419.996 128.064 421.284 129.278 422.977 130.162C424.743 131.045 426.841 131.486 429.269 131.486ZM488.345 138C485.033 138 482.163 137.485 479.734 136.454C477.305 135.424 475.429 133.694 474.104 131.266C472.853 128.763 472.227 125.414 472.227 121.219V87.768H462.07V79.9296H472.227L473.441 65.4672H481.501V79.9296H497.95V87.768H481.501V121.219C481.501 124.678 482.2 127.034 483.598 128.285C484.997 129.462 487.462 130.051 490.995 130.051H497.729V138H488.345ZM525.467 139.325C521.051 139.325 517.371 138.515 514.427 136.896C511.483 135.203 509.275 132.995 507.803 130.272C506.331 127.475 505.595 124.494 505.595 121.33C505.595 117.502 506.552 114.264 508.466 111.614C510.453 108.891 513.213 106.83 516.746 105.432C520.279 104.034 524.4 103.334 529.111 103.334H543.573C543.573 99.5808 543.131 96.4528 542.248 93.9504C541.365 91.448 539.93 89.5712 537.943 88.32C535.955 87.0688 533.306 86.4432 529.994 86.4432C526.682 86.4432 523.848 87.2896 521.493 88.9824C519.138 90.6016 517.666 93.0304 517.077 96.2688H507.583C508.024 92.4416 509.312 89.24 511.447 86.664C513.581 84.0144 516.267 82.0272 519.506 80.7024C522.818 79.304 526.314 78.6048 529.994 78.6048C535.219 78.6048 539.525 79.5616 542.911 81.4752C546.296 83.3152 548.799 85.928 550.418 89.3136C552.037 92.6256 552.847 96.5632 552.847 101.126V138H544.567L544.015 128.064C543.279 129.61 542.322 131.082 541.144 132.48C540.04 133.805 538.715 134.982 537.17 136.013C535.624 137.043 533.858 137.853 531.871 138.442C529.957 139.03 527.823 139.325 525.467 139.325ZM526.792 131.486C529.221 131.486 531.466 130.934 533.527 129.83C535.587 128.726 537.354 127.254 538.826 125.414C540.371 123.501 541.549 121.366 542.359 119.011C543.168 116.656 543.573 114.19 543.573 111.614V110.51H529.883C526.424 110.51 523.591 110.952 521.383 111.835C519.248 112.718 517.703 113.97 516.746 115.589C515.789 117.134 515.311 118.901 515.311 120.888C515.311 123.022 515.752 124.899 516.635 126.518C517.519 128.064 518.807 129.278 520.499 130.162C522.266 131.045 524.363 131.486 526.792 131.486ZM593.781 139.325C590.248 139.325 587.194 138.81 584.618 137.779C582.115 136.675 579.981 135.314 578.214 133.694C576.522 132.075 575.123 130.493 574.019 128.947L573.246 138H564.856V58.512H574.13V89.0928C575.896 85.6336 578.509 83.0208 581.968 81.2544C585.427 79.488 589.291 78.6048 593.56 78.6048C598.859 78.6048 603.496 79.8928 607.47 82.4688C611.445 85.0448 614.536 88.6144 616.744 93.1776C618.952 97.6672 620.056 102.856 620.056 108.744C620.056 114.558 618.952 119.784 616.744 124.421C614.536 129.058 611.445 132.701 607.47 135.35C603.57 138 599.006 139.325 593.781 139.325ZM592.566 131.266C596.026 131.266 599.08 130.382 601.73 128.616C604.453 126.776 606.587 124.2 608.133 120.888C609.752 117.502 610.562 113.528 610.562 108.965C610.562 104.402 609.752 100.464 608.133 97.152C606.587 93.7664 604.453 91.1904 601.73 89.424C599.08 87.584 596.026 86.664 592.566 86.664C588.886 86.664 585.685 87.584 582.962 89.424C580.238 91.1904 578.141 93.7664 576.669 97.152C575.197 100.464 574.461 104.402 574.461 108.965C574.461 113.528 575.197 117.502 576.669 120.888C578.141 124.2 580.238 126.776 582.962 128.616C585.685 130.382 588.886 131.266 592.566 131.266ZM630.221 138V79.9296H638.611L639.273 90.528C640.598 87.8784 642.328 85.6704 644.462 83.904C646.597 82.1376 649.173 80.8128 652.19 79.9296C655.281 79.0464 658.741 78.6048 662.568 78.6048V88.32H656.827C654.619 88.32 652.485 88.6144 650.424 89.2032C648.363 89.792 646.486 90.7488 644.793 92.0736C643.174 93.3984 641.886 95.2016 640.929 97.4832C639.973 99.7648 639.494 102.635 639.494 106.094V138H630.221ZM670.809 138V79.9296H680.083V138H670.809ZM675.446 68.8896C673.606 68.8896 672.06 68.3008 670.809 67.1232C669.631 65.872 669.043 64.3264 669.043 62.4864C669.043 60.6464 669.631 59.1744 670.809 58.0704C672.06 56.8928 673.606 56.304 675.446 56.304C677.212 56.304 678.721 56.8928 679.972 58.0704C681.223 59.1744 681.849 60.6464 681.849 62.4864C681.849 64.3264 681.223 65.872 679.972 67.1232C678.721 68.3008 677.212 68.8896 675.446 68.8896ZM718.304 139.325C713.005 139.325 708.295 138.074 704.173 135.571C700.051 132.995 696.813 129.426 694.458 124.862C692.103 120.299 690.925 115 690.925 108.965C690.925 102.856 692.103 97.5568 694.458 93.0672C696.813 88.504 700.051 84.9712 704.173 82.4688C708.295 79.8928 713.005 78.6048 718.304 78.6048C724.928 78.6048 730.448 80.3712 734.864 83.904C739.354 87.4368 742.224 92.184 743.475 98.1456H733.981C733.171 94.4656 731.295 91.632 728.351 89.6448C725.48 87.584 722.095 86.5536 718.194 86.5536C714.808 86.5536 711.754 87.4 709.031 89.0928C706.381 90.7856 704.283 93.288 702.738 96.6C701.192 99.912 700.419 104.034 700.419 108.965C700.419 112.645 700.861 115.92 701.744 118.79C702.627 121.587 703.842 123.942 705.387 125.856C707.007 127.696 708.883 129.094 711.018 130.051C713.226 131.008 715.618 131.486 718.194 131.486C720.843 131.486 723.235 131.045 725.37 130.162C727.578 129.205 729.418 127.843 730.89 126.077C732.435 124.31 733.466 122.213 733.981 119.784H743.475C742.298 125.598 739.427 130.309 734.864 133.915C730.375 137.522 724.855 139.325 718.304 139.325ZM787.762 138L761.377 106.646L786.217 79.9296H797.588L769.215 109.958L769.325 103.334L799.575 138H787.762ZM753.649 138V58.512H762.922V138H753.649ZM823.817 139.325C818.592 139.325 814.249 138.552 810.79 137.006C807.405 135.387 804.829 133.179 803.062 130.382C801.296 127.512 800.229 124.2 799.861 120.446H809.355C809.649 122.434 810.312 124.274 811.342 125.966C812.446 127.586 814.029 128.91 816.089 129.941C818.15 130.971 820.763 131.486 823.928 131.486C826.43 131.486 828.565 131.118 830.331 130.382C832.097 129.573 833.422 128.469 834.305 127.07C835.262 125.672 835.741 124.053 835.741 122.213C835.741 119.784 835.189 117.907 834.085 116.582C833.054 115.184 831.509 114.154 829.448 113.491C827.461 112.755 824.958 112.203 821.941 111.835C818.702 111.394 815.832 110.768 813.329 109.958C810.827 109.149 808.693 108.082 806.926 106.757C805.233 105.432 803.945 103.776 803.062 101.789C802.179 99.8016 801.737 97.4464 801.737 94.7232C801.737 91.5584 802.584 88.7616 804.277 86.3328C805.969 83.904 808.361 82.0272 811.453 80.7024C814.617 79.304 818.334 78.6048 822.603 78.6048C828.859 78.6048 833.79 80.04 837.397 82.9104C841.077 85.7808 843.248 89.8656 843.91 95.1648H834.747C834.379 92.4416 833.128 90.3072 830.993 88.7616C828.859 87.216 826.025 86.4432 822.493 86.4432C818.739 86.4432 815.905 87.1424 813.992 88.5408C812.078 89.9392 811.121 91.7792 811.121 94.0608C811.121 95.7536 811.526 97.2992 812.336 98.6976C813.219 100.022 814.691 101.163 816.752 102.12C818.813 103.003 821.573 103.666 825.032 104.107C829.374 104.622 833.054 105.469 836.072 106.646C839.089 107.75 841.371 109.48 842.917 111.835C844.536 114.19 845.309 117.392 845.235 121.44C845.235 125.267 844.315 128.506 842.475 131.155C840.709 133.805 838.206 135.829 834.968 137.227C831.803 138.626 828.086 139.325 823.817 139.325ZM339.838 237V159.72H355.515L380.245 209.621L404.754 159.72H420.541V237H407.293V182.462L385.434 226.181H375.056L353.086 182.573V237H339.838ZM458.413 238.325C453.114 238.325 448.33 237.11 444.061 234.682C439.866 232.179 436.554 228.757 434.125 224.414C431.77 219.998 430.592 214.957 430.592 209.29C430.592 203.475 431.807 198.397 434.236 194.054C436.664 189.638 439.976 186.216 444.172 183.787C448.44 181.285 453.224 180.034 458.524 180.034C463.823 180.034 468.57 181.285 472.765 183.787C477.034 186.216 480.346 189.602 482.701 193.944C485.13 198.286 486.344 203.365 486.344 209.179C486.344 214.994 485.13 220.072 482.701 224.414C480.272 228.757 476.924 232.179 472.655 234.682C468.46 237.11 463.712 238.325 458.413 238.325ZM458.413 226.954C461.063 226.954 463.455 226.291 465.589 224.966C467.797 223.642 469.564 221.654 470.888 219.005C472.213 216.355 472.876 213.08 472.876 209.179C472.876 205.278 472.213 202.04 470.888 199.464C469.637 196.814 467.908 194.827 465.7 193.502C463.565 192.178 461.173 191.515 458.524 191.515C455.948 191.515 453.556 192.178 451.348 193.502C449.14 194.827 447.373 196.814 446.048 199.464C444.724 202.04 444.061 205.278 444.061 209.179C444.061 213.08 444.724 216.355 446.048 219.005C447.373 221.654 449.103 223.642 451.237 224.966C453.445 226.291 455.837 226.954 458.413 226.954ZM518.191 238.325C513.26 238.325 508.955 237.552 505.275 236.006C501.668 234.387 498.798 232.179 496.663 229.382C494.603 226.512 493.388 223.237 493.02 219.557H506.268C506.636 221.102 507.299 222.538 508.255 223.862C509.212 225.114 510.5 226.107 512.119 226.843C513.812 227.579 515.799 227.947 518.081 227.947C520.289 227.947 522.092 227.653 523.491 227.064C524.889 226.402 525.919 225.555 526.582 224.525C527.244 223.494 527.575 222.39 527.575 221.213C527.575 219.446 527.097 218.085 526.14 217.128C525.183 216.171 523.785 215.435 521.945 214.92C520.179 214.331 518.044 213.779 515.542 213.264C512.892 212.749 510.316 212.123 507.814 211.387C505.385 210.578 503.177 209.584 501.19 208.406C499.276 207.229 497.731 205.72 496.553 203.88C495.449 202.04 494.897 199.795 494.897 197.146C494.897 193.907 495.743 191 497.436 188.424C499.203 185.848 501.705 183.824 504.943 182.352C508.255 180.806 512.193 180.034 516.756 180.034C523.233 180.034 528.385 181.542 532.212 184.56C536.113 187.504 538.395 191.662 539.057 197.035H526.471C526.103 194.974 525.073 193.392 523.38 192.288C521.687 191.11 519.443 190.522 516.646 190.522C513.775 190.522 511.567 191.074 510.022 192.178C508.55 193.208 507.814 194.606 507.814 196.373C507.814 197.477 508.255 198.507 509.139 199.464C510.095 200.347 511.457 201.12 513.223 201.782C514.99 202.371 517.161 202.96 519.737 203.549C523.859 204.358 527.502 205.315 530.667 206.419C533.831 207.523 536.334 209.142 538.174 211.277C540.014 213.411 540.934 216.429 540.934 220.33C541.007 223.862 540.087 226.99 538.174 229.714C536.334 232.437 533.721 234.571 530.335 236.117C526.95 237.589 522.902 238.325 518.191 238.325ZM569.024 238.325C564.46 238.325 560.67 237.552 557.652 236.006C554.635 234.461 552.39 232.4 550.918 229.824C549.446 227.248 548.71 224.451 548.71 221.434C548.71 217.901 549.593 214.846 551.36 212.27C553.2 209.694 555.886 207.707 559.419 206.309C562.952 204.837 567.294 204.101 572.446 204.101H586.467C586.467 201.157 586.062 198.728 585.252 196.814C584.443 194.827 583.192 193.355 581.499 192.398C579.806 191.442 577.635 190.963 574.985 190.963C571.968 190.963 569.392 191.662 567.257 193.061C565.123 194.386 563.798 196.446 563.283 199.243H550.256C550.697 195.269 552.022 191.883 554.23 189.086C556.438 186.216 559.345 184.008 562.952 182.462C566.632 180.843 570.643 180.034 574.985 180.034C580.211 180.034 584.664 180.954 588.344 182.794C592.024 184.56 594.82 187.136 596.734 190.522C598.721 193.834 599.715 197.845 599.715 202.555V237H588.454L587.129 228.058C586.393 229.53 585.436 230.891 584.259 232.142C583.155 233.394 581.867 234.498 580.395 235.454C578.923 236.338 577.23 237.037 575.316 237.552C573.476 238.067 571.379 238.325 569.024 238.325ZM572.004 227.837C574.139 227.837 576.016 227.469 577.635 226.733C579.328 225.923 580.763 224.819 581.94 223.421C583.192 221.949 584.148 220.33 584.811 218.563C585.473 216.797 585.915 214.92 586.136 212.933V212.712H573.881C571.305 212.712 569.171 213.043 567.478 213.706C565.785 214.294 564.571 215.178 563.835 216.355C563.099 217.533 562.731 218.894 562.731 220.44C562.731 221.986 563.099 223.31 563.835 224.414C564.571 225.518 565.638 226.365 567.036 226.954C568.435 227.542 570.091 227.837 572.004 227.837ZM611.11 237V181.358H624.358V237H611.11ZM617.734 172.526C615.305 172.526 613.281 171.79 611.662 170.318C610.117 168.773 609.344 166.896 609.344 164.688C609.344 162.406 610.117 160.566 611.662 159.168C613.281 157.696 615.305 156.96 617.734 156.96C620.163 156.96 622.15 157.696 623.696 159.168C625.315 160.566 626.125 162.406 626.125 164.688C626.125 166.896 625.315 168.773 623.696 170.318C622.15 171.79 620.163 172.526 617.734 172.526ZM662.741 238.325C657.295 238.325 652.4 237.11 648.058 234.682C643.789 232.179 640.44 228.757 638.012 224.414C635.656 219.998 634.479 214.994 634.479 209.4C634.479 203.586 635.656 198.507 638.012 194.165C640.44 189.749 643.789 186.29 648.058 183.787C652.4 181.285 657.332 180.034 662.852 180.034C669.77 180.034 675.584 181.874 680.295 185.554C685.005 189.16 688.023 194.128 689.348 200.458H675.437C674.701 197.661 673.156 195.453 670.8 193.834C668.519 192.214 665.796 191.405 662.631 191.405C659.908 191.405 657.405 192.104 655.124 193.502C652.916 194.901 651.149 196.925 649.824 199.574C648.573 202.224 647.948 205.426 647.948 209.179C647.948 212.05 648.316 214.589 649.052 216.797C649.788 219.005 650.818 220.882 652.143 222.427C653.541 223.899 655.124 225.04 656.89 225.85C658.656 226.659 660.57 227.064 662.631 227.064C664.765 227.064 666.679 226.733 668.372 226.07C670.138 225.334 671.61 224.267 672.788 222.869C674.039 221.47 674.922 219.814 675.437 217.901H689.348C688.023 224.083 685.005 229.051 680.295 232.805C675.584 236.485 669.733 238.325 662.741 238.325ZM717.813 237L746.076 159.72H760.87L789.132 237H775.111L753.362 175.176L731.613 237H717.813ZM730.399 218.784L733.932 208.296H772.02L775.553 218.784H730.399ZM796.45 237V159.72H809.698V237H796.45Z" fill="white"/>
</svg>
