<svg width="1204" height="300" viewBox="0 0 1204 300" fill="none" xmlns="http://www.w3.org/2000/svg">
<path d="M262.462 37.5002L161.681 37.5002L161.681 121.875L262.462 121.875L262.462 37.5002Z" fill="#FABFBA"/>
<path d="M161.718 262.5L262.499 262.5L262.499 140.625L161.718 140.625L161.718 262.5Z" fill="#FF5F46"/>
<path d="M138.28 37.4999L37.4991 37.4999L37.4991 178.125L138.28 178.125L138.28 37.4999Z" fill="#FF5F46"/>
<path d="M37.539 262.5L138.32 262.5L138.32 198.047L37.5391 198.047L37.539 262.5Z" fill="#FABFBA"/>
<path d="M340.501 138V60.72H360.373C369.352 60.72 376.749 62.3024 382.563 65.4672C388.451 68.5584 392.794 73.0112 395.59 78.8256C398.461 84.5664 399.896 91.4848 399.896 99.5808C399.896 107.53 398.461 114.374 395.59 120.115C392.794 125.856 388.451 130.272 382.563 133.363C376.749 136.454 369.352 138 360.373 138H340.501ZM349.774 130.272H360.152C367.586 130.272 373.51 129.058 377.926 126.629C382.342 124.126 385.507 120.594 387.421 116.03C389.334 111.394 390.291 105.91 390.291 99.5808C390.291 93.104 389.334 87.5472 387.421 82.9104C385.507 78.2736 382.342 74.704 377.926 72.2016C373.51 69.6992 367.586 68.448 360.152 68.448H349.774V130.272ZM427.945 139.325C423.529 139.325 419.849 138.515 416.905 136.896C413.961 135.203 411.753 132.995 410.281 130.272C408.809 127.475 408.073 124.494 408.073 121.33C408.073 117.502 409.029 114.264 410.943 111.614C412.93 108.891 415.69 106.83 419.223 105.432C422.756 104.034 426.877 103.334 431.588 103.334H446.05C446.05 99.5808 445.609 96.4528 444.725 93.9504C443.842 91.448 442.407 89.5712 440.42 88.32C438.433 87.0688 435.783 86.4432 432.471 86.4432C429.159 86.4432 426.325 87.2896 423.97 88.9824C421.615 90.6016 420.143 93.0304 419.554 96.2688H410.06C410.501 92.4416 411.789 89.24 413.924 86.664C416.058 84.0144 418.745 82.0272 421.983 80.7024C425.295 79.304 428.791 78.6048 432.471 78.6048C437.697 78.6048 442.002 79.5616 445.388 81.4752C448.773 83.3152 451.276 85.928 452.895 89.3136C454.514 92.6256 455.324 96.5632 455.324 101.126V138H447.044L446.492 128.064C445.756 129.61 444.799 131.082 443.621 132.48C442.517 133.805 441.193 134.982 439.647 136.013C438.101 137.043 436.335 137.853 434.348 138.442C432.434 139.03 430.3 139.325 427.945 139.325ZM429.269 131.486C431.698 131.486 433.943 130.934 436.004 129.83C438.065 128.726 439.831 127.254 441.303 125.414C442.849 123.501 444.026 121.366 444.836 119.011C445.645 116.656 446.05 114.19 446.05 111.614V110.51H432.361C428.901 110.51 426.068 110.952 423.86 111.835C421.725 112.718 420.18 113.97 419.223 115.589C418.266 117.134 417.788 118.901 417.788 120.888C417.788 123.022 418.229 124.899 419.113 126.518C419.996 128.064 421.284 129.278 422.977 130.162C424.743 131.045 426.841 131.486 429.269 131.486ZM488.345 138C485.033 138 482.163 137.485 479.734 136.454C477.305 135.424 475.429 133.694 474.104 131.266C472.853 128.763 472.227 125.414 472.227 121.219V87.768H462.07V79.9296H472.227L473.441 65.4672H481.501V79.9296H497.95V87.768H481.501V121.219C481.501 124.678 482.2 127.034 483.598 128.285C484.997 129.462 487.462 130.051 490.995 130.051H497.729V138H488.345ZM525.467 139.325C521.051 139.325 517.371 138.515 514.427 136.896C511.483 135.203 509.275 132.995 507.803 130.272C506.331 127.475 505.595 124.494 505.595 121.33C505.595 117.502 506.552 114.264 508.466 111.614C510.453 108.891 513.213 106.83 516.746 105.432C520.279 104.034 524.4 103.334 529.111 103.334H543.573C543.573 99.5808 543.131 96.4528 542.248 93.9504C541.365 91.448 539.93 89.5712 537.943 88.32C535.955 87.0688 533.306 86.4432 529.994 86.4432C526.682 86.4432 523.848 87.2896 521.493 88.9824C519.138 90.6016 517.666 93.0304 517.077 96.2688H507.583C508.024 92.4416 509.312 89.24 511.447 86.664C513.581 84.0144 516.267 82.0272 519.506 80.7024C522.818 79.304 526.314 78.6048 529.994 78.6048C535.219 78.6048 539.525 79.5616 542.911 81.4752C546.296 83.3152 548.799 85.928 550.418 89.3136C552.037 92.6256 552.847 96.5632 552.847 101.126V138H544.567L544.015 128.064C543.279 129.61 542.322 131.082 541.144 132.48C540.04 133.805 538.715 134.982 537.17 136.013C535.624 137.043 533.858 137.853 531.871 138.442C529.957 139.03 527.823 139.325 525.467 139.325ZM526.792 131.486C529.221 131.486 531.466 130.934 533.527 129.83C535.587 128.726 537.354 127.254 538.826 125.414C540.371 123.501 541.549 121.366 542.359 119.011C543.168 116.656 543.573 114.19 543.573 111.614V110.51H529.883C526.424 110.51 523.591 110.952 521.383 111.835C519.248 112.718 517.703 113.97 516.746 115.589C515.789 117.134 515.311 118.901 515.311 120.888C515.311 123.022 515.752 124.899 516.635 126.518C517.519 128.064 518.807 129.278 520.499 130.162C522.266 131.045 524.363 131.486 526.792 131.486ZM593.781 139.325C590.248 139.325 587.194 138.81 584.618 137.779C582.115 136.675 579.981 135.314 578.214 133.694C576.522 132.075 575.123 130.493 574.019 128.947L573.246 138H564.856V58.512H574.13V89.0928C575.896 85.6336 578.509 83.0208 581.968 81.2544C585.427 79.488 589.291 78.6048 593.56 78.6048C598.859 78.6048 603.496 79.8928 607.47 82.4688C611.445 85.0448 614.536 88.6144 616.744 93.1776C618.952 97.6672 620.056 102.856 620.056 108.744C620.056 114.558 618.952 119.784 616.744 124.421C614.536 129.058 611.445 132.701 607.47 135.35C603.57 138 599.006 139.325 593.781 139.325ZM592.566 131.266C596.026 131.266 599.08 130.382 601.73 128.616C604.453 126.776 606.587 124.2 608.133 120.888C609.752 117.502 610.562 113.528 610.562 108.965C610.562 104.402 609.752 100.464 608.133 97.152C606.587 93.7664 604.453 91.1904 601.73 89.424C599.08 87.584 596.026 86.664 592.566 86.664C588.886 86.664 585.685 87.584 582.962 89.424C580.238 91.1904 578.141 93.7664 576.669 97.152C575.197 100.464 574.461 104.402 574.461 108.965C574.461 113.528 575.197 117.502 576.669 120.888C578.141 124.2 580.238 126.776 582.962 128.616C585.685 130.382 588.886 131.266 592.566 131.266ZM630.221 138V79.9296H638.611L639.273 90.528C640.598 87.8784 642.328 85.6704 644.462 83.904C646.597 82.1376 649.173 80.8128 652.19 79.9296C655.281 79.0464 658.741 78.6048 662.568 78.6048V88.32H656.827C654.619 88.32 652.485 88.6144 650.424 89.2032C648.363 89.792 646.486 90.7488 644.793 92.0736C643.174 93.3984 641.886 95.2016 640.929 97.4832C639.973 99.7648 639.494 102.635 639.494 106.094V138H630.221ZM670.809 138V79.9296H680.083V138H670.809ZM675.446 68.8896C673.606 68.8896 672.06 68.3008 670.809 67.1232C669.631 65.872 669.043 64.3264 669.043 62.4864C669.043 60.6464 669.631 59.1744 670.809 58.0704C672.06 56.8928 673.606 56.304 675.446 56.304C677.212 56.304 678.721 56.8928 679.972 58.0704C681.223 59.1744 681.849 60.6464 681.849 62.4864C681.849 64.3264 681.223 65.872 679.972 67.1232C678.721 68.3008 677.212 68.8896 675.446 68.8896ZM718.304 139.325C713.005 139.325 708.295 138.074 704.173 135.571C700.051 132.995 696.813 129.426 694.458 124.862C692.103 120.299 690.925 115 690.925 108.965C690.925 102.856 692.103 97.5568 694.458 93.0672C696.813 88.504 700.051 84.9712 704.173 82.4688C708.295 79.8928 713.005 78.6048 718.304 78.6048C724.928 78.6048 730.448 80.3712 734.864 83.904C739.354 87.4368 742.224 92.184 743.475 98.1456H733.981C733.171 94.4656 731.295 91.632 728.351 89.6448C725.48 87.584 722.095 86.5536 718.194 86.5536C714.808 86.5536 711.754 87.4 709.031 89.0928C706.381 90.7856 704.283 93.288 702.738 96.6C701.192 99.912 700.419 104.034 700.419 108.965C700.419 112.645 700.861 115.92 701.744 118.79C702.627 121.587 703.842 123.942 705.387 125.856C707.007 127.696 708.883 129.094 711.018 130.051C713.226 131.008 715.618 131.486 718.194 131.486C720.843 131.486 723.235 131.045 725.37 130.162C727.578 129.205 729.418 127.843 730.89 126.077C732.435 124.31 733.466 122.213 733.981 119.784H743.475C742.298 125.598 739.427 130.309 734.864 133.915C730.375 137.522 724.855 139.325 718.304 139.325ZM787.762 138L761.377 106.646L786.217 79.9296H797.588L769.215 109.958L769.325 103.334L799.575 138H787.762ZM753.649 138V58.512H762.922V138H753.649ZM823.817 139.325C818.592 139.325 814.249 138.552 810.79 137.006C807.405 135.387 804.829 133.179 803.062 130.382C801.296 127.512 800.229 124.2 799.861 120.446H809.355C809.649 122.434 810.312 124.274 811.342 125.966C812.446 127.586 814.029 128.91 816.089 129.941C818.15 130.971 820.763 131.486 823.928 131.486C826.43 131.486 828.565 131.118 830.331 130.382C832.097 129.573 833.422 128.469 834.305 127.07C835.262 125.672 835.741 124.053 835.741 122.213C835.741 119.784 835.189 117.907 834.085 116.582C833.054 115.184 831.509 114.154 829.448 113.491C827.461 112.755 824.958 112.203 821.941 111.835C818.702 111.394 815.832 110.768 813.329 109.958C810.827 109.149 808.693 108.082 806.926 106.757C805.233 105.432 803.945 103.776 803.062 101.789C802.179 99.8016 801.737 97.4464 801.737 94.7232C801.737 91.5584 802.584 88.7616 804.277 86.3328C805.969 83.904 808.361 82.0272 811.453 80.7024C814.617 79.304 818.334 78.6048 822.603 78.6048C828.859 78.6048 833.79 80.04 837.397 82.9104C841.077 85.7808 843.248 89.8656 843.91 95.1648H834.747C834.379 92.4416 833.128 90.3072 830.993 88.7616C828.859 87.216 826.025 86.4432 822.493 86.4432C818.739 86.4432 815.905 87.1424 813.992 88.5408C812.078 89.9392 811.121 91.7792 811.121 94.0608C811.121 95.7536 811.526 97.2992 812.336 98.6976C813.219 100.022 814.691 101.163 816.752 102.12C818.813 103.003 821.573 103.666 825.032 104.107C829.374 104.622 833.054 105.469 836.072 106.646C839.089 107.75 841.371 109.48 842.917 111.835C844.536 114.19 845.309 117.392 845.235 121.44C845.235 125.267 844.315 128.506 842.475 131.155C840.709 133.805 838.206 135.829 834.968 137.227C831.803 138.626 828.086 139.325 823.817 139.325ZM334.76 237L363.022 159.72H377.816L406.078 237H392.058L370.309 175.176L348.56 237H334.76ZM347.346 218.784L350.878 208.296H388.966L392.499 218.784H347.346ZM413.397 237V159.72H426.645V237H413.397ZM433.682 248.923L461.392 151.44H474.309L446.599 248.923H433.682ZM487.093 237V159.72H517.343C522.789 159.72 527.315 160.566 530.922 162.259C534.602 163.952 537.362 166.307 539.202 169.325C541.042 172.269 541.962 175.691 541.962 179.592C541.962 183.493 541.115 186.768 539.423 189.418C537.73 192.067 535.485 194.091 532.688 195.49C529.965 196.888 526.984 197.734 523.746 198.029L525.402 196.814C528.861 196.888 531.952 197.808 534.675 199.574C537.472 201.341 539.68 203.659 541.299 206.53C542.919 209.326 543.728 212.454 543.728 215.914C543.728 219.962 542.735 223.605 540.747 226.843C538.834 230.008 536 232.51 532.247 234.35C528.493 236.117 523.893 237 518.447 237H487.093ZM500.341 226.181H516.459C520.802 226.181 524.187 225.15 526.616 223.09C529.045 221.029 530.259 218.158 530.259 214.478C530.259 210.798 529.008 207.891 526.506 205.757C524.003 203.549 520.581 202.445 516.239 202.445H500.341V226.181ZM500.341 192.398H515.466C519.735 192.398 522.973 191.442 525.181 189.528C527.389 187.541 528.493 184.818 528.493 181.358C528.493 177.973 527.389 175.323 525.181 173.41C522.973 171.422 519.698 170.429 515.355 170.429H500.341V192.398ZM553.104 237V159.72H566.352V237H553.104ZM602.22 237V159.72H627.17C636.149 159.72 643.546 161.302 649.36 164.467C655.248 167.632 659.591 172.122 662.388 177.936C665.258 183.677 666.693 190.522 666.693 198.47C666.693 206.272 665.258 213.08 662.388 218.894C659.591 224.635 655.248 229.088 649.36 232.253C643.546 235.418 636.149 237 627.17 237H602.22ZM615.468 225.739H626.508C633.205 225.739 638.468 224.672 642.295 222.538C646.196 220.33 648.956 217.202 650.575 213.154C652.268 209.032 653.114 204.138 653.114 198.47C653.114 192.73 652.268 187.835 650.575 183.787C648.956 179.666 646.196 176.501 642.295 174.293C638.468 172.011 633.205 170.87 626.508 170.87H615.468V225.739ZM694.423 238.325C689.859 238.325 686.069 237.552 683.051 236.006C680.034 234.461 677.789 232.4 676.317 229.824C674.845 227.248 674.109 224.451 674.109 221.434C674.109 217.901 674.992 214.846 676.759 212.27C678.599 209.694 681.285 207.707 684.818 206.309C688.351 204.837 692.693 204.101 697.845 204.101H711.866C711.866 201.157 711.461 198.728 710.651 196.814C709.842 194.827 708.591 193.355 706.898 192.398C705.205 191.442 703.034 190.963 700.384 190.963C697.367 190.963 694.791 191.662 692.656 193.061C690.522 194.386 689.197 196.446 688.682 199.243H675.655C676.096 195.269 677.421 191.883 679.629 189.086C681.837 186.216 684.744 184.008 688.351 182.462C692.031 180.843 696.042 180.034 700.384 180.034C705.61 180.034 710.063 180.954 713.743 182.794C717.423 184.56 720.219 187.136 722.133 190.522C724.12 193.834 725.114 197.845 725.114 202.555V237H713.853L712.528 228.058C711.792 229.53 710.835 230.891 709.658 232.142C708.554 233.394 707.266 234.498 705.794 235.454C704.322 236.338 702.629 237.037 700.715 237.552C698.875 238.067 696.778 238.325 694.423 238.325ZM697.403 227.837C699.538 227.837 701.415 227.469 703.034 226.733C704.727 225.923 706.162 224.819 707.339 223.421C708.591 221.949 709.547 220.33 710.21 218.563C710.872 216.797 711.314 214.92 711.535 212.933V212.712H699.28C696.704 212.712 694.57 213.043 692.877 213.706C691.184 214.294 689.97 215.178 689.234 216.355C688.498 217.533 688.13 218.894 688.13 220.44C688.13 221.986 688.498 223.31 689.234 224.414C689.97 225.518 691.037 226.365 692.435 226.954C693.834 227.542 695.49 227.837 697.403 227.837ZM758.147 238.325C753.216 238.325 748.911 237.552 745.231 236.006C741.624 234.387 738.754 232.179 736.619 229.382C734.559 226.512 733.344 223.237 732.976 219.557H746.224C746.592 221.102 747.255 222.538 748.211 223.862C749.168 225.114 750.456 226.107 752.075 226.843C753.768 227.579 755.755 227.947 758.037 227.947C760.245 227.947 762.048 227.653 763.447 227.064C764.845 226.402 765.875 225.555 766.538 224.525C767.2 223.494 767.531 222.39 767.531 221.213C767.531 219.446 767.053 218.085 766.096 217.128C765.139 216.171 763.741 215.435 761.901 214.92C760.135 214.331 758 213.779 755.498 213.264C752.848 212.749 750.272 212.123 747.77 211.387C745.341 210.578 743.133 209.584 741.146 208.406C739.232 207.229 737.687 205.72 736.509 203.88C735.405 202.04 734.853 199.795 734.853 197.146C734.853 193.907 735.699 191 737.392 188.424C739.159 185.848 741.661 183.824 744.899 182.352C748.211 180.806 752.149 180.034 756.712 180.034C763.189 180.034 768.341 181.542 772.168 184.56C776.069 187.504 778.351 191.662 779.013 197.035H766.427C766.059 194.974 765.029 193.392 763.336 192.288C761.643 191.11 759.399 190.522 756.602 190.522C753.731 190.522 751.523 191.074 749.978 192.178C748.506 193.208 747.77 194.606 747.77 196.373C747.77 197.477 748.211 198.507 749.095 199.464C750.051 200.347 751.413 201.12 753.179 201.782C754.946 202.371 757.117 202.96 759.693 203.549C763.815 204.358 767.458 205.315 770.623 206.419C773.787 207.523 776.29 209.142 778.13 211.277C779.97 213.411 780.89 216.429 780.89 220.33C780.963 223.862 780.043 226.99 778.13 229.714C776.29 232.437 773.677 234.571 770.291 236.117C766.906 237.589 762.858 238.325 758.147 238.325ZM790.433 237V157.512H803.681V189.97C805.521 186.952 808.023 184.56 811.188 182.794C814.353 180.954 817.922 180.034 821.897 180.034C826.46 180.034 830.324 180.99 833.489 182.904C836.653 184.744 839.045 187.504 840.665 191.184C842.357 194.79 843.204 199.317 843.204 204.763V237H830.066V205.978C830.066 201.194 829.036 197.55 826.975 195.048C824.988 192.546 821.933 191.294 817.812 191.294C815.162 191.294 812.77 191.957 810.636 193.282C808.501 194.533 806.809 196.373 805.557 198.802C804.306 201.157 803.681 204.064 803.681 207.523V237H790.433ZM885.76 238.325C882.816 238.325 880.166 237.92 877.811 237.11C875.456 236.374 873.395 235.344 871.628 234.019C869.862 232.621 868.39 231.038 867.212 229.272L865.777 237H853.964V157.512H867.212V189.528C868.979 186.805 871.371 184.56 874.388 182.794C877.406 180.954 881.16 180.034 885.649 180.034C890.875 180.034 895.475 181.322 899.449 183.898C903.497 186.4 906.662 189.859 908.944 194.275C911.299 198.618 912.476 203.622 912.476 209.29C912.476 214.81 911.336 219.778 909.054 224.194C906.772 228.61 903.608 232.069 899.56 234.571C895.585 237.074 890.985 238.325 885.76 238.325ZM883 226.843C886.091 226.843 888.851 226.107 891.28 224.635C893.708 223.09 895.585 221.029 896.91 218.453C898.308 215.803 899.008 212.712 899.008 209.179C899.008 205.72 898.308 202.666 896.91 200.016C895.585 197.366 893.708 195.306 891.28 193.834C888.851 192.362 886.091 191.626 883 191.626C879.835 191.626 877.038 192.362 874.609 193.834C872.254 195.306 870.377 197.366 868.979 200.016C867.654 202.666 866.992 205.72 866.992 209.179C866.992 212.712 867.654 215.803 868.979 218.453C870.377 221.029 872.254 223.09 874.609 224.635C877.038 226.107 879.835 226.843 883 226.843ZM947.968 238.325C942.669 238.325 937.885 237.11 933.616 234.682C929.421 232.179 926.109 228.757 923.68 224.414C921.325 219.998 920.147 214.957 920.147 209.29C920.147 203.475 921.362 198.397 923.791 194.054C926.219 189.638 929.531 186.216 933.727 183.787C937.995 181.285 942.779 180.034 948.079 180.034C953.378 180.034 958.125 181.285 962.32 183.787C966.589 186.216 969.901 189.602 972.256 193.944C974.685 198.286 975.899 203.365 975.899 209.179C975.899 214.994 974.685 220.072 972.256 224.414C969.827 228.757 966.479 232.179 962.21 234.682C958.015 237.11 953.267 238.325 947.968 238.325ZM947.968 226.954C950.618 226.954 953.01 226.291 955.144 224.966C957.352 223.642 959.119 221.654 960.443 219.005C961.768 216.355 962.431 213.08 962.431 209.179C962.431 205.278 961.768 202.04 960.443 199.464C959.192 196.814 957.463 194.827 955.255 193.502C953.12 192.178 950.728 191.515 948.079 191.515C945.503 191.515 943.111 192.178 940.903 193.502C938.695 194.827 936.928 196.814 935.603 199.464C934.279 202.04 933.616 205.278 933.616 209.179C933.616 213.08 934.279 216.355 935.603 219.005C936.928 221.654 938.658 223.642 940.792 224.966C943 226.291 945.392 226.954 947.968 226.954ZM1004.1 238.325C999.54 238.325 995.75 237.552 992.732 236.006C989.714 234.461 987.47 232.4 985.998 229.824C984.526 227.248 983.79 224.451 983.79 221.434C983.79 217.901 984.673 214.846 986.439 212.27C988.279 209.694 990.966 207.707 994.498 206.309C998.031 204.837 1002.37 204.101 1007.53 204.101H1021.55C1021.55 201.157 1021.14 198.728 1020.33 196.814C1019.52 194.827 1018.27 193.355 1016.58 192.398C1014.89 191.442 1012.71 190.963 1010.06 190.963C1007.05 190.963 1004.47 191.662 1002.34 193.061C1000.2 194.386 998.878 196.446 998.362 199.243H985.335C985.777 195.269 987.102 191.883 989.31 189.086C991.518 186.216 994.425 184.008 998.031 182.462C1001.71 180.843 1005.72 180.034 1010.06 180.034C1015.29 180.034 1019.74 180.954 1023.42 182.794C1027.1 184.56 1029.9 187.136 1031.81 190.522C1033.8 193.834 1034.79 197.845 1034.79 202.555V237H1023.53L1022.21 228.058C1021.47 229.53 1020.52 230.891 1019.34 232.142C1018.23 233.394 1016.95 234.498 1015.47 235.454C1014 236.338 1012.31 237.037 1010.4 237.552C1008.56 238.067 1006.46 238.325 1004.1 238.325ZM1007.08 227.837C1009.22 227.837 1011.1 227.469 1012.71 226.733C1014.41 225.923 1015.84 224.819 1017.02 223.421C1018.27 221.949 1019.23 220.33 1019.89 218.563C1020.55 216.797 1020.99 214.92 1021.22 212.933V212.712H1008.96C1006.38 212.712 1004.25 213.043 1002.56 213.706C1000.86 214.294 999.65 215.178 998.914 216.355C998.178 217.533 997.81 218.894 997.81 220.44C997.81 221.986 998.178 223.31 998.914 224.414C999.65 225.518 1000.72 226.365 1002.12 226.954C1003.51 227.542 1005.17 227.837 1007.08 227.837ZM1045.64 237V181.358H1057.45L1058.66 191.736C1059.99 189.307 1061.65 187.246 1063.63 185.554C1065.62 183.787 1067.94 182.426 1070.59 181.469C1073.31 180.512 1076.29 180.034 1079.53 180.034V194.054H1074.89C1072.69 194.054 1070.59 194.349 1068.6 194.938C1066.61 195.453 1064.88 196.336 1063.41 197.587C1062.01 198.765 1060.91 200.421 1060.1 202.555C1059.29 204.616 1058.89 207.229 1058.89 210.394V237H1045.64ZM1109.75 238.325C1104.6 238.325 1100 237.074 1095.95 234.571C1091.9 232.069 1088.74 228.61 1086.45 224.194C1084.25 219.778 1083.14 214.773 1083.14 209.179C1083.14 203.586 1084.28 198.618 1086.57 194.275C1088.85 189.859 1092.01 186.4 1096.06 183.898C1100.18 181.322 1104.82 180.034 1109.97 180.034C1114.17 180.034 1117.81 180.843 1120.9 182.462C1124.06 184.008 1126.57 186.216 1128.41 189.086V157.512H1141.65V237H1129.73L1128.41 228.941C1127.23 230.56 1125.79 232.106 1124.1 233.578C1122.41 234.976 1120.38 236.117 1118.03 237C1115.67 237.883 1112.91 238.325 1109.75 238.325ZM1112.51 226.843C1115.67 226.843 1118.47 226.107 1120.9 224.635C1123.33 223.09 1125.21 220.992 1126.53 218.342C1127.85 215.693 1128.52 212.638 1128.52 209.179C1128.52 205.72 1127.85 202.666 1126.53 200.016C1125.21 197.366 1123.33 195.306 1120.9 193.834C1118.47 192.362 1115.67 191.626 1112.51 191.626C1109.49 191.626 1106.77 192.362 1104.34 193.834C1101.91 195.306 1100 197.366 1098.6 200.016C1097.27 202.666 1096.61 205.72 1096.61 209.179C1096.61 212.638 1097.27 215.693 1098.6 218.342C1100 220.992 1101.91 223.09 1104.34 224.635C1106.77 226.107 1109.49 226.843 1112.51 226.843ZM1175.27 238.325C1170.34 238.325 1166.03 237.552 1162.35 236.006C1158.75 234.387 1155.88 232.179 1153.74 229.382C1151.68 226.512 1150.47 223.237 1150.1 219.557H1163.35C1163.71 221.102 1164.38 222.538 1165.33 223.862C1166.29 225.114 1167.58 226.107 1169.2 226.843C1170.89 227.579 1172.88 227.947 1175.16 227.947C1177.37 227.947 1179.17 227.653 1180.57 227.064C1181.97 226.402 1183 225.555 1183.66 224.525C1184.32 223.494 1184.65 222.39 1184.65 221.213C1184.65 219.446 1184.18 218.085 1183.22 217.128C1182.26 216.171 1180.86 215.435 1179.02 214.92C1177.26 214.331 1175.12 213.779 1172.62 213.264C1169.97 212.749 1167.39 212.123 1164.89 211.387C1162.46 210.578 1160.26 209.584 1158.27 208.406C1156.35 207.229 1154.81 205.72 1153.63 203.88C1152.53 202.04 1151.98 199.795 1151.98 197.146C1151.98 193.907 1152.82 191 1154.51 188.424C1156.28 185.848 1158.78 183.824 1162.02 182.352C1165.33 180.806 1169.27 180.034 1173.83 180.034C1180.31 180.034 1185.46 181.542 1189.29 184.56C1193.19 187.504 1195.47 191.662 1196.14 197.035H1183.55C1183.18 194.974 1182.15 193.392 1180.46 192.288C1178.77 191.11 1176.52 190.522 1173.72 190.522C1170.85 190.522 1168.65 191.074 1167.1 192.178C1165.63 193.208 1164.89 194.606 1164.89 196.373C1164.89 197.477 1165.33 198.507 1166.22 199.464C1167.17 200.347 1168.54 201.12 1170.3 201.782C1172.07 202.371 1174.24 202.96 1176.82 203.549C1180.94 204.358 1184.58 205.315 1187.74 206.419C1190.91 207.523 1193.41 209.142 1195.25 211.277C1197.09 213.411 1198.01 216.429 1198.01 220.33C1198.09 223.862 1197.17 226.99 1195.25 229.714C1193.41 232.437 1190.8 234.571 1187.41 236.117C1184.03 237.589 1179.98 238.325 1175.27 238.325Z" fill="#1B3139"/>
</svg>
