<svg width="150" height="150" viewBox="0 0 150 150" fill="none" xmlns="http://www.w3.org/2000/svg">
<path d="M75 90.9199C71.5008 90.9179 68.0797 91.9538 65.1692 93.8964C62.2588 95.839 59.9899 98.6011 58.6494 101.833C57.309 105.066 56.9572 108.623 57.6387 112.055C58.3201 115.487 60.0041 118.64 62.4777 121.115C64.9513 123.59 68.1034 125.276 71.5352 125.959C74.967 126.643 78.5243 126.293 81.7573 124.954C84.9904 123.616 87.7537 121.348 89.698 118.439C91.6422 115.53 92.68 112.109 92.68 108.61C92.6747 103.922 90.8106 99.4267 87.4964 96.1106C84.1822 92.7945 79.6883 90.9279 75 90.9199V90.9199ZM75 123.29C72.0937 123.292 69.2522 122.432 66.8349 120.818C64.4176 119.205 62.5332 116.911 61.4201 114.226C60.307 111.542 60.0153 108.587 60.5818 105.737C61.1483 102.886 62.5476 100.268 64.6026 98.2125C66.6576 96.1575 69.2761 94.7582 72.1266 94.1917C74.9771 93.6252 77.9316 93.917 80.6162 95.0301C83.3009 96.1431 85.5951 98.0275 87.2085 100.445C88.8218 102.862 89.682 105.704 89.68 108.61C89.6747 112.502 88.1264 116.233 85.3745 118.984C82.6226 121.736 78.8917 123.285 75 123.29V123.29Z" fill="white"/>
<path d="M86.32 82H66.88V66C66.8799 63.8886 67.7146 61.8628 69.2019 60.3643C70.6892 58.8657 72.7087 58.0158 74.82 58H75.17C77.271 58.0157 79.2814 58.8573 80.7671 60.3429C82.2527 61.8286 83.0943 63.839 83.11 65.94V76.75H86.11V65.9C86.0838 63.0103 84.9215 60.2471 82.8744 58.2074C80.8273 56.1678 78.0597 55.0156 75.17 55H74.82C71.9303 55.0156 69.1628 56.1678 67.1156 58.2074C65.0685 60.2471 63.9062 63.0103 63.88 65.9V85H86.32V82Z" fill="white"/>
<path d="M75.19 44.6599H74.8C69.301 44.6652 64.0288 46.852 60.1404 50.7404C56.2521 54.6287 54.0653 59.9009 54.06 65.3999V81.9999H49.93C48.3387 81.9999 46.8126 82.6321 45.6874 83.7573C44.5621 84.8825 43.93 86.4086 43.93 87.9999V129.4C43.93 130.991 44.5621 132.517 45.6874 133.643C46.8126 134.768 48.3387 135.4 49.93 135.4H100.06C101.651 135.4 103.177 134.768 104.303 133.643C105.428 132.517 106.06 130.991 106.06 129.4V87.9099C106.06 86.3186 105.428 84.7925 104.303 83.6673C103.177 82.5421 101.651 81.9099 100.06 81.9099H95.94V65.3999C95.9321 59.9 93.743 54.6278 89.8531 50.7398C85.9631 46.8517 80.6899 44.6652 75.19 44.6599V44.6599ZM100.06 84.9999C100.856 84.9999 101.619 85.316 102.181 85.8786C102.744 86.4412 103.06 87.2043 103.06 87.9999V129.3C103.06 130.096 102.744 130.859 102.181 131.421C101.619 131.984 100.856 132.3 100.06 132.3H49.94C49.1443 132.3 48.3813 131.984 47.8187 131.421C47.2561 130.859 46.94 130.096 46.94 129.3V87.9099C46.94 87.1143 47.2561 86.3512 47.8187 85.7886C48.3813 85.226 49.1443 84.9099 49.94 84.9099H57.06V65.3999C57.0653 60.6966 58.936 56.1874 62.2618 52.8617C65.5875 49.5359 70.0967 47.6652 74.8 47.6599H75.19C79.895 47.6626 84.4068 49.5321 87.7347 52.8582C91.0626 56.1842 92.9347 60.6949 92.94 65.3999V84.9999H100.06Z" fill="white"/>
<path d="M32.83 85H37.1V82H32.83C28.5072 81.8938 24.3971 80.102 21.3772 77.007C18.3574 73.912 16.667 69.7592 16.667 65.435C16.667 61.1109 18.3574 56.958 21.3772 53.8631C24.3971 50.7681 28.5072 48.9762 32.83 48.87C34.6751 48.8656 36.5076 49.1732 38.25 49.78L39.1 50.1L41.1 50.9V48.7C41.0949 48.6134 41.0949 48.5266 41.1 48.44C41.432 40.8833 44.4194 33.6859 49.5362 28.1153C54.6531 22.5446 61.5713 18.9577 69.0727 17.9863C76.5741 17.0149 84.1777 18.7211 90.5447 22.8047C96.9118 26.8882 101.634 33.0871 103.88 40.31C101.255 41.48 98.8652 43.1203 96.83 45.15L99 47.26C100.88 45.3551 103.121 43.8436 105.592 42.8134C108.062 41.7833 110.713 41.2553 113.39 41.26C118.708 41.3779 123.768 43.5732 127.487 47.3758C131.206 51.1784 133.289 56.286 133.289 61.605C133.289 66.9241 131.206 72.0317 127.487 75.8343C123.768 79.6369 118.708 81.8321 113.39 81.95V84.95C116.744 84.9577 120.061 84.2425 123.114 82.8532C126.168 81.4638 128.886 79.4329 131.084 76.8987C133.281 74.3645 134.907 71.3865 135.851 68.1674C136.794 64.9484 137.033 61.5638 136.551 58.2441C136.069 54.9245 134.877 51.7477 133.057 48.93C131.237 46.1122 128.831 43.7198 126.003 41.9155C123.175 40.1112 119.992 38.9374 116.669 38.474C113.347 38.0106 109.964 38.2684 106.75 39.23C104.306 31.4949 99.261 24.8438 92.4707 20.406C85.6803 15.9681 77.5633 14.017 69.4978 14.8838C61.4323 15.7507 53.9154 19.3821 48.2231 25.1615C42.5309 30.941 39.0141 38.5123 38.27 46.59C35.5845 45.8355 32.7687 45.6639 30.0114 46.0865C27.2542 46.5092 24.6191 47.5164 22.2829 49.0407C19.9467 50.565 17.9634 52.5711 16.4659 54.9245C14.9684 57.278 13.9913 59.9244 13.6001 62.6863C13.2089 65.4482 13.4127 68.2618 14.1978 70.9385C14.9829 73.6153 16.3312 76.0932 18.1522 78.2063C19.9732 80.3193 22.225 82.0187 24.7564 83.1904C27.2879 84.3621 30.0406 84.9791 32.83 85V85Z" fill="white"/>
<path d="M75 100.3C73.3564 100.3 71.7498 100.787 70.3832 101.701C69.0166 102.614 67.9515 103.911 67.3226 105.43C66.6936 106.948 66.529 108.619 66.8497 110.231C67.1703 111.843 67.9618 113.324 69.1239 114.486C70.2861 115.648 71.7668 116.44 73.3788 116.76C74.9908 117.081 76.6616 116.916 78.1801 116.287C79.6986 115.659 80.9964 114.593 81.9095 113.227C82.8226 111.86 83.31 110.254 83.31 108.61C83.3074 106.407 82.431 104.295 80.8731 102.737C79.3153 101.179 77.2031 100.303 75 100.3V100.3ZM75 113.92C73.9498 113.92 72.9231 113.609 72.0499 113.025C71.1767 112.442 70.4961 111.612 70.0942 110.642C69.6923 109.672 69.5871 108.604 69.792 107.574C69.9969 106.544 70.5026 105.598 71.2453 104.855C71.9879 104.113 72.934 103.607 73.9641 103.402C74.9941 103.197 76.0618 103.302 77.0321 103.704C78.0023 104.106 78.8316 104.787 79.4151 105.66C79.9986 106.533 80.31 107.56 80.31 108.61C80.3074 110.018 79.7471 111.367 78.7518 112.362C77.7566 113.357 76.4075 113.917 75 113.92V113.92Z" fill="white"/>
</svg>
