<svg width="150" height="150" viewBox="0 0 150 150" fill="none" xmlns="http://www.w3.org/2000/svg">
<g clip-path="url(#clip0_1_2222)">
<path d="M68.96 117.38C46.14 116.47 28.51 110.51 28.51 103.28V85.22" stroke="white" stroke-width="3" stroke-miterlimit="3" stroke-linecap="square"/>
<path d="M28.51 122.08C28.51 129.93 49.33 136.3 75 136.3C100.67 136.3 121.49 129.94 121.49 122.08V103.28C121.49 110.51 103.86 116.47 81.04 117.38" stroke="white" stroke-width="3" stroke-miterlimit="3" stroke-linecap="square"/>
<path d="M41.55 66.4199V46.1099C41.55 27.6399 56.52 12.6599 75 12.6599C93.48 12.6599 108.45 27.6299 108.45 46.1099V66.4199" stroke="white" stroke-width="3" stroke-miterlimit="3" stroke-linecap="square"/>
<path d="M52.76 66.4201V46.1101C52.76 33.8301 62.72 23.8701 75 23.8701C87.28 23.8701 97.24 33.8301 97.24 46.1101V66.4201" stroke="white" stroke-width="3" stroke-miterlimit="3" stroke-linecap="square"/>
<path d="M96.6 53.83C90.15 52.79 82.8 52.21 75 52.21C67.2 52.21 59.95 52.79 53.52 53.81" stroke="white" stroke-width="3" stroke-miterlimit="3" stroke-linecap="square"/>
<path d="M121.49 66.4199C121.49 62.6599 116.72 59.24 108.93 56.7" stroke="white" stroke-width="3" stroke-miterlimit="3" stroke-linecap="square"/>
<path d="M121.49 85.22C121.49 93.07 100.67 99.44 75 99.44C49.33 99.44 28.51 93.08 28.51 85.22" stroke="white" stroke-width="3" stroke-miterlimit="3" stroke-linecap="square"/>
<path d="M121.49 85.22V66.42C121.49 74.27 100.67 80.64 75 80.64C49.33 80.64 28.51 74.28 28.51 66.42C28.51 62.67 33.26 59.26 41.01 56.72" stroke="white" stroke-width="3" stroke-miterlimit="3" stroke-linecap="square"/>
<path d="M75 108.36C79.9264 108.36 83.92 104.366 83.92 99.44C83.92 94.5136 79.9264 90.52 75 90.52C70.0736 90.52 66.08 94.5136 66.08 99.44C66.08 104.366 70.0736 108.36 75 108.36Z" fill="white" stroke="white" stroke-width="3" stroke-miterlimit="3" stroke-linecap="square"/>
<path d="M75 108.36V121.29" stroke="white" stroke-width="3" stroke-miterlimit="3" stroke-linecap="square"/>
</g>
<defs>
<clipPath id="clip0_1_2222">
<rect width="150" height="150" fill="white"/>
</clipPath>
</defs>
</svg>
