<svg width="150" height="150" viewBox="0 0 150 150" fill="none" xmlns="http://www.w3.org/2000/svg">
<path d="M65.83 75.29L63.71 77.42L72.31 86L94.18 64.14L93.49 63.14C90.8803 59.243 87.1166 56.2602 82.7264 54.6099C78.3362 52.9595 73.5396 52.7243 69.009 53.9371C64.4784 55.15 60.4409 57.7502 57.4624 61.3732C54.4839 64.9962 52.7137 69.4604 52.4 74.14H39.4C36.5845 74.0788 33.7852 74.5804 31.1661 75.6156C28.5471 76.6507 26.1612 78.1984 24.1483 80.168C22.1355 82.1375 20.5362 84.4893 19.4444 87.0851C18.3526 89.681 17.7902 92.4688 17.7902 95.285C17.7902 98.1012 18.3526 100.889 19.4444 103.485C20.5362 106.081 22.1355 108.432 24.1483 110.402C26.1612 112.372 28.5471 113.919 31.1661 114.954C33.7852 115.99 36.5845 116.491 39.4 116.43H126L119 123.43L121.12 125.55L131.75 114.93L121.12 104.31L119 106.35L126 113.35H39.39C36.9713 113.407 34.5657 112.979 32.3146 112.093C30.0635 111.207 28.0122 109.879 26.2815 108.189C24.5509 106.498 23.1756 104.479 22.2367 102.249C21.2977 100.019 20.814 97.6243 20.814 95.205C20.814 92.7857 21.2977 90.3907 22.2367 88.161C23.1756 85.9313 24.5509 83.9118 26.2815 82.2213C28.0122 80.5307 30.0635 79.2033 32.3146 78.3169C34.5657 77.4306 36.9713 77.0032 39.39 77.06H52.39C52.7513 82.7593 55.2701 88.107 59.434 92.0153C63.5979 95.9236 69.0943 98.099 74.805 98.099C80.5158 98.099 86.0121 95.9236 90.176 92.0153C94.3399 88.107 96.8587 82.7593 97.22 77.06H110C112.816 77.1212 115.615 76.6196 118.234 75.5844C120.853 74.5493 123.239 73.0016 125.252 71.032C127.265 69.0625 128.864 66.7108 129.956 64.1149C131.047 61.519 131.61 58.7312 131.61 55.915C131.61 53.0988 131.047 50.311 129.956 47.7151C128.864 45.1192 127.265 42.7675 125.252 40.798C123.239 38.8284 120.853 37.2807 118.234 36.2456C115.615 35.2104 112.816 34.7088 110 34.77H41.68C41.2988 31.8029 39.802 29.0923 37.494 27.1891C35.186 25.2859 32.2399 24.333 29.2545 24.524C26.2691 24.715 23.4684 26.0356 21.4218 28.2174C19.3751 30.3992 18.236 33.2785 18.236 36.27C18.236 39.2615 19.3751 42.1408 21.4218 44.3226C23.4684 46.5044 26.2691 47.825 29.2545 48.016C32.2399 48.207 35.186 47.2541 37.494 45.3509C39.802 43.4477 41.2988 40.7371 41.68 37.77H110C112.419 37.7132 114.824 38.1406 117.075 39.0269C119.327 39.9133 121.378 41.2407 123.109 42.9313C124.839 44.6218 126.214 46.6413 127.153 48.871C128.092 51.1007 128.576 53.4957 128.576 55.915C128.576 58.3343 128.092 60.7293 127.153 62.959C126.214 65.1887 124.839 67.2082 123.109 68.8987C121.378 70.5893 119.327 71.9167 117.075 72.8031C114.824 73.6894 112.419 74.1168 110 74.06H94.27V75.56C94.2713 80.1708 92.6345 84.6321 89.6516 88.1481C86.6687 91.664 82.5338 94.006 77.9844 94.7561C73.435 95.5063 68.7671 94.6158 64.8133 92.2436C60.8596 89.8715 57.8771 86.1718 56.398 81.8047C54.9189 77.4376 55.0393 72.687 56.7378 68.4005C58.4362 64.1139 61.6023 60.5701 65.6712 58.4013C69.74 56.2325 74.4471 55.5797 78.9526 56.5593C83.4581 57.539 87.4691 60.0874 90.27 63.75L72.27 81.75L65.83 75.29ZM30 45.07C28.2655 45.07 26.5699 44.5556 25.1277 43.592C23.6855 42.6283 22.5614 41.2586 21.8976 39.6561C21.2338 38.0536 21.0601 36.2903 21.3985 34.5891C21.7369 32.8878 22.5722 31.3252 23.7987 30.0987C25.0252 28.8722 26.5879 28.0369 28.2891 27.6985C29.9903 27.3601 31.7536 27.5338 33.3562 28.1976C34.9587 28.8614 36.3284 29.9854 37.292 31.4277C38.2557 32.8699 38.77 34.5655 38.77 36.3C38.7674 38.6251 37.8425 40.8543 36.1984 42.4984C34.5543 44.1425 32.3252 45.0674 30 45.07Z" fill="#FF5F46"/>
</svg>
