<svg width="150" height="150" viewBox="0 0 150 150" fill="none" xmlns="http://www.w3.org/2000/svg">
<path d="M108.5 125.4H41.5V91.5002H44.5V122.4H105.5V85.3002H96.6L93.8 79.0002L85.8 110.9L78.4 68.8002L72.1 98.5002L66.7 85.3002H61.6L57.6 75.4002L53.4 85.3002H41.5V38.7002H56.2V43.6002H93.8V38.7002H108.5V75.9002H105.5V41.7002H96.8V46.6002H53.2V41.7002H44.5V82.3002H51.4L57.7 67.5002L63.6 82.3002H68.7L71.2 88.3002L78.7 53.1002L86.3 96.5002L92.9 70.0002L98.5 82.3002H108.5V125.4Z" fill="#1B3139"/>
<path d="M108.4 133.9H33.1V35.3001C33.1 32.5001 35.4 30.2001 38.2 30.2001H53.3V29.2001C53.3 25.8001 56.1 23.0001 59.4 23.0001H66.7C67.4 19.1001 70.9 16.1001 75 16.1001C79.1 16.1001 82.6 19.1001 83.3 23.0001H90.6C94 23.0001 96.8 25.8001 96.8 29.2001V30.2001H111.8C114.6 30.2001 116.9 32.5001 116.9 35.3001V125.5H113.9V35.3001C113.9 34.1001 112.9 33.2001 111.8 33.2001H93.8V29.2001C93.8 27.5001 92.4 26.0001 90.6 26.0001H80.4V24.5001C80.4 21.5001 78 19.1001 75 19.1001C72 19.1001 69.6 21.5001 69.6 24.5001V26.0001H59.4C57.7 26.0001 56.3 27.4001 56.3 29.2001V33.2001H38.2C37 33.2001 36.1 34.2001 36.1 35.3001V130.9H108.5V133.9H108.4Z" fill="#1B3139"/>
</svg>
