<svg width="150" height="150" viewBox="0 0 150 150" fill="none" xmlns="http://www.w3.org/2000/svg">
<path d="M108.5 125.4H41.5V91.5H44.5V122.4H105.5V85.3H96.6L93.8 79L85.8 110.9L78.4 68.8L72.1 98.5L66.7 85.3H61.6L57.6 75.4L53.4 85.3H41.5V38.7H56.2V43.5999H93.8V38.7H108.5V75.9H105.5V41.7H96.8V46.5999H53.2V41.7H44.5V82.3H51.4L57.7 67.5L63.6 82.3H68.7L71.2 88.3L78.7 53.0999L86.3 96.5L92.9 70L98.5 82.3H108.5V125.4Z" fill="#FF5F46"/>
<path d="M108.4 133.9H33.1V35.3C33.1 32.5 35.4 30.2 38.2 30.2H53.3V29.2C53.3 25.8 56.1 23 59.4 23H66.7C67.4 19.1 70.9 16.1 75 16.1C79.1 16.1 82.6 19.1 83.3 23H90.6C94 23 96.8 25.8 96.8 29.2V30.2H111.8C114.6 30.2 116.9 32.5 116.9 35.3V125.5H113.9V35.3C113.9 34.1 112.9 33.2 111.8 33.2H93.8V29.2C93.8 27.5 92.4 26 90.6 26H80.4V24.5C80.4 21.5 78 19.1 75 19.1C72 19.1 69.6 21.5 69.6 24.5V26H59.4C57.7 26 56.3 27.4 56.3 29.2V33.2H38.2C37 33.2 36.1 34.2 36.1 35.3V130.9H108.5V133.9H108.4Z" fill="#FF5F46"/>
</svg>
