<svg width="150" height="150" viewBox="0 0 150 150" fill="none" xmlns="http://www.w3.org/2000/svg">
<path d="M125.97 93.0402C131.97 89.5402 136.01 83.0302 136.01 75.5702C136.01 64.4102 126.96 55.3602 115.8 55.3602H108.64C107.69 37.6002 93 23.4902 75 23.4902C57 23.4902 42.31 37.6002 41.36 55.3602H34.2C23.04 55.3602 13.99 64.4102 13.99 75.5702C13.99 86.7302 23.04 95.7802 34.2 95.7802H114.42" stroke="#1B3139" stroke-width="3" stroke-miterlimit="3" stroke-linecap="square"/>
<path d="M114.42 95.7801V79.5901H108.97" stroke="#1B3139" stroke-width="3" stroke-miterlimit="3" stroke-linecap="square"/>
<path d="M95.89 79.5901H35.58V95.7801" stroke="#1B3139" stroke-width="3" stroke-miterlimit="3" stroke-linecap="square"/>
<path d="M42.8 95.7803H114.42V111.97H77.05" stroke="#1B3139" stroke-width="3" stroke-miterlimit="3" stroke-linecap="square"/>
<path d="M63.8199 111.97H35.58" stroke="#1B3139" stroke-width="3" stroke-miterlimit="3" stroke-linecap="square"/>
<path d="M42.8 87.6902H44.2" stroke="#1B3139" stroke-width="3" stroke-miterlimit="3" stroke-linecap="square"/>
<path d="M52.61 87.6902H87.48" stroke="#1B3139" stroke-width="3" stroke-miterlimit="3" stroke-linecap="square"/>
<path d="M99.63 87.6902H103.36" stroke="#1B3139" stroke-width="3" stroke-miterlimit="3" stroke-linecap="square"/>
<path d="M42.8 103.88H44.2" stroke="#1B3139" stroke-width="3" stroke-miterlimit="3" stroke-linecap="square"/>
<path d="M52.61 103.88H71.29" stroke="#1B3139" stroke-width="3" stroke-miterlimit="3" stroke-linecap="square"/>
<path d="M83.28 103.88H103.36" stroke="#1B3139" stroke-width="3" stroke-miterlimit="3" stroke-linecap="square"/>
<path d="M110.06 66.9202L50.48 126.5" stroke="#1B3139" stroke-width="3" stroke-miterlimit="3" stroke-linecap="square"/>
</svg>
