<svg width="150" height="150" viewBox="0 0 150 150" fill="none" xmlns="http://www.w3.org/2000/svg">
<g clip-path="url(#clip0_1_2001)">
<path fill-rule="evenodd" clip-rule="evenodd" d="M118.69 89.9714C114.753 89.9755 110.877 90.9515 107.407 92.8128C103.938 94.6742 100.981 97.3632 98.8 100.641L84.27 92.2514C84.8172 90.8595 85.0436 89.3622 84.9324 87.8708C84.8212 86.3794 84.3753 84.9323 83.6277 83.637C82.8801 82.3417 81.8501 81.2316 80.6144 80.3892C79.3787 79.5468 77.9689 78.9938 76.49 78.7714V60.0514C81.9871 59.7007 87.1942 57.4613 91.2297 53.7121C95.2651 49.963 97.8811 44.9345 98.6346 39.478C99.3882 34.0215 98.233 28.4723 95.3647 23.7697C92.4964 19.0672 88.0912 15.5002 82.8949 13.6728C77.6986 11.8454 72.0304 11.8698 66.85 13.7418C61.6696 15.6139 57.2952 19.2186 54.4675 23.9456C51.6398 28.6727 50.5324 34.2317 51.3328 39.6815C52.1333 45.1313 54.7924 50.1371 58.86 53.8514L60.55 55.3914L61.29 53.2314C62.0018 51.0745 63.2618 49.1396 64.9465 47.6162C66.6311 46.0929 68.6826 45.0333 70.9 44.5414L71.9 44.3314C73.9228 43.9214 76.0072 43.9214 78.03 44.3314L79.03 44.5414C81.5453 45.0521 83.8386 46.3351 85.59 48.2114L87.77 46.1514C86.3261 44.62 84.5881 43.3955 82.66 42.5514C83.3198 41.7416 83.8681 40.8469 84.29 39.8914C85.4144 37.38 85.9349 34.6401 85.81 31.8914V31.8914C85.759 29.1328 84.6906 26.4903 82.81 24.4714C81.769 23.4654 80.5349 22.6809 79.1823 22.1653C77.8296 21.6497 76.3865 21.4136 74.94 21.4714C73.4935 21.4136 72.0504 21.6497 70.6977 22.1653C69.3451 22.6809 68.111 23.4654 67.07 24.4714C65.1894 26.4903 64.121 29.1328 64.07 31.8914C63.9451 34.6401 64.4656 37.38 65.59 39.8914C66.0119 40.8469 66.5602 41.7416 67.22 42.5514C63.7903 44.075 60.9974 46.7442 59.32 50.1014C55.8197 46.1691 53.9432 41.0543 54.07 35.7914C54.2337 30.3245 56.5358 25.1401 60.4816 21.3526C64.4274 17.5652 69.7017 15.4772 75.1707 15.5374C80.6397 15.5977 85.8667 17.8014 89.7281 21.6749C93.5894 25.5483 95.7768 30.7822 95.82 36.2514C95.8246 39.145 95.2248 42.0078 94.059 44.6562C92.8932 47.3047 91.1871 49.6804 89.05 51.6314V51.6314C85.2197 55.1643 80.2008 57.1276 74.99 57.1314H73.49V78.7714C72.0111 78.9938 70.6013 79.5468 69.3656 80.3892C68.1299 81.2316 67.0999 82.3417 66.3523 83.637C65.6047 84.9323 65.1588 86.3794 65.0476 87.8708C64.9364 89.3622 65.1628 90.8595 65.71 92.2514L51.19 100.641C48.0159 95.872 43.233 92.4027 37.7139 90.8663C32.1947 89.33 26.3072 89.829 21.1253 92.2724C15.9435 94.7158 11.8128 98.9407 9.48678 104.176C7.16077 109.412 6.79451 115.309 8.45481 120.792C10.1151 126.275 13.6913 130.979 18.531 134.045C23.3707 137.11 29.1512 138.334 34.8181 137.493C40.4849 136.651 45.6603 133.8 49.4001 129.46C53.1399 125.12 55.1949 119.58 55.19 113.851H52.19C52.1902 117.817 51.0596 121.7 48.9308 125.046C46.8019 128.391 43.7632 131.06 40.1711 132.74C36.5789 134.419 32.5822 135.04 28.6499 134.528C24.7177 134.017 21.0128 132.394 17.97 129.851C18.7718 127.91 20.0321 126.192 21.6431 124.844C23.254 123.496 25.1676 122.558 27.22 122.111V122.111C29.9189 121.561 32.7011 121.561 35.4 122.111C37.8648 122.615 40.118 123.856 41.86 125.671L44 123.571C42.5762 122.104 40.8771 120.932 39 120.121C39.6598 119.312 40.2081 118.417 40.63 117.461C41.7537 114.95 42.2742 112.21 42.15 109.461C42.099 106.703 41.0306 104.06 39.15 102.041C38.109 101.035 36.8749 100.251 35.5223 99.7353C34.1696 99.2197 32.7265 98.9836 31.28 99.0414C29.8335 98.9836 28.3904 99.2197 27.0377 99.7353C25.6851 100.251 24.451 101.035 23.41 102.041C21.5294 104.06 20.461 106.703 20.41 109.461V109.461C20.2858 112.21 20.8063 114.95 21.93 117.461C22.3542 118.416 22.9023 119.31 23.56 120.121C20.1329 121.644 17.3406 124.309 15.66 127.661C13.7308 125.477 12.2807 122.912 11.403 120.133C10.5253 117.353 10.2395 114.421 10.564 111.524C10.8885 108.628 11.8161 105.831 13.287 103.315C14.758 100.799 16.7397 98.6187 19.1045 96.9149C21.4693 95.2111 24.1647 94.0215 27.0172 93.4228C29.8697 92.8241 32.816 92.8295 35.6662 93.4387C38.5165 94.0479 41.2076 95.2474 43.5661 96.9598C45.9246 98.6723 47.8983 100.86 49.36 103.381L50.11 104.681L67.21 94.8514C68.1473 96.0121 69.3326 96.9484 70.6788 97.5917C72.025 98.2349 73.498 98.5687 74.99 98.5687C76.482 98.5687 77.955 98.2349 79.3012 97.5917C80.6474 96.9484 81.8326 96.0121 82.77 94.8514L99.86 104.711L100.61 103.411C102.416 100.286 104.999 97.6819 108.11 95.8514V95.8514C112.396 93.3298 117.441 92.4207 122.338 93.2876C127.234 94.1545 131.661 96.7405 134.82 100.58C137.98 104.42 139.666 109.261 139.574 114.233C139.482 119.205 137.619 123.981 134.32 127.701C132.63 124.35 129.836 121.684 126.41 120.151C127.068 119.34 127.616 118.446 128.04 117.491C129.164 114.98 129.684 112.24 129.56 109.491C129.509 106.733 128.441 104.09 126.56 102.071C124.397 100.132 121.595 99.0602 118.69 99.0602C115.785 99.0602 112.983 100.132 110.82 102.071C108.939 104.09 107.871 106.733 107.82 109.491C107.706 112.239 108.226 114.977 109.34 117.491C109.768 118.448 110.323 119.343 110.99 120.151C109.113 120.962 107.414 122.134 105.99 123.601L108.14 125.701C109.877 123.885 112.127 122.642 114.59 122.141C117.289 121.591 120.071 121.591 122.77 122.141V122.141C124.822 122.588 126.736 123.526 128.347 124.874C129.958 126.222 131.218 127.94 132.02 129.881C128.977 132.424 125.272 134.047 121.34 134.558C117.408 135.07 113.411 134.449 109.819 132.77C106.227 131.09 103.188 128.421 101.059 125.076C98.9304 121.73 97.7998 117.847 97.8 113.881H94.8C94.8035 118.513 96.1537 123.043 98.686 126.921C101.218 130.798 104.824 133.856 109.063 135.721C113.302 137.586 117.992 138.178 122.561 137.426C127.131 136.673 131.383 134.608 134.8 131.481V131.481C138.355 128.234 140.845 123.987 141.943 119.299C143.042 114.611 142.697 109.7 140.955 105.211C139.213 100.723 136.155 96.8652 132.181 94.1455C128.208 91.4258 123.505 89.9708 118.69 89.9714V89.9714ZM67.12 32.0514C67.1378 30.0302 67.8996 28.0864 69.26 26.5914C70.0216 25.8682 70.9223 25.3073 71.9073 24.9429C72.8923 24.5785 73.9411 24.418 74.99 24.4714C76.0382 24.4167 77.0866 24.5756 78.0716 24.9383C79.0565 25.301 79.9576 25.86 80.72 26.5814C82.0827 28.0789 82.8447 30.0267 82.86 32.0514C82.9547 34.3181 82.527 36.5763 81.61 38.6514C81.2679 39.4463 80.8022 40.1821 80.23 40.8314C79.9359 41.1988 79.539 41.4703 79.09 41.6114C76.3832 42.1502 73.5968 42.1502 70.89 41.6114C70.441 41.4703 70.0441 41.1988 69.75 40.8314C69.1778 40.1821 68.7121 39.4463 68.37 38.6514C67.453 36.5763 67.0253 34.3181 67.12 32.0514V32.0514ZM23.43 109.651C23.4478 107.63 24.2096 105.686 25.57 104.191C26.33 103.465 27.2299 102.9 28.2149 102.532C29.2 102.164 30.2497 102.001 31.3 102.051C32.343 102.005 33.3846 102.17 34.3624 102.536C35.3402 102.902 36.2339 103.461 36.99 104.181C38.3504 105.676 39.1122 107.62 39.13 109.641C39.2248 111.911 38.7971 114.173 37.88 116.251C37.5357 117.042 37.0701 117.774 36.5 118.421C36.2059 118.789 35.809 119.06 35.36 119.201C32.6532 119.74 29.8668 119.74 27.16 119.201V119.201C26.711 119.06 26.3141 118.789 26.02 118.421C25.4499 117.774 24.9843 117.042 24.64 116.251C23.7365 114.17 23.3226 111.908 23.43 109.641V109.651ZM74.99 95.5914C73.6055 95.5914 72.2521 95.1808 71.101 94.4117C69.9499 93.6425 69.0527 92.5492 68.5228 91.2702C67.993 89.9911 67.8544 88.5836 68.1245 87.2257C68.3946 85.8679 69.0613 84.6206 70.0402 83.6416C71.0192 82.6627 72.2665 81.996 73.6244 81.7259C74.9822 81.4558 76.3897 81.5944 77.6688 82.1242C78.9479 82.654 80.0411 83.5512 80.8103 84.7024C81.5795 85.8535 81.99 87.2069 81.99 88.5914C81.99 90.4479 81.2525 92.2284 79.9397 93.5411C78.627 94.8539 76.8465 95.5914 74.99 95.5914V95.5914ZM123.93 118.421C123.636 118.789 123.239 119.06 122.79 119.201L122.45 119.271C119.967 119.761 117.413 119.761 114.93 119.271L114.59 119.201C114.142 119.058 113.746 118.787 113.45 118.421C112.88 117.774 112.414 117.042 112.07 116.251C111.148 114.174 110.72 111.912 110.82 109.641C110.838 107.62 111.6 105.676 112.96 104.181C114.559 102.82 116.59 102.073 118.69 102.073C120.79 102.073 122.821 102.82 124.42 104.181C125.78 105.676 126.542 107.62 126.56 109.641C126.655 111.911 126.227 114.173 125.31 116.251C124.966 117.042 124.5 117.774 123.93 118.421V118.421Z" fill="white"/>
</g>
<defs>
<clipPath id="clip0_1_2001">
<rect width="150" height="150" fill="white"/>
</clipPath>
</defs>
</svg>
