<svg width="150" height="150" viewBox="0 0 150 150" fill="none" xmlns="http://www.w3.org/2000/svg">
<g clip-path="url(#clip0_214_416)">
<path fill-rule="evenodd" clip-rule="evenodd" d="M118.69 89.9716C114.753 89.9757 110.877 90.9517 107.407 92.813C103.938 94.6743 100.981 97.3634 98.8 100.642L84.27 92.2516C84.8172 90.8597 85.0436 89.3624 84.9324 87.871C84.8212 86.3796 84.3753 84.9324 83.6277 83.6372C82.8801 82.3419 81.8501 81.2318 80.6144 80.3894C79.3786 79.547 77.9689 78.994 76.49 78.7716V60.0516C81.9871 59.7009 87.1942 57.4615 91.2297 53.7123C95.2651 49.9632 97.8811 44.9347 98.6346 39.4782C99.3882 34.0217 98.233 28.4725 95.3647 23.7699C92.4964 19.0673 88.0912 15.5004 82.8949 13.673C77.6986 11.8456 72.0304 11.87 66.85 13.742C61.6696 15.6141 57.2952 19.2188 54.4675 23.9458C51.6398 28.6729 50.5324 34.2319 51.3328 39.6817C52.1333 45.1315 54.7924 50.1373 58.86 53.8516L60.55 55.3916L61.29 53.2316C62.0018 51.0747 63.2618 49.1398 64.9465 47.6164C66.6311 46.0931 68.6826 45.0335 70.9 44.5416L71.9 44.3316C73.9228 43.9216 76.0072 43.9216 78.03 44.3316L79.03 44.5416C81.5453 45.0523 83.8386 46.3353 85.59 48.2116L87.77 46.1516C86.3261 44.6201 84.5881 43.3957 82.66 42.5516C83.3198 41.7418 83.8681 40.8471 84.29 39.8916C85.4144 37.3802 85.9349 34.6403 85.81 31.8916C85.759 29.133 84.6906 26.4905 82.81 24.4716C81.769 23.4656 80.5349 22.6811 79.1823 22.1655C77.8296 21.6498 76.3865 21.4138 74.94 21.4716C73.4935 21.4138 72.0504 21.6498 70.6977 22.1655C69.3451 22.6811 68.111 23.4656 67.07 24.4716C65.1894 26.4905 64.121 29.133 64.07 31.8916C63.9451 34.6403 64.4656 37.3802 65.59 39.8916C66.0119 40.8471 66.5602 41.7418 67.22 42.5516C63.7903 44.0752 60.9974 46.7444 59.32 50.1016C55.8197 46.1693 53.9432 41.0545 54.07 35.7916C54.2337 30.3247 56.5358 25.1402 60.4816 21.3528C64.4274 17.5654 69.7017 15.4774 75.1707 15.5376C80.6397 15.5979 85.8667 17.8016 89.7281 21.675C93.5894 25.5485 95.7768 30.7824 95.82 36.2516C95.8246 39.1452 95.2248 42.008 94.059 44.6564C92.8932 47.3049 91.1871 49.6806 89.05 51.6316C85.2197 55.1645 80.2008 57.1278 74.99 57.1316H73.49V78.7716C72.0111 78.994 70.6013 79.547 69.3656 80.3894C68.1299 81.2318 67.0999 82.3419 66.3523 83.6372C65.6047 84.9324 65.1588 86.3796 65.0476 87.871C64.9364 89.3624 65.1628 90.8597 65.71 92.2516L51.19 100.642C48.0159 95.8722 43.233 92.4029 37.7139 90.8665C32.1947 89.3302 26.3072 89.8292 21.1253 92.2726C15.9435 94.716 11.8128 98.9408 9.48678 104.176C7.16077 109.412 6.79451 115.309 8.45481 120.792C10.1151 126.276 13.6913 130.979 18.531 134.045C23.3707 137.111 29.1512 138.334 34.8181 137.493C40.4849 136.651 45.6603 133.8 49.4001 129.46C53.1399 125.12 55.1949 119.581 55.19 113.852H52.19C52.1902 117.817 51.0596 121.7 48.9308 125.046C46.8019 128.391 43.7632 131.061 40.1711 132.74C36.5789 134.42 32.5822 135.04 28.6499 134.528C24.7177 134.017 21.0128 132.394 17.97 129.852C18.7718 127.91 20.0321 126.192 21.6431 124.844C23.254 123.496 25.1676 122.558 27.22 122.112C29.9189 121.561 32.7011 121.561 35.4 122.112C37.8648 122.615 40.118 123.857 41.86 125.672L44 123.572C42.5762 122.104 40.8771 120.932 39 120.122C39.6598 119.312 40.208 118.417 40.63 117.462C41.7537 114.95 42.2742 112.21 42.15 109.462C42.0989 106.703 41.0306 104.06 39.15 102.042C38.109 101.036 36.8749 100.251 35.5223 99.7355C34.1696 99.2198 32.7265 98.9838 31.28 99.0416C29.8335 98.9838 28.3904 99.2198 27.0377 99.7355C25.6851 100.251 24.451 101.036 23.41 102.042C21.5294 104.06 20.461 106.703 20.41 109.462C20.2858 112.21 20.8063 114.95 21.93 117.462C22.3542 118.416 22.9023 119.31 23.56 120.122C20.1329 121.644 17.3406 124.309 15.66 127.662C13.7308 125.477 12.2807 122.912 11.403 120.133C10.5253 117.353 10.2395 114.421 10.564 111.524C10.8885 108.628 11.8161 105.832 13.287 103.315C14.758 100.799 16.7397 98.6188 19.1045 96.9151C21.4693 95.2113 24.1647 94.0217 27.0172 93.423C29.8697 92.8243 32.816 92.8297 35.6662 93.4389C38.5165 94.0481 41.2076 95.2476 43.5661 96.96C45.9246 98.6725 47.8983 100.86 49.36 103.382L50.11 104.682L67.21 94.8516C68.1474 96.0123 69.3326 96.9486 70.6788 97.5918C72.0249 98.2351 73.498 98.5689 74.99 98.5689C76.482 98.5689 77.955 98.2351 79.3012 97.5918C80.6474 96.9486 81.8326 96.0123 82.77 94.8516L99.86 104.712L100.61 103.412C102.416 100.287 104.999 97.6821 108.11 95.8516C112.396 93.33 117.441 92.4209 122.338 93.2878C127.234 94.1547 131.661 96.7406 134.82 100.58C137.98 104.42 139.666 109.261 139.574 114.233C139.482 119.205 137.619 123.981 134.32 127.702C132.63 124.35 129.836 121.684 126.41 120.152C127.068 119.34 127.616 118.446 128.04 117.492C129.164 114.98 129.684 112.24 129.56 109.492C129.509 106.733 128.441 104.09 126.56 102.072C124.397 100.133 121.595 99.0603 118.69 99.0603C115.785 99.0603 112.983 100.133 110.82 102.072C108.939 104.09 107.871 106.733 107.82 109.492C107.706 112.24 108.226 114.977 109.34 117.492C109.768 118.448 110.323 119.343 110.99 120.152C109.113 120.962 107.414 122.134 105.99 123.602L108.14 125.702C109.877 123.885 112.127 122.643 114.59 122.142C117.289 121.591 120.071 121.591 122.77 122.142C124.822 122.588 126.736 123.526 128.347 124.874C129.958 126.222 131.218 127.94 132.02 129.882C128.977 132.424 125.272 134.047 121.34 134.558C117.408 135.07 113.411 134.45 109.819 132.77C106.227 131.091 103.188 128.421 101.059 125.076C98.9304 121.73 97.7998 117.847 97.8 113.882H94.8C94.8035 118.513 96.1537 123.043 98.686 126.921C101.218 130.798 104.824 133.856 109.063 135.721C113.302 137.586 117.992 138.179 122.561 137.426C127.131 136.673 131.383 134.608 134.8 131.482C138.355 128.234 140.845 123.987 141.943 119.299C143.042 114.611 142.697 109.7 140.955 105.212C139.213 100.723 136.155 96.8654 132.181 94.1457C128.208 91.426 123.505 89.971 118.69 89.9716ZM67.12 32.0516C67.1378 30.0303 67.8996 28.0865 69.26 26.5916C70.0216 25.8684 70.9223 25.3075 71.9073 24.9431C72.8923 24.5787 73.9411 24.4182 74.99 24.4716C76.0382 24.4169 77.0866 24.5757 78.0716 24.9385C79.0565 25.3012 79.9576 25.8602 80.72 26.5816C82.0827 28.0791 82.8447 30.0269 82.86 32.0516C82.9547 34.3183 82.527 36.5764 81.61 38.6516C81.2679 39.4465 80.8021 40.1823 80.23 40.8316C79.9359 41.199 79.539 41.4705 79.09 41.6116C76.3832 42.1504 73.5968 42.1504 70.89 41.6116C70.441 41.4705 70.0441 41.199 69.75 40.8316C69.1778 40.1823 68.7121 39.4465 68.37 38.6516C67.453 36.5764 67.0253 34.3183 67.12 32.0516ZM23.43 109.652C23.4478 107.63 24.2096 105.687 25.57 104.192C26.33 103.465 27.2299 102.9 28.2149 102.532C29.2 102.164 30.2497 102.001 31.3 102.052C32.343 102.005 33.3846 102.17 34.3624 102.536C35.3402 102.902 36.2339 103.462 36.99 104.182C38.3504 105.677 39.1122 107.62 39.13 109.642C39.2248 111.912 38.7971 114.173 37.88 116.252C37.5357 117.042 37.0701 117.774 36.5 118.422C36.2059 118.789 35.809 119.061 35.36 119.202C32.6532 119.74 29.8668 119.74 27.16 119.202C26.711 119.061 26.3141 118.789 26.02 118.422C25.4499 117.774 24.9843 117.042 24.64 116.252C23.7365 114.17 23.3226 111.908 23.43 109.642V109.652ZM74.99 95.5916C73.6055 95.5916 72.2521 95.181 71.101 94.4118C69.9499 93.6427 69.0527 92.5494 68.5228 91.2703C67.993 89.9913 67.8544 88.5838 68.1245 87.2259C68.3946 85.8681 69.0613 84.6208 70.0402 83.6418C71.0192 82.6628 72.2665 81.9962 73.6244 81.7261C74.9822 81.456 76.3897 81.5946 77.6688 82.1244C78.9479 82.6542 80.0411 83.5514 80.8103 84.7026C81.5795 85.8537 81.99 87.2071 81.99 88.5916C81.99 90.4481 81.2525 92.2286 79.9397 93.5413C78.627 94.8541 76.8465 95.5916 74.99 95.5916ZM123.93 118.422C123.636 118.789 123.239 119.061 122.79 119.202L122.45 119.272C119.967 119.762 117.413 119.762 114.93 119.272L114.59 119.202C114.142 119.058 113.746 118.787 113.45 118.422C112.88 117.774 112.414 117.042 112.07 116.252C111.148 114.174 110.72 111.912 110.82 109.642C110.838 107.62 111.6 105.677 112.96 104.182C114.559 102.82 116.59 102.073 118.69 102.073C120.79 102.073 122.821 102.82 124.42 104.182C125.78 105.677 126.542 107.62 126.56 109.642C126.655 111.912 126.227 114.173 125.31 116.252C124.966 117.042 124.5 117.774 123.93 118.422Z" fill="#FF5F46"/>
</g>
<defs>
<clipPath id="clip0_214_416">
<rect width="150" height="150" fill="white"/>
</clipPath>
</defs>
</svg>
