<svg width="150" height="150" viewBox="0 0 150 150" fill="none" xmlns="http://www.w3.org/2000/svg">
<path d="M18.26 102.29H67.72V99.29H21.26V22H128.74V99.29H73.5V114.51H51.5C49.4242 114.513 47.4341 115.338 45.9663 116.806C44.4985 118.274 43.6727 120.264 43.67 122.34V131H106.31V122.37C106.307 120.294 105.482 118.304 104.014 116.836C102.546 115.368 100.556 114.543 98.48 114.54H82.28V117.54H98.49C99.7702 117.543 100.997 118.052 101.902 118.958C102.808 119.863 103.317 121.09 103.32 122.37V128H46.68V122.37C46.6827 121.09 47.1924 119.863 48.0976 118.958C49.0028 118.052 50.2298 117.543 51.51 117.54H76.51V102.29H131.75V19H18.26V102.29Z" fill="#FF5F46"/>
<path d="M30.37 90.17H88.92V87.17H33.37V34.15H88.92V31.15H30.37V90.17Z" fill="#FF5F46"/>
<path d="M95.13 31.14V90.14H119.63V31.14H95.13ZM116.63 87.14H98.13V34.14H116.63V87.14Z" fill="#FF5F46"/>
<path d="M71.6601 63.48L60.03 53.54L48.76 74.07L40.7201 65.65L38.55 67.72L49.42 79.1L60.89 58.22L72.32 67.99L89.35 41.59L86.8301 39.96L71.6601 63.48Z" fill="#FF5F46"/>
</svg>
