<svg width="150" height="150" viewBox="0 0 150 150" fill="none" xmlns="http://www.w3.org/2000/svg">
<path d="M128.68 68.33L133.84 73.5H120.17C119.806 63.0334 115.827 53.016 108.91 45.1526C101.993 37.2891 92.5648 32.0653 82.23 30.37V33.37C91.767 35.0505 100.439 39.9516 106.798 47.2551C113.157 54.5586 116.818 63.8225 117.17 73.5H105.26C104.881 65.9951 101.729 58.8983 96.4152 53.5848C91.1017 48.2713 84.0049 45.1194 76.5 44.74V16.35L81.5 21.35L83.6 19.2L74.9 10.51L66.21 19.2L68.33 21.32L73.5 16.16V29.83C63.0339 30.1955 53.0176 34.175 45.1545 41.092C37.2914 48.0089 32.067 57.436 30.37 67.77H33.42C35.0951 58.2395 39.9879 49.5718 47.282 43.2131C54.576 36.8545 63.8301 33.1896 73.5 32.83V32.83V44.74C65.9951 45.1194 58.8983 48.2713 53.5848 53.5848C48.2712 58.8983 45.1194 65.9951 44.74 73.5H16.35L21.35 68.5L19.2 66.4L10.51 75.1L19.2 83.79L21.32 81.67L16.16 76.5H29.83C30.1992 86.9649 34.1801 96.9793 41.0963 104.842C48.0126 112.704 57.4376 117.929 67.77 119.63V116.63C58.2314 114.953 49.5574 110.053 43.1978 102.749C36.8382 95.4444 33.1784 86.1786 32.83 76.5H44.74C45.1194 84.0049 48.2712 91.1017 53.5848 96.4152C58.8983 101.729 65.9951 104.881 73.5 105.26V133.65L68.5 128.65L66.4 130.8L75.1 139.49L83.79 130.8L81.67 128.68L76.5 133.84V120.17C86.9649 119.801 96.9793 115.82 104.842 108.904C112.704 101.987 117.929 92.5624 119.63 82.23H116.63C114.948 91.7662 110.046 100.437 102.743 106.796C95.4399 113.154 86.1769 116.816 76.5 117.17V105.26C84.0049 104.881 91.1017 101.729 96.4152 96.4152C101.729 91.1017 104.881 84.0049 105.26 76.5H133.65L128.65 81.5L130.77 83.63L139.46 74.93L130.77 66.24L128.68 68.33ZM102.25 73.5H90.25C89.8991 69.9697 88.3385 66.6692 85.8326 64.1578C83.3267 61.6464 80.0296 60.0786 76.5 59.72V47.72C83.2135 48.0919 89.5536 50.9282 94.3053 55.6854C99.057 60.4427 101.886 66.7861 102.25 73.5V73.5ZM75 87.35C72.5574 87.35 70.1696 86.6257 68.1387 85.2687C66.1078 83.9116 64.5248 81.9828 63.5901 79.7262C62.6553 77.4695 62.4108 74.9863 62.8873 72.5906C63.3638 70.195 64.54 67.9944 66.2672 66.2672C67.9944 64.5401 70.195 63.3638 72.5906 62.8873C74.9863 62.4108 77.4695 62.6554 79.7261 63.5901C81.9828 64.5248 83.9116 66.1078 85.2686 68.1387C86.6257 70.1697 87.35 72.5574 87.35 75C87.3473 78.2746 86.0453 81.4144 83.7298 83.7299C81.4143 86.0454 78.2746 87.3474 75 87.35V87.35ZM73.5 47.75V59.75C69.9696 60.1009 66.6691 61.6615 64.1578 64.1674C61.6464 66.6733 60.0786 69.9704 59.72 73.5H47.72C48.0941 66.7873 50.9311 60.4484 55.6879 55.6971C60.4446 50.9459 66.7868 48.1162 73.5 47.75ZM73.5 102.25C66.7929 101.874 60.4592 99.041 55.7091 94.2909C50.959 89.5408 48.1255 83.2071 47.75 76.5H59.75C60.1009 80.0304 61.6615 83.3309 64.1674 85.8422C66.6733 88.3536 69.9704 89.9214 73.5 90.28V102.28V102.25ZM102.25 76.5C101.877 83.2079 99.0438 89.5428 94.2933 94.2933C89.5428 99.0438 83.2079 101.877 76.5 102.25V90.25C80.0303 89.8991 83.3308 88.3385 85.8422 85.8326C88.3536 83.3267 89.9214 80.0296 90.28 76.5H102.28H102.25Z" fill="#1B3139"/>
</svg>
