<svg width="150" height="150" viewBox="0 0 150 150" fill="none" xmlns="http://www.w3.org/2000/svg">
<path d="M128.68 68.3298L133.84 73.4998H120.17C119.806 63.0331 115.828 53.0158 108.91 45.1523C101.993 37.2888 92.5648 32.065 82.23 30.3698V33.3698C91.767 35.0502 100.439 39.9513 106.798 47.2549C113.157 54.5584 116.818 63.8223 117.17 73.4998H105.26C104.881 65.9949 101.729 58.8981 96.4152 53.5845C91.1017 48.271 84.0049 45.1192 76.5 44.7398V16.3498L81.5 21.3498L83.6 19.1998L74.9 10.5098L66.21 19.1998L68.33 21.3198L73.5 16.1598V29.8298C63.0339 30.1952 53.0176 34.1748 45.1545 41.0917C37.2914 48.0086 32.0671 57.4357 30.37 67.7698H33.42C35.0951 58.2393 39.9879 49.5715 47.282 43.2129C54.576 36.8543 63.8301 33.1894 73.5 32.8298V44.7398C65.9951 45.1192 58.8983 48.271 53.5848 53.5845C48.2713 58.8981 45.1194 65.9949 44.74 73.4998H16.35L21.35 68.4998L19.2 66.3998L10.51 75.0998L19.2 83.7898L21.32 81.6698L16.16 76.4998H29.83C30.1992 86.9647 34.1801 96.9791 41.0963 104.841C48.0126 112.704 57.4376 117.929 67.77 119.63V116.63C58.2314 114.953 49.5574 110.053 43.1978 102.748C36.8382 95.4442 33.1784 86.1784 32.83 76.4998H44.74C45.1194 84.0046 48.2713 91.1015 53.5848 96.415C58.8983 101.729 65.9951 104.88 73.5 105.26V133.65L68.5 128.65L66.4 130.8L75.1 139.49L83.79 130.8L81.67 128.68L76.5 133.84V120.17C86.9649 119.801 96.9793 115.82 104.842 108.903C112.704 101.987 117.929 92.5622 119.63 82.2298H116.63C114.948 91.7659 110.046 100.437 102.743 106.795C95.4399 113.154 86.177 116.816 76.5 117.17V105.26C84.0049 104.88 91.1017 101.729 96.4152 96.415C101.729 91.1015 104.881 84.0046 105.26 76.4998H133.65L128.65 81.4998L130.77 83.6298L139.46 74.9298L130.77 66.2398L128.68 68.3298ZM102.25 73.4998H90.25C89.8991 69.9694 88.3385 66.6689 85.8326 64.1575C83.3267 61.6462 80.0296 60.0784 76.5 59.7198V47.7198C83.2135 48.0917 89.5536 50.928 94.3053 55.6852C99.057 60.4424 101.886 66.7858 102.25 73.4998ZM75 87.3498C72.5574 87.3498 70.1697 86.6254 68.1387 85.2684C66.1078 83.9114 64.5248 81.9826 63.5901 79.7259C62.6554 77.4692 62.4108 74.9861 62.8873 72.5904C63.3638 70.1947 64.5401 67.9942 66.2672 66.267C67.9944 64.5398 70.195 63.3636 72.5906 62.8871C74.9863 62.4105 77.4695 62.6551 79.7262 63.5899C81.9828 64.5246 83.9116 66.1075 85.2687 68.1385C86.6257 70.1694 87.35 72.5572 87.35 74.9998C87.3474 78.2744 86.0453 81.4141 83.7299 83.7296C81.4144 86.0451 78.2746 87.3471 75 87.3498ZM73.5 47.7498V59.7498C69.9697 60.1007 66.6692 61.6613 64.1578 64.1672C61.6464 66.6731 60.0786 69.9702 59.72 73.4998H47.72C48.0941 66.787 50.9311 60.4481 55.6879 55.6969C60.4446 50.9457 66.7868 48.116 73.5 47.7498ZM73.5 102.25C66.7929 101.874 60.4592 99.0407 55.7091 94.2906C50.959 89.5406 48.1255 83.2069 47.75 76.4998H59.75C60.1009 80.0301 61.6615 83.3306 64.1674 85.842C66.6733 88.3534 69.9704 89.9212 73.5 90.2798V102.28V102.25ZM102.25 76.4998C101.877 83.2076 99.0438 89.5425 94.2933 94.2931C89.5428 99.0436 83.2079 101.876 76.5 102.25V90.2498C80.0304 89.8989 83.3308 88.3382 85.8422 85.8323C88.3536 83.3264 89.9214 80.0294 90.28 76.4998H102.28H102.25Z" fill="#FF5F46"/>
</svg>
