<svg width="150" height="150" viewBox="0 0 150 150" fill="none" xmlns="http://www.w3.org/2000/svg">
<path d="M24.17 103.76C24.17 111.11 30.17 117.32 37.36 117.32H50.61L45.7 122.22L47.82 124.35L56.35 115.82L47.82 107.29L45.7 109.41L50.61 114.32H37.36C34.6206 114.234 32.0229 113.082 30.1197 111.11C28.2166 109.138 27.1582 106.501 27.17 103.76V94.76C27.1779 92.0617 28.2547 89.4765 30.1646 87.5704C32.0744 85.6643 34.6617 84.5926 37.36 84.59H112.09C115.587 84.5847 118.938 83.1933 121.411 80.7209C123.883 78.2484 125.275 74.8966 125.28 71.4V56.4C125.28 49.05 119.28 42.84 112.09 42.84H88.67V45.84H112.09C114.829 45.9259 117.427 47.0776 119.33 49.0499C121.233 51.0221 122.292 53.6593 122.28 56.4V71.4C122.277 74.1017 121.203 76.6921 119.293 78.6025C117.382 80.5129 114.792 81.5873 112.09 81.59H37.36C33.8626 81.5926 30.5092 82.9831 28.0362 85.4562C25.5632 87.9292 24.1727 91.2826 24.17 94.78V103.76Z" fill="white"/>
<path d="M24.17 64.84C24.17 66.1458 24.688 67.3982 25.6104 68.3225C26.5328 69.2468 27.7842 69.7673 29.09 69.77V66.77C28.5799 66.7674 28.0915 66.5629 27.7317 66.2012C27.3719 65.8395 27.17 65.3501 27.17 64.84V55.76C27.1687 55.507 27.2174 55.2563 27.3133 55.0222C27.4092 54.7881 27.5504 54.5752 27.7288 54.3959C27.9072 54.2165 28.1193 54.0742 28.3529 53.9771C28.5865 53.88 28.837 53.83 29.09 53.83V50.83C28.5799 50.8274 28.0915 50.6229 27.7317 50.2612C27.3719 49.8995 27.17 49.4101 27.17 48.9V39.82C27.17 39.3099 27.3719 38.8205 27.7317 38.4588C28.0915 38.0971 28.5799 37.8926 29.09 37.89V34.89C28.5859 34.8901 28.1021 34.6919 27.7428 34.3383C27.3836 33.9847 27.1779 33.504 27.17 33V23.88C27.1805 23.3777 27.3873 22.8996 27.7463 22.5481C28.1052 22.1967 28.5876 21.9999 29.09 22H76.53C77.0401 22 77.5295 22.202 77.8912 22.5617C78.2528 22.9215 78.4573 23.4099 78.46 23.92V33C78.4573 33.5101 78.2528 33.9985 77.8912 34.3583C77.5295 34.718 77.0401 34.92 76.53 34.92H34.93V37.92H76.53C77.041 37.9226 77.5304 38.1268 77.8918 38.4882C78.2532 38.8496 78.4574 39.3389 78.46 39.85V48.9C78.4574 49.4111 78.2532 49.9004 77.8918 50.2618C77.5304 50.6232 77.041 50.8274 76.53 50.83H34.93V53.83H76.53C76.7834 53.83 77.0344 53.8799 77.2686 53.9769C77.5027 54.0739 77.7155 54.2161 77.8947 54.3953C78.0739 54.5745 78.2161 54.7873 78.3131 55.0214C78.4101 55.2556 78.46 55.5065 78.46 55.76V64.84C78.4574 65.3511 78.2532 65.8404 77.8918 66.2018C77.5304 66.5632 77.041 66.7674 76.53 66.77H33.93V69.77H76.53C77.8367 69.7674 79.0891 69.2471 80.0131 68.3231C80.9371 67.3991 81.4573 66.1467 81.46 64.84V55.76C81.4591 54.4777 80.9566 53.2467 80.06 52.33C80.9548 51.4122 81.457 50.1819 81.46 48.9V39.82C81.457 38.5381 80.9548 37.3078 80.06 36.39C80.947 35.4833 81.4487 34.2684 81.46 33V23.88C81.4442 22.582 80.9182 21.3423 79.9956 20.4291C79.073 19.5159 77.8281 19.0025 76.53 19H29.09C27.7859 19.0026 26.536 19.5218 25.6139 20.444C24.6918 21.3661 24.1726 22.6159 24.17 23.92V33C24.1697 34.2776 24.6685 35.5048 25.56 36.42C24.6679 37.3388 24.1693 38.5693 24.17 39.85V48.9C24.1693 50.1807 24.6679 51.4112 25.56 52.33C24.667 53.2483 24.1682 54.4791 24.17 55.76V64.84Z" fill="white"/>
<path d="M125.83 131.04V128.04H117.28V92.23H105.02V128.04H99.47V102.91H87.22V128.04H81.67V110.42H69.67V128.04H60.61V131.04H72.67V113.42H78.67V131.04H90.22V105.91H96.47V131.04H108.02V95.23H114.28V131.04H125.83Z" fill="white"/>
</svg>
