<svg width="150" height="150" viewBox="0 0 150 150" fill="none" xmlns="http://www.w3.org/2000/svg">
<g clip-path="url(#clip0_1_2192)">
<path d="M76.52 47.6201V105.14" stroke="white" stroke-width="3" stroke-miterlimit="3" stroke-linecap="square"/>
<path d="M37.5 85.92C36.75 82.85 36.35 79.64 36.35 76.34C36.35 54.13 54.36 36.12 76.57 36.12C91.63 36.12 104.75 44.39 111.64 56.64H69.71C64.32 56.64 59.95 61.01 59.95 66.4C59.95 71.79 64.32 76.16 69.71 76.16H83.01C88.4 76.16 92.77 80.53 92.77 85.92C92.77 91.31 88.4 95.68 83.01 95.68L41.2 95.51C48.01 108.05 61.29 116.56 76.57 116.56C91.85 116.56 105.12 108.05 111.94 95.51L131.67 95.68C128.87 103.69 124.27 111.21 117.87 117.61C95.1 140.38 58.19 140.38 35.42 117.61C12.65 94.84 12.65 57.93 35.42 35.16C58.19 12.39 95.1 12.39 117.87 35.16C124.15 41.44 128.7 48.8 131.51 56.64" stroke="white" stroke-width="3" stroke-miterlimit="3" stroke-linecap="square"/>
</g>
<defs>
<clipPath id="clip0_1_2192">
<rect width="150" height="150" fill="white"/>
</clipPath>
</defs>
</svg>
