<svg width="150" height="150" viewBox="0 0 150 150" fill="none" xmlns="http://www.w3.org/2000/svg">
<path fill-rule="evenodd" clip-rule="evenodd" d="M64.2437 57.73L74.8697 68.3651L85.5048 57.73L87.6262 59.8513L74.8688 72.6086L62.1215 59.8504L64.2437 57.73Z" fill="#FF5F46"/>
<path fill-rule="evenodd" clip-rule="evenodd" d="M74.8688 77.6543L87.6262 90.4116L85.5048 92.5329L74.8697 81.8978L64.2437 92.5329L62.1215 90.4125L74.8688 77.6543Z" fill="#FF5F46"/>
<path fill-rule="evenodd" clip-rule="evenodd" d="M20.5533 41.0649H41.96V44.0649H23.5533V104.734C23.5533 116.727 33.2733 126.447 45.2672 126.447H99.9811V44.0649H76.3786V71.0559H73.3786V41.0649H102.981V129.447H45.2672C31.6165 129.447 20.5533 118.384 20.5533 104.734V41.0649Z" fill="#FF5F46"/>
<path fill-rule="evenodd" clip-rule="evenodd" d="M47.0287 20.5439H104.734C118.384 20.5439 129.447 31.6071 129.447 45.2578V102.972H108.529V99.9717H126.447V45.2578C126.447 33.2639 116.727 23.5439 104.734 23.5439H50.0287V99.9626H73.3781V79.1885H76.3781V102.963H47.0287V20.5439Z" fill="#FF5F46"/>
</svg>
