<svg width="1253" height="724" viewBox="0 0 1253 724" fill="none" xmlns="http://www.w3.org/2000/svg">
<g filter="url(#filter0_dddddd_1110_11780)">
<path d="M192 150.383C192 99.9134 232.913 59 283.383 59H441.017C491.487 59 532.4 99.9134 532.4 150.383V308.017C532.4 358.487 491.487 399.4 441.017 399.4H283.383C232.913 399.4 192 358.487 192 308.017V150.383Z" fill="white"/>
</g>
<path d="M458 135H322L322.063 191L402 191.08L402.063 271.08L458.127 271L458 135Z" fill="#FF5F46"/>
<path d="M322 191H266L266 327.034H401.937L402 271H322.063L322 191Z" fill="#FABFBA"/>
<path d="M603.901 217.2V139.92H623.773C632.752 139.92 640.149 141.503 645.964 144.667C651.852 147.759 656.194 152.211 658.991 158.026C661.861 163.767 663.296 170.685 663.296 178.781C663.296 186.73 661.861 193.575 658.991 199.315C656.194 205.056 651.852 209.472 645.964 212.563C640.149 215.655 632.752 217.2 623.773 217.2H603.901ZM613.175 209.472H623.552C630.986 209.472 636.911 208.258 641.327 205.829C645.743 203.327 648.908 199.794 650.821 195.231C652.735 190.594 653.692 185.111 653.692 178.781C653.692 172.304 652.735 166.747 650.821 162.111C648.908 157.474 645.743 153.904 641.327 151.402C636.911 148.899 630.986 147.648 623.552 147.648H613.175V209.472ZM691.345 218.525C686.929 218.525 683.249 217.715 680.305 216.096C677.361 214.403 675.153 212.195 673.681 209.472C672.209 206.675 671.473 203.695 671.473 200.53C671.473 196.703 672.43 193.464 674.343 190.815C676.33 188.091 679.09 186.031 682.623 184.632C686.156 183.234 690.278 182.535 694.988 182.535H709.45C709.45 178.781 709.009 175.653 708.126 173.151C707.242 170.648 705.807 168.771 703.82 167.52C701.833 166.269 699.183 165.643 695.871 165.643C692.559 165.643 689.726 166.49 687.37 168.183C685.015 169.802 683.543 172.231 682.954 175.469H673.46C673.902 171.642 675.19 168.44 677.324 165.864C679.458 163.215 682.145 161.227 685.383 159.903C688.695 158.504 692.191 157.805 695.871 157.805C701.097 157.805 705.402 158.762 708.788 160.675C712.174 162.515 714.676 165.128 716.295 168.514C717.914 171.826 718.724 175.763 718.724 180.327V217.2H710.444L709.892 207.264C709.156 208.81 708.199 210.282 707.022 211.68C705.918 213.005 704.593 214.183 703.047 215.213C701.502 216.243 699.735 217.053 697.748 217.642C695.834 218.231 693.7 218.525 691.345 218.525ZM692.67 210.687C695.098 210.687 697.343 210.135 699.404 209.031C701.465 207.927 703.231 206.455 704.703 204.615C706.249 202.701 707.426 200.567 708.236 198.211C709.046 195.856 709.45 193.391 709.45 190.815V189.711H695.761C692.302 189.711 689.468 190.152 687.26 191.035C685.126 191.919 683.58 193.17 682.623 194.789C681.666 196.335 681.188 198.101 681.188 200.088C681.188 202.223 681.63 204.099 682.513 205.719C683.396 207.264 684.684 208.479 686.377 209.362C688.143 210.245 690.241 210.687 692.67 210.687ZM751.746 217.2C748.434 217.2 745.563 216.685 743.135 215.655C740.706 214.624 738.829 212.895 737.504 210.466C736.253 207.963 735.627 204.615 735.627 200.419V166.968H725.471V159.13H735.627L736.842 144.667H744.901V159.13H761.351V166.968H744.901V200.419C744.901 203.879 745.6 206.234 746.999 207.485C748.397 208.663 750.863 209.251 754.395 209.251H761.13V217.2H751.746ZM788.868 218.525C784.452 218.525 780.772 217.715 777.828 216.096C774.884 214.403 772.676 212.195 771.204 209.472C769.732 206.675 768.996 203.695 768.996 200.53C768.996 196.703 769.953 193.464 771.866 190.815C773.853 188.091 776.613 186.031 780.146 184.632C783.679 183.234 787.801 182.535 792.511 182.535H806.973C806.973 178.781 806.532 175.653 805.649 173.151C804.765 170.648 803.33 168.771 801.343 167.52C799.356 166.269 796.706 165.643 793.394 165.643C790.082 165.643 787.249 166.49 784.893 168.183C782.538 169.802 781.066 172.231 780.477 175.469H770.983C771.425 171.642 772.713 168.44 774.847 165.864C776.981 163.215 779.668 161.227 782.906 159.903C786.218 158.504 789.714 157.805 793.394 157.805C798.62 157.805 802.925 158.762 806.311 160.675C809.697 162.515 812.199 165.128 813.818 168.514C815.437 171.826 816.247 175.763 816.247 180.327V217.2H807.967L807.415 207.264C806.679 208.81 805.722 210.282 804.545 211.68C803.441 213.005 802.116 214.183 800.57 215.213C799.025 216.243 797.258 217.053 795.271 217.642C793.357 218.231 791.223 218.525 788.868 218.525ZM790.193 210.687C792.621 210.687 794.866 210.135 796.927 209.031C798.988 207.927 800.754 206.455 802.226 204.615C803.772 202.701 804.949 200.567 805.759 198.211C806.569 195.856 806.973 193.391 806.973 190.815V189.711H793.284C789.825 189.711 786.991 190.152 784.783 191.035C782.649 191.919 781.103 193.17 780.146 194.789C779.189 196.335 778.711 198.101 778.711 200.088C778.711 202.223 779.153 204.099 780.036 205.719C780.919 207.264 782.207 208.479 783.9 209.362C785.666 210.245 787.764 210.687 790.193 210.687ZM857.181 218.525C853.648 218.525 850.594 218.01 848.018 216.979C845.516 215.875 843.381 214.514 841.615 212.895C839.922 211.275 838.524 209.693 837.42 208.147L836.647 217.2H828.256V137.712H837.53V168.293C839.296 164.834 841.909 162.221 845.368 160.455C848.828 158.688 852.692 157.805 856.96 157.805C862.26 157.805 866.896 159.093 870.871 161.669C874.845 164.245 877.936 167.815 880.144 172.378C882.352 176.867 883.456 182.056 883.456 187.944C883.456 193.759 882.352 198.984 880.144 203.621C877.936 208.258 874.845 211.901 870.871 214.551C866.97 217.2 862.407 218.525 857.181 218.525ZM855.967 210.466C859.426 210.466 862.48 209.583 865.13 207.816C867.853 205.976 869.988 203.4 871.533 200.088C873.152 196.703 873.962 192.728 873.962 188.165C873.962 183.602 873.152 179.664 871.533 176.352C869.988 172.967 867.853 170.391 865.13 168.624C862.48 166.784 859.426 165.864 855.967 165.864C852.287 165.864 849.085 166.784 846.362 168.624C843.639 170.391 841.541 172.967 840.069 176.352C838.597 179.664 837.861 183.602 837.861 188.165C837.861 192.728 838.597 196.703 840.069 200.088C841.541 203.4 843.639 205.976 846.362 207.816C849.085 209.583 852.287 210.466 855.967 210.466ZM893.621 217.2V159.13H902.011L902.674 169.728C903.999 167.079 905.728 164.871 907.863 163.104C909.997 161.338 912.573 160.013 915.591 159.13C918.682 158.247 922.141 157.805 925.968 157.805V167.52H920.227C918.019 167.52 915.885 167.815 913.824 168.403C911.763 168.992 909.887 169.949 908.194 171.274C906.575 172.599 905.287 174.402 904.33 176.683C903.373 178.965 902.895 181.835 902.895 185.295V217.2H893.621ZM934.209 217.2V159.13H943.483V217.2H934.209ZM938.846 148.09C937.006 148.09 935.461 147.501 934.209 146.323C933.032 145.072 932.443 143.527 932.443 141.687C932.443 139.847 933.032 138.375 934.209 137.271C935.461 136.093 937.006 135.504 938.846 135.504C940.613 135.504 942.121 136.093 943.373 137.271C944.624 138.375 945.249 139.847 945.249 141.687C945.249 143.527 944.624 145.072 943.373 146.323C942.121 147.501 940.613 148.09 938.846 148.09ZM981.705 218.525C976.405 218.525 971.695 217.274 967.573 214.771C963.452 212.195 960.213 208.626 957.858 204.063C955.503 199.499 954.325 194.2 954.325 188.165C954.325 182.056 955.503 176.757 957.858 172.267C960.213 167.704 963.452 164.171 967.573 161.669C971.695 159.093 976.405 157.805 981.705 157.805C988.329 157.805 993.849 159.571 998.265 163.104C1002.75 166.637 1005.62 171.384 1006.88 177.346H997.381C996.572 173.666 994.695 170.832 991.751 168.845C988.881 166.784 985.495 165.754 981.594 165.754C978.209 165.754 975.154 166.6 972.431 168.293C969.781 169.986 967.684 172.488 966.138 175.8C964.593 179.112 963.82 183.234 963.82 188.165C963.82 191.845 964.261 195.12 965.145 197.991C966.028 200.787 967.242 203.143 968.788 205.056C970.407 206.896 972.284 208.295 974.418 209.251C976.626 210.208 979.018 210.687 981.594 210.687C984.244 210.687 986.636 210.245 988.77 209.362C990.978 208.405 992.818 207.043 994.29 205.277C995.836 203.511 996.866 201.413 997.381 198.984H1006.88C1005.7 204.799 1002.83 209.509 998.265 213.115C993.775 216.722 988.255 218.525 981.705 218.525ZM1051.16 217.2L1024.78 185.847L1049.62 159.13H1060.99L1032.62 189.159L1032.73 182.535L1062.98 217.2H1051.16ZM1017.05 217.2V137.712H1026.32V217.2H1017.05ZM1087.22 218.525C1081.99 218.525 1077.65 217.752 1074.19 216.207C1070.8 214.587 1068.23 212.379 1066.46 209.583C1064.7 206.712 1063.63 203.4 1063.26 199.647H1072.76C1073.05 201.634 1073.71 203.474 1074.74 205.167C1075.85 206.786 1077.43 208.111 1079.49 209.141C1081.55 210.171 1084.16 210.687 1087.33 210.687C1089.83 210.687 1091.96 210.319 1093.73 209.583C1095.5 208.773 1096.82 207.669 1097.71 206.271C1098.66 204.872 1099.14 203.253 1099.14 201.413C1099.14 198.984 1098.59 197.107 1097.48 195.783C1096.45 194.384 1094.91 193.354 1092.85 192.691C1090.86 191.955 1088.36 191.403 1085.34 191.035C1082.1 190.594 1079.23 189.968 1076.73 189.159C1074.23 188.349 1072.09 187.282 1070.33 185.957C1068.63 184.632 1067.35 182.976 1066.46 180.989C1065.58 179.002 1065.14 176.647 1065.14 173.923C1065.14 170.759 1065.98 167.962 1067.68 165.533C1069.37 163.104 1071.76 161.227 1074.85 159.903C1078.02 158.504 1081.73 157.805 1086 157.805C1092.26 157.805 1097.19 159.24 1100.8 162.111C1104.48 164.981 1106.65 169.066 1107.31 174.365H1098.15C1097.78 171.642 1096.53 169.507 1094.39 167.962C1092.26 166.416 1089.43 165.643 1085.89 165.643C1082.14 165.643 1079.31 166.343 1077.39 167.741C1075.48 169.139 1074.52 170.979 1074.52 173.261C1074.52 174.954 1074.93 176.499 1075.74 177.898C1076.62 179.223 1078.09 180.363 1080.15 181.32C1082.21 182.203 1084.97 182.866 1088.43 183.307C1092.77 183.823 1096.45 184.669 1099.47 185.847C1102.49 186.951 1104.77 188.68 1106.32 191.035C1107.94 193.391 1108.71 196.592 1108.64 200.64C1108.64 204.467 1107.72 207.706 1105.88 210.355C1104.11 213.005 1101.61 215.029 1098.37 216.427C1095.2 217.826 1091.49 218.525 1087.22 218.525ZM637.573 317.525C629.919 317.525 623.295 315.869 617.701 312.557C612.181 309.171 607.912 304.498 604.895 298.536C601.951 292.501 600.479 285.546 600.479 277.671C600.479 269.722 601.951 262.767 604.895 256.805C607.912 250.77 612.181 246.059 617.701 242.674C623.295 239.288 629.919 237.595 637.573 237.595C646.773 237.595 654.28 239.877 660.095 244.44C665.909 248.93 669.589 255.296 671.135 263.539H656.562C655.532 259.197 653.434 255.775 650.269 253.272C647.104 250.77 642.836 249.519 637.463 249.519C632.605 249.519 628.41 250.659 624.877 252.941C621.418 255.149 618.732 258.387 616.818 262.656C614.978 266.851 614.058 271.856 614.058 277.671C614.058 283.485 614.978 288.49 616.818 292.685C618.732 296.807 621.418 300.008 624.877 302.29C628.41 304.498 632.605 305.602 637.463 305.602C642.836 305.602 647.104 304.461 650.269 302.179C653.434 299.824 655.532 296.586 656.562 292.464H671.135C669.663 300.266 665.983 306.411 660.095 310.901C654.28 315.317 646.773 317.525 637.573 317.525ZM680.345 316.2V236.712H693.593V316.2H680.345ZM731.118 317.525C725.598 317.525 720.741 316.347 716.545 313.992C712.35 311.563 709.075 308.178 706.72 303.835C704.365 299.493 703.187 294.488 703.187 288.821C703.187 282.933 704.328 277.781 706.609 273.365C708.965 268.949 712.24 265.49 716.435 262.987C720.704 260.485 725.635 259.234 731.229 259.234C736.675 259.234 741.422 260.448 745.47 262.877C749.518 265.306 752.646 268.581 754.854 272.703C757.062 276.751 758.166 281.314 758.166 286.392C758.166 287.128 758.166 287.938 758.166 288.821C758.166 289.704 758.093 290.624 757.945 291.581H712.681V283.08H744.808C744.661 279.032 743.299 275.867 740.723 273.586C738.147 271.231 734.945 270.053 731.118 270.053C728.395 270.053 725.893 270.679 723.611 271.93C721.329 273.181 719.526 275.058 718.201 277.56C716.877 279.989 716.214 283.08 716.214 286.834V290.035C716.214 293.495 716.84 296.475 718.091 298.978C719.416 301.48 721.182 303.394 723.39 304.719C725.672 305.97 728.211 306.595 731.008 306.595C734.099 306.595 736.638 305.933 738.625 304.608C740.686 303.283 742.195 301.517 743.152 299.309H756.621C755.59 302.768 753.897 305.896 751.542 308.693C749.187 311.416 746.28 313.587 742.821 315.207C739.361 316.752 735.461 317.525 731.118 317.525ZM785.633 317.525C781.07 317.525 777.28 316.752 774.262 315.207C771.245 313.661 769 311.6 767.528 309.024C766.056 306.448 765.32 303.651 765.32 300.634C765.32 297.101 766.203 294.047 767.969 291.471C769.809 288.895 772.496 286.907 776.029 285.509C779.561 284.037 783.904 283.301 789.056 283.301H803.077C803.077 280.357 802.672 277.928 801.862 276.015C801.053 274.027 799.801 272.555 798.109 271.599C796.416 270.642 794.245 270.163 791.595 270.163C788.577 270.163 786.001 270.863 783.867 272.261C781.733 273.586 780.408 275.647 779.893 278.443H766.865C767.307 274.469 768.632 271.083 770.84 268.287C773.048 265.416 775.955 263.208 779.561 261.663C783.241 260.043 787.253 259.234 791.595 259.234C796.821 259.234 801.273 260.154 804.953 261.994C808.633 263.76 811.43 266.336 813.344 269.722C815.331 273.034 816.325 277.045 816.325 281.755V316.2H805.064L803.739 307.258C803.003 308.73 802.046 310.091 800.869 311.343C799.765 312.594 798.477 313.698 797.005 314.655C795.533 315.538 793.84 316.237 791.926 316.752C790.086 317.267 787.989 317.525 785.633 317.525ZM788.614 307.037C790.749 307.037 792.625 306.669 794.245 305.933C795.937 305.123 797.373 304.019 798.55 302.621C799.801 301.149 800.758 299.53 801.421 297.763C802.083 295.997 802.525 294.12 802.745 292.133V291.912H790.491C787.915 291.912 785.781 292.243 784.088 292.906C782.395 293.495 781.181 294.378 780.445 295.555C779.709 296.733 779.341 298.095 779.341 299.64C779.341 301.186 779.709 302.511 780.445 303.615C781.181 304.719 782.248 305.565 783.646 306.154C785.045 306.743 786.701 307.037 788.614 307.037ZM827.168 316.2V260.559H838.87L839.864 269.832C841.557 266.594 843.986 264.018 847.15 262.104C850.315 260.191 854.069 259.234 858.411 259.234C862.901 259.234 866.728 260.191 869.893 262.104C873.058 263.944 875.486 266.667 877.179 270.274C878.946 273.88 879.829 278.37 879.829 283.743V316.2H866.581V284.957C866.581 280.32 865.55 276.751 863.49 274.248C861.429 271.746 858.374 270.495 854.326 270.495C851.677 270.495 849.285 271.12 847.15 272.371C845.09 273.623 843.434 275.463 842.182 277.891C841.005 280.247 840.416 283.117 840.416 286.503V316.2H827.168ZM914.567 316.2V238.92H942.277C948.386 238.92 953.428 239.987 957.402 242.122C961.45 244.183 964.431 246.979 966.344 250.512C968.332 253.971 969.325 257.909 969.325 262.325C969.325 266.447 968.368 270.274 966.455 273.807C964.541 277.339 961.56 280.173 957.512 282.307C953.464 284.442 948.276 285.509 941.946 285.509H927.815V316.2H914.567ZM954.863 316.2L938.634 282.087H952.986L969.988 316.2H954.863ZM927.815 275.683H941.394C946.325 275.683 949.932 274.506 952.213 272.151C954.568 269.722 955.746 266.557 955.746 262.656C955.746 258.829 954.605 255.775 952.324 253.493C950.042 251.138 946.399 249.96 941.394 249.96H927.815V275.683ZM1001.88 317.525C996.577 317.525 991.793 316.311 987.524 313.882C983.329 311.379 980.017 307.957 977.588 303.615C975.233 299.199 974.055 294.157 974.055 288.49C974.055 282.675 975.27 277.597 977.698 273.255C980.127 268.839 983.439 265.416 987.634 262.987C991.903 260.485 996.687 259.234 1001.99 259.234C1007.29 259.234 1012.03 260.485 1016.23 262.987C1020.5 265.416 1023.81 268.802 1026.16 273.144C1028.59 277.487 1029.81 282.565 1029.81 288.379C1029.81 294.194 1028.59 299.272 1026.16 303.615C1023.74 307.957 1020.39 311.379 1016.12 313.882C1011.92 316.311 1007.18 317.525 1001.88 317.525ZM1001.88 306.154C1004.53 306.154 1006.92 305.491 1009.05 304.167C1011.26 302.842 1013.03 300.855 1014.35 298.205C1015.68 295.555 1016.34 292.28 1016.34 288.379C1016.34 284.479 1015.68 281.24 1014.35 278.664C1013.1 276.015 1011.37 274.027 1009.16 272.703C1007.03 271.378 1004.64 270.715 1001.99 270.715C999.41 270.715 997.018 271.378 994.81 272.703C992.602 274.027 990.836 276.015 989.511 278.664C988.186 281.24 987.524 284.479 987.524 288.379C987.524 292.28 988.186 295.555 989.511 298.205C990.836 300.855 992.566 302.842 994.7 304.167C996.908 305.491 999.3 306.154 1001.88 306.154ZM1065.41 317.525C1060.11 317.525 1055.32 316.311 1051.06 313.882C1046.86 311.379 1043.55 307.957 1041.12 303.615C1038.76 299.199 1037.59 294.157 1037.59 288.49C1037.59 282.675 1038.8 277.597 1041.23 273.255C1043.66 268.839 1046.97 265.416 1051.17 262.987C1055.43 260.485 1060.22 259.234 1065.52 259.234C1070.82 259.234 1075.56 260.485 1079.76 262.987C1084.03 265.416 1087.34 268.802 1089.7 273.144C1092.12 277.487 1093.34 282.565 1093.34 288.379C1093.34 294.194 1092.12 299.272 1089.7 303.615C1087.27 307.957 1083.92 311.379 1079.65 313.882C1075.45 316.311 1070.71 317.525 1065.41 317.525ZM1065.41 306.154C1068.06 306.154 1070.45 305.491 1072.58 304.167C1074.79 302.842 1076.56 300.855 1077.88 298.205C1079.21 295.555 1079.87 292.28 1079.87 288.379C1079.87 284.479 1079.21 281.24 1077.88 278.664C1076.63 276.015 1074.9 274.027 1072.69 272.703C1070.56 271.378 1068.17 270.715 1065.52 270.715C1062.94 270.715 1060.55 271.378 1058.34 272.703C1056.13 274.027 1054.37 276.015 1053.04 278.664C1051.72 281.24 1051.06 284.479 1051.06 288.379C1051.06 292.28 1051.72 295.555 1053.04 298.205C1054.37 300.855 1056.1 302.842 1058.23 304.167C1060.44 305.491 1062.83 306.154 1065.41 306.154ZM1103 316.2V260.559H1114.7L1115.8 268.176C1117.57 265.379 1119.89 263.208 1122.76 261.663C1125.7 260.043 1129.05 259.234 1132.8 259.234C1135.6 259.234 1138.1 259.602 1140.31 260.338C1142.59 261.074 1144.58 262.178 1146.27 263.65C1148.04 265.122 1149.47 266.962 1150.58 269.17C1152.64 266.079 1155.33 263.65 1158.64 261.883C1161.95 260.117 1165.56 259.234 1169.46 259.234C1174.09 259.234 1178.03 260.191 1181.27 262.104C1184.51 263.944 1186.97 266.704 1188.67 270.384C1190.36 273.991 1191.21 278.443 1191.21 283.743V316.2H1178.07V285.067C1178.07 280.357 1177.11 276.751 1175.2 274.248C1173.28 271.746 1170.45 270.495 1166.7 270.495C1164.12 270.495 1161.84 271.12 1159.85 272.371C1157.94 273.623 1156.43 275.463 1155.33 277.891C1154.22 280.247 1153.67 283.154 1153.67 286.613V316.2H1140.53V285.067C1140.53 280.357 1139.57 276.751 1137.66 274.248C1135.75 271.746 1132.88 270.495 1129.05 270.495C1126.62 270.495 1124.41 271.12 1122.43 272.371C1120.51 273.623 1119 275.463 1117.9 277.891C1116.8 280.247 1116.24 283.154 1116.24 286.613V316.2H1103ZM1224.08 317.525C1219.15 317.525 1214.84 316.752 1211.16 315.207C1207.56 313.587 1204.69 311.379 1202.55 308.583C1200.49 305.712 1199.28 302.437 1198.91 298.757H1212.16C1212.52 300.303 1213.19 301.738 1214.14 303.063C1215.1 304.314 1216.39 305.307 1218.01 306.043C1219.7 306.779 1221.69 307.147 1223.97 307.147C1226.18 307.147 1227.98 306.853 1229.38 306.264C1230.78 305.602 1231.81 304.755 1232.47 303.725C1233.13 302.695 1233.46 301.591 1233.46 300.413C1233.46 298.647 1232.99 297.285 1232.03 296.328C1231.07 295.371 1229.67 294.635 1227.83 294.12C1226.07 293.531 1223.93 292.979 1221.43 292.464C1218.78 291.949 1216.2 291.323 1213.7 290.587C1211.27 289.778 1209.07 288.784 1207.08 287.607C1205.16 286.429 1203.62 284.92 1202.44 283.08C1201.34 281.24 1200.79 278.995 1200.79 276.346C1200.79 273.107 1201.63 270.2 1203.32 267.624C1205.09 265.048 1207.59 263.024 1210.83 261.552C1214.14 260.007 1218.08 259.234 1222.64 259.234C1229.12 259.234 1234.27 260.743 1238.1 263.76C1242 266.704 1244.28 270.863 1244.95 276.235H1232.36C1231.99 274.175 1230.96 272.592 1229.27 271.488C1227.58 270.311 1225.33 269.722 1222.53 269.722C1219.66 269.722 1217.46 270.274 1215.91 271.378C1214.44 272.408 1213.7 273.807 1213.7 275.573C1213.7 276.677 1214.14 277.707 1215.03 278.664C1215.98 279.547 1217.35 280.32 1219.11 280.983C1220.88 281.571 1223.05 282.16 1225.63 282.749C1229.75 283.559 1233.39 284.515 1236.56 285.619C1239.72 286.723 1242.22 288.343 1244.06 290.477C1245.9 292.611 1246.82 295.629 1246.82 299.53C1246.9 303.063 1245.98 306.191 1244.06 308.914C1242.22 311.637 1239.61 313.771 1236.22 315.317C1232.84 316.789 1228.79 317.525 1224.08 317.525Z" fill="white"/>
<defs>
<filter id="filter0_dddddd_1110_11780" x="0.639999" y="0.119995" width="723.12" height="723.12" filterUnits="userSpaceOnUse" color-interpolation-filters="sRGB">
<feFlood flood-opacity="0" result="BackgroundImageFix"/>
<feColorMatrix in="SourceAlpha" type="matrix" values="0 0 0 0 0 0 0 0 0 0 0 0 0 0 0 0 0 0 127 0" result="hardAlpha"/>
<feOffset dy="3.68"/>
<feGaussianBlur stdDeviation="2.76"/>
<feColorMatrix type="matrix" values="0 0 0 0 0.105882 0 0 0 0 0.192157 0 0 0 0 0.223529 0 0 0 0.0196802 0"/>
<feBlend mode="normal" in2="BackgroundImageFix" result="effect1_dropShadow_1110_11780"/>
<feColorMatrix in="SourceAlpha" type="matrix" values="0 0 0 0 0 0 0 0 0 0 0 0 0 0 0 0 0 0 127 0" result="hardAlpha"/>
<feOffset dy="7.36"/>
<feGaussianBlur stdDeviation="7.36"/>
<feColorMatrix type="matrix" values="0 0 0 0 0.105882 0 0 0 0 0.192157 0 0 0 0 0.223529 0 0 0 0.04 0"/>
<feBlend mode="normal" in2="effect1_dropShadow_1110_11780" result="effect2_dropShadow_1110_11780"/>
<feColorMatrix in="SourceAlpha" type="matrix" values="0 0 0 0 0 0 0 0 0 0 0 0 0 0 0 0 0 0 127 0" result="hardAlpha"/>
<feOffset dy="16.56"/>
<feGaussianBlur stdDeviation="11.96"/>
<feColorMatrix type="matrix" values="0 0 0 0 0.105882 0 0 0 0 0.192157 0 0 0 0 0.223529 0 0 0 0.035 0"/>
<feBlend mode="normal" in2="effect2_dropShadow_1110_11780" result="effect3_dropShadow_1110_11780"/>
<feColorMatrix in="SourceAlpha" type="matrix" values="0 0 0 0 0 0 0 0 0 0 0 0 0 0 0 0 0 0 127 0" result="hardAlpha"/>
<feOffset dy="29.44"/>
<feGaussianBlur stdDeviation="22.08"/>
<feColorMatrix type="matrix" values="0 0 0 0 0.105882 0 0 0 0 0.192157 0 0 0 0 0.223529 0 0 0 0.04 0"/>
<feBlend mode="normal" in2="effect3_dropShadow_1110_11780" result="effect4_dropShadow_1110_11780"/>
<feColorMatrix in="SourceAlpha" type="matrix" values="0 0 0 0 0 0 0 0 0 0 0 0 0 0 0 0 0 0 127 0" result="hardAlpha"/>
<feOffset dy="58.88"/>
<feGaussianBlur stdDeviation="36.8"/>
<feColorMatrix type="matrix" values="0 0 0 0 0.105882 0 0 0 0 0.192157 0 0 0 0 0.223529 0 0 0 0.0503198 0"/>
<feBlend mode="normal" in2="effect4_dropShadow_1110_11780" result="effect5_dropShadow_1110_11780"/>
<feColorMatrix in="SourceAlpha" type="matrix" values="0 0 0 0 0 0 0 0 0 0 0 0 0 0 0 0 0 0 127 0" result="hardAlpha"/>
<feOffset dy="132.48"/>
<feGaussianBlur stdDeviation="95.68"/>
<feColorMatrix type="matrix" values="0 0 0 0 0.105882 0 0 0 0 0.192157 0 0 0 0 0.223529 0 0 0 0.07 0"/>
<feBlend mode="normal" in2="effect5_dropShadow_1110_11780" result="effect6_dropShadow_1110_11780"/>
<feBlend mode="normal" in="SourceGraphic" in2="effect6_dropShadow_1110_11780" result="shape"/>
</filter>
</defs>
</svg>
