<svg width="150" height="150" viewBox="0 0 150 150" fill="none" xmlns="http://www.w3.org/2000/svg">
<path d="M68 133.63C74.7986 133.64 81.5468 132.463 87.94 130.15L86.94 127.33C75.8215 131.372 63.704 131.765 52.347 128.452C40.99 125.138 30.9848 118.291 23.7839 108.905C16.5831 99.5182 12.5616 88.0807 12.3033 76.2531C12.045 64.4255 15.5633 52.8234 22.3475 43.1315C29.1317 33.4395 38.8285 26.1622 50.0301 22.3562C61.2316 18.5503 73.3546 18.4137 84.639 21.9665C95.9234 25.5192 105.782 32.5763 112.782 42.113C119.783 51.6498 123.562 63.1697 123.57 75.0001V85.5901L124.43 86.0001C128.088 87.7456 131.229 90.414 133.542 93.7426C135.855 97.0711 137.261 100.945 137.621 104.982C137.981 109.019 137.284 113.081 135.597 116.766C133.909 120.452 131.291 123.634 128 126V118C127.999 116.948 127.721 115.915 127.195 115.004C126.668 114.093 125.911 113.336 125 112.81L120.84 110.42C122.875 108.004 124.044 104.977 124.16 101.82C124.16 95.4501 119.94 90.8201 114.16 90.8201C108.38 90.8201 104.16 95.4401 104.16 101.82C104.268 104.979 105.438 108.008 107.48 110.42L103.32 112.81C102.409 113.336 101.652 114.093 101.125 115.004C100.599 115.915 100.321 116.948 100.32 118V125.61C96.5438 122.734 93.7352 118.774 92.2693 114.26C90.8034 109.745 90.75 104.891 92.1164 100.345C93.4827 95.7995 96.2036 91.779 99.9156 88.8207C103.628 85.8625 108.154 84.1075 112.89 83.7901L112.7 80.7901C106.348 81.1968 100.357 83.8882 95.835 88.3673C91.3126 92.8464 88.5636 98.8106 88.0957 105.159C87.6278 111.506 89.4726 117.809 93.2895 122.903C97.1063 127.997 102.637 131.537 108.861 132.871C115.085 134.205 121.581 133.241 127.15 130.159C132.719 127.076 136.985 122.083 139.159 116.101C141.333 110.118 141.269 103.551 138.979 97.6125C136.689 91.6736 132.328 86.7639 126.7 83.7901V75.0001C126.702 63.4043 123.266 52.0683 116.826 42.425C110.387 32.7817 101.233 25.264 90.5213 20.8224C79.8099 16.3808 68.0221 15.2146 56.6481 17.4713C45.274 19.7279 34.8243 25.3061 26.62 33.5007C18.4157 41.6952 12.825 52.1382 10.5548 63.5096C8.28458 74.8809 9.43671 86.6701 13.8655 97.3868C18.2944 108.103 25.8011 117.267 35.4367 123.718C45.0723 130.169 56.4042 133.618 68 133.63V133.63ZM103.25 127.56V118C103.25 117.476 103.388 116.961 103.65 116.506C103.911 116.052 104.287 115.674 104.74 115.41L110.52 112.09L110.81 109.7C108.598 107.653 107.265 104.829 107.09 101.82C107.09 97.1101 109.99 93.8201 114.09 93.8201C118.19 93.8201 121.09 97.1001 121.09 101.82C120.915 104.829 119.582 107.653 117.37 109.7L117.66 112.09L123.44 115.42C123.905 115.674 124.294 116.047 124.568 116.5C124.842 116.953 124.991 117.471 125 118V127.85C121.623 129.579 117.874 130.457 114.08 130.408C110.286 130.359 106.562 129.385 103.23 127.57L103.25 127.56Z" fill="#1B3139"/>
<path d="M45.14 110.58L48.03 111.38L49.67 105.4H82.7V102.4H47.38L45.14 110.58Z" fill="#1B3139"/>
<path d="M70.5 61.7198L78.42 78.4998L80.27 77.6198L83 83.3098L95 77.6498L92.31 71.9398L94 71.1498L76.72 34.5098L74.38 35.6098L70.38 27.0298L59.42 32.1798L63.42 40.7498L61.08 41.8598L66.21 52.7298L69 51.4398L65.15 43.2898L67.5 42.1798L63.5 33.6098L68.89 30.9998L72.89 39.5798L75.23 38.4798L90 69.7098L79.85 74.4998L72.15 58.1898L71 58.4798C65.9168 59.6934 61.392 62.587 58.158 66.6921C54.9239 70.7973 53.17 75.8738 53.18 81.0998V84.9998H45.43V81.0998C45.4462 74.2982 47.6947 67.6899 51.83 62.2898C52.8189 62.7645 53.9031 63.0073 55 62.9998C56.6912 63.0087 58.3345 62.4381 59.6562 61.3829C60.9779 60.3276 61.8982 58.8515 62.264 57.2003C62.6298 55.549 62.4189 53.8223 61.6665 52.3077C60.914 50.793 59.6655 49.5818 58.1286 48.8757C56.5918 48.1696 54.8595 48.0112 53.2201 48.4269C51.5808 48.8427 50.1333 49.8074 49.1187 51.1605C48.1041 52.5136 47.5836 54.1735 47.6438 55.8637C47.7041 57.5539 48.3416 59.1724 49.45 60.4498V60.4498C44.9243 66.3802 42.4656 73.6298 42.45 81.0898V93.2198H37V111H40V96.2198H45.42V87.9998H53.17V96.1798H85.49V93.1798H56.18V81.0998C56.1714 76.7605 57.559 72.5336 60.1378 69.0436C62.7165 65.5537 66.3495 62.9859 70.5 61.7198V61.7198ZM91 76.2098L84.39 79.3198L82.99 76.3198L89.59 73.1998L91 76.2098ZM55 51.2598C55.8647 51.2578 56.7106 51.5124 57.4306 51.9914C58.1505 52.4704 58.7122 53.1522 59.0445 53.9505C59.3768 54.7489 59.4647 55.6278 59.2972 56.4762C59.1298 57.3245 58.7144 58.1041 58.1036 58.7163C57.4928 59.3284 56.7142 59.7456 55.8662 59.9151C55.0183 60.0845 54.1391 59.9985 53.34 59.6681C52.5409 59.3376 51.8578 58.7775 51.3772 58.0587C50.8966 57.3398 50.64 56.4945 50.64 55.6298C50.64 54.4725 51.099 53.3625 51.9164 52.5433C52.7338 51.724 53.8427 51.2624 55 51.2598V51.2598Z" fill="#1B3139"/>
</svg>
