<svg width="150" height="150" viewBox="0 0 150 150" fill="none" xmlns="http://www.w3.org/2000/svg">
<path d="M67.9999 133.63C74.7986 133.64 81.5467 132.463 87.9399 130.15L86.9399 127.33C75.8214 131.372 63.704 131.765 52.347 128.451C40.99 125.138 30.9847 118.291 23.7839 108.905C16.583 99.518 12.5615 88.0806 12.3032 76.253C12.0449 64.4254 15.5633 52.8233 22.3475 43.1313C29.1317 33.4394 38.8285 26.1621 50.03 22.3561C61.2315 18.5501 73.3546 18.4136 84.639 21.9664C95.9234 25.5191 105.782 32.5762 112.782 42.1129C119.783 51.6496 123.562 63.1695 123.57 75V85.59L124.43 86C128.088 87.7455 131.229 90.4139 133.542 93.7425C135.855 97.071 137.261 100.945 137.621 104.982C137.981 109.019 137.284 113.081 135.596 116.766C133.909 120.452 131.291 123.634 128 126V118C127.999 116.948 127.721 115.914 127.195 115.003C126.668 114.093 125.911 113.336 125 112.81L120.84 110.42C122.875 108.004 124.044 104.977 124.16 101.82C124.16 95.45 119.94 90.82 114.16 90.82C108.38 90.82 104.16 95.44 104.16 101.82C104.268 104.978 105.438 108.008 107.48 110.42L103.32 112.81C102.409 113.336 101.652 114.093 101.125 115.003C100.599 115.914 100.321 116.948 100.32 118V125.61C96.5438 122.734 93.7352 118.774 92.2693 114.26C90.8034 109.745 90.75 104.891 92.1163 100.345C93.4826 95.7994 96.2036 91.7788 99.9156 88.8206C103.628 85.8624 108.154 84.1074 112.89 83.79L112.7 80.79C106.348 81.1967 100.357 83.8881 95.835 88.3672C91.3126 92.8463 88.5636 98.8105 88.0957 105.158C87.6278 111.506 89.4726 117.809 93.2894 122.903C97.1063 127.997 102.637 131.537 108.861 132.871C115.085 134.205 121.581 133.241 127.15 130.159C132.719 127.076 136.984 122.083 139.159 116.101C141.333 110.118 141.269 103.551 138.979 97.6124C136.689 91.6735 132.328 86.7638 126.7 83.79V75C126.702 63.4042 123.266 52.0682 116.826 42.4249C110.387 32.7815 101.233 25.2639 90.5213 20.8223C79.8099 16.3807 68.0221 15.2145 56.648 17.4712C45.274 19.7278 34.8243 25.306 26.62 33.5005C18.4156 41.6951 12.825 52.1381 10.5548 63.5095C8.28454 74.8808 9.43667 86.67 13.8655 97.3867C18.2943 108.103 25.801 117.266 35.4366 123.717C45.0723 130.169 56.4042 133.618 67.9999 133.63ZM103.25 127.56V118C103.25 117.476 103.388 116.961 103.65 116.506C103.911 116.052 104.287 115.674 104.74 115.41L110.52 112.09L110.81 109.7C108.598 107.653 107.265 104.829 107.09 101.82C107.09 97.11 109.99 93.82 114.09 93.82C118.19 93.82 121.09 97.1 121.09 101.82C120.915 104.829 119.582 107.653 117.37 109.7L117.66 112.09L123.44 115.42C123.905 115.674 124.294 116.047 124.568 116.5C124.842 116.953 124.991 117.471 125 118V127.85C121.622 129.579 117.874 130.457 114.08 130.408C110.286 130.359 106.562 129.385 103.23 127.57L103.25 127.56Z" fill="#FF5F46"/>
<path d="M45.14 110.58L48.03 111.38L49.67 105.4H82.7V102.4H47.38L45.14 110.58Z" fill="#FF5F46"/>
<path d="M70.5 61.72L78.42 78.5L80.27 77.62L83 83.31L95 77.65L92.31 71.94L94 71.15L76.72 34.51L74.38 35.61L70.38 27.03L59.42 32.18L63.42 40.75L61.08 41.86L66.21 52.73L69 51.44L65.15 43.29L67.5 42.18L63.5 33.61L68.89 31L72.89 39.58L75.23 38.48L90 69.71L79.85 74.5L72.15 58.19L71 58.48C65.9168 59.6936 61.392 62.5872 58.158 66.6924C54.9239 70.7976 53.17 75.874 53.18 81.1V85H45.43V81.1C45.4462 74.2984 47.6947 67.6902 51.83 62.29C52.8189 62.7648 53.9031 63.0076 55 63C56.6912 63.009 58.3345 62.4383 59.6562 61.3831C60.9779 60.3279 61.8982 58.8518 62.264 57.2005C62.6298 55.5493 62.4189 53.8226 61.6665 52.3079C60.914 50.7932 59.6655 49.582 58.1286 48.8759C56.5918 48.1698 54.8595 48.0115 53.2201 48.4272C51.5808 48.8429 50.1333 49.8076 49.1187 51.1608C48.1041 52.5139 47.5836 54.1737 47.6438 55.8639C47.7041 57.5541 48.3416 59.1726 49.45 60.45C44.9243 66.3804 42.4656 73.63 42.45 81.09V93.22H37V111H40V96.22H45.42V88H53.17V96.18H85.49V93.18H56.18V81.1C56.1714 76.7607 57.559 72.5338 60.1378 69.0439C62.7165 65.554 66.3495 62.9862 70.5 61.72ZM91 76.21L84.39 79.32L82.99 76.32L89.59 73.2L91 76.21ZM55 51.26C55.8647 51.258 56.7106 51.5127 57.4306 51.9916C58.1505 52.4706 58.7122 53.1524 59.0445 53.9508C59.3768 54.7491 59.4647 55.6281 59.2972 56.4764C59.1298 57.3248 58.7144 58.1044 58.1036 58.7165C57.4928 59.3287 56.7142 59.7459 55.8662 59.9153C55.0183 60.0847 54.1391 59.9988 53.34 59.6683C52.5409 59.3379 51.8578 58.7778 51.3772 58.0589C50.8966 57.34 50.64 56.4948 50.64 55.63C50.64 54.4728 51.099 53.3627 51.9164 52.5435C52.7338 51.7243 53.8427 51.2627 55 51.26Z" fill="#FF5F46"/>
</svg>
