<svg width="150" height="150" viewBox="0 0 150 150" fill="none" xmlns="http://www.w3.org/2000/svg">
<path d="M33.9 55.17V115.7H68.78V112.7H36.9V58.17H73.49V63.37H42.69V107.48H76.49V50.79C76.49 48.8009 75.6998 46.8932 74.2933 45.4867C72.8868 44.0802 70.9791 43.29 68.99 43.29H42.79C41.5973 43.2873 40.4543 42.8124 39.6109 41.9691C38.7676 41.1257 38.2926 39.9827 38.29 38.79V30.11H49.84V11.74H23.05V30.11H35.29V38.79C35.29 40.7791 36.0802 42.6868 37.4867 44.0933C38.8932 45.4998 40.8009 46.29 42.79 46.29H69C70.1927 46.2926 71.3357 46.7676 72.1791 47.6109C73.0224 48.4543 73.4974 49.5973 73.5 50.79V55.17H33.9ZM73.49 104.48H45.69V66.37H73.49V104.48ZM26.05 14.74H46.84V27.11H26.05V14.74Z" fill="white"/>
<path d="M81 58.17H113.1V112.7H73.5V125.61H58.17C56.5787 125.61 55.0526 126.242 53.9274 127.367C52.8021 128.493 52.17 130.019 52.17 131.61V138.22H97.87V131.61C97.87 130.019 97.2379 128.493 96.1126 127.367C94.9874 126.242 93.4613 125.61 91.87 125.61H81.22V128.61H91.84C92.6356 128.61 93.3987 128.926 93.9613 129.489C94.5239 130.051 94.84 130.814 94.84 131.61V135.22H55.13V131.61C55.13 130.814 55.4461 130.051 56.0087 129.489C56.5713 128.926 57.3344 128.61 58.13 128.61H76.5V115.7H116.1V55.17H81V58.17Z" fill="white"/>
<path d="M76.5 38.3V30.11H88.4V11.74H61.6V30.11H73.5V38.3H76.5ZM64.6 14.74H85.4V27.11H64.6V14.74Z" fill="white"/>
<path d="M100.16 30.11H111.7V38.79C111.697 39.9827 111.222 41.1257 110.379 41.9691C109.536 42.8124 108.393 43.2873 107.2 43.29H81V46.29H107.2C109.189 46.29 111.097 45.4998 112.503 44.0933C113.91 42.6868 114.7 40.7791 114.7 38.79V30.11H127V11.74H100.16V30.11ZM103.16 14.74H124V27.11H103.16V14.74Z" fill="white"/>
<path d="M81.99 104.49V107.49H107.31V63.38H81V66.38H104.31V104.49H81.99Z" fill="white"/>
</svg>
