<svg width="150" height="150" viewBox="0 0 150 150" fill="none" xmlns="http://www.w3.org/2000/svg">
<path d="M33.9001 55.1702V115.7H68.78V112.7H36.9001V58.1702H73.49V63.3702H42.69V107.48H76.49V50.7902C76.49 48.8011 75.6999 46.8935 74.2934 45.4869C72.8868 44.0804 70.9792 43.2902 68.99 43.2902H42.7901C41.5974 43.2876 40.4543 42.8126 39.611 41.9693C38.7676 41.126 38.2927 39.9829 38.2901 38.7902V30.1102H49.84V11.7402H23.05V30.1102H35.2901V38.7902C35.2901 40.7794 36.0802 42.687 37.4867 44.0935C38.8933 45.5001 40.8009 46.2902 42.7901 46.2902H69C70.1927 46.2929 71.3358 46.7678 72.1791 47.6112C73.0225 48.4545 73.4974 49.5976 73.5 50.7902V55.1702H33.9001ZM73.49 104.48H45.69V66.3702H73.49V104.48ZM26.05 14.7402H46.84V27.1102H26.05V14.7402Z" fill="#FF5F46"/>
<path d="M81 58.1699H113.1V112.7H73.5V125.61H58.17C56.5787 125.61 55.0526 126.242 53.9274 127.367C52.8022 128.493 52.17 130.019 52.17 131.61V138.22H97.87V131.61C97.87 130.019 97.2379 128.493 96.1127 127.367C94.9875 126.242 93.4613 125.61 91.87 125.61H81.22V128.61H91.84C92.6357 128.61 93.3988 128.926 93.9614 129.489C94.524 130.051 94.84 130.814 94.84 131.61V135.22H55.13V131.61C55.13 130.814 55.4461 130.051 56.0087 129.489C56.5713 128.926 57.3344 128.61 58.13 128.61H76.5V115.7H116.1V55.1699H81V58.1699Z" fill="#FF5F46"/>
<path d="M76.5 38.3002V30.1102H88.4V11.7402H61.6V30.1102H73.5V38.3002H76.5ZM64.6 14.7402H85.4V27.1102H64.6V14.7402Z" fill="#FF5F46"/>
<path d="M100.16 30.1102H111.7V38.7902C111.697 39.9829 111.222 41.126 110.379 41.9693C109.536 42.8126 108.393 43.2876 107.2 43.2902H81V46.2902H107.2C109.189 46.2902 111.097 45.5001 112.503 44.0935C113.91 42.687 114.7 40.7794 114.7 38.7902V30.1102H127V11.7402H100.16V30.1102ZM103.16 14.7402H124V27.1102H103.16V14.7402Z" fill="#FF5F46"/>
<path d="M81.99 104.49V107.49H107.31V63.3799H81V66.3799H104.31V104.49H81.99Z" fill="#FF5F46"/>
</svg>
