<svg width="150" height="150" viewBox="0 0 150 150" fill="none" xmlns="http://www.w3.org/2000/svg">
<path d="M116.7 65.2V68.2H128.94V121.71H59C57.1919 121.698 55.4369 121.098 54 120C53.6676 119.765 53.3594 119.497 53.08 119.2C51.896 118.014 51.0901 116.503 50.7643 114.859C50.4384 113.214 50.6072 111.51 51.2492 109.962C51.8913 108.414 52.9778 107.09 54.3716 106.159C55.7653 105.228 57.4038 104.731 59.08 104.73H97.53C100.567 104.725 103.478 103.517 105.628 101.372C107.777 99.2262 108.989 96.317 109 93.28V36.76C108.997 33.7188 107.788 30.8029 105.638 28.6524C103.487 26.502 100.571 25.2927 97.53 25.29H18.06V84.81H97.53C99.7843 84.81 101.946 85.7056 103.54 87.2996C105.134 88.8937 106.03 91.0557 106.03 93.31C106.03 95.5644 105.134 97.7264 103.54 99.3204C101.946 100.915 99.7843 101.81 97.53 101.81H59C57.4927 101.803 55.9992 102.097 54.6067 102.673C53.2142 103.25 51.9507 104.099 50.89 105.17L50.52 105.58V91.58H47.52V113.34C47.5169 114.844 47.8112 116.334 48.3861 117.725C48.9611 119.115 49.8052 120.377 50.87 121.44C51.2615 121.835 51.6827 122.199 52.13 122.53C54.1236 123.981 56.5344 124.746 59 124.71H131.92V65.2H116.7ZM97.53 81.81H21.06V28.29H97.53C99.7756 28.2927 101.928 29.1859 103.516 30.7738C105.104 32.3616 105.997 34.5145 106 36.76V85.56C104.927 84.3795 103.62 83.436 102.161 82.7903C100.703 82.1445 99.1251 81.8106 97.53 81.81V81.81Z" fill="#1B3139"/>
<path d="M68.76 53.55H65V44.38H74.8V41.38H65V35.29H62V41.38H58.32C57.3007 41.343 56.2845 41.5118 55.3319 41.8763C54.3794 42.2408 53.51 42.7936 52.7759 43.5016C52.0417 44.2096 51.4578 45.0583 51.0589 45.997C50.6601 46.9357 50.4545 47.9451 50.4545 48.965C50.4545 49.985 50.6601 50.9944 51.0589 51.9331C51.4578 52.8718 52.0417 53.7205 52.7759 54.4285C53.51 55.1365 54.3794 55.6892 55.3319 56.0538C56.2845 56.4183 57.3007 56.5871 58.32 56.55H62V65.72H52.23V68.72H62V74.81H65V68.72H68.72C70.684 68.6487 72.5438 67.8184 73.908 66.4037C75.2722 64.989 76.0345 63.1003 76.0345 61.135C76.0345 59.1697 75.2722 57.2811 73.908 55.8664C72.5438 54.4517 70.684 53.6214 68.72 53.55H68.76ZM58.32 53.55C57.6999 53.579 57.0803 53.4819 56.4988 53.2645C55.9173 53.0472 55.3859 52.7141 54.9368 52.2855C54.4877 51.8569 54.1302 51.3417 53.886 50.7709C53.6417 50.2002 53.5158 49.5858 53.5158 48.965C53.5158 48.3442 53.6417 47.7299 53.886 47.1592C54.1302 46.5884 54.4877 46.0732 54.9368 45.6446C55.3859 45.2159 55.9173 44.8829 56.4988 44.6655C57.0803 44.4482 57.6999 44.3511 58.32 44.38H62V53.55H58.32ZM68.76 65.72H65V56.55H68.72C69.899 56.6051 71.0114 57.1122 71.8263 57.966C72.6412 58.8199 73.0958 59.9548 73.0958 61.135C73.0958 62.3153 72.6412 63.4502 71.8263 64.304C71.0114 65.1579 69.899 65.665 68.72 65.72H68.76Z" fill="#1B3139"/>
<path d="M29.94 74.81H43.53V71.81H32.94V38.29H43.53V35.29H29.94V74.81Z" fill="#1B3139"/>
<path d="M83.54 38.29H94.13V71.81H83.54V74.81H97.13V35.29H83.54V38.29Z" fill="#1B3139"/>
</svg>
