<svg width="150" height="150" viewBox="0 0 150 150" fill="none" xmlns="http://www.w3.org/2000/svg">
<path d="M67.24 53.0098C67.24 44.6298 60.4501 37.8398 52.0701 37.8398C43.6901 37.8398 36.8999 44.6298 36.8999 53.0098C36.8999 61.3898 43.6901 68.1798 52.0701 68.1798C56.2601 68.1798 60.05 66.4798 62.8 63.7398" stroke="#1B3139" stroke-width="3" stroke-miterlimit="3" stroke-linecap="square"/>
<path d="M36.8899 52.2798H32.21C25.31 52.2798 19.72 46.6898 19.72 39.7898C19.72 32.8898 25.31 27.2998 32.21 27.2998H129.13" stroke="#1B3139" stroke-width="3" stroke-miterlimit="3" stroke-linecap="square"/>
<path d="M67.24 53.0098H82.6299V37.8398H112.97V68.1798H82.6299L67.51 83.2998H37.1599V113.65H67.51V98.4698H89.3201" stroke="#1B3139" stroke-width="3" stroke-miterlimit="3" stroke-linecap="square"/>
<path d="M122.31 19.3398L130.27 27.2998L122.31 35.2598" stroke="#1B3139" stroke-width="3" stroke-miterlimit="3" stroke-linecap="square"/>
<path d="M27.8301 132.14L19.8601 124.18L27.8301 116.22" stroke="#1B3139" stroke-width="3" stroke-miterlimit="3" stroke-linecap="square"/>
<path d="M82.6299 68.1801V61.8301" stroke="#1B3139" stroke-width="3" stroke-miterlimit="3" stroke-linecap="square"/>
<path d="M67.51 89.6598V83.2998" stroke="#1B3139" stroke-width="3" stroke-miterlimit="3" stroke-linecap="square"/>
<path d="M111.46 106.26L115.18 112.14H82.6201L97.79 84.27L106.65 98.47H117.64C124.54 98.47 130.13 104.06 130.13 110.96V111.69C130.13 118.59 124.54 124.18 117.64 124.18H20.98" stroke="#1B3139" stroke-width="3" stroke-miterlimit="3" stroke-linecap="square"/>
</svg>
