<svg width="1247" height="558" viewBox="0 0 1247 558" fill="none" xmlns="http://www.w3.org/2000/svg">
<g filter="url(#filter0_dddddd_1117_14130)">
<path d="M148 116.336C148 77.4903 179.49 46 218.336 46H339.664C378.51 46 410 77.4903 410 116.336V237.664C410 276.51 378.51 308 339.664 308H218.336C179.49 308 148 276.51 148 237.664V116.336Z" fill="white"/>
</g>
<path fill-rule="evenodd" clip-rule="evenodd" d="M242.438 244.5L346.5 244.5V182.625L242.438 182.625C225.351 182.625 211.5 196.476 211.5 213.562C211.5 230.649 225.351 244.5 242.438 244.5ZM242.438 227.625C250.204 227.625 256.5 221.329 256.5 213.562C256.5 205.796 250.204 199.5 242.438 199.5C234.671 199.5 228.375 205.796 228.375 213.562C228.375 221.329 234.671 227.625 242.438 227.625Z" fill="#FF5F46"/>
<path fill-rule="evenodd" clip-rule="evenodd" d="M315.562 171.375C332.649 171.375 346.5 157.524 346.5 140.438C346.5 123.351 332.649 109.5 315.562 109.5L211.5 109.5V171.375L315.562 171.375ZM315.562 154.5C323.329 154.5 329.625 148.204 329.625 140.438C329.625 132.671 323.329 126.375 315.562 126.375C307.796 126.375 301.5 132.671 301.5 140.438C301.5 148.204 307.796 154.5 315.562 154.5Z" fill="#FABFBA"/>
<path d="M481.838 214.5V137.22H506.789C515.768 137.22 523.165 138.802 528.979 141.967C534.867 145.132 539.21 149.622 542.006 155.436C544.877 161.177 546.312 168.022 546.312 175.97C546.312 183.772 544.877 190.58 542.006 196.394C539.21 202.135 534.867 206.588 528.979 209.753C523.165 212.918 515.768 214.5 506.789 214.5H481.838ZM495.086 203.239H506.126C512.824 203.239 518.086 202.172 521.914 200.038C525.814 197.83 528.574 194.702 530.194 190.654C531.886 186.532 532.733 181.638 532.733 175.97C532.733 170.23 531.886 165.335 530.194 161.287C528.574 157.166 525.814 154.001 521.914 151.793C518.086 149.511 512.824 148.37 506.126 148.37H495.086V203.239ZM574.041 215.825C569.478 215.825 565.688 215.052 562.67 213.506C559.653 211.961 557.408 209.9 555.936 207.324C554.464 204.748 553.728 201.951 553.728 198.934C553.728 195.401 554.611 192.346 556.377 189.77C558.217 187.194 560.904 185.207 564.437 183.809C567.969 182.337 572.312 181.601 577.464 181.601H591.485C591.485 178.657 591.08 176.228 590.27 174.314C589.461 172.327 588.209 170.855 586.517 169.898C584.824 168.942 582.653 168.463 580.003 168.463C576.985 168.463 574.409 169.162 572.275 170.561C570.141 171.886 568.816 173.946 568.301 176.743H555.273C555.715 172.769 557.04 169.383 559.248 166.586C561.456 163.716 564.363 161.508 567.969 159.962C571.649 158.343 575.661 157.534 580.003 157.534C585.229 157.534 589.681 158.454 593.361 160.294C597.041 162.06 599.838 164.636 601.752 168.022C603.739 171.334 604.733 175.345 604.733 180.055V214.5H593.472L592.147 205.558C591.411 207.03 590.454 208.391 589.277 209.642C588.173 210.894 586.885 211.998 585.413 212.954C583.941 213.838 582.248 214.537 580.334 215.052C578.494 215.567 576.397 215.825 574.041 215.825ZM577.022 205.337C579.157 205.337 581.033 204.969 582.653 204.233C584.345 203.423 585.781 202.319 586.958 200.921C588.209 199.449 589.166 197.83 589.829 196.063C590.491 194.297 590.933 192.42 591.153 190.433V190.212H578.899C576.323 190.212 574.189 190.543 572.496 191.206C570.803 191.794 569.589 192.678 568.853 193.855C568.117 195.033 567.749 196.394 567.749 197.94C567.749 199.486 568.117 200.81 568.853 201.914C569.589 203.018 570.656 203.865 572.054 204.454C573.453 205.042 575.109 205.337 577.022 205.337ZM638.891 214.5C635.137 214.5 631.862 213.911 629.065 212.734C626.342 211.556 624.208 209.606 622.662 206.882C621.117 204.159 620.344 200.479 620.344 195.842V170.009H610.849V158.858H620.344L621.889 144.175H633.592V158.858H648.717V170.009H633.592V195.842C633.592 198.639 634.181 200.59 635.358 201.694C636.609 202.724 638.67 203.239 641.541 203.239H648.385V214.5H638.891ZM676.416 215.825C671.853 215.825 668.062 215.052 665.045 213.506C662.027 211.961 659.782 209.9 658.31 207.324C656.838 204.748 656.102 201.951 656.102 198.934C656.102 195.401 656.985 192.346 658.752 189.77C660.592 187.194 663.278 185.207 666.811 183.809C670.344 182.337 674.686 181.601 679.838 181.601H693.859C693.859 178.657 693.454 176.228 692.645 174.314C691.835 172.327 690.584 170.855 688.891 169.898C687.198 168.942 685.027 168.463 682.377 168.463C679.36 168.463 676.784 169.162 674.649 170.561C672.515 171.886 671.19 173.946 670.675 176.743H657.648C658.089 172.769 659.414 169.383 661.622 166.586C663.83 163.716 666.737 161.508 670.344 159.962C674.024 158.343 678.035 157.534 682.377 157.534C687.603 157.534 692.056 158.454 695.736 160.294C699.416 162.06 702.213 164.636 704.126 168.022C706.113 171.334 707.107 175.345 707.107 180.055V214.5H695.846L694.521 205.558C693.785 207.03 692.829 208.391 691.651 209.642C690.547 210.894 689.259 211.998 687.787 212.954C686.315 213.838 684.622 214.537 682.709 215.052C680.869 215.567 678.771 215.825 676.416 215.825ZM679.397 205.337C681.531 205.337 683.408 204.969 685.027 204.233C686.72 203.423 688.155 202.319 689.333 200.921C690.584 199.449 691.541 197.83 692.203 196.063C692.865 194.297 693.307 192.42 693.528 190.433V190.212H681.273C678.697 190.212 676.563 190.543 674.87 191.206C673.177 191.794 671.963 192.678 671.227 193.855C670.491 195.033 670.123 196.394 670.123 197.94C670.123 199.486 670.491 200.81 671.227 201.914C671.963 203.018 673.03 203.865 674.429 204.454C675.827 205.042 677.483 205.337 679.397 205.337ZM749.746 215.825C746.802 215.825 744.152 215.42 741.797 214.61C739.442 213.874 737.381 212.844 735.614 211.519C733.848 210.121 732.376 208.538 731.198 206.772L729.763 214.5H717.95V135.012H731.198V167.028C732.965 164.305 735.357 162.06 738.374 160.294C741.392 158.454 745.146 157.534 749.635 157.534C754.861 157.534 759.461 158.822 763.435 161.398C767.483 163.9 770.648 167.359 772.93 171.775C775.285 176.118 776.462 181.122 776.462 186.79C776.462 192.31 775.322 197.278 773.04 201.694C770.758 206.11 767.594 209.569 763.546 212.071C759.571 214.574 754.971 215.825 749.746 215.825ZM746.986 204.343C750.077 204.343 752.837 203.607 755.266 202.135C757.694 200.59 759.571 198.529 760.896 195.953C762.294 193.303 762.994 190.212 762.994 186.679C762.994 183.22 762.294 180.166 760.896 177.516C759.571 174.866 757.694 172.806 755.266 171.334C752.837 169.862 750.077 169.126 746.986 169.126C743.821 169.126 741.024 169.862 738.595 171.334C736.24 172.806 734.363 174.866 732.965 177.516C731.64 180.166 730.978 183.22 730.978 186.679C730.978 190.212 731.64 193.303 732.965 195.953C734.363 198.529 736.24 200.59 738.595 202.135C741.024 203.607 743.821 204.343 746.986 204.343ZM786.01 214.5V158.858H797.823L799.037 169.236C800.362 166.807 802.018 164.746 804.005 163.054C805.993 161.287 808.311 159.926 810.961 158.969C813.684 158.012 816.665 157.534 819.903 157.534V171.554H815.266C813.058 171.554 810.961 171.849 808.973 172.438C806.986 172.953 805.257 173.836 803.785 175.087C802.386 176.265 801.282 177.921 800.473 180.055C799.663 182.116 799.258 184.729 799.258 187.894V214.5H786.01ZM827.13 214.5V158.858H840.378V214.5H827.13ZM833.754 150.026C831.325 150.026 829.301 149.29 827.682 147.818C826.136 146.273 825.364 144.396 825.364 142.188C825.364 139.906 826.136 138.066 827.682 136.668C829.301 135.196 831.325 134.46 833.754 134.46C836.183 134.46 838.17 135.196 839.716 136.668C841.335 138.066 842.144 139.906 842.144 142.188C842.144 144.396 841.335 146.273 839.716 147.818C838.17 149.29 836.183 150.026 833.754 150.026ZM878.761 215.825C873.315 215.825 868.42 214.61 864.078 212.182C859.809 209.679 856.46 206.257 854.031 201.914C851.676 197.498 850.499 192.494 850.499 186.9C850.499 181.086 851.676 176.007 854.031 171.665C856.46 167.249 859.809 163.79 864.078 161.287C868.42 158.785 873.351 157.534 878.871 157.534C885.79 157.534 891.604 159.374 896.315 163.054C901.025 166.66 904.043 171.628 905.367 177.958H891.457C890.721 175.161 889.175 172.953 886.82 171.334C884.539 169.714 881.815 168.905 878.651 168.905C875.927 168.905 873.425 169.604 871.143 171.002C868.935 172.401 867.169 174.425 865.844 177.074C864.593 179.724 863.967 182.926 863.967 186.679C863.967 189.55 864.335 192.089 865.071 194.297C865.807 196.505 866.838 198.382 868.163 199.927C869.561 201.399 871.143 202.54 872.91 203.35C874.676 204.159 876.59 204.564 878.651 204.564C880.785 204.564 882.699 204.233 884.391 203.57C886.158 202.834 887.63 201.767 888.807 200.369C890.059 198.97 890.942 197.314 891.457 195.401H905.367C904.043 201.583 901.025 206.551 896.315 210.305C891.604 213.985 885.753 215.825 878.761 215.825ZM950.709 214.5L926.09 184.03L948.17 158.858H963.957L936.467 189.439V179.172L967.269 214.5H950.709ZM914.829 214.5V135.012H928.077V214.5H914.829ZM992.25 215.825C987.318 215.825 983.013 215.052 979.333 213.506C975.726 211.887 972.856 209.679 970.722 206.882C968.661 204.012 967.446 200.737 967.078 197.057H980.326C980.694 198.602 981.357 200.038 982.314 201.362C983.27 202.614 984.558 203.607 986.178 204.343C987.87 205.079 989.858 205.447 992.139 205.447C994.347 205.447 996.15 205.153 997.549 204.564C998.947 203.902 999.978 203.055 1000.64 202.025C1001.3 200.994 1001.63 199.89 1001.63 198.713C1001.63 196.946 1001.16 195.585 1000.2 194.628C999.242 193.671 997.843 192.935 996.003 192.42C994.237 191.831 992.102 191.279 989.6 190.764C986.95 190.249 984.374 189.623 981.872 188.887C979.443 188.078 977.235 187.084 975.248 185.906C973.334 184.729 971.789 183.22 970.611 181.38C969.507 179.54 968.955 177.295 968.955 174.646C968.955 171.407 969.802 168.5 971.494 165.924C973.261 163.348 975.763 161.324 979.002 159.852C982.314 158.306 986.251 157.534 990.814 157.534C997.291 157.534 1002.44 159.042 1006.27 162.06C1010.17 165.004 1012.45 169.162 1013.12 174.535H1000.53C1000.16 172.474 999.131 170.892 997.438 169.788C995.746 168.61 993.501 168.022 990.704 168.022C987.834 168.022 985.626 168.574 984.08 169.678C982.608 170.708 981.872 172.106 981.872 173.873C981.872 174.977 982.314 176.007 983.197 176.964C984.154 177.847 985.515 178.62 987.282 179.282C989.048 179.871 991.219 180.46 993.795 181.049C997.917 181.858 1001.56 182.815 1004.72 183.919C1007.89 185.023 1010.39 186.642 1012.23 188.777C1014.07 190.911 1014.99 193.929 1014.99 197.83C1015.07 201.362 1014.15 204.49 1012.23 207.214C1010.39 209.937 1007.78 212.071 1004.39 213.617C1001.01 215.089 996.96 215.825 992.25 215.825ZM1074.56 215.825C1068.97 215.825 1064 214.831 1059.66 212.844C1055.31 210.857 1051.93 208.023 1049.5 204.343C1047.07 200.663 1045.82 196.284 1045.75 191.206H1059.77C1059.77 193.782 1060.36 196.1 1061.53 198.161C1062.79 200.148 1064.48 201.73 1066.61 202.908C1068.82 204.086 1071.47 204.674 1074.56 204.674C1077.21 204.674 1079.49 204.27 1081.41 203.46C1083.39 202.577 1084.9 201.362 1085.93 199.817C1087.04 198.198 1087.59 196.321 1087.59 194.186C1087.59 191.758 1087 189.77 1085.82 188.225C1084.72 186.606 1083.17 185.244 1081.19 184.14C1079.2 183.036 1076.92 182.079 1074.34 181.27C1071.76 180.386 1069.04 179.466 1066.17 178.51C1060.06 176.449 1055.46 173.836 1052.37 170.671C1049.28 167.433 1047.73 163.127 1047.73 157.754C1047.73 153.265 1048.8 149.401 1050.94 146.162C1053.07 142.924 1056.05 140.422 1059.88 138.655C1063.78 136.815 1068.27 135.895 1073.35 135.895C1078.5 135.895 1082.99 136.815 1086.82 138.655C1090.72 140.495 1093.77 143.071 1095.98 146.383C1098.26 149.622 1099.44 153.522 1099.51 158.086H1085.38C1085.31 156.172 1084.79 154.406 1083.83 152.786C1082.88 151.094 1081.48 149.732 1079.64 148.702C1077.87 147.598 1075.7 147.046 1073.13 147.046C1070.92 146.972 1068.93 147.34 1067.16 148.15C1065.47 148.886 1064.11 149.99 1063.08 151.462C1062.12 152.86 1061.64 154.626 1061.64 156.761C1061.64 158.822 1062.09 160.551 1062.97 161.95C1063.93 163.274 1065.29 164.415 1067.05 165.372C1068.82 166.255 1070.88 167.102 1073.24 167.911C1075.59 168.721 1078.17 169.604 1080.96 170.561C1084.79 171.812 1088.25 173.358 1091.34 175.198C1094.51 176.964 1097.01 179.282 1098.85 182.153C1100.69 185.023 1101.61 188.74 1101.61 193.303C1101.61 197.278 1100.58 200.994 1098.52 204.454C1096.46 207.839 1093.44 210.599 1089.47 212.734C1085.49 214.794 1080.52 215.825 1074.56 215.825ZM1165.39 226.092L1137.9 183.036H1153.13L1181.06 226.092H1165.39ZM1146.4 215.825C1138.96 215.825 1132.38 214.169 1126.63 210.857C1120.97 207.471 1116.51 202.798 1113.28 196.836C1110.04 190.801 1108.42 183.809 1108.42 175.86C1108.42 167.985 1110.04 161.066 1113.28 155.105C1116.51 149.07 1120.97 144.359 1126.63 140.974C1132.38 137.588 1138.96 135.895 1146.4 135.895C1153.98 135.895 1160.64 137.588 1166.38 140.974C1172.12 144.359 1176.57 149.07 1179.74 155.105C1182.9 161.066 1184.48 167.985 1184.48 175.86C1184.48 183.809 1182.9 190.801 1179.74 196.836C1176.57 202.798 1172.12 207.471 1166.38 210.857C1160.64 214.169 1153.98 215.825 1146.4 215.825ZM1146.51 203.902C1151.44 203.902 1155.74 202.798 1159.42 200.59C1163.1 198.308 1165.94 195.07 1167.92 190.874C1169.91 186.679 1170.91 181.674 1170.91 175.86C1170.91 170.046 1169.91 165.041 1167.92 160.846C1165.94 156.65 1163.1 153.449 1159.42 151.241C1155.74 148.959 1151.44 147.818 1146.51 147.818C1141.58 147.818 1137.27 148.959 1133.59 151.241C1129.91 153.449 1127.04 156.65 1124.98 160.846C1122.99 165.041 1122 170.046 1122 175.86C1122 181.674 1122.99 186.679 1124.98 190.874C1127.04 195.07 1129.91 198.308 1133.59 200.59C1137.27 202.798 1141.58 203.902 1146.51 203.902ZM1194.12 214.5V137.22H1207.36V204.122H1241.81V214.5H1194.12Z" fill="#1B3139"/>
<defs>
<filter id="filter0_dddddd_1117_14130" x="0.713516" y="0.681084" width="556.573" height="556.573" filterUnits="userSpaceOnUse" color-interpolation-filters="sRGB">
<feFlood flood-opacity="0" result="BackgroundImageFix"/>
<feColorMatrix in="SourceAlpha" type="matrix" values="0 0 0 0 0 0 0 0 0 0 0 0 0 0 0 0 0 0 127 0" result="hardAlpha"/>
<feOffset dy="2.83243"/>
<feGaussianBlur stdDeviation="2.12432"/>
<feColorMatrix type="matrix" values="0 0 0 0 0.105882 0 0 0 0 0.192157 0 0 0 0 0.223529 0 0 0 0.0196802 0"/>
<feBlend mode="normal" in2="BackgroundImageFix" result="effect1_dropShadow_1117_14130"/>
<feColorMatrix in="SourceAlpha" type="matrix" values="0 0 0 0 0 0 0 0 0 0 0 0 0 0 0 0 0 0 127 0" result="hardAlpha"/>
<feOffset dy="5.66487"/>
<feGaussianBlur stdDeviation="5.66487"/>
<feColorMatrix type="matrix" values="0 0 0 0 0.105882 0 0 0 0 0.192157 0 0 0 0 0.223529 0 0 0 0.04 0"/>
<feBlend mode="normal" in2="effect1_dropShadow_1117_14130" result="effect2_dropShadow_1117_14130"/>
<feColorMatrix in="SourceAlpha" type="matrix" values="0 0 0 0 0 0 0 0 0 0 0 0 0 0 0 0 0 0 127 0" result="hardAlpha"/>
<feOffset dy="12.7459"/>
<feGaussianBlur stdDeviation="9.20541"/>
<feColorMatrix type="matrix" values="0 0 0 0 0.105882 0 0 0 0 0.192157 0 0 0 0 0.223529 0 0 0 0.035 0"/>
<feBlend mode="normal" in2="effect2_dropShadow_1117_14130" result="effect3_dropShadow_1117_14130"/>
<feColorMatrix in="SourceAlpha" type="matrix" values="0 0 0 0 0 0 0 0 0 0 0 0 0 0 0 0 0 0 127 0" result="hardAlpha"/>
<feOffset dy="22.6595"/>
<feGaussianBlur stdDeviation="16.9946"/>
<feColorMatrix type="matrix" values="0 0 0 0 0.105882 0 0 0 0 0.192157 0 0 0 0 0.223529 0 0 0 0.04 0"/>
<feBlend mode="normal" in2="effect3_dropShadow_1117_14130" result="effect4_dropShadow_1117_14130"/>
<feColorMatrix in="SourceAlpha" type="matrix" values="0 0 0 0 0 0 0 0 0 0 0 0 0 0 0 0 0 0 127 0" result="hardAlpha"/>
<feOffset dy="45.3189"/>
<feGaussianBlur stdDeviation="28.3243"/>
<feColorMatrix type="matrix" values="0 0 0 0 0.105882 0 0 0 0 0.192157 0 0 0 0 0.223529 0 0 0 0.0503198 0"/>
<feBlend mode="normal" in2="effect4_dropShadow_1117_14130" result="effect5_dropShadow_1117_14130"/>
<feColorMatrix in="SourceAlpha" type="matrix" values="0 0 0 0 0 0 0 0 0 0 0 0 0 0 0 0 0 0 127 0" result="hardAlpha"/>
<feOffset dy="101.968"/>
<feGaussianBlur stdDeviation="73.6432"/>
<feColorMatrix type="matrix" values="0 0 0 0 0.105882 0 0 0 0 0.192157 0 0 0 0 0.223529 0 0 0 0.07 0"/>
<feBlend mode="normal" in2="effect5_dropShadow_1117_14130" result="effect6_dropShadow_1117_14130"/>
<feBlend mode="normal" in="SourceGraphic" in2="effect6_dropShadow_1117_14130" result="shape"/>
</filter>
</defs>
</svg>
