<svg width="150" height="150" viewBox="0 0 150 150" fill="none" xmlns="http://www.w3.org/2000/svg">
<path d="M45.8 111.4H116.7V26.8999H101.2V29.8999H113.7V108.5H45.8C42 108.5 38.6 110.2 36.3 112.9V39.2999C36.3 34.0999 40.6 29.7999 45.8 29.7999H78.6V26.7999H45.8C38.9 26.7999 33.3 32.3999 33.3 39.2999V120.9C33.3 127.8 38.9 133.4 45.8 133.4H116.7V120.1H42.3V123.1H113.7V130.4H45.8C40.6 130.4 36.3 126.1 36.3 120.9C36.3 115.7 40.6 111.4 45.8 111.4Z" fill="white"/>
<path d="M53.5 32.7999H50.5V105.7H53.5V32.7999Z" fill="white"/>
<path d="M97 82.2V18.5C97 16.6 95.7 15.1 94.1 15.1H85.3C83.7 15.1 82.4 16.6 82.4 18.5V82.2L89.7 97.5L97 82.2ZM85.4 18.5C85.4 18.3 85.4 18.1 85.5 18.1H93.9C93.9 18.2 94 18.3 94 18.5V26.9H85.5V18.5H85.4ZM85.4 29.8H94V80.3H85.5V29.8H85.4ZM93.1 83.4L89.7 90.5L86.3 83.4H93.1Z" fill="white"/>
</svg>
