<svg width="150" height="150" viewBox="0 0 150 150" fill="none" xmlns="http://www.w3.org/2000/svg">
<path d="M45.8 111.4H116.7V26.9003H101.2V29.9003H113.7V108.5H45.8C42 108.5 38.6 110.2 36.3 112.9V39.3003C36.3 34.1003 40.6 29.8003 45.8 29.8003H78.6V26.8003H45.8C38.9 26.8003 33.3 32.4003 33.3 39.3003V120.9C33.3 127.8 38.9 133.4 45.8 133.4H116.7V120.1H42.3V123.1H113.7V130.4H45.8C40.6 130.4 36.3 126.1 36.3 120.9C36.3 115.7 40.6 111.4 45.8 111.4Z" fill="#FF5F46"/>
<path d="M53.5 32.8003H50.5V105.7H53.5V32.8003Z" fill="#FF5F46"/>
<path d="M97 82.2001V18.5001C97 16.6001 95.7 15.1001 94.1 15.1001H85.3C83.7 15.1001 82.4 16.6001 82.4 18.5001V82.2001L89.7 97.5001L97 82.2001ZM85.4 18.5001C85.4 18.3001 85.4 18.1001 85.5 18.1001H93.9C93.9 18.2001 94 18.3001 94 18.5001V26.9001H85.5V18.5001H85.4ZM85.4 29.8001H94V80.3001H85.5V29.8001H85.4ZM93.1 83.4001L89.7 90.5001L86.3 83.4001H93.1Z" fill="#FF5F46"/>
</svg>
