<svg width="150" height="150" viewBox="0 0 150 150" fill="none" xmlns="http://www.w3.org/2000/svg">
<path d="M23.31 83.0602L19.27 79.0302L23.31 74.9902" stroke="white" stroke-width="3" stroke-miterlimit="3" stroke-linecap="square"/>
<path d="M37.98 74.9902L42.02 79.0302L37.98 83.0602" stroke="white" stroke-width="3" stroke-miterlimit="3" stroke-linecap="square"/>
<path d="M32.8499 73.5303L28.6899 84.3203" stroke="white" stroke-width="3" stroke-miterlimit="3" stroke-linecap="square"/>
<path d="M133.84 87.47L128.67 82.31C130.65 77.28 128.18 71.59 123.15 69.61C120.86 68.71 118.31 68.7 116.01 69.59L122.26 75.84L121.93 76.18L116.99 81.09L116.66 81.43L110.41 75.18C108.44 80.22 110.93 85.9 115.97 87.86C118.26 88.75 120.8 88.75 123.09 87.86L128.51 93.27" stroke="white" stroke-width="3" stroke-miterlimit="3" stroke-linecap="square"/>
<path d="M41.2499 93.5201C49.5899 87.9401 51.8399 76.6601 46.2599 68.3101C40.6799 59.9701 29.3999 57.7201 21.0499 63.3001C12.7099 68.8801 10.4598 80.1601 16.0398 88.5101C19.4098 93.5501 25.0599 96.5701 31.1199 96.5801" stroke="white" stroke-width="3" stroke-miterlimit="3" stroke-linecap="square"/>
<path d="M129 93.5197C137.32 87.9097 139.53 76.6197 133.92 68.2997C128.31 59.9797 117.02 57.7697 108.7 63.3797C100.38 68.9897 98.1701 80.2797 103.78 88.5997C107.16 93.6097 112.81 96.6197 118.86 96.6197" stroke="white" stroke-width="3" stroke-miterlimit="3" stroke-linecap="square"/>
<path d="M48.5401 108.91V122.95C38.9101 122.95 31.1001 115.14 31.1001 105.51V96.5801" stroke="white" stroke-width="3" stroke-miterlimit="3" stroke-linecap="square"/>
<path d="M88.5001 43.1901L94.6601 49.3501L111.37 32.6301C105.76 24.3201 94.4701 22.1301 86.1501 27.7401C77.8401 33.3501 75.6501 44.6401 81.2601 52.9601C86.8701 61.2701 98.1601 63.4601 106.48 57.8501C111.48 54.4701 114.48 48.8301 114.48 42.7901" stroke="white" stroke-width="3" stroke-miterlimit="3" stroke-linecap="square"/>
<path d="M65.92 54.7298L42.02 30.8198" stroke="white" stroke-width="3" stroke-miterlimit="3" stroke-linecap="square"/>
<path d="M54.0099 24.6299C43.9699 24.6399 35.8499 32.7899 35.8599 42.8199C35.8599 47.6199 37.7699 52.2299 41.1599 55.6299L66.8299 29.9499C73.9199 37.0499 73.9099 48.5599 66.8099 55.6499C63.4099 59.0399 58.8099 60.9499 54.0099 60.9599" stroke="white" stroke-width="3" stroke-miterlimit="3" stroke-linecap="square"/>
<path d="M101.43 108.91V122.95C111.06 122.95 118.87 115.14 118.87 105.51V96.5801" stroke="white" stroke-width="3" stroke-miterlimit="3" stroke-linecap="square"/>
<path d="M48.54 108.91C48.68 99.9499 55.9901 92.7499 64.9501 92.7499C58.3001 87.1599 57.4501 77.2499 63.0301 70.5999C66.1201 66.9199 70.7201 64.8599 75.5301 64.9999C84.1701 65.3399 90.9501 72.5199 90.8001 81.1699C90.6901 85.6499 88.6701 89.8599 85.2501 92.7499C94.1701 92.7399 101.41 99.9699 101.42 108.89C101.42 108.89 101.42 108.9 101.42 108.91" stroke="white" stroke-width="3" stroke-miterlimit="1" stroke-linecap="square"/>
<path d="M87.7502 93.2698C86.4902 100.25 79.8202 104.9 72.8302 103.64C67.4802 102.68 63.3102 98.4498 62.4302 93.0898" stroke="white" stroke-width="3" stroke-miterlimit="1" stroke-linecap="square"/>
<path d="M83.1499 112.26H92.8099" stroke="white" stroke-width="3" stroke-miterlimit="3" stroke-linecap="square"/>
</svg>
