<svg width="150" height="150" viewBox="0 0 150 150" fill="none" xmlns="http://www.w3.org/2000/svg">
<path d="M106.7 59.5C106.7 54.5 102.6 50.4 97.6 50.4C92.6 50.4 88.5 54.5 88.5 59.5C88.5 62.8 90.3 65.7 92.9 67.3L74.9 123.8L77.8 124.7L83.1 108.1H112.1L117.4 124.7L120.3 123.8L102.3 67.3C104.9 65.7 106.7 62.8 106.7 59.5ZM97.6 53.4C100.9 53.4 103.7 56.1 103.7 59.5C103.7 62.9 101 65.6 97.6 65.6C94.2 65.6 91.5 62.9 91.5 59.5C91.5 56.1 94.3 53.4 97.6 53.4ZM84 105.1L89.5 87.9H105.7L111.2 105.1H84ZM104.7 84.9H90.5L95.7 68.3C96.3 68.4 96.9 68.5 97.6 68.5C98.2 68.5 98.9 68.4 99.5 68.3L104.7 84.9Z" fill="white"/>
<path d="M82.8 44.6C74.6 52.8 74.6 66.1 82.8 74.3L84.9 72.2C77.9 65.2 77.9 53.8 84.9 46.8L82.8 44.6Z" fill="white"/>
<path d="M112.4 74.2999C116.4 70.2999 118.5 65.1 118.5 59.5C118.5 53.9 116.3 48.6 112.4 44.7L110.3 46.7999C113.7 50.1999 115.6 54.7 115.6 59.5C115.6 64.3 113.7 68.8 110.3 72.2L112.4 74.2999Z" fill="white"/>
<path d="M73.7 35.6C67.3 42 63.8 50.4 63.8 59.5C63.8 68.6 67.3 77 73.7 83.4L75.8 81.3C70 75.5 66.8 67.8 66.8 59.6C66.8 51.4 70 43.7 75.8 37.9L73.7 35.6Z" fill="white"/>
<path d="M121.5 35.6L119.4 37.7C125.2 43.5 128.4 51.2 128.4 59.4C128.4 67.6 125.2 75.3 119.4 81.1L121.5 83.2C127.9 76.8 131.4 68.4 131.4 59.3C131.4 50.2 127.8 42 121.5 35.6Z" fill="white"/>
<path d="M95.7 123.5C95.7 127.6 92.4 130.9 88.3 130.9H39.1C35 130.9 31.7 127.6 31.7 123.5V27.4C31.7 23.3 35 20 39.1 20H45.1V22.5C45.1 26.7 48.5 30.2 52.8 30.2H74.6C78.8 30.2 82.3 26.8 82.3 22.5V20H88.3C92.4 20 95.7 23.3 95.7 27.4V39.2H98.7V27.4C98.7 21.6 94 17 88.3 17H39.1C33.3 17 28.7 21.7 28.7 27.4V123.5C28.7 129.3 33.4 133.9 39.1 133.9H88.2C94 133.9 98.6 129.2 98.6 123.5V114.7H95.6V123.5H95.7ZM79.2 22.4C79.2 25 77.1 27.1 74.5 27.1H52.8C50.2 27.1 48.1 25 48.1 22.4V19.9H79.3V22.4H79.2Z" fill="white"/>
</svg>
