<svg width="150" height="150" viewBox="0 0 150 150" fill="none" xmlns="http://www.w3.org/2000/svg">
<path d="M106.7 59.4999C106.7 54.4999 102.6 50.3999 97.5999 50.3999C92.5999 50.3999 88.4999 54.4999 88.4999 59.4999C88.4999 62.7999 90.2999 65.6999 92.8999 67.2999L74.8999 123.8L77.7999 124.7L83.0999 108.1H112.1L117.4 124.7L120.3 123.8L102.3 67.2999C104.9 65.6999 106.7 62.7999 106.7 59.4999ZM97.5999 53.3999C100.9 53.3999 103.7 56.0999 103.7 59.4999C103.7 62.8999 101 65.5999 97.5999 65.5999C94.1999 65.5999 91.4999 62.8999 91.4999 59.4999C91.4999 56.0999 94.2999 53.3999 97.5999 53.3999ZM83.9999 105.1L89.4999 87.8999H105.7L111.2 105.1H83.9999ZM104.7 84.8999H90.4999L95.6999 68.2999C96.2999 68.3999 96.8999 68.4999 97.5999 68.4999C98.1999 68.4999 98.8999 68.3999 99.4999 68.2999L104.7 84.8999Z" fill="#FF5F46"/>
<path d="M82.7999 44.6001C74.5999 52.8001 74.5999 66.1001 82.7999 74.3001L84.8999 72.2001C77.8999 65.2001 77.8999 53.8001 84.8999 46.8001L82.7999 44.6001Z" fill="#FF5F46"/>
<path d="M112.4 74.3002C116.4 70.3002 118.5 65.1002 118.5 59.5002C118.5 53.9002 116.3 48.6002 112.4 44.7002L110.3 46.8002C113.7 50.2002 115.6 54.7002 115.6 59.5002C115.6 64.3002 113.7 68.8002 110.3 72.2002L112.4 74.3002Z" fill="#FF5F46"/>
<path d="M73.6999 35.6001C67.2999 42.0001 63.7999 50.4001 63.7999 59.5001C63.7999 68.6001 67.2999 77.0001 73.6999 83.4001L75.7999 81.3001C69.9999 75.5001 66.7999 67.8001 66.7999 59.6001C66.7999 51.4001 69.9999 43.7001 75.7999 37.9001L73.6999 35.6001Z" fill="#FF5F46"/>
<path d="M121.5 35.6001L119.4 37.7001C125.2 43.5001 128.4 51.2001 128.4 59.4001C128.4 67.6001 125.2 75.3001 119.4 81.1001L121.5 83.2001C127.9 76.8001 131.4 68.4001 131.4 59.3001C131.4 50.2001 127.8 42.0001 121.5 35.6001Z" fill="#FF5F46"/>
<path d="M95.7 123.5C95.7 127.6 92.4 130.9 88.3 130.9H39.0999C34.9999 130.9 31.7 127.6 31.7 123.5V27.4C31.7 23.3 34.9999 20 39.0999 20H45.0999V22.5C45.0999 26.7 48.5 30.2 52.7999 30.2H74.5999C78.7999 30.2 82.3 26.8 82.3 22.5V20H88.3C92.4 20 95.7 23.3 95.7 27.4V39.2H98.7V27.4C98.7 21.6 94 17 88.3 17H39.0999C33.2999 17 28.7 21.7 28.7 27.4V123.5C28.7 129.3 33.3999 133.9 39.0999 133.9H88.1999C93.9999 133.9 98.5999 129.2 98.5999 123.5V114.7H95.5999V123.5H95.7ZM79.1999 22.4C79.1999 25 77.0999 27.1 74.5 27.1H52.7999C50.1999 27.1 48.0999 25 48.0999 22.4V19.9H79.3V22.4H79.1999Z" fill="#FF5F46"/>
</svg>
