<svg width="150" height="150" viewBox="0 0 150 150" fill="none" xmlns="http://www.w3.org/2000/svg">
<g clip-path="url(#clip0_5483_2060)">
<path d="M62.62 132.7C35.98 127.01 16 103.34 16 75C16 42.42 42.42 16 75 16C107.58 16 134 42.42 134 75C134 107.58 107.58 134 75 134" stroke="#FF5F46" stroke-width="3" stroke-miterlimit="3" stroke-linecap="square"/>
<path d="M61.72 62.8698H50.5V57.2598C50.5 43.7498 61.49 32.7598 75 32.7598C88.51 32.7598 99.5 43.7498 99.5 57.2598C99.5 68.8398 91.42 78.5698 80.61 81.1098V98.1998H69.39V70.5398H75C82.32 70.5398 88.28 64.5798 88.28 57.2598C88.28 49.9398 82.32 43.9798 75 43.9798C68.21 43.9798 62.59 49.1098 61.81 55.6998" stroke="#FF5F46" stroke-width="3" stroke-miterlimit="3" stroke-linecap="square"/>
<path d="M75 119.24C79.0316 119.24 82.3 115.972 82.3 111.94C82.3 107.908 79.0316 104.64 75 104.64C70.9683 104.64 67.7 107.908 67.7 111.94C67.7 115.972 70.9683 119.24 75 119.24Z" stroke="#FF5F46" stroke-width="3" stroke-miterlimit="3" stroke-linecap="square"/>
<path d="M75 134V119.24" stroke="#FF5F46" stroke-width="3" stroke-miterlimit="3" stroke-linecap="square"/>
</g>
<defs>
<clipPath id="clip0_5483_2060">
<rect width="150" height="150" fill="white"/>
</clipPath>
</defs>
</svg>
