<svg width="150" height="150" viewBox="0 0 150 150" fill="none" xmlns="http://www.w3.org/2000/svg">
<path d="M101.6 29.1H83V47.5H46.7V37.1H43.7V50.5H86V32.1H100.3L117.9 49.7V115.4C117.9 116.8 116.8 117.9 115.4 117.9H55V120.9H115.4C118.4 120.9 120.9 118.4 120.9 115.4V48.4L101.6 29.1Z" fill="white"/>
<path d="M103.3 81.6V103.5H58.1V95.5H96.1V92.5H55.1V106.5H106.2V65.2H43.7V118H34.6C33.2 118 32.1 116.9 32.1 115.5V34.6C32.1 33.2 33.2 32.1 34.6 32.1H76.4V29.1H34.6C31.6 29.1 29.1 31.6 29.1 34.6V115.4C29.1 118.4 31.6 120.9 34.6 120.9H46.7V81.6H103.3V81.6ZM103.3 68.2V78.6H46.7V68.2H103.3Z" fill="white"/>
</svg>
