<svg width="150" height="150" viewBox="0 0 150 150" fill="none" xmlns="http://www.w3.org/2000/svg">
<path d="M101.6 29.1001H83V47.5001H46.7V37.1001H43.7V50.5001H86V32.1001H100.3L117.9 49.7001V115.4C117.9 116.8 116.8 117.9 115.4 117.9H55V120.9H115.4C118.4 120.9 120.9 118.4 120.9 115.4V48.4001L101.6 29.1001Z" fill="#FF5F46"/>
<path d="M103.3 81.6001V103.5H58.1V95.5001H96.1V92.5001H55.1V106.5H106.2V65.2001H43.7V118H34.6C33.2 118 32.1 116.9 32.1 115.5V34.6001C32.1 33.2001 33.2 32.1001 34.6 32.1001H76.4V29.1001H34.6C31.6 29.1001 29.1 31.6001 29.1 34.6001V115.4C29.1 118.4 31.6 120.9 34.6 120.9H46.7V81.6001H103.3ZM103.3 68.2001V78.6001H46.7V68.2001H103.3Z" fill="#FF5F46"/>
</svg>
