<svg width="882" height="300" viewBox="0 0 882 300" fill="none" xmlns="http://www.w3.org/2000/svg">
<path d="M37.5 65.625C37.5 81.158 50.092 93.75 65.625 93.75V93.75C81.158 93.75 93.75 81.158 93.75 65.625V65.625C93.75 50.092 81.158 37.5 65.625 37.5V37.5C50.092 37.5 37.5 50.092 37.5 65.625V65.625Z" fill="#FF5F46"/>
<path d="M206.25 150C206.25 165.533 218.842 178.125 234.375 178.125V178.125C249.908 178.125 262.5 165.533 262.5 150V150C262.5 134.467 249.908 121.875 234.375 121.875V121.875C218.842 121.875 206.25 134.467 206.25 150V150Z" fill="#FF5F46"/>
<path d="M37.5 234.375C37.5 249.908 50.092 262.5 65.625 262.5V262.5C81.158 262.5 93.75 249.908 93.75 234.375V234.375C93.75 218.842 81.158 206.25 65.625 206.25V206.25C50.092 206.25 37.5 218.842 37.5 234.375V234.375Z" fill="#FF5F46"/>
<path d="M116.762 93.75L262.5 93.75L262.5 37.5L116.762 37.5L116.762 93.75Z" fill="#FABFBA"/>
<rect width="145.739" height="56.25" transform="matrix(1 8.20662e-08 9.31289e-08 -1 37.5 178.125)" fill="#FABFBA"/>
<rect width="145.739" height="56.25" transform="matrix(1 8.36077e-08 9.515e-08 -1 116.762 262.5)" fill="#FABFBA"/>
<path d="M340.501 138V60.72H360.373C369.352 60.72 376.749 62.3024 382.563 65.4672C388.451 68.5584 392.794 73.0112 395.59 78.8256C398.461 84.5664 399.896 91.4848 399.896 99.5808C399.896 107.53 398.461 114.374 395.59 120.115C392.794 125.856 388.451 130.272 382.563 133.363C376.749 136.454 369.352 138 360.373 138H340.501ZM349.774 130.272H360.152C367.586 130.272 373.51 129.058 377.926 126.629C382.342 124.126 385.507 120.594 387.421 116.03C389.334 111.394 390.291 105.91 390.291 99.5808C390.291 93.104 389.334 87.5472 387.421 82.9104C385.507 78.2736 382.342 74.704 377.926 72.2016C373.51 69.6992 367.586 68.448 360.152 68.448H349.774V130.272ZM427.945 139.325C423.529 139.325 419.849 138.515 416.905 136.896C413.961 135.203 411.753 132.995 410.281 130.272C408.809 127.475 408.073 124.494 408.073 121.33C408.073 117.502 409.029 114.264 410.943 111.614C412.93 108.891 415.69 106.83 419.223 105.432C422.756 104.034 426.877 103.334 431.588 103.334H446.05C446.05 99.5808 445.609 96.4528 444.725 93.9504C443.842 91.448 442.407 89.5712 440.42 88.32C438.433 87.0688 435.783 86.4432 432.471 86.4432C429.159 86.4432 426.325 87.2896 423.97 88.9824C421.615 90.6016 420.143 93.0304 419.554 96.2688H410.06C410.501 92.4416 411.789 89.24 413.924 86.664C416.058 84.0144 418.745 82.0272 421.983 80.7024C425.295 79.304 428.791 78.6048 432.471 78.6048C437.697 78.6048 442.002 79.5616 445.388 81.4752C448.773 83.3152 451.276 85.928 452.895 89.3136C454.514 92.6256 455.324 96.5632 455.324 101.126V138H447.044L446.492 128.064C445.756 129.61 444.799 131.082 443.621 132.48C442.517 133.805 441.193 134.982 439.647 136.013C438.101 137.043 436.335 137.853 434.348 138.442C432.434 139.03 430.3 139.325 427.945 139.325ZM429.269 131.486C431.698 131.486 433.943 130.934 436.004 129.83C438.065 128.726 439.831 127.254 441.303 125.414C442.849 123.501 444.026 121.366 444.836 119.011C445.645 116.656 446.05 114.19 446.05 111.614V110.51H432.361C428.901 110.51 426.068 110.952 423.86 111.835C421.725 112.718 420.18 113.97 419.223 115.589C418.266 117.134 417.788 118.901 417.788 120.888C417.788 123.022 418.229 124.899 419.113 126.518C419.996 128.064 421.284 129.278 422.977 130.162C424.743 131.045 426.841 131.486 429.269 131.486ZM488.345 138C485.033 138 482.163 137.485 479.734 136.454C477.305 135.424 475.429 133.694 474.104 131.266C472.853 128.763 472.227 125.414 472.227 121.219V87.768H462.07V79.9296H472.227L473.441 65.4672H481.501V79.9296H497.95V87.768H481.501V121.219C481.501 124.678 482.2 127.034 483.598 128.285C484.997 129.462 487.462 130.051 490.995 130.051H497.729V138H488.345ZM525.467 139.325C521.051 139.325 517.371 138.515 514.427 136.896C511.483 135.203 509.275 132.995 507.803 130.272C506.331 127.475 505.595 124.494 505.595 121.33C505.595 117.502 506.552 114.264 508.466 111.614C510.453 108.891 513.213 106.83 516.746 105.432C520.279 104.034 524.4 103.334 529.111 103.334H543.573C543.573 99.5808 543.131 96.4528 542.248 93.9504C541.365 91.448 539.93 89.5712 537.943 88.32C535.955 87.0688 533.306 86.4432 529.994 86.4432C526.682 86.4432 523.848 87.2896 521.493 88.9824C519.138 90.6016 517.666 93.0304 517.077 96.2688H507.583C508.024 92.4416 509.312 89.24 511.447 86.664C513.581 84.0144 516.267 82.0272 519.506 80.7024C522.818 79.304 526.314 78.6048 529.994 78.6048C535.219 78.6048 539.525 79.5616 542.911 81.4752C546.296 83.3152 548.799 85.928 550.418 89.3136C552.037 92.6256 552.847 96.5632 552.847 101.126V138H544.567L544.015 128.064C543.279 129.61 542.322 131.082 541.144 132.48C540.04 133.805 538.715 134.982 537.17 136.013C535.624 137.043 533.858 137.853 531.871 138.442C529.957 139.03 527.823 139.325 525.467 139.325ZM526.792 131.486C529.221 131.486 531.466 130.934 533.527 129.83C535.587 128.726 537.354 127.254 538.826 125.414C540.371 123.501 541.549 121.366 542.359 119.011C543.168 116.656 543.573 114.19 543.573 111.614V110.51H529.883C526.424 110.51 523.591 110.952 521.383 111.835C519.248 112.718 517.703 113.97 516.746 115.589C515.789 117.134 515.311 118.901 515.311 120.888C515.311 123.022 515.752 124.899 516.635 126.518C517.519 128.064 518.807 129.278 520.499 130.162C522.266 131.045 524.363 131.486 526.792 131.486ZM593.781 139.325C590.248 139.325 587.194 138.81 584.618 137.779C582.115 136.675 579.981 135.314 578.214 133.694C576.522 132.075 575.123 130.493 574.019 128.947L573.246 138H564.856V58.512H574.13V89.0928C575.896 85.6336 578.509 83.0208 581.968 81.2544C585.427 79.488 589.291 78.6048 593.56 78.6048C598.859 78.6048 603.496 79.8928 607.47 82.4688C611.445 85.0448 614.536 88.6144 616.744 93.1776C618.952 97.6672 620.056 102.856 620.056 108.744C620.056 114.558 618.952 119.784 616.744 124.421C614.536 129.058 611.445 132.701 607.47 135.35C603.57 138 599.006 139.325 593.781 139.325ZM592.566 131.266C596.026 131.266 599.08 130.382 601.73 128.616C604.453 126.776 606.587 124.2 608.133 120.888C609.752 117.502 610.562 113.528 610.562 108.965C610.562 104.402 609.752 100.464 608.133 97.152C606.587 93.7664 604.453 91.1904 601.73 89.424C599.08 87.584 596.026 86.664 592.566 86.664C588.886 86.664 585.685 87.584 582.962 89.424C580.238 91.1904 578.141 93.7664 576.669 97.152C575.197 100.464 574.461 104.402 574.461 108.965C574.461 113.528 575.197 117.502 576.669 120.888C578.141 124.2 580.238 126.776 582.962 128.616C585.685 130.382 588.886 131.266 592.566 131.266ZM630.221 138V79.9296H638.611L639.273 90.528C640.598 87.8784 642.328 85.6704 644.462 83.904C646.597 82.1376 649.173 80.8128 652.19 79.9296C655.281 79.0464 658.741 78.6048 662.568 78.6048V88.32H656.827C654.619 88.32 652.485 88.6144 650.424 89.2032C648.363 89.792 646.486 90.7488 644.793 92.0736C643.174 93.3984 641.886 95.2016 640.929 97.4832C639.973 99.7648 639.494 102.635 639.494 106.094V138H630.221ZM670.809 138V79.9296H680.083V138H670.809ZM675.446 68.8896C673.606 68.8896 672.06 68.3008 670.809 67.1232C669.631 65.872 669.043 64.3264 669.043 62.4864C669.043 60.6464 669.631 59.1744 670.809 58.0704C672.06 56.8928 673.606 56.304 675.446 56.304C677.212 56.304 678.721 56.8928 679.972 58.0704C681.223 59.1744 681.849 60.6464 681.849 62.4864C681.849 64.3264 681.223 65.872 679.972 67.1232C678.721 68.3008 677.212 68.8896 675.446 68.8896ZM718.304 139.325C713.005 139.325 708.295 138.074 704.173 135.571C700.051 132.995 696.813 129.426 694.458 124.862C692.103 120.299 690.925 115 690.925 108.965C690.925 102.856 692.103 97.5568 694.458 93.0672C696.813 88.504 700.051 84.9712 704.173 82.4688C708.295 79.8928 713.005 78.6048 718.304 78.6048C724.928 78.6048 730.448 80.3712 734.864 83.904C739.354 87.4368 742.224 92.184 743.475 98.1456H733.981C733.171 94.4656 731.295 91.632 728.351 89.6448C725.48 87.584 722.095 86.5536 718.194 86.5536C714.808 86.5536 711.754 87.4 709.031 89.0928C706.381 90.7856 704.283 93.288 702.738 96.6C701.192 99.912 700.419 104.034 700.419 108.965C700.419 112.645 700.861 115.92 701.744 118.79C702.627 121.587 703.842 123.942 705.387 125.856C707.007 127.696 708.883 129.094 711.018 130.051C713.226 131.008 715.618 131.486 718.194 131.486C720.843 131.486 723.235 131.045 725.37 130.162C727.578 129.205 729.418 127.843 730.89 126.077C732.435 124.31 733.466 122.213 733.981 119.784H743.475C742.298 125.598 739.427 130.309 734.864 133.915C730.375 137.522 724.855 139.325 718.304 139.325ZM787.762 138L761.377 106.646L786.217 79.9296H797.588L769.215 109.958L769.325 103.334L799.575 138H787.762ZM753.649 138V58.512H762.922V138H753.649ZM823.817 139.325C818.592 139.325 814.249 138.552 810.79 137.006C807.405 135.387 804.829 133.179 803.062 130.382C801.296 127.512 800.229 124.2 799.861 120.446H809.355C809.649 122.434 810.312 124.274 811.342 125.966C812.446 127.586 814.029 128.91 816.089 129.941C818.15 130.971 820.763 131.486 823.928 131.486C826.43 131.486 828.565 131.118 830.331 130.382C832.097 129.573 833.422 128.469 834.305 127.07C835.262 125.672 835.741 124.053 835.741 122.213C835.741 119.784 835.189 117.907 834.085 116.582C833.054 115.184 831.509 114.154 829.448 113.491C827.461 112.755 824.958 112.203 821.941 111.835C818.702 111.394 815.832 110.768 813.329 109.958C810.827 109.149 808.693 108.082 806.926 106.757C805.233 105.432 803.945 103.776 803.062 101.789C802.179 99.8016 801.737 97.4464 801.737 94.7232C801.737 91.5584 802.584 88.7616 804.277 86.3328C805.969 83.904 808.361 82.0272 811.453 80.7024C814.617 79.304 818.334 78.6048 822.603 78.6048C828.859 78.6048 833.79 80.04 837.397 82.9104C841.077 85.7808 843.248 89.8656 843.91 95.1648H834.747C834.379 92.4416 833.128 90.3072 830.993 88.7616C828.859 87.216 826.025 86.4432 822.493 86.4432C818.739 86.4432 815.905 87.1424 813.992 88.5408C812.078 89.9392 811.121 91.7792 811.121 94.0608C811.121 95.7536 811.526 97.2992 812.336 98.6976C813.219 100.022 814.691 101.163 816.752 102.12C818.813 103.003 821.573 103.666 825.032 104.107C829.374 104.622 833.054 105.469 836.072 106.646C839.089 107.75 841.371 109.48 842.917 111.835C844.536 114.19 845.309 117.392 845.235 121.44C845.235 125.267 844.315 128.506 842.475 131.155C840.709 133.805 838.206 135.829 834.968 137.227C831.803 138.626 828.086 139.325 823.817 139.325ZM339.838 237V159.72H353.086L390.291 215.582V159.72H403.539V237H390.291L353.086 181.248V237H339.838ZM441.271 238.325C435.972 238.325 431.188 237.11 426.919 234.682C422.724 232.179 419.412 228.757 416.983 224.414C414.628 219.998 413.45 214.957 413.45 209.29C413.45 203.475 414.665 198.397 417.093 194.054C419.522 189.638 422.834 186.216 427.029 183.787C431.298 181.285 436.082 180.034 441.381 180.034C446.681 180.034 451.428 181.285 455.623 183.787C459.892 186.216 463.204 189.602 465.559 193.944C467.988 198.286 469.202 203.365 469.202 209.179C469.202 214.994 467.988 220.072 465.559 224.414C463.13 228.757 459.781 232.179 455.513 234.682C451.317 237.11 446.57 238.325 441.271 238.325ZM441.271 226.954C443.921 226.954 446.313 226.291 448.447 224.966C450.655 223.642 452.421 221.654 453.746 219.005C455.071 216.355 455.733 213.08 455.733 209.179C455.733 205.278 455.071 202.04 453.746 199.464C452.495 196.814 450.765 194.827 448.557 193.502C446.423 192.178 444.031 191.515 441.381 191.515C438.805 191.515 436.413 192.178 434.205 193.502C431.997 194.827 430.231 196.814 428.906 199.464C427.581 202.04 426.919 205.278 426.919 209.179C426.919 213.08 427.581 216.355 428.906 219.005C430.231 221.654 431.961 223.642 434.095 224.966C436.303 226.291 438.695 226.954 441.271 226.954ZM500.88 237C497.126 237 493.851 236.411 491.054 235.234C488.331 234.056 486.197 232.106 484.651 229.382C483.106 226.659 482.333 222.979 482.333 218.342V192.509H472.838V181.358H482.333L483.878 166.675H495.581V181.358H510.706V192.509H495.581V218.342C495.581 221.139 496.17 223.09 497.347 224.194C498.598 225.224 500.659 225.739 503.53 225.739H510.374V237H500.88ZM544.511 238.325C538.991 238.325 534.133 237.147 529.938 234.792C525.743 232.363 522.467 228.978 520.112 224.635C517.757 220.293 516.579 215.288 516.579 209.621C516.579 203.733 517.72 198.581 520.002 194.165C522.357 189.749 525.632 186.29 529.827 183.787C534.096 181.285 539.027 180.034 544.621 180.034C550.067 180.034 554.815 181.248 558.863 183.677C562.911 186.106 566.039 189.381 568.247 193.502C570.455 197.55 571.559 202.114 571.559 207.192C571.559 207.928 571.559 208.738 571.559 209.621C571.559 210.504 571.485 211.424 571.338 212.381H526.074V203.88H558.2C558.053 199.832 556.691 196.667 554.115 194.386C551.539 192.03 548.338 190.853 544.511 190.853C541.787 190.853 539.285 191.478 537.003 192.73C534.722 193.981 532.919 195.858 531.594 198.36C530.269 200.789 529.607 203.88 529.607 207.634V210.835C529.607 214.294 530.232 217.275 531.483 219.778C532.808 222.28 534.575 224.194 536.783 225.518C539.064 226.77 541.603 227.395 544.4 227.395C547.491 227.395 550.031 226.733 552.018 225.408C554.079 224.083 555.587 222.317 556.544 220.109H570.013C568.983 223.568 567.29 226.696 564.935 229.493C562.579 232.216 559.672 234.387 556.213 236.006C552.754 237.552 548.853 238.325 544.511 238.325ZM612.274 238.325C609.33 238.325 606.68 237.92 604.325 237.11C601.97 236.374 599.909 235.344 598.142 234.019C596.376 232.621 594.904 231.038 593.726 229.272L592.291 237H580.478V157.512H593.726V189.528C595.493 186.805 597.885 184.56 600.902 182.794C603.92 180.954 607.674 180.034 612.163 180.034C617.389 180.034 621.989 181.322 625.963 183.898C630.011 186.4 633.176 189.859 635.458 194.275C637.813 198.618 638.99 203.622 638.99 209.29C638.99 214.81 637.85 219.778 635.568 224.194C633.286 228.61 630.122 232.069 626.074 234.571C622.099 237.074 617.499 238.325 612.274 238.325ZM609.514 226.843C612.605 226.843 615.365 226.107 617.794 224.635C620.222 223.09 622.099 221.029 623.424 218.453C624.822 215.803 625.522 212.712 625.522 209.179C625.522 205.72 624.822 202.666 623.424 200.016C622.099 197.366 620.222 195.306 617.794 193.834C615.365 192.362 612.605 191.626 609.514 191.626C606.349 191.626 603.552 192.362 601.123 193.834C598.768 195.306 596.891 197.366 595.493 200.016C594.168 202.666 593.506 205.72 593.506 209.179C593.506 212.712 594.168 215.803 595.493 218.453C596.891 221.029 598.768 223.09 601.123 224.635C603.552 226.107 606.349 226.843 609.514 226.843ZM674.482 238.325C669.183 238.325 664.399 237.11 660.13 234.682C655.935 232.179 652.623 228.757 650.194 224.414C647.839 219.998 646.662 214.957 646.662 209.29C646.662 203.475 647.876 198.397 650.305 194.054C652.734 189.638 656.046 186.216 660.241 183.787C664.51 181.285 669.294 180.034 674.593 180.034C679.892 180.034 684.639 181.285 688.834 183.787C693.103 186.216 696.415 189.602 698.77 193.944C701.199 198.286 702.414 203.365 702.414 209.179C702.414 214.994 701.199 220.072 698.77 224.414C696.342 228.757 692.993 232.179 688.724 234.682C684.529 237.11 679.782 238.325 674.482 238.325ZM674.482 226.954C677.132 226.954 679.524 226.291 681.658 224.966C683.866 223.642 685.633 221.654 686.958 219.005C688.282 216.355 688.945 213.08 688.945 209.179C688.945 205.278 688.282 202.04 686.958 199.464C685.706 196.814 683.977 194.827 681.769 193.502C679.634 192.178 677.242 191.515 674.593 191.515C672.017 191.515 669.625 192.178 667.417 193.502C665.209 194.827 663.442 196.814 662.118 199.464C660.793 202.04 660.13 205.278 660.13 209.179C660.13 213.08 660.793 216.355 662.118 219.005C663.442 221.654 665.172 223.642 667.306 224.966C669.514 226.291 671.906 226.954 674.482 226.954ZM738.014 238.325C732.715 238.325 727.931 237.11 723.662 234.682C719.467 232.179 716.155 228.757 713.726 224.414C711.371 219.998 710.193 214.957 710.193 209.29C710.193 203.475 711.408 198.397 713.837 194.054C716.265 189.638 719.577 186.216 723.773 183.787C728.041 181.285 732.825 180.034 738.125 180.034C743.424 180.034 748.171 181.285 752.366 183.787C756.635 186.216 759.947 189.602 762.302 193.944C764.731 198.286 765.945 203.365 765.945 209.179C765.945 214.994 764.731 220.072 762.302 224.414C759.873 228.757 756.525 232.179 752.256 234.682C748.061 237.11 743.313 238.325 738.014 238.325ZM738.014 226.954C740.664 226.954 743.056 226.291 745.19 224.966C747.398 223.642 749.165 221.654 750.489 219.005C751.814 216.355 752.477 213.08 752.477 209.179C752.477 205.278 751.814 202.04 750.489 199.464C749.238 196.814 747.509 194.827 745.301 193.502C743.166 192.178 740.774 191.515 738.125 191.515C735.549 191.515 733.157 192.178 730.949 193.502C728.741 194.827 726.974 196.814 725.649 199.464C724.325 202.04 723.662 205.278 723.662 209.179C723.662 213.08 724.325 216.355 725.649 219.005C726.974 221.654 728.704 223.642 730.838 224.966C733.046 226.291 735.438 226.954 738.014 226.954ZM811.482 237L786.863 206.53L808.943 181.358H824.73L797.24 211.939V201.672L828.042 237H811.482ZM775.602 237V157.512H788.85V237H775.602ZM853.022 238.325C848.091 238.325 843.786 237.552 840.106 236.006C836.499 234.387 833.629 232.179 831.494 229.382C829.434 226.512 828.219 223.237 827.851 219.557H841.099C841.467 221.102 842.13 222.538 843.086 223.862C844.043 225.114 845.331 226.107 846.95 226.843C848.643 227.579 850.63 227.947 852.912 227.947C855.12 227.947 856.923 227.653 858.322 227.064C859.72 226.402 860.75 225.555 861.413 224.525C862.075 223.494 862.406 222.39 862.406 221.213C862.406 219.446 861.928 218.085 860.971 217.128C860.014 216.171 858.616 215.435 856.776 214.92C855.01 214.331 852.875 213.779 850.373 213.264C847.723 212.749 845.147 212.123 842.645 211.387C840.216 210.578 838.008 209.584 836.021 208.406C834.107 207.229 832.562 205.72 831.384 203.88C830.28 202.04 829.728 199.795 829.728 197.146C829.728 193.907 830.574 191 832.267 188.424C834.034 185.848 836.536 183.824 839.774 182.352C843.086 180.806 847.024 180.034 851.587 180.034C858.064 180.034 863.216 181.542 867.043 184.56C870.944 187.504 873.226 191.662 873.888 197.035H861.302C860.934 194.974 859.904 193.392 858.211 192.288C856.518 191.11 854.274 190.522 851.477 190.522C848.606 190.522 846.398 191.074 844.853 192.178C843.381 193.208 842.645 194.606 842.645 196.373C842.645 197.477 843.086 198.507 843.97 199.464C844.926 200.347 846.288 201.12 848.054 201.782C849.821 202.371 851.992 202.96 854.568 203.549C858.69 204.358 862.333 205.315 865.498 206.419C868.662 207.523 871.165 209.142 873.005 211.277C874.845 213.411 875.765 216.429 875.765 220.33C875.838 223.862 874.918 226.99 873.005 229.714C871.165 232.437 868.552 234.571 865.166 236.117C861.781 237.589 857.733 238.325 853.022 238.325Z" fill="white"/>
</svg>
