<svg width="150" height="150" viewBox="0 0 150 150" fill="none" xmlns="http://www.w3.org/2000/svg">
<g clip-path="url(#clip0_5483_2119)">
<path d="M136.8 71.3798C136.8 65.8298 122.07 61.3198 103.91 61.3198C85.75 61.3198 71.02 65.8198 71.02 71.3798" stroke="#FF5F46" stroke-width="3" stroke-miterlimit="3" stroke-linecap="square"/>
<path d="M136.8 89.6797C136.8 95.2297 122.07 99.7397 103.91 99.7397C85.75 99.7397 71.02 95.2397 71.02 89.6797" stroke="#FF5F46" stroke-width="3" stroke-miterlimit="3" stroke-linecap="square"/>
<path d="M136.8 89.6796V71.3696C136.8 76.9196 122.07 81.4296 103.91 81.4296C85.75 81.4296 71.02 76.9296 71.02 71.3696" stroke="#FF5F46" stroke-width="3" stroke-miterlimit="3" stroke-linecap="square"/>
<path d="M98.65 23.7798C98.65 18.8098 94.62 14.7798 89.65 14.7798H19.98V28.2798H12.85" stroke="#FF5F46" stroke-width="3" stroke-miterlimit="3" stroke-linecap="square"/>
<path d="M12.85 112.27H19.98V125.77" stroke="#FF5F46" stroke-width="3" stroke-miterlimit="3" stroke-linecap="square"/>
<path d="M12.85 39.9199H19.98V100.63H12.85" stroke="#FF5F46" stroke-width="3" stroke-miterlimit="3" stroke-linecap="square"/>
<path d="M12.85 28.2798H19.98V14.7798H89.65C94.62 14.7798 98.65 18.8098 98.65 23.7798V53.9998" stroke="#FF5F46" stroke-width="3" stroke-miterlimit="3" stroke-linecap="square"/>
<path d="M12.85 112.27H19.98V125.77H71.02C71.02 131.32 85.75 135.83 103.91 135.83C122.07 135.83 136.8 131.33 136.8 125.77V107.46C136.8 113.01 122.07 117.52 103.91 117.52C85.75 117.52 71.02 113.02 71.02 107.46V89.6797" stroke="#FF5F46" stroke-width="3" stroke-miterlimit="3" stroke-linecap="square"/>
<path d="M34.25 39.9199H83.75" stroke="#FF5F46" stroke-width="3" stroke-miterlimit="3" stroke-linecap="square"/>
<path d="M34.25 54H83.75" stroke="#FF5F46" stroke-width="3" stroke-miterlimit="3" stroke-linecap="square"/>
</g>
<defs>
<clipPath id="clip0_5483_2119">
<rect width="150" height="150" fill="white"/>
</clipPath>
</defs>
</svg>
