<svg width="150" height="150" viewBox="0 0 150 150" fill="none" xmlns="http://www.w3.org/2000/svg">
<path d="M124.5 38.3H45.2001C41.2001 38.3 38 41.5 38 45.5V96.3C38 100.3 41.2001 103.5 45.2001 103.5H66.7V100.5H45.2001C42.9001 100.5 41 98.6 41 96.3V56.5H117.4V73.3V86.9C117.4 87.8 116.6 88.6 115.7 88.6H102.1C101.2 88.6 100.4 87.8 100.4 86.9V73.3C100.4 72.4 101.2 71.6 102.1 71.6H113V68.6H102.2C99.6 68.6 97.5 70.7 97.5 73.3V86.9C97.5 89.5 99.6 91.6 102.2 91.6H115.8C118.4 91.6 120.5 89.5 120.5 86.9V73.3V53.5H41V45.6C41 43.3 42.9001 41.4 45.2001 41.4H124.5C126.8 41.4 128.7 43.3 128.7 45.6V96.4C128.7 98.7 126.8 100.6 124.5 100.6H74.4001V125.7L66.5 119.8L57.1 126.8L47.7001 119.8L38.3 126.8L28.9 119.8L21 125.7V21.3H74.2V32.7H77.2V18.3H18.3V131.7L29.2001 123.5L38.6 130.5L48 123.5L57.4001 130.5L66.8001 123.5L77.7 131.7V103.5H124.8C128.8 103.5 132 100.3 132 96.3V45.5C131.7 41.6 128.5 38.3 124.5 38.3Z" fill="#FF5F46"/>
<path d="M75.5001 88.6H48.6001V91.6H75.5001V88.6Z" fill="#FF5F46"/>
<path d="M75.5001 78.6H48.6001V81.6H75.5001V78.6Z" fill="#FF5F46"/>
</svg>
