<svg width="150" height="150" viewBox="0 0 150 150" fill="none" xmlns="http://www.w3.org/2000/svg">
<path d="M124.5 38.3H45.2C41.2 38.3 38 41.5 38 45.5V96.3C38 100.3 41.2 103.5 45.2 103.5H66.7V100.5H45.2C42.9 100.5 41 98.6 41 96.3V56.5H117.4V73.3001V86.9001C117.4 87.8001 116.6 88.6001 115.7 88.6001H102.1C101.2 88.6001 100.4 87.8001 100.4 86.9001V73.3001C100.4 72.4001 101.2 71.6 102.1 71.6H113V68.6H102.2C99.6 68.6 97.5 70.7001 97.5 73.3001V86.9001C97.5 89.5001 99.6 91.6001 102.2 91.6001H115.8C118.4 91.6001 120.5 89.5001 120.5 86.9001V73.3001V53.5H41V45.6C41 43.3 42.9 41.4001 45.2 41.4001H124.5C126.8 41.4001 128.7 43.3 128.7 45.6V96.4001C128.7 98.7001 126.8 100.6 124.5 100.6H74.4V125.7L66.5 119.8L57.1 126.8L47.7 119.8L38.3 126.8L28.9 119.8L21 125.7V21.3H74.2V32.7001H77.2V18.3H18.3V131.7L29.2 123.5L38.6 130.5L48 123.5L57.4 130.5L66.8 123.5L77.7 131.7V103.5H124.8C128.8 103.5 132 100.3 132 96.3V45.5C131.7 41.6 128.5 38.3 124.5 38.3Z" fill="white"/>
<path d="M75.5 88.6001H48.6V91.6001H75.5V88.6001Z" fill="white"/>
<path d="M75.5 78.6001H48.6V81.6001H75.5V78.6001Z" fill="white"/>
</svg>
