<svg width="150" height="150" viewBox="0 0 150 150" fill="none" xmlns="http://www.w3.org/2000/svg">
<path d="M104.24 122.57V125.57H122.76V88.2501C122.752 79.8982 119.431 71.8906 113.525 65.985C107.619 60.0793 99.6119 56.758 91.26 56.7501H62.73L81.94 37.5401L68.83 24.4301L27.24 66.0001L68.83 107.59L81.94 94.5001L62.73 75.2901H89.73C93.574 75.2953 97.2591 76.8247 99.9772 79.5428C102.695 82.261 104.225 85.946 104.23 89.7901V114.15H107.23V89.7901C107.225 85.1504 105.379 80.7023 102.099 77.4215C98.8178 74.1408 94.3697 72.2953 89.73 72.2901H55.49L77.7 94.5001L68.83 103.37L31.48 66.0001L68.83 28.6701L77.7 37.5401L55.49 59.7501H91.26C98.8162 59.758 106.061 62.7632 111.404 68.1063C116.747 73.4493 119.752 80.6938 119.76 88.2501V122.57H104.24Z" fill="#FF5F46"/>
</svg>
