<svg width="150" height="150" viewBox="0 0 150 150" fill="none" xmlns="http://www.w3.org/2000/svg">
<path d="M104.24 122.57V125.57H122.76V88.2499C122.752 79.898 119.431 71.8905 113.525 65.9848C107.619 60.0792 99.6119 56.7579 91.26 56.7499H62.73L81.94 37.5399L68.83 24.4299L27.24 65.9999L68.83 107.59L81.94 94.4999L62.73 75.2899H89.73C93.574 75.2952 97.2591 76.8246 99.9772 79.5427C102.695 82.2609 104.225 85.9459 104.23 89.7899V114.15H107.23V89.7899C107.225 85.1503 105.379 80.7021 102.099 77.4214C98.8178 74.1407 94.3697 72.2952 89.73 72.2899H55.49L77.7 94.4999L68.83 103.37L31.48 65.9999L68.83 28.6699L77.7 37.5399L55.49 59.7499H91.26C98.8162 59.7579 106.061 62.7631 111.404 68.1062C116.747 73.4492 119.752 80.6937 119.76 88.2499V122.57H104.24Z" fill="white"/>
</svg>
