<svg width="512" height="512" viewBox="0 0 512 512" fill="none" xmlns="http://www.w3.org/2000/svg">
<path d="M448 305.954H447.994C419.48 315.543 386.842 321.022 352 321.022C317.158 321.022 284.484 315.543 256.006 305.954H64V203.887H448V305.954ZM160 290.251C125.156 290.251 92.5155 295.961 64 305.953H256C227.52 295.961 194.844 290.251 160 290.251Z" fill="#618794"/>
<path d="M160.451 327.787C195.132 327.787 227.655 332.986 256.001 342.085H256C284.346 351.184 316.868 356.383 351.549 356.383C385.146 356.383 416.684 351.504 444.426 342.927L447.099 342.085H448V447.999H64V342.085H64.9023C93.2839 332.986 125.771 327.787 160.451 327.787Z" fill="#C4CCD6"/>
<rect x="64" y="64" width="384" height="105.914" fill="#618794"/>
</svg>
