<svg width="150" height="150" viewBox="0 0 150 150" fill="none" xmlns="http://www.w3.org/2000/svg">
<path d="M19.4 40.6H43.8V66.4H46.8V40.6H73.5V53.9H76.5V40.6H97.6V37.6H46.8V30C46.8 25.7 50.3 22.2 54.6 22.2H95.3C99.6 22.2 103.1 25.7 103.1 30V56H106.1V30.1C106.1 24.1 101.2 19.3 95.3 19.3H54.7C48.7 19.3 43.9 24.2 43.9 30.1V37.7H16.4V112.4H38.1V109.4H19.4V40.6Z" fill="#1B3139"/>
<path d="M130.6 109.4H76.5V75H73.5V109.4H52.9V112.4H103.2V120C103.2 124.3 99.7 127.8 95.4 127.8H54.7C50.4 127.8 46.9 124.3 46.9 120V90.5H43.9V119.9C43.9 125.9 48.8 130.7 54.7 130.7H95.4C101.4 130.7 106.2 125.8 106.2 119.9V112.3H133.6V65.5H130.6V109.4Z" fill="#1B3139"/>
<path d="M112.5 37.6V40.6H128.5L97.5 71.6L82 56.1L53.1 84.9L37.5 69.3L23.4 83.4L25.5 85.5L37.5 73.6L53.1 89.2L82 60.3L97.5 75.8L130.6 42.8V58.7H133.6V37.6H112.5Z" fill="#1B3139"/>
<path d="M82 29.1H68V32.1H82V29.1Z" fill="#1B3139"/>
<path d="M106.2 78.6H103.2V103.2H106.2V78.6Z" fill="#1B3139"/>
<path d="M78.1 119.7C78.1 117.9 76.7 116.5 74.9 116.5C73.1 116.5 71.7 117.9 71.7 119.7C71.7 121.5 73.1 122.9 74.9 122.9C76.6 122.9 78.1 121.4 78.1 119.7Z" fill="#1B3139"/>
</svg>
