<svg width="150" height="150" viewBox="0 0 150 150" fill="none" xmlns="http://www.w3.org/2000/svg">
<path d="M19.4 40.6H43.8V66.4001H46.8V40.6H73.5V53.9001H76.5V40.6H97.6V37.6H46.8V30C46.8 25.7 50.3 22.2001 54.6 22.2001H95.3C99.6 22.2001 103.1 25.7 103.1 30V56H106.1V30.1C106.1 24.1 101.2 19.3 95.3 19.3H54.7C48.7 19.3 43.9 24.2 43.9 30.1V37.7001H16.4V112.4H38.1V109.4H19.4V40.6Z" fill="#FF5F46"/>
<path d="M130.6 109.4H76.5V75H73.5V109.4H52.9V112.4H103.2V120C103.2 124.3 99.7 127.8 95.4 127.8H54.7C50.4 127.8 46.9 124.3 46.9 120V90.5H43.9V119.9C43.9 125.9 48.8 130.7 54.7 130.7H95.4C101.4 130.7 106.2 125.8 106.2 119.9V112.3H133.6V65.5H130.6V109.4Z" fill="#FF5F46"/>
<path d="M112.5 37.6001V40.6001H128.5L97.5 71.6001L82 56.1001L53.1 84.9001L37.5 69.3001L23.4 83.4001L25.5 85.5001L37.5 73.6001L53.1 89.2001L82 60.3001L97.5 75.8001L130.6 42.8001V58.7001H133.6V37.6001H112.5Z" fill="#FF5F46"/>
<path d="M82 29.1001H68V32.1001H82V29.1001Z" fill="#FF5F46"/>
<path d="M106.2 78.6001H103.2V103.2H106.2V78.6001Z" fill="#FF5F46"/>
<path d="M78.1001 119.7C78.1001 117.9 76.7001 116.5 74.9001 116.5C73.1001 116.5 71.7001 117.9 71.7001 119.7C71.7001 121.5 73.1001 122.9 74.9001 122.9C76.6001 122.9 78.1001 121.4 78.1001 119.7Z" fill="#FF5F46"/>
</svg>
