<svg width="150" height="150" viewBox="0 0 150 150" fill="none" xmlns="http://www.w3.org/2000/svg">
<path d="M118.74 130.69H23.76V127.69H118.75C121.23 127.69 123.25 125.67 123.25 123.19V26.81C123.25 24.33 121.23 22.31 118.75 22.31H31.76C29.28 22.31 27.26 24.33 27.26 26.81V117.47H39.46V79.2H56.98V117.48H66.4V64.71H84.33V117.47H93.75V39.26H111.68V120.53H108.68V42.26H96.76V120.47H81.33V67.71H69.4V120.47H53.97V82.2H42.45V120.48H24.25V26.81C24.25 22.67 27.61 19.31 31.75 19.31H118.74C122.88 19.31 126.24 22.67 126.24 26.81V123.19C126.24 127.32 122.88 130.69 118.74 130.69Z" fill="#FF5F46"/>
</svg>
