<svg width="782" height="200" viewBox="0 0 782 200" fill="none" xmlns="http://www.w3.org/2000/svg">
<path d="M25 43.75C25 54.1053 33.3947 62.5 43.75 62.5V62.5C54.1053 62.5 62.5 54.1053 62.5 43.75V43.75C62.5 33.3947 54.1053 25 43.75 25V25C33.3947 25 25 33.3947 25 43.75V43.75Z" fill="#FF5F46"/>
<path d="M137.5 100C137.5 110.355 145.895 118.75 156.25 118.75V118.75C166.605 118.75 175 110.355 175 100V100C175 89.6447 166.605 81.25 156.25 81.25V81.25C145.895 81.25 137.5 89.6447 137.5 100V100Z" fill="#FF5F46"/>
<path d="M25 156.25C25 166.605 33.3947 175 43.75 175V175C54.1053 175 62.5 166.605 62.5 156.25V156.25C62.5 145.895 54.1053 137.5 43.75 137.5V137.5C33.3947 137.5 25 145.895 25 156.25V156.25Z" fill="#FF5F46"/>
<path d="M77.8398 62.5L174.999 62.5L174.999 25L77.8398 25L77.8398 62.5Z" fill="#FABFBA"/>
<rect width="97.1591" height="37.5" transform="matrix(1 8.20663e-08 9.31289e-08 -1 25 118.75)" fill="#FABFBA"/>
<rect width="97.1591" height="37.5" transform="matrix(1 8.36077e-08 9.515e-08 -1 77.8398 175)" fill="#FABFBA"/>
<path d="M239.838 137.5V60.22H253.086L290.291 116.082V60.22H303.539V137.5H290.291L253.086 81.748V137.5H239.838ZM341.271 138.825C335.972 138.825 331.188 137.61 326.919 135.182C322.724 132.679 319.412 129.257 316.983 124.914C314.628 120.498 313.45 115.457 313.45 109.79C313.45 103.975 314.665 98.8968 317.093 94.5544C319.522 90.1384 322.834 86.716 327.029 84.2872C331.298 81.7848 336.082 80.5336 341.381 80.5336C346.681 80.5336 351.428 81.7848 355.623 84.2872C359.892 86.716 363.204 90.1016 365.559 94.444C367.988 98.7864 369.202 103.865 369.202 109.679C369.202 115.494 367.988 120.572 365.559 124.914C363.13 129.257 359.781 132.679 355.513 135.182C351.317 137.61 346.57 138.825 341.271 138.825ZM341.271 127.454C343.921 127.454 346.313 126.791 348.447 125.466C350.655 124.142 352.421 122.154 353.746 119.505C355.071 116.855 355.733 113.58 355.733 109.679C355.733 105.778 355.071 102.54 353.746 99.964C352.495 97.3144 350.765 95.3272 348.557 94.0024C346.423 92.6776 344.031 92.0152 341.381 92.0152C338.805 92.0152 336.413 92.6776 334.205 94.0024C331.997 95.3272 330.231 97.3144 328.906 99.964C327.581 102.54 326.919 105.778 326.919 109.679C326.919 113.58 327.581 116.855 328.906 119.505C330.231 122.154 331.961 124.142 334.095 125.466C336.303 126.791 338.695 127.454 341.271 127.454ZM400.88 137.5C397.126 137.5 393.851 136.911 391.054 135.734C388.331 134.556 386.197 132.606 384.651 129.882C383.106 127.159 382.333 123.479 382.333 118.842V93.0088H372.838V81.8584H382.333L383.878 67.1752H395.581V81.8584H410.706V93.0088H395.581V118.842C395.581 121.639 396.17 123.59 397.347 124.694C398.598 125.724 400.659 126.239 403.53 126.239H410.374V137.5H400.88ZM444.511 138.825C438.991 138.825 434.133 137.647 429.938 135.292C425.743 132.863 422.467 129.478 420.112 125.135C417.757 120.793 416.579 115.788 416.579 110.121C416.579 104.233 417.72 99.0808 420.002 94.6648C422.357 90.2488 425.632 86.7896 429.827 84.2872C434.096 81.7848 439.027 80.5336 444.621 80.5336C450.067 80.5336 454.815 81.748 458.863 84.1768C462.911 86.6056 466.039 89.8808 468.247 94.0024C470.455 98.0504 471.559 102.614 471.559 107.692C471.559 108.428 471.559 109.238 471.559 110.121C471.559 111.004 471.485 111.924 471.338 112.881H426.074V104.38H458.2C458.053 100.332 456.691 97.1672 454.115 94.8856C451.539 92.5304 448.338 91.3528 444.511 91.3528C441.787 91.3528 439.285 91.9784 437.003 93.2296C434.722 94.4808 432.919 96.3576 431.594 98.86C430.269 101.289 429.607 104.38 429.607 108.134V111.335C429.607 114.794 430.232 117.775 431.483 120.278C432.808 122.78 434.575 124.694 436.783 126.018C439.064 127.27 441.603 127.895 444.4 127.895C447.491 127.895 450.031 127.233 452.018 125.908C454.079 124.583 455.587 122.817 456.544 120.609H470.013C468.983 124.068 467.29 127.196 464.935 129.993C462.579 132.716 459.672 134.887 456.213 136.506C452.754 138.052 448.853 138.825 444.511 138.825ZM512.274 138.825C509.33 138.825 506.68 138.42 504.325 137.61C501.97 136.874 499.909 135.844 498.142 134.519C496.376 133.121 494.904 131.538 493.726 129.772L492.291 137.5H480.478V58.012H493.726V90.028C495.493 87.3048 497.885 85.06 500.902 83.2936C503.92 81.4536 507.674 80.5336 512.163 80.5336C517.389 80.5336 521.989 81.8216 525.963 84.3976C530.011 86.9 533.176 90.3592 535.458 94.7752C537.813 99.1176 538.99 104.122 538.99 109.79C538.99 115.31 537.85 120.278 535.568 124.694C533.286 129.11 530.122 132.569 526.074 135.071C522.099 137.574 517.499 138.825 512.274 138.825ZM509.514 127.343C512.605 127.343 515.365 126.607 517.794 125.135C520.222 123.59 522.099 121.529 523.424 118.953C524.822 116.303 525.522 113.212 525.522 109.679C525.522 106.22 524.822 103.166 523.424 100.516C522.099 97.8664 520.222 95.8056 517.794 94.3336C515.365 92.8616 512.605 92.1256 509.514 92.1256C506.349 92.1256 503.552 92.8616 501.123 94.3336C498.768 95.8056 496.891 97.8664 495.493 100.516C494.168 103.166 493.506 106.22 493.506 109.679C493.506 113.212 494.168 116.303 495.493 118.953C496.891 121.529 498.768 123.59 501.123 125.135C503.552 126.607 506.349 127.343 509.514 127.343ZM574.482 138.825C569.183 138.825 564.399 137.61 560.13 135.182C555.935 132.679 552.623 129.257 550.194 124.914C547.839 120.498 546.662 115.457 546.662 109.79C546.662 103.975 547.876 98.8968 550.305 94.5544C552.734 90.1384 556.046 86.716 560.241 84.2872C564.51 81.7848 569.294 80.5336 574.593 80.5336C579.892 80.5336 584.639 81.7848 588.834 84.2872C593.103 86.716 596.415 90.1016 598.77 94.444C601.199 98.7864 602.414 103.865 602.414 109.679C602.414 115.494 601.199 120.572 598.77 124.914C596.342 129.257 592.993 132.679 588.724 135.182C584.529 137.61 579.782 138.825 574.482 138.825ZM574.482 127.454C577.132 127.454 579.524 126.791 581.658 125.466C583.866 124.142 585.633 122.154 586.958 119.505C588.282 116.855 588.945 113.58 588.945 109.679C588.945 105.778 588.282 102.54 586.958 99.964C585.706 97.3144 583.977 95.3272 581.769 94.0024C579.634 92.6776 577.242 92.0152 574.593 92.0152C572.017 92.0152 569.625 92.6776 567.417 94.0024C565.209 95.3272 563.442 97.3144 562.118 99.964C560.793 102.54 560.13 105.778 560.13 109.679C560.13 113.58 560.793 116.855 562.118 119.505C563.442 122.154 565.172 124.142 567.306 125.466C569.514 126.791 571.906 127.454 574.482 127.454ZM638.014 138.825C632.715 138.825 627.931 137.61 623.662 135.182C619.467 132.679 616.155 129.257 613.726 124.914C611.371 120.498 610.193 115.457 610.193 109.79C610.193 103.975 611.408 98.8968 613.837 94.5544C616.265 90.1384 619.577 86.716 623.773 84.2872C628.041 81.7848 632.825 80.5336 638.125 80.5336C643.424 80.5336 648.171 81.7848 652.366 84.2872C656.635 86.716 659.947 90.1016 662.302 94.444C664.731 98.7864 665.945 103.865 665.945 109.679C665.945 115.494 664.731 120.572 662.302 124.914C659.873 129.257 656.525 132.679 652.256 135.182C648.061 137.61 643.313 138.825 638.014 138.825ZM638.014 127.454C640.664 127.454 643.056 126.791 645.19 125.466C647.398 124.142 649.165 122.154 650.489 119.505C651.814 116.855 652.477 113.58 652.477 109.679C652.477 105.778 651.814 102.54 650.489 99.964C649.238 97.3144 647.509 95.3272 645.301 94.0024C643.166 92.6776 640.774 92.0152 638.125 92.0152C635.549 92.0152 633.157 92.6776 630.949 94.0024C628.741 95.3272 626.974 97.3144 625.649 99.964C624.325 102.54 623.662 105.778 623.662 109.679C623.662 113.58 624.325 116.855 625.649 119.505C626.974 122.154 628.704 124.142 630.838 125.466C633.046 126.791 635.438 127.454 638.014 127.454ZM711.482 137.5L686.863 107.03L708.943 81.8584H724.73L697.24 112.439V102.172L728.042 137.5H711.482ZM675.602 137.5V58.012H688.85V137.5H675.602ZM753.022 138.825C748.091 138.825 743.786 138.052 740.106 136.506C736.499 134.887 733.629 132.679 731.494 129.882C729.434 127.012 728.219 123.737 727.851 120.057H741.099C741.467 121.602 742.13 123.038 743.086 124.362C744.043 125.614 745.331 126.607 746.95 127.343C748.643 128.079 750.63 128.447 752.912 128.447C755.12 128.447 756.923 128.153 758.322 127.564C759.72 126.902 760.75 126.055 761.413 125.025C762.075 123.994 762.406 122.89 762.406 121.713C762.406 119.946 761.928 118.585 760.971 117.628C760.014 116.671 758.616 115.935 756.776 115.42C755.01 114.831 752.875 114.279 750.373 113.764C747.723 113.249 745.147 112.623 742.645 111.887C740.216 111.078 738.008 110.084 736.021 108.906C734.107 107.729 732.562 106.22 731.384 104.38C730.28 102.54 729.728 100.295 729.728 97.6456C729.728 94.4072 730.574 91.5 732.267 88.924C734.034 86.348 736.536 84.324 739.774 82.852C743.086 81.3064 747.024 80.5336 751.587 80.5336C758.064 80.5336 763.216 82.0424 767.043 85.06C770.944 88.004 773.226 92.1624 773.888 97.5352H761.302C760.934 95.4744 759.904 93.892 758.211 92.788C756.518 91.6104 754.274 91.0216 751.477 91.0216C748.606 91.0216 746.398 91.5736 744.853 92.6776C743.381 93.708 742.645 95.1064 742.645 96.8728C742.645 97.9768 743.086 99.0072 743.97 99.964C744.926 100.847 746.288 101.62 748.054 102.282C749.821 102.871 751.992 103.46 754.568 104.049C758.69 104.858 762.333 105.815 765.498 106.919C768.662 108.023 771.165 109.642 773.005 111.777C774.845 113.911 775.765 116.929 775.765 120.83C775.838 124.362 774.918 127.49 773.005 130.214C771.165 132.937 768.552 135.071 765.166 136.617C761.781 138.089 757.733 138.825 753.022 138.825Z" fill="white"/>
</svg>
