<svg width="150" height="150" viewBox="0 0 150 150" fill="none" xmlns="http://www.w3.org/2000/svg">
<path d="M119.1 51.5002L130.8 57.7002L128.7 45.4002L137.6 36.7002L125.3 34.9002L119.8 23.7002L114.3 34.9002L102 36.6002L110.9 45.3002L109.1 55.7002L109.8 56.3002C119 63.4002 124.5 73.8002 124.5 84.2002C124.5 85.9002 124.3 87.6002 124 89.3002C124 89.1002 124 88.9002 124 88.8002C124 68.0002 104.4 52.9002 77.4 52.9002C49.8 52.9002 27.3 69.4002 27.3 89.7002C27.3 96.9002 31.1 103.6 38.2001 109.1C44.4001 113.8 52.7001 117.2 61 118.4L61.4001 115.4C46.1001 113.2 30.3 103 30.3 89.7002C30.3 71.1002 51.4 55.9002 77.4 55.9002C102.7 55.9002 121 69.7002 121 88.8002C121 98.2002 115.5 107.2 105.9 113.6C105.8 113.7 105.7 113.7 105.6 113.8L103.8 114.9L92.3 98.9002H92.4C100.5 98.9002 107.1 92.3002 107.1 84.2002C107.1 80.3002 105.6 76.6002 102.8 73.8002C100 71.0002 96.3 69.5002 92.4 69.5002H66.2V123.4C37.6 122 15.3 104.9 15.3 84.3002C15.3 62.6002 39.8001 45.0002 69.9001 45.0002C82.2001 45.0002 93.8 47.9002 103.5 53.3002L105 50.7002C94.8 45.0002 82.7001 42.0002 69.9001 42.0002C38.1001 42.0002 12.3 60.9002 12.3 84.2002C12.3 106.6 36.2 125.1 66.7 126.4H69.2V72.4002H92.4C95.5 72.4002 98.5 73.6002 100.7 75.8002C102.9 78.0002 104.1 81.0002 104.1 84.1002C104.1 90.6002 98.8 95.8002 92.4 95.8002H86.4L102.9 118.8L107.1 116.3C107.2 116.2 107.3 116.2 107.4 116.1C120.1 108 127.5 96.4002 127.5 84.1002C127.5 73.1002 121.9 62.1002 112.4 54.4002L114.2 44.2002L108.5 38.6002L116.4 37.5002L119.9 30.4002L123.4 37.5002L131.3 38.6002L125.6 44.2002L126.9 52.1002L120.5 48.8002L119.1 51.5002Z" fill="#FF5F46"/>
<path d="M93.3001 86.8001H84.1001V89.8001H93.3001C96.4001 89.8001 98.9001 87.3001 98.9001 84.2001C98.9001 81.1001 96.4001 78.6001 93.3001 78.6001H75.7001V90.0001H78.7001V81.5001H93.3001C94.7001 81.5001 95.9001 82.7001 95.9001 84.1001C95.9001 85.5001 94.7001 86.8001 93.3001 86.8001Z" fill="#FF5F46"/>
<path d="M75.7001 95.9004V126.3H78.7001V100.6L95.3001 124.6L97.7001 122.9L79.1001 95.9004H75.7001Z" fill="#FF5F46"/>
</svg>
