<svg width="150" height="150" viewBox="0 0 150 150" fill="none" xmlns="http://www.w3.org/2000/svg">
<path d="M119.1 51.5L130.8 57.7L128.7 45.4L137.6 36.7L125.3 34.9L119.8 23.7L114.3 34.9L102 36.5999L110.9 45.2999L109.1 55.7L109.8 56.2999C119 63.3999 124.5 73.7999 124.5 84.1999C124.5 85.8999 124.3 87.6 124 89.3C124 89.1 124 88.9 124 88.8C124 68 104.4 52.9 77.4 52.9C49.8 52.9 27.3 69.4 27.3 89.7C27.3 96.9 31.1 103.6 38.2 109.1C44.4 113.8 52.7 117.2 61 118.4L61.4 115.4C46.1 113.2 30.3 103 30.3 89.7C30.3 71.1 51.4 55.9 77.4 55.9C102.7 55.9 121 69.7 121 88.8C121 98.2 115.5 107.2 105.9 113.6C105.8 113.7 105.7 113.7 105.6 113.8L103.8 114.9L92.3 98.8999H92.4C100.5 98.8999 107.1 92.2999 107.1 84.1999C107.1 80.2999 105.6 76.6 102.8 73.8C100 71 96.3 69.5 92.4 69.5H66.2V123.4C37.6 122 15.3 104.9 15.3 84.3C15.3 62.6 39.8 45 69.9 45C82.2 45 93.8 47.8999 103.5 53.2999L105 50.7C94.8 45 82.7 42 69.9 42C38.1 42 12.3 60.8999 12.3 84.1999C12.3 106.6 36.2 125.1 66.7 126.4H69.2V72.4H92.4C95.5 72.4 98.5 73.6 100.7 75.8C102.9 78 104.1 80.9999 104.1 84.0999C104.1 90.5999 98.8 95.8 92.4 95.8H86.4L102.9 118.8L107.1 116.3C107.2 116.2 107.3 116.2 107.4 116.1C120.1 108 127.5 96.3999 127.5 84.0999C127.5 73.0999 121.9 62.1 112.4 54.4L114.2 44.2L108.5 38.5999L116.4 37.5L119.9 30.4L123.4 37.5L131.3 38.5999L125.6 44.2L126.9 52.0999L120.5 48.7999L119.1 51.5Z" fill="#1B3139"/>
<path d="M93.3 86.8H84.1V89.8H93.3C96.4 89.8 98.9 87.3 98.9 84.2C98.9 81.1 96.4 78.6 93.3 78.6H75.7V90H78.7V81.5H93.3C94.7 81.5 95.9 82.7 95.9 84.1C95.9 85.5 94.7 86.8 93.3 86.8Z" fill="#1B3139"/>
<path d="M75.7 95.8999V126.3H78.7V100.6L95.3 124.6L97.7 122.9L79.1 95.8999H75.7Z" fill="#1B3139"/>
</svg>
