<svg width="150" height="150" viewBox="0 0 150 150" fill="none" xmlns="http://www.w3.org/2000/svg">
<path d="M22.15 92.7699C22.15 101.86 46.26 109.23 75.99 109.23C105.72 109.23 129.83 101.86 129.83 92.7699V73.5499C129.83 82.6399 105.72 90.0099 75.99 90.0099C46.26 90.0099 22.15 82.6399 22.15 73.5499V57.1099" stroke="#FF5F46" stroke-width="3" stroke-miterlimit="3" stroke-linecap="square"/>
<path d="M41.04 35.5302C44.3758 35.5302 47.08 32.826 47.08 29.4902C47.08 26.1544 44.3758 23.4502 41.04 23.4502C37.7042 23.4502 35 26.1544 35 29.4902C35 32.826 37.7042 35.5302 41.04 35.5302Z" stroke="#FF5F46" stroke-width="3" stroke-miterlimit="3" stroke-linecap="square"/>
<path d="M65.42 58.4301C68.7558 58.4301 71.46 55.7259 71.46 52.3901C71.46 49.0543 68.7558 46.3501 65.42 46.3501C62.0842 46.3501 59.38 49.0543 59.38 52.3901C59.38 55.7259 62.0842 58.4301 65.42 58.4301Z" stroke="#FF5F46" stroke-width="3" stroke-miterlimit="3" stroke-linecap="square"/>
<path d="M85.55 30.1601C88.8858 30.1601 91.59 27.4559 91.59 24.1201C91.59 20.7843 88.8858 18.0801 85.55 18.0801C82.2142 18.0801 79.51 20.7843 79.51 24.1201C79.51 27.4559 82.2142 30.1601 85.55 30.1601Z" stroke="#FF5F46" stroke-width="3" stroke-miterlimit="3" stroke-linecap="square"/>
<path d="M113.54 47.6098C116.876 47.6098 119.58 44.9056 119.58 41.5698C119.58 38.234 116.876 35.5298 113.54 35.5298C110.204 35.5298 107.5 38.234 107.5 41.5698C107.5 44.9056 110.204 47.6098 113.54 47.6098Z" stroke="#FF5F46" stroke-width="3" stroke-miterlimit="3" stroke-linecap="square"/>
<path d="M49.79 37.9399L60.98 48.2899" stroke="#FF5F46" stroke-width="3" stroke-miterlimit="3" stroke-linecap="square"/>
<path d="M73.12 41.5698L82.05 29.0298" stroke="#FF5F46" stroke-width="3" stroke-miterlimit="3" stroke-linecap="square"/>
<path d="M96.36 30.5298L108.38 37.6498" stroke="#FF5F46" stroke-width="3" stroke-miterlimit="3" stroke-linecap="square"/>
<path d="M125.83 48.9597C128.41 50.8897 129.84 52.9897 129.84 55.1997C129.84 64.2897 105.73 71.6597 76 71.6597C46.27 71.6597 22.16 64.2897 22.16 55.1997C22.16 50.1897 29.49 45.6997 41.05 42.6797" stroke="#FF5F46" stroke-width="3" stroke-miterlimit="3" stroke-linecap="square"/>
<path d="M129.83 111.99C129.83 121.08 105.72 128.45 75.99 128.45C46.25 128.45 22.15 121.08 22.15 111.99V92.77" stroke="#FF5F46" stroke-width="3" stroke-miterlimit="3" stroke-linecap="square"/>
</svg>
