<svg width="150" height="150" viewBox="0 0 150 150" fill="none" xmlns="http://www.w3.org/2000/svg">
<path fill-rule="evenodd" clip-rule="evenodd" d="M23.2257 48.7236C21.7287 48.7236 20.5221 49.9303 20.5221 51.4273V125.841C20.5221 127.338 21.7288 128.544 23.2257 128.544H97.7286C99.2256 128.544 100.432 127.338 100.432 125.841V90.0446H76.8016C76.049 98.393 69.0729 104.891 60.5219 104.891C51.4651 104.891 44.175 97.6014 44.175 88.5446C44.175 79.4877 51.4651 72.1977 60.5219 72.1977C66.2478 72.1977 71.1661 75.1624 74.1039 79.4712L74.804 80.498L58.7331 96.5689L52.3061 90.1419L54.4274 88.0205L58.7331 92.3262L70.8862 80.1731C68.4217 77.1623 64.7268 75.1977 60.5219 75.1977C53.1219 75.1977 47.175 81.1446 47.175 88.5446C47.175 95.9445 53.1219 101.891 60.5219 101.891C67.9219 101.891 73.8688 95.9445 73.8688 88.5446V87.0446H103.432V125.841C103.432 128.995 100.882 131.544 97.7286 131.544H23.2257C20.0719 131.544 17.5221 128.995 17.5221 125.841V51.4273C17.5221 48.2734 20.0719 45.7236 23.2257 45.7236H97.6392C100.793 45.7236 103.343 48.2734 103.343 51.4273V79.1534H100.343V51.4273C100.343 49.9303 99.1362 48.7236 97.6392 48.7236H23.2257Z" fill="#FF5F46"/>
<path fill-rule="evenodd" clip-rule="evenodd" d="M112.218 34.6821H37.8043V31.6821H112.218C115.372 31.6821 117.921 34.2319 117.921 37.3858V111.799H114.921V37.3858C114.921 35.8888 113.715 34.6821 112.218 34.6821Z" fill="#FF5F46"/>
<path fill-rule="evenodd" clip-rule="evenodd" d="M126.796 20.7295H52.3829V17.7295H126.796C129.95 17.7295 132.5 20.2793 132.5 23.4331V97.8466H129.5V23.4331C129.5 21.9361 128.293 20.7295 126.796 20.7295Z" fill="#FF5F46"/>
</svg>
