<svg width="150" height="150" viewBox="0 0 150 150" fill="none" xmlns="http://www.w3.org/2000/svg">
<path fill-rule="evenodd" clip-rule="evenodd" d="M23.2257 48.7238C21.7287 48.7238 20.5221 49.9304 20.5221 51.4274V125.841C20.5221 127.338 21.7287 128.545 23.2257 128.545H97.7286C99.2256 128.545 100.432 127.338 100.432 125.841V90.0447H76.8015C76.049 98.3931 69.0729 104.892 60.5219 104.892C51.465 104.892 44.175 97.6015 44.175 88.5447C44.175 79.4879 51.465 72.1978 60.5219 72.1978C66.2478 72.1978 71.166 75.1625 74.1038 79.4713L74.804 80.4981L58.7331 96.569L52.3061 90.142L54.4274 88.0207L58.7331 92.3264L70.8862 80.1732C68.4217 77.1624 64.7268 75.1978 60.5219 75.1978C53.1219 75.1978 47.175 81.1447 47.175 88.5447C47.175 95.9447 53.1219 101.892 60.5219 101.892C67.9219 101.892 73.8688 95.9447 73.8688 88.5447V87.0447H103.432V125.841C103.432 128.995 100.882 131.545 97.7286 131.545H23.2257C20.0719 131.545 17.5221 128.995 17.5221 125.841V51.4274C17.5221 48.2736 20.0719 45.7238 23.2257 45.7238H97.6392C100.793 45.7238 103.343 48.2736 103.343 51.4274V79.1536H100.343V51.4274C100.343 49.9304 99.1362 48.7238 97.6392 48.7238H23.2257Z" fill="white"/>
<path fill-rule="evenodd" clip-rule="evenodd" d="M112.218 34.6822H37.8043V31.6822H112.218C115.372 31.6822 117.921 34.232 117.921 37.3858V111.799H114.921V37.3858C114.921 35.8888 113.715 34.6822 112.218 34.6822Z" fill="white"/>
<path fill-rule="evenodd" clip-rule="evenodd" d="M126.796 20.7295H52.3829V17.7295H126.796C129.95 17.7295 132.5 20.2793 132.5 23.4331V97.8466H129.5V23.4331C129.5 21.9361 128.293 20.7295 126.796 20.7295Z" fill="white"/>
</svg>
