<svg width="150" height="150" viewBox="0 0 150 150" fill="none" xmlns="http://www.w3.org/2000/svg">
<g clip-path="url(#clip0_5483_1997)">
<path d="M75 54.1403L105.86 36.3203" stroke="#FF5F46" stroke-width="3" stroke-miterlimit="3" stroke-linecap="square"/>
<path d="M68.1901 21.0301L75.0001 17.1001L82.7901 21.6001L107.08 35.6201V72.6601L83.1801 86.4601" stroke="#FF5F46" stroke-width="3" stroke-miterlimit="3" stroke-linecap="square"/>
<path d="M72.49 89.7302L42.92 72.6602V59.7402" stroke="#FF5F46" stroke-width="3" stroke-miterlimit="3" stroke-linecap="square"/>
<path d="M70.91 51.7803L75 54.1403V113.5" stroke="#FF5F46" stroke-width="3" stroke-miterlimit="3" stroke-linecap="square"/>
<path d="M83.92 101.07H114.4C117.13 101.07 119.34 103.28 119.34 106.01V113.51" stroke="#FF5F46" stroke-width="3" stroke-miterlimit="3" stroke-linecap="square"/>
<path d="M30.66 113.5V106C30.66 103.27 32.87 101.06 35.6 101.06H75.01" stroke="#FF5F46" stroke-width="3" stroke-miterlimit="3" stroke-linecap="square"/>
<path d="M37.74 117.2C38.9 118.7 39.58 120.59 39.58 122.63C39.58 127.56 35.59 131.55 30.66 131.55C25.73 131.55 21.74 127.56 21.74 122.63C21.74 117.7 25.73 113.71 30.66 113.71" stroke="#FF5F46" stroke-width="3" stroke-miterlimit="3" stroke-linecap="square"/>
<path d="M82.08 117.2C83.24 118.7 83.92 120.59 83.92 122.63C83.92 127.56 79.93 131.55 75 131.55C70.07 131.55 66.08 127.56 66.08 122.63C66.08 117.7 70.07 113.71 75 113.71" stroke="#FF5F46" stroke-width="3" stroke-miterlimit="3" stroke-linecap="square"/>
<path d="M126.42 117.2C127.58 118.7 128.26 120.59 128.26 122.63C128.26 127.56 124.27 131.55 119.34 131.55C114.41 131.55 110.42 127.56 110.42 122.63C110.42 117.7 114.41 113.71 119.34 113.71" stroke="#FF5F46" stroke-width="3" stroke-miterlimit="3" stroke-linecap="square"/>
<path d="M51.53 54.5999L54.28 57.3499L61.98 49.6499L59.23 46.8999C59.74 45.9399 60.16 44.9299 60.49 43.8699H64.37V32.9799H60.49C60.16 31.9299 59.74 30.9099 59.23 29.9499L61.98 27.1999L54.28 19.4999L51.53 22.2499C50.57 21.7399 49.56 21.3199 48.5 20.9899V17.1099H37.61V20.9899C36.56 21.3199 35.54 21.7399 34.58 22.2499L31.83 19.4999L24.13 27.1999L26.88 29.9499C26.37 30.9099 25.95 31.9199 25.62 32.9799H21.74V43.8699H25.62C25.95 44.9199 26.37 45.9399 26.88 46.8999L24.13 49.6499L31.83 57.3499L34.58 54.5999C35.54 55.1099 36.55 55.5299 37.61 55.8599V59.7399H42.93" stroke="#FF5F46" stroke-width="3" stroke-miterlimit="3" stroke-linecap="square"/>
<path d="M43.05 46.7799C47.5842 46.7799 51.26 43.1041 51.26 38.5699C51.26 34.0356 47.5842 30.3599 43.05 30.3599C38.5157 30.3599 34.84 34.0356 34.84 38.5699C34.84 43.1041 38.5157 46.7799 43.05 46.7799Z" stroke="#FF5F46" stroke-width="3" stroke-miterlimit="3" stroke-linecap="square"/>
</g>
<defs>
<clipPath id="clip0_5483_1997">
<rect width="150" height="150" fill="white"/>
</clipPath>
</defs>
</svg>
