<svg width="150" height="150" viewBox="0 0 150 150" fill="none" xmlns="http://www.w3.org/2000/svg">
<path d="M50.71 97.55C48.7436 97.55 46.8215 98.1333 45.1866 99.2259C43.5518 100.319 42.2777 101.872 41.5257 103.688C40.7737 105.505 40.5774 107.504 40.9618 109.433C41.3461 111.361 42.2938 113.132 43.6849 114.522C45.0761 115.912 46.8481 116.858 48.777 117.24C50.7058 117.623 52.7047 117.424 54.5208 116.671C56.337 115.917 57.8887 114.641 58.9797 113.005C60.0707 111.369 60.652 109.446 60.65 107.48C60.6474 104.846 59.599 102.32 57.7351 100.458C55.8713 98.5959 53.3445 97.55 50.71 97.55V97.55ZM50.71 114.42C49.3374 114.42 47.9956 114.013 46.8544 113.25C45.7131 112.488 44.8236 111.404 44.2983 110.136C43.773 108.868 43.6356 107.472 43.9034 106.126C44.1712 104.78 44.8321 103.543 45.8027 102.573C46.7733 101.602 48.0099 100.941 49.3561 100.673C50.7023 100.406 52.0977 100.543 53.3658 101.068C54.634 101.594 55.7178 102.483 56.4804 103.624C57.243 104.766 57.65 106.107 57.65 107.48C57.65 109.321 56.9188 111.086 55.6173 112.387C54.3158 113.689 52.5506 114.42 50.71 114.42V114.42Z" fill="white"/>
<path d="M110 97.55C108.034 97.55 106.111 98.1333 104.477 99.2259C102.842 100.319 101.568 101.872 100.816 103.688C100.064 105.505 99.8674 107.504 100.252 109.433C100.636 111.361 101.584 113.132 102.975 114.522C104.366 115.912 106.138 116.858 108.067 117.24C109.996 117.623 111.995 117.424 113.811 116.671C115.627 115.917 117.179 114.641 118.27 113.005C119.361 111.369 119.942 109.446 119.94 107.48C119.937 104.846 118.889 102.32 117.025 100.458C115.161 98.5959 112.635 97.55 110 97.55V97.55ZM110 114.42C108.627 114.42 107.286 114.013 106.144 113.25C105.003 112.488 104.114 111.404 103.588 110.136C103.063 108.868 102.926 107.472 103.193 106.126C103.461 104.78 104.122 103.543 105.093 102.573C106.063 101.602 107.3 100.941 108.646 100.673C109.992 100.406 111.388 100.543 112.656 101.068C113.924 101.594 115.008 102.483 115.77 103.624C116.533 104.766 116.94 106.107 116.94 107.48C116.94 109.321 116.209 111.086 114.907 112.387C113.606 113.689 111.841 114.42 110 114.42V114.42Z" fill="white"/>
<path d="M18.8 99.56H32.21V96.56H21.8V83.34H32.21V80.34H21.8V72.01H18.8V80.34H11.85V83.34H18.8V99.56Z" fill="white"/>
<path d="M140.91 105V80.5701L134 61.4601H111.5V32.5801H18.8V48.4901H11.8V51.4901H32.21V48.4901H21.8V35.5801H108.5V86.3001H111.5V64.4601H131.9L137.27 79.3401H116.64V82.3401H137.91V87.6101H131.35V98.9301H137.91V105H125.84L122.61 96.6101C122.083 95.2575 121.161 94.0947 119.964 93.2726C118.768 92.4506 117.352 92.0072 115.9 92.0001H104.09C102.649 92.0064 101.242 92.4428 100.05 93.2534C98.8583 94.064 97.9355 95.2119 97.4 96.5501H69.8V99.5501H96.24L94.15 105H66.52L63.29 96.6001C62.7611 95.2494 61.8386 94.0887 60.6422 93.2685C59.4458 92.4483 58.0305 92.0064 56.58 92.0001H44.77C43.3194 92.0064 41.9042 92.4483 40.7078 93.2685C39.5114 94.0887 38.5889 95.2494 38.06 96.6001L34.83 105H18.68V108H36.89L40.89 97.6901C41.1938 96.9053 41.7258 96.2295 42.4174 95.75C43.109 95.2705 43.9285 95.0093 44.77 95.0001H56.58C57.4252 95.0039 58.2497 95.2614 58.9468 95.7392C59.644 96.217 60.1816 96.8932 60.49 97.6801L64.09 107.03L64.53 108.03H96.21L100.21 97.7201C100.509 96.9296 101.039 96.2475 101.731 95.7624C102.423 95.2773 103.245 95.0117 104.09 95.0001H115.9C116.745 95.0025 117.571 95.2595 118.268 95.7375C118.965 96.2155 119.503 96.8924 119.81 97.6801L123.41 107.03L123.81 108.03H144.63V105.03L140.91 105ZM134.35 95.9401V90.6101H137.91V95.9301L134.35 95.9401Z" fill="white"/>
<path d="M32.21 64.41H21.8V56.27H18.8V64.41H5.38V67.41H32.21V64.41Z" fill="white"/>
</svg>
