<svg width="150" height="150" viewBox="0 0 150 150" fill="none" xmlns="http://www.w3.org/2000/svg">
<path d="M23.7 107.9H27.2V134.9H46.5H67.5H68.8V107.9H72.4V96.5H23.7V107.9ZM30.2 131.9V121.4H46.5V131.9H30.2ZM49.5 131.9V121.4H65.8V131.9H49.5ZM26.7 99.5H69.4V104.9H65.8V106.4V118.4H49.5V107.9H62.2V104.9H33.7999V107.9H46.5V118.4H30.2V106.4V104.9H26.7V99.5Z" fill="#FF5F46"/>
<path d="M99.4999 47.1001H75.2999V35.6001C75.2999 25.9001 83.1999 18.1001 92.7999 18.1001H93.1999C102.8 18.1001 110.7 26.0001 110.7 35.6001V41.8001H113.7V35.6001C113.7 24.3001 104.5 15.1001 93.1999 15.1001H92.7999C81.4999 15.1001 72.2999 24.3001 72.2999 35.6001V47.1001H46.4999V81.3001L43.1999 78.7001C40.5999 76.6001 36.8999 76.6001 34.1999 78.7001C32.3999 80.1001 31.3999 82.2001 31.3999 84.4001C31.3999 86.6001 32.3999 88.7001 34.1999 90.1001C35.3999 91.0001 36.7999 91.5001 38.1999 91.6001H57.6999C59.1999 91.5001 60.5999 91.0001 61.7999 90.1001C63.5999 88.7001 64.5999 86.6001 64.5999 84.4001C64.5999 82.2001 63.5999 80.1001 61.7999 78.7001C59.1999 76.6001 55.4999 76.6001 52.7999 78.7001L49.4999 81.3001V50.1001H72.1999V76.1001H75.1999V50.1001H97.9999V131.9H74.9999V134.9H101V134L112.4 122.6L121.7 131.9H109.2V134.9H124.9H126.4V47.1001H99.4999ZM38.6999 88.7001C37.6999 88.7001 36.7999 88.4001 36.0999 87.8001C35.0999 87.0001 34.4999 85.8001 34.4999 84.5001C34.4999 83.2001 35.0999 82.0001 36.0999 81.2001C37.6999 80.0001 39.7999 80.0001 41.3999 81.2001L46.5999 85.3001V88.9001H39.1999L38.6999 88.7001ZM54.6999 81.0001C56.2999 79.8001 58.3999 79.8001 59.9999 81.0001C60.9999 81.8001 61.5999 83.0001 61.5999 84.3001C61.5999 85.6001 60.9999 86.9001 59.9999 87.7001C59.1999 88.3001 58.2999 88.6001 57.3999 88.6001H49.5999V85.1001L54.6999 81.0001ZM101 50.1001H123.3V129.3L113.9 119.9V55.3001H110.9V119.8L101 129.7V50.1001Z" fill="#FF5F46"/>
</svg>
