<svg width="150" height="150" viewBox="0 0 150 150" fill="none" xmlns="http://www.w3.org/2000/svg">
<path d="M23.7 107.9H27.2V134.9H46.5H67.5H68.8V107.9H72.4V96.5H23.7V107.9ZM30.2 131.9V121.4H46.5V131.9H30.2ZM49.5 131.9V121.4H65.8V131.9H49.5ZM26.7 99.5H69.4V104.9H65.8V106.4V118.4H49.5V107.9H62.2V104.9H33.8V107.9H46.5V118.4H30.2V106.4V104.9H26.7V99.5Z" fill="white"/>
<path d="M99.5 47.1H75.3V35.6C75.3 25.9 83.2 18.1 92.8 18.1H93.2C102.8 18.1 110.7 26 110.7 35.6V41.8H113.7V35.6C113.7 24.3 104.5 15.1 93.2 15.1H92.8C81.5 15.1 72.3 24.3 72.3 35.6V47.1H46.5V81.3L43.2 78.7C40.6 76.6 36.9 76.6 34.2 78.7C32.4 80.1 31.4 82.2 31.4 84.4C31.4 86.6 32.4 88.7 34.2 90.1C35.4 91 36.8 91.5 38.2 91.6H57.7C59.2 91.5 60.6 91 61.8 90.1C63.6 88.7 64.6 86.6 64.6 84.4C64.6 82.2 63.6 80.1 61.8 78.7C59.2 76.6 55.5 76.6 52.8 78.7L49.5 81.3V50.1H72.2V76.1H75.2V50.1H98V131.9H75V134.9H101V134L112.4 122.6L121.7 131.9H109.2V134.9H124.9H126.4V47.1H99.5ZM38.7 88.7C37.7 88.7 36.8 88.4 36.1 87.8C35.1 87 34.5 85.8 34.5 84.5C34.5 83.2 35.1 82 36.1 81.2C37.7 80 39.8 80 41.4 81.2L46.6 85.3V88.9H39.2L38.7 88.7ZM54.7 81C56.3 79.8 58.4 79.8 60 81C61 81.8 61.6 83 61.6 84.3C61.6 85.6 61 86.9 60 87.7C59.2 88.3 58.3 88.6 57.4 88.6H49.6V85.1L54.7 81ZM101 50.1H123.3V129.3L113.9 119.9V55.3H110.9V119.8L101 129.7V50.1V50.1Z" fill="white"/>
</svg>
