<svg width="150" height="150" viewBox="0 0 150 150" fill="none" xmlns="http://www.w3.org/2000/svg">
<g clip-path="url(#clip0_1_2201)">
<path d="M75 54.57L106.22 36.55" stroke="white" stroke-width="3" stroke-miterlimit="3" stroke-linecap="square"/>
<path d="M72.46 90.5801L42.55 73.3101V35.8401L75 17.1001L82.88 21.6501L107.45 35.8401V73.3101L83.27 87.2701" stroke="white" stroke-width="3" stroke-miterlimit="3" stroke-linecap="square"/>
<path d="M44.07 36.7102L75 54.5702V114.64" stroke="white" stroke-width="3" stroke-miterlimit="3" stroke-linecap="square"/>
<path d="M84.03 102.05H114.87C117.63 102.05 119.87 104.29 119.87 107.05V114.64" stroke="white" stroke-width="3" stroke-miterlimit="3" stroke-linecap="square"/>
<path d="M30.14 114.64V107.05C30.14 104.29 32.38 102.05 35.14 102.05H75.01" stroke="white" stroke-width="3" stroke-miterlimit="3" stroke-linecap="square"/>
<path d="M37.3 118.38C38.47 119.9 39.16 121.81 39.16 123.87C39.16 128.86 35.12 132.9 30.13 132.9C25.14 132.9 21.1 128.86 21.1 123.87C21.1 118.88 25.14 114.84 30.13 114.84" stroke="white" stroke-width="3" stroke-miterlimit="3" stroke-linecap="square"/>
<path d="M82.16 118.38C83.33 119.9 84.02 121.81 84.02 123.87C84.02 128.86 79.98 132.9 74.99 132.9C70 132.9 65.96 128.86 65.96 123.87C65.96 118.88 70 114.84 74.99 114.84" stroke="white" stroke-width="3" stroke-miterlimit="3" stroke-linecap="square"/>
<path d="M127.03 118.38C128.2 119.9 128.89 121.81 128.89 123.87C128.89 128.86 124.85 132.9 119.86 132.9C114.87 132.9 110.83 128.86 110.83 123.87C110.83 118.88 114.87 114.84 119.86 114.84" stroke="white" stroke-width="3" stroke-miterlimit="3" stroke-linecap="square"/>
</g>
<defs>
<clipPath id="clip0_1_2201">
<rect width="150" height="150" fill="white"/>
</clipPath>
</defs>
</svg>
