<svg width="889" height="200" viewBox="0 0 889 200" fill="none" xmlns="http://www.w3.org/2000/svg">
<path d="M175 25H68.75L68.7994 68.75L131.25 68.8127L131.3 131.313L175.099 131.25L175 25Z" fill="#C4CCD6"/>
<path d="M68.75 68.75H25L25 175.026H131.201L131.25 131.25H68.7993L68.75 68.75Z" fill="#618794"/>
<path d="M274.173 138.825C266.518 138.825 259.894 137.169 254.301 133.857C248.781 130.471 244.512 125.798 241.494 119.836C238.55 113.801 237.078 106.846 237.078 98.9704C237.078 91.0216 238.55 84.0664 241.494 78.1048C244.512 72.0696 248.781 67.3592 254.301 63.9736C259.894 60.588 266.518 58.8952 274.173 58.8952C283.373 58.8952 290.88 61.1768 296.694 65.74C302.509 70.2296 306.189 76.596 307.734 84.8392H293.162C292.131 80.4968 290.034 77.0744 286.869 74.572C283.704 72.0696 279.435 70.8184 274.062 70.8184C269.205 70.8184 265.01 71.9592 261.477 74.2408C258.018 76.4488 255.331 79.6872 253.418 83.956C251.578 88.1512 250.658 93.156 250.658 98.9704C250.658 104.785 251.578 109.79 253.418 113.985C255.331 118.106 258.018 121.308 261.477 123.59C265.01 125.798 269.205 126.902 274.062 126.902C279.435 126.902 283.704 125.761 286.869 123.479C290.034 121.124 292.131 117.886 293.162 113.764H307.734C306.262 121.566 302.582 127.711 296.694 132.201C290.88 136.617 283.373 138.825 274.173 138.825ZM316.944 137.5V58.012H330.192V137.5H316.944ZM367.718 138.825C362.198 138.825 357.34 137.647 353.145 135.292C348.95 132.863 345.675 129.478 343.319 125.135C340.964 120.793 339.787 115.788 339.787 110.121C339.787 104.233 340.927 99.0808 343.209 94.6648C345.564 90.2488 348.839 86.7896 353.035 84.2872C357.303 81.7848 362.235 80.5336 367.828 80.5336C373.275 80.5336 378.022 81.748 382.07 84.1768C386.118 86.6056 389.246 89.8808 391.454 94.0024C393.662 98.0504 394.766 102.614 394.766 107.692C394.766 108.428 394.766 109.238 394.766 110.121C394.766 111.004 394.692 111.924 394.545 112.881H349.281V104.38H381.407C381.26 100.332 379.899 97.1672 377.323 94.8856C374.747 92.5304 371.545 91.3528 367.718 91.3528C364.995 91.3528 362.492 91.9784 360.211 93.2296C357.929 94.4808 356.126 96.3576 354.801 98.86C353.476 101.289 352.814 104.38 352.814 108.134V111.335C352.814 114.794 353.439 117.775 354.691 120.278C356.015 122.78 357.782 124.694 359.99 126.018C362.271 127.27 364.811 127.895 367.607 127.895C370.699 127.895 373.238 127.233 375.225 125.908C377.286 124.583 378.795 122.817 379.751 120.609H393.22C392.19 124.068 390.497 127.196 388.142 129.993C385.787 132.716 382.879 134.887 379.42 136.506C375.961 138.052 372.06 138.825 367.718 138.825ZM422.233 138.825C417.67 138.825 413.879 138.052 410.862 136.506C407.844 134.961 405.599 132.9 404.127 130.324C402.655 127.748 401.919 124.951 401.919 121.934C401.919 118.401 402.803 115.346 404.569 112.77C406.409 110.194 409.095 108.207 412.628 106.809C416.161 105.337 420.503 104.601 425.655 104.601H439.676C439.676 101.657 439.271 99.228 438.462 97.3144C437.652 95.3272 436.401 93.8552 434.708 92.8984C433.015 91.9416 430.844 91.4632 428.195 91.4632C425.177 91.4632 422.601 92.1624 420.467 93.5608C418.332 94.8856 417.007 96.9464 416.492 99.7432H403.465C403.907 95.7688 405.231 92.3832 407.439 89.5864C409.647 86.716 412.555 84.508 416.161 82.9624C419.841 81.3432 423.852 80.5336 428.195 80.5336C433.42 80.5336 437.873 81.4536 441.553 83.2936C445.233 85.06 448.03 87.636 449.943 91.0216C451.931 94.3336 452.924 98.3448 452.924 103.055V137.5H441.663L440.339 128.558C439.603 130.03 438.646 131.391 437.468 132.642C436.364 133.894 435.076 134.998 433.604 135.954C432.132 136.838 430.439 137.537 428.526 138.052C426.686 138.567 424.588 138.825 422.233 138.825ZM425.214 128.337C427.348 128.337 429.225 127.969 430.844 127.233C432.537 126.423 433.972 125.319 435.15 123.921C436.401 122.449 437.358 120.83 438.02 119.063C438.683 117.297 439.124 115.42 439.345 113.433V113.212H427.091C424.515 113.212 422.38 113.543 420.687 114.206C418.995 114.794 417.78 115.678 417.044 116.855C416.308 118.033 415.94 119.394 415.94 120.94C415.94 122.486 416.308 123.81 417.044 124.914C417.78 126.018 418.847 126.865 420.246 127.454C421.644 128.042 423.3 128.337 425.214 128.337ZM463.768 137.5V81.8584H475.47L476.464 91.132C478.156 87.8936 480.585 85.3176 483.75 83.404C486.915 81.4904 490.668 80.5336 495.011 80.5336C499.5 80.5336 503.328 81.4904 506.492 83.404C509.657 85.244 512.086 87.9672 513.779 91.5736C515.545 95.18 516.428 99.6696 516.428 105.042V137.5H503.18V106.257C503.18 101.62 502.15 98.0504 500.089 95.548C498.028 93.0456 494.974 91.7944 490.926 91.7944C488.276 91.7944 485.884 92.42 483.75 93.6712C481.689 94.9224 480.033 96.7624 478.782 99.1912C477.604 101.546 477.016 104.417 477.016 107.802V137.5H463.768ZM551.166 137.5V60.22H578.877C584.986 60.22 590.027 61.2872 594.002 63.4216C598.05 65.4824 601.03 68.2792 602.944 71.812C604.931 75.2712 605.925 79.2088 605.925 83.6248C605.925 87.7464 604.968 91.5736 603.054 95.1064C601.141 98.6392 598.16 101.473 594.112 103.607C590.064 105.742 584.875 106.809 578.546 106.809H564.414V137.5H551.166ZM591.462 137.5L575.234 103.386H589.586L606.587 137.5H591.462ZM564.414 96.9832H577.994C582.925 96.9832 586.531 95.8056 588.813 93.4504C591.168 91.0216 592.346 87.8568 592.346 83.956C592.346 80.1288 591.205 77.0744 588.923 74.7928C586.642 72.4376 582.998 71.26 577.994 71.26H564.414V96.9832ZM638.476 138.825C633.176 138.825 628.392 137.61 624.124 135.182C619.928 132.679 616.616 129.257 614.188 124.914C611.832 120.498 610.655 115.457 610.655 109.79C610.655 103.975 611.869 98.8968 614.298 94.5544C616.727 90.1384 620.039 86.716 624.234 84.2872C628.503 81.7848 633.287 80.5336 638.586 80.5336C643.885 80.5336 648.632 81.7848 652.828 84.2872C657.096 86.716 660.408 90.1016 662.764 94.444C665.192 98.7864 666.407 103.865 666.407 109.679C666.407 115.494 665.192 120.572 662.764 124.914C660.335 129.257 656.986 132.679 652.717 135.182C648.522 137.61 643.775 138.825 638.476 138.825ZM638.476 127.454C641.125 127.454 643.517 126.791 645.652 125.466C647.86 124.142 649.626 122.154 650.951 119.505C652.276 116.855 652.938 113.58 652.938 109.679C652.938 105.778 652.276 102.54 650.951 99.964C649.7 97.3144 647.97 95.3272 645.762 94.0024C643.628 92.6776 641.236 92.0152 638.586 92.0152C636.01 92.0152 633.618 92.6776 631.41 94.0024C629.202 95.3272 627.436 97.3144 626.111 99.964C624.786 102.54 624.124 105.778 624.124 109.679C624.124 113.58 624.786 116.855 626.111 119.505C627.436 122.154 629.165 124.142 631.3 125.466C633.508 126.791 635.9 127.454 638.476 127.454ZM702.007 138.825C696.708 138.825 691.924 137.61 687.655 135.182C683.46 132.679 680.148 129.257 677.719 124.914C675.364 120.498 674.187 115.457 674.187 109.79C674.187 103.975 675.401 98.8968 677.83 94.5544C680.259 90.1384 683.571 86.716 687.766 84.2872C692.035 81.7848 696.819 80.5336 702.118 80.5336C707.417 80.5336 712.164 81.7848 716.359 84.2872C720.628 86.716 723.94 90.1016 726.295 94.444C728.724 98.7864 729.939 103.865 729.939 109.679C729.939 115.494 728.724 120.572 726.295 124.914C723.867 129.257 720.518 132.679 716.249 135.182C712.054 137.61 707.307 138.825 702.007 138.825ZM702.007 127.454C704.657 127.454 707.049 126.791 709.183 125.466C711.391 124.142 713.158 122.154 714.483 119.505C715.807 116.855 716.47 113.58 716.47 109.679C716.47 105.778 715.807 102.54 714.483 99.964C713.231 97.3144 711.502 95.3272 709.294 94.0024C707.159 92.6776 704.767 92.0152 702.118 92.0152C699.542 92.0152 697.15 92.6776 694.942 94.0024C692.734 95.3272 690.967 97.3144 689.643 99.964C688.318 102.54 687.655 105.778 687.655 109.679C687.655 113.58 688.318 116.855 689.643 119.505C690.967 122.154 692.697 124.142 694.831 125.466C697.039 126.791 699.431 127.454 702.007 127.454ZM739.595 137.5V81.8584H751.297L752.401 89.476C754.168 86.6792 756.486 84.508 759.357 82.9624C762.301 81.3432 765.649 80.5336 769.403 80.5336C772.2 80.5336 774.702 80.9016 776.91 81.6376C779.192 82.3736 781.179 83.4776 782.872 84.9496C784.638 86.4216 786.073 88.2616 787.177 90.4696C789.238 87.3784 791.925 84.9496 795.237 83.1832C798.549 81.4168 802.155 80.5336 806.056 80.5336C810.693 80.5336 814.63 81.4904 817.869 83.404C821.107 85.244 823.573 88.004 825.265 91.684C826.958 95.2904 827.805 99.7432 827.805 105.042V137.5H814.667V106.367C814.667 101.657 813.71 98.0504 811.797 95.548C809.883 93.0456 807.049 91.7944 803.296 91.7944C800.72 91.7944 798.438 92.42 796.451 93.6712C794.537 94.9224 793.029 96.7624 791.925 99.1912C790.821 101.546 790.269 104.454 790.269 107.913V137.5H777.131V106.367C777.131 101.657 776.174 98.0504 774.261 95.548C772.347 93.0456 769.477 91.7944 765.649 91.7944C763.221 91.7944 761.013 92.42 759.025 93.6712C757.112 94.9224 755.603 96.7624 754.499 99.1912C753.395 101.546 752.843 104.454 752.843 107.913V137.5H739.595ZM860.68 138.825C855.749 138.825 851.443 138.052 847.763 136.506C844.157 134.887 841.286 132.679 839.152 129.882C837.091 127.012 835.877 123.737 835.509 120.057H848.757C849.125 121.602 849.787 123.038 850.744 124.362C851.701 125.614 852.989 126.607 854.608 127.343C856.301 128.079 858.288 128.447 860.569 128.447C862.777 128.447 864.581 128.153 865.979 127.564C867.377 126.902 868.408 126.055 869.07 125.025C869.733 123.994 870.064 122.89 870.064 121.713C870.064 119.946 869.585 118.585 868.629 117.628C867.672 116.671 866.273 115.935 864.433 115.42C862.667 114.831 860.533 114.279 858.03 113.764C855.381 113.249 852.805 112.623 850.302 111.887C847.873 111.078 845.665 110.084 843.678 108.906C841.765 107.729 840.219 106.22 839.041 104.38C837.937 102.54 837.385 100.295 837.385 97.6456C837.385 94.4072 838.232 91.5 839.925 88.924C841.691 86.348 844.193 84.324 847.432 82.852C850.744 81.3064 854.681 80.5336 859.245 80.5336C865.721 80.5336 870.873 82.0424 874.701 85.06C878.601 88.004 880.883 92.1624 881.545 97.5352H868.96C868.592 95.4744 867.561 93.892 865.869 92.788C864.176 91.6104 861.931 91.0216 859.134 91.0216C856.264 91.0216 854.056 91.5736 852.51 92.6776C851.038 93.708 850.302 95.1064 850.302 96.8728C850.302 97.9768 850.744 99.0072 851.627 99.964C852.584 100.847 853.945 101.62 855.712 102.282C857.478 102.871 859.649 103.46 862.225 104.049C866.347 104.858 869.99 105.815 873.155 106.919C876.32 108.023 878.822 109.642 880.662 111.777C882.502 113.911 883.422 116.929 883.422 120.83C883.496 124.362 882.576 127.49 880.662 130.214C878.822 132.937 876.209 135.071 872.824 136.617C869.438 138.089 865.39 138.825 860.68 138.825Z" fill="white"/>
</svg>
