<svg width="1011" height="200" viewBox="0 0 1011 200" fill="none" xmlns="http://www.w3.org/2000/svg">
<path d="M68.8047 59.1755L49.9346 69.4294V131.139L68.8047 141.392V168.596L25 143.409V57.1599L68.8047 31.9734V59.1755ZM175 57.1599V143.409L131.305 168.533V141.333L150.064 131.139V69.4294L131.305 59.2351V32.0359L175 57.1599Z" fill="#FABFBA"/>
<path d="M134.579 81.1972V119.373L100.291 138.461L66.0039 119.373V81.1972L100.291 62.1092L134.579 81.1972ZM75.6999 86.628V113.942L100.291 127.632L124.883 113.942V86.628L100.291 72.9376L75.6999 86.628Z" fill="#FF5F46"/>
<path d="M75.6999 86.628V113.942L100.291 127.632L124.883 113.942V86.628L100.291 72.9376L75.6999 86.628Z" fill="#FF5F46"/>
<path d="M239.838 137.5V60.22H264.789C273.768 60.22 281.165 61.8024 286.979 64.9672C292.867 68.132 297.21 72.6216 300.006 78.436C302.877 84.1768 304.312 91.0216 304.312 98.9704C304.312 106.772 302.877 113.58 300.006 119.394C297.21 125.135 292.867 129.588 286.979 132.753C281.165 135.918 273.768 137.5 264.789 137.5H239.838ZM253.086 126.239H264.126C270.824 126.239 276.086 125.172 279.914 123.038C283.814 120.83 286.574 117.702 288.194 113.654C289.886 109.532 290.733 104.638 290.733 98.9704C290.733 93.2296 289.886 88.3352 288.194 84.2872C286.574 80.1656 283.814 77.0008 279.914 74.7928C276.086 72.5112 270.824 71.3704 264.126 71.3704H253.086V126.239ZM332.041 138.825C327.478 138.825 323.688 138.052 320.67 136.506C317.653 134.961 315.408 132.9 313.936 130.324C312.464 127.748 311.728 124.951 311.728 121.934C311.728 118.401 312.611 115.346 314.377 112.77C316.217 110.194 318.904 108.207 322.437 106.809C325.969 105.337 330.312 104.601 335.464 104.601H349.485C349.485 101.657 349.08 99.228 348.27 97.3144C347.461 95.3272 346.209 93.8552 344.517 92.8984C342.824 91.9416 340.653 91.4632 338.003 91.4632C334.985 91.4632 332.409 92.1624 330.275 93.5608C328.141 94.8856 326.816 96.9464 326.301 99.7432H313.273C313.715 95.7688 315.04 92.3832 317.248 89.5864C319.456 86.716 322.363 84.508 325.969 82.9624C329.649 81.3432 333.661 80.5336 338.003 80.5336C343.229 80.5336 347.681 81.4536 351.361 83.2936C355.041 85.06 357.838 87.636 359.752 91.0216C361.739 94.3336 362.733 98.3448 362.733 103.055V137.5H351.472L350.147 128.558C349.411 130.03 348.454 131.391 347.277 132.642C346.173 133.894 344.885 134.998 343.413 135.954C341.941 136.838 340.248 137.537 338.334 138.052C336.494 138.567 334.397 138.825 332.041 138.825ZM335.022 128.337C337.157 128.337 339.033 127.969 340.653 127.233C342.345 126.423 343.781 125.319 344.958 123.921C346.209 122.449 347.166 120.83 347.829 119.063C348.491 117.297 348.933 115.42 349.153 113.433V113.212H336.899C334.323 113.212 332.189 113.543 330.496 114.206C328.803 114.794 327.589 115.678 326.853 116.855C326.117 118.033 325.749 119.394 325.749 120.94C325.749 122.486 326.117 123.81 326.853 124.914C327.589 126.018 328.656 126.865 330.054 127.454C331.453 128.042 333.109 128.337 335.022 128.337ZM396.891 137.5C393.137 137.5 389.862 136.911 387.065 135.734C384.342 134.556 382.208 132.606 380.662 129.882C379.117 127.159 378.344 123.479 378.344 118.842V93.0088H368.849V81.8584H378.344L379.889 67.1752H391.592V81.8584H406.717V93.0088H391.592V118.842C391.592 121.639 392.181 123.59 393.358 124.694C394.609 125.724 396.67 126.239 399.541 126.239H406.385V137.5H396.891ZM434.416 138.825C429.853 138.825 426.062 138.052 423.045 136.506C420.027 134.961 417.782 132.9 416.31 130.324C414.838 127.748 414.102 124.951 414.102 121.934C414.102 118.401 414.985 115.346 416.752 112.77C418.592 110.194 421.278 108.207 424.811 106.809C428.344 105.337 432.686 104.601 437.838 104.601H451.859C451.859 101.657 451.454 99.228 450.645 97.3144C449.835 95.3272 448.584 93.8552 446.891 92.8984C445.198 91.9416 443.027 91.4632 440.377 91.4632C437.36 91.4632 434.784 92.1624 432.649 93.5608C430.515 94.8856 429.19 96.9464 428.675 99.7432H415.648C416.089 95.7688 417.414 92.3832 419.622 89.5864C421.83 86.716 424.737 84.508 428.344 82.9624C432.024 81.3432 436.035 80.5336 440.377 80.5336C445.603 80.5336 450.056 81.4536 453.736 83.2936C457.416 85.06 460.213 87.636 462.126 91.0216C464.113 94.3336 465.107 98.3448 465.107 103.055V137.5H453.846L452.521 128.558C451.785 130.03 450.829 131.391 449.651 132.642C448.547 133.894 447.259 134.998 445.787 135.954C444.315 136.838 442.622 137.537 440.709 138.052C438.869 138.567 436.771 138.825 434.416 138.825ZM437.397 128.337C439.531 128.337 441.408 127.969 443.027 127.233C444.72 126.423 446.155 125.319 447.333 123.921C448.584 122.449 449.541 120.83 450.203 119.063C450.865 117.297 451.307 115.42 451.528 113.433V113.212H439.273C436.697 113.212 434.563 113.543 432.87 114.206C431.177 114.794 429.963 115.678 429.227 116.855C428.491 118.033 428.123 119.394 428.123 120.94C428.123 122.486 428.491 123.81 429.227 124.914C429.963 126.018 431.03 126.865 432.429 127.454C433.827 128.042 435.483 128.337 437.397 128.337ZM507.746 138.825C504.802 138.825 502.152 138.42 499.797 137.61C497.442 136.874 495.381 135.844 493.614 134.519C491.848 133.121 490.376 131.538 489.198 129.772L487.763 137.5H475.95V58.012H489.198V90.028C490.965 87.3048 493.357 85.06 496.374 83.2936C499.392 81.4536 503.146 80.5336 507.635 80.5336C512.861 80.5336 517.461 81.8216 521.435 84.3976C525.483 86.9 528.648 90.3592 530.93 94.7752C533.285 99.1176 534.462 104.122 534.462 109.79C534.462 115.31 533.322 120.278 531.04 124.694C528.758 129.11 525.594 132.569 521.546 135.071C517.571 137.574 512.971 138.825 507.746 138.825ZM504.986 127.343C508.077 127.343 510.837 126.607 513.266 125.135C515.694 123.59 517.571 121.529 518.896 118.953C520.294 116.303 520.994 113.212 520.994 109.679C520.994 106.22 520.294 103.166 518.896 100.516C517.571 97.8664 515.694 95.8056 513.266 94.3336C510.837 92.8616 508.077 92.1256 504.986 92.1256C501.821 92.1256 499.024 92.8616 496.595 94.3336C494.24 95.8056 492.363 97.8664 490.965 100.516C489.64 103.166 488.978 106.22 488.978 109.679C488.978 113.212 489.64 116.303 490.965 118.953C492.363 121.529 494.24 123.59 496.595 125.135C499.024 126.607 501.821 127.343 504.986 127.343ZM544.01 137.5V81.8584H555.823L557.037 92.236C558.362 89.8072 560.018 87.7464 562.005 86.0536C563.993 84.2872 566.311 82.9256 568.961 81.9688C571.684 81.012 574.665 80.5336 577.903 80.5336V94.5544H573.266C571.058 94.5544 568.961 94.8488 566.973 95.4376C564.986 95.9528 563.257 96.836 561.785 98.0872C560.386 99.2648 559.282 100.921 558.473 103.055C557.663 105.116 557.258 107.729 557.258 110.894V137.5H544.01ZM585.13 137.5V81.8584H598.378V137.5H585.13ZM591.754 73.0264C589.325 73.0264 587.301 72.2904 585.682 70.8184C584.136 69.2728 583.364 67.396 583.364 65.188C583.364 62.9064 584.136 61.0664 585.682 59.668C587.301 58.196 589.325 57.46 591.754 57.46C594.183 57.46 596.17 58.196 597.716 59.668C599.335 61.0664 600.144 62.9064 600.144 65.188C600.144 67.396 599.335 69.2728 597.716 70.8184C596.17 72.2904 594.183 73.0264 591.754 73.0264ZM636.761 138.825C631.315 138.825 626.42 137.61 622.078 135.182C617.809 132.679 614.46 129.257 612.031 124.914C609.676 120.498 608.499 115.494 608.499 109.9C608.499 104.086 609.676 99.0072 612.031 94.6648C614.46 90.2488 617.809 86.7896 622.078 84.2872C626.42 81.7848 631.351 80.5336 636.871 80.5336C643.79 80.5336 649.604 82.3736 654.315 86.0536C659.025 89.66 662.043 94.628 663.367 100.958H649.457C648.721 98.1608 647.175 95.9528 644.82 94.3336C642.539 92.7144 639.815 91.9048 636.651 91.9048C633.927 91.9048 631.425 92.604 629.143 94.0024C626.935 95.4008 625.169 97.4248 623.844 100.074C622.593 102.724 621.967 105.926 621.967 109.679C621.967 112.55 622.335 115.089 623.071 117.297C623.807 119.505 624.838 121.382 626.163 122.927C627.561 124.399 629.143 125.54 630.91 126.35C632.676 127.159 634.59 127.564 636.651 127.564C638.785 127.564 640.699 127.233 642.391 126.57C644.158 125.834 645.63 124.767 646.807 123.369C648.059 121.97 648.942 120.314 649.457 118.401H663.367C662.043 124.583 659.025 129.551 654.315 133.305C649.604 136.985 643.753 138.825 636.761 138.825ZM708.709 137.5L684.09 107.03L706.17 81.8584H721.957L694.467 112.439V102.172L725.269 137.5H708.709ZM672.829 137.5V58.012H686.077V137.5H672.829ZM750.25 138.825C745.318 138.825 741.013 138.052 737.333 136.506C733.726 134.887 730.856 132.679 728.722 129.882C726.661 127.012 725.446 123.737 725.078 120.057H738.326C738.694 121.602 739.357 123.038 740.314 124.362C741.27 125.614 742.558 126.607 744.178 127.343C745.87 128.079 747.858 128.447 750.139 128.447C752.347 128.447 754.15 128.153 755.549 127.564C756.947 126.902 757.978 126.055 758.64 125.025C759.302 123.994 759.634 122.89 759.634 121.713C759.634 119.946 759.155 118.585 758.198 117.628C757.242 116.671 755.843 115.935 754.003 115.42C752.237 114.831 750.102 114.279 747.6 113.764C744.95 113.249 742.374 112.623 739.872 111.887C737.443 111.078 735.235 110.084 733.248 108.906C731.334 107.729 729.789 106.22 728.611 104.38C727.507 102.54 726.955 100.295 726.955 97.6456C726.955 94.4072 727.802 91.5 729.494 88.924C731.261 86.348 733.763 84.324 737.002 82.852C740.314 81.3064 744.251 80.5336 748.814 80.5336C755.291 80.5336 760.443 82.0424 764.27 85.06C768.171 88.004 770.453 92.1624 771.115 97.5352H758.53C758.162 95.4744 757.131 93.892 755.438 92.788C753.746 91.6104 751.501 91.0216 748.704 91.0216C745.834 91.0216 743.626 91.5736 742.08 92.6776C740.608 93.708 739.872 95.1064 739.872 96.8728C739.872 97.9768 740.314 99.0072 741.197 99.964C742.154 100.847 743.515 101.62 745.282 102.282C747.048 102.871 749.219 103.46 751.795 104.049C755.917 104.858 759.56 105.815 762.725 106.919C765.89 108.023 768.392 109.642 770.232 111.777C772.072 113.911 772.992 116.929 772.992 120.83C773.066 124.362 772.146 127.49 770.232 130.214C768.392 132.937 765.779 135.071 762.394 136.617C759.008 138.089 754.96 138.825 750.25 138.825ZM841.835 138.825C834.401 138.825 827.814 137.169 822.073 133.857C816.406 130.471 811.953 125.798 808.715 119.836C805.477 113.801 803.857 106.809 803.857 98.86C803.857 90.9848 805.477 84.0664 808.715 78.1048C811.953 72.0696 816.406 67.3592 822.073 63.9736C827.814 60.588 834.401 58.8952 841.835 58.8952C849.416 58.8952 856.077 60.588 861.817 63.9736C867.558 67.3592 872.011 72.0696 875.176 78.1048C878.341 84.0664 879.923 90.9848 879.923 98.86C879.923 106.809 878.341 113.801 875.176 119.836C872.011 125.798 867.558 130.471 861.817 133.857C856.077 137.169 849.416 138.825 841.835 138.825ZM841.945 126.902C846.877 126.902 851.182 125.798 854.862 123.59C858.542 121.308 861.376 118.07 863.363 113.874C865.35 109.679 866.344 104.674 866.344 98.86C866.344 93.0456 865.35 88.0408 863.363 83.8456C861.376 79.6504 858.542 76.4488 854.862 74.2408C851.182 71.9592 846.877 70.8184 841.945 70.8184C837.014 70.8184 832.709 71.9592 829.029 74.2408C825.349 76.4488 822.478 79.6504 820.417 83.8456C818.43 88.0408 817.437 93.0456 817.437 98.86C817.437 104.674 818.43 109.679 820.417 113.874C822.478 118.07 825.349 121.308 829.029 123.59C832.709 125.798 837.014 126.902 841.945 126.902ZM889.114 137.5V81.8584H900.816L901.81 91.132C903.503 87.8936 905.931 85.3176 909.096 83.404C912.261 81.4904 916.015 80.5336 920.357 80.5336C924.847 80.5336 928.674 81.4904 931.839 83.404C935.003 85.244 937.432 87.9672 939.125 91.5736C940.891 95.18 941.775 99.6696 941.775 105.042V137.5H928.527V106.257C928.527 101.62 927.496 98.0504 925.435 95.548C923.375 93.0456 920.32 91.7944 916.272 91.7944C913.623 91.7944 911.231 92.42 909.096 93.6712C907.035 94.9224 905.379 96.7624 904.128 99.1912C902.951 101.546 902.362 104.417 902.362 107.802V137.5H889.114ZM978.484 138.825C972.964 138.825 968.107 137.647 963.911 135.292C959.716 132.863 956.441 129.478 954.086 125.135C951.731 120.793 950.553 115.788 950.553 110.121C950.553 104.233 951.694 99.0808 953.975 94.6648C956.331 90.2488 959.606 86.7896 963.801 84.2872C968.07 81.7848 973.001 80.5336 978.595 80.5336C984.041 80.5336 988.788 81.748 992.836 84.1768C996.884 86.6056 1000.01 89.8808 1002.22 94.0024C1004.43 98.0504 1005.53 102.614 1005.53 107.692C1005.53 108.428 1005.53 109.238 1005.53 110.121C1005.53 111.004 1005.46 111.924 1005.31 112.881H960.047V104.38H992.174C992.027 100.332 990.665 97.1672 988.089 94.8856C985.513 92.5304 982.311 91.3528 978.484 91.3528C975.761 91.3528 973.259 91.9784 970.977 93.2296C968.695 94.4808 966.892 96.3576 965.567 98.86C964.243 101.289 963.58 104.38 963.58 108.134V111.335C963.58 114.794 964.206 117.775 965.457 120.278C966.782 122.78 968.548 124.694 970.756 126.018C973.038 127.27 975.577 127.895 978.374 127.895C981.465 127.895 984.004 127.233 985.991 125.908C988.052 124.583 989.561 122.817 990.518 120.609H1003.99C1002.96 124.068 1001.26 127.196 998.908 129.993C996.553 132.716 993.646 134.887 990.187 136.506C986.727 138.052 982.827 138.825 978.484 138.825Z" fill="#1B3139"/>
</svg>
