<svg width="892" height="300" viewBox="0 0 892 300" fill="none" xmlns="http://www.w3.org/2000/svg">
<path d="M262.5 71.1689C249.048 78.1941 238.898 90.7175 238.898 105.385V184.827H198.398V113.433C198.398 86.7477 176.764 65.1157 150.079 65.1134C125.11 65.1146 102.021 84.3758 102.021 108.349V130.838H61.5234V108.912H61.3048C61.3048 93.2257 51.3261 79.2899 37.5 71.552V37.5H262.5V71.1689Z" fill="#FF5F46"/>
<path d="M37.5 154.688H94.9219C124.693 154.688 148.828 178.822 148.828 208.594H37.5V154.688Z" fill="#FABFBA"/>
<path d="M261.328 262.5L202.734 262.5C172.963 262.5 148.828 238.365 148.828 208.594L261.328 208.594V262.5Z" fill="#FABFBA"/>
<path d="M340.501 138V60.72H360.373C369.352 60.72 376.749 62.3024 382.563 65.4672C388.451 68.5584 392.794 73.0112 395.59 78.8256C398.461 84.5664 399.896 91.4848 399.896 99.5808C399.896 107.53 398.461 114.374 395.59 120.115C392.794 125.856 388.451 130.272 382.563 133.363C376.749 136.454 369.352 138 360.373 138H340.501ZM349.774 130.272H360.152C367.586 130.272 373.51 129.058 377.926 126.629C382.342 124.126 385.507 120.594 387.421 116.03C389.334 111.394 390.291 105.91 390.291 99.5808C390.291 93.104 389.334 87.5472 387.421 82.9104C385.507 78.2736 382.342 74.704 377.926 72.2016C373.51 69.6992 367.586 68.448 360.152 68.448H349.774V130.272ZM427.945 139.325C423.529 139.325 419.849 138.515 416.905 136.896C413.961 135.203 411.753 132.995 410.281 130.272C408.809 127.475 408.073 124.494 408.073 121.33C408.073 117.502 409.029 114.264 410.943 111.614C412.93 108.891 415.69 106.83 419.223 105.432C422.756 104.034 426.877 103.334 431.588 103.334H446.05C446.05 99.5808 445.609 96.4528 444.725 93.9504C443.842 91.448 442.407 89.5712 440.42 88.32C438.433 87.0688 435.783 86.4432 432.471 86.4432C429.159 86.4432 426.325 87.2896 423.97 88.9824C421.615 90.6016 420.143 93.0304 419.554 96.2688H410.06C410.501 92.4416 411.789 89.24 413.924 86.664C416.058 84.0144 418.745 82.0272 421.983 80.7024C425.295 79.304 428.791 78.6048 432.471 78.6048C437.697 78.6048 442.002 79.5616 445.388 81.4752C448.773 83.3152 451.276 85.928 452.895 89.3136C454.514 92.6256 455.324 96.5632 455.324 101.126V138H447.044L446.492 128.064C445.756 129.61 444.799 131.082 443.621 132.48C442.517 133.805 441.193 134.982 439.647 136.013C438.101 137.043 436.335 137.853 434.348 138.442C432.434 139.03 430.3 139.325 427.945 139.325ZM429.269 131.486C431.698 131.486 433.943 130.934 436.004 129.83C438.065 128.726 439.831 127.254 441.303 125.414C442.849 123.501 444.026 121.366 444.836 119.011C445.645 116.656 446.05 114.19 446.05 111.614V110.51H432.361C428.901 110.51 426.068 110.952 423.86 111.835C421.725 112.718 420.18 113.97 419.223 115.589C418.266 117.134 417.788 118.901 417.788 120.888C417.788 123.022 418.229 124.899 419.113 126.518C419.996 128.064 421.284 129.278 422.977 130.162C424.743 131.045 426.841 131.486 429.269 131.486ZM488.345 138C485.033 138 482.163 137.485 479.734 136.454C477.305 135.424 475.429 133.694 474.104 131.266C472.853 128.763 472.227 125.414 472.227 121.219V87.768H462.07V79.9296H472.227L473.441 65.4672H481.501V79.9296H497.95V87.768H481.501V121.219C481.501 124.678 482.2 127.034 483.598 128.285C484.997 129.462 487.462 130.051 490.995 130.051H497.729V138H488.345ZM525.467 139.325C521.051 139.325 517.371 138.515 514.427 136.896C511.483 135.203 509.275 132.995 507.803 130.272C506.331 127.475 505.595 124.494 505.595 121.33C505.595 117.502 506.552 114.264 508.466 111.614C510.453 108.891 513.213 106.83 516.746 105.432C520.279 104.034 524.4 103.334 529.111 103.334H543.573C543.573 99.5808 543.131 96.4528 542.248 93.9504C541.365 91.448 539.93 89.5712 537.943 88.32C535.955 87.0688 533.306 86.4432 529.994 86.4432C526.682 86.4432 523.848 87.2896 521.493 88.9824C519.138 90.6016 517.666 93.0304 517.077 96.2688H507.583C508.024 92.4416 509.312 89.24 511.447 86.664C513.581 84.0144 516.267 82.0272 519.506 80.7024C522.818 79.304 526.314 78.6048 529.994 78.6048C535.219 78.6048 539.525 79.5616 542.911 81.4752C546.296 83.3152 548.799 85.928 550.418 89.3136C552.037 92.6256 552.847 96.5632 552.847 101.126V138H544.567L544.015 128.064C543.279 129.61 542.322 131.082 541.144 132.48C540.04 133.805 538.715 134.982 537.17 136.013C535.624 137.043 533.858 137.853 531.871 138.442C529.957 139.03 527.823 139.325 525.467 139.325ZM526.792 131.486C529.221 131.486 531.466 130.934 533.527 129.83C535.587 128.726 537.354 127.254 538.826 125.414C540.371 123.501 541.549 121.366 542.359 119.011C543.168 116.656 543.573 114.19 543.573 111.614V110.51H529.883C526.424 110.51 523.591 110.952 521.383 111.835C519.248 112.718 517.703 113.97 516.746 115.589C515.789 117.134 515.311 118.901 515.311 120.888C515.311 123.022 515.752 124.899 516.635 126.518C517.519 128.064 518.807 129.278 520.499 130.162C522.266 131.045 524.363 131.486 526.792 131.486ZM593.781 139.325C590.248 139.325 587.194 138.81 584.618 137.779C582.115 136.675 579.981 135.314 578.214 133.694C576.522 132.075 575.123 130.493 574.019 128.947L573.246 138H564.856V58.512H574.13V89.0928C575.896 85.6336 578.509 83.0208 581.968 81.2544C585.427 79.488 589.291 78.6048 593.56 78.6048C598.859 78.6048 603.496 79.8928 607.47 82.4688C611.445 85.0448 614.536 88.6144 616.744 93.1776C618.952 97.6672 620.056 102.856 620.056 108.744C620.056 114.558 618.952 119.784 616.744 124.421C614.536 129.058 611.445 132.701 607.47 135.35C603.57 138 599.006 139.325 593.781 139.325ZM592.566 131.266C596.026 131.266 599.08 130.382 601.73 128.616C604.453 126.776 606.587 124.2 608.133 120.888C609.752 117.502 610.562 113.528 610.562 108.965C610.562 104.402 609.752 100.464 608.133 97.152C606.587 93.7664 604.453 91.1904 601.73 89.424C599.08 87.584 596.026 86.664 592.566 86.664C588.886 86.664 585.685 87.584 582.962 89.424C580.238 91.1904 578.141 93.7664 576.669 97.152C575.197 100.464 574.461 104.402 574.461 108.965C574.461 113.528 575.197 117.502 576.669 120.888C578.141 124.2 580.238 126.776 582.962 128.616C585.685 130.382 588.886 131.266 592.566 131.266ZM630.221 138V79.9296H638.611L639.273 90.528C640.598 87.8784 642.328 85.6704 644.462 83.904C646.597 82.1376 649.173 80.8128 652.19 79.9296C655.281 79.0464 658.741 78.6048 662.568 78.6048V88.32H656.827C654.619 88.32 652.485 88.6144 650.424 89.2032C648.363 89.792 646.486 90.7488 644.793 92.0736C643.174 93.3984 641.886 95.2016 640.929 97.4832C639.973 99.7648 639.494 102.635 639.494 106.094V138H630.221ZM670.809 138V79.9296H680.083V138H670.809ZM675.446 68.8896C673.606 68.8896 672.06 68.3008 670.809 67.1232C669.631 65.872 669.043 64.3264 669.043 62.4864C669.043 60.6464 669.631 59.1744 670.809 58.0704C672.06 56.8928 673.606 56.304 675.446 56.304C677.212 56.304 678.721 56.8928 679.972 58.0704C681.223 59.1744 681.849 60.6464 681.849 62.4864C681.849 64.3264 681.223 65.872 679.972 67.1232C678.721 68.3008 677.212 68.8896 675.446 68.8896ZM718.304 139.325C713.005 139.325 708.295 138.074 704.173 135.571C700.051 132.995 696.813 129.426 694.458 124.862C692.103 120.299 690.925 115 690.925 108.965C690.925 102.856 692.103 97.5568 694.458 93.0672C696.813 88.504 700.051 84.9712 704.173 82.4688C708.295 79.8928 713.005 78.6048 718.304 78.6048C724.928 78.6048 730.448 80.3712 734.864 83.904C739.354 87.4368 742.224 92.184 743.475 98.1456H733.981C733.171 94.4656 731.295 91.632 728.351 89.6448C725.48 87.584 722.095 86.5536 718.194 86.5536C714.808 86.5536 711.754 87.4 709.031 89.0928C706.381 90.7856 704.283 93.288 702.738 96.6C701.192 99.912 700.419 104.034 700.419 108.965C700.419 112.645 700.861 115.92 701.744 118.79C702.627 121.587 703.842 123.942 705.387 125.856C707.007 127.696 708.883 129.094 711.018 130.051C713.226 131.008 715.618 131.486 718.194 131.486C720.843 131.486 723.235 131.045 725.37 130.162C727.578 129.205 729.418 127.843 730.89 126.077C732.435 124.31 733.466 122.213 733.981 119.784H743.475C742.298 125.598 739.427 130.309 734.864 133.915C730.375 137.522 724.855 139.325 718.304 139.325ZM787.762 138L761.377 106.646L786.217 79.9296H797.588L769.215 109.958L769.325 103.334L799.575 138H787.762ZM753.649 138V58.512H762.922V138H753.649ZM823.817 139.325C818.592 139.325 814.249 138.552 810.79 137.006C807.405 135.387 804.829 133.179 803.062 130.382C801.296 127.512 800.229 124.2 799.861 120.446H809.355C809.649 122.434 810.312 124.274 811.342 125.966C812.446 127.586 814.029 128.91 816.089 129.941C818.15 130.971 820.763 131.486 823.928 131.486C826.43 131.486 828.565 131.118 830.331 130.382C832.097 129.573 833.422 128.469 834.305 127.07C835.262 125.672 835.741 124.053 835.741 122.213C835.741 119.784 835.189 117.907 834.085 116.582C833.054 115.184 831.509 114.154 829.448 113.491C827.461 112.755 824.958 112.203 821.941 111.835C818.702 111.394 815.832 110.768 813.329 109.958C810.827 109.149 808.693 108.082 806.926 106.757C805.233 105.432 803.945 103.776 803.062 101.789C802.179 99.8016 801.737 97.4464 801.737 94.7232C801.737 91.5584 802.584 88.7616 804.277 86.3328C805.969 83.904 808.361 82.0272 811.453 80.7024C814.617 79.304 818.334 78.6048 822.603 78.6048C828.859 78.6048 833.79 80.04 837.397 82.9104C841.077 85.7808 843.248 89.8656 843.91 95.1648H834.747C834.379 92.4416 833.128 90.3072 830.993 88.7616C828.859 87.216 826.025 86.4432 822.493 86.4432C818.739 86.4432 815.905 87.1424 813.992 88.5408C812.078 89.9392 811.121 91.7792 811.121 94.0608C811.121 95.7536 811.526 97.2992 812.336 98.6976C813.219 100.022 814.691 101.163 816.752 102.12C818.813 103.003 821.573 103.666 825.032 104.107C829.374 104.622 833.054 105.469 836.072 106.646C839.089 107.75 841.371 109.48 842.917 111.835C844.536 114.19 845.309 117.392 845.235 121.44C845.235 125.267 844.315 128.506 842.475 131.155C840.709 133.805 838.206 135.829 834.968 137.227C831.803 138.626 828.086 139.325 823.817 139.325ZM339.838 237V159.72H353.086V226.622H387.531V237H339.838ZM415.223 238.325C410.659 238.325 406.869 237.552 403.851 236.006C400.834 234.461 398.589 232.4 397.117 229.824C395.645 227.248 394.909 224.451 394.909 221.434C394.909 217.901 395.792 214.846 397.559 212.27C399.399 209.694 402.085 207.707 405.618 206.309C409.151 204.837 413.493 204.101 418.645 204.101H432.666C432.666 201.157 432.261 198.728 431.451 196.814C430.642 194.827 429.391 193.355 427.698 192.398C426.005 191.442 423.834 190.963 421.184 190.963C418.167 190.963 415.591 191.662 413.456 193.061C411.322 194.386 409.997 196.446 409.482 199.243H396.455C396.896 195.269 398.221 191.883 400.429 189.086C402.637 186.216 405.544 184.008 409.151 182.462C412.831 180.843 416.842 180.034 421.184 180.034C426.41 180.034 430.863 180.954 434.543 182.794C438.223 184.56 441.019 187.136 442.933 190.522C444.92 193.834 445.914 197.845 445.914 202.555V237H434.653L433.328 228.058C432.592 229.53 431.635 230.891 430.458 232.142C429.354 233.394 428.066 234.498 426.594 235.454C425.122 236.338 423.429 237.037 421.515 237.552C419.675 238.067 417.578 238.325 415.223 238.325ZM418.203 227.837C420.338 227.837 422.215 227.469 423.834 226.733C425.527 225.923 426.962 224.819 428.139 223.421C429.391 221.949 430.347 220.33 431.01 218.563C431.672 216.797 432.114 214.92 432.335 212.933V212.712H420.08C417.504 212.712 415.37 213.043 413.677 213.706C411.984 214.294 410.77 215.178 410.034 216.355C409.298 217.533 408.93 218.894 408.93 220.44C408.93 221.986 409.298 223.31 410.034 224.414C410.77 225.518 411.837 226.365 413.235 226.954C414.634 227.542 416.29 227.837 418.203 227.837ZM492.637 237L468.018 206.53L490.098 181.358H505.885L478.396 211.939V201.672L509.197 237H492.637ZM456.757 237V157.512H470.005V237H456.757ZM536.425 238.325C530.905 238.325 526.047 237.147 521.852 234.792C517.657 232.363 514.381 228.978 512.026 224.635C509.671 220.293 508.493 215.288 508.493 209.621C508.493 203.733 509.634 198.581 511.916 194.165C514.271 189.749 517.546 186.29 521.741 183.787C526.01 181.285 530.941 180.034 536.535 180.034C541.981 180.034 546.729 181.248 550.777 183.677C554.825 186.106 557.953 189.381 560.161 193.502C562.369 197.55 563.473 202.114 563.473 207.192C563.473 207.928 563.473 208.738 563.473 209.621C563.473 210.504 563.399 211.424 563.252 212.381H517.988V203.88H550.114C549.967 199.832 548.605 196.667 546.029 194.386C543.453 192.03 540.252 190.853 536.425 190.853C533.701 190.853 531.199 191.478 528.917 192.73C526.636 193.981 524.833 195.858 523.508 198.36C522.183 200.789 521.521 203.88 521.521 207.634V210.835C521.521 214.294 522.146 217.275 523.397 219.778C524.722 222.28 526.489 224.194 528.697 225.518C530.978 226.77 533.517 227.395 536.314 227.395C539.405 227.395 541.945 226.733 543.932 225.408C545.993 224.083 547.501 222.317 548.458 220.109H561.927C560.897 223.568 559.204 226.696 556.849 229.493C554.493 232.216 551.586 234.387 548.127 236.006C544.668 237.552 540.767 238.325 536.425 238.325ZM604.188 238.325C601.244 238.325 598.594 237.92 596.239 237.11C593.884 236.374 591.823 235.344 590.057 234.019C588.29 232.621 586.818 231.038 585.641 229.272L584.205 237H572.393V157.512H585.641V189.528C587.407 186.805 589.799 184.56 592.817 182.794C595.834 180.954 599.588 180.034 604.077 180.034C609.303 180.034 613.903 181.322 617.877 183.898C621.925 186.4 625.09 189.859 627.372 194.275C629.727 198.618 630.905 203.622 630.905 209.29C630.905 214.81 629.764 219.778 627.482 224.194C625.201 228.61 622.036 232.069 617.988 234.571C614.013 237.074 609.413 238.325 604.188 238.325ZM601.428 226.843C604.519 226.843 607.279 226.107 609.708 224.635C612.137 223.09 614.013 221.029 615.338 218.453C616.737 215.803 617.436 212.712 617.436 209.179C617.436 205.72 616.737 202.666 615.338 200.016C614.013 197.366 612.137 195.306 609.708 193.834C607.279 192.362 604.519 191.626 601.428 191.626C598.263 191.626 595.466 192.362 593.037 193.834C590.682 195.306 588.805 197.366 587.407 200.016C586.082 202.666 585.42 205.72 585.42 209.179C585.42 212.712 586.082 215.803 587.407 218.453C588.805 221.029 590.682 223.09 593.037 224.635C595.466 226.107 598.263 226.843 601.428 226.843ZM640.452 237V181.358H652.265L653.48 191.736C654.804 189.307 656.46 187.246 658.448 185.554C660.435 183.787 662.753 182.426 665.403 181.469C668.126 180.512 671.107 180.034 674.345 180.034V194.054H669.708C667.5 194.054 665.403 194.349 663.416 194.938C661.428 195.453 659.699 196.336 658.227 197.587C656.828 198.765 655.724 200.421 654.915 202.555C654.105 204.616 653.7 207.229 653.7 210.394V237H640.452ZM681.572 237V181.358H694.82V237H681.572ZM688.196 172.526C685.767 172.526 683.743 171.79 682.124 170.318C680.579 168.773 679.806 166.896 679.806 164.688C679.806 162.406 680.579 160.566 682.124 159.168C683.743 157.696 685.767 156.96 688.196 156.96C690.625 156.96 692.612 157.696 694.158 159.168C695.777 160.566 696.587 162.406 696.587 164.688C696.587 166.896 695.777 168.773 694.158 170.318C692.612 171.79 690.625 172.526 688.196 172.526ZM731.547 238.325C726.395 238.325 721.795 237.074 717.747 234.571C713.699 232.069 710.534 228.61 708.253 224.194C706.045 219.778 704.941 214.773 704.941 209.179C704.941 203.586 706.081 198.618 708.363 194.275C710.645 189.859 713.809 186.4 717.857 183.898C721.979 181.322 726.616 180.034 731.768 180.034C735.963 180.034 739.606 180.843 742.697 182.462C745.862 184.008 748.365 186.216 750.205 189.086V157.512H763.453V237H751.529L750.205 228.941C749.027 230.56 747.592 232.106 745.899 233.578C744.206 234.976 742.182 236.117 739.827 237C737.472 237.883 734.712 238.325 731.547 238.325ZM734.307 226.843C737.472 226.843 740.269 226.107 742.697 224.635C745.126 223.09 747.003 220.992 748.328 218.342C749.653 215.693 750.315 212.638 750.315 209.179C750.315 205.72 749.653 202.666 748.328 200.016C747.003 197.366 745.126 195.306 742.697 193.834C740.269 192.362 737.472 191.626 734.307 191.626C731.289 191.626 728.566 192.362 726.137 193.834C723.709 195.306 721.795 197.366 720.397 200.016C719.072 202.666 718.409 205.72 718.409 209.179C718.409 212.638 719.072 215.693 720.397 218.342C721.795 220.992 723.709 223.09 726.137 224.635C728.566 226.107 731.289 226.843 734.307 226.843ZM798.282 262.613C793.057 262.613 788.457 261.95 784.482 260.626C780.581 259.374 777.527 257.424 775.319 254.774C773.185 252.198 772.117 248.96 772.117 245.059C772.117 242.778 772.669 240.533 773.773 238.325C774.951 236.19 776.681 234.203 778.962 232.363C781.317 230.45 784.298 228.794 787.905 227.395L793.756 233.798C790.223 235.05 787.757 236.558 786.359 238.325C784.961 240.091 784.261 241.894 784.261 243.734C784.261 245.648 784.85 247.23 786.028 248.482C787.279 249.806 788.935 250.8 790.996 251.462C793.13 252.125 795.522 252.456 798.172 252.456C800.748 252.456 802.993 252.088 804.906 251.352C806.82 250.69 808.292 249.733 809.322 248.482C810.426 247.23 810.978 245.722 810.978 243.955C810.978 241.747 810.205 239.944 808.66 238.546C807.114 237.221 804.06 236.411 799.497 236.117C795.596 235.822 792.173 235.418 789.229 234.902C786.285 234.314 783.746 233.651 781.612 232.915C779.551 232.179 777.785 231.37 776.313 230.486C774.841 229.53 773.626 228.573 772.669 227.616V225.077L784.261 212.933L794.087 216.134L781.06 228.83L784.482 222.427C785.218 222.942 785.954 223.421 786.69 223.862C787.5 224.304 788.493 224.709 789.671 225.077C790.922 225.371 792.541 225.666 794.529 225.96C796.516 226.254 799.092 226.549 802.257 226.843C807.188 227.211 811.199 228.094 814.29 229.493C817.381 230.891 819.663 232.768 821.135 235.123C822.607 237.478 823.343 240.312 823.343 243.624C823.343 246.862 822.423 249.917 820.583 252.787C818.817 255.658 816.093 258.013 812.413 259.853C808.733 261.693 804.023 262.613 798.282 262.613ZM798.282 220.33C793.645 220.33 789.634 219.446 786.249 217.68C782.937 215.84 780.397 213.411 778.631 210.394C776.865 207.302 775.981 203.917 775.981 200.237C775.981 196.483 776.865 193.098 778.631 190.08C780.397 187.062 782.937 184.634 786.249 182.794C789.634 180.954 793.645 180.034 798.282 180.034C802.919 180.034 806.893 180.954 810.205 182.794C813.517 184.634 816.057 187.062 817.823 190.08C819.589 193.098 820.473 196.483 820.473 200.237C820.473 203.917 819.589 207.302 817.823 210.394C816.057 213.411 813.517 215.84 810.205 217.68C806.893 219.446 802.919 220.33 798.282 220.33ZM798.282 210.062C801.447 210.062 803.986 209.216 805.9 207.523C807.813 205.83 808.77 203.402 808.77 200.237C808.77 197.072 807.813 194.68 805.9 193.061C803.986 191.368 801.447 190.522 798.282 190.522C795.117 190.522 792.541 191.368 790.554 193.061C788.567 194.68 787.573 197.072 787.573 200.237C787.573 203.402 788.567 205.83 790.554 207.523C792.541 209.216 795.117 210.062 798.282 210.062ZM807.445 191.074L804.906 181.358H827.759V189.638L807.445 191.074ZM860.043 238.325C854.523 238.325 849.666 237.147 845.47 234.792C841.275 232.363 838 228.978 835.645 224.635C833.29 220.293 832.112 215.288 832.112 209.621C832.112 203.733 833.253 198.581 835.534 194.165C837.89 189.749 841.165 186.29 845.36 183.787C849.629 181.285 854.56 180.034 860.154 180.034C865.6 180.034 870.347 181.248 874.395 183.677C878.443 186.106 881.571 189.381 883.779 193.502C885.987 197.55 887.091 202.114 887.091 207.192C887.091 207.928 887.091 208.738 887.091 209.621C887.091 210.504 887.018 211.424 886.87 212.381H841.606V203.88H873.733C873.586 199.832 872.224 196.667 869.648 194.386C867.072 192.03 863.87 190.853 860.043 190.853C857.32 190.853 854.818 191.478 852.536 192.73C850.254 193.981 848.451 195.858 847.126 198.36C845.802 200.789 845.139 203.88 845.139 207.634V210.835C845.139 214.294 845.765 217.275 847.016 219.778C848.341 222.28 850.107 224.194 852.315 225.518C854.597 226.77 857.136 227.395 859.933 227.395C863.024 227.395 865.563 226.733 867.55 225.408C869.611 224.083 871.12 222.317 872.077 220.109H885.546C884.515 223.568 882.822 226.696 880.467 229.493C878.112 232.216 875.205 234.387 871.746 236.006C868.286 237.552 864.386 238.325 860.043 238.325Z" fill="white"/>
</svg>
