<svg width="512" height="512" viewBox="0 0 512 512" fill="none" xmlns="http://www.w3.org/2000/svg">
<path d="M181.185 46C204.241 46 223.38 63.8165 225.026 86.8145L238 268H126L137.316 87.208C138.766 64.0446 157.976 46.0001 181.185 46ZM405.266 114C428.468 114 447.914 131.542 450.297 154.622L462 268H350L360.179 155.202C362.284 131.871 381.84 114 405.266 114Z" fill="#C4CCD6"/>
<path d="M338.996 424.79C337.367 448.002 318.062 466 294.793 466H294.792C271.695 465.999 252.471 448.258 250.623 425.234L238 268H350L338.996 424.79ZM128 268L120.132 380.564C118.973 397.143 105.185 410 88.5664 410C72.0694 410 58.3413 397.324 57.0264 380.88L48 268H128Z" fill="#618794"/>
</svg>
