<svg width="150" height="150" viewBox="0 0 150 150" fill="none" xmlns="http://www.w3.org/2000/svg">
<mask id="mask0_14057_492" style="mask-type:luminance" maskUnits="userSpaceOnUse" x="15" y="15" width="120" height="120">
<path d="M15.7021 15.7022H134.298V134.298H15.7021V15.7022Z" fill="white"/>
<path d="M134.298 134.298V15.7022H15.7021V134.298H134.298ZM15.9336 15.9337H134.066V134.066H15.9336V15.9337Z" fill="white"/>
</mask>
<g mask="url(#mask0_14057_492)">
<path d="M62.8445 41.1826C62.8445 45.6319 61.5039 49.7635 59.2058 53.2031C59.1943 53.2203 59.1834 53.2382 59.1726 53.2559L41.1814 82.7754L23.1902 53.2559C23.1794 53.2381 23.1685 53.2204 23.157 53.2031C20.8589 49.7635 19.5183 45.6319 19.5183 41.1826C19.5185 29.2182 29.2169 19.5196 41.1814 19.5195C53.1459 19.5195 62.8443 29.2181 62.8445 41.1826ZM65.8445 41.1826C65.8443 27.5613 54.8028 16.5195 41.1814 16.5195C27.5601 16.5196 16.5185 27.5613 16.5183 41.1826C16.5183 46.2255 18.0341 50.9178 20.6335 54.8262L39.9011 86.4365L40.0125 86.5957C40.2949 86.9473 40.7236 87.1562 41.1814 87.1562C41.7046 87.1562 42.1904 86.8833 42.4626 86.4365L61.7156 54.8467C64.3234 50.9342 65.8445 46.2343 65.8445 41.1826Z" fill="#1B3139"/>
<path d="M48.9465 41.1826C48.9465 45.4708 45.4701 48.9481 41.1819 48.9482C36.8936 48.9482 33.4163 45.4709 33.4163 41.1826C33.4164 36.8944 36.8937 33.418 41.1819 33.418C45.4699 33.4182 48.9463 36.8946 48.9465 41.1826ZM51.9465 41.1826C51.9463 35.2377 47.1268 30.4182 41.1819 30.418C35.2368 30.418 30.4164 35.2376 30.4163 41.1826C30.4163 47.1278 35.2367 51.9482 41.1819 51.9482C47.1269 51.9481 51.9465 47.1277 51.9465 41.1826Z" fill="#1B3139"/>
<path d="M111.951 127.35C111.951 129.081 110.549 130.482 108.818 130.482C107.087 130.482 105.686 129.081 105.686 127.35C105.686 125.62 107.088 124.217 108.818 124.217C110.549 124.217 111.951 125.62 111.951 127.35ZM114.951 127.35C114.951 123.965 112.207 121.217 108.818 121.217C105.43 121.217 102.686 123.965 102.686 127.35C102.686 130.738 105.43 133.482 108.818 133.482C112.206 133.482 114.951 130.738 114.951 127.35Z" fill="#1B3139"/>
<path d="M130.481 79.6328C130.481 84.0821 129.141 88.2137 126.843 91.6533C126.837 91.6621 126.831 91.6708 126.825 91.6797L108.818 119.927L90.8113 91.6797C90.8056 91.6708 90.7996 91.6621 90.7937 91.6533C88.4956 88.2137 87.155 84.0821 87.155 79.6328C87.1553 67.6684 96.8537 57.9698 108.818 57.9697C120.783 57.9697 130.481 67.6684 130.481 79.6328ZM133.481 79.6328C133.481 66.0115 122.439 54.9697 108.818 54.9697C95.1968 54.9698 84.1553 66.0116 84.155 79.6328C84.155 84.6829 85.6757 89.3812 88.282 93.293L107.553 123.523L107.666 123.677C107.949 124.016 108.37 124.217 108.818 124.217C109.33 124.217 109.807 123.955 110.083 123.523L129.355 93.293C131.961 89.3813 133.481 84.6827 133.481 79.6328Z" fill="#1B3139"/>
<path d="M116.583 79.6328C116.583 83.921 113.107 87.3983 108.818 87.3984C104.53 87.3984 101.053 83.9211 101.053 79.6328C101.053 75.3446 104.53 71.8682 108.818 71.8682C113.106 71.8683 116.583 75.3448 116.583 79.6328ZM119.583 79.6328C119.583 73.6879 114.763 68.8683 108.818 68.8682C102.873 68.8682 98.0529 73.6878 98.0527 79.6328C98.0527 85.578 102.873 90.3984 108.818 90.3984C114.763 90.3983 119.583 85.5779 119.583 79.6328Z" fill="#1B3139"/>
<path d="M44.3145 90.2871C44.3145 92.0182 42.9127 93.4198 41.1816 93.4199C39.4505 93.4199 38.0488 92.0182 38.0488 90.2871C38.0489 88.5579 39.4511 87.1543 41.1816 87.1543C42.9121 87.1544 44.3144 88.558 44.3145 90.2871ZM47.3145 90.2871C47.3144 86.9021 44.57 84.1544 41.1816 84.1543C37.7932 84.1543 35.0489 86.902 35.0488 90.2871C35.0488 93.6751 37.7937 96.4199 41.1816 96.4199C44.5695 96.4198 47.3145 93.675 47.3145 90.2871Z" fill="#1B3139"/>
<path d="M73.8416 127.349C73.8416 128.628 72.8046 129.665 71.5253 129.665C70.246 129.665 69.209 128.628 69.209 127.349C69.209 126.069 70.246 125.032 71.5253 125.032C72.8046 125.032 73.8416 126.069 73.8416 127.349Z" fill="#1B3139"/>
<path d="M72.2089 127.349L72.1952 127.486C72.1406 127.754 71.9301 127.964 71.663 128.019L71.5253 128.032C71.1478 128.032 70.8417 127.726 70.8417 127.349L70.8554 127.211C70.9192 126.9 71.195 126.665 71.5253 126.665V125.032L71.288 125.044C70.1202 125.163 69.209 126.15 69.209 127.349C69.209 128.628 70.246 129.665 71.5253 129.665C72.8045 129.665 73.8416 128.628 73.8416 127.349L73.8299 127.112C73.7115 125.944 72.7247 125.032 71.5253 125.032V126.665C71.8556 126.665 72.1315 126.9 72.1952 127.211L72.2089 127.349Z" fill="#1B3139"/>
<path d="M73.4995 99.5537C73.4995 103.842 70.023 107.319 65.7349 107.319H37.939C31.9939 107.319 27.1735 112.139 27.1733 118.084C27.1733 124.029 31.9938 128.85 37.939 128.85H61.1021C61.9304 128.849 62.6021 128.178 62.6021 127.35C62.6021 126.521 61.9304 125.85 61.1021 125.85H37.939C33.6506 125.85 30.1733 122.372 30.1733 118.084C30.1735 113.796 33.6508 110.319 37.939 110.319H65.7349C71.6799 110.319 76.4995 105.499 76.4995 99.5537C76.4995 93.6087 71.6799 88.7883 65.7349 88.7881H45.814C44.9857 88.7882 44.3142 89.4599 44.314 90.2881C44.314 91.1165 44.9856 91.788 45.814 91.7881H65.7349C70.023 91.7883 73.4995 95.2655 73.4995 99.5537Z" fill="#1B3139"/>
<path d="M104.185 128.85C105.014 128.85 105.685 128.178 105.685 127.35C105.685 126.521 105.014 125.85 104.185 125.85H81.949C81.1205 125.85 80.449 126.521 80.449 127.35C80.449 128.178 81.1205 128.85 81.949 128.85H104.185Z" fill="#1B3139"/>
</g>
</svg>
