<svg width="150" height="150" viewBox="0 0 150 150" fill="none" xmlns="http://www.w3.org/2000/svg">
<g clip-path="url(#clip0_1_1986)">
<path d="M75 16C63.3309 16 51.9239 19.4603 42.2214 25.9433C32.5189 32.4263 24.9567 41.6408 20.4911 52.4217C16.0256 63.2025 14.8572 75.0654 17.1337 86.5103C19.4102 97.9552 25.0294 108.468 33.2807 116.719C41.532 124.971 52.0448 130.59 63.4897 132.866C74.9346 135.143 86.7975 133.974 97.5783 129.509C108.359 125.043 117.574 117.481 124.057 107.779C130.54 98.0761 134 86.6691 134 75C133.981 59.358 127.759 44.362 116.699 33.3015C105.638 22.2409 90.642 16.0188 75 16ZM130.983 75C130.983 78.9135 130.573 82.8162 129.758 86.6438C112.771 81.8514 99.2461 66.7996 99.2461 50.5232V24.5376C108.744 29.1155 116.76 36.278 122.373 45.2036C127.987 54.1291 130.97 64.4561 130.983 75ZM86.1113 20.1179C89.4299 20.7975 92.6796 21.7777 95.8204 23.0466V50.5232C95.8204 68.2729 110.499 84.7978 128.924 89.9985C128.427 91.7735 127.859 93.5484 127.149 95.2169C105.228 89.892 86.0581 72.018 86.0581 45.1983L86.1113 20.1179ZM82.6679 19.5499V45.1983C82.6679 73.5978 102.743 92.5722 125.835 98.4473C125.026 100.142 124.132 101.795 123.155 103.4C96.1044 96.9031 72.9055 75.355 72.9055 39.8733V19.0529C73.58 19.0529 74.2545 19.0529 74.9468 19.0529C77.5287 19.0446 80.1083 19.2106 82.6679 19.5499ZM59.8063 21.1297C62.9828 20.2476 66.2323 19.6535 69.5154 19.3547V39.9443C69.5154 76.8282 93.2999 99.3881 121.273 106.541C120.176 108.189 118.991 109.777 117.724 111.298C105.181 108.211 93.5957 102.071 83.9991 93.4242C68.1309 78.9227 59.8063 58.5815 59.8063 34.5662V21.1297ZM43.2813 28.9395V29.2413C43.2813 60.037 53.2744 85.3126 72.1601 102.352C82.0255 111.137 93.7208 117.618 106.399 121.327C104.25 122.782 102.002 124.087 99.6721 125.232C86.8311 121.198 74.9877 114.496 64.9182 105.565C46.707 89.0933 36.3589 66.0186 34.0337 36.8914C36.8219 33.9165 39.9223 31.2506 43.2813 28.9395ZM19.0885 75.0887C19.0282 62.5815 23.1727 50.4167 30.8565 40.5478C33.7675 68.9473 44.3818 91.667 62.5575 108.103C72.0241 116.563 83.0519 123.093 95.0217 127.326C86.5399 130.579 77.3937 131.718 68.3732 130.645C59.3526 129.573 50.7287 126.32 43.2464 121.169C35.7641 116.017 29.6481 109.122 25.4268 101.078C21.2056 93.0346 19.0058 84.0841 19.0175 75L19.0885 75.0887ZM109.665 118.913C63.8355 106.612 46.6538 66.8706 46.6538 29.2413V26.7563C49.7382 24.9362 52.9893 23.4147 56.3628 22.2124V34.6372C56.3628 74.4498 79.4374 104.464 114.937 114.245C113.279 115.91 111.519 117.469 109.665 118.913Z" fill="#1B3139"/>
</g>
<defs>
<clipPath id="clip0_1_1986">
<rect width="150" height="150" fill="white"/>
</clipPath>
</defs>
</svg>
