<svg width="1116" height="724" viewBox="0 0 1116 724" fill="none" xmlns="http://www.w3.org/2000/svg">
<g filter="url(#filter0_dddddd_1107_11037)">
<path d="M192 150.383C192 99.9135 232.913 59.0001 283.383 59.0001H441.017C491.487 59.0001 532.4 99.9135 532.4 150.383V308.018C532.4 358.487 491.487 399.4 441.017 399.4H283.383C232.913 399.4 192 358.487 192 308.018V150.383Z" fill="white"/>
</g>
<path d="M354.504 231.507V127C296.788 127 250 173.788 250 231.504C250 231.505 250 231.503 250 231.504L354.504 231.507Z" fill="#FABFBA"/>
<path d="M313.811 247.917C317.526 268.145 333.951 283.926 354.501 286.677V334.838C307.54 332.1 269.873 294.745 266.646 247.917H313.811Z" fill="#FABFBA"/>
<path d="M370.92 147.995C419.574 151.349 458.003 191.879 458.003 241.385C458.003 291.034 419.353 331.654 370.5 334.802V286.596C393.638 283.212 411.404 263.286 411.404 239.208C411.404 215.277 393.853 195.445 370.92 191.882V147.995Z" fill="#FF5F46"/>
<path d="M603.901 217.2V139.92H623.773C632.752 139.92 640.149 141.503 645.964 144.667C651.852 147.759 656.194 152.211 658.991 158.026C661.861 163.767 663.296 170.685 663.296 178.781C663.296 186.73 661.861 193.575 658.991 199.315C656.194 205.056 651.852 209.472 645.964 212.563C640.149 215.655 632.752 217.2 623.773 217.2H603.901ZM613.175 209.472H623.552C630.986 209.472 636.911 208.258 641.327 205.829C645.743 203.327 648.908 199.794 650.821 195.231C652.735 190.594 653.692 185.111 653.692 178.781C653.692 172.304 652.735 166.747 650.821 162.111C648.908 157.474 645.743 153.904 641.327 151.402C636.911 148.899 630.986 147.648 623.552 147.648H613.175V209.472ZM691.345 218.525C686.929 218.525 683.249 217.715 680.305 216.096C677.361 214.403 675.153 212.195 673.681 209.472C672.209 206.675 671.473 203.695 671.473 200.53C671.473 196.703 672.43 193.464 674.343 190.815C676.33 188.091 679.09 186.031 682.623 184.632C686.156 183.234 690.278 182.535 694.988 182.535H709.45C709.45 178.781 709.009 175.653 708.126 173.151C707.242 170.648 705.807 168.771 703.82 167.52C701.833 166.269 699.183 165.643 695.871 165.643C692.559 165.643 689.726 166.49 687.37 168.183C685.015 169.802 683.543 172.231 682.954 175.469H673.46C673.902 171.642 675.19 168.44 677.324 165.864C679.458 163.215 682.145 161.227 685.383 159.903C688.695 158.504 692.191 157.805 695.871 157.805C701.097 157.805 705.402 158.762 708.788 160.675C712.174 162.515 714.676 165.128 716.295 168.514C717.914 171.826 718.724 175.763 718.724 180.327V217.2H710.444L709.892 207.264C709.156 208.81 708.199 210.282 707.022 211.68C705.918 213.005 704.593 214.183 703.047 215.213C701.502 216.243 699.735 217.053 697.748 217.642C695.834 218.231 693.7 218.525 691.345 218.525ZM692.67 210.687C695.098 210.687 697.343 210.135 699.404 209.031C701.465 207.927 703.231 206.455 704.703 204.615C706.249 202.701 707.426 200.567 708.236 198.211C709.046 195.856 709.45 193.391 709.45 190.815V189.711H695.761C692.302 189.711 689.468 190.152 687.26 191.035C685.126 191.919 683.58 193.17 682.623 194.789C681.666 196.335 681.188 198.101 681.188 200.088C681.188 202.223 681.63 204.099 682.513 205.719C683.396 207.264 684.684 208.479 686.377 209.362C688.143 210.245 690.241 210.687 692.67 210.687ZM751.746 217.2C748.434 217.2 745.563 216.685 743.135 215.655C740.706 214.624 738.829 212.895 737.504 210.466C736.253 207.963 735.627 204.615 735.627 200.419V166.968H725.471V159.13H735.627L736.842 144.667H744.901V159.13H761.351V166.968H744.901V200.419C744.901 203.879 745.6 206.234 746.999 207.485C748.397 208.663 750.863 209.251 754.395 209.251H761.13V217.2H751.746ZM788.868 218.525C784.452 218.525 780.772 217.715 777.828 216.096C774.884 214.403 772.676 212.195 771.204 209.472C769.732 206.675 768.996 203.695 768.996 200.53C768.996 196.703 769.953 193.464 771.866 190.815C773.853 188.091 776.613 186.031 780.146 184.632C783.679 183.234 787.801 182.535 792.511 182.535H806.973C806.973 178.781 806.532 175.653 805.649 173.151C804.765 170.648 803.33 168.771 801.343 167.52C799.356 166.269 796.706 165.643 793.394 165.643C790.082 165.643 787.249 166.49 784.893 168.183C782.538 169.802 781.066 172.231 780.477 175.469H770.983C771.425 171.642 772.713 168.44 774.847 165.864C776.981 163.215 779.668 161.227 782.906 159.903C786.218 158.504 789.714 157.805 793.394 157.805C798.62 157.805 802.925 158.762 806.311 160.675C809.697 162.515 812.199 165.128 813.818 168.514C815.437 171.826 816.247 175.763 816.247 180.327V217.2H807.967L807.415 207.264C806.679 208.81 805.722 210.282 804.545 211.68C803.441 213.005 802.116 214.183 800.57 215.213C799.025 216.243 797.258 217.053 795.271 217.642C793.357 218.231 791.223 218.525 788.868 218.525ZM790.193 210.687C792.621 210.687 794.866 210.135 796.927 209.031C798.988 207.927 800.754 206.455 802.226 204.615C803.772 202.701 804.949 200.567 805.759 198.211C806.569 195.856 806.973 193.391 806.973 190.815V189.711H793.284C789.825 189.711 786.991 190.152 784.783 191.035C782.649 191.919 781.103 193.17 780.146 194.789C779.189 196.335 778.711 198.101 778.711 200.088C778.711 202.223 779.153 204.099 780.036 205.719C780.919 207.264 782.207 208.479 783.9 209.362C785.666 210.245 787.764 210.687 790.193 210.687ZM857.181 218.525C853.648 218.525 850.594 218.01 848.018 216.979C845.516 215.875 843.381 214.514 841.615 212.895C839.922 211.275 838.524 209.693 837.42 208.147L836.647 217.2H828.256V137.712H837.53V168.293C839.296 164.834 841.909 162.221 845.368 160.455C848.828 158.688 852.692 157.805 856.96 157.805C862.26 157.805 866.896 159.093 870.871 161.669C874.845 164.245 877.936 167.815 880.144 172.378C882.352 176.867 883.456 182.056 883.456 187.944C883.456 193.759 882.352 198.984 880.144 203.621C877.936 208.258 874.845 211.901 870.871 214.551C866.97 217.2 862.407 218.525 857.181 218.525ZM855.967 210.466C859.426 210.466 862.48 209.583 865.13 207.816C867.853 205.976 869.988 203.4 871.533 200.088C873.152 196.703 873.962 192.728 873.962 188.165C873.962 183.602 873.152 179.664 871.533 176.352C869.988 172.967 867.853 170.391 865.13 168.624C862.48 166.784 859.426 165.864 855.967 165.864C852.287 165.864 849.085 166.784 846.362 168.624C843.639 170.391 841.541 172.967 840.069 176.352C838.597 179.664 837.861 183.602 837.861 188.165C837.861 192.728 838.597 196.703 840.069 200.088C841.541 203.4 843.639 205.976 846.362 207.816C849.085 209.583 852.287 210.466 855.967 210.466ZM893.621 217.2V159.13H902.011L902.674 169.728C903.999 167.079 905.728 164.871 907.863 163.104C909.997 161.338 912.573 160.013 915.591 159.13C918.682 158.247 922.141 157.805 925.968 157.805V167.52H920.227C918.019 167.52 915.885 167.815 913.824 168.403C911.763 168.992 909.887 169.949 908.194 171.274C906.575 172.599 905.287 174.402 904.33 176.683C903.373 178.965 902.895 181.835 902.895 185.295V217.2H893.621ZM934.209 217.2V159.13H943.483V217.2H934.209ZM938.846 148.09C937.006 148.09 935.461 147.501 934.209 146.323C933.032 145.072 932.443 143.527 932.443 141.687C932.443 139.847 933.032 138.375 934.209 137.271C935.461 136.093 937.006 135.504 938.846 135.504C940.613 135.504 942.121 136.093 943.373 137.271C944.624 138.375 945.249 139.847 945.249 141.687C945.249 143.527 944.624 145.072 943.373 146.323C942.121 147.501 940.613 148.09 938.846 148.09ZM981.705 218.525C976.405 218.525 971.695 217.274 967.573 214.771C963.452 212.195 960.213 208.626 957.858 204.063C955.503 199.499 954.325 194.2 954.325 188.165C954.325 182.056 955.503 176.757 957.858 172.267C960.213 167.704 963.452 164.171 967.573 161.669C971.695 159.093 976.405 157.805 981.705 157.805C988.329 157.805 993.849 159.571 998.265 163.104C1002.75 166.637 1005.62 171.384 1006.88 177.346H997.381C996.572 173.666 994.695 170.832 991.751 168.845C988.881 166.784 985.495 165.754 981.594 165.754C978.209 165.754 975.154 166.6 972.431 168.293C969.781 169.986 967.684 172.488 966.138 175.8C964.593 179.112 963.82 183.234 963.82 188.165C963.82 191.845 964.261 195.12 965.145 197.991C966.028 200.787 967.242 203.143 968.788 205.056C970.407 206.896 972.284 208.295 974.418 209.251C976.626 210.208 979.018 210.687 981.594 210.687C984.244 210.687 986.636 210.245 988.77 209.362C990.978 208.405 992.818 207.043 994.29 205.277C995.836 203.511 996.866 201.413 997.381 198.984H1006.88C1005.7 204.799 1002.83 209.509 998.265 213.115C993.775 216.722 988.255 218.525 981.705 218.525ZM1051.16 217.2L1024.78 185.847L1049.62 159.13H1060.99L1032.62 189.159L1032.73 182.535L1062.98 217.2H1051.16ZM1017.05 217.2V137.712H1026.32V217.2H1017.05ZM1087.22 218.525C1081.99 218.525 1077.65 217.752 1074.19 216.207C1070.8 214.587 1068.23 212.379 1066.46 209.583C1064.7 206.712 1063.63 203.4 1063.26 199.647H1072.76C1073.05 201.634 1073.71 203.474 1074.74 205.167C1075.85 206.786 1077.43 208.111 1079.49 209.141C1081.55 210.171 1084.16 210.687 1087.33 210.687C1089.83 210.687 1091.96 210.319 1093.73 209.583C1095.5 208.773 1096.82 207.669 1097.71 206.271C1098.66 204.872 1099.14 203.253 1099.14 201.413C1099.14 198.984 1098.59 197.107 1097.48 195.783C1096.45 194.384 1094.91 193.354 1092.85 192.691C1090.86 191.955 1088.36 191.403 1085.34 191.035C1082.1 190.594 1079.23 189.968 1076.73 189.159C1074.23 188.349 1072.09 187.282 1070.33 185.957C1068.63 184.632 1067.35 182.976 1066.46 180.989C1065.58 179.002 1065.14 176.647 1065.14 173.923C1065.14 170.759 1065.98 167.962 1067.68 165.533C1069.37 163.104 1071.76 161.227 1074.85 159.903C1078.02 158.504 1081.73 157.805 1086 157.805C1092.26 157.805 1097.19 159.24 1100.8 162.111C1104.48 164.981 1106.65 169.066 1107.31 174.365H1098.15C1097.78 171.642 1096.53 169.507 1094.39 167.962C1092.26 166.416 1089.43 165.643 1085.89 165.643C1082.14 165.643 1079.31 166.343 1077.39 167.741C1075.48 169.139 1074.52 170.979 1074.52 173.261C1074.52 174.954 1074.93 176.499 1075.74 177.898C1076.62 179.223 1078.09 180.363 1080.15 181.32C1082.21 182.203 1084.97 182.866 1088.43 183.307C1092.77 183.823 1096.45 184.669 1099.47 185.847C1102.49 186.951 1104.77 188.68 1106.32 191.035C1107.94 193.391 1108.71 196.592 1108.64 200.64C1108.64 204.467 1107.72 207.706 1105.88 210.355C1104.11 213.005 1101.61 215.029 1098.37 216.427C1095.2 217.826 1091.49 218.525 1087.22 218.525ZM598.16 316.2L626.423 238.92H641.216L669.479 316.2H655.458L633.709 254.376L611.96 316.2H598.16ZM610.746 297.984L614.279 287.496H652.367L655.9 297.984H610.746ZM676.797 316.2V238.92H690.045V316.2H676.797ZM697.082 328.123L724.793 230.64H737.709L709.999 328.123H697.082ZM750.493 316.2V238.92H780.743C786.189 238.92 790.716 239.767 794.322 241.459C798.002 243.152 800.762 245.507 802.602 248.525C804.442 251.469 805.362 254.891 805.362 258.792C805.362 262.693 804.516 265.968 802.823 268.618C801.13 271.267 798.885 273.291 796.089 274.69C793.365 276.088 790.385 276.935 787.146 277.229L788.802 276.015C792.261 276.088 795.353 277.008 798.076 278.775C800.873 280.541 803.081 282.859 804.7 285.73C806.319 288.527 807.129 291.655 807.129 295.114C807.129 299.162 806.135 302.805 804.148 306.043C802.234 309.208 799.401 311.711 795.647 313.551C791.893 315.317 787.293 316.2 781.847 316.2H750.493ZM763.741 305.381H779.86C784.202 305.381 787.588 304.351 790.017 302.29C792.445 300.229 793.66 297.359 793.66 293.679C793.66 289.999 792.409 287.091 789.906 284.957C787.404 282.749 783.981 281.645 779.639 281.645H763.741V305.381ZM763.741 271.599H778.866C783.135 271.599 786.373 270.642 788.581 268.728C790.789 266.741 791.893 264.018 791.893 260.559C791.893 257.173 790.789 254.523 788.581 252.61C786.373 250.623 783.098 249.629 778.756 249.629H763.741V271.599ZM816.505 316.2V238.92H829.753V316.2H816.505Z" fill="white"/>
<defs>
<filter id="filter0_dddddd_1107_11037" x="0.639999" y="0.120117" width="723.12" height="723.12" filterUnits="userSpaceOnUse" color-interpolation-filters="sRGB">
<feFlood flood-opacity="0" result="BackgroundImageFix"/>
<feColorMatrix in="SourceAlpha" type="matrix" values="0 0 0 0 0 0 0 0 0 0 0 0 0 0 0 0 0 0 127 0" result="hardAlpha"/>
<feOffset dy="3.68"/>
<feGaussianBlur stdDeviation="2.76"/>
<feColorMatrix type="matrix" values="0 0 0 0 0.105882 0 0 0 0 0.192157 0 0 0 0 0.223529 0 0 0 0.0196802 0"/>
<feBlend mode="normal" in2="BackgroundImageFix" result="effect1_dropShadow_1107_11037"/>
<feColorMatrix in="SourceAlpha" type="matrix" values="0 0 0 0 0 0 0 0 0 0 0 0 0 0 0 0 0 0 127 0" result="hardAlpha"/>
<feOffset dy="7.36"/>
<feGaussianBlur stdDeviation="7.36"/>
<feColorMatrix type="matrix" values="0 0 0 0 0.105882 0 0 0 0 0.192157 0 0 0 0 0.223529 0 0 0 0.04 0"/>
<feBlend mode="normal" in2="effect1_dropShadow_1107_11037" result="effect2_dropShadow_1107_11037"/>
<feColorMatrix in="SourceAlpha" type="matrix" values="0 0 0 0 0 0 0 0 0 0 0 0 0 0 0 0 0 0 127 0" result="hardAlpha"/>
<feOffset dy="16.56"/>
<feGaussianBlur stdDeviation="11.96"/>
<feColorMatrix type="matrix" values="0 0 0 0 0.105882 0 0 0 0 0.192157 0 0 0 0 0.223529 0 0 0 0.035 0"/>
<feBlend mode="normal" in2="effect2_dropShadow_1107_11037" result="effect3_dropShadow_1107_11037"/>
<feColorMatrix in="SourceAlpha" type="matrix" values="0 0 0 0 0 0 0 0 0 0 0 0 0 0 0 0 0 0 127 0" result="hardAlpha"/>
<feOffset dy="29.44"/>
<feGaussianBlur stdDeviation="22.08"/>
<feColorMatrix type="matrix" values="0 0 0 0 0.105882 0 0 0 0 0.192157 0 0 0 0 0.223529 0 0 0 0.04 0"/>
<feBlend mode="normal" in2="effect3_dropShadow_1107_11037" result="effect4_dropShadow_1107_11037"/>
<feColorMatrix in="SourceAlpha" type="matrix" values="0 0 0 0 0 0 0 0 0 0 0 0 0 0 0 0 0 0 127 0" result="hardAlpha"/>
<feOffset dy="58.88"/>
<feGaussianBlur stdDeviation="36.8"/>
<feColorMatrix type="matrix" values="0 0 0 0 0.105882 0 0 0 0 0.192157 0 0 0 0 0.223529 0 0 0 0.0503198 0"/>
<feBlend mode="normal" in2="effect4_dropShadow_1107_11037" result="effect5_dropShadow_1107_11037"/>
<feColorMatrix in="SourceAlpha" type="matrix" values="0 0 0 0 0 0 0 0 0 0 0 0 0 0 0 0 0 0 127 0" result="hardAlpha"/>
<feOffset dy="132.48"/>
<feGaussianBlur stdDeviation="95.68"/>
<feColorMatrix type="matrix" values="0 0 0 0 0.105882 0 0 0 0 0.192157 0 0 0 0 0.223529 0 0 0 0.07 0"/>
<feBlend mode="normal" in2="effect5_dropShadow_1107_11037" result="effect6_dropShadow_1107_11037"/>
<feBlend mode="normal" in="SourceGraphic" in2="effect6_dropShadow_1107_11037" result="shape"/>
</filter>
</defs>
</svg>
