<svg width="1018" height="558" viewBox="0 0 1018 558" fill="none" xmlns="http://www.w3.org/2000/svg">
<g filter="url(#filter0_dddddd_1104_10374)">
<path d="M148 116.336C148 77.4903 179.49 46 218.336 46H339.664C378.51 46 410 77.4903 410 116.336V237.664C410 276.51 378.51 308 339.664 308H218.336C179.49 308 148 276.51 148 237.664V116.336Z" fill="white"/>
</g>
<path d="M279.001 109.5L349.314 160.125H208.689L279.001 109.5Z" fill="#FABFBA"/>
<path d="M211.389 213.563H276.076V213.563C276.076 230.65 262.225 244.501 245.139 244.501H242.326C225.24 244.501 211.389 230.65 211.389 213.563V213.563Z" fill="#FF5F46"/>
<path d="M211.389 174.825H276.077V174.825C276.077 191.911 262.225 205.762 245.139 205.762H242.327C225.24 205.762 211.389 191.911 211.389 174.825V174.825Z" fill="#FABFBA"/>
<path d="M346.389 205.762L281.702 205.762V205.762C281.702 188.676 295.553 174.825 312.639 174.825L315.452 174.825C332.538 174.825 346.389 188.676 346.389 205.762V205.762Z" fill="#FF5F46"/>
<path d="M346.389 244.5L281.701 244.5V244.5C281.701 227.414 295.552 213.563 312.639 213.563L315.451 213.563C332.537 213.563 346.389 227.414 346.389 244.5V244.5Z" fill="#FABFBA"/>
<path d="M481.838 214.5V137.22H495.086V204.122H529.531V214.5H481.838ZM557.223 215.825C552.659 215.825 548.869 215.052 545.851 213.506C542.834 211.961 540.589 209.9 539.117 207.324C537.645 204.748 536.909 201.951 536.909 198.934C536.909 195.401 537.792 192.346 539.559 189.77C541.399 187.194 544.085 185.207 547.618 183.809C551.151 182.337 555.493 181.601 560.645 181.601H574.666C574.666 178.657 574.261 176.228 573.451 174.314C572.642 172.327 571.391 170.855 569.698 169.898C568.005 168.942 565.834 168.463 563.184 168.463C560.167 168.463 557.591 169.162 555.456 170.561C553.322 171.886 551.997 173.946 551.482 176.743H538.455C538.896 172.769 540.221 169.383 542.429 166.586C544.637 163.716 547.544 161.508 551.151 159.962C554.831 158.343 558.842 157.534 563.184 157.534C568.41 157.534 572.863 158.454 576.543 160.294C580.223 162.06 583.019 164.636 584.933 168.022C586.92 171.334 587.914 175.345 587.914 180.055V214.5H576.653L575.328 205.558C574.592 207.03 573.635 208.391 572.458 209.642C571.354 210.894 570.066 211.998 568.594 212.954C567.122 213.838 565.429 214.537 563.515 215.052C561.675 215.567 559.578 215.825 557.223 215.825ZM560.203 205.337C562.338 205.337 564.215 204.969 565.834 204.233C567.527 203.423 568.962 202.319 570.139 200.921C571.391 199.449 572.347 197.83 573.01 196.063C573.672 194.297 574.114 192.42 574.335 190.433V190.212H562.08C559.504 190.212 557.37 190.543 555.677 191.206C553.984 191.794 552.77 192.678 552.034 193.855C551.298 195.033 550.93 196.394 550.93 197.94C550.93 199.486 551.298 200.81 552.034 201.914C552.77 203.018 553.837 203.865 555.235 204.454C556.634 205.042 558.29 205.337 560.203 205.337ZM634.637 214.5L610.018 184.03L632.098 158.858H647.885L620.396 189.439V179.172L651.197 214.5H634.637ZM598.757 214.5V135.012H612.005V214.5H598.757ZM678.425 215.825C672.905 215.825 668.047 214.647 663.852 212.292C659.657 209.863 656.381 206.478 654.026 202.135C651.671 197.793 650.493 192.788 650.493 187.121C650.493 181.233 651.634 176.081 653.916 171.665C656.271 167.249 659.546 163.79 663.741 161.287C668.01 158.785 672.941 157.534 678.535 157.534C683.981 157.534 688.729 158.748 692.777 161.177C696.825 163.606 699.953 166.881 702.161 171.002C704.369 175.05 705.473 179.614 705.473 184.692C705.473 185.428 705.473 186.238 705.473 187.121C705.473 188.004 705.399 188.924 705.252 189.881H659.988V181.38H692.114C691.967 177.332 690.605 174.167 688.029 171.886C685.453 169.53 682.252 168.353 678.425 168.353C675.701 168.353 673.199 168.978 670.917 170.23C668.636 171.481 666.833 173.358 665.508 175.86C664.183 178.289 663.521 181.38 663.521 185.134V188.335C663.521 191.794 664.146 194.775 665.397 197.278C666.722 199.78 668.489 201.694 670.697 203.018C672.978 204.27 675.517 204.895 678.314 204.895C681.405 204.895 683.945 204.233 685.932 202.908C687.993 201.583 689.501 199.817 690.458 197.609H703.927C702.897 201.068 701.204 204.196 698.849 206.993C696.493 209.716 693.586 211.887 690.127 213.506C686.668 215.052 682.767 215.825 678.425 215.825ZM714.393 214.5V135.012H727.641V167.47C729.481 164.452 731.983 162.06 735.148 160.294C738.313 158.454 741.882 157.534 745.857 157.534C750.42 157.534 754.284 158.49 757.449 160.404C760.613 162.244 763.005 165.004 764.625 168.684C766.317 172.29 767.164 176.817 767.164 182.263V214.5H754.026V183.478C754.026 178.694 752.996 175.05 750.935 172.548C748.948 170.046 745.893 168.794 741.772 168.794C739.122 168.794 736.73 169.457 734.596 170.782C732.461 172.033 730.769 173.873 729.517 176.302C728.266 178.657 727.641 181.564 727.641 185.023V214.5H714.393ZM803.868 215.825C798.569 215.825 793.785 214.61 789.516 212.182C785.321 209.679 782.009 206.257 779.58 201.914C777.225 197.498 776.047 192.457 776.047 186.79C776.047 180.975 777.262 175.897 779.691 171.554C782.119 167.138 785.431 163.716 789.627 161.287C793.895 158.785 798.679 157.534 803.979 157.534C809.278 157.534 814.025 158.785 818.22 161.287C822.489 163.716 825.801 167.102 828.156 171.444C830.585 175.786 831.799 180.865 831.799 186.679C831.799 192.494 830.585 197.572 828.156 201.914C825.727 206.257 822.379 209.679 818.11 212.182C813.915 214.61 809.167 215.825 803.868 215.825ZM803.868 204.454C806.518 204.454 808.91 203.791 811.044 202.466C813.252 201.142 815.019 199.154 816.343 196.505C817.668 193.855 818.331 190.58 818.331 186.679C818.331 182.778 817.668 179.54 816.343 176.964C815.092 174.314 813.363 172.327 811.155 171.002C809.02 169.678 806.628 169.015 803.979 169.015C801.403 169.015 799.011 169.678 796.803 171.002C794.595 172.327 792.828 174.314 791.503 176.964C790.179 179.54 789.516 182.778 789.516 186.679C789.516 190.58 790.179 193.855 791.503 196.505C792.828 199.154 794.558 201.142 796.692 202.466C798.9 203.791 801.292 204.454 803.868 204.454ZM862.101 215.825C857.611 215.825 853.747 214.942 850.509 213.175C847.344 211.335 844.915 208.612 843.222 205.006C841.53 201.326 840.683 196.799 840.683 191.426V158.858H853.931V190.102C853.931 194.886 854.925 198.529 856.912 201.031C858.973 203.46 862.064 204.674 866.186 204.674C868.835 204.674 871.19 204.049 873.251 202.798C875.386 201.546 877.042 199.743 878.219 197.388C879.47 194.959 880.096 192.015 880.096 188.556V158.858H893.344V214.5H881.642L880.648 205.226C878.955 208.465 876.49 211.041 873.251 212.954C870.086 214.868 866.37 215.825 862.101 215.825ZM926.963 215.825C922.031 215.825 917.726 215.052 914.046 213.506C910.439 211.887 907.569 209.679 905.435 206.882C903.374 204.012 902.159 200.737 901.791 197.057H915.039C915.407 198.602 916.07 200.038 917.027 201.362C917.983 202.614 919.271 203.607 920.891 204.343C922.583 205.079 924.571 205.447 926.852 205.447C929.06 205.447 930.863 205.153 932.262 204.564C933.66 203.902 934.691 203.055 935.353 202.025C936.015 200.994 936.347 199.89 936.347 198.713C936.347 196.946 935.868 195.585 934.911 194.628C933.955 193.671 932.556 192.935 930.716 192.42C928.95 191.831 926.815 191.279 924.313 190.764C921.663 190.249 919.087 189.623 916.585 188.887C914.156 188.078 911.948 187.084 909.961 185.906C908.047 184.729 906.502 183.22 905.324 181.38C904.22 179.54 903.668 177.295 903.668 174.646C903.668 171.407 904.515 168.5 906.207 165.924C907.974 163.348 910.476 161.324 913.715 159.852C917.027 158.306 920.964 157.534 925.527 157.534C932.004 157.534 937.156 159.042 940.983 162.06C944.884 165.004 947.166 169.162 947.828 174.535H935.243C934.875 172.474 933.844 170.892 932.151 169.788C930.459 168.61 928.214 168.022 925.417 168.022C922.547 168.022 920.339 168.574 918.793 169.678C917.321 170.708 916.585 172.106 916.585 173.873C916.585 174.977 917.027 176.007 917.91 176.964C918.867 177.847 920.228 178.62 921.995 179.282C923.761 179.871 925.932 180.46 928.508 181.049C932.63 181.858 936.273 182.815 939.438 183.919C942.603 185.023 945.105 186.642 946.945 188.777C948.785 190.911 949.705 193.929 949.705 197.83C949.779 201.362 948.859 204.49 946.945 207.214C945.105 209.937 942.492 212.071 939.107 213.617C935.721 215.089 931.673 215.825 926.963 215.825ZM985.302 215.825C979.782 215.825 974.924 214.647 970.729 212.292C966.534 209.863 963.259 206.478 960.904 202.135C958.548 197.793 957.371 192.788 957.371 187.121C957.371 181.233 958.512 176.081 960.793 171.665C963.148 167.249 966.424 163.79 970.619 161.287C974.888 158.785 979.819 157.534 985.412 157.534C990.859 157.534 995.606 158.748 999.654 161.177C1003.7 163.606 1006.83 166.881 1009.04 171.002C1011.25 175.05 1012.35 179.614 1012.35 184.692C1012.35 185.428 1012.35 186.238 1012.35 187.121C1012.35 188.004 1012.28 188.924 1012.13 189.881H966.865V181.38H998.992C998.844 177.332 997.483 174.167 994.907 171.886C992.331 169.53 989.129 168.353 985.302 168.353C982.579 168.353 980.076 168.978 977.795 170.23C975.513 171.481 973.71 173.358 972.385 175.86C971.06 178.289 970.398 181.38 970.398 185.134V188.335C970.398 191.794 971.024 194.775 972.275 197.278C973.6 199.78 975.366 201.694 977.574 203.018C979.856 204.27 982.395 204.895 985.192 204.895C988.283 204.895 990.822 204.233 992.809 202.908C994.87 201.583 996.379 199.817 997.336 197.609H1010.8C1009.77 201.068 1008.08 204.196 1005.73 206.993C1003.37 209.716 1000.46 211.887 997.004 213.506C993.545 215.052 989.644 215.825 985.302 215.825Z" fill="white"/>
<defs>
<filter id="filter0_dddddd_1104_10374" x="0.713516" y="0.681084" width="556.573" height="556.573" filterUnits="userSpaceOnUse" color-interpolation-filters="sRGB">
<feFlood flood-opacity="0" result="BackgroundImageFix"/>
<feColorMatrix in="SourceAlpha" type="matrix" values="0 0 0 0 0 0 0 0 0 0 0 0 0 0 0 0 0 0 127 0" result="hardAlpha"/>
<feOffset dy="2.83243"/>
<feGaussianBlur stdDeviation="2.12432"/>
<feColorMatrix type="matrix" values="0 0 0 0 0.105882 0 0 0 0 0.192157 0 0 0 0 0.223529 0 0 0 0.0196802 0"/>
<feBlend mode="normal" in2="BackgroundImageFix" result="effect1_dropShadow_1104_10374"/>
<feColorMatrix in="SourceAlpha" type="matrix" values="0 0 0 0 0 0 0 0 0 0 0 0 0 0 0 0 0 0 127 0" result="hardAlpha"/>
<feOffset dy="5.66487"/>
<feGaussianBlur stdDeviation="5.66487"/>
<feColorMatrix type="matrix" values="0 0 0 0 0.105882 0 0 0 0 0.192157 0 0 0 0 0.223529 0 0 0 0.04 0"/>
<feBlend mode="normal" in2="effect1_dropShadow_1104_10374" result="effect2_dropShadow_1104_10374"/>
<feColorMatrix in="SourceAlpha" type="matrix" values="0 0 0 0 0 0 0 0 0 0 0 0 0 0 0 0 0 0 127 0" result="hardAlpha"/>
<feOffset dy="12.7459"/>
<feGaussianBlur stdDeviation="9.20541"/>
<feColorMatrix type="matrix" values="0 0 0 0 0.105882 0 0 0 0 0.192157 0 0 0 0 0.223529 0 0 0 0.035 0"/>
<feBlend mode="normal" in2="effect2_dropShadow_1104_10374" result="effect3_dropShadow_1104_10374"/>
<feColorMatrix in="SourceAlpha" type="matrix" values="0 0 0 0 0 0 0 0 0 0 0 0 0 0 0 0 0 0 127 0" result="hardAlpha"/>
<feOffset dy="22.6595"/>
<feGaussianBlur stdDeviation="16.9946"/>
<feColorMatrix type="matrix" values="0 0 0 0 0.105882 0 0 0 0 0.192157 0 0 0 0 0.223529 0 0 0 0.04 0"/>
<feBlend mode="normal" in2="effect3_dropShadow_1104_10374" result="effect4_dropShadow_1104_10374"/>
<feColorMatrix in="SourceAlpha" type="matrix" values="0 0 0 0 0 0 0 0 0 0 0 0 0 0 0 0 0 0 127 0" result="hardAlpha"/>
<feOffset dy="45.3189"/>
<feGaussianBlur stdDeviation="28.3243"/>
<feColorMatrix type="matrix" values="0 0 0 0 0.105882 0 0 0 0 0.192157 0 0 0 0 0.223529 0 0 0 0.0503198 0"/>
<feBlend mode="normal" in2="effect4_dropShadow_1104_10374" result="effect5_dropShadow_1104_10374"/>
<feColorMatrix in="SourceAlpha" type="matrix" values="0 0 0 0 0 0 0 0 0 0 0 0 0 0 0 0 0 0 127 0" result="hardAlpha"/>
<feOffset dy="101.968"/>
<feGaussianBlur stdDeviation="73.6432"/>
<feColorMatrix type="matrix" values="0 0 0 0 0.105882 0 0 0 0 0.192157 0 0 0 0 0.223529 0 0 0 0.07 0"/>
<feBlend mode="normal" in2="effect5_dropShadow_1104_10374" result="effect6_dropShadow_1104_10374"/>
<feBlend mode="normal" in="SourceGraphic" in2="effect6_dropShadow_1104_10374" result="shape"/>
</filter>
</defs>
</svg>
