<svg width="150" height="150" viewBox="0 0 150 150" fill="none" xmlns="http://www.w3.org/2000/svg">
<path d="M71.07 131.42H81.47C83.3478 131.415 85.1471 130.666 86.474 129.337C87.8009 128.008 88.5474 126.208 88.55 124.33V119.16H64V124.33C64.0026 126.206 64.7477 128.005 66.0724 129.333C67.3972 130.662 69.1939 131.412 71.07 131.42V131.42ZM67 122.16H85.55V124.33C85.55 125.413 85.1205 126.452 84.3556 127.218C83.5907 127.985 82.553 128.417 81.47 128.42H71.07C69.9895 128.412 68.9559 127.978 68.1938 127.212C67.4316 126.446 67.0026 125.41 67 124.33V122.16Z" fill="white"/>
<path d="M92.21 111.04H60.31V114.04H92.21V111.04Z" fill="white"/>
<path d="M127 20.8299C125.215 20.8302 123.465 21.3245 121.944 22.2581C120.422 23.1917 119.189 24.5281 118.381 26.1194C117.572 27.7107 117.22 29.4947 117.362 31.2739C117.505 33.0531 118.138 34.7581 119.19 36.1999L90.88 64.4599C89.2063 63.2366 87.1832 62.5848 85.1101 62.601C83.0371 62.6172 81.0244 63.3006 79.37 64.5499L70.43 55.6099C71.4848 54.1668 72.1194 52.4597 72.2635 50.678C72.4076 48.8962 72.0555 47.1094 71.2462 45.5155C70.437 43.9216 69.2022 42.583 67.6787 41.6479C66.1552 40.7128 64.4026 40.2178 62.615 40.2178C60.8274 40.2178 59.0748 40.7128 57.5513 41.6479C56.0278 42.583 54.793 43.9216 53.9838 45.5155C53.1745 47.1094 52.8224 48.8962 52.9665 50.678C53.1106 52.4597 53.7452 54.1668 54.8 55.6099L43.22 67.1899C40.4715 58.8464 40.982 49.7719 44.649 41.7894C48.316 33.8068 54.8678 27.5075 62.9883 24.157C71.1088 20.8065 80.1964 20.653 88.4254 23.7272C96.6545 26.8015 103.415 32.8758 107.35 40.7299L110 39.3799C105.615 30.8256 98.1334 24.2647 89.0799 21.0334C80.0264 17.8021 70.0817 18.1434 61.271 21.9878C52.4604 25.8323 45.4466 32.8907 41.6581 41.7256C37.8696 50.5604 37.5913 60.5071 40.88 69.5399L28.74 81.6699C27.0926 80.4532 25.098 79.7977 23.05 79.7999C21.1355 79.7999 19.2639 80.3677 17.6721 81.4313C16.0802 82.495 14.8395 84.0068 14.1068 85.7756C13.3742 87.5443 13.1825 89.4907 13.556 91.3684C13.9295 93.2461 14.8514 94.971 16.2052 96.3247C17.559 97.6785 19.2838 98.6004 21.1615 98.9739C23.0393 99.3474 24.9856 99.1557 26.7544 98.4231C28.5232 97.6904 30.035 96.4497 31.0986 94.8578C32.1623 93.266 32.73 91.3945 32.73 89.4799C32.7343 87.4347 32.0785 85.4426 30.86 83.7999L56.92 57.7299C58.573 58.9383 60.5675 59.5896 62.615 59.5896C64.6626 59.5896 66.657 58.9383 68.31 57.7299L77.31 66.7299C76.2746 68.1854 75.6616 69.8987 75.5387 71.6807C75.4158 73.4626 75.7879 75.2439 76.6138 76.8277C77.4397 78.4115 78.6873 79.7361 80.2188 80.6554C81.7503 81.5747 83.5061 82.0527 85.2922 82.0368C87.0783 82.0208 88.8253 81.5115 90.3401 80.5651C91.855 79.6186 93.0787 78.2719 93.8763 76.6736C94.6738 75.0754 95.014 73.2878 94.8594 71.5083C94.7047 69.7288 94.0613 68.0267 93 66.5899L110.33 49.2699C111.455 54.7183 111.259 60.3569 109.757 65.7138C108.256 71.0707 105.493 75.99 101.7 80.0599C97.1406 84.8428 94.5733 91.1823 94.52 97.7899V98.7899C94.52 99.8694 94.0912 100.905 93.3279 101.668C92.5647 102.431 91.5294 102.86 90.45 102.86H62.1C61.0196 102.865 59.9813 102.442 59.2126 101.683C58.444 100.923 58.0079 99.8903 58 98.8099V97.8099C58.0719 91.3739 55.6368 85.1623 51.21 80.4899C49.5954 78.8069 48.1517 76.9679 46.9 74.9999L44.37 76.5999C45.7293 78.7487 47.2968 80.7584 49.05 82.5999C52.9585 86.7046 55.1111 92.1724 55.05 97.8399V98.8399C55.0553 100.717 55.8046 102.515 57.1337 103.84C58.4627 105.166 60.2631 105.91 62.14 105.91H90.44C92.3143 105.907 94.111 105.162 95.4363 103.836C96.7616 102.511 97.5074 100.714 97.51 98.8399V97.8399C97.5737 91.9927 99.8497 86.3867 103.88 82.1499C108.232 77.4994 111.333 71.8207 112.893 65.6452C114.454 59.4698 114.421 52.9995 112.8 46.8399L121.26 38.3699C122.495 39.2515 123.92 39.83 125.42 40.0587C126.92 40.2874 128.453 40.1599 129.895 39.6864C131.337 39.2129 132.647 38.4068 133.719 37.3333C134.792 36.2598 135.596 34.9489 136.068 33.5067C136.54 32.0646 136.666 30.5316 136.436 29.0317C136.206 27.5319 135.626 26.1073 134.743 24.8731C133.86 23.6389 132.699 22.6299 131.354 21.9275C130.009 21.2251 128.517 20.8491 127 20.8299V20.8299ZM23.05 96.1599C21.7288 96.1599 20.4373 95.7682 19.3388 95.0341C18.2403 94.3001 17.3841 93.2569 16.8785 92.0363C16.3729 90.8156 16.2406 89.4725 16.4984 88.1767C16.7561 86.8809 17.3923 85.6907 18.3265 84.7565C19.2607 83.8222 20.451 83.186 21.7468 82.9283C23.0426 82.6705 24.3857 82.8028 25.6063 83.3084C26.8269 83.814 27.8702 84.6702 28.6042 85.7687C29.3382 86.8672 29.73 88.1588 29.73 89.4799C29.7274 91.2508 29.0227 92.9483 27.7706 94.2005C26.5184 95.4527 24.8208 96.1573 23.05 96.1599ZM62.62 56.5899C61.2984 56.5919 60.0059 56.2018 58.9061 55.469C57.8062 54.7362 56.9485 53.6936 56.4414 52.4732C55.9342 51.2528 55.8005 49.9093 56.0571 48.6129C56.3138 47.3164 56.9492 46.1252 57.883 45.19C58.8168 44.2548 60.0071 43.6176 61.3031 43.359C62.5992 43.1005 63.9428 43.2322 65.164 43.7375C66.3852 44.2428 67.4291 45.099 68.1635 46.1977C68.898 47.2964 69.29 48.5883 69.29 49.9099C69.29 51.6798 68.5876 53.3774 67.337 54.6299C66.0864 55.8823 64.3899 56.5873 62.62 56.5899V56.5899ZM85.18 78.9999C83.8588 78.9999 82.5673 78.6082 81.4688 77.8741C80.3703 77.1401 79.5141 76.0969 79.0085 74.8763C78.5029 73.6557 78.3706 72.3125 78.6284 71.0167C78.8861 69.7209 79.5223 68.5307 80.4565 67.5965C81.3907 66.6622 82.581 66.026 83.8768 65.7683C85.1726 65.5105 86.5157 65.6428 87.7363 66.1484C88.9569 66.654 90.0002 67.5102 90.7342 68.6087C91.4682 69.7072 91.86 70.9988 91.86 72.3199C91.8574 74.0908 91.1527 75.7883 89.9006 77.0405C88.6484 78.2927 86.9508 78.9973 85.18 78.9999V78.9999ZM127 37.1799C125.679 37.1799 124.387 36.7882 123.289 36.0542C122.19 35.3201 121.334 34.2769 120.828 33.0563C120.323 31.8356 120.191 30.4925 120.448 29.1967C120.706 27.9009 121.342 26.7107 122.277 25.7765C123.211 24.8422 124.401 24.206 125.697 23.9483C126.993 23.6905 128.336 23.8228 129.556 24.3284C130.777 24.834 131.82 25.6902 132.554 26.7887C133.288 27.8872 133.68 29.1788 133.68 30.4999C133.68 32.2716 132.976 33.9707 131.723 35.2234C130.471 36.4761 128.772 37.1799 127 37.1799V37.1799Z" fill="white"/>
</svg>
