<svg width="150" height="150" viewBox="0 0 150 150" fill="none" xmlns="http://www.w3.org/2000/svg">
<path d="M71.07 131.42H81.47C83.3478 131.415 85.1471 130.666 86.474 129.337C87.8009 128.008 88.5474 126.208 88.55 124.33V119.16H64V124.33C64.0026 126.206 64.7477 128.005 66.0724 129.333C67.3972 130.662 69.1939 131.412 71.07 131.42ZM67 122.16H85.55V124.33C85.55 125.413 85.1205 126.452 84.3556 127.219C83.5907 127.985 82.553 128.417 81.47 128.42H71.07C69.9895 128.412 68.9559 127.978 68.1938 127.212C67.4316 126.446 67.0026 125.411 67 124.33V122.16Z" fill="#FF5F46"/>
<path d="M92.2101 111.04H60.3101V114.04H92.2101V111.04Z" fill="#FF5F46"/>
<path d="M127 20.83C125.215 20.8303 123.465 21.3246 121.944 22.2581C120.422 23.1917 119.189 24.5282 118.381 26.1194C117.572 27.7107 117.22 29.4948 117.362 31.274C117.505 33.0532 118.138 34.7581 119.19 36.2L90.88 64.46C89.2063 63.2367 87.1832 62.5848 85.1101 62.6011C83.0371 62.6173 81.0244 63.3006 79.37 64.55L70.43 55.61C71.4848 54.1668 72.1194 52.4598 72.2635 50.678C72.4076 48.8963 72.0555 47.1095 71.2462 45.5156C70.437 43.9217 69.2022 42.583 67.6787 41.6479C66.1552 40.7129 64.4026 40.2179 62.615 40.2179C60.8274 40.2179 59.0748 40.7129 57.5513 41.6479C56.0278 42.583 54.793 43.9217 53.9838 45.5156C53.1745 47.1095 52.8224 48.8963 52.9665 50.678C53.1106 52.4598 53.7452 54.1668 54.8 55.61L43.22 67.19C40.4715 58.8465 40.982 49.772 44.649 41.7894C48.316 33.8069 54.8678 27.5076 62.9883 24.1571C71.1088 20.8066 80.1964 20.653 88.4254 23.7273C96.6545 26.8015 103.415 32.8759 107.35 40.73L110 39.38C105.615 30.8257 98.1334 24.2648 89.0799 21.0335C80.0264 17.8021 70.0817 18.1435 61.271 21.9879C52.4604 25.8324 45.4466 32.8908 41.6581 41.7256C37.8696 50.5604 37.5913 60.5072 40.88 69.54L28.74 81.67C27.0926 80.4533 25.098 79.7978 23.05 79.8C21.1355 79.8 19.2639 80.3677 17.6721 81.4314C16.0802 82.495 14.8395 84.0068 14.1068 85.7756C13.3742 87.5444 13.1825 89.4907 13.556 91.3685C13.9295 93.2462 14.8514 94.971 16.2052 96.3248C17.559 97.6786 19.2838 98.6005 21.1615 98.974C23.0393 99.3475 24.9856 99.1558 26.7544 98.4231C28.5232 97.6905 30.035 96.4498 31.0986 94.8579C32.1623 93.266 32.73 91.3945 32.73 89.48C32.7343 87.4347 32.0785 85.4427 30.86 83.8L56.92 57.73C58.573 58.9384 60.5675 59.5897 62.615 59.5897C64.6626 59.5897 66.657 58.9384 68.31 57.73L77.31 66.73C76.2746 68.1855 75.6616 69.8988 75.5387 71.6807C75.4158 73.4627 75.7879 75.244 76.6138 76.8277C77.4397 78.4115 78.6873 79.7362 80.2188 80.6555C81.7503 81.5747 83.5061 82.0528 85.2922 82.0368C87.0783 82.0209 88.8253 81.5116 90.3401 80.5651C91.855 79.6187 93.0787 78.272 93.8763 76.6737C94.6738 75.0754 95.014 73.2878 94.8594 71.5084C94.7047 69.7289 94.0612 68.0267 93 66.59L110.33 49.27C111.455 54.7184 111.259 60.357 109.757 65.7139C108.256 71.0708 105.493 75.9901 101.7 80.06C97.1406 84.8429 94.5733 91.1823 94.52 97.79V98.79C94.52 99.8694 94.0912 100.905 93.3279 101.668C92.5647 102.431 91.5294 102.86 90.45 102.86H62.1C61.0196 102.865 59.9813 102.442 59.2126 101.683C58.444 100.923 58.0079 99.8903 58 98.81V97.81C58.0719 91.3739 55.6368 85.1624 51.21 80.49C49.5954 78.8069 48.1517 76.9679 46.9 75L44.37 76.6C45.7293 78.7488 47.2968 80.7585 49.05 82.6C52.9585 86.7047 55.1111 92.1724 55.05 97.84V98.84C55.0553 100.717 55.8046 102.515 57.1337 103.84C58.4627 105.166 60.2631 105.91 62.14 105.91H90.44C92.3143 105.907 94.111 105.162 95.4363 103.836C96.7616 102.511 97.5074 100.714 97.51 98.84V97.84C97.5737 91.9928 99.8497 86.3868 103.88 82.15C108.232 77.4994 111.333 71.8207 112.893 65.6453C114.454 59.4699 114.421 52.9996 112.8 46.84L121.26 38.37C122.495 39.2515 123.92 39.8301 125.42 40.0588C126.92 40.2875 128.453 40.1599 129.895 39.6865C131.337 39.213 132.647 38.4069 133.719 37.3334C134.792 36.2598 135.596 34.949 136.068 33.5068C136.54 32.0646 136.666 30.5316 136.436 29.0318C136.206 27.5319 135.626 26.1073 134.743 24.8732C133.86 23.639 132.699 22.6299 131.354 21.9275C130.009 21.2252 128.517 20.8492 127 20.83ZM23.05 96.16C21.7288 96.16 20.4373 95.7682 19.3388 95.0342C18.2403 94.3002 17.3841 93.2569 16.8785 92.0363C16.3729 90.8157 16.2406 89.4726 16.4984 88.1768C16.7561 86.881 17.3923 85.6907 18.3265 84.7565C19.2607 83.8223 20.451 83.1861 21.7468 82.9283C23.0426 82.6706 24.3857 82.8029 25.6063 83.3085C26.8269 83.8141 27.8702 84.6703 28.6042 85.7688C29.3382 86.8673 29.73 88.1588 29.73 89.48C29.7274 91.2508 29.0227 92.9484 27.7706 94.2005C26.5184 95.4527 24.8208 96.1573 23.05 96.16ZM62.62 56.59C61.2984 56.592 60.0059 56.2019 58.9061 55.4691C57.8062 54.7363 56.9485 53.6937 56.4414 52.4733C55.9342 51.2528 55.8005 49.9094 56.0571 48.6129C56.3138 47.3165 56.9492 46.1253 57.883 45.1901C58.8168 44.2549 60.007 43.6177 61.3031 43.3591C62.5992 43.1005 63.9428 43.2322 65.164 43.7375C66.3852 44.2428 67.4291 45.099 68.1635 46.1977C68.898 47.2965 69.29 48.5884 69.29 49.91C69.29 51.6799 68.5876 53.3775 67.337 54.6299C66.0864 55.8824 64.3899 56.5873 62.62 56.59ZM85.18 79C83.8588 79 82.5673 78.6082 81.4688 77.8742C80.3703 77.1402 79.5141 76.0969 79.0085 74.8763C78.5029 73.6557 78.3706 72.3126 78.6284 71.0168C78.8861 69.721 79.5223 68.5307 80.4565 67.5965C81.3907 66.6623 82.581 66.0261 83.8768 65.7684C85.1726 65.5106 86.5157 65.6429 87.7363 66.1485C88.9569 66.6541 90.0002 67.5103 90.7342 68.6088C91.4682 69.7073 91.86 70.9988 91.86 72.32C91.8574 74.0908 91.1527 75.7884 89.9006 77.0405C88.6484 78.2927 86.9508 78.9974 85.18 79ZM127 37.18C125.679 37.18 124.387 36.7882 123.289 36.0542C122.19 35.3202 121.334 34.2769 120.828 33.0563C120.323 31.8357 120.191 30.4926 120.448 29.1968C120.706 27.901 121.342 26.7107 122.277 25.7765C123.211 24.8423 124.401 24.2061 125.697 23.9483C126.993 23.6906 128.336 23.8229 129.556 24.3285C130.777 24.8341 131.82 25.6903 132.554 26.7888C133.288 27.8873 133.68 29.1788 133.68 30.5C133.68 32.2716 132.976 33.9707 131.723 35.2235C130.471 36.4762 128.772 37.18 127 37.18Z" fill="#FF5F46"/>
</svg>
