<svg width="1146" height="724" viewBox="0 0 1146 724" fill="none" xmlns="http://www.w3.org/2000/svg">
<g filter="url(#filter0_dddddd_1117_12754)">
<path d="M192 150.383C192 99.9134 232.913 59 283.383 59H441.017C491.487 59 532.4 99.9134 532.4 150.383V308.017C532.4 358.487 491.487 399.4 441.017 399.4H283.383C232.913 399.4 192 358.487 192 308.017V150.383Z" fill="white"/>
</g>
<path d="M266 159C266 172.255 276.745 183 290 183V183C303.255 183 314 172.255 314 159V159C314 145.745 303.255 135 290 135V135C276.745 135 266 145.745 266 159V159Z" fill="#FF5F46"/>
<path d="M410 231C410 244.255 420.745 255 434 255V255C447.255 255 458 244.255 458 231V231C458 217.745 447.255 207 434 207V207C420.745 207 410 217.745 410 231V231Z" fill="#FF5F46"/>
<path d="M266 303C266 316.255 276.745 327 290 327V327C303.255 327 314 316.255 314 303V303C314 289.745 303.255 279 290 279V279C276.745 279 266 289.745 266 303V303Z" fill="#FF5F46"/>
<path d="M333.637 183L458 183L458 135L333.637 135L333.637 183Z" fill="#FABFBA"/>
<rect width="124.364" height="48" transform="matrix(1 8.20662e-08 9.31289e-08 -1 266 255)" fill="#FABFBA"/>
<rect width="124.364" height="48" transform="matrix(1 8.36077e-08 9.515e-08 -1 333.637 327)" fill="#FABFBA"/>
<path d="M603.901 217.2V139.92H623.773C632.752 139.92 640.149 141.503 645.964 144.667C651.852 147.759 656.194 152.211 658.991 158.026C661.861 163.767 663.296 170.685 663.296 178.781C663.296 186.73 661.861 193.575 658.991 199.315C656.194 205.056 651.852 209.472 645.964 212.563C640.149 215.655 632.752 217.2 623.773 217.2H603.901ZM613.175 209.472H623.552C630.986 209.472 636.911 208.258 641.327 205.829C645.743 203.327 648.908 199.794 650.821 195.231C652.735 190.594 653.692 185.111 653.692 178.781C653.692 172.304 652.735 166.747 650.821 162.111C648.908 157.474 645.743 153.904 641.327 151.402C636.911 148.899 630.986 147.648 623.552 147.648H613.175V209.472ZM691.345 218.525C686.929 218.525 683.249 217.715 680.305 216.096C677.361 214.403 675.153 212.195 673.681 209.472C672.209 206.675 671.473 203.695 671.473 200.53C671.473 196.703 672.43 193.464 674.343 190.815C676.33 188.091 679.09 186.031 682.623 184.632C686.156 183.234 690.278 182.535 694.988 182.535H709.45C709.45 178.781 709.009 175.653 708.126 173.151C707.242 170.648 705.807 168.771 703.82 167.52C701.833 166.269 699.183 165.643 695.871 165.643C692.559 165.643 689.726 166.49 687.37 168.183C685.015 169.802 683.543 172.231 682.954 175.469H673.46C673.902 171.642 675.19 168.44 677.324 165.864C679.458 163.215 682.145 161.227 685.383 159.903C688.695 158.504 692.191 157.805 695.871 157.805C701.097 157.805 705.402 158.762 708.788 160.675C712.174 162.515 714.676 165.128 716.295 168.514C717.914 171.826 718.724 175.763 718.724 180.327V217.2H710.444L709.892 207.264C709.156 208.81 708.199 210.282 707.022 211.68C705.918 213.005 704.593 214.183 703.047 215.213C701.502 216.243 699.735 217.053 697.748 217.642C695.834 218.231 693.7 218.525 691.345 218.525ZM692.67 210.687C695.098 210.687 697.343 210.135 699.404 209.031C701.465 207.927 703.231 206.455 704.703 204.615C706.249 202.701 707.426 200.567 708.236 198.211C709.046 195.856 709.45 193.391 709.45 190.815V189.711H695.761C692.302 189.711 689.468 190.152 687.26 191.035C685.126 191.919 683.58 193.17 682.623 194.789C681.666 196.335 681.188 198.101 681.188 200.088C681.188 202.223 681.63 204.099 682.513 205.719C683.396 207.264 684.684 208.479 686.377 209.362C688.143 210.245 690.241 210.687 692.67 210.687ZM751.746 217.2C748.434 217.2 745.563 216.685 743.135 215.655C740.706 214.624 738.829 212.895 737.504 210.466C736.253 207.963 735.627 204.615 735.627 200.419V166.968H725.471V159.13H735.627L736.842 144.667H744.901V159.13H761.351V166.968H744.901V200.419C744.901 203.879 745.6 206.234 746.999 207.485C748.397 208.663 750.863 209.251 754.395 209.251H761.13V217.2H751.746ZM788.868 218.525C784.452 218.525 780.772 217.715 777.828 216.096C774.884 214.403 772.676 212.195 771.204 209.472C769.732 206.675 768.996 203.695 768.996 200.53C768.996 196.703 769.953 193.464 771.866 190.815C773.853 188.091 776.613 186.031 780.146 184.632C783.679 183.234 787.801 182.535 792.511 182.535H806.973C806.973 178.781 806.532 175.653 805.649 173.151C804.765 170.648 803.33 168.771 801.343 167.52C799.356 166.269 796.706 165.643 793.394 165.643C790.082 165.643 787.249 166.49 784.893 168.183C782.538 169.802 781.066 172.231 780.477 175.469H770.983C771.425 171.642 772.713 168.44 774.847 165.864C776.981 163.215 779.668 161.227 782.906 159.903C786.218 158.504 789.714 157.805 793.394 157.805C798.62 157.805 802.925 158.762 806.311 160.675C809.697 162.515 812.199 165.128 813.818 168.514C815.437 171.826 816.247 175.763 816.247 180.327V217.2H807.967L807.415 207.264C806.679 208.81 805.722 210.282 804.545 211.68C803.441 213.005 802.116 214.183 800.57 215.213C799.025 216.243 797.258 217.053 795.271 217.642C793.357 218.231 791.223 218.525 788.868 218.525ZM790.193 210.687C792.621 210.687 794.866 210.135 796.927 209.031C798.988 207.927 800.754 206.455 802.226 204.615C803.772 202.701 804.949 200.567 805.759 198.211C806.569 195.856 806.973 193.391 806.973 190.815V189.711H793.284C789.825 189.711 786.991 190.152 784.783 191.035C782.649 191.919 781.103 193.17 780.146 194.789C779.189 196.335 778.711 198.101 778.711 200.088C778.711 202.223 779.153 204.099 780.036 205.719C780.919 207.264 782.207 208.479 783.9 209.362C785.666 210.245 787.764 210.687 790.193 210.687ZM857.181 218.525C853.648 218.525 850.594 218.01 848.018 216.979C845.516 215.875 843.381 214.514 841.615 212.895C839.922 211.275 838.524 209.693 837.42 208.147L836.647 217.2H828.256V137.712H837.53V168.293C839.296 164.834 841.909 162.221 845.368 160.455C848.828 158.688 852.692 157.805 856.96 157.805C862.26 157.805 866.896 159.093 870.871 161.669C874.845 164.245 877.936 167.815 880.144 172.378C882.352 176.867 883.456 182.056 883.456 187.944C883.456 193.759 882.352 198.984 880.144 203.621C877.936 208.258 874.845 211.901 870.871 214.551C866.97 217.2 862.407 218.525 857.181 218.525ZM855.967 210.466C859.426 210.466 862.48 209.583 865.13 207.816C867.853 205.976 869.988 203.4 871.533 200.088C873.152 196.703 873.962 192.728 873.962 188.165C873.962 183.602 873.152 179.664 871.533 176.352C869.988 172.967 867.853 170.391 865.13 168.624C862.48 166.784 859.426 165.864 855.967 165.864C852.287 165.864 849.085 166.784 846.362 168.624C843.639 170.391 841.541 172.967 840.069 176.352C838.597 179.664 837.861 183.602 837.861 188.165C837.861 192.728 838.597 196.703 840.069 200.088C841.541 203.4 843.639 205.976 846.362 207.816C849.085 209.583 852.287 210.466 855.967 210.466ZM893.621 217.2V159.13H902.011L902.674 169.728C903.999 167.079 905.728 164.871 907.863 163.104C909.997 161.338 912.573 160.013 915.591 159.13C918.682 158.247 922.141 157.805 925.968 157.805V167.52H920.227C918.019 167.52 915.885 167.815 913.824 168.403C911.763 168.992 909.887 169.949 908.194 171.274C906.575 172.599 905.287 174.402 904.33 176.683C903.373 178.965 902.895 181.835 902.895 185.295V217.2H893.621ZM934.209 217.2V159.13H943.483V217.2H934.209ZM938.846 148.09C937.006 148.09 935.461 147.501 934.209 146.323C933.032 145.072 932.443 143.527 932.443 141.687C932.443 139.847 933.032 138.375 934.209 137.271C935.461 136.093 937.006 135.504 938.846 135.504C940.613 135.504 942.121 136.093 943.373 137.271C944.624 138.375 945.249 139.847 945.249 141.687C945.249 143.527 944.624 145.072 943.373 146.323C942.121 147.501 940.613 148.09 938.846 148.09ZM981.705 218.525C976.405 218.525 971.695 217.274 967.573 214.771C963.452 212.195 960.213 208.626 957.858 204.063C955.503 199.499 954.325 194.2 954.325 188.165C954.325 182.056 955.503 176.757 957.858 172.267C960.213 167.704 963.452 164.171 967.573 161.669C971.695 159.093 976.405 157.805 981.705 157.805C988.329 157.805 993.849 159.571 998.265 163.104C1002.75 166.637 1005.62 171.384 1006.88 177.346H997.381C996.572 173.666 994.695 170.832 991.751 168.845C988.881 166.784 985.495 165.754 981.594 165.754C978.209 165.754 975.154 166.6 972.431 168.293C969.781 169.986 967.684 172.488 966.138 175.8C964.593 179.112 963.82 183.234 963.82 188.165C963.82 191.845 964.261 195.12 965.145 197.991C966.028 200.787 967.242 203.143 968.788 205.056C970.407 206.896 972.284 208.295 974.418 209.251C976.626 210.208 979.018 210.687 981.594 210.687C984.244 210.687 986.636 210.245 988.77 209.362C990.978 208.405 992.818 207.043 994.29 205.277C995.836 203.511 996.866 201.413 997.381 198.984H1006.88C1005.7 204.799 1002.83 209.509 998.265 213.115C993.775 216.722 988.255 218.525 981.705 218.525ZM1051.16 217.2L1024.78 185.847L1049.62 159.13H1060.99L1032.62 189.159L1032.73 182.535L1062.98 217.2H1051.16ZM1017.05 217.2V137.712H1026.32V217.2H1017.05ZM1087.22 218.525C1081.99 218.525 1077.65 217.752 1074.19 216.207C1070.8 214.587 1068.23 212.379 1066.46 209.583C1064.7 206.712 1063.63 203.4 1063.26 199.647H1072.76C1073.05 201.634 1073.71 203.474 1074.74 205.167C1075.85 206.786 1077.43 208.111 1079.49 209.141C1081.55 210.171 1084.16 210.687 1087.33 210.687C1089.83 210.687 1091.96 210.319 1093.73 209.583C1095.5 208.773 1096.82 207.669 1097.71 206.271C1098.66 204.872 1099.14 203.253 1099.14 201.413C1099.14 198.984 1098.59 197.107 1097.48 195.783C1096.45 194.384 1094.91 193.354 1092.85 192.691C1090.86 191.955 1088.36 191.403 1085.34 191.035C1082.1 190.594 1079.23 189.968 1076.73 189.159C1074.23 188.349 1072.09 187.282 1070.33 185.957C1068.63 184.632 1067.35 182.976 1066.46 180.989C1065.58 179.002 1065.14 176.647 1065.14 173.923C1065.14 170.759 1065.98 167.962 1067.68 165.533C1069.37 163.104 1071.76 161.227 1074.85 159.903C1078.02 158.504 1081.73 157.805 1086 157.805C1092.26 157.805 1097.19 159.24 1100.8 162.111C1104.48 164.981 1106.65 169.066 1107.31 174.365H1098.15C1097.78 171.642 1096.53 169.507 1094.39 167.962C1092.26 166.416 1089.43 165.643 1085.89 165.643C1082.14 165.643 1079.31 166.343 1077.39 167.741C1075.48 169.139 1074.52 170.979 1074.52 173.261C1074.52 174.954 1074.93 176.499 1075.74 177.898C1076.62 179.223 1078.09 180.363 1080.15 181.32C1082.21 182.203 1084.97 182.866 1088.43 183.307C1092.77 183.823 1096.45 184.669 1099.47 185.847C1102.49 186.951 1104.77 188.68 1106.32 191.035C1107.94 193.391 1108.71 196.592 1108.64 200.64C1108.64 204.467 1107.72 207.706 1105.88 210.355C1104.11 213.005 1101.61 215.029 1098.37 216.427C1095.2 217.826 1091.49 218.525 1087.22 218.525ZM603.239 316.2V238.92H616.487L653.692 294.783V238.92H666.94V316.2H653.692L616.487 260.448V316.2H603.239ZM704.671 317.525C699.372 317.525 694.588 316.311 690.319 313.882C686.124 311.379 682.812 307.957 680.383 303.615C678.028 299.199 676.851 294.157 676.851 288.49C676.851 282.675 678.065 277.597 680.494 273.255C682.923 268.839 686.235 265.416 690.43 262.987C694.699 260.485 699.483 259.234 704.782 259.234C710.081 259.234 714.828 260.485 719.023 262.987C723.292 265.416 726.604 268.802 728.959 273.144C731.388 277.487 732.603 282.565 732.603 288.379C732.603 294.194 731.388 299.272 728.959 303.615C726.531 307.957 723.182 311.379 718.913 313.882C714.718 316.311 709.971 317.525 704.671 317.525ZM704.671 306.154C707.321 306.154 709.713 305.491 711.847 304.167C714.055 302.842 715.822 300.855 717.147 298.205C718.471 295.555 719.134 292.28 719.134 288.379C719.134 284.479 718.471 281.24 717.147 278.664C715.895 276.015 714.166 274.027 711.958 272.703C709.823 271.378 707.431 270.715 704.782 270.715C702.206 270.715 699.814 271.378 697.606 272.703C695.398 274.027 693.631 276.015 692.307 278.664C690.982 281.24 690.319 284.479 690.319 288.379C690.319 292.28 690.982 295.555 692.307 298.205C693.631 300.855 695.361 302.842 697.495 304.167C699.703 305.491 702.095 306.154 704.671 306.154ZM764.28 316.2C760.527 316.2 757.252 315.611 754.455 314.434C751.732 313.256 749.597 311.306 748.052 308.583C746.506 305.859 745.733 302.179 745.733 297.543V271.709H736.239V260.559H745.733L747.279 245.875H758.981V260.559H774.106V271.709H758.981V297.543C758.981 300.339 759.57 302.29 760.748 303.394C761.999 304.424 764.06 304.939 766.93 304.939H773.775V316.2H764.28ZM807.911 317.525C802.391 317.525 797.533 316.347 793.338 313.992C789.143 311.563 785.868 308.178 783.513 303.835C781.157 299.493 779.98 294.488 779.98 288.821C779.98 282.933 781.121 277.781 783.402 273.365C785.757 268.949 789.033 265.49 793.228 262.987C797.497 260.485 802.428 259.234 808.021 259.234C813.468 259.234 818.215 260.448 822.263 262.877C826.311 265.306 829.439 268.581 831.647 272.703C833.855 276.751 834.959 281.314 834.959 286.392C834.959 287.128 834.959 287.938 834.959 288.821C834.959 289.704 834.885 290.624 834.738 291.581H789.474V283.08H821.601C821.453 279.032 820.092 275.867 817.516 273.586C814.94 271.231 811.738 270.053 807.911 270.053C805.188 270.053 802.685 270.679 800.404 271.93C798.122 273.181 796.319 275.058 794.994 277.56C793.669 279.989 793.007 283.08 793.007 286.834V290.035C793.007 293.495 793.633 296.475 794.884 298.978C796.209 301.48 797.975 303.394 800.183 304.719C802.465 305.97 805.004 306.595 807.801 306.595C810.892 306.595 813.431 305.933 815.418 304.608C817.479 303.283 818.988 301.517 819.945 299.309H833.413C832.383 302.768 830.69 305.896 828.335 308.693C825.98 311.416 823.073 313.587 819.613 315.207C816.154 316.752 812.253 317.525 807.911 317.525ZM875.674 317.525C872.73 317.525 870.08 317.12 867.725 316.311C865.37 315.575 863.309 314.544 861.543 313.219C859.776 311.821 858.304 310.239 857.127 308.472L855.692 316.2H843.879V236.712H857.127V268.728C858.893 266.005 861.285 263.76 864.303 261.994C867.32 260.154 871.074 259.234 875.564 259.234C880.789 259.234 885.389 260.522 889.364 263.098C893.412 265.6 896.576 269.059 898.858 273.475C901.213 277.818 902.391 282.823 902.391 288.49C902.391 294.01 901.25 298.978 898.968 303.394C896.687 307.81 893.522 311.269 889.474 313.771C885.5 316.274 880.9 317.525 875.674 317.525ZM872.914 306.043C876.005 306.043 878.765 305.307 881.194 303.835C883.623 302.29 885.5 300.229 886.824 297.653C888.223 295.003 888.922 291.912 888.922 288.379C888.922 284.92 888.223 281.866 886.824 279.216C885.5 276.567 883.623 274.506 881.194 273.034C878.765 271.562 876.005 270.826 872.914 270.826C869.749 270.826 866.952 271.562 864.524 273.034C862.168 274.506 860.292 276.567 858.893 279.216C857.568 281.866 856.906 284.92 856.906 288.379C856.906 291.912 857.568 295.003 858.893 297.653C860.292 300.229 862.168 302.29 864.524 303.835C866.952 305.307 869.749 306.043 872.914 306.043ZM937.883 317.525C932.584 317.525 927.8 316.311 923.531 313.882C919.336 311.379 916.024 307.957 913.595 303.615C911.24 299.199 910.062 294.157 910.062 288.49C910.062 282.675 911.276 277.597 913.705 273.255C916.134 268.839 919.446 265.416 923.641 262.987C927.91 260.485 932.694 259.234 937.993 259.234C943.292 259.234 948.04 260.485 952.235 262.987C956.504 265.416 959.816 268.802 962.171 273.144C964.6 277.487 965.814 282.565 965.814 288.379C965.814 294.194 964.6 299.272 962.171 303.615C959.742 307.957 956.393 311.379 952.124 313.882C947.929 316.311 943.182 317.525 937.883 317.525ZM937.883 306.154C940.532 306.154 942.924 305.491 945.059 304.167C947.267 302.842 949.033 300.855 950.358 298.205C951.683 295.555 952.345 292.28 952.345 288.379C952.345 284.479 951.683 281.24 950.358 278.664C949.107 276.015 947.377 274.027 945.169 272.703C943.035 271.378 940.643 270.715 937.993 270.715C935.417 270.715 933.025 271.378 930.817 272.703C928.609 274.027 926.843 276.015 925.518 278.664C924.193 281.24 923.531 284.479 923.531 288.379C923.531 292.28 924.193 295.555 925.518 298.205C926.843 300.855 928.572 302.842 930.707 304.167C932.915 305.491 935.307 306.154 937.883 306.154ZM1001.41 317.525C996.115 317.525 991.331 316.311 987.063 313.882C982.867 311.379 979.555 307.957 977.127 303.615C974.771 299.199 973.594 294.157 973.594 288.49C973.594 282.675 974.808 277.597 977.237 273.255C979.666 268.839 982.978 265.416 987.173 262.987C991.442 260.485 996.226 259.234 1001.52 259.234C1006.82 259.234 1011.57 260.485 1015.77 262.987C1020.04 265.416 1023.35 268.802 1025.7 273.144C1028.13 277.487 1029.35 282.565 1029.35 288.379C1029.35 294.194 1028.13 299.272 1025.7 303.615C1023.27 307.957 1019.92 311.379 1015.66 313.882C1011.46 316.311 1006.71 317.525 1001.41 317.525ZM1001.41 306.154C1004.06 306.154 1006.46 305.491 1008.59 304.167C1010.8 302.842 1012.56 300.855 1013.89 298.205C1015.21 295.555 1015.88 292.28 1015.88 288.379C1015.88 284.479 1015.21 281.24 1013.89 278.664C1012.64 276.015 1010.91 274.027 1008.7 272.703C1006.57 271.378 1004.17 270.715 1001.52 270.715C998.949 270.715 996.557 271.378 994.349 272.703C992.141 274.027 990.375 276.015 989.05 278.664C987.725 281.24 987.063 284.479 987.063 288.379C987.063 292.28 987.725 295.555 989.05 298.205C990.375 300.855 992.104 302.842 994.239 304.167C996.447 305.491 998.839 306.154 1001.41 306.154ZM1074.88 316.2L1050.26 285.73L1072.34 260.559H1088.13L1060.64 291.139V280.872L1091.44 316.2H1074.88ZM1039 316.2V236.712H1052.25V316.2H1039ZM1116.42 317.525C1111.49 317.525 1107.19 316.752 1103.51 315.207C1099.9 313.587 1097.03 311.379 1094.89 308.583C1092.83 305.712 1091.62 302.437 1091.25 298.757H1104.5C1104.87 300.303 1105.53 301.738 1106.49 303.063C1107.44 304.314 1108.73 305.307 1110.35 306.043C1112.04 306.779 1114.03 307.147 1116.31 307.147C1118.52 307.147 1120.32 306.853 1121.72 306.264C1123.12 305.602 1124.15 304.755 1124.81 303.725C1125.48 302.695 1125.81 301.591 1125.81 300.413C1125.81 298.647 1125.33 297.285 1124.37 296.328C1123.41 295.371 1122.02 294.635 1120.18 294.12C1118.41 293.531 1116.28 292.979 1113.77 292.464C1111.12 291.949 1108.55 291.323 1106.05 290.587C1103.62 289.778 1101.41 288.784 1099.42 287.607C1097.51 286.429 1095.96 284.92 1094.78 283.08C1093.68 281.24 1093.13 278.995 1093.13 276.346C1093.13 273.107 1093.97 270.2 1095.67 267.624C1097.43 265.048 1099.94 263.024 1103.17 261.552C1106.49 260.007 1110.42 259.234 1114.99 259.234C1121.46 259.234 1126.62 260.743 1130.44 263.76C1134.34 266.704 1136.63 270.863 1137.29 276.235H1124.7C1124.33 274.175 1123.3 272.592 1121.61 271.488C1119.92 270.311 1117.67 269.722 1114.88 269.722C1112.01 269.722 1109.8 270.274 1108.25 271.378C1106.78 272.408 1106.05 273.807 1106.05 275.573C1106.05 276.677 1106.49 277.707 1107.37 278.664C1108.33 279.547 1109.69 280.32 1111.45 280.983C1113.22 281.571 1115.39 282.16 1117.97 282.749C1122.09 283.559 1125.73 284.515 1128.9 285.619C1132.06 286.723 1134.57 288.343 1136.41 290.477C1138.25 292.611 1139.17 295.629 1139.17 299.53C1139.24 303.063 1138.32 306.191 1136.41 308.914C1134.57 311.637 1131.95 313.771 1128.57 315.317C1125.18 316.789 1121.13 317.525 1116.42 317.525Z" fill="white"/>
<defs>
<filter id="filter0_dddddd_1117_12754" x="0.639999" y="0.119995" width="723.12" height="723.12" filterUnits="userSpaceOnUse" color-interpolation-filters="sRGB">
<feFlood flood-opacity="0" result="BackgroundImageFix"/>
<feColorMatrix in="SourceAlpha" type="matrix" values="0 0 0 0 0 0 0 0 0 0 0 0 0 0 0 0 0 0 127 0" result="hardAlpha"/>
<feOffset dy="3.68"/>
<feGaussianBlur stdDeviation="2.76"/>
<feColorMatrix type="matrix" values="0 0 0 0 0.105882 0 0 0 0 0.192157 0 0 0 0 0.223529 0 0 0 0.0196802 0"/>
<feBlend mode="normal" in2="BackgroundImageFix" result="effect1_dropShadow_1117_12754"/>
<feColorMatrix in="SourceAlpha" type="matrix" values="0 0 0 0 0 0 0 0 0 0 0 0 0 0 0 0 0 0 127 0" result="hardAlpha"/>
<feOffset dy="7.36"/>
<feGaussianBlur stdDeviation="7.36"/>
<feColorMatrix type="matrix" values="0 0 0 0 0.105882 0 0 0 0 0.192157 0 0 0 0 0.223529 0 0 0 0.04 0"/>
<feBlend mode="normal" in2="effect1_dropShadow_1117_12754" result="effect2_dropShadow_1117_12754"/>
<feColorMatrix in="SourceAlpha" type="matrix" values="0 0 0 0 0 0 0 0 0 0 0 0 0 0 0 0 0 0 127 0" result="hardAlpha"/>
<feOffset dy="16.56"/>
<feGaussianBlur stdDeviation="11.96"/>
<feColorMatrix type="matrix" values="0 0 0 0 0.105882 0 0 0 0 0.192157 0 0 0 0 0.223529 0 0 0 0.035 0"/>
<feBlend mode="normal" in2="effect2_dropShadow_1117_12754" result="effect3_dropShadow_1117_12754"/>
<feColorMatrix in="SourceAlpha" type="matrix" values="0 0 0 0 0 0 0 0 0 0 0 0 0 0 0 0 0 0 127 0" result="hardAlpha"/>
<feOffset dy="29.44"/>
<feGaussianBlur stdDeviation="22.08"/>
<feColorMatrix type="matrix" values="0 0 0 0 0.105882 0 0 0 0 0.192157 0 0 0 0 0.223529 0 0 0 0.04 0"/>
<feBlend mode="normal" in2="effect3_dropShadow_1117_12754" result="effect4_dropShadow_1117_12754"/>
<feColorMatrix in="SourceAlpha" type="matrix" values="0 0 0 0 0 0 0 0 0 0 0 0 0 0 0 0 0 0 127 0" result="hardAlpha"/>
<feOffset dy="58.88"/>
<feGaussianBlur stdDeviation="36.8"/>
<feColorMatrix type="matrix" values="0 0 0 0 0.105882 0 0 0 0 0.192157 0 0 0 0 0.223529 0 0 0 0.0503198 0"/>
<feBlend mode="normal" in2="effect4_dropShadow_1117_12754" result="effect5_dropShadow_1117_12754"/>
<feColorMatrix in="SourceAlpha" type="matrix" values="0 0 0 0 0 0 0 0 0 0 0 0 0 0 0 0 0 0 127 0" result="hardAlpha"/>
<feOffset dy="132.48"/>
<feGaussianBlur stdDeviation="95.68"/>
<feColorMatrix type="matrix" values="0 0 0 0 0.105882 0 0 0 0 0.192157 0 0 0 0 0.223529 0 0 0 0.07 0"/>
<feBlend mode="normal" in2="effect5_dropShadow_1117_12754" result="effect6_dropShadow_1117_12754"/>
<feBlend mode="normal" in="SourceGraphic" in2="effect6_dropShadow_1117_12754" result="shape"/>
</filter>
</defs>
</svg>
