<svg width="1275" height="724" viewBox="0 0 1275 724" fill="none" xmlns="http://www.w3.org/2000/svg">
<g filter="url(#filter0_dddddd_1119_14834)">
<path d="M192 150.383C192 99.9134 232.913 59 283.383 59H441.017C491.487 59 532.4 99.9134 532.4 150.383V308.017C532.4 358.487 491.487 399.4 441.017 399.4H283.383C232.913 399.4 192 358.487 192 308.017V150.383Z" fill="white"/>
</g>
<path d="M361.69 195.631L331.086 213.316V248.684L361.69 266.368L392.294 248.684V213.316L361.69 195.631Z" fill="#FF5F46"/>
<path d="M426.215 193.789H461.428L443.729 163.21L426.215 193.789Z" fill="#FF5F46"/>
<path d="M426.215 268.395L443.914 298.973L461.612 268.395H426.215Z" fill="#FF5F46"/>
<path d="M343.992 336H379.205L361.507 305.421L343.992 336Z" fill="#FF5F46"/>
<path d="M261.766 268.395L279.464 298.973L297.163 268.395H261.766Z" fill="#FF5F46"/>
<path d="M261.766 193.789H296.979L279.28 163.21L261.766 193.789Z" fill="#FF5F46"/>
<path d="M343.992 126L361.691 156.579L379.39 126H343.992Z" fill="#FF5F46"/>
<path d="M395.245 132.079L374.781 167.447L410.179 187.895L430.643 152.526L395.245 132.079Z" fill="#FABFBA"/>
<path d="M464.194 210.553H423.266V251.447H464.194V210.553Z" fill="#FABFBA"/>
<path d="M410.179 274.29L374.781 294.737L395.245 330.105L430.643 309.658L410.179 274.29Z" fill="#FABFBA"/>
<path d="M313.019 274.29L292.555 309.658L327.952 330.105L348.416 294.737L313.019 274.29Z" fill="#FABFBA"/>
<path d="M299.928 210.553H259V251.447H299.928V210.553Z" fill="#FABFBA"/>
<path d="M327.952 132.079L292.555 152.526L313.019 187.895L348.416 167.447L327.952 132.079Z" fill="#FABFBA"/>
<path d="M603.899 217.2V139.92H623.771C632.75 139.92 640.147 141.503 645.962 144.667C651.85 147.759 656.192 152.211 658.989 158.026C661.859 163.767 663.294 170.685 663.294 178.781C663.294 186.73 661.859 193.575 658.989 199.315C656.192 205.056 651.85 209.472 645.962 212.563C640.147 215.655 632.75 217.2 623.771 217.2H603.899ZM613.173 209.472H623.55C630.984 209.472 636.909 208.258 641.325 205.829C645.741 203.327 648.906 199.794 650.819 195.231C652.733 190.594 653.69 185.111 653.69 178.781C653.69 172.304 652.733 166.747 650.819 162.111C648.906 157.474 645.741 153.904 641.325 151.402C636.909 148.899 630.984 147.648 623.55 147.648H613.173V209.472ZM691.343 218.525C686.927 218.525 683.247 217.715 680.303 216.096C677.359 214.403 675.151 212.195 673.679 209.472C672.207 206.675 671.471 203.695 671.471 200.53C671.471 196.703 672.428 193.464 674.341 190.815C676.329 188.091 679.089 186.031 682.621 184.632C686.154 183.234 690.276 182.535 694.986 182.535H709.449C709.449 178.781 709.007 175.653 708.124 173.151C707.241 170.648 705.805 168.771 703.818 167.52C701.831 166.269 699.181 165.643 695.869 165.643C692.557 165.643 689.724 166.49 687.369 168.183C685.013 169.802 683.541 172.231 682.953 175.469H673.458C673.9 171.642 675.188 168.44 677.322 165.864C679.457 163.215 682.143 161.227 685.381 159.903C688.693 158.504 692.189 157.805 695.869 157.805C701.095 157.805 705.401 158.762 708.786 160.675C712.172 162.515 714.674 165.128 716.293 168.514C717.913 171.826 718.722 175.763 718.722 180.327V217.2H710.442L709.89 207.264C709.154 208.81 708.197 210.282 707.02 211.68C705.916 213.005 704.591 214.183 703.045 215.213C701.5 216.243 699.733 217.053 697.746 217.642C695.833 218.231 693.698 218.525 691.343 218.525ZM692.668 210.687C695.097 210.687 697.341 210.135 699.402 209.031C701.463 207.927 703.229 206.455 704.701 204.615C706.247 202.701 707.425 200.567 708.234 198.211C709.044 195.856 709.449 193.391 709.449 190.815V189.711H695.759C692.3 189.711 689.466 190.152 687.258 191.035C685.124 191.919 683.578 193.17 682.621 194.789C681.665 196.335 681.186 198.101 681.186 200.088C681.186 202.223 681.628 204.099 682.511 205.719C683.394 207.264 684.682 208.479 686.375 209.362C688.141 210.245 690.239 210.687 692.668 210.687ZM751.744 217.2C748.432 217.2 745.561 216.685 743.133 215.655C740.704 214.624 738.827 212.895 737.502 210.466C736.251 207.963 735.625 204.615 735.625 200.419V166.968H725.469V159.13H735.625L736.84 144.667H744.899V159.13H761.349V166.968H744.899V200.419C744.899 203.879 745.598 206.234 746.997 207.485C748.395 208.663 750.861 209.251 754.393 209.251H761.128V217.2H751.744ZM788.866 218.525C784.45 218.525 780.77 217.715 777.826 216.096C774.882 214.403 772.674 212.195 771.202 209.472C769.73 206.675 768.994 203.695 768.994 200.53C768.994 196.703 769.951 193.464 771.864 190.815C773.851 188.091 776.611 186.031 780.144 184.632C783.677 183.234 787.799 182.535 792.509 182.535H806.971C806.971 178.781 806.53 175.653 805.647 173.151C804.763 170.648 803.328 168.771 801.341 167.52C799.354 166.269 796.704 165.643 793.392 165.643C790.08 165.643 787.247 166.49 784.891 168.183C782.536 169.802 781.064 172.231 780.475 175.469H770.981C771.423 171.642 772.711 168.44 774.845 165.864C776.979 163.215 779.666 161.227 782.904 159.903C786.216 158.504 789.712 157.805 793.392 157.805C798.618 157.805 802.923 158.762 806.309 160.675C809.695 162.515 812.197 165.128 813.816 168.514C815.435 171.826 816.245 175.763 816.245 180.327V217.2H807.965L807.413 207.264C806.677 208.81 805.72 210.282 804.543 211.68C803.439 213.005 802.114 214.183 800.568 215.213C799.023 216.243 797.256 217.053 795.269 217.642C793.355 218.231 791.221 218.525 788.866 218.525ZM790.191 210.687C792.619 210.687 794.864 210.135 796.925 209.031C798.986 207.927 800.752 206.455 802.224 204.615C803.77 202.701 804.947 200.567 805.757 198.211C806.567 195.856 806.971 193.391 806.971 190.815V189.711H793.282C789.823 189.711 786.989 190.152 784.781 191.035C782.647 191.919 781.101 193.17 780.144 194.789C779.187 196.335 778.709 198.101 778.709 200.088C778.709 202.223 779.151 204.099 780.034 205.719C780.917 207.264 782.205 208.479 783.898 209.362C785.664 210.245 787.762 210.687 790.191 210.687ZM857.179 218.525C853.646 218.525 850.592 218.01 848.016 216.979C845.514 215.875 843.379 214.514 841.613 212.895C839.92 211.275 838.522 209.693 837.418 208.147L836.645 217.2H828.254V137.712H837.528V168.293C839.294 164.834 841.907 162.221 845.366 160.455C848.826 158.688 852.69 157.805 856.958 157.805C862.258 157.805 866.894 159.093 870.869 161.669C874.843 164.245 877.934 167.815 880.142 172.378C882.35 176.867 883.454 182.056 883.454 187.944C883.454 193.759 882.35 198.984 880.142 203.621C877.934 208.258 874.843 211.901 870.869 214.551C866.968 217.2 862.405 218.525 857.179 218.525ZM855.965 210.466C859.424 210.466 862.478 209.583 865.128 207.816C867.851 205.976 869.986 203.4 871.531 200.088C873.15 196.703 873.96 192.728 873.96 188.165C873.96 183.602 873.15 179.664 871.531 176.352C869.986 172.967 867.851 170.391 865.128 168.624C862.478 166.784 859.424 165.864 855.965 165.864C852.285 165.864 849.083 166.784 846.36 168.624C843.637 170.391 841.539 172.967 840.067 176.352C838.595 179.664 837.859 183.602 837.859 188.165C837.859 192.728 838.595 196.703 840.067 200.088C841.539 203.4 843.637 205.976 846.36 207.816C849.083 209.583 852.285 210.466 855.965 210.466ZM893.619 217.2V159.13H902.009L902.672 169.728C903.997 167.079 905.726 164.871 907.861 163.104C909.995 161.338 912.571 160.013 915.589 159.13C918.68 158.247 922.139 157.805 925.966 157.805V167.52H920.225C918.017 167.52 915.883 167.815 913.822 168.403C911.761 168.992 909.885 169.949 908.192 171.274C906.573 172.599 905.285 174.402 904.328 176.683C903.371 178.965 902.893 181.835 902.893 185.295V217.2H893.619ZM934.207 217.2V159.13H943.481V217.2H934.207ZM938.844 148.09C937.004 148.09 935.459 147.501 934.207 146.323C933.03 145.072 932.441 143.527 932.441 141.687C932.441 139.847 933.03 138.375 934.207 137.271C935.459 136.093 937.004 135.504 938.844 135.504C940.611 135.504 942.119 136.093 943.371 137.271C944.622 138.375 945.247 139.847 945.247 141.687C945.247 143.527 944.622 145.072 943.371 146.323C942.119 147.501 940.611 148.09 938.844 148.09ZM981.703 218.525C976.403 218.525 971.693 217.274 967.571 214.771C963.45 212.195 960.211 208.626 957.856 204.063C955.501 199.499 954.323 194.2 954.323 188.165C954.323 182.056 955.501 176.757 957.856 172.267C960.211 167.704 963.45 164.171 967.571 161.669C971.693 159.093 976.403 157.805 981.703 157.805C988.327 157.805 993.847 159.571 998.263 163.104C1002.75 166.637 1005.62 171.384 1006.87 177.346H997.38C996.57 173.666 994.693 170.832 991.749 168.845C988.879 166.784 985.493 165.754 981.592 165.754C978.207 165.754 975.152 166.6 972.429 168.293C969.779 169.986 967.682 172.488 966.136 175.8C964.591 179.112 963.818 183.234 963.818 188.165C963.818 191.845 964.259 195.12 965.143 197.991C966.026 200.787 967.24 203.143 968.786 205.056C970.405 206.896 972.282 208.295 974.416 209.251C976.624 210.208 979.016 210.687 981.592 210.687C984.242 210.687 986.634 210.245 988.768 209.362C990.976 208.405 992.816 207.043 994.288 205.277C995.834 203.511 996.864 201.413 997.38 198.984H1006.87C1005.7 204.799 1002.83 209.509 998.263 213.115C993.773 216.722 988.253 218.525 981.703 218.525ZM1051.16 217.2L1024.78 185.847L1049.62 159.13H1060.99L1032.61 189.159L1032.72 182.535L1062.97 217.2H1051.16ZM1017.05 217.2V137.712H1026.32V217.2H1017.05ZM1087.22 218.525C1081.99 218.525 1077.65 217.752 1074.19 216.207C1070.8 214.587 1068.23 212.379 1066.46 209.583C1064.69 206.712 1063.63 203.4 1063.26 199.647H1072.75C1073.05 201.634 1073.71 203.474 1074.74 205.167C1075.84 206.786 1077.43 208.111 1079.49 209.141C1081.55 210.171 1084.16 210.687 1087.33 210.687C1089.83 210.687 1091.96 210.319 1093.73 209.583C1095.5 208.773 1096.82 207.669 1097.7 206.271C1098.66 204.872 1099.14 203.253 1099.14 201.413C1099.14 198.984 1098.59 197.107 1097.48 195.783C1096.45 194.384 1094.91 193.354 1092.85 192.691C1090.86 191.955 1088.36 191.403 1085.34 191.035C1082.1 190.594 1079.23 189.968 1076.73 189.159C1074.23 188.349 1072.09 187.282 1070.32 185.957C1068.63 184.632 1067.34 182.976 1066.46 180.989C1065.58 179.002 1065.14 176.647 1065.14 173.923C1065.14 170.759 1065.98 167.962 1067.67 165.533C1069.37 163.104 1071.76 161.227 1074.85 159.903C1078.02 158.504 1081.73 157.805 1086 157.805C1092.26 157.805 1097.19 159.24 1100.79 162.111C1104.47 164.981 1106.65 169.066 1107.31 174.365H1098.15C1097.78 171.642 1096.53 169.507 1094.39 167.962C1092.26 166.416 1089.42 165.643 1085.89 165.643C1082.14 165.643 1079.3 166.343 1077.39 167.741C1075.48 169.139 1074.52 170.979 1074.52 173.261C1074.52 174.954 1074.92 176.499 1075.73 177.898C1076.62 179.223 1078.09 180.363 1080.15 181.32C1082.21 182.203 1084.97 182.866 1088.43 183.307C1092.77 183.823 1096.45 184.669 1099.47 185.847C1102.49 186.951 1104.77 188.68 1106.32 191.035C1107.93 193.391 1108.71 196.592 1108.63 200.64C1108.63 204.467 1107.71 207.706 1105.87 210.355C1104.11 213.005 1101.6 215.029 1098.37 216.427C1095.2 217.826 1091.48 218.525 1087.22 218.525ZM632.493 317.525C626.899 317.525 621.821 316.421 617.258 314.213C612.768 312.005 609.162 308.619 606.438 304.056C603.789 299.493 602.464 293.752 602.464 286.834V238.92H615.712V286.944C615.712 291.139 616.411 294.599 617.81 297.322C619.208 300.045 621.158 302.106 623.661 303.504C626.237 304.829 629.254 305.491 632.714 305.491C636.246 305.491 639.264 304.829 641.766 303.504C644.342 302.106 646.293 300.045 647.618 297.322C649.016 294.599 649.715 291.139 649.715 286.944V238.92H662.963V286.834C662.963 293.752 661.602 299.493 658.878 304.056C656.155 308.619 652.475 312.005 647.838 314.213C643.202 316.421 638.086 317.525 632.493 317.525ZM674.089 316.2V260.559H685.792L686.785 269.832C688.478 266.594 690.907 264.018 694.072 262.104C697.237 260.191 700.99 259.234 705.333 259.234C709.822 259.234 713.649 260.191 716.814 262.104C719.979 263.944 722.408 266.667 724.101 270.274C725.867 273.88 726.75 278.37 726.75 283.743V316.2H713.502V284.957C713.502 280.32 712.472 276.751 710.411 274.248C708.35 271.746 705.296 270.495 701.248 270.495C698.598 270.495 696.206 271.12 694.072 272.371C692.011 273.623 690.355 275.463 689.104 277.891C687.926 280.247 687.337 283.117 687.337 286.503V316.2H674.089ZM737.958 316.2V260.559H751.206V316.2H737.958ZM744.582 251.727C742.153 251.727 740.129 250.991 738.51 249.519C736.964 247.973 736.191 246.096 736.191 243.888C736.191 241.607 736.964 239.767 738.51 238.368C740.129 236.896 742.153 236.16 744.582 236.16C747.01 236.16 748.998 236.896 750.543 238.368C752.162 239.767 752.972 241.607 752.972 243.888C752.972 246.096 752.162 247.973 750.543 249.519C748.998 250.991 747.01 251.727 744.582 251.727ZM787.381 316.2C783.627 316.2 780.352 315.611 777.555 314.434C774.832 313.256 772.697 311.306 771.152 308.583C769.606 305.859 768.833 302.179 768.833 297.543V271.709H759.339V260.559H768.833L770.379 245.875H782.081V260.559H797.206V271.709H782.081V297.543C782.081 300.339 782.67 302.29 783.848 303.394C785.099 304.424 787.16 304.939 790.03 304.939H796.875V316.2H787.381ZM813.093 340.488L826.672 310.018H823.36L801.169 260.559H815.632L832.192 298.315L847.869 260.559H861.889L827.113 340.488H813.093ZM926.582 317.525C918.928 317.525 912.304 315.869 906.71 312.557C901.19 309.171 896.921 304.498 893.904 298.536C890.96 292.501 889.488 285.546 889.488 277.671C889.488 269.722 890.96 262.767 893.904 256.805C896.921 250.77 901.19 246.059 906.71 242.674C912.304 239.288 918.928 237.595 926.582 237.595C935.782 237.595 943.289 239.877 949.104 244.44C954.918 248.93 958.598 255.296 960.144 263.539H945.571C944.54 259.197 942.443 255.775 939.278 253.272C936.113 250.77 931.844 249.519 926.472 249.519C921.614 249.519 917.419 250.659 913.886 252.941C910.427 255.149 907.74 258.387 905.827 262.656C903.987 266.851 903.067 271.856 903.067 277.671C903.067 283.485 903.987 288.49 905.827 292.685C907.74 296.807 910.427 300.008 913.886 302.29C917.419 304.498 921.614 305.602 926.472 305.602C931.844 305.602 936.113 304.461 939.278 302.179C942.443 299.824 944.54 296.586 945.571 292.464H960.144C958.672 300.266 954.992 306.411 949.104 310.901C943.289 315.317 935.782 317.525 926.582 317.525ZM987.901 317.525C983.337 317.525 979.547 316.752 976.529 315.207C973.512 313.661 971.267 311.6 969.795 309.024C968.323 306.448 967.587 303.651 967.587 300.634C967.587 297.101 968.47 294.047 970.237 291.471C972.077 288.895 974.763 286.907 978.296 285.509C981.829 284.037 986.171 283.301 991.323 283.301H1005.34C1005.34 280.357 1004.94 277.928 1004.13 276.015C1003.32 274.027 1002.07 272.555 1000.38 271.599C998.683 270.642 996.512 270.163 993.862 270.163C990.845 270.163 988.269 270.863 986.134 272.261C984 273.586 982.675 275.647 982.16 278.443H969.133C969.574 274.469 970.899 271.083 973.107 268.287C975.315 265.416 978.222 263.208 981.829 261.663C985.509 260.043 989.52 259.234 993.862 259.234C999.088 259.234 1003.54 260.154 1007.22 261.994C1010.9 263.76 1013.7 266.336 1015.61 269.722C1017.6 273.034 1018.59 277.045 1018.59 281.755V316.2H1007.33L1006.01 307.258C1005.27 308.73 1004.31 310.091 1003.14 311.343C1002.03 312.594 1000.74 313.698 999.272 314.655C997.8 315.538 996.107 316.237 994.193 316.752C992.353 317.267 990.256 317.525 987.901 317.525ZM990.881 307.037C993.016 307.037 994.893 306.669 996.512 305.933C998.205 305.123 999.64 304.019 1000.82 302.621C1002.07 301.149 1003.03 299.53 1003.69 297.763C1004.35 295.997 1004.79 294.12 1005.01 292.133V291.912H992.758C990.182 291.912 988.048 292.243 986.355 292.906C984.662 293.495 983.448 294.378 982.712 295.555C981.976 296.733 981.608 298.095 981.608 299.64C981.608 301.186 981.976 302.511 982.712 303.615C983.448 304.719 984.515 305.565 985.913 306.154C987.312 306.743 988.968 307.037 990.881 307.037ZM1052.75 316.2C1049 316.2 1045.72 315.611 1042.92 314.434C1040.2 313.256 1038.07 311.306 1036.52 308.583C1034.98 305.859 1034.2 302.179 1034.2 297.543V271.709H1024.71V260.559H1034.2L1035.75 245.875H1047.45V260.559H1062.58V271.709H1047.45V297.543C1047.45 300.339 1048.04 302.29 1049.22 303.394C1050.47 304.424 1052.53 304.939 1055.4 304.939H1062.24V316.2H1052.75ZM1090.28 317.525C1085.71 317.525 1081.92 316.752 1078.9 315.207C1075.89 313.661 1073.64 311.6 1072.17 309.024C1070.7 306.448 1069.96 303.651 1069.96 300.634C1069.96 297.101 1070.84 294.047 1072.61 291.471C1074.45 288.895 1077.14 286.907 1080.67 285.509C1084.2 284.037 1088.55 283.301 1093.7 283.301H1107.72C1107.72 280.357 1107.31 277.928 1106.5 276.015C1105.69 274.027 1104.44 272.555 1102.75 271.599C1101.06 270.642 1098.89 270.163 1096.24 270.163C1093.22 270.163 1090.64 270.863 1088.51 272.261C1086.37 273.586 1085.05 275.647 1084.53 278.443H1071.51C1071.95 274.469 1073.27 271.083 1075.48 268.287C1077.69 265.416 1080.6 263.208 1084.2 261.663C1087.88 260.043 1091.89 259.234 1096.24 259.234C1101.46 259.234 1105.92 260.154 1109.6 261.994C1113.28 263.76 1116.07 266.336 1117.99 269.722C1119.97 273.034 1120.97 277.045 1120.97 281.755V316.2H1109.71L1108.38 307.258C1107.64 308.73 1106.69 310.091 1105.51 311.343C1104.41 312.594 1103.12 313.698 1101.65 314.655C1100.17 315.538 1098.48 316.237 1096.57 316.752C1094.73 317.267 1092.63 317.525 1090.28 317.525ZM1093.26 307.037C1095.39 307.037 1097.27 306.669 1098.89 305.933C1100.58 305.123 1102.01 304.019 1103.19 302.621C1104.44 301.149 1105.4 299.53 1106.06 297.763C1106.72 295.997 1107.17 294.12 1107.39 292.133V291.912H1095.13C1092.56 291.912 1090.42 292.243 1088.73 292.906C1087.04 293.495 1085.82 294.378 1085.09 295.555C1084.35 296.733 1083.98 298.095 1083.98 299.64C1083.98 301.186 1084.35 302.511 1085.09 303.615C1085.82 304.719 1086.89 305.565 1088.29 306.154C1089.69 306.743 1091.34 307.037 1093.26 307.037ZM1131.81 316.2V236.712H1145.06V316.2H1131.81ZM1182.47 317.525C1177.17 317.525 1172.39 316.311 1168.12 313.882C1163.93 311.379 1160.61 307.957 1158.18 303.615C1155.83 299.199 1154.65 294.157 1154.65 288.49C1154.65 282.675 1155.87 277.597 1158.3 273.255C1160.72 268.839 1164.04 265.416 1168.23 262.987C1172.5 260.485 1177.28 259.234 1182.58 259.234C1187.88 259.234 1192.63 260.485 1196.82 262.987C1201.09 265.416 1204.41 268.802 1206.76 273.144C1209.19 277.487 1210.4 282.565 1210.4 288.379C1210.4 294.194 1209.19 299.272 1206.76 303.615C1204.33 307.957 1200.98 311.379 1196.71 313.882C1192.52 316.311 1187.77 317.525 1182.47 317.525ZM1182.47 306.154C1185.12 306.154 1187.51 305.491 1189.65 304.167C1191.86 302.842 1193.62 300.855 1194.95 298.205C1196.27 295.555 1196.94 292.28 1196.94 288.379C1196.94 284.479 1196.27 281.24 1194.95 278.664C1193.7 276.015 1191.97 274.027 1189.76 272.703C1187.62 271.378 1185.23 270.715 1182.58 270.715C1180.01 270.715 1177.62 271.378 1175.41 272.703C1173.2 274.027 1171.43 276.015 1170.11 278.664C1168.78 281.24 1168.12 284.479 1168.12 288.379C1168.12 292.28 1168.78 295.555 1170.11 298.205C1171.43 300.855 1173.16 302.842 1175.3 304.167C1177.5 305.491 1179.9 306.154 1182.47 306.154ZM1240.23 341.813C1235.01 341.813 1230.41 341.151 1226.43 339.826C1222.53 338.575 1219.48 336.624 1217.27 333.975C1215.13 331.399 1214.07 328.16 1214.07 324.259C1214.07 321.978 1214.62 319.733 1215.72 317.525C1216.9 315.391 1218.63 313.403 1220.91 311.563C1223.27 309.65 1226.25 307.994 1229.85 306.595L1235.7 312.999C1232.17 314.25 1229.71 315.759 1228.31 317.525C1226.91 319.291 1226.21 321.095 1226.21 322.935C1226.21 324.848 1226.8 326.431 1227.98 327.682C1229.23 329.007 1230.88 330 1232.94 330.663C1235.08 331.325 1237.47 331.656 1240.12 331.656C1242.7 331.656 1244.94 331.288 1246.86 330.552C1248.77 329.89 1250.24 328.933 1251.27 327.682C1252.38 326.431 1252.93 324.922 1252.93 323.155C1252.93 320.947 1252.15 319.144 1250.61 317.746C1249.06 316.421 1246.01 315.611 1241.45 315.317C1237.54 315.023 1234.12 314.618 1231.18 314.103C1228.23 313.514 1225.7 312.851 1223.56 312.115C1221.5 311.379 1219.73 310.57 1218.26 309.687C1216.79 308.73 1215.58 307.773 1214.62 306.816V304.277L1226.21 292.133L1236.04 295.335L1223.01 308.031L1226.43 301.627C1227.17 302.143 1227.9 302.621 1228.64 303.063C1229.45 303.504 1230.44 303.909 1231.62 304.277C1232.87 304.571 1234.49 304.866 1236.48 305.16C1238.46 305.455 1241.04 305.749 1244.21 306.043C1249.14 306.411 1253.15 307.295 1256.24 308.693C1259.33 310.091 1261.61 311.968 1263.08 314.323C1264.56 316.679 1265.29 319.512 1265.29 322.824C1265.29 326.063 1264.37 329.117 1262.53 331.987C1260.77 334.858 1258.04 337.213 1254.36 339.053C1250.68 340.893 1245.97 341.813 1240.23 341.813ZM1240.23 299.53C1235.59 299.53 1231.58 298.647 1228.2 296.88C1224.89 295.04 1222.35 292.611 1220.58 289.594C1218.81 286.503 1217.93 283.117 1217.93 279.437C1217.93 275.683 1218.81 272.298 1220.58 269.28C1222.35 266.263 1224.89 263.834 1228.2 261.994C1231.58 260.154 1235.59 259.234 1240.23 259.234C1244.87 259.234 1248.84 260.154 1252.15 261.994C1255.47 263.834 1258.01 266.263 1259.77 269.28C1261.54 272.298 1262.42 275.683 1262.42 279.437C1262.42 283.117 1261.54 286.503 1259.77 289.594C1258.01 292.611 1255.47 295.04 1252.15 296.88C1248.84 298.647 1244.87 299.53 1240.23 299.53ZM1240.23 289.263C1243.4 289.263 1245.94 288.416 1247.85 286.723C1249.76 285.031 1250.72 282.602 1250.72 279.437C1250.72 276.272 1249.76 273.88 1247.85 272.261C1245.94 270.568 1243.4 269.722 1240.23 269.722C1237.07 269.722 1234.49 270.568 1232.5 272.261C1230.52 273.88 1229.52 276.272 1229.52 279.437C1229.52 282.602 1230.52 285.031 1232.5 286.723C1234.49 288.416 1237.07 289.263 1240.23 289.263ZM1249.39 270.274L1246.86 260.559H1269.71V268.839L1249.39 270.274Z" fill="#1B3139"/>
<defs>
<filter id="filter0_dddddd_1119_14834" x="0.639999" y="0.119995" width="723.118" height="723.12" filterUnits="userSpaceOnUse" color-interpolation-filters="sRGB">
<feFlood flood-opacity="0" result="BackgroundImageFix"/>
<feColorMatrix in="SourceAlpha" type="matrix" values="0 0 0 0 0 0 0 0 0 0 0 0 0 0 0 0 0 0 127 0" result="hardAlpha"/>
<feOffset dy="3.68"/>
<feGaussianBlur stdDeviation="2.76"/>
<feColorMatrix type="matrix" values="0 0 0 0 0.105882 0 0 0 0 0.192157 0 0 0 0 0.223529 0 0 0 0.0196802 0"/>
<feBlend mode="normal" in2="BackgroundImageFix" result="effect1_dropShadow_1119_14834"/>
<feColorMatrix in="SourceAlpha" type="matrix" values="0 0 0 0 0 0 0 0 0 0 0 0 0 0 0 0 0 0 127 0" result="hardAlpha"/>
<feOffset dy="7.36"/>
<feGaussianBlur stdDeviation="7.36"/>
<feColorMatrix type="matrix" values="0 0 0 0 0.105882 0 0 0 0 0.192157 0 0 0 0 0.223529 0 0 0 0.04 0"/>
<feBlend mode="normal" in2="effect1_dropShadow_1119_14834" result="effect2_dropShadow_1119_14834"/>
<feColorMatrix in="SourceAlpha" type="matrix" values="0 0 0 0 0 0 0 0 0 0 0 0 0 0 0 0 0 0 127 0" result="hardAlpha"/>
<feOffset dy="16.56"/>
<feGaussianBlur stdDeviation="11.96"/>
<feColorMatrix type="matrix" values="0 0 0 0 0.105882 0 0 0 0 0.192157 0 0 0 0 0.223529 0 0 0 0.035 0"/>
<feBlend mode="normal" in2="effect2_dropShadow_1119_14834" result="effect3_dropShadow_1119_14834"/>
<feColorMatrix in="SourceAlpha" type="matrix" values="0 0 0 0 0 0 0 0 0 0 0 0 0 0 0 0 0 0 127 0" result="hardAlpha"/>
<feOffset dy="29.44"/>
<feGaussianBlur stdDeviation="22.08"/>
<feColorMatrix type="matrix" values="0 0 0 0 0.105882 0 0 0 0 0.192157 0 0 0 0 0.223529 0 0 0 0.04 0"/>
<feBlend mode="normal" in2="effect3_dropShadow_1119_14834" result="effect4_dropShadow_1119_14834"/>
<feColorMatrix in="SourceAlpha" type="matrix" values="0 0 0 0 0 0 0 0 0 0 0 0 0 0 0 0 0 0 127 0" result="hardAlpha"/>
<feOffset dy="58.88"/>
<feGaussianBlur stdDeviation="36.8"/>
<feColorMatrix type="matrix" values="0 0 0 0 0.105882 0 0 0 0 0.192157 0 0 0 0 0.223529 0 0 0 0.0503198 0"/>
<feBlend mode="normal" in2="effect4_dropShadow_1119_14834" result="effect5_dropShadow_1119_14834"/>
<feColorMatrix in="SourceAlpha" type="matrix" values="0 0 0 0 0 0 0 0 0 0 0 0 0 0 0 0 0 0 127 0" result="hardAlpha"/>
<feOffset dy="132.48"/>
<feGaussianBlur stdDeviation="95.68"/>
<feColorMatrix type="matrix" values="0 0 0 0 0.105882 0 0 0 0 0.192157 0 0 0 0 0.223529 0 0 0 0.07 0"/>
<feBlend mode="normal" in2="effect5_dropShadow_1119_14834" result="effect6_dropShadow_1119_14834"/>
<feBlend mode="normal" in="SourceGraphic" in2="effect6_dropShadow_1119_14834" result="shape"/>
</filter>
</defs>
</svg>
