<svg width="150" height="150" viewBox="0 0 150 150" fill="none" xmlns="http://www.w3.org/2000/svg">
<g clip-path="url(#clip0_1_2263)">
<path d="M74.98 90.52V112.68" stroke="#1B3139" stroke-width="3" stroke-miterlimit="3" stroke-linecap="square"/>
<path d="M74.98 36.28V45.28" stroke="#1B3139" stroke-width="3" stroke-miterlimit="3" stroke-linecap="square"/>
<path d="M74.98 36.2799C72.27 36.2799 69.63 35.3599 67.52 33.6599C65.41 31.9599 63.94 29.5999 63.37 26.9599C62.8 24.3199 63.15 21.5599 64.38 19.1499C65.6 16.7399 67.62 14.8199 70.09 13.7099C72.56 12.5999 75.35 12.3699 77.97 13.0499C80.6 13.7299 82.91 15.2899 84.52 17.4699C86.13 19.6499 86.94 22.2999 86.82 24.9999C86.7 27.6999 85.65 30.2699 83.85 32.2999" stroke="#1B3139" stroke-width="3" stroke-miterlimit="3" stroke-linecap="square"/>
<path d="M74.98 112.68C77.69 112.68 80.33 113.6 82.44 115.29C84.55 116.98 86.02 119.35 86.6 121.99C87.17 124.63 86.82 127.39 85.6 129.8C84.38 132.21 82.36 134.14 79.89 135.25C77.42 136.36 74.63 136.6 72.01 135.91C69.38 135.23 67.07 133.67 65.46 131.49C63.85 129.31 63.04 126.66 63.16 123.96C63.28 121.26 64.33 118.68 66.13 116.66" stroke="#1B3139" stroke-width="3" stroke-miterlimit="3" stroke-linecap="square"/>
<path d="M41.75 55.3799L54.92 62.9499" stroke="#1B3139" stroke-width="3" stroke-miterlimit="3" stroke-linecap="square"/>
<path d="M41.75 55.3801C40.39 57.7101 38.28 59.5101 35.75 60.4801C33.22 61.4501 30.44 61.5201 27.86 60.6901C25.28 59.8601 23.07 58.1801 21.59 55.9201C20.11 53.6601 19.45 50.9701 19.72 48.2901C19.99 45.6101 21.18 43.1001 23.09 41.1901C25 39.2801 27.5 38.0701 30.19 37.7701C32.88 37.4701 35.59 38.1001 37.87 39.5501C40.15 41.0001 41.86 43.1901 42.72 45.7401" stroke="#1B3139" stroke-width="3" stroke-miterlimit="3" stroke-linecap="square"/>
<path d="M95.24 88.2701L108.21 93.5701C109.56 91.2301 111.72 89.4301 114.25 88.4501C116.78 87.4801 119.57 87.4001 122.15 88.2301C124.73 89.0601 126.95 90.7401 128.43 93.0001C129.91 95.2601 130.58 97.9501 130.31 100.64C130.04 103.33 128.85 105.84 126.95 107.76C125.04 109.68 122.54 110.89 119.84 111.19C117.15 111.49 114.43 110.86 112.15 109.41C109.86 107.96 108.15 105.77 107.29 103.21" stroke="#1B3139" stroke-width="3" stroke-miterlimit="3" stroke-linecap="square"/>
<path d="M95.02 62.9499L108.2 55.3799" stroke="#1B3139" stroke-width="3" stroke-miterlimit="3" stroke-linecap="square"/>
<path d="M41.75 93.58L50.57 88.51" stroke="#1B3139" stroke-width="3" stroke-miterlimit="3" stroke-linecap="square"/>
<path d="M41.75 93.58C43.11 95.92 43.62 98.65 43.2 101.31C42.78 103.98 41.45 106.42 39.44 108.23C37.43 110.04 34.86 111.11 32.15 111.26C29.44 111.41 26.77 110.63 24.57 109.05C22.37 107.47 20.78 105.19 20.06 102.59C19.34 99.99 19.55 97.22 20.64 94.75C21.73 92.28 23.63 90.25 26.04 89.01C28.45 87.77 31.21 87.38 33.87 87.92" stroke="#1B3139" stroke-width="3" stroke-miterlimit="3" stroke-linecap="square"/>
<path d="M108.24 55.3801C107.07 53.3601 106.52 51.04 106.67 48.71C106.82 46.38 107.66 44.15 109.09 42.3C110.52 40.45 112.46 39.0601 114.68 38.3101C116.9 37.5601 119.29 37.4801 121.56 38.0801C123.82 38.6801 125.86 39.94 127.4 41.7C128.95 43.45 129.93 45.63 130.24 47.94C130.55 50.25 130.16 52.6101 129.12 54.7001C128.08 56.7901 126.45 58.5301 124.42 59.7001C121.92 61.1501 118.97 61.6301 116.14 61.0401" stroke="#1B3139" stroke-width="3" stroke-miterlimit="3" stroke-linecap="square"/>
<path d="M75 87.67H98.91C105.46 87.67 110.76 82.36 110.76 75.82C110.76 69.28 105.45 63.97 98.91 63.97H94.71C94.15 53.55 85.54 45.28 74.98 45.28C64.42 45.28 55.81 53.55 55.25 63.97H51.05C44.5 63.97 39.2 69.28 39.2 75.82C39.2 82.36 44.51 87.67 51.05 87.67H64.75" stroke="#1B3139" stroke-width="3" stroke-miterlimit="3" stroke-linecap="square"/>
</g>
<defs>
<clipPath id="clip0_1_2263">
<rect width="150" height="150" fill="white"/>
</clipPath>
</defs>
</svg>
