<svg width="150" height="150" viewBox="0 0 150 150" fill="none" xmlns="http://www.w3.org/2000/svg">
<g clip-path="url(#clip0_5483_2165)">
<path d="M74.98 90.52V112.68" stroke="#FF5F46" stroke-width="3" stroke-miterlimit="3" stroke-linecap="square"/>
<path d="M74.98 36.2798V45.2798" stroke="#FF5F46" stroke-width="3" stroke-miterlimit="3" stroke-linecap="square"/>
<path d="M74.98 36.2802C72.27 36.2802 69.6299 35.3602 67.5199 33.6602C65.4099 31.9602 63.9399 29.6002 63.3699 26.9602C62.7999 24.3202 63.1499 21.5602 64.3799 19.1502C65.5999 16.7402 67.6199 14.8202 70.0899 13.7102C72.5599 12.6002 75.3499 12.3702 77.9699 13.0502C80.5999 13.7302 82.9099 15.2902 84.5199 17.4702C86.1299 19.6502 86.9399 22.3002 86.8199 25.0002C86.6999 27.7002 85.6499 30.2702 83.8499 32.3002" stroke="#FF5F46" stroke-width="3" stroke-miterlimit="3" stroke-linecap="square"/>
<path d="M74.98 112.68C77.69 112.68 80.33 113.6 82.44 115.29C84.55 116.98 86.02 119.35 86.6 121.99C87.17 124.63 86.82 127.39 85.6 129.8C84.38 132.21 82.36 134.14 79.89 135.25C77.42 136.36 74.63 136.6 72.01 135.91C69.38 135.23 67.07 133.67 65.46 131.49C63.85 129.31 63.04 126.66 63.16 123.96C63.28 121.26 64.33 118.68 66.13 116.66" stroke="#FF5F46" stroke-width="3" stroke-miterlimit="3" stroke-linecap="square"/>
<path d="M41.75 55.3799L54.92 62.9499" stroke="#FF5F46" stroke-width="3" stroke-miterlimit="3" stroke-linecap="square"/>
<path d="M41.75 55.3798C40.39 57.7098 38.28 59.5098 35.75 60.4798C33.22 61.4498 30.44 61.5198 27.86 60.6898C25.28 59.8598 23.07 58.1798 21.59 55.9198C20.11 53.6598 19.45 50.9698 19.72 48.2898C19.99 45.6098 21.18 43.0998 23.09 41.1898C25 39.2798 27.5 38.0698 30.19 37.7698C32.88 37.4698 35.59 38.0998 37.87 39.5498C40.15 40.9998 41.86 43.1898 42.72 45.7398" stroke="#FF5F46" stroke-width="3" stroke-miterlimit="3" stroke-linecap="square"/>
<path d="M95.24 88.2698L108.21 93.5698C109.56 91.2298 111.72 89.4298 114.25 88.4498C116.78 87.4798 119.57 87.3998 122.15 88.2298C124.73 89.0598 126.95 90.7398 128.43 92.9998C129.91 95.2598 130.58 97.9498 130.31 100.64C130.04 103.33 128.85 105.84 126.95 107.76C125.04 109.68 122.54 110.89 119.84 111.19C117.15 111.49 114.43 110.86 112.15 109.41C109.86 107.96 108.15 105.77 107.29 103.21" stroke="#FF5F46" stroke-width="3" stroke-miterlimit="3" stroke-linecap="square"/>
<path d="M95.02 62.9499L108.2 55.3799" stroke="#FF5F46" stroke-width="3" stroke-miterlimit="3" stroke-linecap="square"/>
<path d="M41.75 93.5798L50.57 88.5098" stroke="#FF5F46" stroke-width="3" stroke-miterlimit="3" stroke-linecap="square"/>
<path d="M41.75 93.5798C43.11 95.9198 43.6201 98.6498 43.2001 101.31C42.7801 103.98 41.45 106.42 39.44 108.23C37.43 110.04 34.8601 111.11 32.1501 111.26C29.4401 111.41 26.77 110.63 24.57 109.05C22.37 107.47 20.78 105.19 20.06 102.59C19.34 99.9898 19.55 97.2198 20.64 94.7498C21.73 92.2798 23.6301 90.2498 26.0401 89.0098C28.4501 87.7698 31.21 87.3798 33.87 87.9198" stroke="#FF5F46" stroke-width="3" stroke-miterlimit="3" stroke-linecap="square"/>
<path d="M108.24 55.3801C107.07 53.3601 106.52 51.04 106.67 48.71C106.82 46.38 107.66 44.15 109.09 42.3C110.52 40.45 112.46 39.0601 114.68 38.3101C116.9 37.5601 119.29 37.4801 121.56 38.0801C123.82 38.6801 125.86 39.94 127.4 41.7C128.95 43.45 129.93 45.63 130.24 47.94C130.55 50.25 130.16 52.6101 129.12 54.7001C128.08 56.7901 126.45 58.5301 124.42 59.7001C121.92 61.1501 118.97 61.6301 116.14 61.0401" stroke="#FF5F46" stroke-width="3" stroke-miterlimit="3" stroke-linecap="square"/>
<path d="M75 87.6698H98.91C105.46 87.6698 110.76 82.3598 110.76 75.8198C110.76 69.2798 105.45 63.9698 98.91 63.9698H94.7099C94.1499 53.5498 85.54 45.2798 74.98 45.2798C64.42 45.2798 55.81 53.5498 55.25 63.9698H51.0499C44.4999 63.9698 39.2 69.2798 39.2 75.8198C39.2 82.3598 44.5099 87.6698 51.0499 87.6698H64.75" stroke="#FF5F46" stroke-width="3" stroke-miterlimit="3" stroke-linecap="square"/>
</g>
<defs>
<clipPath id="clip0_5483_2165">
<rect width="150" height="150" fill="white"/>
</clipPath>
</defs>
</svg>
