<?xml version="1.0" encoding="UTF-8"?>
<svg xmlns="http://www.w3.org/2000/svg" version="1.1" viewBox="0 0 3006 738.6">
  <defs>
    <style>
      .cls-1 {
        fill: #ff3621;
      }

      .cls-2 {
        fill: #f2f2f2;
      }
    </style>
  </defs>
  <!-- Generator: Adobe Illustrator 28.7.1, SVG Export Plug-In . SVG Version: 1.2.0 Build 142)  -->
  <g>
    <g id="Layer_1">
      <g id="logo">
        <g>
          <g>
            <path class="cls-1" d="M419.3,199.2l-196.2,110.7L13.1,191.6l-10.1,5.5v85.9l220.1,123.8,196.2-110.3v45.5l-196.2,110.7L13.1,334.3l-10.1,5.5v14.7l220.1,123.8,219.7-123.8v-85.9l-10.1-5.5-209.6,117.9L26.6,270.7v-45.5l196.6,110.3,219.7-123.8v-84.6l-10.9-6.3-208.8,117.4L36.7,133.9,223.1,29.1l153.2,86.3,13.5-7.6v-10.5L223.1,3.4,3,127.2v13.5l220.1,123.8,196.2-110.7v45.5h0Z"/>
            <g>
              <path class="cls-2" d="M854.1,408V30h-58.1v141.4c0,2.1-1.3,3.8-3.4,4.6-2.1.8-4.2,0-5.5-1.3-19.8-23.2-50.5-36.2-84.2-36.2-72,0-128.4,60.6-128.4,138.1s13,72.8,37,98.5c24,25.7,56.4,39.6,91.3,39.6s64-13.9,84.2-37.9c1.3-1.7,3.8-2.1,5.5-1.7,2.1.8,3.4,2.5,3.4,4.6v28.2h58.1ZM715.6,362.1c-46.3,0-82.5-37.5-82.5-85.5s36.2-85.4,82.5-85.4,82.5,37.5,82.5,85.4-36.2,85.5-82.5,85.5Z"/>
              <path class="cls-2" d="M1164.8,408V144.9h-57.7v26.5c0,2.1-1.3,3.8-3.4,4.6-2.1.8-4.2,0-5.5-1.7-19.4-23.2-49.7-36.2-84.2-36.2-72,0-128.4,60.6-128.4,138.1s56.4,138.1,128.4,138.1,64-13.9,84.2-38.3c1.3-1.7,3.8-2.1,5.5-1.7,2.1.8,3.4,2.5,3.4,4.6v28.6h57.7v.4h0ZM1027.1,362.1c-46.3,0-82.5-37.5-82.5-85.4s36.2-85.4,82.5-85.4,82.5,37.5,82.5,85.4-36.2,85.4-82.5,85.4Z"/>
              <path class="cls-2" d="M1658.5,408V144.9h-57.7v26.5c0,2.1-1.3,3.8-3.4,4.6-2.1.8-4.2,0-5.5-1.7-19.4-23.2-49.7-36.2-84.2-36.2-72.4,0-128.4,60.6-128.4,138.5s56.4,138.1,128.4,138.1,64-13.9,84.2-38.3c1.3-1.7,3.8-2.1,5.5-1.7,2.1.8,3.4,2.5,3.4,4.6v28.6h57.7ZM1520.9,362.1c-46.3,0-82.5-37.5-82.5-85.4s36.2-85.4,82.5-85.4,82.5,37.5,82.5,85.4-36.2,85.4-82.5,85.4Z"/>
              <path class="cls-2" d="M1764.2,376.8c.4,0,1.2-.4,1.7-.4,1.2,0,2.9.8,3.8,1.7,19.8,23.2,50.5,36.2,84.2,36.2,72,0,128.4-60.6,128.4-138.1s-13-72.8-37-98.5c-24-25.7-56.4-39.6-91.3-39.6s-64,13.9-84.2,37.9c-1.3,1.7-3.4,2.1-5.5,1.7-2.1-.8-3.4-2.5-3.4-4.6V30h-58.1v378h58.1v-26.5c0-2.1,1.2-3.8,3.4-4.6ZM1758.3,276.6c0-48,36.2-85.4,82.5-85.4s82.5,37.5,82.5,85.4-36.2,85.5-82.5,85.5-82.5-37.9-82.5-85.5Z"/>
              <path class="cls-2" d="M2150.2,198.8c5.5,0,10.5.4,13.9,1.3v-59.8c-2.1-.4-5.9-.8-9.7-.8-30.3,0-58.1,15.6-72.8,40.4-1.2,2.1-3.3,2.9-5.5,2.1-2.1-.4-3.8-2.5-3.8-4.6v-32.4h-57.7v263.5h58.1v-116.2c0-57.7,29.5-93.4,77.5-93.4Z"/>
              <path class="cls-2" d="M2259.6,144.9h-58.9v263.5h58.9V144.9Z"/>
              <path class="cls-2" d="M2229.3,30.4c-19.8,0-35.8,16-35.8,35.8s16,35.8,35.8,35.8,35.8-16,35.8-35.8-16-35.8-35.8-35.8Z"/>
              <path class="cls-2" d="M2432.2,138.1c-80.8,0-139.3,58.1-139.3,138.5s13.9,74.1,38.7,99.3c25.2,25.3,60.6,39.1,100.2,39.1s58.1-6.3,106.1-41.7l-33.3-34.9c-23.6,15.6-45.5,23.2-66.9,23.2-48.8,0-85.5-36.6-85.5-85s36.6-85,85.5-85,44.6,7.6,66.1,23.2l37-34.9c-43.3-37-82.5-41.7-108.6-41.7h0Z"/>
              <path class="cls-2" d="M2640.2,292.2c.8-.8,2.1-1.3,3.4-1.3h.4c1.3,0,2.5.8,3.8,1.7l93,115.3h71.6l-120.4-145.6c-1.7-2.1-1.7-5,.4-6.7l110.7-110.7h-71.1l-95.5,96c-1.3,1.3-3.4,1.7-5.5,1.3-1.7-.8-3-2.5-3-4.6V30.4h-58.5v378h58.1v-102.7c0-1.3.4-2.9,1.7-3.8l10.9-9.7h0Z"/>
              <path class="cls-2" d="M2907,414.7c47.6,0,96-29,96-84.2s-22.7-61-69-76.2l-31.6-10.5c-21.5-7.2-31.6-17.3-31.6-31.1s14.3-26.9,34.5-26.9,36.6,12.6,47.6,34.5l46.7-25.3c-17.3-35.4-53-57.2-94.3-57.2s-90.1,33.7-90.1,79.6,21.9,61,66.9,75.3l32.4,10.5c22.7,7.2,32.4,16.4,32.4,31.1,0,22.3-20.6,30.3-38.3,30.3s-44.6-15.2-54.7-40l-47.6,25.3c15.6,40,53.9,64.8,100.6,64.8h0Z"/>
              <path class="cls-2" d="M1326.4,412.2c18.5,0,34.9-1.7,44.2-2.9v-50.5c-7.6.8-21,1.7-29,1.7-23.6,0-41.7-4.2-41.7-55.1v-108.2c0-2.9,2.1-5.1,5-5.1h56.8v-47.6h-56.8c-2.9,0-5-2.1-5-5V63.6h-58.1v76.2c0,2.9-2.1,5.1-5.1,5.1h-40.4v47.6h40.4c2.9,0,5.1,2.1,5.1,5v122.5c0,92.2,61.5,92.2,84.6,92.2h0Z"/>
            </g>
          </g>
          <g>
            <g>
              <g>
                <path class="cls-1" d="M1348,575.9c0,1.4-.8,2.5-2.2,3-1.4.6-2.8,0-3.6-1.1-12.7-15.2-32.5-23.7-55.1-23.7-47.4,0-84.1,39.7-84.1,90.7s36.9,90.4,84.1,90.4,41.9-9.1,55.1-25.1c.8-1.1,2.5-1.4,3.6-1.1,1.4.6,2.2,1.7,2.2,3v18.7h37.8v-172.3h-37.8v17.4h0ZM1295.6,700.8c-30.3,0-54-24.5-54-56s23.7-56,54-56,54,24.5,54,56-23.7,56-54,56Z"/>
                <rect class="cls-1" x="1414.7" y="558.6" width="38.6" height="172.6"/>
                <path class="cls-1" d="M1434,483.6c-13,0-23.4,10.5-23.4,23.4s10.5,23.4,23.4,23.4,23.4-10.5,23.4-23.4-10.5-23.4-23.4-23.4Z"/>
              </g>
              <g>
                <path class="cls-2" d="M1136.5,630.2l-20.7-6.9c-14.1-4.7-20.7-11.3-20.7-20.4s9.4-17.6,22.6-17.6,24,8.3,31.2,22.6l30.6-16.5c-11.3-23.2-34.7-37.5-61.8-37.5s-59,22.1-59,52.1,14.3,40,43.8,49.4l21.2,6.9c14.9,4.7,21.2,10.8,21.2,20.4,0,14.6-13.5,19.9-25.1,19.9s-29.2-9.9-35.8-26.2l-31.2,16.5c10.2,26.2,35.3,42.5,65.9,42.5s62.9-19,62.9-55.1-14.9-40-45.2-49.9h0Z"/>
                <path class="cls-2" d="M945.3,554.4c-52.9,0-92.2,37.5-92.2,90.4s39.3,90.4,92.2,90.4,92.2-37.5,92.2-90.4-39.3-90.4-92.2-90.4h0ZM945.3,700.8c-29.9,0-52.5-21.6-52.5-55.9s22.2-55.9,52.5-55.9,52.5,21.6,52.5,55.9-22.5,55.9-52.5,55.9Z"/>
                <path class="cls-2" d="M770.4,554.1c-27.4,0-44.2,15.6-50.9,26.9-1.2,2-4.1,1.9-5.1-.1-6-11.5-20.9-26.8-46.7-26.8s-36.3,12.9-43.6,23.5c-1.6,2.4-5.4,1.2-5.4-1.7v-17.9s-37.8,0-37.8,0v173.2h37.8v-96.1c0-9.9,1.6-18.3,4.7-25.2,3.1-6.9,7.5-12.1,13.1-15.7,5.6-3.6,11.8-5.4,18.7-5.4,10.9,0,19.1,3.6,24.6,10.8,5.5,7.2,8.2,17.5,8.2,31v100.5h37.5v-96.1c0-9.9,1.6-18.3,4.7-25.2,3.1-6.9,7.5-12.1,13.1-15.7,5.6-3.6,12-5.4,19.4-5.4,10.7,0,18.8,3.6,24.2,10.8,5.5,7.2,8.2,17.5,8.2,31v100.5h37.5v-106.7c0-52.5-29.5-70.3-62-70.3Z"/>
                <path class="cls-2" d="M1569.9,700.5c-32,0-56-24-56-55.7s24-55.7,56-55.7,29.2,5,43.3,15.2l24.3-22.9c-28.4-24.3-54-27.3-71.1-27.3-52.9,0-91.3,38-91.3,90.7s9.1,48.5,25.4,65.1c16.5,16.5,39.7,25.6,65.6,25.6s38-4.1,69.5-27.3l-21.8-22.9c-15.4,10.2-29.8,15.2-43.8,15.2Z"/>
              </g>
            </g>
            <g>
              <path class="cls-2" d="M2531.2,730.9v-172.3h-37.8v17.4c0,1.4-.8,2.5-2.2,3-1.4.6-2.8,0-3.6-1.1-12.7-15.2-32.5-23.7-55.1-23.7-47.4,0-84.1,39.7-84.1,90.7s36.9,90.4,84.1,90.4,41.9-9.1,55.1-25.1c.8-1.1,2.5-1.4,3.6-1.1,1.4.6,2.2,1.7,2.2,3v18.7h37.8ZM2441,700.8c-30.3,0-54-24.5-54-56s23.7-56,54-56,54,24.5,54,56-23.7,56-54,56Z"/>
              <path class="cls-2" d="M1817,593.8c3.6,0,6.9.3,9.1.8v-39.2c-1.4-.3-3.9-.6-6.3-.6-19.8,0-38,10.2-47.7,26.5-.8,1.4-2.2,1.9-3.6,1.4-1.4-.3-2.5-1.7-2.5-3v-21.2h-37.8v172.6h38v-76.1c0-37.8,19.3-61.2,50.7-61.2h0Z"/>
              <path class="cls-2" d="M2648.9,593.8c3.6,0,6.9.3,9.1.8v-39.2c-1.4-.3-3.9-.6-6.3-.6-19.8,0-38,10.2-47.7,26.5-.8,1.4-2.2,1.9-3.6,1.4-1.4-.3-2.5-1.7-2.5-3v-21.2h-37.8v172.6h38v-76.1c0-37.8,19.3-61.2,50.7-61.2h0Z"/>
              <path class="cls-2" d="M2079.7,735.3c31.2,0,62.9-19,62.9-55.1s-14.9-40-45.2-49.9l-20.7-6.9c-14.1-4.7-20.7-11.3-20.7-20.4s9.4-17.6,22.6-17.6,24,8.3,31.2,22.6l30.6-16.5c-11.3-23.2-34.7-37.5-61.8-37.5s-59,22.1-59,52.1,14.3,40,43.8,49.4l21.2,6.9c14.9,4.7,21.2,10.8,21.2,20.4,0,14.6-13.5,19.9-25.1,19.9s-29.2-9.9-35.8-26.2l-31.2,16.5c10.2,26.2,35.3,42.5,65.9,42.5h0Z"/>
              <path class="cls-2" d="M2755,554.1c-52.9,0-91.3,38-91.3,90.7s9.1,48.5,25.4,65.1c16.5,16.5,39.7,25.6,65.6,25.6s38-4.1,69.5-27.3l-21.8-22.9c-15.4,10.2-29.8,15.2-43.8,15.2-32,0-56-24-56-55.7s24-55.7,56-55.7,29.2,5,43.3,15.2l24.3-22.9c-28.4-24.3-54-27.3-71.1-27.3h0Z"/>
              <path class="cls-2" d="M2939.4,555c-25,0-41.1,12.8-48,22.2-1.7,2.3-5.4,1.2-5.4-1.7v-92.1h-43.1v247.6h43.1v-88c0-30.3,14.6-48,39.4-48s34.5,13.3,34.5,44.3v91.6h43.1v-98c0-50.6-22.4-77.9-63.6-77.9h0Z"/>
              <path class="cls-2" d="M2248.4,553.9c-48.9,0-84.3,38.9-84.6,91h0c0,0,0,.1,0,.2,0,.1,0,.2,0,.4h0c.1,25.4,9.2,48.1,25.3,64.5,16.5,16.5,39.7,25.6,65.6,25.6s38-4.1,69.5-27.3l-21.8-22.9c-15.4,10.2-29.8,15.2-43.8,15.2-24.5,0-44.2-14.1-52.2-34.9-1-2.6,1-5.4,3.7-5.4h118.7c.9-5.7,1.4-11.8,1.4-18.2,0-52.3-30.9-88.2-82-88.2h0ZM2209.2,629.1c-2.4,0-4.3-2.2-3.9-4.6,3.9-25.2,23.6-39.2,45.8-39.2s43.7,14.9,46.4,39.3c.3,2.4-1.5,4.5-3.9,4.5h-84.2Z"/>
              <path class="cls-2" d="M1916.4,553.9c-48.9,0-84.3,38.9-84.6,91h0c0,0,0,.1,0,.2,0,.1,0,.2,0,.4h0c.1,25.4,9.2,48.1,25.3,64.5,16.5,16.5,39.7,25.6,65.6,25.6s38-4.1,69.5-27.3l-21.8-22.9c-15.4,10.2-29.8,15.2-43.8,15.2-24.5,0-44.2-14.1-52.2-34.9-1-2.6,1-5.4,3.7-5.4h118.7c.9-5.7,1.4-11.8,1.4-18.2,0-52.3-30.9-88.2-82-88.2h0ZM1877.2,629.1c-2.4,0-4.3-2.2-3.9-4.6,3.9-25.2,23.6-39.2,45.8-39.2s43.7,14.9,46.4,39.3c.3,2.4-1.5,4.5-3.9,4.5h-84.2Z"/>
            </g>
          </g>
        </g>
      </g>
    </g>
  </g>
</svg>