<?xml version="1.0" encoding="UTF-8"?>
<svg xmlns="http://www.w3.org/2000/svg" version="1.1" viewBox="0 0 3006 738.5615234">
  <!-- Generator: Adobe Illustrator 28.6.0, SVG Export Plug-In . SVG Version: 1.2.0 Build 709)  -->
  <g>
    <g id="logo">
      <g>
        <g>
          <path d="M419.3039891,199.1764522l-196.1544388,110.7068679L13.1019784,191.5996271l-10.1017343,5.474029v85.8697404l220.1493062,123.7536774,196.1544388-110.2846983v45.4607999l-196.1544388,110.7068679L13.1019784,334.2963502l-10.1017343,5.4739912v14.7314808l220.1493062,123.7557186,219.7271366-123.7557186v-85.8697782l-10.1016775-5.4719499-209.6254591,117.8615235L26.572942,270.7368437v-45.4607999l196.5766084,110.284774,219.7271366-123.7557186v-84.6072764l-10.9439754-6.3143234-208.7831612,117.4413952L36.6746762,133.9323499,223.1495503,29.1196015l153.2186046,86.2918722,13.4709825-7.5767874v-10.5238849L223.1495503,3.4421418,3.0002441,127.1978226v13.4690168l220.1493062,123.7556808,196.1544388-110.7068679v45.4607999Z" fill="#fff"/>
          <g>
            <path d="M854.1246789,407.9576099V29.957968h-58.087481v141.4342214c0,2.1047997-1.2644675,3.7893954-3.3672258,4.6297276-2.1047997.8422979-4.2095993,0-5.4739912-1.262464-19.783378-23.1505661-50.5107315-36.199379-84.1851068-36.199379-71.9805953,0-128.3854463,60.6143747-128.3854463,138.064992,0,37.886016,13.0488507,72.8228932,37.0416768,98.5003907,23.9929017,25.6754562,56.404851,39.5666048,91.3437694,39.5666048,33.2522814,0,63.9816005-13.8911486,84.1851068-37.8839747,1.2643919-1.6826301,3.7893954-2.1047997,5.4739912-1.6826301,2.1027584.8403322,3.3672258,2.524928,3.3672258,4.6297276v28.2024255h58.087481ZM715.6374795,362.0766061c-46.3030978,0-82.5024768-37.4638464-82.5024768-85.45154,0-47.9857279,36.199379-85.4495365,82.5024768-85.4495365s82.5045181,37.4638086,82.5045181,85.4495365c0,47.9876936-36.2014203,85.45154-82.5045181,85.45154Z" fill="#fff"/>
            <path d="M1164.7695218,407.9595756V144.8763632h-57.6674283v26.5178297c0,2.1047619-1.2624262,3.7893954-3.3672258,4.6296898-2.1047997.8423357-4.2094481,0-5.4720255-1.6826301-19.3630985-23.1525317-49.6702481-36.2013447-84.1870725-36.2013447-71.9805953,0-128.3853707,60.6143747-128.3853707,138.0669955s56.4047754,138.0669955,128.3853707,138.0669955c33.2542471,0,63.9816005-13.8911486,84.1870725-38.3061443,1.2625774-1.6826301,3.7874297-2.1047997,5.4720255-1.6826301,2.1047997.8403322,3.3672258,2.524928,3.3672258,4.6297276v28.6225538h57.6674283v.4221696ZM1027.1246203,362.0766061c-46.3030978,0-82.5044425-37.4618051-82.5044425-85.4495743,0-47.9856901,36.2013447-85.4495365,82.5044425-85.4495365s82.5024768,37.4638464,82.5024768,85.4495365c0,47.9877692-36.199379,85.4495743-82.5024768,85.4495743Z" fill="#fff"/>
            <path d="M1658.5317847,407.9595756V144.8763632h-57.6672771v26.5178297c0,2.1047619-1.2645431,3.7893954-3.3691915,4.6296898-2.1047997.8423357-4.2076336,0-5.4720255-1.6826301-19.3632497-23.1525317-49.6703993-36.2013447-84.1871481-36.2013447-72.3987579,0-128.383405,60.6143747-128.383405,138.4871238,0,77.8728247,56.404851,138.0669955,128.383405,138.0669955,33.2543227,0,63.9836418-13.891073,84.1871481-38.304103,1.2643919-1.6846714,3.7892442-2.1047997,5.4720255-1.6846714,2.1046485.8422979,3.3691915,2.5250036,3.3691915,4.6297276v28.6245951h57.6672771ZM1520.8869587,362.0766061c-46.3031734,0-82.5045181-37.4618051-82.5045181-85.4495743,0-47.9856901,36.2013447-85.4495365,82.5045181-85.4495365,46.3010565,0,82.5024012,37.4638464,82.5024012,85.4495365,0,47.9877692-36.2013447,85.4495743-82.5024012,85.4495743Z" fill="#fff"/>
            <path d="M1764.1946938,376.8080869c.4162725,0,1.2486664-.4202039,1.6845958-.4202039,1.2486664,0,2.9332621.8423735,3.7854641,1.6826301,19.779371,23.1525695,50.4988617,36.2014203,84.1712714,36.2014203,71.9824854,0,128.3873364-60.6144503,128.3873364-138.0669955,0-37.8840125-13.0408367-72.8209275-37.0416012-98.498425-23.9809564-25.6774597-56.404851-39.5686083-91.3457351-39.5686083-33.2364803,0-63.9757791,13.8911486-84.1712714,37.8840125-1.2684745,1.6845958-3.3691915,2.1047619-5.4700598,1.6845958-2.1205252-.8422979-3.3691915-2.524928-3.3691915-4.6296898V29.957968h-58.0953438v377.9996419h58.0953438v-26.5197954c0-2.1047997,1.2486664-3.7874297,3.3691915-4.6297276ZM1758.2887045,276.6250661c0-47.9857279,36.2092074-85.4495365,82.5063325-85.4495365,46.2972763,0,82.5064838,37.4638086,82.5064838,85.4495365,0,47.9876936-36.2092074,85.45154-82.5064838,85.45154-46.2971251,0-82.5063325-37.8859404-82.5063325-85.45154Z" fill="#fff"/>
            <path d="M2150.1694398,198.7542827c5.4898679,0,10.5239983.4221696,13.8931899,1.2644675v-59.7740803c-2.1008683-.4201661-5.8863324-.8422979-9.6716452-.8422979-30.3032182,0-58.0894467,15.5757444-72.8348385,40.4109062-1.2485151,2.1047997-3.3493834,2.9470976-5.4700598,2.1047997-2.1007171-.4221696-3.7853129-2.5269315-3.7853129-4.6297276v-32.411987h-57.6733254v263.5033408h58.0894467v-116.1769278c0-57.6692806,29.4708243-93.4484935,77.4525452-93.4484935Z" fill="#fff"/>
            <path d="M2259.6297583,144.8704283h-58.9416487v263.5053443h58.9416487V144.8704283Z" fill="#fff"/>
            <path d="M2229.3265401,30.3800998c-19.7991791,0-35.7930861,15.9959105-35.7930861,35.7792129,0,19.7833402,15.993907,35.7792129,35.7930861,35.7792129,19.779371,0,35.773278-15.9958727,35.773278-35.7792129,0-19.7833024-15.993907-35.7792129-35.773278-35.7792129Z" fill="#fff"/>
            <path d="M2432.2136539,138.139908c-80.821888,0-139.3276072,58.0894467-139.3276072,138.4871238,0,39.1484422,13.8733818,74.085395,38.7263482,99.3407229,25.2494309,25.2572936,60.6064363,39.1464765,100.1651784,39.1464765,32.8400159,0,58.0894467-6.3123577,106.0909757-41.6714045l-33.2561372-34.9369528c-23.5846432,15.5737787-45.4648825,23.1506039-66.9290005,23.1506039-48.8337716,0-85.4594028-36.6215486-85.4594028-85.029446,0-48.4058562,36.6256311-85.0274047,85.4594028-85.0274047,23.148865,0,44.6126806,7.5768252,66.0764962,23.1505661l37.0417525-34.936915c-43.3440549-37.0416768-82.5063325-41.6733702-108.588006-41.6733702Z" fill="#fff"/>
            <path d="M2640.1542526,292.2008105c.832545-.8422979,2.1008683-1.2624262,3.3691915-1.2624262h.4164237c1.2683232,0,2.5169896.8422979,3.7853129,1.6826301l93.0303309,115.3365956h71.5662129l-120.4002869-145.6438207c-1.6844446-2.1047997-1.6844446-5.0498559.4164237-6.7345273l110.7088336-110.7048644h-71.1304347l-95.5473205,95.9714558c-1.2683232,1.2644297-3.3691915,1.6846336-5.4700598,1.2644297-1.684747-.8422979-2.9530702-2.5268937-2.9530702-4.6316555V30.3800998h-58.505568v377.9976385h58.0894467v-102.7079488c0-1.2624262.4161213-2.9450563,1.6844446-3.7874297l10.9401197-9.6815493Z" fill="#fff"/>
            <path d="M2907.016843,414.6900959c47.5657508,0,95.9834011-29.0447234,95.9834011-84.1870725,0-36.2014203-22.7321388-61.0365443-69.0295664-76.1901947l-31.5713902-10.5218814c-21.4837749-7.1566213-31.5716926-17.2583744-31.5716926-31.1494852,0-15.9959105,14.3093112-26.9399615,34.5048035-26.9399615,19.3632497,0,36.6253287,12.6266811,47.5654484,34.5167489l46.7332058-25.2572936c-17.2623814-35.3570811-53.0355082-57.2471488-94.2986541-57.2471488-52.1833063,0-90.0772607,33.6764167-90.0772607,79.5573827,0,36.6215108,21.8998962,61.0345408,66.9286981,75.3477834l32.4238946,10.5219571c22.7124819,7.1566213,32.4039352,16.4180422,32.4039352,31.1494474,0,22.3102717-20.631573,30.3072251-38.3100757,30.3072251-23.5646839,0-44.6126806-15.1535748-54.7202552-39.9887744l-47.5654484,25.2572936c15.5776344,39.9887744,53.8877101,64.823974,100.6009566,64.823974Z" fill="#fff"/>
            <path d="M1326.4170779,412.1690994c18.5208762,0,34.9389185-1.6845958,44.1983737-2.9470976v-50.5126215c-7.5768252.8422979-21.0458798,1.6845958-29.0447234,1.6845958-23.5707322,0-41.6714045-4.2095237-41.6714045-55.1423492v-108.1799743c0-2.9470598,2.1047997-5.0518594,5.0498559-5.0518594h56.8270205v-47.5655618h-56.8270205c-2.9450563,0-5.0498559-2.1047619-5.0498559-5.0498937V63.6343847h-58.0894467v76.1901191c0,2.9470976-2.1047997,5.0518594-5.0519728,5.0518594h-40.4088271v47.5655996h40.4088271c2.9471732,0,5.0519728,2.1047619,5.0519728,5.0498559v122.4932547c0,92.184026,61.4566726,92.184026,84.6072008,92.184026Z" fill="#fff"/>
          </g>
        </g>
        <g>
          <g>
            <g>
              <path d="M1347.976919,575.9273942c0,1.3785421-.8281901,2.4821502-2.2067322,3.0325021-1.3785421.551562-2.755632,0-3.5843062-1.102156-12.6827806-15.1646887-32.5332053-23.7116011-55.1416823-23.7116011-47.4202979,0-84.0896134,39.7018177-84.0896134,90.7078738,0,51.0058141,36.9442495,90.4324558,84.0896134,90.4324558,21.781739,0,41.9090339-9.0984744,55.1416823-25.088933.8286742-1.1033661,2.4821502-1.3785421,3.5843062-1.1033661,1.3785421.551562,2.2067322,1.653718,2.2067322,3.0325021v18.7487528h37.7714715v-172.3167892h-37.7714715v17.3687587ZM1295.5923208,700.8224333c-30.3279253,0-54.0395263-24.537129-54.0395263-55.9684203,0-31.4303233,23.7116011-55.9686623,54.0395263-55.9686623,30.3269572,0,54.0380742,24.5383391,54.0380742,55.9686623,0,31.4312914-23.711117,55.9684203-54.0380742,55.9684203Z" fill="#fff"/>
              <rect x="1414.6978806" y="558.5547632" width="38.6064382" height="172.5931753" fill="#fff"/>
              <path d="M1434.0076342,483.5645922c-12.9683633,0-23.4444117,10.4772585-23.4444117,23.434973,0,12.9579565,10.4760484,23.435215,23.4444117,23.435215,12.9548103,0,23.4308586-10.4772585,23.4308586-23.435215,0-12.9577145-10.4760484-23.434973-23.4308586-23.434973Z" fill="#fff"/>
            </g>
            <g>
              <path d="M1136.5161847,630.2382924l-20.6786149-6.8917422c-14.0714874-4.6874302-20.6790989-11.3039965-20.6790989-20.4024709,0-10.4772585,9.3724403-17.6453867,22.6002483-17.6453867,12.6827805,0,23.9889552,8.2702843,31.1546633,22.6079929l30.6096358-16.5432308c-11.3061746-23.1585869-34.7375173-37.4962956-61.7642991-37.4962956-34.1799048,0-58.9994703,22.057641-58.9994703,52.1094222,0,23.986535,14.3440012,39.9769936,43.8374438,49.3518541l21.2371955,6.8919842c14.8764437,4.6874302,21.2246105,10.7536445,21.2246105,20.4024709,0,14.6128846-13.5138749,19.8509088-25.0930473,19.8509088-15.4345402,0-29.2209289-9.9254544-35.8411254-26.1922991l-31.1551473,16.5432308c10.2035346,26.1922991,35.2960979,42.4591438,65.8931487,42.4591438,31.1546633,0,62.8679072-19.0239288,62.8679072-55.1416823,0-23.7116011-14.8895127-39.9782037-45.2140497-49.9039002Z" fill="#fff"/>
              <path d="M945.3262541,554.4214894c-52.9239648,0-92.2096055,37.5462449-92.2096055,90.432961s39.2856407,90.4293562,92.2096055,90.4293562c52.9220423,0,92.2086442-37.5426402,92.2086442-90.4293562s-39.2866019-90.432961-92.2086442-90.432961ZM945.3272153,700.7931596c-29.9297195,0-52.4635224-21.5994604-52.4635224-55.9387093,0-34.3430939,22.1819825-55.9387093,52.4635224-55.9387093,29.927797,0,52.4615999,21.5956153,52.4615999,55.9387093,0,34.3392489-22.5338028,55.9387093-52.4615999,55.9387093Z" fill="#fff"/>
              <path d="M770.4331652,554.1461392c-27.3965873,0-44.1917601,15.5727333-50.8656849,26.9314261-1.1602406,1.9753617-4.0756054,1.9003357-5.1404904-.1285123-6.024345-11.4806706-20.9206342-26.8029139-46.7126334-26.8029139-22.946336,0-36.2874091,12.8742178-43.5799353,23.4502202-1.6491197,2.3913929-5.4183286,1.1592726-5.4183286-1.7454434l.000484-17.9072517h-37.7748598v173.204274h37.7714715v-96.0533546c0-9.9133534,1.5731256-18.3015011,4.722281-25.1605707,3.1472193-6.8556813,7.5006628-12.0784583,13.0632349-15.6688149,5.5567636-3.5830961,11.8027983-5.3800895,18.7284232-5.3800895,10.9082949,0,19.0924203,3.5903566,24.5514081,10.7601791,5.4551155,7.177083,8.1846094,17.5192947,8.1846094,31.0196165v100.4830342h37.4573305v-96.0533546c0-9.9133534,1.5731256-18.3015011,4.7203449-25.1605707,3.1491554-6.8556813,7.5006628-12.0784583,13.064687-15.6688149,5.5572477-3.5830961,12.0085147-5.3800895,19.3571894-5.3800895,10.7030625,0,18.7787632,3.5903566,24.2377511,10.7601791,5.4551155,7.177083,8.1841254,17.5192947,8.1841254,31.0196165v100.4830342h37.4568464v-106.7353614c0-52.470273-29.5069957-70.2664378-62.0082545-70.2664378Z" fill="#fff"/>
              <path d="M1569.9274487,700.5472574c-31.9857576,0-55.9751969-23.986777-55.9751969-55.6932444,0-31.7054993,23.9894392-55.6922763,55.9751969-55.6922763,15.1620265,0,29.2204449,4.9628482,43.2793473,15.1634786l24.261953-22.8834109c-28.3898345-24.261953-54.0404944-27.2956652-71.1241543-27.2956652-52.9373703,0-91.2577417,38.0480996-91.2577417,90.7078738,0,25.6417051,9.0863734,48.5251161,25.3650771,65.0671367,16.5381483,16.5432308,39.6964932,25.640495,65.6070818,25.640495,21.5097093,0,38.0483416-4.1346581,69.4885877-27.2944551l-21.7827071-22.8831689c-15.4476093,10.2006304-29.7790255,15.1632366-43.8374438,15.1632366Z" fill="#fff"/>
            </g>
          </g>
          <g>
            <path d="M2531.1629463,730.8754518v-172.3168566h-37.7714862v17.3689116c0,1.3785978-.828263,2.4820159-2.2067866,3.0324002-1.3786226.5517214-2.7559577,0-3.5841216-1.1021058-12.6827337-15.1646753-32.5336116-23.7115164-55.1417348-23.7115164-47.4204578,0-84.0898383,39.7018054-84.0898383,90.7076724,0,51.0059165,36.9446097,90.4324926,84.0898383,90.4324926,21.7812467,0,41.9086415-9.098513,55.1417348-25.088802.828164-1.1034428,2.4819168-1.3786226,3.5841216-1.1034428,1.3785236.5516966,2.2067866,1.6538519,2.2067866,3.032425v18.7488217h37.7714862ZM2441.0069705,700.8225685c-30.3281126,0-54.039629-24.5371054-54.039629-55.9686112,0-31.4301441,23.7115164-55.9685865,54.039629-55.9685865,30.3267261,0,54.0382425,24.5384424,54.0382425,55.9685865,0,31.4315059-23.7115164,55.9686112-54.0382425,55.9686112Z" fill="#fff"/>
            <path d="M1816.9524871,593.8455153c3.5958082,0,6.893113.2765168,9.0998996.8282135v-39.151421c-1.3760476-.2752046-3.8554885-.5516966-6.3348303-.5516966-19.8483029,0-38.048003,10.2019558-47.7060863,26.4687369-.8177649,1.3786226-2.1938124,1.9303192-3.5828341,1.3786226-1.3759485-.2765168-2.4793418-1.6551147-2.4793418-3.032425v-21.2295253h-37.7754477v172.5920364h38.048003v-76.0947185c0-37.7727984,19.3030934-61.2078228,50.7306377-61.2078228Z" fill="#fff"/>
            <path d="M2648.891077,593.8455153c3.5958082,0,6.893113.2765168,9.0998996.8282135v-39.151421c-1.3760476-.2752046-3.8554885-.5516966-6.3348303-.5516966-19.8483029,0-38.048003,10.2019558-47.7060863,26.4687369-.8177649,1.3786226-2.1938124,1.9303192-3.5828341,1.3786226-1.3759485-.2765168-2.4793418-1.6551147-2.4793418-3.032425v-21.2295253h-37.7754477v172.5920364h38.048003v-76.0947185c0-37.7727984,19.3030934-61.2078228,50.7306377-61.2078228Z" fill="#fff"/>
            <path d="M2079.7218889,735.2838749c31.1550881,0,62.8681618-19.0240015,62.8681618-55.1416853,0-23.7115659-14.8893222-39.9783222-45.2136713-49.9038107l-20.6789429-6.8917265c-14.0716564-4.6875149-20.6791409-11.3040616-20.6791409-20.4025993,0-10.4771604,9.3724548-17.6454037,22.6002991-17.6454037,12.6827337,0,23.9892217,8.2703491,31.15489,22.6081232l30.6097795-16.5432731c-11.3066861-23.1585323-34.7377241-37.4963064-61.7646695-37.4963064-34.1795405,0-58.9996992,22.057714-58.9996992,52.109285,0,23.986721,14.3442116,39.97701,43.8376237,49.3520398l21.2373246,6.891776c14.8764471,4.6875149,21.2242515,10.7536524,21.2242515,20.4025746,0,14.6130034-13.5134727,19.8509275-25.092714,19.8509275-15.4346308,0-29.2208568-9.925439-35.8412165-26.1922448l-31.15489,16.5432731c10.2031938,26.1922448,35.2959078,42.4590506,65.8926142,42.4590506Z" fill="#fff"/>
            <path d="M2755.0374903,554.1462848c-52.9375233,0-91.2581806,38.048003-91.2581806,90.7076724,0,25.6418357,9.0869255,48.5251881,25.3653684,65.0671738,16.5381231,16.5432731,39.6966059,25.6405482,65.6071838,25.6405482,21.5098799,0,38.048003-4.1345308,69.4885214-27.2943506l-21.7824352-22.8833525c-15.4477039,10.2006683-29.7790405,15.1634125-43.8378218,15.1634125-31.985629,0-55.9750488-23.9867458-55.9750488-55.6934314,0-31.7053487,23.9894198-55.6920944,55.9750488-55.6920944,15.1622736,0,29.2208568,4.9627442,43.27944,15.1633878l24.2619751-22.8833277c-28.3899198-24.2619256-54.0408175-27.2956381-71.1240511-27.2956381Z" fill="#fff"/>
            <path d="M2939.3975663,554.970611c-24.9505039,0-41.1332615,12.8372144-47.9529183,22.2002934-1.7051963,2.341157-5.3803957,1.1622296-5.3803957-1.7340974v-92.1486041h-43.0658862v247.5874638h43.0658862v-87.9726594c0-30.3085637,14.5753716-47.9624212,39.4201072-47.9624212,24.1825707,0,34.4519345,13.3226796,34.4519345,44.2992167v91.6358639h43.0639501v-97.9651532c0-50.6265699-22.38936-77.9399025-63.6026778-77.9399025Z" fill="#fff"/>
            <path d="M2248.4069308,553.8669686c-48.8816105,0-84.3461539,38.9121086-84.5813967,90.9869221h-.0111329c0,.0566325.0072606.1108448.0072606.1674774,0,.1176214-.0072606.2328226-.0072606.350686l.0237179.0089547c.124882,25.4255819,9.1764046,48.1131992,25.3418432,64.5400187,16.5381483,16.5434728,39.6964932,25.6407371,65.6070818,25.6407371,21.5097093,0,38.0483416-4.1346581,69.4885877-27.2944551l-21.7827071-22.8834109c-15.4476093,10.2006304-29.7790255,15.1634786-43.8374438,15.1634786-24.4761684,0-44.2279071-14.0663932-52.1664979-34.8723846-.9884119-2.5904962.9625153-5.3812371,3.7351726-5.3812371h118.7451989l.0019362.000242c.9070884-5.6850339,1.3969355-11.8061866,1.3969355-18.2138901,0-52.3347422-30.9421703-88.2131386-81.9612955-88.2131386ZM2209.1965178,629.1345053c-2.4443674-.0000064-4.3054607-2.2015382-3.9346289-4.6176127,3.8717381-25.225475,23.6419087-39.2181486,45.7588507-39.2181486,26.0266423,0,43.6827442,14.904722,46.3545524,39.3304865.2610658,2.3866728-1.5431959,4.5055004-3.9441046,4.5054941l-84.2346696-.0002193Z" fill="#fff"/>
            <path d="M1916.4332494,553.8669686c-48.8816105,0-84.3461539,38.9121086-84.5813967,90.9869221h-.0111329c0,.0566325.0072606.1108448.0072606.1674774,0,.1176214-.0072606.2328226-.0072606.350686l.0237179.0089547c.124882,25.4255819,9.1764046,48.1131992,25.3418432,64.5400187,16.5381483,16.5434728,39.6964932,25.6407371,65.6070818,25.6407371,21.5097093,0,38.0483416-4.1346581,69.4885877-27.2944551l-21.7827071-22.8834109c-15.4476093,10.2006304-29.7790255,15.1634786-43.8374438,15.1634786-24.4761684,0-44.2279071-14.0663932-52.1664979-34.8723846-.9884119-2.5904962.9625153-5.3812371,3.7351726-5.3812371h118.7451989l.0019362.000242c.9070884-5.6850339,1.3969355-11.8061866,1.3969355-18.2138901,0-52.3347422-30.9421703-88.2131386-81.9612955-88.2131386ZM1877.2228364,629.1345053c-2.4443674-.0000064-4.3054607-2.2015382-3.9346289-4.6176127,3.8717381-25.225475,23.6419087-39.2181486,45.7588507-39.2181486,26.0266423,0,43.6827442,14.904722,46.3545524,39.3304865.2610658,2.3866728-1.5431959,4.5055004-3.9441046,4.5054941l-84.2346696-.0002193Z" fill="#fff"/>
          </g>
        </g>
      </g>
    </g>
  </g>
</svg>