<svg width="150" height="150" viewBox="0 0 150 150" fill="none" xmlns="http://www.w3.org/2000/svg">
<path d="M118.85 40.7701C126.161 50.143 130.285 61.6075 130.62 73.4901H117.27C117.004 65.1351 114.242 57.0512 109.34 50.2801L107.18 52.4301C111.546 58.6087 114.01 65.929 114.27 73.4901H101.07C100.834 69.4443 99.6565 65.5097 97.63 62.0001L95.42 64.2101C96.9507 67.088 97.8539 70.2577 98.07 73.5101H83.59C83.382 72.2789 82.9001 71.1102 82.18 70.0901L126.42 25.8601L124.3 23.7401L115.45 32.5801C104.392 22.0829 89.6911 16.2887 74.4449 16.4186C59.1987 16.5486 44.5984 22.5926 33.7213 33.2767C22.8441 43.9609 16.5397 58.4507 16.1369 73.6921C15.734 88.9335 21.2642 103.736 31.5618 114.98C41.8593 126.224 56.1199 133.031 71.338 133.966C86.5561 134.901 101.543 129.891 113.14 119.993C124.736 110.095 132.037 96.0805 133.504 80.9044C134.97 65.7283 130.487 50.5757 121 38.6401L118.85 40.7701ZM40.77 99.8401C41.0028 99.376 41.3364 98.9699 41.7465 98.6516C42.1566 98.3332 42.6327 98.1106 43.14 98.0001C43.3779 97.9598 43.6188 97.9398 43.86 97.9401C44.7671 97.9401 45.637 98.3004 46.2783 98.9418C46.9197 99.5832 47.28 100.453 47.28 101.36C47.2687 101.788 47.1736 102.209 47 102.6C46.8089 103.075 46.514 103.501 46.1367 103.847C45.7595 104.193 45.3096 104.451 44.82 104.6C44.4964 104.701 44.1591 104.752 43.82 104.75C42.9068 104.75 42.0307 104.388 41.384 103.743C40.7373 103.098 40.3727 102.223 40.37 101.31C40.3869 100.796 40.5239 100.292 40.77 99.8401ZM43.86 94.9301C43.0226 94.9231 42.1924 95.0864 41.42 95.4101C37.9311 89.6957 35.9684 83.1808 35.72 76.4901H48.92C49.3024 82.9022 52.0279 88.9502 56.5783 93.484C61.1287 98.0177 67.1866 100.721 73.6 101.08V114.27C64.6527 113.966 56.0813 110.598 49.32 104.73C49.9223 103.758 50.2537 102.642 50.2801 101.498C50.3065 100.355 50.0269 99.2247 49.4701 98.2255C48.9134 97.2262 48.0998 96.3938 47.1134 95.8145C46.1271 95.2351 45.0039 94.9298 43.86 94.9301ZM86.92 37.4301C86.9372 36.5627 87.2815 35.7338 87.884 35.1095C88.4865 34.4852 89.3026 34.1116 90.1688 34.0636C91.0351 34.0155 91.8875 34.2966 92.5553 34.8504C93.2231 35.4042 93.657 36.1899 93.77 37.0501C93.77 37.1801 93.77 37.3001 93.77 37.4301C93.7759 37.8805 93.6931 38.3277 93.5262 38.7461C93.3592 39.1645 93.1115 39.546 92.7972 39.8687C92.4829 40.1913 92.1081 40.449 91.6942 40.6268C91.2803 40.8046 90.8355 40.8992 90.385 40.9051C89.9346 40.911 89.4874 40.8281 89.069 40.6612C88.6506 40.4943 88.2691 40.2466 87.9465 39.9323C87.6238 39.618 87.3662 39.2432 87.1883 38.8293C87.0105 38.4154 86.9159 37.9705 86.91 37.5201C86.9085 37.4898 86.9118 37.4594 86.92 37.4301ZM90.37 43.8601C91.3359 43.8531 92.2877 43.6272 93.1537 43.1993C94.0197 42.7715 94.7775 42.1529 95.37 41.3901C97.6545 42.7795 99.7892 44.4015 101.74 46.2301L92.4 55.5701C88.0496 51.6121 82.4718 49.268 76.6 48.9301V35.7101C79.0796 35.8085 81.5441 36.1434 83.96 36.7101C83.9448 36.9532 83.9448 37.197 83.96 37.4401C83.9705 39.1378 84.6489 40.7632 85.8484 41.9646C87.048 43.1661 88.6723 43.847 90.37 43.8601ZM54.16 57.3001C54.1657 56.7151 54.3213 56.1414 54.612 55.6338C54.9026 55.1261 55.3187 54.7015 55.8203 54.4005C56.3219 54.0996 56.8923 53.9323 57.4771 53.9147C58.0618 53.8971 58.6412 54.0298 59.16 54.3001C59.6254 54.5232 60.0334 54.8502 60.3524 55.2559C60.6714 55.6616 60.893 56.1352 61 56.6401C61.0491 56.8566 61.0726 57.0781 61.07 57.3001C61.07 58.2107 60.709 59.0842 60.066 59.729C59.423 60.3739 58.5506 60.7375 57.64 60.7401C57.3946 60.7387 57.1499 60.7119 56.91 60.6601C56.1409 60.4969 55.4515 60.0737 54.9579 59.4617C54.4643 58.8497 54.1967 58.0863 54.2 57.3001H54.16ZM55.16 63.2301C55.9462 63.5694 56.7938 63.743 57.65 63.7401C59.3415 63.7139 60.9551 63.0241 62.1428 61.8195C63.3306 60.6149 63.9976 58.9918 64 57.3001C64.004 56.4811 63.8477 55.6692 63.54 54.9101C66.5938 53.144 70.0184 52.1166 73.54 51.9101V66.4901C71.7966 66.799 70.1901 67.6362 68.9381 68.8882C67.6861 70.1402 66.8489 71.7466 66.54 73.4901H51.94C52.1678 69.8671 53.2544 66.3502 55.11 63.2301H55.16ZM66.59 76.4901C66.8949 78.2353 67.7307 79.844 68.9834 81.0967C70.2361 82.3495 71.8448 83.1852 73.59 83.4901V98.0601C67.9738 97.7146 62.676 95.3337 58.689 91.3631C54.7019 87.3926 52.2989 82.1049 51.93 76.4901H66.59ZM75.1 80.6401C73.9813 80.6441 72.8866 80.3158 71.9546 79.6969C71.0226 79.0781 70.2953 78.1965 69.8649 77.1638C69.4345 76.1312 69.3203 74.994 69.5369 73.8965C69.7534 72.7989 70.291 71.7903 71.0813 70.9985C71.8717 70.2068 72.8793 69.6674 73.9765 69.4489C75.0737 69.2304 76.2111 69.3426 77.2445 69.7712C78.2779 70.1997 79.1608 70.9255 79.7813 71.8563C80.4018 72.7872 80.732 73.8814 80.73 75.0001C80.7248 76.4926 80.1302 77.9226 79.0758 78.9789C78.0214 80.0351 76.5925 80.6322 75.1 80.6401ZM80.1 67.9401C79.0675 67.2013 77.8812 66.7056 76.63 66.4901V51.9301C81.7186 52.2625 86.5491 54.2904 90.35 57.6901L80.1 67.9401ZM73.63 48.9401C69.4754 49.1612 65.435 50.3789 61.85 52.4901C60.6295 51.4158 59.0473 50.8437 57.4219 50.8891C55.7965 50.9346 54.2487 51.5941 53.0901 52.735C51.9315 53.8758 51.2481 55.4133 51.1776 57.0378C51.1071 58.6623 51.6546 60.2531 52.71 61.4901C50.4972 65.1231 49.2095 69.2436 48.96 73.4901H35.72C36.1115 63.5783 40.231 54.1798 47.2544 47.1749C54.2779 40.17 63.6872 36.0754 73.6 35.7101L73.63 48.9401ZM76.63 101.09C83.007 100.691 89.0174 97.9715 93.5271 93.4452C98.0369 88.9188 100.734 82.8985 101.11 76.5201H114.3C113.902 86.396 109.804 95.7609 102.819 102.755C95.8348 109.748 86.4754 113.859 76.6 114.27L76.63 101.09ZM83.63 76.5201H98.07C97.6907 82.0951 95.3086 87.345 91.3629 91.3017C87.4172 95.2585 82.1739 97.6553 76.6 98.0501V83.4901C78.3423 83.1785 79.9473 82.3405 81.1988 81.0889C82.4504 79.8374 83.2884 78.2324 83.6 76.4901L83.63 76.5201ZM113.36 34.7201L103.94 44.1401C101.733 42.0653 99.3094 40.2347 96.71 38.6801C96.79 38.2817 96.8302 37.8764 96.83 37.4701C96.8564 36.072 96.4262 34.7034 95.6048 33.5718C94.7833 32.4401 93.6153 31.6071 92.2779 31.199C90.9404 30.7909 89.5064 30.8299 88.1931 31.3101C86.8797 31.7903 85.7588 32.6855 85 33.8601C82.2442 33.2039 79.4308 32.8188 76.6 32.7101V19.3901C90.3191 19.7402 103.415 25.1918 113.33 34.6801L113.36 34.7201ZM73.6 19.3901V32.7001C62.891 33.0697 52.7197 37.4832 45.1344 45.0518C37.5491 52.6204 33.1132 62.7819 32.72 73.4901H19.39C19.7895 59.2492 25.6324 45.7032 35.7164 35.6396C45.8004 25.576 59.3583 19.7606 73.6 19.3901ZM19.38 76.4901H32.72C32.9776 83.8094 35.1424 90.9346 39 97.1601C38.1945 98.0939 37.6744 99.2397 37.502 100.461C37.3295 101.682 37.5118 102.927 38.0272 104.047C38.5426 105.168 39.3693 106.116 40.4088 106.78C41.4484 107.444 42.6568 107.794 43.89 107.79C45.0628 107.793 46.213 107.468 47.21 106.85C54.5342 113.277 63.8613 116.963 73.6 117.28V130.61C59.354 130.239 45.7922 124.422 35.706 114.354C25.6199 104.286 19.777 90.7354 19.38 76.4901ZM76.6 130.6V117.27C87.2712 116.851 97.3905 112.417 104.932 104.855C112.473 97.2936 116.88 87.1624 117.27 76.4901H130.62C130.218 90.6985 124.4 104.216 114.358 114.275C104.315 124.334 90.8077 130.175 76.6 130.6Z" fill="#FF5F46"/>
</svg>
