<svg width="150" height="150" viewBox="0 0 150 150" fill="none" xmlns="http://www.w3.org/2000/svg">
<path d="M118.85 40.77C126.161 50.1429 130.285 61.6074 130.62 73.49H117.27C117.004 65.135 114.242 57.051 109.34 50.28L107.18 52.43C111.546 58.6086 114.01 65.9289 114.27 73.49H101.07C100.834 69.4442 99.6565 65.5095 97.63 62L95.42 64.21C96.9507 67.0878 97.8539 70.2575 98.07 73.51H83.59C83.3819 72.2788 82.9001 71.1101 82.18 70.09V70.09L126.42 25.86L124.3 23.74L115.45 32.58C104.392 22.0828 89.6911 16.2886 74.4449 16.4185C59.1987 16.5485 44.5984 22.5925 33.7212 33.2766C22.8441 43.9608 16.5397 58.4505 16.1369 73.692C15.734 88.9334 21.2641 103.736 31.5617 114.98C41.8593 126.224 56.1199 133.03 71.338 133.966C86.556 134.901 101.543 129.891 113.14 119.993C124.736 110.094 132.037 96.0804 133.504 80.9043C134.97 65.7282 130.487 50.5755 121 38.64L118.85 40.77ZM40.77 99.84C41.0028 99.3759 41.3364 98.9698 41.7465 98.6514C42.1566 98.3331 42.6327 98.1105 43.14 98C43.3779 97.9597 43.6187 97.9397 43.86 97.94C44.767 97.94 45.6369 98.3003 46.2783 98.9417C46.9197 99.5831 47.28 100.453 47.28 101.36C47.2687 101.788 47.1735 102.209 47 102.6C46.8089 103.075 46.5139 103.501 46.1367 103.847C45.7595 104.193 45.3096 104.45 44.82 104.6C44.4963 104.701 44.1591 104.752 43.82 104.75C42.9067 104.75 42.0307 104.388 41.384 103.743C40.7373 103.098 40.3726 102.223 40.37 101.31C40.3868 100.795 40.5238 100.292 40.77 99.84ZM43.86 94.93C43.0225 94.923 42.1924 95.0863 41.42 95.41C37.931 89.6955 35.9683 83.1807 35.72 76.49H48.92C49.3024 82.9021 52.0279 88.95 56.5783 93.4838C61.1287 98.0176 67.1865 100.721 73.6 101.08V114.27C64.6527 113.966 56.0813 110.598 49.32 104.73C49.9222 103.757 50.2537 102.642 50.2801 101.498C50.3065 100.355 50.0268 99.2246 49.4701 98.2254C48.9134 97.2261 48.0997 96.3937 47.1134 95.8143C46.1271 95.235 45.0039 94.9297 43.86 94.93V94.93ZM86.92 37.43C86.9372 36.5626 87.2815 35.7337 87.884 35.1094C88.4864 34.4851 89.3025 34.1115 90.1688 34.0635C91.035 34.0154 91.8874 34.2964 92.5553 34.8503C93.2231 35.4041 93.657 36.1898 93.77 37.05C93.77 37.18 93.77 37.3 93.77 37.43C93.7759 37.8804 93.693 38.3276 93.5261 38.746C93.3592 39.1644 93.1115 39.5459 92.7972 39.8685C92.4829 40.1912 92.1081 40.4488 91.6942 40.6267C91.2803 40.8045 90.8354 40.8991 90.385 40.905C89.9346 40.9109 89.4874 40.828 89.069 40.6611C88.6506 40.4942 88.2691 40.2465 87.9464 39.9322C87.6238 39.6179 87.3661 39.243 87.1883 38.8292C87.0105 38.4153 86.9159 37.9704 86.91 37.52C86.9084 37.4896 86.9118 37.4592 86.92 37.43V37.43ZM90.37 43.86C91.3359 43.853 92.2876 43.627 93.1537 43.1992C94.0197 42.7714 94.7775 42.1528 95.37 41.39C97.6545 42.7794 99.7892 44.4014 101.74 46.23L92.4 55.57C88.0495 51.6119 82.4718 49.2679 76.6 48.93V35.71C79.0795 35.8084 81.5441 36.1433 83.96 36.71C83.9448 36.9531 83.9448 37.1969 83.96 37.44C83.9705 39.1377 84.6488 40.7631 85.8484 41.9645C87.048 43.166 88.6723 43.8469 90.37 43.86V43.86ZM54.16 57.3C54.1656 56.715 54.3212 56.1413 54.6119 55.6337C54.9026 55.126 55.3186 54.7014 55.8203 54.4004C56.3219 54.0995 56.8923 53.9322 57.477 53.9146C58.0617 53.897 58.6412 54.0297 59.16 54.3C59.6254 54.5231 60.0333 54.8501 60.3524 55.2558C60.6714 55.6615 60.893 56.1351 61 56.64C61.049 56.8565 61.0725 57.078 61.07 57.3C61.07 58.2106 60.7089 59.0841 60.066 59.7289C59.423 60.3737 58.5506 60.7373 57.64 60.74C57.3945 60.7386 57.1499 60.7118 56.91 60.66C56.1409 60.4968 55.4515 60.0735 54.9579 59.4616C54.4643 58.8496 54.1967 58.0862 54.2 57.3H54.16ZM55.16 63.23C55.9461 63.5693 56.7938 63.7429 57.65 63.74C59.3415 63.7138 60.955 63.024 62.1428 61.8194C63.3306 60.6148 63.9976 58.9917 64 57.3C64.004 56.4809 63.8477 55.669 63.54 54.91C66.5938 53.1439 70.0183 52.1165 73.54 51.91V66.49C71.7965 66.7989 70.1901 67.636 68.9381 68.8881C67.686 70.1401 66.8489 71.7465 66.54 73.49H51.94C52.1678 69.8669 53.2543 66.3501 55.11 63.23H55.16ZM66.59 76.49C66.8948 78.2352 67.7306 79.8439 68.9834 81.0966C70.2361 82.3493 71.8448 83.1851 73.59 83.49V98.06C67.9737 97.7145 62.676 95.3335 58.6889 91.363C54.7019 87.3925 52.2989 82.1048 51.93 76.49H66.59ZM75.1 80.64C73.9813 80.6439 72.8865 80.3157 71.9545 79.6968C71.0226 79.078 70.2953 78.1964 69.8649 77.1637C69.4345 76.1311 69.3203 74.9939 69.5369 73.8963C69.7534 72.7988 70.2909 71.7902 71.0813 70.9984C71.8717 70.2066 72.8793 69.6673 73.9765 69.4488C75.0737 69.2303 76.211 69.3425 77.2444 69.771C78.2778 70.1996 79.1607 70.9253 79.7813 71.8562C80.4018 72.7871 80.732 73.8812 80.73 75C80.7247 76.4925 80.1302 77.9225 79.0758 78.9787C78.0214 80.035 76.5925 80.6321 75.1 80.64V80.64ZM80.1 67.94C79.0674 67.2012 77.8812 66.7055 76.63 66.49V51.93C81.7186 52.2624 86.5491 54.2903 90.35 57.69L80.1 67.94ZM73.63 48.94C69.4754 49.1611 65.435 50.3787 61.85 52.49C60.6295 51.4156 59.0472 50.8436 57.4218 50.889C55.7965 50.9345 54.2486 51.594 53.09 52.7349C51.9314 53.8757 51.2481 55.4132 51.1776 57.0377C51.107 58.6621 51.6546 60.253 52.71 61.49C50.4971 65.123 49.2095 69.2434 48.96 73.49H35.72C36.1115 63.5782 40.231 54.1797 47.2544 47.1748C54.2778 40.1699 63.6872 36.0752 73.6 35.71L73.63 48.94ZM76.63 101.09C83.007 100.691 89.0174 97.9714 93.5271 93.4451C98.0369 88.9187 100.734 82.8984 101.11 76.52H114.3C113.902 86.3959 109.804 95.7608 102.819 102.754C95.8348 109.748 86.4754 113.859 76.6 114.27L76.63 101.09ZM83.63 76.52H98.07C97.6907 82.095 95.3086 87.3449 91.3628 91.3016C87.4171 95.2583 82.1739 97.6551 76.6 98.05V83.49C78.3423 83.1784 79.9473 82.3404 81.1988 81.0888C82.4504 79.8373 83.2884 78.2323 83.6 76.49L83.63 76.52ZM113.36 34.72L103.94 44.14C101.733 42.0652 99.3094 40.2346 96.71 38.68C96.79 38.2816 96.8302 37.8763 96.83 37.47C96.8563 36.0719 96.4262 34.7033 95.6047 33.5717C94.7833 32.44 93.6153 31.607 92.2779 31.1989C90.9404 30.7907 89.5063 30.8297 88.193 31.3099C86.8797 31.7901 85.7587 32.6854 85 33.86C82.2442 33.2038 79.4308 32.8186 76.6 32.71V19.39C90.3191 19.7401 103.415 25.1916 113.33 34.68L113.36 34.72ZM73.6 19.39V32.7C62.8909 33.0696 52.7197 37.4831 45.1344 45.0517C37.5491 52.6203 33.1132 62.7818 32.72 73.49H19.39C19.7894 59.2491 25.6324 45.703 35.7164 35.6395C45.8004 25.5759 59.3583 19.7605 73.6 19.39V19.39ZM19.38 76.49H32.72C32.9776 83.8093 35.1423 90.9345 39 97.16C38.1944 98.0938 37.6744 99.2396 37.5019 100.461C37.3294 101.682 37.5118 102.927 38.0272 104.047C38.5426 105.168 39.3693 106.116 40.4088 106.78C41.4483 107.443 42.6567 107.794 43.89 107.79C45.0628 107.793 46.213 107.468 47.21 106.85C54.5342 113.277 63.8612 116.963 73.6 117.28V130.61C59.354 130.239 45.7921 124.421 35.706 114.354C25.6198 104.286 19.7769 90.7353 19.38 76.49V76.49ZM76.6 130.6V117.27C87.2712 116.851 97.3904 112.417 104.932 104.855C112.473 97.2935 116.88 87.1623 117.27 76.49H130.62C130.218 90.6984 124.4 104.216 114.358 114.275C104.315 124.334 90.8077 130.174 76.6 130.6V130.6Z" fill="#1B3139"/>
</svg>
