<svg width="150" height="150" viewBox="0 0 150 150" fill="none" xmlns="http://www.w3.org/2000/svg">
<path d="M76.4999 96.7001L81.2999 94.9001L80.2999 92.1001L68.6999 96.3001L69.6999 99.1001L73.4999 97.7001V126.8H65.8999V129.8H84.0999V126.8H76.4999V96.7001Z" fill="#FF5F46"/>
<path d="M79.2999 35.5L66.2999 48.4H76.6999L68.5999 56.6L70.6999 58.7L83.9999 45.4H73.5999L81.3999 37.6L79.2999 35.5Z" fill="#FF5F46"/>
<path d="M73.5 79.5V87.7L68.7 89.5L69.7 92.3L81.3 88.1L80.3 85.3L76.5 86.7V79.5H73.5Z" fill="#FF5F46"/>
<path d="M81.1 132.9H69V135.9H81.1V132.9Z" fill="#FF5F46"/>
<path d="M111.8 50.8V17.9H96V35L75 14L18.7 70.4L20.7999 72.5L75 18.3L99 42.3V20.9H108.8V52L114.9 58.1V119.6H84V116.5C84 110.4 86.3999 104.2 90.7 99.2C93.8999 95.5 95.7 90.7 95.7 85.8C95.7 79.9 93.2 74.3 88.8 70.4C84.4 66.5 78.4999 64.6 72.6999 65.3C63.0999 66.4 55.4 74.2 54.5 83.8C54 89.5 55.7 95.1 59.5 99.4C63.7 104.2 66.0999 110.2 66.0999 116.1V119.7H35.0999V66.8H32.0999V122.6H69V116C69 109.3 66.4 102.7 61.7 97.3C58.5 93.6 57 88.9 57.4 84C58.2 75.7 64.7 69.1 72.9 68.2C78 67.6 82.8999 69.2 86.7 72.6C90.3999 75.9 92.5999 80.7 92.5999 85.8C92.5999 90 91.0999 94.1 88.3999 97.3C83.5999 102.9 81 109.7 81 116.6V122.7H117.9V61.2L129.2 72.5L131.3 70.4L111.8 50.8Z" fill="#FF5F46"/>
</svg>
