<svg width="150" height="150" viewBox="0 0 150 150" fill="none" xmlns="http://www.w3.org/2000/svg">
<path d="M76.5 96.7L81.3 94.9L80.3 92.1L68.7 96.3L69.7 99.1L73.5 97.7V126.8H65.9V129.8H84.1V126.8H76.5V96.7Z" fill="white"/>
<path d="M79.3 35.5L66.3 48.4H76.7L68.6 56.6L70.7 58.7L84 45.4H73.6L81.4 37.6L79.3 35.5Z" fill="white"/>
<path d="M73.5 79.5V87.7L68.7 89.5L69.7 92.3L81.3 88.1L80.3 85.3L76.5 86.7V79.5H73.5Z" fill="white"/>
<path d="M81.1 132.9H69V135.9H81.1V132.9Z" fill="white"/>
<path d="M111.8 50.8V17.9H96V35L75 14L18.7 70.4L20.8 72.5L75 18.3L99 42.3V20.9H108.8V52L114.9 58.1V119.6H84V116.5C84 110.4 86.4 104.2 90.7 99.2C93.9 95.5 95.7 90.7 95.7 85.8C95.7 79.9 93.2 74.3 88.8 70.4C84.4 66.5 78.5 64.6 72.7 65.3C63.1 66.4 55.4 74.2 54.5 83.8C54 89.5 55.7 95.1 59.5 99.4C63.7 104.2 66.1 110.2 66.1 116.1V119.7H35.1V66.8H32.1V122.6H69V116C69 109.3 66.4 102.7 61.7 97.3C58.5 93.6 57 88.9 57.4 84C58.2 75.7 64.7 69.1 72.9 68.2C78 67.6 82.9 69.2 86.7 72.6C90.4 75.9 92.6 80.7 92.6 85.8C92.6 90 91.1 94.1 88.4 97.3C83.6 102.9 81 109.7 81 116.6V122.7H117.9V61.2L129.2 72.5L131.3 70.4L111.8 50.8Z" fill="white"/>
</svg>
