<?xml version="1.0" encoding="UTF-8"?>
<svg id="Layer_2" data-name="Layer 2" xmlns="http://www.w3.org/2000/svg" viewBox="0 0 296.72 31.33">
  <defs>
    <style>
      .cls-1 {
        fill: #fff;
        stroke-width: 0px;
      }
    </style>
  </defs>
  <g id="Layer_1-2" data-name="Layer 1">
    <g>
      <path class="cls-1" d="M27.54,12.91l-12.97,7.3L.67,12.41l-.67.36v5.67l14.56,8.17,12.97-7.28v3l-12.97,7.3L.67,21.83l-.67.36v.97l14.56,8.17,14.53-8.17v-5.67l-.67-.36-13.87,7.78L1.56,17.64v-3l13,7.28,14.53-8.17v-5.58l-.72-.42-13.81,7.75L2.23,8.61,14.56,1.69l10.13,5.69.89-.5v-.69L14.56,0,0,8.17v.89l14.56,8.17,12.97-7.3v3Z"/>
      <g>
        <path class="cls-1" d="M49.05,2.43l-8.92,24.3h4.13l1.96-5.56c.06-.16.21-.27.38-.27h9.19c.17,0,.33.11.38.27l1.96,5.56h4.13L53.39,2.43h-4.34ZM47.6,17.26l3.22-9.13c.13-.36.64-.36.77,0l3.22,9.13c.09.26-.1.54-.38.54h-6.44c-.28,0-.48-.28-.38-.54Z"/>
        <path class="cls-1" d="M76.71,12.39v-3.16h-13.54v3.26h8.16c.34,0,.53.4.31.67l-8.61,10.41v3.16h13.85v-3.26h-8.57c-.35,0-.53-.4-.31-.67l8.71-10.41Z"/>
        <path class="cls-1" d="M91.46,18.6c0,1.11-.2,2.05-.59,2.83-.39.78-.93,1.37-1.6,1.77-.67.41-1.43.61-2.29.61-1.32,0-2.31-.39-2.99-1.16-.67-.77-1.01-1.94-1.01-3.49v-9.93h-3.89v10.31c0,1.67.27,3.07.8,4.22s1.3,2,2.31,2.55c1.01.56,2.2.83,3.59.83s2.52-.3,3.52-.9c.71-.42,1.3-.95,1.77-1.59.2-.26.61-.15.64.17l.18,1.9h3.47V9.23h-3.92v9.37Z"/>
        <path class="cls-1" d="M125.95,13c-.68-1.26-1.64-2.27-2.88-3.04-1.24-.76-2.72-1.14-4.46-1.14s-3.26.39-4.58,1.18c-1.32.79-2.34,1.87-3.07,3.25-.73,1.38-1.09,2.99-1.09,4.84s.37,3.36,1.11,4.72c.74,1.37,1.76,2.43,3.07,3.19,1.31.76,2.82,1.15,4.53,1.15,1.37,0,2.58-.24,3.64-.73,1.06-.49,1.97-1.16,2.71-2.03.74-.87,1.26-1.83,1.56-2.9h-3.96c-.32.74-.82,1.33-1.47,1.77-.66.44-1.5.66-2.52.66-.9,0-1.72-.22-2.45-.66-.73-.44-1.31-1.06-1.74-1.87-.31-.58-.5-1.26-.58-2.02-.03-.24.17-.45.41-.45h12.72c.02-.32.04-.62.05-.89.01-.27.02-.51.02-.75,0-1.6-.34-3.03-1.02-4.29ZM114.28,16.31c-.25,0-.45-.23-.4-.48.11-.52.27-.99.5-1.4.44-.79,1.03-1.38,1.77-1.79.74-.4,1.55-.61,2.43-.61,1.27,0,2.33.38,3.16,1.15.74.68,1.17,1.57,1.29,2.68.03.24-.17.44-.41.44h-8.33Z"/>
        <path class="cls-1" d="M154.59,26.69V1.75h-3.84v9.33c0,.14-.08.25-.22.31-.14.06-.28,0-.36-.08-1.31-1.53-3.34-2.39-5.57-2.39-4.76,0-8.49,4-8.49,9.11,0,2.5.86,4.8,2.45,6.5s3.73,2.61,6.04,2.61,4.23-.92,5.57-2.5c.08-.11.25-.14.36-.11.14.06.22.17.22.31v1.86h3.84ZM145.43,23.66c-3.06,0-5.46-2.47-5.46-5.64s2.39-5.64,5.46-5.64,5.46,2.47,5.46,5.64-2.39,5.64-5.46,5.64Z"/>
        <path class="cls-1" d="M175.13,26.69V9.33h-3.81v1.75c0,.14-.08.25-.22.31-.14.06-.28,0-.36-.11-1.28-1.53-3.29-2.39-5.57-2.39-4.76,0-8.49,4-8.49,9.11s3.73,9.11,8.49,9.11c2.2,0,4.23-.92,5.57-2.53.08-.11.25-.14.36-.11.14.06.22.17.22.31v1.89h3.81v.03ZM166.03,23.66c-3.06,0-5.46-2.47-5.46-5.64s2.39-5.64,5.46-5.64,5.46,2.47,5.46,5.64-2.39,5.64-5.46,5.64Z"/>
        <path class="cls-1" d="M207.79,26.69V9.33h-3.81v1.75c0,.14-.08.25-.22.31-.14.06-.28,0-.36-.11-1.28-1.53-3.29-2.39-5.57-2.39-4.79,0-8.49,4-8.49,9.14s3.73,9.11,8.49,9.11c2.2,0,4.23-.92,5.57-2.53.08-.11.25-.14.36-.11.14.06.22.17.22.31v1.89h3.81ZM198.69,23.66c-3.06,0-5.46-2.47-5.46-5.64s2.39-5.64,5.46-5.64,5.46,2.47,5.46,5.64-2.39,5.64-5.46,5.64Z"/>
        <path class="cls-1" d="M214.78,24.63s.08-.03.11-.03c.08,0,.19.06.25.11,1.31,1.53,3.34,2.39,5.57,2.39,4.76,0,8.49-4,8.49-9.11,0-2.5-.86-4.8-2.45-6.5-1.59-1.69-3.73-2.61-6.04-2.61s-4.23.92-5.57,2.5c-.08.11-.22.14-.36.11-.14-.06-.22-.17-.22-.31V1.75h-3.84v24.94h3.84v-1.75c0-.14.08-.25.22-.31ZM214.39,18.02c0-3.17,2.39-5.64,5.46-5.64s5.46,2.47,5.46,5.64-2.39,5.64-5.46,5.64-5.46-2.5-5.46-5.64Z"/>
        <path class="cls-1" d="M240.31,12.89c.36,0,.7.03.92.08v-3.94c-.14-.03-.39-.06-.64-.06-2,0-3.84,1.03-4.82,2.67-.08.14-.22.19-.36.14-.14-.03-.25-.17-.25-.31v-2.14h-3.81v17.39h3.84v-7.67c0-3.81,1.95-6.17,5.12-6.17Z"/>
        <path class="cls-1" d="M247.55,9.33h-3.9v17.39h3.9V9.33Z"/>
        <path class="cls-1" d="M245.55,1.78c-1.31,0-2.37,1.06-2.37,2.36s1.06,2.36,2.37,2.36,2.37-1.06,2.37-2.36-1.06-2.36-2.37-2.36Z"/>
        <path class="cls-1" d="M258.97,8.89c-5.35,0-9.22,3.83-9.22,9.14,0,2.58.92,4.89,2.56,6.55,1.67,1.67,4.01,2.58,6.63,2.58,2.17,0,3.84-.42,7.02-2.75l-2.2-2.31c-1.56,1.03-3.01,1.53-4.43,1.53-3.23,0-5.65-2.42-5.65-5.61s2.42-5.61,5.65-5.61c1.53,0,2.95.5,4.37,1.53l2.45-2.31c-2.87-2.44-5.46-2.75-7.18-2.75Z"/>
        <path class="cls-1" d="M272.72,19.05c.06-.06.14-.08.22-.08h.03c.08,0,.17.06.25.11l6.15,7.61h4.73l-7.96-9.61c-.11-.14-.11-.33.03-.44l7.32-7.3h-4.71l-6.32,6.33c-.08.08-.22.11-.36.08-.11-.06-.19-.17-.19-.31V1.78h-3.87v24.94h3.84v-6.78c0-.08.03-.19.11-.25l.72-.64Z"/>
        <path class="cls-1" d="M290.37,27.13c3.15,0,6.35-1.92,6.35-5.55,0-2.39-1.5-4.03-4.57-5.03l-2.09-.69c-1.42-.47-2.09-1.14-2.09-2.06,0-1.06.95-1.78,2.28-1.78s2.42.83,3.15,2.28l3.09-1.67c-1.14-2.33-3.51-3.78-6.24-3.78-3.45,0-5.96,2.22-5.96,5.25,0,2.42,1.45,4.03,4.43,4.97l2.14.69c1.5.47,2.14,1.08,2.14,2.06,0,1.47-1.36,2-2.53,2-1.56,0-2.95-1-3.62-2.64l-3.15,1.67c1.03,2.64,3.56,4.28,6.65,4.28Z"/>
        <path class="cls-1" d="M185.83,26.97c1.23,0,2.31-.11,2.92-.19v-3.33c-.5.06-1.39.11-1.92.11-1.56,0-2.76-.28-2.76-3.64v-7.14c0-.19.14-.33.33-.33h3.76v-3.14h-3.76c-.19,0-.33-.14-.33-.33V3.97h-3.84v5.03c0,.19-.14.33-.33.33h-2.67v3.14h2.67c.19,0,.33.14.33.33v8.08c0,6.08,4.07,6.08,5.6,6.08Z"/>
        <path class="cls-1" d="M106.3,9.26c-.84.3-1.57.72-2.19,1.27-.32.29-.62.6-.89.95h0s-.34.47-.59.4c-.13-.04-.18-.27-.19-.41v-.09s0,0,0,0h0l-.21-2.15h-3.51v17.49h3.92v-8.5c0-1,.13-1.84.4-2.53.27-.69.63-1.24,1.09-1.63s1.01-.68,1.63-.85c.62-.17,1.3-.26,2.01-.26h1.39v-4.13c-1.06,0-2.02.15-2.86.45Z"/>
      </g>
    </g>
  </g>
</svg>