<svg width="150" height="150" viewBox="0 0 150 150" fill="none" xmlns="http://www.w3.org/2000/svg">
<path d="M23.5 26.2799V104.49H26.5V26.2799C26.5026 23.9936 27.4113 21.8016 29.0271 20.184C30.6428 18.5664 32.8337 17.6552 35.12 17.6499H79.21C81.498 17.6525 83.6915 18.5626 85.3094 20.1805C86.9273 21.7984 87.8373 23.9919 87.84 26.2799V34.6099H32.69V37.6099H90.84V26.2799C90.8373 23.1962 89.6112 20.2396 87.4307 18.0592C85.2503 15.8787 82.2937 14.6526 79.21 14.6499H35.12C32.0381 14.6552 29.084 15.8825 26.9057 18.0627C24.7274 20.2429 23.5026 23.198 23.5 26.2799Z" fill="#FF5F46"/>
<path d="M64.75 25.3899H49.59V28.3899H64.75V25.3899Z" fill="#FF5F46"/>
<path d="M23.5 123.72C23.5026 126.802 24.7274 129.757 26.9057 131.937C29.084 134.117 32.0381 135.345 35.12 135.35H79.21C82.2937 135.347 85.2503 134.121 87.4307 131.941C89.6112 129.76 90.8373 126.804 90.84 123.72V92.0001H104.29C110.18 92.0001 115.83 89.6601 119.995 85.4949C124.16 81.3297 126.5 75.6805 126.5 69.7901C126.5 63.8996 124.16 58.2504 119.995 54.0852C115.83 49.9201 110.18 47.5801 104.29 47.5801H60.37C54.4837 47.588 48.8406 49.9292 44.6775 54.0905C40.5143 58.2518 38.1706 63.8938 38.16 69.7801V103.62L56.89 92.0001H81.33V89.0001H56L41.16 98.2301V69.7801C41.1653 64.6869 43.1909 59.8038 46.7923 56.2024C50.3938 52.601 55.2768 50.5754 60.37 50.5701H104.29C109.385 50.5701 114.271 52.594 117.874 56.1966C121.476 59.7991 123.5 64.6853 123.5 69.7801C123.5 74.8749 121.476 79.761 117.874 83.3636C114.271 86.9662 109.385 88.9901 104.29 88.9901H87.84V123.72C87.8373 126.008 86.9273 128.202 85.3094 129.819C83.6915 131.437 81.498 132.347 79.21 132.35H35.12C32.8337 132.345 30.6428 131.434 29.0271 129.816C27.4113 128.198 26.5026 126.006 26.5 123.72V115.39H81.65V112.39H23.5V123.72Z" fill="#FF5F46"/>
<path d="M56.99 126.95C58.9285 126.95 60.5 125.378 60.5 123.44C60.5 121.501 58.9285 119.93 56.99 119.93C55.0515 119.93 53.48 121.501 53.48 123.44C53.48 125.378 55.0515 126.95 56.99 126.95Z" fill="#FF5F46"/>
</svg>
