<svg width="150" height="150" viewBox="0 0 150 150" fill="none" xmlns="http://www.w3.org/2000/svg">
<path d="M23.5 26.28V104.49H26.5V26.28C26.5026 23.9937 27.4113 21.8017 29.0271 20.1841C30.6428 18.5666 32.8337 17.6553 35.12 17.65H79.21C81.498 17.6527 83.6915 18.5628 85.3094 20.1806C86.9273 21.7985 87.8373 23.992 87.84 26.28V34.61H32.69V37.61H90.84V26.28C90.8373 23.1964 89.6112 20.2398 87.4307 18.0593C85.2503 15.8788 82.2937 14.6527 79.21 14.65H35.12C32.0381 14.6553 29.084 15.8826 26.9057 18.0628C24.7274 20.243 23.5026 23.1981 23.5 26.28V26.28Z" fill="#1B3139"/>
<path d="M64.75 25.39H49.59V28.39H64.75V25.39Z" fill="#1B3139"/>
<path d="M23.5 123.72C23.5026 126.802 24.7274 129.757 26.9057 131.937C29.084 134.117 32.0381 135.345 35.12 135.35H79.21C82.2937 135.347 85.2503 134.121 87.4307 131.941C89.6112 129.76 90.8373 126.804 90.84 123.72V92H104.29C110.18 92 115.83 89.66 119.995 85.4949C124.16 81.3297 126.5 75.6805 126.5 69.79C126.5 63.8996 124.16 58.2504 119.995 54.0852C115.83 49.92 110.18 47.58 104.29 47.58H60.37C54.4837 47.5879 48.8406 49.9291 44.6775 54.0904C40.5143 58.2517 38.1706 63.8937 38.16 69.78V103.62L56.89 92H81.33V89H56L41.16 98.23V69.78C41.1653 64.6868 43.1909 59.8038 46.7923 56.2023C50.3938 52.6009 55.2768 50.5753 60.37 50.57H104.29C109.385 50.57 114.271 52.5939 117.874 56.1965C121.476 59.7991 123.5 64.6852 123.5 69.78C123.5 74.8748 121.476 79.761 117.874 83.3635C114.271 86.9661 109.385 88.99 104.29 88.99H87.84V123.72C87.8373 126.008 86.9273 128.202 85.3094 129.819C83.6915 131.437 81.498 132.347 79.21 132.35H35.12C32.8337 132.345 30.6428 131.433 29.0271 129.816C27.4113 128.198 26.5026 126.006 26.5 123.72V115.39H81.65V112.39H23.5V123.72Z" fill="#1B3139"/>
<path d="M56.99 126.95C58.9285 126.95 60.5 125.379 60.5 123.44C60.5 121.501 58.9285 119.93 56.99 119.93C55.0515 119.93 53.48 121.501 53.48 123.44C53.48 125.379 55.0515 126.95 56.99 126.95Z" fill="#1B3139"/>
</svg>
