<svg width="835" height="558" viewBox="0 0 835 558" fill="none" xmlns="http://www.w3.org/2000/svg">
<g filter="url(#filter0_dddddd_1117_14257)">
<path d="M148 116.336C148 77.4903 179.49 46 218.336 46H339.664C378.51 46 410 77.4903 410 116.336V237.664C410 276.51 378.51 308 339.664 308H218.336C179.49 308 148 276.51 148 237.664V116.336Z" fill="white"/>
</g>
<path d="M292.079 164.267V189.89H266.041V254.344L356.344 164.267H292.079ZM201.656 189.89H266.041V164.267H292.079V99.6562L201.656 189.89Z" fill="#FF5F46"/>
<path d="M201.656 189.89H266.041V164.267H292.079V99.6562L201.656 189.89Z" fill="#FABFBA"/>
<path d="M481.838 214.5V137.22H509.659C515.842 137.22 520.957 138.287 525.005 140.422C529.053 142.482 532.07 145.279 534.058 148.812C536.045 152.345 537.038 156.393 537.038 160.956C537.038 165.225 536.082 169.162 534.168 172.769C532.254 176.302 529.274 179.172 525.226 181.38C521.178 183.514 515.989 184.582 509.659 184.582H495.086V214.5H481.838ZM495.086 173.762H508.886C514.112 173.762 517.866 172.622 520.147 170.34C522.429 167.985 523.57 164.857 523.57 160.956C523.57 156.908 522.429 153.743 520.147 151.462C517.866 149.18 514.112 148.039 508.886 148.039H495.086V173.762ZM544.713 214.5V135.012H557.961V167.47C559.801 164.452 562.303 162.06 565.468 160.294C568.633 158.454 572.203 157.534 576.177 157.534C580.74 157.534 584.604 158.49 587.769 160.404C590.934 162.244 593.326 165.004 594.945 168.684C596.638 172.29 597.484 176.817 597.484 182.263V214.5H584.347V183.478C584.347 178.694 583.316 175.05 581.255 172.548C579.268 170.046 576.214 168.794 572.092 168.794C569.443 168.794 567.051 169.457 564.916 170.782C562.782 172.033 561.089 173.873 559.838 176.302C558.587 178.657 557.961 181.564 557.961 185.023V214.5H544.713ZM634.189 215.825C628.889 215.825 624.105 214.61 619.837 212.182C615.641 209.679 612.329 206.257 609.901 201.914C607.545 197.498 606.368 192.457 606.368 186.79C606.368 180.975 607.582 175.897 610.011 171.554C612.44 167.138 615.752 163.716 619.947 161.287C624.216 158.785 629 157.534 634.299 157.534C639.598 157.534 644.345 158.785 648.541 161.287C652.809 163.716 656.121 167.102 658.477 171.444C660.905 175.786 662.12 180.865 662.12 186.679C662.12 192.494 660.905 197.572 658.477 201.914C656.048 206.257 652.699 209.679 648.43 212.182C644.235 214.61 639.488 215.825 634.189 215.825ZM634.189 204.454C636.838 204.454 639.23 203.791 641.365 202.466C643.573 201.142 645.339 199.154 646.664 196.505C647.989 193.855 648.651 190.58 648.651 186.679C648.651 182.778 647.989 179.54 646.664 176.964C645.413 174.314 643.683 172.327 641.475 171.002C639.341 169.678 636.949 169.015 634.299 169.015C631.723 169.015 629.331 169.678 627.123 171.002C624.915 172.327 623.149 174.314 621.824 176.964C620.499 179.54 619.837 182.778 619.837 186.679C619.837 190.58 620.499 193.855 621.824 196.505C623.149 199.154 624.878 201.142 627.013 202.466C629.221 203.791 631.613 204.454 634.189 204.454ZM693.798 214.5C690.044 214.5 686.769 213.911 683.972 212.734C681.249 211.556 679.115 209.606 677.569 206.882C676.023 204.159 675.251 200.479 675.251 195.842V170.009H665.756V158.858H675.251L676.796 144.175H688.499V158.858H703.623V170.009H688.499V195.842C688.499 198.639 689.087 200.59 690.265 201.694C691.516 202.724 693.577 203.239 696.447 203.239H703.292V214.5H693.798ZM737.318 215.825C732.019 215.825 727.235 214.61 722.966 212.182C718.771 209.679 715.459 206.257 713.03 201.914C710.675 197.498 709.497 192.457 709.497 186.79C709.497 180.975 710.711 175.897 713.14 171.554C715.569 167.138 718.881 163.716 723.076 161.287C727.345 158.785 732.129 157.534 737.428 157.534C742.727 157.534 747.475 158.785 751.67 161.287C755.939 163.716 759.251 167.102 761.606 171.444C764.035 175.786 765.249 180.865 765.249 186.679C765.249 192.494 764.035 197.572 761.606 201.914C759.177 206.257 755.828 209.679 751.559 212.182C747.364 214.61 742.617 215.825 737.318 215.825ZM737.318 204.454C739.967 204.454 742.359 203.791 744.494 202.466C746.702 201.142 748.468 199.154 749.793 196.505C751.118 193.855 751.78 190.58 751.78 186.679C751.78 182.778 751.118 179.54 749.793 176.964C748.542 174.314 746.812 172.327 744.604 171.002C742.47 169.678 740.078 169.015 737.428 169.015C734.852 169.015 732.46 169.678 730.252 171.002C728.044 172.327 726.278 174.314 724.953 176.964C723.628 179.54 722.966 182.778 722.966 186.679C722.966 190.58 723.628 193.855 724.953 196.505C726.278 199.154 728.007 201.142 730.142 202.466C732.35 203.791 734.742 204.454 737.318 204.454ZM774.906 214.5V158.858H786.608L787.602 168.132C789.294 164.894 791.723 162.318 794.888 160.404C798.053 158.49 801.806 157.534 806.149 157.534C810.638 157.534 814.466 158.49 817.63 160.404C820.795 162.244 823.224 164.967 824.917 168.574C826.683 172.18 827.566 176.67 827.566 182.042V214.5H814.318V183.257C814.318 178.62 813.288 175.05 811.227 172.548C809.166 170.046 806.112 168.794 802.064 168.794C799.414 168.794 797.022 169.42 794.888 170.671C792.827 171.922 791.171 173.762 789.92 176.191C788.742 178.546 788.154 181.417 788.154 184.802V214.5H774.906Z" fill="white"/>
<defs>
<filter id="filter0_dddddd_1117_14257" x="0.713516" y="0.681084" width="556.573" height="556.573" filterUnits="userSpaceOnUse" color-interpolation-filters="sRGB">
<feFlood flood-opacity="0" result="BackgroundImageFix"/>
<feColorMatrix in="SourceAlpha" type="matrix" values="0 0 0 0 0 0 0 0 0 0 0 0 0 0 0 0 0 0 127 0" result="hardAlpha"/>
<feOffset dy="2.83243"/>
<feGaussianBlur stdDeviation="2.12432"/>
<feColorMatrix type="matrix" values="0 0 0 0 0.105882 0 0 0 0 0.192157 0 0 0 0 0.223529 0 0 0 0.0196802 0"/>
<feBlend mode="normal" in2="BackgroundImageFix" result="effect1_dropShadow_1117_14257"/>
<feColorMatrix in="SourceAlpha" type="matrix" values="0 0 0 0 0 0 0 0 0 0 0 0 0 0 0 0 0 0 127 0" result="hardAlpha"/>
<feOffset dy="5.66487"/>
<feGaussianBlur stdDeviation="5.66487"/>
<feColorMatrix type="matrix" values="0 0 0 0 0.105882 0 0 0 0 0.192157 0 0 0 0 0.223529 0 0 0 0.04 0"/>
<feBlend mode="normal" in2="effect1_dropShadow_1117_14257" result="effect2_dropShadow_1117_14257"/>
<feColorMatrix in="SourceAlpha" type="matrix" values="0 0 0 0 0 0 0 0 0 0 0 0 0 0 0 0 0 0 127 0" result="hardAlpha"/>
<feOffset dy="12.7459"/>
<feGaussianBlur stdDeviation="9.20541"/>
<feColorMatrix type="matrix" values="0 0 0 0 0.105882 0 0 0 0 0.192157 0 0 0 0 0.223529 0 0 0 0.035 0"/>
<feBlend mode="normal" in2="effect2_dropShadow_1117_14257" result="effect3_dropShadow_1117_14257"/>
<feColorMatrix in="SourceAlpha" type="matrix" values="0 0 0 0 0 0 0 0 0 0 0 0 0 0 0 0 0 0 127 0" result="hardAlpha"/>
<feOffset dy="22.6595"/>
<feGaussianBlur stdDeviation="16.9946"/>
<feColorMatrix type="matrix" values="0 0 0 0 0.105882 0 0 0 0 0.192157 0 0 0 0 0.223529 0 0 0 0.04 0"/>
<feBlend mode="normal" in2="effect3_dropShadow_1117_14257" result="effect4_dropShadow_1117_14257"/>
<feColorMatrix in="SourceAlpha" type="matrix" values="0 0 0 0 0 0 0 0 0 0 0 0 0 0 0 0 0 0 127 0" result="hardAlpha"/>
<feOffset dy="45.3189"/>
<feGaussianBlur stdDeviation="28.3243"/>
<feColorMatrix type="matrix" values="0 0 0 0 0.105882 0 0 0 0 0.192157 0 0 0 0 0.223529 0 0 0 0.0503198 0"/>
<feBlend mode="normal" in2="effect4_dropShadow_1117_14257" result="effect5_dropShadow_1117_14257"/>
<feColorMatrix in="SourceAlpha" type="matrix" values="0 0 0 0 0 0 0 0 0 0 0 0 0 0 0 0 0 0 127 0" result="hardAlpha"/>
<feOffset dy="101.968"/>
<feGaussianBlur stdDeviation="73.6432"/>
<feColorMatrix type="matrix" values="0 0 0 0 0.105882 0 0 0 0 0.192157 0 0 0 0 0.223529 0 0 0 0.07 0"/>
<feBlend mode="normal" in2="effect5_dropShadow_1117_14257" result="effect6_dropShadow_1117_14257"/>
<feBlend mode="normal" in="SourceGraphic" in2="effect6_dropShadow_1117_14257" result="shape"/>
</filter>
</defs>
</svg>
