<svg width="853" height="301" viewBox="0 0 853 301" fill="none" xmlns="http://www.w3.org/2000/svg">
<path d="M103.707 88.9646L75.4023 104.345V196.909L103.707 212.289V253.095L38 215.314V85.9402L103.707 48.1589V88.9646ZM262.999 85.9402V215.314L197.457 253.001V212.2L225.598 196.909V104.345L197.457 89.0534V48.2536L262.999 85.9402Z" fill="#FFDB96"/>
<path d="M202.366 121.996V179.26L150.935 207.892L99.5039 179.26V121.996L150.935 93.364L202.366 121.996ZM114.048 130.142V171.113L150.935 191.649L187.822 171.113V130.142L150.935 109.607L114.048 130.142Z" fill="#FFAB00"/>
<path d="M114.048 130.142V171.113L150.935 191.649L187.822 171.113V130.142L150.935 109.607L114.048 130.142Z" fill="#FFAB00"/>
<path d="M341.001 138.2V60.9202H360.873C369.852 60.9202 377.249 62.5026 383.063 65.6674C388.951 68.7586 393.294 73.2114 396.09 79.0258C398.961 84.7666 400.396 91.685 400.396 99.781C400.396 107.73 398.961 114.575 396.09 120.315C393.294 126.056 388.951 130.472 383.063 133.563C377.249 136.655 369.852 138.2 360.873 138.2H341.001ZM350.274 130.472H360.652C368.086 130.472 374.01 129.258 378.426 126.829C382.842 124.327 386.007 120.794 387.921 116.231C389.834 111.594 390.791 106.111 390.791 99.781C390.791 93.3042 389.834 87.7474 387.921 83.1106C386.007 78.4738 382.842 74.9042 378.426 72.4018C374.01 69.8994 368.086 68.6482 360.652 68.6482H350.274V130.472ZM428.445 139.525C424.029 139.525 420.349 138.715 417.405 137.096C414.461 135.403 412.253 133.195 410.781 130.472C409.309 127.675 408.573 124.695 408.573 121.53C408.573 117.703 409.529 114.464 411.443 111.815C413.43 109.091 416.19 107.031 419.723 105.632C423.256 104.234 427.377 103.535 432.088 103.535H446.55C446.55 99.781 446.109 96.653 445.225 94.1506C444.342 91.6482 442.907 89.7714 440.92 88.5202C438.933 87.269 436.283 86.6434 432.971 86.6434C429.659 86.6434 426.825 87.4898 424.47 89.1826C422.115 90.8018 420.643 93.2306 420.054 96.469H410.56C411.001 92.6418 412.289 89.4402 414.424 86.8642C416.558 84.2146 419.245 82.2274 422.483 80.9026C425.795 79.5042 429.291 78.805 432.971 78.805C438.197 78.805 442.502 79.7618 445.888 81.6754C449.273 83.5154 451.776 86.1282 453.395 89.5138C455.014 92.8258 455.824 96.7634 455.824 101.327V138.2H447.544L446.992 128.264C446.256 129.81 445.299 131.282 444.121 132.68C443.017 134.005 441.693 135.183 440.147 136.213C438.601 137.243 436.835 138.053 434.848 138.642C432.934 139.231 430.8 139.525 428.445 139.525ZM429.769 131.687C432.198 131.687 434.443 131.135 436.504 130.031C438.565 128.927 440.331 127.455 441.803 125.615C443.349 123.701 444.526 121.567 445.336 119.211C446.145 116.856 446.55 114.391 446.55 111.815V110.711H432.861C429.401 110.711 426.568 111.152 424.36 112.035C422.225 112.919 420.68 114.17 419.723 115.789C418.766 117.335 418.288 119.101 418.288 121.088C418.288 123.223 418.729 125.099 419.613 126.719C420.496 128.264 421.784 129.479 423.477 130.362C425.243 131.245 427.341 131.687 429.769 131.687ZM488.845 138.2C485.533 138.2 482.663 137.685 480.234 136.655C477.805 135.624 475.929 133.895 474.604 131.466C473.353 128.963 472.727 125.615 472.727 121.419V87.9682H462.57V80.1298H472.727L473.941 65.6674H482.001V80.1298H498.45V87.9682H482.001V121.419C482.001 124.879 482.7 127.234 484.098 128.485C485.497 129.663 487.962 130.251 491.495 130.251H498.229V138.2H488.845ZM525.967 139.525C521.551 139.525 517.871 138.715 514.927 137.096C511.983 135.403 509.775 133.195 508.303 130.472C506.831 127.675 506.095 124.695 506.095 121.53C506.095 117.703 507.052 114.464 508.966 111.815C510.953 109.091 513.713 107.031 517.246 105.632C520.779 104.234 524.9 103.535 529.611 103.535H544.073C544.073 99.781 543.631 96.653 542.748 94.1506C541.865 91.6482 540.43 89.7714 538.443 88.5202C536.455 87.269 533.806 86.6434 530.494 86.6434C527.182 86.6434 524.348 87.4898 521.993 89.1826C519.638 90.8018 518.166 93.2306 517.577 96.469H508.083C508.524 92.6418 509.812 89.4402 511.947 86.8642C514.081 84.2146 516.767 82.2274 520.006 80.9026C523.318 79.5042 526.814 78.805 530.494 78.805C535.719 78.805 540.025 79.7618 543.411 81.6754C546.796 83.5154 549.299 86.1282 550.918 89.5138C552.537 92.8258 553.347 96.7634 553.347 101.327V138.2H545.067L544.515 128.264C543.779 129.81 542.822 131.282 541.644 132.68C540.54 134.005 539.215 135.183 537.67 136.213C536.124 137.243 534.358 138.053 532.371 138.642C530.457 139.231 528.323 139.525 525.967 139.525ZM527.292 131.687C529.721 131.687 531.966 131.135 534.027 130.031C536.087 128.927 537.854 127.455 539.326 125.615C540.871 123.701 542.049 121.567 542.859 119.211C543.668 116.856 544.073 114.391 544.073 111.815V110.711H530.383C526.924 110.711 524.091 111.152 521.883 112.035C519.748 112.919 518.203 114.17 517.246 115.789C516.289 117.335 515.811 119.101 515.811 121.088C515.811 123.223 516.252 125.099 517.135 126.719C518.019 128.264 519.307 129.479 520.999 130.362C522.766 131.245 524.863 131.687 527.292 131.687ZM594.281 139.525C590.748 139.525 587.694 139.01 585.118 137.979C582.615 136.875 580.481 135.514 578.714 133.895C577.022 132.275 575.623 130.693 574.519 129.147L573.746 138.2H565.356V58.7122H574.63V89.293C576.396 85.8338 579.009 83.221 582.468 81.4546C585.927 79.6882 589.791 78.805 594.06 78.805C599.359 78.805 603.996 80.093 607.97 82.669C611.945 85.245 615.036 88.8146 617.244 93.3778C619.452 97.8674 620.556 103.056 620.556 108.944C620.556 114.759 619.452 119.984 617.244 124.621C615.036 129.258 611.945 132.901 607.97 135.551C604.07 138.2 599.506 139.525 594.281 139.525ZM593.066 131.466C596.526 131.466 599.58 130.583 602.23 128.816C604.953 126.976 607.087 124.4 608.633 121.088C610.252 117.703 611.062 113.728 611.062 109.165C611.062 104.602 610.252 100.664 608.633 97.3522C607.087 93.9666 604.953 91.3906 602.23 89.6242C599.58 87.7842 596.526 86.8642 593.066 86.8642C589.386 86.8642 586.185 87.7842 583.462 89.6242C580.738 91.3906 578.641 93.9666 577.169 97.3522C575.697 100.664 574.961 104.602 574.961 109.165C574.961 113.728 575.697 117.703 577.169 121.088C578.641 124.4 580.738 126.976 583.462 128.816C586.185 130.583 589.386 131.466 593.066 131.466ZM630.721 138.2V80.1298H639.111L639.773 90.7282C641.098 88.0786 642.828 85.8706 644.962 84.1042C647.097 82.3378 649.673 81.013 652.69 80.1298C655.781 79.2466 659.241 78.805 663.068 78.805V88.5202H657.327C655.119 88.5202 652.985 88.8146 650.924 89.4034C648.863 89.9922 646.986 90.949 645.293 92.2738C643.674 93.5986 642.386 95.4018 641.429 97.6834C640.473 99.965 639.994 102.835 639.994 106.295V138.2H630.721ZM671.309 138.2V80.1298H680.583V138.2H671.309ZM675.946 69.0898C674.106 69.0898 672.56 68.501 671.309 67.3234C670.131 66.0722 669.543 64.5266 669.543 62.6866C669.543 60.8466 670.131 59.3746 671.309 58.2706C672.56 57.093 674.106 56.5042 675.946 56.5042C677.712 56.5042 679.221 57.093 680.472 58.2706C681.723 59.3746 682.349 60.8466 682.349 62.6866C682.349 64.5266 681.723 66.0722 680.472 67.3234C679.221 68.501 677.712 69.0898 675.946 69.0898ZM718.804 139.525C713.505 139.525 708.795 138.274 704.673 135.771C700.551 133.195 697.313 129.626 694.958 125.063C692.603 120.499 691.425 115.2 691.425 109.165C691.425 103.056 692.603 97.757 694.958 93.2674C697.313 88.7042 700.551 85.1714 704.673 82.669C708.795 80.093 713.505 78.805 718.804 78.805C725.428 78.805 730.948 80.5714 735.364 84.1042C739.854 87.637 742.724 92.3842 743.975 98.3458H734.481C733.671 94.6658 731.795 91.8322 728.851 89.845C725.98 87.7842 722.595 86.7538 718.694 86.7538C715.308 86.7538 712.254 87.6002 709.531 89.293C706.881 90.9858 704.783 93.4882 703.238 96.8002C701.692 100.112 700.919 104.234 700.919 109.165C700.919 112.845 701.361 116.12 702.244 118.991C703.127 121.787 704.342 124.143 705.887 126.056C707.507 127.896 709.383 129.295 711.518 130.251C713.726 131.208 716.118 131.687 718.694 131.687C721.343 131.687 723.735 131.245 725.87 130.362C728.078 129.405 729.918 128.043 731.39 126.277C732.935 124.511 733.966 122.413 734.481 119.984H743.975C742.798 125.799 739.927 130.509 735.364 134.115C730.875 137.722 725.355 139.525 718.804 139.525ZM788.262 138.2L761.877 106.847L786.717 80.1298H798.088L769.715 110.159L769.825 103.535L800.075 138.2H788.262ZM754.149 138.2V58.7122H763.422V138.2H754.149ZM824.317 139.525C819.092 139.525 814.749 138.752 811.29 137.207C807.905 135.587 805.329 133.379 803.562 130.583C801.796 127.712 800.729 124.4 800.361 120.647H809.855C810.149 122.634 810.812 124.474 811.842 126.167C812.946 127.786 814.529 129.111 816.589 130.141C818.65 131.171 821.263 131.687 824.428 131.687C826.93 131.687 829.065 131.319 830.831 130.583C832.597 129.773 833.922 128.669 834.805 127.271C835.762 125.872 836.241 124.253 836.241 122.413C836.241 119.984 835.689 118.107 834.585 116.783C833.554 115.384 832.009 114.354 829.948 113.691C827.961 112.955 825.458 112.403 822.441 112.035C819.202 111.594 816.332 110.968 813.829 110.159C811.327 109.349 809.193 108.282 807.426 106.957C805.733 105.632 804.445 103.976 803.562 101.989C802.679 100.002 802.237 97.6466 802.237 94.9234C802.237 91.7586 803.084 88.9618 804.777 86.533C806.469 84.1042 808.861 82.2274 811.953 80.9026C815.117 79.5042 818.834 78.805 823.103 78.805C829.359 78.805 834.29 80.2402 837.897 83.1106C841.577 85.981 843.748 90.0658 844.41 95.365H835.247C834.879 92.6418 833.628 90.5074 831.493 88.9618C829.359 87.4162 826.525 86.6434 822.993 86.6434C819.239 86.6434 816.405 87.3426 814.492 88.741C812.578 90.1394 811.621 91.9794 811.621 94.261C811.621 95.9538 812.026 97.4994 812.836 98.8978C813.719 100.223 815.191 101.363 817.252 102.32C819.313 103.203 822.073 103.866 825.532 104.307C829.874 104.823 833.554 105.669 836.572 106.847C839.589 107.951 841.871 109.68 843.417 112.035C845.036 114.391 845.809 117.592 845.735 121.64C845.735 125.467 844.815 128.706 842.975 131.355C841.209 134.005 838.706 136.029 835.468 137.427C832.303 138.826 828.586 139.525 824.317 139.525ZM375.556 238.525C368.122 238.525 361.535 236.869 355.794 233.557C350.127 230.171 345.674 225.498 342.436 219.536C339.198 213.501 337.578 206.509 337.578 198.56C337.578 190.685 339.198 183.767 342.436 177.805C345.674 171.77 350.127 167.059 355.794 163.674C361.535 160.288 368.122 158.595 375.556 158.595C383.137 158.595 389.798 160.288 395.538 163.674C401.279 167.059 405.732 171.77 408.897 177.805C412.062 183.767 413.644 190.685 413.644 198.56C413.644 206.509 412.062 213.501 408.897 219.536C405.732 225.498 401.279 230.171 395.538 233.557C389.798 236.869 383.137 238.525 375.556 238.525ZM375.666 226.602C380.598 226.602 384.903 225.498 388.583 223.29C392.263 221.008 395.097 217.77 397.084 213.575C399.071 209.379 400.065 204.375 400.065 198.56C400.065 192.746 399.071 187.741 397.084 183.546C395.097 179.351 392.263 176.149 388.583 173.941C384.903 171.659 380.598 170.519 375.666 170.519C370.735 170.519 366.43 171.659 362.75 173.941C359.07 176.149 356.199 179.351 354.138 183.546C352.151 187.741 351.158 192.746 351.158 198.56C351.158 204.375 352.151 209.379 354.138 213.575C356.199 217.77 359.07 221.008 362.75 223.29C366.43 225.498 370.735 226.602 375.666 226.602ZM422.835 237.2V181.559H434.537L435.531 190.832C437.224 187.594 439.652 185.018 442.817 183.104C445.982 181.191 449.736 180.234 454.078 180.234C458.568 180.234 462.395 181.191 465.56 183.104C468.724 184.944 471.153 187.667 472.846 191.274C474.612 194.88 475.496 199.37 475.496 204.743V237.2H462.248V205.957C462.248 201.32 461.217 197.751 459.156 195.248C457.096 192.746 454.041 191.495 449.993 191.495C447.344 191.495 444.952 192.12 442.817 193.371C440.756 194.623 439.1 196.463 437.849 198.891C436.672 201.247 436.083 204.117 436.083 207.503V237.2H422.835ZM512.205 238.525C506.685 238.525 501.828 237.347 497.633 234.992C493.437 232.563 490.162 229.178 487.807 224.835C485.452 220.493 484.274 215.488 484.274 209.821C484.274 203.933 485.415 198.781 487.697 194.365C490.052 189.949 493.327 186.49 497.522 183.987C501.791 181.485 506.722 180.234 512.316 180.234C517.762 180.234 522.509 181.448 526.557 183.877C530.605 186.306 533.733 189.581 535.941 193.703C538.149 197.751 539.253 202.314 539.253 207.392C539.253 208.128 539.253 208.938 539.253 209.821C539.253 210.704 539.18 211.624 539.033 212.581H493.769V204.08H525.895C525.748 200.032 524.386 196.867 521.81 194.586C519.234 192.231 516.033 191.053 512.205 191.053C509.482 191.053 506.98 191.679 504.698 192.93C502.417 194.181 500.613 196.058 499.289 198.56C497.964 200.989 497.301 204.08 497.301 207.834V211.035C497.301 214.495 497.927 217.475 499.178 219.978C500.503 222.48 502.269 224.394 504.477 225.719C506.759 226.97 509.298 227.595 512.095 227.595C515.186 227.595 517.725 226.933 519.713 225.608C521.773 224.283 523.282 222.517 524.239 220.309H537.708C536.677 223.768 534.985 226.896 532.629 229.693C530.274 232.416 527.367 234.587 523.908 236.207C520.449 237.752 516.548 238.525 512.205 238.525Z" fill="#1B3139"/>
</svg>
