<svg width="150" height="150" viewBox="0 0 150 150" fill="none" xmlns="http://www.w3.org/2000/svg">
<path d="M88.7 60.6L60.9 75L62.3 77.7L90 63.3C91.1 62.7 91.8 61.5 91.8 60.3C91.8 59.1 91.1 57.8 90 57.3L65.1 44.3C64 43.7 62.8 43.8 61.7 44.4C60.7 45 60.1 46.1 60.1 47.3V68.7H63.1V47.3C63.1 47.1 63.2 47 63.3 46.9C63.4 46.9 63.5 46.8 63.7 46.9L88.6 59.9C88.8 60 88.8 60.2 88.8 60.3C88.8 60.4 88.9 60.5 88.7 60.6Z" fill="#1B3139"/>
<path d="M126.3 96.9L124.1 99L133.6 109H23.9V112H135.6V115.6C135.6 117.8 133.8 119.6 131.6 119.6H18.4C16.2 119.6 14.4 117.8 14.4 115.6V111.1L29.5 95.1H122.6V34.1C122.6 30.4 119.6 27.4 115.9 27.4H34C30.3 27.4 27.3 30.4 27.3 34.1V86.7H30.3V34.1C30.3 32.1 31.9 30.4 34 30.4H116C118 30.4 119.7 32 119.7 34.1V92.2H28.2L11.4 110V115.7C11.4 119.6 14.5 122.7 18.4 122.7H131.6C135.5 122.7 138.6 119.6 138.6 115.7V110L126.3 96.9Z" fill="#1B3139"/>
</svg>
