<svg width="150" height="150" viewBox="0 0 150 150" fill="none" xmlns="http://www.w3.org/2000/svg">
<path d="M88.7 60.5998L60.9 74.9998L62.3 77.6998L90 63.2998C91.1 62.6998 91.8 61.4998 91.8 60.2998C91.8 59.0998 91.1 57.7998 90 57.2998L65.1 44.2998C64 43.6998 62.8 43.7998 61.7 44.3998C60.7 44.9998 60.1 46.0998 60.1 47.2998V68.6998H63.1V47.2998C63.1 47.0998 63.2 46.9998 63.3 46.8998C63.4 46.8998 63.5 46.7998 63.7 46.8998L88.6 59.8998C88.8 59.9998 88.8 60.1998 88.8 60.2998C88.8 60.3998 88.9 60.4998 88.7 60.5998Z" fill="#FF5F46"/>
<path d="M126.3 96.8999L124.1 98.9999L133.6 109H23.9V112H135.6V115.6C135.6 117.8 133.8 119.6 131.6 119.6H18.4C16.2 119.6 14.4 117.8 14.4 115.6V111.1L29.5 95.0999H122.6V34.0999C122.6 30.3999 119.6 27.3999 115.9 27.3999H34C30.3 27.3999 27.3 30.3999 27.3 34.0999V86.6999H30.3V34.0999C30.3 32.0999 31.9 30.3999 34 30.3999H116C118 30.3999 119.7 31.9999 119.7 34.0999V92.1999H28.2L11.4 110V115.7C11.4 119.6 14.5 122.7 18.4 122.7H131.6C135.5 122.7 138.6 119.6 138.6 115.7V110L126.3 96.8999Z" fill="#FF5F46"/>
</svg>
