<svg fill="none" height="150" viewBox="0 0 150 150" width="150" xmlns="http://www.w3.org/2000/svg"><g clip-rule="evenodd" fill="#1b3139" fill-rule="evenodd"><path d="m102.006 20.7991 1.132-2.054c17.819 4.8715 29.185 17.4361 32.651 22.774l-1.605 1.7066-20.019-11.3238zm5.786 2.0163 7.798 7.1213 14.435 8.1654c-4.477-4.921-12.025-11.3342-22.233-15.2867zm-35.7159-2.885-13.4382 17.4911h-13.743l1.7971-2.0099c3.871-4.3295 6.8651-6.8835 10.1046-8.8206 2.8991-1.7336 5.9685-2.9533 9.9162-4.5221.4181-.1662.846-.3362 1.2846-.5112zm-21.728 15.079h7.1012l7.359-9.5784c-2.6131 1.065-4.7379 2.0128-6.7738 3.2302-2.4581 1.4699-4.8092 3.3497-7.6864 6.3482zm56.1729 10.6708 14.457 28.9146-23.583 22.5207-29.1063-15.2967 6.3784-31.4667zm-29.8266 6.8125-5.6823 28.0324 25.9706 13.6488 21.0413-20.0935-12.88-25.7603zm65.3846 1.4776 1.543 2.7633c1.557 2.7885 2.405 6.9212 2.824 11.0835.423 4.2022.423 8.5999.189 12.03-.287 4.2005-1.731 9.2945-3.417 13.8932-1.691 4.6122-3.665 8.8337-5.078 11.3147l-2.254-.637.909-26.6959zm.809 7.4718-3.69 16.5856-.712 20.9346c.821-1.8236 1.674-3.89 2.467-6.0523 1.66-4.5271 3.012-9.3678 3.275-13.2273.226-3.31.226-7.5711-.182-11.6241-.241-2.4022-.621-4.6756-1.158-6.6165zm-94.8271 28.8061-16.9742-15.9673 1.6527-1.7569 17.4944 16.4566 5.672 23.1534c1.8423 1.551 4.8318 3.867 8.1428 6.046 3.3611 2.213 6.9652 4.226 10.001 5.196l23.0357-10.108 27.8677 7.146-2.592 1.475c-2.225 1.266-7.511 4.01-14.1 6.44-6.575 2.426-14.5343 4.573-22.0759 4.573-.4915 0-.989-.141-1.4316-.311-.4583-.177-.947-.419-1.4442-.696-.993-.552-2.1192-1.296-3.2541-2.066-.3525-.239-.7053-.481-1.0563-.721-1.938-1.326-3.8209-2.614-5.3038-3.317-3.4537-1.03-7.4398-3.27-10.9728-5.596-3.4554-2.275-6.5681-4.692-8.4698-6.3l-10.4442-2.814.6275-2.329 8.7346 2.353zm28.78 34.5368c1.1623.716 2.392 1.559 3.5617 2.36.3421.234.679.465 1.0076.688 1.1348.771 2.1821 1.46 3.0715 1.954.4439.247.8237.432 1.1367.552.3287.126.5054.15.5667.15 7.1322 0 14.7849-2.041 21.2419-4.423 4.503-1.661 8.382-3.472 11.038-4.826l-21.1726-5.429z"/><path d="m75.8922 52.9088c-6.3449-9.2455-14.6254-14.5076-17.8616-15.9444l.9789-2.2046c3.6063 1.6012 12.2518 7.1381 18.8715 16.7841z"/><path d="m109.073 38.73c2.085-3.6312 4.349-7.2488 5.799-9.4751l2.021 1.3167c-1.43 2.1959-3.669 5.7745-5.728 9.3596-2.079 3.6205-3.907 7.1337-4.586 9.2461l-2.297-.7381c.768-2.3902 2.726-6.1135 4.791-9.7092z"/><path d="m138.783 79.1423-20.906-3.8193.434-2.3728 20.905 3.8192z"/><path d="m96.0864 115.188-.4531-20.3521 2.4115-.0537.4531 20.3528z"/><path d="m48.2877 89.0818 21.8827-9.6179.9706 2.2082-21.8827 9.6179z"/><path d="m143.881 75.0002c0 30.5598-24.774 55.3338-55.334 55.3338-30.5602 0-55.3342-24.774-55.3342-55.3338 0-1.4329.0545-2.8531.1615-4.2586h-2.8449c-.1018 1.4063-.1535 2.8264-.1535 4.2586 0 32.1268 26.044 58.1708 58.1711 58.1708 32.127 0 58.171-26.044 58.171-58.1708 0-32.127-26.044-58.1711-58.171-58.1711-17.4192 0-33.0501 7.6564-43.7111 19.7874h3.8543c10.0656-10.4495 24.202-16.9504 39.8568-16.9504 30.56 0 55.334 24.7739 55.334 55.3341zm-112.9539-8.0412h2.8658c.5655-3.8847 1.5347-7.6384 2.8635-11.2174h-3.0169c-1.2595 3.5912-2.1767 7.3433-2.7124 11.2174zm14.4359-26.5599c-2.8282 3.5253-5.2337 7.4042-7.1395 11.5599h-3.106c1.7799-4.1219 4.0229-7.997 6.6633-11.5599z"/><path d="m65.9238 37.5977h-42.4084v-2.837h42.4084z"/><path d="m52.2653 53.003h-49.05766v-2.837h49.05766z"/><path d="m42.903 68.3741h-24.2717v-2.837h24.2717z"/><path d="m54.8287 40.3379-14.161 6.24-.925-2.2276 9.6084-4.0124z"/></g></svg>