<svg width="150" height="150" viewBox="0 0 150 150" fill="none" xmlns="http://www.w3.org/2000/svg">
<path fill-rule="evenodd" clip-rule="evenodd" d="M102.006 20.7991L103.138 18.7451C120.957 23.6166 132.323 36.1812 135.789 41.5191L134.184 43.2257L114.165 31.9019L102.006 20.7991ZM107.792 22.8154L115.59 29.9367L130.025 38.1021C125.548 33.1811 118 26.7679 107.792 22.8154ZM72.0761 19.9304L58.6379 37.4215H44.8949L46.692 35.4116C50.563 31.0821 53.5571 28.5281 56.7966 26.591C59.6957 24.8574 62.7651 23.6377 66.7128 22.0689C67.1309 21.9027 67.5588 21.7327 67.9974 21.5577L72.0761 19.9304ZM50.3481 35.0094H57.4493L64.8083 25.431C62.1952 26.496 60.0704 27.4438 58.0345 28.6612C55.5764 30.1311 53.2253 32.0109 50.3481 35.0094ZM106.521 45.6802L120.978 74.5948L97.395 97.1155L68.2887 81.8188L74.6671 50.3521L106.521 45.6802ZM76.6944 52.4927L71.0121 80.5251L96.9827 94.1739L118.024 74.0804L105.144 48.3201L76.6944 52.4927ZM142.079 53.9703L143.622 56.7336C145.179 59.5221 146.027 63.6548 146.446 67.8171C146.869 72.0193 146.869 76.417 146.635 79.8471C146.348 84.0476 144.904 89.1416 143.218 93.7403C141.527 98.3525 139.553 102.574 138.14 105.055L135.886 104.418L136.795 77.7221L142.079 53.9703ZM142.888 61.4421L139.198 78.0277L138.486 98.9623C139.307 97.1387 140.16 95.0723 140.953 92.91C142.613 88.3829 143.965 83.5422 144.228 79.6827C144.454 76.3727 144.454 72.1116 144.046 68.0586C143.805 65.6564 143.425 63.383 142.888 61.4421ZM48.0609 90.2482L31.0867 74.2809L32.7394 72.524L50.2338 88.9806L55.9058 112.134C57.7481 113.685 60.7376 116.001 64.0486 118.18C67.4097 120.393 71.0138 122.406 74.0496 123.376L97.0853 113.268L124.953 120.414L122.361 121.889C120.136 123.155 114.85 125.899 108.261 128.329C101.686 130.755 93.7267 132.902 86.1851 132.902C85.6936 132.902 85.1961 132.761 84.7535 132.591C84.2952 132.414 83.8065 132.172 83.3093 131.895C82.3163 131.343 81.1901 130.599 80.0552 129.829C79.7027 129.59 79.3499 129.348 78.9989 129.108C77.0609 127.782 75.178 126.494 73.6951 125.791C70.2414 124.761 66.2553 122.521 62.7223 120.195C59.2669 117.92 56.1542 115.503 54.2525 113.895L43.8083 111.081L44.4358 108.752L53.1704 111.105L48.0609 90.2482ZM76.8409 124.785C78.0032 125.501 79.2329 126.344 80.4026 127.145C80.7447 127.379 81.0816 127.61 81.4102 127.833C82.545 128.604 83.5923 129.293 84.4817 129.787C84.9256 130.034 85.3054 130.219 85.6184 130.339C85.9471 130.465 86.1238 130.489 86.1851 130.489C93.3173 130.489 100.97 128.448 107.427 126.066C111.93 124.405 115.809 122.594 118.465 121.24L97.2924 115.811L76.8409 124.785Z" fill="#FF5F46"/>
<path fill-rule="evenodd" clip-rule="evenodd" d="M75.8922 52.9088C69.5473 43.6633 61.2668 38.4012 58.0306 36.9644L59.0095 34.7598C62.6158 36.361 71.2613 41.8979 77.881 51.5439L75.8922 52.9088Z" fill="#FF5F46"/>
<path fill-rule="evenodd" clip-rule="evenodd" d="M109.073 38.73C111.158 35.0988 113.422 31.4812 114.872 29.2549L116.893 30.5716C115.463 32.7675 113.224 36.3461 111.165 39.9312C109.086 43.5517 107.258 47.0649 106.579 49.1773L104.282 48.4392C105.05 46.049 107.008 42.3257 109.073 38.73Z" fill="#FF5F46"/>
<path fill-rule="evenodd" clip-rule="evenodd" d="M138.783 79.1423L117.877 75.323L118.311 72.9502L139.216 76.7694L138.783 79.1423Z" fill="#FF5F46"/>
<path fill-rule="evenodd" clip-rule="evenodd" d="M96.0864 115.188L95.6333 94.8359L98.0448 94.7822L98.4979 115.135L96.0864 115.188Z" fill="#FF5F46"/>
<path fill-rule="evenodd" clip-rule="evenodd" d="M48.2877 89.0818L70.1704 79.4639L71.141 81.6721L49.2583 91.29L48.2877 89.0818Z" fill="#FF5F46"/>
<path fill-rule="evenodd" clip-rule="evenodd" d="M143.881 75.0002C143.881 105.56 119.107 130.334 88.547 130.334C57.9868 130.334 33.2128 105.56 33.2128 75.0002C33.2128 73.5673 33.2673 72.1471 33.3743 70.7416H30.5294C30.4276 72.1479 30.3759 73.568 30.3759 75.0002C30.3759 107.127 56.4199 133.171 88.547 133.171C120.674 133.171 146.718 107.127 146.718 75.0002C146.718 42.8732 120.674 16.8291 88.547 16.8291C71.1278 16.8291 55.4969 24.4855 44.8359 36.6165H48.6902C58.7558 26.167 72.8922 19.6661 88.547 19.6661C119.107 19.6661 143.881 44.44 143.881 75.0002ZM30.9271 66.959H33.7929C34.3584 63.0743 35.3276 59.3206 36.6564 55.7416H33.6395C32.38 59.3328 31.4628 63.0849 30.9271 66.959ZM45.363 40.3991C42.5348 43.9244 40.1293 47.8033 38.2235 51.959H35.1175C36.8974 47.8371 39.1404 43.962 41.7808 40.3991H45.363Z" fill="#FF5F46"/>
<path fill-rule="evenodd" clip-rule="evenodd" d="M65.9238 37.5977L23.5154 37.5977L23.5154 34.7607L65.9238 34.7607L65.9238 37.5977Z" fill="#FF5F46"/>
<path fill-rule="evenodd" clip-rule="evenodd" d="M52.2653 53.003L3.20764 53.003L3.20764 50.166L52.2653 50.166L52.2653 53.003Z" fill="#FF5F46"/>
<path fill-rule="evenodd" clip-rule="evenodd" d="M42.903 68.3741L18.6313 68.3741L18.6313 65.5371L42.903 65.5371L42.903 68.3741Z" fill="#FF5F46"/>
<path fill-rule="evenodd" clip-rule="evenodd" d="M54.8287 40.3379L40.6677 46.5779L39.7427 44.3503L49.3511 40.3379H54.8287Z" fill="#FF5F46"/>
</svg>
