<svg width="1512" height="724" viewBox="0 0 1512 724" fill="none" xmlns="http://www.w3.org/2000/svg">
<g filter="url(#filter0_dddddd_1117_13279)">
<path d="M192 150.383C192 99.9134 232.913 59 283.383 59H441.017C491.487 59 532.4 99.9134 532.4 150.383V308.017C532.4 358.487 491.487 399.4 441.017 399.4H283.383C232.913 399.4 192 358.487 192 308.017V150.383Z" fill="white"/>
</g>
<path d="M393.781 263.227L329.772 263.227L329.772 199.895L393.781 135.895L425.78 167.895L457.779 199.895L393.781 263.227Z" fill="#FF5F46"/>
<path d="M458 327.001L394 327.001L394 263.003L458 263.003L458 327.001Z" fill="#FABFBA"/>
<path d="M330 327.001L266 327.001L266 263.003L330 263.003L330 327.001Z" fill="#FABFBA"/>
<path d="M330 198.999L266 198.999L266 135L330 135L330 198.999Z" fill="#FABFBA"/>
<path d="M603.901 217.2V139.92H623.773C632.752 139.92 640.149 141.503 645.964 144.667C651.852 147.759 656.194 152.211 658.991 158.026C661.861 163.767 663.296 170.685 663.296 178.781C663.296 186.73 661.861 193.575 658.991 199.315C656.194 205.056 651.852 209.472 645.964 212.563C640.149 215.655 632.752 217.2 623.773 217.2H603.901ZM613.175 209.472H623.552C630.986 209.472 636.911 208.258 641.327 205.829C645.743 203.327 648.908 199.794 650.821 195.231C652.735 190.594 653.692 185.111 653.692 178.781C653.692 172.304 652.735 166.747 650.821 162.111C648.908 157.474 645.743 153.904 641.327 151.402C636.911 148.899 630.986 147.648 623.552 147.648H613.175V209.472ZM691.345 218.525C686.929 218.525 683.249 217.715 680.305 216.096C677.361 214.403 675.153 212.195 673.681 209.472C672.209 206.675 671.473 203.695 671.473 200.53C671.473 196.703 672.43 193.464 674.343 190.815C676.33 188.091 679.09 186.031 682.623 184.632C686.156 183.234 690.278 182.535 694.988 182.535H709.45C709.45 178.781 709.009 175.653 708.126 173.151C707.242 170.648 705.807 168.771 703.82 167.52C701.833 166.269 699.183 165.643 695.871 165.643C692.559 165.643 689.726 166.49 687.37 168.183C685.015 169.802 683.543 172.231 682.954 175.469H673.46C673.902 171.642 675.19 168.44 677.324 165.864C679.458 163.215 682.145 161.227 685.383 159.903C688.695 158.504 692.191 157.805 695.871 157.805C701.097 157.805 705.402 158.762 708.788 160.675C712.174 162.515 714.676 165.128 716.295 168.514C717.914 171.826 718.724 175.763 718.724 180.327V217.2H710.444L709.892 207.264C709.156 208.81 708.199 210.282 707.022 211.68C705.918 213.005 704.593 214.183 703.047 215.213C701.502 216.243 699.735 217.053 697.748 217.642C695.834 218.231 693.7 218.525 691.345 218.525ZM692.67 210.687C695.098 210.687 697.343 210.135 699.404 209.031C701.465 207.927 703.231 206.455 704.703 204.615C706.249 202.701 707.426 200.567 708.236 198.211C709.046 195.856 709.45 193.391 709.45 190.815V189.711H695.761C692.302 189.711 689.468 190.152 687.26 191.035C685.126 191.919 683.58 193.17 682.623 194.789C681.666 196.335 681.188 198.101 681.188 200.088C681.188 202.223 681.63 204.099 682.513 205.719C683.396 207.264 684.684 208.479 686.377 209.362C688.143 210.245 690.241 210.687 692.67 210.687ZM751.746 217.2C748.434 217.2 745.563 216.685 743.135 215.655C740.706 214.624 738.829 212.895 737.504 210.466C736.253 207.963 735.627 204.615 735.627 200.419V166.968H725.471V159.13H735.627L736.842 144.667H744.901V159.13H761.351V166.968H744.901V200.419C744.901 203.879 745.6 206.234 746.999 207.485C748.397 208.663 750.863 209.251 754.395 209.251H761.13V217.2H751.746ZM788.868 218.525C784.452 218.525 780.772 217.715 777.828 216.096C774.884 214.403 772.676 212.195 771.204 209.472C769.732 206.675 768.996 203.695 768.996 200.53C768.996 196.703 769.953 193.464 771.866 190.815C773.853 188.091 776.613 186.031 780.146 184.632C783.679 183.234 787.801 182.535 792.511 182.535H806.973C806.973 178.781 806.532 175.653 805.649 173.151C804.765 170.648 803.33 168.771 801.343 167.52C799.356 166.269 796.706 165.643 793.394 165.643C790.082 165.643 787.249 166.49 784.893 168.183C782.538 169.802 781.066 172.231 780.477 175.469H770.983C771.425 171.642 772.713 168.44 774.847 165.864C776.981 163.215 779.668 161.227 782.906 159.903C786.218 158.504 789.714 157.805 793.394 157.805C798.62 157.805 802.925 158.762 806.311 160.675C809.697 162.515 812.199 165.128 813.818 168.514C815.437 171.826 816.247 175.763 816.247 180.327V217.2H807.967L807.415 207.264C806.679 208.81 805.722 210.282 804.545 211.68C803.441 213.005 802.116 214.183 800.57 215.213C799.025 216.243 797.258 217.053 795.271 217.642C793.357 218.231 791.223 218.525 788.868 218.525ZM790.193 210.687C792.621 210.687 794.866 210.135 796.927 209.031C798.988 207.927 800.754 206.455 802.226 204.615C803.772 202.701 804.949 200.567 805.759 198.211C806.569 195.856 806.973 193.391 806.973 190.815V189.711H793.284C789.825 189.711 786.991 190.152 784.783 191.035C782.649 191.919 781.103 193.17 780.146 194.789C779.189 196.335 778.711 198.101 778.711 200.088C778.711 202.223 779.153 204.099 780.036 205.719C780.919 207.264 782.207 208.479 783.9 209.362C785.666 210.245 787.764 210.687 790.193 210.687ZM857.181 218.525C853.648 218.525 850.594 218.01 848.018 216.979C845.516 215.875 843.381 214.514 841.615 212.895C839.922 211.275 838.524 209.693 837.42 208.147L836.647 217.2H828.256V137.712H837.53V168.293C839.296 164.834 841.909 162.221 845.368 160.455C848.828 158.688 852.692 157.805 856.96 157.805C862.26 157.805 866.896 159.093 870.871 161.669C874.845 164.245 877.936 167.815 880.144 172.378C882.352 176.867 883.456 182.056 883.456 187.944C883.456 193.759 882.352 198.984 880.144 203.621C877.936 208.258 874.845 211.901 870.871 214.551C866.97 217.2 862.407 218.525 857.181 218.525ZM855.967 210.466C859.426 210.466 862.48 209.583 865.13 207.816C867.853 205.976 869.988 203.4 871.533 200.088C873.152 196.703 873.962 192.728 873.962 188.165C873.962 183.602 873.152 179.664 871.533 176.352C869.988 172.967 867.853 170.391 865.13 168.624C862.48 166.784 859.426 165.864 855.967 165.864C852.287 165.864 849.085 166.784 846.362 168.624C843.639 170.391 841.541 172.967 840.069 176.352C838.597 179.664 837.861 183.602 837.861 188.165C837.861 192.728 838.597 196.703 840.069 200.088C841.541 203.4 843.639 205.976 846.362 207.816C849.085 209.583 852.287 210.466 855.967 210.466ZM893.621 217.2V159.13H902.011L902.674 169.728C903.999 167.079 905.728 164.871 907.863 163.104C909.997 161.338 912.573 160.013 915.591 159.13C918.682 158.247 922.141 157.805 925.968 157.805V167.52H920.227C918.019 167.52 915.885 167.815 913.824 168.403C911.763 168.992 909.887 169.949 908.194 171.274C906.575 172.599 905.287 174.402 904.33 176.683C903.373 178.965 902.895 181.835 902.895 185.295V217.2H893.621ZM934.209 217.2V159.13H943.483V217.2H934.209ZM938.846 148.09C937.006 148.09 935.461 147.501 934.209 146.323C933.032 145.072 932.443 143.527 932.443 141.687C932.443 139.847 933.032 138.375 934.209 137.271C935.461 136.093 937.006 135.504 938.846 135.504C940.613 135.504 942.121 136.093 943.373 137.271C944.624 138.375 945.249 139.847 945.249 141.687C945.249 143.527 944.624 145.072 943.373 146.323C942.121 147.501 940.613 148.09 938.846 148.09ZM981.705 218.525C976.405 218.525 971.695 217.274 967.573 214.771C963.452 212.195 960.213 208.626 957.858 204.063C955.503 199.499 954.325 194.2 954.325 188.165C954.325 182.056 955.503 176.757 957.858 172.267C960.213 167.704 963.452 164.171 967.573 161.669C971.695 159.093 976.405 157.805 981.705 157.805C988.329 157.805 993.849 159.571 998.265 163.104C1002.75 166.637 1005.62 171.384 1006.88 177.346H997.381C996.572 173.666 994.695 170.832 991.751 168.845C988.881 166.784 985.495 165.754 981.594 165.754C978.209 165.754 975.154 166.6 972.431 168.293C969.781 169.986 967.684 172.488 966.138 175.8C964.593 179.112 963.82 183.234 963.82 188.165C963.82 191.845 964.261 195.12 965.145 197.991C966.028 200.787 967.242 203.143 968.788 205.056C970.407 206.896 972.284 208.295 974.418 209.251C976.626 210.208 979.018 210.687 981.594 210.687C984.244 210.687 986.636 210.245 988.77 209.362C990.978 208.405 992.818 207.043 994.29 205.277C995.836 203.511 996.866 201.413 997.381 198.984H1006.88C1005.7 204.799 1002.83 209.509 998.265 213.115C993.775 216.722 988.255 218.525 981.705 218.525ZM1051.16 217.2L1024.78 185.847L1049.62 159.13H1060.99L1032.62 189.159L1032.73 182.535L1062.98 217.2H1051.16ZM1017.05 217.2V137.712H1026.32V217.2H1017.05ZM1087.22 218.525C1081.99 218.525 1077.65 217.752 1074.19 216.207C1070.8 214.587 1068.23 212.379 1066.46 209.583C1064.7 206.712 1063.63 203.4 1063.26 199.647H1072.76C1073.05 201.634 1073.71 203.474 1074.74 205.167C1075.85 206.786 1077.43 208.111 1079.49 209.141C1081.55 210.171 1084.16 210.687 1087.33 210.687C1089.83 210.687 1091.96 210.319 1093.73 209.583C1095.5 208.773 1096.82 207.669 1097.71 206.271C1098.66 204.872 1099.14 203.253 1099.14 201.413C1099.14 198.984 1098.59 197.107 1097.48 195.783C1096.45 194.384 1094.91 193.354 1092.85 192.691C1090.86 191.955 1088.36 191.403 1085.34 191.035C1082.1 190.594 1079.23 189.968 1076.73 189.159C1074.23 188.349 1072.09 187.282 1070.33 185.957C1068.63 184.632 1067.35 182.976 1066.46 180.989C1065.58 179.002 1065.14 176.647 1065.14 173.923C1065.14 170.759 1065.98 167.962 1067.68 165.533C1069.37 163.104 1071.76 161.227 1074.85 159.903C1078.02 158.504 1081.73 157.805 1086 157.805C1092.26 157.805 1097.19 159.24 1100.8 162.111C1104.48 164.981 1106.65 169.066 1107.31 174.365H1098.15C1097.78 171.642 1096.53 169.507 1094.39 167.962C1092.26 166.416 1089.43 165.643 1085.89 165.643C1082.14 165.643 1079.31 166.343 1077.39 167.741C1075.48 169.139 1074.52 170.979 1074.52 173.261C1074.52 174.954 1074.93 176.499 1075.74 177.898C1076.62 179.223 1078.09 180.363 1080.15 181.32C1082.21 182.203 1084.97 182.866 1088.43 183.307C1092.77 183.823 1096.45 184.669 1099.47 185.847C1102.49 186.951 1104.77 188.68 1106.32 191.035C1107.94 193.391 1108.71 196.592 1108.64 200.64C1108.64 204.467 1107.72 207.706 1105.88 210.355C1104.11 213.005 1101.61 215.029 1098.37 216.427C1095.2 217.826 1091.49 218.525 1087.22 218.525ZM603.239 316.2V238.92H616.487V305.823H650.932V316.2H603.239ZM678.623 317.525C674.06 317.525 670.269 316.752 667.252 315.207C664.234 313.661 661.989 311.6 660.517 309.024C659.045 306.448 658.309 303.651 658.309 300.634C658.309 297.101 659.193 294.047 660.959 291.471C662.799 288.895 665.485 286.907 669.018 285.509C672.551 284.037 676.893 283.301 682.045 283.301H696.066C696.066 280.357 695.661 277.928 694.852 276.015C694.042 274.027 692.791 272.555 691.098 271.599C689.405 270.642 687.234 270.163 684.585 270.163C681.567 270.163 678.991 270.863 676.857 272.261C674.722 273.586 673.397 275.647 672.882 278.443H659.855C660.297 274.469 661.621 271.083 663.829 268.287C666.037 265.416 668.945 263.208 672.551 261.663C676.231 260.043 680.242 259.234 684.585 259.234C689.81 259.234 694.263 260.154 697.943 261.994C701.623 263.76 704.42 266.336 706.333 269.722C708.321 273.034 709.314 277.045 709.314 281.755V316.2H698.053L696.729 307.258C695.993 308.73 695.036 310.091 693.858 311.343C692.754 312.594 691.466 313.698 689.994 314.655C688.522 315.538 686.829 316.237 684.916 316.752C683.076 317.267 680.978 317.525 678.623 317.525ZM681.604 307.037C683.738 307.037 685.615 306.669 687.234 305.933C688.927 305.123 690.362 304.019 691.54 302.621C692.791 301.149 693.748 299.53 694.41 297.763C695.073 295.997 695.514 294.12 695.735 292.133V291.912H683.481C680.905 291.912 678.77 292.243 677.077 292.906C675.385 293.495 674.17 294.378 673.434 295.555C672.698 296.733 672.33 298.095 672.33 299.64C672.33 301.186 672.698 302.511 673.434 303.615C674.17 304.719 675.237 305.565 676.636 306.154C678.034 306.743 679.69 307.037 681.604 307.037ZM756.038 316.2L731.418 285.73L753.498 260.559H769.286L741.796 291.139V280.872L772.598 316.2H756.038ZM720.158 316.2V236.712H733.406V316.2H720.158ZM799.825 317.525C794.305 317.525 789.447 316.347 785.252 313.992C781.057 311.563 777.782 308.178 775.427 303.835C773.071 299.493 771.894 294.488 771.894 288.821C771.894 282.933 773.035 277.781 775.316 273.365C777.671 268.949 780.947 265.49 785.142 262.987C789.411 260.485 794.342 259.234 799.935 259.234C805.382 259.234 810.129 260.448 814.177 262.877C818.225 265.306 821.353 268.581 823.561 272.703C825.769 276.751 826.873 281.314 826.873 286.392C826.873 287.128 826.873 287.938 826.873 288.821C826.873 289.704 826.799 290.624 826.652 291.581H781.388V283.08H813.515C813.367 279.032 812.006 275.867 809.43 273.586C806.854 271.231 803.652 270.053 799.825 270.053C797.102 270.053 794.599 270.679 792.318 271.93C790.036 273.181 788.233 275.058 786.908 277.56C785.583 279.989 784.921 283.08 784.921 286.834V290.035C784.921 293.495 785.547 296.475 786.798 298.978C788.123 301.48 789.889 303.394 792.097 304.719C794.379 305.97 796.918 306.595 799.715 306.595C802.806 306.595 805.345 305.933 807.332 304.608C809.393 303.283 810.902 301.517 811.859 299.309H825.327C824.297 302.768 822.604 305.896 820.249 308.693C817.894 311.416 814.987 313.587 811.527 315.207C808.068 316.752 804.167 317.525 799.825 317.525ZM838.553 316.2V254.487C838.553 250.218 839.252 246.795 840.651 244.219C842.123 241.57 844.22 239.656 846.943 238.479C849.667 237.301 852.905 236.712 856.659 236.712H863.283V247.973H858.646C856.217 247.973 854.451 248.488 853.347 249.519C852.316 250.475 851.801 252.168 851.801 254.597V316.2H838.553ZM830.604 271.709V260.559H864.387V271.709H830.604ZM875.758 316.2V236.712H889.006V316.2H875.758ZM926.455 317.525C921.155 317.525 916.371 316.311 912.103 313.882C907.907 311.379 904.595 307.957 902.167 303.615C899.811 299.199 898.634 294.157 898.634 288.49C898.634 282.675 899.848 277.597 902.277 273.255C904.706 268.839 908.018 265.416 912.213 262.987C916.482 260.485 921.266 259.234 926.565 259.234C931.864 259.234 936.611 260.485 940.807 262.987C945.075 265.416 948.387 268.802 950.743 273.144C953.171 277.487 954.386 282.565 954.386 288.379C954.386 294.194 953.171 299.272 950.743 303.615C948.314 307.957 944.965 311.379 940.696 313.882C936.501 316.311 931.754 317.525 926.455 317.525ZM926.455 306.154C929.104 306.154 931.496 305.491 933.631 304.167C935.839 302.842 937.605 300.855 938.93 298.205C940.255 295.555 940.917 292.28 940.917 288.379C940.917 284.479 940.255 281.24 938.93 278.664C937.679 276.015 935.949 274.027 933.741 272.703C931.607 271.378 929.215 270.715 926.565 270.715C923.989 270.715 921.597 271.378 919.389 272.703C917.181 274.027 915.415 276.015 914.09 278.664C912.765 281.24 912.103 284.479 912.103 288.379C912.103 292.28 912.765 295.555 914.09 298.205C915.415 300.855 917.144 302.842 919.279 304.167C921.487 305.491 923.879 306.154 926.455 306.154ZM973.142 316.2L956.803 260.559H969.94L981.311 306.264L978.883 306.154L991.579 260.559H1006.37L1019.18 306.154H1016.75L1028.12 260.559H1041.26L1024.92 316.2H1011.23L997.651 269.059H1000.41L986.831 316.2H973.142ZM1071.49 316.2V238.92H1096.44C1105.42 238.92 1112.82 240.503 1118.64 243.667C1124.52 246.832 1128.87 251.322 1131.66 257.136C1134.53 262.877 1135.97 269.722 1135.97 277.671C1135.97 285.472 1134.53 292.28 1131.66 298.095C1128.87 303.835 1124.52 308.288 1118.64 311.453C1112.82 314.618 1105.42 316.2 1096.44 316.2H1071.49ZM1084.74 304.939H1095.78C1102.48 304.939 1107.74 303.872 1111.57 301.738C1115.47 299.53 1118.23 296.402 1119.85 292.354C1121.54 288.232 1122.39 283.338 1122.39 277.671C1122.39 271.93 1121.54 267.035 1119.85 262.987C1118.23 258.866 1115.47 255.701 1111.57 253.493C1107.74 251.211 1102.48 250.071 1095.78 250.071H1084.74V304.939ZM1171.2 317.525C1165.68 317.525 1160.83 316.347 1156.63 313.992C1152.44 311.563 1149.16 308.178 1146.81 303.835C1144.45 299.493 1143.27 294.488 1143.27 288.821C1143.27 282.933 1144.41 277.781 1146.7 273.365C1149.05 268.949 1152.33 265.49 1156.52 262.987C1160.79 260.485 1165.72 259.234 1171.31 259.234C1176.76 259.234 1181.51 260.448 1185.56 262.877C1189.6 265.306 1192.73 268.581 1194.94 272.703C1197.15 276.751 1198.25 281.314 1198.25 286.392C1198.25 287.128 1198.25 287.938 1198.25 288.821C1198.25 289.704 1198.18 290.624 1198.03 291.581H1152.77V283.08H1184.89C1184.75 279.032 1183.39 275.867 1180.81 273.586C1178.23 271.231 1175.03 270.053 1171.2 270.053C1168.48 270.053 1165.98 270.679 1163.7 271.93C1161.42 273.181 1159.61 275.058 1158.29 277.56C1156.96 279.989 1156.3 283.08 1156.3 286.834V290.035C1156.3 293.495 1156.93 296.475 1158.18 298.978C1159.5 301.48 1161.27 303.394 1163.48 304.719C1165.76 305.97 1168.3 306.595 1171.09 306.595C1174.19 306.595 1176.72 305.933 1178.71 304.608C1180.77 303.283 1182.28 301.517 1183.24 299.309H1196.71C1195.68 302.768 1193.98 305.896 1191.63 308.693C1189.27 311.416 1186.37 313.587 1182.91 315.207C1179.45 316.752 1175.55 317.525 1171.2 317.525ZM1229.36 317.525C1224.43 317.525 1220.13 316.752 1216.45 315.207C1212.84 313.587 1209.97 311.379 1207.83 308.583C1205.77 305.712 1204.56 302.437 1204.19 298.757H1217.44C1217.81 300.303 1218.47 301.738 1219.43 303.063C1220.38 304.314 1221.67 305.307 1223.29 306.043C1224.98 306.779 1226.97 307.147 1229.25 307.147C1231.46 307.147 1233.26 306.853 1234.66 306.264C1236.06 305.602 1237.09 304.755 1237.75 303.725C1238.42 302.695 1238.75 301.591 1238.75 300.413C1238.75 298.647 1238.27 297.285 1237.31 296.328C1236.35 295.371 1234.96 294.635 1233.12 294.12C1231.35 293.531 1229.22 292.979 1226.71 292.464C1224.06 291.949 1221.49 291.323 1218.99 290.587C1216.56 289.778 1214.35 288.784 1212.36 287.607C1210.45 286.429 1208.9 284.92 1207.72 283.08C1206.62 281.24 1206.07 278.995 1206.07 276.346C1206.07 273.107 1206.91 270.2 1208.61 267.624C1210.37 265.048 1212.88 263.024 1216.11 261.552C1219.43 260.007 1223.36 259.234 1227.93 259.234C1234.4 259.234 1239.56 260.743 1243.38 263.76C1247.28 266.704 1249.57 270.863 1250.23 276.235H1237.64C1237.27 274.175 1236.24 272.592 1234.55 271.488C1232.86 270.311 1230.61 269.722 1227.82 269.722C1224.95 269.722 1222.74 270.274 1221.19 271.378C1219.72 272.408 1218.99 273.807 1218.99 275.573C1218.99 276.677 1219.43 277.707 1220.31 278.664C1221.27 279.547 1222.63 280.32 1224.39 280.983C1226.16 281.571 1228.33 282.16 1230.91 282.749C1235.03 283.559 1238.67 284.515 1241.84 285.619C1245 286.723 1247.51 288.343 1249.35 290.477C1251.19 292.611 1252.11 295.629 1252.11 299.53C1252.18 303.063 1251.26 306.191 1249.35 308.914C1247.51 311.637 1244.89 313.771 1241.51 315.317C1238.12 316.789 1234.07 317.525 1229.36 317.525ZM1262.2 316.2V260.559H1275.45V316.2H1262.2ZM1268.82 251.727C1266.4 251.727 1264.37 250.991 1262.75 249.519C1261.21 247.973 1260.43 246.096 1260.43 243.888C1260.43 241.607 1261.21 239.767 1262.75 238.368C1264.37 236.896 1266.4 236.16 1268.82 236.16C1271.25 236.16 1273.24 236.896 1274.79 238.368C1276.4 239.767 1277.21 241.607 1277.21 243.888C1277.21 246.096 1276.4 247.973 1274.79 249.519C1273.24 250.991 1271.25 251.727 1268.82 251.727ZM1310.85 341.813C1305.62 341.813 1301.02 341.151 1297.05 339.826C1293.15 338.575 1290.09 336.624 1287.89 333.975C1285.75 331.399 1284.69 328.16 1284.69 324.259C1284.69 321.978 1285.24 319.733 1286.34 317.525C1287.52 315.391 1289.25 313.403 1291.53 311.563C1293.89 309.65 1296.87 307.994 1300.47 306.595L1306.32 312.999C1302.79 314.25 1300.33 315.759 1298.93 317.525C1297.53 319.291 1296.83 321.095 1296.83 322.935C1296.83 324.848 1297.42 326.431 1298.6 327.682C1299.85 329.007 1301.5 330 1303.56 330.663C1305.7 331.325 1308.09 331.656 1310.74 331.656C1313.32 331.656 1315.56 331.288 1317.47 330.552C1319.39 329.89 1320.86 328.933 1321.89 327.682C1322.99 326.431 1323.55 324.922 1323.55 323.155C1323.55 320.947 1322.77 319.144 1321.23 317.746C1319.68 316.421 1316.63 315.611 1312.06 315.317C1308.16 315.023 1304.74 314.618 1301.8 314.103C1298.85 313.514 1296.31 312.851 1294.18 312.115C1292.12 311.379 1290.35 310.57 1288.88 309.687C1287.41 308.73 1286.19 307.773 1285.24 306.816V304.277L1296.83 292.133L1306.65 295.335L1293.63 308.031L1297.05 301.627C1297.79 302.143 1298.52 302.621 1299.26 303.063C1300.07 303.504 1301.06 303.909 1302.24 304.277C1303.49 304.571 1305.11 304.866 1307.1 305.16C1309.08 305.455 1311.66 305.749 1314.82 306.043C1319.76 306.411 1323.77 307.295 1326.86 308.693C1329.95 310.091 1332.23 311.968 1333.7 314.323C1335.17 316.679 1335.91 319.512 1335.91 322.824C1335.91 326.063 1334.99 329.117 1333.15 331.987C1331.38 334.858 1328.66 337.213 1324.98 339.053C1321.3 340.893 1316.59 341.813 1310.85 341.813ZM1310.85 299.53C1306.21 299.53 1302.2 298.647 1298.82 296.88C1295.5 295.04 1292.97 292.611 1291.2 289.594C1289.43 286.503 1288.55 283.117 1288.55 279.437C1288.55 275.683 1289.43 272.298 1291.2 269.28C1292.97 266.263 1295.5 263.834 1298.82 261.994C1302.2 260.154 1306.21 259.234 1310.85 259.234C1315.49 259.234 1319.46 260.154 1322.77 261.994C1326.09 263.834 1328.62 266.263 1330.39 269.28C1332.16 272.298 1333.04 275.683 1333.04 279.437C1333.04 283.117 1332.16 286.503 1330.39 289.594C1328.62 292.611 1326.09 295.04 1322.77 296.88C1319.46 298.647 1315.49 299.53 1310.85 299.53ZM1310.85 289.263C1314.01 289.263 1316.55 288.416 1318.47 286.723C1320.38 285.031 1321.34 282.602 1321.34 279.437C1321.34 276.272 1320.38 273.88 1318.47 272.261C1316.55 270.568 1314.01 269.722 1310.85 269.722C1307.69 269.722 1305.11 270.568 1303.12 272.261C1301.13 273.88 1300.14 276.272 1300.14 279.437C1300.14 282.602 1301.13 285.031 1303.12 286.723C1305.11 288.416 1307.69 289.263 1310.85 289.263ZM1320.01 270.274L1317.47 260.559H1340.33V268.839L1320.01 270.274ZM1348.71 316.2V260.559H1360.42L1361.41 269.832C1363.1 266.594 1365.53 264.018 1368.7 262.104C1371.86 260.191 1375.61 259.234 1379.96 259.234C1384.45 259.234 1388.27 260.191 1391.44 262.104C1394.6 263.944 1397.03 266.667 1398.72 270.274C1400.49 273.88 1401.37 278.37 1401.37 283.743V316.2H1388.13V284.957C1388.13 280.32 1387.1 276.751 1385.03 274.248C1382.97 271.746 1379.92 270.495 1375.87 270.495C1373.22 270.495 1370.83 271.12 1368.7 272.371C1366.63 273.623 1364.98 275.463 1363.73 277.891C1362.55 280.247 1361.96 283.117 1361.96 286.503V316.2H1348.71ZM1438.08 317.525C1432.56 317.525 1427.71 316.347 1423.51 313.992C1419.32 311.563 1416.04 308.178 1413.69 303.835C1411.33 299.493 1410.15 294.488 1410.15 288.821C1410.15 282.933 1411.29 277.781 1413.57 273.365C1415.93 268.949 1419.21 265.49 1423.4 262.987C1427.67 260.485 1432.6 259.234 1438.19 259.234C1443.64 259.234 1448.39 260.448 1452.44 262.877C1456.48 265.306 1459.61 268.581 1461.82 272.703C1464.03 276.751 1465.13 281.314 1465.13 286.392C1465.13 287.128 1465.13 287.938 1465.13 288.821C1465.13 289.704 1465.06 290.624 1464.91 291.581H1419.65V283.08H1451.77C1451.63 279.032 1450.26 275.867 1447.69 273.586C1445.11 271.231 1441.91 270.053 1438.08 270.053C1435.36 270.053 1432.86 270.679 1430.58 271.93C1428.29 273.181 1426.49 275.058 1425.17 277.56C1423.84 279.989 1423.18 283.08 1423.18 286.834V290.035C1423.18 293.495 1423.81 296.475 1425.06 298.978C1426.38 301.48 1428.15 303.394 1430.36 304.719C1432.64 305.97 1435.18 306.595 1437.97 306.595C1441.06 306.595 1443.6 305.933 1445.59 304.608C1447.65 303.283 1449.16 301.517 1450.12 299.309H1463.59C1462.56 302.768 1460.86 305.896 1458.51 308.693C1456.15 311.416 1453.25 313.587 1449.79 315.207C1446.33 316.752 1442.43 317.525 1438.08 317.525ZM1474.05 316.2V260.559H1485.86L1487.08 270.936C1488.4 268.507 1490.06 266.447 1492.05 264.754C1494.03 262.987 1496.35 261.626 1499 260.669C1501.73 259.712 1504.71 259.234 1507.94 259.234V273.255H1503.31C1501.1 273.255 1499 273.549 1497.01 274.138C1495.03 274.653 1493.3 275.536 1491.83 276.787C1490.43 277.965 1489.32 279.621 1488.51 281.755C1487.7 283.816 1487.3 286.429 1487.3 289.594V316.2H1474.05Z" fill="#1B3139"/>
<defs>
<filter id="filter0_dddddd_1117_13279" x="0.639999" y="0.119995" width="723.12" height="723.12" filterUnits="userSpaceOnUse" color-interpolation-filters="sRGB">
<feFlood flood-opacity="0" result="BackgroundImageFix"/>
<feColorMatrix in="SourceAlpha" type="matrix" values="0 0 0 0 0 0 0 0 0 0 0 0 0 0 0 0 0 0 127 0" result="hardAlpha"/>
<feOffset dy="3.68"/>
<feGaussianBlur stdDeviation="2.76"/>
<feColorMatrix type="matrix" values="0 0 0 0 0.105882 0 0 0 0 0.192157 0 0 0 0 0.223529 0 0 0 0.0196802 0"/>
<feBlend mode="normal" in2="BackgroundImageFix" result="effect1_dropShadow_1117_13279"/>
<feColorMatrix in="SourceAlpha" type="matrix" values="0 0 0 0 0 0 0 0 0 0 0 0 0 0 0 0 0 0 127 0" result="hardAlpha"/>
<feOffset dy="7.36"/>
<feGaussianBlur stdDeviation="7.36"/>
<feColorMatrix type="matrix" values="0 0 0 0 0.105882 0 0 0 0 0.192157 0 0 0 0 0.223529 0 0 0 0.04 0"/>
<feBlend mode="normal" in2="effect1_dropShadow_1117_13279" result="effect2_dropShadow_1117_13279"/>
<feColorMatrix in="SourceAlpha" type="matrix" values="0 0 0 0 0 0 0 0 0 0 0 0 0 0 0 0 0 0 127 0" result="hardAlpha"/>
<feOffset dy="16.56"/>
<feGaussianBlur stdDeviation="11.96"/>
<feColorMatrix type="matrix" values="0 0 0 0 0.105882 0 0 0 0 0.192157 0 0 0 0 0.223529 0 0 0 0.035 0"/>
<feBlend mode="normal" in2="effect2_dropShadow_1117_13279" result="effect3_dropShadow_1117_13279"/>
<feColorMatrix in="SourceAlpha" type="matrix" values="0 0 0 0 0 0 0 0 0 0 0 0 0 0 0 0 0 0 127 0" result="hardAlpha"/>
<feOffset dy="29.44"/>
<feGaussianBlur stdDeviation="22.08"/>
<feColorMatrix type="matrix" values="0 0 0 0 0.105882 0 0 0 0 0.192157 0 0 0 0 0.223529 0 0 0 0.04 0"/>
<feBlend mode="normal" in2="effect3_dropShadow_1117_13279" result="effect4_dropShadow_1117_13279"/>
<feColorMatrix in="SourceAlpha" type="matrix" values="0 0 0 0 0 0 0 0 0 0 0 0 0 0 0 0 0 0 127 0" result="hardAlpha"/>
<feOffset dy="58.88"/>
<feGaussianBlur stdDeviation="36.8"/>
<feColorMatrix type="matrix" values="0 0 0 0 0.105882 0 0 0 0 0.192157 0 0 0 0 0.223529 0 0 0 0.0503198 0"/>
<feBlend mode="normal" in2="effect4_dropShadow_1117_13279" result="effect5_dropShadow_1117_13279"/>
<feColorMatrix in="SourceAlpha" type="matrix" values="0 0 0 0 0 0 0 0 0 0 0 0 0 0 0 0 0 0 127 0" result="hardAlpha"/>
<feOffset dy="132.48"/>
<feGaussianBlur stdDeviation="95.68"/>
<feColorMatrix type="matrix" values="0 0 0 0 0.105882 0 0 0 0 0.192157 0 0 0 0 0.223529 0 0 0 0.07 0"/>
<feBlend mode="normal" in2="effect5_dropShadow_1117_13279" result="effect6_dropShadow_1117_13279"/>
<feBlend mode="normal" in="SourceGraphic" in2="effect6_dropShadow_1117_13279" result="shape"/>
</filter>
</defs>
</svg>
