<svg width="150" height="150" viewBox="0 0 150 150" fill="none" xmlns="http://www.w3.org/2000/svg">
<g clip-path="url(#clip0_5482_2157)">
<path d="M81.22 86.9199L62.89 118.66C58.3 126.59 49.73 131.92 39.91 131.92C25.26 131.92 13.38 120.04 13.38 105.39C13.38 90.7399 25.26 78.8599 39.91 78.8599H54.19" stroke="#FF5F46" stroke-width="3" stroke-miterlimit="3" stroke-linecap="square"/>
<path d="M74.42 96.6801L52.02 57.8801C46.15 47.7301 47.56 34.5301 56.24 25.8501C66.6 15.4901 83.4 15.4901 93.76 25.8501C102.44 34.5301 103.85 47.7301 97.98 57.8801L86.56 77.6601" stroke="#FF5F46" stroke-width="3" stroke-miterlimit="3" stroke-linecap="square"/>
<path d="M110.09 78.8599C124.74 78.8599 136.62 90.7399 136.62 105.39C136.62 120.04 124.74 131.92 110.09 131.92C100.27 131.92 91.6999 126.59 87.1099 118.66L80.1899 106.06" stroke="#FF5F46" stroke-width="3" stroke-miterlimit="3" stroke-linecap="square"/>
<path d="M86.97 58.2699C85.54 57.2799 83.98 56.4599 82.32 55.8399C84.89 53.2799 86.52 49.4199 86.52 45.0899C86.52 37.3899 81.34 31.1499 74.96 31.1499C68.58 31.1499 63.4 37.3899 63.4 45.0899C63.4 49.4199 65.04 53.2799 67.6 55.8399C63.28 57.4499 59.63 60.4199 57.17 64.2399" stroke="#FF5F46" stroke-width="3" stroke-linecap="square" stroke-linejoin="bevel"/>
<path d="M50.93 116.63C49.5 115.64 47.94 114.82 46.28 114.2C48.85 111.64 50.48 107.78 50.48 103.45C50.48 95.7498 45.3 89.5098 38.92 89.5098C32.54 89.5098 27.36 95.7498 27.36 103.45C27.36 107.78 29 111.64 31.56 114.2C27.24 115.81 23.59 118.78 21.13 122.6" stroke="#FF5F46" stroke-width="3" stroke-linecap="square" stroke-linejoin="bevel"/>
<path d="M122.06 116.63C120.63 115.64 119.07 114.82 117.41 114.2C119.98 111.64 121.61 107.78 121.61 103.45C121.61 95.7498 116.43 89.5098 110.05 89.5098C103.67 89.5098 98.49 95.7498 98.49 103.45C98.49 107.78 100.13 111.64 102.69 114.2C98.37 115.81 94.72 118.78 92.26 122.6" stroke="#FF5F46" stroke-width="3" stroke-linecap="square" stroke-linejoin="bevel"/>
<path d="M66.14 78.8599H110.09" stroke="#FF5F46" stroke-width="3" stroke-miterlimit="3" stroke-linecap="square"/>
</g>
<defs>
<clipPath id="clip0_5482_2157">
<rect width="150" height="150" fill="white"/>
</clipPath>
</defs>
</svg>
