<svg width="150" height="150" viewBox="0 0 150 150" fill="none" xmlns="http://www.w3.org/2000/svg">
<path d="M106.3 131H43.7001V122.4C43.7001 118.1 47.2001 114.6 51.5 114.6H73.5V99.4H128.7V22H21.3V99.3H67.8001V102.3H18.3V19H131.8V102.3H76.6V117.5H51.6C48.9 117.5 46.8 119.7 46.8 122.3V127.9H103.4V122.3C103.4 119.6 101.2 117.5 98.6001 117.5H82.3V114.5H98.5C102.8 114.5 106.3 118 106.3 122.3V131Z" fill="#FF5F46"/>
<path d="M88.9 90.2001H30.4V31.1001H88.9V34.1001H33.4V87.2001H88.9V90.2001Z" fill="#FF5F46"/>
<path d="M119.6 90.1999H95.1001V31.2H119.6V90.1999ZM98.1001 87.1999H116.6V34.2H98.1001V87.1999Z" fill="#FF5F46"/>
<path d="M51.3 70.3999L41.5 60.6999L51.3 50.8999L53.4 52.9999L45.7 60.6999L53.4 68.2999L51.3 70.3999Z" fill="#FF5F46"/>
<path d="M78.1 70.3999L75.9 68.2999L83.6 60.6999L75.9 52.9999L78.1 50.8999L87.8 60.6999L78.1 70.3999Z" fill="#FF5F46"/>
<path d="M70.7658 48.1582L56.0151 71.7214L58.5579 73.3132L73.3086 49.75L70.7658 48.1582Z" fill="#FF5F46"/>
</svg>
