<svg width="150" height="150" viewBox="0 0 150 150" fill="none" xmlns="http://www.w3.org/2000/svg">
<g clip-path="url(#clip0_214_405)">
<path fill-rule="evenodd" clip-rule="evenodd" d="M49.7 48.9001C46.2758 48.9001 43.5 51.6759 43.5 55.1001C43.5 58.5243 46.2758 61.3001 49.7 61.3001C53.1242 61.3001 55.9 58.5243 55.9 55.1001C55.9 51.6759 53.1242 48.9001 49.7 48.9001ZM40.5 55.1001C40.5 50.0191 44.619 45.9001 49.7 45.9001C54.781 45.9001 58.9 50.0191 58.9 55.1001C58.9 60.1811 54.781 64.3001 49.7 64.3001C44.619 64.3001 40.5 60.1811 40.5 55.1001Z" fill="#FF5F46"/>
<path fill-rule="evenodd" clip-rule="evenodd" d="M14.8 64.3C11.3758 64.3 8.59998 67.0758 8.59998 70.5C8.59998 73.9241 11.3758 76.7 14.8 76.7C18.2241 76.7 21 73.9242 21 70.5C21 67.0758 18.2241 64.3 14.8 64.3ZM5.59998 70.5C5.59998 65.419 9.71896 61.3 14.8 61.3C19.881 61.3 24 65.419 24 70.5C24 75.581 19.881 79.7 14.8 79.7C9.71896 79.7 5.59998 75.581 5.59998 70.5Z" fill="#FF5F46"/>
<path fill-rule="evenodd" clip-rule="evenodd" d="M100.6 42.4001C97.1757 42.4001 94.3999 45.1759 94.3999 48.6001C94.3999 52.0242 97.1757 54.8001 100.6 54.8001C104.024 54.8001 106.8 52.0242 106.8 48.6001C106.8 45.1759 104.024 42.4001 100.6 42.4001ZM91.3999 48.6001C91.3999 43.519 95.5189 39.4001 100.6 39.4001C105.681 39.4001 109.8 43.519 109.8 48.6001C109.8 53.6811 105.681 57.8001 100.6 57.8001C95.5189 57.8001 91.3999 53.6811 91.3999 48.6001Z" fill="#FF5F46"/>
<path fill-rule="evenodd" clip-rule="evenodd" d="M95.8 78.9001C92.3758 78.9001 89.6 81.6759 89.6 85.1001C89.6 88.5242 92.3758 91.3001 95.8 91.3001C99.2241 91.3001 102 88.5242 102 85.1001C102 81.6759 99.2242 78.9001 95.8 78.9001ZM86.6 85.1001C86.6 80.019 90.719 75.9001 95.8 75.9001C100.881 75.9001 105 80.019 105 85.1001C105 90.1811 100.881 94.3001 95.8 94.3001C90.719 94.3001 86.6 90.1811 86.6 85.1001Z" fill="#FF5F46"/>
<path fill-rule="evenodd" clip-rule="evenodd" d="M64.0999 95.3C60.6757 95.3 57.8999 98.0758 57.8999 101.5C57.8999 104.924 60.6757 107.7 64.0999 107.7C67.5241 107.7 70.2999 104.924 70.2999 101.5C70.2999 98.0758 67.5241 95.3 64.0999 95.3ZM54.8999 101.5C54.8999 96.419 59.0189 92.3 64.0999 92.3C69.1809 92.3 73.2999 96.419 73.2999 101.5C73.2999 106.581 69.1809 110.7 64.0999 110.7C59.0189 110.7 54.8999 106.581 54.8999 101.5Z" fill="#FF5F46"/>
<path fill-rule="evenodd" clip-rule="evenodd" d="M53.0248 61.5311L63.4248 93.1311L60.5752 94.0689L50.1752 62.469L53.0248 61.5311Z" fill="#FF5F46"/>
<path fill-rule="evenodd" clip-rule="evenodd" d="M92.9917 51.0878L57.2917 55.6878L56.9083 52.7124L92.6083 48.1124L92.9917 51.0878Z" fill="#FF5F46"/>
<path fill-rule="evenodd" clip-rule="evenodd" d="M95.7084 76.7412L98.0084 55.1411L100.992 55.4588L98.6915 77.0588L95.7084 76.7412Z" fill="#FF5F46"/>
<path fill-rule="evenodd" clip-rule="evenodd" d="M56.0111 57.6383L89.6111 79.2383L87.9888 81.7618L54.3888 60.1618L56.0111 57.6383Z" fill="#FF5F46"/>
<path fill-rule="evenodd" clip-rule="evenodd" d="M103.08 111.084L96.8801 92.8838L99.7199 91.9164L105.92 110.116L103.08 111.084Z" fill="#FF5F46"/>
<path fill-rule="evenodd" clip-rule="evenodd" d="M70.2086 96.6689L88.3086 87.2689L89.6913 89.9313L71.5913 99.3313L70.2086 96.6689Z" fill="#FF5F46"/>
<path fill-rule="evenodd" clip-rule="evenodd" d="M43.0134 110.666L56.6134 103.666L57.9864 106.334L44.3864 113.334L43.0134 110.666Z" fill="#FF5F46"/>
<path fill-rule="evenodd" clip-rule="evenodd" d="M60.2132 30.203L53.9132 47.903L51.0869 46.8971L57.3869 29.1971L60.2132 30.203Z" fill="#FF5F46"/>
<path fill-rule="evenodd" clip-rule="evenodd" d="M141.795 53.1574L134.837 65.0522L122.943 58.0948L124.457 55.5053L133.762 60.9479L139.205 51.6427L141.795 53.1574Z" fill="#FF5F46"/>
<path fill-rule="evenodd" clip-rule="evenodd" d="M75.2 16.2C46.7242 16.2 22.9298 36.387 17.4698 63.1994L14.5302 62.6007C20.2702 34.4131 45.2757 13.2 75.2 13.2C105.129 13.2 130.131 34.5181 135.87 62.8018L132.93 63.3983C127.469 36.4819 103.671 16.2 75.2 16.2Z" fill="#FF5F46"/>
<path fill-rule="evenodd" clip-rule="evenodd" d="M135.2 73.3C131.776 73.3 129 76.0758 129 79.5C129 82.9242 131.776 85.7 135.2 85.7C138.624 85.7 141.4 82.9242 141.4 79.5C141.4 76.0758 138.624 73.3 135.2 73.3ZM126 79.5C126 74.419 130.119 70.3 135.2 70.3C140.281 70.3 144.4 74.419 144.4 79.5C144.4 84.581 140.281 88.7 135.2 88.7C130.119 88.7 126 84.581 126 79.5Z" fill="#FF5F46"/>
<path fill-rule="evenodd" clip-rule="evenodd" d="M15.1625 84.9479L27.0573 91.9052L25.5427 94.4948L16.2374 89.0521L10.7948 98.3573L8.2052 96.8427L15.1625 84.9479Z" fill="#FF5F46"/>
<path fill-rule="evenodd" clip-rule="evenodd" d="M17.17 86.6018C22.6312 113.518 46.4291 133.8 74.8999 133.8C103.274 133.8 127.07 113.615 132.53 86.8008L135.47 87.3994C129.73 115.586 104.726 136.8 74.8999 136.8C44.9707 136.8 19.9686 115.482 14.2299 87.1983L17.17 86.6018Z" fill="#FF5F46"/>
<path fill-rule="evenodd" clip-rule="evenodd" d="M87.2053 120.604L69.3053 107.304L71.0945 104.896L88.9945 118.196L87.2053 120.604Z" fill="#FF5F46"/>
<path fill-rule="evenodd" clip-rule="evenodd" d="M127.71 82.0854L103.61 85.4854L103.19 82.5148L127.29 79.1148L127.71 82.0854Z" fill="#FF5F46"/>
<path fill-rule="evenodd" clip-rule="evenodd" d="M43.3043 59.5729L22.4043 68.7729L21.1957 66.0272L42.0957 56.8272L43.3043 59.5729Z" fill="#FF5F46"/>
<path fill-rule="evenodd" clip-rule="evenodd" d="M89.2241 30.4069L98.3241 40.7069L96.0758 42.6932L86.9758 32.3932L89.2241 30.4069Z" fill="#FF5F46"/>
</g>
<defs>
<clipPath id="clip0_214_405">
<rect width="150" height="150" fill="white"/>
</clipPath>
</defs>
</svg>
