<svg width="150" height="150" viewBox="0 0 150 150" fill="none" xmlns="http://www.w3.org/2000/svg">
<g clip-path="url(#clip0_1_2011)">
<path fill-rule="evenodd" clip-rule="evenodd" d="M49.7 48.9004C46.2758 48.9004 43.5 51.6762 43.5 55.1004C43.5 58.5246 46.2758 61.3004 49.7 61.3004C53.1242 61.3004 55.9 58.5246 55.9 55.1004C55.9 51.6762 53.1242 48.9004 49.7 48.9004ZM40.5 55.1004C40.5 50.0194 44.619 45.9004 49.7 45.9004C54.781 45.9004 58.9 50.0194 58.9 55.1004C58.9 60.1814 54.781 64.3004 49.7 64.3004C44.619 64.3004 40.5 60.1814 40.5 55.1004Z" fill="#1B3139"/>
<path fill-rule="evenodd" clip-rule="evenodd" d="M14.7999 64.3003C11.3758 64.3003 8.59993 67.0761 8.59993 70.5003C8.59993 73.9245 11.3758 76.7003 14.7999 76.7003C18.2241 76.7003 20.9999 73.9245 20.9999 70.5003C20.9999 67.0761 18.2241 64.3003 14.7999 64.3003ZM5.59993 70.5003C5.59993 65.4193 9.71891 61.3003 14.7999 61.3003C19.881 61.3003 23.9999 65.4193 23.9999 70.5003C23.9999 75.5813 19.881 79.7003 14.7999 79.7003C9.71892 79.7003 5.59993 75.5813 5.59993 70.5003Z" fill="#1B3139"/>
<path fill-rule="evenodd" clip-rule="evenodd" d="M100.6 42.4004C97.1757 42.4004 94.3999 45.1762 94.3999 48.6004C94.3999 52.0246 97.1757 54.8004 100.6 54.8004C104.024 54.8004 106.8 52.0246 106.8 48.6004C106.8 45.1762 104.024 42.4004 100.6 42.4004ZM91.3999 48.6004C91.3999 43.5194 95.5189 39.4004 100.6 39.4004C105.681 39.4004 109.8 43.5194 109.8 48.6004C109.8 53.6814 105.681 57.8004 100.6 57.8004C95.5189 57.8004 91.3999 53.6814 91.3999 48.6004Z" fill="#1B3139"/>
<path fill-rule="evenodd" clip-rule="evenodd" d="M95.8 78.9004C92.3758 78.9004 89.5999 81.6762 89.5999 85.1004C89.5999 88.5246 92.3758 91.3004 95.8 91.3004C99.2241 91.3004 102 88.5246 102 85.1004C102 81.6762 99.2241 78.9004 95.8 78.9004ZM86.5999 85.1004C86.5999 80.0194 90.7189 75.9004 95.8 75.9004C100.881 75.9004 105 80.0194 105 85.1004C105 90.1814 100.881 94.3004 95.8 94.3004C90.7189 94.3004 86.5999 90.1814 86.5999 85.1004Z" fill="#1B3139"/>
<path fill-rule="evenodd" clip-rule="evenodd" d="M64.0999 95.3003C60.6757 95.3003 57.8999 98.0761 57.8999 101.5C57.8999 104.924 60.6757 107.7 64.0999 107.7C67.5241 107.7 70.2999 104.924 70.2999 101.5C70.2999 98.0761 67.5241 95.3003 64.0999 95.3003ZM54.8999 101.5C54.8999 96.4193 59.0189 92.3003 64.0999 92.3003C69.1809 92.3003 73.2999 96.4193 73.2999 101.5C73.2999 106.581 69.1809 110.7 64.0999 110.7C59.0189 110.7 54.8999 106.581 54.8999 101.5Z" fill="#1B3139"/>
<path fill-rule="evenodd" clip-rule="evenodd" d="M53.0247 61.5312L63.4247 93.1312L60.5751 94.0691L50.1751 62.4691L53.0247 61.5312Z" fill="#1B3139"/>
<path fill-rule="evenodd" clip-rule="evenodd" d="M92.9916 51.0882L57.2916 55.6882L56.9082 52.7128L92.6082 48.1128L92.9916 51.0882Z" fill="#1B3139"/>
<path fill-rule="evenodd" clip-rule="evenodd" d="M95.7083 76.7411L98.0083 55.1411L100.991 55.4588L98.6914 77.0588L95.7083 76.7411Z" fill="#1B3139"/>
<path fill-rule="evenodd" clip-rule="evenodd" d="M56.011 57.6387L89.611 79.2387L87.9887 81.7622L54.3887 60.1622L56.011 57.6387Z" fill="#1B3139"/>
<path fill-rule="evenodd" clip-rule="evenodd" d="M103.08 111.084L96.8801 92.8839L99.7198 91.9165L105.92 110.117L103.08 111.084Z" fill="#1B3139"/>
<path fill-rule="evenodd" clip-rule="evenodd" d="M70.2086 96.669L88.3086 87.269L89.6912 89.9314L71.5912 99.3314L70.2086 96.669Z" fill="#1B3139"/>
<path fill-rule="evenodd" clip-rule="evenodd" d="M43.0134 110.667L56.6134 103.667L57.9863 106.334L44.3863 113.334L43.0134 110.667Z" fill="#1B3139"/>
<path fill-rule="evenodd" clip-rule="evenodd" d="M60.2131 30.2032L53.9131 47.9032L51.0868 46.8973L57.3868 29.1973L60.2131 30.2032Z" fill="#1B3139"/>
<path fill-rule="evenodd" clip-rule="evenodd" d="M141.795 53.1577L134.837 65.0525L122.943 58.0952L124.457 55.5056L133.762 60.9483L139.205 51.6431L141.795 53.1577Z" fill="#1B3139"/>
<path fill-rule="evenodd" clip-rule="evenodd" d="M75.2 16.2002C46.7242 16.2002 22.9298 36.3872 17.4698 63.1995L14.5302 62.6009C20.2702 34.4132 45.2757 13.2002 75.2 13.2002C105.129 13.2002 130.131 34.5183 135.87 62.8019L132.93 63.3985C127.469 36.4821 103.671 16.2002 75.2 16.2002Z" fill="#1B3139"/>
<path fill-rule="evenodd" clip-rule="evenodd" d="M135.2 73.3003C131.776 73.3003 129 76.0761 129 79.5003C129 82.9245 131.776 85.7003 135.2 85.7003C138.624 85.7003 141.4 82.9245 141.4 79.5003C141.4 76.0761 138.624 73.3003 135.2 73.3003ZM126 79.5003C126 74.4193 130.119 70.3003 135.2 70.3003C140.281 70.3003 144.4 74.4193 144.4 79.5003C144.4 84.5813 140.281 88.7003 135.2 88.7003C130.119 88.7003 126 84.5813 126 79.5003Z" fill="#1B3139"/>
<path fill-rule="evenodd" clip-rule="evenodd" d="M15.1625 84.9482L27.0573 91.9056L25.5427 94.4951L16.2374 89.0525L10.7948 98.3577L8.20519 96.843L15.1625 84.9482Z" fill="#1B3139"/>
<path fill-rule="evenodd" clip-rule="evenodd" d="M17.1699 86.6021C22.6312 113.518 46.4291 133.8 74.8999 133.8C103.274 133.8 127.07 113.615 132.53 86.801L135.47 87.3996C129.73 115.586 104.726 136.8 74.8999 136.8C44.9707 136.8 19.9685 115.482 14.2298 87.1986L17.1699 86.6021Z" fill="#1B3139"/>
<path fill-rule="evenodd" clip-rule="evenodd" d="M87.2053 120.604L69.3053 107.304L71.0945 104.896L88.9945 118.196L87.2053 120.604Z" fill="#1B3139"/>
<path fill-rule="evenodd" clip-rule="evenodd" d="M127.709 82.0853L103.609 85.4853L103.19 82.5147L127.29 79.1147L127.709 82.0853Z" fill="#1B3139"/>
<path fill-rule="evenodd" clip-rule="evenodd" d="M43.3043 59.5729L22.4043 68.7729L21.1956 66.0272L42.0956 56.8271L43.3043 59.5729Z" fill="#1B3139"/>
<path fill-rule="evenodd" clip-rule="evenodd" d="M89.2241 30.4072L98.3241 40.7072L96.0758 42.6935L86.9758 32.3935L89.2241 30.4072Z" fill="#1B3139"/>
</g>
<defs>
<clipPath id="clip0_1_2011">
<rect width="150" height="150" fill="white"/>
</clipPath>
</defs>
</svg>
