<svg width="150" height="150" viewBox="0 0 150 150" fill="none" xmlns="http://www.w3.org/2000/svg">
<g clip-path="url(#clip0_1_2007)">
<path fill-rule="evenodd" clip-rule="evenodd" d="M49.7 48.8999C46.2758 48.8999 43.5 51.6757 43.5 55.0999C43.5 58.5241 46.2758 61.2999 49.7 61.2999C53.1242 61.2999 55.9 58.5241 55.9 55.0999C55.9 51.6757 53.1242 48.8999 49.7 48.8999ZM40.5 55.0999C40.5 50.0189 44.619 45.8999 49.7 45.8999C54.781 45.8999 58.9 50.0189 58.9 55.0999C58.9 60.1809 54.781 64.2999 49.7 64.2999C44.619 64.2999 40.5 60.1809 40.5 55.0999Z" fill="white"/>
<path fill-rule="evenodd" clip-rule="evenodd" d="M14.7999 64.2998C11.3758 64.2998 8.59993 67.0756 8.59993 70.4998C8.59993 73.924 11.3758 76.6998 14.7999 76.6998C18.2241 76.6998 20.9999 73.924 20.9999 70.4998C20.9999 67.0756 18.2241 64.2998 14.7999 64.2998ZM5.59993 70.4998C5.59993 65.4188 9.71891 61.2998 14.7999 61.2998C19.881 61.2998 23.9999 65.4188 23.9999 70.4998C23.9999 75.5808 19.881 79.6998 14.7999 79.6998C9.71892 79.6998 5.59993 75.5808 5.59993 70.4998Z" fill="white"/>
<path fill-rule="evenodd" clip-rule="evenodd" d="M100.6 42.3999C97.1757 42.3999 94.3999 45.1757 94.3999 48.5999C94.3999 52.0241 97.1757 54.7999 100.6 54.7999C104.024 54.7999 106.8 52.0241 106.8 48.5999C106.8 45.1757 104.024 42.3999 100.6 42.3999ZM91.3999 48.5999C91.3999 43.5189 95.5189 39.3999 100.6 39.3999C105.681 39.3999 109.8 43.5189 109.8 48.5999C109.8 53.6809 105.681 57.7999 100.6 57.7999C95.5189 57.7999 91.3999 53.6809 91.3999 48.5999Z" fill="white"/>
<path fill-rule="evenodd" clip-rule="evenodd" d="M95.8 78.8999C92.3758 78.8999 89.5999 81.6757 89.5999 85.0999C89.5999 88.5241 92.3758 91.2999 95.8 91.2999C99.2241 91.2999 102 88.5241 102 85.0999C102 81.6757 99.2241 78.8999 95.8 78.8999ZM86.5999 85.0999C86.5999 80.0189 90.7189 75.8999 95.8 75.8999C100.881 75.8999 105 80.0189 105 85.0999C105 90.1809 100.881 94.2999 95.8 94.2999C90.7189 94.2999 86.5999 90.1809 86.5999 85.0999Z" fill="white"/>
<path fill-rule="evenodd" clip-rule="evenodd" d="M64.0999 95.2998C60.6757 95.2998 57.8999 98.0756 57.8999 101.5C57.8999 104.924 60.6757 107.7 64.0999 107.7C67.5241 107.7 70.2999 104.924 70.2999 101.5C70.2999 98.0756 67.5241 95.2998 64.0999 95.2998ZM54.8999 101.5C54.8999 96.4188 59.0189 92.2998 64.0999 92.2998C69.1809 92.2998 73.2999 96.4188 73.2999 101.5C73.2999 106.581 69.1809 110.7 64.0999 110.7C59.0189 110.7 54.8999 106.581 54.8999 101.5Z" fill="white"/>
<path fill-rule="evenodd" clip-rule="evenodd" d="M53.0247 61.531L63.4247 93.131L60.5751 94.0689L50.1751 62.4689L53.0247 61.531Z" fill="white"/>
<path fill-rule="evenodd" clip-rule="evenodd" d="M92.9916 51.0877L57.2916 55.6877L56.9082 52.7123L92.6082 48.1123L92.9916 51.0877Z" fill="white"/>
<path fill-rule="evenodd" clip-rule="evenodd" d="M95.7083 76.7411L98.0083 55.1411L100.991 55.4588L98.6914 77.0588L95.7083 76.7411Z" fill="white"/>
<path fill-rule="evenodd" clip-rule="evenodd" d="M56.011 57.6382L89.611 79.2382L87.9887 81.7617L54.3887 60.1617L56.011 57.6382Z" fill="white"/>
<path fill-rule="evenodd" clip-rule="evenodd" d="M103.08 111.084L96.8801 92.8836L99.7198 91.9163L105.92 110.116L103.08 111.084Z" fill="white"/>
<path fill-rule="evenodd" clip-rule="evenodd" d="M70.2086 96.6688L88.3086 87.2688L89.6912 89.9312L71.5912 99.3312L70.2086 96.6688Z" fill="white"/>
<path fill-rule="evenodd" clip-rule="evenodd" d="M43.0134 110.666L56.6134 103.666L57.9863 106.334L44.3863 113.334L43.0134 110.666Z" fill="white"/>
<path fill-rule="evenodd" clip-rule="evenodd" d="M60.2131 30.203L53.9131 47.903L51.0868 46.897L57.3868 29.197L60.2131 30.203Z" fill="white"/>
<path fill-rule="evenodd" clip-rule="evenodd" d="M141.795 53.1572L134.837 65.052L122.943 58.0947L124.457 55.5051L133.762 60.9478L139.205 51.6426L141.795 53.1572Z" fill="white"/>
<path fill-rule="evenodd" clip-rule="evenodd" d="M75.2 16.2C46.7242 16.2 22.9298 36.3869 17.4698 63.1993L14.5302 62.6006C20.2702 34.413 45.2757 13.2 75.2 13.2C105.129 13.2 130.131 34.518 135.87 62.8017L132.93 63.3982C127.469 36.4819 103.671 16.2 75.2 16.2Z" fill="white"/>
<path fill-rule="evenodd" clip-rule="evenodd" d="M135.2 73.2998C131.776 73.2998 129 76.0756 129 79.4998C129 82.924 131.776 85.6998 135.2 85.6998C138.624 85.6998 141.4 82.924 141.4 79.4998C141.4 76.0756 138.624 73.2998 135.2 73.2998ZM126 79.4998C126 74.4188 130.119 70.2998 135.2 70.2998C140.281 70.2998 144.4 74.4188 144.4 79.4998C144.4 84.5808 140.281 88.6998 135.2 88.6998C130.119 88.6998 126 84.5808 126 79.4998Z" fill="white"/>
<path fill-rule="evenodd" clip-rule="evenodd" d="M15.1625 84.9478L27.0573 91.9051L25.5427 94.4946L16.2374 89.052L10.7948 98.3572L8.20519 96.8425L15.1625 84.9478Z" fill="white"/>
<path fill-rule="evenodd" clip-rule="evenodd" d="M17.1699 86.6018C22.6312 113.518 46.4291 133.8 74.8999 133.8C103.274 133.8 127.07 113.615 132.53 86.8008L135.47 87.3994C129.73 115.586 104.726 136.8 74.8999 136.8C44.9707 136.8 19.9685 115.482 14.2298 87.1983L17.1699 86.6018Z" fill="white"/>
<path fill-rule="evenodd" clip-rule="evenodd" d="M87.2053 120.604L69.3053 107.304L71.0945 104.896L88.9945 118.196L87.2053 120.604Z" fill="white"/>
<path fill-rule="evenodd" clip-rule="evenodd" d="M127.709 82.0853L103.609 85.4853L103.19 82.5147L127.29 79.1147L127.709 82.0853Z" fill="white"/>
<path fill-rule="evenodd" clip-rule="evenodd" d="M43.3043 59.5729L22.4043 68.7729L21.1956 66.0272L42.0956 56.8271L43.3043 59.5729Z" fill="white"/>
<path fill-rule="evenodd" clip-rule="evenodd" d="M89.2241 30.4067L98.3241 40.7067L96.0758 42.693L86.9758 32.393L89.2241 30.4067Z" fill="white"/>
</g>
<defs>
<clipPath id="clip0_1_2007">
<rect width="150" height="150" fill="white"/>
</clipPath>
</defs>
</svg>
