<svg width="1376" height="724" viewBox="0 0 1376 724" fill="none" xmlns="http://www.w3.org/2000/svg">
<g filter="url(#filter0_dddddd_1117_13017)">
<path d="M192 150.383C192 99.9135 232.913 59.0001 283.383 59.0001H441.017C491.487 59.0001 532.4 99.9135 532.4 150.383V308.018C532.4 358.487 491.487 399.4 441.017 399.4H283.383C232.913 399.4 192 358.487 192 308.018V150.383Z" fill="white"/>
</g>
<path d="M324.593 126C336.121 126 345.69 134.908 346.514 146.407L353 237H297L302.658 146.604C303.383 135.022 312.989 126 324.593 126ZM436.633 160C448.234 160 457.957 168.772 459.148 180.312L465 237H409L414.089 180.602C415.141 168.936 424.92 160 436.633 160Z" fill="#FF5F46"/>
<path d="M403.498 315.396C402.683 327.001 393.031 336 381.396 336V335.999C369.848 335.999 360.236 327.129 359.312 315.617L353 237H409L403.498 315.396ZM282.396 237H298L294.065 293.282C293.486 301.572 286.593 308 278.283 308C270.035 308 263.17 301.663 262.513 293.44L258 237H282.396Z" fill="#FABFBA"/>
<path d="M603.901 217.2V139.92H623.773C632.752 139.92 640.149 141.503 645.964 144.667C651.852 147.759 656.194 152.211 658.991 158.026C661.861 163.767 663.296 170.685 663.296 178.781C663.296 186.73 661.861 193.575 658.991 199.315C656.194 205.056 651.852 209.472 645.964 212.563C640.149 215.655 632.752 217.2 623.773 217.2H603.901ZM613.175 209.472H623.552C630.986 209.472 636.911 208.258 641.327 205.829C645.743 203.327 648.908 199.794 650.821 195.231C652.735 190.594 653.692 185.111 653.692 178.781C653.692 172.304 652.735 166.747 650.821 162.111C648.908 157.474 645.743 153.904 641.327 151.402C636.911 148.899 630.986 147.648 623.552 147.648H613.175V209.472ZM691.345 218.525C686.929 218.525 683.249 217.715 680.305 216.096C677.361 214.403 675.153 212.195 673.681 209.472C672.209 206.675 671.473 203.695 671.473 200.53C671.473 196.703 672.43 193.464 674.343 190.815C676.33 188.091 679.09 186.031 682.623 184.632C686.156 183.234 690.278 182.535 694.988 182.535H709.45C709.45 178.781 709.009 175.653 708.126 173.151C707.242 170.648 705.807 168.771 703.82 167.52C701.833 166.269 699.183 165.643 695.871 165.643C692.559 165.643 689.726 166.49 687.37 168.183C685.015 169.802 683.543 172.231 682.954 175.469H673.46C673.902 171.642 675.19 168.44 677.324 165.864C679.458 163.215 682.145 161.227 685.383 159.903C688.695 158.504 692.191 157.805 695.871 157.805C701.097 157.805 705.402 158.762 708.788 160.675C712.174 162.515 714.676 165.128 716.295 168.514C717.914 171.826 718.724 175.763 718.724 180.327V217.2H710.444L709.892 207.264C709.156 208.81 708.199 210.282 707.022 211.68C705.918 213.005 704.593 214.183 703.047 215.213C701.502 216.243 699.735 217.053 697.748 217.642C695.834 218.231 693.7 218.525 691.345 218.525ZM692.67 210.687C695.098 210.687 697.343 210.135 699.404 209.031C701.465 207.927 703.231 206.455 704.703 204.615C706.249 202.701 707.426 200.567 708.236 198.211C709.046 195.856 709.45 193.391 709.45 190.815V189.711H695.761C692.302 189.711 689.468 190.152 687.26 191.035C685.126 191.919 683.58 193.17 682.623 194.789C681.666 196.335 681.188 198.101 681.188 200.088C681.188 202.223 681.63 204.099 682.513 205.719C683.396 207.264 684.684 208.479 686.377 209.362C688.143 210.245 690.241 210.687 692.67 210.687ZM751.746 217.2C748.434 217.2 745.563 216.685 743.135 215.655C740.706 214.624 738.829 212.895 737.504 210.466C736.253 207.963 735.627 204.615 735.627 200.419V166.968H725.471V159.13H735.627L736.842 144.667H744.901V159.13H761.351V166.968H744.901V200.419C744.901 203.879 745.6 206.234 746.999 207.485C748.397 208.663 750.863 209.251 754.395 209.251H761.13V217.2H751.746ZM788.868 218.525C784.452 218.525 780.772 217.715 777.828 216.096C774.884 214.403 772.676 212.195 771.204 209.472C769.732 206.675 768.996 203.695 768.996 200.53C768.996 196.703 769.953 193.464 771.866 190.815C773.853 188.091 776.613 186.031 780.146 184.632C783.679 183.234 787.801 182.535 792.511 182.535H806.973C806.973 178.781 806.532 175.653 805.649 173.151C804.765 170.648 803.33 168.771 801.343 167.52C799.356 166.269 796.706 165.643 793.394 165.643C790.082 165.643 787.249 166.49 784.893 168.183C782.538 169.802 781.066 172.231 780.477 175.469H770.983C771.425 171.642 772.713 168.44 774.847 165.864C776.981 163.215 779.668 161.227 782.906 159.903C786.218 158.504 789.714 157.805 793.394 157.805C798.62 157.805 802.925 158.762 806.311 160.675C809.697 162.515 812.199 165.128 813.818 168.514C815.437 171.826 816.247 175.763 816.247 180.327V217.2H807.967L807.415 207.264C806.679 208.81 805.722 210.282 804.545 211.68C803.441 213.005 802.116 214.183 800.57 215.213C799.025 216.243 797.258 217.053 795.271 217.642C793.357 218.231 791.223 218.525 788.868 218.525ZM790.193 210.687C792.621 210.687 794.866 210.135 796.927 209.031C798.988 207.927 800.754 206.455 802.226 204.615C803.772 202.701 804.949 200.567 805.759 198.211C806.569 195.856 806.973 193.391 806.973 190.815V189.711H793.284C789.825 189.711 786.991 190.152 784.783 191.035C782.649 191.919 781.103 193.17 780.146 194.789C779.189 196.335 778.711 198.101 778.711 200.088C778.711 202.223 779.153 204.099 780.036 205.719C780.919 207.264 782.207 208.479 783.9 209.362C785.666 210.245 787.764 210.687 790.193 210.687ZM857.181 218.525C853.648 218.525 850.594 218.01 848.018 216.979C845.516 215.875 843.381 214.514 841.615 212.895C839.922 211.275 838.524 209.693 837.42 208.147L836.647 217.2H828.256V137.712H837.53V168.293C839.296 164.834 841.909 162.221 845.368 160.455C848.828 158.688 852.692 157.805 856.96 157.805C862.26 157.805 866.896 159.093 870.871 161.669C874.845 164.245 877.936 167.815 880.144 172.378C882.352 176.867 883.456 182.056 883.456 187.944C883.456 193.759 882.352 198.984 880.144 203.621C877.936 208.258 874.845 211.901 870.871 214.551C866.97 217.2 862.407 218.525 857.181 218.525ZM855.967 210.466C859.426 210.466 862.48 209.583 865.13 207.816C867.853 205.976 869.988 203.4 871.533 200.088C873.152 196.703 873.962 192.728 873.962 188.165C873.962 183.602 873.152 179.664 871.533 176.352C869.988 172.967 867.853 170.391 865.13 168.624C862.48 166.784 859.426 165.864 855.967 165.864C852.287 165.864 849.085 166.784 846.362 168.624C843.639 170.391 841.541 172.967 840.069 176.352C838.597 179.664 837.861 183.602 837.861 188.165C837.861 192.728 838.597 196.703 840.069 200.088C841.541 203.4 843.639 205.976 846.362 207.816C849.085 209.583 852.287 210.466 855.967 210.466ZM893.621 217.2V159.13H902.011L902.674 169.728C903.999 167.079 905.728 164.871 907.863 163.104C909.997 161.338 912.573 160.013 915.591 159.13C918.682 158.247 922.141 157.805 925.968 157.805V167.52H920.227C918.019 167.52 915.885 167.815 913.824 168.403C911.763 168.992 909.887 169.949 908.194 171.274C906.575 172.599 905.287 174.402 904.33 176.683C903.373 178.965 902.895 181.835 902.895 185.295V217.2H893.621ZM934.209 217.2V159.13H943.483V217.2H934.209ZM938.846 148.09C937.006 148.09 935.461 147.501 934.209 146.323C933.032 145.072 932.443 143.527 932.443 141.687C932.443 139.847 933.032 138.375 934.209 137.271C935.461 136.093 937.006 135.504 938.846 135.504C940.613 135.504 942.121 136.093 943.373 137.271C944.624 138.375 945.249 139.847 945.249 141.687C945.249 143.527 944.624 145.072 943.373 146.323C942.121 147.501 940.613 148.09 938.846 148.09ZM981.705 218.525C976.405 218.525 971.695 217.274 967.573 214.771C963.452 212.195 960.213 208.626 957.858 204.063C955.503 199.499 954.325 194.2 954.325 188.165C954.325 182.056 955.503 176.757 957.858 172.267C960.213 167.704 963.452 164.171 967.573 161.669C971.695 159.093 976.405 157.805 981.705 157.805C988.329 157.805 993.849 159.571 998.265 163.104C1002.75 166.637 1005.62 171.384 1006.88 177.346H997.381C996.572 173.666 994.695 170.832 991.751 168.845C988.881 166.784 985.495 165.754 981.594 165.754C978.209 165.754 975.154 166.6 972.431 168.293C969.781 169.986 967.684 172.488 966.138 175.8C964.593 179.112 963.82 183.234 963.82 188.165C963.82 191.845 964.261 195.12 965.145 197.991C966.028 200.787 967.242 203.143 968.788 205.056C970.407 206.896 972.284 208.295 974.418 209.251C976.626 210.208 979.018 210.687 981.594 210.687C984.244 210.687 986.636 210.245 988.77 209.362C990.978 208.405 992.818 207.043 994.29 205.277C995.836 203.511 996.866 201.413 997.381 198.984H1006.88C1005.7 204.799 1002.83 209.509 998.265 213.115C993.775 216.722 988.255 218.525 981.705 218.525ZM1051.16 217.2L1024.78 185.847L1049.62 159.13H1060.99L1032.62 189.159L1032.73 182.535L1062.98 217.2H1051.16ZM1017.05 217.2V137.712H1026.32V217.2H1017.05ZM1087.22 218.525C1081.99 218.525 1077.65 217.752 1074.19 216.207C1070.8 214.587 1068.23 212.379 1066.46 209.583C1064.7 206.712 1063.63 203.4 1063.26 199.647H1072.76C1073.05 201.634 1073.71 203.474 1074.74 205.167C1075.85 206.786 1077.43 208.111 1079.49 209.141C1081.55 210.171 1084.16 210.687 1087.33 210.687C1089.83 210.687 1091.96 210.319 1093.73 209.583C1095.5 208.773 1096.82 207.669 1097.71 206.271C1098.66 204.872 1099.14 203.253 1099.14 201.413C1099.14 198.984 1098.59 197.107 1097.48 195.783C1096.45 194.384 1094.91 193.354 1092.85 192.691C1090.86 191.955 1088.36 191.403 1085.34 191.035C1082.1 190.594 1079.23 189.968 1076.73 189.159C1074.23 188.349 1072.09 187.282 1070.33 185.957C1068.63 184.632 1067.35 182.976 1066.46 180.989C1065.58 179.002 1065.14 176.647 1065.14 173.923C1065.14 170.759 1065.98 167.962 1067.68 165.533C1069.37 163.104 1071.76 161.227 1074.85 159.903C1078.02 158.504 1081.73 157.805 1086 157.805C1092.26 157.805 1097.19 159.24 1100.8 162.111C1104.48 164.981 1106.65 169.066 1107.31 174.365H1098.15C1097.78 171.642 1096.53 169.507 1094.39 167.962C1092.26 166.416 1089.43 165.643 1085.89 165.643C1082.14 165.643 1079.31 166.343 1077.39 167.741C1075.48 169.139 1074.52 170.979 1074.52 173.261C1074.52 174.954 1074.93 176.499 1075.74 177.898C1076.62 179.223 1078.09 180.363 1080.15 181.32C1082.21 182.203 1084.97 182.866 1088.43 183.307C1092.77 183.823 1096.45 184.669 1099.47 185.847C1102.49 186.951 1104.77 188.68 1106.32 191.035C1107.94 193.391 1108.71 196.592 1108.64 200.64C1108.64 204.467 1107.72 207.706 1105.88 210.355C1104.11 213.005 1101.61 215.029 1098.37 216.427C1095.2 217.826 1091.49 218.525 1087.22 218.525ZM603.239 316.2V238.92H628.189C637.168 238.92 644.565 240.503 650.38 243.667C656.268 246.832 660.61 251.322 663.407 257.136C666.277 262.877 667.712 269.722 667.712 277.671C667.712 285.472 666.277 292.28 663.407 298.095C660.61 303.835 656.268 308.288 650.38 311.453C644.565 314.618 637.168 316.2 628.189 316.2H603.239ZM616.487 304.939H627.527C634.224 304.939 639.487 303.872 643.314 301.738C647.215 299.53 649.975 296.402 651.594 292.354C653.287 288.232 654.133 283.338 654.133 277.671C654.133 271.93 653.287 267.035 651.594 262.987C649.975 258.866 647.215 255.701 643.314 253.493C639.487 251.211 634.224 250.071 627.527 250.071H616.487V304.939ZM695.442 317.525C690.879 317.525 687.088 316.752 684.071 315.207C681.053 313.661 678.808 311.6 677.336 309.024C675.864 306.448 675.128 303.651 675.128 300.634C675.128 297.101 676.011 294.047 677.778 291.471C679.618 288.895 682.304 286.907 685.837 285.509C689.37 284.037 693.712 283.301 698.864 283.301H712.885C712.885 280.357 712.48 277.928 711.671 276.015C710.861 274.027 709.61 272.555 707.917 271.599C706.224 270.642 704.053 270.163 701.403 270.163C698.386 270.163 695.81 270.863 693.675 272.261C691.541 273.586 690.216 275.647 689.701 278.443H676.674C677.115 274.469 678.44 271.083 680.648 268.287C682.856 265.416 685.763 263.208 689.37 261.663C693.05 260.043 697.061 259.234 701.403 259.234C706.629 259.234 711.082 260.154 714.762 261.994C718.442 263.76 721.239 266.336 723.152 269.722C725.139 273.034 726.133 277.045 726.133 281.755V316.2H714.872L713.547 307.258C712.811 308.73 711.855 310.091 710.677 311.343C709.573 312.594 708.285 313.698 706.813 314.655C705.341 315.538 703.648 316.237 701.735 316.752C699.895 317.267 697.797 317.525 695.442 317.525ZM698.423 307.037C700.557 307.037 702.434 306.669 704.053 305.933C705.746 305.123 707.181 304.019 708.359 302.621C709.61 301.149 710.567 299.53 711.229 297.763C711.891 295.997 712.333 294.12 712.554 292.133V291.912H700.299C697.723 291.912 695.589 292.243 693.896 292.906C692.203 293.495 690.989 294.378 690.253 295.555C689.517 296.733 689.149 298.095 689.149 299.64C689.149 301.186 689.517 302.511 690.253 303.615C690.989 304.719 692.056 305.565 693.455 306.154C694.853 306.743 696.509 307.037 698.423 307.037ZM760.291 316.2C756.538 316.2 753.263 315.611 750.466 314.434C747.743 313.256 745.608 311.306 744.063 308.583C742.517 305.859 741.744 302.179 741.744 297.543V271.709H732.25V260.559H741.744L743.29 245.875H754.992V260.559H770.117V271.709H754.992V297.543C754.992 300.339 755.581 302.29 756.759 303.394C758.01 304.424 760.071 304.939 762.941 304.939H769.786V316.2H760.291ZM797.816 317.525C793.253 317.525 789.463 316.752 786.445 315.207C783.427 313.661 781.183 311.6 779.711 309.024C778.239 306.448 777.503 303.651 777.503 300.634C777.503 297.101 778.386 294.047 780.152 291.471C781.992 288.895 784.679 286.907 788.211 285.509C791.744 284.037 796.087 283.301 801.239 283.301H815.259C815.259 280.357 814.855 277.928 814.045 276.015C813.235 274.027 811.984 272.555 810.291 271.599C808.599 270.642 806.427 270.163 803.778 270.163C800.76 270.163 798.184 270.863 796.05 272.261C793.915 273.586 792.591 275.647 792.075 278.443H779.048C779.49 274.469 780.815 271.083 783.023 268.287C785.231 265.416 788.138 263.208 791.744 261.663C795.424 260.043 799.435 259.234 803.778 259.234C809.003 259.234 813.456 260.154 817.136 261.994C820.816 263.76 823.613 266.336 825.527 269.722C827.514 273.034 828.507 277.045 828.507 281.755V316.2H817.247L815.922 307.258C815.186 308.73 814.229 310.091 813.051 311.343C811.947 312.594 810.659 313.698 809.187 314.655C807.715 315.538 806.023 316.237 804.109 316.752C802.269 317.267 800.171 317.525 797.816 317.525ZM800.797 307.037C802.931 307.037 804.808 306.669 806.427 305.933C808.12 305.123 809.555 304.019 810.733 302.621C811.984 301.149 812.941 299.53 813.603 297.763C814.266 295.997 814.707 294.12 814.928 292.133V291.912H802.674C800.098 291.912 797.963 292.243 796.271 292.906C794.578 293.495 793.363 294.378 792.627 295.555C791.891 296.733 791.523 298.095 791.523 299.64C791.523 301.186 791.891 302.511 792.627 303.615C793.363 304.719 794.431 305.565 795.829 306.154C797.227 306.743 798.883 307.037 800.797 307.037ZM889.377 317.525C883.784 317.525 878.816 316.531 874.473 314.544C870.131 312.557 866.745 309.723 864.317 306.043C861.888 302.363 860.637 297.984 860.563 292.906H874.584C874.584 295.482 875.173 297.8 876.35 299.861C877.601 301.848 879.294 303.431 881.429 304.608C883.637 305.786 886.286 306.375 889.377 306.375C892.027 306.375 894.309 305.97 896.222 305.16C898.209 304.277 899.718 303.063 900.749 301.517C901.853 299.898 902.405 298.021 902.405 295.887C902.405 293.458 901.816 291.471 900.638 289.925C899.534 288.306 897.989 286.944 896.001 285.84C894.014 284.736 891.733 283.779 889.157 282.97C886.581 282.087 883.857 281.167 880.987 280.21C874.878 278.149 870.278 275.536 867.187 272.371C864.096 269.133 862.55 264.827 862.55 259.455C862.55 254.965 863.617 251.101 865.752 247.863C867.886 244.624 870.867 242.122 874.694 240.355C878.595 238.515 883.085 237.595 888.163 237.595C893.315 237.595 897.805 238.515 901.632 240.355C905.533 242.195 908.587 244.771 910.795 248.083C913.077 251.322 914.254 255.223 914.328 259.786H900.197C900.123 257.872 899.608 256.106 898.651 254.487C897.694 252.794 896.296 251.432 894.456 250.402C892.689 249.298 890.518 248.746 887.942 248.746C885.734 248.672 883.747 249.04 881.981 249.85C880.288 250.586 878.926 251.69 877.896 253.162C876.939 254.56 876.461 256.327 876.461 258.461C876.461 260.522 876.902 262.251 877.785 263.65C878.742 264.975 880.104 266.115 881.87 267.072C883.637 267.955 885.697 268.802 888.053 269.611C890.408 270.421 892.984 271.304 895.781 272.261C899.608 273.512 903.067 275.058 906.158 276.898C909.323 278.664 911.825 280.983 913.665 283.853C915.505 286.723 916.425 290.44 916.425 295.003C916.425 298.978 915.395 302.695 913.334 306.154C911.273 309.539 908.256 312.299 904.281 314.434C900.307 316.495 895.339 317.525 889.377 317.525ZM949.731 316.2C945.977 316.2 942.702 315.611 939.905 314.434C937.182 313.256 935.048 311.306 933.502 308.583C931.957 305.859 931.184 302.179 931.184 297.543V271.709H921.689V260.559H931.184L932.729 245.875H944.432V260.559H959.557V271.709H944.432V297.543C944.432 300.339 945.021 302.29 946.198 303.394C947.449 304.424 949.51 304.939 952.381 304.939H959.225V316.2H949.731ZM968.709 316.2V260.559H980.521L981.736 270.936C983.061 268.507 984.717 266.447 986.704 264.754C988.691 262.987 991.009 261.626 993.659 260.669C996.382 259.712 999.363 259.234 1002.6 259.234V273.255H997.965C995.757 273.255 993.659 273.549 991.672 274.138C989.685 274.653 987.955 275.536 986.483 276.787C985.085 277.965 983.981 279.621 983.171 281.755C982.361 283.816 981.957 286.429 981.957 289.594V316.2H968.709ZM1034.14 317.525C1028.62 317.525 1023.77 316.347 1019.57 313.992C1015.38 311.563 1012.1 308.178 1009.75 303.835C1007.39 299.493 1006.21 294.488 1006.21 288.821C1006.21 282.933 1007.35 277.781 1009.64 273.365C1011.99 268.949 1015.27 265.49 1019.46 262.987C1023.73 260.485 1028.66 259.234 1034.26 259.234C1039.7 259.234 1044.45 260.448 1048.5 262.877C1052.54 265.306 1055.67 268.581 1057.88 272.703C1060.09 276.751 1061.19 281.314 1061.19 286.392C1061.19 287.128 1061.19 287.938 1061.19 288.821C1061.19 289.704 1061.12 290.624 1060.97 291.581H1015.71V283.08H1047.83C1047.69 279.032 1046.33 275.867 1043.75 273.586C1041.17 271.231 1037.97 270.053 1034.14 270.053C1031.42 270.053 1028.92 270.679 1026.64 271.93C1024.36 273.181 1022.55 275.058 1021.23 277.56C1019.9 279.989 1019.24 283.08 1019.24 286.834V290.035C1019.24 293.495 1019.87 296.475 1021.12 298.978C1022.44 301.48 1024.21 303.394 1026.42 304.719C1028.7 305.97 1031.24 306.595 1034.03 306.595C1037.13 306.595 1039.66 305.933 1041.65 304.608C1043.71 303.283 1045.22 301.517 1046.18 299.309H1059.65C1058.62 302.768 1056.92 305.896 1054.57 308.693C1052.21 311.416 1049.31 313.587 1045.85 315.207C1042.39 316.752 1038.49 317.525 1034.14 317.525ZM1088.66 317.525C1084.1 317.525 1080.31 316.752 1077.29 315.207C1074.27 313.661 1072.03 311.6 1070.55 309.024C1069.08 306.448 1068.35 303.651 1068.35 300.634C1068.35 297.101 1069.23 294.047 1071 291.471C1072.84 288.895 1075.52 286.907 1079.06 285.509C1082.59 284.037 1086.93 283.301 1092.08 283.301H1106.1C1106.1 280.357 1105.7 277.928 1104.89 276.015C1104.08 274.027 1102.83 272.555 1101.14 271.599C1099.44 270.642 1097.27 270.163 1094.62 270.163C1091.6 270.163 1089.03 270.863 1086.89 272.261C1084.76 273.586 1083.43 275.647 1082.92 278.443H1069.89C1070.33 274.469 1071.66 271.083 1073.87 268.287C1076.07 265.416 1078.98 263.208 1082.59 261.663C1086.27 260.043 1090.28 259.234 1094.62 259.234C1099.85 259.234 1104.3 260.154 1107.98 261.994C1111.66 263.76 1114.46 266.336 1116.37 269.722C1118.36 273.034 1119.35 277.045 1119.35 281.755V316.2H1108.09L1106.77 307.258C1106.03 308.73 1105.07 310.091 1103.9 311.343C1102.79 312.594 1101.5 313.698 1100.03 314.655C1098.56 315.538 1096.87 316.237 1094.95 316.752C1093.11 317.267 1091.02 317.525 1088.66 317.525ZM1091.64 307.037C1093.78 307.037 1095.65 306.669 1097.27 305.933C1098.96 305.123 1100.4 304.019 1101.58 302.621C1102.83 301.149 1103.78 299.53 1104.45 297.763C1105.11 295.997 1105.55 294.12 1105.77 292.133V291.912H1093.52C1090.94 291.912 1088.81 292.243 1087.11 292.906C1085.42 293.495 1084.21 294.378 1083.47 295.555C1082.74 296.733 1082.37 298.095 1082.37 299.64C1082.37 301.186 1082.74 302.511 1083.47 303.615C1084.21 304.719 1085.27 305.565 1086.67 306.154C1088.07 306.743 1089.73 307.037 1091.64 307.037ZM1130.19 316.2V260.559H1141.9L1143 268.176C1144.77 265.379 1147.09 263.208 1149.96 261.663C1152.9 260.043 1156.25 259.234 1160 259.234C1162.8 259.234 1165.3 259.602 1167.51 260.338C1169.79 261.074 1171.78 262.178 1173.47 263.65C1175.24 265.122 1176.67 266.962 1177.78 269.17C1179.84 266.079 1182.52 263.65 1185.84 261.883C1189.15 260.117 1192.75 259.234 1196.66 259.234C1201.29 259.234 1205.23 260.191 1208.47 262.104C1211.71 263.944 1214.17 266.704 1215.86 270.384C1217.56 273.991 1218.4 278.443 1218.4 283.743V316.2H1205.27V285.067C1205.27 280.357 1204.31 276.751 1202.4 274.248C1200.48 271.746 1197.65 270.495 1193.9 270.495C1191.32 270.495 1189.04 271.12 1187.05 272.371C1185.14 273.623 1183.63 275.463 1182.52 277.891C1181.42 280.247 1180.87 283.154 1180.87 286.613V316.2H1167.73V285.067C1167.73 280.357 1166.77 276.751 1164.86 274.248C1162.95 271.746 1160.08 270.495 1156.25 270.495C1153.82 270.495 1151.61 271.12 1149.62 272.371C1147.71 273.623 1146.2 275.463 1145.1 277.891C1143.99 280.247 1143.44 283.154 1143.44 286.613V316.2H1130.19ZM1229.64 316.2V260.559H1242.89V316.2H1229.64ZM1236.26 251.727C1233.84 251.727 1231.81 250.991 1230.19 249.519C1228.65 247.973 1227.87 246.096 1227.87 243.888C1227.87 241.607 1228.65 239.767 1230.19 238.368C1231.81 236.896 1233.84 236.16 1236.26 236.16C1238.69 236.16 1240.68 236.896 1242.23 238.368C1243.85 239.767 1244.66 241.607 1244.66 243.888C1244.66 246.096 1243.85 247.973 1242.23 249.519C1240.68 250.991 1238.69 251.727 1236.26 251.727ZM1254.89 316.2V260.559H1266.59L1267.58 269.832C1269.27 266.594 1271.7 264.018 1274.87 262.104C1278.03 260.191 1281.79 259.234 1286.13 259.234C1290.62 259.234 1294.45 260.191 1297.61 262.104C1300.78 263.944 1303.2 266.667 1304.9 270.274C1306.66 273.88 1307.55 278.37 1307.55 283.743V316.2H1294.3V284.957C1294.3 280.32 1293.27 276.751 1291.21 274.248C1289.15 271.746 1286.09 270.495 1282.04 270.495C1279.39 270.495 1277 271.12 1274.87 272.371C1272.81 273.623 1271.15 275.463 1269.9 277.891C1268.72 280.247 1268.13 283.117 1268.13 286.503V316.2H1254.89ZM1341.61 341.813C1336.38 341.813 1331.78 341.151 1327.81 339.826C1323.91 338.575 1320.85 336.624 1318.64 333.975C1316.51 331.399 1315.44 328.16 1315.44 324.259C1315.44 321.978 1315.99 319.733 1317.1 317.525C1318.28 315.391 1320.01 313.403 1322.29 311.563C1324.64 309.65 1327.62 307.994 1331.23 306.595L1337.08 312.999C1333.55 314.25 1331.08 315.759 1329.68 317.525C1328.29 319.291 1327.59 321.095 1327.59 322.935C1327.59 324.848 1328.17 326.431 1329.35 327.682C1330.6 329.007 1332.26 330 1334.32 330.663C1336.45 331.325 1338.85 331.656 1341.5 331.656C1344.07 331.656 1346.32 331.288 1348.23 330.552C1350.14 329.89 1351.62 328.933 1352.65 327.682C1353.75 326.431 1354.3 324.922 1354.3 323.155C1354.3 320.947 1353.53 319.144 1351.98 317.746C1350.44 316.421 1347.38 315.611 1342.82 315.317C1338.92 315.023 1335.5 314.618 1332.55 314.103C1329.61 313.514 1327.07 312.851 1324.94 312.115C1322.88 311.379 1321.11 310.57 1319.64 309.687C1318.17 308.73 1316.95 307.773 1315.99 306.816V304.277L1327.59 292.133L1337.41 295.335L1324.38 308.031L1327.81 301.627C1328.54 302.143 1329.28 302.621 1330.01 303.063C1330.82 303.504 1331.82 303.909 1333 304.277C1334.25 304.571 1335.87 304.866 1337.85 305.16C1339.84 305.455 1342.42 305.749 1345.58 306.043C1350.51 306.411 1354.52 307.295 1357.61 308.693C1360.71 310.091 1362.99 311.968 1364.46 314.323C1365.93 316.679 1366.67 319.512 1366.67 322.824C1366.67 326.063 1365.75 329.117 1363.91 331.987C1362.14 334.858 1359.42 337.213 1355.74 339.053C1352.06 340.893 1347.35 341.813 1341.61 341.813ZM1341.61 299.53C1336.97 299.53 1332.96 298.647 1329.57 296.88C1326.26 295.04 1323.72 292.611 1321.96 289.594C1320.19 286.503 1319.31 283.117 1319.31 279.437C1319.31 275.683 1320.19 272.298 1321.96 269.28C1323.72 266.263 1326.26 263.834 1329.57 261.994C1332.96 260.154 1336.97 259.234 1341.61 259.234C1346.24 259.234 1350.22 260.154 1353.53 261.994C1356.84 263.834 1359.38 266.263 1361.15 269.28C1362.91 272.298 1363.8 275.683 1363.8 279.437C1363.8 283.117 1362.91 286.503 1361.15 289.594C1359.38 292.611 1356.84 295.04 1353.53 296.88C1350.22 298.647 1346.24 299.53 1341.61 299.53ZM1341.61 289.263C1344.77 289.263 1347.31 288.416 1349.22 286.723C1351.14 285.031 1352.09 282.602 1352.09 279.437C1352.09 276.272 1351.14 273.88 1349.22 272.261C1347.31 270.568 1344.77 269.722 1341.61 269.722C1338.44 269.722 1335.87 270.568 1333.88 272.261C1331.89 273.88 1330.9 276.272 1330.9 279.437C1330.9 282.602 1331.89 285.031 1333.88 286.723C1335.87 288.416 1338.44 289.263 1341.61 289.263ZM1350.77 270.274L1348.23 260.559H1371.08V268.839L1350.77 270.274Z" fill="white"/>
<defs>
<filter id="filter0_dddddd_1117_13017" x="0.639999" y="0.120117" width="723.12" height="723.12" filterUnits="userSpaceOnUse" color-interpolation-filters="sRGB">
<feFlood flood-opacity="0" result="BackgroundImageFix"/>
<feColorMatrix in="SourceAlpha" type="matrix" values="0 0 0 0 0 0 0 0 0 0 0 0 0 0 0 0 0 0 127 0" result="hardAlpha"/>
<feOffset dy="3.68"/>
<feGaussianBlur stdDeviation="2.76"/>
<feColorMatrix type="matrix" values="0 0 0 0 0.105882 0 0 0 0 0.192157 0 0 0 0 0.223529 0 0 0 0.0196802 0"/>
<feBlend mode="normal" in2="BackgroundImageFix" result="effect1_dropShadow_1117_13017"/>
<feColorMatrix in="SourceAlpha" type="matrix" values="0 0 0 0 0 0 0 0 0 0 0 0 0 0 0 0 0 0 127 0" result="hardAlpha"/>
<feOffset dy="7.36"/>
<feGaussianBlur stdDeviation="7.36"/>
<feColorMatrix type="matrix" values="0 0 0 0 0.105882 0 0 0 0 0.192157 0 0 0 0 0.223529 0 0 0 0.04 0"/>
<feBlend mode="normal" in2="effect1_dropShadow_1117_13017" result="effect2_dropShadow_1117_13017"/>
<feColorMatrix in="SourceAlpha" type="matrix" values="0 0 0 0 0 0 0 0 0 0 0 0 0 0 0 0 0 0 127 0" result="hardAlpha"/>
<feOffset dy="16.56"/>
<feGaussianBlur stdDeviation="11.96"/>
<feColorMatrix type="matrix" values="0 0 0 0 0.105882 0 0 0 0 0.192157 0 0 0 0 0.223529 0 0 0 0.035 0"/>
<feBlend mode="normal" in2="effect2_dropShadow_1117_13017" result="effect3_dropShadow_1117_13017"/>
<feColorMatrix in="SourceAlpha" type="matrix" values="0 0 0 0 0 0 0 0 0 0 0 0 0 0 0 0 0 0 127 0" result="hardAlpha"/>
<feOffset dy="29.44"/>
<feGaussianBlur stdDeviation="22.08"/>
<feColorMatrix type="matrix" values="0 0 0 0 0.105882 0 0 0 0 0.192157 0 0 0 0 0.223529 0 0 0 0.04 0"/>
<feBlend mode="normal" in2="effect3_dropShadow_1117_13017" result="effect4_dropShadow_1117_13017"/>
<feColorMatrix in="SourceAlpha" type="matrix" values="0 0 0 0 0 0 0 0 0 0 0 0 0 0 0 0 0 0 127 0" result="hardAlpha"/>
<feOffset dy="58.88"/>
<feGaussianBlur stdDeviation="36.8"/>
<feColorMatrix type="matrix" values="0 0 0 0 0.105882 0 0 0 0 0.192157 0 0 0 0 0.223529 0 0 0 0.0503198 0"/>
<feBlend mode="normal" in2="effect4_dropShadow_1117_13017" result="effect5_dropShadow_1117_13017"/>
<feColorMatrix in="SourceAlpha" type="matrix" values="0 0 0 0 0 0 0 0 0 0 0 0 0 0 0 0 0 0 127 0" result="hardAlpha"/>
<feOffset dy="132.48"/>
<feGaussianBlur stdDeviation="95.68"/>
<feColorMatrix type="matrix" values="0 0 0 0 0.105882 0 0 0 0 0.192157 0 0 0 0 0.223529 0 0 0 0.07 0"/>
<feBlend mode="normal" in2="effect5_dropShadow_1117_13017" result="effect6_dropShadow_1117_13017"/>
<feBlend mode="normal" in="SourceGraphic" in2="effect6_dropShadow_1117_13017" result="shape"/>
</filter>
</defs>
</svg>
