<svg width="1080" height="1080" viewBox="0 0 1080 1080" fill="none" xmlns="http://www.w3.org/2000/svg">
<path d="M540 101L159.8 320.48V759.48L540 979L920.2 759.48V320.48L540 101ZM892.79 336.32V743.68L540 947.4L187.21 743.69V336.31L540 132.6L892.79 336.31V336.32Z" fill="#1B3139"/>
<path d="M801.9 691.21C766.97 751.69 679.67 781.94 609.83 660.97C679.69 781.94 609.83 842.42 539.99 842.42V947.4L892.78 743.69L801.9 691.21Z" fill="#095A35"/>
<path d="M679.69 540C819.36 540 836.83 630.72 801.9 691.21L892.78 743.68V336.32L801.9 388.79C836.83 449.27 819.36 540 679.69 540Z" fill="#3380AA"/>
<path d="M540 237.58C609.84 237.6 679.67 298.08 609.84 419.03C679.68 298.08 766.98 328.3 801.91 388.79L892.79 336.32L540 132.6V237.58Z" fill="#B0C2CB"/>
<path d="M470.16 419.03C400.3 298.06 470.16 237.58 540 237.58V132.6L187.21 336.31L278.1 388.79C313.03 328.31 400.33 298.07 470.17 419.04L470.16 419.03Z" fill="#EC9B21"/>
<path d="M278.09 691.21C243.16 630.73 260.63 540 400.32 540C260.63 540 243.16 449.27 278.09 388.79L187.2 336.31V743.69L278.09 691.21Z" fill="#5A4E66"/>
<path d="M470.16 660.97C400.32 781.94 313.02 751.7 278.09 691.22L187.2 743.7L539.99 947.41V842.43C470.15 842.43 400.3 781.94 470.15 660.98L470.16 660.97Z" fill="black"/>
<path d="M745.32 421.5L744.56 421.95C654.19 474.89 654.39 605.83 745.17 658.46L801.91 691.22C836.84 630.74 819.37 540.01 679.7 540.01C819.37 540.01 836.84 449.29 801.91 388.8L743.63 422.45C744.19 422.13 744.76 421.84 745.32 421.51V421.5Z" fill="#7BC1DF"/>
<path d="M540.03 303.82C540.04 303.66 540.04 303.5 540.04 303.36C540.37 407.82 652.79 473.23 743.63 422.44L801.91 388.79C766.98 328.31 679.68 298.08 609.84 419.03C679.68 298.08 609.84 237.6 540 237.58V305C540 304.6 540.02 304.21 540.03 303.82Z" fill="#E7E7E7"/>
<path d="M470.16 419.03C400.32 298.06 313.02 328.3 278.09 388.78L335.33 421.83L335.54 421.95C426.05 473.41 538.51 408.83 539.99 304.99V237.57C470.15 237.57 400.3 298.05 470.15 419.02L470.16 419.03Z" fill="#EDDD77"/>
<path d="M335.05 421.68L335.34 421.84L278.1 388.79C243.17 449.27 260.64 540 400.33 540C260.64 540 243.17 630.73 278.1 691.21L336.14 657.7C425.82 604.51 425.46 474.23 335.05 421.68Z" fill="#CE7280"/>
<path d="M335.5 658.12L335.2 658.29C335.03 658.37 334.86 658.47 334.68 658.58C335.17 658.29 335.65 657.99 336.14 657.7L278.1 691.21C313.03 751.69 400.33 781.93 470.17 660.96C400.31 781.93 470.17 842.41 540.01 842.41V774.79C538.33 671.08 425.95 606.64 335.51 658.11L335.5 658.12Z" fill="#595959"/>
<path d="M745.27 658.51L744.66 658.17C744.66 658.17 744.63 658.16 744.61 658.15L744.6 658.14C653.61 606.35 540.4 671.85 540.04 776.64C540.04 776.02 540.01 775.42 540 774.8V842.42C609.84 842.42 679.69 781.94 609.84 660.97C679.68 781.94 766.98 751.7 801.91 691.21L745.17 658.45C745.17 658.45 745.24 658.49 745.27 658.51Z" fill="#3BAF7D"/>
<path d="M424.29 473.19C475.72 502.89 539.99 465.77 539.99 406.39C539.99 407.23 540.01 408.06 540.03 408.88V303.35C540.03 303.49 540.03 303.65 540.02 303.81C540.02 304.21 540 304.6 539.99 304.99C538.51 408.83 426.05 473.41 335.54 421.95L424.41 473.26C424.41 473.26 424.33 473.21 424.28 473.18L424.29 473.19Z" fill="#EDE7C0"/>
<path d="M744.61 658.15C744.61 658.15 744.65 658.16 744.66 658.17L744.61 658.14V658.15Z" fill="#F4F4F4"/>
<path d="M655.71 473.19C654.96 473.62 654.23 474.06 653.51 474.51L744.56 421.94L745.32 421.49C744.76 421.81 744.19 422.11 743.63 422.43C652.79 473.22 540.37 407.81 540.04 303.35V408.88C541.81 466.79 605.01 502.46 655.71 473.18V473.19Z" fill="#F1F1F1"/>
<path d="M655.71 606.8C655.53 606.7 655.36 606.61 655.18 606.51L744.6 658.14H744.61L744.66 658.17L745.27 658.51C745.27 658.51 745.2 658.47 745.17 658.45C654.39 605.82 654.19 474.89 744.56 421.94L653.51 474.51C604.3 505.03 605.03 577.54 655.71 606.8Z" fill="#A2D1E5"/>
<path d="M540 673.61C540 615.08 477.56 578.19 426.52 605.57L335.51 658.12C425.95 606.65 538.33 671.09 540.01 774.8C540.01 775.41 540.05 776.02 540.05 776.64V671.11C540.02 671.94 540.01 672.77 540.01 673.6L540 673.61Z" fill="#7D7D7D"/>
<path d="M336.14 657.7C335.65 657.99 335.17 658.29 334.68 658.58C334.86 658.47 335.03 658.38 335.2 658.29L335.5 658.12L426.51 605.57C425.77 605.97 425.03 606.38 424.29 606.8C475.68 577.14 475.72 503.01 424.42 473.27L335.55 421.96L335.34 421.84L335.05 421.68C425.46 474.23 425.82 604.51 336.14 657.7Z" fill="#CE8E97"/>
<path d="M540.04 671.11V776.64C540.4 671.85 653.61 606.35 744.6 658.14L655.18 606.51C604.56 577.79 541.8 613.39 540.04 671.12V671.11Z" fill="#86C1A7"/>
<path d="M540 673.61C540 672.77 540.02 671.94 540.04 671.12C541.8 613.4 604.57 577.79 655.18 606.51C655.36 606.61 655.53 606.7 655.71 606.8C605.03 577.54 604.29 505.03 653.51 474.51C654.23 474.06 654.97 473.62 655.71 473.19C605 502.47 541.81 466.8 540.04 408.89C540.01 408.06 540 407.23 540 406.4C540 465.78 475.73 502.89 424.3 473.2C424.34 473.22 424.38 473.25 424.43 473.28C475.73 503.03 475.69 577.15 424.3 606.81C425.04 606.38 425.78 605.98 426.52 605.58C477.56 578.2 540 615.08 540 673.62V673.61Z" fill="white"/>
</svg>
