<svg width="1080" height="1080" viewBox="0 0 1080 1080" fill="none" xmlns="http://www.w3.org/2000/svg">
<path d="M540 101L159.8 320.48V759.48L540 979L920.2 759.48V320.48L540 101ZM892.79 336.32V743.68L540 947.4L187.21 743.69V336.31L540 132.6L892.79 336.31V336.32Z" fill="#1B3139"/>
<path d="M801.9 691.21C766.97 751.69 679.67 781.94 609.83 660.97C679.69 781.94 609.83 842.42 539.99 842.42V947.4L892.78 743.69L801.9 691.21Z" fill="#095A35"/>
<path d="M679.69 540C819.36 540 836.83 630.72 801.9 691.21L892.78 743.68V336.32L801.9 388.79C836.83 449.27 819.36 540 679.69 540Z" fill="#3380AA"/>
<path d="M540 237.58C609.84 237.6 679.67 298.08 609.84 419.03C679.68 298.08 766.98 328.3 801.91 388.79L892.79 336.32L540 132.6V237.58Z" fill="#B0C2CB"/>
<path d="M470.16 419.03C400.3 298.06 470.16 237.58 540 237.58V132.6L187.21 336.31L278.1 388.79C313.03 328.31 400.33 298.07 470.17 419.04L470.16 419.03Z" fill="#EC9B21"/>
<path d="M278.09 691.21C243.16 630.73 260.63 540 400.32 540C260.63 540 243.16 449.27 278.09 388.79L187.2 336.31V743.69L278.09 691.21Z" fill="#5A4E66"/>
<path d="M470.16 660.97C400.32 781.94 313.02 751.7 278.09 691.22L187.2 743.7L539.99 947.41V842.43C470.15 842.43 400.3 781.94 470.15 660.98L470.16 660.97Z" fill="black"/>
<path d="M745.32 421.5L744.56 421.95C654.19 474.89 654.39 605.83 745.17 658.46L801.91 691.22C836.84 630.74 819.37 540.01 679.7 540.01C819.37 540.01 836.84 449.29 801.91 388.8L743.63 422.45C744.19 422.13 744.76 421.84 745.32 421.51V421.5Z" fill="#7BC1DF"/>
<path d="M540.03 303.82C540.04 303.66 540.04 303.5 540.04 303.36C540.37 407.82 652.79 473.23 743.63 422.44L801.91 388.79C766.98 328.31 679.68 298.08 609.84 419.03C679.68 298.08 609.84 237.6 540 237.58V305C540 304.6 540.02 304.21 540.03 303.82Z" fill="#E7E7E7"/>
<path d="M470.16 419.03C400.32 298.06 313.02 328.3 278.09 388.78L335.33 421.83L335.54 421.95C426.05 473.41 538.51 408.83 539.99 304.99V237.57C470.15 237.57 400.3 298.05 470.15 419.02L470.16 419.03Z" fill="#EDDD77"/>
<path d="M335.05 421.68L335.34 421.84L278.1 388.79C243.17 449.27 260.64 540 400.33 540C260.64 540 243.17 630.73 278.1 691.21L336.14 657.7C425.82 604.51 425.46 474.23 335.05 421.68Z" fill="#CE7280"/>
<path d="M335.5 658.12L335.2 658.29C335.03 658.37 334.86 658.47 334.68 658.58C335.17 658.29 335.65 657.99 336.14 657.7L278.1 691.21C313.03 751.69 400.33 781.93 470.17 660.96C400.31 781.93 470.17 842.41 540.01 842.41V774.79C538.33 671.08 425.95 606.64 335.51 658.11L335.5 658.12Z" fill="#595959"/>
<path d="M745.27 658.51L744.66 658.17C744.66 658.17 744.63 658.16 744.61 658.15L744.6 658.14C653.61 606.35 540.4 671.85 540.04 776.64C540.04 776.02 540.01 775.42 540 774.8V842.42C609.84 842.42 679.69 781.94 609.84 660.97C679.68 781.94 766.98 751.7 801.91 691.21L745.17 658.45C745.17 658.45 745.24 658.49 745.27 658.51Z" fill="#3BAF7D"/>
<path d="M424.29 473.19C475.72 502.89 539.99 465.77 539.99 406.39C539.99 407.23 540.01 408.06 540.03 408.88V303.35C540.03 303.49 540.03 303.65 540.02 303.81C540.02 304.21 540 304.6 539.99 304.99C538.51 408.83 426.05 473.41 335.54 421.95L424.41 473.26C424.41 473.26 424.33 473.21 424.28 473.18L424.29 473.19Z" fill="#EDE7C0"/>
<path d="M744.61 658.15C744.61 658.15 744.65 658.16 744.66 658.17L744.61 658.14V658.15Z" fill="#F4F4F4"/>
<path d="M655.71 473.19C654.96 473.62 654.23 474.06 653.51 474.51L744.56 421.94L745.32 421.49C744.76 421.81 744.19 422.11 743.63 422.43C652.79 473.22 540.37 407.81 540.04 303.35V408.88C541.81 466.79 605.01 502.46 655.71 473.18V473.19Z" fill="#F1F1F1"/>
<path d="M655.71 606.8C655.53 606.7 655.36 606.61 655.18 606.51L744.6 658.14H744.61L744.66 658.17L745.27 658.51C745.27 658.51 745.2 658.47 745.17 658.45C654.39 605.82 654.19 474.89 744.56 421.94L653.51 474.51C604.3 505.03 605.03 577.54 655.71 606.8Z" fill="#A2D1E5"/>
<path d="M540 673.61C540 615.08 477.56 578.19 426.52 605.57L335.51 658.12C425.95 606.65 538.33 671.09 540.01 774.8C540.01 775.41 540.05 776.02 540.05 776.64V671.11C540.02 671.94 540.01 672.77 540.01 673.6L540 673.61Z" fill="#7D7D7D"/>
<path d="M336.14 657.7C335.65 657.99 335.17 658.29 334.68 658.58C334.86 658.47 335.03 658.38 335.2 658.29L335.5 658.12L426.51 605.57C425.77 605.97 425.03 606.38 424.29 606.8C475.68 577.14 475.72 503.01 424.42 473.27L335.55 421.96L335.34 421.84L335.05 421.68C425.46 474.23 425.82 604.51 336.14 657.7Z" fill="#CE8E97"/>
<path d="M540.04 671.11V776.64C540.4 671.85 653.61 606.35 744.6 658.14L655.18 606.51C604.56 577.79 541.8 613.39 540.04 671.12V671.11Z" fill="#86C1A7"/>
<path d="M540 673.61C540 672.77 540.02 671.94 540.04 671.12C541.8 613.4 604.57 577.79 655.18 606.51C655.36 606.61 655.53 606.7 655.71 606.8C605.03 577.54 604.29 505.03 653.51 474.51C654.23 474.06 654.97 473.62 655.71 473.19C605 502.47 541.81 466.8 540.04 408.89C540.01 408.06 540 407.23 540 406.4C540 465.78 475.73 502.89 424.3 473.2C424.34 473.22 424.38 473.25 424.43 473.28C475.73 503.03 475.69 577.15 424.3 606.81C425.04 606.38 425.78 605.98 426.52 605.58C477.56 578.2 540 615.08 540 673.62V673.61Z" fill="white"/>
<path d="M933.035 793.145L923.675 776.933L925.566 775.841L931.195 785.591L933.049 778.246L935.368 776.907L933.326 784.811L942.447 787.711L940.037 789.102L931.585 786.266L934.926 792.053L933.035 793.145Z" fill="#1B3139"/>
<path d="M924.855 797.868L918.407 786.699L920.118 785.711L921.511 787.759C921.431 786.825 921.619 785.936 922.073 785.093C922.527 784.251 923.272 783.53 924.308 782.932L925.452 784.914L924.934 785.213C924.273 785.594 923.735 786.065 923.318 786.626C922.893 787.172 922.675 787.818 922.665 788.564C922.656 789.31 922.933 790.171 923.496 791.147L926.746 796.776L924.855 797.868Z" fill="#1B3139"/>
<path d="M916.774 802.893C915.723 803.5 914.639 803.806 913.521 803.811C912.403 803.816 911.345 803.526 910.347 802.941C909.355 802.333 908.517 801.436 907.833 800.25C907.148 799.064 906.802 797.893 906.795 796.736C906.779 795.564 907.052 794.496 907.616 793.53C908.194 792.556 909.009 791.765 910.059 791.158C911.11 790.552 912.194 790.246 913.312 790.241C914.43 790.236 915.485 790.538 916.477 791.146C917.475 791.731 918.316 792.616 919.001 793.802C919.686 794.988 920.036 796.166 920.052 797.338C920.059 798.495 919.774 799.56 919.195 800.535C918.632 801.5 917.825 802.286 916.774 802.893ZM915.838 801.272C916.484 800.899 916.993 800.395 917.367 799.759C917.74 799.123 917.917 798.39 917.899 797.561C917.88 796.731 917.602 795.851 917.064 794.92C916.527 793.989 915.904 793.308 915.195 792.877C914.5 792.437 913.785 792.22 913.047 792.226C912.31 792.231 911.626 792.416 910.995 792.78C910.35 793.152 909.84 793.657 909.467 794.293C909.094 794.928 908.916 795.661 908.935 796.491C908.954 797.321 909.232 798.201 909.769 799.132C910.306 800.063 910.93 800.743 911.639 801.175C912.348 801.606 913.064 801.823 913.786 801.826C914.524 801.821 915.208 801.636 915.838 801.272Z" fill="#1B3139"/>
<path d="M897.223 813.82L887.51 804.537L889.402 803.445L896.823 810.839L894.378 800.572L896.517 799.337L904.209 806.575L901.493 796.464L903.407 795.359L906.59 808.412L904.654 809.53L896.59 801.907L899.16 812.702L897.223 813.82Z" fill="#1B3139"/>
<path d="M890.677 817.6C889.657 818.189 888.711 818.405 887.839 818.248C886.968 818.09 886.159 817.366 885.414 816.075L881.865 809.928L879.928 811.046L879.005 809.448L880.942 808.33L879.643 805.507L881.286 804.558L882.833 807.238L886.121 805.34L887.044 806.938L883.756 808.836L887.305 814.983C887.713 815.689 888.133 816.087 888.565 816.177C888.989 816.253 889.561 816.083 890.282 815.667L891.453 814.991L892.389 816.612L890.677 817.6Z" fill="#1B3139"/>
<path d="M878.996 824.705C877.93 825.32 876.845 825.626 875.742 825.622C874.631 825.603 873.583 825.297 872.6 824.704C871.632 824.102 870.806 823.208 870.121 822.022C869.445 820.851 869.089 819.696 869.051 818.557C869.005 817.403 869.257 816.347 869.805 815.39C870.36 814.409 871.185 813.603 872.281 812.97C873.361 812.346 874.435 812.056 875.502 812.101C876.575 812.122 877.551 812.409 878.43 812.962C879.31 813.515 880.014 814.249 880.543 815.165C880.638 815.33 880.726 815.499 880.806 815.673C880.902 815.838 881.01 816.026 881.131 816.236L872.237 821.371C872.776 822.201 873.383 822.801 874.058 823.172C874.739 823.52 875.424 823.684 876.114 823.666C876.819 823.639 877.472 823.453 878.073 823.106C878.853 822.655 879.402 822.098 879.719 821.435C880.037 820.771 880.138 820.062 880.023 819.308L881.892 818.229C882.19 819.438 882.11 820.635 881.653 821.819C881.202 822.98 880.317 823.942 878.996 824.705ZM873.159 814.595C872.258 815.115 871.615 815.856 871.23 816.819C870.852 817.758 870.913 818.783 871.415 819.895L878.44 815.839C877.814 814.859 877.014 814.27 876.039 814.072C875.064 813.875 874.104 814.049 873.159 814.595Z" fill="#1B3139"/>
<path d="M858.407 836.231L849.307 820.47L851.198 819.378L866.89 827.161L859.597 814.529L861.488 813.437L870.588 829.198L868.697 830.29L853.005 822.508L860.298 835.139L858.407 836.231Z" fill="#1B3139"/>
<path d="M845.511 844.037C844.175 844.808 842.869 845.112 841.594 844.948C840.318 844.784 839.271 844.167 838.454 843.098L840.39 841.98C840.849 842.496 841.451 842.829 842.198 842.978C842.951 843.104 843.755 842.919 844.611 842.425C845.406 841.966 845.896 841.463 846.081 840.916C846.257 840.354 846.21 839.84 845.942 839.375C845.552 838.7 845.044 838.392 844.419 838.453C843.808 838.505 843.008 838.697 842.019 839.028C841.349 839.255 840.649 839.429 839.918 839.55C839.188 839.672 838.503 839.647 837.864 839.476C837.216 839.289 836.697 838.858 836.307 838.183C835.744 837.207 835.644 836.204 836.01 835.172C836.381 834.117 837.19 833.23 838.436 832.51C839.622 831.826 840.763 831.567 841.861 831.734C842.964 831.878 843.892 832.462 844.645 833.489L842.776 834.568C842.372 834.041 841.868 833.741 841.266 833.668C840.67 833.572 840.027 833.723 839.336 834.122C838.661 834.512 838.218 834.958 838.007 835.46C837.812 835.953 837.848 836.432 838.117 836.898C838.377 837.348 838.813 837.567 839.426 837.553C840.053 837.531 840.825 837.376 841.739 837.088C842.516 836.839 843.278 836.65 844.023 836.52C844.775 836.366 845.472 836.394 846.113 836.604C846.761 836.79 847.319 837.289 847.787 838.1C848.383 839.097 848.481 840.151 848.082 841.262C847.689 842.349 846.832 843.274 845.511 844.037Z" fill="#1B3139"/>
<path d="M833.435 851.009C832.369 851.625 831.284 851.93 830.181 851.927C829.07 851.908 828.022 851.602 827.039 851.009C826.071 850.407 825.245 849.513 824.56 848.327C823.884 847.156 823.528 846.001 823.49 844.862C823.444 843.707 823.696 842.652 824.244 841.695C824.799 840.714 825.624 839.907 826.72 839.275C827.8 838.651 828.874 838.361 829.941 838.406C831.014 838.427 831.99 838.714 832.869 839.267C833.749 839.82 834.453 840.554 834.982 841.47C835.077 841.635 835.165 841.804 835.245 841.978C835.341 842.143 835.449 842.331 835.57 842.541L826.676 847.676C827.215 848.505 827.822 849.106 828.497 849.477C829.178 849.824 829.863 849.989 830.553 849.971C831.258 849.944 831.911 849.757 832.512 849.411C833.292 848.96 833.841 848.403 834.158 847.739C834.476 847.076 834.577 846.367 834.462 845.613L836.331 844.534C836.628 845.743 836.549 846.94 836.092 848.124C835.641 849.285 834.755 850.247 833.435 851.009ZM827.598 840.899C826.697 841.419 826.054 842.161 825.669 843.123C825.291 844.063 825.352 845.088 825.854 846.199L832.879 842.143C832.253 841.163 831.453 840.575 830.478 840.377C829.503 840.179 828.543 840.353 827.598 840.899Z" fill="#1B3139"/>
<path d="M816.141 842.44C815.765 842.657 815.381 842.719 814.987 842.626C814.599 842.51 814.297 842.264 814.081 841.888C813.873 841.528 813.819 841.159 813.921 840.78C814.037 840.392 814.283 840.09 814.659 839.873C815.019 839.665 815.396 839.608 815.79 839.701C816.184 839.794 816.484 840.02 816.692 840.38C816.909 840.756 816.964 841.145 816.856 841.547C816.739 841.935 816.501 842.232 816.141 842.44ZM823.073 856.631L816.625 845.463L818.516 844.371L824.964 855.539L823.073 856.631Z" fill="#1B3139"/>
<path d="M818.576 859.228C817.555 859.817 816.609 860.033 815.738 859.876C814.866 859.718 814.058 858.994 813.312 857.703L809.763 851.556L807.827 852.674L806.904 851.075L808.84 849.957L807.541 847.135L809.185 846.186L810.732 848.865L814.019 846.967L814.942 848.566L811.655 850.464L815.204 856.611C815.611 857.317 816.031 857.715 816.464 857.805C816.887 857.881 817.46 857.711 818.18 857.295L819.351 856.619L820.287 858.24L818.576 859.228Z" fill="#1B3139"/>
<path d="M802.046 850.578C801.67 850.795 801.286 850.857 800.892 850.764C800.504 850.647 800.202 850.401 799.986 850.026C799.778 849.666 799.724 849.296 799.826 848.917C799.942 848.53 800.188 848.228 800.564 848.011C800.924 847.803 801.301 847.746 801.695 847.838C802.089 847.931 802.389 848.158 802.597 848.518C802.814 848.893 802.869 849.282 802.761 849.685C802.644 850.072 802.406 850.37 802.046 850.578ZM808.978 864.769L802.53 853.601L804.421 852.509L810.869 863.677L808.978 864.769Z" fill="#1B3139"/>
<path d="M803.784 867.768L794.424 851.556L796.315 850.464L805.675 866.676L803.784 867.768Z" fill="#1B3139"/>
<path d="M791.667 856.57C791.292 856.787 790.907 856.849 790.513 856.756C790.126 856.639 789.824 856.394 789.607 856.018C789.399 855.658 789.346 855.288 789.447 854.91C789.564 854.522 789.81 854.22 790.185 854.003C790.545 853.795 790.922 853.738 791.316 853.831C791.71 853.923 792.011 854.15 792.219 854.51C792.435 854.886 792.49 855.274 792.382 855.677C792.266 856.064 792.027 856.362 791.667 856.57ZM798.599 870.761L792.151 859.593L794.043 858.501L800.491 869.669L798.599 870.761Z" fill="#1B3139"/>
<path d="M790.38 875.867C789.465 876.395 788.538 876.68 787.601 876.721C786.679 876.753 785.835 876.54 785.07 876.081L785.969 878.054L784.257 879.042L774.897 862.83L776.789 861.738L780.767 868.628C780.815 867.879 781.044 867.097 781.453 866.28C781.877 865.455 782.607 864.743 783.643 864.145C784.754 863.504 785.869 863.2 786.99 863.234C788.11 863.267 789.151 863.597 790.112 864.223C791.089 864.84 791.902 865.711 792.552 866.837C793.202 867.963 793.55 869.103 793.596 870.257C793.649 871.388 793.402 872.451 792.856 873.447C792.316 874.419 791.491 875.225 790.38 875.867ZM789.229 874.34C789.979 873.907 790.54 873.353 790.911 872.678C791.274 871.989 791.438 871.233 791.404 870.412C791.37 869.591 791.111 868.76 790.626 867.919C790.14 867.079 789.55 866.439 788.856 865.999C788.162 865.559 787.43 865.331 786.66 865.315C785.882 865.284 785.117 865.486 784.367 865.919C783.616 866.352 783.06 866.914 782.697 867.603C782.326 868.278 782.157 869.026 782.191 869.847C782.225 870.668 782.485 871.499 782.97 872.339C783.455 873.18 784.045 873.82 784.739 874.26C785.433 874.7 786.17 874.935 786.948 874.966C787.718 874.982 788.478 874.773 789.229 874.34Z" fill="#1B3139"/>
<path d="M768.427 888.181L765.136 869.065L767.14 867.908L782.027 880.329L780.023 881.486L776.242 878.265L769.532 882.139L770.408 887.037L768.427 888.181ZM769.211 880.283L774.795 877.059L767.505 870.88L769.211 880.283Z" fill="#1B3139"/>
<path d="M755.704 895.887C754.638 896.503 753.554 896.808 752.451 896.805C751.339 896.786 750.292 896.48 749.309 895.887C748.341 895.285 747.514 894.391 746.83 893.205C746.154 892.034 745.797 890.879 745.76 889.74C745.714 888.585 745.965 887.53 746.513 886.573C747.068 885.592 747.893 884.785 748.989 884.153C750.07 883.529 751.143 883.239 752.21 883.284C753.283 883.305 754.259 883.592 755.139 884.145C756.018 884.697 756.723 885.432 757.251 886.347C757.347 886.513 757.434 886.682 757.515 886.856C757.61 887.021 757.718 887.209 757.84 887.419L748.946 892.554C749.485 893.383 750.091 893.984 750.766 894.355C751.447 894.702 752.132 894.867 752.823 894.849C753.528 894.822 754.18 894.635 754.781 894.289C755.561 893.838 756.11 893.281 756.428 892.617C756.745 891.954 756.846 891.245 756.731 890.491L758.6 889.412C758.898 890.621 758.818 891.817 758.361 893.002C757.911 894.163 757.025 895.125 755.704 895.887ZM749.867 885.777C748.966 886.297 748.323 887.039 747.938 888.001C747.56 888.94 747.622 889.966 748.123 891.077L755.148 887.021C754.523 886.041 753.722 885.453 752.748 885.255C751.773 885.057 750.812 885.231 749.867 885.777Z" fill="#1B3139"/>
<path d="M743.702 902.816C742.366 903.588 741.06 903.891 739.785 903.727C738.509 903.563 737.463 902.946 736.645 901.877L738.582 900.759C739.04 901.275 739.642 901.608 740.389 901.757C741.142 901.883 741.946 901.699 742.802 901.205C743.597 900.745 744.087 900.242 744.272 899.695C744.448 899.133 744.402 898.62 744.133 898.154C743.743 897.479 743.235 897.172 742.61 897.232C742 897.285 741.2 897.476 740.21 897.807C739.54 898.034 738.84 898.208 738.11 898.33C737.379 898.451 736.694 898.426 736.055 898.255C735.407 898.069 734.888 897.638 734.498 896.962C733.935 895.986 733.836 894.983 734.201 893.951C734.572 892.896 735.381 892.009 736.627 891.29C737.813 890.605 738.954 890.346 740.052 890.513C741.155 890.657 742.083 891.242 742.836 892.268L740.967 893.347C740.563 892.82 740.06 892.52 739.457 892.448C738.861 892.352 738.218 892.503 737.528 892.901C736.852 893.291 736.409 893.737 736.198 894.239C736.003 894.732 736.039 895.212 736.308 895.677C736.568 896.127 737.004 896.346 737.617 896.332C738.245 896.31 739.016 896.155 739.93 895.867C740.708 895.619 741.469 895.429 742.214 895.299C742.966 895.145 743.663 895.173 744.304 895.383C744.952 895.57 745.51 896.068 745.978 896.879C746.574 897.876 746.672 898.93 746.273 900.041C745.88 901.129 745.023 902.054 743.702 902.816Z" fill="#1B3139"/>
<path d="M731.088 909.739L724.64 898.57L726.352 897.582L727.744 899.631C727.665 898.696 727.852 897.807 728.306 896.964C728.761 896.122 729.506 895.401 730.541 894.803L731.685 896.785L731.167 897.084C730.507 897.465 729.968 897.936 729.552 898.497C729.126 899.043 728.909 899.689 728.899 900.435C728.89 901.181 729.166 902.042 729.73 903.018L732.98 908.647L731.088 909.739Z" fill="#1B3139"/>
<path d="M723.446 914.511C722.38 915.127 721.296 915.432 720.193 915.429C719.081 915.41 718.034 915.104 717.051 914.511C716.083 913.909 715.257 913.015 714.572 911.829C713.896 910.658 713.539 909.503 713.502 908.364C713.456 907.209 713.707 906.154 714.255 905.197C714.81 904.216 715.635 903.409 716.731 902.777C717.812 902.153 718.885 901.863 719.952 901.908C721.025 901.929 722.001 902.216 722.881 902.769C723.761 903.321 724.465 904.056 724.993 904.971C725.089 905.137 725.177 905.306 725.257 905.48C725.352 905.645 725.461 905.833 725.582 906.043L716.688 911.178C717.227 912.007 717.834 912.608 718.508 912.979C719.189 913.326 719.875 913.491 720.565 913.473C721.27 913.446 721.923 913.259 722.523 912.913C723.304 912.462 723.853 911.905 724.17 911.241C724.487 910.578 724.588 909.869 724.473 909.115L726.342 908.036C726.64 909.245 726.56 910.442 726.103 911.626C725.653 912.787 724.767 913.749 723.446 914.511ZM717.609 904.401C716.708 904.921 716.066 905.663 715.681 906.625C715.302 907.564 715.364 908.59 715.865 909.701L722.89 905.645C722.265 904.665 721.465 904.077 720.49 903.879C719.515 903.681 718.555 903.855 717.609 904.401Z" fill="#1B3139"/>
<path d="M710.318 921.73L699.637 913.006L701.619 911.862L710.369 919.269L708.351 907.975L710.288 906.857L712.502 920.469L710.318 921.73Z" fill="#1B3139"/>
<path d="M694.981 912.392C694.606 912.608 694.221 912.67 693.828 912.577C693.44 912.461 693.138 912.215 692.921 911.84C692.713 911.479 692.66 911.11 692.762 910.731C692.878 910.343 693.124 910.041 693.499 909.825C693.86 909.617 694.237 909.559 694.631 909.652C695.024 909.745 695.325 909.971 695.533 910.332C695.75 910.707 695.804 911.096 695.697 911.498C695.58 911.886 695.342 912.184 694.981 912.392ZM701.914 926.583L695.466 915.414L697.357 914.322L703.805 925.491L701.914 926.583Z" fill="#1B3139"/>
<path d="M686.145 935.686L677.045 919.925L681.887 917.13C684.664 915.526 687.112 915.053 689.233 915.71C691.369 916.359 693.147 917.914 694.569 920.376C695.964 922.792 696.408 925.088 695.902 927.261C695.402 929.411 693.764 931.288 690.987 932.891L686.145 935.686ZM687.127 933.018L690.031 931.341C691.563 930.457 692.635 929.508 693.25 928.492C693.871 927.453 694.108 926.356 693.961 925.2C693.805 924.029 693.355 922.798 692.61 921.507C691.847 920.186 690.997 919.165 690.061 918.445C689.125 917.724 688.052 917.373 686.841 917.392C685.646 917.401 684.283 917.848 682.751 918.732L679.847 920.409L687.127 933.018Z" fill="#1B3139"/>
<path d="M672.926 943.679C671.935 944.251 670.973 944.596 670.041 944.714C669.1 944.817 668.239 944.714 667.459 944.403C666.68 944.093 666.028 943.588 665.505 942.89L668.41 941.213C668.751 941.596 669.208 941.833 669.78 941.923C670.359 941.989 670.963 941.84 671.594 941.476C672.224 941.112 672.608 940.72 672.746 940.3C672.899 939.872 672.88 939.492 672.69 939.162C672.412 938.682 672.016 938.48 671.5 938.558C670.976 938.62 670.291 938.786 669.445 939.054C668.904 939.226 668.342 939.38 667.76 939.516C667.178 939.652 666.612 939.729 666.062 939.746C665.518 939.74 665.014 939.63 664.551 939.417C664.079 939.189 663.687 938.805 663.375 938.265C662.803 937.274 662.712 936.216 663.103 935.09C663.509 933.955 664.424 932.976 665.851 932.152C667.172 931.39 668.4 931.091 669.536 931.256C670.687 931.412 671.649 931.987 672.423 932.981L669.699 934.554C669.057 933.824 668.196 933.77 667.115 934.394C666.575 934.706 666.215 935.054 666.036 935.438C665.872 935.813 665.881 936.158 666.063 936.473C666.254 936.803 666.623 936.94 667.171 936.884C667.719 936.828 668.401 936.674 669.217 936.423C670.102 936.153 670.932 935.944 671.707 935.796C672.489 935.625 673.201 935.644 673.842 935.854C674.475 936.049 675.021 936.545 675.481 937.34C675.894 938.022 676.074 938.749 676.019 939.521C675.965 940.293 675.676 941.041 675.152 941.763C674.629 942.486 673.886 943.124 672.926 943.679Z" fill="#1B3139"/>
<path d="M655.906 953.145L646.546 936.933L649.428 935.269L654.953 944.839L656.303 938.025L659.725 936.049L658.093 943.777L666.917 946.788L663.314 948.868L655.551 945.874L658.788 951.481L655.906 953.145Z" fill="#1B3139"/>
<path d="M648.032 958.052C646.891 958.71 645.743 959.043 644.586 959.051C643.429 959.058 642.34 958.766 641.318 958.175C640.312 957.575 639.479 956.705 638.82 955.564C638.162 954.423 637.824 953.267 637.808 952.096C637.808 950.915 638.099 949.826 638.684 948.828C639.269 947.83 640.131 947.002 641.272 946.343C642.698 945.52 644.116 945.202 645.525 945.389C646.925 945.561 648.138 946.222 649.162 947.372L646.122 949.127C645.66 948.673 645.117 948.426 644.493 948.386C643.876 948.322 643.267 948.464 642.667 948.81C641.871 949.27 641.369 949.96 641.16 950.881C640.951 951.802 641.155 952.796 641.77 953.861C642.385 954.927 643.144 955.6 644.046 955.88C644.948 956.159 645.797 956.07 646.593 955.61C647.193 955.264 647.624 954.815 647.886 954.263C648.163 953.703 648.217 953.102 648.046 952.46L651.086 950.705C651.544 952.121 651.506 953.494 650.972 954.823C650.438 956.152 649.458 957.228 648.032 958.052Z" fill="#1B3139"/>
<path d="M630.507 950.607C629.981 950.91 629.455 951.004 628.928 950.888C628.415 950.763 628.021 950.461 627.743 949.981C627.466 949.5 627.406 949.015 627.563 948.524C627.726 948.009 628.07 947.6 628.596 947.297C629.121 946.994 629.64 946.904 630.152 947.029C630.671 947.13 631.069 947.42 631.346 947.901C631.623 948.381 631.68 948.878 631.517 949.393C631.369 949.899 631.032 950.304 630.507 950.607ZM636.514 964.341L630.066 953.173L632.949 951.509L639.397 962.677L636.514 964.341Z" fill="#1B3139"/>
<path d="M627.474 969.561L621.026 958.392L623.593 956.91L625.072 958.848C625.062 957.894 625.28 957.007 625.728 956.188C626.182 955.345 626.882 954.651 627.828 954.105L629.583 957.145L628.772 957.613C628.142 957.977 627.635 958.399 627.253 958.881C626.87 959.362 626.675 959.925 626.667 960.57C626.674 961.206 626.924 961.952 627.418 962.808L630.356 967.897L627.474 969.561Z" fill="#1B3139"/>
<path d="M619.562 974.489C618.721 974.974 617.895 975.241 617.082 975.29C616.27 975.339 615.504 975.191 614.784 974.845L615.353 976.559L612.786 978.041L603.426 961.829L606.308 960.165L610.143 966.807C610.217 966.104 610.439 965.395 610.807 964.682C611.191 963.96 611.856 963.326 612.802 962.78C613.852 962.173 614.938 961.887 616.058 961.921C617.179 961.954 618.235 962.275 619.226 962.884C620.218 963.492 621.039 964.359 621.689 965.485C622.339 966.611 622.679 967.755 622.71 968.918C622.733 970.066 622.478 971.134 621.947 972.121C621.408 973.093 620.612 973.882 619.562 974.489ZM617.498 972.318C618.413 971.789 618.994 971.044 619.239 970.082C619.484 969.12 619.325 968.151 618.762 967.175C618.198 966.199 617.434 965.57 616.47 965.286C615.505 965.002 614.565 965.124 613.65 965.653C612.719 966.19 612.135 966.948 611.899 967.925C611.669 968.878 611.836 969.843 612.399 970.818C612.962 971.794 613.719 972.428 614.668 972.721C615.624 972.99 616.567 972.855 617.498 972.318Z" fill="#1B3139"/>
<path d="M603.797 983.591C602.836 984.146 601.961 984.451 601.172 984.506C600.375 984.546 599.679 984.397 599.084 984.06C598.489 983.723 598.014 983.247 597.659 982.631C597.061 981.596 596.981 980.521 597.419 979.408C597.856 978.294 598.886 977.269 600.507 976.333L603.344 974.695L603.188 974.425C602.746 973.66 602.204 973.222 601.56 973.113C600.917 973.004 600.273 973.136 599.627 973.509C599.042 973.847 598.614 974.284 598.343 974.821C598.064 975.342 598.027 975.904 598.234 976.505L595.42 978.13C595.027 977.276 594.89 976.414 595.008 975.545C595.142 974.667 595.493 973.854 596.062 973.106C596.622 972.342 597.367 971.692 598.298 971.154C599.889 970.236 601.372 969.91 602.747 970.177C604.122 970.444 605.23 971.305 606.07 972.761L610.035 979.629L607.581 981.046L606.271 979.4C606.287 980.192 606.108 980.956 605.733 981.693C605.373 982.421 604.727 983.054 603.797 983.591ZM603.15 980.962C603.975 980.486 604.457 979.847 604.596 979.047C604.749 978.238 604.656 977.401 604.317 976.536L601.862 977.953C601.097 978.395 600.631 978.854 600.466 979.33C600.292 979.79 600.321 980.223 600.555 980.629C600.807 981.064 601.167 981.307 601.636 981.356C602.105 981.406 602.609 981.274 603.15 980.962Z" fill="#1B3139"/>
<path d="M595.289 988.142C594.118 988.818 593.015 989.075 591.981 988.912C590.946 988.749 590.008 987.939 589.167 986.483L586.359 981.619L584.445 982.724L583.054 980.315L584.968 979.21L583.577 976.02L586.121 974.551L587.85 977.546L590.868 975.804L592.259 978.213L589.241 979.955L592.062 984.841C592.374 985.382 592.704 985.692 593.05 985.772C593.403 985.829 593.865 985.692 594.435 985.363L595.831 984.557L597.248 987.011L595.289 988.142Z" fill="#1B3139"/>
<path d="M581.478 996.477C580.517 997.031 579.642 997.336 578.854 997.391C578.056 997.431 577.36 997.283 576.765 996.946C576.17 996.609 575.695 996.133 575.34 995.517C574.742 994.481 574.662 993.407 575.1 992.293C575.538 991.18 576.567 990.155 578.188 989.219L581.025 987.581L580.869 987.311C580.427 986.545 579.885 986.108 579.242 985.999C578.598 985.89 577.954 986.022 577.308 986.395C576.723 986.733 576.295 987.17 576.024 987.707C575.745 988.228 575.709 988.789 575.916 989.39L573.101 991.015C572.708 990.162 572.571 989.3 572.69 988.431C572.823 987.553 573.174 986.74 573.743 985.991C574.303 985.228 575.048 984.577 575.979 984.04C577.57 983.121 579.053 982.795 580.428 983.062C581.803 983.329 582.911 984.191 583.752 985.647L587.717 992.514L585.262 993.931L583.952 992.286C583.969 993.077 583.789 993.841 583.414 994.578C583.054 995.307 582.409 995.939 581.478 996.477ZM580.831 993.848C581.656 993.371 582.138 992.733 582.277 991.932C582.43 991.123 582.337 990.286 581.998 989.421L579.544 990.838C578.778 991.28 578.312 991.739 578.147 992.215C577.973 992.676 578.003 993.109 578.237 993.515C578.488 993.95 578.848 994.192 579.317 994.242C579.786 994.291 580.29 994.16 580.831 993.848Z" fill="#1B3139"/>
<path d="M561.531 1007.63L552.431 991.871L557.813 988.764C559.659 987.698 561.366 987.153 562.933 987.129C564.507 987.081 565.921 987.485 567.176 988.342C568.437 989.175 569.527 990.387 570.446 991.978C571.365 993.569 571.874 995.127 571.973 996.651C572.079 998.151 571.722 999.578 570.902 1000.93C570.089 1002.26 568.759 1003.46 566.913 1004.53L561.531 1007.63ZM562.983 1003.49L565.348 1002.13C566.669 1001.36 567.59 1000.55 568.113 999.689C568.628 998.812 568.82 997.88 568.691 996.894C568.553 995.893 568.155 994.822 567.496 993.681C566.846 992.555 566.122 991.682 565.324 991.062C564.526 990.442 563.618 990.136 562.601 990.142C561.584 990.149 560.416 990.534 559.095 991.296L556.73 992.661L562.983 1003.49Z" fill="#1B3139"/>
</svg>
